<svg xmlns="http://www.w3.org/2000/svg" width="1200" height="720">
  <path fill="#fff" d="M0 0h1200v720H0Z" />
  <path fill="#ed2024" d="M0 0h1200v240H0Z" />
  <path fill="#278e43" d="M0 480h1200v240H0Z" />
  <path fill="#febd11"
    d="m613 272-13-92-13 92-40-84 14 91-63-68 40 84-80-47 64 68-90-21 80 46-93 6 91 21-86 33 92-7-73 58 86-35-52 77 72-58-28 88 52-77v93l27-88 27 88v-93l52 77-28-88 72 58-52-77 86 35-73-58 92 7-86-33 91-21-93-6 80-46-90 21 64-68-80 47 40-84-63 68 14-91-40 84z" />
</svg>