<svg xmlns="http://www.w3.org/2000/svg" width="1200" height="720">
  <path fill="#de0000" d="m0 0h1200v720H0Z" />
  <path fill="#068e6b" d="m0 270h1200v180H0Z" />
  <path fill="#ffd900"
    d="m136 90l6-16-14-10h17l5-16 5 16h17l-14 10 6 16-14-10Zm-10 13l24-16 24 16-9-27 21-17h-27l-9-26-9 26h-27l21 17Zm79 146c9 9 23-5 14-14l-82-78 23-22-32-4-36 35 18 18 17-17 78 82Zm-126-2c-2 2 2 6 4 4 5 1 10 0 14-4 7-7 12-21 18-23 5-2 7-5 7-7 9 11 23 18 38 18 28 0 51-20 51-50 0-35-28-69-61-77 26 14 42 39 42 69 0 21-17 39-39 39-11 0-22-5-29-13l-4 3c-2-1-6 0-7 2-2 0-5 2-7 7-2 6-16 11-23 18-4 4-5 9-4 14Z" />
</svg>