<svg xmlns="http://www.w3.org/2000/svg" xmlns:xlink="http://www.w3.org/1999/xlink" width="1200" height="720">
  <path d="m0 0h1200v720H0V0Z" fill="#d50032" />
  <path d="m0 0h816v720H0V0Z" fill="#fedf00" />
  <path d="m0 0h384v720H0V0Z" fill="#001998" />

  <path id="a"
    d="M600 526l1-1l1-321h-2c-12 0-20-11-31-11c-9 0-14 8-14 15c0 9 7 15 7 22c0 6-5 10-14 10c-7 0-15-3-19-6c10-1 10-16-3-16c-2-4-9-5-13-2c-3-1-8-1-11 2c-5-3-12-1-15 4c-4 1-8 5-9 9c-4 0-8 3-8 10c0 14 32 26 22 40c1-3-1-6-5-6s-7 5-5 9c-14-7-38 3-38 29c0 20 14 31 23 33c-6 2-7 9-4 13s9 5 13 1c2 3 5 8 5 14c0 9-4 15-8 19c-2-6-13-6-14 1c-1 1-2 3-2 5c-6 4-4 18 9 16c-26 25-6 69 53 69c15 0 37 1 47 11c-5 1-8 5-8 10c0 7 6 11 12 12c4 5 12 5 17 0c3 4 8 8 13 9ZM598 441l-71-1l-20-20v-168h91Z"
    fill="#6d412e" />

  <use xlink:href="#a" transform="matrix(-1 0 0 1 1200 0)" />

  <path
    d="M530 437v-86h-10v86ZM539 437h10v-86h-10ZM558 437h10v-86h-10ZM587 437v-86h-10v86ZM620 403c-1 0-2-1 1-1c1 2-1 2-1 1ZM623 401c0-2 2-2 3-2c0 1-1 2-3 2ZM641 430l2-2c-1-1-1-1-1-2c0-4 1-4 1-9c0-2 0-3 2-5c-1 2-1 3-1 5c6 0 14-1 16-3c-1-1-1-1-3-1c5-2 7 3 9 3s2 2 2 4c0 3 1 5 0 6l-2 2l3 2l1-2c0-6 2-7 2-10c0-1-2-2-2-5v-4c-6 0-6-1-9-1s-3 2-7 2l1-1h-4c1-1 0-2-1-2c1-1 3-3 7-3s5 1 9 1c3 0 5-2 3-4c2 1 3 5-3 5c-4 0-12-3-14 1h2l-1 1h3v1c4-4 8-1 12-1s5-3 5-5c0-3-5-5-9-5c-7 0-8 1-17 1c-5 0-3 2-13 2l-2-1c2 0 1-3 3-4c-2-1-3 0-4 1c-2-1-6-2-7-1s-2 1-2 2s-2 2-3 3c-3 0-1 4 0 4c3 0 5 2 8 2l2 1c0 5 1 4 2 7c-3 4 0 4 0 8v1c1 1 1 1 1 2l1 1l2-4l-1-1v-1c0-1-2-3 0-4c-1-1-1-2-1-4c1 1 0 4 5 4c0-3-1-3-1-5c2 3 2 7 2 9s2 4 0 6l-1 1ZM659 428c0-1 1-1 2-2s2-5 5-6s0-4-1-3s-2 2-3 2c-3 2-2 5-3 6s-2 0-3 1ZM657 418c-1 1 1 2 1 0h2c0 2 2 1 1 0c1 0 3-1 3-2l-3-2c0 1-3 2-6 3c0 0 1 1 2 1ZM512 341h83v-84h-83ZM620 365c-1 0-2-1 1-1c1 2-1 2-1 1ZM623 363c0-2 2-2 3-2c0 1-1 2-3 2ZM641 392l2-2c-1-1-1-1-1-2c0-4 1-4 1-9c0-2 0-3 2-5c-1 2-1 3-1 5c6 0 14-1 16-3c-1-1-1-1-3-1c5-2 7 3 9 3s2 2 2 4c0 3 1 5 0 6l-2 2l3 2l1-2c0-6 2-7 2-10c0-1-2-2-2-5v-4c-6 0-6-1-9-1s-3 2-7 2l1-1h-4c1-1 0-2-1-2c1-1 3-3 7-3s5 1 9 1c3 0 5-2 3-4c2 1 3 5-3 5c-4 0-12-3-14 1h2l-1 1h3v1c4-4 8-1 12-1s5-3 5-5c0-3-5-5-9-5c-7 0-8 1-17 1c-5 0-3 2-13 2l-2-1c2 0 1-3 3-4c-2-1-3 0-4 1c-2-1-6-2-7-1s-2 1-2 2s-2 2-3 3c-3 0-1 4 0 4c2 0 5 2 8 2l2 1c0 5 1 4 2 7c-3 4 0 4 0 8v1c1 1 1 1 1 2l1 1l2-4l-1-1v-1c0-1-2-3 0-4c-1-1-1-2-1-4c1 1 0 4 5 4c0-3-1-3-1-5c2 3 2 7 2 9s2 4 0 6l-1 1ZM659 390c0-1 1-1 2-2s2-5 5-6s0-4-1-3s-2 2-3 2c-3 2-2 5-3 6s-2 0-3 1ZM657 380c-1 1 1 2 1 0h2c0 2 2 1 1 0c1 0 3-1 3-2l-3-2c0 1-3 2-6 3c0 0 1 1 2 1ZM616 341h12v-84h-12ZM640 341h12v-84h-12ZM664 341h12v-84h-12ZM516 335l52-55c2-2 4-4 5-7h-4l-1-3h5v-2h-5l1-3h5c3-6 17-6 17 5c0 8-8 10-13 7l3-3c3 1 6-1 6-4c0-7-10-7-10 0c0 4-2 9-5 12l-53 56Z"
    fill="#d50032" />

  <path id="b"
    d="M600 452l2-1v-204h-54h-46v62v101c0 7 2 14 6 20c9 12 25 15 39 15c17 0 41-6 53 7ZM570 515c7 0 12-7 12-13c0-17-34-23-61-23c-33 0-56-15-56-37c0-14 9-25 22-25c11 0 17 10 15 17c4-6 2-21-14-21c-6 0-13 2-16 5c2-4 13-9 23-5c-2-3-6-4-10-4c-15 0-28 14-28 31c0 24 24 42 59 42c18 0 43 2 51 13c6 0 9 3 9 7c0 9-13 8-10 0h1c-1 3 0 5 3 5c6 0 7-11-2-11c-5 0-9 4-9 9s5 10 11 10ZM579 519c7 0 13-7 13-15c0-9-9-21-29-25v-1c14 2 34 14 30 30c5-1 9-8 3-17c-16-24-56-17-75-17c-34 0-48-16-48-32c0-8 5-17 13-17c10 0 11 12 5 12c3-3 1-7-2-7c-6 0-6 11 4 11c5 0 8-4 8-9c0-8-6-14-14-14c-12 0-21 10-21 24c0 22 23 36 55 36c27 0 62 6 62 24c0 8-6 14-12 14c1 2 4 3 8 3ZM469 402c5-9-10-12-11-3c3-2 10-1 11 3ZM471 398c3-8-8-10-10-5c4-2 10 0 10 5ZM600 495l2-3v-37h-2c-14-14-35-8-53-8c-16 0-33-4-42-19c0 8-5 15-12 15c-14 0-11-18-1-14c-1-1-3-2-5-2c-5 0-12 5-12 17c0 15 15 28 46 28s65-6 79 23ZM600 524l2-1v-17l-2-2c-1 3-3 5-7 6l-4 6c2 4 7 7 11 8ZM464 414c12 0 28-16 28-36c0-13-6-31-20-31c-4 0-8 2-8 7c0 8 13 9 13 1c0-5-6-5-7-1l-1-1c2-6 19-4 19 23c0 22-12 34-22 34c-5 0-6-3-5-5c0 3 2 4 4 4c5 0 5-10-3-10c-4 0-7 3-7 7c0 5 4 8 9 8ZM468 409c11-3 19-16 19-32c0-8-2-19-9-24c1 2 0 5-1 6c3 4 5 9 5 15c0 9-4 15-9 20c0 1 0 3-1 5c3-2 6-5 8-8c-2 5-5 7-8 9c0 1-1 3-2 4c0 1 0 3-2 5ZM501 417v-32c-2 6-5 12-8 15v-1c10-14 10-33-2-44h1l3 3c8-7 7-17 1-23l-4 2v-1c6-3 11-11 8-19c-4 4-9 6-15 6c-8 0-15-5-17-12h1c2 6 8 11 16 11c10 0 19-7 15-17c-3 6-10 9-16 9c-3 0-6-1-7-2v-1c1 1 4 2 7 2c10 0 17-7 17-17c0-2-1-6-3-8c-2 2-7 3-10 2c4 3 4 17-7 17c-5 0-10-5-8-10c-8 2-12 11-12 20c0 8 5 16 11 18c-2-1-2-7 2-9c12-6 24 13 5 21c17 9 22 43 1 61c5-1 13 0 16 5c1 1 3 2 5 4ZM501 369v-16l-5 6c2 3 3 4 5 10ZM474 340c-10 0-20-12-20-26c0-15 10-24 20-24c4 0 10 2 10 7c0 4-4 4-5 2v-1c2 2 4 1 4-1c0-5-9-4-9 2c0 8 15 10 15-2c0-20-43-19-43 15c0 37 41 41 41 23c0-11-15-11-15-3c0 6 9 7 9 2c0-2-2-3-4-1v-1c1-2 5-2 5 2c0 3-3 6-8 6ZM477 338c-2 0-4-1-5-2c-16-5-17-35 1-41c1-1 4-3 7-2c-9-6-25 4-25 21s15 28 22 24ZM595 438c-21-6-34-2-50-2c-19 0-33-9-33-25v-60h83ZM501 340v-12l-4 6ZM501 291v-7l-2 3ZM491 289c6 0 10-5 10-12c0-22-26-23-23-45c-3 0-7 3-7 9c0 12 24 20 24 35c0 7-5 9-7 8v-1c4 0 4-5 1-6s-6 1-6 5c0 5 5 7 8 7ZM512 341v-84h83v84ZM501 270v-24h38c-8-2-22-8-22-18c0-7 4-9 8-10c-4-5-16-3-16 8c0 5 3 9 7 11v1c-7-3-12-14-4-21c-11-3-19 12-7 21v1c-8-5-9-15-4-20c-15-6-21 17-5 24v1c-8-3-13-12-10-20c-5 2-7 6-7 11c0 16 18 21 22 35ZM562 246h21c-3-1-4-5-4-8c-4 2-9 6-17 8ZM550 246c21 0 27-12 35-12c4 0 6 4 3 7h-1c3-6-6-7-6-1c0 3 3 6 7 6c5 0 8-4 8-8c0-5-4-9-10-9c-5 0-11 4-16 7c1-2 1-4 1-6c0-8-8-14-8-22c0-5 3-7 6-7c9 0 19 11 31 11l2-1v-6h-2c-10 0-20-11-31-11c-9 0-13 9-13 14c0 9 7 14 7 22c0 7-6 11-15 11s-25-6-25-13c0-6 7-4 6-1c-1-3-5-2-5 1c0 2 2 4 5 4c4 0 6-3 6-6c0-9-17-10-17 2c0 11 19 18 32 18ZM592 246h10v-21h-2c-8 0-11-7-16-7c-3 0-5 3-5 5c-1-3 1-7 5-7c6 0 9 7 16 7l2-1v-9h-2c-12 0-23-10-30-10c-4 0-5 3-5 6c0 8 10 16 7 25c4-3 10-6 14-6c6 0 11 4 11 10c0 4-2 7-5 8Z"
    fill="#c3a97c" />

  <use xlink:href="#b" transform="matrix(-1 0 0 1 1200 0)" />

  <path fill="#6d412e"
    d="M506.8 458.5l7.6-9.6l-2-0.5l-5.8 7.3l-1.5-9.1l-2-0.5l2.2 12ZM516.2 460.7l2.3-10.9l-1.8-0.4l-2.4 10.9ZM528.3 463.1l-3-5.2c4.2 0 4.7-5.7 0.5-6.6l-3.8-0.8l-2.1 11l1.9 0.3l1-4.9l3.3 5.8ZM524.4 456.3l-1.5-0.3l0.7-3.4l1.5 0.3c2.6 0.5 1.8 3.9-0.7 3.4ZM535 464.2l1.5-9.3l3.4 0.5l0.3-1.7l-8.9-1.4l-0.2 1.7l3.5 0.6l-1.5 9.3ZM556.8 467.5c2.2 0.1 4-1.1 4-2.9c0-3.7-5.4-3.6-5.1-5.7c0.2-1.6 3.5-1.1 4.9 0.3l0.2-1.9c-0.4-0.3-1.5-1-3.2-1.2c-2-0.2-3.7 0.9-3.8 2.6c-0.2 3.5 5.1 3.8 5.1 5.7c0 0.9-1 1.4-2.2 1.3c-1.3-0.1-2.3-0.8-3.5-1.8l-0.2 2c0.5 0.4 2.1 1.5 3.8 1.6ZM575.3 469.4h1.5l5.6-10.8l-2.1-0.1l-4.1 8.2l-3.3-8.6l-2.1-0.1ZM592.6 470h1.4l0.2-11.1l-1.9-0.1l-0.2 7.7l-6.1-7.8l-1.3-0.1l-0.3 11.2h1.9l0.2-7.7ZM597.9 470h1.9l0.1-11.1h-1.9ZM606.5 470l1.9-0.1l-0.1-9.4l3.5-0.1v-1.7l-9 0.2v1.7h3.5ZM612.6 469.9l2-0.1l1.1-2.7l5.2-0.2l1.2 2.6l2.1-0.1l-5.5-10.9h-1.4ZM616.2 465.4l1.9-4.3l2 4.2ZM633.3 468.2l1.9-0.1l-0.4-4.5l4.2-0.4l-0.2-1.7l-4.1 0.3l-0.3-3.1l4.5-0.4l-0.1-1.7l-6.4 0.5ZM647 466.8c3.1 0 5.7-2.6 5.7-5.7c0-3.2-2.6-5.7-5.7-5.7c-3.2 0-5.7 2.5-5.7 5.7c0 3.1 2.5 5.7 5.7 5.7ZM647 465c-2.2 0-3.8-1.8-3.8-3.9c0-2.2 1.6-3.9 3.8-3.9c2.1 0 3.8 1.7 3.8 3.9c0 2.1-1.7 3.9-3.8 3.9ZM656.3 465.5l1.9-0.3l-0.7-5l4.9 4.4l2.3-0.3l-4.5-4.1c3.8-1.3 2.4-6.7-1.9-6.2l-3.6 0.4ZM657.3 459.3l-0.5-3.4l1.6-0.2c2.7-0.3 2.9 3.1 0.6 3.4ZM669.4 463.4l1.9-0.3l-1.6-9.3l3.5-0.6l-0.3-1.7l-8.8 1.6l0.3 1.7l3.4-0.6ZM677.7 461.9l1.9-0.3l-2.2-11l-1.8 0.4ZM687.1 460c3.1 0 5.7-2.6 5.7-5.7c0-3.2-2.6-5.7-5.7-5.7c-3.2 0-5.7 2.5-5.7 5.7c0 3.1 2.5 5.7 5.7 5.7ZM687.1 458.2c-2.2 0-3.8-1.8-3.8-3.9c0-2.2 1.6-3.9 3.8-3.9c2.1 0 3.8 1.7 3.8 3.9c0 2.1-1.7 3.9-3.8 3.9ZM696.8 457.6l1.9-0.5l-1.4-5l5.5 3.8l2.3-0.6l-5.1-3.3c1.6-0.8 2.2-2.4 1.7-4c-0.6-1.8-2.5-2.7-4.8-2l-3 0.9ZM697.1 451.3l-0.9-3.3l1.5-0.4c2.7-0.6 3 2.9 1.1 3.3ZM546.5 466l6.5-10.3l-2-0.2l-4.9 7.8l-2.4-8.9l-2-0.3l3.2 11.7Z" />


  <path fill="#fff"
    d="M539 336c7 0 11-7 11-14h5c0 7 4 14 11 14c11 0 13-17 18-17c3 0 4 5-2 8l2 4c9-3 10-17 0-17c-9 0-10 17-18 17c-4 0-6-4-6-8l6 1l12-33l-26-32l-25 32l12 33l6-1c0 4-2 8-6 8c-8 0-9-17-18-17c-10 0-9 14 0 17l2-4c-6-3-5-8-2-8c5 0 7 17 18 17Z" />
  <path fill="#fbdb48" d="M542 319l-9-28l17-22v49ZM563 319l-8-1v-49l17 22Z" />

  <path fill="#1360b1"
    d="M633 428c3-2 2-3 2-5c-1 0-2 1-3 3c0 0 1 1 1 2ZM636 430c2 1 3 0 5 0v-1c-1-1-2-1-3-1s-1 1-2 2ZM624 414c0 1 2 1 2 0s-2-1-2 0ZM628 413c-1-2 0-3 0-4l-2-1c-1 1-1 2-3 3c0 1 4 2 5 2ZM629 408c2-1 4-4 5-7l-2-1c-1 3-2 5-5 7ZM623 397l2-1c-3-1-1-6-4-6c1 1-1 7 2 7ZM656 428h3c-1-2-2-2-3-2s-1 1-2 1c0 1 1 1 2 1ZM630 397c3-3-2-5 0-7c-4 2 0 4-2 6c-1 1 1 2 2 1ZM664 430c2 1 3 0 5 0v-1c-1-1-2-1-3-1s-1 1-2 2ZM633 390c3-2 2-3 2-5c-1 0-2 1-3 3c0 0 1 1 1 2ZM636 392c2 1 3 0 5 0v-1c-1-1-2-1-3-1s-1 1-2 2ZM624 376c0 1 2 1 2 0s-2-1-2 0ZM628 375c-1-2 0-3 0-4l-2-1c-1 1-1 2-3 3c0 1 4 2 5 2ZM629 370c2-1 4-4 5-7l-2-1c-1 3-2 5-5 7ZM623 359l2-1c-3-1-1-6-4-6c1 1-1 7 2 7ZM656 390h3c-1-2-2-2-3-2s-1 1-2 1c0 1 1 1 2 1ZM630 359c3-3-2-5 0-7c-4 2 0 4-2 6c-1 1 1 2 2 1ZM664 392c2 1 3 0 5 0v-1c-1-1-2-1-3-1s-1 1-2 2Z" />

</svg>