<svg xmlns="http://www.w3.org/2000/svg" width="1200" height="720">
  <path d="m0 0h1200v720H0V0Z" fill="#fff" />
  <path fill="#000"
    d="m658 252c5 0 10-6 12-14l-1-1c-2 3-5 5-8 5-4 0-5-3-5-6 0-5 5-15 9-21h-1c-6 6-14 20-14 29 0 5 4 8 8 8Zm99-3l3-1c0-7 1-21 8-21 2 0 3 2 4 4l3-4c-1-3-4-5-7-5-7 0-8 11-9 17-2-7-9-14-14-14l-1 1c0 5 3 9 8 9 4 4 5 9 5 14Zm1 68c4 0 9-2 11-7 2 4 6 6 10 6 6 0 7-8 7-14l-5-12h-1l-4 6 6 11-1 1c-3 0-6-1-8-3l-4-13v-2l-4 4 1 12c-2 2-4 4-7 4s-5-3-5-7c0-3 1-6 3-9l-1-1c-4 3-6 9-6 13 0 5 3 11 8 11Zm-196 49c4 0 9-2 11-7 2 4 6 6 10 6 6 0 7-8 7-14l-5-12h-1l-4 6 6 11-1 1c-3 0-6-1-8-3l-4-13v-2l-4 4 1 12c-2 2-4 4-7 4s-5-3-5-7c0-3 1-6 3-9l-1-1c-4 3-6 9-6 13 0 5 3 11 8 11Zm-16-114h1c5-15-2-26-14-32v8c10 5 15 13 13 24Zm430 82c0-1 1-1 1-2 3-8 3-16 0-23-4-8-10-15-18-19-1 3-1 6-1 10 8 4 15 10 17 18 2 6 2 11 1 16Zm-54 168c67-9 97-35 97-104l-11-144 6 9 1-7-14-42h-1l-9 18v1l4 8c3 55 13 146 13 182 0 41-52 62-87 77l1 2Zm17-152l-49-47v-3l43-39 6 89Zm-63-62l-14-17 12 3 1-1 1 15Zm-132-13v-4c-3-1-6-2-6-3 0-3 40-16 47-19 2-1 3-3 4-5h-1c-8 3-52 17-52 22v4c0 2 2 4 8 5Zm123 121c1-3 0-6-1-8 3 1 9 6 9 8s-4 1-8 0Zm-3-1c-4-1-6-2-6-3 0-2 1-4 3-4s4 4 3 7Zm-42 31c19-3 38-15 44-26 3 1 6 2 9 2 2 0 4-2 4-6s-6-11-10-14c-3-2-6-4-10-4-2 0-4 2-4 4s1 3 3 5c-3 3-3 8-3 8 0 2 2 3 7 4-7 9-24 20-40 26v1Zm-70-65c18-10 35-19 52-28 3-2 4-5 5-8l-54 28-3 8Zm22 136c-13 0-20-18-22-38 27 0 48-12 47-38 0-9-5-18-13-26l22-19 10-10c1 4 1 8 1 13 1 13 1 12 1 18s-1 13-1 19v5c10-11 13-26 13-40l-3-25 48-45 2 3 14 144c-5 5-17 9-29 9-28 0-20-36-35-36-13 0-27 16-33 30s-9 36-22 36Zm97 6h1l57-23c3-2 5-5 6-8h-1l-60 25-3 6Zm-113-63c-3 0-6-1-6-3 0-7 18-27 24-31 4 3 13 14 15 19v2c-9 9-23 13-33 13Zm69 60h1c5-14-1-24-14-32v8c10 5 15 12 13 24Zm-181-155c6-1 12-4 16-8 4-3 8-7 9-11 1-3 1-5-1-7-1-2-3-2-5-1-4 2-7 5-10 8-1 1-2 2-2 3 3-1 5-4 8-4 2 0 4 2 4 4s-2 4-4 6c-3 3-7 5-11 8-2 1-3 1-4 2Zm50 35l-3-2v-1c1-1 3-1 4-1l-1 4Zm-29 23l1 1c13-3 26-9 30-18l3 2 1-4-3-2 1-3v-4c-1-2-2-3-4-3-3 0-5 2-5 6 0 2 1 4 4 6-3 8-19 15-28 19Zm-191-72c14 0 19-19 22-31s10-38 18-38c1 0 2 1 2 3 0 5-6 20-6 31 0 23 10 35 33 35s36-25 40-43h1c7 18 15 34 36 34 11 0 18-5 24-16l4-20-1-5-16-44 8 4 1-2-18-23-6 15v1l25 64c0 6-8 10-19 10-21 0-31-21-32-39s-6-37-10-46h-1l-6 15v1c5 10 8 26 8 38 0 20-13 40-35 40-10 0-31-4-31-25 0-12 10-36 10-46 0-2-1-3-3-3-3 0-9 7-15 18s-12 29-15 41-7 22-17 22c-13 0-19-13-19-28 0-5 1-15 3-26h-1c-3 9-5 22-5 32 0 17 6 31 21 31Zm60-49c4 0 9-2 11-7 2 4 6 6 10 6 6 0 7-8 7-14l-5-12h-1l-4 6 6 11-1 1c-3 0-6-1-8-3l-4-13v-2l-4 4 1 12c-2 2-4 4-7 4s-5-3-5-7c0-3 1-6 3-9l-1-1c-4 3-6 9-6 13 0 5 3 11 8 11Zm98 92c-2-2-9-9-9-11s3-3 6-3c7 0 14 4 21 9-6 2-12 3-18 5Zm-164-141l-6-3v-1c1-1 3-2 4-2 2 0 2 4 2 6Zm231 250c3 0 5-3 5-7h-1l-2 2c-2 0-4-1-4-5s3-10 7-15h-1c-5 5-9 14-9 19 0 3 2 6 5 6Zm-228-205c4 0 8-7 8-10l-2-1c-1 3-3 5-4 5s-2-1-2-3c0-6 8-15 8-22 0-6-4-10-6-12 0-6-1-12-6-12s-8 5-8 8 5 5 9 7c-3 10-17 24-33 32v1c16-4 31-17 36-31 2 2 4 5 4 8 0 9-8 17-8 24 0 4 2 6 4 6Zm187 212c7 0 18-6 24-13l-1-1c-5 5-16 8-22 8-5 0-9-1-9-3 0-3 15-12 19-14l1-3c-3-1-10-2-13-2-6 0-9 3-9 8h1l3-2h10c-6 3-16 9-16 14s5 8 12 8Zm-233-226h1c5-15-2-26-14-32v8c10 5 15 13 13 24Zm-20 62h1l35-18c4-2 5-5 5-8h-1l-36 19-4 7Zm123 176l1-1 1-5c0-6-4-11-4-19 0-5 4-6 11-6l4-4c0-2 1-8-6-8-4 0-8 3-8 7h1c1-1 2-2 4-2s3 1 3 2c-6 0-13 3-13 9 0 10 6 19 6 27Zm-90-87l3-1c0-7 1-21 8-21 2 0 3 2 4 4l3-4c-1-3-4-5-7-5-7 0-8 11-9 17-2-7-9-14-14-14l-1 1c0 5 3 9 8 9 4 4 5 9 5 14Zm-107 93l56-11c16-3 31-11 44-21 3 10 9 17 19 17 25 0 50-19 84-49l5-17h1c5 48 26 73 78 73l1-19c-9-1-37-8-37-13 0-10 74-28 120-37l9-16h-132c6-6 14-10 22-13 10-5 20-9 31-12l5 10h2c1-4 1-9 0-13l25-5 5-15v-1c-11-9-25-20-37-20-6 0-9 4-12 8s-5 9-4 14c1 4 4 7 6 10-19 7-38 16-55 27l-10 9-4 18 82-1v1c-33 8-60 18-60 38h-1c-17-12-25-27-25-50 0-30-20-71-35-89l-5 17v2c10 16 23 46 29 71-11 10-22 20-34 30-9 7-19 14-30 18-4 2-9 3-14 4-6 1-13 1-18-2q-1 0-1-1c26-20 57-38 57-63 0-19-3-24-12-41l7 6-2-9-17-21-6 19 16 36c4 9 5 12 5 14 0 7-44 37-52 42 1-11 5-21 12-30 0-1 1-3 2-5l-1 1c-10 10-15 23-19 37l-47 26-53 25v1Zm-4-253c3 0 5-3 6-5 1 2 4 4 7 4s5-4 5-9l-4-7h-1l-1 3v1l3 6-1 1h-1c-3 0-7-6-5-11h-1c-2 2-3 6-3 10-1 1-2 2-4 2s-3-2-3-5c0-1 0-3 1-5h-1c-2 3-3 6-3 8 0 3 2 7 6 7Zm17 41h1c5-15-2-26-14-32v8c10 5 15 13 13 24Zm-141 34c14 0 19-19 22-31s10-38 18-38c1 0 2 1 2 3 0 5-6 20-6 31 0 23 10 35 33 35s36-25 40-43h1c7 18 15 34 36 34 11 0 18-5 24-16l4-20-1-5-16-44 8 4 1-2-16-22h-1l-7 14v1l25 64c0 6-8 10-19 10-21 0-31-21-32-39s-6-37-10-46h-1l-6 15v1c5 10 8 26 8 38 0 20-13 40-35 40-10 0-31-4-31-25 0-12 10-36 10-46 0-2-1-3-3-3-3 0-9 7-15 18s-12 29-15 41-7 22-17 22c-13 0-19-13-19-28 0-5 1-15 3-26h-1c-3 9-5 22-5 32 0 17 6 31 21 31Zm73 171c39 0 100-30 127-72 7-15 10-25 6-48 5-5 8-9 11-14 2 8 11 12 19 12 14 0 22-16 22-32 0-5-1-12-3-17l-8 17 4 9c-2 2-8 4-14 4-7 0-13-3-13-7s4-10 1-11-8 5-10 10-7 11-10 13l-13-116 6 9 1-7-13-34h-1l-9 15v1l4 27 12 110c-8 0-16-3-16-10 0-3 2-9-1-10s-12 6-17 10-9 7-15 10c-6-12-15-22-28-22-14 0-25 15-25 32 0 11 9 17 21 17 9 0 18-2 26-5l4 10v2c-25 25-63 45-105 62-4-7-7-17-7-28 0-17 12-46 18-57h-1c-6 9-16 30-20 44s-7 31-4 46l-38 13v1l44-1c7 9 25 17 45 17Zm-85-242c5 0 10-6 12-14l-1-1c-2 3-5 5-8 5-4 0-5-3-5-6 0-5 5-15 9-21h-1c-6 6-14 20-14 29 0 5 4 8 8 8Zm87 181h1l7-17v-36l-9-139 6 9 1-7-13-34h-1l-9 15 3 25 14 184Zm38-63c-7 0-12-1-12-4 0-2 3-5 8-5s12 3 17 8c-2 1-8 1-13 1Zm-42 105c-11 0-17-2-20-4 25-9 67-32 90-58 6-9 9-22 8-34 7-4 13-10 19-16 1 7 3 13 9 17 5 3 12 3 18 1l3 26c-6 12-25 28-49 43s-55 25-78 25Zm-49-130c1-3 0-6-1-8 3 1 9 6 9 8s-4 1-8 0Zm-3-1c-4-1-6-2-6-3 0-2 1-4 3-4s4 4 3 7Zm-42 31c19-3 38-15 44-26 3 1 6 2 9 2 2 0 4-2 4-6s-6-11-10-14c-3-2-6-4-10-4-2 0-4 2-4 4s1 3 3 5c-3 3-3 8-3 8 0 2 2 3 7 4-7 9-24 20-40 26v1Zm12 18h1l51-27c2-2 4-5 4-8h-1l-52 28-3 7Zm1 48c5 0 10-6 12-14l-1-1c-2 3-5 5-8 5-4 0-5-3-5-6 0-5 5-15 9-21h-1c-6 6-14 20-14 29 0 5 4 8 8 8Zm582 62c14 0 20-20 24-33s16-27 25-27c5 0 5 9 9 18s14 18 28 18c19 0 35-11 38-28v-38l-8-92 48 42 5 68 1 35h1l8-23v-29l-2-38c18 16 37 36 44 64h1c1-3 2-8 2-13 0-25-28-53-48-72l-7-111 6 8 1-7-2-6 15-12c6-6 11-15 12-23h-1l-29 26-8-21-10 17v1l2 5 1 11-44 38-4-39 6 9 1-7-13-35h-1l-9 17v1l3 14 2 22-41-32h-1l1 21 14 15 24 30-43 39c-3-27-6-63-9-92l6 9 1-7-13-36h-1l-9 16v1l3 19 11 99c0 1-1 1-1 2l-38 34-53-50-6-88 6 9 1-7-13-34h-1l-9 15v1l3 24 4 64-29-34 1-1 10 3v-3c-10-13-26-23-39-30l-1 19 15 16c10 15 30 38 45 54l7 95 1 32h1l8-23v-27l-3-64 42 39c-12 12-24 31-24 48 0 7 2 11 5 12 0 28 8 52 28 52Z" />
</svg>