<svg xmlns="http://www.w3.org/2000/svg" width="1200" height="720">
  <path d="m0 0h1200v720H0V0Z" fill="#006" />
  <path d="m0 360L1200 0v720L0 360Z" fill="#bd1021" />
  <path d="m128.57 360L1200 38.58v642.84" fill="#fff" />
  <path
    d="m1114 278c3-2 5-6 5-9 0-9-13-10-18-12 0-6-8-6-8-8 0-3 26-18 38-17l-18 10 1 1c11-6 26-11 33-10l-33 17 1 1c12-6 32-15 40-15 4 0 8 1 10 4l-31 12 1 1c13-5 23-9 29-9 2 0 5 1 5 5l-35 14 1 1 39-14c0 1-1 4-3 6h5c0 5-4 8-12 9l9 4c-7 8-24 9-33 9h-26Zm-237 92c-1-6-9-6-12-1-5 0-12-1-12-3s2-2 5-2c5 0 11-2 11-7 0-3-2-5-3-6l4-3v-2h-1c-3 0-10 8-14 13s-7 9-10 9c-1 0-2-1-2-3 0-3 2-10 10-18l29-26c1 0 3 2 3 5v2l1-2c2-3 5-6 7-8 1 1 2 4 2 7v4c2-2 8-6 15-7l-4 7h15l-12 7 12 3-12 6 13 3c-3 1-13 4-20 9v-7c-5 9-8 12-15 17-3 2-7 3-10 3Zm-20-9l2-2c1 1 2 1 3 0s1-2 0-3l2-2c2 2 2 5 0 7s-5 2-7 0Zm131 156c3 0 5-2 7-6h-1c-1 2-3 3-6 3-6 0-19-10-29-10v1c13 1 20 12 29 12Zm-16 7c3 0 5-3 6-6l-1-1c-1 2-3 4-5 4-6 0-14-16-35-19v1c23 5 26 21 35 21Zm-8 0l-1-1c-12 7-33 8-46-3v1c10 11 34 13 47 3Zm-20-1c3 0 4-4 6-4s4 2 6 2v-1c-2 0-3-3-6-3s-3 3-5 3-3-6-7-6-6 4-12 4c-5 0-3-5 2-8l-1-2c-8 4-17 4-22 2 1 4-2 7-7 6l1 1c4 1 7-1 8-4 4 1 11 1 16-1-3 3-3 8 3 8 5 0 9-3 11-3 4 0 4 6 7 6Zm46 30c7 1 12-3 12-8v-2c8-3 17 1 29 7 0-3 0-7-1-9 4 0 8 0 10-5l-18-4c3-2 8-2 14-2-3-6-7-10-13-10 1-1 3-2 5-2s4 1 5 3h1c3-12-10-14-15-10-2-1-7-1-9 0l3-2c10-1 15-4 15-9 0-4-3-7-9-8 0 6-1 9-5 9-7 0-19-10-29-10-7 0-17 4-22 4-4 0-7-2-8-4l-7 3c-4-3-13-6-22-6-16 0-26 9-36 9-4 0-7-1-7-4s6-6 6-11c0-4-2-6-4-7 2-1 3-5 2-8l52-4c0 7 8 12 19 9 2 1 4 2 7 2s6-2 8-4c9 0 12-4 12-9 2 0 5 0 7-2l87-7c2-3 2-9 0-12l-89 7c-4-1-7-3-7-6 0-2 2-4 4-4 1 0 3 1 5 5h1c2-1 5-1 7-3 2 1 6 3 9 3s5-1 5-4v-4c1 0 2 0 3-1 2-1 3-3 3-5h72c3 0 5-3 5-8s-2-8-5-8h-61v-12l10-13 3 6c5-4 7-11 8-16h7l2-18 8 1c0-13 15-7 17-25h-9c3-4 4-7 4-10v-3l-12 1 1-11-15 3 18-20c12 0 18-11 28-11 9 0 11-2 19-2h22c29 0 36-13 36-15l-4-1c3-1 6-6 6-13h-3v-6h-4c0-3-2-5-4-6 0-6-9-11-18-9-1-4-12-5-15-2-2-1-5-2-9-2-10 0-29 12-40 20l-9-2c12-4 21-13 24-20l-17 3c14-6 31-16 33-27l-32 12 11-14-8 1c2-1 28-23 28-36-3 1-6 3-7 3 7-5 16-15 11-24l-5 4c3-5 2-13 0-16-7 6-20 17-26 20 2-4 2-11 0-15l-26 19c2-3 3-9 0-13l-89 55-1-14c-12 10-27 20-45 29l-4-9c-6 10-15 14-29 21-15 8-35 19-35 34 0 9 7 17 14 20-10 4-16 13-16 22 0 7 4 13 10 13 8 0 9-10 28-10l-11 14-3-4-33 32c-10 10-12 18-9 25-6 8-8 12-8 14 0 7 7 15 20 8-4-6 2-15 10-15l-10 8c0 2 1 4 3 5 6 0 19-10 22-17 2 0 6 1 13-5 10-8 24-18 41-20 4 0 12 1 14 2v-4l14 1v-3h14c0 14 9 25 20 28l-7 24h-7c-11 0-17 11-18 15-7-4-18-10-23-10s-7 3-8 8h-29c-1-5-4-10-9-10h-8c-4 0-7 6-8 12-16 0-34-2-51-12h-1c-17 10-44 14-72 19v2c28 6 55 11 72 18h1c17-7 36-11 51-11 1 5 4 12 8 12h8c5 0 8-5 9-9h29c1 4 2 8 7 8 6 0 17-6 24-11h2c1 2 3 4 5 5-6 9-24 8-29 19l-53 5v1c-3 0-11-2-14-2-5 0-9 3-12 5-1-1-3-2-5-2-4 0-4 4-9 4s-8 3-8 7c-7 0-12 5-12 11 0 2 1 4 2 6-3 1-6 3-6 9 0 5 5 10 12 12 2 8 14 17 25 17 2 2 10 9 21 9 3 0 6-1 8-2 10 8 26 10 37 5l6 6 5-5c5 4 23 7 34 4l-2-2c9-2 22 2 22 8 0 2-1 3-2 4l1 1Z" />
  <path
    d="m1092 260l6-4c-6-7-39-11-59-1l-1-1c21-9 26-18 26-24l-26 9-1-1 51-33-23 8-1-1 20-10c6-5 26-25 29-32-15 9-50 34-66 43l-1-1c17-10 74-50 73-63-10 8-40 32-66 45l-1-1c16-9 64-38 62-55-21 18-76 54-94 63l-1-1c14-9 72-41 68-56l-65 42-1-1c19-13 44-25 41-37l-86 53-5 6v-14l-41 24 4 10-11-12-24 14c-10 6-33 16-33 31 0 5 4 11 11 14 19-14 64-12 64 13 0 4-1 6-3 8l-7-2-2-10c-15 7-30 24-34 31l4 7 18-6-5 11 20-1-15 10 13 2c-3 1-8 4-8 6s4 3 9 3c13 0 32-6 45-10v3h17c0 10 10 17 29 17-6 5-13 11-13 17s-8 7-5 14l7-7c0 6 4 17 11 21l1-13 7 1-1 2h-3l2 7 12-15 5 3c1-1 4-8 4-14h7v-17h9c0-6 14-9 15-16h-10c4-5 6-9 6-12h-11v-9c-11 4-22 0-26-8l5-4c0 4 2 7 3 7 5 0 7-31 10-31 2 0 3 13 5 13 4 0 4-17 6-17s2 8 4 8c4 0 13-15 18-15 4 0 4 6 6 6 3 0 6-8 11-8 4 0 8 5 8 0 0-8-13-9-23-9Zm-136 18l-1-1c12-7 14-12 14-15 0-7-11-5-18-3l-1-2c11-6 22-19 21-29l-20 10-2-2 26-15c2 12-6 26-13 33 8-2 12 2 12 6 0 5-5 12-18 18Zm14 25v-2c20 0 24-5 24-9 0-3-2-5-6-5s-8 1-11 2l-1-3c24-16 37-38 33-45l-25 14-2-2 29-20c7 11-3 33-24 50 8-1 12 3 12 8 0 7-5 13-29 12Zm63-25c2 1 4 3 4 6 0 6-7 10-28 11v-2c16-1 24-3 24-8 0-2-3-5-12-8v-2c4 0 23-4 23-10 0-2-3-4-6-4v-2c6 0 10 4 10 8 0 7-10 10-15 11Zm-35 89c-10 0-17-10-17-22h5c-1 7 5 17 12 22Zm-131-59c-10-27 35-50 59-30l-1 1c-27-4-53 8-58 29Z"
    fill="#7b3c20" />
  <path
    d="m1089 422c0-3 1-7 3-7s3 3 3 5l-6 2Zm-86 0l-1-1v-6h86c-2 3-2 5-2 7h-83Zm-23 9c-3 0-6-3-3-6v-1c-3-1-3-5 0-6v-1c-2-1-2-5 0-6l1-1c-1-2 1-5 4-5l1-1c0-2 2-4 5-4 4 0 4 2 7 2s-2 0 7-9l8-8c1 1 2 5 0 9s1 5 0 6-2 0-3 1 2 3-2 3c-2 0-3-1-8-1-3 0-7 1-11 3v1c3 0 3 4-3 4l-1 1c4 1 3 5 0 5v1c4 1 4 4 0 6v1c3 0 4 1 4 3s-2 3-4 3h-2Zm14 25l-2-6 84-7c1 2 1 3 0 6l-82 7Zm2-24c-2 0-3-1-4-2v-2l-2 1c-2-1-3-4-2-7h3v-1c-3 0-5-4-1-6v-1c-1-1-1-2-1-3 0-3 3-6 8-6 8 0 10 2 12 7v1h-7v-2l-4 4v1c2 0 1 5-1 5v1c2 0 4 2 4 5s-2 5-5 5Zm-25-3c-4 0-7-5-7-10 0-10 8-19 14-19 2 0 3 1 3 2 0 2-5 5-8 5v1c2 2 0 6-3 6v1c4 0 4 6 0 6v1l3 1c0 3 0 6-2 6Zm-35 3c-4-5-4-27 3-27 4 0 18 8 23 11v6c-9 0-16 10-26 10Zm38 17l5-3-7-5-1 1 1 4c-4 0-6 1-7 4-2-1-5-1-7 1-3-2-7-2-9 0l-5 1c3-9 23-10 28-18h12v1c-2 1-4 5-4 6 0 5 9 9 9 14 0 3-4 3-5 3-2-5-6-9-10-9Zm-1 18c3-6 1-12-6-16 3-3 6-3 8 1 4 0 5 3 4 6l3 2c0 4-4 7-9 7Zm-8 4c-2 0-4-1-4-3 0-4 3-5 1-10l1-1v-1c-2 0-3-2-3-4 5-1 9 2 9 5 2 1 3 3 3 5 0 6-2 9-7 9Zm-68-45c-1-4-1-9 0-13h7c-1 3-1 7-1 9h3c0-2 0-6 1-9h6c-1 3-1 7-1 9h3c0-2 0-6 1-9h6c-1 3-1 7-1 9h3c0-2 0-6 1-9h6c-1 4-1 9 0 13h-34Zm55 44c-6 0-9-3-9-7l5-1c1 1 2 3 4 2l-2-3c0-1 1-2 4-3 0-1 0-4-4-5 1-1 3-2 6-1s3 4 3 5c4 1 1 13-7 13Zm-61-39c-1-3-1-7-1-11s2-16 5-16c2 0 4 3 4 7h-4c-2 5-2 13-1 18l-3 2Zm-43-40c-8 2-11-2-11-6s6-9 6-14h24c0-2 2-4 4-4 3 0 4 2 4 5 0 5-12 14-18 16l-1-1c8-6 11-11 11-14h-11l6 3c-11 1-15 6-14 15Zm37 40c-3 0-5-3-5-11 0-10 3-16 6-17h6c-2 2-4 9-4 17 0 7 0 11-3 11Zm6 33l-1-5 57-5c2 1 3 4 1 6l-57 4Zm107 83c0-2-2-6-5-7 1 2 1 3 0 4-5-8-20-9-25-6l-2-2c7-4 14-4 21-1l1-1c-8-6-17-5-25 2l3 3c-4 0-6 0-10-3-3 4-7 4-11 0v3l-9-5-4 4-8-9 2 5c-4 0-12-3-14-8-9 1-15-1-19-6-4 0-8-1-13-5 6 1 9-1 11-3l-1-1c-7 4-14 1-15-4h-1c0 9 8 14 18 15 3 4 7 6 18 6 1 3 5 6 12 7-11 3-25 0-32-8h3l-5-2c-4 0-14-1-23-9 3 5 8 11 23 11 0 2-2 3-6 3-11 0-18-6-28-16l4 7c-10 0-19-8-22-15-6-2-10-6-10-10 0-3 2-5 6-7-1-1-2-3-2-6 0-5 5-9 11-9l-4 8c1 2 1 4 0 6 3-2 3-4 2-7l5-7c-1-1-2-2-2-4s2-4 5-4c5 0 7-3 9-3s4 1 5 2c3-2 8-5 12-5h14l1 4-4 1c1 4 1 7-2 11 2 1 4 3 4 7 0 5-6 6-6 12 0 3 3 5 9 5 11 0 22-8 37-8 8 0 18 2 22 5l6-2c1 1 4 3 8 3 7 0 16-3 23-3 9 0 20 9 29 9 5 0 7-3 7-7 2 0 4 2 4 4 0 4-6 6-12 6-4 0-10 0-14-4 0 3-2 3-4 3-4 0-11-6-17-6-3 0-7 1-10 3h1c2 0 6-1 9-1 5 0 12 6 17 6 2 0 4-1 5-2 3 2 8 3 11 3l-5 3 1 1c6-2 8-1 11 0-2 2-5 3-8 3v1c8 0 11-6 16-6 3 0 5 2 5 4-12 0-9 5-27 5v1h7c4 0 17-1 20 5h-19c2 1 7 3 10 3l-6 3 18 5-10 1c2 1 4 3 4 6-12-6-19-8-27-4-1-3-3-5-7-7l-1 1c4 2 7 5 7 9 0 2-1 3-2 4Zm-173-117c-16-8-28-8-37-8l6 4-28-5v-2c31-3 46-9 59-15h1c11 6 33 11 51 11v7c-18 0-43 4-52 8Z"
    fill="#ffc221" />
</svg>