<svg xmlns="http://www.w3.org/2000/svg" xmlns:xlink="http://www.w3.org/1999/xlink" width="1200" height="720">
  <path fill="#f7e017" d="m0 0h1200v720H0Z" />
  <path fill="#fff" d="m0 40v180l1200 320v-180Z" />
  <path fill="#000" d="m1200 680v-160L0 200v160Z" />
  <g fill="#db092e">
    <path id="a"
      d="m385 468c10 8 40 8 50 0 2-2 2-6 0-8-9 9-41 9-50 0-2 2-2 6 0 8Zm2-10c10 8 36 8 46 0 2-2 1-7-1-8-11 9-33 9-44 0-2 1-3 6-1 8Zm3-10c11 8 29 8 41 0 1-2 1-5-1-7-10 8-30 8-39 0-2 2-2 5-1 7Zm3-9c9 7 26 7 35 0l-3-58c1-5 2-9 2-14 0-13-19-23-29-37-5-7-11-4-9 1 3 7 6 12 8 18s4 10 1 12c-3-8-20-13-23-18-1-8-6-17-11-23 1-7 0-19-6-19-3 0-3 8-2 15 2 14 4 23 9 34s21 19 26 28 2 33 2 61Zm-25-137c-2 0-3 2-2 5s2 8 1 13c5 6 9 14 10 21 3 5 15 8 20 14l-3-7c-2-2-7-5-10-6-2-6-5-15-11-21 1-8-1-19-5-19Zm9 2c-2 0-3 2-2 5s1 7 1 12c3 3 9 14 10 19 2 1 6 4 7 5l-11-23c1-6-1-18-5-18Zm9 3c-2 0-3 2-2 5s1 6 1 10l2 5c1-2 3-3 4-3 1-4-1-17-5-17Zm206 63c1-4 5-7 8-9l1-1v-50l-1-3c-2 2-4 6-5 11-4-4-9-5-12-2 5 3 8 9 8 15 0 8-6 16-6 24 0 6 2 13 7 15Zm-4 70c-1-9 6-18 12-24l1-1v-49l-1-1c-3 3-6 5-7 11-1-3-9-8-12-5 3 3 6 7 6 16 0 11-9 17-9 32 0 7 3 13 10 21Zm12 17l1-1v-33l-1-3c-4 4-9 12-9 18 0 2 0 4 1 6-9 2-7-14-27-14 2 15 18 27 35 27Zm0 104l1-1v-45h-1c-39 0-78-17-100-39-9-9-22-11-30-3-7 7-7 18 1 26-11-11-34 0-28 18-9 4-15 14-13 23 4-4 15-8 24-8 21 0 34 24 50 24 8 0 15-6 17-15 19 12 53 20 79 20Zm0-51l1-1v-49h-1c-67 0-119-53-119-120 0-16 4-38 9-52h-1c-16 15-29 52-29 83 0 78 61 139 140 139Zm-7-197c1-5 4-8 7-10l1-1v-110l-1-1-26 2-3 12-6 13 1 1 10-7 6 9h1l8-8 5 5v30c-5-11-21-19-36-19-16 13-56 19-92 14v4c3 10 21 18 36 17 5 9 21 17 36 15 12 11 35 11 44-2l2 2-4 5c0 6 5 10 11 10-5 5-5 13 0 19Z" />
    <use xlink:href="#a" transform="matrix(-1 0 0 1 1200 0)" />
    <path d="m597 192h6v-14c9-4 18 4 30 0v-1l-11-11 11-11v-1c-14 4-25-4-36 0v38Z" />
  </g>
  <path
    d="m538 468c-5 0-12 14 2 14 7 0 12-5 12-11 0-2 0-4-1-4s-2 1-2 5-4 7-8 7c-3 0-5-2-5-4 0-1 1-3 3-5 1-1 0-2-1-2Zm117 13c2 0 0-23-3-23-2 0-3 2-3 3 0 2 2 5 3 9s1 11 3 11Zm74-72c1 0 1-2 0-4-2-4-13-16-14-13s0 4 2 5c6 3 11 12 12 12Zm-15 25c2 0 5-4 7-10 4 0 6-2 6-6 0-6-12-20-16-20-2 0-3 4-1 5s5 2 9 6 7 11 4 11c-2 0-4-2-6-4-1-1-3-4-4-4s-2 1-2 2c0 3 6 5 6 10 0 3-1 5-3 5s-4-4-6-8-4-7-6-7c-1 0-2 1-2 2 0 2 1 2 4 5 5 5 7 13 10 13Zm-17-1c1 0 1-3 2-5s3-3 3-4-2-1-3 0c-2 2-4-1-2-2s3-4 0-4c-2 0-4 2-4 5s3 5 3 8c0 1 0 2 1 2Zm-3 21c-3 0-1-5 2-5 2 0 0 5-2 5Zm-20 27c8 0 12-13 12-22 3-2 7-2 9-2 3 0 5-4 5-7 0-5 3-6 6-8 2-1 3-2 3-6 0-2 0-5-2-5-3 0-1 4-1 7 0 2-7 5-11 7-6 3-6 10-9 11-1-4-5-6-7-6-3 0-4 3-4 6 0 5 6 5 8 4 0 7-3 15-10 19-2 1-1 2 1 2Zm6-23c-2 0-4-4 0-4 3 0 3 4 0 4Zm28 45c3 0 4-4 1-4s-4 4-1 4Zm-45-49c2 0 4-4 0-4-3 0-3 4 0 4Zm33 66c4-2 7-11 5-22 5-2 10-5 10-9 0-2-1-2-3 0s-8 5-11 6-2 2-1 4c2 4 3 14-3 20-1 1 1 2 3 1Zm-36-58c-5 0 0 12 6 12s8-5 8-13c0-5-1-9-4-9-1 0-2 1-2 2 0 2 3 4 3 10 0 3-3 6-6 6-6 0-2-8-5-8Zm25 43c-2 0-4-4 0-4s3 4 0 4Zm-11 22c-1 1 4 2 9-1s10-8 10-19c0-7-5-11-8-11-4 0-5 5-5 9 0 3 2 4 4 4 3 0 5-2 6-3 0 7-2 10-5 13-5 5-10 7-11 8Zm-38-27c6 0 4-7 9-7 4 0 6-5 6-9s-5-20-6-23-4 2-3 4 6 11 6 20c0 2-1 5-4 5s-6-1-9-1-4 2-7 2c-2 0-2-2-3-2-3 0-3 6 3 6 4 0 4 5 8 5Zm18 10c-3 0-3 5 0 5 2 0 4-5 0-5Zm-20-14c-1-2 0-3 2-3s3 1 2 3-3 2-4 0Zm15 44c11 0 22-9 22-17 0-3-5-1-6-2s1-4 1-9c0-3 0-5-3-3s-1 4-1 6c0 3-1 5-3 7-1 1-4 2-3 3 2 2 5 0 7-2 2 0 3 1 3 3 0 5-10 11-16 11-4 0-7-1-7-3 0-1 1-2 1-4 0-1-1-2-3 0s-3 5-2 7 5 3 10 3Zm8 2c0 2 4 3 4 0s-4-3-4 0Zm-4 4c2 0 3-4 0-4-2 0-4 4 0 4Zm-79-76c2 0 4-4 1-4s-3 4-1 4Zm-23 21c6 0 10-2 16-9 5 1 7-1 7 2s4 3 5 3c3 0 9-2 9 0s1 3 2 3c2 0 4-2 8-2 3 0 4 3 6 3 1 0 3-2 5-2s2 2 4 2c5 0 10-5 12-7 3-3 8-2 8-4s-9-4-15-4c-3 0-5 1-5 3s3 1 6 1 6 0 4 2c-1 1-6 6-9 6-2 0-2-3-4-3-3 0-4 2-6 2s-2-4-4-4c-3 0-8 6-8 2 0-1-1-3-3-3-5 0-11 3-11 0 0-2 2-4-1-4s-3 2-8 1c1-4 1-9-2-9-4 0-7 5-7 8 0 2 2 2 3 3 0 3-6 6-11 6-4 0-7-1-10-2-2-1-3 0-2 1 2 2 6 5 11 5Zm-4-30c0 2 4 1 4-1s-4-3-4 1Zm17 15c0-4 4-2 4 0s-4 2-4 0Zm47 73c4-4 12-4 12-12 0-2-1-5-4-8-2-2-3-1-5 1s-1 3 0 3c3 0 5 3 5 7 0 5-10 5-10 8 0 1 1 2 2 1Zm-76-83c1-1 0-3-1-3-2 0-4 5-7 5-1 0-2-1-2-2 0-2 4-7 10-13 1-1 4-3 4-4s-1-1-2-1c-3 0-6 6-10 10-7 7-8 11-4 12s8 0 12-4Zm68 77c0 1 1 2 2 0 1-3 1-12 1-15 0-6-6-6-5-3 2 6 2 11 2 18Zm-92-90c-2 0-2-2 1-2s1 2-1 2Zm-8 9c3 0 6-3 6-5 1 1 4 4 8 4 5 0 11-9 14-15 1-2 1-3-2-2s-6 14-13 14c-2 0-4-2-5-3 4 0 6-3 6-5 0-1-1-2-3-2-4 0-7 3-10 3-1 0-2-1-2-2 0-2 7-7 10-10 1-1 3-3-1-3s-5 9-11 9c-5 0-6-7-9-7-1 0-2 1-2 3 0 3 7 6 10 6-2 4-1 5 1 5s3 2 2 4-2 6 1 6Zm82 81c0 1 1 1 2-1s3-15 3-17c0-3-4-3-4-1 0 7 0 12-1 19Zm-80-84c-2 0-1-3 1-3s1 3-1 3Zm15 15c0 2 4 2 4-1 0-2-4-2-4 1Zm63 78c12 0 16-9 16-16 0-2-2-2-4 0-1 1-1 3-1 4 0 5-2 8-8 8-7 0-11-2-13-2-1 0-1 1 0 2s5 4 10 4Zm-14-10c5 0 7-7 8-11s2-11-1-10-3 3-3 5c0 3 1 10-1 12s-6 2-6-1c0-5-4-2-6-1s-5 0-5-3c0-4-5-1-8-1-2 0-1-6-4-6-4 0-9 2-18-2-4-2-4-5-2-9s4-8 6-10c3-3-2-2-4-1s-2 5-4 9c-1 2-3 5-6 5-7 0-9-9-12-9-2 0-2 2 0 5s7 6 12 7c4 1 3 3 9 6 4 2 10 3 16 3 3 0 1 4 5 4 3 0 6 0 6 2 0 3 3 3 8 3s6 3 10 3Zm-54-31c2-2 3-5 4-7s2-4 3-5 1-2-1-2-3 1-4 3-2 7-4 10 0 3 2 1Zm-14-12c0-2 4-4 4 0 0 3-4 2-4 0Zm0 6c4 0 8-3 8-8 0-3-2-4-4-4-3 0-7 4-12 4-8 0-8-10-14-10-2 0-2 2 0 3 4 2 7 13 19 10 0 3 1 5 3 5Zm-11-70c3 0 5-3 5-6s-1-6 1-6c4 0 9 4 9 7 0 1-1 2-2 3s-1 2 0 2c3 0 6-2 6-5 0-4-10-10-14-10-5 0-5 2-4 6s0 6-1 6c-2 0-10-5-10-15 0-6 4-9 8-11 2-1 1-2-1-2-8 0-11 7-11 13 0 9 9 18 14 18Z"
    fill="#f7e017" />
</svg>