<svg xmlns="http://www.w3.org/2000/svg" width="1200" height="720">
  <path fill="#dc171d" d="M0 0h1200v720H0Z" />
  <path fill="#012a87"
    d="M1175 376H924L616 552v143h559Zm-899 0H25v319h559V552Zm899-351H616v143l308 176h251V25Zm-591 0H25v319h251l308-176V25Z" />
  <path fill="#fff" d="M887 360 600 196 313 360l287 164 287-164" />
  <path fill="#008830"
    d="m481 456-91-52c2-8 11-13 19-11 6-24 35-28 51-12l24 24h19c8 0 9 6 17 6h68l88-88c8-8 21-8 29 0s16 8 24 0 18-8 27 0l82 65-119 68Z" />
  <path fill="#f9d90f" d="m600 232 27 84-71-52h88l-71 52Z" />
</svg>