<svg xmlns="http://www.w3.org/2000/svg" xmlns:xlink="http://www.w3.org/1999/xlink" width="1200" height="720">
  <defs>
    <path id="star1" d="M0-8L5 7-8-2H8L-5 7Z" />
    <use id="star2" xlink:href="#star1" transform="scale(0.8)" />
    <use id="star3" xlink:href="#star1" transform="scale(0.7)" />
    <use id="star4" xlink:href="#star1" transform="scale(0.6)" />
    <use id="star5" xlink:href="#star1" transform="scale(0.5)" />

  </defs>

  <path fill="#24a34e" d="M0 0h1200v720H0z" />
  <path fill="#fedf00" d="M120 360l480 288 480-288L600 72 120 360Z" />
  <circle id="circle" cx="600" cy="360" r="196" fill="#002776" />

  <g fill="#fff">
    <path d="M421 280A476 476 0 0 1 794 388A196 196 0 0 1 787 419A448 448 0 0 0 410 312A196 196 0 0 1 421 280Z" />

    <use id="αCMi" xlink:href="#star1" x="436" y="327" />
    <use id="αCMa" xlink:href="#star1" x="453" y="405" />
    <use id="βCMa" xlink:href="#star2" x="432" y="420" />
    <use id="γCMa" xlink:href="#star4" x="473" y="393" />
    <use id="δCMa" xlink:href="#star2" x="495" y="423" />
    <use id="εCMa" xlink:href="#star3" x="489" y="441" />
    <use id="αVir" xlink:href="#star1" x="664" y="300" />
    <use id="αSco" xlink:href="#star1" x="741" y="425" />
    <use id="βSco" xlink:href="#star3" x="768" y="427" />
    <use id="εSco" xlink:href="#star2" x="749" y="441" />
    <use id="θSco" xlink:href="#star2" x="701" y="480" />
    <use id="ιSco" xlink:href="#star3" x="701" y="499" />
    <use id="κSco" xlink:href="#star3" x="721" y="466" />
    <use id="λSco" xlink:href="#star2" x="737" y="456" />
    <use id="μSco" xlink:href="#star3" x="700" y="462" />
    <use id="αHya" xlink:href="#star2" x="523" y="368" />
    <use id="γHya" xlink:href="#star3" x="655" y="351" />
    <use id="αCru" xlink:href="#star1" x="600" y="443" />
    <use id="βCru" xlink:href="#star2" x="623" y="406" />
    <use id="γCru" xlink:href="#star2" x="600" y="390" />
    <use id="δCru" xlink:href="#star3" x="580" y="406" />
    <use id="εCru" xlink:href="#star4" x="590" y="419" />
    <use id="αTrA" xlink:href="#star2" x="660" y="485" />
    <use id="βTrA" xlink:href="#star3" x="678" y="468" />
    <use id="γTrA" xlink:href="#star3" x="644" y="464" />
    <use id="αCar" xlink:href="#star1" x="519" y="458" />
    <use id="σOct" xlink:href="#star5" x="600" y="505" />
  </g>

  <path
    d="M774 396a6 6 0 0 0 0-12 6 6 0 0 0 0 12Zm0 3.5a9.6 9.5 0 0 1 0-19 9.6 9.5 0 0 1 0 19Zm-16.5-17c-1.9 2.4-5.7 2.5-9.2-.5-1.5-1.3-2.4-3-2.9-4l2.1-3c.7 1.6 2.1 3.9 3.3 4.9 1.6 1.1 3.1 1.3 3.7.4 1.6-2.2-5.9-8.1-2.2-12.3 1.8-2.1 5-2.1 7.6-.2 1.4 1 2.9 2.8 3.5 4.2l-2 2.9c-.7-1.5-2.1-3.3-3.3-4.3-1-.7-2-.6-2.6 0-2.1 2.5 5.5 7.4 2 11.9Zm-17.8-12.1c-1.8 2.5-5.6 2.7-9.2-.2a12 12 0 0 1-3-3.9l2-3.1c.7 1.6 2.2 3.9 3.5 4.8 1.6 1.1 3.1 1.2 3.7.3 1.5-2.3-6.2-7.9-2.7-12.2 1.8-2.2 5-2.3 7.6-.5 1.5 1 3 2.7 3.7 4.1l-1.9 3c-.8-1.5-2.2-3.3-3.5-4.2-1-.7-2-.6-2.6.1-2 2.5 5.8 7.2 2.4 11.8Zm-20.9-7.5-9.4-5.4 9.1-15.6 9.4 5.4-1.7 2.9-6.1-3.6-2 3.5 5.7 3.2-1.6 2.8-5.7-3.3-2.1 3.7 6.1 3.5Zm-20-22.1c1.5.8 3.2.6 4-.8.7-1.3 0-2.8-1.6-3.6l-2.1-1.1-2.3 4.5 2 1Zm3.2 12.6-3.9-2-2.1-10.1-3.6 7.1-3.4-1.7 8.3-16.1 5.9 3c3.1 1.6 4.5 4.5 3 7.7a5.8 5.8 0 0 1-6.2 2.9Zm-20.8-12.9c-2.3.4-5.7 0-8-1-4.8-2.2-6.9-7.3-4.8-12.3 2.2-5 7.6-6.8 12.9-4.4 1.8.8 3.9 2.5 4.9 3.9l-1.6 3.6a11 11 0 0 0-4.6-4.3c-3.4-1.4-6.9-.3-8.2 2.7a5.8 5.8 0 0 0 3.1 7.8c1.2.5 2.5.7 3.8.7l1.2-2.6-4.4-1.9 1.3-2.9 7.7 3.4ZM651 326a6 6 0 0 0 0-12 6 6 0 0 0 0 12Zm0 3.5a9.6 9.5 0 0 1 0-19 9.6 9.5 0 0 1 0 19Zm-24-18.2c1.4.5 3.4.1 3.8-1.4.4-1.6-.6-2.8-2.1-3.3l-2.2-.7-1.6 4.7Zm5.3 11.9-4.2-1.4-3.7-9.5-2.4 7.6-3.6-1.1 5.5-17.3 6.3 2c4 1.4 4.9 4.7 4.2 7.1a6.1 6.1 0 0 1-5.6 3.9Zm-26.6-17.9c1.4.5 3.4-.4 3.7-1.8.4-1.6-.9-2.8-2.5-3.3l-2.1-.6-1.3 5.1 2.2.6Zm-4.7 8.6-3.6-1 4.6-17.5 6 1.6c3.6 1 6.1 3.8 5 7.4-.9 3.7-4.2 5.1-8 4.2l-2.4-.7Zm-25.2-5.8-10-1.9 2.9-15.5 10 1.9-.6 3.2-6.4-1.2-.6 2.9 6 1.1-.6 3.1-6-1.2-.5 3.2 6.4 1.2Zm-32.9-5.4-3.7-.4 1.2-11.3-6.5 6.2-4.7-7.4-1.3 11.3-3.7-.4 1.9-18 2.6.3 5.8 9 7.6-7.6 2.6.3Zm-28.4-2.6-10.7-.5.8-18.1 10.8.5-.1 3.4-7.1-.4-.2 4 6.6.3-.2 3.2-6.5-.3-.2 4.2 7 .4Zm-32.1-4.2h3.2c4 0 5.3-3.1 5.3-5.8 0-3.4-1.9-5.6-5.3-5.6h-3.2Zm-3.8 3.4v-18.1h6.6c5.7 0 9.3 3.3 9.4 8.9a9 9 0 0 1-9.1 9.2Zm-19.8-8.9 2.2-.2c1.4 0 3.2-1.1 3-2.7-.2-1.7-1.5-2.4-3.1-2.3l-2.4.2Zm-3.3 9.9-.9-18.1 6.5-.3c4.2-.2 6.3 2.6 6.5 5 .2 2.2-1.5 5-3.9 5.7l6.4 6.9-4.4.2-6.8-7.6.4 8Zm-18.8-1.5a6 6 0 0 0 0-12 6 6 0 0 0 0 12Zm0 3.5a9.6 9.5 0 0 1 0-19 9.6 9.5 0 0 1 0 19Z"
    fill="#24a34e" />
</svg>