<svg xmlns="http://www.w3.org/2000/svg" width="1200" height="720">
  <path fill="#002465" d="m0 0h1200v720H0Z" />
  <path fill="#45aa41" d="m0 0h1200v720Z" />
  <path fill="#fff"
    d="m356 371l1 23-16-16-17 16 1-23-22-4 19-13-12-20 22 7 9-21 8 21 22-6-11 19 19 14Zm-263 81l-17-15-17 15 2-23-23-3 19-13-11-20 22 6 8-21 9 22 22-7-12 20 19 13-23 3Zm122 133l-9 21-22-7 11 20-19 13 23 4-2 23 17-16 17 16-2-23 23-3-19-14 12-20-22 7Zm4-366l-8-22-9 22-22-7 12 20-19 13 22 3-2 23 17-15 17 16-1-23 23-4-19-13 11-20Zm15 229h58l-48 34 19-55 19 55Z" />
  <path fill="#f3cf48"
    d="m1142 265c-7 0-14-7-24-7s-11 4-20 4c-15 0-28-12-28-28 0-12 6-33 6-54 0-47-58-95-110-138 0 26 10 61 26 85s46 55 31 77c-36-23-95-43-145-43 0 43 130 68 130 131 0 50-89 99-174 99-38 0-74-8-102-19 7 7 27 14 42 18-6 0-26-3-46-7 13 10 58 17 102 17 50 0 108-14 148-35s45-35 90-50c15-5 39-9 48-15 15-10 16-30 38-27-2-5-7-8-12-8Zm-22 8c-2 0-4-1-4-3l-5-3h12c0 1 1 2 1 3 0 2-2 3-4 3ZM600 468c60 0 108-48 108-108s-48-108-108-108-108 48-108 108 48 108 108 108Z" />
  <path fill="#45aa41"
    d="m672 344-4-2-1-2v-2h-1l1-2-1-4 3-3 1-6-1-3-1-1-3-5v-5l-2-5 1-1v-2l1-3-2-2h-3l-2 1-9 2h-4l-6-2-2 7v5l-2 2h-3l-2-2-2 1v9l-2 3-5 3-2 3-10 6-3 1-3 3-3 1h-3l-11 4h-4l-5 2-10-5h-10l-6-3-8-3-5-5-1-4-6-3-3 1-1 4-1 8 2 5 4 2 2 3 1 4v4l-4 4-1 6v3l-2 2h-2l-3 4h-3l-1 2-4 5-2 3v3l2 3h2l3 1 6-3 3-5 6-3 6 1 3-1 1 1 1-1h8l7 2 1 3 2 2h3l4-1h4l2 1 10 1 6 3h3l3 3 4 5 1 4-1 5v2l3 5v10l1 2 2 8 4 4 5 1 7-2h6l2-2v-4l-1-4v-5l1-2v-5l1-4v-5l3-4v-2l3-2-1-3 3-3-2-2-1-5v-8l3-4 2-1 2-4 2-2 3-1 1-5 3-5 3-2 4-1h4l2-2 3-1 1-1 1-2z" />
</svg>