<svg xmlns="http://www.w3.org/2000/svg" width="1200" height="720">

  <path fill="#62b5e5" d="m0 0h1200v720H0Z" />
  <path fill="#000000" d="m1035 427c0 62-82 101-135 121-53-20-135-59-135-121v-227h270Z" />
  <path fill="#012169" d="m0 0h600v360H0Z" />
  <path fill="#ffffff"
    d="M0 360h62l188-117v117h100v-117l183 117h67v-34l-154-96h154v-100h-154l154-96v-34h-62l-188 117v-117h-100v117l-183-117h-67v34l154 96h-154v100h154l-154 96ZM900 543c51-19 131-56 131-116v-223h-262v223c0 60 80 97 131 116Z" />
  <path fill="#c40f38"
    d="M270 360h60v-150h270v-60h-270v-150h-60v150h-270v60h270ZM0 360h38l212-130h-38ZM174 130h38l-212-130v22ZM600 360v-22l-174-108h-38ZM350 130h38l212-130h-38ZM900 543l18-7v-112h113v-36h-113v-96h113v-88h-262v88h113v96h-113v36h113v112Z" />
  <g>
    <g>
      <g fill="#fff" stroke="#000" stroke-width=".8">
        <ellipse cx="788.05" cy="254.86" rx="14.99" ry="12.06" />
        <ellipse cx="788.05" cy="248.6" rx="13.33" ry="6.74" />
        <ellipse cx="788.05" cy="262.07" rx="13.33" ry="6.74" />
        <ellipse cx="788.05" cy="254.86" rx="13.33" ry="6.74" />
      </g>

      <path
        d="m875.76 244.07c-9.4-1.33-11.85-3.22-12.51-5.29l1.53.25c.49-2.87-2.33-8.53-2.33-8.53l.85-1.29c6.37-5.16 11.07-6.35 11.07-6.35-4.36-5.16-10.9-2.19-10.9-2.19.17-6.29-2.51-13.55-2.51-13.55-9.06.97-14.25 8.22-14.25 8.22-.34-6.45-7.02-9.68-7.02-9.68 1.23 5-.69 12.46-.69 12.46l-2.01 2.66s-2.19.04-5.88 8.1c0 0-.37 1.91-1.8 3.62-.01-.22.01-.42-.02-.66 0 0-3.92 3.41-12.5-1.46 0 0-11.66-6.92-15.76-6.66s-6.79 2.18-6.53 3.33c0 0-9.35-.77-12.55 4.61 0 0-7.04 2.56-1.02 8.33 0 0 .81 2.51 2.56 3.85 0 0-.25-5.26 1.03-3.72 0 0 .33.52.96.88.17.74.73 2.79 1.98 3.83l.9-.29c.14-1.31.42-2.97.71-3.67l.3.04s-.08.06-.11.09l1.66 2.56 1.92-1.02c.9-.13 2.05.77 2.05.77l2.18-1.79s-.03-.02-.04-.05c2.15.36 2.73-3.8 2.73-3.8 1.93.51 3.73-.06 5.26-.99.93 3.45 8.57 7.15 8.57 7.15l.33-.03c-.65.41-1.03.72-1.03.72 3.47 2.42 9.5 4.34 9.5 4.34-3.02 1.13-1.86 3.56-1.86 3.56-1.59.65-1.74 2.22-1.74 2.22 5.29 2.11 8.9.36 8.9.36.29 1.72-.14 1.91-.14 1.91-2.11 4.53-3.02 8.92-3.02 8.92.05.02.1.03.15.05-.06.12-.15.23-.2.36 0 0-9.22 3.2-13.32 7.68 0 0-.38-1.28-1.54-1.28s-4.74-2.94-6.4-3.46-4.1.51-4.74-.25c-.58-.7-.32-5.95-1.43-6.79l-1.13-3.2c-.77 1.66-3.97 1.28-3.97 1.28-.13.08-.62.44-1.32.96-.64.03-1.37-.19-1.37-.19-.33.07-.65.99-.89 1.89l-.39.29v-.9c-.64.51-1.92-.26-2.43-.26-.25 0-.56.73-.81 1.49-1.3.24-3.03.31-3.03.31-.51.26-.13 4.23-.13 4.23-3.71 2.05-1.92 5.12-1.92 5.12 2.05 9.99 19.08 5.51 20.37 6.79s4.23 1.53 5.76 1.53 3.45 3.72 5.63 4.1 0-2.94 10.1-5.36 13.46-6.55 13.46-6.55c3.16-.61 4.04-4.45 4.28-6.01.03.71.11 1.51.23 2.41.46 3.48-1.95 4.74-1.95 4.74l8.75-2.63c3.47-.91 3.02-3.93 3.02-3.93 3.32 9.52 9.37 10.13 9.37 10.13 1.21-3.63 1.06-4.69 1.06-4.69l2.72-.15c.11-2.05-1.7-3.55-2.75-4.24l4.26 2.58 1.66-.3c0 1.51 2.27 2.87 2.27 2.87l.31-1.96c1.97 2.57 5.59 1.66 5.59 1.66-.08-.48-.19-.95-.32-1.41 7.74 4.78 20.11-1.31 20.11-1.31 3.32.75 3.78-1.21 3.78-1.21 3.78.45 4.65-2.13 4.65-2.13 8.89-.77 15.15-7.09 15.15-7.09 4.38-.3 4.52-3.43 4.52-3.43 0 0 4.39.87 8.62-4.42 9.82-14.05 24.51-6.74 24.51-6.74l-8.49.54c-22.21-.15-13 14.96-13 14.96l1.37-.15c2.12.45 9.37 6.2 6.69 10.47-.04.07-.1.14-.15.21-4.53 6.2-12.92.29-15.31-4.94-2.42-5.29-7.26-4.08-7.26-4.08 0 0-12.54 2.12-7.4 12.09h.19c.09 2.44 1.62 5.21 6.1 7.97 2.51 3.56 10.77 3.93 16.84 2.61 2.82-.62 17.72-7.02 17.72-7.02 1.09-3.24 4.8-2.5 8.12-7.18s-4.69-6.35-6.5-8.92c-1.82-2.57.46-2.12.46-2.12 7.25 3.93 7.86-8.62 7.86-8.62.76 7.25 7.1 9.22 7.1 9.22 3.93-3.92 1.06-11.94 1.06-11.94 9.37 16.77 15.05 14.1 15.05 14.1-5.04-3.12-2.51-7.3-2.51-7.3 4.53 17.83 23.12 2.27 23.12 2.27-.91 2.57 0 4.08 1.66 5.74s3.63 2.42 2.72 5.44c-.91 3.02-9.52 2.42-9.52 2.42 0 0-8.47-.45-7.71 6.65.44 1.66 6.04 2.26 8.16 1.81 0 0-.87.19 2.26.61 1.05.13 2.31.16 3.6.11 3.61-.11 7.45-.72 7.45-.72 4.83-1.05 4.08-2.72 4.08-2.72 7.4-1.36 8.16-6.35 8.15-6.36l-2.18-6.02s-5.98-2.44-6.43-5.61c-1.06-8.46-4.09-11.64-8.61-12.85-4.54-1.21-7.55.76-7.55.76-1.37 1.97-8.17 1.97-11.94 2.11-3.78.15-3.84-1.64-3.84-1.64-2.93.02-4.17-2.14-4.17-2.14-1.92-3.84-3.35-5.27-4.3-5.76 4.9.07 8.59-2.19 14.13-8 6.04-6.35 10.36-3.89 10.36-3.89-2.93 5.93.98 5.4.98 5.4 8.01-4.08 1.06-14.36-1.36-13.9s-3.11-1.18-3.11-1.18c.07 1.85-2.68 2.58-2.68 2.58 2.07-11.74-4.94-14.85-4.94-14.85-1.06 1.06-1.67 3.17-1.67 3.17-1.96 7.1-8.46 6.05-15.72 2.57-7.25-3.47-25.66 3.63-31.43 6.05-5.78 2.42-16.31 6.2-25.84.61s-11.84-4.54-15.59-3.48-10.39 2.72-12.84 1.36-5.26-1.44-5.26-1.44c.67-.39-.38-2.03-.38-2.03-2.89-4.08.38-6.58.38-6.58 0 0-5.37 1.58-3.24 11.19l.98 1.44s.72 3.02 2.31 3.93l-.06.66s1.36-.66 1.79 1.3c.44 1.96 2.46.15 3.32-1.51 0 0-1.45 8.77 8.95 10.88 0 0-1.16-1.36-.73-2.27s-1.3-1.67-1.15-3.02-2.59-1.96-.43-3.02 3.18-3.17 7.79-.3 8.23 2.27 8.23 2.27c0 0-2.82-6.05-1.26-6.05s8.53 9.05 11.97 8.61 10.08-4.53 13.4-3.01c0 0 .28-1.81 12.98-4.08s28.75-8.9 34.9-3.09c0 0 .72 4.6 3.29 5.81 0 0-.46 9.52-16.92 4.23l-5.97-1.57s-.92-2.89-32.23 5.16c0 0-1.84.64-3.05 1.55-1.21.9-2.88-.46-9.07 1.81-6.19 2.27-29.32 9.83-43.52 7.11l.77-.78Z"
        fill="#fedd00" stroke="#000" stroke-miterlimit="3" stroke-width="1.2" />
    </g>
    <g>
      <path d="m836.18 235.24c-.43.02-.39.66.04.63.43-.02.39-.66-.04-.63Z" />
      <path d="m835.74 233.43c-.42.02-.39.67.04.64.43-.02.39-.67-.04-.64Z" />
      <path d="m837.62 236.64s-.05.02-.05.02l.05-.02Z" />
      <path d="m834.92 236.57c-.42.02-.39.67.04.64.43-.02.39-.66-.04-.64Z" />
      <path d="m834.24 234.71c-.43.02-.39.66.04.63.43-.02.39-.66-.04-.63Z" />
      <path
        d="m796.65 262.32c-1.49.08-6.5 1.26-5.34 4.18 0 0 .4 1.07.4 1.07.96 2.58 1.95 5.24 3.04 5.84l.25-.44c-.92-.51-1.93-3.2-2.81-5.58-.26-.74-.85-1.83-.3-2.54.82-1.31 3.59-1.94 4.8-2.04.71-.06.93 2.55 1.07 4.1l.5-.05c-.2-2.29-.41-4.66-1.62-4.56Z" />
      <path
        d="m788.21 266.29c-.16-1.39 1.31-1.67 3.01-1.15 0 0 .13-.49.13-.49-1.47-.41-2.54-.34-3.14.2-.15.13-.25.28-.33.43-.83-.33-1.53-.3-2.09.1-1.2.83-1.29 3.04-1.29 3.61l-.59.32c-.94.1-2.18-.9-2.19-.91-1.55.68-2.35 1.57-2.64 2.64l.49.13c.26-.93.97-1.71 2.11-2.35-.23.02 1.12 1.12 2.28.99l.75-.4c.31.26 2.31 2.08 2.31 4.39 0 .51-.1 1.02-.31 1.49l.47.2c1.34-3.18-1.65-6.03-2.17-6.5-.05-1.08.45-4.29 2.72-3.22-.06.52.09 7 3.33 8.58 0 0 .2-.46.2-.46-2.77-1.21-3.04-7.53-3.05-7.59Z" />
      <path
        d="m782.29 239.6c.58-.09 1.27.34 2.01 1.24l.4-.3s-1.99-2.91-1.21-4.94c.35-.91 1.23-1.53 2.59-1.84l-.11-.5c-1.54.35-2.54 1.08-2.95 2.15-.52 1.29-.04 2.91.49 4.02-.96-.74-2.3-.16-2.63.68 0 0 .27.53.27.53 0 0 .4-.93 1.14-1.04Z" />
      <path
        d="m799.81 238s-.27-.07-.27-.07c-.05.22-.31 2.83-1.65 3.72-.34.2-.71.23-1.13.07l-2.07-1.26c-.41-.36-.77-.63-1.36-.46-1.32-1.68-.29-4.25 1.95-5.66 0 0-.29-.41-.29-.41-1.66 1.18-2.57 2.47-2.73 3.83-.08.75.07 1.5.42 2.15l-.48-.3c-.52-.04-.95.37-1.42.8-.46.42-.94.87-1.45.8-1.24-.29-2.38-2.78-1.9-4.11.58-2.39 3.44-4.15 3.47-4.17l-.26-.43c-.12.07-3.08 1.89-3.7 4.48-.69 2.4 1.86 6.56 4.18 3.8.38-.36.74-.69 1.04-.67l.46.32.26-.21c.07.12.17.26.26.36.51-.27.72-.24 1.21.24l2.23 1.36c2.18.94 3.29-2.71 3.37-3.67 5.36 1.15 9.68-5.37 9.87-5.65l-.43-.28c-.04.07-4.44 6.75-9.58 5.4Z" />
      <path
        d="m890.49 253.9c-3.06-2.84-10.22-5.94-13.18-7.19 0 0-.91-.39-1.61.3 2.85 1.15 9.16 3.74 13.45 6.93-1.1.96-5.8 4.46-13.93 2.49-.93-.72-5.67-4.95-10.44-5.81l-.18.93c4.63.84 9.82 5.38 10.14 5.64.37.43 5.38 6.25 6.45 9.84-1.89.02-9.07-.05-11.57-2.22-.04-.02-3.84-2.2-4.09-5.47l-.88.07c.26 3.49 3.8 5.74 4.44 6.12.43.64 3.42 5.22 4.13 8.84-.97.13-3.3.22-4.68-1.58l-.63-.83-.34 2.24c-.89-.64-1.67-1.49-1.5-2.58 0 0-2.02.37-2.02.37-.47-.25-4.41-2.71-4.76-2.88-.38-.5-3.88-5.21-3.88-8.91h-.88c0 4.21 3.94 9.29 4.11 9.51 1.29.9 3.01 1.85 3.31 4 0 0-2.69.15-2.69.15.11 1.21.06 1.33-.88 4.59-1.27-.3-5.91-1.92-8.64-9.76l-.85.21c.03 1.02-.07 2.66-2.7 3.44 0 0-7.1 2.13-7.1 2.13 1.42-1.48.65-4.94.6-6.75 0-1.63.4-2.61 1.51-3.31 1.81-.56 1.71-2.21.77-4.12 0 0-.79.39-.79.39.8 1.72.81 2.59-.21 2.89-.31.07-10.53 4.21-15.89 2.5.24-1.01 1.11-4.53 2.86-8.3.26-.26.44-.87.21-2.24l-.09-.58-.53.26s-3.36 1.5-8.16-.26c.06-.46.63-1.35 1.65-1.64 0 0-.03-.32-.03-.32-.04-1.51-.68-2.1 1.6-3.06 0 0-.22-.91-.22-.91-.07 0-5.2-2.08-8.6-3.97.88-.65 3.23-2.26 5.61-2.49.08-.98-1.44.04-1.17-.35-2.8.68-5.48 2.48-5.58 2.56l-.45.37c2.59 2.1 6.24 4.96 8.75 4.89-1.5 1.72-.87 1.33-.83 2.77-.91.5-1.55 1.38-1.73 2.4l-.03.33.31.13c4.54 1.81 7.64.94 8.69.55 0 .14.04.33.04.43 0 .42-.08.54-.08.54-2.23 4.67-3.16 9.11-3.17 9.16l-.07.37c4.27 1.94 12-.45 15.47-1.66-.44.76-.7 1.61-.7 2.67.13 2.91 1 5.84-1.47 7.3 0 0 .34.81.34.81l8.75-2.63c2.02-.53 2.78-1.72 3.11-2.74 3.45 8.19 8.87 8.93 9.11 8.95l.35.03.11-.33c.84-2.52 1.04-3.79 1.07-4.41l2.71-.15c.1-.89-.09-1.81-.51-2.54 0 0 1.51.92 1.51.92l1.45-.26c.68 1.91 2.11 2.56 2.9 3.09 0 0 .29-1.91.29-1.91 2.16 1.93 5.23 1.36 5.37 1.32l.39-.1c-.34-3.06-2.42-6.78-3.65-8.75 4.26 1.85 10.89 1.6 11.7 1.59-.46-3.35-4.49-8.34-6.23-10.46 9.42 1.65 13.83-2.96 14.39-3.53Z" />
      <path d="m845.75 239.03c-.43.02-.39.66.04.64.43-.02.39-.66-.04-.64Z" />
      <path
        d="m918.64 275.45c-1.94 2.67-2.64 4.96-2.13 6.85-7.66-5.2-4.27-11.27-.3-14.25 0 0-.52-.72-.52-.72-5.29 3.96-7.68 11.1 1.69 16.61 0 0 .46-.75.46-.75-.02-.02-.06-.02-.02-.04-1.15-1.76-.63-4.17 1.54-7.18l-.72-.52Z" />
      <path
        d="m1001.26 275.15s-.16-.87-.16-.87c-4.22.61-5.4 4.64-4.89 7.02 0 0 .87-.17.87-.17-.43-1.99.54-5.48 4.18-5.98Z" />
      <path d="m838.76 225.67s4.78 1.56 1.85 7.09c0 0 1.65-1.85 1.27-4.33-.37-2.48-2.48-4.05-3.12-2.76Z" />
      <path
        d="m1014.4 280.23c-5.05.8-12.46 1.25-13.05-.28-.1-.27-.12-1.36 4.01-4.05l-.48-.74c-12.64 8.37 5 6.88 9.68 5.94 0 0-.16-.87-.16-.87Z" />
      <path
        d="m821.53 242.28s-.14-2.93-.14-2.93c1.48.52 3.28.67 5.39.45-1.08 1.18-4.74 5.87-4.29 9.78.42.29 5.59 1.64 7.99-1.31.09 1.26.09 2.49 1.57 3.97 1.34 1.32 1.07 3.81.67 5.12 0 0 .56-.41.56-.41.18-.13 5.62-.25 7.14-4.64 0 .01.76-1.1 2.23-1.55-.03.19-.06.39-.06.66 0 1.69-.83 1.78 3.8 3.55l.38.15c-.03-.39-.06-.2-.05-.59 0-1.16 2.3-1.1 3.53-2.27 1.2-1.15 1.24-2.63.77-3.84 1.03.25 2.98 2.15 3.98 3.95 1.45 2.61 5.96.37 7.23-.7l-.17-.51c-.93.26-4.28.36-4.52-2.19 0 0-.23-2.71-.23-2.71-.05-1.23-.23-2.01-.87-2.66.67-.06 2.02-.04 2.59 1.17.89 1.9 3.97 2.08 4.09 2.09l1.05.05-.88-.55s-2.68-1.71-2.22-3.92c.66-2.87 1.59-6.42 1.47-10.14l.38-1.39s1.01-1.55 1.01-1.55l-.21-.31c-8.11-11.54-24.57-11.18-24.75-11.17h-.24s-2.5 3.3-2.5 3.3c-1.3 1.18-3.28 3.57-5.38 8.19-1.08 4.93-5.97 7.84-12.8 5.18 0 .18 0 .36 0 .54 7.2 2.78 12.3-.61 13.34-5.56 1.98-4.3 3.81-6.59 5.06-7.78 1.55.14.81.02 2.25.22-1.06.72-2.13 2.31-3.12 3.77-1.23 1.82-2.32 4.48-2.25 5.7.03.26.02.84.15.68-1.83 2.24-2.75 4.78-1.56 7.55 0 0-.09 1.95.62 3.34 1.8 4.75 3.58 8.02 10.09 5.61 6.78-2.49 6.5-2.77 8.34-6.04 1.92-3.16 4.47-1.2 6.16-5.1 1.12-1.99 2.63-3.66 3.22-6.11 0 0 .73.59.73.59.79 3.7-.1 7.49-.62 11.01 0 1.43.96 2.52 1.71 3.17-.9-.19-2.16-.6-2.63-1.61-.74-1.56-2.72-1.63-3.67-1.44l-.66.13.56.36c.89.57.92 1.24.98 2.69.16 1.44 0 4.11 1.53 4.91.63.41 1.36.47 2.03.52-.82 1.2-4.07 1.75-4.81.41-1.85-2.85-4.64-4.23-5.48-4.44.42.64.74 1.39.73 2.16 0 .64-.2 1.37-.89 2.04-1.49 1.52-3.68.96-3.64 2.44-4.42-2.01-3.37-1.59-2.93-3.94 0 0 .13-.42.13-.42l-.45.07c-2.13.34-3.02 2.01-3.05 2.08-1.22 3.51-5.34 3.17-6.42 4.03.05-.33.07-.66.07-.98 0-1.03-.22-2.34-1.15-3.27-1.57-1.57-1.41-4.11-1.41-4.17l-.04-.96-.49.84c-1.93 3.32-7.57 1.73-7.62 1.71-.06-4.78 4.85-9.65 5.29-10.19-4.14.72-9.02-.26-10.5-4.04.11.99.93 2.51 1.92 3.32.26.2.54.36.84.52l.14 2.78c-.84.09-2.49.53-2.55.54 1.47.36 2.88.66 3.56.04Zm36.09-6.71l-1.03 1.69c-1.39 3.15-3.32 2.09-5.32 3.96.26-2.92-1.47-3.52-2.04-3.83l-.31.45c.24.08 3.4 1.87 1.14 5.16-1.4 2.54-1.58 2.87-7.66 5.11-6.01 2.22-7.31-.66-9.1-4.63-.31-.73-1.03-2.27-.79-2.75 0 0 1.21 2.49 1.93 3.86l.19.36c.23.45.41.86.5 1.15.54 1.68 4.32 2.96 5.82 1.59 0 0 1.54-1.38 1.54-1.38 1.37-1.25 2.63-1.35 4.18-1.07.72-.03.55-.68.55-.68-2.41-.1-4.4-.17-6.19-.98-1.28-.56-1.21-2.74-1.67-2.9 2.54.9 4.49.04 3.47-2.9-.22 1.35-.23 3.32-2.7 2.55-.74-.23-1.58-.49-2.15-.98.9.2 2.26.13 2.26.13-2.29-.42-2.75-2.08-1.52-3.44 0 0-1.75.79-2.04 1.95-.27 1.07.88 1.9 1.96 2.39-3.45 1.05-5.9.02-6.76-2.82-.04-2.4 1.48-6.86 4.82-5.72l.18-.51c-1.26-.4-1.56-.48-2.55.11l-.46.08c-.15-.92.59-3.12 2.14-5.52 1.12-1.65 2.75-4.11 3.61-3.98 12.13 1.82 19.56 8.27 20.21 8.89-.34 1.8-1.37 3.35-2.22 4.63Zm-23.04 8.11c-1.65-2.87-1.29-2.95.62-2.22 0 0-.3 1.09-.48 1.73l.22.37c1.26-.77 2.8-2.28 2.8-2.28.44-.11.6-.19 1.08-.4.02.75.33 1.62 1.13 2.68-.14 3.16-.09 2.96.46 3.13.08-.07 1.43-2.01 1.54-2.17.38.2 1.67-.06.92.48 0 0-2.27 2.28-2.27 2.28-.92.69-2.1.48-2.72.29-2.17-.7-2.16-1.81-2.95-3.38l-.36-.5Zm5.92.29c.3.11.6.28.9.38l-.94 1.33c-.02-.44 0-1.07.03-1.72Zm-5.22-1.18l.49-1.07.87-.13-1.35 1.2Zm25.84-11.64c-5.59-5.42-11.34-8.51-23.52-10.19l1.62-2.14c1.93 0 15.68.28 23.42 10.46 0 0-1.52 1.87-1.52 1.87Z" />
      <path
        d="m849.58 232.32c1.47-1.03 2.5-.74 4.37.35 1.75 1.02 2.28.74 3.18.56 0 0 .18-.16.17-.16-1.39.03-2.72-.35-3.94-1.34-1.21-.98-3.06-1.42-4.3.37-.6.87-.79 1.19-.79 1.19 0 0 .55-.09 1.31-.97Z" />
      <path
        d="m846.5 236.11c.38-.66.52-1.29.54-1.84.18.14.54.33.92.06 0 0 0 0 0 0h0c.03.05.85 1.58 1.99 1.8.55.12 1.28-.22 1.87-.55.59-.49 1.38-.86 2.09-.38 0 0 1.05.25.09-.38-.69-.45-1.4-.09-2.28.34-.58.07-.74.01-1.16-.11.14 0 .29-.03.46-.06.71-.11.8-.93.17-1.39-.49-.36-1.5 0-1.37.77.03.18.08.32.13.42-.47-.27-.97-.84-1.09-1.05 1.21-.77 2.51-.93 2.98-.61.85.57 3.01 1.34 4.15.84 1.14-.51.54-.25.54-.25-2.14.76-3.97-2-6.05-1.28-.59.2-1.17.51-1.75.95-.72.54-1.4.71-1.68.76 0-.3-.03-.58-.08-.82v-.03c-.12-.54-.3-.88-.3-.88 0 0-1.2.75-.57 1.81.63 1.06-.7 3.77-.7 3.77l1.1-1.87Zm2.32-2.34c.12.44.58 1.6 1.95 1.82-.06.02-.11.05-.17.07-1.11.4-1.98-1.01-2.37-1.5.18-.12.38-.26.59-.39Z" />
      <path d="m846.18 240.74c-.43.02-.38.67.04.64.43-.02.39-.66-.04-.64Z" />
      <path
        d="m839.94 227.37c-1.52-1.68-3.08-.83-3.08-.83 0 0-.32.45 0 .65 0 0 2.77-.57 3.49 2.06-.38-.86-1.72-.62-1.32.46.13.38.14.41-.09.07-.5-.85 0-2.08.02-2.09l-.52-.21c-.49.97-.55 3.38 1.82 3.62 0 0 .09-.53.09-.53-.26-.03-1.1-.26-.59-.26.44-.1.71-.49.65-.9.13.58.16 1.33.05 2.24-2.19-.86-3.55-2.35-2.26-4.01 0 0-.43-.35-.43-.35-1.38 1.59 0 3.77 2.64 4.8 0 0 .04-.33.04-.33-.01.11-.02.21-.04.33 0 0 1.06-3.04-.46-4.72Z" />
      <path d="m844.28 240.85c.43-.02.39-.66-.04-.63-.43.02-.39.66.04.63Z" />
      <path d="m844.97 242.72c.43-.02.38-.67-.04-.64-.42.02-.39.66.04.64Z" />
    </g>
  </g>
  <g>
    <g>
      <path
        d="m781.05 239.92s.26 2.82 2.43 4.49c0 0-.26-3.08.38-4.36 0 0-1.15-1.28-2.82-.13Zm4.35 1.79s.51 2.56 2.05 3.71l.9-.26s.38-3.21.9-3.59-2.18 1.15-3.85.13Z"
        fill="#fff" stroke="#000" stroke-miterlimit="3" stroke-width=".36" />
      <path d="m789.24 241.58l1.66 2.56 1.92-1.02-.38-3.07s-1.15-.26-3.2 1.53Z" fill="#fff" stroke="#000"
        stroke-miterlimit="3" stroke-width=".36" />
      <path
        d="m797.05 242.09l-2.18 1.79s-1.15-.9-2.05-.77l.39-2.82s1.54-1.15 3.84 1.79Zm-15.5 26.51s-.38-3.97.13-4.23c0 0 1.53.51 2.18-.13 0 0 .9 3.21.64 4.49s-1.79.77-2.95-.13Zm9.87-4.1s-.13-3.33.51-3.72c0 0 3.2.39 3.97-1.28l1.15 3.2s-3.59-.39-5.64 1.79Z"
        fill="#fff" stroke="#000" stroke-miterlimit="3" stroke-width=".36" />
    </g>
    <path
      d="m787.97 265.14s.64-3.46 1.28-3.58c0 0 1.66.51 2.18-.13l-.13 4.23s.13-1.8-3.33-.51Zm-3.72.52s.77-3.07 1.28-3.07 1.8.77 2.43.26v2.31s-2.82-.64-3.2 3.2l-.51-2.69Z"
      fill="#fff" stroke="#000" stroke-miterlimit="3" stroke-width=".35" />
  </g>
  <g>
    <g>
      <g>
        <path d="m834.18 329.42s8.71 8.09 6.43 15.13c0 0 5.6-12.03-.41-15.55-6.02-3.52-6.22-.82-6.02.42Z" fill="#00ad50"
          stroke="#000" stroke-miterlimit="4.8" stroke-width=".78" />
        <path
          d="m823.19 337.29s-2.28 3.12.21 5.4c0 0-2.69 3.93-.62 7.25 0 0-1.66 3.52-1.25 7.26 0 0-1.45 5.8 1.66 8.5 0 0 3.32 1.66 4.77.21 0 0 2.9-4.35 1.03-8.92 0 0 2.07-3.73-.21-8.5 0 0 .62-2.7-1.24-5.8 0 0 1.24-2.08.2-3.73 0 0-4.14-4.36-4.56-1.66Z"
          fill="#862633" stroke="#000" stroke-miterlimit="4.8" stroke-width=".78" />
        <path
          d="m825.67 327.13s-10.36-19.9-17.62-20.73-7.67-7.88-7.67-7.88c0 0 .83 3.32 6.63 3.32s17 8.08 18.24 14.3c1.24 6.22 2.49 5.39 2.49 5.39 0 0-2.08 5.6-2.08 5.6Z"
          fill="#00ad50" stroke="#000" stroke-miterlimit="4.8" stroke-width=".78" />
        <path
          d="m825.67 325.68s3.73-25.09 20.11-25.5c16.37-.42 10.99 1.24 14.92-1.45 0 0-10.98 5.81-17.83 6.64-6.84.83-12.44 14.09-12.23 16.59.21 2.49-3.73 7.26-5.6 5.6s.62-1.87.62-1.87Z"
          fill="#00ad50" stroke="#000" stroke-miterlimit="4.8" stroke-width=".78" />
        <path
          d="m829.4 335.02s3.73-9.95 10.16-6.63c0 0-4.98-9.54-13.89-1.25 0 0 3.94 5.39 3.73 7.88Zm-12.44-9.97s5.39 22.19-2.9 29.03c0 0 .21-11.4-4.77-18.24s4.98-14.3 7.67-10.79Z"
          fill="#00ad50" stroke="#000" stroke-miterlimit="4.8" stroke-width=".78" />
        <path d="m817.59 329s9.75 9.33 10.37 12.44 2.9-9.33-1.66-12.85c-4.56-3.53-9.54-4.15-9.54-4.15l.83 4.56Z"
          fill="#00ad50" stroke="#000" stroke-miterlimit="4.8" stroke-width=".78" />
        <path
          d="m799.61 353.46s.88 3.92 3.29 4.67c0 0 .12 2.91 2.27 3.79 0 0-1.14 2.4.76 3.92 0 0-.38 4.8 1.39 5.82 0 0 4.3-.25 5.81-1.52 0 0 .89-3.15-1.51-6.32 0 0 .38-3.03-2.03-4.67 0 0 .76-4.05-2.28-5.56 0 0-.5-3.29-2.4-4.93 0 0-3.66 5.18-5.31 4.81Z"
          fill="#862633" stroke="#000" stroke-miterlimit="4.8" stroke-width=".78" />
        <path d="m804.41 348.65s-12.77-4.68-19.85 2.02c0 0 10.87 1.52 12.26 3.67s8.09-3.54 7.58-5.69Z" fill="#00ad50"
          stroke="#000" stroke-miterlimit="4.8" stroke-width=".78" />
        <path
          d="m800.49 356.61s-1.01-.88-2.27-1.77-12.01-3.79-13.53 6.57c0 0-3.92-10.24 1.77-11.63s10.24 1.9 14.03 6.83m-8.4-21.19s3.93 8.5 5.39 8.92c1.45.41 2.49-1.04 2.49-1.04 0 0-5.18-7.67-7.88-7.88Zm-2.9-13.06s-3.32-10.99-7.26-8.09-2.9 10.78-2.9 10.78c0 0-7.88-8.08-3.32-14.51 4.57-6.43 13.48.62 13.48 11.82Z"
          fill="#00ad50" stroke="#000" stroke-miterlimit="4.8" stroke-width=".78" />
        <path d="m798.11 344.97s0 2.07 1.45 2.69 4.15 1.66 4.15.42-2.07-6.01-2.91-5.39-2.28.62-2.69 2.28Z"
          fill="#862633" stroke="#000" stroke-miterlimit="4.8" stroke-width=".78" />
        <path d="m795.62 332.12s-.41-9.53 5.8-13.06c0 0 1.25.21 1.87-1.65 0 0-4.98 12.02-3.53 18.03l-.21.83"
          fill="#00ad50" stroke="#000" stroke-miterlimit="4.8" stroke-width=".78" />
        <path d="m796.86 320.5s11.19-23.22 24.88-15.14c0 0-14.3 2.9-19.49 13.06l-5.19 7.66s-.21-5.59-.21-5.59Z"
          fill="#00ad50" stroke="#000" stroke-miterlimit="4.8" stroke-width=".78" />
        <path
          d="m790.85 329s-3.32-15.55-5.39-17.62-5.6-4.35-9.75-.83c0 0 7.26-6.43 14.93-1.04 7.67 5.39 6.01 13.89 6.01 13.89l-.83 10.78-5.18-4.77"
          fill="#00ad50" stroke="#000" stroke-miterlimit="4.8" stroke-width=".78" />
        <path
          d="m802.87 347.45s-13.68-25.91-22.6-7.46c0 0-1.66 4.77.2 6.63 0 0-4.98-3.73-2.69-12.85s17.41-4.98 21.77 2.49c4.35 7.46 5.6 11.2 4.98 11.61-.62.42-1.66-.42-1.66-.42Zm38.57 7.47s9.95-20.53 15.76-11.2c0 0 1.66 4.56-.83 6.43 0 0-3.93-4.77-7.46 1.04s-2.07 5.39-2.07 5.39c0 0-3.73 1.04-5.39-1.66Z"
          fill="#00ad50" stroke="#000" stroke-miterlimit="4.8" stroke-width=".78" />
        <path
          d="m856.35 350.15s5.39 2.9 3.53 8.7c0 0 7.25-13.89-2.7-15.13 0 0 1.87 4.36-.83 6.43Zm.63-14.09s13.06 3.73 13.48 9.33c0 0 2.28-10.79-5.18-14.1 0 0-8.92 1.45-8.3 4.77Z"
          fill="#00ad50" stroke="#000" stroke-miterlimit="4.8" stroke-width=".78" />
        <path
          d="m862.79 318.84c5.6-10.99 12.65 3.52 12.65 3.52 0 0 2.49-11.4-4.56-13.48-7.05-2.07-11.61 24.25-11.61 24.25l-8.3 1.87s2.28-23.01 14.72-25.09l1.45.21"
          fill="#00ad50" stroke="#000" stroke-miterlimit="4.8" stroke-width=".78" />
        <path
          d="m852.83 325.47s-7.87-16.17-13.27-17.83 2.91-4.15 6.22-1.04 9.53 7.05 8.91 15.34c0 0-1.87 3.52-1.87 3.52Zm-8.08 22.19s2.28-10.98 8.5-14.3 12.03-2.07 12.03-2.07c0 0-7.47 1.66-8.71 5.39-1.25 3.73-3.32 3.93-3.32 3.93l-8.5 7.05Z"
          fill="#00ad50" stroke="#000" stroke-miterlimit="4.8" stroke-width=".78" />
        <path
          d="m841.44 354.92s-3.52 6.64-2.7 7.67c0 0-3.73 5.39-2.28 8.09 0 0 3.73 2.9 5.39 1.66 0 0 4.35-6.01 3.11-9.33 0 0 2.9-3.93 1.87-6.42 0 0-4.35.21-5.39-1.66Z"
          fill="#862633" stroke="#000" stroke-miterlimit="4.8" stroke-width=".78" />
      </g>
      <path
        d="m823.2 343.07c.23.12 2.33 1.14 3.74.67l1.01-.86-.79-.39c-.52 1.02-2.8.18-3.56-.2 0 0-.39.79-.39.79Zm-.34 6.44l-.17.87c.18.03 4.38.85 6.39-.93l-.59-.66c-1.68 1.49-5.59.73-5.63.72Zm-1.07 7.33l-.52.71c.05.04 4.94 3.52 8.07-.28l-.69-.56c-2.6 3.15-6.69.26-6.86.13Zm-18.99 1.06l.18.47c.18-.07 4.32-1.74 4.58-4.77l-.5-.05c-.24 2.72-4.22 4.32-4.26 4.34Zm2.34 3.78l.04.5c.16-.01 3.99-.3 4.65-2.97l-.49-.13c-.58 2.32-4.16 2.59-4.19 2.59Zm.79 3.92l-.03.51c.18 0 4.47.23 5.92-2.14l-.43-.27c-1.3 2.12-5.42 1.91-5.46 1.9Zm32.48-2.68c.08.08 1.92 1.91 4.08 1.82 1.06-.04 1.99-.52 2.78-1.43l-.67-.58c-.62.72-1.35 1.1-2.14 1.13-1.77.06-3.41-1.55-3.43-1.57 0 0-.62.63-.62.63Z" />
    </g>
    <g>
      <path
        d="m967.17 378.06c-.25.1-.48.25-.67.44l.67-.44Zm15.25-3.82c-.15-.38-.24-.22-.44-.39-.28-.23-.44-.96-.69-1.24-.15-.17-.31 0-.47-.05l-1.15-2.37c.07-.11.1-.23.1-.35-.06-.22-.12-.44-.19-.66-.11-.17-.28-.07-.38-.33-.11-.26-.03-.77-.07-1.08-.03-.26-.13-.4-.11-.76.02-.31.18-.68.16-.95 0-.17-.21-.56-.27-.7-.25-.59-.45-1.15-.48-1.88-.03-.66.1-1.07.15-1.64.06-.69-.3-1.02-.3-1.66 0-.49.21-1.03.27-1.47.08-.6.09-1.46.04-2.07-.05-.59-.21-.94-.12-1.6.02-.16.1-.29.12-.52v-.47s0-.94 0-.94v-.95c-.02-.25-.17-.5-.17-.7 0-.34.21-.5.17-.95-.03-.33-.08-.4-.15-.69-.15-.54-.05-1.09-.13-1.67-.04-.28-.13-.37-.16-.69-.04-.38.08-.5.11-.77s.08-.61.04-.89c-.04-.34-.2-.57-.16-.94l-.12 4.16-.25-6.99-5.52-2.59s-.47 10.14-.35 11.55c.11 1.41.59 11.08.35 12.26s-.82 7.07-.82 7.07c0 0-2.7 1.89-3.76 4.01s-.82 2.83-1.18 2.83l2.62-.41-1.95 1.3c.41-.17.88-.09 1.22.19.05.04.34.29.37.29.1 0 .25-.26.37-.31.41-.14.75.62 1.14.57.21-.03.49-.25.66-.47.14-.19.19-.52.34-.64.13-.11.46.02.6.02.38 0 .78.01 1.16 0 .51-.01.93-.74 1.4-1.15.44-.37.77-.5 1.24-.47.52.04.98.52 1.51.55.4.02.67.07.99-.35.22-.29.38-.72.59-1.02l1.3-.2c.26.11.52.23.74.22.33-.02.68-.06 1.01 0 .13.02.37.31.48.24.07-.05.19-.45.26-.57-.03-.16-.08-.56-.14-.69Z"
        fill="#862633" stroke="#000" stroke-miterlimit="4.8" stroke-width=".42" />
      <path
        d="m971.25 377.88c.33 0 .64-.08.92.17l.13.26c.08.06.18.07.28.04.19.13.23.2.43.25.19.04.4 0 .59 0 .24 0 .36.09.59.18.39.16.65 0 .99-.24.39-.29.54-.07.92.3.28.27.23.25.48.06.04-.09.08-.17.13-.25.13-.05.26-.09.38-.11.21-.1.42-.09.62-.16.21-.08.36-.31.59-.27.19.04.41.19.59.25.18.06.25.09.4.2.26-.54.84-.7 1.22-.97.39-.27.75.06 1.17.06.23 0 .32-.13.48-.18.18-.07.38.03.56-.04.18-.07.22-.25.42-.27.38-.05.79.57 1.17.68.21.07 1.18.29 1.04-.43-.14-.68-.75-.21-.88-.69-.07-.27.07-.66-.01-.96-.07-.28-.38-.6-.56-.66-.23-.07-.36.17-.56-.02-.16-.15-.22-.71-.36-.93-.19.14-.31.26-.55.21-.28-.07-.26-.16-.47-.43-.46-.57-.72.34-1.15.2-.32-.1-.62-.91-.87-1.24-.13-.18-.51-.75-.71-.62-.33.21-.03.83-.2 1.11-.12.19-.56 0-.72.03-.25.05-.29.12-.47.42-.36.6-.57 1.08-1.14 1.01-.27-.03-.47-.3-.73-.2-.28.11-.44.4-.74.44-.22.02-.48.03-.7-.06-.21-.1-.46-.5-.65-.61-.07-.07-.17-.09-.26-.05-.02-.01-.32-.18-.32-.18-.34-.1-.31-.09-.45.36-.08.28-.11.57-.21.83-.1.22-.32.5-.44.65-.24.26-.35.19-.66.28-.25.08-.58.47-.71-.03-.2-.75.55-1.87-.28-1.68-.23.02-.43.19-.48.41-.15.37-.03.61-.09 1.02-.09.51-1.06 1.37-.87 1.84.13.33.57-.18.69-.09.2.14.14.46.28.68.3.45 1.17-.7 1.22-.08m-3.55-4.48c0-.06-.01-.13-.02-.19-.23-.04-.5-.29-.71-.29-.2-.01-.6.48-.73.72-.43.71-.31 1.67-1.03 1.66-.18 0-.59-.12-.74-.02-.27.19-.1.76-.1 1.14 0 .36.17 0-.03.47-.06.13-.23.17-.28.34-.15.61.37.42.59.41h1.73c.35 0 .56-.11.88-.24.21-.07.67-.07.85-.26.06-.07.28-.56.3-.67.05-.24-.05-.52.01-.72.09-.35.4-.22.46-.69.15-1.15-1.08-.29-.89-1.42"
        fill="#862633" stroke="#000" stroke-miterlimit="4.8" stroke-width=".42" />
    </g>
    <g>
      <path
        d="m981.63 341.83c0 1.49-1.02 2.69-2.29 2.69s-2.28-1.2-2.28-2.69 1.03-2.7 2.28-2.7c1.27 0 2.29 1.21 2.29 2.7Zm-7.46-3.32c0 1.49-1.02 2.69-2.28 2.69s-2.29-1.21-2.29-2.69 1.02-2.7 2.29-2.7 2.28 1.21 2.28 2.7Z"
        stroke="#000" stroke-miterlimit="4.8" stroke-width=".78" />
      <path d="m978.11 339.54c0 1.49-1.02 2.69-2.28 2.69s-2.28-1.2-2.28-2.69 1.02-2.7 2.28-2.7 2.28 1.21 2.28 2.7Z"
        stroke="#000" stroke-miterlimit="4.8" stroke-width=".78" />
      <path d="m974.29 342.01c0 1.49-1.03 2.7-2.28 2.7s-2.28-1.21-2.28-2.7 1.02-2.69 2.28-2.69 2.28 1.2 2.28 2.69Z"
        stroke="#000" stroke-miterlimit="4.8" stroke-width=".78" />
      <path d="m977.84 344.06c0 1.49-1.03 2.7-2.28 2.7s-2.28-1.21-2.28-2.7 1.03-2.69 2.28-2.69 2.28 1.21 2.28 2.69Z"
        stroke="#000" stroke-miterlimit="4.8" stroke-width=".78" />
    </g>
    <path
      d="m978.94 314.66s23.01-32.13 47.68 1.25c0 0 .21 3.32-2.07 6.84l-.62-2.69-1.45.41-.41-1.66-2.7-.21.83-3.53-2.91 2.28.42-2.49-3.32 3.32.42-7.05-3.53 6.01.41-4.14-1.24 1.86-.75-2.42-1.11 2.42-1.66-1.24v1.66l-2.9-2.49-1.04 3.32-1.45-3.52-.42 2.49-1.45-2.9-.2 3.11-4.77-2.07 1.04 2.9-2.28-1.66.41 1.66-3.11-.62.2 1.86-3.32-.62.62 1.66-4.56-.62 1.65 1.87-.46.76s24.93-8.22 26.58 22.88l-4.56 2.28 1.25-2.48-1.25-.83-3.73-2.9 1.04-3.94-1.24.42-.21-2.28-.62.41-1.45-2.28-.41.83-1.04-2.7-1.04 1.87-.62-4.56-1.66 2.91-.21-1.66-.62 1.04-2.07-2.49-.62 1.66-.83-1.24-.62 1.45-2.28-2.08v1.66l-1.45-1.25-.63.83-3.52-1.87-.22 1.66-1.86-1.66-.62 1.66s22.6 12.86 15.55 33.8l-1.25 2.69-.41-7.04-2.07 3.73 1.44-8.09-1.44 1.45-.21-3.11-1.86 3.11-.63-3.52-.82 1.04-1.25-5.39-1.04 2.28-1.66-6.01-1.24 2.49-.83-5.18-.83 3.11-2.49-4.56-.41 1.86-1.45-3.73-.83 1.25s-4.15-.21-5.39-1.25-4.77 6.22-4.77 6.22l.42-4.36-1.45 2.9v-2.9l-2.7 8.71-.62-6.22-1.45 5.39-.62-1.66-.41 2.28-.83-.83-.72 2.45-1.35-.99v3.32l-1.24-1.66-1.04 4.98-.62-2.07v2.28l-1.04-1.24-1.04 4.98-1.45-2.07-.2 3.52.62 2.7-1.66-.83.62 4.35s-6.43-12.02 1.25-23.63c7.66-11.6 18.03-14.72 18.03-14.72l-1.04-1.03-.21-1.04-6.22 3.11.21-1.87-1.66 1.45-.41-2.07-1.04 1.87-.2-.83-1.45 2.28-.83-3.32-1.03 3.94-.98-2.76-2.13 5.86v-4.35l-1.66 4.56-.62-4.98-1.24 5.8v-5.18l-1.87 5.18-1.24-4.97-.83 4.77-1.24-3.73-1.25 5.6-1.86-4.98-1.04 7.47-1.24-2.91-.21 5.39-1.45-3.32 1.45 7.04-1.87-2.69.62 4.35-2.69-4.77.21 5.6-1.45-1.87-.62 2.07s-.62-21.56 14.1-25.71c14.72-4.14 24.26 1.25 24.26 1.25l-5.6-4.56.62-1.45h-2.07l.83-1.66-4.35.21 1.24-1.66-3.32.41v-1.04l-2.07 1.65.83-1.86-2.9 1.86-.18-2.76-1.48 2.35-.82-2.49-6.64 6.63 1.87-6.84-1.24 1.45-.21-1.45-1.87 2.91-.42-2.07-.83 2.49-.62-2.9-1.45 2.9-1.45-2.69-.62 3.53-1.04-1.87-1.24 2.69-1.66-1.66-.21 1.66-3.32-1.45.83 2.49-2.49-2.07-.62 3.32-1.45-1.66-1.04 4.15-1.04-3.94-1.04 3.11s12.96-33.31 45.77-11.58c0 0 3.57 3.49 4.4 5.98s.21.42.21.42l-.62-23.01 1.24 9.95.83-3.53-.21 5.18 3.31-7.26s-3.93 12.03-2.49 16.38c0 0 1.45-13.89 6.43-15.55l-4.56 9.95 1.45-.21-1.04 2.08h1.24l-1.5 3.29-.78 1.69.83 1.66s1.25-1.26 1.26-1.26Z"
      fill="#00ad50" stroke="#000" stroke-miterlimit="4.8" stroke-width=".78" />
  </g>
  <path
    d="m975.53 328.18l.65.59c.09-.09 2.14-2.28 5.58.63l.57-.68c-4.12-3.48-6.79-.57-6.8-.54Zm-1-11.29l-.13.8 1.6-.68-1.1 1.92 2.38-.79-2.96 3.87.7.54 4.7-6.16-2.92.98 1.25-2.21-2.53 1.09.52-3.16-.88-.15s-.65 3.96-.65 3.96Zm-4.39.25l1.02 2.24-1.62-.65 4.78 8.46.61-.78-.96 2.48.83.32 2.06-5.31-.76-.43-1.66 2.13-2.89-5.11 1.33.53-1.32-2.92 1.79 1.12v-3.15h-.88v1.56l-2.93-1.83s.61 1.33.61 1.33Zm-3.01 10.63l.35.81c1.29-.55 2.36-.65 3.17-.26.95.46 1.24 1.43 1.24 1.44l.85-.23c-.01-.06-.39-1.37-1.7-2-1.05-.5-2.37-.42-3.92.24Zm3.71 8.96l-.73-4.64.88-.14.73 4.64-.88.14Zm6.37-.76l-1.18-3.54.84-.28 1.18 3.54-.84.28Zm2.34 2.62l-.89-3.54.86-.22.89 3.54-.86.22Z" />
  <path
    d="m802.55 444.97s-3.89-1.77-5.66-.47c-1.77 1.3-1.53 3.18-3.06 3.06 0 0 5.89 1.3 7.19-.24 1.29-1.53 1.53-2 1.53-2m.72 1.28s-2.56 3.42-1.67 5.42 2.77 2.18 2.33 3.65c0 0 2.53-5.47 1.32-7.07l-1.62-1.92m-4.66-9.55s-4.08 1.27-4.54 3.4c-.47 2.14.97 3.39-.26 4.32 0 0 5.26-2.95 5.21-4.96l-.18-2.51m2.16 1.15s1.93-3.81.72-5.63c-1.22-1.83-3.12-1.67-2.93-3.19 0 0-1.56 5.83-.08 7.19l1.94 1.61m-3.65-1.37s.09-4.26-1.8-5.38-3.53-.16-4.02-1.61c0 0 1.13 5.93 3.05 6.52l2.45.61m7.29 6.97s4.47-1.54 4.83 3.3-.24 3.18-.24 3.18c0 0-2.36-5.18-4.95-6.01 0 0 .35-.47.35-.47Z"
    fill="#00ad50" stroke="#000" stroke-miterlimit="4.8" stroke-width=".78" />
  <path
    d="m803.19 446.67c.15 1.25.31 2.5.47 3.76l.63-.08-.47-3.65s1.53-8.03 1.53-8.03l-.62-.11s-1.53 8.12-1.53 8.12Z" />
  <path
    d="m799.12 445.48l-.21.6c2.14.75 5.13-1.6 5.25-1.7l-.4-.49s-2.84 2.24-4.65 1.6Zm5.61-4.71l-10.01-5.07.4-.79 10.01 5.07-.4.79Z" />
  <path
    d="m797.47 439.63l-.62-.62 2-2 .62.62-2 2Zm3.5-.97l-2.12-4.6.8-.37 2.12 4.6-.8.37Zm2.96 5.63l.06.88c2.72-.18 3.39 1.58 3.39 1.6l.87-.18c-.1-.5-1.19-2.51-4.32-2.3Z" />
  <g>
    <path
      d="m849.87 446.32c3.34-1.87 4.01-8.42 4.01-8.42-.8 2.41-6.94 4.81-6.94 4.81 4.54-2.81 10.01-15.49 10.01-15.49-1.47 4.54-13.35 8.28-20.97 12.55s-3.61 16.56-3.61 16.56c-2.13-1.47-6.28-8.01-7.08-13.76-.81-5.74-3.08-8.01-8.28-8.68s-8.28 5.21-8.28 5.21l-7.74 4.01 7.87.26s5.62 1.87 5.62 6.28-4.94 22.04 3.2 31.92c5.67 6.87 26.58 10.82 26.58 10.82"
      fill="#fff" stroke="#000" stroke-miterlimit="4.8" />
    <path
      d="m834.52 459.94s1.6-7.88 6.81-7.61 6.68-5.87 9.75-6.81 18.97-5.21 20.7-12.82c0 0-1.47 12.56-16.02 18.83 0 0 11.75-3.88 13.09-6.41 0 0-5.21 11.22-17.9 12.96 0 0 11.89-.93 13.62-4.14 0 0-5.34 7.08-14.16 8.01 0 0 8.15 3.34 10.28.53 0 0-4.41 5.21-9.89 5.61l1.47.4s-5.21 6.15-10.95 2c-5.75-4.14-5.88 1.07-5.88 1.07"
      fill="#fff" stroke="#000" stroke-miterlimit="4.8" />
    <path
      d="m846.38 471.82s6.71 11.22 7.38 17.23c0 0 12.82 14.16 17.63 14.95 0 0-2.27.93-6.41-2.54 0 0 3.47 3.61 4.14 3.74s-2.81-.27-3.34-1.21c0 0 1.47 2.14 2.4 2.41l-.93-.27s-1.74-.27-2.54-.94-.27 1.73-.27 1.73c0 0-2-.53-2.67-1.2s.27 1.47.27 1.47l-1.74-.4-1.2.8s-.13.8-.94.13c-.8-.66-2.27 0-2.27 0 0 0-1.07.94-1.6.27s-2.56 2.57-2.56 2.57l-8.41-20.3"
      fill="#fff" stroke="#000" stroke-miterlimit="4.8" />
  </g>
  <path
    d="m854.36 508.64l-10.63-20.23 1.12-.59 10.63 20.23-1.12.59Zm9.29-1.36l-18.18-20.36.94-.84 18.18 20.36-.94.84Zm4.15-1.8l-20.75-19.34.86-.92 20.75 19.34-.86.92Zm-52.01-65.14s-1.35-2.42-2.53-1.51-1.85 1.07-2.06 1.01c0 0 1.18.06 1.85-.57s1.82-.24 2.74 1.08Zm-7.33-1.11l.75 1.56c-.07 0-.84 2.48-.84 2.48l.61.19.83-2.7c-.01-.23-.77-1.81-.77-1.81 0 0-.57.27-.57.27Z" />
  <path d="m815.48 439.97s-1.01 1.18-2.39.84l-1.38-.34 1.95.1c.77.03 1.78-.37 1.82-.61Z" />
  <path d="m815.15 440.21s-1.25-1.31-2.09-.94c0 0 1.48-.47 2.33.8l-.24.14Z" />
  <path d="m814.94 439.97s-1.41.98-2.97-.1l-.09-.07.2-.06s1.95.81 2.86.24Z" />
  <circle cx="813.73" cy="439.73" r=".42" />
  <path
    d="m814.87 477.04s-1.1 2.02-.52 3.23c.58 1.21 3.18 1.84 3.53 3.46s1.22 1.62 2.43 1.39l1.45-.29s-5.09-2.72-6.42-7.11c0 0-.46-.69-.46-.69Z" />
  <g>
    <g>
      <path
        d="m979.3 435.96s9.26-12.21 17.47-9c8.21 3.21 13.55 4.75 13.55 4.75 0 0 .16 8.22-4.21 8.22s-8.53-8.21-12.5-5.77c-3.98 2.44-7.24 5.77-7.5 6.93s-10.52 1.41-6.8-5.13Z"
        fill="#862633" stroke="#000" stroke-miterlimit="4.8" stroke-width=".48" />
      <g>
        <path d="m944.15 494.83s-2.56 2.69-1.41 3.33c1.16.64 3.46-.13 3.46-1.03 0-.9-1.54-2.56-2.05-2.31Z"
          fill="#862633" stroke="#000" stroke-miterlimit="4.8" stroke-width=".78" />
        <path
          d="m942.11 497.39s-4.74-2.7-8.46 3.71-6.8 16.8-8.98 18.22 21.17-10.26 21.42-15.13c0 0 1.54-6.29-.9-6.16-2.44.13-2.57.39-3.08-.63Z"
          fill="#862633" stroke="#000" stroke-miterlimit="4.8" stroke-width=".78" />
      </g>
      <path d="m942.75 498.16s-4.87 1.15-5.9 8.07c-1.03 6.93-7.83 10.52-8.21 10.78m81.69-85.3s-7.41 2.58-6.13 7.71"
        fill="#862633" stroke="#000" stroke-miterlimit="4.8" stroke-width=".48" />
    </g>
    <path
      d="m953.39 446.73s.26-17.57 14.61-16.8c2.72.25 1.42 3.46 1.42 3.46 0 0 3.11-2.18 4.53 1.28 0 0 4.53-2.05 5.04 2.44 0 0 4.92-.64 4.27 3.33 0 0 3.36-.77 3.24 2.05 0 0 3.88-1.54 3.49 2.44 0 0 4.27-2.82 3.63 2.31 0 0 4.4-3.07 5.94 2.05 1.55 5.13-4.39 16.03-10.22 18.85"
      fill="#fedd00" stroke="#000" stroke-miterlimit="4.8" stroke-width=".48" />
  </g>
  <path
    d="m993.29 447.79c.02.14 1.93 13.75-5.78 18.73l.27.43c8-5.16 6.03-19.09 6.01-19.23l-.5.07Zm-9.3 14.9l.36.36c4.89-4.76 5.94-17.57 5.98-18.12l-.5-.04c-.01.13-1.07 13.17-5.83 17.79Zm-4.57-3.05l.5.04c.63-7.91 6.82-16.97 6.88-17.06l-.42-.28c-.06.09-6.33 9.25-6.97 17.3Zm-3.59-2.31l.5.05c.88-9.55 7.19-16.72 7.25-16.78l-.38-.34c-.07.07-6.48 7.36-7.38 17.07Zm-5-3.19l.5.02c.5-11.27 7.9-16.81 7.97-16.86l-.3-.41c-.07.06-7.66 5.72-8.18 17.25Zm-4.62-2.8l.51-.02c-.37-10.26 7.52-16.4 7.6-16.47l-.31-.4c-.08.07-8.18 6.36-7.8 16.88Zm-8.33-3.75l.5.06c1.37-11.11 11.26-14 11.36-14.02l-.14-.49c-.1.03-10.31 3-11.72 14.45Z" />
  <path
    d="m944.92 468.02s-2.43-16.29 7.31-21.42c0 0 1.8-.39 2.82 1.92 0 0 5.13-2.18 5.26 2.18 0 0 2.56-2.05 3.21.77 0 0 5.52-1.15 4.49 2.95 0 0 4.62-1.28 4.23 2.69 0 0 4.62-1.67 3.85 1.8 0 0 4.87-1.15 3.72 2.82 0 0 6.03-.64 4.23 3.59 0 0 4.49-1.15 3.46 2.31 0 0 5.9 1.03 3.21 4.75s-9.49 9.36-16.15 11.8m-34.9.26s-3.98-13.59 3.6-17.06c0 0 1.4-.39 1.66 1.03 0 0 1.67-2.18 2.96-.26 0 0 3.84-1.8 4.75 1.02 0 0 2.56-2.18 3.85 1.02 0 0 2.44-1.02 2.44 1.54 0 0 3.33-1.41 3.33 1.67 0 0 3.2-1.28 2.56 2.18 0 0 4.88.77 3.47 3.08 0 0 4.37 1.15 2.69 2.95 0 0 4.74-.51 2.18 2.69 0 0 3.59-1.15 1.54 2.83-2.05 3.98-8.46 8.33-12.95 8.85m-17.32-.77s-8.46-8.21-4.48-10.64c0 0 1.79.51 2.43 2.31 0 0 2.05-2.95 3.21.13 0 0 3.08-1.02 3.08 1.03l2.43 1.8s2.83-.26 2.31 1.54c0 0 3.08-.39 2.95 1.28 0 0 2.7.13 2.44 1.92 0 0 4.61.77 2.56 3.08 0 0-8.08 1.66-13.72-.64 0 0-2.96-1.03-3.22-1.8Z"
    fill="#00ad50" stroke="#000" stroke-miterlimit="4.8" stroke-width=".48" />
  <path
    d="m973.44 481.64l.18.47c5.01-1.93 13.73-13.82 14.1-14.33l-.41-.3c-.09.13-8.99 12.28-13.87 14.16Zm-2.85-2.17l.25.44c4.36-2.43 13.05-13.94 13.42-14.43l-.4-.3c-.09.12-8.99 11.92-13.26 14.3Zm-2.47-1.01l.33.39c4.61-3.83 11.32-16.46 11.61-17l-.45-.24c-.07.13-6.95 13.09-11.49 16.85Zm-2.27-2.91l.5.07c.88-6.39 9.85-16.44 9.94-16.54l-.38-.34c-.37.42-9.17 10.27-10.06 16.81Zm-17.96-7.77l.51-.05c-.75-9.02 6.8-18.96 6.88-19.06l-.4-.3c-.08.1-7.75 10.19-6.98 19.41Zm4.75.79l.5-.09c-1.25-7.23 7.29-17.52 7.38-17.62l-.39-.33c-.36.43-8.78 10.57-7.5 18.04Zm7.3 2.66h.51c-.25-8.27 7.67-16.55 7.76-16.63l-.36-.35c-.08.08-8.16 8.52-7.9 16.99Zm-17.42 14.96l.47-.18c-2.88-7.63 2.12-17.4 2.17-17.5l-.46-.23c-.05.1-5.15 10.06-2.19 17.91Zm3.32.5l.48-.16c-2.51-7.77 1.74-18.19 1.79-18.29l-.47-.19c-.04.1-4.36 10.69-1.8 18.64Zm13.75 7.77l.17.48c8.18-2.94 13.54-10.41 13.59-10.48l-.41-.3c-.05.07-5.31 7.41-13.35 10.3Zm-1.68-1.78l.21.46c6.53-2.94 12.61-11.16 12.67-11.25l-.4-.3c-.06.08-6.07 8.19-12.47 11.08Zm-1.58-.62l.3.41c5.11-3.7 11.66-13.18 11.73-13.28l-.42-.28c-.07.1-6.57 9.5-11.61 13.15Zm-8.18-4.76l.5-.07c-1.13-8.16 4.15-17.83 4.21-17.92l-.44-.25c-.06.1-5.42 9.92-4.26 18.24Zm3.55 2.21l.34.38c5.27-4.75 7.06-17.57 7.13-18.11l-.5-.07c-.02.13-1.84 13.18-6.97 17.81Zm3.61 1.52l.3.41c7.43-5.38 9.45-15.7 9.47-15.8l-.49-.09c-.02.1-2 10.22-9.27 15.49Zm.86-22.25l.07 1.45s-5.64 18.24-5.64 18.24l.48.15 5.65-18.34c-.87-8.87 6.93-18.54 7-18.64l-.39-.32c-.08.09-7.18 8.9-7.18 17.46Zm5.9 4.47c-.07.26-1.79 12.78-8.54 17.4l.29.42c6.95-4.75 8.63-17.1 8.7-17.62 3-3.57 9.91-16.08 9.97-16.2l-.44-.24c-.07.13-6.95 12.6-9.97 16.25Zm-19.94 13.68c.05.26 1.18 6.49 2.47 8.68l.44-.26c-1.25-2.12-2.39-8.45-2.4-8.51 0 0-.5.09-.5.09Zm3.2.08l-.1 8.63.47.18c.26-.65.16-7.46.14-8.82 0 0-.51 0-.51 0Z" />
  <path d="m945.6 495.87l.46.21c2.17-4.72 2.84-7.97 2.84-8l-.5-.1s-.66 3.24-2.81 7.9Z" />
  <path d="m946.08 496.02l.26.44c4.02-2.34 4.96-6.4 4.99-6.57l-.49-.11s-.93 4.03-4.75 6.25Z" />
  <path d="m946.83 496.37l.05.5c3.94-.39 6.63-5.18 6.74-5.38l-.44-.25c-.03.05-2.67 4.76-6.35 5.13Z" />
  <path d="m947.22 496.62l.03.5c6.33-.39 9.18-4.17 9.29-4.33l-.41-.3s-2.83 3.76-8.91 4.13Z" />
  <path d="m947.67 496.75l-.1.49c.34.08 8.41 1.79 11.17-2.42l-.42-.28c-2.57 3.91-10.56 2.22-10.64 2.2Z" />
</svg>