<svg xmlns="http://www.w3.org/2000/svg" width="1200" height="720">
  <path d="m0 0h1200v720H0V0Z" fill="#00b140" />
  <path d="m0 0h1200v360H0V0Z" fill="#fff" />
  <path
    d="m204.54 660h1c4-8 8-13 18-13 3 2 9 4 15 4 21 0 39-17 49-17 3 0 16 3 20 3 12 0 13-9 24-9 15 0 28 19 41 19 6 0 13-4 16-7 6-1 14 2 18 6l5-2c0-11-8-20-19-21-2-5-9-9-16-9-3 0-5 1-11 1-5 0-10-4-14-6 13-41 53-51 70-91l19 47 2 1c12-10 23-28 18-41 7-2 17-8 21-14 20 4 43-1 52-17 13 4 27 1 32-5-4 17 3 32 19 37 4 16 24 29 44 22 2 3 8 7 12 8-4 2-10 11-9 19-8 0-15 6-17 12-23-6-29 7-43 7-32 0-42-31-61-17-14-3-29 5-32 17l2 1c5-5 13-5 18-1-2 3-2 7 1 10l-1 1c-14-3-29 6-32 20l4 2c8-7 20-7 27 0-11 6-15 25-9 33h1c4-8 8-13 18-13 3 2 9 4 15 4 21 0 36-14 46-14 7 0 10 7 22 7s19-10 30-10c12 0 20 17 35 17 6 0 12-2 14-5 6-1 14 2 18 6l5-2c0-11-8-20-19-21-2-5-5-8-12-8-5 0-12 2-19-2 45-17 83-52 96-76l39 12 3-1c-5-57-87-45-87-78 0-11 7-17 15-22l16 1c18 17 50 26 74 20 14 14 41 19 58 13 8 5 20 7 28 5 2 7 6 13 12 17-5 8-2 19 4 26-3 6-3 17 0 22-8 5-13 16-10 28-6 12-16 17-27 17-21 0-37-32-51-23-14-6-30 0-33 10l2 4c5-4 13-3 18 1-3 3-3 7-1 10l-1 1c-13-4-29 4-32 18l3 2c9-7 22-5 28 2-12 5-17 23-13 32h1c5-7 10-12 20-12 3 2 8 6 14 6 21 1 31-14 41-14 7 0 16 5 27 5 12 0 13-10 27-10 15 0 19 18 40 18 6 0 12-2 14-5 6-1 14 2 18 6l5-1c0-11-8-21-18-22-6-15-34-5-34-29 0-17 16-58 16-79 0-11-2-23-8-35l44 16v-3c-18-59-69-46-112-76 82-3 146-60 146-114 0-13-4-25-13-38 9-15 17-34 22-52 7 14 27 27 44 28l2-5c-19-28-36-69-33-126l-5-1c-17 40-52 78-87 103l1 4c15 9 40 6 52-7-4 13-10 28-16 37-11-7-32-14-52-14-35 0-63 21-63 49 0 24 25 46 56 46 13 0 29-5 40-16-6 19-35 33-61 33-46 0-98-39-156-39 13-12 32-16 55-14l2-4c-16-50 18-92 71-97l5-4c-22-47-5-78 44-99v-12l-144 28-80 20c-4-26 5-47 24-66l-2-5h-1c-118 54-213 127-203 155-6 7-11 20-11 28 0 14 13 28 27 31 6 7 13 15 13 24 0 10-9 22-23 22-18 0-21-18-38-18-12 0-31 14-40 24-7-19 5-34 28-34 0-22-22-20-22-33h34c0-24-26-21-26-36h32c1-23-29-21-29-37h26c-7-26-31-16-37-36l10-4v-3c-18-10 26-13 34-33v-1h-18c5-9 13-27 13-41h-2c-4 7-19 19-38 25v-33h-3c-16 28-46 19-60 49-24 2-40-3-57-3-19 0-30 9-36 19-8-3-13-1-18 4-7-4-18-4-25 2-18 0-45 7-62 22l3 5h50c1 15 12 26 30 25l6 6c-8 3-29 13-45 13-19 0-42-9-50-13l24-14-1-2c-23 2-55-8-75-23l-1 1c0 34 20 59 54 71l3-3-6-15c9 6 31 15 51 15s37-8 47-13c-6 12-3 20 7 28-3 10 5 18 13 24l3-3 7-21 8 7h2c4-14 16-22 31-22l2 6c-8 5-12 16-12 24-10 6-19 20-19 36-15 8-23 29-20 49-17 22-17 49-5 66-3 5-6 17-6 21l-15-2c-5-5-14-8-22-8-3-9-11-15-21-16-1-10-10-18-20-19l-14-53c9-14 29-13 23-36 9-13 4-27-9-32l-1 1c2 5 1 14-2 19-4 0-9 1-10 4 3-9 0-25-9-30-2-12-18-21-32-14v1c9 3 12 6 14 18-4 4-4 9-2 15-2 3-6 14-3 21-6-5-6-26-19-26-8-11-24-12-37-3v1c8 0 19 2 19 10-3 6-1 12 3 17l2 2c-1 1-2 5-2 7 0 14 20 15 20 30 0 8-4 9-4 15s3 11 6 14c-11 2-14 13-18 20s-15 9-15 21c0 4 3 8 4 10 0 6-7 14-16 15v1c3 3 8 5 12 5 9 0 18-5 21-12 15-5 10-19 15-24 6-6 13-2 16-9l1 1c1 71 85 76 92 167l2 1c14-13 24-35 20-48 14 2 27 0 33-6l19 5v7c-8 8-11 14-10 22-6 2-12 11-12 20 0 25-20 39-47 39-24 0-41-24-56-15-14-3-28 5-31 17l2 1c5-5 13-5 18-1-2 3-2 7 1 10h-1c-14-3-29 6-32 20l4 3c8-7 21-7 28 0-11 6-16 25-10 33Z" />
  <path
    d="m1008.54 268c-3-4-9-9-13-12 9-16 18-42 23-56h-2l-7 12c-10 5-31 16-48 9v-1c32-22 65-61 78-89l2 1c-1 49 17 86 32 110l-1 1c-17-6-32-16-38-28v-12h-1c-3 13-13 46-25 65Zm-478-58c-3-26 85-94 196-145-19 19-27 41-23 67-48 14-117 37-147 57 24-36 109-80 153-108v-2c-54 29-139 75-162 115l-17 16Zm390 295c-16 9-30-3-32-14 5-2 12-8 15-14 8 5 16 19 17 28Zm1 29c-16 5-29-10-21-23 6 2 15 1 21-2l1 13-1 12Zm-4 26c-15 2-18-13-13-23 5 3 12 3 17 2l-2 15-2 6Zm66 86c-3-3-11-6-18-4-2-6 2-9 5-9 6 0 12 5 14 12l-1 1ZM435.54 142v-3c-5 0-10-3-10-6 0-5 21-11 34-15v-2l-8-4c10-3 24-9 27-14l-1-1c-7 5-26 12-37 15v1l9 4c-12 4-28 9-28 16 0 5 7 9 14 9Zm-93 9c8 0 16-5 17-15 8 2 20-1 25-6l-4-4c-13 13-43-7-60 9l1 1 6-1c0 9 7 16 15 16Zm460 440c-4-4-10-4-16-4v-1c5-5 17-8 25-3 0 4-3 7-9 8Zm-3 33c-8-8-20-9-26-6h-1c4-9 16-11 25-8 4 2 6 8 2 14Zm-12 27c0-7 3-19 11-21 4 2 7 5 7 12-6 0-15 4-18 9Zm-436-291h5c1-55 18-100 53-155h18l1-4c-14-15-12-24 4-33v-4h-22l5-10-2-1-11 15h23c-15 7-15 21-3 32h-16c-30 48-52 84-55 160Zm330 197c-6 0-12-1-19-3 12-5 17-12 17-22h-4c-2 22-32 25-43 13 6-3 12-9 14-14l-3-1c-13 21-48 17-54-5 7 1 18-3 25-9l-1-3c-34 22-50-4-43-28 9 5 24 4 35-1v-3c-11 5-24 4-32 1l8-9c21-1 39-12 45-27l10 2c-22 28-9 70 24 82 22-15 38-2 38 10 0 9-7 17-17 17Zm-158 89c-6 0-10-1-13-5 2-8-3-13-7-15 2-5 9-9 16-9 9 0 16 3 22 3l1-3c-8 0-15-4-23-4-4 0-8 1-13 4 1-4-2-9-4-10 2-5 7-6 11-6 9 0 13 5 29 5 36 0 46-17 61-17 4 0 10 1 13 2 4-15 24-16 28-1l-15 8 2 2c41-17 71-45 71-60 0-17-21-29-42-15-31-12-38-52-19-76 14-1 23-5 29-13l32 15c-9 6-15 12-15 25 0 34 82 28 87 72l-36-12h-2c-20 34-66 68-106 81 5 3 12 8 20 8 4 0 6-1 11-1 4 0 7 2 8 4-2 0-7 5-5 13 0 2-3 5-9 5-11 0-23-18-35-18-11 0-18 9-30 9s-13-6-22-6c-13 0-27 15-45 15Zm124-58c-1-4-6-10-11-12-1-8 3-20 14-20 7 0 26 6 34 5-11 10-25 21-37 27ZM188.54 214c-26-10-44-35-44-57 13 10 38 19 57 19v1l-20 10c17 8 35 18 58 18 37 0 64-26 97-26 13 0 26 4 32 12-9-5-18-8-27-8-30 0-66 31-99 31-19 0-46-9-61-19l8 18-1 1Zm497 430c-3-3-11-6-18-4-2-6 2-9 5-9 6 0 12 5 14 12l-1 1ZM227.54 284c-5 0-8-3-8-6 2-4 6-7 5-19h1c4 3 6 7 6 13 0 5-2 9-4 12Zm316 319c-15 0-19-6-30-6-4 0-9 2-11 4-1-2-2-5-1-7 8-1 13-8 12-15 18-9 22 18 60 18-3 2-18 6-30 6ZM191.54 257c-3 0-6-3-6-6 0-6-5-13-8-15l1-1c8 0 18 8 18 15 0 4-2 7-5 7Zm310 333c-4-4-8-4-14-4v-1c5-5 18-8 23-4 0 4-3 8-9 9Zm-113-93c-9 0-23-5-28-11-4-7-5-25 5-35 9 10 21 17 36 17l-5 12-8 17Zm432 152c-6 0-10-2-13-7 2-8-2-12-6-14 11-9 26-4 33-1l1-3c-4-2-17-7-30-3 1-6-2-12-4-13 17-11 29 7 48 9l1-2c-15-4-36-20-48-12-1-2-2-6 0-8 8-1 13-6 12-13 14-4 25 25 49 25 12 0 23-4 32-22-4-11 3-22 8-25 4 4 7 5 13 5l-6 15 3 2c6-11 14-31 14-60 0-22-7-44-27-52l-162-62-2 5 164 62c-6 13-24 17-41 9 5-3 9-7 11-12l-3-1c-10 18-44 16-64 1 8-5 15-11 17-17l-4-1c-15 23-52 23-84 0 12 0 25-7 29-16l-4-1c-22 23-70 7-88-10-8 16-26 18-41 14l1-8-4-1c-3 20-22 36-44 36l3-10-4-1c-5 24-24 37-44 31l3-10-4-1c-6 23-21 32-51 29l2-9h-4c-3 10-11 19-23 22-11-10-11-24-7-36 24 0 68-39 106-39l1-4c-50 0-74 39-119 39l-1 4h8c-13 38 31 34-4 73l-20-46-4-1c-19 45-64 57-76 102 7 2 14 7 22 7 4 0 6-1 11-1 6 0 11 2 12 5-2 0-7 5-5 13 0 2-4 6-12 6-12 0-23-19-40-19-11 0-12 10-24 10-4 0-15-4-20-4-13 0-30 17-48 17-6 0-10 0-13-4 2-8-3-13-7-15 2-5 9-9 16-9 9 0 16 3 22 3l1-3c-8 0-15-4-23-4-4 0-8 1-13 4 1-4-2-9-4-10 2-5 7-6 11-6 9 0 13 5 29 5 38 0 75-22 75-52 0-11 5-16 8-17 2 7 8 12 15 13l-15 20 2 2c44-50 74-116 69-147h-4c0 15-2 26-6 38-24 0-43-18-43-42h-5c0 10 3 19 8 26-12 12-12 33-6 41l-5 10c-27-3-42-26-35-49-12-11-16-33-5-50-14-21-10-46 1-59l2 5 3-2c-6-20 0-47 14-55l1 3 3-3c-1-14 5-30 14-37l1 3 2-1c0-8 4-22 11-26 4 5 7 5 12 6l1-2c-6-2-12-6-13-14l6-4v-1c-20 0-38 7-43 19l-10-8-9 26c-5-4-9-10-7-18-12-9-11-17-8-23 21 16 60-25 80-5l4-3c-3-21-23-40-42-40s-26 18-53 18c-18 0-25-10-25-22 4-3 7-7 7-11l-10 8h-47c17-13 36-18 55-18 9-8 19-7 26 2l3-1-2-5c8-6 14-4 21 4l2-2-4-7c7-11 17-17 32-17 29 0 33 7 69 2l1-3h-8c13-24 40-20 54-39v25c-29 9-52 22-54 32l2 1c12-22 75-30 89-48l1 1-14 33h14c-6 13-41 15-29 30-12 7-33 8-48 1l-2 2c10 7 28 9 42 4 7 22 28 15 34 30h-24c0 26 28 22 28 37h-32c0 24 26 22 26 36h-34c0 23 21 20 21 33-14 0-26 10-27 23-22-43 14-75 6-120l-4 2c3 61-36 68 1 137-11 10-30 35-38 56l3 2c14-34 61-80 77-80s21 18 40 18c17 0 27-15 27-27 0-10-8-18-14-25h6l1-2c-23-3-33-15-33-29 0-84 359-143 407-154v1l-147 36 1 4 145-36c-47 21-66 52-45 98-107-24-264-2-328 48l-8-1-2-3-8 8 1 2c3-2 7-3 11-3s9 1 11 3l1-1v-4c61-45 206-67 306-49v1h-79v4h80c-41 10-75 47-60 92-56-33-162-44-224-29l-11-11-3 3c6 3 11 10 12 17l2-1 1-4c71-15 169-2 223 29l-1 1-56-18-1 3 47 17c-44-2-72 32-57 79-26-35-90-72-152-85v5c59 12 124 49 152 84l-1 1-42-31-2 3 38 29c-33-9-60 6-74 34-9-34-42-78-75-98l-3 4c33 20 66 62 74 96h-1l-25-38-3 2 23 37c-23-19-67-24-87-9-6-33-40-56-79-51v4c37-5 70 18 75 53l3 2c25-21 67-10 90 7l10-5c19-34 53-41 80-32l6-7c-12-20-7-47 5-62 61 1 115 41 162 41 31 0 65-21 65-46 0-19-18-34-41-34-14 0-23 7-23 15 0 9 9 16 24 16 12 0 25-6 30-13 4 5 6 12 6 18-8 9-23 16-41 16-28 0-50-17-50-40 0-25 26-44 59-44 45 0 77 28 77 65 0 53-64 107-145 110-20-16-23-63-52-73l-2 2c25 15 31 61 51 76 40 30 96 21 112 70l-42-17-2 2c10 12 11 28 11 43 0 14-16 59-16 78 0 27 34 22 35 29-2 0-8 5-6 13 0 2-3 5-9 5-19 0-23-18-40-18-14 0-15 9-27 9-11 0-18-5-27-5-13 0-21 16-39 15ZM150.54 276c-8 0-6-14-17-17v-1c11-2 22 4 22 11 0 4-2 7-5 7Zm351 347c-8-8-21-7-27-4l-1-1c4-9 16-13 25-10 4 2 7 9 3 15Zm-214-175c4-9 4-20 0-26l12 2c0 9 3 19 8 24-6 1-12 1-20 0Zm86 75c-19 0-23-20-14-32 4 5 17 10 27 10l-13 22Zm117 127c0-7 3-19 11-21 4 2 7 5 7 12-6 0-15 4-18 9Zm-207-203c-11-2-25-8-31-13 6-4 11-13 11-20 24 0 26 23 20 33Zm-36-15c-6-6-14-13-16-16 4-3 10-12 10-19 23 4 19 28 6 35Zm32 110c-5-85-88-87-90-162l-8-3c-1 10-12 6-18 12s-3 18-11 23c0-6-6-10-13-8-2-3-3-6-3-8 0-9 10-11 14-18s8-20 23-21c-6-3-10-8-10-13 0-6 5-9 5-17 0-15-21-19-21-30 0-4 0-5 2-7-2-2-7-7-6-14 7 7 18 0 14-9 9 2 9 17 15 24s13 11 11 23h2c4-7 0-18-5-23-2-4 0-16 4-21-1-2-3-10 0-14 3 7 15 5 15-4 7 9 8 23 4 34h2c4-6 8-8 12-8 0 5 4 9 10 9 0 20-14 18-22 30-3-7-4-13-3-20l-3-1c-2 7-1 12 1 19l16 63c21 3 26 19 12 35l-10-17-4 1c18 35 51 58 96 56-5 14 3 32 17 42-5 4-19 7-34 4 5 14-2 31-12 41l-2 2Zm79 4c-16-2-20-21-7-31 2 6 12 12 20 12l-13 19Zm46 92c-3-3-11-6-18-4-2-6 2-9 5-9 6 0 12 5 14 12l-1 1ZM126.54 424v-1c6-2 14-11 14-17 3 0 8 2 8 7 0 7-11 14-22 11Zm132 178c-15 0-18-5-29-5-4 0-9 2-11 4-1-2-2-5-1-7 8-1 13-8 12-15 12-6 23 17 59 17-4 4-20 6-30 6Zm-41-12c-4-4-8-4-14-4v-1c5-5 18-8 23-4 0 4-3 8-9 9Zm0 33c-8-8-21-7-27-4l-1-1c4-9 16-13 25-10 4 2 7 9 3 15Zm-11 27c0-7 3-19 11-21 4 2 7 5 7 12-6 0-15 4-18 9Z"
    fill="#c40f38" />
  <path
    d="m937.54 304c-10 0-20-4-20-11 0-6 9-11 19-11 11 0 25 6 28 11-4 6-16 11-27 11ZM342.54 148c-6 0-11-5-11-11 0-3 3-3 6-3-2 3-2 10 5 10 5 0 7-3 7-6 0-1 0-2-1-3 6 1 6 3 6 4 0 6-6 9-12 9Zm24 37c-15-11-42-11-62-2l3-6 8 1 3-7 7 2 2-7c12-4 29 4 39 19Zm5 13c-8-5-24-6-36-3l-7-4-4 6-7-3c19-9 42-7 54 4Zm-59 4l-7-3 10-4-3 7Zm-22-14l3-6 8 2-11 4Zm10 19l-7-3 10-4-3 7Z"
    fill="#fff" />
</svg>