<svg xmlns="http://www.w3.org/2000/svg" width="1200" height="720">
  <path d="m0 0h1200v720H0V0Z" fill="#012169" />
  <path fill="#fff"
    d="m1200 68l-308 192h308v200h-308l308 192v68h-134l-366-234v234h-200v-234l-376 234H0v-68l308-192H0v-200h308L0 68V0h134l366 234V0h200v234S1076 0 1076 0h124v68Z" />
  <path fill="#bc2e33"
    d="m348 260L0 44V0l424 260h-76ZM660 0h-120v300H0v120h540v300h120v-300h540v-120h-540V0Zm540 0h-76l-424 260h76L1200 0ZM0 720h76l424-260h-76L0 720Zm776-260l424 260v-44l-348-216h-76Z" />
</svg>