<svg xmlns="http://www.w3.org/2000/svg" xmlns:xlink="http://www.w3.org/1999/xlink" width="1200" height="720">
  <path fill="#000" d="m0 0h1200v720H0Z" />
  <path fill="#012778" d="m0 0h1200v240H0Z" />

  <path fill="#0f7d3a"
    d="m975 581l3-9c-53-10-138-29-217-53l-3 5c76 23 161 43 217 57Zm-8 16l4-8c-60-14-145-37-215-61l-3 5c68 24 153 48 214 64Zm-11 17l4-8c-62-18-145-45-209-69l-3 5c61 23 141 52 208 72Zm-10 17l5-8c-68-24-146-53-205-77l-3 5c53 23 134 55 203 80Zm-10 16l5-8c-68-28-148-60-200-84l-3 5c51 24 132 60 198 87Zm-12 17l5-8c-62-29-142-67-193-92l-3 5c49 26 128 66 191 95ZM402 383l-17-5h12c1 2 3 3 5 5Zm5 17c-15-7-26-15-28-18h2c7 4 22 10 35 14l-9 4Zm2 17l-12-2 4-3c1 1 4 3 8 5Zm-21-5c-4-2-8-4-12-7 2 0 14 4 16 5-2 0-3 1-4 2Zm-30-18l-19-13c15 6 24 11 22 13h-3Zm-35-28c-26-27-53-52-82-76-1 2 2 8 10 19 10 14 21 24 42 39 16 10 29 19 30 18Zm47 44c-3-1-7-1-10-1l-18-10c4 0 8 1 12 2l7 3 9 6Zm-32-20c-5 1-14-8-19-6-2-2-10-7-12-9l11-2 5 2c6 7 10 11 15 15Zm-37-19c-2-1-3-2-4-3 3 0 3-1 1-2 4 2 9 3 14 5h-11Zm25 30c-2 0-7-2-16-7l12 2c3 2 5 4 4 5Zm72 101c0 4 2 3 6-5 4-6 10-13 14-16 5.33-3.33 5.67-5 1-5-4 0-10 4-14 10-4 5-7 12-7 16Zm-103-117c-4-2-7-4-10-6 3 0 10-1 13-2 2 3 5 5 7 7l-10 1Zm-13-7c-1-1-5-4-7-5 2 0 4-1 6-2s5-2 9-2l3 3c-4 1-9 4-11 6Zm97 134c7-35 9-40 38-50 6 2 12 3 18 4 1-2-3-4-8-7 6-2 12-4 18-7 0-3-16-2-28 2-5-2-10-3-15-4-17-3-28-2-37 4 0-2 0-4 1-7l35-7c8-1 14-3 12-5-3-3-25 0-45 6 3-5 8-11 15-16 3 0 7 0 11-1 9 5 43 5 40 1-1-2-5-3-9-4l-1-1c-5-2-9-5-12-9l-7-3c1-1 2-2 3-2 19 9 39 18 42 16s-2-5-18-11c-6-2-13-5-19-8 5-2 10-3 14-4 10 3 17 4 17 3s-7-7-10-8c-14-7-23-12-26-15h13c4 8 17 14 34 15 12 1 6-4-11-10-3-1-6-3-10-4h9c2 2 5 4 9 5 7 4 16 6 21 6s4-1-6-5c-5-2-10-4-15-7 6-1 4-3-7-4-11-9-31-43-33-57-1-4-2-7-4-7s-2 4-1 9c5 17 21 48 29 54l-12-1c-1-2-4-6-11-13l-22-26c-5-6-8-10-9-9-2 2 13 29 21 40 2 3 4 5 7 7-5-1-9-1-13-1 2-1-4-11-17-26-7-9-21-28-22-27s3 6 8 16c11 21 23 35 29 37-6 0-12 0-16 1-1-4-4-9-9-16-16-22-19-24-19-20s18 29 25 36c-1 0-3 1-5 1l-6-7c-16-17-40-49-48-64s-9-11-2 9c6 13 14 25 24 35 10 12 17 21 15 21-4 0-32-33-52-61-13-19-18-28-20-27-4 2 15 34 19 39 5 7 9 12 7 13s-18-17-37-41c-5-7-13-21-15-20s2 7 9 19c8 13 47 57 72 76 8 6 16 9 32 11 0 3 5 9 11 13 5 4 14 9 24 15-2 0-4 1-6 2-14-8-31-20-34-23-6-6-20-9-68-24-2-4-8-8-18-12 0-4-36-33-52-42-12.67-7.33-19.33-10-20-8l14 11c8 5 17 13 20 17 1 1 4 4 7 6-3-2-28-13-30-9-1 2 7 5 16 9 11 5 27 18 38 22-30-8-59-15-67-15-4 0-6 1-2 2 14 3 31 7 49 12-16-2-30 6-33 22-1.33 6-.33 7 3 3 14-18 15-18 33-19 8 0 12-1 13-2l18 6-19 5c-4-2-7-4-9-6-4-3-1 1 6 7l-8 3 10 1c1 1 2 1 3 1 5 4 12 8 20 13-34 4-40 7-39 20 0 4.67.67 4.67 2 0 3-12 8-15 27-15 5 0 13 1 21 2l30 15c-20 0-39 1-48 4-15 3-22 8-22 14 0 2 1 2 3-1 2-4 30-12 32-9 1 0 0 5-2 10s-3 10-2 11c1 2 3-1 4-5 4-14 16-18 46-16l10 1 9 3h-2c-6 1-19 4-29 8-22 8-26 11-26 16 0 2 2 2 6-1 3-3 14-7 24-10 10-2 22-6 26-8l6-3c4 1 6 2 9 2-7 7-11 13-13 19-28 8-37 14-37 24 0 9 3 18 4 18s0-15 4-21 14-11 28-15c0 3 0 7 1 10l-5 6-9 14 12-11 3-3c1 1 2 4 6 16l-2-19c11-8 22-9 41-3-27 11-28 21-27 53Z" />

  <g fill="#FCDD09">
    <path id="a"
      d="m612 163h9c7-21 16-36 25-36s8 17 2 25c44-8 49-67 14-67-25 0-47 33-50 78Zm-19 0h14c1-32 19-73 19-100 0-24-16-50-26-50s-26 26-26 50c0 27 18 68 19 100Zm-20 4v4h54v-4Zm6-4h9c-3-45-25-78-50-78-35 0-30 59 14 67-6-8-7-25 2-25s18 15 25 36Zm21 72c8 0 9-26 6-39 6 3 27 4 30 3-9-6-17-14-21-24h-29c-5 10-13 18-22 24 4 1 21 0 30-3-3 13-2 39 6 39Z" />
    <use xlink:href="#a" x="-364" />
    <use xlink:href="#a" x="364" />

    <g id="d">
      <g id="c">
        <path id="b"
          d="m619 638l-2-317c-22-15-31-44-21-69-16 20-21 46-14 70l2 317c22 15 31 44 21 69 16-20 21-46 14-70Z" />
        <use xlink:href="#b" transform="rotate(12 600 480)" />
        <use xlink:href="#b" transform="rotate(24 600 480)" />
      </g>
      <use xlink:href="#c" transform="rotate(36 600 480)" />
    </g>
    <use xlink:href="#d" transform="rotate(72 600 480)" />
    <use xlink:href="#d" transform="rotate(108 600 480)" />
  </g>
</svg>