<svg xmlns="http://www.w3.org/2000/svg" xmlns:xlink="http://www.w3.org/1999/xlink" width="1200" height="720">
  <path fill="#d63a27" d="M0 0h1200v720H0z" />
  <path fill="#ffffff" d="m0 0h1200v480H0Z" />
  <path fill="#009900" d="m0 0h1200v240H0Z" />
  <path fill="#274F99" d="m0 0v720l284-360Z" />

  <g id="b">
    <path fill="#000"
      d="M601 434h-2c-3-21-58 7-58-36v-106h60ZM518 423c-1 6-7 9-7 14c0 16 49 21 68 17v-1c-22 4-67-2-67-16c0-4 6-7 7-14c2 7 18 12 37 12c17 0 31-2 31 2c0 3-7 3-7 7c0 5-2 11-2 16s11 7 22 7l1-1c-11 0-22-2-22-6c0-5 2-10 2-16c2 4 11 5 19 5l1-1c-10 0-19-2-19-5c0-2 4-2 6-5l1 10h1l-1-10c-1-7-13-4-33-4c-21 0-36-6-36-13c0-4 6-6 12-6l-6 14l1 1l6-14c4-8-13-10-18-19l-1 1c6 14-7 22 3 29l1-1c-9-6 1-11-2-26c4 6 16 9 16 13c0 2-12-2-14 10Z" />
    <g id="a" transform="rotate(5 600 440)">
      <path fill="#000" d="m589 262l11 18 11-18Zm0 12h22l-11-18Z" />
      <path fill="#ff0" d="m591 263h18l-9 15Zm0 10l9-15 9 15Z" />
    </g>

    <use xlink:href="#a" transform="rotate(10 600 440)" />
    <use xlink:href="#a" transform="rotate(20 600 440)" />
  </g>
  <use xlink:href="#b" transform="matrix(-1 0 0 1 1200 0)" />

  <path fill="#d3d3d3" d="M600 431c-5-18-57 6-57-32v-105h114v105c0 38-52 14-57 32Z" />

  <path fill="#000"
    d="M535.3 447l2.6-8.5l-1.8-0.5l-1.6 5.4l-3-6.7l-1.3-0.5l-2.8 8.4l1.8 0.6l1.9-5.3l2.8 6.7ZM520.6 441.8c1.9 1.1 4 0.4 5-1.6l2.3-4.7l-1.7-0.9l-2.4 5c-0.4 0.9-1.4 1.3-2.3 0.8s-1.2-1.5-0.8-2.3l2.4-4.9l-1.7-0.9l-2.3 4.8c-0.8 1.8-0.3 3.8 1.5 4.7ZM541 448l1.5-8.8l-1.9-0.3l-1.5 8.8ZM548.4 448.9c5.5 0.5 6.5-8.5 0.5-9.1l-3.3-0.3l-1.1 9ZM548.4 447.3l-1.8-0.2l0.6-5.7l2 0.2c2.9 0.4 2.4 6-0.8 5.7ZM554.5 449.4h2l0.9-1.9h4l0.8 1.9h2l-4.2-9h-1.4ZM557.9 445.9l1.4-3.2l1.5 3.2ZM566.7 449.4l3.9-0.1c5.5-0.3 5.1-9.4-0.9-9l-3.3 0.2ZM568.5 447.8l-0.2-5.7l1.9-0.1c2.9-0.1 3.4 5.5 0.2 5.7ZM587.2 461l0.5-3.2l1.8 0.3c3.8 0.6 4.8-5.3 1.1-5.8l-3.9-0.6l-1.4 9ZM589.8 456.5l-1.9-0.3l0.4-2.6l1.8 0.3c1.7 0.2 1.3 2.8-0.3 2.6ZM596.8 462.3l0.9-2h3.8l0.9 2l2-0.2l-4.1-8.9h-1.4l-4.1 8.9ZM598.2 458.7l1.4-3.1l1.4 3.1ZM608.1 461.6l6.8-1.1l-0.3-1.7l-4 0.7l2.8-7.8l-6.5 1l0.3 1.6l3.7-0.5ZM622.8 448.6c2.3 0.9 4.7 0.4 5-2l0.7-6.6l-1.8-0.1l-0.6 6.1c0 1.7-2.1 1.4-3.1 0.8ZM638.2 446.3l0.3-5.8l-1.9-0.1l-0.3 5.8c-0.1 2.3-3.6 2.2-3.4-0.1l0.4-5.8l-1.9-0.1l-0.4 5.7c-0.3 4.7 6.9 4.9 7.2 0.4ZM640.7 448.7c2.7 1.4 5.9 1.1 5.9-1.8s-4.5-2.6-4.5-4c0-1.2 2.4-0.8 3.5-0.1v-1.8c-2-1.3-5.3-0.5-5.3 1.7c0 3.1 4.5 2.8 4.5 4.2c0 1.2-2 1.1-4.2-0.1ZM650.8 449l1.8-0.2l-0.7-7.3l2.5-0.3l-0.2-1.7l-6.9 0.8l0.2 1.7l2.6-0.3ZM657.8 448.3l1.8-0.3l-1.6-9l-1.8 0.3ZM669.2 444.8l-0.6-2c-0.8 1.8-4.9 2.9-5.8 0s2.6-4.5 4.9-3.2l-0.5-1.9c-3.9-1.3-7.3 2.2-6.1 5.7s5.6 4.1 8.1 1.4ZM672.4 444.7l1.7-0.7l-2.9-8.4l-1.7 0.7ZM676.4 443.2l1.7-1l-0.2-2l3.2-2l1.6 1.1l1.6-1l-7.7-5.5l-1.2 0.7ZM677.6 438.5l-0.4-3.2l2.7 1.8Z" />

  <path fill="#355e1c"
    d="M584 350c5 5 12 4 16-3c6 8 15 8 16 4c4 3 11-1 8-6v-2c1 3 8 4 10 1c5 2 12 0 12-4c6-3 6-13-1-15c0-5-4-7-9-5h-1c2-3-1-8-4-7c-3-5-8-3-9-1c-2-1-4 1-5 2c-1-3-4-5-7-5c1-8-10-13-16-7c-4-1-8 2-7 6c-2 0-5 2-5 3c-1 0-2 0-3 1c-2-3-7-3-9 1c-3 0-6 2-6 5c-4 1-5 5-3 7c-2 2-1 6 2 7c-4 0-7 3-6 7c-4 1-4 8 1 9c1 3 8 4 10 0c2 2 4 2 7 1c3 3 7 2 9 1Z" />
  <path fill="#4c4322"
    d="M614 341l-6-4l-3 2v-5h-8l1 6l-8-6v6c5 13 6 40 3 52c-2 8-9 14-10 18s4 6 7 3c1 2 4 3 6 1c1 3 7 3 8 0c2 2 5 1 6-1c3 3 8 1 7-3s-7-7-9-15c-4-16-8-46 6-54Z" />

  <path fill="#090"
    d="M580 342c1-1 0-4-3-2c0-4-4-4-6 0c3-3 5-2 5 1c2-1 4 0 4 1ZM563 325c-2-2-1-6 2-6c0-3 3-5 6-4c0-5 6-5 7-1c-1 1-1 3 0 4c-4-1-6 3-5 5c-4 1-5 5-4 7c-5 4-9-2-6-5ZM591 330c1-2 3-3 5-3c-2-2-4-1-5 1c-2-4-5-5-9-4c4 0 7 2 9 6ZM559 346c-4 1-5-5-1-6c0-5 3-8 8-7c3-3 6-2 8 1c0-2-2-4-4-4c-1-3 1-6 4-6c-1-3 1-6 5-5c-3-6 5-10 8-3c3-3 7-1 6 3c3-4-2-8-6-5c0-1-2-3-3-3c1-1 2-1 4-1c-1-4 2-7 6-6c5-6 15-2 15 6c-2 0-5 2-5 4c-2-1-6 0-6 2c2-1 5-1 7 0c3-10 16-2 9 5c3-1 4-4 3-6c1-1 3-2 5-1c1-2 6-4 8 1c3-1 6 2 4 5c-2-1-5 0-5 2c2-2 6-1 7 0c5-2 8 0 8 5c6 1 5 9 2 11c-1-1-3-2-5-1c0-2-1-3-3-3v1c2 1 2 2 2 4c8-4 5 7-5 4c2-3 1-5-1-5c2 3-1 6-5 6s-7-4-7-7c-5 6-15 0-12-7c-2 1-2 4-2 5c-4 2-9 2-12-1c0 2-2 4-5 3c1 4-2 7-6 6l-1 1c2 5-5 8-9 3c-3 1-6 1-8-2c0 5-7 5-8 1ZM628 333c1-3 3-3 5-2c-1-2-4-2-5 0c-1-2-4-4-8-1c4-1 6 0 8 3Z" />

  <path fill="#b3823c"
    d="M597 413c2-4 2-6 0-6c2 7-5 8-5 5c2-4 4-10 2-10c-2 14-10 12-9 8c1-3 7-8 9-16c2-7 2-14 2-24c0-15-1-24-4-28v-4c6 3 7 5 6 17c2 0 2-10 1-17h4c0 3-3 14-1 14c1-7 3-12 7-14l3 2c-9 6-9 15-9 30c0 8 1 16 3 24s8 13 9 16c1 4-7 6-9-8c-2 0 0 6 2 10c0 3-7 2-5-5c-2 0-2 2 0 6c-1 2-5 2-6 0Z" />
</svg>