<svg xmlns="http://www.w3.org/2000/svg" xmlns:xlink="http://www.w3.org/1999/xlink" width="1200" height="720"
  fill="#ee1c25">
  <path d="M0 0h1200v720H0z" />
  <g id="a">
    <path fill="#fff"
      d="M653 139c-25 9-33 32-19 53c19 30 10 66-22 82c-34 17-41 54-17 83c-38-29-46-81-20-118l-4-2c-28 39-18 93 21 123c-124-57-73-238 61-221Z" />
    <path d="M602 210l-34 16l37 8l-25-29l3 38" />
  </g>
  <g id="b">
    <use xlink:href="#a" transform="rotate(72 600 360)" />
    <use xlink:href="#a" transform="rotate(216 600 360)" />
  </g>
  <use xlink:href="#b" transform="rotate(72 600 360)" />
</svg>