<svg xmlns="http://www.w3.org/2000/svg" xmlns:xlink="http://www.w3.org/1999/xlink" width="1200" height="720"
  fill="#ee1c25">
  <path d="M0 0h1200v720H0z" />
  <g id="a">
    <path fill="#fff"
      d="M827 342q-28-28-57-2c-25 25-60 30-85 5s-65-22-85 9c16-45 65-69 107-56l1-3a92 92 0 0 0-110 57c15-135 203-143 229-10" />
    <path d="m743 316-25-28 3 38 20-33-35 15" />
  </g>
  <g id="b">
    <use xlink:href="#a" transform="rotate(72 600 360)" />
    <use xlink:href="#a" transform="rotate(216 600 360)" />
  </g>
  <use xlink:href="#b" transform="rotate(72 600 360)" />
</svg>