<svg xmlns="http://www.w3.org/2000/svg" xmlns:xlink="http://www.w3.org/1999/xlink" width="1200" height="720">

  <path fill="#032ea1" d="M0 0h1200v720H0Z" />
  <path fill="#e00025" d="M0 180h1200v360H0Z" />

  <path id="a" fill="#5f0202"
    d="M364 512h240v-300l-2-4c-6-1-7 4-8 8h-4v4h-4v5h-4l2 6h-3l2 8l-4-2c-1 3-1 6 2 10l-4-4c-4 4-4 8-3 10c-5 5-5 9-5 14c-8 8-4 15-1 20c-5 9-3 12 0 14l-2 2c-3-3-6-4-9-4v13c6-2 8 6 1 8v-4l-8-11v30h-42v-3h-8v3h-6v-27l-3-1c-4 6-6 6-6 4c0-3 7-6-1-13c1-4 1-7-3-11c1-2 1-4-2-8l-2 1c0-5-1-11-8-14c-1-7-9-7-10 0c-7 3-8 9-8 14l-2-1c-3 4-3 6-2 8c-4 4-4 7-3 11c-8 7-1 10-1 13c0 2-2 2-6-4l-3 1v15h-5v-4h-8v10c-2-1-4-1-7-1v37c3 1 7 4 7 9v37l-7 7h-8v11h-7v15h-11v19h-12v23h-12Z" />

  <use xlink:href="#a" transform="matrix(-1 0 0 1 1200 0)" />

  <path id="b" fill="#fff"
    d="M437 360h8v-8c2 0 5 1 6 2l1-2c-7-5-8-11-7-19h2c-2-2-2-5-2-15c4 0 7 2 9 5l1-3c-4-4-5-11-5-16c2 0 4 1 5 2c-3-3-3-7-2-11l5 3c-3-4-3-7-2-11l4 2c-3-2-5-7-4-10l4 2c1-2 2-4 4-5c2 1 3 3 4 5l4-2c1 3-1 8-4 10l4-2c1 4 1 7-2 11l5-3c1 4 1 8-2 11c1-1 3-2 5-2c0 5-1 12-5 16l1 3c2-3 5-5 9-5c0 10 0 13-2 15h2c1 8 0 14-7 19l1 2c1-1 4-2 6-2v8h8v-49c-2 6-9 6-9 2c0-5 5-6 3-11c-2 4-6 4-6 1s4-7 2-10c-1 3-5 3-5 0s4-7 2-10c-1 3-4 3-4 0c0-6 0-12-8-15c0-6-4-6-4 0c-8 3-8 9-8 15c0 3-3 3-4 0c-2 3 2 7 2 10s-4 3-5 0c-2 3 2 7 2 10s-4 3-6-1c-2 5 3 6 3 11c0 4-7 4-9-2ZM367 509h82v-20h-82ZM379 487h70v-21h-70ZM457 509h14v-9h-14ZM391 464h58v-17h-58ZM457 498h14v-10h-14ZM457 486h14v-9h-14ZM402 445h47v-13h-47ZM451 509h4v-88h-4ZM457 475h14v-9h-14ZM409 430h40v-9h-40ZM457 464h14v-9h-14ZM417 419h3c3-1 6-4 6-7h-2ZM473 509h5v-88h-5ZM457 453h14v-10h-14ZM423 419h14c3-1 6-4 6-7h-15c0 3-2 6-5 7ZM457 441h14v-9h-14ZM440 419h4c3-1 6-4 6-7h-5c0 3-3 6-5 7ZM480 509h104v-20h-104ZM447 419h8v-7h-3c0 3-3 6-5 7ZM457 430h14v-9h-14ZM428 410h4v-30h8v30h3v-41l-6-6h-12l3 2ZM434 410h4v-28h-4ZM457 419h14v-7h-14ZM424 410h2v-44l-4-3v-28c0-2-2-4-5-4v33c3 1 7 5 7 10ZM480 487h104v-21h-104ZM445 410h5v-40l-3-3h-2v-5h-6l6 6ZM473 419h8c-3-1-5-4-5-7h-3ZM452 410h3v-43h-5l2 2ZM484 419h4c-3-1-5-4-5-7h-5c0 3 3 6 6 7ZM424 361h11c0-6-6-9-11-12ZM457 410h14v-43h-14ZM480 464h104v-17h-104ZM491 419h14c-3-1-5-4-5-7h-15c0 3 3 6 6 7ZM473 410h3v-41l2-2h-5ZM435 355v-23h-7v17c3 2 6 4 7 6ZM426 348v-26h-2v25ZM593 509h8v-9h-8ZM480 445h104v-13h-104ZM478 410h5v-42l6-6h-6v5h-2l-3 3ZM428 330h7v-4h-7ZM593 498h8v-10h-8ZM480 430h104v-9h-104ZM485 410h3v-30h8v30h4v-45l2-2h-11l-6 6ZM490 410h4v-28h-4ZM447 365h34v-10c-3 0-7 4-8 7h-2c0-6-2-11-7-14c-5 3-7 8-7 14h-2c-1-3-5-7-8-7ZM502 410h3v-28h-3ZM508 419h43c4-1 5-5 5-7h-54c0 3 3 6 6 7ZM455 358c1-5 5-11 9-12c4 1 8 7 9 12l2-2c-1-5-6-12-11-15c-5 3-10 10-11 15ZM593 486h8v-9h-8ZM514 410h4v-28h-4ZM586 509h5v-88h-5ZM453 350c2-4 5-8 11-12c6 4 9 8 11 12c5-4 7-7 6-15c-3 1-6 4-8 8c-1-10-5-14-9-16c-4 2-8 6-9 16c-2-4-5-7-8-8c-1 8 1 11 6 15ZM593 475h8v-9h-8ZM507 410h5v-30h8v30h5v-30h8v30h5v-30h8v30h5v-30h5v-4h-54v4h5ZM527 410h4v-28h-4ZM593 464h8v-9h-8ZM454 338c1-5 4-10 10-13c6 3 9 8 10 13c2-3 7-6 7-11v-7c-3 1-6 4-8 8c-1-6-4-14-9-17c-5 3-8 11-9 17c-2-4-5-7-8-8v7c0 5 5 8 7 11ZM493 361h12v-12c-5 3-12 6-12 12ZM540 410h4v-28h-4ZM554 419h13c1 0 7-5 7-7h-16c0 2-1 6-4 7ZM593 453h8v-10h-8ZM493 355c1-2 5-4 8-6v-11h-8ZM456 318c1-2 4-7 8-9c4 2 7 7 8 9c3-3 4-7 4-12c-2 1-4 2-6 4c0-3-2-7-6-9c-4 2-6 6-6 9c-2-2-4-3-6-4c0 5 1 9 4 12ZM553 410h3v-28h-3ZM502 374h54v-7h-54ZM593 441h8v-9h-8ZM503 348l2-1v-12h-2ZM570 419h10c3-1 6-5 6-7h-10c0 2-5 7-6 7ZM457 306c1-3 4-6 7-7c3 1 6 4 7 7c3-2 4-6 3-9l-5 3c0-2-2-6-5-7c-3 1-5 5-5 7c-2-1-4-2-5-3c-1 3 0 7 3 9ZM503 365h52l-2-2h-48ZM507 361h44v-6h-44ZM593 430h8v-9h-8ZM583 419h8v-7h-3c0 2-2 6-5 7ZM459 296c1-2 3-4 5-5c2 1 4 3 5 5c1-1 3-3 2-7l-4 2c0-1-1-4-3-5c-2 1-3 4-3 5l-4-2c-1 4 1 6 2 7ZM571 410h3v-28h-3ZM507 353h44v-3h-44ZM558 410h11v-30h5v-17h-18l2 2ZM461 288c1-4 5-4 6 0c2-2 4-3 4-7l-4 2c0-1-1-4-3-5c-2 1-3 4-3 5l-4-2c0 4 2 5 4 7ZM593 419h8v-7h-8ZM507 348h44v-5h-44ZM507 341h44v-3h-44ZM576 410h10v-40l-3-3h-1v-9h-11c2 0 3 1 4 3v1h1ZM588 410h3v-43h-5l2 2ZM593 410h8v-43h-8ZM557 356h25v-3c-3-2-13-5-19-5h-6ZM553 361h19c-1-1-2-2-4-3h-13v-41l-2-4ZM557 346h3v-23h-3ZM582 351v-3h-9c5 1 7 2 9 3ZM569 346h10v-2c-2-5-7-10-10-11ZM584 365h17v-23l-1-2c-5 4-9 10-10 21h-1c-1-3-3-6-5-7ZM589 357c0-3 1-6 2-9h-7v4c2 1 4 3 5 5ZM562 346h5v-34c0-7-5-10-7-10v7c6 1 8 9 2 13ZM579 341v-7l4 2c0-5-1-10-4-14h-2v-5h-5c0-8 0-12-3-13v27c4 1 10 8 10 10ZM587 340c1-7 2-13 5-18h-11c3 4 4 10 4 16ZM581 346h11c2-3 5-6 8-8h1v-21l-1-2c-5 3-11 14-11 28h-2c-1-2-3-4-6-6ZM574 315h3v-8c4 1 7 3 9 6l2-4l-4-8h-3v-6h-6c-2 0-5 0-6-3c-4 8 5 8 5 14ZM579 320h14c1-2 4-5 7-7h1v-13l-1-2c-6 2-11 12-13 18h-1c-2-3-4-5-7-6ZM589 307c1-2 2-4 4-6h-7ZM575 293h6v-4c3 0 7 2 8 4c0-1 1-3 2-4l-3-5h-6v-5h-7c-3 0-5-3-6-6c-5 8 6 13 6 20ZM583 299h12c1-1 3-2 5-3h1v-13l-1-2c-4 2-9 9-10 15h-1c-1-2-3-4-6-5ZM592 287l2-3h-4ZM576 277h6v-5c4 0 7 2 8 4l2-5c-2-2-5-3-5-7h-7c-4 0-5-3-6-6c-5 7 5 13 2 19ZM584 282h12l4-3h1v-13l-1-2c-5 3-8 10-9 14h-1c-1-1-3-4-6-4ZM580 262h7v-5c3 0 6 1 7 3l1-3l-6-4h-6c-2 0-4-2-5-4c-4 6 4 7 2 13ZM593 269c1-2 5-6 7-7h1v-8l-1-2c-2 2-4 6-5 11h-1c-1-3-3-4-5-4c0 6 0 8 4 10ZM584 251h4v-4c3-2 6 0 7 2v-2l-3-3v-1h-7c-1 0-2 0-4-2c0 1 0 3 1 4c2 2 3 4 2 6ZM596 256c1-2 2-4 4-6h1v-6l-1-1c-3 2-4 6-4 8h-2c0-2-2-3-4-3v4ZM587 241h5v-4c1 0 4 1 5 2l4-4v-1h-16ZM596 246l4-5h1v-2l-1-1c-1 1-2 2-2 4h-1c0-1-1-2-3-3v5ZM587 232h14v-4h-15ZM589 226h12v-3h-12ZM593 221h8v-2h-8ZM597 217h4v-4l-1-2c-3 0-3 4-3 6Z">
  </path>

  <use xlink:href="#b" transform="matrix(-1 0 0 1 1200 0)" />

</svg>