<svg xmlns="http://www.w3.org/2000/svg" width="1200" height="720">
  <path fill="#fff" d="m0 0h1200v720H0Z" />
  <path fill="#000"
    d="m915 567-45 69 25 16 45-68Zm-593-25-25 17 46 68 25-16Zm556 0-46 69 25 16 46-68Zm-38-25-45 69 25 16 45-68Zm-609-31-25 16 99 150 25-16Zm738 0-45 68 25 17 45-69Zm-701-25-25 16 46 69 25-17Zm664 0-46 68 25 17 46-69Zm-627-25-25 17 100 149 25-16Zm590 0-46 69 25 16 46-68Zm-21-237-25 16 46 69 25-17Zm75-50-25 17 45 68 25-16Zm-569-31L280 267l25 17 100-150Zm440 0-25 16 45 69 25-17ZM343 93 243 243l25 16 100-150Zm514 0-25 16 100 150 25-16Zm-527-9-25-16-99 150 25 16Zm610 52-45-68-25 16 45 69Z" />
  <circle fill="#cd2e3a" cx="600" cy="360" r="180" />
  <path fill="#0047a0" d="M449 262a1 1 0 0 0 151 98 1 1 0 0 1 151 98 1 1 0 1 1-302-196" />
</svg>