<svg xmlns="http://www.w3.org/2000/svg" width="1200" height="720">
  <path fill="#ed1c24" d="m0 0h1200v720H0Z" />
  <path fill="#fff" d="m0 180h1200v360H0Z" />
  <path fill="#00a651"
    d="m592 180c-3 0-6 12-17 23-10 10-23 19-23 22 0 4 10-1 10 5 0 8-33 16-33 24 0 7 13-1 13 8 0 4-4 7-7 7-8 0-13 5-17 13-5 10-16 10-26 16-5 3-7 6-14 10-5 3-2 10 5 10 5 0 11-4 18-4s10 4 10 9c0 8-6 17-14 22-7 5-25 9-31 17-7 9-18 13-18 20 0 3 3 6 8 6 11 0 18-14 27-14 6 0 10 6 10 11 0 12-30 22-46 38-10 10-23 12-23 18 0 3 3 5 8 5 19 0 54-24 65-24 4 0 9 3 9 8 0 17-66 23-66 35 0 4 6 6 14 6 27 0 66-26 81-26 10 0 18 11 18 22 0 16-18 37-30 46-17 13-37 12-37 20 0 3 3 5 6 5 6 0 6-11 22-11 31 0 37-24 53-24 5 0 9 3 12 3s8-2 11-2c8 0 22 25 31 25 8 0-5-11 12-11 25 0 32 22 41 22 6 0 4-9-4-14-25-16-35-31-35-57 0-8 1-30 13-30 7 0 16 11 52 11 43 0 49 14 58 20s18 6 18 0c0-18-65-39-65-53 0-5 7-9 13-9 11 0 21 11 30 11 4 0 6-2 6-5 0-8-15-13-29-27-13-13-36-11-36-20 0-4 4-6 12-6 7 0 15 2 30 2 4 0 7-3 7-6 0-11-50-9-50-21 0-4 4-5 7-5 5 0 16 5 24 5 4 0 7-2 7-4 0-3-2-5-8-7-28-9-44-35-60-43-4-2-11-3-11-9 0-4 3-6 6-6 6 0 22 9 30 9 3 0 6-1 6-3 0-4-30-14-30-23 0-5 8-1 12-1 2 0 3-2 3-4 0-9-41-26-53-29-20-5-29-36-35-36Zm-39 68c6 0 5 11-1 11s-5-11 1-11Zm60 6c5 0 6 11 0 11s-8-11 0-11Zm-18 2c6 0 5 8 1 11s-10 4-13 4c-12 0 0-15 12-15Zm39 0c7 0 5 12-1 12-10 0-10-12 1-12Zm-66 12c10 0-6 19-14 19-12 0 4-19 14-19Zm47 23c10 0 7 14-1 14-6 0-5-14 1-14Zm-20 1c10 0 7 11-2 11-6 0-4-11 2-11Zm49 6c11 0 13 16-1 16-15 0-18-16 1-16Zm-98 2c15 0 6 13-2 13-10 0-9-13 2-13Zm-25 4c9 0 19 18 5 18-11 0-20-18-5-18Zm139 30c0-10 16-9 16 1 0 9-16 7-16-1Zm-76 5c6 0 5 9-1 9-5 0-3-9 1-9Zm-28 8c0-6 8-5 8 2s-8 3-8-2Zm39 9c-1-16 15-11 15 2 0 8-15 7-15-2Zm22-2c5 0 4 8 0 8-3 0-5-8 0-8Zm-113 12c9-3 27-7 27 4 0 7-15 12-23 12-13 0-13-13-4-16Zm149 30c0-10 26-16 26-4 0 10-26 14-26 4Zm35 12c-6-9 22-27 22-7 0 10-18 13-22 7Zm-146-6c12 0 16 20 6 20-6 0-12-20-6-20Zm45 12c0-13 12-14 12-1 0 7-12 9-12 1Zm-22-3c0-11 10 2 10 7 0 8-10 1-10-7Z" />
</svg>