<svg xmlns="http://www.w3.org/2000/svg" xmlns:xlink="http://www.w3.org/1999/xlink" width="1200" height="720">
  <path fill="#002b7f" d="M0 0h1200v720H0z" />
  <path fill="#ce1126" d="m0 360h1200v360Z" />
  <path
    d="m267 278c44 0 85-6 93-14 8-11 21-53 33-61v-4l-9-6c3-3 4-8 1-12 5-3 6-9 1-14 5-5 4-13-3-15 4-6 1-12-5-13 1-7-4-12-11-11-1-6-7-9-14-7-2-6-9-7-14-3-4-5-10-5-14 0-4-4-11-3-14 2-5-3-12-2-14 3-4-3-11-1-13 4l-3-2c4-7 2-17-5-21v-3l-4-8 7 4h2l11-8v-2l-11-8h-2l-7 4 4-7v-2l-8-13h-2l-8 13v2l4 7-7-4h-2l-11 8v2l11 8h2l7-4-4 8v3c-7 4-9 14-5 21l-3 2c-2-5-9-7-13-4-2-5-9-6-14-3-3-5-10-6-14-2-4-5-10-5-14 0-5-4-12-3-14 3-7-2-13 1-14 7-7-1-12 4-11 11-6 1-9 7-5 13-7 2-8 10-3 15-5 5-4 11 1 14-3 4-2 9 1 12l-9 6v4c12 8 25 50 33 61 8 8 49 14 93 14Z" />
  <g fill="#ffd83d">

    <path id="a"
      d="m254 93l7-4v-2l-7-4-7 5 7 5Zm2 20l7-1v-6c-4 1-6 4-7 7Zm-1 26c6 0 6-9 0-9s-6 9 0 9Zm-13-4c6 0 6-9 0-9s-6 9 0 9Zm-13-3c6 0 6-9 0-9s-6 9 0 9Zm20 54l8-4c3-11 3-24 3-40h-6c0 16 0 28-5 44Zm-34-56c6 0 6-9 0-9s-6 9 0 9Zm-13-2c6 0 6-9 0-9s-6 9 0 9Zm44 50c2-2 4-5 4-8s-2-6-4-8v16Zm-8 7l5-4v-22l-5-4v30Zm-49-56c6 0 6-9 0-9s-6 9 0 9Zm41 58h5v-35l-5-3v38Zm-3 0v-39l-5-2v39l5 2Zm-8-3v-39l-5-1v38l5 2Zm-43-50c6 0 6-9 0-9s-6 9 0 9Zm30 48h5v-39l-5-1v40Zm-29 13c-4-10-7-17-7-29 0-17 12-28 31-28 17 0 29 5 50 10v-5c-17-6-37-11-51-11-19 0-38 12-38 33 0 10 2 18 5 27 4 0 8 2 10 3Zm21-11l5-2v-40h-5v42Zm-33-43c6 0 6-9 0-9s-6 9 0 9Zm25 50l5-5v-44l-5 2v47Zm-8 3h5v-49l-5 3v46Zm-24-42c6 0 6-9 0-9s-6 9 0 9Zm21 42v-44c-3 3-5 9-5 15 0 10 1 18 5 27v2Zm-25-29c6 0 6-9 0-9s-6 9 0 9Zm0 13c6 0 6-9 0-9s-6 9 0 9Zm3 13c6 0 6-9 0-9s-6 9 0 9Zm19 68c18-5 58-9 91-9h1v-64l-1-1c-15 0-27 11-27 25h-2c-5-14-18-24-30-24s-19 12-18 28h-2c-6-20-24-25-42-13 4 3 12 18 19 33l11 25Z" />
    <use xlink:href="#a" transform="scale(-1 1) translate(-534)" />
    <path
      d="m266 82h2l4-7-5-9-5 9 4 7Zm-3 6c0 5 8 5 8 0s-8-5-8 0Zm0 16h8l1-2-4-8h-2l-4 8 1 2Zm-7 15l11-1 11 1v-4l-9-1v-8h-4v8l-9 1v4Zm11 10c5 0 10-4 11-8l-11-1-11 1c1 4 6 8 11 8Zm0 13c6 0 6-9 0-9s-6 9 0 9Zm0 13c6 0 6-9 0-9s-6 9 0 9Zm0 13c6 0 6-9 0-9s-6 9 0 9Zm0 13c6 0 6-9 0-9s-6 9 0 9Z" />
  </g>

  <path id="b" fill="#000"
    d="m264 195l-3-4 1-2 3 1v5h-1Zm-6 3l-4-4 1-2h2l2 5-1 1Zm10 39h-2c0-15-6-21-12-28l1-2c7 5 10 7 11-7h2v37Zm-15-35l-5-3 1-2h2l3 4-1 1Zm-3 5l-4-1-1-2 2-1 4 3-1 1Zm-27-4l1-4h2l1 2-3 3-1-1Zm-4-2l-1-1v-5l1-1 2 2-2 5Zm-6-3l-1-5 1-1 2 1-1 6-1-1Zm-5 1l-3-5 1-2 2 1 1 5-1 1Zm-5 3l-4-4 1-2h2l2 5-1 1Zm17 34c-2-8-8-15-15-21l1-1c7 6 6-1 4-10l2-1c3 9 7 14 10 8l1 1c-3 5-3 13-1 23l-2 1Zm-20-30l-4-2v-2l1-1 4 4-1 1Zm0 6h-4l-1-1 1-2 4 2v1Zm-23 0l2-4h2v3l-3 2-1-1Zm-6-3v-6h2l1 2-2 5-1-1Zm-6 0l-2-5 1-2 2 1v5l-1 1Zm-5 2l-5-4 1-2h2l3 5-1 1Zm26 30l-2 1c-3-8-11-14-18-18l1-1c8 4 8 1 3-7l2-1c5 8 8 10 11 4l1 1c-2 7-3 11 2 21Z" />
  <use xlink:href="#b" transform="scale(-1 1) translate(-534)" />
</svg>