<svg xmlns="http://www.w3.org/2000/svg" xmlns:xlink="http://www.w3.org/1999/xlink" width="1200" height="720"
  fill="#ffd200">
  <path fill="#cc092f" d="m0 0h1200v720H0Z" />
  <path d="m0 0h800v720H0Z" />
  <path fill="#0046ae" d="m0 0h400v720H0Z" />

  <path id="a" fill="#000"
    d="M600 531l3-7v-297h-21c0 14-3 26-12 32c-18-1-21-10-39-10c-1-7 0-16 2-22c-11-4-19-12-26-20c-16 10-28 27-28 42v197c0 20-2 26-3 28c6-3 16-13 19-19l2 5c14-15 28-32 35-61c2 3 7 8 14 11c-2 4-5 8-8 10l5 2c-4 5-10 14-12 18s-4 2-8 2c-12 0-16 14-13 21l2-4c2 6 8 11 11 11c5 0 10-11 13-15l18-25l2 3c1-5 8-8 12-13l13 6c-10 23-29 57-45 66c9 1 19 4 29 9c7-9 13-16 17-24c0 7-6 17-12 27c13 7 25 17 30 27Z" />

  <use xlink:href="#a" transform="matrix(-1 0 0 1 1200 0)" />

  <path fill="#000"
    d="M582 227h36c0-4 6-10 3-17l5 3c0-3-2-8-3-9c1 0 3-1 5-1c-1-2-4-5-6-6c1 0 4-1 5-3c-9 0-18-11-35-11c-7 0-12 2-13 5c-3 3-11 1-13 5v-9h3c2 0 4 1 5 3h2c2-3 2-9 0-12h-2c-1 2-3 3-5 3h-3v-2c0-2 1-4 3-5v-2c-3-3-9-3-12 0v2c2 1 3 3 3 5v2h-3c-2 0-4-1-5-3h-2c-3 3-3 9 0 12h2c1-2 3-3 5-3h3v25c0 3-2 5-4 5v2c2 0 5 2 6 5h2c1-3 4-5 6-5v-2c-2 0-4-2-4-5v-8c7 3 16 9 16 26ZM582 201c0 3-12-2-16-2v-1c5-3 16-1 16 3Z" />

  <g id="b">
    <path fill="#b07e5b"
      d="M600 520l3-10v-75l-3 4c-3-4-8-8-14-11c-10 21-25 52-38 62c5 1 10 3 15 5c12-14 24-36 29-54c3 7-3 40-15 61c10 5 19 12 23 18ZM484 460c4-3 12-13 12-18v-163l-6 6l-6-6ZM556 426c2-1 6-4 9-7l-16-8c-1 3-3 6-5 7h5l1 4l5-1ZM500 447l12-14v-154l-6 6l-6-6ZM516 427v-148l6 6l7-6v116c-3 11-7 22-13 32ZM489 278v-18l-5 5v8ZM491 278l6-6v-6l-6-6ZM505 278v-18l-6 6v6ZM484 259l5-5v-9l-4-6c-1 2-1 9-1 20ZM507 278l6-6v-6l-6-6ZM497 260v-21l-6 6v9ZM521 278v-18l-6 6v6ZM523 278l5-4c-2-3-5-6-5-6ZM499 260l6-6v-7l-6-8ZM513 260v-19l-6 6v7ZM515 260c4-2 8-7 9-9c-4-2-8-9-9-10ZM523 267h14c-5-5-10-12-11-14l-3 5ZM527 247c-1-6 0-12 1-18c-6-1-17-10-21-15c-7 4-17 14-20 22l3 5l7-7c0-4 2-7 4-7c-1 1-2 3-2 7l7 9l7-7c0-4 2-7 4-7c-1 1-2 4-2 7c2 3 8 10 12 11ZM537 267h11c-2-1-4-5-5-7c-2 1-5 4-6 7ZM536 262c3-3 7-5 10-6c-4-2-10-3-15-3c1 3 4 8 5 9ZM548 264c2-2 5-3 8-3l-10-5c0 3 1 6 2 8ZM548 267h13l7-4c-2 0-8 0-12-2ZM563 267h17c2-3 3-5 4-8c-8 5-17 7-21 8ZM583 267h20v-2h-3l-5-6c-2 3-5 6-12 8ZM584 265c8-4 11-8 11-16v-21h2v22c0 2 0 5-1 7l4 4l3-4v-40l-18 10c0 14-4 28-11 34c10-3 14-8 14-16v-17h2v19c0 7-4 14-6 18Z" />
    <path fill="#cc092f"
      d="M517 461l5-5c1-1-1-3-3-1l-3 3c-2 2 0 4 1 3ZM515 453c-4 2-1 5 3 1c2-2-1-2-3-1ZM532 459c0 0 2-6 4-9l17-23v-3l-4 2c-1-1-2-4-2-6c-6 8-10 15-15 23c-2 3-6 0-10 1s-9 4-8 6s4 1 7-1s6 0 9-2c0 3-4 5-5 7c2 1 4 0 5-1c-1 3 0 5 2 6ZM520 464l5-5c1-1-1-3-2-2l-5 5c-1 1 1 3 2 2ZM524 466l3-3c2-2 0-4-1-3l-5 5c-1 1 1 3 3 1ZM534 341c8-2 16-6 20-11c4 5 12 9 20 11l1-2c-10-3-23-14-23-31c0-22 23-29 24-35c3 8-8 19-8 33c0 12 7 16 12 17s5 3 7 3s3-3 5-3c3 0 4 4 8 4l2-1v-6h-2l-4-13l-12 5l6-11l-12-5l12-4l-6-11l12 5l4-11l2 1v-4h-68h-1c1 2 1 3 1 5Z" />
    <path
      d="M593 406c0 4-10 2-10 0s10-4 10 0ZM592 326c-2 0-3 3-5 3s-3-3-8-4s-14-6-14-19c0-11 9-24 8-26c-29 19-20 50 6 57l-5 12c11 2 19 12 19 32c0 21-12 19-12 25c0 3 3 3 7 5s7 6 12 6v-88c-3 0-6-3-8-3ZM597 289l-8-4l4 8l-8 3l8 3l-4 8l8-4l3 8v-30ZM554 349c3-3 6-6 13-8c-7-2-10-5-13-8c-3 3-7 6-14 8c7 2 11 5 14 8ZM579 365l3-3l-3-3l-3 3ZM581 395c7-5 6-18 4-21l-6-1c2 5 4 13 2 22ZM600 434l1-1c-10-13-69-23-69-45v-112c0-4-2-5-3-6h73v-1h-75v1c2 1 4 3 4 7v111c0 23 59 33 69 46Z" />
  </g>


  <use xlink:href="#b" transform="matrix(-1 0 0 1 1200 0)" />

  <path fill="#b07e5b"
    d="M585 227h30c0-8 7-7 3-20l5 1c0-2-2-4-4-4c1-2 3-3 4-3c-2-3-4-3-5-3c0-1 1-2 2-3c-9-2-12-9-28-9c-6 0-10 1-11 4c6-1 8 3 13 3c3 0 4-1 7-1c6 0 10 7 13 8c-2 1-10-6-13-6s-4 1-7 1c-5 0-12-6-12-2c0 2 3 4 6 5c2-4 8-3 8 1s-5 5-7 2c-2 3 3 3 3 8c-3-5-11-5-11-1c0 6 4 13 4 19Z" />
  <path fill="#cc092f"
    d="M580 206c0-1 2-2 4-3c-5 1-9 0-11-1c3 3 5 4 7 4ZM584 201c0-4-5-7-5-10c-6 1-10-1-13 5c8-3 17 1 18 5ZM578 194c1 1-2 1-2 0s1-1 2 0Z" />

  <path fill="#000"
    d="M540 482l3-13l-8-4l-2-5l-3 3l1 4l-2 9ZM512 446c3 2 7 1 8-2h5c0-2 4 1 7-2c4-4-2-12-8-6l-2-1c7-5 11-11 10-20c-3 1-5 2-6 3c1-5-2-10-4-13c-4 3-7 9-7 15l-7-13c5 5 10 2 10-1c0-4-6-7-9-2h-2v-1c10-3 9-17 7-26l-5 4c0-3-1-6-3-8l-3 2c0-7-9-6-9-1l-2-3c7-5 9-16 2-25l-4 5c0-4 0-7-2-6c3-6-6-10-9-3v-1c5-7 2-18-4-23c-1 2-2 5-2 8c-1-3-6-7-10-8c-1 4 0 12 4 15c-2-1-6-2-9-2c3 12 13 14 15 14c-8 0-8 6-5 8s8 0 8-4l5 10c-5-3-12-4-15-4c1 2 3 5 4 6c-2 0-3 0-5 1c2 3 6 8 10 9s10 0 12 0l2 5c-7 0-9 5-7 8s10 2 9-4l6 12c-4-3-10-4-15-3c1 3 3 6 6 8c-1 0-5 1-7 3c4 5 13 7 21 4l1 4c-6-1-10 3-7 7s10 1 9-5l7 16c-5-5-16-6-20-6c1 5 4 9 7 10c-2 0-5 0-7 1c5 6 13 10 21 8c-3 1-4 5-1 7ZM661 483l13-8c-1-2-2-4 0-4c0-5-4-7-8-5c0 2-1 2-4 2ZM682 447c6 3 11-3 7-7c3 0 6 0 8-3s-1-8 1-11l15-24c2-1 3-3 2-5c2 0 4-3 2-5c3 1 3-3 5-6l12-19c2-3 5-4 4-7c5 0 3-5 6-8s5-3 7-6s0-6-2-7c8-4-6-13-7-4c-6-1-9 0-9 5v3c0 9-6 8-3 13c-3 1-1 3-4 8l-10 18c-2 4-5 4-4 7c-3 0-4 3-3 5c-2 0-3 2-2 4l-15 24c-2 3-6 3-9 7c-2 3-1 6 1 8c-6 0-8 7-2 10Z" />

  <path
    d="M664 478l7-4c-1-2-4-4-7-4ZM672 469c0-2-3-3-4-2c-2 2 4 5 4 2ZM683 445c4 2 7-3 3-5s-7 3-3 5ZM694 435c2-3 0-6 2-9l14-23c1-2-2-4-3-2l-14 23c-2 3-5 3-7 6c-3 5 5 10 8 5ZM710 399c3 2 5-1 2-3s-5 1-2 3ZM712 395c4 2 5-2 2-4s-6 2-2 4ZM715 390c3 2 5-1 2-3s-5 1-2 3ZM721 384c5-8 11-19 14-22s-4-6-5-2s-8 16-12 22c-2 3 1 5 3 2ZM735 358c4-9 6-11 10-14v-6l-6 2c0 6-3 11-6 17ZM732 355c2-3 6-8 5-16l5-1c-1-2-7-2-7 2c0 6 0 9-4 13ZM737 358h2c2-8 7-10 10-13c2-2-1-5-3-5l1 5c-5 2-9 7-10 13ZM746 337c3 1 5-2 2-4s-5 3-2 4ZM755 336l-1-14l-12 7ZM752 332l-5-3l5-3ZM561 392c7 9 15-6 4-8c12-4-1-17-6-7c0-12-15-7-8 2c-10-5-12 13-1 10c-5 10 9 15 11 3ZM635 397c-1-12 6-20 19-19c-6-6-14-7-20-1s-5 14 1 20ZM563 219c1-2 3-3 5-4c-2-1-4-3-4-6v-27h6c2 0 3 1 5 3c1-2 1-6 0-8c-1 2-3 3-5 3h-6v-5c0-2 1-3 3-5c-2-2-6-2-8 0c2 2 3 3 3 5v5h-5c-2 0-4-1-6-3c-2 2-2 6 0 8c2-2 4-3 6-3h5v27c0 3-2 5-4 6c2 1 4 2 5 4ZM557 393c-5 0-8-4-8-8s3-8 8-8s8 4 8 8s-3 8-8 8ZM557 391c4 0 6-3 6-6s-2-6-6-6s-6 3-6 6s2 6 6 6ZM592 203c-5 0-5-7 0-7s5 7 0 7ZM592 201c2 0 2-3 0-3s-2 3 0 3ZM515 445c-4 0-4-5 0-5s4 5 0 5ZM500 415c-4 0-4-5 0-5s4 5 0 5ZM528 441c-4 0-4-5 0-5s4 5 0 5ZM486 384c-4 0-4-5 0-5s4 5 0 5ZM513 408c-4 0-4-5 0-5s4 5 0 5ZM471 352c-4 0-4-5 0-5s4 5 0 5ZM498 377c-4 0-4-5 0-5s4 5 0 5ZM484 345c-4 0-4-5 0-5s4 5 0 5ZM533 466l-1 8l6 3l2-7Z" />

  <path fill="#0046ae"
    d="M561 395c0 12-18 6-14-4c-10 2-9-18 1-14c-6-9 12-15 12-3c6-9 19 6 8 10c12 3 0 20-7 11ZM578 400c3-10 1-22-3-30l11 2c4 5 4 21-8 28ZM600 430c9-12 66-22 66-42v-47c-8 2-16 6-20 11c-4-5-12-9-20-11l5 10c-11-1-22 7-22 30c0 20 13 20 13 25c0 3-5 4-10 7s-8 7-12 7s-7-4-12-7s-10-4-10-7c0-5 13-5 13-25c0-23-11-31-22-30l5-10c-8 2-16 6-20 11c-4-5-12-9-20-11v47c0 20 57 30 66 42ZM579 368l-6-6l6-6l6 6ZM622 400c-12-7-12-23-8-28l11-2c-4 8-6 20-3 30ZM640 404c-12-6-17-20-8-29s23-4 29 8c-16-7-28 5-21 21ZM621 368l-6-6l6-6l6 6Z" />

  <path fill="#007a50"
    d="M496 423c3 6 13 10 20 8c-4-5-13-8-20-8ZM497 432c5-1 15 1 18 4c-5 3-14 1-18-4ZM530 418c-4 2-9 8-8 13c5-1 8-8 8-13ZM522 409c2 4 3 8 2 12c-2 1-4 5-4 8c-5-7-4-14 2-20ZM511 383c-5 5-7 10-4 17c4-2 7-9 4-17ZM505 377c-5 5-7 12-1 16c0-2 1-5 3-7c1-2 0-7-2-9ZM484 400c7-4 11-1 17 2c-4 2-14 2-17-2ZM485 390c0 2 2 5 5 7c4-1 8 1 11 3c-4-6-9-10-16-10ZM493 351c-4 5-4 11-1 17c4-4 4-12 1-17ZM487 347c-3 4-3 9 0 13c2-4 3-8 0-13ZM470 364c1 4 8 7 13 6c-3-5-7-6-13-6ZM469 357c2 4 9 7 14 6c-3-5-8-6-14-6ZM476 323c-3 5-2 11 1 15c3-5 2-11-1-15ZM462 334c5 0 10 3 11 8c-6 0-10-4-11-8ZM466 322c-1 5 1 10 7 12c0-4-2-10-7-12Z" />
</svg>