<svg xmlns="http://www.w3.org/2000/svg" width="1200" height="720">
  <path fill="#2c7363" d="m0 0h1200v720H0Z" />
  <path fill="#fff"
    d="m421 486h90c35 0 69-13 89-29 20 16 54 29 89 29h90l10-13h-100c-32 0-66-15-89-34-23 19-57 34-89 34h-100Zm17 20h324l6-6h-336Zm26 23h272l12-10h-296Zm234 23l23-13h-242l22 12Zm-182 6c40 21 128 21 168 0Zm-6-94c29 0 68-17 90-40 22 23 61 40 90 40 38 0 83-19 103-44l-20-3c-31 31-88 43-132 28 61 14 127-19 151-76-54-31-126-17-166 31 26-37 80-62 122-57l14-15c-32-8-78 5-114 38 23-46 19-97 1-127l-10 19c19 38 12 97-15 133 32-53 22-126-24-167-46 41-56 114-24 167-27-36-34-95-15-133l-10-19c-18 30-22 81 1 127-36-33-82-46-114-38l14 15c42-5 96 20 122 57-40-48-112-62-166-31 24 57 90 90 151 76-44 15-101 3-132-28l-20 3c20 25 65 44 103 44Z" />
  <path fill="#fcdc50"
    d="m411 258l54 6-48 27 23-50 11 54Zm85-31l18-52-45 32 55 1-44-33Zm129-27l-25-76-25 76 65-47h-80Zm79 27l16-52-44 33 55-1-45-32Zm79 64l-23-50-11 54 40-37-54 6Z" />
</svg>