<svg xmlns="http://www.w3.org/2000/svg" xmlns:xlink="http://www.w3.org/1999/xlink" width="1200" height="720">
  <path d="m0 0h1200v720H0Z" fill="#fff" />
  <path d="m600 0h600v720H600Z" fill="#cf142b" />

  <g id="b">
    <g id="a">
      <path fill="#cf142b" d="
      M40 160V112h56a20 20 0 0 1 16-16V40h48
      v4h-44v56a16 16 0 0 0-16 16h-56v44Z" />
      <path fill="#000" d="

      M44,160h1v-43h65l1-1h-67Z
      M47,160h1v-40h60v-1h-61Z
      M119,103h1v-55h40v-1h-41Z
      M116,101h1v-56h43v-1h-44Z

      M101 144a43 43 0 0 1 43-43v-1a44 44 0 0 0-44 44z
      M113 144a31 31 0 0 1 31-31v-1a32 32 0 0 0-32 32z

      M99,117c10,0,20-4,21-14l-4-4c-9,0-17,8-17,18ZM104,112c-2-2,5-9,10-9l2,2c-1,5-10,9-12,7ZM100,116c0-8,8-16,15-16v2c-7,0-14,9-12,11s13-2,14-8l-2-2l2-2l2,2c-1,9-11,13-19,13Z

      M108,113l1-1l-5-3v1ZM108,110l-2-3l-1,1ZM111,111h1l-4-6l-1,1ZM114,109l-4-5h-1l4,6ZM115,108l1-1l-4-4h-1Z
      " />
    </g>
    <use xlink:href="#a" transform="rotate(90 144 144)" />
  </g>
  <use xlink:href="#b" transform="rotate(180 144 144)" />

  <g id="c">
    <path transform="scale(0.1)"
      d="M1440 1860c-10 0-19 1-19-10q-3 6-8 5-3-4 2-9c-13 2-14-10-15-15-2-9-8-17 3-21q-6-1-7-6 3-4 10 0c-7-8 0-14 9-19 8-6 13-13 21-4q0-6 4-8l2 2v23l-2 1q-5-1-8 3c-1 3 2 6 0 7s-2-3-6-3-4 3-5 6-3 6 0 8 7 0 7 2l-4 5c-2 4 2 5 4 7s5 4 8 2 2-6 4-6l2 4v8l-2 3q-3-2-2-5c-3 6-10 1-12-1v9c2 8 11 5 14 5l2 1v6Zm-24-19q6 0 8-4c-2-1-8-5-5-10q-4 1-6-1l5-3q-6-5-3-11l-9 2c-6 5-1 11 0 15s1 12 10 12m0-33c1-2 1-8 9-6q-3-4-2-6 3 0 5 3c1-7 8-6 10-6q0-4-5-7c-6-4-10 1-14 4-4 2-10 5-9 12q2 5 6 6m24 16c-9 0-9-13 0-13Z" />
    <circle cx="124" cy="176" r="2" />
  </g>
  <use xlink:href="#c" transform="matrix(-1 0 0 1 288 0)" />

  <path fill="#000" transform="scale(0.1)"
    d="m1094 1664 66-39-6-11-27 16-15-25-10 6 14 25-18 10-16-26-10 6Zm-22-122c22 0 39-17 39-38 0-22-17-39-39-39s-39 17-39 39c0 21 17 38 39 38m0-12q-24-2-26-26c-2-24 11-27 26-27s26 12 26 27-11 26-26 26m431 197-271-80c-6-2-3-11 3-9l269 82c6 2 4 8-1 7m-165-61-26-8c8-12 22-14 34-13q-2-8 1-18c6 12 8 22 21 21-2 26-14 10-30 18m-231-269 3-14-34-7 40-22 3-15-36 20c0-28-40-29-46-2l-5 24Zm-38-22-22-5 2-10c3-16 26-14 22 5Zm312 290c-2-11-4-22-15-22-10 0-9-12-17-21-16-21-36-42-46-47-15-8 10-40 15-53 10-27-41-21-53-73-8 9-24 9-39 2-24-12-43 13-23 28 29 20 43 37 16 60 15 26-10 25-21 54l1-13c5-19-26-27-11-50 20-24-24-40-20-71 1-24 22-36 45-28 18 6 39 12 52 7 8-14 12-25 23-32l41 42 20 3-4-19-39-37c14-8 32-9 47-13q22 28 12 64c37 10 44 43-9 84-21 17-41 28-22 47 27 27 37 44 67 65q1 11 13 21Zm-17-63c-9-14-37-34-28-46 7-9 17-16 21-20 2 13-6 23-3 37 4 18 43 7 58 7q-36 10-48 22m-166-226c-11-1-47-23-45-27 3-5 30 12 34 7 22-24 71-60 96-70l-12 16c-9 10-22 19-31 29l-4-4-12 11 4 4q-11 13-18 26Zm-15-24-27-9 25-26Zm63 21-33-4q6-12 17-25l5 4c-9 11 2 14 11 25m225 213c-1-8-5-19-14-19q-8 7-19 6c-31-5-50 7-68 3s-1-23-8-45c11-9 39-30 39-46l25-4c-4 43-49 49-32 68 22 25 77-23 107 37Zm-128-140-12-2-68-70 7-8 71 69Zm-90-69-3-2 23-22 2 2Zm224 178c-14-14-66 4-78-8s17-21 26-42l4 2c12-2 23 8 16 26 18 1 33 10 32 22m-290-205c2-17-7-59-2-64 4-4 24 19 30 15q43-28 91-45l-20 25q-41 17-99 69m51-4-9-8 7-6 8 9Zm-26-51-20-13 18-6Zm40 41c-6 5-6 1-10-3l24-22q-8 10-14 25m265 349c-7 3-21 3-27-5-17 8-32 0-45-2-9-2-15 3-20-3-5-5-2-17 6-18-3-9 6-17 18-27l-1-1c-15 8-24 14-24 26l-5 5c-8-6-13-17-13-24l-15-6 13-10-18 5-19-19c15-15 79-40 100-14l41-1c18 4 40 11 34 27 14-4 27-3 30 11 12-30 49-23 34-50l-3 1c12 23-25 21-31 40-9-16-42 6 6-33l-2-2-30 26c0-11-10-17-20-20l40-14v-2l-45 13-21-19 60-5v-2l-66 5-8-16c14-7 47-7 71-1v-2c-25-7-56-7-75 0 0-9-15-18-25-18q43-14 89 6l1-2q-47-22-92-7c1-12-8-28-23-25 35-20 70-16 88 0 14 12 55 13 53 35-1 11-4 28 13 28l-6-5c19-50 73-6 82-22l-12-1c1-10-20-22-24-34l2-5 19 17c14 1 20-5 10-14-10-10-9-29 3-36v13l4-5 17 16c19 0-1 26 49 41l-3 6-10-5-1 3 15 13-15 8c-16-9-24-6-36 4-6 5-18 20-43 19l-4-8c-5 9 16 19 4 30l16 4-21 13c47-8 54-65 78-52q-8 2-15 12c13-11 27-16 27 0q-12-4-28 12c-40 40-43 49-51 48-11 34-36 30-38 18-3-20-31-20-48-19v3c66 6 37 26 7 26-46 0-59-7-47-13l-2-6-13 2c14-10 7-24-8-29v2c12 6 27 30-30 30v5c10 1 39-2 43-3-2 5-4 12 8 15-6 4-6 13 2 17m-215-293-29-29c2-3 9-7 5-12 20-24 43-51 69-62 0 28 20 43 14 65q-2 5-2 22c-14 2-39 5-57 16m-64-139-20-9 20-5Zm189 245 5-17c30-1 60-5 81-13 10 11-4 18 5 27-32-17-56-13-91 3m-210-203c3-9-9-42-3-45s22 12 29 8c20-12 52-14 79-17l-10 9q-49 17-95 45m58 54c0-9 3-20 5-23 11-14 31-22 35-41 1-6 25-16 32-21l-1 22c-27 10-50 38-71 63m227 384c11 3 19-14 5-18l-149-45q12 1 15-10l3 12 41-2c3 17 14 11 27 14 15 3 28 10 46 4 9 8 26 7 35 1l-2-7q-9-5-2-11l132 3-23-9q8-3 17-17 2 15 15 17c7 0 25-20 27-26 3-7-1-15-7-14q2-5-1-10c21-21 29-38 45-31 3-4 4-18-11-23l22-12-6-9 9-13c-13-5-28-7-37-15l32-2c4-11-2-18-9-23-58-43-49-77-121-76l23-31c9-11 50 5 54 15l24 6-7 25 42 10c5-8 2-26-3-36-9-17-59-45-77-54-27-14-56 10-79 21q-3-9-10-17c-2-23-17-46-33-61q16-13 24-25 31 10 32-4c0-4-6-8-10-10q8 3 15 2c13-8 8-30-6-32s-58-24-77-27c0-23-19-31-26 4-30 19-40 48-40 79l-15 6-2-4 1-21-1-19 2-9c12 7 16 9 19-4l2-2 1-4 1-1c4 2 8 3 8-13l8-6q11-5 6-17c1-3 10-4 15-11-31-35-72-40-97-5-10 13-51-15-46 9-10 0-10 9-5 13 11 11 56-4 60 22l-24-8c-21 0-48-1-63-4q-7 0-18 12l-52 2c-10 0-14 12-13 23-32 8-35 9-29 36-29 9-31 8-29 40l-32 33c-11 11 41 37 51 37l11-8 35 4q8 8 14 0l25 25q-15 11-22 31-22 2-46-9c-27-10-52 5-55 34-3 32 35 48 21 69-20 24 14 37 10 51-3 11-2 24 9 24 15-33 40-37 25-61 32-29 4-50-19-68-12-9 0-25 16-17 14 7 30 7 38 5 3 38 56 44 50 59-4 12-32 50-13 59 13 6 29 25 43 44q-3 9-2 17c-14-2-29 4-34 14l-68-21c-15-5-19 16-7 19l47 13-37 9 59-2c-1 17 30 25 41 28l-37 11v7c21-6 48-10 48-18 0-12-43-11-42-25l55 17c7 6 5 18-1 21-11 6-25 1-43 12l3 5c18-12 30-2 45-11 9-6 11-17 5-25Zm-349-534c15 14 41 15 57-2q10-10 14-27l-23-24-25 25 8 8 16-15 10 10q-2 10-9 16a29 29 0 0 1-39 0c-11-11-9-29 2-40q11-9 24-11l-10-10q-13 4-23 13c-16 14-16 43-2 57m435 309c-31 0-35-11-55-11q-15-1-13-12c4-27-19-28-32-47-10-14-9-34-23-40-19-20-45-13-63-27l-1 2c18 15 41 7 59 24q-12-4-28-3c-9 0-24-6-34-4-25 5-41-11-33-35s-10-33-13-54q-3-19 2-41l12-5q5 17 18 26l1-2c-9-7-11-19-16-30-20 10-57 26-58 34-3 19-23 27-34 41q-6 10-7 26l-22 21 2-7-6 1 2-6-7 1 2-6-6 1q9-12 20-16c14-36 81-121 129-131 8 24 20 47 45 50l-2 26-8 33c-4 12 3 28-10 28-8 0-15-13-31-13v2c19 0 28 29 45 5q15 0 26 6l-14 7h-14l-1 2c22 2 50 10 67 18 10 5 16 32 29 53 5 8 38 67 56 71l16 4c4 1 3 8 0 8m-187-36c-1-7-8-25-31-31 3-21 2-41-15-60l6-1c8 19 26 15 37 14 13-1 26 5 39 5q31-1 37 15c10 42 45 47 30 51-13 3-60 9-103 7m261 186c-6 0-10-8-9-12l22-28q2 6 1 12c3 0 10 0 6 6Zm-420-405c0-34 1-47 39-18l56-8q-9 10-22 11-40 2-73 15m40-22-22-15 41-2Zm254 250q2-6-10-24l-2-4-4 2 2 3 8-4-2-3-4 2-7-12-4 2 7 12-4 3 2 3 4-3Zm112 116v-10c31-9 28-23 49-30-21 14-24 37-49 40m-71-51c2-27-8-27-28-34-22-8-14-11-2-7q16 8 40 9c10 0 14-17 6-18q-16-3-27-7c17-1 27-20 37-32 4-3 21-2 29-1-12 3-28 16-17 25-14 8-19 31-4 40-9-14-2-30 9-37l1-4c-17-18 23-18 18-28-3-3-34-6-40 1-12 12-18 29-38 31l-18-24 20-8c43 3 66-33 97 7-19 7-17 27-13 36l-18-14-4 1c-15 34 18 41 19 54-25-7-51-9-67 10m-287-316c15-12 27-28 30-27 12 3 36 4 53 4-6 3-19 8-30 16Zm164 112q-15-6-32-7 0-15 5-28l3 11c10 17 38 9 24 24m-22-28 1-3-2-3 2-3-2-3 2-3-2-3h7c8 8 4 20-6 18m23 5q-7 0-12-4 6-10-2-21 6-3 11-1 0 13 3 26m-26-26 3-10 2 2-3 8Zm358 371 7-13-18-32v-1l37-3 7-13-52 5-29-16-6 12 29 15Zm-353-371c1-16 36-18 36-6s-21-3-31 6Zm4-3c12-8 27 4 27-4 0-7-26-4-27 4m-25-41q-14-9-24-40l10 4c1 11 10 30 14 36m291 258c2-9-2-21-20-28-13-5-27-40-54-43-20-2-31 8-55 10-27 2-25-13-39-15l-1 3c10 2 9 11 19 15l-15 5c-39-50-33-76-51-86q-18-10-44-14 23-9 18-22c31-4 61-30 71-38q27 27 31 52-11-8-34-11v3c24 1 49 23 49 39 5 47 0 26-34 23v3c22 3 34 14 82 14 42 0 65 52 95 75q9 6 8 12Zm-25-2c5-4-2-13-8-14-6 5 5 8 8 14m-250-250c-16-7-22-23-25-40 7 1 10 1 9-9 4 1 11-6 15-2q2 3 1 6c-3 6-2 13 6 13-5 3-10 7-6 32m269 249q-2-14-14-20c12-1 16 11 14 20m-424-358 13-5 1-20 32-14 15 14 13-6-62-57-9 4Zm13-38 1-31 23 21Zm160 121-7-4-1-2c7-1 8-7 10-10l8-6q1-9 8-4l-2 11-2 1q-6-2-7 3c0 4-4 3-5 8Zm-40-32c-11-13-45-3-55-13-7-7 14-1 16-5s-16-3-11-8c11-9 34 14 46-2 21-28 57-27 85 1-5 4-11 5-12 12-4 0-8-6-9-9-11-22-46-15-54 6v11q-6 0-6 7m114 78q-14-10-19-27l21 13Zm-88-58q-2 0 1-5c3-14-12-18-20-10l-3-2v-6h7v-13c6-17 37-21 44-7 3 6 9 13 15 12 4 2 0 9-3 7l-6 5c-5-4-15-1-16 7q-5 3-8 7-3 9-11 5m28 111q-20 0-26-10l6-1c2 2 10 4 16 4 40-1 92-45 110-79l-2-1-9 14-11-8 1 6c-22 6-51-1-47-31h-5c-1 32 11 48 32 64-19 15-41 30-66 33q-3-12-3-25c21 6 22-17 0-17 1-30 11-58 38-75 0-17 13-37 17-4l8 2-4 15 2 1 3-5c-2-18 28-7 14 5l-4 7 2 1q9-10 9-15l4 1c-5 19 29 22 35 34-1 4-3 12 7 15q-3 8-22-1l7-13-2-1c-13 32-81 84-110 84m66-68 23-3 3 2c-14 16-33 36-26 1m210 168-29-7c-2-10 11-19 1-27l-21-4c-3-7-52-36-66-14-14 21-24 12-24 35l-12-2-2-34c21-12 52-35 73-23l53 30q29 17 27 46m30 92 35-22c0 7 3 21 20 22 13 1 23-9 25-22l4-26-76-10-2 13 36 5-40 24Zm69-25c-2 19-25 15-23-4l1-10 23 3Zm-253-251c-4-13-39-16-35-33 10 4 34 14 51 18v7l-4-4q-2 7 5 6c2 12-10 6-17 6m-178-138 44-2v-12l-32 1-3-64-13 1Zm433 282 11-2-12-60-12 2 5 23-63 14 2 13 64-14Zm-287-265 3-12-30-8 16-62-13-4-19 74Zm114 65 15-82-8-6-73 43 12 8 17-10 29 20-4 19Zm74 98 65-42-7-11-45 28 21-64-5-8-64 42 7 11 44-29h1l-22 65Zm-79-138-21-15 26-16Z" />
</svg>