<svg xmlns="http://www.w3.org/2000/svg" xmlns:xlink="http://www.w3.org/1999/xlink" width="1200" height="720">
  <path d="m0 0h1200v720H0Z" fill="#fff" />
  <path d="m600 0h600v720H600Z" fill="#cf142b" />

  <g id="b">
    <g id="a">
      <path fill="#cf142b" d="
      M40 160V112h56a20 20 0 0 1 16-16V40h48
      v4h-44v56a16 16 0 0 0-16 16h-56v44Z" />
      <path fill="#000" d="

      M44,160h1v-43h65l1-1h-67Z
      M47,160h1v-40h60v-1h-61Z
      M119,103h1v-55h40v-1h-41Z
      M116,101h1v-56h43v-1h-44Z

      M101 144a43 43 0 0 1 43-43v-1a44 44 0 0 0-44 44z
      M113 144a31 31 0 0 1 31-31v-1a32 32 0 0 0-32 32z

      M99,117c10,0,20-4,21-14l-4-4c-9,0-17,8-17,18ZM104,112c-2-2,5-9,10-9l2,2c-1,5-10,9-12,7ZM100,116c0-8,8-16,15-16v2c-7,0-14,9-12,11s13-2,14-8l-2-2l2-2l2,2c-1,9-11,13-19,13Z

      M108,113l1-1l-5-3v1ZM108,110l-2-3l-1,1ZM111,111h1l-4-6l-1,1ZM114,109l-4-5h-1l4,6ZM115,108l1-1l-4-4h-1Z
      " />
    </g>
    <use xlink:href="#a" transform="rotate(90 144 144)" />
  </g>
  <use xlink:href="#b" transform="rotate(180 144 144)" />

  <g id="c">
    <path
      d="M144,186c-1,0-1.9,0.1-1.9-1c-0.2,0.4-0.5,0.5-0.8,0.5c-0.2-0.2-0.1-0.7,0.2-0.9c-1.3,0.2-1.4-1-1.5-1.5c-0.2-0.9-0.8-1.7,0.3-2.1c-0.4,0-0.7-0.3-0.7-0.6c0.1-0.2,0.6-0.3,1,0c-0.7-0.8,0-1.4,0.9-1.9c0.8-0.6,1.3-1.3,2.1-0.4c-0.1-0.3,0.2-0.8,0.4-0.8l0.2,0.2v2.3l-0.2,0.1c-0.3,0-0.7-0.1-0.8,0.3c-0.1,0.3,0.2,0.6,0,0.7s-0.2-0.3-0.6-0.3s-0.4,0.3-0.5,0.6s-0.3,0.6,0,0.8s0.7,0,0.7,0.2c0,0.1-0.2,0.1-0.4,0.5s0.2,0.5,0.4,0.7s0.5,0.4,0.8,0.2s0.2-0.6,0.4-0.6l0.2,0.4v0.8l-0.2,0.3c-0.2-0.1-0.3-0.3-0.2-0.5c-0.3,0.6-1,0.1-1.2-0.1c0,0.3-0.1,0.6,0,0.9c0.2,0.8,1.1,0.5,1.4,0.5l0.2,0.1v0.6ZM141.6,184.1c0.4,0,0.6-0.2,0.8-0.4c-0.2-0.1-0.8-0.5-0.5-1c-0.2,0.1-0.5,0-0.6-0.1c0.1-0.1,0.3-0.3,0.5-0.3c-0.5-0.3-0.4-0.8-0.3-1.1c-0.3,0-0.6,0-0.9,0.2c-0.6,0.5-0.1,1.1,0,1.5s0.1,1.2,1,1.2ZM141.6,180.8c0.1-0.2,0.1-0.8,0.9-0.6c-0.2-0.2-0.3-0.5-0.2-0.6c0.1,0,0.4,0.1,0.5,0.3c0.1-0.7,0.8-0.6,1-0.6c0-0.3-0.2-0.5-0.5-0.7c-0.6-0.4-1,0.1-1.4,0.4c-0.4,0.2-1,0.5-0.9,1.2c0.1,0.4,0.4,0.5,0.6,0.6ZM144,182.4c-0.9,0-0.9-1.3,0-1.3Z" />
    <circle cx="124" cy="176" r="2" />
  </g>
  <use xlink:href="#c" transform="matrix(-1 0 0 1 288 0)" />

  <path fill="#000000"
    d="m173.9 128.6 6.5-4.2-.7-1.1-3 1.9-1.5 1 2.1-6.5-.5-.8-6.4 4.2.7 1.1 4.4-2.9h.1l-2.2 6.5Zm-64.5 37.8 6.6-3.9-.6-1.1-2.7 1.6-1.5-2.5-1 .6 1.4 2.5-1.8 1-1.6-2.6-1 .6Zm-2.2-12.2c2.2 0 3.9-1.7 3.9-3.8 0-2.2-1.7-3.9-3.9-3.9s-3.9 1.7-3.9 3.9c0 2.1 1.7 3.8 3.9 3.8Zm0-1.2c-1.5 0-2.6-1.1-2.6-2.6s1.1-2.7 2.6-2.7 2.6 1.2 2.6 2.7-1.1 2.6-2.6 2.6Zm3.5-13.3.3-1.4-4-.8-.1.5 4.7-2.6.3-1.5-3.6 2c0-2.8-4-2.9-4.6-.2l-.5 2.4Zm-3.8-2.2-2.2-.5.2-1c.3-1.6 2.6-1.4 2.2.5Zm8.4-17.6c1.5 1.4 4 1.6 5.5 0 .6-.6 1.4-2.1 1.6-2.9l-2.3-2.4-2.5 2.5.8.8 1.6-1.5 1 1c-.2.6-.6 1.3-.9 1.6a3 3 0 0 1-3.9 0c-1.1-1.1-.9-2.9.2-4 .5-.5 1.7-1.1 2.4-1.1l-1-1c-.8.2-1.7.7-2.3 1.3-1.6 1.3-1.6 4.3-.2 5.7Zm63.4 46.5.7-1.3-1.8-3.2v-.1l3.7-.3.7-1.3-5.2.5-2.9-1.6-.6 1.2 2.9 1.5Zm-51.3-51.8 1.3-.5.1-2 3.2-1.4 1.5 1.4 1.3-.6-6.2-5.7-.9.4Zm1.3-3.8.1-3.1 2.3 2.1Zm48 41.2 3.5-2.2c0 .7.3 2.1 2 2.2 1.3.1 2.3-.9 2.5-2.2l.4-2.6-7.6-1-.2 1.3 3.6.5-4 2.4Zm6.9-2.5c-.2 1.9-2.5 1.5-2.3-.4l.1-1 2.3.3Zm-43.1-38.9 4.4-.2v-1.2l-3.2.2-.3-6.5-1.3.1Zm43.3 28.2 1.1-.2-1.2-6-1.2.2.5 2.3-6.3 1.4.2 1.3 6.4-1.4Zm-28.7-26.5.3-1.2-3-.8 1.6-6.2-1.3-.4-1.9 7.4Zm11.4 6.5 1.5-8.2-.8-.6-7.3 4.3 1.2.8 1.7-1 2.9 2-.4 1.9Zm-.5-4-2.1-1.5 2.6-1.6Z

    M167.9,150.5c0.5-0.4-0.2-1.3-0.8-1.4c-0.6,0.5,0.5,0.8,0.8,1.4ZM170.9,139.4c-0.4-0.3-1.7,0.3-2.1-0.4c-0.3-0.7-5.2-3.6-6.6-1.4c-1.4,2.1-2.4,1.2-2.4,3.5l-1.2-0.2l-0.2-3.4c2.1-1.2,5.2-3.5,7.3-2.3l5.3,3c1.9,1.1,2.9,2.7,2.7,4.6l-2.9-0.7c-0.2-1,1.1-1.9,0.1-2.7ZM154.5,140.3c2.2,0.3,3.4,1.4,8.2,1.4c4.2,0,6.5,5.2,9.5,7.5c0.6,0.4,0.8,0.8,0.8,1.2l-2.6,0.3c0.2-0.9-0.2-2.1-2-2.8c-1.3-0.5-2.7-4-5.4-4.3c-2-0.2-3.1,0.8-5.5,1c-2.7,0.2-2.5-1.3-3.9-1.5l-0.1,0.3c1,0.2,0.9,1.1,1.9,1.5l-1.5,0.5c-3.9-5-3.3-7.6-5.1-8.6c-1.3-0.7-2.6-1.1-4.4-1.4c1.6-0.7,2.1-1.2,1.8-2.2c3.1-0.4,6.1-3,7.1-3.8c1.7,1.7,2.9,3.6,3.1,5.2c-0.8-0.5-1.8-1-3.4-1.1v0.3c2.4,0.1,4.9,2.3,4.9,3.9c0.5,4.7,0,2.6-3.4,2.3ZM168.4,148.4c1.2-0.1,1.6,1.1,1.4,2c-0.2-1-0.5-1.5-1.4-2ZM168.1,148.9c1.9,0-0.1,2.6,4.9,4.1l-0.3,0.6l-1-0.5l-0.1,0.3l1.5,1.3l-1.5,0.8c-1.6-0.9-2.4-0.6-3.6,0.4c-0.6,0.5-1.8,2-4.3,1.9l-0.4-0.8c-0.5,0.9,1.6,1.9,0.4,3l1.6,0.4l-2.1,1.3c4.7-0.8,5.4-6.5,7.8-5.2c-0.5,0.1-1.1,0.6-1.5,1.2c1.3-1.1,2.7-1.6,2.7,0c-0.7-0.3-1.8,0.2-2.8,1.2c-4,4-4.3,4.9-5.1,4.8c-1.1,3.4-3.6,3-3.8,1.8c-0.3-2-3.1-2-4.8-1.9v0.3c6.6,0.6,3.7,2.6,0.7,2.6c-4.6,0-5.9-0.7-4.7-1.3l-0.2-0.6l-1.3,0.2c1.4-1,0.7-2.4-0.8-2.9v0.2c1.2,0.6,2.7,3-3,3v0.5c1,0.1,3.9-0.2,4.3-0.3c-0.2,0.5-0.4,1.2,0.8,1.5c-0.6,0.4-0.6,1.3,0.2,1.7c-0.7,0.3-2.1,0.3-2.7-0.5c-1.7,0.8-3.2,0-4.5-0.2c-0.9-0.2-1.5,0.3-2-0.3c-0.5-0.5-0.2-1.7,0.6-1.8c-0.3-0.9,0.6-1.7,1.8-2.7l-0.1-0.1c-1.5,0.8-2.4,1.4-2.4,2.6l-0.5,0.5c-0.4-0.3-1.1-0.8-1.3-1.7c-0.5-0.3-1.2-0.7-1.5-1l1.4-0.4c-0.6-0.1-1.3-0.2-1.9-0.1l-1.9-2.2c1.5-1.5,7.9-4,10-1.4l4.1-0.1c1.8,0.4,4,1.1,3.4,2.7c1.4-0.4,2.7-0.3,3,1.1c1.2-3,4.9-2.3,3.4-5l-0.3,0.1c1.2,2.3-2.5,2.1-3.1,4c-0.9-1.6-4.2,0.6,0.6-3.3l-0.2-0.2l-3,2.6c0-1.1-1-1.7-2-2l4-1.4v-0.2l-4.5,1.3l-2.1-1.9l6-0.5v-0.2l-6.6,0.5l-0.8-1.6c1.4-0.7,4.7-0.7,7.1-0.1v-0.2c-2.5-0.7-5.6-0.7-7.5,0c0-0.9-1.5-1.8-2.5-1.8c2.8-0.9,5.9-0.8,8.9,0.6l0.1-0.2c-3.2-1.5-6.1-1.7-9.2-0.7c0.1-1.2-0.8-2.8-2.3-2.5c3.5-2,7-1.6,8.8,0c1.4,1.2,5.5,1.3,5.3,3.5c-0.1,1.1-0.4,2.8,1.3,2.8l-0.6-0.5c1.9-5,7.3-0.6,8.2-2.2l-1.2-0.1c0.1-1-2-2.2-2.4-3.4l0.2-0.5l1.9,1.7c1.4,0.1,2-0.5,1-1.4c-1-1-0.9-2.9,0.3-3.6v1.3l0.4-0.5ZM168.2,163.6c0,0.4-1.5,2.1-2,2.2c-0.6,0-1-0.8-0.9-1.2l2.2-2.8c0.2,0.4,0.1,0.8,0.1,1.2c0.3,0,1,0,0.6,0.6ZM141.4,166.3l-3.3,0.2c-0.2-1.1-0.4-2.2-1.5-2.2c-1,0-0.9-1.2-1.7-2.1c-1.6-2.1-3.6-4.2-4.6-4.7c-1.5-0.8,1-4,1.5-5.3c1-2.7-4.1-2.1-5.3-7.3c-0.8,0.9-2.4,0.9-3.9,0.2c-2.4-1.2-4.3,1.3-2.3,2.8c2.9,2,4.3,3.7,1.6,6c1.5,2.6-1,2.5-2.1,5.4c0-0.5,0-0.9,0.1-1.3c0.5-1.9-2.6-2.7-1.1-5c2-2.4-2.4-4-2-7.1c0.1-2.4,2.2-3.6,4.5-2.8c1.8,0.6,3.9,1.2,5.2,0.7c0.8-1.4,1.2-2.5,2.3-3.2l4.1,4.2l2,0.3l-0.4-1.9l-3.9-3.7c1.4-0.8,3.2-0.9,4.7-1.3c1.4,1.8,1.9,4,1.2,6.4c3.7,1,4.4,4.3-0.9,8.4c-2.1,1.7-4.1,2.8-2.2,4.7c2.7,2.7,3.7,4.7,6.7,6.8c0.2,0.7,0.9,1.4,1.3,1.8ZM136.8,164.8c-0.2,2.6-1.4,1-3,1.8l-2.6-0.8c0.8-1.2,2.2-1.4,3.4-1.3c-0.1-0.6-0.2-1.1,0.1-1.8c0.6,1.2,0.8,2.2,2.1,2.1ZM150.4,172c0.6,0.2,0.4,0.8-0.1,0.7l-27.1-8c-0.6-0.2-0.3-1.1,0.3-0.9ZM150.7,171.5l-14.9-4.5c0.8,0,1.3-0.2,1.5-1l0.3,1.2l4.1-0.2c0.3,1.7,1.4,1.1,2.7,1.4c1.5,0.3,2.8,1,4.6,0.4c0.9,0.8,2.6,0.7,3.5,0.1l-0.2-0.7c-0.6-0.3-0.7-0.8-0.2-1.1c4.2,0.1,8.7,0.1,13.2,0.3l-2.3-0.9c0.6-0.3,1-0.7,1.7-1.7c0.1,0.9,0.7,1.7,1.5,1.7c0.7,0,2.5-2,2.7-2.6c0.3-0.7-0.1-1.5-0.7-1.4c0.1-0.3,0.1-0.7-0.1-1c2.1-2.1,2.9-3.8,4.5-3.1c0.3-0.4,0.4-1.8-1.1-2.3l2.2-1.2l-0.6-0.9l0.9-1.3c-1.3-0.5-2.8-0.7-3.7-1.5l3.2-0.2c0.4-1.1-0.2-1.8-0.9-2.3c-5.8-4.3-4.9-7.7-12.1-7.6l2.3-3.1c0.9-1.1,5,0.3,5.4,1.3c0.5,1.1,2.8-0.1,2.4,1.2l-0.7,2.1l4.2,1c0.5-0.8,0.2-2.6-0.3-3.6c-0.9-1.7-5.9-4.5-7.7-5.4c-2.7-1.4-5.6,1-7.9,2.1c-0.1-0.6-0.6-1.2-1-1.7c-0.2-2.3-1.7-4.6-3.3-6.1c1-0.8,1.9-1.8,2.4-2.5c2,0.7,3.2,0.5,3.2-0.4c0-0.4-0.6-0.8-1-1c0.5,0.1,1.1,0.3,1.5,0.2c1.3-0.8,0.8-3-0.6-3.2s-5.8-2.4-7.7-2.7c0-1.3-0.9-1.7-1.1-2.3c-1.5,0.6-1.3,2.1-1.5,2.7c-3,1.9-4,4.8-4,7.9l-1.5,0.6l-0.2-0.4l0.1-2.1l-0.1-1.9l0.2-0.9c1.2,0.7,1.6,0.9,1.9-0.4l0.2-0.2l0.1-0.4l0.1-0.1c0.4,0.2,0.8,0.3,0.8-1.3c0.4,0,0.8-0.5,0.8-0.5c0.7-0.3,0.9-1.1,0.6-1.8c0.1-0.3,1-0.4,1.5-1.1c-3.1-3.5-7.2-4-9.7-0.5c-1,1.3-5.3-1.3-4.6,0.9c-1,0-1,0.9-0.5,1.3c1.1,1.1,5.6-0.4,6,2.2l-2.4-0.8c-2.1,0-4.8-0.1-6.3-0.4c-0.5-0.1-1,0.5-1.8,1.2l-5.5,0.2c-1,0-1.1,1.2-1,2.3c-3.2,0.8-3.5,0.9-2.9,3.6c-2.9,0.9-3.1,0.8-2.9,4l-3.2,3.3c-1.1,1.1,4.1,3.7,5.1,3.7l1.1-0.8l3.5,0.4c0.5,0.5,0.9,0.8,1.4,0l2.5,2.5c-1,0.7-1.7,1.8-2.2,3.1c-1.6,0.2-2.9-0.3-4.6-0.9c-2.7-1-5.2,0.5-5.5,3.4c-0.3,3.2,3.5,4.8,2.1,6.9c-2,2.4,1.4,3.7,1,5.1c-0.3,1.1-0.2,2.4,0.9,2.4c1.5-3.3,4-3.7,2.5-6.1c3.2-2.9,0.4-5-1.9-6.8c-1.2-0.9,0-2.5,1.6-1.7c1.4,0.7,3,0.7,3.8,0.5c0.3,3.8,5.6,4.4,5,5.9c-0.4,1.2-3.2,5-1.3,5.9c1.3,0.6,2.9,2.5,4.3,4.4c-0.2,0.6-0.3,1.2-0.2,1.7c-1.4-0.2-2.9,0.4-3.4,1.4l-6.8-2.1c-1.5-0.5-1.9,1.6-0.7,1.9l4.7,1.3l-3.7,0.9l5.9-0.2c-0.1,1.7,3,2.5,4.1,2.8l-3.7,1.1v0.7c2.1-0.6,4.8-1,4.8-1.8c0-1.2-4.3-1.1-4.2-2.5l5.5,1.7c0.7,0.6,0.5,1.8-0.1,2.1c-1.1,0.6-2.4,0-4.2,1.1l0.2,0.6c1.8-1.2,3-0.2,4.5-1.1c0.9-0.6,1.1-1.7,0.5-2.5l12.9,3.9c1.1,0.3,1.9-1.4,0.5-1.8ZM126.3,137.4l0.7-0.8l7.1,6.9l0.2,1.1l-1.2-0.2ZM125.3,137.7l-0.3-0.2l2.3-2.2l0.2,0.2ZM127.8,135.1c2-2.4,4.3-5.1,6.9-6.2c0,2.8,2,4.3,1.4,6.5c-0.1,0.4-0.3,1-0.2,2.2c-1.4,0.2-3.9,0.5-5.7,1.6l-2.9-2.9c0.2-0.3,0.9-0.7,0.5-1.2ZM127.5,134.9c0-0.9,0.3-2,0.5-2.3c1.1-1.4,3.1-2.2,3.5-4.1c0.1-0.6,2.5-1.6,3.2-2.1c-0.1,0.7-0.1,1.4-0.1,2.2c-2.7,1-5,3.8-7.1,6.3ZM150.4,146.5c-1.3,0.3-6,0.9-10.3,0.7c-0.1-0.7-0.8-2.5-3.1-3.1c0.3-2.1,0.2-4.1-1.5-6l0.6-0.1c0.8,1.9,2.6,1.5,3.7,1.4c1.3-0.1,2.6,0.5,3.9,0.5c2,0,3.4,0.3,3.7,1.5c1,4.2,4.5,4.7,3,5.1ZM136.2,153.1c1.1-0.9,3.9-3,3.9-4.6l2.5-0.4c-0.4,4.3-4.9,4.9-3.2,6.8c2.2,2.5,7.7-2.3,10.7,3.7h-3c-0.1-0.8-0.5-1.9-1.4-1.9c-0.5,0.4-1.2,0.7-1.9,0.6c-3.1-0.5-5,0.7-6.8,0.3s-0.1-2.3-0.8-4.5ZM135.4,157.3c0.4,1.8,4.3,0.7,5.8,0.7c-2.4,0.6-4,1.4-4.8,2.2c-0.9-1.4-3.7-3.4-2.8-4.6c0.7-0.9,1.7-1.6,2.1-2c0.2,1.3-0.6,2.3-0.3,3.7ZM142.9,150.7c1.2-0.2,2.3,0.8,1.6,2.6c1.8,0.1,3.3,1,3.2,2.2c-1.4-1.4-6.6,0.4-7.8-0.8s1.7-2.1,2.6-4.2ZM166,145.9c-1.9,0.7-1.7,2.7-1.3,3.6l-2.2-1.3c-1.5,3.4,1.8,4.1,1.9,5.4c-2.5-0.7-5.1-0.9-6.7,1c0.2-2.7-0.8-2.7-2.8-3.4c-2.2-0.8-1.4-1.1-0.2-0.7c1.1,0.4,2.3,0.9,4,0.9c1,0,1.4-1.7,0.6-1.8c-1.1-0.2-2-0.4-2.7-0.7c1.7-0.1,2.7-2,3.7-3.2c0.4-0.3,2.1-0.2,2.9-0.1c-1.2,0.3-2.8,1.6-1.7,2.5c-1.4,0.8-1.9,3.1-0.4,4c-0.9-1.4-0.2-3,0.9-3.7l0.1-0.4c-1.7-1.8,2.3-1.8,1.8-2.8c-0.3-0.3-3.4-0.6-4,0.1c-1.2,1.2-1.8,2.9-3.8,3.1l-1.8-2.4l2-0.8c4.3,0.3,6.6-3.3,9.7,0.7ZM143.5,135.2h-1.4l-0.1,0.2c2.2,0.2,5,1,6.7,1.8c1,0.5,1.6,3.2,2.9,5.3c0.5,0.8,3.8,6.7,5.6,7.1l1.6,0.4c0.4,0.1,0.3,0.8,0,0.8c-3.1,0-3.5-1.1-5.5-1.1c-1,0-1.4-0.6-1.3-1.2c0.4-2.7-1.9-2.8-3.2-4.7c-1-1.4-0.9-3.4-2.3-4c-1.9-2-4.5-1.3-6.3-2.7l-0.1,0.2c1.8,1.5,4.1,0.7,5.9,2.4c-0.9-0.4-1.7-0.3-2.8-0.3c-0.9,0-2.4-0.6-3.4-0.4c-2.5,0.5-4.1-1.1-3.3-3.5s-1-3.3-1.3-5.4c-0.2-1.3-0.1-2.6,0.2-4.1l1.2-0.5c0.4,1.1,0.9,2,1.8,2.6l0.1-0.2c-0.9-0.7-1.1-1.9-1.6-3c-2,1-5.7,2.6-5.8,3.4c-0.3,1.9-2.3,2.7-3.4,4.1c-0.5,0.6-0.6,1.6-0.7,2.6c-0.5,0.4-1.6,1.6-2,2.1l-0.2-0.3l0.3-0.6l-0.6,0.3l-0.2-0.1l0.3-0.6l-0.5,0.3l-0.3-0.2l0.3-0.4l-0.4,0.2l-0.2-0.2c0.6-0.9,1.3-1.3,2-1.6c1.4-3.6,8.1-12.1,12.9-13.1c0.8,2.4,2,4.7,4.5,5l-0.2,2.6l-0.8,3.3c-0.4,1.2,0.3,2.8-1,2.8c-0.8,0-1.5-1.3-3.1-1.3v0.2c1.9,0,2.8,2.9,4.5,0.5c1,0,1.8,0.2,2.6,0.6ZM121.3,136.9c0.4-0.8,1-1.7,1.7-2.5l0.5,0.4c-0.9,1.1,0.2,1.4,1.1,2.5ZM121,136.8l-1.2,0.8c-1.1-0.1-4.7-2.3-4.5-2.7c0.3-0.5,3,1.2,3.4,0.7c2.2-2.4,7.1-6,9.6-7l-1.2,1.6c-0.9,1-2.2,1.9-3.1,2.9l-0.4-0.4l-1.2,1.1l0.4,0.4c-0.7,0.8-1.4,1.8-1.8,2.6ZM124.4,134.1l-0.6,0.5l-0.9-0.8l0.7-0.6ZM124.2,133.3c0.7-0.7,1.5-1.5,2.4-2.2c-0.5,0.7-1,1.5-1.4,2.5c-0.6,0.5-0.6,0.1-1-0.3ZM118.5,128.6c0.4-0.4,2.4,1.9,3,1.5c2.8-1.9,6-3.3,9.1-4.5l-2,2.5c-2.7,1.1-6.1,4-9.9,6.9c0.2-1.7-0.7-5.9-0.2-6.4ZM121.4,125c0.6-0.3,1.9,1.2,2.6,0.8c2-1.2,5.5-1.4,8.2-1.7l-1,0.9c-3.3,1.1-6.4,2.7-9.5,4.5c0.3-0.9-0.9-4.2-0.3-4.5ZM126.4,122.5c1,0.8,1.2,1.1,2.5,0.9l4.8-0.7c-0.7,0.7-1.2,1-2.2,1.1c-2.6,0.2-5.2,0.6-7.3,1.5c0.1-2.2-0.6-5.2,2.2-2.8ZM129,123c1.5-1.2,2.7-2.8,3-2.7c1.2,0.3,3.4,0.5,5.1,0.5c-0.6,0.3-1.9,0.8-3,1.6ZM141.3,124.9c-1-0.6-1.7-1.9-2.4-4l1,0.4c0.1,1.1,1,3,1.4,3.6ZM141.3,120.6c0.4,0.1,1.1-0.6,1.5-0.2c0.1,0.2,0.2,0.4,0.1,0.6c-0.3,0.6-0.2,1.3,0.6,1.3c-0.5,0.3-1,0.7-0.6,3.2c-1.6-0.7-2.2-2.3-2.5-4c0.7,0.1,1,0.1,0.9-0.9ZM141.3,119c-0.4,0-0.6,0.2-0.6,0.7c-1.1-1.3-4.5-0.3-5.5-1.3c-0.7-0.7,1.4-0.1,1.6-0.5s-1.6-0.3-1.1-0.8c1.1-0.9,3.4,1.4,4.6-0.2c2.1-2.8,5.7-2.7,8.5,0.1c-0.5,0.4-1.1,0.5-1.2,1.2c-0.4,0-0.8-0.6-0.9-0.9c-1.1-2.2-4.6-1.5-5.4,0.6ZM147.4,119.3c-0.4-0.1-0.4,0.5-0.6,0.5c-0.5-0.4-1.5-0.1-1.6,0.7c-0.2,0.3-0.7,0.3-0.8,0.7c-0.1,0.5-0.7,0.8-1.1,0.5c-0.1,0-0.1-0.2,0.1-0.5c0.3-1.4-1.2-1.8-2-1l-0.3-0.2v-0.6h0.7v-1.3c0.6-1.7,3.7-2.1,4.4-0.7c0.3,0.6,0.9,1.3,1.5,1.2c0.1,0.2,0,0.8-0.3,0.7ZM146.3,121.4l-0.2,0.1c-0.4-0.2-0.7,0-0.7,0.3c0,0.4-0.4,0.3-0.5,0.8l-0.2,0.3l-0.7-0.4l-0.1-0.2c0.7-0.1,0.8-0.7,1-1c0.2-0.2,0.5-0.2,0.8-0.6c0-0.5,0.4-0.8,0.8-0.4ZM142.9,129.3l0.3-1l0.2,0.2l-0.3,0.8ZM143.4,129.3c0.1-1.6,3.6-1.8,3.6-0.6s-2.1-0.3-3.1,0.6ZM146.5,128.6c0-0.7-2.6-0.4-2.7,0.4c1.2-0.8,2.7,0.4,2.7-0.4ZM152.3,126.1l-0.2,1.4c-0.9-0.7-1.6-1.6-1.9-2.7ZM154.6,125.3c-2.2,0.6-5.1-0.1-4.7-3.1h-0.5c-0.1,3.2,1.1,4.8,3.2,6.4c-1.9,1.5-4.1,3-6.6,3.3c-0.2-0.9-0.3-1.6-0.3-2.5c2.1,0.6,2.2-1.7,0-1.7c0.1-3,1.1-5.8,3.8-7.5c0-1.7,1.3-3.7,1.7-0.4l0.9,0.3c-0.3,0.3-0.2,0.7-0.5,1.4l0.2,0.1l0.3-0.5c-0.2-1.8,2.8-0.7,1.4,0.5l-0.4,0.7l0.2,0.1c0.5-0.8,1-1.1,0.9-1.5l0.4,0.1c-0.5,1.9,2.9,2.2,3.5,3.4c-0.1,0.4-0.3,1.2,0.7,1.5c-0.2,0.6-0.9,0.4-2.2-0.1l0.7-1.3l-0.2-0.1c-1.3,3.2-8.1,8.4-11,8.4c-1.4,0-2.1-0.4-2.6-1l0.6-0.1c0.2,0.2,1,0.4,1.6,0.4c4-0.1,9.2-4.5,11-7.9l-0.2-0.1l-0.9,1.4l-1.1-0.8ZM152.7,126l2.3-0.3l0.3,0.2c-1.4,1.6-3.3,3.6-2.6,0.1ZM144.1,129.4c0.3-0.2,0.8-0.2,1.1-0.1c0,0.9,0.1,1.7,0.3,2.6c-0.5,0-1-0.2-1.2-0.4c0.1-0.4,0.4-1.4-0.2-2.1ZM143.3,130l-0.2-0.3l0.7-0.2c0.8,1,0.4,2.1-0.6,1.9l0.1-0.3l-0.1-0.3l0.1-0.2l-0.2-0.3ZM159.5,123.2c-0.2,0.5,0.1,0.6,0.5,0.6c0.2,1.2-1,0.6-1.7,0.6c-0.4-1.3-3.9-1.6-3.5-3.3c1,0.4,3.4,1.4,5.1,1.8v0.7c-0.2-0.1-0.4-0.2-0.4-0.4ZM152.8,145.1l0.2,0.3l-0.8,0.4l-0.2-0.3l0.4-0.2l0.2,0.4c0.7,1.3,1.2,1.9,1,2.4l-1.4-2.3l-0.4,0.3l-0.2-0.3l0.4-0.3l-0.7-1.2l0.4-0.2l0.7,1.2ZM142.2,133.5c-0.1-0.9,0.2-2,0.5-2.8l0.3,1.1c1,1.7,3.8,0.9,2.4,2.4c-1-0.4-2.1-0.7-3.2-0.7ZM164.8,158.7c3.1-0.9,2.8-2.3,4.9-3c-2.1,1.4-2.4,3.7-4.9,4ZM151.8,149.5c-3.2-1.7-5.6-1.3-9.1,0.3l0.5-1.7c3-0.1,6-0.5,8.1-1.3c1,1.1-0.4,1.8,0.5,2.7Z" />
</svg>