<svg xmlns="http://www.w3.org/2000/svg" xmlns:xlink="http://www.w3.org/1999/xlink" width="1200" height="720">
  <defs>
    <clipPath id="b">
      <path d="m500 226.375-63.702 110.332H563.7z" />
    </clipPath>
  </defs>
  <path fill="#0859b9" d="m0 0h1200v720H0Z" />
  <path fill="#faf6f5" d="m0 240h1200v240H0Z" />

  <path fill="#b28451"
    d="m491.4 360.95l.06-2.18 12.52.37-.06 2.18-12.52-.37Zm7.54-2.96l-1.66 1.37.06-2.02c.01-.43-.05-.84-.2-1.21-.14-.38-.36-.68-.64-.92-.28-.24-.63-.36-1.03-.37-.58-.02-1.05.18-1.41.59-.37.41-.56.94-.58 1.6l-.08 2.54-1.96-.06.08-2.81c.02-.83.21-1.54.54-2.14.34-.6.79-1.06 1.36-1.38.57-.32 1.2-.47 1.9-.45.71.02 1.34.21 1.9.56.56.35 1 .84 1.32 1.47.32.63.46 1.34.44 2.13l-.03 1.1Zm-1.67 1.81l.07-2.48 6.87-5.61-.08 2.59-6.86 5.5ZM492.46 344.87l1.24-7.22 1.92.33-.88 5.09 3.21.55.82-4.75 1.86.32-.82 4.75 3.44.59.88-5.09 1.92.33-1.24 7.22-12.35-2.13ZM495.44 330.57l.66-2.06 11.93 3.82-.66 2.06-11.93-3.82Zm6.25.24l.71-2.23c.14-.45.18-.86.12-1.26-.06-.39-.21-.73-.45-1-.24-.28-.55-.48-.94-.6-.59-.19-1.13-.13-1.6.18-.47.31-.82.83-1.06 1.56l-.67 2.11-1.85-.59.72-2.25c.27-.86.67-1.56 1.18-2.11s1.1-.9 1.77-1.06c.67-.16 1.38-.12 2.12.12.74.24 1.35.62 1.82 1.16s.78 1.17.92 1.89.08 1.5-.19 2.32l-.75 2.35-1.85-.59ZM500.68 315.93l.96-1.93 7.18 3.59c.72.36 1.41.42 2.09.2.67-.23 1.19-.7 1.54-1.42.36-.73.43-1.43.21-2.09-.23-.66-.7-1.17-1.42-1.53l-7.18-3.59.96-1.92 7.09 3.54c.83.41 1.48.95 1.94 1.62.47.67.72 1.43.75 2.27.03.84-.17 1.69-.61 2.56-.43.86-.99 1.53-1.67 2-.69.48-1.44.74-2.27.79s-1.66-.13-2.48-.55l-7.09-3.54ZM509.13 300.5l1.25-1.76 10.2 7.27-1.25 1.76-10.2-7.27Zm9.77 4.55l1.56-2.18c.38-.53.54-1.04.51-1.55-.04-.51-.28-.92-.73-1.24-.45-.32-.93-.4-1.43-.24-.5.16-.96.52-1.37 1.1l-1.52 2.14-1.44-1.02 1.28-1.8c.34-.48.48-.95.43-1.43-.05-.47-.28-.85-.68-1.14-.44-.31-.88-.4-1.32-.26-.44.14-.85.48-1.23 1.01l-1.2 1.69-1.57-1.12 1.17-1.64c.49-.69 1.04-1.23 1.64-1.6.6-.37 1.19-.56 1.78-.56.59 0 1.14.17 1.64.53.58.41.98.95 1.2 1.62.22.67.24 1.32.05 1.97l-.45-.32c.46-.42.95-.72 1.45-.91.51-.18 1.01-.25 1.52-.19s.98.25 1.43.57c.56.4.95.89 1.19 1.49s.28 1.25.15 1.96c-.13.71-.44 1.41-.93 2.09l-1.56 2.18-1.57-1.12ZM520.41 286.21l7.7 7.26 3.53-3.75 1.41 1.33-5.01 5.32-9.11-8.6 1.48-1.57ZM530.28 276.82l8.15 9.52-1.63 1.39-8.15-9.52 1.63-1.39ZM545.03 280.44c-1.15.11-2.25-.08-3.3-.56-1.05-.48-1.91-1.23-2.59-2.25-.64-.97-1-2.03-1.07-3.17-.07-1.14.16-2.22.7-3.25.54-1.03 1.33-1.89 2.4-2.6.61-.4 1.27-.72 1.97-.94.7-.23 1.38-.36 2.05-.39l1.29 1.95c-.7-.07-1.42-.02-2.18.17-.76.18-1.41.46-1.98.83-.65.43-1.17 1-1.55 1.7-.39.7-.57 1.44-.57 2.23 0 .79.25 1.53.72 2.25.44.67 1.03 1.18 1.75 1.53s1.5.49 2.31.43c.82-.06 1.58-.32 2.29-.79.62-.41 1.14-.92 1.55-1.53.42-.61.71-1.28.87-2.01l1.34 2.03c-.28.63-.66 1.23-1.15 1.79-.49.57-1.04 1.05-1.65 1.46-.99.65-2.06 1.04-3.21 1.14ZM556.77 260.42l10.31 9.13-2.09.93-2.81-2.52-.49-.63-4.41-3.91-.08.04-.06 5.9.17.77-.02 3.77-2.12.94.19-13.79 1.43-.63Zm5.78 5.84l.76 1.71-6.78 3.01-.76-1.71 6.78-3.01ZM591.9 252.45c1.01.38 1.84 1 2.49 1.88.65.88 1.03 1.95 1.16 3.23.13 1.3-.03 2.46-.49 3.48s-1.13 1.82-2.03 2.42-1.91.95-3.03 1.06l-4.6.46-1.24-12.47 4.44-.44c1.18-.12 2.28.01 3.29.39Zm-.13 9.42c.58-.4 1.02-.95 1.33-1.66.31-.71.42-1.52.33-2.44s-.35-1.67-.79-2.26c-.43-.59-.97-1.01-1.61-1.26s-1.32-.34-2.05-.27l-2.47.25.85 8.6 2.47-.25c.72-.07 1.36-.31 1.94-.71ZM601.52 251.43l7.32.33-.09 1.94-5.16-.23-.15 3.25 4.82.22-.08 1.89-4.82-.22-.16 3.49 5.16.23-.09 1.94-7.32-.33.56-12.52ZM635.78 257.44l3.41 10.64.07.03 1.04-2.78 2.07-5.32 2.01.78-4.55 11.67-1.44-.56-3.39-10.63-.07-.03-1.05 2.76-2.08 5.33-2.01-.78 4.55-11.67 1.44.56ZM652.39 264.93l-5.95 11.03-1.88-1.02 5.95-11.03 1.89 1.02ZM653.59 279.5c-.52-1.03-.75-2.12-.7-3.28s.44-2.23 1.14-3.23c.67-.95 1.52-1.67 2.55-2.16 1.04-.49 2.13-.67 3.28-.55s2.25.54 3.29 1.27c.6.42 1.13.91 1.6 1.48.47.57.84 1.15 1.12 1.76l-1.34 1.92c-.19-.67-.51-1.33-.96-1.96-.45-.64-.95-1.15-1.5-1.53-.64-.45-1.36-.72-2.15-.82-.79-.1-1.55 0-2.28.29-.73.3-1.33.79-1.82 1.49-.46.66-.72 1.39-.78 2.19s.09 1.57.45 2.31c.35.74.88 1.35 1.58 1.84.61.43 1.28.72 2 .88.72.16 1.45.18 2.19.07l-1.39 1.99c-.68-.02-1.38-.16-2.09-.41-.71-.25-1.36-.58-1.96-1-.97-.68-1.72-1.54-2.25-2.57ZM675.82 282.34l-4.56 13-1.65-1.58 1.27-3.55.39-.7 1.96-5.56-.06-.06-5.48 2.17-.65.45-3.5 1.4-1.67-1.61 12.84-5.03 1.13 1.09Zm-3.23 7.56l-1.3 1.35-5.34-5.14 1.3-1.35 5.34 5.14ZM683.54 290.58l1.33 1.73-9.94 7.63-1.33-1.73 9.93-7.63Zm-3.81 4.61l1.51 1.97-1.77 8.69-1.58-2.06 1.83-8.6Zm-.16 2.46l.42-2.11 1.23 1.6c.26.34.57.61.92.81.35.2.71.3 1.08.31s.71-.12 1.04-.36c.46-.35.7-.8.72-1.35.02-.55-.16-1.08-.57-1.61l-1.55-2.01 1.56-1.2 1.71 2.23c.5.66.82 1.32.94 2 .12.68.06 1.32-.18 1.93-.24.61-.63 1.12-1.18 1.55-.56.43-1.17.69-1.83.77-.66.08-1.31-.02-1.95-.31-.64-.29-1.21-.74-1.69-1.37l-.67-.87ZM695.27 307.98l-8.16 11.09-1.11-2 2.25-3.02.58-.55 3.5-4.75-.04-.08-5.88.47-.75.23-3.76.32-1.13-2.03 13.75-1.06.76 1.37Zm-5.3 6.29l-1.64.91-3.61-6.48 1.64-.91 3.61 6.48ZM689.86 324.24c.16-1.1.6-2.09 1.31-2.98.71-.89 1.64-1.54 2.79-1.96 1.15-.42 2.28-.52 3.4-.31 1.12.21 2.12.71 3.02 1.49.89.79 1.57 1.8 2.02 3.04.26.71.42 1.44.49 2.18.07.74.03 1.44-.1 2.09l-2.2.8c.23-.66.34-1.38.34-2.17 0-.78-.13-1.51-.37-2.17-.28-.78-.73-1.44-1.32-2s-1.29-.92-2.07-1.11c-.78-.19-1.59-.13-2.41.17-.74.27-1.37.69-1.88 1.26s-.83 1.25-.97 2.03c-.14.79-.06 1.6.25 2.43.23.64.56 1.22.97 1.74.41.52.89.93 1.42 1.23l-1.07-.32 2.64-.96-1.27-3.47 1.76-.64 1.99 5.44-5.04 1.84c-.75-.54-1.41-1.19-1.98-1.94-.57-.75-1.02-1.55-1.33-2.41-.41-1.12-.53-2.22-.37-3.32ZM705.6 334.4l.41 2.12-7.88 1.53c-.79.15-1.38.53-1.77 1.11-.39.59-.51 1.28-.36 2.07.16.8.52 1.4 1.11 1.78.58.39 1.27.51 2.06.35l7.88-1.53.41 2.1-7.77 1.51c-.91.18-1.75.14-2.53-.1-.78-.25-1.44-.69-1.98-1.34-.54-.65-.9-1.45-1.08-2.4-.18-.94-.15-1.81.11-2.61.25-.8.7-1.46 1.32-2.01.63-.54 1.39-.9 2.3-1.08l7.77-1.51ZM708.47 356.45l-12.29 6.21-.09-2.29 3.37-1.68.77-.23 5.26-2.66v-.09s-5.46-2.23-5.46-2.23l-.78-.13-3.5-1.41-.09-2.32 12.75 5.26.06 1.56Zm-7.57 3.22l-1.87.07-.29-7.41 1.87-.07.29 7.41ZM505.18 396.81l-1.72.52-4.64-15.54 1.72-.51 4.64 15.54ZM521.46 415.2l-7.05 11.84-1.3-1.88 1.95-3.23.52-.6 3.02-5.06-.05-.07-5.8 1.04-.73.31-3.71.68-1.32-1.91 13.58-2.39.89 1.29Zm-4.66 6.77l-1.54 1.06-4.22-6.1 1.54-1.07 4.22 6.1ZM528.13 423.81l-1.04 7.65.04.04 7.67-.89 1.06 1.08-8.94 8.77-1.52-1.56 4.21-4.13 1.86-1.78-.05-.05-6.47.78-.11-.12.9-6.46-.05-.05-1.83 1.82-4.21 4.13-1.51-1.54 8.94-8.77 1.06 1.08ZM539.84 434.88l5.87 4.39-1.16 1.56-4.14-3.09-1.95 2.61 3.86 2.89-1.13 1.51-3.86-2.89-2.09 2.8 4.14 3.09-1.16 1.56-5.87-4.39 7.5-10.04ZM549.66 441.85l1.9 1.06-6.1 10.94-1.9-1.06 6.1-10.94Zm-1.67 5.74l2.17 1.21 1.82 8.68-2.26-1.26-1.73-8.63Zm.83 2.32l-.45-2.11 1.76.98c.38.21.77.34 1.17.38.4.04.77 0 1.11-.14.34-.14.61-.39.81-.75.28-.5.32-1.01.13-1.53-.2-.51-.58-.93-1.16-1.25l-2.22-1.24.95-1.71 2.45 1.37c.72.4 1.28.89 1.66 1.47.38.58.58 1.19.6 1.84.02.65-.14 1.28-.47 1.89-.34.62-.8 1.09-1.37 1.43-.57.33-1.21.5-1.91.49-.7 0-1.4-.2-2.09-.59l-.96-.53ZM563.93 448.98l-4.84 11.55-1.98-.83 4.84-11.56 1.98.83ZM568.17 463.08c-.83-.81-1.4-1.76-1.72-2.87s-.31-2.25.03-3.43c.32-1.12.89-2.08 1.71-2.87.82-.79 1.8-1.32 2.93-1.58 1.13-.26 2.31-.22 3.53.13.7.2 1.37.5 1.99.88.63.38 1.17.82 1.63 1.3l-.65 2.25c-.4-.58-.91-1.09-1.54-1.55-.63-.46-1.27-.78-1.92-.96-.75-.21-1.52-.24-2.3-.08-.78.16-1.47.5-2.06 1.02-.59.52-1 1.19-1.24 2-.22.77-.23 1.55-.02 2.33.21.78.6 1.46 1.17 2.04.58.58 1.27.99 2.09 1.23.72.21 1.44.27 2.18.18.74-.08 1.43-.3 2.09-.64l-.67 2.34c-.66.2-1.36.3-2.11.29-.75 0-1.47-.1-2.18-.31-1.14-.33-2.13-.89-2.96-1.7ZM588.96 455.36l4.15 13.13-2.27-.28-1.12-3.6-.1-.79-1.78-5.62h-.09s-3.08 5.01-3.08 5.01l-.26.75-1.96 3.22-2.3-.28 7.25-11.73 1.55.19Zm1.96 7.98l-.23 1.86-7.36-.91.23-1.86 7.36.91ZM610.22 467.38c-1.08-.43-1.97-1.09-2.69-1.99s-1.15-1.96-1.29-3.18c-.13-1.16.03-2.26.48-3.31.45-1.05 1.15-1.91 2.1-2.59.94-.67 2.05-1.08 3.31-1.23.73-.08 1.45-.07 2.18.05s1.39.31 2 .58l.27 2.32c-.59-.38-1.26-.66-2.02-.84-.76-.18-1.47-.23-2.14-.16-.78.09-1.49.36-2.16.81-.66.45-1.17 1.03-1.51 1.73-.35.7-.47 1.48-.38 2.33.09.8.38 1.52.87 2.16.49.64 1.11 1.12 1.87 1.44s1.56.43 2.4.33c.74-.08 1.43-.3 2.08-.66s1.21-.82 1.69-1.4l.28 2.42c-.53.43-1.14.79-1.83 1.08-.69.28-1.4.47-2.13.55-1.18.13-2.31-.01-3.38-.44ZM620.71 453.81l7.09-1.83.48 1.88-5 1.29.81 3.15 4.67-1.21.47 1.83-4.67 1.21.87 3.38 5-1.29.49 1.88-7.09 1.83-3.13-12.13ZM633.7 449.99l9.85 5.26.07-.03-1.19-2.72-2.22-5.26 1.99-.84 4.86 11.54-1.43.6-9.84-5.27-.07.03 1.16 2.71 2.22 5.27-1.99.84-4.87-11.54 1.43-.6ZM645.86 444.49l8.59-5.27 1.02 1.66-8.59 5.27-1.02-1.66Zm4.21-.71l1.84-1.13 5.72 9.31-1.84 1.13-5.72-9.31ZM657.81 436.75l1.68-1.39 7.98 9.66-1.68 1.39-7.98-9.66Zm7.2 3.72l-2.13-.34 1.55-1.28c.33-.28.59-.59.78-.95s.28-.72.27-1.09c0-.37-.14-.71-.4-1.02-.37-.44-.82-.67-1.37-.67-.55 0-1.08.2-1.59.62l-1.96 1.62-1.25-1.51 2.17-1.79c.64-.53 1.29-.86 1.97-1.01.68-.14 1.32-.11 1.93.11.61.22 1.14.59 1.59 1.13.45.55.73 1.15.83 1.8.1.65.03 1.31-.24 1.96-.26.65-.7 1.23-1.31 1.73l-.85.7Zm-2.46-.07l1.92-1.58 8.75 1.46-2 1.65-8.66-1.53ZM671.86 423.64l13.14 4.13-1.53 1.7-3.59-1.15-.71-.37-5.62-1.77-.06.07 2.35 5.41.47.64 1.52 3.45-1.55 1.72-5.45-12.67 1.05-1.16Zm7.66 2.98l1.39 1.25-4.96 5.51-1.39-1.25 4.96-5.51ZM679.06 414.45l8.77 5.93 2.88-4.26 1.61 1.09-4.09 6.05-10.38-7.02 1.21-1.79ZM699.21 382.42l1.72.54-4.82 15.49-1.72-.53 4.82-15.49Z" />

  <g transform="scale(1.2) ">
    <g clip-path="url(#b)">
      <path fill="#fff" d="m500.001 226.408-31.479 54.535-15.42 26.702H546.9l-14.714-25.484-32.184-55.753z" />
      <g id="d">
        <g id="c">
          <path fill="#17c0eb" stroke="#17c0eb" stroke-width=".129"
            d="m500.001 226.408-2.357 4.082 2.357 54.977 2.357-54.977z" opacity=".62" />
          <path fill="#fff" d="m500.001 277.475-.134.003.134 3.111.134-3.111-.134-.003z" />
        </g>
        <use xlink:href="#c" transform="rotate(72 500.001 285.467)" />
        <use xlink:href="#c" transform="rotate(144 500.001 285.467)" />
        <use xlink:href="#c" transform="rotate(216 500.001 285.467)" />
        <use xlink:href="#c" transform="rotate(288 500.001 285.467)" />
      </g>
      <use xlink:href="#d" transform="rotate(8 500.001 285.467)" />
      <use xlink:href="#d" transform="rotate(16 500.001 285.467)" />
      <use xlink:href="#d" transform="rotate(24 500.001 285.467)" />
      <use xlink:href="#d" transform="rotate(32 500.001 285.467)" />
      <use xlink:href="#d" transform="rotate(40 500.001 285.467)" />
      <use xlink:href="#d" transform="rotate(48 500.001 285.467)" />
      <use xlink:href="#d" transform="rotate(56 500.001 285.467)" />
      <use xlink:href="#d" transform="rotate(64 500.001 285.467)" />
      <path fill="red"
        d="M500 265.844a44.236 44.236 0 0 0-28.969 10.75L456.375 302a44.728 44.728 0 0 0-.75 8.25h5.031c0-21.726 17.618-39.344 39.344-39.344s39.344 17.618 39.344 39.344h5.031a44.85 44.85 0 0 0-.75-8.25l-14.656-25.406A44.249 44.249 0 0 0 500 265.844z" />
      <path fill="#f60"
        d="M500 266.656c-11.764 0-22.44 4.675-30.281 12.25l-12.031 20.844a43.596 43.596 0 0 0-1.281 10.5h4.25c0-21.726 17.617-39.344 39.343-39.344s39.344 17.618 39.344 39.344h4.25c0-3.625-.447-7.164-1.281-10.531l-12.031-20.813c-7.841-7.574-18.518-12.25-30.282-12.25z" />
      <path fill="#ff0"
        d="M500 267.469c-12.702 0-24.1 5.522-31.938 14.313l-8.718 15.093a42.733 42.733 0 0 0-2.125 13.375h3.437c0-21.726 17.618-39.344 39.344-39.344s39.344 17.618 39.344 39.344h3.437c0-4.673-.74-9.165-2.125-13.375l-8.719-15.095c-7.836-8.788-19.237-14.312-31.938-14.312z" />
      <path fill="#0f0"
        d="M500 268.25c-14.55 0-27.372 7.414-34.906 18.656l-2.813 4.875a41.818 41.818 0 0 0-4.282 18.47h2.657c0-21.727 17.617-39.345 39.343-39.345s39.344 17.618 39.344 39.344H542a41.824 41.824 0 0 0-4.28-18.437l-2.845-4.937c-7.536-11.227-20.337-18.625-34.875-18.625z" />
      <path fill="#0cf"
        d="M500 269.062c-22.747 0-41.188 18.44-41.188 41.188h1.844c0-21.727 17.618-39.344 39.344-39.344s39.344 17.617 39.344 39.344h1.844c0-22.748-18.44-41.188-41.188-41.188z" />
      <path fill="#00f"
        d="M500 269.844c-22.306 0-40.375 18.1-40.375 40.406h1.344c0-21.56 17.472-39.031 39.031-39.031s39.031 17.472 39.031 39.031h1.375c0-22.306-18.1-40.406-40.406-40.406z" />
      <path fill="purple"
        d="M500.001 270.657c-21.864 0-39.589 17.725-39.589 39.589l.007.733h.801a35.827 35.827 0 0 1-.007-.733c0-21.422 17.366-38.788 38.788-38.788s38.788 17.366 38.788 38.788l-.007.733h.797l.007-.733c0-21.864-17.721-39.589-39.585-39.589z" />
      <path fill="#510000"
        d="M500.395 288.134c-.644-.124-1.226-.484-1.775-.61-.756.725-.835 1.457-.731 2.08.262.14.31.353.878.86s.496.773.462 1.965c-.015.503.07 1.581.579 1.682.548.11.932-.346 1.09-1.16.152-.79.417-1.216.698-1.702.306-1.852-.193-2.508-1.201-3.115z" />
      <path fill="red"
        d="M497.168 283.524c-.595.015-1.528 1.012-1.943.475-.239-.308-.279-.902-.037-1.4.559-1.151 1.124-1.716 2.167-2.33 2.378-1.401 3.89-.95 5.074 1.063 1.098 1.772 2.152 3.73 2.246 5.371.03.501.283 1.408-.156 1.86-1.348 1.39-4.596-1.435-6.497-.988-.64.15-1.377.617-1.98.218-.47-.31-.078-.997.272-1.294.612-.52 1.501-2.365 1.38-3.165-.067-.446-.08.179-.526.19z" />
      <path fill="#8a0000"
        d="M496.927 282.548c-1.083.445-.966 1.076-1.51 1.59.154.058.766.31 1.364-.301.258-.214.548-.293.677-.362-.305.221-.523.554-.684.684-.404.329-1.034 1.083-1.34 1.846s-.43 1.673-.376 1.782.426.78 1.566 1.232c2.03.807 2.417 2.439 4.477 2.439 1.614 0 1.355-1.056 2.646-.832 1.12.194 1.714-.696.636-1.232-1.371-.468-4.092-.192-5.372.033-.414-4.083-.056-2.65-.152-4.405s-.623-1.86.072-3.281c-.578.872-1.277.734-2.004.807z" />
      <path fill="#ff2a2a"
        d="M500.938 279.795c-.04.223-.077.516-.056.6l.278.994c.115.336.162.58.24.928.082.36.401.5.694.722.37.28.084 1.037.315 1.069.184.025.488-1.072.49-1.247a3.8 3.8 0 0 0-.037-.647 15.3 15.3 0 0 0-.426-.872 3.652 3.652 0 0 0-.203-.337 4.204 4.204 0 0 0-.786-.863l-.056-.047-.259-.187-.194-.113z" />
      <path fill="#ff2a2a"
        d="M501.249 287.398c-.718-.188-1.426-.543-2.037-.725-1.2-.359-2.48-1.134-3.366-.814-.317.14-.289.456-.39.91-.042.533-.596 1.32-.136 1.062.685-.383 2.49.733 3.095 1.106.287.177.892.524 1.082 1.022s.092 1.756.041 2.296c-.053.566.119 1.835.686 1.987.611.163 1.078-.323 1.316-1.23.23-.881.405-1.387.757-1.915s.756-.756 1.32-.863 1.382.462 1.382-.203c0-.437-.384-.855-.22-1.454.128-.472-.402-.378-.842-.572-1.036-.319-1.97-.42-2.688-.607z" />
      <path fill="#910000"
        d="M498.363 288.902c-.327-.178-2.315-1.478-3.043-1.071-.23.128-.317-.016-.32-.257s.109-.594.184-.866.195-.792.516-1.062c.687-.58 2.269.575 3.108.886l-.445 2.37z" />
      <path fill="#ff3a3a"
        d="M501.763 291.361c.916-1.603 1.508-1.397 2.613-1.374.369.008.477-.329.393-.667-.278.624-1.662-.07-2.415.263-1.573.692-1.28 3.77-2.027 4.07.776.651 1.124-1.746 1.436-2.292z" />
      <g fill="#04a">
        <path fill="#fff" d="m453.103 307.645-9.955 17.237h113.708l-9.956-17.237h-93.797z" />
        <g id="i">
          <path id="h"
            d="M449.705 321.364c-1.658 0-3.197.167-4.71.353l-.486.846 7.14-.709c3.293.08 6.283.83 9.786.83h4.526c3.5 0 6.489-.75 9.783-.83 3.295.08 6.304.83 9.803.83h4.53c3.5 0 6.474-.75 9.765-.83 3.293.08 6.27.83 9.769.83h4.543c3.5 0 6.49-.75 9.787-.83 3.296.08 6.28.83 9.782.83h4.53c3.499 0 6.475-.75 9.765-.83 2.55.062 4.92.518 7.486.724l-.515-.893-4.368-.321c-1.529-.02-3.036.03-4.547 0-3.5 0-6.474.748-9.765.829-3.296-.08-6.283-.829-9.786-.829-1.513-.02-3.03.031-4.526 0-3.5 0-6.493.749-9.786.829-3.294-.08-6.284-.829-9.783-.829-1.522-.02-3.042.03-4.547 0-3.5 0-6.476.749-9.765.829-3.294-.08-6.27-.829-9.769-.829-1.522-.021-3.026.031-4.526 0-3.502 0-6.49.749-9.786.829-3.294-.08-6.283-.829-9.783-.829-1.52-.02-3.043.031-4.547 0z" />
          <use xlink:href="#h" y="-1.113" />
          <use xlink:href="#h" y="-2.23" />
        </g>
        <use xlink:href="#i" y="-3.344" />
        <use xlink:href="#i" y="-6.691" />
        <path
          d="m453.23 307.458-.123.215h93.79l-.124-.215H453.23zm-.219.377-.127.22h94.235l-.127-.22h-93.98zm-.2.346-.205.356h94.792l-.205-.356H452.81zm-.318.55-.25.434h95.518l-.25-.433h-95.018zm-.399.692-.25.434h96.316l-.25-.434h-95.816zm-.399.691-.247.43h97.107l-.247-.43h-96.613zm-.398.692-.25.43h97.91l-.25-.43h-97.41zm-.43.744-.304.53h98.877l-.303-.53h-98.27zm6.49.737c3.45.662 3.782 0 3.782 0zm81.503 0s.331.662 3.782 0z" />
      </g>
      <g fill="#ccd11e">
        <g id="k">
          <path fill="#97c924"
            d="M530.631 297.043c-1.709 0-2.232.862-2.232.862-2.736 10.576-11.807 21.333-22.6 21.333h-8.08v10.768h61.514l-6.187-10.954c-9.707-1.449-17.64-11.373-20.166-21.147 0 0-.54-.862-2.25-.862z" />
          <path fill="#97c924"
            d="M530.631 297.465c-.784 0-1.26.18-1.538.355-.264.165-.315.276-.321.288 0 .007-.015.01-.018.016-1.4 5.323-4.352 10.669-8.334 14.707-4.012 4.07-9.07 6.83-14.605 6.83h-7.674v9.922h60.855l-5.68-10.058c-4.687-.612-8.973-3.163-12.458-6.694-3.986-4.038-6.932-9.384-8.334-14.707l-.017-.016c-.007-.012-.07-.105-.338-.271-.283-.176-.754-.372-1.538-.372z" />
          <path fill="#ede71f"
            d="M530.63 297.465c.147 0 .28.021.406.034V308.3c-.029 2.34-.83 4.223-2.012 6.441-.547 1.554-.986.963-2.35 2.857-1.83.654-3.186.909-5.138 1.216-2.517.398-8.121.75-10.887.136 3.641-1.068 6.961-3.27 9.771-6.12a30.57 30.57 0 0 0 2.13-2.4 33.663 33.663 0 0 0 3.01-4.48c.352-.626.686-1.248.997-1.893.467-.966.883-1.95 1.25-2.94.124-.331.245-.667.356-.998.222-.664.417-1.33.592-1.995.002-.006.015-.01.016-.017s.058-.122.321-.287a2.23 2.23 0 0 1 .575-.237h.017c.252-.067.554-.118.946-.118z" />
          <path fill="#c6cb24"
            d="M529.938 298.902c-.412 6.034-2.277 13.192-6.644 17.81-1.607 1.337-3.66 2.55-5.646 2.255 6.77-5.51 10.885-13.947 12.29-20.065z" />
          <path fill="#9ecb34"
            d="M524.494 309.281c-1.002 2.721-4.788 6.746-8.84 10.045-1.15.035-1.76.101-2.804.038 2.468-.225 8.221-5.083 11.644-10.083z" />
        </g>
        <use xlink:href="#k" x="-15.341" />
        <g fill="#c6cb24">
          <path fill="#97c924"
            d="M502.218 297.911c2.735 10.575 11.79 21.333 22.583 21.333h8.089v10.768h-65.812l-.017-10.768h8.072c10.792 0 19.863-10.758 22.6-21.333 0 0 .534-.866 2.243-.866s2.243.866 2.243.866z" />
          <path fill="#97c924"
            d="M499.975 297.465c.784 0 1.255.196 1.538.372.269.166.332.259.339.27l.017.017c1.401 5.323 4.348 10.669 8.333 14.707 4.017 4.07 9.087 6.83 14.623 6.83h7.64v9.922h-64.98v-9.923h7.675c5.535 0 10.593-2.76 14.605-6.83 3.982-4.037 6.934-9.383 8.334-14.706.003-.007.015-.01.017-.016.006-.012.057-.123.32-.288.28-.174.755-.355 1.539-.355z" />
          <path fill="#ede71f"
            d="M499.263 297.53a3.4 3.4 0 0 0-.242.055h-.018a2.184 2.184 0 0 0-.572.236c-.264.165-.314.274-.32.286-.003.006-.017.01-.018.017l-.593 1.997-.356.995-1.249 2.942a34.21 34.21 0 0 1-.998 1.894 33.634 33.634 0 0 1-3.01 4.477 30.73 30.73 0 0 1-2.13 2.403c-2.81 2.85-6.128 5.05-9.769 6.117 2.765.615 4.032-.056 6.549-.454 1.952-.308 4.21-.563 6.043-1.217 1.364-1.894.899-1.3 1.446-2.854 1.181-2.218 2.906-4.222 3.334-6.681 1.619-3.022 1.903-8.614 1.903-10.213z" />
          <path
            d="M499.275 298.902c-.412 6.034-2.277 13.192-6.644 17.81-1.606 1.337-3.66 2.55-5.646 2.255 6.77-5.51 10.885-13.947 12.29-20.065z" />
          <path fill="#9ecb34"
            d="M493.832 309.281c-1.002 2.721-4.788 6.747-8.84 10.045-1.15.035-1.76.101-2.804.038 2.467-.225 8.222-5.083 11.644-10.083z" />
          <path fill="#ede71f"
            d="M500.951 297.584h.018a2.21 2.21 0 0 1 .571.236c.264.165.315.274.321.286.002.006.016.011.018.018l.592 1.996.357.995 1.249 2.942.998 1.895a33.634 33.634 0 0 0 3.01 4.477 30.73 30.73 0 0 0 2.13 2.402c2.81 2.85 6.128 5.445 9.768 6.512-7.245.028-10.389-.63-13.022-4.016s-3.606-4.868-4.14-6.937-2.026-6.57-1.87-10.806z" />
          <path
            d="M501.476 298.902c.412 6.034 2.22 12.006 6.587 16.625 1.607 1.337 3.66 2.55 5.646 2.255-7.335-5.002-10.829-12.762-12.233-18.88z" />
        </g>
        <g id="l">
          <path fill="#97c924"
            d="M484.749 297.043c-1.71 0-2.248.862-2.248.862-2.523 9.747-11.825 22.318-21.497 23.811l-4.79 8.29h49.015v-11.348c-8.825-2.371-15.89-11.63-18.248-20.753 0 0-.523-.862-2.232-.862z" />
          <path fill="#97c924"
            d="M484.749 297.465c-.784 0-1.255.196-1.538.372-.269.166-.332.259-.338.27l-.017.017c-1.402 5.323-4.678 10.705-8.08 14.99s-9.72 8.617-14.042 9.076l-4.282 7.393h48.06V318.89c-3.554-1.091-6.8-3.267-9.552-6.06-3.982-4.037-6.934-9.383-8.334-14.706-.002-.007-.015-.01-.017-.016-.006-.012-.058-.123-.321-.288-.28-.174-.755-.355-1.539-.355z" />
          <path fill="#93bc30"
            d="M483.445 298.903c-.617 9.043-5.653 20.454-11.34 22.42-1.855.64-5.099.864-6.227 1.008 9.948-4.731 15.828-15.853 17.567-23.428z" />
          <path fill="#ede71f"
            d="M484.746 297.465c-.147 0-.28.021-.406.034V308.3c.03 2.34.831 4.223 2.012 6.441.069.194.136.354.203.49.41 1.086.713 1.463 2.282 2.654 4.987 3.787 11.17 4.353 14.808 4.04-1.14-.898-2.358-1.715-3.431-2.467 1.711-.056 3.35-.25 4.513-.508-3.64-1.067-6.96-3.27-9.77-6.12a30.523 30.523 0 0 1-1.403-1.554l-.592-.812c-1.118-1.4-2.263-2.947-3.145-4.513a34.164 34.164 0 0 1-.997-1.894 34.023 34.023 0 0 1-1.606-3.938 31.676 31.676 0 0 1-.592-1.995c-.002-.006-.015-.01-.017-.017s-.057-.122-.321-.287a2.207 2.207 0 0 0-.575-.237h-.017a3.614 3.614 0 0 0-.946-.118z" />
          <path
            d="M485.446 298.902c.412 6.034 2.277 13.192 6.644 17.81 1.606 1.337 3.66 2.55 5.646 2.255-6.77-5.51-10.886-13.947-12.29-20.065z" />
          <path fill="#9ecb34"
            d="M489.613 307.247c2.369 5.837 8.37 11.29 14.543 14.954 1.15.035 1.492.003 2.537-.06-4.419-2.371-11.539-5.754-17.08-14.894z" />
        </g>
        <use xlink:href="#l" x="-15.43" fill="#c6cb24" />
      </g>
      <path fill="#fff"
        d="M556.5 324.692c-.574.203-4.421-.19-6.433-.044l-1.28.336c-1.123-.008-2.238.024-3.33 0-3.602 0-6.649.948-10.075.948-3.433 0-6.47-.948-10.075-.948-1.12-.008-2.234.025-3.33 0-3.602 0-6.647.948-10.076.948s-6.473-.948-10.075-.948c-1.131-.007-2.242.023-3.348 0-3.602 0-6.632.948-10.058.948s-6.456-.948-10.058-.948c-.267 0-.516.009-.776.017l-.557-.017c-.12 0-.222-.003-.34 0-.116-.003-.236 0-.355 0-.181 0-.345.013-.523.017l-.78-.017c-3.605 0-6.642.949-10.075.948s-6.473-.948-10.075-.948c-.262 0-.522.01-.776.017-.18-.004-.339-.017-.522-.017-.124 0-.252-.003-.374 0-.117-.003-.237 0-.356 0-.181 0-.362.013-.54.017l-.776-.017c-2.88 0-6.218.607-8.936.85l-6.273 10.858 62.972-.007 64.375.007z" />
      <path fill="#04a"
        d="m547.993 323.111-.596.007c-3.24.095-5.564 1.115-11.2 1.115s-6.219-1.019-12.584-.879c-5.947.131-8.443 1.262-11.67 1.217s-8.473-.697-12.51-.275-8.828 1.284-11.973 1.291c-3.909-.017-7.82-.73-11.906-.324s-5.997 1.5-11.063 1.485c-4.356-.013-9.083-.698-12.746-.695-3.435.003-7.267.957-10.086 1.443l-.843 1.464c2.247-.26 8.551-1.218 10.802-1.277 2.344-.061 10.717.483 15.335.325s5.158-1.172 10.618-1.172c3.801 0 6.666.399 10.566.399 2.434 0 4.643-1.242 8.343-1.242l2.794-.091c3.119-.515 8.384.045 12.048.232 3.315.173 5.457-.615 8.914-.73l4.474-.148c3.46-.115 6.422.64 9.68.624 3.25-.2 6.403-.922 9.86-1.037l4.49-.148c2.287-.076 5.837.078 8.273.501l-.84-1.45c-2.379-.076-5.311-.635-8.18-.635z" />
      <g id="n">
        <path id="m" fill="#04a"
          d="M450.312 334.748c-3.457 0-6.402.853-9.652.945-1.21-.033-2.367-.183-3.535-.345l-.49.85 1.488.063h4.474c3.457 0 6.382-.852 9.634-.945 3.254.092 6.206.945 9.666.945h4.474c3.457 0 6.412-.853 9.666-.945 3.256.092 6.23.945 9.687.945h4.47c3.457 0 6.401-.853 9.652-.945 3.253.092 6.191.945 9.649.945h4.49c3.458 0 6.41-.853 9.667-.945 3.257.092 6.21.945 9.67.945h4.47c3.456 0 6.4-.853 9.651-.945 3.253.092 6.21.945 9.666.945h4.474l1.778-.077-.463-.797-3.235.306c-3.254-.092-6.195-.945-9.652-.945-1.51-.02-2.997.03-4.49 0-3.458 0-6.397.853-9.649.945-3.257-.091-6.206-.945-9.666-.945-1.496-.02-2.993.03-4.473 0-3.458 0-6.413.853-9.667.945-3.254-.092-6.209-.945-9.666-.945-1.503-.02-3.003.03-4.49 0-3.458 0-6.4.853-9.65.945-3.253-.092-6.194-.945-9.651-.945-1.506-.02-2.99.03-4.474 0-3.46 0-6.409.854-9.666.945-3.254-.092-6.208-.945-9.666-.945-1.502-.02-3.006.03-4.49 0z" />
        <use xlink:href="#m" y="-1.289" />
        <use xlink:href="#m" y="-2.575" />
      </g>
      <use xlink:href="#n" y="-3.867" />
      <use xlink:href="#n" y="-7.729" />
      <path fill="#97c924"
        d="m443.846 324.705-2.427 4.191c2.839-.47 7.102-1.703 10.634-1.706 3.663-.003 8.082.903 12.438.916 5.066.014 6.976-1.079 11.063-1.485s7.998.527 11.906.545c3.145-.007 7.936-1.09 11.973-1.512s7.737.293 12.603.369 5.63-1.18 11.576-1.31c6.366-.141 6.947.877 12.584.877 4.242.229 7.883-.854 11.666-1.121s5.539.043 8.305.109l-1.838-3.253c-.03 0-.06.003-.092.004l-101.246 2.226z" />
      <path fill="#fff"
        d="m550.067 324.648 3.847.276a91.39 91.39 0 0 0 2.955.253l-.37-.485c-.573.203-4.42-.19-6.432-.044z" />
    </g>
    <path fill="#b28451"
      d="m500 224.874-32.142 55.686L435 337.459l64.298-.007 65.702.007-32.153-55.683L500 224.874zm0 3.002 31.55 54.652 30.85 53.428-63.102-.004-61.701.004 31.56-54.645z" />
  </g>
</svg>