<svg xmlns="http://www.w3.org/2000/svg" width="1200" height="720">
  <path fill="#000" d="m0 0h1200v720H0Z" />
  <path fill="#c22f2e" d="m0 0h1200v720Z" />
  <path fill="#f8d048"
    d="m896 268c1-3 1-5 3-6 5-2 15 11 19 11 3 0 3-7 6-7 2 0 25 24 31 54-21-25-47-44-59-52Zm-147-65c-8 10-26-11-49-11-37 0-76 76-73 81 2 4 15-15 20-15-2 6-1 15 2 16s12-12 19-12c-3 6-4 14 0 15s17-15 22-15c-3 9 0 17 3 17 4 0 19-20 24-20-2 4-2 19 2 19 5 0 17-24 21-24 2 31 25 64 52 77l2-17c2 7 15 19 21 19l2-11c10 12 30 35 72 47l-11-22 14 2-18-25h10c-12-11-22-26-22-31 0-6 6 1 8 0s-8-20-6-23 23 12 28 12c2 0 3-3 3-6 14 11 42 34 61 62-3 47-44 71-87 55 30 32 85 16 98-37 20 49 4 102-63 96 60 32 119-44 63-117 0-17-13-48-25-65l13 9c1-3 0-10-2-15l19 13c1-13-9-35-18-48l9 1c-3-10-16-26-30-37l9-2c-11-16-33-25-39-29s10-8 15-8c-6-7-42-24-83 0-3-7 20-15 20-23 0-4-4-5-8-7 5-4 12-8 12-12 0-3-6-3-11-2 0-4 9-12 9-17 0-3-7-3-10-1-1-4 8-13 7-15s-8-1-12 2c-3-3 14-17 10-24-13 4-42 22-57 47s5 75-16 75c-14 0-24-19-34-22-10-4-25 2-30 2-6 0-28-5-30-3s22 10 27 13 8 6 13 9c4 3 35 13 24 27Z" />
  <path fill="#fff"
    d="m300 215l32 98-83-60h102l-83 60Zm88 232l83-60h-102l83 60-32-97Zm-28 25l-16 49 42-30h-52l42 30Zm-60 79l-32 98 83-60h-102l83 60Zm-164-94l83-60h-102l83 60-32-98Z" />
</svg>