<svg xmlns="http://www.w3.org/2000/svg" xmlns:xlink="http://www.w3.org/1999/xlink" width="1200" height="720"
  fill="#ffc71c">
  <path fill="#0038a8" d="M0 0h1200v360H196Z" />
  <path fill="#ce1126" d="M196 360h1004v360H0Z" />
  <path fill="#fff" d="M560 360 0 720V0Z" />
  <circle cx="196" cy="360" r="60" />
  <path d="m38 69 46 44-63-9 56-30-28 57Zm420 323v-64l-37 52 60-20-60-20ZM38 651l46-44-63 9 56 30-28-57Z" />
  <g id="b">
    <path xmlns="http://www.w3.org/2000/svg" id="a"
      d="m174 255 7-7 30 224 7-7Zm14-14 8-8 8 8-16 238 8 8 8-8Zm23 7 7 7-44 210 7 7Z" />
    <use xlink:href="#a" transform="rotate(90 196 360)" />
  </g>
  <use xlink:href="#b" transform="rotate(45 196 360)" />
</svg>