<svg xmlns="http://www.w3.org/2000/svg" xmlns:xlink="http://www.w3.org/1999/xlink" width="1200" height="720">
  <path d="m327.17 0h872.83v720H327.17V0Z" fill="#47a3d8" />
  <path
    d="M729 565c16 0 16-38 38-38c26 0 56 29 81 29c24 0 6-32 34-32c22 0 59 28 81 28c19 0 10-31 32-31c13 0 48 30 71 30c16 0 11-29 27-29c26 0 44 24 78 24c10 0 18-3 21-7c-2 1-6 2-16 2c-36 0-58-27-85-27c-21 0-13 30-28 30c-7 0-18-4-27-11c-1-29-19-48-40-59c-8-4-9-6-7-9c20-25 39-54 53-82l18-2l-5-24l13-1v-33c17-37 49-93 59-103c8-8 2-17-9-17c-5 0-9 4-9 10c0 4 1 14-8 14c-17 0-54-12-79-12l-35 59c0 1 3 1 6 1l73 5c5 0 0 12-21 41c-32-1-73-1-78 3c-5-19-10-49-13-74l8-19c19-37 55-79 69-82c9-1 16-6 16-11s-2-7-7-7c-23-7-44-15-66-24c-1-2 6-26 10-31c3-4 3-9-2-12c-4-4-11-4-15 0c-4 3-5 10-2 12c4 2 1 3-4 2c-17-3-33-2-50 2c-14 4-29 4-44 0c-3-1-6-2-9-2l2 5c3 7 10 13 19 15l8 2l-12 3c-5 2-11 3-16 4l-5 2c10 4 15 5 22 5c28 0 49-8 78-8c-21 32-117 78-117 90c0 6 8 7 8 11c0 7-13 38-21 38s-9-21-10-37c14-24 24-43 41-55c8-6 8-10 2-13c-6-2-44-25-61-39c1-10 5-19 10-28c6-10 1-17-8-17s-12 8-10 14c-48-7-73 12-96 3c-6-2-11-8-11-3c0 9 14 18 28 23c-12 7-30 3-30 8c0 3 12 6 24 6c21 0 50-10 63-10c7 0 14 1 14 3c0 7-24 17-39 19v17c-49 55-87 65-87 75c0 6 6 8 3 12c-21 27-25 40-35 63c-9-27-16-55-3-74c21-31 85-59 85-70s-34-11-90-20l4-14c2-6 4-12 8-18c5-5 5-10 0-14c-8-7-20-1-18 9l1 5c-32 1-74 18-91 9c-4-2-8-2-8 3c0 7 8 13 18 18l-33 2c9 24 51 15 76 7c11-3 26-6 26-1s-72 51-78 55s-6 9-2 12c2 2 1 4-1 6c-13 13-24 50-24 65c0 6-1 7-14 21c-29 29-50 52-73 86c-6-6-14-9-19-4c-7 7-2 17 9 17c10 0 30 11 47 19l-5 5c-11 12-6 24 10 21c14-2 36 10 59 33c37 37 56 53 106 82c-12 11-52-21-75-21c-29 0-28 25-43 25c-16 0-38-28-69-28c-22 0-34 18-54 18c-15 0-23-3-36-13c5 11 24 18 36 18c22 0 36-16 55-16c36 1 47 28 68 28c20 0 18-24 43-24c21 0 47 22 70 22c15 0 24-25 40-25c28 0 58 34 82 35Z"
    fill="#0a1a1d" />
  <path d="m.03 239.96h327.14v240.07H.03v-240.07Z" fill="#faf6f5" />
  <path
    d="m301.11 379.54c-2.74 1.75-5.72 2.06-8 1.03-1.71-.82-1.83-.31-.46 1.34 1.05 1.01 2.4 1.72 3.89 2.06 1.37.31 3.89 1.13 5.37 1.65 3.77 1.44 7.09 1.44 9.6 0 5.03-2.78 1.83-7.82-4.92-7.82-1.94 0-3.43.51-5.37 1.75h-.11Zm14.86 6.07c-.34.62-.69 2.26-.69 3.81 0 9.98-4.46 19.44-12.57 27.57-1.27 1.06-2.42 2.23-3.43 3.5 0 .51 9.26.41 10.52-.21 1.14-.51 1.14-.41 1.6 1.54.43 2.57 1.94 4.89 4.23 6.48 1.14.82 1.71.93 3.09.21 2.51-1.03 4.11-3.39 4.46-6.17.23-2.26.46-2.67 1.26-2.26.57.21 3.43.51 6.17.62l5.14.21-2.74-2.88c-3.43-3.34-6.35-7.07-8.69-11.11-2.73-4.57-4.29-9.63-4.57-14.81-.11-2.78-.57-5.55-.8-6.27-.57-1.54-2.17-1.65-2.97-.21Zm-208.49-24.69c-.8.82-1.71 2.47-1.83 3.6l-1.6 4.32c-1.6 3.19-1.6 5.97.11 8.23 2.17 3.09 5.72 3.09 7.54 0 1.6-2.67 1.14-6.58-1.03-9.46-1.81-2.12-2.16-4.98-.91-7.41.8-1.54-.57-1.03-2.29.72Zm7.66 17.59c-1.14.51-2.51 1.23-2.97 1.85-3.43 4.11 4.46 8.54 10.06 5.76 6.06-3.09 6.29-3.09 9.14-2.16 2.4.72 2.51.72 2.06-.21-1.03-1.65-2.51-2.37-8.46-4.22-6.86-2.06-7.09-2.06-9.83-1.03h0Zm-23.43 1.34c-2.86 1.75-5.83 2.16-8 1.03-1.83-.72-1.94-.21-.57 1.44 1.05 1.01 2.4 1.72 3.89 2.06 1.37.31 3.89 1.03 5.49 1.65 3.66 1.44 6.86 1.44 9.49 0 5.03-2.78 1.83-7.82-4.92-7.82-1.94 0-3.43.51-5.37 1.65Zm14.75 6.17c-.34.62-.57 2.26-.57 3.7-.11 10.08-4.57 19.54-12.69 27.57-1.24 1.1-2.35 2.3-3.31 3.6 0 .51 9.14.31 10.4-.31 1.14-.41 1.26-.31 1.6 1.65.43 2.57 1.94 4.89 4.23 6.48 1.26.82 1.71.82 3.2.21 2.4-1.03 4-3.39 4.34-6.27.23-2.16.57-2.57 1.37-2.16.46.21 3.31.51 6.06.62l5.14.21-2.63-2.88c-3.48-3.36-6.44-7.13-8.8-11.21-2.71-4.54-4.27-9.56-4.57-14.71 0-2.88-.57-5.66-.8-6.38-.57-1.44-2.06-1.65-2.97-.1h0Zm104.7-25.41c-.8.93-1.71 2.57-1.94 3.7-.23 1.03-.91 3.09-1.6 4.32-1.49 3.19-1.49 5.97.23 8.23 2.17 3.09 5.72 2.98 7.54 0 1.49-2.67 1.14-6.58-1.14-9.46-1.77-2.14-2.08-4.99-.8-7.41.8-1.54-.57-1.13-2.29.62Zm7.66 17.69c-1.14.51-2.51 1.23-2.97 1.85-3.43 4.11 4.34 8.54 10.06 5.76 6.06-3.09 6.29-3.09 9.14-2.16 2.4.72 2.51.72 2.06-.21-1.03-1.65-2.51-2.47-8.46-4.32-6.86-2.06-7.09-2.06-9.83-.93h0Zm-23.43 1.34c-2.86 1.75-5.83 2.06-8 1.03-1.83-.82-1.94-.31-.57 1.44 1.05 1.01 2.4 1.72 3.89 2.06 1.37.31 3.89 1.03 5.49 1.65 3.66 1.34 6.86 1.34 9.49 0 5.03-2.78 1.83-7.82-4.92-7.82-1.94 0-3.43.41-5.37 1.65Zm14.75 6.17c-.34.51-.57 2.26-.57 3.7-.23 9.98-4.57 19.44-12.69 27.57-1.23 1.06-2.34 2.23-3.31 3.5 0 .62 9.14.41 10.4-.21 1.14-.51 1.26-.31 1.6 1.65.43 2.57 1.94 4.89 4.23 6.48 1.26.72 1.71.82 3.2.21 2.4-1.03 4-3.39 4.34-6.27.23-2.16.57-2.57 1.26-2.16.57.21 3.43.51 6.17.62l5.14.21-2.63-2.88c-3.48-3.36-6.44-7.14-8.8-11.21-2.73-4.57-4.29-9.63-4.57-14.81 0-2.78-.57-5.55-.8-6.27-.57-1.54-2.17-1.65-2.97-.21v.1ZM5.97 360.41c-.8.82-1.71 2.57-1.94 3.6s-.91 3.09-1.6 4.32c-1.6 3.29-1.49 5.97.23 8.33 2.17 2.98 5.72 2.88 7.43 0 1.6-2.78 1.14-6.58-.91-9.57-1.81-2.12-2.16-4.98-.91-7.41.8-1.44-.69-1.03-2.29.72h0Zm7.54 17.69c-1.14.41-2.4 1.23-2.86 1.75-3.43 4.11 4.34 8.54 10.06 5.86 6.06-3.09 6.17-3.09 9.14-2.26 2.29.72 2.51.72 2.06-.1-1.03-1.75-2.51-2.47-8.46-4.32-6.86-2.06-7.09-2.06-9.94-1.03v.1Zm300.96-149.14c-.34.62-.57 2.26-.57 3.81-.11 9.98-4.57 19.34-12.69 27.57-1.23 1.06-2.34 2.23-3.31 3.5 0 .51 9.14.31 10.4-.31 1.14-.41 1.26-.31 1.6 1.65.43 2.57 1.94 4.89 4.23 6.48 1.26.82 1.71.82 3.2.21 2.4-1.03 4-3.39 4.34-6.27.23-2.16.57-2.57 1.37-2.16.46.21 3.31.51 6.06.62l5.14.21-2.63-2.88c-3.48-3.36-6.44-7.13-8.8-11.21-2.71-4.54-4.27-9.56-4.57-14.71 0-2.88-.57-5.66-.8-6.38-.57-1.44-2.06-1.54-2.97-.1h0Zm-209.52.31c-.23.62-.57 2.37-.57 3.81-.11 9.98-4.57 19.44-12.69 27.57-1.23 1.06-2.34 2.23-3.31 3.5 0 .62 9.14.41 10.52-.21 1.14-.51 1.14-.31 1.6 1.65.4 2.55 1.87 4.87 4.11 6.48 1.26.72 1.83.82 3.2.1 2.4-1.03 4-3.29 4.34-6.17.34-2.16.57-2.57 1.37-2.16.57.21 3.31.41 6.06.62l5.26.21-2.74-2.98c-3.47-3.33-6.43-7.07-8.8-11.11-2.69-4.58-4.21-9.64-4.46-14.81-.23-2.78-.57-5.55-.8-6.27-.69-1.54-2.29-1.65-3.09-.21Zm103.67-.21c-.34.62-.57 2.26-.57 3.81-.11 9.98-4.57 19.44-12.69 27.57-1.23 1.06-2.34 2.23-3.31 3.5 0 .62 9.14.41 10.52-.21 1.14-.51 1.14-.31 1.49 1.65.43 2.57 1.94 4.89 4.23 6.48 1.26.72 1.71.82 3.2.1 2.4-1.03 4-3.29 4.34-6.17.34-2.26.57-2.57 1.37-2.26.57.31 3.31.51 6.06.62l5.14.31-2.63-2.98c-3.47-3.33-6.43-7.07-8.8-11.11-2.65-4.59-4.13-9.65-4.34-14.81-.23-2.78-.57-5.55-.91-6.27-.57-1.54-2.06-1.65-2.97-.21h-.11Zm-204.03 0c-.34.62-.69 2.26-.69 3.81 0 4.94-1.6 10.59-3.77 15.22l-.11 17.28c.4 2.55 1.87 4.87 4.11 6.48 1.37.82 1.83.82 3.2.21 2.51-1.03 4.11-3.39 4.34-6.27.34-2.16.57-2.57 1.37-2.16.57.21 3.43.51 6.17.62l5.14.21-2.74-2.88c-3.44-3.37-6.36-7.14-8.69-11.21-2.71-4.54-4.27-9.56-4.57-14.71-.11-2.88-.57-5.66-.8-6.38-.57-1.44-2.17-1.54-2.97-.1v-.1Zm260.16 212.2c-.8 1.03-1.71 2.57-1.94 3.7-.23 1.03-.91 3.09-1.6 4.32-1.6 3.29-1.49 5.97.23 8.23 2.17 3.09 5.72 3.09 7.43 0 1.6-2.67 1.14-6.58-.91-9.46-1.81-2.12-2.16-4.98-.91-7.41.8-1.54-.69-1.03-2.29.72v-.1Zm7.54 17.69c-1.14.51-2.4 1.23-2.86 1.85-3.43 4.11 4.34 8.54 10.06 5.76 6.06-3.09 6.17-3.09 9.14-2.06 2.4.62 2.51.62 2.06-.31-1.03-1.65-2.51-2.37-8.46-4.22-6.86-2.06-7.09-2.06-9.94-1.03Zm-23.32 1.34c-2.86 1.75-5.83 2.16-8 1.03-1.83-.72-1.94-.21-.57 1.44 1.05 1.01 2.4 1.72 3.89 2.06 1.37.31 3.89 1.03 5.49 1.65 3.66 1.44 6.86 1.44 9.49 0 5.03-2.78 1.83-7.82-4.92-7.82-1.94 0-3.43.51-5.37 1.65Zm15.89 5.76c-.34.62-.69 2.26-.69 3.7 0 9.98-4.46 19.23-12.57 27.36-1.27 1.06-2.42 2.23-3.43 3.5 0 .51 9.26.31 10.52-.21 1.14-.51 1.14-.41 1.6 1.54.46 2.67 2.17 5.14 4.11 6.38 1.37.82 1.83.93 3.2.21 2.51-1.03 4.11-3.29 4.34-6.17.34-2.16.57-2.57 1.37-2.16.57.21 3.43.51 6.17.62l5.14.21-2.74-2.88c-3.43-3.3-6.35-7-8.69-11.01-2.73-4.53-4.3-9.56-4.57-14.71-.11-2.78-.57-5.55-.8-6.17-.57-1.54-2.17-1.65-2.97-.21h0Zm-209.64-24.27c-.8.93-1.71 2.57-1.83 3.6l-1.6 4.42c-1.6 3.19-1.6 5.97.11 8.23 2.17 3.09 5.72 2.98 7.54 0 1.6-2.78 1.14-6.58-1.03-9.46-1.81-2.12-2.16-4.98-.91-7.41.8-1.54-.57-1.13-2.29.62h0Zm7.66 17.69c-1.14.41-2.51 1.23-2.86 1.85-3.43 4.11 4.34 8.43 9.94 5.76 6.06-3.09 6.29-3.09 9.14-2.16 2.4.72 2.51.72 2.06-.21-.91-1.65-2.51-2.47-8.46-4.32-6.86-2.06-7.09-2.06-9.83-.93h0Zm-23.43 1.34c-2.86 1.75-5.83 2.06-8 1.03-1.71-.82-1.94-.31-.57 1.34 1.05 1.01 2.4 1.72 3.89 2.06l5.49 1.75c3.66 1.34 6.86 1.34 9.49 0 5.03-2.78 1.94-7.82-4.92-7.82-1.94 0-3.43.41-5.37 1.65Zm16 5.76c-.34.51-.69 2.26-.69 3.7-.11 9.87-4.57 19.23-12.69 27.36-1.18 1-2.25 2.1-3.2 3.29 0 .62 9.14.41 10.29-.21 1.14-.51 1.26-.31 1.71 1.65.46 2.67 2.06 5.14 4.11 6.38 1.26.82 1.83.82 3.2.21 2.4-1.03 4-3.29 4.34-6.17.34-2.16.57-2.57 1.37-2.16.57.21 3.31.41 6.17.62l5.14.21-2.74-2.88c-3.48-3.33-6.44-7.07-8.8-11.11-2.68-4.51-4.2-9.5-4.46-14.61-.11-2.78-.57-5.55-.8-6.17-.69-1.54-2.29-1.65-3.09-.21l.11.1Zm103.45-24.99c-.8.93-1.71 2.57-1.94 3.6-.23 1.13-.91 3.09-1.49 4.42-1.6 3.19-1.6 5.97.11 8.23 2.17 3.09 5.72 2.98 7.54 0 1.6-2.78 1.14-6.58-1.03-9.46-1.81-2.12-2.16-4.98-.91-7.41.8-1.54-.57-1.13-2.29.62h0Zm7.66 17.69c-1.14.41-2.51 1.23-2.97 1.75-3.43 4.11 4.34 8.54 10.06 5.86 6.06-3.09 6.29-3.09 9.14-2.16 2.4.72 2.51.72 2.06-.21-1.03-1.65-2.51-2.47-8.46-4.32-6.86-2.06-7.09-2.06-9.83-.93Zm-23.43 1.34c-2.86 1.75-5.83 2.06-8 1.03-1.83-.82-1.94-.31-.57 1.34 1.05 1.01 2.4 1.72 3.89 2.06l5.49 1.75c3.66 1.34 6.86 1.34 9.49 0 5.03-2.78 1.83-7.82-4.92-7.82-1.94 0-3.43.41-5.37 1.65Zm15.89 5.66c-.34.62-.57 2.26-.57 3.81-.11 9.87-4.57 19.23-12.69 27.26-1.23 1.06-2.34 2.23-3.31 3.5 0 .62 9.14.41 10.4-.21 1.14-.51 1.26-.31 1.6 1.65.57 2.57 2.29 5.14 4.23 6.38 1.26.82 1.71.82 3.2.21 2.4-1.03 4-3.39 4.34-6.17.23-2.26.57-2.57 1.37-2.26.46.31 3.2.51 6.06.62l5.14.31-2.63-2.88c-3.48-3.33-6.44-7.07-8.8-11.11-2.71-4.5-4.28-9.49-4.57-14.61 0-2.78-.57-5.55-.8-6.27-.57-1.54-2.17-1.65-2.97-.21Zm105.39-183.4c-.8.82-1.71 2.47-1.94 3.6-.23 1.03-.91 3.09-1.6 4.32-1.49 3.29-1.49 5.97.23 8.23 2.17 3.09 5.72 3.09 7.54 0 1.49-2.67 1.14-6.58-1.14-9.46-1.77-2.14-2.08-4.99-.8-7.41.8-1.54-.57-1.03-2.29.72Zm7.66 17.49c-1.14.51-2.51 1.23-2.97 1.85-3.43 4.11 4.34 8.54 10.06 5.76 6.06-3.09 6.29-3.09 9.14-2.06 2.4.62 2.51.62 2.06-.31-1.03-1.65-2.51-2.37-8.46-4.22-6.86-2.06-7.09-2.06-9.83-1.03Zm-23.43 1.34c-2.86 1.75-5.83 2.16-8 1.03-1.83-.72-1.94-.21-.57 1.44 1.05 1.01 2.4 1.72 3.89 2.06 1.37.31 3.89 1.03 5.49 1.65 3.66 1.44 6.86 1.44 9.49 0 5.03-2.78 1.83-7.82-4.92-7.82-1.94 0-3.43.51-5.37 1.65Zm14.75 6.17c-.34.62-.57 2.26-.57 3.81-.23 9.98-4.57 19.34-12.69 27.46-1.24 1.09-2.35 2.3-3.31 3.6 0 .51 9.14.31 10.4-.31 1.14-.41 1.26-.31 1.6 1.65.43 2.57 1.94 4.89 4.23 6.48 1.26.82 1.71.82 3.2.21 2.4-1.03 4-3.39 4.34-6.27.23-2.16.57-2.57 1.37-2.16.46.21 3.2.51 6.06.62l5.14.21-2.63-2.88c-3.48-3.36-6.44-7.13-8.8-11.21-2.71-4.54-4.27-9.56-4.57-14.71 0-2.88-.57-5.66-.8-6.38-.57-1.44-2.17-1.54-2.97-.1h0Zm-208.49-24.58c-.8.82-1.71 2.47-1.83 3.5-.23 1.13-1.03 3.09-1.6 4.42-1.6 3.19-1.6 5.97.11 8.23 2.29 3.09 5.72 2.98 7.54 0 1.6-2.67 1.14-6.58-1.03-9.46-1.81-2.12-2.16-4.98-.91-7.41.8-1.54-.57-1.13-2.29.62v.1Zm7.66 17.59c-1.14.41-2.51 1.23-2.86 1.85-3.43 4.11 4.34 8.43 9.94 5.76 6.06-3.09 6.29-3.09 9.14-2.16 2.4.72 2.63.72 2.06-.21-.91-1.65-2.51-2.47-8.46-4.32-6.86-2.06-7.09-2.06-9.83-.93h0Zm-23.43 1.34c-2.86 1.75-5.83 2.06-8 1.03-1.71-.82-1.94-.31-.57 1.34 1.05 1.01 2.4 1.72 3.89 2.06l5.49 1.75c3.66 1.34 6.97 1.34 9.49 0 5.14-2.78 1.94-7.82-4.92-7.82-1.94 0-3.43.41-5.37 1.65Zm14.86 6.17c-.34.51-.69 2.26-.69 3.7-.11 9.98-4.57 19.44-12.69 27.57-1.23 1.06-2.34 2.23-3.31 3.5 0 .62 9.14.41 10.52-.21 1.14-.51 1.14-.31 1.49 1.65.43 2.57 1.94 4.89 4.23 6.48 1.26.72 1.83.82 3.2.1 2.4-1.03 4-3.29 4.34-6.17.34-2.16.57-2.57 1.37-2.16.57.21 3.31.41 6.06.51l5.14.31-2.63-2.98c-3.47-3.33-6.43-7.07-8.8-11.11-2.69-4.58-4.21-9.64-4.46-14.81-.23-2.78-.57-5.55-.91-6.27-.57-1.54-2.06-1.65-2.97-.21l.11.1Zm104.59-25.41c-.8.93-1.71 2.57-1.83 3.6l-1.6 4.42c-1.6 3.19-1.6 5.97.11 8.23 2.17 3.09 5.72 2.98 7.54 0 1.6-2.78 1.14-6.58-1.03-9.46-1.81-2.12-2.16-4.98-.91-7.41.8-1.54-.57-1.13-2.29.62h0Zm7.66 17.69c-1.14.41-2.51 1.23-2.97 1.75-3.43 4.11 4.46 8.54 10.06 5.86 6.06-3.09 6.29-3.09 9.14-2.16 2.4.72 2.51.72 2.06-.21-.91-1.65-2.51-2.47-8.46-4.32-6.86-2.06-7.09-2.06-9.83-.93Zm-23.43 1.34c-2.86 1.75-5.83 2.06-8 1.03-1.83-.82-1.94-.31-.57 1.34 1.05 1.01 2.4 1.72 3.89 2.06l5.49 1.75c3.66 1.34 6.86 1.34 9.49 0 5.03-2.78 1.94-7.82-4.92-7.82-1.94 0-3.43.41-5.37 1.65Zm14.86 6.17c-.46.51-.69 2.16-.69 3.7-.11 9.98-4.57 19.44-12.69 27.57-1.23 1.06-2.34 2.23-3.31 3.5 0 .62 9.14.41 10.4-.21 1.14-.51 1.26-.31 1.6 1.65.43 2.57 1.94 4.89 4.23 6.48 1.26.72 1.71.82 3.2.1 2.4-1.03 4-3.29 4.34-6.17.34-2.26.57-2.57 1.37-2.26.46.31 3.31.51 6.06.62l5.14.21-2.63-2.88c-3.47-3.33-6.43-7.07-8.8-11.11-2.73-4.57-4.29-9.63-4.57-14.81 0-2.78-.46-5.55-.8-6.27-.57-1.54-2.06-1.65-2.97-.21l.11.1ZM4.6 385.81c-.34.62-.57 2.37-.57 3.81 0 5.04-1.71 10.7-3.77 15.43l-.23 17.07c.43 2.57 1.94 4.89 4.23 6.48 1.26.82 1.71.82 3.2.21 2.4-1.03 4-3.39 4.34-6.27.34-2.16.57-2.57 1.37-2.16.46.21 3.31.51 6.06.62l5.14.21-2.63-2.88c-3.48-3.36-6.44-7.14-8.8-11.21-2.73-4.57-4.29-9.63-4.57-14.81 0-2.78-.46-5.55-.8-6.17-.57-1.65-2.06-1.75-2.97-.31h0Z" />
  <g>
    <rect x=".03" width="327.12" height="239.99" fill="#e30631" />
    <path d="m327.15 31.18V0h-40.05L0 208.84v31.08h40.05L327.15 31.18Z" fill="#036a4a" />
    <path d="m0 31.18V0h40.05l287.09 208.84v31.08h-40.85L0 31.18Z" fill="#036a4a" />
    <path d="m0 96.29l327.15-.31v47.84L.11 144.13l-.11-47.84Z" fill="#faf6f5" />
    <path d="m136.66 0h53.25l.23 242.37h-53.03l-.46-242.37Z" fill="#faf6f5" />
  </g>
  <path d="m.03 720h327.14v-239.97H.03v239.97Z" fill="#e30631" />
  <g id="b" data-name="k">
    <g>
      <path
        d="m169.05 683.14c-1 1.45 1.55 7.64 5.54 7.44-2.55-3.82-2.22-8.26-2.22-8.26l-3.32.83Zm-9.75-6.71c-1.44.21-4.88 8.26.55 11.26.04-2.88 1.01-5.69 2.77-8.05l-2.88-2.27-.44-.93Z"
        fill="#0859b9" stroke="#961538" />
      <path
        d="m158.53 671.57c-1.33-1.34-7.31 2.58-7.09 8.47 3.77-3.92 8.09-3.61 8.09-3.61l-1-4.85Zm6.98-4.75c-.11-1.86-5.32-3.92-8.09-.31 3.99.41 6.21 3.92 6.21 3.92l1.88-3.61Zm104.49 17.04c-.11 1.76.33 2.27 1.22 3.3.89.93 1.88 3.72 1.88 3.72 0 0 2.88-7.44 2.22-8.36-.78-1.03-5.21 1.34-5.32 1.34Zm-15.07-3.1c-1.33-.21-3.99 5.89-1.77 10.12 1.11-4.85 4.1-6.92 4.1-6.92l-2.33-3.2Zm-6.87-1.76c-1.11-1.14-5.87 2.27-5.54 7.23 2.77-3.3 6.32-3.1 6.32-3.1l-.78-4.13Zm3.66-7.85c-.78-1.55-6.09-.31-7.2 4.65 3.66-2.07 6.87-.41 6.87-.41l.33-4.23Zm-177.62-3.41c.44-1.76-3.55-6.51-7.2-4.65 3.32 2.48 4.32 6.82 4.32 6.82l2.88-2.17Zm-15.4 10.74c-1.33-1.55-6.87 2.79-6.65 9.5 3.55-4.44 7.65-4.03 7.65-4.03l-1-5.47Zm.55-9.5c-.55-2.07-7.2-1.86-9.42 4.13 2.76-.96 5.86-.44 8.09 1.34l1.33-5.47Zm6.65 17.86c-.33 1.55 0 2.27.78 3.41s1.11 4.13 1.11 4.13c0 0 4.1-6.4 3.55-7.54s-5.21 0-5.43 0Zm-16.29-74.56c0-2.38-6.21-4.75-9.97 0 4.88.31 7.42 4.54 7.42 4.54l2.55-4.54Zm-6.54 9.29c-1.33-1.65-6.87 2.79-6.65 9.4 3.55-4.34 7.65-4.03 7.65-4.03l-1-5.37Zm22.83-10.12c.66-2.07-4.65-7.23-9.31-4.23 4.43 2.38 5.76 7.44 5.76 7.44l3.55-3.2Zm7.53 7.95c1-1.24-1-7.74-4.88-8.26 2.22 4.23 1.55 8.67 1.55 8.67l3.32-.41Z"
        fill="#0859b9" stroke="#961538" />
      <path
        d="m94.37 627.06c-3.99-4.13 0-12.08 3.43-8.67-1.88-3.2 1.11-5.78 2.55-4.13-.66-2.58 2.22-4.34 3.66-1.96-.44-2.89 3.88-4.54 4.99-1.45 0-2.79 4.21-5.06 5.21-.93.78-3.1 5.54-3.61 5.87 1.03 1.33-2.68 4.88-2.48 5.1 1.34 1.55-1.86 5.54.93 4.76 4.13 2.44-.52 5.43 4.13 2.44 7.44 5.32-2.58 6.54 5.89 3.32 9.71 1.66.93 1.77.1 3.32.83s3.99 1.86 6.43 2.38c2.22 0 10.19-.31 11.86-.52s3.88-1.03 6.54-1.86c2.77-.83 6.87-.93 10.53-1.76 2.99-.31 85.21 1.24 87.54 1.03 2.44-.21 5.87-2.38 5.65-4.96s-2.88-4.44-5.54-4.65c-6.46-.29-12.94-.22-19.39.21-2.55.52-6.21 1.65-7.98 3.3-.89.52-2.33 2.48-3.55 3.82-1.11.93-4.43 1.03-4.43-.1 0-.83-.22.1-1.11.41-1 .62-5.54.72-5.43 0 .33-.83 0-1.14-1.22-.21-.89.72-7.31.93-8.53.21q.66-1.03-1.22-.1c-1.22.52-6.32.93-6.65 0 0-.83-.66-.41-1.33-.21-5.76 1.34-6.32-.21-5.43-1.03.89-.62 2.22-4.65.89-4.44l-13.74 2.38c-2.99.41-25.49 0-28.48-.21-3.73-.45-6.57-3.32-6.76-6.82-.33-6.2 5.1-7.74 8.31-8.67 3.32-1.03 11.52-2.38 14.74-2.38s12.63 1.03 15.18.1c2.55-.93 10.3-3.51 12.52-3.72 3.21-.31 12.41.72 16.84 5.68-2.22 1.03-3.32 1.55-.78.62l14.85-2.89c8.2-.41 6.09.83 2.11 1.76-1.33 3.92-13.3 9.5-17.17 10.22-4.57.49-9.18.45-13.74-.1-1.88-.21-10.42-.62-13.63-2.48-4.99-3.1-14.4-5.27-18.5-5.16-3.88 0-14.74 1.03-14.74 4.65 0 6.2 10.19 6.61 14.52 6.3 4.43-.21 15.29-.72 18.39-1.86 3.1-1.14 9.86-1.45 13.41-1.45s8.98.72 10.64.52 5.54-.31 7.31-1.45c1.77-1.24 5.76-2.38 9.75-2.38s33.68-1.03 37.67-.83c5.87 0 9.97 5.78 9.97 10.84 0 2.38-1.11 5.78-2.22 6.4l7.76.83c2.77.52 7.31 3.41 7.76 5.99-1.99-1.14-5.43-2.99-8.53-3.1-.55 0-65.37-.21-70.58-.1 11.43 1.45 21.47 7.79 27.15 17.14 2.33 3.51 8.2 2.07 10.42 1.65 2.22-.52 4.65-2.58 6.54-4.23 1.77-1.65 4.65-2.07 5.87-1.65 2.88-.21 3.32 2.58 2.22 4.03-1.11 1.34.22.83 3.21.83s5.43 1.03 7.09 3.1c-1.55 1.45-2.44.31 0 .52 2.22.21 5.21 4.23 3.32 5.37-1.44.72-1.88.52 0 .72 3.1.21 3.88 2.07 4.32 5.16-2.55.52-1.33-.21 0 .93 1.22 1.14 3.1 6.4-1.55 6.61-1.55-.72-1.55-.83-1.11.72.22 1.65-.66 5.58-3.21 5.58-3.55.62-6.65-1.14-7.09-3.3-.33-2.07-.33 4.13-5.32 5.16-4.76.93-7.2-1.65-7.65-2.79-.33-1.14-.11-.21-1.99-.52-1.77-.21-4.1-.21-5.1-3.1 0-1.55.33-3.72 3.66-4.03 1.44-.21 1.88-2.07.78-2.27s-.22-3.72 2.22-2.79c2.22 1.03 7.76 1.24 9.09 2.38 1.22 1.14 1.55-1.03-.44-2.79-1.99-1.96-14.18-5.68-17.4-4.23-7.76 3.51-20.39 3.1-22.6 2.58s-8.53.83-11.52-7.74c-2.17-6.87-8.21-12.07-15.73-13.53-20.61-1.86-19.5-.41-6.09.1-.11 1.65-.66 5.06 1.55 5.47 3.66-.41 11.19-1.96 13.07-.52 1.77 1.45 3.66 2.58 3.32 5.89-.44 3.3 0 2.27-1.55 3.72-1.66 1.45-.89 4.23 1.66 5.16 2.55 1.03 3.66 2.07 5.32 3.51 1.55 1.45-.78 4.23-2.22 3.3q-1.44-1.03-1.66 1.03c-.22 1.76-1.99 5.37-5.1 5.58-.55-.21-.44-1.14-.33-1.86.11-1.65-.66 2.07-1.55 3.1-.66.62-5.76 1.96-7.2 1.24.55-1.45.22-.83-1.11-.1-1.11.41-7.87 1.24-4.88-1.65.78-1.14-1.11 1.34-2.11 1.76-.89.52-4.88.83-4.88-.62-1.22 1.03-4.21 1.03-4.65.21-1-.93-1.11.72-2.66 1.03-1.66.21-5.21-.31-5.43-2.17-.11-1.86.44-.72-1.55-.52-4.88 3.1-7.31-1.14-7.31-2.58 0-1.34-.22-3.1.33-3.92.55-1.03-3.32-1.24-2.22-3.1 1.44-2.27 2.88-3.92 5.54-3.51 1.22.21 1.11-.52.55-1.45s1.44-1.34 3.77-.41c2.44.93 3.99 3.3 4.76 5.37.66 2.07 6.32.52 8.75.72 2.33.21 2.55-3.51 1.11-4.75-1.55-1.14-5.54-5.37-7.09-6.82-1.66-1.34-.55-6.2.89-7.44 8.42-5.37 3.77-7.13.66-6.61s-11.08 3.41-13.52 5.99c-2.55 2.58-22.38 15.28-24.16 16.73-1.88 1.34-4.43 1.65-5.54 0-1.11-1.55-1.88-.41-1.66 1.96 1.17 5.25-2.45 10.39-8.09 11.47-.18.04-.37.07-.55.09-1.11-.1-2.55-.62-3.66-1.45-1.11 4.96-5.76 5.37-9.97 4.96 0-.62.78-1.76.33-1.34-1.44 1.76-5.65 1.55-9.42 1.34-.22-1.03 1.33-2.27.55-1.65-1.22 2.17-3.32 1.86-6.87 1.55 0-.41 1.66-1.96.89-1.03-1.55 1.55-4.65 1.03-7.09 1.03-.33-.31 1.22-2.68-.22-1.03-1.33 1.34-4.21 1.55-6.98 1.14-.44-1.03.55-1.14.89-1.86.66-1.14-.33 0-1.33 0-.89 0-2.22.21-2.66-1.03-.55-1.03-.22 1.24-.78 1.86s-1.11 1.86-2.99 2.38c-1.77.41-6.54.93-7.2-1.14-1.11-1.03-1.55-3.1-.78-4.23s-3.43 2.27-5.32 2.58c-5.32.93-5.98-6.82-3.55-7.54 2.22-.72 1.99-1.86.66-2.79-1.22-1.03-1.99-4.75-.33-5.89 1.66-1.24 5.43-1.86 7.76-.52 1.44.93 4.43 4.03 3.88 1.65-.44-1.45.66-3.3 1.77-4.13s4.1-1.03 4.99.83c1.88 4.34 3.32 6.2 5.54 6.2 4.57-1.27 9.24-2.2 13.96-2.79 2.55-.62 16.18-1.86 16.18-2.99-8.2 2.58-11.52-.83-12.41-.52-.89.21-3.1-.83-3.1-1.45 0-1.45 1.99-1.24-.89-.72-1.77-.21-3.32-.21-4.76-1.96-.22-.83 1.88-3.82 2.66-6.3-1.88-.52-5.98 2.68-7.31 5.47-1-1.03-1.44-.1-4.76.62-1.66.62-4.21.41-5.76-.31-1.44-.72-7.09-4.75-4.43-5.16-.66-.41-1.44-.62-1.99-.72-1.99-.83-3.88-2.38-3.32-2.79-.55-.72.55-.72-.22-.83-1.11-.21-3.77-2.07-3.1-2.79-.66-.41-2.33-1.03-2.99-1.34-1.33-.72-2.55-3.1-2.77-4.34-1.11 0-3.66-2.07-2.55-2.58-1.88-1.34-3.55-3.51-2.22-4.23-1.11-.83-1.99-2.27-1.11-1.76-1.22-1.34-.89-2.68 0-2.68 1 0 .55-3.82-1.11-3.82s-4.21 1.24-6.09 0c-1.55-1.03-2.99-6.09-1.44-8.26 1.44-2.07 4.32-4.44 5.76-4.13 1.44.21.78.72.33-1.45-.33-2.07 2.11-3.72 3.66-4.13 1.99-.93 5.65-.31 6.76.62 1.11 1.03 1.44 1.03 1.44-.72 0-1.14 1.44-1.76 2.66-2.07 2.11-.41 3.77.1 4.43.93 1.11 1.45 1.88 3.3.44 4.65-1.55 1.45-.22.21 2.22-.21 1.44-.52 4.21.1 4.65 1.65.66 1.65 1.11 4.44-.55 5.89-1.66 1.34-3.99 4.85-2.77 6.09 1.33 1.14 5.32 6.3 6.21 7.02.89.72 1.99 2.38 3.43 2.07l4.43-.62c4.99-1.03 7.31-1.45.78-1.24 1.55-1.96 4.54-2.48 5.87-2.89-1.11-1.65 3.21-5.06 3.21-5.58h0Z"
        fill="#fcd80e" stroke="#961538" />
      <path d="m94.37 646.17c-3.55-.52-12.3 6.61-9.53 15.49" fill="none" stroke="#961538" stroke-width="1.08" />
      <path d="m117.64 649.89c.33 3.61.55 13.84-3.43 16.52-3.87 2.37-8.69 2.95-13.07 1.55" fill="none" stroke="#961538"
        stroke-width=".99" />
      <path
        d="m108.67 655.56c-.44 3.51-4.32 12.39-11.86 11.36m-48.98-49.77c3.99.31 5.87 3.2 6.65 5.78.52 1.35 1.08 2.7 1.66 4.03m-4.88 10.84c1.66.72 4.76 0 4.76 0"
        fill="none" stroke="#961538" />
      <path d="m52.82 641.62c3.77 1.03 7.42-.72 7.42-.72" fill="none" stroke="#961538" stroke-width=".91" />
      <path
        d="m70.33 657.32c3.88-1.03 6.43-3.2 6.43-3.2m-10.64-38.62c-2.22 2.58-1.99 7.23-1.99 7.23m48.31-7.02c.55 4.65-1.66 7.23-3.1 7.23s-2.99 1.76-2.11 4.54m11.08-12.5c-2.25 2.77-3.06 6.33-2.22 9.71.78 2.99 0 3.82 0 3.82"
        fill="none" stroke="#961538" />
      <path d="m88.28 641.73c-4.43 1.14-6.32 8.78-3.99 12.91" fill="none" stroke="#961538" stroke-width="1.24" />
      <path
        d="m129.5 630.88h-2.99s-1.99 4.03-5.43 2.89c-3.32-1.03-.22 0-.22 0m-7.87-6.2c4.76.1 3.88 3.72.22 3.3.33 4.34-5.21 3.82-4.76.52-3.32 0-4.76-4.34.11-3.72m118.23 3.2c1-2.79 5.54-5.37 5.54-5.37m-12.19 5.16c1.99-3.2 5.54-5.27 5.54-5.27m-15.18 5.68c2.99-1.76 3.88-2.38 4.88-3.3l3.1-2.79"
        fill="none" stroke="#961538" />
      <path d="m202.07 630.99c2.22-1.03 3.88-1.76 5.43-2.79 1.77-1.14 3.1-2.79 3.1-2.79" fill="none" stroke="#961538"
        stroke-width=".95" />
      <path
        d="m203.85 622.11c-6.98-2.27-10.08-6.61-10.08-6.61m21.83-2.79c-4.65 1.76-14.07 1.03-14.4 1.03m-69.47 55.97c1.33-4.65 3.99-5.68 7.2-7.23 3.32-1.24 8.53-5.16 5.32-2.27-3.21 2.79-7.76 4.65-9.31 5.68s-2.55 3.2-1.77 4.34"
        fill="none" stroke="#961538" />
      <path d="m125.06 652.26c2.99 4.65 1.11 11.05-2.66 12.8" fill="none" stroke="#961538" stroke-linecap="round" />
      <path d="m134.93 636.46c4.88 1.86 4.99 6.2 5.65 8.88-1.66-.72-2.88-.41-4.21-1.03" fill="none" stroke="#961538" />
      <path d="m133.04 639.04c3.32 4.13 4.43 6.71 4.65 8.16.33 2.48.33 8.78-7.31 8.67.66-1.86 1.55-6.82.33-8.78"
        fill="none" stroke="#961538" stroke-width=".91" />
      <path d="m131.27 651.54c0 4.13-3.1 5.78-4.43 6.3m-7.31-24.47c.11 4.85-9.31 8.47-9.09 1.03" fill="none"
        stroke="#961538" />
      <path
        d="m110.44 634.7c-.33 3.51-5.54 4.34-7.31 1.24-1.44-2.07-2.22-3.1-3.32-3.3-.89-.31-.78-3.2-1-3.72l-1.11-2.68"
        fill="none" stroke="#961538" stroke-width="1.01" />
      <path
        d="m102.79 635.74c2.44 3.92 8.2 1.55 9.75 3.1 1.44 1.65-1.44 7.13-2.44 10.33-2.22 2.68-6.98 2.48-8.75.52 1-3.82 1.11-11.88 1.22-12.08l.22-1.86Z"
        fill="#0859b9" stroke="#961538" stroke-width="1.05" />
      <path
        d="m59.25 612.61c.44 2.38-.22 2.89-.78 4.85s.22 5.68.22 5.68m-.44 53.7c1.88-.62 6.09 0 6.09 0m1.22 5.99c1.11-2.07 3.99-3.82 3.99-3.82m18.28 6.51c1-1.24 1-5.37 1-5.37m6.21 5.37c1.55-1.76 1.66-5.27 1.66-5.27m4.1 5.16c1.55-2.79 1.33-6.09 1.33-6.09m7.65 6.4c1-1.55 1-5.16 1-5.16m63.16-2.99c-3.55-.72-5.76 3.82-5.76 3.82m10.42-4.54c-.33 3.3-3.1 6.4-3.1 6.4m8.75-6.71c-.22 2.89-3.32 6.71-3.32 6.71m10.3-7.74c-.55 3.72-3.32 6.51-3.32 6.51m8.53-7.85c.11 3.3-1.66 8.36-2.88 9.4m8.86-7.95c.66 1.76 0 4.34 0 4.34m-38.67-11.36c2.44.52 3.77 3.1 3.77 3.1m-7.76 3.3c1.22-4.03 6.65-2.07 7.31-1.03m94.18-17.56c-1.88-.21-4.88.83-4.88.83m14.18 2.79c-2.77 1.03-5.98 1.24-5.98 1.24m9.53 4.65c-2.33-.31-4.1-.31-4.1-.31m8.75 5.89c-2.44-.31-6.21 0-6.21 0m4.43 7.23c-.89-2.07-3.32-2.68-3.32-2.68m-20.06 7.33c.55-3.1 4.43-5.47 6.65-5.47h2.22m-12.19-1.24c2.44-.83 6.21-1.03 6.21-1.03m-160.22-11.05c2.44-1.76 4.21-5.47 4.21-5.47m24.82-39.24c-.92.83-1.8 1.69-2.66 2.58m4.99 1.76c-3.21.31-3.32.21-3.32.21"
        fill="none" stroke="#961538" />
      <path d="m116.31 622.52c2.33-.83 7.76-.21 7.76 1.65 0 2.38-2.22 2.48-7.76.31v-1.96Z" fill="none" stroke="#961538"
        stroke-width="1.13" />
      <path d="m109 622.73c.22-2.68-5.54-5.37-6.87-3.92-1.66 2.58 3.1 4.75 4.43 4.75 1.11 0 .44.21.44.21" fill="none"
        stroke="#961538" stroke-width=".92" />
      <path d="m124.4 632.85c-2.22 5.58-.33 10.74-.33 10.74m-25.15-9.29c-1.77 1.34-3.32.93-3.32.93" fill="none"
        stroke="#961538" />
      <path d="m121.52 623.14l-.33 2.07" fill="none" stroke="#961538" stroke-linecap="round" stroke-width="1.94" />
      <path d="m106.78 619.32l-1.11 3.2" fill="none" stroke="#961538" stroke-linecap="round" stroke-width="1.57" />
    </g>
    <path d="m89.94 635.63c-6.65 3.3-7.76 6.2-6.65 13.01" fill="none" stroke="#961538" />
    <path d="m134.82 626.34c-1.88.83-1.55 4.96-1.55 4.96" fill="none" stroke="#961538" stroke-width="1.2" />
    <path d="m94.59 620.56c1.99 1.24 1.11 5.27 1.11 5.27" fill="none" stroke="#961538" stroke-width="1.05" />
    <path d="m237.75 637.49l-18.84-.52c-4.99 0-13.3-.31-18.73-.41" fill="none" stroke="rgba(150  21  56  .1)"
      stroke-width="2.12" />
    <path d="m102.46 634.5c-.22 5.16-3.32 7.85-3.32 7.85" fill="none" stroke="#961538" stroke-width="1.05" />
    <path d="m99.36 632.12c-1.44 5.58.44 10.02.44 10.02" fill="none" stroke="#961538" stroke-width="1.16" />
    <path d="m114.43 638.63c-.33 5.06 2.22 8.16 2.22 8.16" fill="none" stroke="#961538" stroke-width="1.05" />
    <path d="m117.64 636.77c.89 5.68-1.55 9.71-1.55 9.71" fill="none" stroke="#961538" stroke-width="1.16" />
    <path d="m135.7 633.57c.55.31 2.11 0 4.88 1.03-1.11 1.65-4.1 2.58-5.32 2.07" fill="none" stroke="#961538" />
    <path d="m142.57 667.34c-3.32 1.03-4.99 1.24-6.09.21" fill="none" stroke="#961538" stroke-linecap="round" />
    <path d="m146.34 664.65c-2.99 1.14-4.65 1.55-6.21.62" fill="none" stroke="#961538" stroke-linecap="round"
      stroke-width=".96" />
    <path d="m151.44 661.45c-1.99 1.03-3.1 1.45-4.1.52" fill="none" stroke="#961538" stroke-linecap="round"
      stroke-width=".79" />
    <path d="m154.87 658.97c-2.44 1.03-3.77 1.45-4.99.52" fill="none" stroke="#961538" stroke-linecap="round"
      stroke-width=".87" />
    <path d="m58.91 612.61c.44 2.38-.11 2.89-.78 4.85s.22 5.68.22 5.68m8.09-7.64c-2.22 2.58-1.88 7.23-1.88 7.23"
      fill="none" stroke="#961538" />
    <path d="m48.17 616.63c3.99.31 5.98 3.3 6.87 5.78.45 1.35.93 2.69 1.44 4.03" fill="none" stroke="#961538"
      stroke-width="1.01" />
  </g>
  <g id="c" data-name="k">
    <g>
      <path
        d="m169.05 581.32c-1 1.45 1.55 7.64 5.54 7.44-2.55-3.82-2.22-8.26-2.22-8.26l-3.32.83Zm-9.75-6.71c-1.44.21-4.88 8.26.55 11.26.04-2.88 1.01-5.69 2.77-8.05l-2.88-2.27-.44-.93Z"
        fill="#0859b9" stroke="#961538" />
      <path
        d="m158.53 569.76c-1.33-1.34-7.31 2.58-7.09 8.47 3.77-3.92 8.09-3.61 8.09-3.61l-1-4.85Zm6.98-4.75c-.11-1.86-5.32-3.92-8.09-.31 3.99.41 6.21 3.92 6.21 3.92l1.88-3.61Zm104.49 17.04c-.11 1.76.33 2.27 1.22 3.3.89.93 1.88 3.72 1.88 3.72 0 0 2.88-7.44 2.22-8.36-.78-1.03-5.21 1.34-5.32 1.34Zm-15.07-3.1c-1.33-.21-3.99 5.89-1.77 10.12 1.11-4.85 4.1-6.92 4.1-6.92l-2.33-3.2Zm-6.87-1.76c-1.11-1.14-5.87 2.27-5.54 7.23 2.77-3.3 6.32-3.1 6.32-3.1l-.78-4.13Zm3.66-7.85c-.78-1.55-6.09-.31-7.2 4.65 3.66-2.07 6.87-.41 6.87-.41l.33-4.23Zm-177.62-3.41c.44-1.76-3.55-6.51-7.2-4.65 3.32 2.48 4.32 6.82 4.32 6.82l2.88-2.17Zm-15.4 10.74c-1.33-1.55-6.87 2.79-6.65 9.5 3.55-4.44 7.65-4.03 7.65-4.03l-1-5.47Zm.55-9.5c-.55-2.07-7.2-1.86-9.42 4.13 2.76-.96 5.86-.44 8.09 1.34l1.33-5.47Zm6.65 17.86c-.33 1.55 0 2.27.78 3.41s1.11 4.13 1.11 4.13c0 0 4.1-6.4 3.55-7.54s-5.21 0-5.43 0Zm-16.29-74.56c0-2.38-6.21-4.75-9.97 0 4.88.31 7.42 4.54 7.42 4.54l2.55-4.54Zm-6.54 9.29c-1.33-1.65-6.87 2.79-6.65 9.4 3.55-4.34 7.65-4.03 7.65-4.03l-1-5.37Zm22.83-10.12c.66-2.07-4.65-7.23-9.31-4.23 4.43 2.38 5.76 7.44 5.76 7.44l3.55-3.2Zm7.53 7.95c1-1.24-1-7.74-4.88-8.26 2.22 4.23 1.55 8.67 1.55 8.67l3.32-.41Z"
        fill="#0859b9" stroke="#961538" />
      <path
        d="m94.37 525.25c-3.99-4.13 0-12.08 3.43-8.67-1.88-3.2 1.11-5.78 2.55-4.13-.66-2.58 2.22-4.34 3.66-1.96-.44-2.89 3.88-4.54 4.99-1.45 0-2.79 4.21-5.06 5.21-.93.78-3.1 5.54-3.61 5.87 1.03 1.33-2.68 4.88-2.48 5.1 1.34 1.55-1.86 5.54.93 4.76 4.13 2.44-.52 5.43 4.13 2.44 7.44 5.32-2.58 6.54 5.89 3.32 9.71 1.66.93 1.77.1 3.32.83s3.99 1.86 6.43 2.38c2.22 0 10.19-.31 11.86-.52s3.88-1.03 6.54-1.86c2.77-.83 6.87-.93 10.53-1.76 2.99-.31 85.21 1.24 87.54 1.03 2.44-.21 5.87-2.38 5.65-4.96s-2.88-4.44-5.54-4.65c-6.46-.29-12.94-.22-19.39.21-2.55.52-6.21 1.65-7.98 3.3-.89.52-2.33 2.48-3.55 3.82-1.11.93-4.43 1.03-4.43-.1 0-.83-.22.1-1.11.41-1 .62-5.54.72-5.43 0 .33-.83 0-1.14-1.22-.21-.89.72-7.31.93-8.53.21q.66-1.03-1.22-.1c-1.22.52-6.32.93-6.65 0 0-.83-.66-.41-1.33-.21-5.76 1.34-6.32-.21-5.43-1.03.89-.62 2.22-4.65.89-4.44l-13.74 2.38c-2.99.41-25.49 0-28.48-.21-3.73-.45-6.57-3.32-6.76-6.82-.33-6.2 5.1-7.74 8.31-8.67 3.32-1.03 11.52-2.38 14.74-2.38s12.63 1.03 15.18.1 10.3-3.51 12.52-3.72c3.21-.31 12.41.72 16.84 5.68-2.22 1.03-3.32 1.55-.78.62l14.85-2.89c8.2-.41 6.09.83 2.11 1.76-1.33 3.92-13.3 9.5-17.17 10.22-4.57.49-9.18.45-13.74-.1-1.88-.21-10.42-.62-13.63-2.48-4.99-3.1-14.4-5.27-18.5-5.16-3.88 0-14.74 1.03-14.74 4.65 0 6.2 10.19 6.61 14.52 6.3 4.43-.21 15.29-.72 18.39-1.86s9.86-1.45 13.41-1.45 8.98.72 10.64.52 5.54-.31 7.31-1.45c1.77-1.24 5.76-2.38 9.75-2.38s33.68-1.03 37.67-.83c5.87 0 9.97 5.78 9.97 10.84 0 2.38-1.11 5.78-2.22 6.4l7.76.83c2.77.52 7.31 3.41 7.76 5.99-1.99-1.14-5.43-2.99-8.53-3.1-.55 0-65.37-.21-70.58-.1 11.43 1.45 21.47 7.79 27.15 17.14 2.33 3.51 8.2 2.07 10.42 1.65 2.22-.52 4.65-2.58 6.54-4.23 1.77-1.65 4.65-2.07 5.87-1.65 2.88-.21 3.32 2.58 2.22 4.03-1.11 1.34.22.83 3.21.83s5.43 1.03 7.09 3.1c-1.55 1.45-2.44.31 0 .52 2.22.21 5.21 4.23 3.32 5.37-1.44.72-1.88.52 0 .72 3.1.21 3.88 2.07 4.32 5.16-2.55.52-1.33-.21 0 .93 1.22 1.14 3.1 6.4-1.55 6.61-1.55-.72-1.55-.83-1.11.72.22 1.65-.66 5.58-3.21 5.58-3.55.62-6.65-1.14-7.09-3.3-.33-2.07-.33 4.13-5.32 5.16-4.76.93-7.2-1.65-7.65-2.79-.33-1.14-.11-.21-1.99-.52-1.77-.21-4.1-.21-5.1-3.1 0-1.55.33-3.72 3.66-4.03 1.44-.21 1.88-2.07.78-2.27s-.22-3.72 2.22-2.79c2.22 1.03 7.76 1.24 9.09 2.38 1.22 1.14 1.55-1.03-.44-2.79-1.99-1.96-14.18-5.68-17.4-4.23-7.76 3.51-20.39 3.1-22.6 2.58s-8.53.83-11.52-7.74c-2.17-6.87-8.21-12.07-15.73-13.53-20.61-1.86-19.5-.41-6.09.1-.11 1.65-.66 5.06 1.55 5.47 3.66-.41 11.19-1.96 13.07-.52 1.77 1.45 3.66 2.58 3.32 5.89-.44 3.3 0 2.27-1.55 3.72-1.66 1.45-.89 4.23 1.66 5.16 2.55 1.03 3.66 2.07 5.32 3.51 1.55 1.45-.78 4.23-2.22 3.3q-1.44-1.03-1.66 1.03c-.22 1.76-1.99 5.37-5.1 5.58-.55-.21-.44-1.14-.33-1.86.11-1.65-.66 2.07-1.55 3.1-.66.62-5.76 1.96-7.2 1.24.55-1.45.22-.83-1.11-.1-1.11.41-7.87 1.24-4.88-1.65.78-1.14-1.11 1.34-2.11 1.76-.89.52-4.88.83-4.88-.62-1.22 1.03-4.21 1.03-4.65.21-1-.93-1.11.72-2.66 1.03-1.66.21-5.21-.31-5.43-2.17-.11-1.86.44-.72-1.55-.52-4.88 3.1-7.31-1.14-7.31-2.58 0-1.34-.22-3.1.33-3.92.55-1.03-3.32-1.24-2.22-3.1 1.44-2.27 2.88-3.92 5.54-3.51 1.22.21 1.11-.52.55-1.45s1.44-1.34 3.77-.41c2.44.93 3.99 3.3 4.76 5.37.66 2.07 6.32.52 8.75.72 2.33.21 2.55-3.51 1.11-4.75-1.55-1.14-5.54-5.37-7.09-6.82-1.66-1.34-.55-6.2.89-7.44 8.42-5.37 3.77-7.13.66-6.61-3.1.52-11.08 3.41-13.52 5.99-2.55 2.58-22.38 15.28-24.16 16.73-1.88 1.34-4.43 1.65-5.54 0-1.11-1.55-1.88-.41-1.66 1.96 1.17 5.25-2.45 10.39-8.09 11.47-.18.04-.37.07-.55.09-1.11-.1-2.55-.62-3.66-1.45-1.11 4.96-5.76 5.37-9.97 4.96 0-.62.78-1.76.33-1.34-1.44 1.76-5.65 1.55-9.42 1.34-.22-1.03 1.33-2.27.55-1.65-1.22 2.17-3.32 1.86-6.87 1.55 0-.41 1.66-1.96.89-1.03-1.55 1.55-4.65 1.03-7.09 1.03-.33-.31 1.22-2.68-.22-1.03-1.33 1.34-4.21 1.55-6.98 1.14-.44-1.03.55-1.14.89-1.86.66-1.14-.33 0-1.33 0-.89 0-2.22.21-2.66-1.03-.55-1.03-.22 1.24-.78 1.86s-1.11 1.86-2.99 2.38c-1.77.41-6.54.93-7.2-1.14-1.11-1.03-1.55-3.1-.78-4.23s-3.43 2.27-5.32 2.58c-5.32.93-5.98-6.82-3.55-7.54 2.22-.72 1.99-1.86.66-2.79-1.22-1.03-1.99-4.75-.33-5.89 1.66-1.24 5.43-1.86 7.76-.52 1.44.93 4.43 4.03 3.88 1.65-.44-1.45.66-3.3 1.77-4.13 1.11-.83 4.1-1.03 4.99.83 1.88 4.34 3.32 6.2 5.54 6.2 4.57-1.27 9.24-2.2 13.96-2.79 2.55-.62 16.18-1.86 16.18-2.99-8.2 2.58-11.52-.83-12.41-.52-.89.21-3.1-.83-3.1-1.45 0-1.45 1.99-1.24-.89-.72-1.77-.21-3.32-.21-4.76-1.96-.22-.83 1.88-3.82 2.66-6.3-1.88-.52-5.98 2.68-7.31 5.47-1-1.03-1.44-.1-4.76.62-1.66.62-4.21.41-5.76-.31-1.44-.72-7.09-4.75-4.43-5.16-.66-.41-1.44-.62-1.99-.72-1.99-.83-3.88-2.38-3.32-2.79-.55-.72.55-.72-.22-.83-1.11-.21-3.77-2.07-3.1-2.79-.66-.41-2.33-1.03-2.99-1.34-1.33-.72-2.55-3.1-2.77-4.34-1.11 0-3.66-2.07-2.55-2.58-1.88-1.34-3.55-3.51-2.22-4.23-1.11-.83-1.99-2.27-1.11-1.76-1.22-1.34-.89-2.68 0-2.68 1 0 .55-3.82-1.11-3.82s-4.21 1.24-6.09 0c-1.55-1.03-2.99-6.09-1.44-8.26 1.44-2.07 4.32-4.44 5.76-4.13 1.44.21.78.72.33-1.45-.33-2.07 2.11-3.72 3.66-4.13 1.99-.93 5.65-.31 6.76.62 1.11 1.03 1.44 1.03 1.44-.72 0-1.14 1.44-1.76 2.66-2.07 2.11-.41 3.77.1 4.43.93 1.11 1.45 1.88 3.3.44 4.65-1.55 1.45-.22.21 2.22-.21 1.44-.52 4.21.1 4.65 1.65.66 1.65 1.11 4.44-.55 5.89-1.66 1.34-3.99 4.85-2.77 6.09 1.33 1.14 5.32 6.3 6.21 7.02.89.72 1.99 2.38 3.43 2.07l4.43-.62c4.99-1.03 7.31-1.45.78-1.24 1.55-1.96 4.54-2.48 5.87-2.89-1.11-1.65 3.21-5.06 3.21-5.58h0Z"
        fill="#fcd80e" stroke="#961538" />
      <path d="m94.37 544.35c-3.55-.52-12.3 6.61-9.53 15.49" fill="none" stroke="#961538" stroke-width="1.08" />
      <path d="m117.64 548.07c.33 3.61.55 13.84-3.43 16.52-3.87 2.37-8.69 2.95-13.07 1.55" fill="none" stroke="#961538"
        stroke-width=".99" />
      <path
        d="m108.67 553.75c-.44 3.51-4.32 12.39-11.86 11.36m-48.98-49.77c3.99.31 5.87 3.2 6.65 5.78.52 1.35 1.08 2.7 1.66 4.03m-4.88 10.84c1.66.72 4.76 0 4.76 0"
        fill="none" stroke="#961538" />
      <path d="m52.82 539.81c3.77 1.03 7.42-.72 7.42-.72" fill="none" stroke="#961538" stroke-width=".91" />
      <path
        d="m70.33 555.5c3.88-1.03 6.43-3.2 6.43-3.2m-10.64-38.62c-2.22 2.58-1.99 7.23-1.99 7.23m48.31-7.02c.55 4.65-1.66 7.23-3.1 7.23s-2.99 1.76-2.11 4.54m11.08-12.5c-2.25 2.77-3.06 6.33-2.22 9.71.78 2.99 0 3.82 0 3.82"
        fill="none" stroke="#961538" />
      <path d="m88.28 539.91c-4.43 1.14-6.32 8.78-3.99 12.91" fill="none" stroke="#961538" stroke-width="1.24" />
      <path
        d="m129.5 529.07h-2.99s-1.99 4.03-5.43 2.89c-3.32-1.03-.22 0-.22 0m-7.87-6.2c4.76.1 3.88 3.72.22 3.3.33 4.34-5.21 3.82-4.76.52-3.32 0-4.76-4.34.11-3.72m118.23 3.2c1-2.79 5.54-5.37 5.54-5.37m-12.19 5.16c1.99-3.2 5.54-5.27 5.54-5.27m-15.18 5.68c2.99-1.76 3.88-2.38 4.88-3.3l3.1-2.79"
        fill="none" stroke="#961538" />
      <path d="m202.07 529.17c2.22-1.03 3.88-1.76 5.43-2.79 1.77-1.14 3.1-2.79 3.1-2.79" fill="none" stroke="#961538"
        stroke-width=".95" />
      <path
        d="m203.85 520.29c-6.98-2.27-10.08-6.61-10.08-6.61m21.83-2.79c-4.65 1.76-14.07 1.03-14.4 1.03m-69.47 55.97c1.33-4.65 3.99-5.68 7.2-7.23 3.32-1.24 8.53-5.16 5.32-2.27-3.21 2.79-7.76 4.65-9.31 5.68s-2.55 3.2-1.77 4.34"
        fill="none" stroke="#961538" />
      <path d="m125.06 550.44c2.99 4.65 1.11 11.05-2.66 12.8" fill="none" stroke="#961538" stroke-linecap="round" />
      <path d="m134.93 534.65c4.88 1.86 4.99 6.2 5.65 8.88-1.66-.72-2.88-.41-4.21-1.03" fill="none" stroke="#961538" />
      <path d="m133.04 537.23c3.32 4.13 4.43 6.71 4.65 8.16.33 2.48.33 8.78-7.31 8.67.66-1.86 1.55-6.82.33-8.78"
        fill="none" stroke="#961538" stroke-width=".91" />
      <path d="m131.27 549.72c0 4.13-3.1 5.78-4.43 6.3m-7.31-24.47c.11 4.85-9.31 8.47-9.09 1.03" fill="none"
        stroke="#961538" />
      <path
        d="m110.44 532.89c-.33 3.51-5.54 4.34-7.31 1.24-1.44-2.07-2.22-3.1-3.32-3.3-.89-.31-.78-3.2-1-3.72l-1.11-2.68"
        fill="none" stroke="#961538" stroke-width="1.01" />
      <path
        d="m102.79 533.92c2.44 3.92 8.2 1.55 9.75 3.1 1.44 1.65-1.44 7.13-2.44 10.33-2.22 2.68-6.98 2.48-8.75.52 1-3.82 1.11-11.88 1.22-12.08l.22-1.86Z"
        fill="#0859b9" stroke="#961538" stroke-width="1.05" />
      <path
        d="m59.25 510.79c.44 2.38-.22 2.89-.78 4.85s.22 5.68.22 5.68m-.44 53.7c1.88-.62 6.09 0 6.09 0m1.22 5.99c1.11-2.07 3.99-3.82 3.99-3.82m18.28 6.51c1-1.24 1-5.37 1-5.37m6.21 5.37c1.55-1.76 1.66-5.27 1.66-5.27m4.1 5.16c1.55-2.79 1.33-6.09 1.33-6.09m7.65 6.4c1-1.55 1-5.16 1-5.16m63.16-2.99c-3.55-.72-5.76 3.82-5.76 3.82m10.42-4.54c-.33 3.3-3.1 6.4-3.1 6.4m8.75-6.71c-.22 2.89-3.32 6.71-3.32 6.71m10.3-7.74c-.55 3.72-3.32 6.51-3.32 6.51m8.53-7.85c.11 3.3-1.66 8.36-2.88 9.4m8.86-7.95c.66 1.76 0 4.34 0 4.34m-38.67-11.36c2.44.52 3.77 3.1 3.77 3.1m-7.76 3.3c1.22-4.03 6.65-2.07 7.31-1.03m94.18-17.56c-1.88-.21-4.88.83-4.88.83m14.18 2.79c-2.77 1.03-5.98 1.24-5.98 1.24m9.53 4.65c-2.33-.31-4.1-.31-4.1-.31m8.75 5.89c-2.44-.31-6.21 0-6.21 0m4.43 7.23c-.89-2.07-3.32-2.68-3.32-2.68m-20.06 7.33c.55-3.1 4.43-5.47 6.65-5.47h2.22m-12.19-1.24c2.44-.83 6.21-1.03 6.21-1.03m-160.22-11.05c2.44-1.76 4.21-5.47 4.21-5.47m24.82-39.24c-.92.83-1.8 1.69-2.66 2.58m4.99 1.76c-3.21.31-3.32.21-3.32.21"
        fill="none" stroke="#961538" />
      <path d="m116.31 520.7c2.33-.83 7.76-.21 7.76 1.65 0 2.38-2.22 2.48-7.76.31v-1.96Z" fill="none" stroke="#961538"
        stroke-width="1.13" />
      <path d="m109 520.91c.22-2.68-5.54-5.37-6.87-3.92-1.66 2.58 3.1 4.75 4.43 4.75 1.11 0 .44.21.44.21" fill="none"
        stroke="#961538" stroke-width=".92" />
      <path d="m124.4 531.03c-2.22 5.58-.33 10.74-.33 10.74m-25.15-9.29c-1.77 1.34-3.32.93-3.32.93" fill="none"
        stroke="#961538" />
      <path d="m121.52 521.32l-.33 2.07" fill="none" stroke="#961538" stroke-linecap="round" stroke-width="1.94" />
      <path d="m106.78 517.5l-1.11 3.2" fill="none" stroke="#961538" stroke-linecap="round" stroke-width="1.57" />
    </g>
    <path d="m89.94 533.82c-6.65 3.3-7.76 6.2-6.65 13.01" fill="none" stroke="#961538" />
    <path d="m134.82 524.53c-1.88.83-1.55 4.96-1.55 4.96" fill="none" stroke="#961538" stroke-width="1.2" />
    <path d="m94.59 518.74c1.99 1.24 1.11 5.27 1.11 5.27" fill="none" stroke="#961538" stroke-width="1.05" />
    <path d="m102.46 532.68c-.22 5.16-3.32 7.85-3.32 7.85" fill="none" stroke="#961538" stroke-width="1.05" />
    <path d="m99.36 530.31c-1.44 5.58.44 10.02.44 10.02" fill="none" stroke="#961538" stroke-width="1.16" />
    <path d="m114.43 536.81c-.33 5.06 2.22 8.16 2.22 8.16" fill="none" stroke="#961538" stroke-width="1.05" />
    <path d="m117.64 534.95c.89 5.68-1.55 9.71-1.55 9.71" fill="none" stroke="#961538" stroke-width="1.16" />
    <path d="m135.7 531.75c.55.31 2.11 0 4.88 1.03-1.11 1.65-4.1 2.58-5.32 2.07" fill="none" stroke="#961538" />
    <path d="m142.57 565.52c-3.32 1.03-4.99 1.24-6.09.21" fill="none" stroke="#961538" stroke-linecap="round" />
    <path d="m146.34 562.84c-2.99 1.14-4.65 1.55-6.21.62" fill="none" stroke="#961538" stroke-linecap="round"
      stroke-width=".96" />
    <path d="m151.44 559.64c-1.99 1.03-3.1 1.45-4.1.52" fill="none" stroke="#961538" stroke-linecap="round"
      stroke-width=".79" />
    <path d="m154.87 557.16c-2.44 1.03-3.77 1.45-4.99.52" fill="none" stroke="#961538" stroke-linecap="round"
      stroke-width=".87" />
    <path d="m58.91 510.79c.44 2.38-.11 2.89-.78 4.85s.22 5.68.22 5.68m8.09-7.64c-2.22 2.58-1.88 7.23-1.88 7.23"
      fill="none" stroke="#961538" />
    <path d="m48.17 514.82c3.99.31 5.98 3.3 6.87 5.78.45 1.35.93 2.69 1.44 4.03" fill="none" stroke="#961538"
      stroke-width="1.01" />
  </g>
  <path
    d="m316.99 360.51c-.8.82-1.71 2.57-1.94 3.6s-.91 3.09-1.6 4.32c-1.6 3.29-1.49 5.97.23 8.33 2.17 2.98 5.72 2.88 7.43 0 1.6-2.78 1.14-6.58-.91-9.57-1.81-2.12-2.16-4.98-.91-7.41.8-1.44-.69-1.03-2.29.72h0Zm7.54 17.69c-1.14.41-2.4 1.23-2.86 1.75-3.43 4.11 4.34 8.54 10.06 5.86 6.06-3.09 6.17-3.09 9.14-2.26 2.4.72 2.51.72 2.06-.1-1.03-1.75-2.51-2.47-8.46-4.32-6.86-2.06-7.09-2.06-9.94-1.03v.1Z" />
  <path
    d="M762,501c112,0,240-16,274-118h-61c-40,49-130,85-214,85c-92,0-169-43-183-101h-54c0,30,7,37,7,55c0,4-3,7-7,7c-13,0-47-24-63-24c-9,0-18,5-23,12c-3,4-1,6,2,5s7-3,12-3c19,0,67,24,83,33c74,40,151,49,227,49ZM392,381c7,0,7-10,0-10s-7,10,0,10ZM450,402c4-2,4-2,1-3c-2,0-13-5-25-10c-17-8-22-10-23-8c-1,1,5,5,21,12c20,10,23,11,26,9ZM631,474v-18h14v18ZM521,355v-14h15v14ZM513,361h83v-27h-83ZM549,355v-14h14v14ZM726,558c19,0,11-38,43-38c28,0,58,30,77,30c15,0,7-17,18-28l-10,1c15-5,25-9,34-6c38-7,60-10,69-26c-24,9-48,15-73,16c27-4,79-18,91-33l3-9c-62,32-132,41-216,41c-78,0-162-11-229-50c-22-11-61-32-81-32c-6,0-9,1-9,2c0,2,4,1,9,1c23,0,50,33,96,52c37,15,87,27,86,29s-29-4-54-13c-31-11-59-25-60-24c-4,4,24,22,49,32s36,11,35,12c-2,2-28-5-59-19l10,9c16,13,38,26,63,38c10-12,18-19,30-19c27,0,61,34,78,34ZM576,355v-14h14v14ZM546,329c5,0,5-2,11-22c0-3,0-4-3-6c-4-1-3-3-12,26c0,2,0,2,4,2ZM754,494v-18h14v18ZM507,319c3,0-2-10,3-10c4,0-1-14,4-14c3,0,2,7,4,7c3,0,0-19,3-19c2,0,1,14,3,14c4,0,3-23,6-23c2,0,1,19,5,19c2,0,1-20,3-20s2,21,5,21c4,0,1-22,4-22s1,24,7,24c3,0,1-25,3-25s0,29,5,29c4,0,2-18,4-18c4,0,0,23,5,23c2,0,2-15,4-15c3,0,1,23,4,23c2,0,2-6,2-14c0-54,38-98,63-118c12-9,19-16,16-16c-9,0-29,19-49,39c24-29,35-38,32-39s-23,18-41,36c18-20,27-31,25-32s-5,2-39,34c24-26,25-29,23-30s-9,5-33,29c14-16,20-24,18-25s-16,13-25,21c9-10,14-16,13-17c-2-2-15,9-21,15c3-5,7-11,6-12c-2-2-14,13-16,11c-1-1,4-4,4-6s-7,1-11,5c-2,2-4,2-2,0c3-3-2-3-7,2c-3,3-5,4-4,1c2-5-6,0-10,4c-17,14-26,50-26,78c0,18,6,40,10,40ZM760,464c84,0,172-34,209-81h-5c-39,43-125,74-204,74c-84,0-157-38-172-90h-6c13,56,88,97,178,97ZM676,438l7-21c4-12,8-24,4-26s-6,0-14,24l-6,18c0,3,4,4,9,5ZM913,526c7-2,18-9,25-16c-13,4-30,7-45,9c5,1,12,3,20,7ZM874,479v-18h14v18ZM807,440c-16-33-27-74-27-110c0-59,12-112,56-163c9-11,9-12-1-8c-4,1-9,8-28,33l-24,31c-1,0,3-5,26-39l13-20l-6,2c-4,1-8,6-23,28c-11,15-19,26-20,26l19-30c6-10,11-18,11-19c-2-1-8,5-22,25c-15,20-24,31-18,22l26-42c-3-2-10,5-21,22c-7,11-14,19-14,19l9-17l10-17c0-4-5,1-15,17l-13,17c-1,0,3-7,8-15c8-15,9-19,2-13l-11,15c-5,8-9,13-9,13s2-5,6-12c7-15,7-14,4-13c-4,4-8,8-11,13c-4,7-8,12-9,12c0,0,2-4,4-10c6-12,6-12,2-10c-2,0-5,5-8,9c-6,10-8,10-3,0c3-6,3-6,0-5c-2,1-5,4-7,8c-3,6-6,7-3,0c4-8,0-6-8,4l-3,4l2-5c1-2,1-4,1-4c-1-1-8,2-8,3c0,3-1,5-2,0c-4,1-9,3-13,5c-40,16-58,82-58,125c0,48,14,67,22,67c7,0,8-24,15-24c4,0,4,7,7,7s3-8,6-8c2,0,4,3,7,3c5,0-1-11,3-11c5,0,5,12,12,12c4,0-1-14,2-14c4,0,15,19,18,19c5,0-6-29-4-29c3,0,11,35,19,35c7,0-11-47-6-47c4,0,16,54,24,54c7,0-15-56-10-57s18,62,24,61s-16-63-11-64s13,67,31,76c12,6-29-81-18-81c6,0,16,85,45,100ZM522,193c2,1,20-4,123-32c49-14,54-16,54-18c0-1,0-2-1-2c-2-1,0-1-65,15l-73,19c-36,9-37,9-39,13c-1,3-1,4,1,5ZM504,126c5,5,14,8,21,8c21,0,44-12,65-12c6,0,11,2,16,1s9-16,9-24c0-4-3-5-7-5c-14,0-54,13-72,13c-14,0-17-5-20-3s13,14,29,16c-12,4-27,6-41,6ZM850,441c0,1,3,1,6,0l6-2l10-31c6-17,10-32,10-32c-1,0-3,1-7,3c-5,2-5,3-15,32c-6,16-10,30-10,30ZM921,529c13,7,29,15,41,15s10-30,28-30s34,13,42,18c1-24-21-49-29-49c-2,0-4,1-8,7c2-4,5-11,4-12s-6,1-18,16c7-12,9-17,7-18s-4,6-18,21c9-14,14-20,12-21s-11,11-27,25c-9,9-21,19-34,28ZM618,88c8,0,8-11,0-11s-8,11,0,11ZM974,407c-7,0-7,0-7-5c0-6,0-6,7-6c8,0,8,0,8,6c0,5,0,5-8,5ZM670,215l53-19l89-32l44-17c4-4-13,1-54,15l-87,29c-50,16-56,19-56,21c0,3,5,4,11,3ZM1008,407c-7,0-7,0-7-5c0-6,0-6,7-6s7,0,7,6c0,5,0,5-7,5ZM764,170c4,0,11-23,9-24c-3-2-14,24-9,24ZM974,375v-13h14v13ZM747,141c3,0,3-19-1-18s-1,18,1,18ZM834,428l3-9c1-4,1-11,1-14c-1-4-1-4,1-3c3,4,5-1,4-10c-1-8-1-8,1-3c2,7,3,7,6,2c2-3,2-5,0-13c-2-12-1-13,2-1c3,8,3,9,6,7c4-1,4-3,1-20c-2-7-2-13-2-13c2,4,3,7,4,12c5,16,5,16,9,13l4-3l-4-19l-4-20c1,0,3,7,6,17c7,20,7,21,11,19c3-2,4-3,3-5c-2-9-9-42-8-43c3,7,5,15,7,22c7,22,7,23,11,22c3-1,5-1,5-1l-5-21l-4-23c2,4,4,9,5,14c10,33,9,30,15,30c4,0,5,0,5-3l-9-41l8,22l7,23l7,3l8,3c-4-10-7-20-8-31c-7-50,28-131,76-179l9-9l-11,4l-10,3l-24,30c-13,17-24,30-25,30l20-27c11-16,20-28,19-29c0,0-2,0-5,1s-9,8-22,24c-9,13-17,23-18,23c-2,1,0-1,15-23c7-10,13-19,12-19c-2-2-9,5-23,24c-24,31-25,32-4,0c8-10,13-19,13-19c0-1-2,0-4,0c-2,1-9,9-18,21l-15,20c6-11,12-21,19-31c2-4,2-5,1-5c-6,5-11,11-15,17c-17,24-18,23-3-1c4-7,8-13,7-13c-3,0-9,5-16,16l-9,12c-1,0,2-5,5-11c6-10,6-12,4-11c-5,3-9,7-12,12l-8,12c-1,0,1-5,4-10c6-10,6-11,2-10c-1,1-5,5-8,9c-7,9-8,10-4,1c5-10-1-8-7,3c-2,2-3,4-4,3l2-5c3-4,3-4-1-3c-2,0-4,3-6,5c-3,4-3,4-2,1c0-2,0-3-6-3c-13,0-47,79-47,144c0,28,6,48,23,80ZM755,141c2,0,1-16,3-16c3,0,0,15,4,15c1,0,2-5,2-15c0-4-12-5-12,0c0,2,1,16,3,16ZM953,379c41,1,92,1,102-1l-5-22h-83ZM769,141c2,0,5-19,1-19c-2,0-3,3-3,10c0,5,0,9,2,9ZM979,347v-13h14v13ZM776,142c2,0,4-11,5-14s1-5-2-5c-2,0-2,1-3,5s-3,14,0,14ZM696,102c0,3,20-1,29-3c31-7,42-7,62-2c8,2,9-12,9-17s-19-6-30-6c-19,0-32,6-55,6c-10,0-15-1-18-2s-3,0-1,2c10,10,27,8,27,11c0,6-23,8-23,11ZM797,149c3,1,10-9,10-13c0-7-16-13-20-11s-6,17-4,17s5-14,9-14c5,0-4,16-2,17s8-16,11-14s-6,17-4,18ZM1020,375v-13h15v13ZM782,119c3,0,8-15,6-16c-4-2-10,16-6,16ZM965,352h99c-1-6-2-14-2-21v-5c-23-2-73-3-88,2ZM1007,347v-13h15v13ZM1036,347v-13h15v13ZM1055,322c5,2,8-1,18-19c9-17,10-21,7-22s-7,4-16,19c-6,10-14,20-9,22ZM849,202c5,0,15-2,40-11l82-27c27-9,52-17,58-18c10-3,13-5,13-9h1c0-1-2-2-5-2c-4,0-94,26-171,49c-19,5-26,10-25,15c1,2,3,3,7,3ZM1088,276c8-14,16-27,23-42l-43-7c-23-4-43-6-43-6s-3,3-17,26c-12,21-13,23-10,24ZM949,155c3,0,4-3,7-11c2-6,5-15,6-20c2-6,3-11,3-12c0-2-2-3-3-1c-1,1-4,10-8,21l-7,22c-1,1,0,2,2,1ZM873,110h7c9-1,19-2,28-4c24-5,39-6,50-3c5,2,9,3,9,3c2,0,7-19,5-20c0,0-5-2-10-3c-14-2-36-1-50,2c-13,3-26,4-37,2c-5-1-7,0-7,1c2,3,12,6,20,7c7,1,9,2,10,3c0,3,0,3-15,8ZM1113,229c3,0,6-4,4-6s-5,0-6,2s-1,4,2,4ZM1119,217c7,0,7-9,0-9s-7,9,0,9ZM798,71c8,0,8-11,0-11s-8,11,0,11ZM975,77c8,0,8-11,0-11s-8,11,0,11ZM592,163c7-1,15-33,13-34c-3-2-20,35-13,34Z"
    fill="#fcd80e" />
  <path
    d="m978.55 340.14v6.69h14.41v-13.37h-14.41v6.69Zm28.83 0v6.69h14.41v-13.37h-14.41v6.69Zm28.83 0v6.69h14.41v-13.37h-14.41v6.69Zm-62.53 28.29v6.69h14.41v-13.37h-14.41v6.69Zm46.57 0v6.69h14.41v-13.37h-14.41v6.69Zm-53 32.91q0 5.14 7.21 5.14t7.32-5.14q0-5.35-7.32-5.35-7.21 0-7.21 5.25v.1Zm33.71 0q0 5.14 7.21 5.14 7.21 0 7.21-5.14 0-5.35-7.21-5.35-7.21 0-7.21 5.25v.1Zm-370.66 64.08v9.67h14.41v-19.44h-14.41v9.77Zm243.93 5.97v9.67h14.41v-19.44h-14.41v9.77Zm-120.3 13.37v9.77h14.41v-19.44h-14.41v9.67Zm-232.73-137.11v6.69h14.41v-13.37h-14.41v6.69Zm27.83 0v6.69h14.41v-13.37h-14.41v6.69Zm26.94 0v6.69h14.41v-13.37h-14.41v6.69Z" />
  <path
    d="m732.34 569c-7.4 0-18.58-4.54-37.31-14.81-40.21-21.69-48.52-22.55-63.48-6.54-6.48 6.77-16.46 14.07-21.33 14.07-.13 0-.27-.01-.4-.04-11.37-2.46-22.27-6.43-32.41-11.8-30.81-14.74-48.82-15.08-56.58-1.06-4.96 8.53-9.51 12.79-15.21 14.29-10.16 2.67-23.98-3.8-45.91-16.66-24.55-14.37-37.2-14.71-58.84-1.56-16.52 10.18-18.18 10.41-35.58 4.81-2.77-.94-6.66-2.02-10.77-3.17-15.76-4.38-20.79-6.18-21.59-8.88-.29-.99.27-2.03 1.26-2.33.93-.27 1.9.2 2.26 1.08 1.51 1.64 12.48 4.69 19.07 6.52 4.17 1.16 8.1 2.26 10.95 3.22 15.96 5.13 16.58 5.33 32.45-4.45 22.6-13.73 37.25-13.37 62.69 1.52 23.99 14.06 35.25 18.33 43.07 16.27 4.65-1.22 8.51-4.96 12.91-12.51 8.91-16.1 28.47-16.25 61.52-.44 9.84 5.2 20.35 9.04 31.3 11.43 3.06-.21 11.62-5.77 18.43-12.89 17.4-18.63 28.42-15.53 67.99 5.82 22.34 12.25 33.78 16.19 39.5 13.59 2.51-1.14 4.14-3.75 5.12-8.23 4.75-19.67 9.41-23.38 29.33-23.38 11.88.42 29.67 5.24 47.63 12.91 15.83 7.08 30.94 12.19 33.42 12.19 1.96 0 5.24-4.32 6.83-10.52 1.33-6.62 6.77-14.95 12.09-18.48.03-.02.06-.04.09-.06 11.79-6.89 23.79-4.26 61.17 13.4 22.32 10.35 34.13 13.31 39.5 9.88 3.23-2.06 4.73-6.95 4.73-15.39s8.77-13.5 21.83-13.5c4.86 0 21.83 8.13 35.42 15.99 17.7 9.85 30.76 15.82 36.87 12.82 2.91-1.42 4.66-5.06 5.69-11.79 1.12-7.47 3.88-12.28 8.43-14.68 8.16-4.31 21.65-1.15 46.57 10.91 23.92 12.11 55.32 16.31 61.64 12.43.64-.39.64-.66.64-.76 0-1.03.84-1.87 1.87-1.87s1.87.84 1.87 1.87c0 1.12-.42 2.72-2.43 3.95-8.1 4.98-41.2-.08-65.26-12.26-23.05-11.16-36.37-14.54-43.16-10.96-3.48 1.83-5.54 5.62-6.48 11.93-1.24 8.08-3.63 12.58-7.75 14.6-6.73 3.29-17.29-.09-40.36-12.93-16.62-9.61-30.75-15.5-33.57-15.5-10.82 0-18.08 3.92-18.08 9.75 0 9.98-1.99 15.7-6.46 18.55-6.75 4.31-18.84 1.6-43.1-9.65-35.91-16.96-47.25-19.64-57.65-13.58-4.03 2.7-9.18 9.81-10.46 16.16-1.67 6.52-5.65 13.43-10.48 13.43-3.64 0-20.28-5.96-34.91-12.51-17.54-7.48-34.82-12.19-46.2-12.59-18.15 0-21.27 2.49-25.61 20.48-1.23 5.61-3.6 9.15-7.22 10.8-1.59.72-3.4 1.1-5.53 1.1Zm-395.83-32.41s0 0 0 0c0 0 0 0 0 0Z"
    fill="#faf6f5" />
  <path
    d="m421.64 587.53c-7.38 3.95-6.57 4.34 6.69 2.76 11.07-1.28 18.44.3 33.31 7.5 28.36 14.12 40.34 15 59.13 4.94 22.71-11.45 31.7-13.72 49.45-10.56 13.49 2.17 14.75 2.17 9.45-1.88-11.53-9.08-34.12-9.08-54.29 0-23.05 10.07-34.12 10.36-60.06.3-23.52-9.08-32.16-9.67-43.69-3.06h0Zm424.54 9.38c-15.68 7.8-32.97 16.02-38.62 16.02s-23.52-7.92-39.19-15.13c-26.63-12.14-29.16-12.83-41.5-9.08-34.12 10.66-56.37 14.12-72.74 10.66-19.02-3.75-20.63-1.28-4.15 6.22 16.02 7.21 29.97 6.91 61.32-1.48 25.82-6.91 26.28-6.91 39.08-.99 51.41 23.49 66.17 24.68 92.91 8.49 30.89-18.75 43.57-20.33 87.61-9.38 26.28 6.51 28.36 6.51 41.15 1.88l13.6-5.33h-16.94c-15.12-1.23-30.01-3.98-44.38-8.19-15.22-4.34-32.51-7.8-38.73-7.8-6.57 0-23.4 5.92-39.42 14.12h0Zm241.84-1.58c-4.96 1.58-10.37 4.05-11.87 5.92-3.34 4.34-24.78 4.34-36.19 0-7.03-2.47-6.69-1.58 2.42 4.74 13.95 9.67 24.21 10.27 42.42 1.88 12.68-6.32 14.29-6.32 28.82-1.58 24.21 7.5 28.82 5.33 9.34-4.74-19.25-9.97-21.79-10.27-34.93-6.22h0Zm-129.1 40.67c-11.99 6.91-26.4 12.54-31.7 12.54-4.96 0-20.63-4.44-33.77-9.77l-24.67-9.97-15.56 6.91c-8.65 3.75-20.63 8.39-26.74 10.27-6.57 2.17-11.53 5.03-11.53 6.32 0 4.64 13.14 2.47 31.12-5.63 20.29-9.08 31.81-8.49 51.53 1.88 27.09 15 35.73 14.31 65.7-3.75 19.02-11.65 32.28-11.85 64.32-1.28 23.75 7.5 26.63 7.9 39.08 3.75l13.49-4.34-14.41-.39c-7.72-.3-26.28-4.64-40.34-9.67-14.29-5.33-30.32-9.38-35.27-9.38s-19.37 5.63-31.24 12.54h0Zm-336.94 1.58c-19.25 13.42-31.7 13.82-51.87 1.58-18.44-11.35-30.78-11.65-55.45-1.58-13.95 5.63-16.83 7.8-11.53 9.38 3.69 1.28 12.33-.3 19.37-2.86 18.1-7.21 27.09-6.22 50.14 5.92 11.53 5.92 22.59 10.96 24.21 10.96 7.08-2.53 13.84-5.67 20.17-9.38 28.82-15.89 34.58-16.58 62.59-7.8 25.47 8.49 32.85 7.9 45.19-3.45 5.42-4.94 4.96-4.94-3.23-1.88-13.14 5.33-22.71 4.74-47.26-3.95-28.47-10.07-33.43-10.07-52.33 2.96v.1Zm-224.55 20.63c-5.4 2.08-10.08 5.31-13.6 9.38-4.96 5.63-4.61 5.92 2.88 3.16 10.37-4.44 28.01-4.44 31.24 0 1.73 1.88 10.37 7.5 19.37 12.44 21.44 11.65 39.19 11.85 60.86.99 16.48-8.09 27.66-8.79 51.41-2.86 5.76 1.58 4.96-.3-4.03-5.92-15.68-10.27-31.7-10.27-55.56 0-21.9 9.38-29.28 8.49-56.37-8.09-22.59-13.42-23.4-13.82-36.19-9.08h0Zm294.05 14.12c-7.84 4.34-17.29 8.98-20.52 10.56-3.34 1.58-4.96 3.45-3.69 4.44 1.15 1.18 11.07-1.58 21.79-5.92 10.72-4.44 22.59-7.9 26.28-7.9 4.15 0 16.14 5.63 27.66 12.83 22.59 14.12 29.51 14.41 54.98.99 19.02-9.77 23.05-9.38 45.76 1.88 23.4 11.85 32.85 11.85 60.86-.3 25.01-10.66 34.12-10.36 59.13 2.17 8.65 3.95 18.56 7.5 21.9 7.5 9.45 0 27.55-7.9 36.89-15.69l8.3-6.91-14.41 6.61c-19.37 8.79-31.24 8.19-55.56-2.76-25.82-11.65-33.31-11.65-55.91 0-23.05 11.55-34.93 11.85-57.64 0-23.05-11.65-34.93-11.85-55.44 0-20.17 11.55-25.13 11.55-42.77.59-16.83-10.66-30.43-16.29-37.81-16.29-7.06 1.84-13.75 4.6-19.83 8.19h0Z"
    fill="#faf6f5" />
  <path
    d="m561.77 306.82c-.89 2.88-5.54 20.16-5.54 21.19 0 .41 6.54.93 14.41.93s14.41-.62 14.41-1.23c-1.16-2.63-2.72-5.1-4.66-7.3-6.1-7.92-17.52-16.25-18.63-13.58Zm-22.84-9.36c-15.52 1.28-27.44 13.31-27.5 27.77 0 3.29.22 3.7 12.09 3.29l12.31-.41 3.88-10.8c1.88-6.17 3.99-13.06 4.44-15.43l-.11-.1c1-4.11.78-4.32-5.1-4.32Zm55.11-159.64c-.78 0-50.67 34.05-52.89 36-.67.62 1.33.62 4.88-.31 25.94-6.58 39.92-10.49 40.8-11.52 1.84-4.1 3.32-8.33 4.43-12.65 1.66-6.27 3.1-11.52 2.77-11.52Zm-75.28 239.87v-11.52h-10.75v-16.05c0-13.78-.67-17.07-3.99-23.86h.11c-2.22-4.22-4.1-7.82-4.43-7.82-4.52 13.73-8.74 27.55-12.64 41.45l-12.2 41.35 5.77 2.37c3.1 1.34 12.64 6.27 20.84 11.01 8.32 4.53 16.52 8.23 18.18 8.23 5.77 0 6.54-5.14 2.88-19.75-2.04-8.35-3.3-16.85-3.77-25.41Zm99.01-9.67c-3.72-20.3-3.64-41.03.22-61.3 2.55-11.93 2.55-12.24-1.55-22.42-4.88-12.65-8.87-32.09-8.87-42.79h0c0-4.53-.67-8.13-1.44-8.13-2.44 0-13.08 23.76-16.41 37.03-2.55 10.7-1.88 16.97-2.55 30.24.33 9.26 1.55 19.54 2.55 22.63 1.55 4.94 2.55 5.66 6.54 5.66h4.88v18.62c0 17.59-.33 17.9-3.22 18.62-2 .51-2.77.21.11 7.71 4.77 11.31 13.19 25.1 20.29 32.91 7.98 8.95 20.18 18.31 21.07 16.15-1.48-5.39-3.72-10.58-6.65-15.43-8.65-16.35-11.86-24.89-14.97-39.5Zm112.76-188.54c.22.31 5.88-1.34 12.53-3.6l12.09-3.91 4.77-13.37 4.88-13.27h-4.44c-3.66.1-6.43 2.88-17.3 16.87-7.21 9.26-12.86 16.97-12.53 17.28Zm-233.95 130.73l-2.22-11.11c-1.22-6.17-2.55-12.96-2.77-15.22-.44-3.7-.89-3.5-9.98 5.97-31.93 32.5-71.4 80.23-71.4 86.09 0 2.37 47.68 22.94 54.33 23.35l5.43.51 13.31-44.74 13.31-44.85Zm314.11-84.24l-2-9.67-5.1 11.31c-11.31 25.84-17.76 53.29-19.07 81.16-1 18.51.67 47.01 2.55 47.01.67 0 2.77-3.09 4.77-7.2 2-3.91 5.88-9.98 8.2-13.68 3.98-6.21 6.19-13.25 6.43-20.47 1.86-16.5 5.47-32.8 10.75-48.65l4.32-13.06-4.44-8.54h0c-2.66-4.63-5.54-12.86-6.43-18.21Zm-36.81-61.41c4.49-.61 8.88-1.71 13.08-3.29l13.31-4.42-4.44-2.67h0c-8.65-5.14-16.52-7.61-17.07-5.55-.55 1.03-1.89 5.14-3.33 9.26-1.44 4.01-1.88 6.48-1.55 6.69Zm-1.44-46.9c-.11-.41 1.44-.62 2.55-1.44 1.55-3.5.33-4.22-2-1.54-1.11 1.23-1.33 2.57-.55 2.98Zm-98.46 21.6c-1.22-.62-14.3-3.6-30.27-6.58v-.1s-29.94-5.14-29.94-5.14c-.67 0-2 2.88-2.88 6.27l-4.32 15.02c-1.55 4.83-2.33 8.85-2 9.15 12.37-2.56 24.65-5.51 36.81-8.85 19.85-5.14 33.93-9.36 32.6-9.77Zm124.96-15.63c3.96 1.35 7.72 3.14 11.2 5.35l3.66 2.78-5.99 11.42c-2.31 3.81-4.17 7.85-5.54 12.03 1.11 1.03 43.02-13.17 42.58-14.4-8.32-6.22-16.94-12.09-25.83-17.59v-.1c-13.97-9.05-25.61-16.46-25.83-16.46-1.33 0-4.21 12.55-3.1 13.37.67.51 4.66 2.26 8.87 3.6Zm93.36 261.36c-3.99-7.41-5.54-9.87-5.54-7.61 0 .41-3.99 13.27-8.87 28.7-4.99 15.33-8.65 28.29-8.54 28.9.67 1.65 20.84-8.23 36.26-15.12l11.64-6.27-10.31-10.08c-5.68-5.59-10.6-11.81-14.64-18.51Zm48.67-.72c-3.44-.41-4.88-1.75-3.44-3.39-2-1.23 0-3.29-6.21-6.58-6.54-3.19-11.2-4.22-20.51-4.53-11.86-.31-19.29.31-19.29 1.95 0 3.29 10.98 20.57 16.85 26.95 11.2 11.83 12.42 12.14 22.18 4.94 13.64-9.67 18.07-14.71 16.19-17.69-1-1.34-3.33-1.34-5.77-1.65Zm-1.66-227.63c3.41-6.73 6.19-13.71 8.32-20.88h0c3.55-10.7 6.43-19.54 6.1-19.54-.33-.31-83.38 58.94-85.49 60.89 4.79-.71 9.5-1.81 14.08-3.29 37.59-10.49 55.22-15.63 56.99-17.18Zm13.86 127.54h0c-2.22-12.75-4.32-23.45-4.66-23.55-.33-.31-2.11 3.81-3.88 9.36-12.2 36.93-11.53 74.88-2.99 96.07l3.33 5.97 7.76-6.89c4.44-4.32 7.65-8.43 7.21-9.26-.55-.72.44-5.04 2.22-9.67l2.33-8.74-3.1-15.02c-3.18-12.67-5.92-25.43-8.2-38.26Zm71.63-152.02c0-.62-11.97-5.35-26.61-10.9-17.96-6.89-26.61-9.36-27.28-8.23-2.33 6.07-11.75 37.44-11.2 37.95.78.82 65.08-17.9 65.08-18.82h0Zm-170.64 262.39c-7.63 7.96-12.3 17.98-13.31 28.59-1.11 7.3.33 17.18 2.33 17.18 4.11-8.54 7.45-17.38 9.98-26.43 4.99-14.71 8.76-26.85 8.76-26.85-.33 0-3.77 3.39-7.76 7.51Zm-120.08 9.67h0c-9.42-3.7-17.96-6.69-18.85-6.69-1 0-1.77 1.34-1.77 3.09 2.6 12.09 7.16 23.74 13.53 34.56 5.54 9.26 6.99 10.39 8.65 6.89 1.88-3.91 6.54-14.19 13.42-21.39 7.87-8.02 11.64-4.01-14.97-16.46Zm-25.5-2.16c0-2.06-1.22-4.22-1.77-5.14h-.11c-.55-1.03-2.77-2.67-5.54-3.29l-4.44.62-7.98 21.29c-4.1 12.55-7.98 23.66-8.54 24.69-.44 1.13 3.1 2.67 10.98 4.11 14.75 3.09 36.59 6.17 37.48 5.14.55-.51-1.66-4.94-4.99-10.08-6.21-9.77-15.08-31.47-15.08-37.34Zm98.13-39.19h-.11c-.82-6.58-1.56-13.16-2.22-19.75l-.33-5.97-5.77 10.39c-8.98 16.15-9.87 20.16-7.87 30.14 4.99 22.42 25.17 69.94 29.6 69.94 1.11 0 6.1-.1 10.53-1.03 9.65-1.95 9.65-2.06-.33-17.49-12.83-20.28-20.84-42.86-23.51-66.24Zm-89.26-178.77l17.96-19.85c11.97-15.22 14.52-19.03 11.64-18.51-2.22.51-5.54 1.85-5.54-.51-1.33-1.13-10.64 6.17-32.49 25.1-16.85 14.5-30.49 26.43-30.27 26.74 7.03-1.96 13.99-4.15 20.84-6.58l17.85-6.38Zm-52 208.19c-8.65 2.77-15.75 8.61-19.74 16.25-2.77 5.04-2.88 6.58-1.33 12.96 1.77 6.38 2.99 7.82 8.32 10.49 3.66 1.65 7.1 2.57 7.76 1.75 3.09-6.71 5.75-13.58 7.98-20.57l7.76-21.29c.78-2.26-1.77-2.16-10.76.41Zm108.77 31.68c-6.76-3.91-12.53-6.99-12.97-6.99s-4.66 3.7-9.09 8.23c-4.95 4.61-8.64 10.25-10.75 16.46-1.44 4.63-2.11 8.85-1.44 9.26 22.39 1.31 44.84 1.06 67.19-.72l3.77-1.03-11.75-9.26c-7.21-4.94-18.18-12.14-24.95-15.94Z"
    fill="#47a3d8" />

</svg>