<svg xmlns="http://www.w3.org/2000/svg" width="1200" height="720">
  <path d="M0 0h1200v720H0Z" fill="#003da1" />
  <path d="M0 0h1200v480H0Z" fill="#fff" />
  <path d="M1200 0v240H0V0Z" fill="#c93e2a" />

  <path fill="black"
    d="
    M600 274a86 86 0 1 0 0 172 86 86 0 1 0 0-172zm0 4a82 82 0 0 1 0 164 82 82 0 0 1 0-164z M600 288a72 72 0 1 0 0 144 72 72 0 1 0 0-144zm0 2a70 70 0 0 1 0 140 70 70 0 0 1 0-140z M600 308a52 52 0 1 0 0 104 52 52 0 1 0 0-104zm0 2a50 50 0 0 1 0 100 50 50 0 0 1 0-100z

    m-53 90 8.7-5.8-1.2-1.8-3.7 2.5 1.7-5.5-1.5-2-1.5 5.1c-2.6-2-6.8 1.1-4.6 4.4zm.4-2.9-.7-1c-1.3-1.9 1.3-3.5 2.4-1.7l.7 1.1zm-7.5-9 9.7-4-2.4-5.8-1.8.8 1.5 3.8-2.2 1-1.5-3.6-1.7.7 1.5 3.5-2.1 1-1.6-3.9-1.8.8zm-4-11.6 10.2-2-.4-2.2-3.5.7-.3-1.4c-1-4.7-7.7-3.2-6.7 1.5zm1.4-2.5-.2-1.2c-.4-2.4 2.4-2.8 2.9-.7l.3 1.3zm2.9-10.5c5.4 0 5.5-8.4 0-8.4h-6.4v2.1l6.6.1c2.7 0 2.6 4-.1 4h-6.6v2.1zm4.5-12.6.9-4c1-4.6-4.2-4.8-5-2.9-.2-2.6-4.4-2.7-5.3 1.2l-.8 3.4zm-5.5-3.5-2.4-.5.3-1.3c.4-1.8 2.8-1.4 2.4.4zm4 1-2.4-.6.4-1.8c.4-1.7 2.8-1 2.5.5zm4.4-8.9 2.5-5.7-1.8-.8-1.6 3.7-7.8-3.4-.8 2zm4.6-9.2 1-1.8-8.7-5.6-1.1 2zm7.7-9.5q1.3-1.3 1.5-3l-1.7-1.6q0 2-1.2 3.2c-3.4 3.4-8.1-1.3-5.1-4.4q1.3-1.3 3-1.7l-1.6-1.5q-1.6.7-3 2c-5.2 5.3 3.2 12.6 8 7m4-4.2 2-1.3-.4-2.4 3.7-2.6 2 1.2 2-1.3-10-5.8-1.2 1zm1-5.5-.7-3.9 3.4 2zm88.7 88 1.3-2-2.2-4.4 4.9.1 1.3-2h-7.2l-3.7-2.4-1.2 1.8 3.7 2.4zm-3.4-14.7 11.4-.9.6-1.5-8.1-8-.8 2 1.7 1.7-1.5 4.3-2.5.2zm5.2-2.3 1-3 2.9 2.6zm9.4-9 .3-2.2-6.5-1c-2.7-.4-2-4.3.5-4l6.5 1 .3-2.3-6.5-.8c-5.6-.7-6.4 7.5-1 8.3zm-78.2-67.4 3.9-.7c6.9-1.2 5-11.7-2-10.3l-3.7.7zm1.8-2.3-1.1-6.5 1.8-.3c4-.7 5.2 5.8 1 6.5zm16.7 1v-1.9h-4v-2.6l3.9.1v-1.8h-3.8v-2.4l4.2.1V294l-6.2-.2-.3 10.4zm52 55.1 4.6-.4-.5-4.9-1.8.2.3 2.8-1.6.2q-.5-.5-.8-2.2c-.2-2 1.3-3.6 3-3.7q3.2.2 3.7 3.3a6 6 0 0 1-.8 3.5l2.2-.2c.5-.9.8-2.4.6-3.6-.5-3.3-3-5.5-6-5.2a5.2 5.2 0 0 0-4.7 6c0 1.4.9 3.2 1.9 4.2m-41.6-53.2.4-1.9-4-.9 1.8-8.3-2.1-.4-2.2 10.2zm39.2 41.1 8.4-7.9-.5-1.5-11.5-1.2.8 2.2 2.4.2 1.5 4.3-1.8 1.7zm2.6-5-1-3.2 3.8.5zm-13-17.2 4-10.8-1-1-10.8 3.7 1.6 1.7 2.3-.8 3.2 3.2-1 2.3zm6 9.8 1.9-5.2c2.7 2.2 6.8-1 4.7-4.2l-2-3.3-9 5.5 1.3 1.8 3.9-2.3-2 5.5zm-5.8-15.5-2.4-2.4 3.9-1.3zm8.2 8.4-.7-1 2.4-1.7.7 1.2c1 1.7-1.4 3.2-2.4 1.5m-22-14.8 2-2.9 1.2.8c3.9 2.6 8-3 3.8-5.8l-3-2-5.8 8.7zm4.2-3.8-1.1-.7 1.7-2.5 1 .7c2 1.4.5 3.8-1.6 2.5m-46 95.7 8-4c1 2 2 1 3 1s2 1 3-1c1 2 3 3 5 4 4 2 5-1 3-3-1-1-2-1-3-2l2-1c7 4 15 3 18-2l-3-1c6 0 9-2 8-5 0 0-3 1-5 0v-1c4 1 6-2 4-5 7 5 11-5 12-8h-3c2-3 2-4 2-8l-3 2c1-1 1-3-1-4 7-5 7-13 7-19l-5 5c1-3 1-5-1-7l-1 2c-2-2 5-9 0-15l-1 3c-1-3-1-5-3-8l-2 3c-1-1-2-2-4-3 0-2-2-3-3-2 0-2-1-7-9-8 0 2 2 3 2 7-2-2-6-2-7-4 0 2 0 4 1 6-1 0-3 1-4 2 2 2 7 4 11 3-2 3 3 4 4 2l1 1c0 2 1 5 3 6-2 0-5-1-7-2 3 9 7 9 12 10l1 1c-2-1-3-1-4-1 2 2 2 4 2 7-1-1-1-3-2-4-4 7-1 12 5 14-2-1-4 1-4 2l-2-4c-3 3-6 11-1 15-1 0-2 1-3 2-1 0-3 1-5 3-6 0-10 4-10 12-2 1-4 0-6 2-1-1-3-2-4-1-2-1-3 0-5 0-6-1-8-13-17-17 0-2-1-4-2-6 0-3-2-7-5-9l-1-1c1-4 0-6 0-9v-4c4-2 6-6 9-11q-2 1-7 3c6-6 10-5 12-12 1-1 4-4 4-7l3-2c-7-1-11 3-14 6 0-2 1-4 2-6-4 2-5 5-6 7l-2 2c1-2 1-5 1-7-4 6-8 6-8 14q0-4.5-3-6c1 9-4 11-2 20-1-2-4-4-5-4l2 4c1 2-3 6 2 12l-3-1c1 1 2 2 3 5 0 3 0 5 1 7 0 2 1 4 2 6 0 4 2 6 4 8 5 12 20 7 28 10-3 1-4 2-6 3-4 2-2 5 2 3m11.1-70 14 44-37-27h46l-37 27z" />

  <path fill="#3a9646"
    d="M626 336c0 4 4 5 8 8-2-2-2-7-8-8m2-8c0-2-2-2-2 0s2 2 2 0m-1 3c0 2 2 2 4 5 0-3-1-4-3-5 2 0 3 1 4 3 1-3-1-4-3-5-1 1-2 1-2 2m-5 1c-2 0-2 2 0 2s2-2 0-2m8 5c-1-3-4-3-4-7 0 1-1 2-2 2 1 4 4 2 6 5m-7-9c0-2-1-4-3-7 3 2 4 5 4 7 2-5-1-8-6-9 3 3 1 7 5 9m0 1c-1 1 1 3 2 2s-1-3-2-2m11 38c-1-1-3 1-2 2s3-1 2-2m-13-37h1c-6-2-5-3-8-5 2 0 5 4 8 4l-3-3c-2-2-5-2-6-3 0 3 2 7 8 7m18 23c2 0 2-4 0-4s-2 4 0 4m0-18c-1 3-2 10-2 14 1-6 4-10 2-14m-2 37c2 1 4-3 2-4s-4 3-2 4m8-22c-2 4-9 5-9 17 6-1 9-10 9-17m-2 4c-1 6-3 8-6 11 2-4 3-5 6-11m-10-13c1 2 2 4 2 5-6-6-9-3-13-6 2 7 10 8 12 8 3 6 2 10 2 12 1-4 2-5 3-6-3 0-3-4-3-8-3-8-1-7-2-11 3 2 0 5 2 9 2-7 0-10-1-14-2 3-4 7-2 11m-8 2c3 0 6 1 9 4-4-2-7-3-9-4m10 19c0-4 1-11-3-12 3 4-2 7 3 12m0 3c0-4-4-4-5-11-2 3-1 9 5 11m-2 5 1 4 2-1c-2-1-1-4 0-5-1 1-2 2-3 2m-13-39c-2 0-5-1-6-3-1 0-2 0-3 1 2 2 5 3 9 2m12 56c0-3-5 0-3 2 1 1 3 0 3-2m-11 7c4-2 6 0 10-1-4 2-6 0-10 2 4 1 12 0 11-3-3 1-8-2-11 2m-12 10c0 1 2 1 2 0s-2-1-2 0m16-22c-7 3-6 10-12 15 3 1 4 1 7 1-3 2-5 1-8-1 5-4 3-7 8-12-7 0-9 7-9 11-2 2-6 2-5 3s2 0 4-1c4 3 12 4 16 0-2-1-5-2-9-2 5-3 10-10 8-14m-1 4c-2 1-3 6-7 8 3-3 3-8 7-8m-7 1c-4 5-1 4-5 8 2-3 0-5 5-8m12-7c-2-1-4 3-2 4s4-3 2-4m-67 2c1 6 8 8 12 8-4-1-10-4-12-8m70 0c7 0 10-9 10-11-3 3-7 2-9 6l-1 2c1-6 0-8-3-13-3 3-3 11 0 12 0 0 1-4 0-7 2 3 1 6 1 8 2 2 0 6-3 6-1 3-2 4-3 6h3c0-4 1-6 5-8 2 2 6 0 8-2-1 2-4 5-8 3 5 5 9-2 11-6-3-1-7 7-11 4m8-8c-2 1-4 5-8 7 3-3 5-7 8-7m-51 28c-2 1 0 0 0 2 3-2 7-3 6-4s-4 1-6 2m-20-65q2-3 3-6-3 1.5-3 6m17 67c0 1 2 1 2 0s-2-1-2 0m21-3c-4-2-4-3-6-3 5 3 2 4 7 6 0-2 3-1-1-3m-10-3c4 1 4 4 5 3s-3-4-5-3m-2 0c-7-2-10-14-17-17 1 4 4 5 5 8-4-3-6-6-7-12 0 9 4 13 10 16-16-4-8-20-14-26 1 4 0 7 0 10-1-3 0-7-2-11-2 9 1 13 5 18-13-10-3-20-6-28-1 3-5 5-1 12-7-7 2-12 1-16-2 4-4 3-5 8-1-5 3-6 4-8h-3c9-3 9-7 12-10-3 1-7 4-9 7 4-13 12-9 15-18-2 1-4 3-6 3 3-3 9-5 10-9-3 1-7 5-10 8 2-3 6-8 11-10-5 0-9 4-14 11 2-5 1-4 2-8-3 2-3 9-7 12-3 4-3 6-3 11-1-2-1-8 2-12 0-5 2-5 3-10-7 7-5 9-6 13-2 7-3 13-2 16-3-9 3-15-1-22 2 8-7 13 1 26-4-1-2-7-7-10 2 3 3 5 2 8 0-1 0-3-1-4-1 4-1 6 2 10 4 2 6 4 7 9-2-3-2-6-8-8 4 11 8 7 10 15-2-4-7-6-9-10 0 6 6 11 10 13 2 1 5 2 5 4-5-4-9-3-14-11 4 14 18 11 19 18l5 1c-5 1-9-1-11-2l5 1c-4-5-8-2-12-5 4 7 13 8 19 8 11 0 13 5 14 4s0-2-4-3m-16-63c-5 2-7 4-10 8 0-2 3-7 10-8m-20 23c1 3 4 4 4 7-1-2-5-4-4-7" />

  <path d="m600 341 10 32-27-19h34l-27 19z" fill="#fbdd48" />

</svg>