<svg xmlns="http://www.w3.org/2000/svg" width="1200" height="720">
  <path d="M0 0h1200v720H0Z" fill="#003da1" />
  <path d="M0 0h1200v480H0Z" fill="#fff" />
  <path d="M1200 0v240H0V0Z" fill="#c93e2a" />

  <path fill="black" todo="true"
    d="M600 446c47 0 86-39 86-87c0-47-39-85-86-85s-86 38-86 85c0 48 39 87 86 87ZM547.1 400l8.7-5.8l-1.2-1.8l-3.7 2.5l1.7-5.5l-1.5-2.1l-1.5 5.2c-2.6-2.1-6.8 1.1-4.6 4.4ZM547.5 397.1l-0.7-1.1c-1.3-1.8 1.3-3.4 2.4-1.6l0.7 1.1ZM540 388.1l9.7-4l-2.4-5.8l-1.8 0.8l1.5 3.8l-2.2 0.9l-1.5-3.5l-1.7 0.7l1.5 3.5l-2.1 0.9l-1.6-3.8l-1.8 0.8ZM536 376.5l10.2-2.1l-0.4-2.1l-3.5 0.7l-0.3-1.4c-1-4.7-7.7-3.2-6.7 1.5ZM537.4 374l-0.2-1.2c-0.4-2.4 2.4-2.8 2.9-0.7l0.3 1.3ZM540.3 363.5c5.4 0 5.5-8.4 0.1-8.4l-6.5-0.1v2.2l6.6 0.1c2.7 0 2.6 4-0.1 4l-6.6-0.1v2.2ZM544.8 350.9l0.9-4.1c1-4.5-4.2-4.7-5-2.8c-0.2-2.6-4.4-2.7-5.3 1.2l-0.8 3.4ZM539.3 347.4l-2.4-0.5l0.3-1.3c0.4-1.8 2.8-1.4 2.4 0.4ZM543.4 348.4l-2.5-0.6l0.4-1.8c0.4-1.7 2.8-1.1 2.5 0.5ZM547.7 339.5l2.5-5.7l-1.8-0.8l-1.6 3.7l-7.8-3.4l-0.8 2ZM552.3 330.3l1.1-1.8l-8.8-5.6l-1.1 1.9ZM560 320.8c0.8-0.8 1.4-2.1 1.5-3.1l-1.7-1.5c0 1.2-0.5 2.5-1.2 3.2c-3.4 3.4-8.1-1.3-5.1-4.4c0.8-0.8 2.1-1.5 3.1-1.7l-1.7-1.5c-1 0.4-2.1 1.2-2.9 2c-5.3 5.3 3.1 12.6 8 7ZM600 442c-46 0-82-37-82-83c0-45 36-81 82-81s82 36 82 81c0 46-36 83-82 83ZM600 432c40 0 72-33 72-73c0-39-32-71-72-71s-72 32-72 71c0 40 32 73 72 73ZM600 430c-38 0-70-32-70-71c0-38 32-69 70-69c39 0 70 31 70 69c0 39-31 71-70 71ZM600 412c29 0 52-24 52-53c0-28-23-51-52-51s-52 23-52 51c0 29 23 53 52 53ZM600 410c-27 0-50-23-50-51c0-27 23-49 50-49c28 0 50 22 50 49c0 28-22 51-50 51ZM612 405h2c1 0 2-1 2-1v-1h-1v-1c-1 0-3-1-5-2c1-1 2-1 2-1c1 0 2 1 3 1h8c1 0 2-1 3-1c0 0 1-1 2-1s1-1 1-1c-1 0-1-1-2-1h1c2-1 3-1 4-1c1-1 2-1 2-1s0-1 1-1v-1c0-1-1-1-1-1h-5c1 0 1-1 1-1h2l1-1v-2c0 0 2 0 5-1c2-1 3-2 3-3h1c1-1 1-2 2-3v-1l1-2h-2c-1 0-1 1-2 1v-1c1-1 1-2 1-2c2-2 2-3 2-4s-1 0-1 0h-1c-1 1-1 1-2 1c0 0 1 0 1-1v-2l-1-1c0 0-1 0-2 1l1-1c0-1 1-1 1-1c1-1 2-3 4-6c1-2 2-5 2-6v-7l-1 1c0 1-1 1-2 2v-2c0-1-1-3-1-3v-1l-1 1c0 1-1 1-1 2v-2c0 0 1-3 1-4c0 0 1-3 0-6v-3h-1c0 0-1 1-1 3c0 1-1 1 0 1c-1 0-1 0-1-1s0-3-1-5v-2h-1v-2c-1 0-1 0-1 2l-1 1v2l-5-4c0-1 0-2-1-2s-1 0-1 1h-1c0-3-1-4-1-5c-1-1-2-2-3-2c0-1-1-1-1-1h-2c0-1-1-1-1 0v1c0 0 1 0 1 1c0 0 1 1 1 2v1c0 0-2-1-4-1c0 0-1-1-2-1c-1-1-2-1-2-1v1c0 0 0 2 1 3v1l3 3c-1-1-2-1-2-1v-1h-3c0 0-1 0-1 1l3 3c2 1 4 2 5 2h3v1l1 1h1c1 0 2 0 2-1c0 0 0 1 1 1h-1c0 1 0 3 1 5c-1-1-2-1-2-1h-1v1c1 0 2 1 2 2s0 1 2 2c1 2 3 2 4 3c2 0 4 2 4 2c-1-1-2-1-2-1v5c-1 0-2-1-2-1h-1v4c0 0 0 1 1 3c1 1 1 2 1 2c1 2 1 3 1 3c1 1 1 2 2 3c-1 0-2 1-2 1h-1c0-1-1-2-1-2c-2 1-2 2-2 3v3c0 0-1 1-1 2c-1 2 0 3 0 4s1 2 1 2v1c-1 0-1 0-1 1v-2h-1c0 0 0 1-1 1l-2 2l-1.7 0.9c0.2-0.5 0.3-0.9-0.3-0.9c0-1-4 1-4 2c-2 1-2 3-2 3c-1 1-1 1-2 1c-1 2-2 5-2 6s-4 2-5 3h-1c0 0-1-1-2-1h-7c-4-2-7-4-10-8c-3-5-6-7-7-8l-1-1c0 0-1 0-1 1c0 0 0 1 1 1c0 0 0 1 1 2s1 2 2 2c0 1 1 2 1 3l2 2c-1 0-6-1-8-7c-1-4-1-5-1-6v-3c0-3 0-4-2-8c0 0-1-2-2-2s0 1 0 1h-1v-1h-1c0 0-1 0-1 1c0-1 1-2 1-2c0-1 2-7 2-12l-1-1c0 0-1 0-1 1v2l-1 1c0 1 0 1-1 1v1c-1 1-2 3-2 7c1 3 1 4 2 5v1l-1-1c0 0-3-6-1-13c2-5 8-10 8-11l5-4v-1c-3 1-7 2-10 7c1-2 2-4 4-5c4-3 5-3 6-4h1l4-4l1-2c0-1-1-1-1-1v1c-1 0-2 3-4 3c-1 1-2 1-3 1s-3 0-4 2c-3 2-5 6-5 6s3-6 6-8c3-1 5-3 6-4c2-1 4-4 6-5c0-1 0-1 1-1l2-2v-1h1v-1h-1l-2 1c0 0-7 2-12 8v-1c0-1 1-5 3-7c0-1 1-1 1-1l1-1v-1h-1v1c0 0-8 6-8 13c0 1-1 2-2 4s-2 3-2 6c-0.3 0-0.5 0.1-0.7 0.2c0.7-1.7 0.7-3.2 0.7-3.2c1-2 1-3 1-3s0-4 1-7c0-1 1-2 2-4l1-1c1-1 1-3 1-4v-1c0 0-1 1-1 2c-1 1-1 2-2 3c0 0-1 0-1 1c0 0-4 3-5 11v2c0-3-1-6-3-8v3c1 2 0 4 0 5v2c-1 2-2 5-1 9v3c0-1-2-4-3-6c-1-1-3-2-3-2h-1v1c1 1 1 2 2 3l3 5c0 2 2 6 2 6l1 4c-2-2-4-2-4-2l-1-2v2l5 7l3 4l1 1c0 0.9 3.2 4.2 3.9 5.6c-2.8-1.1-6.3-3.1-8.9-6.6c0-2-1-2-2-2c0 2 3 10 9 13c0 0 7 3 8 4l1 1c1 0 1 0 2 1c-3 0-8-1-12-3h-1c0 0 0 1 1 1v1c1 1 3 3 6 4c3 2 8 2 9 2s1 1 2 1h7c0 0 1 1 2 1s1 1 2 1l-7 3l-2 1h-1v1h6l8-4l1 1h5l5 2l1 1h1c0 0 0 1 1 1ZM587 377l34-25h-41l34 25l-14-40ZM564.1 316.6l1.9-1.3l-0.4-2.4l3.7-2.6l2.1 1.2l1.9-1.3l-9.9-5.8l-1.3 0.9ZM565 311.1l-0.7-3.9l3.4 1.9ZM653.7 399.1l1.3-2.1l-2.2-4.3l4.9 0.1l1.3-2.1l-7.2 0.1l-3.7-2.4l-1.2 1.8l3.7 2.4ZM650.3 384.4l11.4-0.9l0.6-1.5l-8.1-8.1l-0.8 2.1l1.7 1.7l-1.5 4.3l-2.5 0.2ZM655.5 382.1l1-3.1l2.9 2.7ZM664.9 373l0.3-2.1l-6.5-1c-2.7-0.4-2-4.3 0.5-4l6.5 0.9l0.3-2.2l-6.5-0.8c-5.6-0.7-6.4 7.5-1 8.3ZM586.7 305.7l3.9-0.7c6.9-1.2 5-11.7-1.9-10.3l-3.8 0.7ZM588.5 303.4l-1.1-6.5l1.8-0.3c4.1-0.7 5.2 5.8 1.1 6.5ZM605.2 304.4l0.1-1.9l-4.1-0.1l0.1-2.5l3.8 0.1v-1.8l-3.8-0.1l0.1-2.3l4.1 0.1l0.1-1.9l-6.3-0.2l-0.3 10.4ZM657.3 359.5l4.5-0.4l-0.5-4.9l-1.8 0.2l0.3 2.8l-1.6 0.2c-0.3-0.4-0.7-1-0.8-2.2c-0.2-2 1.3-3.6 3.1-3.7c1.9-0.1 3.4 1.3 3.6 3.3c0.1 1.1-0.2 2.6-0.8 3.5l2.2-0.2c0.5-0.9 0.8-2.4 0.6-3.6c-0.5-3.3-3-5.5-5.9-5.2c-3.1 0.3-5.1 2.8-4.8 5.9c0.1 1.5 0.9 3.3 1.9 4.3ZM615.6 306.3l0.4-1.9l-4-0.9l1.8-8.3l-2.1-0.4l-2.2 10.2ZM654.8 347.4l8.4-7.9l-0.5-1.5l-11.5-1.2l0.8 2.2l2.4 0.2l1.5 4.3l-1.8 1.7ZM657.4 342.3l-1-3.1l3.8 0.5ZM644.5 325.2l4-10.8l-1.1-1.1l-10.8 3.8l1.6 1.7l2.3-0.8l3.2 3.2l-0.9 2.3ZM650.5 335l1.8-5.2c2.7 2.2 6.8-1.1 4.7-4.2l-2-3.3l-8.9 5.5l1.2 1.8l3.9-2.3l-2 5.5ZM644.6 319.5l-2.4-2.4l3.9-1.3ZM652.8 327.9l-0.7-1.1l2.4-1.6l0.7 1.2c1 1.7-1.4 3.2-2.4 1.5ZM630.8 313.1l2-2.9l1.2 0.8c3.9 2.6 8.1-3 3.8-5.8l-2.9-2l-5.9 8.7ZM635 309.3l-1.1-0.7l1.7-2.5l1 0.7c2 1.4 0.5 3.8-1.6 2.5Z" />

  <path fill="#3a9646" todo="true"
    d="M588 403c1 0 2 0 2-1h-4c0 0 0 1 2 1ZM591 402l7-3l-2-1l-8 3c1 0 3 1 3 1ZM600 400c1 0 3 0 2-1l-5-3c-4-1-7-4-10-7c-2-3-4-6-7-8l1 1l2 3l1 2c1 2 2 3 2 4h-1c-4-2-6-5-7-8s-1-5-1-6l-1-2c0-4 0-5-2-9l-1-1v11c0 1 1 2 1 3c1 1 1 2 2 3l1 1v1l-1-1c-1 0-2-1-3-3c-1-1-1-2-2-3l-2-2l-4-8c-2-2-5-4-7-4c1 1 3 5 4 6l3 4l1 1c2 2 4 4 6 7l3 2v2l-2-2l-2-1l-1-1c-2-1-6-3-9-8l-1-1c0 2 3 9 8 12l12 6l-1 1c-3-1-8-1-12-3c2 2 3 4 6 5s7 2 11 2c3 0 6 0 7 1l4 2h1l3 1c1 0 1 0 1 1ZM575 381c-2-2-3-4-2-6v-2c-1-3-1-7-2-9v4c-1 4 0 7 1 10c1 1 2 3 3 3ZM610 402c1-1 2-1 3-1l-4-2h-1l-2-2c-2 0-3-1-5-1c-1 0-1 0-1 1l2 1l1 1ZM611 403h2c1 0 2 0 2-1h-2c-1 0-2 0-2 1ZM570 375v-4c-1-3-1-6 0-8s3-6 2-11l-1 2l-1 1v2c0 0-1 0-1 1c-1 1-1 3-1 5c0 3 0 4 1 5v2c0 0-1 0-1-1s-4-7-2-13c2-4 5-8 8-11l5-4c-3 1-9 3-12 12l-1-1c1-1 2-7 8-11c4-2 5-3 5-3l2-1c1-1 2-2 3-4c0 1-2 2-3 3h-3c-1 0-3 0-4 2c-3 3-4 7-5 7c0 1-1 1-1 0v-1c0 0 4-7 6-8c3-2 6-3 7-4s4-4 5-6l1-1c1 0 2-1 2-2h-1c0 0-8 3-14 11c0 0-1 1-1 2l-1 1v-2l3-3v-3c0 0 1-4 3-7c-2 3-6 7-6 12c0 1-1 3-2 4c-1 2-2 3-2 6c0 2-1 3-2 5v-1c0-1 1-6 1-8l1-2c0-1 0-5 1-7c1-1 2-3 2-4l1-1l1-2l-2 2c0 0 0 1-1 1c0 0-4 3-5 11v8c-1 3-1 6 0 9c-1-2-2-3-1-5v-8c0 0 0-5-1-8v1c0 2 0 4-1 6v1c-1 2-2 5-1 9c1 3 2 7 4 10v1l-1-1c-1-2-3-5-3-7c-1 0-2-4-4-5l-2-2l1 3c1 2 2 3 3 5l3 6l1 3c0 0 2 1 2 2c2 2 3 4 4 7ZM618 399c1-1 2-1 3 0h2l5-3h-3c-1-1-3-1-4-1s-3 1-4 1s-2 1-3 1c0 0-1 0-1-1l2-1l1-2c1 0 5-6 4-7c1-1 1-3 1-3l-3 1c-1 1-2 2-2 3s-1 2-2 2c-1 1-1 3-2 5c0 2-4 3-5 3c1 1 1 1 2 1h1c0 0 1 0 2-1l3 1c1 1 2 1 3 1ZM615 398c0-1 0-1 4-1h5c0 0-1 1-3 1ZM613 395v-1l3-6c1 0 1-2 2-2c0 0 1-2 2-2v1c-3 2-4 6-5 7l-1 3ZM616 395c1 0 3-1 4-1c1-1 2-1 2-2l3-3l3-4v-2c-1 0-1-1 0-1l-1-2l-4 4l-6 10ZM619 394l-1-1c1-2 2-3 3-5c1-1 2-2 3-4c1-1 1-2 3-2v1l-3 3c0 1 0 2-1 2s-1 1-1 2l-2 2c0 1 0 1-1 2ZM623 394h3c0 1 1 0 2 0c2-1 2-1 3-1l2-1l1-1h-7c-2 0-3 0-3 1l-1 1c2-1 3-1 4-1h3c2-1 2-1 2 0c-1 1-2 1-3 1h-4ZM629 388h2l1-1l-1-1c0 0-1 0-2 2ZM629 383c0 0 1 0 2-1v-2c-1 0-1 0-2 1ZM632 385h1c2 0 3 0 4-1c1 0 2-1 3-2c-1 1-2 2-3 2c-2 1-4 1-5 1ZM625 390l3-2c0-1 1-2 1-3c1 0 1 0 2-1l1-1c0 0 1-1 3-1l1-1c1-1 2-1 3-2s1-1 1-2v-1c1-1 1-2 1-2c1-1 2-2 1-3c-1 1-1 1-2 1h-2c-1 1-1 1-1 2c-1 1-1 2-2 2c0 1-1 1-1 2c-1 1-1 2-2 1l1-5v-4c-1 0-1 0-1-1c-1 1-1 3 0 5v1c0 1 0 3-1 4l1 1c1 1 0 3-1 3c0 1-1 1-1 1l-1 1l-1 2ZM629 379h1c1-1 1-2 1-2v-3c-1-2-1-3-1-4c1-1 1-2 2-3l-2-1c0 0-1 1-1 2v3l-1 3c0 1 0 2 1 3ZM633 384c1 0 4-1 5-2c1 0 2-1 3-3c1-1 1-1 1 0l1-1v-1c-1 0-2 1-4 3l-2 2h-2c-1 1-2 1-2 2ZM633 381c1-1 2-2 2-3l1-1c0-1 1-3 2-4c0 0 1 0 2-1c0 0 1 0 1 1h-1l-2 2c-1 1-1 3-2 4l-2 2ZM634 376c1-1 1-1 1-2s1-2 2-2c0-1 0-1-1-2c0-1 1-3 1-3l-1 2c0 0 0 1-1 2c-1 0-1 0-1 1ZM633 369h2v-2h-2ZM638 370c0 1 1 1 2 0c0 0 0-1-1-2c0 0-1 1-1 2ZM636 366l-1-2v-3l-1-1c-1 0-1-1-2-2v-4l-1-1v3c0 0 0 1 1 3l2 4c0 1 1 2 2 3ZM636 362v-9c-1-1-1-2-3-4v9l2 2v1ZM638 366l1-1c1-1 3-3 4-5c1-1 2-4 2-5v-5l-4 3c-1 1-2 3-3 5c-1 3-1 5-1 7l1-2c0-1 1-2 2-4c1-1 1-2 1-2l1-2c1-1 1-2 2-3c0 1-1 3-2 6c-2 3-3 5-4 8ZM618 332h1c-3 0-5-1-6-4l-2 1c2 1 5 3 7 3ZM615 330c0-1-1-1-2-2ZM633 347c0-1-1-1-3-2s-3-2-4-3l-2-2l1 2c1 0 1 1 2 2s3 2 4 2s2 1 2 1ZM620 331l-4-1c1 1 2 1 4 1ZM637 359c0-2 1-4 2-5c-1-1-2-2-2-4v-2l-1-3v-1c0-1 0-2-1-2c0-1-1-3 0-4v-6l1-1v9l1 1v3c0 0 1-2 1-5v-1l-1-2c0-2 0-3-1-5l-1-2v2c0 0-1 0-1 1s0 2-1 4v2c0 0 1 1 1 2c1 2 2 3 2 4l-1 2l-3-2l-3-3c-1 0-3-2-3-5c0 2 0 4 2 6c1 1 2 2 4 3c2 0 2 1 3 2v2l1 1c0 1 1 2 1 2ZM623 334h1c0-1 0-1-2-2c0 0 0 1-1 1c1 1 1 1 2 1ZM641 352c0 0 1-1 1-2c0 0 0-1-2-1h-1v1c0 1 0 2 2 2ZM634 344c0-1-1-3-1-3c-1-3-5-4-6-4c1 1 1 2 2 3c1 2 4 4 5 4ZM620 330h2c-4-2-7-4-8-6c0-1 1 0 2 1l2 1l3 2h2c0 0-1-1-2-1c0-1-1-2-2-3h-3c-1 0-2-1-4-2c1 1 1 2 2 3c0 1 1 2 2 3s2 2 4 2ZM623 331h2l-1-2c-1 0-1 1-1 2ZM631 337c-1-2-2-3-3-5l-1-2c0 1 0 2-1 2h-1v2c1 0 2 1 3 2h2ZM639 348v-2c0 0 1-3 1-4c0 0 1-2 0-5v3l-1 2v4c-1 0-1 1 0 2ZM632 337c0-2-1-3-2-4v-3c0 0 0 1 1 2c0 0 1 1 1 2l1-2l-4-3c0 1-1 1-1 2v1l2 2ZM624 328v-1c-1-2-2-3-3-5l1 1c1 1 2 2 2 3v1l1 1v-1c0-3-1-4-1-5c-1-1-2-1-3-2h-1l-2-1l1 1c1 1 1 2 1 3c0 0 0 1 1 2c0 0 2 1 2 2ZM626 329h2v-1c0-1 0-1-1-1l-1 1ZM639 338c0-1 0-2 1-2v-1l-1 2Z" />

  <path d="M611 373l-28-20h35l-28 20l10-32Z" fill="#fbdd48" />

</svg>