<svg xmlns="http://www.w3.org/2000/svg" width="1200" height="720" fill="#e5be01">
  <path d="m0 0h1200v720H0Z" fill="#fad201" />
  <path d="m0 0h1200v360H0Z" fill="#00a3e0" />
  <path d="m0 540h1200v180H0Z" fill="#20603d" />
  <path
    d="m981 151-5-85-5 85-27-81 17 83-46-70 38 76-63-57 56 64-76-39 70 47-82-18 80 28-84 4 84 4-80 28 82-18-70 47 76-39-56 64 63-57-38 76 46-70-17 83 27-81 5 85 5-85 27 81-17-83 46 70-38-76 63 57-56-64 76 39-70-47 82 18-80-28 84-4-84-4 80-28-82 18 70-47-76 39 56-64-63 57 38-76-46 70 17-83Z" />
  <circle cx="976" cy="188" r="38" fill="#00a3e0" />
  <circle cx="976" cy="188" r="34" />
</svg>