<svg xmlns="http://www.w3.org/2000/svg" xmlns:xlink="http://www.w3.org/1999/xlink" width="1200" height="720">
  <path fill="#0859b9" d="M0 0h1200v720H0V0Z" />
  <path fill="#fcd80e" d="M0 135h1200v450H0V135Z" />
  <path fill="#c40f38"
    d="M0 540h1200v-360h-1200ZM175 367c-10 0-10-14 0-14h169l-7 7l7 7ZM245 329c-7 0-7-10 0-10h131l-11 10ZM287 298c-7 0-7-10 0-10h120l-11 10ZM834 329l-10-10h30c6 0 6 10 0 10ZM859 329c3-3 3-7 0-10h1c6 0 6 10 0 10ZM865 329c3-3 3-7 0-10h1c6 0 6 10 0 10ZM871 329c3-3 3-7 0-10h3c7 0 7 10 0 10ZM803 298l-11-10h104c6 0 6 10 0 10ZM856 367l7-7l-7-7h178c10 0 10 14 0 14ZM901 298c3-3 3-7 0-10h1c6 0 6 10 0 10ZM907 298c3-3 3-7 0-10h1c6 0 6 10 0 10ZM913 298c3-3 3-7 0-10h3c7 0 7 10 0 10Z" />
  <path fill="#0a1a1d"
    d="M600 210c-130 0-211 100-258 150c47 50 128 150 258 150s211-100 258-150c-47-50-128-150-258-150Z" />

  <path fill="#faf6f5"
    d="M644 506c103-19 167-96 214-146c-47-50-128-150-258-150c-37 0-49 31-25 49s-1 26 22 35s3 35 12 50c6 10 22 9 22 17s-20 7-20 35c0 16-21 18-21 28s38 16 38 24c0 9-45 3-45 19c0 19 59 18 61 39ZM440 415h10v-41h-10ZM465 415h10v-41h-10ZM490 415h10v-41h-10ZM440 346h10v-41h-10ZM515 415h10v-41h-10ZM540 415h10v-41h-10ZM564 415h11v-41h-11ZM512 358c11-7 18-15 21-28l7 7v9h10v-24l4 1c0-9 1-12-1-18l2 1c2-6 1-8-1-12l7 3c-3-24-16-41-37-47c25 12 32 33 33 42l-8-4c-1 3 5 9 4 14l-5-2c2 5 3 12 3 19l-10-3c2 5 1 11-1 17l-9-9c0 7-5 21-17 29c-5-16-23-21-26-30c-2 4-6 7-11 10c2-11-11-26-6-37l-9 7c3-16 11-41 34-53c-20 6-33 27-38 59l7-4v41h10v-8l13-9l2 2v15h10v-7c5 4 9 8 12 19ZM629 415v-41h10v41ZM564 346h11v-41h-11ZM653 415v-41h11v41ZM678 415v-41h11v41ZM629 346v-41h10v41ZM703 415v-41h11v41ZM653 346v-41h11v41ZM728 415v-41h11v41ZM678 346v-41h11v41ZM753 415v-41h10v41ZM703 346v-41h11v41ZM728 346v-41h11v41ZM753 346v-41h10v41ZM905 339l42-15l-42-15l-26 9c5 3 5 9 0 12ZM947 308l42-15l-42-15l-26 9c5 3 5 9 0 12Z" />

  <g id="a">
    <path fill="#0a1a1d"
      d="M184 400l-9 7c3-19 16-51 49-51 35 0 45 31 46 41l-8-4c-1 3 5 9 4 14l-5-2c2 5 3 12 3 19l-10-3c2 5 1 11-1 17l-9-9c0 7-5 21-17 29-5-16-23-21-26-30-2 5-5 6-11 10 2-11-11-27-6-38Z" />
    <!-- <path fill="#d7ccbf"
      d="M234 390c-6 2 4 17 14 22-4-4-7-8-9-13s-2-10-5-9ZM254 389c-8-5-11-8-14-13s-5-10-8-8 7 17 22 21ZM225 414c-7 0-1 19 7 27-2-5-3-9-4-14-1-8 0-13-3-13ZM193 396c10-5 24-23 19-24s-11 16-19 24ZM214 396c-3 0-2 6-4 12s-4 9-7 15c12-9 16-27 11-27Z" /> -->
  </g>
  <use xlink:href="#a" transform="translate(760 0)" />
</svg>