<svg xmlns="http://www.w3.org/2000/svg" width="1200" height="720">
  <path fill="#002654" d="m0 0h1200v720H0Z" />
  <path fill="#fff"
    d="m876 683l-9-28 24-18h-30l-9-28-9 28h-30l24 18-9 28 24-18Zm85-65l-9-28 24-18h-30l-9-28-9 28h-30l24 18-9 28 24-18Zm-169 0l-9-28 24-18h-30l-9-28-9 28h-30l24 18-9 28 24-18Zm216-266l-9 28h-30l24 18-9 28 24-18 24 18-9-28 24-18h-30l-9-28Zm-286 74l-9-28 24-18h-30l-9-28-9 28h-30l24 18-9 28 24-18Zm203-24l-51 82v-75h31l23-37h-54v-23h69l25-39h-231l24 39h69v135l-51-82-71 112h40l7-12h46l51 80 51-80h46l7 12h40l-71-112Zm-132 74h-28l14-24Zm146 0h-28l14-24ZM457 0H151v298H0v8h457Z" />
  <path fill="#ce1126" d="m303 0h146v298h-146Z" />
</svg>