<svg xmlns="http://www.w3.org/2000/svg" width="1200" height="720">
  <path fill="#012169" d="M0 0h1200v720H0Z" />
  <path fill="#fff"
    d="m600 34-154 96h154v100H446l154 96v34h-67L350 243v117H250V243L62 360H0v-34l154-96H0V130h154L0 34V0h67l183 117V0h100v117L538 0h62Z" />
  <path fill="#c8102e"
    d="M174 130 0 22V0l212 130ZM330 0h-60v150H0v60h270v150h60V210h270v-60H330Zm270 0h-38L350 130h38L600 0ZM0 360h38l212-130h-38Zm388-130 212 130v-22L426 230Z" />
  <path fill="#009cde" d="M600 0h600v720H0V360h600Z" />
  <path fill="#fedd00"
    d="m979 506 31-96 31 96-81-59h100Zm62-340-31 96-31-96 81 59H960Zm-105 360-31 96-31-96 81 59H855Zm0-312-31 96-31-96 81 59H855Zm-125 354-31 96-31-96 81 59H730Zm0-150-31 96-31-96 81 59H730ZM1115 44l31 96-81-59h100l-81 59Zm0 288 31 96-81-59h100l-81 59ZM655 592l31 96-81-59h100l-81 59Z" />
</svg>