<svg xmlns="http://www.w3.org/2000/svg" xmlns:xlink="http://www.w3.org/1999/xlink" width="1200" height="720">
  <path fill="#1eb53a" d="M0 0h1200v720H0z" />
  <path fill="#0099b5" d="M0 0h1200v360H0z" />
  <path fill="#ce1126" d="M0 230h1200v260H0z" />
  <path fill="#fff"
    d="m191 37a79 79 0 1 0 0 156 79 79 0 0 1 0-156Z
  M342 67l10-30 10 30-26-19h32Zm64 0l10-30 10 30-26-19h32Zm64 0l10-30 10 30-26-19h32Zm-192 64l10-30 10 30-26-19h32Zm64 0l10-30 10 30-26-19h32Zm64 0l10-30 10 30-26-19h32Zm64 0l10-30 10 30-26-19h32Zm-256 64l10-30 10 30-26-19h32Zm64 0l10-30 10 30-26-19h32Zm64 0l10-30 10 30-26-19h32Zm64 0l10-30 10 30-26-19h32Zm64 0l10-30 10 30-26-19h32ZM0 245h1200v230H0z" />
</svg>