<svg xmlns="http://www.w3.org/2000/svg" width="1200" height="720">
  <path fill="#000" d="M0 0h1200v720H0z" />
  <path fill="#37904c" d="M0 720h1200v-298h-633Z" />
  <path fill="#c63039" d="M567 296h633V0H0Z" />
  <path fill="#f8cd47"
    d="m200 340-2 1 8 8c-4-3-14-7-14-3s13 5 15 5l5 6c-2-1-15-6-15-2 0 5 15 6 18 6l6 7c-3-2-18-8-18-3 0 4 12 5 18 5l5 6c-5-3-19-5-19-2 0 4 11 7 21 5l5 9 4-3-8-10c5-6 8-19 4-21-6-3-7 12-6 18l-5-6c3-5 6-19 1-20s-5 10-3 17l-5-6c1-3 4-18-1-19s-2 13-1 17l-5-6c1-4 1-15-3-15-5 0-1 9 1 13Zm-20-14 3-2c0-5-3-14-6-14s0 9 2 12l-6-4c0-5-1-13-5-14s0 8 3 12l-6-4c-1-3-5-11-9-12s4 9 5 10l-5-3c-1-3-8-11-10-9-3 3 8 9 13 12-5-1-13-7-14-3s10 5 17 5l6 4c-3-1-11-3-11 0 0 4 10 3 14 2l7 5c-3-1-14-4-13 0s11 3 15 3Zm-33 62 5-9c10 2 21-1 21-5 0-3-14-1-19 2l5-6c6 0 18-1 18-5 0-5-15 1-18 3l6-7c3 0 18-1 18-6 0-4-13 1-15 2l5-6c2 0 17-1 17-5s-12 0-16 3l8-8c5 0 15-1 16-5s-9 0-14 2l8-6c4 1 15 1 16-3s-10 0-14 1l5-4c4 0 15 1 16-3s-10-1-13 0l7-5c4 1 14 2 14-2 0-3-8-1-11 0l6-4c7 0 18-1 17-5s-9 2-14 3c5-3 16-9 13-12-2-2-9 6-10 9l-5 3c1-1 9-11 5-10s-8 9-9 12l-6 4c3-4 7-13 3-12s-5 9-5 14l-6 4c2-3 5-12 2-12s-6 10-6 15l-5 4c1-5 5-13 2-13-4 0-6 10-4 15l-8 7c2-3 8-13 3-13-4 0-5 11-5 15l-6 7c2-4 6-15 1-15-4 0-4 13-3 17l-5 6c1-4 4-18-1-17s-2 16-1 19l-5 6c2-7 2-18-3-17s-2 15 1 20l-5 6c1-6 0-21-6-18-4 2-1 15 4 21l-8 10Zm47 84c66-8 111-60 111-118 0-61-49-106-108-106S95 291 95 346s40 93 91 93 88-40 88-79c0-16-6-31-11-36-2-2-5-1-4 2 3 9 4 18 4 25 0 35-33 63-74 63s-69-28-69-68c0-42 32-74 76-74s85 35 85 83-35 85-87 92ZM0 48v48l507 263L0 624v48l556-292h644v-42H556Z" />
</svg>