<svg xmlns="http://www.w3.org/2000/svg" width="1200" height="720">
  <path fill="#254d9f" d="M0 0h1200v720H0Z" />
  <path fill="#cca55d"
    d="m606 216l6 9 2 8-9 3-4 3 10 1 22 12h7l6-2 5 5h3l2-6h4l6 8h5l2 2 4 19 4 9 4-5h4l6 7 3 5-2 14 4 5 24 15 4 1 14-1 1 8-8 13 3 9-1 7-2 1 14 1 15 6 7-3h9l2 3-1 8 10 2 3 6 5-4 10-1 4-3 3 1 6 5 4 8v3l-1 4-8 14v9l-13 15 1 3-2 3-2 7-11 8 3 9-5 14-3 1-7-1-2 4-9-1-3 2 2 12 7 3 6 9 8 7-6 3-15-1-6 1-1-4-12-5-4 6 1 7-5 1-4-3h-3l-3 2-4 9-5 1-1 5-7 12 1 3 4 5v5l-6 4h-10l-13-3-2-2-1-11-7-7-2-4-12-7-10 9-9 6-21 6-12 12-8-1-4 3-11 2-6 7-3 10 1 10 2 5 4 3v3l-3 5 1 6-4 5v3l-3 1-5 5-9 5-4-1-6-4-3 5-6 2-9-8v-5l-2-9v-2l10-8 1-6-3-6-4-16-7-8-2-4v-5l2-4v-4l-8-21-1-6-14-16-4-3-7-1-8-7-6-2-5-4-4 1-17-1-2-5v-14l-7-6 2-8-6-7 1-5-4-3v-5l-6-5-15-9-5-7 4-8-3-7v-7l3-2 3-5-8-5-9-2-13-8-1-6 4-2 2-10 4-1 12-7h5l7 2 13 6 7-1 5 1 1-6 3-5 6-7 7-4 11 1 7-4 3 1 9-3 8 3 3-4 11-3 3-2v-4l-8-10v-6l5-9 12-3 2-3 2-9 2-3 8 1v5l4-2 5-6 1-14 8-5-1-5-5-4-6 1-6-16 3-11 1-1 12-2 6-4 15-6 7-6 8-1 2 3 6 3 1 2" />
  <path fill="#fff"
    d="M288 169h90l-73 53 28-86 28 86Zm104-38h90l-73 53 28-86 28 86Zm108-20h90l-73 53 28-86 28 86Zm110 0h90l-73 53 28-86 28 86Zm108 20h90l-73 53 28-86 28 86Zm104 38h90l-73 53 28-86 28 86Z" />
</svg>