<svg xmlns="http://www.w3.org/2000/svg" xmlns:xlink="http://www.w3.org/1999/xlink" width="1000" height="500"><defs><path id="i" fill="#faf6f5" stroke="#0a1a1d" stroke-linecap="round" stroke-linejoin="round" stroke-width=".729" d="M351.3 461c-6.3-.3-49.1-17.8-48.7-60.4V340H400v60.5c.4 42.6-42.4 60.1-48.6 60.5z" display="block"/><path id="j" fill="none" stroke="#0a1a1d" stroke-linecap="round" stroke-linejoin="round" stroke-width=".729" d="M351.3 461c-6.3-.3-49.1-17.8-48.7-60.4V340H400v60.5c.4 42.6-42.4 60.1-48.6 60.5z" display="block"/><path id="k" d="M815.9 290.1c.2-2.4.4-7 0-11.7-11 8.5-15.2-11.6-27.1-.3-8 7.6-10.7-2.3-16-1.5s-4.9 12.4.5 11.6 7.4 9 15.5 1.4c12-11.3 16 9 27 .5zm-128.5-13.4c-.2 2.5 0 6.8.3 11.5 11.1-8.5 14.6 12.2 26.6.9 8-7.6 10.6 2.2 16 1.5s4.8-12.4-.5-11.7-7.5-9-15.5-1.4c-12 11.4-15.7-9.3-26.9-.8zm128.8-20.9c.3 4.1.1 5 0 11.3-11.1 8.5-14.7-11.9-26.8-1.4-2.4 1.7-5 5-7.6 1.8s-1.3 1.5-2.4-8.7 1.4 2.9 10-4.4c12.1-10.5 15.7 10 26.8 1.4zm-128.4 9c-.3-4.1 0-5 0-11.3 11.1-8.5 14.7 12 26.8 1.4 2.4-1.7 5-5 7.6-1.8s1.3-1.5 2.4 8.7-1.4-2.9-10 4.4c-12.1 10.5-15.7-10-26.8-1.4zM816 231.9c.3 2.7.2 8 0 11.1-11.1 8.5-14.7-12-26.8-1.4s-12.2-.6 0-11.1 15.6 10 26.8 1.4zm-128.4 9.4c-.3-2.7 0-7.9 0-11 11.2-8.5 15 11.9 27.2 1.3s12.3.6 0 11.2-16-10-27.2-1.5z"/><path id="l" fill="#e30631" d="M752 214h-43.3l43.2 152.2L795.2 214z"/><path id="s" fill="#fcd80e" stroke-width=".53" d="M756.5 266.7c-.6-4 12-12.8 2.9-25-2 5.2 2.3 8.7-3.2 16 4.7-10.8-.1-8.6 2.9-17.2 1.4-6.9-1.4-12-6.2-15.1 1.3 12-8.1 9.2-6.8 21.7-.8-3.3-1-6.5-.8-9.8-10.4 17 .4 14.6 1.3 29.3.6-.1 1 .4 1-.5.3-5.1-.9-7.2-2.6-14.6 1.4 4.8 4.6 9 4.1 15.1.9.2 1.3.2 2.5 0 .3-9.7-5.7-14.4-1.2-23.8-2.4 9.9 2.7 15.3 2.5 23.9h1c0-4.9.2-7.8 1.6-9.3-.6 3.7-.6 5.7-.4 9.3z"/><path id="t" stroke-width=".662" d="M752 337.4h-3.5c-1.3-22-1.6-43.9-8.2-65.8H763.6c-6.6 22-7 44-8.2 65.9z"/><path id="u" stroke-width=".662" d="m752 271.5 12.7.1c-2.7-5.5-7.4-6-12.8-6-5.3 0-10 .5-12.7 6zm0 80.3c4-4.3 5-9.7 3-9.8l-3-.1h-3.2c-2 .2-.8 5.6 3.2 9.9z"/><path id="v" stroke-width=".662" d="M752 342.8c4.4 0 6.5-3.2 4.3-5-.8-.6-3.6-.4-4.3-.4-.8 0-3.6-.2-4.4.4-2.2 1.8 0 5 4.4 5z"/><path id="w" stroke-width=".662" d="M746 274c1 7.1 1.7 12.3 1.6 22.5m10.3-22.6c-1 7.2-1.7 12.4-1.6 22.6"/><path id="x" stroke-width="1.854" d="M752 274.3v53.5"/><path id="y" stroke-width="1.324" d="M741.1 269.3h1.8m18 0h1.8"/></defs><clipPath id="D"><path d="M-420-195h840v390h-840z"/></clipPath><linearGradient id="a"><stop offset="0" stop-color="#003396"/><stop offset="1" stop-color="#012778"/></linearGradient><linearGradient id="b"><stop offset="0" stop-color="#cca76d"/><stop offset="1" stop-color="#fcd80e"/></linearGradient><linearGradient id="c" x1="250.267" x2="255.906" y1="364.717" y2="359.281" gradientUnits="userSpaceOnUse"><stop offset="0" stop-color="#e30631"/><stop offset="1" stop-color="#961538"/></linearGradient><linearGradient id="d" x1="49.813" x2="62.697" y1="476.331" y2="476.331" gradientUnits="userSpaceOnUse"><stop offset="0" stop-color="#6c401f"/><stop offset="1" stop-color="#c40f38"/></linearGradient><linearGradient id="e" x1="279.923" x2="354.482" y1="593.919" y2="576.418" gradientUnits="userSpaceOnUse"><stop offset="0" stop-color="#fcd80e"/><stop offset="1" stop-color="#faf6f5"/></linearGradient><linearGradient id="f" x1="194.339" x2="208.191" y1="474.268" y2="474.268" gradientUnits="userSpaceOnUse"><stop offset="0" stop-color="#6c401f"/><stop offset="1" stop-color="#c40f38"/></linearGradient><linearGradient id="g" x1="363.046" x2="410.144" y1="576.806" y2="580.019" gradientUnits="userSpaceOnUse"><stop offset="0" stop-color="#faf6f5"/><stop offset="1" stop-color="#fcd80e"/></linearGradient><linearGradient id="h" x1="283.311" x2="287.174" y1="394.667" y2="400.293" gradientUnits="userSpaceOnUse"><stop offset="0"/><stop offset="1" stop-color="#faf6f5"/></linearGradient><linearGradient id="z" x1="272.137" x2="283.457" y1="400.642" y2="405.966" gradientUnits="userSpaceOnUse"><stop offset="0" stop-color="#ffb81c"/><stop offset="1" stop-color="#ffb81c" stop-opacity="0"/></linearGradient><linearGradient xlink:href="#a" id="A" x1="614.838" x2="620.314" y1="327.973" y2="330.254" gradientUnits="userSpaceOnUse"/><linearGradient xlink:href="#a" id="B" x1="632.713" x2="638.314" y1="327.379" y2="330.317" gradientUnits="userSpaceOnUse"/><linearGradient xlink:href="#a" id="C" x1="651.266" x2="656.293" y1="331.008" y2="333.055" gradientUnits="userSpaceOnUse"/><linearGradient id="E" x1="275.092" x2="275.092" y1="176.738" y2="187.643" gradientUnits="userSpaceOnUse"><stop offset="0" stop-color="#cb8500"/><stop offset=".5" stop-color="#9d7a51"/><stop offset="1" stop-color="#fcd80e"/></linearGradient><linearGradient xlink:href="#b" id="F" x1="356.092" x2="356.092" y1="221.425" y2="241.844" gradientTransform="matrix(1.05359 0 0 1.05558 -81.136 -58.918)" gradientUnits="userSpaceOnUse"/><linearGradient xlink:href="#b" id="G" x1="356.092" x2="356.092" y1="221.425" y2="241.844" gradientTransform="matrix(1 0 0 .88803 -42.967 -15.745)" gradientUnits="userSpaceOnUse"/><path fill="#faf6f5" d="M0 0h1000v500H0z"/><path fill="#012778" fill-rule="evenodd" d="M0 0h500v250H0z"/><path fill="#faf6f5" d="M0 0v28l444.1 222H500v-28L55.9 0zm500 0v28L55.9 250H0v-28L444.1 0z"/><path fill="#faf6f5" d="M208.3 0v250h83.4V0zM0 83.3v83.4h500V83.3z"/><path fill="#c40f38" d="M0 100v50h500v-50zM225 0v250h50V0zM0 250l166.7-83.3h37.2L37.3 250zM0 0l166.7 83.3h-37.3L0 18.6zm296 83.3L462.8 0H500L333.3 83.3zM500 250l-166.7-83.3h37.3L500 231.4z"/><path fill="url(#c)" stroke="#0a1a1d" stroke-linecap="round" stroke-linejoin="round" stroke-width=".601" d="M241.4 360.7c3.2 1.2 6.6 1.5 8.9 6.7l11.3.2-2-8-10-2.7z" transform="translate(444.044 -270.87) scale(1.32408)"/><path fill="#faf6f5" d="m906.3 377.8.3 8.8h-1.7l-.2 2.4h-7.3v1.2h-2.8v1.6l-1.8-.2v5.8l-1.5-.2v1.6H889v1l-7-.5v1.9h-3v6.5l-46-.2-.2 3-2.3-.2v1.4h-3.8v-1.9l-8-.2v2H817l-.5 2.7-12.8.2-4.2 4-2-2.1-5 .2-.5-1.4-4.2-.2-3.6 3.5h-6l-1.2-1.9-5.4 4.7h-2.3l-1.8-.6h-5.2l-.1-.8-10.3-.2-.2-49.2z"/><path fill="#faf6f5" d="M789.8 404.4h1.2l1-.3 4-.8v13.2l-3.4.1-1.5-1.4-1.3.1z"/><path fill="#00b6d9" d="M769.2 403.7c2.2.8 4.4 1.2 6.5 3.8v10l-4.2 3.7h-2.3z"/><path fill="none" stroke="#0a1a1d" stroke-linecap="round" stroke-linejoin="round" stroke-width=".796" d="M776.6 401.8c11.2 7 13.4.9 22.5 1.8"/><path fill="#00b6d9" d="m782.6 404.4 3.3-2.8 3.2 2.8v10.5l-1.3-.1-3.2 3.5-2 .3zm15.6-2.1h5.7v12l-1.7 1.5-2.8 2.6-1.2-.9zm15.1-3.1h7.6v10.4h-2.2v2H817l-.6 2.7h-3z"/><path fill="none" stroke="#0a1a1d" stroke-linecap="round" stroke-linejoin="round" stroke-width=".796" d="M762.8 404.8c4.9-1.4 7.4-2.5 13.5 2.8"/><path fill="#00b6d9" d="M859 395.1h10.8v12.4H859zm19.5-11h8.6v15.6l-5-.3-.2 1.8h-2.8l-.6 3zm14-4.1h6.6v9h-1.5l-.1 1.2-2.8-.1v1.4h-2.2z"/><path fill="#faf6f5" d="M805.4 398.2h6.2v16h-6.2z"/><path fill="none" stroke="#0a1a1d" stroke-linecap="round" stroke-linejoin="round" stroke-width=".796" d="M906.3 377.8v8.8H905l-.2 2.4h-7.3v1.2h-2.8v1.6l-1.4-.2v5.8l-1.9-.2v1.6H889v1l-7-.5v1.9h-3v6.5l-46-.2-.2 3-2.3-.2v1.4h-3.8v-1.9l-8-.2v2H817l-.5 2.7-12.8.2-4.2 4-2-2.1-5 .2-.5-1.4-4.2-.2-3.6 3.5h-6l-1.2-1.9-5.4 4.7h-2.3l-2-.6h-5l-.1-.8-10.3-.1-.2-49.3z"/><path fill="#62c1f2" stroke="#0a1a1d" stroke-linecap="round" stroke-linejoin="round" stroke-width=".796" d="m804 338 6.5.3.5 1.8 4-.5 1.3 4.3 3 1.9h7.1l.2 2 6.7-.3.2 1.7h3.8l.2 2.6 2.6 1h6.5l34.4 10.3 1.5 3.1h5.3l1.2 1.4h4.1l2.1 1.6 1.7 1 2.7-.3.3 2.1 3.6-.8.7 2 2.2-.3v6.6l-7.5.1-.3 1.2h-4.2v1.3h-2.3v4l-9.1.2.2 1h-3.5v4.6l-1.3-.5v4l-7.3-.4-.2 1.9-9 .1-104.5-11.7C739 353.6 787 353 804 337.9z"/><path fill="#faf6f5" d="M766.5 366.4c44.7-.6 55.5.2 70 20.7l-81.3-7.5-1.1-9.7z"/><path fill="#faf6f5" d="M807.8 351.3c-2 0-14.2 9.3-11.1 9.2 19.7-.4 30.2-2.4 27.1-.3-16.4 11.3 8.2 6.4 12.4 8.5-4.4 2.7-1.1 3 4.4 5l24.9 14.5c7.6.6 10.9-3.2 11.5-6.9 5.2 3.1 4.3.8 19.3-4.6 3-1.1-6.6-7.5-8.7-2.8-2 4.8-3.7-5.4-13.2.2l-5.1-12.3-24-8.6h-5.1c-12.6 9.3-8-3.6-32.4-2z"/><g stroke="#0a1a1d" stroke-linecap="round" stroke-linejoin="round" stroke-width=".796"><path fill="#fcd80e" d="M611.3 391.8c1.6 5.2.8 9.7 12.2 9.1 2.3 3 2.7 8.6 7.5 8.3h8.3c2.2 2.8 4.5 5.7 7.6 6.7 1.7-.4 2.8-1.7 3.5-3.4l1 2 35.6-.2 8 1.5c7.3 5.2 14.6 5 22 4 3-.5 6.1-.5 9.2-.4 3.7 3 7.7 4.2 13 .4 3.6 2.6 7.8 2.5 12.5-.3l.6-3.9 2.3-2.2v-3.7l-9.7-10.8z"/><path fill="none" d="M611.3 391.8c1.6 5.2.8 9.7 12.2 9.1 2.3 3 2.7 8.6 7.5 8.3h8.3c2.2 2.8 4.5 5.7 7.6 6.7 1.7-.4 2.8-1.7 3.5-3.4l1 2 35.6-.2 8 1.5c7.3 5.2 14.6 5 22 4 3-.5 6.1-.5 9.2-.4 3.7 3 7.7 4.2 13 .4 3.6 2.6 7.8 2.5 12.5-.3l.6-3.9 2.3-2.2v-3.7l-9.7-10.8z"/><path fill="#0f7d3a" d="m706.6 342-18.4-.4-29.5 8.7.9 7.7c-3-2.6-6.2-3.7-9.6-3.5 2 2 2.5 4 2 6.1-3.8-3.4-7.6-3.3-11.3-3.3 3.5 2.3 5.3 4.5 6.1 6.8-4-2.2-8.3-2.9-12.7-2.8 1.7 1.5 3.8 2.9 4.3 5.3-2.6-1.7-5.1-1.8-7.6-2.2l.8 5.6-17.6 9.1c-3.2.6-6.6 1-9 3.2 3.4 4.5 7.3 8.1 13.8 7.4-.8 1.4-2.9 2.3-7.2 2.4 3.3 3.1 7.6 5.4 16.2 3.8 0 .8-1.3 1.7-3.2 2.6 7.3 4 10.4 1.8 13.8-.2l-1.7 4.5 18.6-.8 44.1 3.3 8.8 3.8h23.4c1.4 1.5 2.8 1.2 4.3 0 2.8-1.2 6-1.4 9.2-1.5 3.7.6 6.9 1.5 9.5 2.3v-37.4z"/></g><path fill="none" stroke="#0a1a1d" stroke-linecap="round" stroke-linejoin="round" stroke-width="1.458" d="M853.3 371.5c29.6 1 3.6 36 2.3 41.4-22-1.5-37.8-20-102.1-19.2"/><path fill="#9d7a51" d="M626 398.9h5.9v10.3c-1.9.4-3.4-.3-4.8-1.6l-1-1.9zm11.4 3.2h5V413l-3.2-3.9-1.8.1zm13 .3 9.4-.2v12.4h-8.2l-1.1-1.7zm32.5 1.2 20.6 1.4v14.7a31.4 31.4 0 0 1-8.7-4l-5.7-1-6.3-.5zm32.5 4.4h8v11.4h-3.6l-4.4.6zm18.8-1h6.5v13.7l-1.6-.8-5 2.2zm11-.4h9.4v6.4l-2.5 3.2-.4 3.3-6.6 2.2z"/><g fill="none" stroke-linecap="round" stroke-linejoin="round" stroke-width="1.101"><g stroke="#0a1a1d" stroke-width="1.458"><path d="M753.2 393.7c-39.4.5-52.8 21-92.8 21-25-28.1-16.7-39.1-.4-39.3"/><path d="M640.8 376.4c.2 1.8 2.2 1.5 2.3 3.5m-1-5.7c3 .7 7.8-2 8.4 3m-2.8-9.7c2.9-.4 4.9 3.2 8.7 3.1m-3-7c3.6-.6 6 1.3 8 4.2-.7-1.8-.6-4.1-2.4-5.3m7.5-2.7c3 1.8 4.2 4.3 4.8 6.8m4.6-7.2c2 1.6 1.4 4.6 1.5 7.1m8.8-2.9 3.1 2.7m-9.8 11.8c1.3 0 7-.6 7 1.3M685 374c3-.2 6-.2 6.6 3m3.7-5.5c1.4.3 2.7.8 3 2.9m6.1-3.2c-.1 1.4 1 2 3.2 1.8m4.9-.2c1.3.5 2.7 1 3.2 2.9m2.3-7.1c0 1.7 1.3 1.8 2.7 1.8"/></g><path stroke="#24a34e" stroke-width="1.458" d="M623.8 388.7c4.4-.1 8.9-.3 12.3.5m1.2-5.8c.1 2.1 2.8 2.4 2.6 4m5.3-17.3c0 .7-1 1.5 4.4 2.2.8 0 3.3.7 4.6 3m-3.6-10.3c2.8-.2 8 2.6 8.2 4.1m3.9-8.9c2.8 1.3 1.3 5.8 2.9 8.8m6.2-10.7c4.5 4 2.4 11.6 1.2 10.6m6.7-8.3c1.5 2.8 1 5 1.5 7.4m-1.8 3.4c3.3.1 1.5 1.8 4.7 1.7m-10 1c.1 1.7 3.5 1.4 5.3 1.5m2.6 7.6c2.2.2 4.3.4 7.1.4m.9-4.3c2.3.2 6.2-.3 6 1.2m.8-5.1c-.2 2.3 3.4 2.2 4.2 4.3m2.4-4.3c-.1 2.3 1.6-.4 2.8 1.7m-18.9-15 2 1.8m2.4-5.6a38 38 0 0 0 8.1 9.4m2.4-14.7c2.6 3.9 5.8 11.7 2.4 12m8-11c.6.8.2 7-.1 7.1m11 5.3c1.4-.4 2.5-1.5 2.6-2.9m-2.8 5.4c-.1 1.6 1.2 1.9 3 1.7m-6.7-10.1c0 3.4-1.6 3.3-1.5 6"/><path stroke="#0a1a1d" stroke-width="1.458" d="M694.2 358.4c8.8.6 7.5-3.6 9.4 1.3m4-9.5c2.3-.4 1.3 4.2 1.5 6.7-1.2-1.9-2.3-4-4.2-5.1m-75.6 44.8c1.5-1.8 5-.6 5.5-2.4m1 5.1c1.7.2 3 0 3-1.4m79.9 5.6c1.5-.2 3.4-.9 3.4 1.3l.1-6.3m2.4 3.5c2-.2 4.4 1.6 5.8 1.3.9-.2 1.3-1.7.8-4.2m4.3.2c2.7 2.1 4 .6 5.3 3m6.3-3c1.6-.6 2.2 0 1.7 1.8m1-3.6 1.8.5"/><path stroke="#24a34e" stroke-width="1.458" d="M723.2 403.3c1.2-.3.5 1.6 3.2 2m6.3-5.4c1.7.4.6 5.2 2.7 5m6.5-5.4c.1 1.9-.4 4.6.7 5.3m7.3-3c0 1.3-.5 3.3 1.1 3.2"/></g><path fill="#009aaf" stroke="#0a1a1d" stroke-linecap="round" stroke-linejoin="round" stroke-width="1.325" d="M867 363a57 57 0 0 0-10.2 9l5.6 4.3c3.6-4.2 6-8 10.2-12.7.2-.2-1.5-.3-1.2-.7l-10 12.7 4.5 3.9 12.8-18c-2.3 6.8-9.6 13.7-1.7 20.3-.8-10.5 4.2-11.7 4.8-20.2z"/><path fill="url(#d)" d="M67.3 476.3c0 4.2-3.9 7.6-8.7 7.6s-8.8-3.4-8.8-7.6 4-7.6 8.8-7.6 8.7 3.4 8.7 7.6z" opacity=".99" transform="matrix(1.22005 0 0 1.34043 588.524 -252.22)"/><path fill="#fcd80e" stroke="#0a1a1d" stroke-linecap="round" stroke-linejoin="round" stroke-width=".796" d="M659.9 378.3c12.7.3 6.8 11.3-4 7.9l4 10.6 11-1.3c2.7-2.1 8.8-22.2-11-21.1"/><path fill="url(#e)" d="M283.8 569.9c.7 1.3.7 2.2 0 3-9.8.2-9.8 12 0 13.2 8 1 38.2-16.4 69.7-17.2l.7 14.7c-29.8.4-40 16-70.1 16-19-21.3-12.6-29.6-.3-29.7z" transform="translate(284.176 -380.179) scale(1.32408)"/><path fill="url(#f)" d="M210.4 474.3c0 4-3.7 7.4-8.2 7.4s-8.3-3.3-8.3-7.4 3.7-7.5 8.3-7.5 8.2 3.3 8.2 7.5z" opacity=".99" transform="matrix(1.36436 0 0 1.35178 576.855 -259.143)"/><path fill="#fcd80e" stroke="#0a1a1d" stroke-linecap="round" stroke-linejoin="round" stroke-width=".796" d="M853.1 374.4c-10.2-.4-15 9.7 2.5 11.4l-2.5 8.2-14.6-5.8c-2.6-10.6-1.8-18.7 14.6-17.8"/><path fill="url(#g)" d="M429.6 569.9c-.9-.8-.8-2.2 0-3 22.3.7 2.7 27.1 1.8 31.2-16.7-1.1-28.9-15.2-77.5-14.6l-.5-14.7c41.5-1 74.9 13.9 77.6 14 5 0 9.1-12.8-1.4-13z" transform="translate(284.176 -380.179) scale(1.32408)"/><path fill="none" d="M661.5 413.6c22 .4 60.4-20.7 81.3-23.9"/><path fill="#e30631" d="M664.8 410.2v-11.3l4-.3c.8 0 1.4 0 1.9.2.4.2.7.6 1 1 .3.6.4 1.1.4 1.8 0 .8-.2 1.5-.6 2-.4.6-1 1-2 1.2l.8.5 1 1.5 1.6 3h-1.5l-1.2-2.2a21 21 0 0 0-1-1.6 3 3 0 0 0-.6-.7 1.6 1.6 0 0 0-.5-.3 3 3 0 0 0-.7 0l-1.4.1v5zm1.2-6.4 2.6-.1c.6 0 1-.2 1.3-.3a1.6 1.6 0 0 0 .7-.7c.2-.4.3-.7.2-1 0-.6-.1-1-.4-1.4-.4-.3-.9-.4-1.5-.4l-3 .1zm8.1 5.5-1.4-11.1 6.6-1.5.1 1.3-5.3 1.2.4 3.4 5-1.1.2 1.3-5 1.2.4 3.8 5.6-1.3.2 1.3zm7.4-5.4 1.1-.5.6 1.2c.2.2.6.5 1 .6l1.5-.1a3.2 3.2 0 0 0 1.2-.6c.3-.3.5-.6.6-1l.1-1c0-.3-.2-.6-.4-.8-.2-.2-.5-.4-1-.4h-1.6c-.9 0-1.5 0-1.9-.2-.5-.1-.9-.4-1.1-.7-.3-.4-.5-.8-.6-1.3a3.5 3.5 0 0 1 0-1.7 3.2 3.2 0 0 1 1-1.4 4.2 4.2 0 0 1 1.6-1c.7-.1 1.3-.2 1.8 0a2.3 2.3 0 0 1 1.4.7c.4.4.6 1 .8 1.6l-1.1.5c-.2-.7-.5-1.2-1-1.4-.4-.2-1-.3-1.6 0-.7.2-1.2.5-1.5 1-.3.4-.4.8-.3 1.3 0 .4.3.6.5.8.3.2 1 .3 2 .2l2.1.1c.6.2 1 .4 1.4.8.3.4.5.8.6 1.4a3.8 3.8 0 0 1 0 1.8 3.6 3.6 0 0 1-1 1.6 4 4 0 0 1-1.7 1c-.8.2-1.5.3-2.1.2a2.6 2.6 0 0 1-1.5-1 4 4 0 0 1-.9-1.7zm9.4.6-2.3-10.9 6.5-2.3.2 1.3-5.2 1.9.7 3.3 5-1.7.2 1.2-5 1.8.8 3.7 5.5-2 .3 1.3zm7.3-2.6 1-12.2 1.3-.4 6 9.5-1.3.5-1.8-3-3.7 1.5-.2 3.6zm1.6-5.4 3-1.2-1.6-2.6a30.8 30.8 0 0 1-1.1-2v2.2zm7.7 1.9-2.3-11 4-1.3c.7-.3 1.3-.5 1.8-.4.5 0 .9.3 1.2.7.4.4.6.9.7 1.5.2.8.1 1.5-.2 2.2-.3.6-.8 1.2-1.6 1.7l.8.2 1.3 1.1 2.2 2.4-1.5.6-1.7-1.9-1.2-1.2a2 2 0 0 0-.7-.5 1.5 1.5 0 0 0-.6 0l-.7.1-1.3.5 1 4.9zm-.1-6.5 2.5-1c.6-.1 1-.4 1.2-.6a1.8 1.8 0 0 0 .6-1v-1c0-.5-.3-.9-.7-1-.4-.3-1-.3-1.6 0l-2.8 1zm14.8-2.6h1.3c0 1.3-.4 2.3-.9 3.1s-1.3 1.4-2.2 1.7c-1 .3-1.8.3-2.5 0s-1.3-.8-1.8-1.7c-.4-.8-.8-1.7-1-2.8a8.2 8.2 0 0 1 0-3.1c.3-1 .6-1.8 1.2-2.5a4.5 4.5 0 0 1 2-1.3 3 3 0 0 1 2.5.2 4 4 0 0 1 1.7 2l-1.1.6a3 3 0 0 0-1.2-1.4 2 2 0 0 0-1.6-.1 3 3 0 0 0-1.6 1.1c-.4.6-.7 1.2-.7 2a8.3 8.3 0 0 0 0 2.2c.2.9.5 1.7.8 2.3.4.6.8 1 1.4 1.3a2.4 2.4 0 0 0 1.6 0 2.7 2.7 0 0 0 1.5-1.2c.4-.6.6-1.4.6-2.4zm3.4 3-1-11.2 1.3-.2.4 4.6 4.7-.8-.3-4.6 1.2-.2.9 11.3-1.2.2-.5-5.3-4.7.7.4 5.3zm14-2.5 4.4-11.4h1.6l4.7 11.4h-1.7l-1.4-3.5h-4.7l-1.3 3.5zm3.3-4.7h3.9l-1.2-3.1a31.1 31.1 0 0 1-.8-2.4 14.5 14.5 0 0 1-.6 2.2zm8.6 4.7v-11.4h1.5l6 9v-9h1.4v11.4H759l-6-9v9zm11.5 0v-11.4h3.9c.9 0 1.6 0 2 .2a3.9 3.9 0 0 1 1.7.8c.6.5 1 1.1 1.3 2a8 8 0 0 1 .1 5c-.1.6-.4 1.1-.7 1.6l-1 1a4.3 4.3 0 0 1-1.4.6 7.8 7.8 0 0 1-1.8.2zm1.5-1.4h2.4c.8 0 1.3 0 1.8-.2.4-.1.7-.3 1-.6.4-.3.6-.8.8-1.4a7 7 0 0 0 .3-2.2c0-1.2-.2-2.1-.6-2.7a3 3 0 0 0-1.4-1.3c-.4-.2-1-.3-2-.3h-2.3z"/><path fill="none" stroke="#0a1a1d" stroke-linecap="round" stroke-linejoin="round" stroke-width=".796" d="M660.2 378.3c-13 .3-13 16 .2 17.6 10.5 1.2 50.4-21.7 92.1-22.9m1 19.6c-39.5.5-53 21.1-93 21-25-28-16.6-39-.3-39.3"/><path fill="none" stroke="#0a1a1d" stroke-linecap="round" stroke-linejoin="round" stroke-width=".796" d="M852.7 370.4c29.5 1 3.5 36 2.3 41.4-22-1.5-38.4-20-102.7-19.2m-.9-19.5c55-1.5 99.5 18.2 103.1 18.3 6.7 0 12.1-16.8-1.8-17"/><path fill="#e30631" d="m777 389.5.5-11 3.4.2c.8 0 1.4.1 1.8.3.5.1 1 .4 1.4.8.5.6.8 1.2 1 2 .3.8.4 1.7.3 2.6 0 .9-.1 1.6-.4 2.2-.2.7-.4 1.2-.7 1.6l-1 1a3.4 3.4 0 0 1-1.2.4 6 6 0 0 1-1.6.1zm1.3-1.3 2.2.2 1.5-.1 1-.5.7-1.4.4-2c0-1.2-.1-2.1-.4-2.8-.3-.6-.7-1-1.2-1.3-.3-.2-.9-.3-1.7-.3l-2-.2zm8.9 2 1-10.9 1.2.2-1 11zm3.6-3h1.2c0 .5 0 1 .2 1.4s.5.7 1 1a3.8 3.8 0 0 0 2.7.5c.4 0 .7-.2 1-.5l.3-.9a1.6 1.6 0 0 0-.1-1c-.2-.2-.4-.5-.8-.7a17 17 0 0 0-1.7-.8c-.9-.4-1.5-.7-1.8-1l-1-1.2c-.2-.4-.2-1 0-1.4 0-.6.2-1 .5-1.5.4-.4.8-.7 1.4-.9.6-.1 1.2-.2 1.8 0 .8 0 1.4.3 2 .6.4.4.8.8 1 1.4.3.5.4 1.1.3 1.8l-1.2-.1c0-.7-.2-1.3-.5-1.7-.4-.4-1-.7-1.7-.8-.8-.1-1.3 0-1.7.2-.4.3-.7.6-.7 1 0 .5 0 .8.2 1.1.3.3.9.7 1.9 1.1l2 1c.6.4 1 .9 1.2 1.4a3 3 0 0 1 .2 1.6 3.1 3.1 0 0 1-.6 1.6 3 3 0 0 1-1.5 1 5.3 5.3 0 0 1-4.1-.7 3.4 3.4 0 0 1-1.2-1.5 4.1 4.1 0 0 1-.3-2zm16.7 2.8 1.2.6a4.7 4.7 0 0 1-1.9 2.4c-.8.5-1.7.6-2.7.3-1-.2-1.9-.6-2.5-1.2-.5-.7-1-1.5-1.1-2.4a8.3 8.3 0 0 1 0-3c.2-1.2.6-2.1 1.1-2.9a4 4 0 0 1 2-1.5 4.4 4.4 0 0 1 2.5-.1 4 4 0 0 1 2.3 1.3c.5.7.9 1.6 1 2.7H808c0-.8-.3-1.5-.7-2-.3-.4-.8-.7-1.5-.8-.7-.2-1.4-.1-2 .2a3 3 0 0 0-1.3 1.3 7 7 0 0 0-.7 2c-.1 1-.2 1.8 0 2.5 0 .8.4 1.4.8 1.8.5.5 1 .8 1.6.9.7.2 1.4 0 2-.3.5-.3 1-1 1.3-1.8zm3-.8c.4-1.8 1-3 2.2-3.9 1-.7 2.3-1 3.6-.5a4.7 4.7 0 0 1 2.3 1.3 5 5 0 0 1 1.2 2.5c.1.9.1 2-.1 3s-.7 2-1.2 2.7a4 4 0 0 1-2.1 1.5 4.4 4.4 0 0 1-2.5 0 4.6 4.6 0 0 1-2.3-1.4 5 5 0 0 1-1.2-2.4 7 7 0 0 1 0-2.8zm1.3.3c-.3 1.3-.2 2.4.2 3.4s1.2 1.5 2.1 1.7c1 .3 1.9.1 2.7-.5.7-.5 1.3-1.5 1.6-2.9.2-.9.2-1.7 0-2.4 0-.7-.3-1.3-.7-1.8a3.2 3.2 0 0 0-1.6-1 3 3 0 0 0-2.6.4c-.8.5-1.4 1.5-1.7 3.1zm11 8.8-1-11.8 1.4.4.5 8.5.1 2 1-1.7 4.4-6.9 1.3.4-6.3 9.5zm6.3 2 2.7-10.6 6.9 2.2-.4 1.2-5.6-1.8-.8 3.3 5.3 1.7-.4 1.2-5.2-1.7-1 3.6 5.9 1.9-.3 1.2zm8.8 2.8 2.7-10.6 4.3 1.4c.8.2 1.4.6 1.8.9.4.3.7.8.8 1.3.2.6.2 1.2 0 1.8-.2.7-.6 1.3-1.1 1.6-.6.4-1.3.5-2.3.4.3.3.5.5.6.8.3.4.5 1 .7 1.7l1 3.4-1.6-.5-.7-2.6a22.7 22.7 0 0 0-.6-1.8l-.4-.9a2 2 0 0 0-.5-.4l-.7-.3-1.5-.5-1.2 4.7zm2.8-5.5 2.7.9c.6.2 1 .2 1.4.2s.7-.2 1-.4c.2-.2.3-.5.4-.9a1.8 1.8 0 0 0-.2-1.4c-.2-.4-.7-.7-1.4-1l-3-.9zm9.6 9.4 1-4.5-2.2-7.3 1.5.5 1.2 3.8.5 2 1.5-1.5 2.6-2.6 1.5.5-5.3 5-1 4.5z"/><path fill="#ffb81c" stroke="#0a1a1d" stroke-linecap="round" stroke-width=".796" d="m703.9 211.6.8 15.7-27 19.2-3.2-23.5c8.3-7.2 16.3-15.4 26.9-17.9"/><path fill="url(#h)" stroke="#0a1a1d" stroke-linecap="round" stroke-linejoin="round" stroke-width=".601" d="M277 395.5c9-1 15.2-9.5 20.3-21.4l-7.2 43.2c-4 2.2-7.8 4.6-11.7 7z" transform="translate(444.044 -270.87) scale(1.32408)"/><use xlink:href="#i" stroke-linecap="round" stroke-linejoin="round" stroke-width=".729" display="block" transform="translate(286.667 -236.537) scale(1.32408)"/><use xlink:href="#j" stroke-linecap="round" stroke-linejoin="round" stroke-width=".729" display="block" transform="translate(286.667 -236.537) scale(1.32408)"/><use xlink:href="#k" fill="#012778"/><use xlink:href="#l"/><g fill="none" stroke-linecap="round" stroke-linejoin="round"><use xlink:href="#m" stroke="#fcd80e" stroke-width="2.119"/><use xlink:href="#n" stroke="#ffb81c" stroke-width="1.059"/><use xlink:href="#o" stroke="#fcd80e" stroke-width="2.119"/><use xlink:href="#p" stroke="#ffb81c" stroke-width="1.059"/><use xlink:href="#q" stroke="#fcd80e" stroke-width="2.119"/><use xlink:href="#r" stroke="#ffb81c" stroke-width="1.059"/></g><g stroke="#6c401f"><use xlink:href="#s" stroke-width=".53"/><g stroke-linejoin="round"><g stroke-width=".5"><g fill="#fcd80e" stroke-width=".662"><use xlink:href="#t"/><use xlink:href="#u"/><use xlink:href="#v"/></g><use xlink:href="#w" fill="none" stroke-linecap="round" stroke-width=".662"/></g><g fill="#fcd80e" stroke-linecap="round"><use xlink:href="#x" stroke-width="1.854"/><use xlink:href="#y" stroke-width="1.324"/></g></g></g><use xlink:href="#i" stroke-linecap="round" stroke-linejoin="round" stroke-width=".729" display="block" transform="translate(286.667 -236.537) scale(1.32408)"/><use xlink:href="#k" fill="#012778"/><use xlink:href="#l"/><use xlink:href="#j" stroke-linecap="round" stroke-linejoin="round" stroke-width=".729" display="block" transform="translate(286.667 -236.537) scale(1.32408)"/><g fill="none" stroke-linecap="round" stroke-linejoin="round"><use xlink:href="#m" stroke="#fcd80e" stroke-width="2.119"/><use xlink:href="#n" stroke="#ffb81c" stroke-width="1.059"/><use xlink:href="#o" stroke="#fcd80e" stroke-width="2.119"/><use xlink:href="#p" stroke="#ffb81c" stroke-width="1.059"/><use xlink:href="#q" stroke="#fcd80e" stroke-width="2.119"/><use xlink:href="#r" stroke="#ffb81c" stroke-width="1.059"/></g><g stroke="#6c401f"><use xlink:href="#s" stroke-width=".53"/><g stroke-linejoin="round"><g stroke-width=".5"><g fill="#fcd80e" stroke-width=".662"><use xlink:href="#t"/><use xlink:href="#u"/><use xlink:href="#v"/></g><use xlink:href="#w" fill="none" stroke-linecap="round" stroke-width=".662"/></g><g fill="#fcd80e" stroke-linecap="round"><use xlink:href="#x" stroke-width="1.854"/><use xlink:href="#y" stroke-width="1.324"/></g></g></g><g stroke="#0a1a1d" stroke-linecap="round" stroke-width=".601"><path fill="#e30631" stroke-width=".796" d="M617 380.6c2.6.7 5 3.4 6.3 8.2.8-4.2 2.2-8 .1-12.3-4.8-1.2-6.2 1.3-6.5 4.1zm6.8-4c.2-.3 4 4.8 4.9 11.2 3.5-2.5 2.5-7.1 1.3-12.4-1.5.4-4 .5-6.2 1.3zm7-1.4c1.6 3.3 3.7 6.8 4.5 11 1.6-3.6 2.4-7.5.7-12.2zm48.7-84.6c.3 2.4 2.2 6.8-6.9 5.7 7 4.2 11.5 4.9 11.3-4.3zm5.8 3.6c.7 5.1-.1 8.8-2.4 11.4 5-.7 8.7-3 7.8-10zm7.2 1.5-1.3 5.5c4-.5 3.8-2.3 5.7-3.5z"/><path fill="#ffb81c" stroke-width=".796" d="M606.6 239.6c-36.5-10-2.1-31.7-14.6-39.6 22 10.1-3.2 17 14.6 39.6zm15 126.8c6.5.5 15.4-4.2 15.5 9.2-2.5-.6-4.4.3-5.6 1.5-.8-8.2-6.2-7.6-9.8-10.7z"/></g><g stroke="#0a1a1d" stroke-linecap="round" stroke-width=".601"><path fill="#e30631" stroke-width=".796" d="M693.8 343.8c1.7 2.4 3.4 4.1 4.6 6.9-.4-3.4 0-7.3-2-8.6zm-12.5 7.9c3.6.7 5.9 3.7 8.1 6.8a20 20 0 0 0-2.8-13.1c-3.2.9-5.6 2.4-5.3 6.3zm7.8-4.3 5.1 7.1c1-3.3.6-6.5-1-9.6z"/><path fill="#ffb81c" stroke-width=".796" d="M643.3 290.3c10.8.6 7.3-2.2 15.1-1 12.4 3.7 13.7 12.1 10.6 24-7.3 18-5.4 15.1 3.2 18 6.5 2.3 7.4 7.5 15.5 4 3.8-1.6 8.5 3.6 9.6 7.7-1.2.4-2.1 1-2.7 2.3-2-4-4.4-4.3-6.7-5.6 3 1.4 6.3 2.5 6.4 6.7-2-.2-3.4.6-4.5 2.7-4.2-5.4.1-8.4-13-7.1 2 .5 11.8-3.2 10.9 5.6-4.1-.8-5.6 1.2-5.2 5.2-2.3 3.2-14.2 2-9.1-5.5-1.7 3-2.3 6.6-6.5 8.3-5.6-5.4-3.1-6.3-1.6-11-3.9 13.5-14.8 5.7-8.2-2.7-6.8 9.8-12.7 6.5-16 .5 11.8-1.2 6.2-4.4 12.3-4-7.9.8-12.8-10-3.9-16-.2-8.6 1.1-10.8-6.7-8.6l-7.6-27.5z"/></g><path fill="url(#z)" d="M272.6 398c1.5-.3 7.5-2 8-1l-6 18.6c-3.1-1.4-7.5-1.2-9.2-2.5 2.5-3.3 1-15.2 7.2-15z" transform="translate(286.005 -236.206) scale(1.32408)"/><g stroke="#0a1a1d" stroke-linecap="round" stroke-width=".796"><path fill="none" d="M654.5 326.4c-5.8 1.3-1.7 8.2 4.1 6.8-1.3 10.2 3.5 4.6 10.5 8"/><path fill="none" d="M643.3 290.3c10.8.6 7.3-2.2 15.1-1 12.4 3.7 13.7 12.1 10.6 24-7.3 18-5.4 15.1 3.2 18 6.5 2.3 7.4 7.5 15.5 4 3.8-1.6 8.5 3.6 9.6 7.7-1.2.4-2.1 1-2.7 2.3-2-4-4.4-4.3-6.7-5.6 3 1.4 6.3 2.5 6.4 6.7-2-.2-3.4.6-4.5 2.7-4.2-5.4.1-8.4-13-7.1 2 .5 11.8-3.2 10.9 5.6-4.1-.8-5.6 1.2-5.2 5.2-2.3 3.2-14.2 2-9.1-5.5-1.7 3-2.3 6.6-6.5 8.3-5.6-5.4-3.1-6.3-1.6-11-3.9 13.5-14.8 5.7-8.2-2.7-6.8 9.8-12.7 6.5-16 .5 11.8-1.2 6.2-4.4 12.3-4-7.9.8-12.8-10-3.9-16-.2-8.6 1.1-10.8-6.7-8.6l-7.6-27.5z"/><path fill="#ffb81c" d="M652 306.6c-1.1-19.8 15.4-27 15.3-17.7-.1 7.5-10.5 4.2-11.3 31.3"/></g><g stroke="#0a1a1d" stroke-linecap="round"><g stroke-width=".601"><path fill="#ffb81c" stroke-width=".796" d="M631.4 240.4c3.1 18-3.9 39.2-15 54.1-15.7 21-34.2-2.9-14.4-5.3 9.2-1 13.9-1.3 15.8-6.5a48.2 48.2 0 0 0-20 .2c17.5-3.3 22.5-4.8 25.2-13.5-6.4.7-13 1.8-20.2 5.3 6.3-9 11.5 3.4 26.5-19-6.4-10.2-12.4 4.2-18.6 7C623.6 242 614 229 600 220.2c-1.3 7.4 0 13.2 4.4 17.8-15.6-9.4-23.3 14.7-5.1 14.6-6.2-12.5 15.4-9.6-.2 10.3-9.5 12.2-26 41.2-9.6 49-7.1.3-13.2 7.2-9 19.1 13.7-20.1 9.2-4 16-20.6-6.3 13.7-.3 15 6.6 15.2-7.2-16.6 9.4-3 20.2-31-11 22.6-5 13.1-6.6 29.3-9.6 6.2-18 2.5-16.4 14.6-4.1 2.8-13.2 10.2-5 17.2 3-7.5 7-9 11.6-8.1-14.4-1.6-14.7 20.7-5 20.2 1.3-3.8 2.7-6.9 5.3-9.6-8.6 10.8-4.9 16 2.4 17 .2-4 1.8-6.9 4.1-9.2-6.3 7.5-5 11.9 4.6 16 .4-3.3 2-4.8 5.8-3.6 1-4-2.4-6.2-5.4-8.6 2.5 2.3 5.9 4 6 8.5 2.3-.9 4.3-1.1 6.3-.7 0-12.2-12.2-7.5-12-26.5.2-23 23.3-13.3 26.4-41.2.8-7-5.7-8.6-5.4-19.6-.3 13.8 11 14.1 5.6-3.6-3-10.2 16.3-12 21.4-31.3l-31-30.1z"/><path fill="none" stroke-width=".796" d="M659.9 255.6a54.3 54.3 0 0 1-21.4 20.7"/><path fill="#ffb81c" stroke-width=".796" d="M671.8 228.2c15.7 26.1 36.5 68.5 23.7 70.8-6 1-1.7-7.8-2-12.4 0 0-.3 3.8-.8 6.4-1.2 6.2-6.7 5.9-8 1-.3-.8 2.8-13.2 2.8-13.2s-2.1 8.8-3.5 11.3c-1.7 2.9-7.5-1-8.4-4.5-1-4 6.3-11.8 6.3-11.8-3.9 4.5-6.5 8.2-10.4 3-5.6-7.3 3.6-9.3 7.2-13.6-5.5 4.4-9.8 9.4-14 4.3-4.6-5.5 4.4-8 8.6-12l-10.6 7.7c-1.2-3.7.3-6 2.3-7.9l-13.4.3c.6-5.7-4.1-10-6.3-14.9l.8-22.1 21.4 1.3z"/><path fill="#ffb81c" stroke-width=".796" d="M659.8 183.4c-.4 6.5 6 4.7 6 1.6 0-2.6-1.2-4.8-6.6-3.8-4.7.8-3.6-7.3-11.9-5.8-10 .9-11.8-4-14.4-7-3.3 2.7-3.5 5.8.8 9.6-2.8-.5-4.8-2-6.3-4.3-4.8 4.5-3.5 10.7 3.2 9.8-4.9-.5-9.3.4-10.4 1.1-6.7 4.8-1.5 23 11.2 14.8-11.4 3.9-7.5 13-17.9 17.3 3.3 9.6 8.9 2 13.8 1-11.3 7.6-5.6 12.3-5.7 21.6 5-2 6-7.6 8.2-12-.9 8.1-1.1 17.8-4.5 19.6 11.8 5.3 15.4-8.5 12-16 4.9 10.7 3.6 17.1-1 21.3 21.3 5 12.8-13.9 13.2-25.7 2 17.1 16 12.3 12.9 25.8 8.6-1.8 17.7-12.4.1-27.1a54.6 54.6 0 0 1 18.5 19.3c4-23.2-8-30.4-21-32.3v-14c7.7-11.8-1.1-8.6-.2-14.8z"/><path fill="none" stroke-width=".796" d="M630 317c9.3 4-1.4 10.3-7.8 16m-5.6-9.2c2.1 14.7-12.1 0-8.2 18.7m-6.9 5.5a10 10 0 0 1 5.6-.5c-.6 12-.1 10.6 8.3 14.5m-8.4-14.6c1.1-.6 1.7-1.3 1.4-2.8m22.5-60.6c3.3 0 1 3.7 2.5 5.2"/></g><path fill="#0a1a1d" stroke-width=".531" d="M632.2 192.3c-7.4-8.9-11.5 7.4 0 0z"/><path fill="none" stroke-width=".796" d="M637.8 181c4 6.2 5.5-2.1 10.8-2 6 0 3.9 5.8-.6 5.7-4 .2 3.3-3.6-2.7.1m14.9 27.4c-2.5.8-3.8-.1-4.6-1.4-.5-.8-.6-1.6-1-2.5.5 1.2 1.3 3 .7 2.6-.7-.3-3 .6-4.2 0-.7-.5-1.2-1.6-1.9-2.6l1.6 2.6c-.9-.1-3 .6-4.1-.2-.8-.6-.8-1.2-1.4-2.6.6 1.5.5 1.6.8 2.1 1 2.5-10.1 0-9.2-3 .4-1 3.9-2.2 5.3-3.3-.8 1-4.4 2.1-5 3-1 .6-.4-5 .7-6.1.4-.5 4-.8 5.1-1-1.3.1-5.5 1.4-5.3.5l1-5.6c.2-.8 1.4-.5 2.5-.8-1-.2-2.1.7-2.2.2-.3-1.8-.5-8-3.2-9.9"/><path stroke-linejoin="round" stroke-width="1.384" d="M658.6 200c.1 4.9-3.9 4.7-6.7 4.7s-5.2-.7-5.2-3.4 3.8-7.2 7.9-7.2c2.8 0 4.1 2.5 4 5.8z" opacity=".99"/><path fill="#e30631" stroke-width=".796" d="M654 198.6c6.4 0 4.3 3.4 4.8.9-1.4 4 9.2-1 10.1-5.3 1.3 10.5-10 11.7-10.4 8.5-2 1.5-3.7 1.8-5.4.9-1.5-.8-.8-5 .9-5z"/><path fill="#0a1a1d" stroke-linejoin="round" stroke-width=".014" d="M371.2 342.6c0 .2-.6.4-1.3.4s-1.3-.2-1.3-.4.6-.4 1.3-.4 1.3.2 1.3.4z" opacity=".99" transform="matrix(2.65336 -.72112 .39402 4.85611 -468.25 -1214.125)"/></g><path fill="#faf6f5" d="M730.8 196.3c-2.3 5.4-5 10.5-11.5 13 .2-4.5-.7-9.3 2.7-13a15.8 15.8 0 0 1-13.6 7.6c-.2-4.6 2-8.2 6.3-11-3.7 1.5-5.8 3.5-9 1.4.6-3.7 4.4-4.4 7.2-6a26.8 26.8 0 0 1-13.3 3.3l-15.2 10.8-9.7-3c-4.1-11.7 5.2-13 14-16.1-11-3.3-29-3-33.2-10.4 1.7-.8 3.5-.9 5.6-.3-7.9-6.3-7.5-9.5-5.7-12.3 5.8-.2 10.4 4.6 14.9 9.9-2.8-4.7-8.7-8.5-4.2-15 5 1 8.3 10 12.5 15-5.9-10-9.4-21.3-21.6-27.6l3.7-8 10.2.7c13.3 8.6 12.6 20.7 18.1 31.2-2-10.4-2.9-20.6 5-24.6 2 2.4 1.7 5.6 1.7 8.6 1-6.2 5-8.7 10-10.2 4 8.3 0 12.7-4 17.1 3.5-2.5 6.7-7 11-3.7 0 3.6-3.6 5.7-7 8l-5.5 3 .4 6 6 3.1 14.1 5.5z"/><path fill="#faf6f5" d="M666 147c-16.4-10.3 10.1-17 8-1.9-.4 2.2-5.9 3.2-8 2zm5.1 5.1c-2-2.6 3.6-4.7 4.3-3.6.7 1.1-3.3 5-4.3 3.6zm-7.1 14c-2.7 2.2-.8 11.7 2 9.7 2.9-2-.1-11.4-2-9.8zm20 2c-11.7 4.6-10.2 10.2 2 3.2 2.2-1.4 16.8-10.6-2-3.3zm12.7 6.8c-2.6-.7-5.7-4.5-7.2-4.6-1-.1-6.9 4.7-6.8 5.6 0 .7 5.3.7 7.2 5.7 4.3-2.2 4.5-4.5 6.8-6.7zm-1.3 4.9c-5.2 3-8 5.8-7.6 7.1.4 1.3 5.8-2.3 8.6.8 4.8-4.9 9-10-1-8zm20.8-.3 14.3 16.6c-3.3 4-12.2 7.3-7-2-1.7 4.4-11.5 2.7-3.4-6.6-8.2 10.4-10.4-1.5-3.9-8z"/><g stroke-linecap="round" stroke-linejoin="round" stroke-width=".601"><g fill="none"><path stroke="#d7ccbf" stroke-width=".796" d="m694.2 160.4-.3 2m7.2-4c-.5.5-1.2 2.2-1.2 3.3"/></g><path fill="#6c401f" stroke="#6c401f" stroke-width=".796" d="m692.3 171-2.3-2.5m-19.5 7.2c-.6.2-1.3.4-1.9-.6m4.9 1.8 2.2.6m7.5-1.3 1.6 1.5m2.3 2.6c1 .2 2 .4 2.7 1.7"/></g><path fill="#faf6f5" d="M668.5 162.8c-.2-4.8-2.1-4-2-.2.4 7.3 2.2 2.5 2 .2z"/><path fill="none" stroke="#0a1a1d" stroke-linecap="round" stroke-linejoin="round" stroke-width=".796" d="M730.8 196.3c-2.3 5.4-5 10.5-11.5 13 .2-4.5-.7-9.3 2.7-13a15.8 15.8 0 0 1-13.6 7.6c-.2-4.6 2-8.2 6.3-11-3.7 1.5-5.8 3.5-9 1.4.6-3.7 4.4-4.4 7.2-6a26.8 26.8 0 0 1-13.3 3.3l-15.2 10.8-9.7-3c-4.1-11.7 5.2-13 14-16.1-11-3.3-29-3-33.2-10.4 1.7-.8 3.5-.9 5.6-.3-7.9-6.3-7.5-9.5-5.7-12.3 5.8-.2 10.4 4.6 14.9 9.9-2.8-4.7-8.7-8.5-4.2-15 5 1 8.3 10 12.5 15-5.9-10-9.4-21.3-21.6-27.6l3.7-8 10.2.8c9 3.3 12.6 20.6 18.1 31.1-2-10.4-2.9-20.6 5-24.6 2 2.4 1.7 5.6 1.7 8.6 1-6.2 5-8.7 10-10.2 4 8.3 0 12.7-4 17.1 3.5-2.5 6.7-7 11-3.7 0 3.6-3.6 5.7-7 8l-5.5 3 .4 6 6 3.1 14.1 5.5z"/><g stroke="#0a1a1d" stroke-linecap="round" stroke-width=".601"><path fill="#e30631" stroke-width=".796" d="m710.9 217.7 3.8 5.8-.2-7.5zm5.7-.6c-.3 2.5.7 4.2 1.7 6.7.8-2.7 1-5.4 1.3-8.1zm5-1.5c-.2 2-.3 3.8 0 5.7 3-1.7 3.5-3.6 3-4.4z"/><path fill="#ffb81c" stroke-width=".796" d="M701.3 205.2c6-1.4 12.7-1 20.8 2.3 4.3 1.8 3 6.2 2.7 10-.9-.7-1.9-1-3.3 0 0-3.5-2.3-6.2-3.5-9.2 1 3.2 3.2 6.4 1.8 9.6-1.2-1.1-2.3-.8-3.3 0-.7-6.2-3.7-6.9-6.3-8.4 3.2 2 5.9 4.4 4.3 8-1.4 0-2.8-.2-2.8 1.6-2.4-3.3-4.8-6.6-7.8-7.5"/></g><path fill="#faf6f5" d="M795.7 172.2c14.4-8.5-5.3-13-4-22.6 2.9.1 5.8 0 8 3-4.6-4.7-6.4-9.5-2-14.6 3.5.2 6.6 1.9 8.4 7.6.8-3 2.2-5 5.4-4.8 7.7 5.4 3.1 11 1 21.2 4.7-16.1 7-35.1 29.8-31.6-9.7 9.7-14.8 22.2-21.8 33.4 6.8-5 12.9-11.2 23.3-11.2.7 2.5 1 5.1-6 8.7 5-1.2 10.1-4.4 15 1.2-4 5.2-8.8 4.8-13.5 5 4.9.4 8 2.9 8.3 8.4-15.3-4.4-18 .7-38.8 1 4.9 2.2 12.2 4.9 14.8 11.1v7.8l-3.3 5.4-19-5.8c-3.5-.6-7-3-10.5-5.3.2 6.2-2.6 10-5 14.3l-18.6-17 12.9-12.2z"/><path fill="#faf6f5" d="M793 176.5a45 45 0 0 1 7.6 2.7c-1-5.4 5.5-1 7.4 1.1 1 1.1 3 .2 2.9 1.6-.2 2.6-8 2-11.8 3.1-2.3.6-15.3-8-6.2-8.5zm20-16.5c-16-4.9-5.6 9.2-15 14.1 6.1-.9 8.9 3.1 15.8-3.2 3.6-3.3-8.4.4-.9-10.9zm25.2 1c1.6-2.4 2.2-6-2.2-4.8-5.2 1.4-1.8 4.1.2 5.7-3.8 4.4 1.6 8.8 3 10.1 1.2 1-.3-4.5-.3-4.5 2.7-2.5 4.1-6.3-.7-6.4zm-13-19.4c-1-1.3 3.4-3.4 7.3-5.4 13.3-7.1 3.3-6.4-3-3.8-2 .8-3.7 2-6.4 5.3-4 4.7-3.8 9.3.2 8.9 6.6-.6 4.7-1.6 1.9-5z"/><g stroke-linecap="round" stroke-linejoin="round"><g stroke-width=".601"><g stroke="#6c401f"><path fill="none" stroke-width=".796" d="M831.3 168c.9.8 1.9.5 3-.2"/></g><path fill="none" stroke="#0a1a1d" stroke-width=".796" d="M795.7 172.2c14.4-8.5-5.3-13-4-22.6 2.9.1 5.8 0 8 3-4.6-4.7-6.4-9.5-2-14.6 3.5.2 6.6 1.9 8.4 7.6.8-3 2.2-5 5.4-4.8 7.7 5.4 3.1 11 1 21.2 4.7-16.1 7-34.6 29.9-31.9-9.8 9.7-15 22.5-22 33.7 7-5 13-11.2 23.4-11.2.7 2.5 1 5.1-6 8.7 5-1.2 10.1-4.4 15 1.2-4 5.2-8.8 4.8-13.5 5 4.9.4 8 2.9 8.3 8.4-15.3-4.4-18 .7-38.8 1 4.9 2.2 12.7 4.9 14.7 11.1l.1 7.8-3.3 5.4-19-5.8c-3.5-.6-7-3-10.5-5.3.2 6.2-2.6 10-5 14.3l-18.6-17 12.9-12.2z"/></g><g stroke="#0a1a1d"><path fill="#009aaf" stroke-width="1.325" d="M849.7 358.2c-20.7.9-18.5 3.6-22.3 7.6 2.4-3 12-2.5 18.2-5a23 23 0 0 0-13 11.8c5.8-4 10.3-7.2 16.6-10.4-2 1.3-9.7 5-8.6 9.4 6.5-5.8 16.5-8.3 21.8-9.8z"/><path fill="#faf6f5" stroke-width=".796" d="M846.8 335.7c-4.8 0-8.4 31.7 18.3 26-1.5-11.2-3.1-22.4-18.3-26z"/></g></g><path fill="#d7ccbf" d="M847.5 336.7c-1.3 22.7 1.6 21.9 15.5 22.4-1.1-11.3-5.8-19.4-15.5-22.4z"/><path fill="#faf6f5" stroke="#0a1a1d" stroke-linecap="round" stroke-linejoin="round" stroke-width=".796" d="M862 303.1c-15.2 18.4-5.9 49.7 3.3 61 5.2 0 11 0 15.9.2 3.8-2.3 7.4-6.1 10.4-10l-3.8-45.7z"/><path fill="#d7ccbf" d="M861.7 359.1c18.1 3 12-14.4 14-25.4.1-2.8-2.2-10.2-1.2-11.6l5.7-10 4.8 4.8 3 41.7-7 6-16-.2z"/><path fill="none" stroke="#0a1a1d" stroke-linecap="round" stroke-linejoin="round" stroke-width=".796" d="M862 303.1c-15.2 18.4-5.9 49.7 3.3 61 5.2 0 11 0 15.9.2 3.8-2.2 7.4-6.1 10.4-10l-3.8-45.7z"/><path fill="#faf6f5" d="M840 208.4c-4.5 34.7-15 23.6-14.3 57.2.6 34.9 12.2 73 29.8 77.3 17-35.2 11-72.5 16.5-108.7l-7.6-25.8-13.8-3.3z"/><path fill="#fcd80e" d="M840.2 207.9c-.9 7.7-2.3 15-5 21.8 2.2-1 4.6-1.3 7.4-1.5 11.8.5 7.6 14.4 15.4 3.5a66.5 66.5 0 0 1 11.2-8c-1.9-5.3-3.7-11.6-5.6-17.5z"/><path fill="#faf6f5" d="M826.7 279.6c12.3-9.4 11.4 8.5 32.6-3l-.2 41c-8 4.1-16 .9-24 .9-4-13-7.7-26-8.4-38.9z"/><path fill="#62c1f2" d="M862.7 304.1c-13.3 23.1-22.3 15.3-28.2-1.9-.2 5.1 0 9.5 0 14.2 3.6 12.2 12.5 24.2 21 27.1 5-12 12.9-26.3 7.2-39.4z"/><path fill="none" stroke="#0a1a1d" stroke-linecap="round" stroke-linejoin="round" stroke-width="1.723" d="M830.5 280.1c7.7 16 15.7 16.6 22.3 8.2"/><path fill="#ffb81c" d="M842 228.2c3.7-2 3.4-14.5 5.3-12.4 8.2 9.3 7.3-.2 9 10.1.3 1.4.6 2.8 2.1 5.1-8.4 12.4-3.9-2.5-16.4-2.8z"/><path fill="#ffb81c" d="M842.2 228.1c13-2.7 6 4.4 16.2 2.9-7.8 12-4.2-1.5-16.2-2.9z"/><g stroke="#0a1a1d" stroke-linecap="round" stroke-linejoin="round"><g stroke-width=".796"><path fill="none" d="M840 208.1c-4.5 34.7-14.8 24.4-14.2 58 .7 34.9 12.3 73 29.8 77.3 17-35.2 11-72.5 16.6-108.7l-7.8-26.3-13.7-2.8z"/><path fill="#009aaf" d="M842.6 186.6c22 3 21.5 11.9 21.8 21.9-2-.2-4.5-.3-7.1-.3-1.4 12-7 10.8-9.4.1h-8c-.2-3 0-6.8-.8-10.1"/><path fill="#e30631" d="M839.1 198.1c-4.4-11.1-13.5-20.6-21-29.8 14.3 4.7 19.1 15.6 24.6 18.3"/></g><path stroke-width="1.38" d="M847.6 194c-1.8.2-1.9-1.8-3 .9-1 2 1.8 2.5 2.1 3.4.7 2.3 1.4 5.3 4.7 5.3 2.7 0 7.4-3 7.5-5.1-.6-1.7-5-4.1-7.7-4.2l-3.6-.2zm4.1 1.4c1.9 0 3.7.8 3.8 2.3 0 2.7-2.2 3.6-4 3.6s-3.4-2-3.4-3.6 1.8-2.3 3.6-2.3z" opacity=".99"/><path stroke-width=".796" d="M857.4 191a40.9 40.9 0 0 1 1.5 17.2l5.6.4c.2-7.3-2.2-13.2-7-17.5z"/></g><path fill="#e30631" d="M839.3 197.6c9.8-.8 4.9-9 3.3-10.6-4.4 2.7-4.2 8.2-3.3 10.6z"/><path stroke="#0a1a1d" stroke-linecap="round" stroke-linejoin="round" stroke-width=".796" d="M847.8 208.3c3.2 9.8 6.7 11.5 9.7-.1-3 1-7 1-9.7.1z"/><path fill="none" stroke="#0a1a1d" stroke-linecap="round" stroke-linejoin="round" stroke-width="1.37969136" d="M846 206c.2 1.3.7 2-.6 1.9-.7 0-.3-.8-.6-2s-.3-1.4.2-1.5c.6 0 .7.4 1 1.6z" opacity=".99"/><path fill="#e30631" d="M837.5 188.3c1.7 2.6 2.6 5.8 3.4 9 2.4-1.8 3-2 4.3-4.6-.6-4-1.6-3.8-2.8-4.2-1.6-.5-3-.3-4.9-.2z"/><g stroke-linecap="round" stroke-linejoin="round"><path stroke="#0a1a1d" stroke-width=".796" d="M869.1 224.5a15 15 0 0 0-9.7 6.1c2.6 5.7-.1 5.6-2.4 6a16 16 0 0 0 4.2 8.6 27.2 27.2 0 0 0-7-.9c3.8 3.5 5 7.1 6.9 10.6-2-1-3.8-1.2-5.7-1.2 2.4 3 3.6 6.9 4.7 10.7l-4.5-.2c1.5 5 2.8 10.9 1.3 16.2-2.7 9.6-1.3 16.9 1 23 5.8 15.8 13.4 25.1 17.3 35.5 2.4-7.4 5-14.6 5.9-23.8 4.3 7.9 4 19.2 4 30.2.2 16 2.2 19 13.7 22.7-7.6-6 4.3-108.4-29.7-143.5z"/><g fill="#009aaf" stroke="#009aaf" stroke-width=".266"><path d="M867.2 239.7c4 30.6-5.3 34-4 50.8a82.8 82.8 0 0 0 10 30.8c1.4-18.7 0-57-1-62.3 4 .8 4.6 2.2 5.3 30.7.2 11.9-.8 38.8-3.2 40.7 0 0-15.8-24-15.8-38.2 0-6 3.4-19.5 4.4-31.4 1-11.3-2.3-17.7 4.3-21z"/><path d="M895 364.3c-2-5.3-1.9-13.3-2.2-29.5-.1-6.9-.3-15-.8-25.3-1.6-28.2-8.6-69.2-24.4-80.5 0 2.5.2 5.2 4.2 10.3-1.3-1-2.5-.8-3.8-.6 13.7 13 14.2 30.6 16.4 47.3a984 984 0 0 1 4.3 41.3c1.8 21.5-.8 34 6.3 37z"/></g></g><path fill="#003396" d="M839.2 129.9c8 9.3 4.2 12.8-4.9 13.8 2.7 3.8 8.4 6.2 12 0 3.8 2.5 4 7.3 5.2 11.6 2.4-3.4 7.5-3.8 3.8-13.1 6 1.4 6.6-2 7.6-4.5-9.7 2.6-10.5-8.6-23.7-7.8z"/><g stroke-linecap="round"><path fill="#012778" stroke="#012778" stroke-width=".266" d="M839.8 142.7c2.4-.8 4.8-1.8 6.2-4 2.1 1.2 4 4.3 5.8 7-.4-1.9-1.4-3.6-1-5.4l4.8 2.4c-1.4-2-4-3.6-1.8-7.2l-4.3-3.2-4.7-2c-1.8-.3-3.6-.4-5.4-.4l2.6 3.7c.6 1 1.4 2 1.4 3.5l-.2 2.1c0 .7 0 1.2-.7 1.6z"/><path fill="none" stroke="#0a1a1d" stroke-linejoin="round" stroke-width=".796" d="M839.2 129.9c8 9.3 4.2 12.8-4.9 13.8 2.7 3.8 8.4 6.2 12 0 3.8 2.5 4 7.3 5.2 11.6 2.4-3.4 7.5-3.8 3.8-13.1 6 1.4 6.6-2 7.6-4.5-9.7 2.6-10.5-8.6-23.7-7.8z"/></g><path fill="#003396" d="M819 187c-3.8 0-7.5.3-8.8 5.7-2.9-3.6-6.5-5-10.3-5.9.3 3.4.8 6.5.5 10.4a14 14 0 0 1-7.9.2c8.3 14 36.6 12.5 31.4-9.5 0 22.3-15 7.7-5-.8z"/><g stroke-linecap="round"><path fill="#012778" stroke="#012778" stroke-width=".266" d="M815.3 194c-2 6.7-4.8 8.5-8.8.5-.6 4-2.7 3.9-4.6 4l10.5 7.8 3-.7 2.2-.9 2.5-1.5c1.4-1.3 1.8-2.9 2.8-4.3l1.2-4.8-.6-6.4v6l-.8 2.7a8 8 0 0 1-1.3 2.2c-.5.6-1.1 1-1.8 1l-1.8-.5-1.6-1.8z"/><path fill="none" stroke="#0a1a1d" stroke-linejoin="round" stroke-width=".796" d="M819 187c-3.8 0-7.5.3-8.8 5.7-2.9-3.6-6.5-5-10.3-5.9.3 3.4.8 6.5.5 10.4a14 14 0 0 1-7.9.2c8.3 14 36.2 12.5 31-9.5 0 22.3-14.7 7.7-4.5-.8z"/></g><path fill="#012778" stroke="#0a1a1d" stroke-linecap="round" stroke-linejoin="round" stroke-width=".796" d="m775.9 190-.5 5.2 7.8 3.7a60.7 60.7 0 0 1 0-21.8c-4.3 2.8-7.8 6.3-7.3 12.8z"/><path fill="#012778" d="M703.8 172.5c-5.2-3.9-1-9.3 2.2-11.1-7.2-1.1-13 8.8-4 12.8-10-.6-12.6.8-14.6 2.4 2 5.6 13.5 5 20.4 2a10.2 10.2 0 0 0-4 7.6c8 .1 10.2-4 13.3-7.9z"/><g stroke-linecap="round"><path fill="#003396" stroke="#003396" stroke-width=".266" d="M687.6 176.4c5 2.6 17.3 1 27 1l-8.7-3.8-4 .5-6.8-.1c-2 .2-4 .7-6 1.3zm11.6-4c-1.7-6.2 1.5-10 6.8-11.1l-3.3.1c-1.5.7-2.7 1.7-4 2.7l-1.2 3-.2 2.2z"/><path fill="none" stroke="#0a1a1d" stroke-linejoin="round" stroke-width=".796" d="M703.8 172.5c-5.2-3.9-1-9.3 2.2-11.1-7.2-1.1-13 8.8-4 12.8-10-.6-12.6.8-14.6 2.4 2 5.6 13.5 5 20.4 2a10.2 10.2 0 0 0-4 7.6c8 .1 10.2-4 13.3-7.9z"/></g><path stroke="#0a1a1d" stroke-linecap="round" stroke-linejoin="round" stroke-width=".796" d="m731.2 200.4-3 18.4 20 4.7L758 207l9.5-4.3 12.1-1 9.4 5.5c-3.2-7.8-4.5-12.2-12.2-15.9l-.3-34-10.3-9-35.6-.2c-7.9 9-18.3 15.7-28.4 22.5-2.5 1.7-1.3 3.5.1 3.9 11.5 3.6 23.8 10.4 28.9 25.8z"/><path fill="#62c1f2" d="M743 208.5c4.8-4.7 9.9-9 16.3-12l-9-20.2h-18.8l10.6 18-4 1.8"/><path fill="#faf6f5" d="M738.1 179.5h8.5l6.6 16.5-6.5 4.1c-1.6-7.3-5.7-13.8-8.6-20.6z"/><path fill="#faf6f5" d="M742.3 179.5h4.4l6.6 16.5-3.6 2.2a104 104 0 0 0-7.4-18.7zm1.5 29.8c2.5-2.6 6.2-6.2 10-8.6 2 .6 3.6 1.7 5.4 2.9-4.7 3-8.6 6.6-11 11.6a28.1 28.1 0 0 1-4.4-6zm29.1-16.8h-8.6c0 3 1.7 5.5 5 7.1 5.4-1.3 9.3-.7 12.6.2-3-2.7-6-5.5-9-7.3z"/><path fill="#00b6d9" d="m778.8 192.6-6.2-.1a37 37 0 0 1 8.2 7.2c2.6.8 4.8 2.9 7 4.8-2.6-6.8-5.6-9.8-9-11.9z"/><path fill="#fcd80e" d="M769.4 199.7c-8-8-8.4-28-9.6-31.1l-4.2.5c2.6 12.4 4.4 27.2 10 31.8zm-9.4-38v5.8l3.8-1.6v-5.7z"/><path fill="#9d7a51" d="m759.6 155-1.8 12-10.4.8 5.3-13z"/><path fill="#faf6f5" d="m744.2 162-17.5-.1c2.5-5.2 7.7-8.6 14.4-10.2.6-.3.4-1 0-1l-13.7.8 3.3-3.3h14.5v6.8z"/><path fill="#faf6f5" d="m730.8 156.7 4.6 4.7h-8.8c1.4-2.3 2.4-3.4 4.2-4.7zm23.3-1.1c0 5-1.5 8.7-5 11.3l-5.3.6-.4-11.3z"/><path fill="#961538" stroke="#0a1a1d" stroke-linecap="round" stroke-linejoin="round" stroke-width=".796" d="m712 166.2 29.7.5-.4 2-33.9 2.6z"/><path fill="#6c401f" d="m716.9 161 26.6.1v2.4h-27.3z"/><g stroke="#0a1a1d" stroke-linecap="round" stroke-linejoin="round" stroke-width=".601"><path fill="#fcd80e" stroke-width=".796" d="M702.1 174.4c19.3-.6 38-3 56.3-6.4v-4c-3.2.7-8.6 1.6-12.3 1.8l-.2-8.3 13.3-1 1.6-3.7-20.6 1.5.2 3.4c1.4 1.4 1.7 5 .3 6.2v2.8a349.6 349.6 0 0 1-30.4 3.1l11.2-9-4.6-.1a373.4 373.4 0 0 1-15.8 11c-.3.4-.3.9-.2 1.3.3.7.7 1 1.2 1.4z"/><path fill="none" stroke-width=".796" d="m730.9 193 1.9 5.4-4.6 20.5 20 4.7 9.7-16.4 9.5-4.4 12.1-.9 9.4 5.4c-3.2-7.7-4.5-12.1-12.2-15.8l-.3-34-10.3-9-35.6-.2c-7.8 9-18.1 15.7-28.4 22.5-2 1.4-1.1 3 0 3.6 5.5 2.2 14.3 1.9 21.5 6.5a15.8 15.8 0 0 1 7.3 12.1z"/><path fill="#fcd80e" stroke-width=".796" d="M731 200.1c-2.7.7-8.3 15.9-7 20.2 1 1.6 3.5 3.4 8.2 3.6-2.2 2-3.8 4.9-4.8 7.2 4.2 3.3 5.9 4 13.6 4.8.6-2.3 1.3-6 1.1-10 2.7.7 5.4 1.3 8.1.7 2.8-17.6 31.6-33.2 39.7-12.9.3-27.7-39.6-13.5-43 6.4l-15.7-2c2.3-6 2.8-12-.2-18z"/><path fill="#fcd80e" stroke-width=".796" d="m738 195.7-11.7-19.2-18.7-.1c-3.6-1.2.7 0-5.2-2 28.5 10.1 26.7 25.8 34 41 2.2-2.3 4.5-4.3 6.8-6.6"/><path fill="none" stroke-width=".796" d="M735.5 218.8c-.4 4-1.6 7.9-2.9 11.3m7.3-10.7c0 3.4-1.2 8.7-2.3 12"/></g><path fill="#003396" d="M781 151.4c.3 24.9 20.2 13 23 26.4-5.2 3-10.7 1.7-16.4-4.1 5 4.8 7 10.7 5.3 17.6-4.8-1.4-10.5-1-10.6-12.3-1 5.2-1.4 10.6-6.7 13.4-4.3-7.2-5-15.8-.7-26.7-2.9 4.2-5.7 8.5-10.7 9.6-.8-8-1-12.8 8.4-22.6-3.5 4-6.5 8.5-13 8-.5-5.4.6-10 4.8-13.3z"/><path fill="#012778" d="M760.3 153.2c3.8.4 12.1-3 11.5 6.8-.2 2.2-.9 4.4-2.3 6.1 3.1-2.2 4.9.4 6.7 5.9 1 3.4.5 8.7.5 8.7.8-3.3 1.3-6 6-3.9 2 .9 3.7 4.6 6.4 8-1.7-3.7-3.6-7.4-1.5-11.1 4.3 4.7 11 7.3 16.2 4-2-2.3-10-.1-13.5-5 2-1.7 4.6-1.6 7-2l-6.6-2-3-1.5-3.6-3.1-2-4-1.4-8.7-16.5-4c-2.6 2.2-3.3 4-3.9 5.8z"/><path fill="none" stroke="#0a1a1d" stroke-linecap="round" stroke-linejoin="round" stroke-width=".796" d="M781 151.4c.3 24.9 20.2 13 23 26.4-5.2 3-10.7 1.7-16.4-4.1 5 4.8 7 10.7 5.3 17.6-4.8-1.4-10.5-1-10.6-12.3-1 5.2-1.4 10.6-6.7 13.4-4.3-7.2-5-15.8-.7-26.7-2.9 4.2-5.7 8.5-10.7 9.6-.8-8-1-12.8 8.4-22.6-3.5 4-6.5 8.5-13 8-.5-5.4.6-10 4.8-13.3z"/><path fill="#faf6f5" d="M726.5 140.6c-14.8.6-15.4 22.2 2.3 11.5 8.9-5.4 31.4-2.7 42.5-.1 17.4 4 17-6 5-10.5-10.5-4-37.7-1.5-49.8-1z"/><g stroke="#0a1a1d" stroke-linecap="round" stroke-linejoin="round" stroke-width=".601"><path fill="url(#A)" d="m624.6 332.2-4.2-6.8c-3 0-6.5-.2-9.4.9l5.6 7.7" transform="translate(-86.439 -290.757) scale(1.32408)"/><path fill="url(#B)" d="m641.3 333.2-3-8.4H629l4 7.5" transform="translate(-86.439 -290.757) scale(1.32408)"/><path fill="url(#C)" d="M647.4 325.4c6.7.8 10.7 4.7 10.7 7.1-.1 2-3.5 3.6-10.3 1.9z" transform="translate(-86.439 -290.757) scale(1.32408)"/><path fill="none" stroke-width=".796" d="M726.5 140.6c-14.8.6-15.4 22.2 2.3 11.5 8.9-5.4 31.4-2.7 42.5-.1 17.4 4 17-6 5-10.5-10.5-4-37.7-1.5-49.8-1z"/></g><path fill="none" stroke="#9d7a51" stroke-linecap="round" stroke-linejoin="round" stroke-width=".53" d="M751.6 134.8A154.1 154.1 0 0 0 776 97c3.4 4 7.8 6.3 14 5.7a170.1 170.1 0 0 1-9 32.2"/><path fill="#ffb81c" d="m716 134.9-.6 1-25.4-12.3c-.2-.6 0-1 .5-1z"/><path fill="#faf6f5" stroke="#9d7a51" stroke-width="1.245" d="M760 128.9h11.8v5.5H760z"/><path fill="#d7ccbf" stroke="#6c401f" stroke-width="1.245" d="M761.3 122.3h4v6.6h-4z"/><path fill="#faf6f5" stroke="#9d7a51" stroke-width="1.242" d="M738.9 128.9h11.9v5.7h-12z"/><path fill="#ffb81c" d="M797.5 120.7c.5.1.7.7.4 1l-21.9 8.5-.4-1zm-6.9-18.7c.3.1.5.4.4.7l-15 8-.5-.7zm-53 25.4c0 .5 0 1-.4 1.2l-25.7-6.4c-.1-.4 0-.9.3-1.2zm-3.9-23.8c0 .4 0 .8-.4 1.1l-17-5.4c-.2-.5-.1-.9.3-1.2zm26.7-3.5c.1.4 0 1-.3 1.2l-20.8-5.7c-.2-.5 0-.9.3-1.2z"/><path fill="none" stroke="#9d7a51" stroke-linecap="round" stroke-linejoin="round" stroke-width=".53" d="M695.5 125.5a154.9 154.9 0 0 0 30-23.7m.2 3.7c4.9 9.9 8.5 20 17.2 29.2m-16.8-32.1c6.6 11 11.8 22.6 22.2 32.2"/><path fill="#ffb81c" d="M733.7 113.2c0 .4 0 .9-.4 1.1l-17-5.4c-.2-.6 0-1 .3-1.2z"/><path fill="none" stroke="#9d7a51" stroke-linecap="round" stroke-linejoin="round" stroke-width=".53" d="M731.6 134.2c6.5-6.8 13.3-13.6 18.8-20.7"/><path fill="#ffb81c" d="M733.7 118.6c0 .4 0 1-.4 1.2l-17-5.5c-.1-.4 0-.9.3-1.1z"/><path fill="none" stroke="#9d7a51" stroke-linecap="round" stroke-linejoin="round" stroke-width=".53" d="M750.4 98.7A75.9 75.9 0 0 1 726 122"/><path fill="#ffb81c" d="M760.4 110c.2.6 0 1-.3 1.3l-20.8-5.7a1 1 0 0 1 .3-1.2z"/><path fill="none" stroke="#9d7a51" stroke-linecap="round" stroke-linejoin="round" stroke-width=".53" d="M750.5 108.2c-7.4 7.8-16 14.6-24.6 21.3"/><path fill="#ffb81c" d="M760.4 115.1c.2.6 0 1-.3 1.2l-20.8-5.6c-.2-.4-.2-1 .3-1.2z"/><path fill="#012778" d="m799 105 .2 4.6c-3.2-3.2-5.4-1-9.3-1.6v-4.6c9 0 6.1-1.4 9 1.5z"/><g clip-path="url(#D)" transform="matrix(.11989 -.00192 .00192 .11989 791.692 104.22)"><circle r="20" fill="#012778"/><path stroke="#faf6f5" stroke-width="3" d="m-20-10 40 20m-40 0 40-20"/><path stroke="#c40f38" stroke-width="2" d="m-20-10 40 20m-40 0 40-20"/><path fill="#faf6f5" d="m0 0 20 10h-3L-3 0m3 0 20-10h3L3 0M0 0l-20 10h-3L-3 0m3 0-20-10h3L3 0"/><path stroke="#faf6f5" stroke-width="5" d="M-20 0h40M0-10v20"/><path stroke="#c40f38" stroke-width="3" d="M-20 0h40M0-10v20"/></g><path fill="url(#E)" d="M274.6 177a.7.7 0 0 1 1 0v33h-1z" transform="translate(361.433 -143.036) scale(1.32408)"/><path fill="none" stroke="#9d7a51" stroke-linecap="round" stroke-linejoin="round" stroke-width=".53" d="M784.3 134.4a651.6 651.6 0 0 1-33-42.6c8 14.7 15.9 29.4 26 43.8M751 91.7c6.4 14.6 11.7 29.4 20.4 43.5m18.7-32.5c1 6.6 1.5 13.2 3.6 19.4"/><path fill="url(#F)" d="M293.6 175a.8.8 0 0 1 1 0v35h-1z" transform="translate(361.433 -143.036) scale(1.32408)"/><path fill="url(#G)" d="M312.7 181a.8.8 0 0 1 .9 0v29.4h-1z" transform="translate(361.433 -143.036) scale(1.32408)"/><g stroke-linecap="round"><path stroke="#0a1a1d" stroke-linejoin="round" stroke-width=".134" d="M710.5 133.6h83.4v7.8h-75.4z"/><g stroke-width=".096"><path fill="#0a1a1d" stroke="#0a1a1d" d="M349.6 256.7h56.9v.9h-57z" transform="matrix(1.33533 0 0 1.32408 249.609 -202.289)"/><path fill="#d7ccbf" stroke="#d7ccbf" d="M349.6 255.6h56.9v1h-57z" transform="matrix(1.33533 0 0 1.32408 249.609 -202.289)"/></g></g><path fill="#003396" d="M673.9 192.3c1 14.7 19.5 3.3 6.4-1 2.9-2.2 7.6-2.5 9.9 1.3 2-5.6 6.7-6.7 13.4-4.5-1.7 2.9-2.8 5.9-7.2 8.4 2.5 0 4.4.6 6 1.4-8.5 11.2-34.6 8.3-28.5-5.6z"/><g stroke-linecap="round"><path fill="#012778" stroke="#012778" stroke-width=".266" d="M680.5 191.3c3.5.6 8.4 3.1 10.6 6.3 2.9-4.5 7.2-7.4 12.5-9.4l-1 2-1.6 2.4-1.6 1.8-1.6 1.3-1 .7 2.5.2 3.3 1.2-4.7 4-4.8 2.1-6 1-7-.8-3-1.5-3.5-3.3-.8-2.6.4-3 .7-1.5.7 3.4 2 3 1.9 1h2.5l2.5-1.1 1.1-1.6.1-2.5-1-1.3z"/><path fill="none" stroke="#0a1a1d" stroke-linejoin="round" stroke-width=".796" d="M673.9 192.3c1 14.7 19.5 3.3 6.4-1 2.9-2.2 7.6-2.5 9.9 1.3 2-5.6 6.7-6.7 13.4-4.5-1.7 2.9-2.8 5.9-7.2 8.4 2.5 0 4.4.6 6 1.4-8.5 11.2-34.6 8.3-28.5-5.6z"/></g><path fill="#003396" d="M672 135.7c-19.2-8.4-31.9 3.7-34.4 14.7 2.7-.6 4.6-1.8 6.3-4-.2 4.1.4 6.9 2.1 11.5 3.3-2.2 5.9-3.2 6.7-9.1 6 6 9.6-.4 11-1.4-10.8-8.9 1-13.1 8.2-11.7z"/><g stroke-linecap="round"><path fill="#012778" stroke="#012778" stroke-width=".266" d="M649.3 135.4a41 41 0 0 1-1 8.6c2.3-4.1 7-3 11-3l.8-2.5 3.2-2 3.4-.9 5.2.3-4.3-1.8-6-1.1h-5.3l-4.5 1.2z"/><path fill="none" stroke="#0a1a1d" stroke-linejoin="round" stroke-width=".796" d="M671.6 135.8c-19-8.4-31.5 3.5-34 14.6 2.7-.6 4.6-1.8 6.3-4-.2 4.1.4 6.9 2.1 11.5 3.3-2.2 5.9-3.2 6.7-9.1 6 6 9.6-.4 11-1.4-10.8-8.9.8-13 8-11.6z"/></g><path fill="none" stroke="#0a1a1d" stroke-linecap="round" stroke-linejoin="round" stroke-width=".796" d="m838 167.5-2 .1m-122 20 1.7-1m7 8.8.9-1.1"/></svg>