<svg xmlns="http://www.w3.org/2000/svg" xmlns:xlink="http://www.w3.org/1999/xlink" width="1200" height="720"><path fill="#e30631" d="M0 0h1200v720H0z"/><path fill="#fcd80e" d="M0 0h816v720H0V0Z"/><path fill="#012778" d="M0 0h384v720H0V0Z"/><path id="a" fill="#6c401f" d="m600 526 1-1 1-321h-2c-12 0-20-11-31-11-9 0-14 8-14 15 0 9 7 15 7 22 0 6-5 10-14 10-7 0-15-3-19-6 10-1 10-16-3-16-2-4-9-5-13-2-3-1-8-1-11 2-5-3-12-1-15 4-4 1-8 5-9 9-4 0-8 3-8 10 0 14 32 26 22 40 1-3-1-6-5-6s-7 5-5 9c-14-7-38 3-38 29 0 20 14 31 23 33-6 2-7 9-4 13s9 5 13 1c2 3 5 8 5 14 0 9-4 15-8 19-2-6-13-6-14 1-1 1-2 3-2 5-6 4-4 18 9 16-26 25-6 69 53 69 15 0 37 1 47 11-5 1-8 5-8 10 0 7 6 11 12 12 4 5 12 5 17 0 3 4 8 8 13 9Zm-2-85-71-1-20-20V252h91Z"/><use xlink:href="#a" transform="matrix(-1 0 0 1 1200 0)"/><path fill="#e30631" d="M530 437v-86h-10v86Zm9 0h10v-86h-10Zm19 0h10v-86h-10Zm29 0v-86h-10v86Zm33-34c-1 0-2-1 1-1 1 2-1 2-1 1Zm3-2c0-2 2-2 3-2 0 1-1 2-3 2Zm18 29 2-2c-1-1-1-1-1-2 0-4 1-4 1-9 0-2 0-3 2-5-1 2-1 3-1 5 6 0 14-1 16-3-1-1-1-1-3-1 5-2 7 3 9 3s2 2 2 4c0 3 1 5 0 6l-2 2 3 2 1-2c0-6 2-7 2-10 0-1-2-2-2-5v-4c-6 0-6-1-9-1s-3 2-7 2l1-1h-4c1-1 0-2-1-2 1-1 3-3 7-3s5 1 9 1c3 0 5-2 3-4 2 1 3 5-3 5-4 0-12-3-14 1h2l-1 1h3v1c4-4 8-1 12-1s5-3 5-5c0-3-5-5-9-5-7 0-8 1-17 1-5 0-3 2-13 2l-2-1c2 0 1-3 3-4-2-1-3 0-4 1-2-1-6-2-7-1s-2 1-2 2-2 2-3 3c-3 0-1 4 0 4 3 0 5 2 8 2l2 1c0 5 1 4 2 7-3 4 0 4 0 8v1c1 1 1 1 1 2l1 1 2-4-1-1v-1c0-1-2-3 0-4-1-1-1-2-1-4 1 1 0 4 5 4 0-3-1-3-1-5 2 3 2 7 2 9s2 4 0 6l-1 1Zm18-2c0-1 1-1 2-2s2-5 5-6 0-4-1-3-2 2-3 2c-3 2-2 5-3 6s-2 0-3 1Zm-2-10c-1 1 1 2 1 0h2c0 2 2 1 1 0 1 0 3-1 3-2l-3-2c0 1-3 2-6 3 0 0 1 1 2 1Zm-145-77h83v-84h-83Zm108 24c-1 0-2-1 1-1 1 2-1 2-1 1Zm3-2c0-2 2-2 3-2 0 1-1 2-3 2Zm18 29 2-2c-1-1-1-1-1-2 0-4 1-4 1-9 0-2 0-3 2-5-1 2-1 3-1 5 6 0 14-1 16-3-1-1-1-1-3-1 5-2 7 3 9 3s2 2 2 4c0 3 1 5 0 6l-2 2 3 2 1-2c0-6 2-7 2-10 0-1-2-2-2-5v-4c-6 0-6-1-9-1s-3 2-7 2l1-1h-4c1-1 0-2-1-2 1-1 3-3 7-3s5 1 9 1c3 0 5-2 3-4 2 1 3 5-3 5-4 0-12-3-14 1h2l-1 1h3v1c4-4 8-1 12-1s5-3 5-5c0-3-5-5-9-5-7 0-8 1-17 1-5 0-3 2-13 2l-2-1c2 0 1-3 3-4-2-1-3 0-4 1-2-1-6-2-7-1s-2 1-2 2-2 2-3 3c-3 0-1 4 0 4 2 0 5 2 8 2l2 1c0 5 1 4 2 7-3 4 0 4 0 8v1c1 1 1 1 1 2l1 1 2-4-1-1v-1c0-1-2-3 0-4-1-1-1-2-1-4 1 1 0 4 5 4 0-3-1-3-1-5 2 3 2 7 2 9s2 4 0 6l-1 1Zm18-2c0-1 1-1 2-2s2-5 5-6 0-4-1-3-2 2-3 2c-3 2-2 5-3 6s-2 0-3 1Zm-2-10c-1 1 1 2 1 0h2c0 2 2 1 1 0 1 0 3-1 3-2l-3-2c0 1-3 2-6 3 0 0 1 1 2 1Zm-41-39h12v-84h-12Zm24 0h12v-84h-12Zm24 0h12v-84h-12Zm-148-6 52-55c2-2 4-4 5-7h-4l-1-3h5v-2h-5l1-3h5c3-6 17-6 17 5 0 8-8 10-13 7l3-3c3 1 6-1 6-4 0-7-10-7-10 0 0 4-2 9-5 12l-53 56Z"/><path id="b" fill="#b5915f" d="m600 452 2-1V247H502v163c0 7 2 14 6 20 9 12 25 15 39 15 17 0 41-6 53 7Zm-30 63c7 0 12-7 12-13 0-17-34-23-61-23-33 0-56-15-56-37 0-14 9-25 22-25 11 0 17 10 15 17 4-6 2-21-14-21-6 0-13 2-16 5 2-4 13-9 23-5-2-3-6-4-10-4-15 0-28 14-28 31 0 24 24 42 59 42 18 0 43 2 51 13 6 0 9 3 9 7 0 9-13 8-10 0h1c-1 3 0 5 3 5 6 0 7-11-2-11-5 0-9 4-9 9s5 10 11 10Zm9 4c7 0 13-7 13-15 0-9-9-21-29-25v-1c14 2 34 14 30 30 5-1 9-8 3-17-16-24-56-17-75-17-34 0-48-16-48-32 0-8 5-17 13-17 10 0 11 12 5 12 3-3 1-7-2-7-6 0-6 11 4 11 5 0 8-4 8-9 0-8-6-14-14-14-12 0-21 10-21 24 0 22 23 36 55 36 27 0 62 6 62 24 0 8-6 14-12 14 1 2 4 3 8 3ZM469 402c5-9-10-12-11-3 3-2 10-1 11 3Zm2-4c3-8-8-10-10-5 4-2 10 0 10 5Zm129 97 2-3v-37h-2c-14-14-35-8-53-8-16 0-33-4-42-19 0 8-5 15-12 15-14 0-11-18-1-14-1-1-3-2-5-2-5 0-12 5-12 17 0 15 15 28 46 28s65-6 79 23Zm0 29 2-1v-17l-2-2c-1 3-3 5-7 6l-4 6c2 4 7 7 11 8ZM464 414c12 0 28-16 28-36 0-13-6-31-20-31-4 0-8 2-8 7 0 8 13 9 13 1 0-5-6-5-7-1l-1-1c2-6 19-4 19 23 0 22-12 34-22 34-5 0-6-3-5-5 0 3 2 4 4 4 5 0 5-10-3-10-4 0-7 3-7 7 0 5 4 8 9 8Zm4-5c11-3 19-16 19-32 0-8-2-19-9-24 1 2 0 5-1 6 3 4 5 9 5 15 0 9-4 15-9 20 0 1 0 3-1 5 3-2 6-5 8-8-2 5-5 7-8 9 0 1-1 3-2 4 0 1 0 3-2 5Zm33 8v-32c-2 6-5 12-8 15v-1c10-14 10-33-2-44h1l3 3c8-7 7-17 1-23l-4 2v-1c6-3 11-11 8-19-4 4-9 6-15 6-8 0-15-5-17-12h1c2 6 8 11 16 11 10 0 19-7 15-17-3 6-10 9-16 9-3 0-6-1-7-2v-1c1 1 4 2 7 2 10 0 17-7 17-17 0-2-1-6-3-8-2 2-7 3-10 2 4 3 4 17-7 17-5 0-10-5-8-10-8 2-12 11-12 20 0 8 5 16 11 18-2-1-2-7 2-9 12-6 24 13 5 21 17 9 22 43 1 61 5-1 13 0 16 5 1 1 3 2 5 4Zm0-48v-16l-5 6c2 3 3 4 5 10Zm-27-29c-10 0-20-12-20-26 0-15 10-24 20-24 4 0 10 2 10 7 0 4-4 4-5 2v-1c2 2 4 1 4-1 0-5-9-4-9 2 0 8 15 10 15-2 0-20-43-19-43 15 0 37 41 41 41 23 0-11-15-11-15-3 0 6 9 7 9 2 0-2-2-3-4-1v-1c1-2 5-2 5 2 0 3-3 6-8 6Zm3-2c-2 0-4-1-5-2-16-5-17-35 1-41 1-1 4-3 7-2-9-6-25 4-25 21s15 28 22 24Zm118 100c-21-6-34-2-50-2-19 0-33-9-33-25v-60h83Zm-94-98v-12l-4 6Zm0-49v-7l-2 3Zm-10-2c6 0 10-5 10-12 0-22-26-23-23-45-3 0-7 3-7 9 0 12 24 20 24 35 0 7-5 9-7 8v-1c4 0 4-5 1-6s-6 1-6 5c0 5 5 7 8 7Zm21 52v-84h83v84Zm-11-71v-24h38c-8-2-22-8-22-18 0-7 4-9 8-10-4-5-16-3-16 8 0 5 3 9 7 11v1c-7-3-12-14-4-21-11-3-19 12-7 21v1c-8-5-9-15-4-20-15-6-21 17-5 24v1c-8-3-13-12-10-20-5 2-7 6-7 11 0 16 18 21 22 35Zm61-24h21c-3-1-4-5-4-8-4 2-9 6-17 8Zm-12 0c21 0 27-12 35-12 4 0 6 4 3 7h-1c3-6-6-7-6-1 0 3 3 6 7 6 5 0 8-4 8-8 0-5-4-9-10-9-5 0-11 4-16 7 1-2 1-4 1-6 0-8-8-14-8-22 0-5 3-7 6-7 9 0 19 11 31 11l2-1v-6h-2c-10 0-20-11-31-11-9 0-13 9-13 14 0 9 7 14 7 22 0 7-6 11-15 11s-25-6-25-13c0-6 7-4 6-1-1-3-5-2-5 1 0 2 2 4 5 4 4 0 6-3 6-6 0-9-17-10-17 2 0 11 19 18 32 18Zm42 0h10v-21h-2c-8 0-11-7-16-7-3 0-5 3-5 5-1-3 1-7 5-7 6 0 9 7 16 7l2-1v-9h-2c-12 0-23-10-30-10-4 0-5 3-5 6 0 8 10 16 7 25 4-3 10-6 14-6 6 0 11 4 11 10 0 4-2 7-5 8Z"/><use xlink:href="#b" transform="matrix(-1 0 0 1 1200 0)"/><path fill="#6c401f" d="m506.8 458.5 7.6-9.6-2-.5-5.8 7.3-1.5-9.1-2-.5 2.2 12Zm9.4 2.2 2.3-10.9-1.8-.4-2.4 10.9Zm12.1 2.4-3-5.2c4.2 0 4.7-5.7.5-6.6l-3.8-.8-2.1 11 1.9.3 1-4.9 3.3 5.8Zm-3.9-6.8-1.5-.3.7-3.4 1.5.3c2.6.5 1.8 3.9-.7 3.4Zm10.6 7.9 1.5-9.3 3.4.5.3-1.7-8.9-1.4-.2 1.7 3.5.6-1.5 9.3Zm21.8 3.3c2.2.1 4-1.1 4-2.9 0-3.7-5.4-3.6-5.1-5.7.2-1.6 3.5-1.1 4.9.3l.2-1.9c-.4-.3-1.5-1-3.2-1.2-2-.2-3.7.9-3.8 2.6-.2 3.5 5.1 3.8 5.1 5.7 0 .9-1 1.4-2.2 1.3-1.3-.1-2.3-.8-3.5-1.8l-.2 2c.5.4 2.1 1.5 3.8 1.6Zm18.5 1.9h1.5l5.6-10.8-2.1-.1-4.1 8.2-3.3-8.6-2.1-.1Zm17.3.6h1.4l.2-11.1-1.9-.1-.2 7.7-6.1-7.8-1.3-.1-.3 11.2h1.9l.2-7.7Zm5.3 0h1.9l.1-11.1H598Zm8.6 0 1.9-.1-.1-9.4 3.5-.1v-1.7l-9 .2v1.7h3.5Zm6.1-.1 2-.1 1.1-2.7 5.2-.2 1.2 2.6 2.1-.1-5.5-10.9h-1.4Zm3.6-4.5 1.9-4.3 2 4.2Zm17.1 2.8 1.9-.1-.4-4.5 4.2-.4-.2-1.7-4.1.3-.3-3.1 4.5-.4-.1-1.7-6.4.5Zm13.7-1.4a5.7 5.7 0 1 0 0-11.4 5.6 5.6 0 0 0-5.7 5.7c0 3.1 2.5 5.7 5.7 5.7Zm0-1.8a3.8 3.8 0 0 1-3.8-3.9c0-2.2 1.6-3.9 3.8-3.9 2.1 0 3.8 1.7 3.8 3.9 0 2.1-1.7 3.9-3.8 3.9Zm9.3.5 1.9-.3-.7-5 4.9 4.4 2.3-.3-4.5-4.1c3.8-1.3 2.4-6.7-1.9-6.2l-3.6.4Zm1-6.2-.5-3.4 1.6-.2c2.7-.3 2.9 3.1.6 3.4Zm12.1 4.1 1.9-.3-1.6-9.3 3.5-.6-.3-1.7-8.8 1.6.3 1.7 3.4-.6Zm8.3-1.5 1.9-.3-2.2-11-1.8.4Zm9.4-1.9a5.7 5.7 0 1 0 0-11.4 5.6 5.6 0 0 0-5.7 5.7c0 3.1 2.5 5.7 5.7 5.7Zm0-1.8a3.8 3.8 0 0 1-3.8-3.9c0-2.2 1.6-3.9 3.8-3.9 2.1 0 3.8 1.7 3.8 3.9 0 2.1-1.7 3.9-3.8 3.9Zm9.7-.6 1.9-.5-1.4-5 5.5 3.8 2.3-.6-5.1-3.3a3.2 3.2 0 0 0 1.7-4c-.6-1.8-2.5-2.7-4.8-2l-3 .9Zm.3-6.3-.9-3.3 1.5-.4c2.7-.6 3 2.9 1.1 3.3ZM546.5 466l6.5-10.3-2-.2-4.9 7.8-2.4-8.9-2-.3 3.2 11.7Z"/><path fill="#faf6f5" d="M539 336c7 0 11-7 11-14h5c0 7 4 14 11 14 11 0 13-17 18-17 3 0 4 5-2 8l2 4c9-3 10-17 0-17-9 0-10 17-18 17-4 0-6-4-6-8l6 1 12-33-26-32-25 32 12 33 6-1c0 4-2 8-6 8-8 0-9-17-18-17-10 0-9 14 0 17l2-4c-6-3-5-8-2-8 5 0 7 17 18 17Z"/><path fill="#fcd80e" d="m542 319-9-28 17-22v49Zm21 0-8-1v-49l17 22Z"/><path fill="#0859b9" d="M633 428c3-2 2-3 2-5-1 0-2 1-3 3 0 0 1 1 1 2Zm3 2c2 1 3 0 5 0v-1c-1-1-2-1-3-1s-1 1-2 2Zm-12-16c0 1 2 1 2 0s-2-1-2 0Zm4-1c-1-2 0-3 0-4l-2-1c-1 1-1 2-3 3 0 1 4 2 5 2Zm1-5c2-1 4-4 5-7l-2-1c-1 3-2 5-5 7Zm-6-11 2-1c-3-1-1-6-4-6 1 1-1 7 2 7Zm33 31h3c-1-2-2-2-3-2s-1 1-2 1c0 1 1 1 2 1Zm-26-31c3-3-2-5 0-7-4 2 0 4-2 6-1 1 1 2 2 1Zm34 33c2 1 3 0 5 0v-1c-1-1-2-1-3-1s-1 1-2 2Zm-31-40c3-2 2-3 2-5-1 0-2 1-3 3 0 0 1 1 1 2Zm3 2c2 1 3 0 5 0v-1c-1-1-2-1-3-1s-1 1-2 2Zm-12-16c0 1 2 1 2 0s-2-1-2 0Zm4-1c-1-2 0-3 0-4l-2-1c-1 1-1 2-3 3 0 1 4 2 5 2Zm1-5c2-1 4-4 5-7l-2-1c-1 3-2 5-5 7Zm-6-11 2-1c-3-1-1-6-4-6 1 1-1 7 2 7Zm33 31h3c-1-2-2-2-3-2s-1 1-2 1c0 1 1 1 2 1Zm-26-31c3-3-2-5 0-7-4 2 0 4-2 6-1 1 1 2 2 1Zm34 33c2 1 3 0 5 0v-1c-1-1-2-1-3-1s-1 1-2 2Z"/></svg>