<svg xmlns="http://www.w3.org/2000/svg" xmlns:xlink="http://www.w3.org/1999/xlink" width="1000" height="700"><style>.B{stroke-linecap:round}.C{fill:none}.D{stroke-width:.987}.E{stroke-width:.513}.F{fill:#fcd80e}.G{fill:#e30631}.H{stroke:#6c401f}.I{fill:#fcd80e}.J{fill:#b5915f}.K{stroke-width:1.041}.L{stroke-width:1.037}.M{stroke-width:1.356}</style><path fill="#e30631" d="M0 0h1000v700H0V0z"/><path d="M0 0h680v700H0V0z" class="F"/><path fill="#012778" d="M0 0h320v700H0V0z"/><path d="M469.4 188.5c12 0 17 10.3 29 10.3 7.4 0 11.8-2.4 18.3-6 4.5-2.6 7.4-4 12.6-4 5.3 0 8.5 1.6 11.3 6.2 1.5 2.6 2.8 7.6 2.1 10.5a62.5 62.5 0 0 1-4.3 13c-1 2.4-2 3.8-2 6.5 0 6.4 8.7 8.6 14.6 8.7 1.3 0 12.2.2 18.9-6.6-3.7-.1-7.7-3-7.7-6.5 0-4.1 2.9-7 6.8-8.1.7-.2 2 .4 2.6 0 1-.4.5-1.5 1.4-2.2 2-1.5 3.2-2.5 5.7-2.5a5.7 5.7 0 0 1 3.9 1.2c.7.5 1 1 1.8 1 1.8 0 2.6-1 4.4-1a6.9 6.9 0 0 1 3.6.8c1 .6 1 2.4 2.3 2.4.6 0 3.7-1.3 5.4-1.3 3.5 0 5.3 1.2 7.5 3.8.6.7 1 2.2 1.6 2.2a9.7 9.7 0 0 1 5.8 2.5 9.9 9.9 0 0 1 1.7 2c.4.7 1 2.3 1.8 2.6.9.2 1.8.5 2.6 1a9.3 9.3 0 0 1 4.4 7.6 15.9 15.9 0 0 1-.7 3.3c-3 10.3-10 13.5-17 22.4-3 3.7-5.4 6.7-5.4 11.6 0 1.1 1.4 3.3 2 4.2-.3-2.2.7-5 3-5.2a6 6 0 0 1 6.3 5.6 7 7 0 0 1-.5 2.9 15 15 0 0 1 6.2-2.2 19.4 19.4 0 0 1 3-.2c5.3.2 11 3.1 14.6 6.1a32.9 32.9 0 0 1 11.4 26.2c-1.3 8.2-.5 23.2-21.5 29.1 3.9 1.7 6.5 4.6 6.5 8.2a7.1 7.1 0 0 1-7 7.3 6.8 6.8 0 0 1-5.3-2.1c-4.4 4.3-5.2 8.8-5.2 15a19.3 19.3 0 0 0 2.3 9.3c1.6 3.5 2.8 5.6 5.7 8.2 1.6-2.4 3.3-4.1 6.1-4.1s5.1.8 6.2 3.4c.4.7 0 1.3.5 2 .5 1 1.3 1.2 1.8 2.2.8 1.5 0 2.7.7 4.2.5 1 1.4 1.2 1.9 2.2a9.2 9.2 0 0 1 .8 4.2c0 4.7-4.3 8-9 8-1.4 0-2.2-.5-3.6-.4 2.7 2.7 4.8 3.9 6.8 7.1a27.7 27.7 0 0 1 4.5 16.1c0 7-1 11.3-4.2 17.5-3 6-5.6 9.4-11 13.3a54.5 54.5 0 0 1-25 10 116.2 116.2 0 0 1-17.2 2.2l-22 1.1c-11.3.8-19 2.4-27 10.3 3.8 2.8 6.3 5.5 6.3 10.1 0 4.8-2.9 8.2-7.4 9.7-1.1.4-1.9 0-2.9.6-1.2.6-1.1 2-2.2 2.7a9.7 9.7 0 0 1-6 1.5c-4.2 0-7-1-10-4-3.5 3-4.6 5.5-8.5 7.7-1.3.7-2 1.7-3.4 1.7-2.3 0-3.4-1.5-5.2-2.8a35.9 35.9 0 0 1-7-6.4c-3.5 2.1-5.6 3.8-9.7 3.8a10.2 10.2 0 0 1-6.2-1.7c-1.1-.7-1.3-1.7-2.4-2.4-1.2-.7-2.2-.4-3.4-1-4.7-2-7.8-5.5-7.8-10.6 0-4.5 2.9-7.4 7-9.3-7.9-7.8-15.6-9.2-26.6-9.9l-22-1.1a154.2 154.2 0 0 1-17.2-2.3c-5-.8-8-1-12.7-3.2-16-7.5-26.2-17.7-28.3-35.2a28.5 28.5 0 0 1-.1-4c0-9 3.6-14.6 10-21-1.6-.4-2.8.1-4.4-.5-4-1.4-6.9-4.2-6.9-8.5a7.2 7.2 0 0 1 .9-4c.5-1 1.5-1.2 1.8-2.3.3-1.5-.1-2.5.6-3.8.4-1 1.2-1.1 1.7-2 1.3-2.9 3.1-5.2 6.3-5.2 2.8 0 4.5 1.4 6 3.8 2.6-1.3 3.4-3.3 4.9-5.8 2.5-4.2 3.7-7.2 3.7-12.1a23.9 23.9 0 0 0-1.4-8.7c-.8-2.3-1.1-4-2.9-5.6a6.8 6.8 0 0 1-5.3 2 8.1 8.1 0 0 1-8-8.3 7.5 7.5 0 0 1 4.7-7.2c-2.4-2-4.5-2.2-7.2-4-4-2.5-5.5-5.2-8.2-9.3-1.7-2.6-2.2-4.4-3.1-7.5a29.4 29.4 0 0 1-1.7-9.6 17.5 17.5 0 0 1 .1-2.5c1-7.7 2.4-12.5 7.2-18.5 3-3.6 4.9-5.8 9-7.7 3.7-1.5 5.9-2.7 9.8-2.7a21.7 21.7 0 0 1 3 .2c1.6 0 3.1.5 4.5 1.3.6.3 1.7 1.3 1.7.6 0-.8-.4-1.2-.4-2 0-3.3 2.3-6.3 5.6-6.3 2.3 0 3.3 2.1 4.4 4.1a6 6 0 0 0 1.2-3.5c0-5.4-2.9-8.1-6.2-12.3-7.3-9.1-16.4-13.4-16.4-25 0-3.5 1.6-5.9 4.6-7.7.9-.5 2 0 2.9-.5.7-.5.6-1.4 1.1-2.1a10.4 10.4 0 0 1 2.4-2.6c1.6-1.4 3.1-1 5-2.2.9-.7 1-1.5 1.8-2.4 2-2.4 3.9-3.6 7.1-3.6a9.3 9.3 0 0 1 4 .6c.6.2 1.5 1 1.6.8a7.3 7.3 0 0 1 2.3-1.8 6.4 6.4 0 0 1 3.4-1c1.7 0 2.9 1 4.6 1 .6 0 .8-.6 1.3-1 1.5-1 2.4-1.6 4.3-1.6a7.2 7.2 0 0 1 4.3 1.6c1.4 1 1.7 2.1 3.1 3 .8.4 1.5.2 2.4.5 4 1.4 7 4 7 8.3a6.5 6.5 0 0 1-2.2 5.4c-1.3 1.2-2.6 1-4.4 1.6a25 25 0 0 0 17.7 5.6c6.6 0 14.6-2.7 14.6-9.3 0-3-1.7-4.7-2.9-7.5-2.1-5-3.3-8-3.3-13.4 0-4.3.5-6.9 3-10.4 2.6-3.6 5.7-4.4 10.2-4.4z" class="J"/><g class="C H"><path stroke-linejoin="round" d="M425.6 223.5a5.6 5.6 0 0 0 3.8 3.8 5.9 5.9 0 0 0 6-2.2 7 7 0 0 0 .8-6.3 7.3 7.3 0 0 0-2.7-3.5l-8 8v.2z" class="K"/><path d="M626.6 344c-1.9-4.6-6.7-2.5-7 0-.7 5.7 4.4 7.4 8 6.5a6.2 6.2 0 0 0 3.8-3 7.5 7.5 0 0 0 .6-5.9 8.4 8.4 0 0 0-3.3-4.5c-1.4-.8-2.8-1-5.2-1-8.7 0-16.3 10.4-18.9 21a46 46 0 0 0-.4 18.9 35 35 0 0 0 9.2 17.6 39.2 39.2 0 0 0 9 6.4 38.8 38.8 0 0 0 6.5 2.7 12.4 12.4 0 0 0 6.1.1c5.2-1.1 7.6-5.9 5-10.8-2.1-4-8.4-6.2-11.4-1.1a5.1 5.1 0 0 0-.6 2.4 4.7 4.7 0 0 0 1.6 3.6c2.2 1.5 5.8 1 5.6-2.9" class="B L"/><path stroke-width="1.276" d="M599.7 403a17.7 17.7 0 0 1 10.3-5.6 21 21 0 0 1 12.9 3 29 29 0 0 1 15.5 17.6 27 27 0 0 1 1.3 9 39.3 39.3 0 0 1-3 14.7c-1.4 2.6-4.9 14-24 21.9-11.2 4.6-28.3 5.6-40.1 6.1-16.3.7-31.3 1.3-40 12"/><g stroke-width="1.121"><path d="M603.8 421.4c-.5-1.7 0-3.3 1.3-5.2 1.8-2.4 5.6-3.3 9.1-1.4a11.6 11.6 0 0 1 4 3.3l1.8 2.5a19.3 19.3 0 0 1 1.7 3.9c3.8 11-2.3 22.8-10.3 27.5a56 56 0 0 1-22.4 6.4c-4 .4-6.3.4-10.3.6-3.2.2-6 .1-8.6 0h-6.3a110.5 110.5 0 0 0-11.3.2c-4.5.3-8 .4-11.8 1-2.5.5-5.5.9-8.5 1.6-1 .2-2 .3-2.9.6l-1.8.6a62.3 62.3 0 0 0-15.3 6.5 27.3 27.3 0 0 0-3.9 2.7l-2 2c-3 2.9-6.1 6-6.9 10.4a15.5 15.5 0 0 0 0 2.5c0 2.8 2.2 6.6 8.3 7.8m8.7-265.8c1.3 2.3 2 3.7 1.2 6.2-.8 2.7-2.8 4.3-5.5 4.3-6.2 0-9.9-7.4-7-12 4.9-8.4 14.5-3.7 23.3.4-.4-2.1-1.2-2.8-1-5.4.1-6.6 5-9.6 7-15.6 1-3.7 1.5-6.8-1-9.4-2.4-2.2-5-2.2-8-1-6.1 2.4-13.3 9.2-26 9.3-12.8-.1-20-7-26-9.3-3.1-1.2-5.8-1.2-8 1-2.7 2.6-2.3 5.7-1.1 9.4 2 6 6.8 9 7 15.6 0 2.6-.7 3.3-1.1 5.4 8.9-4 18.8-9.2 23.4-.4 2.6 4.8-.9 12-7 12-2.8 0-4.7-1.7-5.6-4.3a6.7 6.7 0 0 1 1.3-6.2"/><path d="M491.5 224.8c2.4 1.8 4.1 4 3.8 7.8-.3 4-1.3 5-4.4 7m3.8-5.9a5.1 5.1 0 0 1-3.6 5" class="B"/></g></g><path d="m432.4 214.5 1 .8 1.3 1.2.7 1.6.4 1.3.1 1.7v1.2l-.5 1.3-.7 1-1 1-1.3.6-1.7.4-1.5.3-1.5-.7-1.4-1-.9-1.3-.6-1.6v-.6l7.6-7.2z" class="J"/><g class="C H"><path d="M430 220.6c-.5-2.6-3.5-3.1-4.7-1.6-1.8 2.3-.4 6.2 3.2 7.4a5.9 5.9 0 0 0 6-2.2 6.8 6.8 0 0 0-1.6-9.4l-.3-.2c-4.2-3.3-11-2.5-13.3 3-3 7 3.4 12.2 9.2 16.2a38 38 0 0 0 22 5.8c14.3-.2 25.2-7 32.3-10.9 1.6-.9 3.3-.7 4.2.3a3.1 3.1 0 0 1-.4 4.3" class="B K"/><path stroke-width="1.057" d="m387.6 414.4-3.2 1.1-3.3 2.5-1.4 2-1.7 3-.8 2.4-.6 2.9-.4 2.1m29.8-15.7-.3 2.8-.4 1.9-1.4 3.3-2.2 3-2.4 1.8-1.7.8-2.4.6"/><path stroke-width="1.197" d="M499.6 489.2c-.6 2.6-3 5.6-8.3 6.6l-1 .3"/><path d="M631.6 406.6a28.5 28.5 0 0 1 7.5 12 26.9 26.9 0 0 1 1.3 9.1 39.3 39.3 0 0 1-3.1 14.7c-1.3 2.6-4.8 14-24 21.9-11.1 4.6-28.3 5.6-40 6-16.1.7-30.9 1.3-39.7 11.6" class="M"/><path stroke-width=".929" d="M605.5 417c1.1-1.7 5.5-3.7 9-1.8a9.7 9.7 0 0 1 3.7 3.3"/><path d="m627.5 402.8 2.3.8c2 .6 4 .6 6.1.1 4.4-1.3 7.3-5.5 5-10.8a8.9 8.9 0 0 0-2.7-3.4" class="M"/><path d="M375.4 287.1c-3 1.9-5.1 2.3-7.5 5a44 44 0 0 0-4 10.6m72-80.7c0 2.6-2 4.3-4.7 5" class="B K"/><path stroke-width=".997" d="M620.5 275c7.4-.1 28.8 5.7 29 31 .2 24.8-15.4 28.9-21.6 30.6"/><path d="M622.4 275c12.8-.5 26 8.9 26.5 32.3a27.7 27.7 0 0 1-18.7 28.2" class="L"/><path stroke-width=".881" d="m615.3 363.2.2-2.5.9-4 1.1-3.1 1.4-2.6 1.7-2m12.1-5.3-.2 2.4-.7 1.7-1 1.6-1.3 1-1.9.6-1.7.1-1.2-.2m-22.4-82.5.6-2.6 1.1-2.5 1.6-2.4 2.6-3.4 2-2.3 3.4-3.3 2.8-3 1.9-2 2.4-3 2.1-3.2 1.3-2.6.7-3.5.2-4.2-.4-1.2m-19.2 200.2 2.6-.5 1.9-1 1-1 .8-1.2.5-2v-1.3m-247.3-19 2 .1 2.3-.2 2.4-.8m7.8-57.1-.3 2.2-.5 1-.7.9-1 .7-1.2.5-1.4.3h-1m15.4-24.4-.5 3.4-.7 1.5-1.3 1.9-1.9 1.4-1.8 1-3.6.8m23.9-62.1-.7 2-.9 1.5-1.2 1.6-1.6 1.5-2 1-1.6.3h-1m.6-9.8v1.6"/><g class="D"><path d="M397.3 325a10.7 10.7 0 0 1-3.2 2.1m235.1 70 .8.4c2.2 1.3 6.6-.4 5.3-3.8" class="B"/><path d="M621.5 349.4c1.6 2 4.6 2.6 7 2a6.2 6.2 0 0 0 3.8-3 7.5 7.5 0 0 0 .6-5.9 7.7 7.7 0 0 0-1.3-2.6 10.6 10.6 0 0 0-2.1-2.2l-.5-.4m10 53.2a6.2 6.2 0 0 0-2-5.8 7.4 7.4 0 0 0-1.3-1.2m.8.8c-.1-3-2.5-5-5.4-5.6m-6.6 4.5a20.7 20.7 0 0 1-2-1.7 24.6 24.6 0 0 1-6.7-16.7c0-6.5 2.5-13 5.6-15.6M533 481.4l2.8-2.5 2-1.5 3.6-2.3 3.4-1.6 2.4-.6 4.8-1.1 5.6-.9m-46 30.3c-2.1 3.1-7 7.8-12 9.6-5-1.8-9.9-6.5-11.9-9.6"/><path d="M491.3 494.7a15.5 15.5 0 0 1-3.5 6.5" class="B"/><path d="m491.8 491.5-.7 3.4m-3.7 6.5L486 503l-2.7 1.5-3 1m-8.8-278a9.8 9.8 0 0 0 .7-4c-.2-6.5-5-9.5-7-15.6-1.2-3.6-1.7-6.7 1-9.3 2.3-2.2 5-2.2 8-1 6 2.3 13.3 9.1 26 9.3-12.7-.2-20-7-26-9.3-3-1.2-6-1.5-8.3.7-2.6 2.6-1.9 6-.7 9.6 2 6 6.5 9 6.7 15.6a9.6 9.6 0 0 1-.8 4m29-21c12.6-.7 23.3-9.1 26.8-9.8 3-.6 4.8-.3 7 1.7-2.2-2-4.8-2-7.7-.8-6 2.3-13.3 9.1-26 9.3m124.4 176.4a24.3 24.3 0 0 1-9.7-19.3c0-6.4 2.5-13 5.6-15.6M511.2 500.8c-2 3-6.9 7.7-12 9.6-5-1.9-9.8-6.5-11.8-9.6"/><path d="m479.2 230.7 3.6-2c1.6-.9 3.6-.7 4.5.3a3.3 3.3 0 0 1-.2 4.5" class="B"/><path d="M460.5 239.5a72.7 72.7 0 0 0 20.9-8.6m50.4 256.5a4.2 4.2 0 0 1 1.1 1.5 7 7 0 0 1 .6 1.3 3.4 3.4 0 0 1-2.6 4 3.4 3.4 0 0 1-.5.1 5.3 5.3 0 0 1-5.5-3.1M460 239a72.7 72.7 0 0 0 21-8.6m152.4 167c-1.7.6-2.5.5-4.6-.4-.8-.3-1.8-1-2.9-1.5-4-2.3-8.7-5.9-13.1-14.2a29.4 29.4 0 0 1-2.7-7 25.9 25.9 0 0 1-.8-5.2 40.1 40.1 0 0 1 1-9.7 31.6 31.6 0 0 1 6.4-14.2c1.8-2.4 3.3-4 6.7-4m-224.6-61.4a11.1 11.1 0 0 1 4.1 9c0 4.8-4 12.7-14 15.5a13 13 0 0 1-9.8-1.2m21.4-7a5.4 5.4 0 0 1 2.4 5.1c0 1.7-1 3.9-2.9 6a19.3 19.3 0 0 1-13.7 6.2 16 16 0 0 1-9.4-2.8 14.2 14.2 0 0 1-6-8.4"/><path d="M400.3 306.7c2 1.9 2.6 4.2 2.6 7.1 0 4.3-1.7 7.6-5.7 11.1a19.7 19.7 0 0 1-3 2.2m202.2-34.5v5.5m-.4-6.8v7.7m.4-24.6v10.2m-.4-12.4v14m-3 128a29.2 29.2 0 0 1-6.5 8.8 30.7 30.7 0 0 1-9.1 6.4 38.4 38.4 0 0 1-10.3 3.4 52.5 52.5 0 0 1-10.7 1.4 73.8 73.8 0 0 1-10-.3c-4-.3-6.4-.9-10.5-1.2a83 83 0 0 0-8.7-.6 44.8 44.8 0 0 0-9 .7 34.4 34.4 0 0 0-8 2.2c-4.3 1.7-9 4.7-10 6-1-1.3-5.8-4.3-10-6a34.4 34.4 0 0 0-8-2.2 44.8 44.8 0 0 0-9-.7 82.8 82.8 0 0 0-8.8.6c-4.1.3-6.4 1-10.5 1.2a74.2 74.2 0 0 1-10 .3 52.2 52.2 0 0 1-10.7-1.4 38.7 38.7 0 0 1-10.2-3.4 30.6 30.6 0 0 1-9.1-6.4l-1-1m65.9 83.5 2.8-.4m47.3-3.7 2.8-.2 2.7-1.1 1.9-1.1 2.6-3 .5-1.2.4-2.6.1-1.3m73.3-213.5c1.2-4.2-.2-8.5-4.2-8.4m-206.2 72.8a12.8 12.8 0 0 1-5.6 7.2m5.7-73a10.2 10.2 0 0 1-5.8 6.3c-2.8 1.3-6.2.1-8-1.3"/><path d="M381 291.2c2.3 1.3 4.8-.6 4.3-3.7a4.5 4.5 0 0 0-4-3.4" class="B"/><path d="M390.9 422.9c.5.4.6 1 1.3 1.2 1 .2 1.9.6 3-.8 1.2-1.7.5-4.4-.8-6.1a7.7 7.7 0 0 0-9.2-1.5 11.6 11.6 0 0 0-4 3.3l-1.7 2.5a19.4 19.4 0 0 0-1.7 3.9 24 24 0 0 0 6.5 24.5"/><path d="M531.6 487.2a9.2 9.2 0 0 1 1 1.3 6.2 6.2 0 0 1 .4 1.3 3.4 3.4 0 0 1-3 4 5 5 0 0 1-5.3-3" class="B"/><path d="M608.5 216.8a11.6 11.6 0 0 1 9.8 11c0 7-2.3 9.5-6 14.4-3.9 5.3-16.6 15-16.6 26 0 6.8 1.8 11 6.7 13.2 3 1.4 6.7 0 8.4-1.6 4-3.6 2.4-10-1.8-10.8-5.2-1-6.1 7.1-1.1 6.6m27.8 108a5.7 5.7 0 0 0-11.3.9 6 6 0 0 0 1.6 4M599.8 280a11.1 11.1 0 0 0-4.1 9c0 4.8 4 12.7 14 15.5 3.8 1 7.4 1 9.7-.4m-243.8-16.2a14.6 14.6 0 0 0-7.5 5.4c-1.9 2.6-3 6.3-3.6 9.5a31 31 0 0 0 .2 10.4 24.6 24.6 0 0 0 3.6 8.8 12.4 12.4 0 0 0 1.6 2 17.4 17.4 0 0 0 1.8 1.3m100 143.8c7.6 3.4 13.2 5.9 17.9 13.3a15.5 15.5 0 0 1 1.8 7.6 15.9 15.9 0 0 1-5.2 12 13 13 0 0 1-10.4 3.1c-3-.3-5.8-2.5-6.3-4m-72.6-175.8c4.3 3.3 6 6.6 6 11.7a13 13 0 0 1-6.2 11.7"/><path d="M393 344.4c6.4 8 9.7 12.6 10 22 .1 9-2.7 15-8 21.4" class="B"/><path d="M515.2 239.6a6.4 6.4 0 0 0 2.5-3.5c.8-2.3.8-4.3-.4-6.1 1.5 2 1.6 3.7 1.2 6.1-.3 1.6-1.3 2.4-2.5 3.5m80.4 134.6v25.3a38.5 38.5 0 0 1-.1 3.9l-.5 2.7"/><path d="M596 371.8V399a38 38 0 0 1-.2 4l-.7 4m.9-67v22.6m.4-20.9v18.5m0-42v13.9m-.4-15.5v17m.4-29.5v5.4m-.4-6.5v7.8m-3 101.9-.4 1a29.2 29.2 0 0 1-6.6 8.9 30.7 30.7 0 0 1-9 6.4 38.4 38.4 0 0 1-10.3 3.4 52.3 52.3 0 0 1-10.8 1.3c-3.3.2-6.6 0-9.9-.2-4.1-.3-6.4-.9-10.5-1.3a83.2 83.2 0 0 0-8.8-.5 44.8 44.8 0 0 0-9 .6 34.4 34.4 0 0 0-8 2.3c-4.2 1.7-9 4.6-10 6-1-1.4-5.7-4.3-10-6a34.4 34.4 0 0 0-8-2.3 44.7 44.7 0 0 0-9-.6 82.7 82.7 0 0 0-8.7.5c-4.2.4-6.5 1-10.6 1.3a74.2 74.2 0 0 1-9.9.2 52.2 52.2 0 0 1-10.7-1.3 38.7 38.7 0 0 1-10.3-3.4 30.6 30.6 0 0 1-9-6.4 34.2 34.2 0 0 1-4-4.4m-3-5a15.8 15.8 0 0 1-3.6 12c-1.3 1.5-4.2 4.2-7.8 4.2-5.9 0-7.7-4-8-5m12.3-13.7a16 16 0 0 1 2.9 4c1.5 2.8 1 7.4-.2 9.6a6.9 6.9 0 0 1-.4.8M370 453.2c3.6 3.7 8.9 7.7 17 11 11.2 4.6 28.3 5.7 40.1 6.2 15.8.6 30.2 1.2 39 11m27.2-6.4c2.6 2.6 5.2 5.3 6.4 8.8m-11.5 17.9a13.7 13.7 0 0 1-11.5 4.2 9.7 9.7 0 0 1-6.7-4m-8.4-4.5a9.8 9.8 0 0 0 .5.5 11.9 11.9 0 0 0 8 3.9m42-.2c-2 3.2-6.9 7.8-12 9.7-5-1.9-9.8-6.5-11.8-9.7l-.5-.7m24.3.7a12.8 12.8 0 0 0 1.2 1.1 13 13 0 0 0 10.4 3.2 8.5 8.5 0 0 0 6.4-4l.7-1.2"/><path d="m529.8 501-1.2 1.9-1.8 1.4-2.6 1.1-2.5.1"/><path d="M536 483.2a12 12 0 0 1 3.6 4.6 10.8 10.8 0 0 1 .8 3.7 9.2 9.2 0 0 1-2.2 6.4 11.7 11.7 0 0 1-8.4 3.9h-.8m.3-.5a10.7 10.7 0 0 1-8-3.3m99.4-106a37.1 37.1 0 0 1-7.5-10.1 29.4 29.4 0 0 1-2.7-7 25.9 25.9 0 0 1-.7-5.2 40.1 40.1 0 0 1 1-9.8 32.6 32.6 0 0 1 6.3-14.1 17.2 17.2 0 0 1 3.3-3.5m-2.2-118.5c4 .3 7.6 4.6 7.6 8.8 0 6-2.1 8.6-6.9 14.5-4.1 5.2-16.5 14.2-16.2 22.8a8.5 8.5 0 0 0 1.8 4.4m-5 5.4a10.8 10.8 0 0 0 3.3 2.2 7.8 7.8 0 0 0 6.7-.5M576.4 214a9.4 9.4 0 0 1 3.4 4c2.9 7-3.4 12.3-9.3 16.3a33.4 33.4 0 0 1-13 5.1m12.2-11.9a6.5 6.5 0 0 1-5-2.3 5.2 5.2 0 0 1-1-1.6m-23.3 7.7a7.2 7.2 0 0 1-2-1.5 6.4 6.4 0 0 1-1.3-6.9c1-3 5.8-11.2 6-17 .4-8.8-3-14-8.3-16"/><path d="m542.7 203.8-.2 3.4-1 3.3-1.6 4.6-1.4 3-1.3 3-.7 2-.3 1.5.2 1.5m59.4 197.3a4.8 4.8 0 0 0 1 1.3c1 1.7 4.9 4.7 8.5 4.7 5.9 0 7.3-4 7.4-5 .8-4.5-.8-5.7-3-7a5.3 5.3 0 0 0-3-.4" class="B"/><path d="M370.2 403.7c-1.8.5-3.8.5-5.7 0-4.4-1.3-8-5.6-6.2-10.8m21-49.7a2.8 2.8 0 0 1 .6 1.6c.6 5.8-4.4 7.4-8 6.5a8.8 8.8 0 0 1-4.7-3.6 7.4 7.4 0 0 1-1-3.6m34.5-37a7.5 7.5 0 0 1 2 2.8m-1.8-13.3a6 6 0 0 1 1.8 2"/><path d="M403 304a13.2 13.2 0 0 1-2.5 3.7 19.3 19.3 0 0 1-13.7 6.2 16 16 0 0 1-9.5-2.7 14.9 14.9 0 0 1-6.3-8.7" class="B"/><path d="M399.1 280.1a12.1 12.1 0 0 1 3.7 5.3"/><path d="M402.9 292.6a18.4 18.4 0 0 1-13.5 12.2c-3.8 1-8.7-.2-10.4-1.7" class="B"/><path d="M375 291.5c.5 4.1 3.2 7.2 8.5 7.3 7.3.1 11.8-10.6 5.2-18.1"/><path d="M358.5 327.4a25.4 25.4 0 0 0 3.6 3.6 26.2 26.2 0 0 0 9.3 5.2m8.3.8c6.5-.8 10.2-5.7 9.5-11.5-.6-4.3-4.6-7.7-7.3-7.9" class="B"/><path d="M390.4 269a4.5 4.5 0 0 1 4.4 4.4v.2"/><path d="M389.7 229.8a18 18 0 0 0 7.9 9.1m225.3 48.4c2.6 3.7.9 11-6.4 11a8.1 8.1 0 0 1-7-3.9" class="B"/><path d="M596.4 239.3v24.6"/><path d="M380.9 291.1c2.2 1.7 5.1-1 4-4-.8-2-3.6-4.1-7.5-1.5-4.2 3-3 12.2 5.2 12.3 7.3.1 11.8-10.6 5.3-18-6.3-7.3-17.8-5.6-25.2.3a33.4 33.4 0 0 0-11 18.2 34.3 34.3 0 0 0-1 8 35.4 35.4 0 0 0 5.6 18.2 18.2 18.2 0 0 0 2 2.5 39.1 39.1 0 0 0 3 3c4.2 3.6 9.6 6.3 16.3 6 7.3-.2 11.5-5.4 10.7-11.4-.7-6-6.7-8.8-10.5-6.1-2.7 1.9-3.6 7.6 1 9 2.7.8 5-2.6 3.2-4.5m202.4-112.4c4.2-2.3 7.5-1.9 9.9 1.5a15.5 15.5 0 0 1 2.4 11.2c-.9 4.2-2 6-5.4 9m3.3-19.8c4.8-3.2 10-1.9 12.9 2.4 2 3 2.6 5.7 2.5 9.5a17.6 17.6 0 0 1-9 14.4" class="B"/><path d="M617.3 223.7a8 8 0 0 1 7.1 8c0 6-1.6 8.6-6.4 14.6-4.1 5.1-16.5 14.1-16.2 22.8.1 3.2 2.9 6.3 5.3 6.5"/><path d="M617.8 291.1c-2.3 1.7-5.2-1-4-3.8 1-1.9 3.5-4.3 7.4-1.7 4.3 3 3 12.2-5.2 12.3-7.3.2-12.3-10.3-5.2-18 6.4-7.2 18.3-5.8 25.7.1 3.2 2.6 9.6 9.5 11 18.6 1.6 11 1.4 24.6-10 33a27 27 0 0 1-16.5 4.6c-7.3-.4-11.5-5.5-10.7-11.5.7-6 6.4-8.4 10.6-6.1 4.3 2.4 3.5 8.5-1.1 9-2.8.3-5-2.6-3.1-4.5" class="B"/><path d="M613.9 287.3c1.2-5.4 5.8-6 9.6-5.9 10.3.2 17.4 12.4 17.6 24.2.1 15-6.4 23.7-17.3 24.2-2.8.1-7.7-1.2-7.8-4.7"/><path stroke-linecap="square" d="M620.2 284.9c10.9 2.4 14.7 12.2 14.7 21.5 0 7.6-.8 18-15.6 21.7"/><path d="M638.1 389.6a6.1 6.1 0 1 0-9.8 3.6"/><g class="B"><path d="M616.3 380.3a25.8 25.8 0 0 0 9.8 9.3m-2 16.4c-5.1-3.3-14.8-7.7-23.6-3.4a12.2 12.2 0 0 0-6.7 6.9 15.5 15.5 0 0 0 2.8 15c1.3 1.3 4.2 4 7.8 4 5.9.1 7.3-4 7.4-5 .7-4.2-1.8-6-3-6.4-1-.4-4.4-.3-5 2a4.2 4.2 0 0 0 .3 3.2"/><path d="M532 488.2c1.6 3.3-.2 5-2.5 5.2-3.3.4-5.1-2.2-5.4-4.6a6.9 6.9 0 0 1 6.4-7.4h.5a8.7 8.7 0 0 1 7.7 5.5 10.8 10.8 0 0 1 .8 3.7 9.1 9.1 0 0 1-2.2 6.4 11.7 11.7 0 0 1-8.4 4c-6.6.2-11.8-6-11.8-12.3 0-12 18-18.6 25-20.3 8.7-2 14-2.9 28-3.6 5.6-.4 9.7-.2 15.8-.8a94.3 94.3 0 0 0 14.1-2.2 42.6 42.6 0 0 0 19.6-10 26.7 26.7 0 0 0 7.3-34.5 22.4 22.4 0 0 0-16.2-10.5c-5.8-.9-10.9 1.6-14 7.4-1.4 2.8-1 7.5.2 9.7a9.4 9.4 0 0 0 7.5 4.6c5.9.1 7.3-4 7.4-5 .7-4.2-1.8-6-3-6.4-1-.4-4.4-.3-5 2a4.2 4.2 0 0 0 .3 3.2M526.9 469c-7.6 3.4-13.1 5.9-17.8 13.3a15.5 15.5 0 0 0-2 7.6 15.9 15.9 0 0 0 5.3 12 13 13 0 0 0 10.4 3.1c3-.3 5.9-2.5 6.3-4"/></g><path d="M601.7 325.2c-3.5 1.2-6 6.6-6 11.7a13 13 0 0 0 6.2 11.7"/><path d="M605.6 344.4c-6.4 8-9.7 12.6-10 22-.1 9 2.7 15 8 21.4" class="B"/><path d="m571.6 212.6.6-.8c2.6-4 7.3-5 10.7-2.4 4.1 3.1 5.2 8.4 4 14a13.6 13.6 0 0 1-6.3 8.6"/><path d="M414.2 210.7c-4-1.9-7.4-1.5-9.9 1.5-2.8 3.4-3 8.4-2.4 11.2.9 4.2 2.1 6 5.4 9" class="B"/><path d="M404 212.6c-4.8-3.2-10-1.9-12.9 2.4a14.2 14.2 0 0 0-2.5 9.5 17.6 17.6 0 0 0 9 14.4"/><path d="M390.1 216.8a10.7 10.7 0 0 0-9.4 10.4c0 7 1.7 9.8 5.6 15 4 5.3 16.6 15 16.6 26 0 6.8-1.8 11-6.6 13.2-3.1 1.4-6.8 0-8.4-1.6-4-3.6-2.5-10 1.8-10.8 5-1 6 7.1 1 6.6m-9.4-52c-4 .4-7.8 3.8-7.8 8 0 6 2.3 8.7 7.1 14.7 4.2 5.1 15.8 14 15.5 22.6-.1 3.3-2.3 7.2-4.5 6.8"/><path d="M372 344c1.9-4.6 6.7-2.5 7 0 .7 5.7-4.4 7.4-8 6.5a6.2 6.2 0 0 1-3.8-3 7.5 7.5 0 0 1-.6-5.9 7.7 7.7 0 0 1 1.3-2.6 7.7 7.7 0 0 1 2-1.9c1.4-.8 2.9-1 5.2-1 8.7 0 16.3 10.4 18.9 21a46 46 0 0 1 .4 18.9 35 35 0 0 1-9.2 17.6 39.2 39.2 0 0 1-9 6.4 38.8 38.8 0 0 1-6.5 2.7 11 11 0 0 1-6.1.1c-4.4-1.3-7.3-5.4-5-10.8 1.8-4.2 8.4-6.2 11.4-1.1a5.1 5.1 0 0 1 .6 2.4 4.6 4.6 0 0 1-1.6 3.6c-2.2 1.5-5.8 1-5.6-2.9" class="B"/><path d="M365.2 397.5c1.7.6 2.6.5 4.6-.4.8-.3 1.8-1 2.9-1.5 4-2.3 8.7-5.9 13.1-14.2a29.4 29.4 0 0 0 2.7-7 25.9 25.9 0 0 0 .8-5.2 40 40 0 0 0-1-9.7 31.6 31.6 0 0 0-6.3-14.2c-1.8-2.4-3.4-4-6.7-4m-14.8 48.3a6.1 6.1 0 1 1 9.8 3.6m-7.4-9.7a5.7 5.7 0 0 1 11.4 1 6 6 0 0 1-1.7 4"/><path d="M374 383.2a24.3 24.3 0 0 0 9.7-19.3c0-6.4-2.5-13-5.6-15.6"/><path d="M382.3 380.3a25.8 25.8 0 0 1-9.7 9.3" class="B"/><path d="M397.8 402.6c-1.4-3.4-4.3-5-9-5.5s-8.7.8-12.8 3a29 29 0 0 0-15.6 17.7 26.9 26.9 0 0 0-1.3 9c.1 5.6 1.6 11.7 3.1 14.7 1.3 2.6 4.8 14 24 21.9 11.1 4.6 28.2 5.6 40 6 16.3.7 31.3 1.3 40 12"/><path d="M374.5 406c5.1-3.3 14.8-7.7 23.6-3.4 3.3 1.6 5.5 3.6 6.7 6.9a15.5 15.5 0 0 1-2.8 15c-1.3 1.3-4.2 4-7.8 4-5.9.1-7.3-4-7.4-5-.7-4.2 1.8-6 3-6.4 1.1-.4 4.4-.3 5 2a4.2 4.2 0 0 1-.3 3.2" class="B"/><path d="M394.9 421.4a5.3 5.3 0 0 0-1.4-5.2 8 8 0 0 0-9.1-1.4 11.6 11.6 0 0 0-4 3.3l-1.8 2.5a19.4 19.4 0 0 0-1.7 3.9c-3.8 11 2.4 22.5 10.3 27.5a47 47 0 0 0 22.4 6.4l10.3.6c3.2.2 6 .1 8.6 0h6.3a110.5 110.5 0 0 1 11.3.2c4.5.3 8 .4 11.8 1 2.5.5 5.5.9 8.6 1.6l2.8.6 1.8.6a62.3 62.3 0 0 1 15.3 6.5 23.6 23.6 0 0 1 3.9 2.7l2.1 2c3 2.9 6 6 6.8 10.4l.1 2.5c0 2.8-2.3 6.6-8.4 7.8"/><path d="M466.6 488.2c-1.6 3.3.2 5 2.5 5.2 3.4.4 5.1-2.2 5.4-4.6a6.9 6.9 0 0 0-6.4-7.4h-.5a8.7 8.7 0 0 0-7.7 5.5 10.8 10.8 0 0 0-.8 3.7 9.1 9.1 0 0 0 2.2 6.4 11.7 11.7 0 0 0 8.4 4c6.6.2 11.8-6 11.8-12.3 0-12-17.9-18.6-25-20.3-8.7-2-14-2.9-28-3.6-5.6-.4-9.7-.2-15.8-.8a94.3 94.3 0 0 1-14.1-2.2 42.6 42.6 0 0 1-19.6-10 26.7 26.7 0 0 1-7.3-34.5 22.4 22.4 0 0 1 16.2-10.5c5.8-.9 10.9 1.6 14 7.4 1.4 2.8 1 7.5-.2 9.7a9.4 9.4 0 0 1-7.5 4.6c-5.9.1-7.3-4-7.4-5-.7-4.2 1.8-6 3-6.4 1.1-.4 4.4-.3 5.1 2a4.2 4.2 0 0 1-.4 3.2"/><path d="m427 212.6-.6-.8c-2.6-4-7.3-5-10.7-2.4-4.1 3.1-5.2 8.4-4 14a13.6 13.6 0 0 0 6.3 8.6" class="B"/><path d="M573 224.4c-6.3 6.8-12.6 9-22 9.3-2.9.1-8.5-1-11.8-3.3-2-1.5-4.4-4-3-8.4 1-3 5.8-11.3 6-17 .4-8.9-3-13.7-8.3-15.5-9.7-3.5-20.2 6.2-26.6 8.3a21.3 21.3 0 0 1-8 1.2 21.6 21.6 0 0 1-8-1.2c-6.4-2.1-16.8-11.8-26.6-8.3-5.3 1.8-8.7 6.6-8.3 15.4.2 5.8 5 14.1 6 17 1.4 4.5-1 7-3 8.5a22.7 22.7 0 0 1-11.8 3.3c-9.4-.3-15.7-2.5-22-9.3"/><path d="M464.6 466.3c1.2.5.3-.3 8.2 3.2 7.6 3.3 13 6.3 17.6 13.7a15.5 15.5 0 0 1 1.9 7.6 16.6 16.6 0 0 1-.5 3.9" class="B"/><path d="M465 500a12.5 12.5 0 0 0 5.2 1.4c6.6.2 11.7-6 11.7-12.3 0-4.3-2.4-8-5.7-11"/><path d="M466.5 488.1c-1.6 3.6.7 5.5 3 5.8a5 5 0 0 0 5.4-4.3v-.4a7 7 0 0 0-3.3-6.5" class="B"/><path d="M609.5 216.9c5 0 9.4 5.6 9.4 11.3 0 6.6-3.5 10.6-6 13.7-2.1 2.5-4.4 4.7-7 7.3"/><path d="M603.6 211.6a10.8 10.8 0 0 1 4.3 3.8c2.1 3.1 2.7 5.7 2.5 9.6-.2 6.6-5 11.1-9.2 14m-7.5-27.4a8.7 8.7 0 0 1 1 1c2.9 3.4 3.1 8.5 2.4 11.3-1 4.2-2.4 6-5.8 8.5m-8-22.6c4.2 3.2 5.4 8.5 4 14a13 13 0 0 1-6.5 8.3m17.4 64.2c.5 1.4 1.3 2 2.3 3a21.1 21.1 0 0 0 9.6 5.5c3.3 1 7 .5 9.9-1.4M365.3 388c2 0 3.9 1.2 5.1 3.4a5 5 0 0 1 .7 2.4 4.3 4.3 0 0 1-1.6 3.5c-2.3 1.4-6.3.8-6.1-3.1" class="B"/><path d="M377.3 336.4c7.7 1.4 15.1 10.7 17.6 20.9a46 46 0 0 1 .4 18.8 35 35 0 0 1-9.2 17.6 25.8 25.8 0 0 1-3.3 2.8l-1.7 1.1m-12.3-19c3.1 0 5.9 3.1 5.9 6.3a6 6 0 0 1-1.6 4.1m-6.5-6.6a6.8 6.8 0 0 1 6.5 6.5 6 6 0 0 1-2.4 4.8"/><path d="M396.8 349.2c3 4 5 7.6 6 12m-.1 13.3a27 27 0 0 1-2.3 6.4 27.9 27.9 0 0 1-5.5 7.2" class="B"/><path d="M397.3 325.5a14.6 14.6 0 0 1 5.5 7.5"/><path d="M402.9 318c-.8 2.6-2.5 4.6-5.3 7.1m-14.3-26.8 3.4-1 2-1.4 1.3-1.8 1-2.9.5-2.3" class="B"/><path d="M376.5 286.4a20.2 20.2 0 0 0-3.8 1.3 14 14 0 0 0-5.5 4.6c-1.9 2.6-3 6.3-3.6 9.5a31 31 0 0 0 .2 10.4 24.6 24.6 0 0 0 3.6 8.8 14.3 14.3 0 0 0 1.6 2.1c2 2 4 3.3 7 2.7"/><path d="M395.4 271.6c-.6 2-1.6 4.5-4.8 4.2" class="B"/><path d="M383.9 285.2c-3-3-9.5-3.7-15.8.3a24.1 24.1 0 0 0-2.5 1.9 13.8 13.8 0 0 0-2.2 2.4 28 28 0 0 0-2.2 3.8 19.6 19.6 0 0 0-1.5 4.2 31.7 31.7 0 0 0-1 9.8c.2 1.5.3 2.9.6 4.1a29.1 29.1 0 0 0 3.4 9.7 16 16 0 0 0 12.1 8.4c2.8.3 7.6-1 7.8-4.7"/><path d="M568.4 220.4c.5-2.6 3.6-3 4.7-1.5 1.8 2.3.6 6.3-3 7.5a5.9 5.9 0 0 1-6-2.2 6.8 6.8 0 0 1 1.6-9.4l.3-.2c4.2-3.3 11-2.5 13.3 3 3 7-3.4 12.2-9.2 16.2a38 38 0 0 1-22 5.8c-14.3-.1-25.2-7-32.3-10.9-1.6-.9-3.3-.7-4.2.3a3.1 3.1 0 0 0 .4 4.3m59.3-15.3a2.6 2.6 0 0 1 2.3 1.3c1.8 2.3.5 6.3-3.1 7.5m27.8 80.5c-5.4 6-.4 16.1 3.7 18.4 1.4 1.1 2 .6 3.1 1.2" class="B"/><path d="M598.6 296c-1.8 1.2-2.4 2.6-2.5 5a8.2 8.2 0 0 0 2.2 6.3c3 3.1 8.8 5.8 14.5 5.9a16 16 0 0 0 9.4-2.7 14.2 14.2 0 0 0 6-8.4m-32.6 96.5a38 38 0 0 1-.2 3.9 32.8 32.8 0 0 1-9.8 19.7 30.7 30.7 0 0 1-9.1 6.3 38.4 38.4 0 0 1-10.3 3.5 52.3 52.3 0 0 1-10.7 1.3 74.5 74.5 0 0 1-10-.3c-4-.3-6.3-.8-10.5-1.2a83.3 83.3 0 0 0-8.7-.6 44.8 44.8 0 0 0-9 .7 34.3 34.3 0 0 0-8 2.2c-4.3 1.7-9 4.7-10 6-1-1.3-5.8-4.3-10-6a34.4 34.4 0 0 0-8-2.2 44.8 44.8 0 0 0-9-.7 82.7 82.7 0 0 0-8.8.6c-4.1.4-6.4 1-10.5 1.2-3.3.3-6.6.4-10 .3a52.4 52.4 0 0 1-10.7-1.3 38.4 38.4 0 0 1-10.2-3.5 30.7 30.7 0 0 1-9.1-6.3 32.8 32.8 0 0 1-9.8-19.7 38 38 0 0 1-.2-3.9v-159h192.5v159z"/></g></g><g class="J"><path stroke="#b5915f" d="M387.4 421.3a4 4 0 0 1 4-3.9 4 4 0 0 1 3.8 4 4 4 0 0 1-3.9 3.8 4 4 0 0 1-3.9-3.9zm-24-27.6c0-2 1.3-3.5 2.8-3.5s2.7 1.6 2.7 3.5-1.2 3.5-2.7 3.5-2.8-1.6-2.8-3.5z" class="E"/><path d="M377 324.4a2.7 2.7 0 0 1 5.4.4 2.7 2.7 0 0 1-2.7 2.4 2.8 2.8 0 0 1-2.7-2.8zm48-102.6a2.5 2.5 0 0 1 2.5-2.3 2.5 2.5 0 0 1 2.4 2.6 2.5 2.5 0 0 1-2.2 2.3 2.7 2.7 0 0 1-2.8-2.6z"/></g><g stroke="#b5915f" class="C D"><path d="M374 340.5a3.9 3.9 0 0 0-2.2 2.2 6.4 6.4 0 0 0-.4 2m7.4 41.7 1.4-1.7a17 17 0 0 0 1-1.5l.8-1.4 1-2m-1.9 21.7-2.4 1.1-1.7 1-2 1.3-1.8 1.6m23.4-59.2-1.3-1.4-1.4-1.3-1.5-1.1" class="B"/><path d="m397.2 326.5-2 .8a8 8 0 0 1-2.3.5"/><path d="m371 300.7.7 2.3a12.2 12.2 0 0 0 1.4 2.7 13 13 0 0 0 2 2.4c.6.7 1.4 1.3 2.2 1.8l2.3 1.2M378 302a19.3 19.3 0 0 0 2 1c.6.4 1.2.6 1.9.7a11.5 11.5 0 0 0 2.7.3 12 12 0 0 0 2.9-.2m11.2-63.6-3.2-1.8a19 19 0 0 1-3-2.4 14.6 14.6 0 0 1-1.7-2l-1.3-2m11.7-7.2 1 2.7a12.2 12.2 0 0 0 2.2 3.2c1.4 1.5 2.6 2 4.3 3.3m2.3-9.3 1 2.4c.3.7.8 1.3 1.3 2a11.5 11.5 0 0 0 2 2 22.8 22.8 0 0 0 3 1.7" class="B"/></g><g fill="#6c401f"><path stroke-width=".277" d="M520.8 212c-.1-2.7-2.7-3-3.7-3-2.9 0-3.7 1.8-7.3 3.7-4.5 2.4-6.4 3-10.4 3s-6-.6-10.6-3c-3.6-2-4.2-3.7-7-3.7a3.6 3.6 0 0 0-3.6 3.8 6.5 6.5 0 0 0 .1 1.4c0 .2.3.2.4.3a3.6 3.6 0 0 1 .8-2.6 3.4 3.4 0 0 1 2.5-1.3c3 0 4 1.8 7.6 3.8 4.5 2.4 6.5 3 10.5 3s6-.6 10.5-3c3.6-2 4.6-4 7.5-4a2.1 2.1 0 0 1 2 1.7 5 5 0 0 1 .2 1.3l.2.2a4 4 0 0 0 .3-1.7z" class="H"/><path d="M413.1 434.4c.8-.9 1.4-.5 1.6-1 .1-.2-.1-.3-.5-.4l-1.3-.4-1.3-.6c-.2 0-.7-.3-.8 0-.2.7 1.6.6 1 2.3a5.8 5.8 0 0 1-1.3 1.8l-4.1 4.5c-.1.1-.3.4-.4.3V434.1a8.5 8.5 0 0 1 .3-2.6c.3-.8 1.1-.2 1.3-.6.1-.3 0-.3-.5-.5l-1.7-.6-1.6-.7c-.2 0-.6-.4-.8 0l.2.4c.5.3.8.9.7 1.5l.1 11.6c0 .8.1 1 .3 1.1.2 0 .3 0 .6-.4l8.2-8.9z"/><path d="M418 436.2c.5-1.7 1.5-.7 1.7-1.3 0-.2 0-.2-.5-.4l-2.1-.6-1.8-.6c-.1 0-.5-.2-.6 0-.2.7 1.8.8 1.3 2.4l-2.7 8.5c-.6 1.7-1.6.9-1.8 1.5l.1.3 1.8.5 2.5.8h.6c.1-.7-2-.4-1.2-2.6l2.6-8.5zm5.7 1.7c.3-1 .8-.9 1.4-.7 1.7.5 2.2 2 1.7 3.8-.4 1-.7 2-3.2 1.3-.5-.1-1-.3-1-.8l1.1-3.6zm-4.4 7.7c-.7 2.3-1.8 1.3-2 1.9 0 .3.3.4.5.4l2.5.7 1.3.5.6-.1c.2-.7-1.6-.4-1-2.3l.9-3.1c.1-.7 0-.8 1-.6.7.3 1 .5 1.1 1.4l.5 3.2c.2 1.2.4 2.5 1.7 2.9.6.2 1.8.1 2-.5a.2.2 0 0 0-.2-.3h-.5a.6.6 0 0 1-.5-.5l-1-5.7c0-.2.5-.2 1-.4a3 3 0 0 0 1.7-2c.2-.8.7-3.4-2.9-4.5l-3.2-.9-2-.6-.3.1c-.2.7 1.7.6 1.1 2.6l-2.3 7.8zm13.2 3.9c-.6 2.1-2.2.8-2.4 1.5 0 .4.2.5.5.6l2.3.4 2.3.6c.5.2.8.3.9-.1.1-.5-2.1-.5-1.6-2.8l2-8.2c.2-.8.4-.9 1-.7l1.4.3c2 .4 1 2.3 1.6 2.4.4.1.4-.6.4-.8l.2-1.7c0-.2.1-.5-.1-.5l-5-1.2-5-1.2c-.3-.1-.3.2-.4.3l-.8 2.4c-.1.2-.3.6 0 .6.8.2.9-2.3 2.7-1.8l1.4.3c.6.2.8.3.6 1.2l-2 8.4zm19.8-5c.6-1 1.3-.9 1.4-1.3 0-.3-.2-.3-.5-.3l-1.4-.2-1.5-.4c-.2 0-.6-.1-.7.2-.1.6 1.7.3 1.4 2a5.8 5.8 0 0 1-1 2l-3.3 5.2-.2.4-.2-.5-1-6.3a8.5 8.5 0 0 1-.2-2.6c.1-.8 1-.3 1.2-.8 0-.3 0-.3-.6-.4-.3 0-.7 0-1.8-.3l-1.7-.4c-.2 0-.7-.3-.8.2l.2.3c.6.2 1 .7 1 1.3l2.2 11.4c.1.9.2 1 .4 1.1.2 0 .3 0 .6-.5l6.5-10.2zm1 10.4c0 .5-.1.6.3.8.8.5 1.7.9 2.7 1.2 2.2.3 4-1 4.4-3.5.4-2.3-.6-3.3-2.2-4.4-2-1.5-3-1.9-2.7-3.1a1.8 1.8 0 0 1 2.1-1.6c2.9.4 2.6 3.9 3 4 .3 0 .4-.2.4-.6l.2-2.5c0-.4.2-.7 0-.7-.3 0-.7.2-1 .1-.5 0-1-.9-2.4-1.1-2-.4-3.5 1-3.9 3-.3 2 .6 2.9 1.9 3.8 2.4 1.8 3.4 2.2 3.2 3.8a2.2 2.2 0 0 1-2.7 2c-1.9-.4-2.6-2.2-2.8-4 0-.3 0-.5-.3-.5-.4-.1-.4.5-.4.7l.1 2.6zm24.6-7c.6-1 1.3-.9 1.3-1.3 0-.3-.2-.3-.6-.3h-1.4l-1.4-.2c-.2 0-.7-.1-.7.2 0 .7 1.7.1 1.5 1.9a5.8 5.8 0 0 1-.7 2.1l-2.7 5.5-.3.4-.2-.4-1.7-6.2a8.5 8.5 0 0 1-.4-2.6c0-.8 1-.4 1-1 .1-.3 0-.2-.5-.3h-1.8l-1.7-.3c-.3 0-.8-.2-.8.3l.2.3a1.5 1.5 0 0 1 1.1 1.2l3.4 11.1c.2.8.4 1 .5 1 .2 0 .3 0 .5-.5L478 448z"/><path d="M480.6 457c0 1.9-1.6 1.6-1.6 2.3 0 .3.3.2.5.2h3.4c.2 0 .7 0 .7-.2 0-.9-2.2.4-2.2-3.2v-6.3c0-.2.1-.3.2-.3s.2 0 .3.2l8 9.8a.5.5 0 0 0 .4.3c.3 0 .3-.2.3-.6v-10.5c0-2 1.5-1.5 1.5-2 0 0 0-.3-.3-.3H488c-.2 0-.2.2-.2.3 0 .6 2 .3 2 2v6.2c0 .5 0 .7-.2.7s-.3-.2-.5-.5l-6.7-8.3c-.3-.3 0-.5-.6-.5l-1.8.1h-.9a.3.3 0 0 0-.3.2c0 1 1.9-.3 1.9 3.3l-.1 7.1zm16.3-8.4c0-1.8 1.2-1 1.2-1.7 0-.2 0-.3-.6-.3h-4.1s-.5 0-.5.2c0 .7 1.8.2 1.8 1.9v9c0 1.7-1.2 1.2-1.2 1.9 0 0 0 .2.2.2h4.4c.4 0 .5 0 .5-.2 0-.6-1.8.2-1.8-2.1v-8.9zm7 8.7c0 2.2-1.9 1.3-1.9 2 0 .4.3.4.6.4H507.3c.5 0 .8 0 .8-.4 0-.5-2.1 0-2.1-2.3l-.1-8.4c0-.9.2-1 .8-1h1.5c1.9-.1 1.4 2 2 2 .5 0 .3-.8.3-1l-.2-1.7c0-.2 0-.4-.3-.4h-10.2c-.3 0-.3.3-.4.5l-.2 2.5c0 .2-.1.6.2.6.8 0 .3-2.4 2.1-2.5h1.5c.6 0 .8.1.8 1l.1 8.7zm9.8-3.6h-.6a2 2 0 0 1 .2-.8l1-3.4c0-.2.1-.2.2-.2l.1.1 1.6 3.3a2 2 0 0 1 .3.7l-.5.2-2.3.1zm2.9.8c.4 0 .5.2 1.2 1.6a3.5 3.5 0 0 1 .4 1.2c0 1.1-1.2 1-1.1 1.6 0 .2.2.2.5.1l1.9-.2h2.1c.5-.1.6 0 .6-.4 0-.6-.9.2-1.5-1l-5.5-11.1c-.2-.6-.2-.6-.4-.6s-.3.4-.4.7l-3.6 11.6c-.4 1-1.2 1-1.2 1.5 0 .2.3.2.5.1l1.5-.2h1.6c.3 0 .9 0 .8-.3 0-.5-1.8-.1-1.9-1.4l.2-1.5c.3-1.3.7-1.4 1-1.4l3.3-.3zm13-7.7c-.2-1.3-.2-1.3 1.8-1.6 3.3-.4 2.2 2 3 1.8.4 0 .2-.6.2-.9l-.3-1.8a.3.3 0 0 0-.4-.3l-3.8.6-4.4.5a.3.3 0 0 0-.3.3c0 .8 1.9 0 2 1.6l1.2 8.7c.3 2.2-1 1.4-1 2.3l.4.1 2-.3 2-.2c.5 0 .9 0 .8-.4 0-.5-1.9.2-2.1-1.9l-.4-2.7c-.1-1-.2-1.3.5-1.4l1.3-.2c1.7-.2 1.5 1.8 2 1.8.4 0 .2-.7.2-1l-.6-3.2c0-.5-.2-.5-.4-.5-.3 0-.1 1.8-1.5 2l-1 .1c-.8.1-.8 0-1-.8l-.3-2.6zm6 4.2c.8 3.8 3.4 5.8 6.8 5.2 5.2-1 5.4-5.7 5-8.2-.8-4-3.7-5.8-6.9-5.2-4 .8-5.6 4.2-4.8 8.2zm2-1.4c-.6-2.7-.2-5.3 2.6-6 2-.3 4.5 1.4 5.2 5.5.6 3 .1 5.6-2.7 6.2-3 .6-4.7-3-5.2-5.7zm13-6.5c-.3-1 .2-1.2.8-1.3 1.6-.4 2.9.7 3.3 2.5.2 1 .4 2-2 2.7-.6 0-1.2.2-1.3-.2l-.9-3.7zm0 8.9c.5 2.3-1 2-.8 2.6 0 .3.4.2.6.2l2.5-.7 1.4-.3c.4 0 .5-.2.4-.4-.1-.6-1.6.5-2-1.4l-.8-3.2c-.1-.6-.3-.7.6-1a1.4 1.4 0 0 1 1.7.7l2 2.5c.8 1 1.6 2 3 1.7.6-.2 1.5-.9 1.4-1.4a.2.2 0 0 0-.3-.2l-.5.2a.6.6 0 0 1-.6-.1l-3.8-4.4c0-.2.4-.5.8-1a3 3 0 0 0 .4-2.5c-.2-.9-1.2-3.3-4.7-2.5l-3.3.9-2 .4c-.1 0-.3.1-.2.3.1.7 1.7-.4 2.2 1.6l2 8zm13.4-3c.6 2.1-1.5 1.7-1.3 2.4 0 .4.4.4.7.3l2.2-.7 2.3-.5c.5-.1.8-.2.7-.6-.1-.5-2 .6-2.6-1.7l-2.2-8.1c-.2-.9 0-1 .6-1.2l1.4-.3c1.9-.6 1.9 1.5 2.5 1.4.4-.1 0-.8 0-1l-.6-1.6c0-.2-.2-.5-.4-.4l-5 1.4-5 1.2c-.2 0-.1.3-.1.5l.4 2.4c0 .3 0 .7.3.6.8-.2-.3-2.4 1.5-2.9l1.4-.3c.6-.2.8-.2 1 .7l2.2 8.4zm8.6-11.5c-.5-1.7 1-1.4.8-2-.1-.2-.2-.2-.7 0l-2 .6-1.9.4c-.1 0-.6.1-.5.4.2.6 1.9-.4 2.3 1.3l2.4 8.6c.5 1.7-.8 1.6-.6 2.2 0 0 0 .2.2.2l1.8-.6 2.5-.6c.4-.1.5-.2.4-.4-.1-.6-1.7.7-2.3-1.5l-2.4-8.6zm3.6 4.2c1.2 3.6 4.1 5.3 7.3 4.2 5.1-1.7 4.6-6.4 3.8-8.9-1.3-3.7-4.4-5.2-7.5-4.1-3.8 1.3-5 5-3.6 8.8zm1.6-1.7c-.9-2.5-.9-5.2 1.8-6.2 2-.7 4.7.7 6 4.6 1 3 .9 5.6-1.9 6.6s-5-2.4-5.9-5zm12-8.4c-.5-1 0-1.3.6-1.5 1.6-.6 3 .3 3.6 2 .4 1 .7 2-1.7 3-.4.2-1 .4-1.2 0l-1.4-3.5zm1.2 8.8c.8 2.1-.7 2-.4 2.6 0 .4.4.2.6.1l2.3-1 1.4-.5c.4-.1.5-.3.4-.4-.2-.6-1.5.7-2.2-1.2l-1.2-3c-.3-.6-.4-.7.4-1a1.4 1.4 0 0 1 1.8.4l2.4 2.2c.9.8 1.8 1.7 3 1.2.7-.2 1.6-1 1.3-1.5a.2.2 0 0 0-.3-.2l-.4.3a.6.6 0 0 1-.7 0l-4.3-4 .6-1a3 3 0 0 0 0-2.5c-.3-.8-1.6-3.1-5-1.8l-3.1 1.3-1.9.7c-.2 0-.3.2-.2.4.2.6 1.7-.7 2.5 1.2l3 7.7z"/></g><path d="M412.7 249.3h82.1v82h-82.1v-82z" class="G"/><path fill="#faf6f5" d="M451.2 313.8a20.1 20.1 0 0 1-.9 5.3c-.9 2.7-.9 2.7-1.8 4a13.1 13.1 0 0 1-3.8 4 9.4 9.4 0 0 1-6 1.7c-5.4-.5-8-6.5-9.2-11.3-1.3-5.1-5-8-7.5-6-1.4 1-1.4 2.8-.3 4.6a9 9 0 0 0 4.1 2.8l-2.9 3.7a9.2 9.2 0 0 1-7.5-7.4c-.5-2.5.7-7.1 4.9-8.5 5.3-1.8 8.6 2 10.3 5.2 2.2 4.4 3.2 12.4 9.4 11.2 3.4-.7 5-5.6 5-7.9l2.4-2.6 3.7 1.2h.1zm5.1 0a20.1 20.1 0 0 0 .9 5.3c1 2.7 1 2.7 1.8 4a13.1 13.1 0 0 0 3.8 4 9.4 9.4 0 0 0 6 1.7c5.4-.5 8-6.5 9.2-11.3 1.3-5.1 5-8 7.5-6 1.4 1 1.5 2.8.3 4.6a9 9 0 0 1-4.1 2.8l3 3.7a9.2 9.2 0 0 0 7.5-7.4c.4-2.5-.8-7.1-5-8.5-5.2-1.8-8.6 2-10.3 5.2-2.2 4.4-3.2 12.4-9.4 11.2-3.4-.7-5-5.6-5-7.9l-2.4-2.6-3.7 1.2z"/><path d="m461.1 279 10.8-11.7a4.7 4.7 0 0 0 1.6-3.4l-2.2.4-.5-1.2-.1-1.1 3-.7V260l.3-1.2-3.2.2.3-1.4a4 4 0 0 1 .5-1l1.9-.4h1.9c1.8-3.4 9.2-6.4 14.4-1 3.8 4 3 11.2-2 13.2a6.3 6.3 0 0 1-6.8-1.2l2-3.8c2.7 1.6 5-.4 4.8-2.5a4.6 4.6 0 0 0-4.3-4.5c-2.3-.2-4 1-5 3-.6 1.3-.3 2.2-.5 3.6a24 24 0 0 1-.5 3.8 8.8 8.8 0 0 1-2.4 3.6l-11 12-43 46.4-3.2-3 43.2-46.8z" class="F"/><path fill="#faf6f5" d="M429.5 283s2.7 13.4 11.9 33.5c4.6-1.7 7.4-2.8 12.3-2.8s7.7 1 12.4 2.8c9.2-20 11.9-33.5 11.9-33.5L453.7 252 429.5 283z"/><path d="M456.1 262.4 473 284s-2.2 10.6-9 26.4a47.3 47.3 0 0 0-7.8-1.3v-46.7zm-4.7 0L434.6 284s2.2 10.6 9 26.4a47.3 47.3 0 0 1 7.8-1.3v-46.7zm52.2-13.1h82.2v82h-82.2v-82z" class="F"/><path d="M515.1 249.3h12.3v82H515v-82zm23.5 0h12.2v82h-12.2v-82zm23.5 0h12.2v82h-12.2v-82z" class="G"/><path d="M413 402.4a20.8 20.8 0 0 0 2.1 6.6c1.5 2.4 1 2.3 4.3 6a24 24 0 0 0 6.2 4.5 27 27 0 0 0 6.9 2.5 51 51 0 0 0 16.6 1.6 98.5 98.5 0 0 0 10.2-1 108.8 108.8 0 0 1 11.1-1 62.9 62.9 0 0 1 13.5 1 79.7 79.7 0 0 1 11 3.1v-85.6h-82.2v58.5l.3 3.8z" class="F"/><path stroke="#e30631" d="m422.5 417.4 3.9 2.3 5.2 1.9V340h-9v77.4zm45.7 3.7v-81H459v82.3l9.2-1v-.3zm18.2-81h-9.1v81.3a60.4 60.4 0 0 1 9.1 1.7v-83zm-36.5 0v83.3a80.7 80.7 0 0 1-9.2 0V340h9.2z" class="E G"/><path d="M585.5 402.4a20.7 20.7 0 0 1-2.2 6.6c-1.5 2.3-1 2.3-4.3 6a24 24 0 0 1-6.2 4.5 27 27 0 0 1-6.8 2.5 51 51 0 0 1-16.6 1.6 98.7 98.7 0 0 1-10.3-1 108.6 108.6 0 0 0-11-1c-2.2-.2-4.2-.2-6.2 0a51.5 51.5 0 0 0-7.3 1 82.4 82.4 0 0 0-11 3.1v-85.6h82.2v58.5l-.3 3.8z" class="F"/><use xlink:href="#B" class="G"/><g stroke="#fcd80e"><use xlink:href="#C" class="B C D"/><use xlink:href="#D" class="E I"/><g class="C D"><use xlink:href="#E" class="B"/><path d="m560.1 369.8.4-.3a8.1 8.1 0 0 0 2.7-1.8"/><g class="B"><path d="M552.4 368h0c3.5-.9 5.9-2.6 7.6-2.8"/><use xlink:href="#F"/></g></g><use xlink:href="#G" class="E I"/></g><path fill="#0859b9" d="M525.1 364.2a15.5 15.5 0 0 1-2-.9c.4-.2.7-.2 1-.5.3-.4.3-.8.5-1.3.2-.6.2-1 .7-1.4.3-.2.7-.3 1.1-.1.4 0 .7.4.9.7 0 .6-.2 1-.3 1.5a4 4 0 0 0-.2 1.4 6 6 0 0 0 .4 1 15.3 15.3 0 0 1-2-.4zm-1 1a.6.6 0 1 1 1.3 0 .6.6 0 0 1-1.3 0zm-1.7-16.6h-.2l-.6-1.2a4 4 0 0 1-.3-1.2 7.3 7.3 0 0 1 0-1v-1a2.2 2.2 0 0 0-.2-.9c0-.2-.4-.3-.3-.4 0-.1.3 0 .4 0a1.6 1.6 0 0 1 1 .4c.3.3.5.6.6 1l.4 1.5.3.8a4.3 4.3 0 0 0 .5.6 9 9 0 0 1-.7.8l-.9.6zm3.6 10.6 2.2 1a9.2 9.2 0 0 0 3.5-3.8 13.8 13.8 0 0 0 1.4-4.4l-1.8-.5h-.4a15.7 15.7 0 0 1-1.6 4.2 11.6 11.6 0 0 1-2.6 3l-.7.6zm5 18.2.8-1.3a12.7 12.7 0 0 1 1.4-1.1h.4a8.7 8.7 0 0 1-.5 2.8 3.5 3.5 0 0 1-.4 1 4.2 4.2 0 0 1-.5.5c-.5-.8-1.3-1.3-1.3-2zm33 1.8a7.5 7.5 0 0 1 2.9 1.5v.5a9 9 0 0 1-1.5.2 8.4 8.4 0 0 1-1.3 0 3.5 3.5 0 0 1-1 0 4.3 4.3 0 0 1-.6-.4c.5-.7.8-1.6 1.4-1.8zm-9.8-2a7.5 7.5 0 0 1 3 1.5 1.2 1.2 0 0 1 0 .4 9 9 0 0 1-1.6.3 8.4 8.4 0 0 1-1.2 0 3.5 3.5 0 0 1-1-.1 4.3 4.3 0 0 1-.7-.3c.6-.7.9-1.7 1.5-1.8zm-17.4 2.1a13 13 0 0 1 1.5.5 13.2 13.2 0 0 1 1.5 1 1.2 1.2 0 0 1 0 .5 9 9 0 0 1-1.5.2 8.4 8.4 0 0 1-1.3 0 3.4 3.4 0 0 1-1 0 4.3 4.3 0 0 1-.6-.4c.5-.7.8-1.6 1.4-1.8zm-9-29.8c-.6-.3-1-1-.6-1.6.1-.2.4-.2.6-.4.1-.2.1-.5 0-.8a5.2 5.2 0 0 0-.1-1 5 5 0 0 1-.2-1 2.3 2.3 0 0 1 .4-1.6c.2-.3.5-.5.8-.6.2.1 0 .5 0 .8a3.8 3.8 0 0 0 .3 1.2l.7 1.3a3.6 3.6 0 0 1 .4 1.4 2.3 2.3 0 0 1-.2 1.2 2 2 0 0 1-.6.8 1.9 1.9 0 0 1-.8.4 1.1 1.1 0 0 1-.7 0z"/><use xlink:href="#B" y="36.591" class="G"/><g stroke="#fcd80e"><use xlink:href="#C" y="36.591" class="B C D"/><use xlink:href="#D" y="36.591" class="E I"/><g class="C D"><use xlink:href="#E" y="36.591" class="B"/><path d="m560.1 406.4.4-.3a8.1 8.1 0 0 0 2.7-1.8"/><g class="B"><path d="M552.4 404.6h0c3.5-.9 5.9-2.6 7.6-2.9"/><use xlink:href="#F" y="36.591"/></g></g><use xlink:href="#G" y="36.591" class="E I"/></g><path fill="#0859b9" d="M525.1 400.8a15.5 15.5 0 0 1-2-.9c.4-.2.7-.2 1-.5.3-.4.3-.8.5-1.3.2-.6.2-1 .7-1.4.3-.2.7-.3 1.1-.1.4 0 .7.3.9.7 0 .6-.2.9-.3 1.5a4 4 0 0 0-.2 1.4 6 6 0 0 0 .4 1 15.3 15.3 0 0 1-2-.4zm-1 1a.6.6 0 1 1 1.3-.1.6.6 0 0 1-1.3 0zm-1.7-16.6-.2-.1c-.3-.3-.4-.7-.6-1.1a4 4 0 0 1-.3-1.2 7.3 7.3 0 0 1 0-1v-1a2.2 2.2 0 0 0-.2-.9c0-.2-.4-.3-.3-.4 0-.1.3 0 .4 0a1.6 1.6 0 0 1 1 .4c.3.3.5.6.6 1l.4 1.5.3.7a4.3 4.3 0 0 0 .5.7 9 9 0 0 1-.7.8l-.9.6zm3.6 10.6 2.2 1a9.2 9.2 0 0 0 3.5-3.8 13.8 13.8 0 0 0 1.4-4.4l-1.8-.5h-.4a15.7 15.7 0 0 1-1.6 4.2 11.6 11.6 0 0 1-2.6 3l-.7.5zm5 18.2.8-1.3a12.7 12.7 0 0 1 1.4-1.2l.4.1a8.7 8.7 0 0 1-.5 2.8 3.5 3.5 0 0 1-.4 1 4.2 4.2 0 0 1-.5.5c-.5-.8-1.3-1.3-1.3-2zm33 1.8a7.5 7.5 0 0 1 2.9 1.5v.5a9 9 0 0 1-1.5.2 8.4 8.4 0 0 1-1.3 0 3.5 3.5 0 0 1-1 0 4.3 4.3 0 0 1-.6-.4c.5-.7.8-1.6 1.4-1.8zm-9.8-2a7.5 7.5 0 0 1 3 1.5 1.2 1.2 0 0 1 0 .4 9 9 0 0 1-1.6.3 8.4 8.4 0 0 1-1.2 0 3.5 3.5 0 0 1-1-.1 4.3 4.3 0 0 1-.7-.3c.6-.7.9-1.7 1.5-1.8zm-17.4 2.1a13 13 0 0 1 1.5.5 13.2 13.2 0 0 1 1.5 1 1.2 1.2 0 0 1 0 .5 9 9 0 0 1-1.5.2 8.4 8.4 0 0 1-1.3 0 3.4 3.4 0 0 1-1 0 4.3 4.3 0 0 1-.6-.4c.5-.7.8-1.6 1.4-1.8zm-9-29.8c-.6-.3-1-1-.6-1.6.1-.2.4-.2.6-.4.1-.2.1-.5 0-.8a5.2 5.2 0 0 0-.1-1 5 5 0 0 1-.2-1 2.3 2.3 0 0 1 .4-1.6c.2-.3.5-.5.8-.6.2.1 0 .5 0 .8a3.8 3.8 0 0 0 .3 1.2l.7 1.3a3.6 3.6 0 0 1 .4 1.4 2.3 2.3 0 0 1-.2 1.2 2 2 0 0 1-.6.8 1.9 1.9 0 0 1-.8.4 1.1 1.1 0 0 1-.7-.1z"/><path stroke-width=".797" d="M412.7 249.3h82.1v82h-82.1v-82zm90.9 0h82.2v82h-82.2v-82zM413 402.4a20.8 20.8 0 0 0 2.1 6.6c1.5 2.4 1 2.3 4.3 6a24 24 0 0 0 6.2 4.5 27 27 0 0 0 6.9 2.5 51 51 0 0 0 16.6 1.6 98.5 98.5 0 0 0 10.2-1 108.8 108.8 0 0 1 11.1-1 62.9 62.9 0 0 1 13.5 1 79.7 79.7 0 0 1 11 3.1v-85.6h-82.2v58.5l.3 3.8zm172.5 0a20.7 20.7 0 0 1-2.2 6.6c-1.5 2.3-1 2.3-4.3 6a24 24 0 0 1-6.2 4.5 27 27 0 0 1-6.8 2.5 51 51 0 0 1-16.6 1.6 98.7 98.7 0 0 1-10.3-1 108.6 108.6 0 0 0-11-1c-2.2-.2-4.2-.2-6.2 0a51.5 51.5 0 0 0-7.3 1 82.4 82.4 0 0 0-11 3.1v-85.6h82.2v58.5l-.3 3.8z" class="C H"/><defs><path id="B" d="m524.6 347-.6.2a8.4 8.4 0 0 1-.8.8 12.3 12.3 0 0 1-1.2.8l-.6.5c-.3.3 0 .6-.2 1a3.7 3.7 0 0 1-.7 1l-1 1a5 5 0 0 1-1.2 1 1.8 1.8 0 0 1-.3.1h-.6c-.4.2-.5.6-.7.8 0 .2 0 .4.2.6l.8 1.4c.2.3.3.7.5.8a3.1 3.1 0 0 0 1.3.1 10.8 10.8 0 0 1 2 .5l1.5.8a5.2 5.2 0 0 0 2.3.6l.6-.2a.5.5 0 0 1 .2 0v.4l2 1c-.2.3-.3.8-.2 1.2.6 1.9 1.2 3 1.5 3.2.6.2.8.9 1.1 1.5l-.3.3a9 9 0 0 0-1.7 1.8c-.7 1.2-1.2 1.2-.3 2.8l1.5 2.4a8.2 8.2 0 0 1 .8 2 7.6 7.6 0 0 1 .3 2l1 .3.7-.6.6-1.2v-1a.8.8 0 0 1-.2-.7c0-.4.5-.3.7-.6.3-.5-.3-.8-.7-1.1-.6-.7-1.4-.9-1.6-1.9 0-.2 0-.4.4-.7l2-1.8a1.5 1.5 0 0 0 1 .1l1.3.4a2.2 2.2 0 0 0 1.2 0h.4a3.5 3.5 0 0 1 .1.6c.1 1-.1 3 .2 3.5a3.3 3.3 0 0 1 .3.6 1.7 1.7 0 0 1 .2.6v2a15.2 15.2 0 0 1-.2 1.7 2 2 0 0 1-.5 1c-.2.4-.6.4-1 .7v1l1.1.5 1.3.3.7-.3a1.2 1.2 0 0 1 .1-.6l.5-.5c.4-.2.8 0 1-.1v-.8l-.3-1.6a11.8 11.8 0 0 1-.2-2.8 9.4 9.4 0 0 1 .2-1.6c.1-.8.4-1.3.6-2.1a21.5 21.5 0 0 0 .4-2.5 24.3 24.3 0 0 0 10.1-.6 8.6 8.6 0 0 0 2.7 1.6v1c0 .2 0 .4.2.7a.6.6 0 0 0 .3.3.7.7 0 0 0 .7-.2c.2-.2.2-.5.2-.7a4 4 0 0 0 0-.7h1.8v1.1c.1.2.3.4.6.4a.7.7 0 0 0 .5 0c.3-.3.2-.6.3-1v-.7l1-.4a5.1 5.1 0 0 1 0 .8 5 5 0 0 1-.3 1 7.2 7.2 0 0 1-.8 1.4l-1 1.5-.6.7-.6.9a4.7 4.7 0 0 1-.9 1c-.7.6-1.1.2-2 .9l-.3 1 1.4.6 1.3.2.5-.2a1 1 0 0 1 .2-.8c.2-.2.4-.4.8-.4.3 0 .7 0 1-.2.3-.3.3-1 .6-1.5a12.7 12.7 0 0 1 3-3.9l1.7-1.4c.2-.4.5-.5.5-1l-.2-.6a9.6 9.6 0 0 1-.2-1c1.5.7 1 .6 1.2 1.4.3.6 0 1 .1 1.7.1.8.5 1.1.5 1.9a7.4 7.4 0 0 1-.3 2.3 7.1 7.1 0 0 1-.4 2 3.8 3.8 0 0 1-1.2 1.5l-.6.5-.1 1 1.1.4 1.6.4.4-.3c.2-.7 0-1.7.4-1.7.4-.1.7 0 .8-.3a5 5 0 0 0 0-.7l.7-4.5.4-1.9c0-.6.2-1.1.4-1.7.8-2-.2-2.3-1-3.6a3 3 0 0 1-.7-1.5v-5.6l.4-.2a4 4 0 0 0 2.4-2.5 3.4 3.4 0 0 0 .3-1.5v-1a2.8 2.8 0 0 0-.4-1 3.2 3.2 0 0 0-.5-.8 5.4 5.4 0 0 0-2.8-1.5 14 14 0 0 0-4-.5 26.9 26.9 0 0 0-4.4 0c-2 0-3.1.4-5 .7a43.4 43.4 0 0 1-5 .4c-2.3 0-4.4-.5-5.8-.4-2.4.2-2.5.8-6.2 1.1l-3.8.2-2.2-.7a2.4 2.4 0 0 0 1.5-1c.3-.4.2-.7.6-1.1l.7-1a2.2 2.2 0 0 0-.9-.4 2.5 2.5 0 0 0-1 0c-.4 0-.8.1-1.1.3a2.8 2.8 0 0 0-.9.6 19.6 19.6 0 0 0-2.2-1.2 9.2 9.2 0 0 0-3-.9zm2 11.8z"/><path id="C" d="m568.8 359.5-.8.3a6.8 6.8 0 0 1-2.6.5c-2.6.2-4.3-1.1-7-.9-1.4.1-2 1.2-3.5 1.6a9.2 9.2 0 0 1-1.7.2l.6-1c-.7.2-1.4.2-2.2.3a7.5 7.5 0 0 1-1.5-.2l1-1a7.2 7.2 0 0 1-1.3-.2 4 4 0 0 1-1-.7l1.7-.3c1.5-.4 2-1.2 3.9-1.4 1.1 0 3 0 7.6.8 3 .5 4.4.2 5.5-.3a2 2 0 0 0 1.1-1.8 2.1 2.1 0 0 0-.8-1.8 1.7 1.7 0 0 0-1.1-.4"/><path id="D" d="M524.8 350.6a1.8 1.8 0 0 0-1.3.3c-.5.3-.6.7-1 1.1.5.1.8.4 1.2.3.3 0 .6-.3.8-.5a1.6 1.6 0 0 0 .4-1.2h-.1z"/><path id="E" d="m536 363.8.4.8a7.6 7.6 0 0 1 .8 3.6v1.5m6.8-7-.3 1.3-1 3.5v.6m-11-4c.9.2.6 3.4 1.9 4.2"/><path id="F" d="M556 363.6a8.1 8.1 0 0 0 .8 0c1.5-.3 1.7.6 2.7 1.2 1.9 1 2.1 2.3 4.3 3.4l.3.1.9.4"/><path id="G" d="M517.7 354.5h.7l.8-.2a1 1 0 0 1 .7.2.8.8 0 0 1 .3.3l.1.5a.6.6 0 0 1-.6.4.6.6 0 0 1-.5-.3.5.5 0 0 1 0-.4 1.2 1.2 0 0 1-1.5-.5z"/></defs></svg>