<svg xmlns="http://www.w3.org/2000/svg" width="1000" height="500"><path fill="#c40f38" d="M0 0h1000v500H0z"/><path fill="#012778" d="M0 0h500v250H0z"/><path fill="#faf6f5" d="M0 0v28l444.1 222H500v-28L55.9 0zm500 0v28L55.9 250H0v-28L444.1 0z"/><path fill="#faf6f5" d="M208.3 0v250h83.4V0zM0 83.3v83.4h500V83.3z"/><path fill="#c40f38" d="M0 100v50h500v-50zM225 0v250h50V0zM0 250l166.7-83.3h37.2L37.3 250zM0 0l166.7 83.3h-37.3L0 18.6zm296 83.3L462.8 0H500L333.3 83.3zM500 250l-166.7-83.3h37.3L500 231.4z"/><path fill="#faf6f5" d="M865.4 106.7v211.7c0 56.6-113.1 75-113.1 75s-113-18.4-113-75V106.7z"/><path fill="#24a34e" d="M865.4 318.4c0 56.6-113.1 75-113.1 75s-113-18.4-113-75c0 0 0-4.6 2.2-7.1 0 0-1.2 9.4 6 16.5 0 0-5.6-10-.1-20 0 0-2 12.8 5.9 20 0 0-4.4-10.3.5-21.9 0 0-2.4 19 6.2 22.7 0 0 2.3-10.9-1-17.8 0 0 5.8 2.4 5.5 18.1 0 0 1.9-2.3 2.4-13.7 0 0 .2 13 4.7 16 0 0 1.4-1.3-.5-7.2s.8-8 1.3-7.8c0 0-1 6.5 4.5 11.4 0 0-2.4-10.2.9-11.6 0 0-.7 8.7 6.2 10.6 0 0 .5-2.5-1-5.3 0 0-1.3-3.4-.3-6 0 0 2.1 8 5.1 9.2 0 0-1.8-4.6-.1-9.2 0 0 .4 6.6 6.2 9.3 0 0-3.8-5-2.3-10.7l37.7 1.9 19.5 1 58.5-4.2 10-8.7s4 5.5-2.3 14.3c0 0 6.3-1.2 8.3-10.9 0 0 2.5 5.4-1 11.4 0 0 7-7 8-14.8 0 0 2.6 7.6-4 15.8 0 0 6-2 8.4-10.6 0 0 2 5.2-3.6 12.6 0 0 10.6-5.7 10.2-17.3 0 0 4.5 6.4-.6 15.2 0 0 5.4-4.8 6-12 0 0 3 3.2-.3 12.2 0 0 6.6-6.2 7.6-13 0 0 1.4 6.3-4.2 14.1 0 0 3.8-.9 7.5-8.6 0 0 1 3-2.4 8.6 0 0 3.6-.6 6-7.6 0 0 .5 4.2-.6 7.9 0 0 2.8-1.8 3.5-9.7 0 0 1.5 2.6 1.6 5.8v1.1z"/><g stroke="#0a1a1d"><path fill="#c40f38" stroke-linejoin="round" stroke-width=".831" d="M807.1 196s-3.9.7-9-.9c-5-1.5-7-.9-8.6 0 0 0 2-4-3-7.2 0 0 1.7 4-.5 6 0 0-1 1-2.2-.5 0 0-1.8-1.8-3.6-3.2 0 0 4.2-1.4 3.4-5.7s-3-5-4.3-5.5c0 0 .5 2 0 3.3 0 0-4.6-2.6 1.7-6.2s5-5.8 4-7.6a17 17 0 0 0-4.7-4.7s1.2 2 1 3.7-3 2.7-2.5-.2c.5-3 0-2.5-.1-5.6 0 0 5.6 2 7.8-3.5 0 0 2.1-5.6-5-8.4 0 0 1.8 2.3 1 4 0 0-1.6 2.8-3.3.5s-3-2.7-2.7-5.4c0 0 6.3.9 4.6-6 0 0-1 4.5-9.3-1.7 0 0 5.4-5.5 3.3-10 0 0-.7-2-6.5-.8 0 0 5-3.2 2.9-6 0 0-1-1.8-5.8.6 0 0 1.8-3.2-2.8-6.6 0 0-3.1 1.7-4.8 3.2 0 0-3.2-4-5.2-5.7 0 0-3.7 1.4-4.6 5.7 0 0-1.7-2-5.6-3 0 0-1.9 3.4.5 6.4 0 0-1.8 0-5-1.5 0 0-3.8-1.8-3.3 1.5s.9 4 1.6 5.4c0 0-8.4-2-8 2.7.2 3.1 1.3 5.9 4 8.2 0 0-4.8 6.1-8.8 1.5 0 0-1.4 1.5 1.6 5.5 0 0 3 3.3.5 5.4 0 0-3.3 2.7-5-2.5 0 0-5.3 5.4 1 9.5 0 0 4.1 2.3 8.3-1.3 0 0-1.3 10.3-5.3 8.3 0 0-2.4-1.7 2-3.8 0 0-6.3-.8-7.3 5.2 0 0-.7 4.8 4.7 6.5 0 0 4.2 1.5-.2 4.7 0 0-3 2.4-1 5.8 0 0 2.4 3.8-3.7 4.2 0 0-3.3 0-4.5-.5 0 0-1.3 2.5-.4 5.3 0 0-3-2.2-10 .3-6.8 2.5-6.3.7-6.8 1.5l-2 3.3s3.7 4.4 3.8 4.3l-.7 5 1.7.8 14.2-6.3 14.4-7.5 11.6.7 7.3 1.8 9.7.7 6.9-3.7h10l11 5.5L798 209l6.6 1.1 5-.3v-10.1z"/><path fill="#c40f38" stroke-linejoin="round" stroke-width=".831" d="M693 207.9s5.5 2.8 7.7-.6c0 0 3-5.7-3.5-7.7 0 0 3.5-4.3-.3-8.2 0 0-2-2.2-5.5-.6 0 0-1.4-3-4.9-3 0 0-3 0-4 3.3 0 0-4-1.7-6.4.8 0 0-3.8 4.2 1.5 7.6l3.8.3 3.8-1.7 4.1 1.2s-1 4.2 3.7 8.6z"/><path fill="#00b6d9" stroke-width=".623" d="M815.4 197.9c6.6-.7 8.9 5 8.9 5 3.5 8-3.9 12.4-3.9 12.4.6 1.8.6 4.2.6 4.2 10.4 1.2 8.6 12.9 8.6 12.9l-3.5-2.9c-6-2.3-12.1 2.8-16.5 11.3s-2.3 12.6-1.6 22.7c.8 10.1 17.2 16.2 17.2 16.2l-12.8 32.9c-5 12.9-15.6 7.5-18.7 4.8-3-2.7-3.8-1.2-5.3 0s6.9 7.8-8.5 14-18 11-20.6 12.6-13.2.5-14.3-.8c-1-1.3-.4-1.3-4.4-3.8-4-2.4-10.7-4.6-18-8.2-7.4-3.5-7.2-8.1-7.2-9 0-1 2.6-8.7-6-2.6s-16-2.9-16-2.9c-1.6-2.2-8.8-21.4-8.8-21.4a121 121 0 0 0-5.7-15.5c.1 0-.4.9 6-2.8s9.1-9.7 11.3-15.7.1-16.2-.7-18.3c-.8-2.1-5.6-11.6-11.4-13.6s-9.8 3-9.8 3-1.8-11.7 8.5-13c0 0 0-2.3.6-4.1 0 0-7.3-4.4-3.8-12.5 0 0 2.3-5.6 8.9-5l-1.6 3s-1.7 16.7 22.6 5.5 23.6-13.1 37.4-6.2l10-.2s14.7-6.7 19.3-3.8c4.7 2.9 21.5 12.3 21.5 12.3s16.3 6.1 19.5-5.1z"/></g><path fill="#faf6f5" stroke="#012778" stroke-miterlimit="10" stroke-width=".831" d="M742.3 269.8s-.8-5.1-1.7-8.4c0 0-1.8-5.2 1.3-8.8l3.8-4.4s2.3-3.2 5.3-3.6c0 0 2.9-.1 3.2-.7s3.5-5.9 11.1 0c0 0 2.4-4 6.2-4.6 0 0 4-1.2 6 1.8 0 0 4.5-3.4 8.4 2.1 0 0 5.4-3 9.3 3 0 0 5.3-2.6 8.6 3s2.6 7.8 2.6 7.8l2.4 8.8 8.6 10.6-20 7.5h-9l-17.9 4.8-31.8 2.5-9-10.5z"/><g stroke="#0a1a1d" stroke-width=".831"><path fill="#c40f38" stroke-linejoin="round" d="M715.4 322.7s-4.8.3-7.2 1.5-4.3 2.6-7.1 4.4c0 0-1.3 1.7-6.8.7 0 0-9.6-2.3-9.6 5.1 0 0-11.4 1-6.7 11 0 0 3.2 7.8 9.7 2.2 0 0-4.2 6 4 8.4 0 0 5.7 1.4 7.4-4.5 0 0 1-2.4-1.3-5.3 0 0 2.8-.6 4.8-3.6 0 0-6 7.6.5 10.3 0 0 8.3 2 8.7-6.5 0 0-.6-4 2.5-5.4 0 0 6.6-1.5 9.6-8.8 0 0-9.4-5-8.5-9.5zM696 247.6s-7.3-3.4-10.8 0c0 0-4.9-3-10 0 0 0-4.8 3.1-8.2 6.6 0 0-2.4 2-1.5 8.5 0 0 1.2 4.5.5 6.7 0 0-1.6-.3-4.9 3.5 0 0-4 4.8-7.7.6 0 0 1.1 5.9 8 5 0 0-3.4 2.5-.5 9.1 0 0 2.1 4.8-1.3 10.7 0 0 6-2.4 5.7-9.4 0 0-.5-4.7 1.3-8 0 0-1.8 3 2.3 9.4 0 0 3 4.7.5 9.5 0 0 5.9-2.1 5.3-9.2s-4-4.1-1.8-10.7c0 0 .6 3.4 2.3 5s4 4.6 3 9.3c0 0 3.6-4.4 2.7-8.8s-1.6-5.8-1.6-5.8l11-6.3 5.5-10z"/><path fill="none" stroke-miterlimit="10" d="M679.4 275.6s-4.6-.3-5.3-3.8m-8-2.4s1.6 0 3 1.4c0 0 1.1 1.6 2.7 1.5"/></g><path d="M686.1 262.2s-2.4 0-3.7-1.1c0 0-1.4-1-2.2.5 0 0-1.2 2.2 1.1 3.1 0 0 2.9 1.5-1.7 4.3 0 0 5.4-1.9 3.3-4.5 0 0-2.4-1.7-1.5-2.4 0 0 .2-.5 1.1.2 1 .6 2.8.3 3.6-.1z"/><path fill="#6c401f" stroke="#0a1a1d" stroke-width=".623" d="m760.4 274.2-18.2-63-.7.3 16.1 63.6z"/><path d="M697 344.8s-4.3-2.4-7.9.4c0 0 .4-1.6 3-2.3 0 0 1.6-4.1 5.7-3.7 0 0-1.7 2-4 3.7 0 0 2.4.2 3.2 1.9z"/><path fill="#00b6d9" stroke="#012778" stroke-miterlimit="2.613" stroke-width=".623" d="M681.8 354.8s-6.8-4.3-3.1-11.5c0 0 1-2 3.1-1.7 0 0 4.3 1.4 1 7.2 0 0-1.7 3.9-1 6zm13.9 6.8s-9.8-4.5-6.8-12c0 0 1-2.5 3.1-2.4 0 0 3.8.2 3 5.2 0 0-1.1 5 .7 9.2z"/><path d="M693.6 333.4s-3 2.2-4.1 3.6c0 0-1.2-1.4-2.8-2.3 0 0 1.8-.3 2.8.5 0 0 1.5-1.4 4.1-1.8z"/><path fill="#00b6d9" stroke="#012778" stroke-miterlimit="2.613" stroke-width=".623" d="M702.2 359.7s7.7-2 6.3-9.8c0 0-.8-3.5-4-3 0 0-3.9 1-1.4 6 0 0 1.5 3.6-.9 6.8z"/><path fill="#fcd80e" stroke="#0a1a1d" stroke-miterlimit="2.613" stroke-width=".831" d="M736.7 193.2s4.9 1.5 7.5 2.6c0 0 7.1 3.2 16.1 0 0 0 6.1-2.4 7-2.6l-4.7 7.1-.2 3.7 2.9 4.3s-1.8.7-7-2.5c0 0-5.8-4.5-12.7 0 0 0-3.8 2.5-7 2.5l4.5-5-1.7-4.5z"/><path fill="#faf6f5" d="M705.2 350.3s.3-.4 0-.6c0 0-.4-.1-.6.4 0 0-.8 1.2-.1 3 0 0 .6 1.1.3 2.4 0 0 0 .3.2.4 0 0 .3-.1.3-.4 0 0 .4-1.2-.2-2.4 0 0-.8-1.8 0-2.8z"/><g stroke="#0a1a1d"><path fill="#c40f38" stroke-linejoin="round" stroke-width=".831" d="M810.7 207.9s-5.5 2.8-7.8-.6c0 0-3-5.7 3.6-7.7 0 0-3.6-4.3.2-8.2 0 0 2-2.2 5.6-.6 0 0 1.4-3 4.8-3 0 0 3 0 4 3.3 0 0 4.2-1.7 6.4.8 0 0 3.8 4.2-1.5 7.6l-3.8.3-3.7-1.7-4.2 1.2s1.1 4.2-3.6 8.6z"/><path fill="#fcd80e" stroke-miterlimit="2.613" stroke-width=".831" d="M767.3 203.5s-.2 1-1.3 1.2c0 0-1.2.4-1.9-1v-.6c-.1-.6-.4-2.6 1.8-4.2 0 0 3.4-2.8 10 .6 0 0 5.3 2.5 8.9 4.6l10.4 5.5s4.1 2 10.4 2.3c0 0 8.6.6 12.3-5.4 0 0 2.8-4.6 0-7.5 0 0-1.1-1.4-3-1.1-.8 0-1.6.4-2.4 1.4 0 0-1.4 2 .2 3.4 0 0 2 1.2 2.7-1.4 0 0 0-.2.1 0 0 .2.5 2.2-.6 4 0 0-5.1 7.8-19.4-.4l-18.8-10.5s-9.5-4.9-15.1 2.7c0 0-4.6 6.3 1.3 10.4 0 0 4.4 2.6 7.1-1.5 0 0 2.3-4.1-1.3-5.9 0 0-3.2-1.5-4.4 1.7s2.4 4 2.8 1.7c0 0 0-.5.2 0z"/><g stroke-width=".623"><path fill="#fcd80e" stroke-miterlimit="2.613" d="M692.7 235.8v-11.7c0-1 0-1.7 1.4-2.9s2.9-2.9 5 2.2c0 0 4.2-4.4 5.6-5 0 0 2.5-2.2 4.2.9 0 0 2.2-3.4 4-4.3 0 0 4.2-2.7 4.4 5.5l3.2-3s2.6-2.1 5.4.7c0 0 4.7 4.6 5.4 6 0 0 1 1.4 1.1 3.6 0 0 0 2.6 1.3 4 0 0 1.5 1.3 3 1.6 0 0 3.4 0 4.6 3.3 0 0 .5-.6 2.2 14.8v28L724.6 302l-30.2-8.7-12-5-2.8-8.8 11.7-7.6 6.3-17.1-2-12z"/><path fill="#6c401f" d="m776.1 250.7 1.4-2.1 3.5-2.7s5.2 13.8 5.5 16.8v4.2s7.8 2 9.2 14l-6.5 12-10.2-5.6-2.9-2.2v-34.4z"/></g></g><path fill="#faf6f5" d="M680 345s.3-.5 0-.7c0 0-.1-.2-.6.3 0 0-2 2.3-.4 5.9 0 0 .2.5.5.3 0 0 .3-.1 0-.5 0 0-1.4-3 .4-5.3z"/><g stroke="#0a1a1d"><path fill="none" stroke-miterlimit="10" stroke-width=".831" d="M710.5 342.7s.4-1-.4-2.2c0 0-.5-.8-.3-1.9"/><path fill="none" stroke-miterlimit="10" stroke-width=".623" d="M717.3 220.5s0 3 .8 5.1 3.7 6 3.9 8"/><path fill="#c40f38" stroke-linejoin="round" stroke-width=".831" d="M788.5 322.7s4.7.3 7.2 1.5 4.3 2.6 7 4.4c0 0 1.4 1.7 6.9.7 0 0 9.5-2.3 9.5 5.1 0 0 11.4 1 6.8 11 0 0-3.2 7.8-9.8 2.2 0 0 4.2 6-3.9 8.4 0 0-5.8 1.4-7.5-4.5 0 0-.9-2.4 1.3-5.3 0 0-2.8-.6-4.7-3.6 0 0 6 7.6-.6 10.3 0 0-8.2 2-8.7-6.5 0 0 .7-4-2.5-5.4 0 0-6.5-1.5-9.5-8.8 0 0 9.4-5 8.5-9.5z"/><g stroke-width=".623"><path fill="#6c401f" d="m735.6 285.2-18.2-62.9-.7.2 16.1 63.7z"/></g></g><path fill="#faf6f5" d="M692.1 357.1s-2.1-2-1.8-5.7c0 0 .1-.8-.3-1 0 0-.4 0-.4.8 0 0-.6 3.9 2 6 0 0 .1.3.4.2 0 0 .3 0 .1-.3z"/><g stroke="#0a1a1d"><path fill="#fcd80e" stroke-miterlimit="2.613" stroke-width=".831" d="M813.3 275.1c-8.3-4.7-10.1-15.1-10.1-15.1-2-10.4 2-18.7 2-18.7 5.4-11.3 14.6-13.5 14.6-13.5s-9 6.3-11.5 14.7c0 0-2 7.2-.9 14.2 1.2 7 .7 5.2 2.5 10.6z"/><path fill="#6c401f" stroke-width=".38" d="m777.5 248.6-34.9 11-1.9 15.5c-8.3 12-25.1 14.2-25.1 14.2l13.1 14 25.2 5.2 13.2-10.2 12-11c-1.3-6-.6-14.7-.6-14.7 0-1.5.5-5 .5-5s-2-14.1-1.5-19z"/><g fill="none" stroke-miterlimit="10" stroke-width=".623"><path d="M741.2 271.2s23-7.1 36.7-13m-47.7 26.1s28.7-5.1 48.8-16.6l7.5-5"/><path d="m786.5 267-8 5.6s-32.1 14.8-56.5 15.2m56.5-4.7s-24.7 12.7-38.8 12.9"/></g><path fill="#c40f38" stroke-linejoin="round" stroke-width=".831" d="M807.9 247.6s7.3-3.4 10.8 0c0 0 4.9-3 10 0 0 0 4.9 3.1 8.2 6.6 0 0 2.4 2 1.5 8.5 0 0-1.2 4.5-.5 6.7 0 0 1.6-.3 4.9 3.5 0 0 4 4.8 7.7.6 0 0-1.1 5.9-8 5 0 0 3.4 2.5.5 9.1 0 0-2.1 4.8 1.3 10.7 0 0-6-2.4-5.7-9.4 0 0 .5-4.7-1.2-8 0 0 1.7 3-2.4 9.4 0 0-3 4.7-.5 9.5 0 0-5.9-2.1-5.3-9.2.6-7.1 4.1-4.1 1.8-10.7 0 0-.6 3.4-2.3 5a9.5 9.5 0 0 0-3 9.3s-3.5-4.4-2.7-8.8 1.6-5.8 1.6-5.8l-11-6.3-5.5-10z"/></g><path fill="#faf6f5" stroke="#012778" stroke-miterlimit="10" stroke-width=".831" d="M683 287.3s1-4.9 5.7-3c0 0 1.6-8 10-8.2 8.6-.3 9 8.3 9 8.8 0 0 2.5-3.6 6.7-3.2 0 0 7.2-.4 4.5 11.1l1.4 1.5s5.5-13 16.8-9.5c0 0 11 3.3 3.8 14 0 0 5.5 7 10 6.4s8.8-2 13.4-10.2 15.2-9.3 18-8.8 4.8 2.2 5.2 4.1c0 0 5.6-18.8 26-15.9l8 4.1 3.1 1.4-4.6 13-11.2 25.3-8.5 2.7-8.8-5.1-3.1 1.6-.3 7.6-11.7 8.4-8.1 3.4-9 6.1-2 5.5s-5-2.1-10.6 0l-1.9-4.6-5.2-5-20.3-9.5-3.7-11.9-3.7-1.6-4.2 4.7-6 .7-9.1-6.1z"/><g stroke="#0a1a1d"><g stroke-miterlimit="2.613"><g stroke-width=".831"><path fill="none" d="M771.5 195.1s-7.8-.3-7.5 7.7"/><path fill="#fcd80e" d="M822.5 280.6c-13.5-4.2-17.2-18.7-17.2-18.7-2.7-10.9 1.7-20.4 1.7-20.4 6.2-14.5 16.6-14.5 16.6-14.5 5.3-.1 5.9 4.4 5.9 4.4.5 3.1-1.7 4.3-1.7 4.3-3.6 2-5.9-.7-5.9-.7-1.5-2-.3-3.7-.3-3.7.9-1.3 2.7-.7 2.7-.7 1.3.4 1.2 2.2 1.2 2.2.1 0 0 0 0 0s.4-2.2-1.7-2.4c0 0-4-.9-8.8 5 0 0-6.3 8-6.3 18.4 0 0-.8 19.5 19.5 24.5 0 0-2.2 3.2-6 14.6 0 0-4.5 14.7-8.7 22.6 0 0-5.5 11.3-18 6.7 0 0-7.4-3.3-7.3-8.7 0 0-.6-4.9 3.9-5.2 0 0 4.3-.4 4.3 3.4 0 0 0 4-4.7 3 0 0-1.6-.3-1.3-2 0 0 .3-1.4 2.3-.7v-.1s-.8-.4-1.6 0c0 0-.7.2-.8 1.3 0 0 0 1 1 1.5 0 0 1.1.4 2 .3 0 0 1.3 2.5 4.2 3.4 4 1.2 7.2 0 9.2-1.6 2.1-1.7 3.6-4.7 4-5.5s4-8.9 6.8-17.7c0 0 2.4-7.5 4.3-11.5z"/><path fill="#fcd80e" d="M784.4 317.5s2.6-.4 2.6 1.9c0 0-.2 3.3-4.2 2.5 0 0-4-.8-2.5-5.2 0 0 .9-3.2 4.6-2.7 0 0 3.6.2 5.2 5.1 0 0 1.2 4.2-.8 7.8-2.4 4-8.2 6.6-11 7.7 0 0-11.4 4.5-14.8 7 0 0-5.2 4-2.9 7.5 0 0 .9 1.4 2.2 1.4 0 0 1.5 0 1.8-1.5 0 0-.2.9-1 1.3 0 0-1 .5-2.2-.5 0 0-1.3-1.1-.2-3 0 0 1.3-2.2 4.4-.9 0 0 2.8 1.4 1.7 4.3 0 0-1 2.7-4.4 2.7 0 0-2.5 0-4.1-1.8-2.5-2.6-2.6-7.7-.4-10.3 0 0 2-2.9 6.2-4.6 2.5-1 7-3 11.8-4.8 3.4-1.3 6.4-3 8.4-5.3 0 0 1.8-2 2.3-5.3 0 0 .5-2.6-1-3.1 0 0-.8-.4-1.7-.3z"/><path fill="none" d="M784.6 317.4s2.8-.5 4.6 2.9c0 0 1 2 1.2 3.3m.9-11.8s-2.8.5-1.4 4.4c1.4 3.7 3.9 5 4.6 5.5"/><path fill="#fcd80e" d="M736.7 203.5s0 1 1.2 1.2c0 0 1.2.4 1.9-1v-.6c.1-.6.4-2.6-1.7-4.2 0 0-3.5-2.8-10.1.6 0 0-5.2 2.5-8.9 4.6 0 0-9.3 5-10.4 5.4 0 0-4.1 2.1-10.4 2.4 0 0-8.6.6-12.3-5.4 0 0-2.7-4.6 0-7.5 0 0 1.2-1.4 3-1.1.8 0 1.6.4 2.5 1.4 0 0 1.3 2-.3 3.4 0 0-2 1.2-2.7-1.4 0 0 0-.2-.1 0 0 .2-.5 2.2.6 4 0 0 5.2 7.8 19.4-.4l18.8-10.5s9.5-4.9 15.1 2.7c0 0 4.6 6.3-1.3 10.4 0 0-4.3 2.6-7-1.5 0 0-2.4-4.1 1.2-5.9 0 0 3.2-1.5 4.4 1.7s-2.4 4-2.8 1.7c0 0 0-.5-.1 0zM690.6 275c8.3-4.7 10.1-15.1 10.1-15.1 2-10.4-2-18.7-2-18.7-5.4-11.3-14.6-13.5-14.6-13.5s9 6.3 11.5 14.7c0 0 2 7.1.9 14.2-1.2 7-.7 5.2-2.5 10.6z"/><path fill="none" d="M732.4 195.1s7.8-.3 7.5 7.7"/><path fill="#fcd80e" d="M681.4 280.6c13.5-4.2 17.2-18.7 17.2-18.7 2.7-10.9-1.7-20.4-1.7-20.4-6.2-14.5-16.6-14.5-16.6-14.5-5.2-.1-5.9 4.4-5.9 4.4-.5 3.1 1.8 4.3 1.8 4.3 3.5 2 5.8-.7 5.8-.7 1.5-2 .3-3.7.3-3.7-.9-1.3-2.6-.7-2.6-.7-1.4.4-1.3 2.2-1.3 2.2s-.4-2.2 1.7-2.4c0 0 4-.9 8.8 5 0 0 6.3 8 6.3 18.4 0 0 .8 19.5-19.5 24.5 0 0 2.2 3.2 6 14.6 0 0 4.5 14.7 8.7 22.6 0 0 5.6 11.3 18 6.7 0 0 7.4-3.3 7.4-8.7 0 0 .5-4.9-4-5.2 0 0-4.3-.4-4.3 3.4 0 0 0 4 4.7 3 0 0 1.6-.3 1.3-2 0 0-.2-1.4-2.2-.7h-.1v-.1s.8-.4 1.6 0c0 0 .8.2.8 1.3 0 0 0 1-1 1.5 0 0-1.1.4-2 .3 0 0-1.3 2.5-4.1 3.4a10 10 0 0 1-9.3-1.6c-2.1-1.7-3.5-4.7-4-5.5s-4-8.9-6.8-17.7c0 0-2.4-7.5-4.3-11.5z"/><path fill="#fcd80e" d="M719.5 317.5s-2.5-.4-2.5 1.9c0 0 .1 3.3 4.1 2.5 0 0 4-.8 2.6-5.2 0 0-1-3.2-4.7-2.7 0 0-3.6.2-5.2 5.1 0 0-1.2 4.2.8 7.8 2.4 4 8.2 6.6 11 7.7 0 0 11.4 4.5 14.8 7 0 0 5.2 4 3 7.5 0 0-1 1.4-2.3 1.4 0 0-1.5 0-1.8-1.5 0 0 .2.9 1 1.3 0 0 1.1.5 2.3-.5 0 0 1.2-1.1.2-3 0 0-1.4-2.2-4.5-.9 0 0-2.8 1.4-1.6 4.3 0 0 1 2.7 4.3 2.7 0 0 2.5 0 4.1-1.8 2.5-2.6 2.7-7.7.4-10.3 0 0-2-2.9-6.2-4.6-2.5-1-7-3-11.8-4.8a20.7 20.7 0 0 1-8.4-5.3s-1.8-2-2.3-5.3c0 0-.5-2.6 1-3.1 0 0 .8-.4 1.7-.3z"/><path fill="none" d="M719.3 317.4s-2.8-.5-4.6 2.9c0 0-1 2-1.2 3.3m-.9-11.8s2.8.5 1.4 4.4c-1.4 3.7-3.9 5-4.6 5.5m35.8-119.3s6.8-4.3 13.7.4"/></g><path fill="none" stroke-width=".623" d="M706.8 243.7s1-3.8-3.4-10.4c0 0-2.8-6-4.3-9.9m9.8-4.1s2.4 5.9 3.2 8.5l3.7 9"/></g><g stroke-width=".623"><path fill="none" stroke-miterlimit="10" d="M710 247.8s2.6 2.7 2.3 7.4m-10.6-10.3s2.8 1.3 2.6 8.8c0 0-.3 5.4 3.9 8.2m-7 1.9s8.9-1 9.3 4.4c0 0 .2 5.2 3.2 5.8 0 0 4.5.4 5.4 4.5m-15-8.7s1.5 2.3 3 3.3m8.2-9s2.2 3.3 2.7 5.3m7-46s2 2.8 4 4.1m4.2 12.5s4.3 2.1 3.6 13c0 0-.6 6.5 1.2 10"/><path fill="#6c401f" d="m712.6 232.5.3 1s7.8.4 12-5l-.4-1s-6.8-.3-11.9 5z"/><path fill="none" stroke-miterlimit="10" d="M740.8 274.4s27-8 37.5-12.7"/></g><path fill="#6c401f" stroke-width=".38" d="m737.6 223.7 13.4-5.1.3.9-13.4 5z"/></g><g fill="none" stroke-miterlimit="10"><path stroke="#0a1a1d" stroke-width=".623" d="m739 224.1 9 43.6m-7.4-44.1 10.1 43.3m-8.4-44 11.1 43m-6.7-44.7 15.1 32.3m-13.1-33 16.1 32M750.2 220l17.4 31.8M747.3 268l6.9-2.2m-12-2s20-6 35.3-12.1m-35.6 14.2s25.4-6.7 35.6-11.7m-27.9 32.4 1.4 4.1 3.6-1.1-1.2-4m6.5-1.9 1.4 4 3.6-1-1.2-4.1m-21-23-.4-5.5 33.4-10.2 1.8 4.7m-21 1.2 1.8 4.8m9.9-8.4 2.1 4.7m.6-5.5 2 4.4m.7-5.2 2 4.6m.1-5.3 3.7-2 1.6 4m-3.5-3 2 4.2"/><g stroke="#012778" stroke-width=".831"><path d="M694.6 306.5s-6.5-6.6 0-13c0 0-7-3.6-6-9.2m17.7 27.5s-6.7.9-4.7-12.3c0 0-2.8 5.2-3.8 8a6 6 0 0 0 2.6 7c1.2.6 7.2 2.2 9.2-1.8m-10.8-21.1s-2.8 2.5-.8 7.2m3.6-6.6s.3 4.5 2.6 7m-.7-8.8s0 5.3 3.9 8.6m-2-10.4s0 6 4.5 9.6m17.6-.9s2.2-4.9 7-4.6c0 0-2.3 1-2.3 3.3 0 0-.3 3.8 3.8 4.2 0 0 3.3.4 5-1.4"/><path d="M738.7 319.7s-11.7-5.4-10.5-13.3c0 0 .5-4.8 5.2-7"/><path d="M731 304.3s-1 3.4 1.2 5.8m1.4-8.1s-1.4 3.7 1 6.5m1.8-8.3s-1.7 3 .3 5.9m-11 14.4s6.4 5.5 11.4 5.6m-13.3-3.8s5.9 4.8 9.6 5.5m-11.9-4.2s7.4 6.5 12 7m17.9 5.9s-7.2 3.9-1.6 8m-3-12.3s8.2-4.3 11.7-5.9m-8.8 8.1s11.9-7.2 15.4-8.7m-9.3 9.2s10.1-6.7 15.5-9.7m-8.8 9.5s7-5.5 13.7-9.5m2.4-6.8s-3.4-5-14.7 0c0 0 4.2-3.7 12.3-6.6m11.3-21.5s1 4 0 6.5"/><path d="M769.3 310s2.4-3.5 8.3-5.2c0 0 1.6 4 6.2 3.1 0 0 7-1.3 4.9-9 0 0-1.5-5.7-9.4-6.2m23.6-9.6s8.1 1.5 8 8c0 0 .6 10-9.8 11.9"/><path d="M809.7 287.2s2.2-4.8 7.2-6.8"/><path d="M810.9 277.5s2.2 3.6 3.7 4.1m-4.9-1.2s2 2.5 2.8 3m-3.5-.6s1.1 1.6 2.1 2.2m-43.7-40.4s1.6-2.6 5.5-1.5m16 20.6s2.5-10.3 11.1-6.5"/><path d="M796.5 256.3s.9-4.7-1.2-7.1m-4.7 6.8s1.1 2 .2 3.6"/></g></g><path fill="#00b6d9" stroke="#012778" stroke-miterlimit="2.613" stroke-width=".623" d="M808.2 361.6s9.7-4.5 6.7-12c0 0-.9-2.6-3-2.4 0 0-3.8.2-3 5.2 0 0 1 5-.7 9.2z"/><path fill="#faf6f5" d="M811.7 357.1s2.2-2 1.9-5.7c0 0-.2-.8.2-1 0 0 .4 0 .5.8 0 0 .6 3.9-2 6 0 0-.2.3-.5.2 0 0-.3 0 0-.3z"/><path fill="#00b6d9" stroke="#012778" stroke-miterlimit="2.613" stroke-width=".623" d="M822 354.8s6.8-4.3 3.2-11.5c0 0-1.1-2-3.2-1.7 0 0-4.2 1.4-1 7.2 0 0 1.8 3.9 1 6z"/><path fill="#faf6f5" d="M823.7 345s-.3-.5 0-.7c0 0 0-.2.5.3 0 0 2 2.3.4 5.9 0 0-.1.5-.5.3 0 0-.3-.1 0-.5 0 0 1.5-3-.4-5.3z"/><path fill="#00b6d9" stroke="#012778" stroke-miterlimit="2.613" stroke-width=".623" d="M801.6 359.7s-7.6-2-6.2-9.8c0 0 .7-3.5 4-3 0 0 3.8 1 1.3 6 0 0-1.5 3.6 1 6.8z"/><path fill="#faf6f5" d="M798.7 350.3s-.3-.4 0-.6c0 0 .3-.1.6.4 0 0 .8 1.2 0 3 0 0-.5 1.1-.2 2.4 0 0 0 .3-.3.4 0 0-.2-.1-.3-.4 0 0-.4-1.2.3-2.4 0 0 .8-1.8-.1-2.8z"/><path d="M807 344.8s4.4-2.4 8 .4c0 0-.4-1.6-3.2-2.3 0 0-1.4-4.1-5.5-3.7 0 0 1.6 2 3.9 3.7 0 0-2.4.2-3.1 1.9zm3.3-11.4s2.9 2.2 4 3.6c0 0 1.2-1.4 2.8-2.3 0 0-1.8-.3-2.7.5 0 0-1.5-1.4-4.1-1.8z"/><path fill="none" stroke="#0a1a1d" stroke-miterlimit="10" stroke-width=".831" d="M793.3 342.7s-.3-1 .4-2.2c0 0 .5-.8.4-1.9m30.5-63s4.6-.3 5.3-3.8m8-2.4s-1.6 0-3 1.4c0 0-1.1 1.6-2.7 1.5"/><path d="M818 262.2s2.3 0 3.6-1.1c0 0 1.4-1 2.2.5 0 0 1.2 2.2-1 3.1 0 0-3 1.5 1.6 4.3 0 0-5.4-1.9-3.2-4.5 0 0 2.3-1.7 1.4-2.4 0 0-.2-.5-1.1.2-1 .6-2.8.3-3.6-.1z"/><path fill="#00b6d9" stroke="#012778" stroke-miterlimit="2.613" stroke-width=".623" d="M821.1 205s1.1-1.5.7-5.8 3.3-4.9 4.8-3.6c0 0 1.5 1.3.1 4a11 11 0 0 1-5.6 5.4z"/><path fill="#faf6f5" d="M822.6 201.7s1.4-1.5.7-4.8c0 0 0-.3.2-.4 0 0 .3 0 .4.3 0 0 .8 3.5-.9 5.4 0 0-.2.3-.4 0 0 0-.3-.2 0-.5z"/><path fill="#00b6d9" stroke="#012778" stroke-miterlimit="2.613" stroke-width=".623" d="M820 203.4s-.2-1.8-3.2-4.8-.6-5.7 1.3-5.7c0 0 2 0 2.6 3 .4 1.7.8 4-.8 7.5z"/><path fill="#faf6f5" d="M819.5 199.6s0-2.2-2.7-4.4c0 0-.3-.3-.1-.4 0 0 .2-.3.4-.1 0 0 3 2.4 3 5 0 0 0 .4-.3.3 0 0-.3 0-.3-.4z"/><path fill="#00b6d9" stroke="#012778" stroke-miterlimit="2.613" stroke-width=".623" d="M815.8 202s-.8-1.4-4.6-2.7-2.7-4.6-1.1-5.3c0 0 1.6-.7 3.4 1.5a10 10 0 0 1 2.3 6.6z"/><path fill="#faf6f5" d="M814.1 199.4s-.8-2-4.2-2.8c0 0-.4-.1-.3-.3 0 0 0-.4.4-.3 0 0 3.7.9 4.8 3.2 0 0 .2.4-.2.5 0 0-.3 0-.5-.3z"/><path fill="#00b6d9" stroke="#012778" stroke-miterlimit="2.613" stroke-width=".623" d="M818.1 203.5s-1.7.5-5.7-1.4-5.8 1.4-5.1 3.2c0 0 .7 1.9 3.8 1.5a11 11 0 0 0 7-3.3z"/><path fill="#faf6f5" d="M808.8 204.8s1.8 1.1 5.1-.2c0 0 .4 0 .4.2 0 0 .2.3-.2.4 0 0-3.5 1.4-5.7.2 0 0-.4-.3-.1-.5 0 0 .1-.3.5-.1z"/><path fill="none" stroke="#0a1a1d" stroke-miterlimit="2.613" stroke-width=".831" d="M812.3 190.8s2 1 1.5 3.3"/><path fill="none" stroke="#0a1a1d" stroke-miterlimit="10" stroke-width=".831" d="M821.1 191.1s.8 2.5 0 3.9"/><path fill="#00b6d9" stroke="#012778" stroke-miterlimit="2.613" stroke-width=".623" d="M682.5 205s-1-1.5-.6-5.8-3.4-4.9-4.8-3.6c0 0-1.5 1.3-.1 4a11 11 0 0 0 5.5 5.4z"/><path fill="#faf6f5" d="M681.1 201.7s-1.4-1.5-.7-4.8c0 0 0-.3-.2-.4 0 0-.4 0-.4.3 0 0-.8 3.5.8 5.4 0 0 .3.3.5 0 0 0 .2-.2 0-.5z"/><path fill="#00b6d9" stroke="#012778" stroke-miterlimit="2.613" stroke-width=".623" d="M683.7 203.4s.2-1.8 3.2-4.8.5-5.7-1.3-5.7c0 0-2 0-2.7 3-.4 1.7-.7 4 .8 7.5z"/><path fill="#faf6f5" d="M684.2 199.6s0-2.2 2.7-4.4c0 0 .2-.3.1-.4 0 0-.2-.3-.5-.1 0 0-3 2.4-3 5 0 0 0 .4.4.3 0 0 .3 0 .3-.4z"/><path fill="#00b6d9" stroke="#012778" stroke-miterlimit="2.613" stroke-width=".623" d="M687.9 202s.8-1.4 4.5-2.7 2.8-4.6 1.2-5.3c0 0-1.7-.7-3.4 1.5a10 10 0 0 0-2.3 6.6z"/><path fill="#faf6f5" d="M689.5 199.4s.9-2 4.3-2.8c0 0 .3-.1.3-.3 0 0-.1-.4-.4-.3 0 0-3.7.9-4.9 3.2 0 0-.1.4.2.5 0 0 .3 0 .5-.3z"/><path fill="#00b6d9" stroke="#012778" stroke-miterlimit="2.613" stroke-width=".623" d="M685.5 203.5s1.8.5 5.8-1.4 5.8 1.4 5 3.2c0 0-.7 1.9-3.8 1.5a11 11 0 0 1-7-3.3z"/><path fill="#faf6f5" d="M694.9 204.8s-1.9 1.1-5.2-.2c0 0-.3 0-.4.2 0 0-.1.3.2.4 0 0 3.5 1.4 5.8.2 0 0 .3-.3 0-.5 0 0 0-.3-.4-.1z"/><path fill="none" stroke="#0a1a1d" stroke-miterlimit="2.613" stroke-width=".831" d="M691.4 190.8s-2 1-1.5 3.3"/><path fill="none" stroke="#0a1a1d" stroke-miterlimit="10" stroke-width=".831" d="M682.5 191.1s-.8 2.5.1 3.9"/><path d="M769.7 168.3s1.3 3.6.8 6.9c-.5 3 .1 3.7 1.2 4.3 1 .5 3-.4 3.3-2.7 0 0 2.5 5-2.4 8.2 0 0-3.5 2.2-6.5-.7-1-1-1.5-3.8-1-6.4 0 0 .8-3.6-.5-7.2 0 0 2 2.1 1.5 6.4 0 0-1 7.7 4.6 7.3 0 0 4 0 4-4.8 0 0-1.4 1.7-3.2 1.1a3.3 3.3 0 0 1-2.3-3.6c.2-2 .8-5.7.5-8.8zm-6.4 12.6s-.3 6-5.8 7.5c0 0 .7-1-.5-4.1 0 0-1.2-1.8-1.1-4.5 0 0-1.8 1.4.2 5 1.2 2.2.2 4.9-.2 5-.4 0 9.2-1.3 7.4-9zm-7.2-6s-1.3-1.6-1.4-5c-.1-3.5-.8-4.4-1.2-4.8 0 0 .6 3 .5 4.9s0 2.9.3 3.8c0 0-3 .4-4.9-4-1.8-4.2-3.6-3.8-4.5-3.8 0 0 1 .1 3.1 4 2.2 3.8 2.8 4.6 8.1 4.8zm-14.1-9.2s1.7 4.2 1.8 6.4c0 0-4-1.3-5.2-4.9 0 0-4.3 1.5-2.7 6.5 0 0-3.7-1.3-5.4-4.4 0 0 2 1.6 4 2.3 0 0-.2-4 4.8-5.5 0 0 .8 3.6 3.3 4.4l-.6-4.8zm6.6-7.1s1.4 2 4.3 2.1c1.4 0 2.8-.3 4.3-2.1 0 0-.2 3.5-4.3 3.5 0 0-4.3.2-4.3-3.5zM731 182.8s2.1 2 2.5 2.6c0 0 1.5 1.5 2.8-.4 0 0 1.7-3 3.7-3 0 0-1.5 1-3 3.9 0 0-.5 1-1.7 1.2-.5 0-1.2.2-2.3-1 0 0-1-1-2-3.3zm21.9-38.5c-4.3 0-.7 3.3-.7 3.3.1 5.3-4 6.9-7 5.4-2.8-1.6-.6-5.4-.6-5.4s-3.2 2.2-1.1 5.2 7.4 1.7 9.4-1.1c2 2.8 7.4 4.2 9.4 1.1s-1.1-5.2-1.1-5.2 2.2 3.8-.7 5.4c-2.8 1.5-7-.1-7-5.4 0 0 3.7-3.3-.6-3.3zm2.6-5.6s1.5 2.5 1.2 6.4c0 0 1.3-3.9-1.2-6.4zm-13.1 6s-.3-2.8-3-3c0 0 2.3 1.6 3 3zm21 0s.4-2.8 3-3c0 0-2.2 1.6-3 3zm-25.3 4.2s2.2.7 3.5-1l-3.5 1zm-7-17s2.5-.3 5 3.4c0 0-2.4 1.3-3 2.1 0 0 0-1.2 1.2-2.3 0 0-.5-1.9-3.2-3.3zm42 0s-2.6-.3-5 3.4c0 0 2.4 1.3 3 2.1 0 0 0-1.2-1.2-2.3 0 0 .4-1.9 3.1-3.3zm-19.4 2.7s2.3.6 5-1c0 0 3.5-1.8 5.7 0 0 0-1.9-.8-5.6 1 0 0-3.7 2-5 0z"/><path fill="#faf6f5" d="M756 136.9s2-3.4 7.8-2.7c0 0-1.6 4.7-7.8 2.7z"/><ellipse cx="760.077" cy="135.848" fill="#6c401f" rx="1.155" ry="1.464"/><ellipse cx="760.077" cy="135.848" rx=".686" ry=".898"/><path d="M743.5 129.7s3.7.3 6 1.7c0 0 2.3 1.4 5-.6 0 0 3-1.7 4.9-4 0 0-4.5 3-6.2 3.5 0 0-1.5-1.2-2.2-2.9 0 0 .3-1.3 2.7-3.6 0 0-3.3 1-4 3.8 0 0 .7 1.7 2 3 0 0-.7.3-2.2-.7 0 0-3.5-1.2-6-.2zM753 152c-3.2 2.8 0 2.5 0 2.5s3.2.3 0-2.5zm-1.8-17.3s-2.3.6-5-1c0 0-3.6-1.8-5.7 0 0 0 1.9-.8 5.6 1 0 0 3.7 2 5 0z"/><path fill="#faf6f5" d="M748.7 136.9s-1.9-3.4-7.7-2.7c0 0 1.6 4.7 7.7 2.7z"/><ellipse cx="744.689" cy="135.848" fill="#6c401f" rx="1.155" ry="1.464"/><ellipse cx="744.689" cy="135.848" rx=".686" ry=".898"/><path fill="none" stroke="#0a1a1d" stroke-width="2" d="M865.7 106.7v211.7c0 56.6-113 75-113 75s-113.1-18.4-113.1-75V106.7z"/></svg>