<svg xmlns="http://www.w3.org/2000/svg" xmlns:xlink="http://www.w3.org/1999/xlink" width="1200" height="720"><path fill="#ffdc0f" d="M0 0h1200v720H0V0Z"/><path fill="#faf6f5" d="M0 40v180l1200 320V360L0 40Z"/><path d="M1200 680V520L0 200v160l1200 320ZM480 480l80 47h100"/><g fill="#c40f38"><path id="a" d="M601 199h-1l-28 1-2 11-6 14 1 1 10-8 6 8 10-8 5 5v29l-24-16h-2c-19 9-54 13-86 11v3c5 9 15 16 28 16 5 7 17 12 28 12 10 14 37 15 48 0l2 2-5 7 7 13c-7 7-5 17 4 24l4-5h1V199Zm-9 184c1-4 5-8 8-10l1-1v-46l-1-3c-2 2-5 6-5 8-2-2-5-3-8-3-1 0-3 0-4 1 6 4 9 7 9 16 0 7-7 15-7 23 0 6 2 13 7 15Zm-3 68c-2-8 5-17 11-23l1-1v-49l-1-1c-3 3-5 6-6 12-2-2-7-6-11-6q-1 0-2 1c3 3 6 7 6 16 0 10-8 16-8 31 0 7 2 13 10 20Zm11 15 1-1v-30l-1-2c-4 4-8 11-8 16 0 3 1 4 2 5l-2 2c-3-1-9-6-11-9l-15-5c2 14 17 24 34 24Zm0 53 1-1v-49h-1c-67 0-119-53-119-120 0-16 4-38 9-52h-1c-16 15-29 52-29 83 0 78 61 139 140 139ZM382 327c1-2 3-3 4-3-1-7-3-16-8-16h-1c2 4 2 10 2 12l3 7Zm8 18c-5-5-8-11-8-14l-5-10c0-6 0-16-6-16-1 0-2 1-2 2 1 3 2 8 2 14 6 6 9 14 9 19l10 5Zm4 13-3-10-13-7c0-5-3-13-9-19 0-6-1-20-6-20-2 0-3 2-3 4l2 14c6 6 10 15 10 22 6 3 16 10 22 16Zm-4 75c8 9 26 9 35 0v-52c0-12-8-23-16-33s-18-22-21-22-4 2-4 4c0 4 4 10 9 15l4 17-1 1c-5-5-17-15-26-20 0-7-4-16-10-22-1-9-1-21-6-21-3 0-4 2-4 8 0 20 7 40 17 50 9 9 24 25 24 36l-1 39Zm210 136 1-1v-45h-1c-39 0-78-17-100-39-9-9-22-11-30-3-7 7-7 18 1 26-11-11-34 0-28 18-9 4-15 14-13 23 4-4 15-8 24-8 21 0 34 24 50 24 8 0 15-6 17-15 19 12 53 20 79 20ZM387 445c10 9 30 9 41 0 2-3 1-7-1-9-12 10-28 10-39 0-2 2-3 6-1 9Zm-3 12c11 9 35 9 46 0 2-3 1-7-1-9-13 10-31 10-44 0-2 2-3 6-1 9Zm-2 12c12 9 38 9 50 0 2-3 1-7-1-9-13 10-35 10-48 0-2 2-3 6-1 9Z"/><use xlink:href="#a" transform="matrix(-1 0 0 1 1200 0)"/><path d="M597 200h6v-14h30l-13-12 13-12h-36v38Z"/></g><path fill="#ffdc0f" d="M596.3 543.05c-4.47 4.9 6.09 10.05-12.5 11.77-.85.61-15.5-2.32-11.57.97 3.82 2.86 14.41 1.6 19.01.6 3.92-1.3 6.15-3.67 7.75-8.25 1.6-4.11 2.18-8.51-2.69-5.1Zm18.42-6.26c-1.68 2.75-1.64 2.93.78 3.56 4.73 1.32 6.94 10.54 1.11 9.81-3.54.03-4.51.53-5.46 2.82-1.23 2.48-1.42 4.84 1.67 2.5 1.84-1.61 8.21-2.63 9.37-5.33 3.05-4.55 2.48-8.47-2-13.75-2.44-2.87-3.52-2.79-5.46.39Zm-12.48-5.18c-.2.63.13 2.08.72 3.22.9 1.76 1.02 3.4.75 10.28-.35 8.7.22 10.16 2.03 5.21 1.06-.52.98-20.03.38-21.21-.59-.59-3.5 1.29-3.88 2.49Zm-13.12 14.57c.81-3.4 1.12-10.92 2.11-14.18 1-3.4 0-4.29-2.69-2.39l-1.99 1.42c.8 5.87.61 15.73-.91 20.66-.19 2.16 3.69-4.37 3.49-5.52Zm-11-10.11c-.04-2.78 1.87-6.07.71-8.52-3.36.56-5.48 3.7-3.81 6.89.08 3.67-.11 7.67-2.05 10.88-1.58 2.1-6.45 1.49-6.18-1.52 1.3-4.5-4.16-2.39-6.29-1.24-1.65 1.11-5.11 1.14-3.86-1.69-.73-3.81-5.65-1.51-8.3-1.57-2.51-.09-.12-5.08-3.73-4.26-6.67-.64-14.06-.17-19.78-4.3-3.36-1.68-2.79-5.75-.98-8.35 2.16-3.56 2.84-8.06 6.23-10.79 3.36-3.12-3.09-1.88-4.56-.84-3.25 1.71-.33 6.3-3.01 8.78-1.58 2.59-3.67 6.16-7.23 5.61-5.13-1.06-8.02-5.89-11.65-9.16-3.15-.68-1.47 5.1.14 6.34 3.19 2.47 6.93 4.29 10.81 5.4 3.88-.56 3.93 4.52 7.22 5.37 6.03 2.93 12.79 3.89 19.41 4.34 2.6.26 1.06 4.87 4.5 4.01 1.9.53 6.24-.61 6.42 1.62-2.96 3.4 2.73 3.41 4.84 2.83 2.7-.37 6.16-1.34 6.81 2.36 2.5 2.63 7.49 2.22 10.19.04 3.63-2.94 3.31-8.07 4.17-12.23Zm-57.56-32.17c-1.48.3-2.09.83-2.35 2.1-.9 4.15-2.48 8.39-3.86 10.35-4.35 5.64-.97 4.13 1.41 1.27 2.27-2.5 4.71-8.98 6.78-11.29 1.76-1.84.82-3-1.98-2.43Zm-15.48-3.76c-1.05-.02-3.07.79-4.67 1.92-5.01 3.5-10.29 2.69-13.11-2.02-2.31-3.89-4.76-6.04-6.95-6.08-2.75-.04-2.9 1.69-.23 2.67 1.29.47 2.37 1.58 3.23 3.37 2.53 5.24 4.04 6.19 10.97 6.9l4.44.48c.1 1.1.14 5.3.93 5.45 5.51-.79 16.57-11.29 5.39-12.68Zm-2.56 6.65c-.55-1.49.27-2.88 1.7-2.86 2.96-.22.11 6.24-1.7 2.86Zm192.3 2.68c-.27-7.12-.25-11.69-6.32-10.85-5.37.33-5.47 10.45-3.11 13.22 1.48 3.18 7.33-3.53 7.21.45.11 6.9-8.86 15.25-15.19 20.96-.41 1.26 1.99.86 4.88-.81 3.93-2.27 8.95-7.96 10.91-12.34 1.55-3.49 1.73-4.66 1.63-10.63Zm-4.9-1.43c-2.29 3.16-5.4-5.47-1-5.6 2.44-.61 2.38 4.64 1 5.6Zm-21.61 16.67c-1.69 0-2.03-1.17-1.31-4.4.71-3.15-.15-7.1-1.53-7.1-6.36 2.96 1.94 8.52-4.72 12.74-1.8 1.07-2.38 3.28-1.73 4.51.47-.09 4.81-2.56 5.97-3.2 1.17.86 3.43 2.58 3.38 3.97 0 3.5-9.97 9.37-16.81 9.92-7.08 1-7.29-3.12-5.81-7.97.63-3.04-.68-2.63-2.94.92-1.86 2.94-2.41 6.07-1.36 7.72 2.94 2.87 13.38 3.28 18.21.24 5.74-2.83 9.13-6.01 11.31-10.62 1.03-2.19 1.88-4.25 1.88-4.61 0-.8-2.83-2.11-4.53-2.11Zm41.77-31.43c-1.14 1.72-2.72 2.81-8.57 5.88-3.88 2.18 1.55 14.41-6.25 22.83-4.62 5.74.78 3.58 3.24.5 4.65-4.33 4.83-13 4.13-20.12 3.9-1.63 10.33-6.62 10.05-9.52-.11-2.1-1.04-1.94-2.6.43Zm-51.03 24.34c.45-1.37-2.15-2.34-3.27-1.23-1.93 2.36 2.46 3.58 3.27 1.23Zm50.85-14.84c-1.41 1.89 2.02 2.67 2.55.81.3-1.07-1.74-1.71-2.55-.81Zm-65.69-1.06c.57-1.9 3.06-1.4 4.53-2.15 10.46-4.06 3.83-17.08 1.74-24.7-1.11-2.26-1.04-5.84-2.91-7.4-1.4.67-2.13 2.18-3.11 3.34-.7.48-.14.92.26 1.37 2.48 2.67 3.53 6.27 4.7 9.63 1.19 4.02 4.57 14.84-2.18 15.06-2.98-.19-5.9-.98-8.89-.94-2.66.14-4.71 2.56-7.43 2.29-1.74.11-1.66-3.55-3.27-2.57-.8 1.91-.41 4.05-.5 6.07.9.32 5.89.02 7 .12.31 5.32 2.22 7.06 7.36 4.8 1.89-.88 2.14-3.15 2.68-4.92Zm-3.09 1.84c-1.99 4.17-7.42-4.09-2.45-3.96 2-.13 2.87 2.33 2.45 3.96Zm-9.52-15.36c-3.86-.36-8.41-2.86-11.85-3.1-2.51-.04-4.91 1.48-4.94 3.1-.3 2.88 8.05-1.83 9.78 4.07-1.99 1.82-10.07 5.66-13.62 3.29-2.25-1.22-5.58-1.45-6.23-.45-.27.44-.98.14-1.95-.8l-1.51-1.47-3.49 1.38c-3.55 1.4-4.85 1.32-4.82-.36.01-.77-1.02-.87-6.22-.63-5.73.27-6.33.16-7.38-1.05-.97-1.12-.98-1.5-.26-2.62.67-1.03.67-1.48.07-2.11s-1.41-.63-3.68-.07c-11.82 3.5-3.5-7.15-10.66-8.29-5.44.51-11.02 8.93-6.08 10.57 2.58 1.29 1.9 2.75-2.24 4.72-5.91 2.82-11.08 2.37-20.84-1.87-2.4-1.04-3.03-.67-2.51 1.55.5 2.18 2.46 3.4 7.37 4.61 8.68 1.8 16.39 1.08 22.35-5.43l3.25-3.45 3.7.53c9.47.63-.16 4.75 8.88 5.13 17.82.66 4.25 3.77 18.65 2.55 9.14-1.31 9.95 1.6 16.7 1.55 4.96-.47 11.85-4.4 12.9-7.35.12-.36 1.93-.97 4.01-1.34 5.02-.91 5.25-2 .6-2.66Zm-66.78-2.5c-2.33 2.97-5.64-1.54-1.46-2.54.9.07 1.86 1.71 1.46 2.54Zm-28.07-26.43c-.01.65-2.95 4.36-6.53 8.25-7.47 8.12-8.11 9.83-4.53 12.09 2.88 1.84 6.63 1.77 9.6-.17l2.41-1.58-.05 2.94c-.75 8.23 9.88 9.9 15.44 6.32 3.51-2.14 3.42-1.97 4.03-8.07.42-4.3.37-4.63-.8-4.65-3.64-.46-1.63 8.19-4.33 9.85-4.52 3.9-15.18-.37-9.25-6.65 3.21-4.39 2.52-5.49-1.38-2.19-2.68 2.26-3.15 2.32-2.62.34.49-1.83-.46-2.57-2.62-2.07-2.38.2-1.63 4.27-3.94 4.52-1.75.41-4.68-1.29-4.66-2.7.02-1.04 4.55-6.38 10.35-12.19 2.19-2.2 3.98-4.25 3.99-4.57-.13-.73-5.82-1.12-5.12.52Zm149.22 19.77c1.68-3.79.51-8.09 1.64-11.98 1.6-2.9 5.28-2.2 8.01-2.12 2.83-.04 5.32-3.27 4.44-6.04-.99-6.36 10.8-4.89 10.28-13.83-.08-1.81.09-5.23-2.35-5.46-2.76 1.56-.71 5.02-.35 7.29-3.84 6.63-12.8 1.47-16.82 11.85-.9 2.34-3.03 5.96-5.16 2.31-5.24-5.32-9.57-1.29-10.71 4.81-2.41-8.15-8.66-4.55-4.28 1.8 1.43 2.13 2.79 4.94 1.27 7.4-1.35 2.97-5.82 4.88-8.36 2.25-2.4-1.34-.66-5.88-3.05-6.18-1.2.83-1.42 5.61-3.24 2.97-1.31-2.25-.52-5.27-2.14-7.31-1.98.2-3.65 3.56-3.04 5.4 2.55 3.61 3.52 8.1 4.45 12.35.6 1.71-.22 5.13 1.35 5.84 1.16-2.7.22-5.82 1.15-8.55 7.01.87 13.33 1.17 16.48-6.6.35-10.3-1.35-8.18 9.15-6.2 1.4 2.26-.59 5.34-1.05 7.76-1.65 4.92-5.62 8.43-9.48 11.66-1.6.9-1.88 3.37.49 2.09 5.13-2.05 9.03-6.56 11.33-11.49Zm10.74-21.29c3.25.95-.76 7.11-2.41 3.1-.5-1.52.81-3.2 2.41-3.1Zm-16.24 7.24c-1.84-.98-1.17-3.29.94-3.13 4.27-.15 2.59 6.04-.94 3.13Zm-156.19 19.64c.7 1.18 2.3.54 2.64-1.05.29-2.71-4.05-.76-2.64 1.05Zm51-5.14c1.11.02 1.63-.47 1.65-1.59-.2-3.89-5.51 1.14-1.65 1.59Zm-69.94-23.54c-1.93.5-4.02-.27-5.66-1.29-1.96-1.02-1.47-3.39-2.29-5.05-1.41-1.15-3.98.41-3.95 2.16-.16 4.79 6.63 4.43 8.12 8.14-.07 1.63.55 3.5 2.54 2.91 2.22 0 2.75 2.72 1.82 4.32-1.69 2.77-2.37 9.64 1.75 3.85 2.61-4.26 9.04-.35 13.38-1.28 6.83-.37 9.58-8.02 14.63-11.54 2.75-.97.21-7.66-5.07.95-3.68 4.31-7.83 10.08-14.23 7.45-.88-.8 1.8-1.39 2.19-2.25 1.25-1.21 2.73-2.35 3.47-3.95-3.97-4.79-9.7 1.68-14.31 1.87-5.77-.48 6.67-10.35 7.78-12.25 2.17-1.46 3.81-2.96-.11-3.15-4.11-.66-5.33 7.68-10.08 9.1Zm8.94 6.54c.83-.41 1.71-.85 2.65-.91 1.81 1.06-1.21 2.69-2.47 2.43-1.66.47-1.66-1.22-.19-1.53Zm-3.03 2.83c1.04 0 3.2 1.04 1.14 1.64-1.44 1.08-3.01-1.18-1.14-1.64Zm42.61 4.88c1.16-.14 2.1-.85 2.11-1.6.03-1.93-3.44-1.72-3.86.23-.27 1.26.12 1.57 1.75 1.36Zm111.88-8.88c.29-1.32-1.54-2.25-2.53-1.3-1.69 2.06 1.82 3.87 2.53 1.3Zm-178.91-17.48c3.9 2.33 5.47 2.43 7.79.49 1.75-1.45 1.78-1.55 1.09-4.82-.98-4.58-.9-5.07.84-5.48 2.73-.58 12.93 4.9 8.18 8.47-1.79 1.59-1.81 3.48-.05 3.52 1.45.03 5.54-3.7 5.56-5.07.03-1.9-4.34-6.45-7.84-8.15-4.56-1.88-13.82-4.22-10.87 4.53 1.32 6.18-.64 6.98-5.51 2.25-6.42-5.09-7.8-21.86 2.83-22.39 3.47-.4 3.4-1.22-.15-1.81-5.19-.88-9.65 2.52-11.43 8.7-1.98 6.85 2.12 15.31 9.57 19.77Zm208.66-7.39c1.61 1 1.9 1.52 1.59 2.89-.53 2.37.44 3.23 1.99 1.76 1.23-1.66.65-3.56 2.49-5.56 2.69-2.86 1.77-4.87-1.9-2.67-1.64 1.22-2.85 1.22-2.82 0 .8-1.46 6.19-2.71 2.38-4.51-3.87-2.41-8.09 6.15-3.73 8.1Zm16.24-29.41c-1.37-.03-1.25 5.03.13 5.5 3.75.59 16.04 12.35 13.17 15.92-1.16 2.06-2.62 1.38-6.57-3.07-2.08-2.34-4.14-4.25-4.57-4.27-1.96 1.78-.55 4.36 1.9 7.22 4.53 4.75 2.75 7.8-1.15 9.42-.23 0-.95-1.16-1.61-2.56-1.36-2.94-9.91-12.41-11.22-12.44-1.56.4-1.27 4.97.75 5.37 1.72.95 5.91 5.38 10.11 10.71 2.96 3.51 2.2 3.4 5.73.54 1.44-1.23 2.63-2.65 2.64-3.13 3.65-4.6 9.46-5.7 6.31-13.52.44-1.61-13.98-15.33-15.62-15.69Zm17.86 7.94c-.53-1.85-12-14.24-13.2-14.27-.63-.02-.84.73-.74 2.65.11 2.34.36 2.75 1.96 3.21.99.29 4.04 2.8 6.75 5.57 3.41 3.09 6.25 7.04 5.24 2.84Zm-76.6 132.61c-.03 2.08 3.53 2.08 3.5 0 .03-2.08-3.53-2.08-3.5 0Zm6.18-2.06c-.03 2.08 3.53 2.08 3.5 0 .03-2.08-3.53-2.08-3.5 0Z"/></svg>