<svg xmlns="http://www.w3.org/2000/svg" xmlns:xlink="http://www.w3.org/1999/xlink" width="1200" height="720" fill="#faf6f5"><path fill="#012778" d="M0 0h1200v720H0Z"/><path d="m600 34-154 96h154v100H446l154 96v34h-67L350 243v117H250V243L62 360H0v-34l154-96H0V130h154L0 34V0h67l183 117V0h100v117L538 0h62Z"/><path fill="#c40f38" d="M174 130 0 22V0l212 130ZM330 0h-60v150H0v60h270v150h60V210h270v-60H330Zm270 0h-38L350 130h38L600 0ZM0 360h38l212-130h-38Zm388-130 212 130v-22L426 230Z"/><g transform="translate(900 360)"><g id="b"><path id="a" d="m0-249 26 81-69-50h86l-69 50Z"/><use xlink:href="#a" transform="rotate(24)"/><use xlink:href="#a" transform="rotate(48)"/></g><use xlink:href="#b" transform="rotate(72)"/><use xlink:href="#b" transform="rotate(144)"/><use xlink:href="#b" transform="rotate(216)"/><use xlink:href="#b" transform="rotate(288)"/></g></svg>