<svg xmlns="http://www.w3.org/2000/svg" xmlns:xlink="http://www.w3.org/1999/xlink" width="1000" height="600"><style>.B{stroke:#0a1a1d}.C{stroke-linejoin:round}.D{fill:#faf6f5}.E{fill:none}.F{stroke-linecap:round}.G{stroke-width:.65}.H{stroke-width:3}.I,.J{fill:#6c401f}.K,.L{fill:#012778}.M{fill:#e30631}.N{fill:#62c1f2}</style><linearGradient id="A" gradientUnits="userSpaceOnUse"><stop offset="0" stop-color="#fcd80e"/><stop offset="1" stop-color="#cb8500"/></linearGradient><radialGradient xlink:href="#A" id="B" cx="416.38" cy="814.57" r="7.422" gradientTransform="matrix(1 0 0 1.0057 .006 -4.636)"/><radialGradient xlink:href="#A" id="C" cx="393.34" cy="837.95" r="7.506" gradientTransform="matrix(1 0 0 .991 .006 7.468)"/><radialGradient xlink:href="#A" id="D" cx="416.58" cy="860.97" r="7.422" gradientTransform="matrix(1 0 0 1.0082 .006 -7.063)"/><radialGradient xlink:href="#A" id="E" cx="439.62" cy="837.58" r="7.506" gradientTransform="matrix(1 0 0 .9878 .006 10.237)"/><radialGradient xlink:href="#A" id="F" cx="416.51" cy="837.65" r="11.146" gradientTransform="matrix(1 0 0 .9885 .006 9.646)"/><radialGradient xlink:href="#A" id="G" cx="760.54" cy="474.25" r="12.039" gradientTransform="matrix(1 0 0 .993 -.006 3.294)"/><radialGradient xlink:href="#A" id="H" cx="731.81" cy="474.25" r="12.039" gradientTransform="matrix(1 0 0 .993 -.006 1.88)"/><radialGradient xlink:href="#A" id="I" cx="703.46" cy="474.25" r="12.039" gradientTransform="matrix(1 0 0 .993 -.006 3.294)"/><radialGradient xlink:href="#A" id="J" cx="771.02" cy="499.67" r="12.039" gradientTransform="matrix(1 0 0 .991 -.006 4.502)"/><radialGradient xlink:href="#A" id="K" cx="742.68" cy="499.67" r="12.039" gradientTransform="matrix(1 0 0 .991 -.006 4.502)"/><radialGradient xlink:href="#A" id="L" cx="714.14" cy="499.67" r="12.039" gradientTransform="matrix(1 0 0 .991 -.006 4.502)"/><radialGradient xlink:href="#A" id="M" cx="772.18" cy="526.29" r="12.039" gradientTransform="matrix(1 0 0 .993 -.006 3.655)"/><radialGradient xlink:href="#A" id="N" cx="745.39" cy="525.29" r="12.039" gradientTransform="matrix(1 0 0 .993 -.006 3.648)"/><radialGradient xlink:href="#A" id="O" cx="716.86" cy="525.29" r="12.039" gradientTransform="matrix(1 0 0 .993 -.006 3.648)"/><radialGradient xlink:href="#A" id="P" cx="768.04" cy="552.78" r="11.383" gradientTransform="matrix(1 0 0 .9892 -.006 5.991)"/><radialGradient xlink:href="#A" id="Q" cx="741.28" cy="552.78" r="11.347" gradientTransform="matrix(1 0 0 .9923 -.006 4.237)"/><radialGradient xlink:href="#A" id="R" cx="714.26" cy="552.78" r="11.385" gradientTransform="matrix(1 0 0 .989 -.006 6.08)"/><radialGradient xlink:href="#A" id="S" cx="761.91" cy="580.39" r="10.886" gradientTransform="matrix(1 0 0 .9926 -.006 4.303)"/><radialGradient xlink:href="#A" id="T" cx="737.53" cy="577.5" r="10.886" gradientTransform="matrix(1 0 0 .992 -.006 4.59)"/><radialGradient xlink:href="#A" id="U" cx="711.71" cy="576.36" r="10.886" gradientTransform="matrix(1 0 0 .9926 -.006 4.272)"/><radialGradient xlink:href="#A" id="V" cx="751.9" cy="604.02" r="10.462" gradientTransform="matrix(1 0 0 .9892 -.006 6.531)"/><radialGradient xlink:href="#A" id="W" cx="729.67" cy="600.54" r="9.95" gradientTransform="matrix(1 0 0 .9991 -.006 .513)"/><radialGradient xlink:href="#A" id="X" cx="706.08" cy="597.51" r="8.123" gradientTransform="matrix(1 0 0 .9973 -.006 1.636)"/><radialGradient xlink:href="#A" id="Y" cx="741.9" cy="625.39" r="9.95" gradientTransform="matrix(1 0 0 .9991 -.006 .535)"/><radialGradient xlink:href="#A" id="Z" cx="720.45" cy="618.78" r="8.345" gradientTransform="matrix(1 0 0 1.0069 -.006 -4.273)"/><radialGradient xlink:href="#A" id="a" cx="700.55" cy="614.7" r="7.03" gradientTransform="matrix(1 0 0 .9964 -.006 2.18)"/><radialGradient xlink:href="#A" id="b" cx="731.65" cy="644.12" r="9.333" gradientTransform="matrix(1 0 0 .9983 -.006 1.067)"/><radialGradient xlink:href="#A" id="c" cx="712.98" cy="635.08" r="7.792" gradientTransform="matrix(1 0 0 1.006 -.006 -3.791)"/><radialGradient xlink:href="#A" id="d" cx="695.15" cy="628.49" r="6.64" gradientTransform="matrix(1 0 0 .9977 -.006 1.462)"/><radialGradient xlink:href="#A" id="e" cx="718.42" cy="660.82" r="8.623" gradientTransform="matrix(1 0 0 1.0025 -.006 -1.666)"/><radialGradient xlink:href="#A" id="f" cx="702.21" cy="650.42" r="7.301" gradientTransform="matrix(1 0 0 .999 -.006 .647)"/><radialGradient xlink:href="#A" id="g" cx="686.7" cy="642.53" r="6.091" gradientTransform="matrix(1 0 0 1.0069 -.006 -4.435)"/><radialGradient xlink:href="#A" id="h" cx="707.38" cy="674.82" r="7.953" gradientTransform="matrix(1 0 0 .9913 -.006 5.871)"/><radialGradient xlink:href="#A" id="i" cx="693.57" cy="664.01" r="6.615" gradientTransform="matrix(1 0 0 1.013 -.006 -8.648)"/><radialGradient xlink:href="#A" id="j" cx="680.18" cy="655.53" r="5.651" gradientTransform="matrix(1 0 0 1.0053 -.006 -3.497)"/><radialGradient xlink:href="#A" id="k" cx="694.25" cy="686.15" r="6.753" gradientTransform="matrix(1 0 0 1.0099 -.006 -6.764)"/><radialGradient xlink:href="#A" id="l" cx="682.92" cy="676.43" r="5.721" gradientTransform="matrix(1 0 0 1.0058 -.006 -3.938)"/><radialGradient xlink:href="#A" id="m" cx="671.83" cy="668.65" r="4.779" gradientTransform="matrix(1 0 0 1.0244 -.006 -16.33)"/><radialGradient xlink:href="#A" id="n" cx="682.71" cy="696.23" r="6.282" gradientTransform="matrix(1 0 0 1.008 -.006 -5.585)"/><radialGradient xlink:href="#A" id="o" cx="673.31" cy="686.5" r="5.292" gradientTransform="matrix(1 0 0 1.017 -.006 -11.63)"/><radialGradient xlink:href="#A" id="p" cx="663.89" cy="678.28" r="4.489" gradientTransform="matrix(1 0 0 1.0086 -.006 -5.844)"/><radialGradient xlink:href="#A" id="q" cx="671.6" cy="705.18" r="6.282" gradientTransform="matrix(1 0 0 1.0059 -.006 -4.166)"/><radialGradient xlink:href="#A" id="r" cx="662.2" cy="695.65" r="5.292" gradientTransform="matrix(1 0 0 1.0106 -.006 -7.342)"/><radialGradient xlink:href="#A" id="s" cx="654.58" cy="687.37" r="4.49" gradientTransform="matrix(1 0 0 1.0167 -.006 -11.49)"/><radialGradient xlink:href="#A" id="t" cx="646.03" cy="696.48" r="4.136" gradientTransform="matrix(1 0 0 1.0235 -.006 -16.403)"/><radialGradient xlink:href="#A" id="u" cx="653.02" cy="704.68" r="4.489" gradientTransform="matrix(1 0 0 1.0055 -.006 -3.892)"/><radialGradient xlink:href="#A" id="v" cx="660.59" cy="713.14" r="4.846" gradientTransform="matrix(1 0 0 1.0171 -.006 -12.2)"/><radialGradient xlink:href="#A" id="w" cx="637.01" cy="705.72" r="3.872" gradientTransform="matrix(1 0 0 1.011 -.006 -7.714)"/><radialGradient xlink:href="#A" id="x" cx="642.62" cy="712.94" r="4.135" gradientTransform="matrix(1 0 0 1.0138 -.006 -9.865)"/><radialGradient xlink:href="#A" id="y" cx="649.42" cy="720.03" r="4.405" gradientTransform="matrix(1 0 0 1.0073 -.006 -5.25)"/><radialGradient xlink:href="#A" id="z" cx="628.35" cy="711.82" r="3.517" gradientTransform="matrix(1 0 0 1.0268 -.006 -19.049)"/><radialGradient xlink:href="#A" id="AA" cx="633.37" cy="718.62" r="3.871" gradientTransform="matrix(1 0 0 1.0211 -.006 -15.183)"/><radialGradient xlink:href="#A" id="AB" cx="639.59" cy="726.09" r="4.048" gradientTransform="matrix(1 0 0 1.0317 -.006 -23.056)"/><radialGradient xlink:href="#A" id="AC" cx="621.03" cy="717.31" r="3.417" gradientTransform="matrix(1 0 0 1.0162 -.006 -11.635)"/><radialGradient xlink:href="#A" id="AD" cx="625.6" cy="723.58" r="3.634" gradientTransform="matrix(1 0 0 1.019 -.006 -13.684)"/><radialGradient xlink:href="#A" id="AE" cx="629.94" cy="730.32" r="3.904" gradientTransform="matrix(1 0 0 1.0334 -.006 -24.397)"/><radialGradient xlink:href="#A" id="AF" cx="614.05" cy="721.3" r="3.053" gradientTransform="matrix(1 0 0 1.0098 -.006 -7.086)"/><radialGradient xlink:href="#A" id="AG" cx="617.69" cy="727.85" r="3.256" gradientTransform="matrix(1 0 0 1.0159 -.006 -11.57)"/><radialGradient xlink:href="#A" id="AH" cx="621.24" cy="734.22" r="3.473" gradientTransform="matrix(1 0 0 1.0053 -.006 -3.906)"/><radialGradient xlink:href="#A" id="AI" cx="606.69" cy="724.91" r="2.946" gradientTransform="matrix(1 0 0 1.0049 -.006 -3.546)"/><radialGradient xlink:href="#A" id="AJ" cx="609.28" cy="730.85" r="3.122" gradientTransform="matrix(1 0 0 1.0186 -.006 -13.586)"/><radialGradient xlink:href="#A" id="AK" cx="612.94" cy="737.49" r="3.378" gradientTransform="matrix(1 0 0 1.0156 -.006 -11.523)"/><radialGradient xlink:href="#A" id="AL" cx="600.03" cy="728.91" r="2.506" gradientTransform="matrix(1 0 0 1.0265 -.006 -19.31)"/><radialGradient xlink:href="#A" id="AM" cx="602" cy="734.39" r="2.724" gradientTransform="matrix(1 0 0 .9888 -.006 8.212)"/><radialGradient xlink:href="#A" id="AN" cx="604.74" cy="740" r="2.914" gradientTransform="matrix(1 0 0 1.0027 -.006 -1.96)"/><radialGradient xlink:href="#A" id="AO" cx="685.79" cy="453.08" r="8.107" gradientTransform="matrix(1 0 0 .9966 1.762 2.964)"/><path d="M0 0h1000v600H0z" class="K"/><path d="M0 100h1000v400H0Z" class="D"/><path d="M0 200h1000v200H0Z" class="M"/><g transform="translate(-.001)"><ellipse cx="300" cy="300" class="D" rx="75" ry="87.5"/><g transform="translate(235.94 234.48) scale(.1538)"><g class="B"><g class="C"><path fill="#cca76d" d="m105.4 349.3 11-20.2-26-7.3-8 18zm622.2 0-11-20.2 26-7.3 8 18z" class="H"/><path fill="#cca76d" stroke-width="3.001" d="m409.5 91.4-40.1 1.2c-25.6 2.4-35.3 12.3-19.5 31-41.2 6.4-81.6 15.9-118.9 35.6-10.5-1.8-22.7 4.1-26.1 14.2-3 8.2 4.1 16.8 16.8 13.4-8.4 22-107 19.4-109.5 56 7.4-6.3 15.7-11.7 23.9-6.3l-5.7 17.1C116.1 258 106 260.3 100 276c-6.2 15.8-15 39.8-21.3 51.7a25 25 0 0 0-5 14.2c0 6.8 4.8 16.3 16 16.3 11.5 0 17.2-7.2 17.2-14.4-.7-5-2.7-11-14.8-10.2a64 64 0 0 1 49.7 9.4c16.3 12 20.4 35.4 10.9 54.6-9.4 18.7-33 29.6-68.4 15.8a50.8 50.8 0 0 0-67.1 29.1c-43.3 117.2 32.4 212.2 118.2 267.6 89.3 57.7 105.2 73.4 129 101.6 24.1 28.2 47.4 60.4 82.4 60.4 5.4 0 10.7-1.5 15.3-4 22 0 23.5 8.1 53 8.7h2.9c29.6-.6 31-8.8 53-8.8a32 32 0 0 0 15.3 4.1c35 0 58.3-32.2 82.3-60.4 24-28.2 39.9-43.9 129.2-101.6 85.8-55.4 161.5-150.4 118.2-267.6a50.8 50.8 0 0 0-67.2-29.1c-35.3 13.8-59 2.9-68.3-15.8-9.5-19.2-5.5-42.5 10.9-54.6a64 64 0 0 1 49.6-9.4c-12.1-.7-14 5.2-14.7 10.2 0 7.2 5.6 14.4 17 14.4 11.3 0 16.2-9.5 16.2-16.3 0-3-1-8.7-5-14.2-6.3-11.9-15.2-36-21.4-51.7-6-15.7-16.1-18-30.5-22.4l-5.6-17c8.2-5.5 16.4-.1 23.9 6.3-2.5-36.7-101.2-34.1-109.5-56 12.6 3.3 19.7-5.3 16.8-13.5-3.5-10-15.7-16-26.2-14.2-37.2-19.7-77.6-29.2-118.9-35.6 15.9-18.7 6.2-28.6-19.4-31l-40.1-1.2-7-.2-7 .2z"/><g class="E F H"><path d="M365.4 93c38.5.2 30 46.2-5 48.3-43.2 5-96.2 3.7-125 15.5m-99 61.3c33.3-9.4 69.2-1.8 91-11.8s26.5-42.9 3-47.2M349 123.6c7.7-1.8 15.9-2 20-5.8s5.3-10.4-4.5-11.2m-143 80.5c7.2-12 4.9-20.5-4.5-14.7m250.5-79.3c-38.6.1-30 46.1 5 48.2 43.1 5 96.2 3.7 125 15.5m99 61.3c-33.3-9.4-69.2-1.8-91-11.8s-26.5-42.9-3-47.2m-118.7-35.5c-7.7-1.8-16-2-20-5.8s-5.3-10.4 4.5-11.2m143 80.5c-7.2-12-4.9-20.5 4.5-14.7m-396.7 570C281 786.2 290 843 353.8 845.7m.7 8.9c-37.6 8.1-62.3-12.4-92-56.8-15.1-22.4-55-54-122.9-96.4C33 634.6 1.2 518.3 36 454.6c8.5-15.6 30.4-21.8 43-18.3 32.9 8.8 88 0 88.2-53.2.2-29.9-24.3-64.8-56-64.8-19.1 0-29.4 6.3-34.5 13.1M350 832c0-3 2.5-6 6.2-6s7 3.3 7 7.3c0 9-5 13.7-15.7 11.6-8.8-1.7-12.7-11.2-9-20.7 3.7-9.6 16.1-15.6 29.5-9.6 13.4 6.2 11.9 26.6 7.2 38.3a33 33 0 0 1-14.7 16m253.3-126.3C552 786 543.1 842.9 479 845.6m-.6 8.9c37.7 8.1 62.3-12.4 92-56.8 15-22.4 55-54 123-96.4C800 634.6 831.6 518.3 797 454.6c-8.6-15.6-30.5-21.8-43.1-18.3-32.8 8.9-88 0-88.1-53.2-.2-29.9 24.2-64.8 55.9-64.8 19.2 0 29.5 6.3 34.5 13.1"/><path d="M495.9 830.5c0-26.4-44.9-34.7-79.2-34.7-34.2 0-79.2 8.3-79.2 34.7"/><path d="M483 831.9c0-3-2.5-6-6.1-6s-7 3.3-7 7.3c0 9 5 13.7 15.7 11.6 8.7-1.7 12.6-11.2 9-20.7-3.8-9.6-16.2-15.6-29.6-9.6-13.4 6.2-11.8 26.6-7.2 38.3a33 33 0 0 0 14.8 16"/><path d="M460.2 857.2c-18.1 0-17.5 19.4-43.7 19.4-26 0-25.5-19.4-43.5-19.4"/></g></g><g class="H"><path fill="url(#F)" d="M416.5 828.1c-12.8 0-12.8 19 0 19s13-19 0-19"/><path fill="url(#E)" d="M439.6 831.7c-8 0-8 11.8 0 11.8s8.1-11.8 0-11.8"/><path fill="url(#D)" d="M422.5 861c0-8-11.8-8-11.8 0s11.8 8 11.8 0"/><path fill="url(#C)" d="M393.4 843.9c8 0 8-11.9 0-11.9s-8.2 11.9 0 11.9"/><path fill="url(#B)" d="M410.5 814.6c0 8 11.8 8 11.8 0s-11.8-8-11.8 0"/></g></g><g id="AP" class="B"><path fill="#6c401f" d="M154 272.7c2.2 0 4.4.6 6.5 1.5 3.6 1.5 6.8 4.1 7.9 7.7v.1c32 88.6 14.9 126.3-13.5 183.6-41 82.5-11 205.4 80.4 259.2 45 26.2 79.7 35.2 106.2 41.9 13.3 3.3 24.6 6 34.1 10.1 9.2 4 18.7 11 24.7 19.2-9.2.8-24.2 3.3-31.5 5.4-10.7-13.6-37.7-26-65.5-35.6s-57-16.2-72.7-19.3c-51.3-14.9-99.1-48.2-135.2-90.7a220 220 0 0 1-50-168c1.6-14 7.2-22.6 15.2-27.3s18.1-5.5 28.8-4.8a95.6 95.6 0 0 0 56-15c22.5-13.8 31.7-38.3 31.4-64.9s-10.4-55-26.3-76.4c-5.7-7.6-8-13.4-7.9-17.8s3-7.4 6.6-8.4a13.7 13.7 0 0 1 2.7-.5 16 16 0 0 1 2.2 0z" class="H"/><path fill="url(#G)" d="M760.6 462.8c15.3 0 15.3 23 0 23s-15.6-23 0-23" transform="matrix(-1 0 0 1 833.41 0)"/><path fill="url(#H)" d="M731.8 461.4c15.4 0 15.4 22.9 0 22.9s-15.5-23 0-23" transform="matrix(-1 0 0 1 833.41 0)"/><path fill="url(#I)" d="M703.5 462.8c15.3 0 15.3 23 0 23s-15.5-23 0-23" transform="matrix(-1 0 0 1 833.41 0)"/><path fill="url(#J)" d="M771 488.2c15.4 0 15.4 22.9 0 22.9s-15.5-22.9 0-22.9" transform="matrix(-1 0 0 1 833.41 0)"/><path fill="url(#K)" d="M742.7 488.2c15.3 0 15.3 22.9 0 22.9s-15.5-22.9 0-22.9" transform="matrix(-1 0 0 1 833.41 0)"/><path fill="url(#L)" d="M714.2 488.2c15.3 0 15.3 22.9 0 22.9s-15.6-22.9 0-22.9" transform="matrix(-1 0 0 1 833.41 0)"/><path fill="url(#M)" d="M772.2 514.8c15.4 0 15.4 23 0 23s-15.5-23 0-23" transform="matrix(-1 0 0 1 833.41 0)"/><path fill="url(#N)" d="M745.4 513.8c15.4 0 15.4 23 0 23s-15.5-23 0-23" transform="matrix(-1 0 0 1 833.41 0)"/><path fill="url(#O)" d="M716.9 513.8c15.3 0 15.3 23 0 23s-15.5-23 0-23" transform="matrix(-1 0 0 1 833.41 0)"/><path fill="url(#P)" d="M768.1 542c14.4 0 14.4 21.5 0 21.5-14.5 0-14.7-21.5 0-21.5" transform="matrix(-1 0 0 1 833.41 0)"/><path fill="url(#Q)" d="M741.4 542c14.3 0 14.3 21.5 0 21.5-14.6 0-14.6-21.5 0-21.5" transform="matrix(-1 0 0 1 833.41 0)"/><path fill="url(#R)" d="M714.4 542c14.3 0 14.3 21.5 0 21.5-14.6 0-14.8-21.5 0-21.5" transform="matrix(-1 0 0 1 833.41 0)"/><path fill="url(#S)" d="M762.4 570.1c13.8.6 12.8 21.2-1 20.6s-13-21.4 1-20.6" transform="matrix(-1 0 0 1 833.41 0)"/><path fill="url(#T)" d="M738 567.2c13.8.6 12.9 21.2-1 20.6-13.7-.6-13-21.1 1-20.6" transform="matrix(-1 0 0 1 833.41 0)"/><path fill="url(#U)" d="M712.2 566c13.8.7 12.8 21.2-1 20.6-13.7-.6-13-21.3 1-20.5" transform="matrix(-1 0 0 1 833.41 0)"/><path fill="url(#V)" d="M752.6 594.2c13.2 1 11.9 20.6-1.3 19.6-13.2-.8-12-20.5 1.3-19.6" transform="matrix(-1 0 0 1 833.41 0)"/><path fill="url(#W)" d="M730.3 591.1c12.6.8 11.3 19.6-1.2 18.9-12.6-.8-11.4-19.7 1.2-18.9" transform="matrix(-1 0 0 1 833.41 0)"/><path fill="url(#X)" d="M706.6 590c10.1.5 9.1 15.9-1 15-10-.5-9.3-15.6 1-15" transform="matrix(-1 0 0 1 833.41 0)"/><path fill="url(#Y)" d="M742.5 616c12.6.7 11.3 19.6-1.1 18.8-12.7-.8-11.5-19.6 1.1-18.8" transform="matrix(-1 0 0 1 833.41 0)"/><path fill="url(#Z)" d="M721 610.9c10.5.8 9.3 16.5-1 15.8-10.5-.8-9.5-16.5 1-15.8" transform="matrix(-1 0 0 1 833.41 0)"/><path fill="url(#a)" d="M701 608.2c8.7.4 7.7 13.6-.8 13-8.7-.4-8-13.6.8-13" transform="matrix(-1 0 0 1 833.41 0)"/><path fill="url(#b)" d="M733.6 635.5c11.4 2.6 7.6 19.9-3.9 17.1-11.4-2.5-7.6-19.5 3.9-17" transform="matrix(-1 0 0 1 833.41 0)"/><path fill="url(#c)" d="M714.6 628c9.5 2.1 6.2 16.5-3.1 14.2-9.6-2.2-6.5-16.5 3-14.2" transform="matrix(-1 0 0 1 833.41 0)"/><path fill="url(#d)" d="M696.5 622.6c8 1.7 5.3 13.7-2.7 11.8-8-1.7-5.2-13.8 2.7-11.8" transform="matrix(-1 0 0 1 833.41 0)"/><path fill="url(#e)" d="M721.2 653.2c10 3.5 4.6 18.9-5.5 15.2-10-3.5-4.8-18.8 5.5-15.2" transform="matrix(-1 0 0 1 833.41 0)"/><path fill="url(#f)" d="M704.5 644.1c8.5 3 3.9 15.8-4.5 12.6-8.5-2.9-4-15.7 4.5-12.6" transform="matrix(-1 0 0 1 833.41 0)"/><path fill="url(#g)" d="M688.5 637.3c7 2.3 3.3 13-3.6 10.5-7-2.5-3.3-13.2 3.6-10.5" transform="matrix(-1 0 0 1 833.41 0)"/><path fill="url(#h)" d="M710.5 668.2c9 4 2.7 17.4-6.2 13.2-9-4-2.7-17.3 6.2-13.2" transform="matrix(-1 0 0 1 833.41 0)"/><path fill="url(#i)" d="M696.1 658.5c7.4 3.3 2.2 14.5-5 11-7.4-3.2-2.4-14.5 5-11" transform="matrix(-1 0 0 1 833.41 0)"/><path fill="url(#j)" d="M682.3 651c6.3 2.8 1.8 12-4.2 9.2-6.2-2.9-2-12.2 4.2-9.3" transform="matrix(-1 0 0 1 833.41 0)"/><path fill="url(#k)" d="M697 680.6c7.5 3.7 1.6 15-5.5 11-7.4-3.6-1.8-14.8 5.6-11" transform="matrix(-1 0 0 1 833.41 0)"/><path fill="url(#l)" d="M685.3 671.9c6.2 3 1.3 12.4-4.7 9-6.2-3-1.4-12.3 4.6-9" transform="matrix(-1 0 0 1 833.41 0)"/><path fill="url(#m)" d="M673.8 664.9c5 2.7 1 10.3-3.9 7.6-5-2.6-1.2-10.5 3.9-7.6" transform="matrix(-1 0 0 1 833.41 0)"/><path fill="url(#n)" d="M685.8 691.5c6.4 4 0 13.8-6.2 9.5-6.4-4-.2-13.8 6.2-9.5" transform="matrix(-1 0 0 1 833.41 0)"/><path fill="url(#o)" d="M676 682.6c5.2 3.4 0 11.4-5.3 8s0-11.8 5.2-8" transform="matrix(-1 0 0 1 833.41 0)"/><path fill="url(#p)" d="M666 675c4.5 2.9 0 9.5-4.2 6.6-4.5-3 0-9.5 4.2-6.6" transform="matrix(-1 0 0 1 833.41 0)"/><path fill="url(#q)" d="M674.7 700.4c6.4 4.3 0 13.8-6.2 9.5-6.4-4-.2-13.7 6.2-9.5" transform="matrix(-1 0 0 1 833.41 0)"/><path fill="url(#r)" d="M664.8 691.7c5.3 3.5 0 11.4-5.2 8-5.3-3.6 0-11.5 5.2-8" transform="matrix(-1 0 0 1 833.41 0)"/><path fill="url(#s)" d="M656.7 684.1c4.5 3 0 9.5-4.3 6.6-4.4-3 0-9.7 4.3-6.6" transform="matrix(-1 0 0 1 833.41 0)"/><path fill="url(#t)" d="M648 693.4c4 2.5 0 8.7-4 6.2-4-2.7 0-8.9 4-6.2" transform="matrix(-1 0 0 1 833.41 0)"/><path fill="url(#u)" d="M655.2 701.4c4.4 2.9 0 9.5-4.3 6.6-4.5-3 0-9.5 4.3-6.6" transform="matrix(-1 0 0 1 833.41 0)"/><path fill="url(#v)" d="M663 709.5c4.8 3.3 0 10.5-4.7 7.2-4.9-3 0-10.5 4.6-7.2" transform="matrix(-1 0 0 1 833.41 0)"/><path fill="url(#w)" d="M638.9 703c3.6 2.5 0 7.9-3.7 5.6-3.7-2.6 0-8.2 3.6-5.7" transform="matrix(-1 0 0 1 833.41 0)"/><path fill="url(#x)" d="M644.6 710c4 2.7 0 8.7-4 6-4-2.8 0-8.8 4-6" transform="matrix(-1 0 0 1 833.41 0)"/><path fill="url(#y)" d="M651.5 716.8c4.3 2.7 0 9.3-4.2 6.5-4.3-3 0-9.4 4.3-6.5" transform="matrix(-1 0 0 1 833.41 0)"/><path fill="url(#z)" d="M630 709.3c3.3 2.1 0 7.4-3.3 5-3.3-2 0-7.3 3.3-5" transform="matrix(-1 0 0 1 833.41 0)"/><path fill="url(#AA)" d="M635.2 715.8c3.7 2.5 0 8.1-3.7 5.6s0-8.1 3.7-5.6" transform="matrix(-1 0 0 1 833.41 0)"/><path fill="url(#AB)" d="M641.5 723.2c4 2.5 0 8.7-3.9 5.8-3.8-2.5 0-8.7 4-5.8" transform="matrix(-1 0 0 1 833.41 0)"/><path fill="url(#AC)" d="M622.7 715c3.1 2.3-.4 7-3.5 4.6-2.9-2.3.4-7 3.5-4.6" transform="matrix(-1 0 0 1 833.41 0)"/><path fill="url(#AD)" d="M627.5 721c3.3 2.6-.4 7.6-3.7 5-3.3-2.4.4-7.5 3.7-5" transform="matrix(-1 0 0 1 833.41 0)"/><path fill="url(#AE)" d="M632 727.6c3.5 2.7-.4 8.3-4.1 5.4-3.5-2.7.4-8.3 4-5.4" transform="matrix(-1 0 0 1 833.41 0)"/><path fill="url(#AF)" d="M615.7 719.4c2.5 2.2-.8 6.1-3.3 3.8s.8-6 3.3-3.8" transform="matrix(-1 0 0 1 833.41 0)"/><path fill="url(#AG)" d="M619.6 726c2.5 2.2-1 6.5-3.7 3.8-2.7-2.3 1-6.6 3.7-3.9" transform="matrix(-1 0 0 1 833.41 0)"/><path fill="url(#AH)" d="M623.2 732c2.9 2.8-1 7-3.9 4.3-3-2.5 1-7 3.9-4.2" transform="matrix(-1 0 0 1 833.41 0)"/><path fill="url(#AI)" d="M608.3 723.2c2.4 2.2-1 5.6-3.3 3.5-2.3-2.3 1-5.8 3.3-3.5" transform="matrix(-1 0 0 1 833.41 0)"/><path fill="url(#AJ)" d="M611 729c2.5 2.5-1 6.2-3.5 3.7-2.5-2.4 1-6.2 3.5-3.7" transform="matrix(-1 0 0 1 833.41 0)"/><path fill="url(#AK)" d="M614.9 735.4c2.7 2.8-1.2 6.8-3.9 4.1-2.7-2.5 1-6.8 3.9-4" transform="matrix(-1 0 0 1 833.41 0)"/><path fill="url(#AL)" d="M601.5 727.6c1.7 2-1.2 4.7-3 2.7-1.7-2 1-4.9 3-2.7" transform="matrix(-1 0 0 1 833.41 0)"/><path fill="url(#AM)" d="M603.6 733c2 2-1.2 5-3.3 2.8-1.7-2.1 1.2-5 3.3-2.9" transform="matrix(-1 0 0 1 833.41 0)"/><path fill="url(#AN)" d="M606.5 738.5c2.1 2.3-1.4 5.4-3.5 3.1-2.1-2.3 1.4-5.6 3.5-3.1" transform="matrix(-1 0 0 1 833.41 0)"/><path fill="url(#AO)" d="M687.6 447c10 0 10 15 0 15s-10.3-15 0-15" transform="matrix(-1 0 0 1 833.41 0)"/></g><use xlink:href="#AP" width="833.333" height="500" transform="matrix(-1 0 0 1 832.96 0)"/><path d="M182.2 433c11.2-37.4 16.8-85.6 1-148.2 70-45.2 119.3-86.6 233.5-86.6 114 0 167.7 31.4 233.5 86.6-15.7 62.7-10 110.6 1 148.3H181.8" class="B N"/><path fill="#fcd80e" d="m235.5 341.8-5.2 56.7h-.2L210 342.3l9.7 59.4h-.2L197 372.1l13.5 35.2-16.5-11.5 10 18.9-.2.3-11.8-1.4 7.3 10.2A38.9 38.9 0 0 0 197 437v.6h77.7v-.6c0-4.7-.7-9.1-2.2-13.2l15.3-14.7-19.3 6.7-.5-.7c3-3.6 32-39.3 30.8-39.3-1.3 0-36.6 30.4-37.9 31.5l-.2-.2 27.8-61.5-38.4 55.2-.4-.2 11.3-58.3-20.2 56-5.3-56.5z"/><path fill="#0859b9" d="M181.8 433c-6.2 20.9-14 38.5-20.7 53.7-17.7 39.8-21.4 132.4 43.8 197.8 96.9 96.9 170.7 57.9 207.8 110.6h7.5c37.1-52.7 110.9-13.7 207.8-110.6 65.2-65.4 61.7-158 43.8-197.8-6.6-15-14.5-32.8-20.7-53.6H181.6" class="B"/><path d="M323.6 344c-1.1-5.5-13.8-4.4-12.9-13.2-8.4-1.3-6.8-16.4 9-15.3 1.6-3 20.6-9.9 18.3-.4 9.5-8.3 16.5-.7 11.1 3 3.7 3.7 5.6 12.1-5.7 11.4 4.3 7.7-5.7 7.4-12.4 5.2.2 3-.3 5.2-4.1 4.5-2.4 1.6-.6 3.7-.3 5.6zm174.6 5.9c.1-6.9-12.8-4.8-12.3-12.6-7-1-6-15.6 8.5-14.7-.8-4.2 19.5-9.6 17.6-.4 7-7.5 14-.4 9.8 3 3.5 3.5 7.8 9.5-4.7 10.8 5 4.9-5.4 7.1-11.8 5 .1 2.8-1.7 3.8-5.3 3.1-2.3 1.6.8 4.8 1 6.6zM599 373.6c1.2-5.2-10.7-4.7-10.3-10.7-5.4-.8-4.7-11.8 6.5-11.1-.6-3.2 13.8-8.5 12.9-.8 5.4-5.7 11.4.2 8.1 2.7 2.7 2.7 6 7.3-3.5 8.3 3.8 3.6-4.2 5.3-9.1 3.8 0 2-.6 2.4-3.4 1.9-1.8 1.2 2.1 4 2.4 5.4l-3.6.5z" class="D"/><path fill="#028a66" d="M558.5 472.5c2.9-15.2 15.3-29.1 16.7-41a58 58 0 0 1 9.5-26.4 72.4 72.4 0 0 0 10.1-24.3c2-10 9.6-12.2 13-1.9 3.4 10.3 10 36.1 13.5 42.2 3.3 6 6.8 14.3 6.2 18.4-.6 4 4.5 5.6 7.4 8.5 3 2.8 3.3 12.3 11.9 20.4 8.5 8.2 18 14 26 18 7.2 16.2 12 40.7 11 68.6H149.3c-.2-7.4 0-14.6.4-21.5C197.3 521.2 215 490 235 492a295 295 0 0 1 33.3-39.8c10.9-9.9 32.3-49.3 37.7-73.4 5.4-23.9 13.4-36.7 19.4-35.3 6 1.4 8.6 2.5 15.8 24 10 29.7 16.7 33.3 24.3 54.6 6.6 18.5 20.4 51.6 41.6 69 13.3-10 28.4-21 33.3-28.8 4-6.8 10.3-17.3 17.7-22.3 3.3-9.9 7.6-27.6 11-31.9 3.4-3.8 4.8-7.7 5.1-14.5.2-6.8 5.5-21.2 12.7-33.2 7.2-11.9 16.7-15.7 21 0 4 15.7 13.6 48.7 22.5 69.3 3.7 8.5 10.6 25.4 25.5 43l1.6 2c.3-.5.7-1 1-2.3z" class="B"/><g fill="#036a4a"><path d="M497.2 528.4c-10-9.6-25.7-7.4-33.6-15-7.8-7.3-20.3-2.3-47.1-15.9a69.7 69.7 0 0 1-10-6.4c-21.1-17.3-35-50.5-41.6-69-7.3-21.1-14.3-24.6-24.3-54.5-5.2-15.9-8.1-20.8-11.6-22.5 9.1 10 4.2 25.4 11.6 42.1 3 6.6-2 6.6-3.5 4.5-1.3-2.1-5.8-3.1-8-3 4 3.4 4.5 11.8 8.4 20.5 3.7 8.7-2.9 7.8 5 20.2 2.2 3.5 3 8.7-.1 10.8-3.3 2-5.7-6-10.5-3.3 1.3 3.2 7 8.8 10.7 12 3.7 3.4.2 5.1-2.7 3.6-3.2-1.6-7.2-3.1-9.4-4.9 0 2.6 3.1 5.4 7.4 9.3 4.5 3.7 1.6 6.4-8.7 6.4 1.5 2.4 1 8.2-3.7 9 6.4.4 11.2 12.2 19.2 13 7.8.5 8.6 6 1 7.3-7.6 1.4-23-10.8-30.5-18.8-2 2.7-6 3.9-9 2.3a39 39 0 0 0 4.5 18.5 44.2 44.2 0 0 1-13.4-12.4c-4.7-5.7-7.8 2.7-3.7 7.7 4 5 6.8 9.2.2 13-6.5 3.7-10.5 2.4-15.4-4.4-6.8 5.6-9.5 6-14.8 5 0 3.3-5.6 11.1-8.2 17-5.6 11.2 250.2 34.5 243 7.3m182.8 2.3c-67.3-5.9-104.5-31.9-125.5-56.7-15-17.5-21.8-34.5-25.5-43.1-9-20.6-18.4-53.6-22.5-69.3-1.4-5.2-3.3-8.4-5.7-9.5-3.5-1.8-1.7 4.3.8 7.3 2.7 3 2.5 5.7-1 3.6-3.5-2-5.2 1.9-2 6.7 3.2 4.7 8 10.2 9 15.4 1 5 1.4 9.5 4 12 2.3 2.5-6.5 3.1-10.2-2.9-.2 3.9 1 9.5 3.5 9 2.3-.5 3.1 1.7-.2 7.5-3.3 5.6-2.9 7.6-1.7 10.1 1.7 3.9 6.2-11.5 9-2.7 1.3 4 3.6 9.1 5.7 12.4 2.2 3.1 2 5-1.1 5s-5.9-7.7-6.2-1.1c-.2 6.4 4.8 8.5 10 8.1 5.1-.2 6 1.8 5.1 4.5-.6 2.7 1.6 5.4 4.5 4.9 2.7-.8 7 1.7 9.3 8.3 2.4 6.6-1.5 9.5-7.2 4.8-5.6-4.8-13.8-9-14.5-12.6-.6-3-3 1.4-.4 5.7 2.3 4.3 3.7 6.2 6.8 8 3 1.5-.2 7.9-5.5 3.8-5-3.9-7.4-3-9 1.6-2.4 7.2-10 5.4-7.7 9.3 2.3 3.9 1.4 10-2.1 11.6-3.7 1.6-8-.7-7.6-7.5-1 1.3-4.7 2-7.6 1.1-.4 9.6-3.1 12.8-9 10.3-.1 2.1-.3 5.8-3.3 8.6 6.5-1 7.8 3.4 8.4 6.2.4 2.7 1.4 2.3 5 2.7 3.6.2 8 4.8 1.4 3.7-6.6-1-16.9 1.3-23-3.1 6.3 5.6 24 5.8 31.4 13 53.9 22.1 148.8 29.9 186.3 19.6.2-4.5-.4-14.8-.8-18"/><path d="M603 372.8c1.6.7 3.1 2.9 4.5 6.2 3.3 10.3 10 36 13.4 42 3.3 6 6.8 14.4 6.2 18.5-.5 4 4.5 5.7 7.4 8.6 3 2.7 3.3 12.2 11.9 20.3 8.6 8.2 18 14 26 18.1 5 10.9 8.6 25.4 10.2 42.5-23-1.7-51.8-8.5-66.2-15 .6-2 .6-4.8-.1-8.8-1-4.1-.2-7.2 4-11.1 4.3-3.9 3-10.5.6-14.2-2.3-3.5-2.1-5.6-.2-7.7 1.8-2 1.8-5.5-2.3-9.4-4.3-3.9-1.4-8 1-11.4 2.3-3.5 5.8-9.5 3.3-17.3-2.6-7.6-6.4 1.7-9.6-1.1-2-2-3-5.7-1-8.8 2.2-3 .8-8.5-1.7-12.8 5.7-1.6-3.9-18-5.4-25-1.6-7 1.7-10.5-2-13.3"/></g><path fill="#028a66" d="M358.3 435.8c0 3.7-1 9-2 10.7a33.5 33.5 0 0 1 5.1 13.6c3.1-3 9.2-.6 10.5 7.4 1.4 8.1 2.7 15.7 2 20.1 2.7 2.4 8.5 6.5 9.5 11 1 4.2 3.9 3.6 6.8 3.2 9.1-1.3 8.4 9.7 17.9 8.2 13.4-2 5 8.7 18.5 8.3 7.8-.4 18.5 1.2 23.9 8.8 6-8.2 11.3-5.1 16.7-3 5.5 2 12.3 1.4 6.3-2.9-6.3-4.4-18.5-5-24-3.7-5.4 1.4-13.6.4-19.2-4.6-5.5-5-15-9.3-20.8-9.5s-7.2-.6-11.7-7.2c-4.3-6.4-11.3-5.7-14.8-6-3.3-.2-5.8-4.5-2-8.6 5.7-6-2.3-6.8.6-10.5s1.4-8.5-6.4-9.1c-7.7-.6-4.8-3-3.7-8.5 2.8-13-14.7-10.9-13.4-17m305.6 69.2c.8-8-5.3-11.2-6.6-17.3-1.2-6-10.7-6.2-13.3-4.4 1 1.7 0 4.8-1.1 6.5-1.2 1.6-1.2 2.6 1.1 3.4 2.6.6 4.7 1.1 4.9 3.2.2 2 1.4.2 2.3-2.3.8-2.5 7.6 3.1 8.4 8.2.6 5 3.3 8.5 4 2.5m-31.2-8.4c1.1 3 5.4 7 7.7 7s5.9 1.8 6.5 4.5c.4 2.4 2.3 5.6 4.8 6s1.2 2.4-2 2.2c-3.2-.2-8.3-2.2-8.7-4.5 1.2 4.9-.4 7-3.5 3.5-2.9-3.3-4.4-8-8.3-8.6 2.9-.5 3.3-1.3 2-4.2-1.3-3-.3-10.7 1.5-5.9"/><path fill="#0f7d3a" d="M149.9 545.9c6.4-3.1 16.2-2 20 1.3 1.9-3.6 5-6.4 10.8-5.4 4.6-5 8.5-7.6 11.2-5 2.7-5 11.8-6.3 15-3.1 3.2-5.1 9.8-7.4 14.3-4.7 5.8-7.6 16-10.3 22.3-6.4 5.4-4 11.6-3.3 14.3-.6 2.7 2.5 8.5-2.7 10.9 2.1 4-1 11.8-1.1 13.3 3.2 1-2.4 4.5-3.8 6.4-2 0-9 6.4-15.7 15.3-13.6 4.3-6.4 11.7-9.1 15.1-6.8 3.7-3.7 11.3-1.2 14.6 3.3 7.1-.2 10.6 3.1 14.3 9.5 3.7 6.4 14.3 10.3 21.1 7.4 6.8-2.5 13-3.3 15.3-.2 4.1-3.7 8.6-2.7 11.3-.2 4.6 4 9-3.1 11.8-.4 4.3 4.5 8.1-4 15.7.4 7.4 4.5 21.9 11.2 33.1 11.2s20.2-13.7 27.4-4c7.1-4.8 18-7.2 25.5-3.1 4.5-4 14.8-5.4 18.8-1.5 4-6.3 11.8-10 18.4-7.9 3.7-6.3 18.4-7.3 22.9 1.6 3.7 0 9.5 3.3 9.5 7.4 3.7 0 9.5 2.3 9.5 6.6 4-1 9 1.5 9.9 6.4 8.1-.6 14.7 2.7 18.4 9.5 2.7-2.3 1.1-8.3 7.3-9.5 6.2-1 8.2 1 10 3.1 6.7-5 16.2-4.4 24.1 2.7 5.9-2.3 11.3-1.3 13 1.6 2.5-2.4 6.6-3 10.7-3 .2 13.3-1 27.6-3.9 42.4H152.8a211.8 211.8 0 0 1-3.7-42" class="B"/><path d="m416.3 245-5.3 17h-17.8l14.5 10.4-5.4 17 14.2-10.6 14.3 10.5-5.4-16.9 14.4-10H422l-5.4-17m-68 5.3-2.5 17.5-17.5 2.7 16 8-2.8 17.4 12.5-12.6 15.7 8-8.2-15.8 12.6-12.4-17.4 2.7-8.2-15.7m-66.2 16.7.2 17.7-16.9 5.6 17.1 5.2v17.7l10.1-14.6 16.9 5.3-10.7-14.2 10.3-14.4-16.9 5.7-10.7-14.2M220.4 294l3.1 17.5-15.7 8.4 17.6 2.3 3 17.5 7.5-16 17.5 2.4-12.8-12.4 7.8-15.8-15.8 8.4-12.8-12.3m264.4-43.4 2.6 17.5 17.4 2.7-15.9 8 2.7 17.4-12.4-12.6-15.7 8 8.1-15.8-12.4-12.4 17.5 2.7 8.1-15.7m66 16.7-.2 17.7 17 5.6-17.1 5.2v17.7l-10.1-14.6-17 5.3 10.7-14.2-10.2-14.4 16.7 5.7 10.6-14.2m62 27.1-3.1 17.5 15.7 8.4-17.7 2.3-2.9 17.5-7.6-16-17.4 2.4 12.8-12.4-7.8-15.8 15.7 8.4 12.8-12.3" class="D"/><use xlink:href="#AS" class="J"/><use xlink:href="#AS" class="B C F I"/><use xlink:href="#AT" class="D"/><use xlink:href="#AT" class="B C E F"/><use xlink:href="#AU" class="J"/><use xlink:href="#AU" class="B C F I"/><use xlink:href="#AV" class="D"/><use xlink:href="#AV" class="B C E F"/><use xlink:href="#AW" class="J"/><use xlink:href="#AW" class="B C F I"/><path d="M476.1 550c4.5-3.9 14.8 4.9 21.2 1-4.1 12.6-19.5 2.7-21.2 7.4v-8.5" class="D"/><path d="M476.1 550c4.5-3.9 14.8 4.9 21.2 1-4.1 12.6-19.5 2.7-21.2 7.4v-8.5z" class="B C E"/><g class="I"><path d="M487.5 694.8c-4.4 0-10-2-11.6-5.6-3.3 3.2-17 4.9-22.5.2-3.7 3.2-15.2 5.3-21 1.6-4.6 4-18.4 3.7-25.6-.6-3 3.1-11.3 5.4-15.7 5.8a120 120 0 0 0-34.6-29 1458 1458 0 0 0-49.7-23.4c-7.6-3.3-14.6-9-.2-2.7l56.7 23.9c23.9 10.5 119.2 9 135 7.5 8-.5 19-6.7 26.5-11.4 5.8-3.5 6-1.4.4 1.5-6.2 3.3-13 5.8-17.9 12.7-6.6 9.1-15.7 13.2-19.2 19.2"/><path d="M487.5 694.8c-4.4 0-10-2-11.6-5.6-3.3 3.2-17 4.9-22.5.2-3.7 3.2-15.2 5.3-21 1.6-4.6 4-18.4 3.7-25.6-.6-3 3.1-11.3 5.4-15.7 5.8a120 120 0 0 0-34.6-29 1458 1458 0 0 0-49.7-23.4c-7.6-3.3-14.6-9-.2-2.7l56.7 23.9c23.9 10.5 119.2 9 135 7.5 8-.5 19-6.7 26.5-11.4 5.8-3.5 6-1.4.4 1.5-6.2 3.3-13 5.8-17.9 12.7-6.6 9.1-15.7 13.2-19.2 19.2l-.6.3z" class="B C"/></g><path d="m496.5 572.2-30.9-3.4a35.2 35.2 0 0 0-3.3 28.6c10-9.3 27.8-4.4 36.7.4-3-8.2-7.4-19.2-2.3-25.4" class="D"/><path d="m496.5 572.2-30.9-3.4a35.2 35.2 0 0 0-3.3 28.6c10-9.3 27.8-4.4 36.7.4-3-8.2-7.4-19.2-2.3-25.4z" class="B C E"/><path d="M498.8 597.6c-9.1.2-30.9-.4-37.7-.4-7.3 9.5-3.3 23.9-1.5 29.4 8.1-13 34-6.1 43.9 3.2-5-9.5-9-17.7-4.5-32.4" class="D"/><path d="M498.8 597.6c-9.1.2-30.9-.4-37.7-.4-7.3 9.5-3.3 23.9-1.5 29.4 8.1-13 34-6.1 43.9 3.2-5-9.5-9-17.7-4.5-32.4z" class="B C E"/><path d="M503.3 630.2c-9-1.6-37.7-3.5-43.5-5a131 131 0 0 0-10.5 34.4c14-15.4 46.4-4.1 53.2 10.8-6.8-12.8-13.6-32.2 1-40.2" class="D"/><path d="M503.3 630.2c-9-1.6-37.7-3.5-43.5-5a131 131 0 0 0-10.5 34.4c14-15.4 46.4-4.1 53.2 10.8-6.8-12.8-13.6-32.2 1-40.2h-.2z" class="B C E"/><path d="m464.8 562.8-40.7-5.4a48.7 48.7 0 0 0-9.5 32.8c8.5-8.1 39.8-4.8 47.7 6.8-2.7-12.6-6.2-28.5 2.7-34.4" class="D"/><path d="m464.8 562.8-40.7-5.4a48.7 48.7 0 0 0-9.5 32.8c8.5-8.1 39.7-4.8 47.7 6.8-2.7-12.6-6.2-28.5 2.7-34.4l-.2.2z" class="B C E"/><path d="m461.7 598.2-45.2-6c-7.2 9.1-6.8 22-5 35.9 10.2-8.6 43.8-3.9 51.8 7.6-4.9-16.7-9-26.6-1.4-37.5" class="D"/><path d="m461.7 598.2-45.2-6c-7.2 9.1-6.8 22-5 35.9 10.2-8.6 43.8-3.9 51.8 7.6-4.9-16.7-9-26.6-1.4-37.5z" class="B C E"/><path d="m463 635.6-46-4.6c-7.1 9-12 18-10.4 31.4 7.2-11.8 37.7-3.2 50.7 10-7.8-10.4-8.6-25.1 5.8-36.8" class="D"/><path d="m463 635.6-46-4.6c-7.1 9-12 18-10.4 31.4 7.2-11.8 37.7-3.2 50.7 10-7.8-10.4-8.6-25.1 5.8-36.8z" class="B C E"/><path d="M388.1 562.8a68.1 68.1 0 0 0-14 21c8.6-3.5 26.7-4.5 38 3.9-3.4-6.4-4.5-17.7-1.6-22.3-4.5-2-16.3-3-22.2-2.4" class="D"/><path d="M388.1 562.8a68.1 68.1 0 0 0-14 21c8.6-3.5 26.7-4.5 38 3.9-3.4-6.4-4.5-17.7-1.6-22.3-4.5-2-16.3-3-22.2-2.4l-.2-.2z" class="B C E"/><path d="M369.3 590c11.9-.2 36.1 2.8 46.6 5.6-6.2 9.4-5.4 25.3-2.9 35.2-16.1-16-42.7-15.5-58.4-10.9 2.9-7.2 10-22.1 14.5-30" class="D"/><path d="M369.3 590c11.9-.2 36.1 2.8 46.6 5.6-6.2 9.4-5.4 25.3-2.9 35.2-16.1-16-42.7-15.5-58.4-10.9 2.9-7.2 10-22.1 14.5-30z" class="B C E"/><path d="M416.3 634.3c-11.5.4-40.8-4.7-54.2-11.3a173.3 173.3 0 0 0-7.2 41.2c13-17.5 44.9-7.8 55 10-1-9.4-4.5-32.7 6.4-40" class="D"/><path d="M416.3 634.3c-11.5.4-40.8-4.7-54.2-11.3a173.3 173.3 0 0 0-7.2 41.2c13-17.5 44.9-7.8 55 10-1-9.4-4.5-32.7 6.4-40z" class="B C E"/><path d="M388.1 562.8c-32.2 19.5-56.6 58.7-65.8 85.9 9.2-.2 20.6 2.7 24.7 10.9 9.5-39.1 22.9-75.2 41.1-97" class="D"/><path d="M388.1 562.8c-32.2 19.5-56.6 58.7-65.8 85.9 9.2-.2 20.6 2.7 24.7 10.9 9.5-39.1 22.9-75.2 41.1-97zm1-18.8c-26.4 26.6-63.8 74-77.4 99.8m184.8-71.6c7.2 35 9 81.9 6 99.2" class="B C E F"/><path d="M534.7 635.3c-8.2 4-23.7-7.4-31-2.2v-4.5c7-5 22.6 6.5 31 2.2v4.7" class="L"/><path d="M534.7 635.3c-8.2 4-23.7-7.4-31-2.2v-4.5c7-5 22.6 6.5 31 2.2v4.7-.2z" class="K"/><path d="M534.7 640c-8.2 4.1-23.7-7.3-31-2.4V633c7-5 22.6 6.5 31 2.2v4.7" class="D"/><use xlink:href="#AX" fill="#f42a41"/><use xlink:href="#AX" class="M"/><path d="M534.7 649.5c-8.2 4.3-23.7-7.1-31-2.1v-4.8c7-4.7 22.6 6.5 31 2.2z" class="D"/><path d="M534.7 654c-8.2 4.3-23.7-7-31-2.1V647c7-5 22.6 6.5 31 2.2v4.5" class="L"/><path d="M534.7 654c-8.2 4.3-23.7-7-31-2.1V647c7-5 22.6 6.5 31 2.2v4.7z" class="K"/><use xlink:href="#AY" class="J"/><use xlink:href="#AY" class="B C F G I"/><use xlink:href="#AZ" class="D"/><use xlink:href="#AZ" class="B C E F G"/><use xlink:href="#Aa" class="J"/><use xlink:href="#Aa" class="B C F G I"/><use xlink:href="#Ab" class="D"/><use xlink:href="#Ab" class="B C E F G"/><use xlink:href="#Ac" class="J"/><use xlink:href="#Ac" class="B C F G I"/><path d="M435.6 396.7c1.6-1.4 5.3 1.7 7.5.3-1.4 4.5-6.8 1-7.5 2.6v-3" class="D"/><path d="M435.6 396.7c1.6-1.4 5.3 1.7 7.5.3-1.4 4.5-6.8 1-7.5 2.6v-3z" class="B C E G"/><g class="I"><path d="M439.7 448c-1.6 0-3.6-.7-4.1-2-1.2 1.2-6.1 1.8-8 .1-1.3 1.1-5.4 1.9-7.5.6-1.6 1.4-6.5 1.3-9-.2-1.1 1-4 2-5.6 2a42.6 42.6 0 0 0-12.3-10.3c-4.3-2.1-13-6.3-17.6-8.3-2.7-1.1-5.2-3.1-.1-1l20.1 8.6c8.5 3.7 42.3 3.1 47.9 2.6 2.9-.2 6.7-2.4 9.4-4 2-1.3 2.2-.5.2.5-2.2 1.2-4.7 2-6.4 4.5-2.3 3.3-5.6 4.7-6.8 6.8"/><path d="M439.7 448c-1.6 0-3.6-.7-4.1-2-1.2 1.2-6.1 1.8-8 .1-1.3 1.1-5.4 1.9-7.5.6-1.6 1.4-6.5 1.3-9-.2-1.1 1-4 2-5.6 2a42.6 42.6 0 0 0-12.3-10.3c-4.3-2.1-13-6.3-17.6-8.3-2.7-1.1-5.2-3.1-.1-1l20.1 8.6c8.5 3.7 42.3 3.1 47.9 2.6 2.9-.2 6.7-2.4 9.4-4 2-1.3 2.2-.5.2.5-2.2 1.2-4.7 2-6.4 4.5-2.3 3.3-5.6 4.7-6.8 6.8l-.2.2z" class="B C G"/></g><path d="m442.9 404.5-11-1.2c-2 3.3-2.2 7.3-1.2 10.2 3.6-3.3 9.9-1.6 13 .1-1-2.9-2.6-6.8-.8-9" class="D"/><path d="m442.9 404.5-11-1.2c-2 3.3-2.2 7.3-1.2 10.2 3.6-3.3 9.9-1.6 13 .1-1-2.9-2.6-6.8-.8-9z" class="B C E G"/><path d="M443.7 413.5h-13.4c-2.6 3.3-1.1 8.4-.5 10.3 2.9-4.6 12-2.1 15.5 1.2-1.7-3.4-3.1-6.3-1.5-11.5" class="D"/><path d="M443.7 413.5h-13.4c-2.6 3.3-1.1 8.4-.5 10.3 2.9-4.6 12-2.1 15.5 1.2-1.7-3.4-3.1-6.3-1.5-11.5z" class="B C E G"/><path d="M445.3 425.1c-3.2-.5-13.4-1.2-15.5-1.8-1.6 3.5-3 8-3.7 12.2 5-5.4 16.5-1.4 18.9 3.9-2.4-4.6-4.8-11.4.3-14.3" class="D"/><path d="M445.3 425.1c-3.2-.5-13.4-1.2-15.5-1.8-1.6 3.5-3 8-3.7 12.2 5-5.4 16.5-1.4 18.9 3.9-2.4-4.6-4.8-11.4.3-14.3z" class="B C E G"/><path d="m431.6 401.2-14.4-2c-2.1 2.5-3.6 6.8-3.4 11.7 3-2.9 14.1-1.7 17 2.4-1-4.4-2.3-10 1-12.2" class="D"/><path d="m431.6 401.2-14.4-2c-2.1 2.5-3.6 6.8-3.4 11.7 3-2.9 14.1-1.7 17 2.4-1-4.4-2.3-10 1-12.2l-.2.1z" class="B C E G"/><path d="m430.5 413.8-16-2.2c-2.6 3.3-2.4 7.9-1.8 12.8 3.6-3 15.6-1.4 18.4 2.7-1.7-6-3.2-9.5-.5-13.3" class="D"/><path d="m430.5 413.8-16-2.2c-2.6 3.3-2.4 7.9-1.8 12.8 3.6-3 15.6-1.4 18.4 2.7-1.7-6-3.2-9.5-.5-13.3z" class="B C E G"/><path d="m431 427-16.3-1.6c-2.6 3.2-4.3 6.4-3.7 11.2 2.5-4.2 13.3-1.2 18 3.5-2.8-3.7-3-9 2-13" class="D"/><path d="m431 427-16.3-1.6c-2.6 3.2-4.3 6.4-3.7 11.2 2.5-4.2 13.3-1.2 18 3.5-2.8-3.7-3-9 2-13z" class="B C E G"/><path d="M404.4 401.2a24.2 24.2 0 0 0-5 7.5c3.1-1.3 9.5-1.6 13.5 1.3-1.2-2.2-1.6-6.2-.6-7.9-1.5-.7-5.7-1-7.8-.8" class="D"/><path d="M404.4 401.2a24.2 24.2 0 0 0-5 7.5c3.1-1.3 9.5-1.6 13.5 1.3-1.2-2.2-1.6-6.2-.6-7.9-1.5-.7-5.7-1-7.8-.8z" class="B C E G"/><path d="M397.7 410.9a81 81 0 0 1 16.6 2c-2.2 3.3-2 9-1 12.4-5.8-5.6-15.2-5.5-20.8-3.8 1-2.6 3.6-7.9 5.2-10.7" class="D"/><path d="M397.7 410.9a81 81 0 0 1 16.6 2c-2.2 3.3-2 9-1 12.4-5.8-5.6-15.2-5.5-20.8-3.8 1-2.6 3.6-7.9 5.2-10.7z" class="B C E G"/><path d="M414.4 426.6c-4 .1-14.5-1.7-19.2-4-1.7 4.5-2.4 11.9-2.6 14.6 4.7-6.2 16-2.8 19.5 3.6-.3-3.4-1.5-11.7 2.3-14.3" class="D"/><path d="M414.4 426.6c-4 .1-14.5-1.7-19.2-4-1.7 4.5-2.4 11.9-2.6 14.6 4.7-6.2 16-2.8 19.5 3.6-.3-3.4-1.5-11.7 2.3-14.3z" class="B C E G"/><path d="M404.4 401.2a61.4 61.4 0 0 0-23.3 30.5c3.2-.1 7.3 1 8.7 3.8a88.9 88.9 0 0 1 14.6-34.4" class="D"/><path d="M404.4 401.2a61.4 61.4 0 0 0-23.3 30.5c3.2-.1 7.3 1 8.7 3.8a88.9 88.9 0 0 1 14.6-34.4v.1zm.4-6.7a196.2 196.2 0 0 0-27.5 35.4m65.6-25.4c2.5 12.4 3.1 29 2.1 35.2" class="B C E F G"/><path d="M456.4 427c-2.9 1.4-8.4-2.7-11-.8v-1.6c2.5-1.8 8 2.2 11 .7v1.7" class="L"/><path d="M456.4 427c-2.9 1.4-8.4-2.7-11-.8v-1.6c2.5-1.8 8 2.2 11 .7v1.7Z" class="K"/><path d="M456.4 428.6c-2.9 1.4-8.4-2.6-11-.8V426c2.5-1.8 8 2.3 11 .7v1.7" class="D"/><use xlink:href="#Ad" fill="#f42a41"/><use xlink:href="#Ad" class="M"/><path d="M456.4 432c-2.9 1.5-8.4-2.6-11-.8v-1.7c2.5-1.7 8 2.3 11 .8z" class="D"/><path d="M456.4 433.6c-2.9 1.5-8.4-2.5-11-.8v-1.7c2.5-1.7 8 2.3 11 .8v1.6" class="L"/><path d="M456.4 433.6c-2.9 1.5-8.4-2.5-11-.8v-1.7c2.5-1.7 8 2.3 11 .8z" class="K"/><g class="B H"><path d="M650.1 284.8c-24.6 97.4 3 159.2 22 201.9 17.8 39.8 21.3 132.4-44 197.8-96.8 96.9-170.6 57.9-207.6 110.6m-8 .2c-37-52.7-110.8-13.7-207.7-110.6-65.3-65.5-61.8-158-43.9-197.8 19-42.5 46.6-104.3 22-202" class="E"/><path d="M427.6 39.8c1.3 6.3 3 23.3-6.3 25.7 17.1 21.1 41.8 24.1 85 24.1h65.3c0 5.4-1.8 11.2-1.8 18 0 6.5 6.8 9.5 16.7 7.2s31.1-8.6 42.6 1.5c19.2 17.2 54.5 20.2 64 31-2.9-13-15.3-26.3-29-37.4 13-1.8 29.8-.5 35.6 4-14.7-16-41.5-16.4-55.1-24.3S618 75 607.9 72.2c0-4.4-.6-8-4.5-10.6-8.5-6-25.2-8-38.8-8.8 2-2 2.3-4.4 2.3-8.2v-21c0-7.4.8-9.2-7.5-14.4-32.3-19.8-71.5-34-143-34-71.2 0-110.4 14-142.8 34-8.5 5.2-7.6 7-7.6 14.3v21.1c0 3.8.2 6.2 2.4 8.2-13.6.6-30.1 2.7-38.9 8.8-3.7 2.6-4.4 6-4.4 10.6-10 2.5-23 9.4-36.7 17.4-13.6 7.9-40.4 8.3-55.2 24.3 5.7-4.5 22.6-6 35.6-4-13.6 10.9-26 24.1-29.2 37.4 9.6-10.8 44.9-13.8 64.3-31 11.3-10 32.4-4 42.5-1.5 10 2.3 16.7-.5 16.7-7.2 0-6.8-1.7-12.6-1.7-18 15.9-.3 37.8 0 65.2 0 43.1 0 67.8-3 85-24-9.5-2.5-7.7-19.3-6.2-25.8-20.2-4.5-30.3-12.1-46.6-12.1-16 0-19 8.5-19 11.7V42c-12.8 0-30.9-3.2-35.3-11.6 24.8-10 61.7-19.2 112.4-19.2s87.5 9.1 112.4 19.2c-4.5 8.4-22.6 11.6-35.4 11.6v-2.6c0-3-2.7-11.7-19-11.7s-26.4 7.4-46.6 12.1h-.8z" class="C N"/><path d="M261 90c-12.6.2-21.6 1-26.4 2.4-7.8 2.4-8.6 6.5-3.5 8.8m108.1-59v9.7c0 6.3 6.8 14.6 17.3 14.6 25.8 0 30.9-4.5 50-4m-.1-.5c-17.9-3-32-12.5-47.8-12.5-15.5 0-18.8 7-16 10.5M224.4 72.8V92c0 5.3 3.7 12.5 17.6 9.8 12.3-2.3 20.2.5 20.2 5.8m5.7-54.4c2.9 3 9.3 5.6 23.5 10.7 26 9.5 85.8 16 124.6-1m112.8-32.5c5 2 9.7 4.1 13.8 6.2 24.2 12.1 26 15 17.4 19.6M571.8 90c12.6.2 21.5 1 26.4 2.4 7.8 2.4 8.5 6.5 3.5 8.8m-108.3-59v9.7c0 6.3-6.8 14.6-17.3 14.6-25.8 0-30.9-4.5-50.1-4m.2-.5c17.9-3 32-12.5 47.8-12.5 15.5 0 18.8 7 15.9 10.5M608 72.8V92c0 5.3-3.7 12.5-17.7 9.8-12.2-2.3-20.2.5-20.2 5.8m-5.6-54.4c-2.9 3-9.3 5.6-23.5 10.7-26 9.5-85.8 16-124.6-1" class="C E F"/><g class="C"><path d="M416.3 66.5c11.8 0 12.2-9 12.2-17.2 0-8-.4-17-12.2-17s-12.3 9-12.3 17 .4 17.2 12.3 17.2z" class="N"/><path d="M304.6 30.4c-5.2 2-10 4.1-14.2 6.2-24.8 12.1-26.6 15-17.8 19.6" class="E F"/></g></g><g id="AQ" fill="#0f7d3a" class="B H"><path d="M388 192.6c16.2-10.5 36.4-28.2 43.8-39.8 10.1-16.4 11.5-8.4 19.2-9.7a405 405 0 0 1-57 52.6l-6-3.1m-136.5 39.2c-40.8-23.1-56.3 1-65.9 2.1 11.3 2.7 20.8 20.8 65.9-2.1z"/><path d="M269.7 218.4c-38.8-26.2-56.1-3.3-65.8-2.7 11 3.4 19.2 22.3 65.8 2.7z"/><path d="M297.5 202.8c-38.3-27-56.1-4.4-65.8-4 11 3.8 18.6 22.5 65.8 4zm22.9-13.7c-35.2-31-55.3-10.5-64.9-11.3 10.5 5 16.2 24.4 64.9 11.3z"/><path d="M349.7 179c-33.6-32.9-54.8-13.2-64.3-14.6 10.3 5.4 15 25.4 64.3 14.6z"/><path d="M380.4 175.7c-27.8-37.7-51.9-22-61.2-24.7 9.1 7.2 10.5 27.4 61.2 24.7z"/><path d="M385.4 177.2c-1.3-8.5-17.3-19.4-18.6-23.5 4-.4 4.6-5.2 2.9-7-1.4-1.3-4.7-.6-6.4 1.2-1.8 2.2-3.5 7.2 2.1 11.5 5.8 4.2 13.2 12 15.6 17.8"/><path d="M214.4 234.5c11-3.3 25-1.7 34.7-2.7m-16.7-13.6c11.5-2.5 25 0 35 0m-7.2-16.4c11.5-2 25 .6 35 .6M283.4 184c11.6-1 24.8 3.3 34.5 4.5m-5-16.5c11.6-.4 24.7 4.5 34.4 6.2m-2-15.2c11.7 1.2 23.7 8.6 32.8 11.5" class="C F"/></g><use xlink:href="#AQ" transform="matrix(-1 0 0 1 832.76 0)"/><g class="B C H"><g class="D"><path d="M416.5 190.5c9.1 0 16.9 0 22.5-.8v-13c0-4.3 15.2-9.3 38-4.9 89.8 17.5 102 58 170.1 81.4.8.2 3.3 1 6.2 1.5l5.9-13.1c1.1-3.8 11-3.6 19.8.5 10 4.9 14.5 10.5 12.8 13.4-1.8 4.3-3.5 7.8-5 11.2 15.9 5.7 44.8 14.3 35.3 52.5a65.6 65.6 0 0 0-36.3-15c-12.7 0-26.2-4.8-22-18.6-2.3-1.2-6.4-3.3-8.5-3.7a24 24 0 0 1-1.6 3.5c-2.9 7.2-15.5 9.7-28.1 5.5-71-24.3-93-78-176.9-78.7v2.4c0 6.7-8.7 13-32.2 13-23.3 0-32.2-6.3-32.2-13v-2.4c-83.7.6-105.8 54.2-176.9 78.7-12.4 4.2-25 1.5-28.1-5.5-.4-1.2-1-2.3-1.6-3.5-2.1.4-6.2 2.5-8.5 3.7 4 13.6-9.2 18.6-22 18.6-11 0-28.7 7.8-36.3 15-9.5-38 19-46.6 35.4-52.5l-5.1-11.2c-1.5-3 2.7-8.5 12.8-13.4 8.8-4.3 18.5-4.5 19.8-.5l5.8 13.1c3-.5 5.3-1.3 6.3-1.5 68-23.3 80.3-63.9 170-81.4 22.7-4.5 38 .6 38 4.9v13c5.7.6 13.5.8 22.6.8z"/><path d="M393.8 189.7c-6-.6-9.5-2-9.5-4.3 0-5.8 9.5-3.8 9.5-8.7m-228.5 76.9 12 28.1M156.7 258c3.5 8.1 10.1 22 12 27.9" class="F"/></g><g class="F"><path d="M140.6 255.7c2.4 4 14.6-2 16.1 2 1.4 4-2.3 6.2-10.8 9.2m27.5-25.3c1.8 5.2-10.5 7.3-8 12 1.6 3 8.4 2.1 13.9 1" class="E"/><path d="M384 185.2v27m55.2-22.5c5.8-.6 9.5-2 9.5-4.3 0-5.8-9.5-3.8-9.5-8.7m228.5 76.9-12 28.1m20.5-23.8c-3.5 8.1-10 22-12 27.9" class="D"/><path d="M692.4 255.7c-2.4 4-14.6-2-16.2 2-1.3 4 2.4 6.2 11 9.2m-27.7-25.3c-1.7 5.2 10.5 7.3 8 12-1.5 3-8.3 2.1-13.8 1" class="E"/><path d="M449 185.2v27" class="D"/></g></g><path d="m204 281.8-7.6-27 9.4-2.5c2.4-.7 4.2-1 5.3-.7s2.3.7 3.3 1.8 1.7 2.3 2.2 4c.6 2 .5 3.9-.1 5.5s-1.9 2.7-3.6 3.6c1.1.4 2.1 1 3 1.6s2 1.8 3.7 3.6l4.2 4.5-5.3 1.5-4.9-5-3.5-3.2c-.5-.5-1-.7-1.6-.8s-1.3 0-2.3.3l-1 .3 3.2 11.2zm0-16.8 3.4-1c2-.5 3.2-1 3.7-1.3s.9-.8 1-1.4.2-1.4 0-2.3c-.3-.8-.6-1.5-1.1-2a2.7 2.7 0 0 0-1.7-.6c-.5 0-1.7.3-3.7.8l-3.5 1zm24.7 9.6-12.4-25 15.2-7.6 2.1 4.2-11.1 5.5 2.8 5.6 10.3-5.1 2 4.2-10.3 5 3.4 6.9 11.5-5.7 2 4.2zm20.1-10.7-15.1-23.4 6.2-4c2.4-1.6 4-2.4 4.8-2.7 1.4-.3 2.8-.2 4.3.5s2.9 2 4 3.9c1.2 1.7 1.8 3.3 1.9 4.9s-.2 2.9-.9 4-2.1 2.3-4.5 3.8l-2.5 1.7 5.7 8.8zm-8.7-22 4.3 6.7 2.2-1.4c1.4-1 2.3-1.7 2.7-2.2s.6-1.2.6-2-.3-1.4-.8-2.2c-.5-.8-1-1.3-1.8-1.6s-1.3-.4-2-.3-1.7.8-3.3 1.8zm10.5-12.1 3.7-2.7 8.7 12.4 2.8 3.7c.8.9 1.8 1.4 2.8 1.5s2-.2 3-1c1-.5 1.5-1.2 1.8-2s.3-1.6 0-2.4-1.2-2.4-2.8-4.7l-8.9-12.6 3.8-2.7 8.4 12c2.2 3.1 3.6 5.4 4.2 7s.6 3.3 0 5-1.7 3-3.6 4.4c-2 1.3-3.7 2-5.3 2.1s-3-.4-4.5-1.3-3.2-3.1-5.6-6.5zm19.2-14 7.7-5c2.1-1.3 3.7-2 4.8-2.2s2.3 0 3.5.6 2.2 1.5 3 2.8c.7 1.1 1.1 2.3 1.2 3.5s-.1 2.4-.6 3.3c1.4-.3 2.7-.2 4 .4s2.4 1.5 3.3 3c1 1.6 1.6 3.3 1.5 5s-.5 3.1-1.5 4.1c-.6.7-2.4 2-5.2 3.8l-6.6 4.2zm6.4 1.4 3.5 5.5 2.6-1.7 2.8-1.9c.6-.5.9-1.1 1-1.8s-.2-1.5-.7-2.2c-.4-.7-1-1.2-1.5-1.4s-1.1-.3-1.6-.1-1.8.9-3.8 2.2zm6 9.4 4 6.3 3.7-2.4c1.5-1 2.5-1.7 2.8-2.2s.6-1 .5-1.7-.2-1.4-.7-2.1a4 4 0 0 0-1.7-1.6 3 3 0 0 0-2-.2c-.6.2-1.8.8-3.4 1.9zm20.6.5L290 202.6l4.1-2.1 10.6 20.3 10.2-5.3 2.2 4.2zm17.3-9.3-10.8-25.7 4.2-1.8 10.8 25.7zm18.4-16.7 4.8.4c.2 3.2-.2 5.7-1.4 7.6s-2.8 3-5.1 3.8c-2.9.8-5.5.4-8-1.3-2.8-1.9-4.8-5-6-9.3a17.5 17.5 0 0 1-.2-11.7 9.1 9.1 0 0 1 6.2-5.5c2.4-.7 4.8-.5 7 .7 1.4.8 2.8 2.3 4 4.5l-4 2.6c-.6-1.3-1.5-2.3-2.6-2.8s-2.1-.6-3.3-.3c-1.6.5-2.7 1.6-3.3 3.3s-.4 4.2.6 7.5 2.2 5.6 3.6 6.7 3 1.4 4.5 1c1.2-.4 2-1.1 2.7-2.3s.7-2.8.5-4.9zm30.1 3.5-4.9.9-3.1-5.9-9 1.7-.7 6.6-4.8.9 3.6-29.1 4.8-1zm-10.4-9.3-5-9.6-1.1 10.7zm39.1-1.4 8.2.7c2 .1 3.6.5 4.7 1s1.9 1.4 2.7 2.6 1.4 2.6 1.8 4.4.4 4 .2 6.6c-.2 2.4-.6 4.4-1.2 6s-1.5 3.1-2.4 4a7.9 7.9 0 0 1-3.1 2.1 11 11 0 0 1-4.5.4l-8.5-.6zm4.1 5-1.3 18 3.3.2c1.5.1 2.5 0 3.2-.1a3.8 3.8 0 0 0 1.7-1.2c.5-.5.9-1.3 1.2-2.5s.6-2.7.8-4.6v-4.8a5.4 5.4 0 0 0-1.2-2.9 4.1 4.1 0 0 0-2-1.5c-.6-.2-1.8-.3-3.6-.5zm19.4 23.6-1.8-27.2 16.6-1 .3 4.5-12 .8.3 6 11.2-.7.3 4.6-11.2.7.5 7.4 12.4-.8.3 4.6zm50.4-26 4.3 2c-.8 3-2 5.2-3.8 6.6s-3.7 2-6 1.8c-3-.1-5.4-1.4-7.2-3.8-2-2.8-2.8-6.4-2.6-10.9.3-4.7 1.5-8.4 3.8-11 2-2.2 4.6-3.3 7.7-3 2.6 0 4.7 1 6.3 2.9 1.2 1.3 2 3.2 2.4 5.6l-4.6 1.1a6.2 6.2 0 0 0-1.6-3.5 4.4 4.4 0 0 0-3-1.4c-1.7 0-3.1.6-4.2 2s-1.8 3.8-2 7.2c-.2 3.5.2 6 1.1 7.6s2.3 2.3 4 2.4c1.2 0 2.3-.3 3.2-1.2s1.7-2.4 2.2-4.4zm10.3-2.6c.8-3.2 1.9-5.7 3.4-7.6s3-3.1 4.8-3.7 3.8-.7 6-.2c3.2.8 5.5 2.6 7 5.6s1.5 6.6.4 11c-1.2 4.6-3 7.9-5.8 10a9.6 9.6 0 0 1-8.4 1.4 9.7 9.7 0 0 1-6.8-5.2c-1.5-3-1.7-6.8-.6-11.3zm4.6 1c-.7 3.1-.7 5.6 0 7.4s2.2 3 3.9 3.5c1.8.4 3.4 0 5-1.3s2.7-3.5 3.4-6.7c.8-3.1.8-5.6 0-7.4s-2-2.9-3.8-3.3-3.5 0-5 1.2-2.7 3.4-3.5 6.6zm19.5 10.4 4.3 1.2c-.9 3.5 0 5.8 2.5 7 1.3.5 2.5.6 3.5.2s1.7-1 2.2-2c.2-.6.3-1.2.2-1.7s-.3-1-.7-1.5-1.5-1.5-3.3-3c-1.6-1.3-2.7-2.4-3.2-3.4s-.9-2.1-1-3.4a8.4 8.4 0 0 1 .7-3.7c.6-1.4 1.5-2.5 2.6-3.4s2.3-1.3 3.7-1.4 2.9.2 4.5 1c2.5 1 4.2 2.5 5 4.4s.7 4.2-.3 6.7l-4.3-1.6c.4-1.4.4-2.6 0-3.4s-1.2-1.5-2.3-2-2.1-.6-3-.3-1.3.6-1.6 1.4c-.3.7-.3 1.4 0 2s1.5 1.9 3.3 3.3c1.8 1.5 3.1 2.8 3.8 4s1 2.2 1 3.5-.2 2.7-.9 4.3c-1 2.2-2.4 3.8-4.4 4.7s-4.5.8-7.4-.5c-5.2-2.1-6.8-6.3-5-12.4zm21.5 20 11.3-20.3-6-3.3 2.3-4.1 16 8.9-2.4 4-5.9-3.2-11.3 20.2zm29.7 18.5-4.2-2.7 1.8-6.4-7.6-5-5 4.2-4.2-2.7 22.8-18.4 4 2.7zm-1-13.9 3-10.4-8.3 7zm10.2 20.6 16-23 8 5.6c2 1.4 3.3 2.7 4 3.7s.7 2.2.6 3.6-.7 2.8-1.7 4.3c-1.3 1.7-2.7 2.9-4.3 3.4s-3.3.3-5.1-.5c.4 1.2.6 2.3.7 3.3s-.1 2.8-.4 5.3l-.9 6-4.5-3.1.7-7 .4-4.7c0-.7-.2-1.3-.5-1.7s-.9-1-1.7-1.6l-.8-.6-6.7 9.6zm13-10.6 2.8 2c1.8 1.1 2.9 1.8 3.5 2s1.1.1 1.8-.1 1.1-.8 1.7-1.6c.5-.7.7-1.4.7-2a2.7 2.7 0 0 0-.5-1.8l-3-2.3-3-2zm6 23.6 15.3-23.3 3.8 2.5-15.3 23.3zm25.2 3.5 3 3.7c-2.1 2.4-4.3 3.8-6.4 4.2s-4.2.1-6.3-1a8.9 8.9 0 0 1-4.6-6.7c-.5-3.3.4-7 2.6-10.9 2.4-4.1 5.1-6.8 8.3-8a9.1 9.1 0 0 1 8.3.6 8.7 8.7 0 0 1 4.3 5.5c.4 1.7.3 3.7-.4 6.1l-4.6-1c.5-1.5.5-2.8.2-4a4.4 4.4 0 0 0-2.1-2.5c-1.5-.9-3-1-4.7-.2s-3.3 2.6-5 5.6c-1.7 3-2.5 5.5-2.4 7.3s1 3 2.5 4c1 .5 2.2.6 3.4.2s2.5-1.3 4-3zm21.6 20.2-4.7-1.7.4-6.7-8.6-3.2-4 5.3-4.6-1.7 18.2-23 4.5 1.7zm-4-13.3.6-10.8-6.5 8.6zM307.3 23.5l-4 1.7-3.7-4.2-7 3.2.7 5.6-3.7 1.7-2.9-24.6 3.8-1.8zM297 17.9l-6-6.9 1.1 9.1zm12.3 5L302 .5l5.6-1.9 8.4 14.2L314-3.6l5.6-1.8L327 17l-3.5 1.2L317.8.5l2.2 18.9-3.6 1.2L306.9 4l5.9 17.6zM331 16l-5.7-23 14-3.4 1 3.9L330-4l1.2 5 9.5-2.3 1 3.9-9.5 2.3 1.5 6.3 10.5-2.6 1 3.8zm17.5-4.2-4.2-23.3 8.1-1.5c2.1-.3 3.6-.4 4.6-.1s1.8.8 2.6 1.7 1.2 2.2 1.5 3.6c.3 1.8.2 3.4-.5 4.6S358.7-.9 357-.3c1 .4 1.8 1 2.4 1.6s1.7 1.7 3 3.3l3 4.2-4.5.8-3.7-4.6-2.7-3c-.4-.4-.9-.7-1.3-.8s-1.1 0-2 .1l-.8.2 1.8 9.7zM350-2.3l2.8-.5c1.7-.3 2.8-.6 3.3-.8s.8-.6 1-1.1.2-1.2 0-2c0-.7-.3-1.3-.7-1.7A2.3 2.3 0 0 0 355-9c-.4 0-1.5 0-3.2.4l-3 .5zm17.7 11-3.2-23.5 3.8-.5L371.4 8zm19-11 4 1.1c-.4 2.7-1.2 4.7-2.4 6s-2.9 2.2-4.9 2.4c-2.5.2-4.6-.6-6.4-2.4-2-2-3.2-5-3.5-8.7-.4-4 .2-7.3 1.8-9.7a7.7 7.7 0 0 1 6-3.6c2.2-.2 4 .4 5.7 1.7 1.1 1 2 2.4 2.7 4.5l-3.8 1.5c-.3-1.3-1-2.2-1.7-2.8a3.7 3.7 0 0 0-2.7-.8c-1.4.1-2.5.9-3.3 2.2s-1 3.4-.8 6.3c.3 3 1 5 2 6.2s2.2 1.6 3.6 1.5c1 0 1.8-.6 2.5-1.4s1.1-2.2 1.3-4zm25.5 7.4-4.3.2-1.9-5.3-7.7.3-1.4 5.4-4.2.2 6.6-24 4.2-.1zm-7.6-9-3-8.7-2.3 8.9zm29.9.8 3.7 1.6c-.7 2.6-1.7 4.5-3.1 5.7s-3.2 1.7-5.2 1.6a7.5 7.5 0 0 1-6-3.1 14.1 14.1 0 0 1-2.4-9.2c.1-4 1.1-7.1 3-9.3 1.7-2 3.8-2.9 6.5-2.8 2.2 0 4 .9 5.3 2.4 1 1.1 1.8 2.7 2.2 4.8l-4 1a5.2 5.2 0 0 0-1.3-3 3.7 3.7 0 0 0-2.6-1.1c-1.4 0-2.6.5-3.5 1.7s-1.5 3.3-1.6 6.1c0 3 .3 5.1 1.1 6.4s2 2 3.4 2c1 0 2-.3 2.7-1s1.4-2.1 1.8-3.8zm6.8 9 2-23.5 14.4 1.2-.4 4-10.4-.9-.5 5.2 9.7.9-.3 4-9.7-1-.6 6.5 10.8 1-.3 3.9zm18 1.7 3.3-23.4 3.8.5L472 1.4l2.3-15.6 3.6.5-3.4 23.4-3.9-.5L465-7.2l-2.2 15.3zm23.5 3.7 4-19.2-5.7-1.2.8-3.9 15 3-.7 4-5.7-1.2-3.8 19.3zm12 2.5 6-22.9 8 2.2c2 .5 3.4 1 4.2 1.7s1.3 1.6 1.6 2.7.2 2.5-.1 3.9c-.5 1.8-1.3 3-2.5 4s-2.5 1.2-4.1 1c.6.8 1.1 1.7 1.5 2.5s.7 2.2 1.1 4.3l1.1 5L507 17l-1.4-5.7-1.1-3.9c-.2-.5-.5-1-.9-1.2s-1-.5-1.8-.7l-.8-.3-2.5 9.6zM502 1.6l2.8.7c1.7.5 2.8.7 3.3.7s1-.2 1.4-.6.7-1 .9-1.7c.2-.8.2-1.4 0-1.9a2.3 2.3 0 0 0-1-1.2c-.2-.2-1.2-.6-3-1l-2.9-.8zm28 23-4-1.4.2-5.6-7.3-2.6-3.3 4.6-3.9-1.4 14.8-19.8 4 1.3zm-3.7-11.2.3-9.2-5.3 7.5zm5.8 12L541.5 4l3.5 1.5-7.8 17.9 9 3.9-1.6 3.6z"/></g></g><defs><path id="AS" d="m387.2 672.5 2-129.8c0-6.3 1-7.2 1.3-.4l.4 131.6"/><path id="AT" d="M390.7 542.5c4.4-4 14.7 4.8 21.1 1.2-3.8 12.5-19.4 2.6-21.1 7.3v-8.5"/><path id="AU" d="m431 672.7 2-129.6c0-6.3 1.2-7.4 1.4-.2l.3 131.4"/><path id="AV" d="M434.8 542.9c4.4-4 14.7 4.8 21.1 1.1-4 12.6-19.4 2.7-21.1 7.4V543"/><path id="AW" d="m472.6 680 2-130c0-6.2 1.1-7.1 1.3-.1l.4 131.4"/><path id="AY" d="m404 440.1.8-46c0-2.3.4-2.6.5-.2v46.7"/><path id="AZ" d="M405.3 394c1.6-1.4 5.3 1.7 7.5.4-1.3 4.5-6.9 1-7.5 2.6v-3"/><path id="Aa" d="m419.7 440.2.6-46c0-2.2.5-2.6.5 0l.2 46.6"/><path id="Ab" d="M421 394.1c1.5-1.4 5.2 1.8 7.5.4-1.5 4.5-7 1-7.5 2.7v-3"/><path id="Ac" d="m434.4 442.8.7-46.1c0-2.2.4-2.6.5 0l.1 46.5"/><path id="Ad" d="M456.4 430.3c-2.9 1.5-8.4-2.5-11-.8v-1.7c2.5-1.7 8 2.3 11 .9v1.6"/></defs></svg>