<svg xmlns="http://www.w3.org/2000/svg" xmlns:xlink="http://www.w3.org/1999/xlink" width="900" height="600"><path fill="#faf6f5" d="M0 0h900v600H0Z"/><path fill="#001f56" d="M0 0h390v240H0Z"/><path fill="#e30631" d="M0 360h390v240H0Z"/><path fill="#001f56" d="M510 360h390v240H510Z"/><path fill="#e30631" d="M510 0h390v240H510Z"/><path fill="#0a1a1d" d="M434.2 245.8a43.7 43.7 0 0 0-23.7 6c-3.3 2-4 2.7-2.2 6l-4.1 1.4c-2.7 1-5.4 2-7.7 3.4-1.4.8-2 1.4-3 2.5l6.7-.5-1 1.5c-1.1 1.6-1.8 3-2.8 4.7 1.9-1.3 3.6-2.5 5.7-3.6 4.8-2.4 13.4-2.5 17-6.7.8-1 .3-1.7-.5-3.4 2.6-.9 3.6-1.5 6.8-2.2 7.6-1.7 12.9.3 16.6-.6 1.1-.3 2.3-1 2.3-2.1l-.5-4h12.4c0 2.3-2 5 1.8 6 3.5 1 10.5-1 16.6.7l6.8 2.2c0 .3-.5 1.1-.7 1.6-.3.8-.2 1.2.3 1.7.6.8 1.5 1.5 2.5 2.1 2 1.2 4.6 1.9 7 2.5 7 1.7 7.7 2.1 13.1 5.7-.3-1-2.9-4.8-3.7-6.1l6.6.5a16.9 16.9 0 0 0-6.7-4.3l-8-3c.7-1.4 1.3-2.6.6-3.7a30 30 0 0 0-9.6-5.5 85.5 85.5 0 0 0-8.9-2c-2.9-.4-8.4-.8-8.4-.8-.4-.4.8-2.6-1-4.1a8 8 0 0 0-4.1-1.3 144 144 0 0 0-20.8 0c-1.8 0-3 .3-4.1 1.3-1.3 1.1-1.4 1.9-1.3 4z"/><g fill="#001f56"><path d="M436 250.2c.8-.8 1-1 2.4-1.6 3.2-1 8.2-1 11.6-1 2.7 0 5.4 0 8 .3 2.8.2 4.4.6 6.2 2.2.4-2 .8-3.6.8-5.7.1-2.2-1.1-2.9-3.1-3.3-3.3-.7-8.9-.6-12.4-.6-2.3 0-10.6.1-12.2.7-1.6.6-2.8 1.8-2.6 3.8 0 1 .8 4.5 1.2 5.2z"/><path d="M411.7 261c.6-.6.2-1.1 2.8-2.6a37.6 37.6 0 0 1 21.7-4.6c1.5.1 3.5.4 5 .1 0 0 1.6-.4 2-.8.6-.5.6-1.7.6-1.7-1.1-.9-4.2 2.2-7 1.2-1-.3-1.2-1.8-1.6-2.8l-1-3.5c-5-.6-14 1.4-18.8 3.6-2.1 1-5.7 2.7-7 4.1-1.2 1.2 0 3 .7 3.9a37 37 0 0 0 2.6 3zm44.5-9.7c-.3 1.8 1 2.4 2.7 2.6 3.3.5 8.3-1 15 .3a44.4 44.4 0 0 1 13.1 5.2l1.3 1.5a30 30 0 0 0 2.6-3c.8-1 1.9-2.6.7-4a31 31 0 0 0-7.1-4c-2.5-1.2-6.6-2.1-9.7-2.7-3.2-.5-9.5-1-9.5-1s-.4 6-2 6.4c-3.2 1-4.8-1.7-7-1.3z"/><path d="M481.3 258.7c-.2.9-.6 1 1 2.3 4 3.3 10.5 3.4 14.6 5.2 2.1.9 3.3 1.6 5.1 2.8-.2-.6-2.6-4-3.1-5l6 .3s0-.2-.2-.3c-2.8-2.4-9.8-4.6-13.3-5.8l-3.2 3.6c-.4.4-.7.7-1.5.4-1.1-.3-2-1.2-2.6-1.8-.7-.6-2-1.7-2.8-1.7zm-25-8c2 .2 2.3.5 3.8 1.2.6.3 1.4.4 2.2.4 1-.1 1.2-.3 1.5-1.1.4-1.2-1.6-2-2.6-2.2l-4.4-.7zm-12.7 0-.4-2.3c-1.3-.2-7.4.9-7 2.7.3 1 .5 1 1.4 1.2 2.7.2 3-1.5 6-1.5zm-31.4 10.6c.9 1.6 3.2-1.3 4.6-2.3.8-.6 1-.6 1.8-1l-.5-.7c-.7.2-2.6 1.2-3.3 1.6-1 .6-2.3 1.3-2.6 2.4z"/><path d="m481.4 258 1 .5c2 1.1 4.3 4.2 5.3 3 .6-.7-1.6-2.1-2.2-2.5l-3.5-1.7a2 2 0 0 0-.6.8zm-62.7.7c.2 1 .6 1-1.1 2.4-4 3.2-10.5 3.4-14.6 5.1-2 1-3.2 1.7-5 2.8 0-.5 2.5-4 3-4.9l-6 .3.2-.3c2.8-2.4 9.8-4.6 13.4-5.8l1 1.2 2 2.3c.5.4.8.7 1.7.5 1-.3 1.9-1.3 2.6-1.8.6-.6 2-1.7 2.8-1.8z"/></g><path fill="#fcd80e" d="M419.6 249.7c-.6 0-1 .3-1.6.5-.2 0-.6.2-.3.3.3.2.3.5.4.7l.4 1.1.7 1.8c0 .2-.2.6.1.4l1-.4a1.9 1.9 0 0 0 1.1-.8l.2-.7a1 1 0 0 0 0-.5c0-.3 0-.5-.2-.8l-.5-.9a2 2 0 0 0-.9-.6 1 1 0 0 0-.4 0zm-.3.4c.4 0 .7.3.8.6l.5 1c.1.5.3 1 .2 1.5 0 .3-.3.5-.5.6-.3.1-.5 0-.5-.3l-.3-.8-.5-1.3a5.8 5.8 0 0 1-.3-1c0-.2.3-.3.6-.3zm2.2-1c.1 0 .3 0 .3.3l.3.8c0 .2 0 .4.2.6l.2.8.2.8c0 .2.2.5.1.7v.1l.7-.1c.1 0 .4 0 .4-.2-.1-.1-.3-.2-.3-.4l-.3-1-.2-.6-.1-.6a62.6 62.6 0 0 1-.3-1c-.1-.2-.2-.4 0-.5 0-.2-.3 0-.4 0l-.8.2zm3.7-1.1c-.3 0-.7.2-.9.4-.2.3-.4.7-.4 1v1.1c.2.5.4 1 .8 1.5l.8.5h.7c.5-.1.8-.5 1-1 0-.2.1-.5 0-.8v-.9a3.2 3.2 0 0 0-.5-.9l-.6-.6a1.4 1.4 0 0 0-.9-.3zm0 .3c.3 0 .6.4.7.7l.5 1.5.1.6v1c-.2.2-.6.2-.8 0-.3-.1-.4-.4-.5-.6l-.3-1-.2-.7c0-.4-.2-.8 0-1.2 0-.2.3-.3.5-.3zm3-.7-.4.7.1.8a1 1 0 0 0 .5.5c.3.3.7.4 1 .6.3.1.6.3.6.5v.6c0 .2-.2.4-.5.3a.8.8 0 0 1-.6-.2 1.5 1.5 0 0 1-.4-.7c-.1-.2-.3 0-.2.1v.6c0 .2.3.3.4.4l.7.2c.3 0 .5 0 .7-.2.2 0 .4-.2.5-.5.2-.3.2-.6.1-.9a1.4 1.4 0 0 0-.8-1 5 5 0 0 0-.8-.4c-.3-.2-.6-.3-.7-.7 0-.2 0-.5.3-.6.2-.1.5 0 .7.2l.3.5c0 .2.3.1.2 0 0-.3.2-.6 0-.7l-.7-.3a1.2 1.2 0 0 0-.8.1l-.3.1zm14-5.4-1.2.1c-.1.1-.5 0-.5.2a.8.8 0 0 1 .2.5l.1 1v.8l.1 1.1v.7c-.3.2 0 .3.2.2l.8-.1c.2 0 0-.2 0-.3-.2-.2-.2-.6-.2-.8v-.7c.3-.1.6 0 .8-.2.5-.1 1-.5 1.1-1 .1-.5-.1-1-.5-1.3a1.8 1.8 0 0 0-1-.2zm-.2.3c.4 0 .6.3.7.6v.7c0 .3-.3.6-.7.7-.1 0-.4 0-.4-.2v-.9c0-.2-.2-.5 0-.8 0-.1.3 0 .4 0zm3.4-.5c-.3-.1-.5.1-.4.4l-.2.8a12.3 12.3 0 0 1-.3 1.3l-.3 1.5c0 .2-.4.3-.2.4h.8c.2 0-.1-.2-.1-.4v-.6s0-.2.2-.2h1c0 .3.1.5 0 .8 0 .1 0 .4.2.3h.9c.2-.1-.1-.3-.1-.4l-.3-.9-.3-1-.2-.7a11.7 11.7 0 0 1-.3-1.3c0-.1-.3 0-.4 0zm-.2 1 .5 1.6c0 .2-.1.3-.3.3-.2 0-.6.1-.6-.2l.1-.6a8.6 8.6 0 0 0 .2-.9v-.2zm3.6-1.2h-1.5a1 1 0 0 1-.1.5v.5l.3-.2c.1-.2.3-.4.6-.4 0 0 .3 0 .2.1v.7l.1 2.8c0 .2-.1.2-.2.3 0 .1.3 0 .4 0h.8c.1 0 .1-.1 0-.1l-.1-.7v-3.1s.3-.2.4 0l.3.1.3.4s.2.1.2 0l-.1-.6c0-.2 0-.4-.2-.3h-1.4zm3.6-.1h-1c-.1 0-.3.1-.1.2v3.7c0 .2 0 .4-.2.5h1.3l-.2-.4v-1.4c.3 0 .4 0 .4.3l.3.6c0 .2.2.4.4.6l.5.5.5.1c0-.2-.2-.3-.3-.4l-.4-1a2.4 2.4 0 0 1-.2-.6c-.1-.2.1-.2.3-.3a1.3 1.3 0 0 0 .5-.5c.1-.2.1-.5 0-.8 0-.2 0-.4-.2-.6-.1-.2-.4-.2-.5-.3a4.1 4.1 0 0 0-.8-.2h-.3zm.3.3.6.3.1.5v.6c0 .3-.3.5-.5.5h-.7v-1.6c0-.3.3-.3.5-.3zm2.8.4v.6l-.1 1v1.8l-.2.4c-.1.1-.2.2 0 .2h1.1c.2 0-.1-.1-.1-.2-.1-.3 0-.5 0-.8v-1.6l.1-1c.1-.2 0-.5.2-.6 0-.1.1-.2 0-.2h-.8c-.1 0-.4-.1-.4 0l.2.4zm3.1-.1-.3 1-.2.7-.3 1c-.2.5-.3 1-.6 1.3-.2 0-.1.3 0 .2l.7.1c.1 0 .2-.1 0-.2s-.2-.4 0-.6c0-.3.1-.4.4-.3h.7l.1.8c0 .1-.3.5 0 .4l.8.1c.2 0 .3 0 .2-.1l-.3-1.1-.1-1.2-.2-1.3a2.4 2.4 0 0 0-.1-.5c0-.2-.1-.3-.3-.2l-.5-.1zm0 1c.2.2.2.5.2.7 0 .4 0 .7.2 1 0 .3-.4.2-.6.2-.1 0-.5 0-.3-.3l.2-.6.1-.5c.2-.1.1-.4.3-.6zm8 4.4c0 .2.4.2.3.5v3.6a.4.4 0 0 1 0 .3c-.2 0 0 .1.1.1h2.2l.2-1c0-.2-.2-.2-.2 0-.2.2-.5.5-.8.5h-.6v-.6a39.6 39.6 0 0 1 0-3v-.5zm3 4.4h1.2l-.1-.5V248c0-.4.2-.2.2-.4h-1.2c0 .3.2 0 .2.4v3.6c0 .3-.2.3-.2.5zm1.9-4.5.2.5-.1 1.4a32.7 32.7 0 0 1-.1 1.7l-.1.7c-.1 0-.3.1-.1.2l1.5.1c.3.1.7 0 1-.2.4-.2.5-.8.4-1.3 0-.2-.2-.4-.4-.5a16.2 16.2 0 0 0-.4-.4 1 1 0 0 0 .8-.7c0-.3 0-.7-.2-1l-.3-.2-.5-.2-1.7-.1zm1 .4c.3 0 .5 0 .7.2.3.3.3.7.1 1 0 .2-.2.3-.4.4h-.5v-1.1l.1-.5zm-.2 2c.3 0 .7 0 1 .3v.9c0 .4-.3.7-.7.7-.3 0-.4-.2-.3-.4a11.3 11.3 0 0 1 0-1.6zm2.1 2.4c.1.2.4.1.5.2l1.1.2 1 .2.2-.7c.1-.1-.1-.3-.2 0a1.2 1.2 0 0 1-1.1.1c-.3 0-.4-.2-.4-.5l.3-1.5.5.1.4.5c.2.1.2-.2.2-.3v-1c-.2.1-.3.5-.6.4-.1-.1-.6 0-.5-.3l.2-1c.4-.2.8 0 1 .3l.4.4v-.9c0-.2-.3-.1-.5-.2l-1.7-.4c-.3 0 .1.3 0 .4l-.3 2c0 .6 0 1.1-.2 1.6a.6.6 0 0 1-.2.4zm3.8-3.6c.2.3.2.6 0 .8 0 .7-.2 1.4-.3 2l-.3 1.2c0 .2-.4.4-.1.5l.9.3c.2 0-.1-.3 0-.5l.2-.9c0-.2 0-.5.2-.5s.1.4.2.5c0 .5.2 1 .4 1.4l.7.7-.2-.7v-1l-.1-.7c.2 0 .5-.1.7-.3.3-.3.4-.8.3-1.2a1.7 1.7 0 0 0-.8-1c-.5-.3-1-.3-1.5-.5a1.5 1.5 0 0 0-.3 0zm1 .6a.8.8 0 0 1 .8.5c.1.4 0 1-.2 1.4-.1.2-.4.2-.7.1-.2 0-.4 0-.3-.3l.2-1.3a.9.9 0 0 1 .2-.4zm2 1.5c.2 0 .3-.2.5-.3h.6v.5l-.2.9-.5 2c-.1.2-.1.4-.3.5-.1.2.3.2.4.3l.7.3c0-.2-.2-.4-.1-.6 0-.5.2-1 .4-1.6a39.1 39.1 0 0 1 .4-1.8c.3-.1.5.1.6.3l.3.6c.2 0 0-.3.1-.5v-.5l-1-.4-.8-.3-.8-.3-.3.7a.3.3 0 0 0 0 .2zm4.2.8-.4.5-.4.6-1 1.8-.6.5c-.2.2.2.3.3.4.1 0 .3.2.4.1 0-.2-.2-.4 0-.6 0-.2.1-.6.4-.4l.7.5v.6c0 .2-.3.4-.2.5l.6.4c.1 0 .4.2.3 0v-1l.1-.6.1-1 .2-1.5c0-.2.1-.5-.1-.6l-.4-.2zm-.3 1v.2l-.2 1.6c0 .3-.3 0-.4 0-.2-.1-.5-.2-.3-.4l.5-.9.4-.5zm2.7.5c0 .3 0 .6-.2.8a5.6 5.6 0 0 1-.5.8l-.4.8a61.4 61.4 0 0 1-.7 1.2c-.1 0-.4 0-.2.2l.6.6.7.7c.4.2 1 .4 1.4 0l.6-.5a4.2 4.2 0 0 0 .4-.8c0-.4.2-.8.1-1.2 0-.6-.3-1.2-.8-1.6l-.7-.7-.3-.3zm.7 1.1c.4.3.6.7.6 1 0 .7-.4 1.3-.7 1.8-.2.4-.5.7-.9.8-.3.1-.6-.1-.7-.4-.1-.2 0-.5.2-.8l1-1.7c0-.2.2-.4.4-.6h.1z"/><path fill="#0f7d3a" d="M436 349c.8.2 2.4 1 3 1.3l2.3 4.2c.9.6.8.5 1.7.7l-5.3 2.3c-1.6.5-1 1.9-.3 2.2.8.2 2.5-.5 3.1-.7a60 60 0 0 0 7.5-4c.4-.3 2.2-1.6 2.5-1.5l9.5 5.4c.7.3 2.1 1.2 2.9.7.3-.2.8-.7.6-1.3-.1-.5-.5-.6-1-.8l-5.2-2.3 1.2-.3c.3-.2-.3-1 .2-.8l2.4-3.9 3-1c-.1-2.7-22.3-4.4-28.1-.2z"/><path fill="#fcd80e" d="M437.5 358.1c-.8.2-.6 1.8 1 1.3 1.1-.4.3-1.7-1-1.3zm23.6 0c-.2.6-.2 1 .4 1.2.6.2 1 .2 1.3-.2.5-.5.1-.7-.3-1-.5-.2-.1-.2-.5 0h-.9z"/><path fill="#0f7d3a" stroke="#9d7a51" stroke-width=".283" d="m482.2 270 .1.3c2 4 1.3 2.2 3 7.4a37.8 37.8 0 0 1-4-5.8c-.2.4.5 2.5.6 3 .8 2.7 2.7 5.6 4.2 8l-1-1c-1.3-1-1-.7-1.7-2-.7-1.2-1.3-2.5-1.7-3.8a62.4 62.4 0 0 0-1.1-2.8l-.2.3v1.1l.8 4.6c-1-.5-.8-.5-1.7-1.3-.2 0-.5-.7-.7-.8l-.9-1c-.2.6 1.2 3 1.5 3.3.4.8 2.3 2 2.5 2.6.7 1.8 1.4 3.2 2.6 4.6l1 1.4-2.2-2.4c-1.7-1.5-2.4-2.2-4.3-3.7 0 .6.7 1 1 1.3l3 3.2c.9 1.2 2 2.3 2.8 3.6l1.8 3-1-1.3-2.8-3.5a32 32 0 0 0-5.8-4.8c0 .4 2.3 3.4 4 4.3l1.6 1.6 1.4 1.6 2.4 3.7 1.1 2c-.9-.3-5-5-6-6-.7-.8-1-1.3-2.1-1.8 0 .5 2.8 3.7 3.5 4.4l.6.7 1.2 1.4c.8 1 2.3 2.7 2.8 3.7l.9 1.8c0-.2-1.7-2.3-2-2.6a11.8 11.8 0 0 0-1-1.2c-.9-1-2.4-2.7-3.5-3.5l-2.8-1.6c-.1.3.5.7.8 1l1 1c1.3 1 3 3 4 4.3.7.7 1.2 1.5 1.8 2.4a4 4 0 0 1-1-.9l-.8-.8-2-1.5-4.5-2.3c0 .4 1.6 1.3 2 1.6.9.6 2.4 1.5 3.1 2.3l.9 1c.6.5 1.1 1.2 1.7 2l1.4 2c.6.9.9 1.6 1.3 2.5l1.5 5.7c-.5-1.9-1.4-4-2-5.8-.6-1.4-1.8-4.8-3.5-4.1-.7.2-1 1-1.3 1.5-.4.8-1-.3-2.4 2.6-.8 1.6-1.3 3.5-1.6 5.3a1.8 1.8 0 0 0 0 .8c.3-.1.6-1 .7-1.5.7-1.8 1.4-2.8 2.4-4.5l-1.3 6.1c.4 0 .6-.9.7-1.3l1.7-4.5c2 1.4 2.6 9 3 11.6-.3-1-1-3-1.5-3.8l-2-3.4c-1.2.1-1.4 1.6-1.6 2.6-.4-.5-.7-1.3-1.5-1.2-.8 0-1 .9-1.2 1.7a9.6 9.6 0 0 0 0 2.7l.4 2 .3.3.4-5.2c.8.4 2.2 3.7 2 5.1-.7 5-1.2 6.6-3.9 10.7a22.2 22.2 0 0 1-2.2 3.1l-.9 1c1.4-2.4 2-3.3 3-6a30.4 30.4 0 0 0 1.5-7.5c-.3.1-.4.5-.5.9-2.3 7.1-2.6 7.4-6.4 13.8l.7-4.1c-.4 0-.3.2-.4.6l-.3.8c-.6 1.6-1.1 3.1-2 4.5l.5-1.4c.4-1.3.6-2.8.9-4.1v-1c-.4 0-.5.8-.6 1.3-.5 1.5-1.2 2.8-1.8 4.1v-.4c.1-.9.4-2.2.2-3.1l-.1-.3c-.4 0-.4.8-.5 1l-.4 1.3c-.9 2.5-2 4-3.2 6.3h.1-.1.1l7 1.5c3.5-.2 5.8-.5 9.3-.1.5 0 2.7.4 3 .2-1-.6-2-.9-3.1-1.2l-3.3-.9 9.3-.2-.8-.5c-1.6-.6-5.7-.8-7.4-1 3-.2 5.4-.5 8.5-.5.8-.2 3.5.6 2.3-.6-1-.7-4.6-.8-5.8-.8l5.6-.3c.9-.2 6.6 1.1 4.5-.2-1.5-.8-5-1.5-6.7-1.7 1-.6 1.9-1.2 3-1.6 2-1 4.3-1.6 6.6-2.2 2.4-.4 4.3-1.5 1-1-2 .2-4.4.8-6.1 1l1.6-1c1.5-.7 3.3-1 5-1.6.3-.1.2 0 .3-.3h-1.2c1-.6 3.8-1.1 4.9-1.4a73.8 73.8 0 0 0 3.8-1c.4 0 .9 0 1-.4l-.2-.2c-.3-.1-7.1.9-7.9 1-.6.2-2 .4-2.5.4 2-.8 4.1-1.7 6.3-2.4.4 0 2-.4 2.2-.7-.4-.2-.8 0-1.4 0-2 .3-4 .9-6 1.5l-2.1.7c7-2.7 4.3-1.9 10.7-3.2.8-.1 1.4 0 1.4-.5l-3.7-.3c-1.2 0-2.5.4-3.5.4l2.8-2.3c.8-.7.4-.9 1.7-.9h2.5c-1-1-1.2-.6-2.1-1l1-1.4.9-1.2v-.3h-.5l-2.8 2.4c-.5.4-.4.4-1.2.4-1.2.1-2.5.5-3.6.7a31 31 0 0 1 3.7-2.6l2.1-1.2c.6-.3 2-.7 2-1.1l-4.4 1.1a24 24 0 0 0-3.8 2c2-2.2 5-4.8 7.3-6.5.3-.2 1-.6 1-1h-.3c-1.3.3-4 2.1-5 2.7-1.6 1-3.3 2.2-4.7 3.5a34.9 34.9 0 0 1 3.3-3.2l.7-.7 1.3-1.1 2.8-2.5 1.4-1.2c.3-.3 1.2-.9 1.2-1.4a69 69 0 0 0-5.5 3.5l-2.7 1.9-2.5 2c1-1.8 2.2-3.7 3.6-5.2a57 57 0 0 1 5.8-5.5c.6-.4 1-1 1.6-1.3v-.2a48.2 48.2 0 0 0-8.2 6.4l-1 1a77.6 77.6 0 0 0-5.5 7.5c.7-2.8 2.6-4.9 4-6.5l3.4-3.7.6-.7c2.2-2.5 3.3-4.4 3.8-7.3l-1.8 2.3-.8 1-6.8 7.8c.3-1.1 1.7-3.5 2.3-4.4a75.7 75.7 0 0 1 2.7-4c.6-.8 3.6-4.7 4.3-5.4l.3-.3c.1-.5.5-.7 1-1.1.6-.5.7-.8 1.3-1.1-.6-.7-3 .8-3.4 1.1-3 2-5.1 4.9-7.3 7.7.3-1.5 2-6 3-7.2.6-1 1.3-2.2 2-3l2-3.1c-.5 0-1 .7-1.3 1l-.6.6c-2.6 2.8-4.2 5.9-6 9.3.1-1.7 1.6-4.6 2.5-6 1-1.9 2.3-3.4 3.4-5.2-.6-.2-2.5 2-2.8 2.5a30.3 30.3 0 0 0-5.6 10l-.2.5c.1-2.2 2.3-7.6 3.3-9.4.6-1 1.3-1.8 2-2.7l.7-1 1.4-1.7 1.3-1.9c-.8-.3-4 3.3-4.6 4-.8 1-1.5 2.1-2.1 3.1.3-1.7 1.6-4 2.6-5.5.8-1.3 1.7-2.4 2.6-3.5.3-.4.6-.7.8-1.2-1-.1-5 4.6-5.8 5.7l-1 1.3-1.3 2.1-.2.4-.3.4c.2-1.7 1.2-5.1 1.8-6.6.7-2 1.7-3.7 2.5-5.6-.7-.1-2 1.7-2.4 2.2l-1.5 3c.1-1.3 2.3-6.2 3-8-.4 0-.7.7-1 1.3-1 1.5-2 3-2.8 4.6.1-1.5 1.1-3.2 1.8-4.6-1.3.6-3.4 5.2-4 6.7-.2.6-.5 1.3-.6 2l-.3.8c0-3.6.7-7.2 1.2-10.7-.3 0-.4.4-.5.7l-.4 1-.7 1.9-1 4.2c-1.6-2-2-6-5-10.4-.9-1.4-1.2-1.6-2.5-2.5zm1.6 42.3c1.3 3.4 1.8 4.6 2.7 8.2a.8.8 0 0 0-.4.4l-.5 1.5-1-3.2c-.3-1.1.2-3.5-.2-3.9-.3.7-.2.8-.3 1.9l-.5-1.3c-.7-2-.8-1.4-.4-2.5.1-.3.4-1 .6-1.1z"/><g fill="#028a66"><path d="M493 306.4c.5-4.8 6.4-16 8-16.2.3 0-1.8 3.1-3.4 6.2a70.9 70.9 0 0 0-4.6 12.4v-2.4zm12.8-3-2.4 2.4a55.4 55.4 0 0 0-12 17.2c-2.5 6.2-1.9 4.6-1.1 1.6 2-6.6 7.2-14.9 12-18.9 1.8-1.5 3.5-2.6 3.5-2.3zM491 292.8c0-4.3.4-5.8 2.9-11 1.5-3.4 2.1-4.5 2.3-4.2.1.2 0 .8-.3 1.4a63 63 0 0 0-4.8 16.6s-.2-1.2-.1-2.8zm-7 24.1a25.3 25.3 0 0 1-7 19c-.5.2-.4 0 .6-1a27.7 27.7 0 0 0 6.1-16.9c-.2-3.2 0-3.7.3-1z"/><path d="M494.8 312.9c.5 1.5.5 5 0 6.9a13.8 13.8 0 0 1-10.7 9.7l1.5-.8c5.7-2.7 9.2-8 9.2-14 0-1-.2-1.6-.3-1.8 0-.5-.2-.9 0-1l.3 1z"/><path d="m507 322.3-5.3 1-8.4 1.6c-2.6.6-3.1.7-3.3.4a1 1 0 0 1-.2-.3 210 210 0 0 1 17.3-2.7zm-23-49.6c1.8 2.3 2.3 3.3 3.2 7.1.7 2.5.8 3.3.6 3.3a43 43 0 0 0-5.2-11.8l1.4 1.4z"/><path d="M482 275.5c.8 2.8 1.4 3.7 4 6.6 1.8 1.8 2.4 2.4 2.5 2.2l-.5-.8a42.4 42.4 0 0 1-6.5-10l.4 2zm16.7 8.8c-3 2.7-7.8 11.4-7 12.8 0 .2 1.3-1.8 2.6-4.5a60.5 60.5 0 0 1 6-9.6l-1.6 1.3zm1.4 2.2c-3.3 3-8.7 12.8-8 14.3.2.2 1.6-2 3-5a67.8 67.8 0 0 1 6.8-10.7c-.1 0-1 .6-1.8 1.4zm-19-9c.4 3 .9 4 3.2 7.2 1.5 2 2 2.7 2.1 2.5a42.9 42.9 0 0 1-5.6-11.6l.2 2z"/><path d="M485.6 283.4c2.3.8 3.1 1 3.1.8 0-.2-.4-.4-.8-.5-2.1-.6-8-3.2-8.1-4.3l-1.3-1.8s5.1 5.1 7 5.8zm20.2 10.3c-4.5 3.2-12.6 14.1-12 16 .2.4 2.2-2.1 4.5-5.5a82.2 82.2 0 0 1 9.8-12l-2.3 1.5zm-.7 6.7c-2 4-9.6 11.6-11.2 11.2-.2 0 1.5-2 3.9-4.1a64.7 64.7 0 0 0 8.2-9.1l-1 2zm-26.7 27.4c-.8 4-5.6 12.4-7.1 12.4-.2 0 .8-2 2.4-4.5a59.1 59.1 0 0 0 5-9.9c0 .1 0 1-.3 2zm12.4-23.5c-.8-2.5-3-5.5-6.1-8.3-3-2.7-4-3.2-1.3-.6a36.1 36.1 0 0 1 7.8 11c.1 0 0-1-.4-2zm2.3 31.8c-3.4-1-12.4-.9-13 .2-.2.1 2 .2 4.6 0a59.6 59.6 0 0 1 10.2.4l-1.8-.6zm-3.8 1.6c-3.5-.9-12.4-.4-13 .7-.2.1 2 .1 4.6-.1 2.7-.3 6-.3 7.6-.2l2.6.1-1.8-.5zm-4 1.9c-3.5-.8-12.4 0-13 1-.1.2 2 .1 4.7-.2a59.6 59.6 0 0 1 10.1-.3l-1.7-.5z"/><path d="M483 341.8c-3-1.1-10.7-1.3-11.4-.3 0 .2 1.8.3 4.1.3a45.2 45.2 0 0 1 8.8.7l-1.4-.7zm14-11c-7.4 2-16.2 3.4-16.8 5.1 0 .3 3.3-.3 6.5-1.5a70.5 70.5 0 0 1 12.8-4c-.1 0-1.3.4-2.5.4zm9.5-4.7-6.4 1.2-10 1.9c-3 .6-3.7.7-3.9.5l-.2-.5s9.5-1.8 14.8-2.6c4-.6 6-.8 5.7-.5z"/><path d="m504.3 324.2-5.4 1.6a222 222 0 0 0-8.1 2.4c-2.6.8-3 1-3.2.7a1 1 0 0 1-.3-.3 209.5 209.5 0 0 1 17-4.4z"/><path d="M502.4 315.6c-5 2-15.2 11-14.9 13a23 23 0 0 0 5.5-4.4 80.5 80.5 0 0 1 12-9.5s-1.2.3-2.6.9z"/><path d="M506.2 318c-5 .3-16.5 5.5-16.9 7.6 0 .3 2.8-.8 6.2-2.5a69.9 69.9 0 0 1 13.3-5.1h-2.6z"/><path d="M506 318.6c-12.9 10.8-20.2 16.1-22.7 15-.4-.2 4.7-3.1 9.1-6a97.6 97.6 0 0 0 15.5-12.1c0 .1-.8 1.5-1.9 3zm-13.8 3.4c2.6-4.3 4-5.5 9.5-9 3.5-2.3 4.8-3 4.8-2.6 0 .2-.5.7-1.1 1.1a70 70 0 0 0-14.7 13.4c-.2 0 .5-1.4 1.5-3zm1.4-12.3c.5-4.7 8.6-20.5 10.3-20.8.3 0-2 3.1-3.4 6.3a71.5 71.5 0 0 0-3.7 9c-.5 2-3.5 8.9-3.5 8.8l.3-3.3zm-3.4-18.2c-1.4-3.2-1.4-4.5-.4-9 .6-3 1-4 1.2-3.8.1.1.2.6 0 1.1a35.7 35.7 0 0 0 .3 13.7c-.1 0-.6-.8-1.1-2zm2.5 17.3c-.7-2.2-2.7-5-5.5-7.4-2.8-2.5-3.7-3-1.2-.6a32.5 32.5 0 0 1 7 10c.2-.1 0-1-.3-2zm-12.4 3.7c2.5-9.2 4.5-7.6 4.5-7.6 5.6 5.2 2.9 23.3 2.9 23.3 0-37-7.4-15.7-7.4-15.7z"/><path d="M482.3 311.8c2.6-9.2 3.2-8.8 3.2-8.8 4.7 1 4.4 21.3 4.4 21.3-2-34.8-7.6-12.5-7.6-12.5zM480 319c-.1-6.6 1.2-5.6 1.2-5.6 3.7 3.3 5.1 16.2 5.1 16.2-5.8-26-6.3-10.6-6.3-10.6zm11.3-19.4c-1.1-3.6-4.6-7.2-8.1-11.9-4.4-4-5.8-4.6-1.9-.9 2.5 1.6 7.5 8.8 9 13.2.8 1.5 1.4 2.6 1.6 2.5.2 0 0-1.4-.6-3z"/><path d="M490.8 296.5c-.8-2.8-3-6.3-6.4-9.2l-2-2a74.5 74.5 0 0 1 8.9 13.4c.1 0 0-1-.5-2.2zM472.2 333c-.2 2-2.4 6.4-3 6.5-.2 0 .3-1 1-2.4a30 30 0 0 0 2.1-5.2v1zm-1.8 1.1c-.3 2-2.4 6.5-3.1 6.5-.1 0 .3-1 1-2.3a30.2 30.2 0 0 0 2.2-5.2l-.1 1zm2.8.2c-.3 2-2.4 6.4-3.2 6.5l1-2.4a30.1 30.1 0 0 0 2.3-5.1l-.1 1z"/></g><path fill="#0f7d3a" d="M405 283.8c0 1 .3 1.3.7 1.9l.1-2c-.3-.2-.5 0-.8.1z"/><g fill="none" stroke="#0f7d3a" stroke-width=".627" transform="translate(-82.672 -25.552) scale(1.06534)"><path d="m455.2 304-.9-.8m1.8-4.6-.8-1m-1.7 13.5c-.3-2.1-1.5-2.7-1.5-2.7m11.3 30c-5.4-6-7.1-16.8-7.1-16.8 1.7-4.5 4-5.6 4-5.6m-4 5.5c-1.8-7-1.3-14.2-1.3-14.2.6-9 3.4-16.8 3.4-16.8m-3.5 19.3c1.4-6.6 6.9-5.8 6.9-5.8"/><path d="M454.8 311c5-2 4.3-6.3 5.2-8a11 11 0 0 1 2.3-3.5m-2.6 32.9c-1.7-4.2.3-5 .3-5m-1 3.6c-2.1-2.7-4.8-2.5-4.8-2.5m3.9-10.3c1.3-2.4 0-4.8 0-4.8m.6 16.3-3.8-4.9m2.3-30.4c.5-2-1-2.9-1-2.9"/><g transform="translate(442.052 224.217) scale(.1567)"><path id="a" fill="#e30631" stroke-width="2" d="M91.4 426a6 6 0 1 1-12 0 6 6 0 0 1 12 0z"/></g><use xlink:href="#a" width="100%" height="100%" transform="matrix(.1567 0 0 .18128 444.567 235.353)"/><use xlink:href="#a" width="100%" height="100%" transform="translate(443.685 248.32) scale(.1567)"/><use xlink:href="#a" width="100%" height="100%" transform="translate(439.992 252.043) scale(.16899)"/><use xlink:href="#a" width="100%" height="100%" transform="translate(438.744 256.228) scale(.16899)"/><use xlink:href="#a" width="100%" height="100%" transform="translate(440.286 257.844) scale(.16899)"/><use xlink:href="#a" width="100%" height="100%" transform="translate(463.222 286.05) scale(.12289)"/><use xlink:href="#a" width="100%" height="100%" transform="translate(464.293 287.305) scale(.12289)"/><path d="M458.8 316.6c-.3-1-1.1-1.2-1.1-1.2m14.7 24.1c1.6 1.2 2 .5 2 .5"/></g><g fill="#0f7d3a"><path d="M422.7 339.8c-1-3.7-.8-4.6-.8-4.6m-8-2.1s-.7-1.5.3-2.3c.6-.5 3.2 1 4.5-4.9 0 0-.8 0-2.6.8v-.5s-.4-1.3-.3-2.9c0 0 1-1.3 1-1.9 0 0-1.7-.6-5 3.6 0 0-.3-.9-2.7-2.5 0 0-1.3 3.7-.6 5.8.5 1.6.5 2.1 2.2 3.3 0 0 1.4.6 1.6 2.5l1.5-.1v-.9zm-2.5 4.3c-.6.3-.8.6-1.7.7-4.3.5-6.6-5-6.6-5-.2-1.2.3-.6 1.2-.3 1.2.5 1.5.1 2.8 0 1.7-.2 3.6 1.5 3.6 1.5 1.1.9 1.2 2.8 1.2 2.8-.1.3-.5.3-.5.3zm-5-10c-4.5-2-7 .2-7 .2-.3.2.2.4.2.4 2.7.3 1.8.2 3 1.8 2 2.7 5.5 2.1 5.5 2.1.7.2 1.4 1 1.4 1-.3-2.4-3.2-5.6-3.2-5.6zm-7.7-17.6c-.8-.5-.7.6-.7.6-1.8-3.2-6.6-3.4-6.6-3.4-.4 0-.6-.3-.6-.3-.8 0 .2 1.6.2 1.6 1.4 3.9 2.8 4.3 2.8 4.3-1.7 1-4.3-1.1-3.7.4 2.6 2.7 4.3 3 4.3 3 3.2.8 4.6 0 4.6 0 .8 1.4 1.3 1.6 1.3 1.6 2.9.9 3.5 2.5 3.5 2.5 0-3.2-1.2-7.1-1.2-7.1a16 16 0 0 0-3.9-3.2z"/><path d="M421.5 340.9c-1.6.5-1.7 1.6-1.7 1.6-1.5 2-7 .1-7 .1-1.7-.5-1.4-1-1.4-1 1.5-.7 2-1.3 2-1.3-2.9-2.7-3.3-6-3.3-6 4.6-1 6-.1 6-.1-.3-1.8-1.8-1.8-1.8-1.8-.4-.6.4-.6.4-.6 4 .4 6.1 2.9 6.1 2.9 1.5 2.1 1 4.2 1 4.2.4 2.1-.3 2-.3 2zm-18.6-18.4c-2.3-.6-3.5 0-3.5 0-1.2.5-3.3-.8-3.3-.8-2.8-2.3-3.3-3.7-3.3-3.7 0-.4 2.5-.3 2.5-.3 3.2-.1 4 .5 4 .5 1.6 1 1.4 1.8 2 2.2 1.4.8 1.7 1.2 1.7 1.2.4.6.5 1.1-.1 1zm4.3 1.1c1.5-1.7 3.6-.5 3.6-.5 3.1.4 4.2-3.2 4.2-3.2.7-1.5 1.3-2.2 1.3-2.2.1-.8-1.4-.1-1.4-.1-2.7.7-2.8 1-2.8 1l.4-4.4c0-.7-.7-.2-.7-.2-4 2.3-4.4 4-4.4 4l-1.6-3.1c-.5-1.3-.9.1-.9.1-.7 3.7-.5 4-.5 4 .6 2 1 2.6 1 2.6 1 1.2 1 1.6 1 1.6z"/><path d="M430.2 333.7c-.6.2-2.2 2.8-2.2 2.8-2-3.7-4.6-4.3-4.6-4.3-.5.2 0 1 0 1 .9 2 0 3.6 0 3.6-.3 1.4 0 1.7 0 1.7-3.1-1.6-3.3-1.4-3.3-1.4 0 2 2.3 5.7 2.3 5.7 5.2-1.4 5.6-1.3 5.6-1.3l1.9-.3c1.5-4.4.3-7.5.3-7.5zM405 313.4c2 1 2.1 2.3 2.1 2.3.5 1.7 5.2 2.1 5.2 2.1 3.7-.4 3.3-1 3.3-1-2.1-2-1.5-1.8-2.4-2.7-1.7-1.6-3.8-1.7-3.8-1.7-3 .5-3.6-.1-3.6-.1-1 .5-.8 1.1-.8 1.1zm-4.5-6.6c-1-3.4 2.2-7.6 2.2-7.6 2.5 4.8 2 6.1 2 6.1-.9 3.2-2.1 5.5-2.1 5.5-.5-2.4-1.8-2.7-2.1-4z"/><path d="M398.8 308.1c-3.2.1-6.3-3.6-6.3-3.6 4.8-1.2 6-.5 6-.5 2.6 1.5 4.4 3.2 4.4 3.2-2.2-.1-2.9.9-4 1z"/><path d="M396.3 303.5c-2 .4-3.8-1.7-3.8-1.7-2.8-3.7-1.9-4.9-1.9-4.9.2 0 .6.4.6.4.8.8 2.4 1 2.4 1-4.4-2.8-1.5-9-1.5-9 .5-.6.7 1 .7 1a5.7 5.7 0 0 0 2.4 2.5c.9 1.2.9 1.8.9 1.8.5-2.1 1-1.6 1-1.6.5 1.7 2.4 2.9 2.6 4 .6 3 .1 3.5.1 3.5l-.4 3.2c-1.6-.7-3-.2-3-.2zm10.5 7.5c1-1.5 0-4.1 0-4.1-.5-2.9 3.8-5.6 3.8-5.6 1.3 2.3 1.1 3.7 1.1 3.7l4-1c.2 1.8-1.6 4.5-1.6 4.5 2.7.8 3.6-.5 3.6-.5-1.3 6-7 4.7-7 4.7a11 11 0 0 0-4-1.7z"/><path d="M397.9 293.6c.3-3.6 1-3.7 1-3.7.3.1.5 1.7 1 2 2.3 1 2.3 3.4 2.3 3.4-.1 2.9-.5 2.6-.5 2.6-3.2 0-3.8-4.3-3.8-4.3zm10.3.7c1.1-4 .5-4.4.5-4.4-.5 0-1.4 1.6-2 1.7-3 .2-3.9 2.9-3.9 2.9-1 3.1-.5 3-.5 3 3.5 1.2 5.5-1.7 6-3.2z"/><path d="M398 286.9c.4-4.2 1.1-4.3 1.1-4.3.5.1.7 2 1.3 2.3 2.6 1.2 2.6 4 2.6 4 0 3.3-.5 3-.5 3-3.7 0-4.6-3.5-4.5-5zm11.7 1c1.2-4 .5-4.5.5-4.5-.4 0-1.3 1.7-2 1.7-2.9.2-3.9 2.8-3.9 2.8-1.2 3.1-.6 3-.6 3 3.4 1.3 5.6-1.6 6-3zm4.8 11.3c3.4-2.6 3-3.3 3-3.3-.3-.3-2 .5-2.6.2-2.4-1.6-4.8 0-4.8 0-2.7 1.8-2.2 2-2.2 2 2 3 5.4 2 6.6 1.1z"/><path d="M414.4 301.4c3.2-1.5 3-2 3-2-.2-.3-1.7 0-2.1-.3-1.8-1.6-4-.8-4-.8-2.6 1-2.2 1.2-2.2 1.2 1.2 2.7 4.2 2.4 5.3 1.9zm-11-19.2c-1.2-3.8 2.6-8.8 2.6-8.8a50.6 50.6 0 0 1 1.2 4.2c3-3 5.8-3.6 5.8-3.6l-.1 2.4c2-.2 2.8-.6 2.8-.6-.4 3-4.2 6-4.2 6-1.5 1-3.2.6-3.2.6-2.8.8-3.4 2.7-3.4 2.7-.3-1.7-.5 0-1.4-3zm5.6 12.5c1.7-2.2 4.4-1.3 4.4-1.3 2.5.2 4.6-2.3 4.6-2.3a7 7 0 0 1 1.8-2.2c-.1-.6-.7-.5-.7-.5l-1.5.3c1.1-4 .5-4.3.5-4.3-.4 0-.6.3-.6.3-.6 2-3.3 1.8-3.3 1.8-.1-2.7-.7-2.3-.7-2.3-.4.7-1.3 1-1.3 1-2.6 2.7-2.6 3.8-2.6 3.8.2 3-.6 5.7-.6 5.7z"/></g><g fill="#0f7d3a"><path d="m408.5 309.7 1.7-1.4c.6-.3.4-.2.7-.8l.6-1-.3 1.2 1.6-1c.1.4-.5.7-1 1a28.3 28.3 0 0 1-1.3.9l-2.4 2c2.2-.6 1.8-.2 3-.4 2.3-.4 3.4-3.7 4.2-5.6-1.6.3-3.3.6-4.5 1.4-1.5 1-1.4 2-2.3 3.7zm-6 8.3c0-.4-.5-1-.7-1.4l-1.5-2.7-.7-1.3c.3 0 .8 1 1.1 1.4v-1.4c.4 0 .3.4.3.8 0 1.3 0 1 .7 2.5l1.7 2.7-.4-1.2c-.5-1.8.6-3.9-3.8-6.5l-1-.6c0 2.1.3 5.6 2.2 6.7l1.1.5 1 .5zm-1-26.8c-.1-.6-.4-1-.5-1.7-.2-.5-.1-.4-.5-.7l-.5-.6.6.3a4.2 4.2 0 0 0-.5-1l-.6-1c.7 0 1.5 2.2 1.7 2.8.5 1.7.5 1.5 1.5 2.9 0-.3-.4-.7-.5-1-.3-1 .8-2.2-.2-4.3-.6-1.2-1.9-1.4-2.5-2.4l-.5-1c-.2.3-.5 1.8-.5 2.2-.1 1.5.2 3.5 1.3 4.4a7 7 0 0 0 1.7 1zm5.6-10.6c.2-.2.6-.8 1-1l1-1-.1-1c.2.1.1 0 .3.7.3-.2 1-1.3 1.2-1.7.2.3-.4 1.2-.6 1.5l-1 1.1-2 2.5 1.1-.3c1.3-.3 1.9-.4 2.8-1.9.9-1.4 1-3.1 1.4-4.7-1.8.8-3.8 1.5-4.8 3.3-.4.6-.2 1.2-.3 2.5zm-12 17.8c-.5-1.4-2-3-2.1-3.7l-.2-1.7c.3 0 .2 0 .2.2l.2 1.2.7 1.2c0-.8 0-.4.2-1 .3.4-.2 1 .3 1.9l1 1.4c0-1.1.7-2.9-.6-4.6-.4-.5-1-.7-1.5-1.2l-1.1-1.7c-1 1.8-.7 5.6 1 6.9l1 .5.5.3.5.3zm8.6-7.4c.8-.6.5-.9 2.3-2.2l1.1-1.1 1.1-1.2c.2.3-1 1.5-1.3 2h.7c-.1.5-.5.2-1.1.3-.5.2-1.9 1.7-2.3 2.1.4 0 .7-.2 1-.3 1.2-.2 1.9 0 3-1.4 1-1.3 1.4-2.9 1.9-4.4-1.5.3-3.4 1-4.2 2-1.2 1-1.1 2.1-1.6 3.1l-.6 1zm-6 11.4c0-.2-.7-.7-1-.9-.6-.4-.7-.4-1.5-.5l-2.6-1.4c.4-.2.5.2 1.1.5l1.2.5-.1-.6c.2 0 .2 0 .3.3v.4c1.2 0 1 .1 2.2.8-.2-.5-.2-.5-.6-.7l-.5-.7c-.4-.5 0 .2-.6-.7-1-1.5-2-.8-2.8-1l-1.8-.8a7 7 0 0 0 2.2 4c.4.4 1 .9 1.9 1l2.7-.2zm-1 9.5-1.1-1c-.3-.2-.5-.1-.9-.2l-.8-.3h.9l-.4-.3c-.7-.6-.8-.6-1.2-1.2.2-.2.3 0 .5.3l3 2.2 1.3.8c0-.8-1.3-3.1-2.3-3.6l-4.5-1.2c.2.8 1.3 2.9 1.8 3.5 1.3 1.8 1.5 1.2 2.4 1h1.4zm2.2-10.2-1.7-5.7c.3.1.3.5.5 1.1l.4 1.2.4-.8c.2.2 0 .8-.1 1-.2.7-.2.5 0 1l.9 2.2v-1.3c.3-1.3.5-2-.1-3.5-.6-1.3-1.5-2.2-2.4-3.2l-.5 2.3c-.2 1.4 0 3.4 1.1 4.4 1 .7.4.1 1.5 1.3zm3.4 7.3v-5.3c0-.4 0-.2.2-.5v2.3l.6-.9c.3.2 0 .5-.1.8-.1.3-.4.7-.4 1v2.6l.5-1c.6-1 1.2-2.3 1-3.5l-1.5-4.3-1 2a9.2 9.2 0 0 0-.7 2.4c-.2 2 .3 2.4 1 3.4l.4 1zm2.4-25.4.2-3.4-.2-.5-.3-1c.4 0 .2.3.5.6v.2l.2-.7.1-.8c.3.1.1 0 .2.2a3.7 3.7 0 0 1 0 .4l-.4 5.4c.2-.2.3-.7.4-1 .5-1 1.3-2.5 1.2-3.5l-1-5.1-1 2c-.7 1.4-1.3 3.4-.9 5l1 2v.2zM391 313l1.4 1.3a8 8 0 0 0 3.9 1.4l2.3-.4-.4-1-1.2.1a8.3 8.3 0 0 1-1.5 0 18.5 18.5 0 0 1-1.3-.3c-.7-.2-.5 0-1-.5l2.4.4c-.7-.5-.4-.2-.9-.9.3 0 1 .7 1.4.9l2-.1-.1-1.2c-1-.4-2.5-.4-3.6 0-2.1.7-1.4.5-3.4.3zm2.7 5.4c.2.4 2.3 2.9 2.9 3l4.7.3-2-1c-1-.4-1-.2-2.5 0 0-.3.3-.3 1.1-.5l-1.8-.6-.2-.2h.6c2.2.8 2.9 1 5 2L400 320c-2-2.5-4-1.7-6.4-1.6zm16.6-26.6.8-1.4c.3-.7-.3-.7 0-1.8.3.1.2.1.3 1l.9-2c.2.6-1.1 3.2-1.4 3.9l-.5 1.3c1.1-1.3 2.5-1.9 2.7-3l.2-5c-.8.6-2 1.7-2.5 2.6-.8 1.3-.7 2.5-.5 4.4zm-2.2 30.2 1.2-.6c2-.6 1.2.3 2.4-1.3l-.3.9c.8-.3 1-.9 1.7-1.5.1.3-.4.9-.6 1.1-1 1-2.1.7-2.8 1l-1.2.6c1.4-.3 1.2 0 2.4.2 2.4.3 3.1-2 4-3.5l.5-1a12 12 0 0 0-5.7 2.8l-.7.6c-.4.3-.7.4-.9.7z"/><path d="M408 309.4c.8-.8.6-2.7 1.2-3.8l.4-.5c.2-.3.1-.2.4-.2.1.2-.3.4-.5.8l-.4 1.2h.1l.2-.2c.6-.9 1-1 2-1.6l-.9-3-1.5 1.3a7 7 0 0 0-1.2 1.5c-1 1.9 0 2.7.1 4.5zm-.5 12.4 2-3.2v-1.5c.3 0 .2-.1.4.9.6-1 .2-.9 1-1.4 0 .3-.9 1.8-1 2l-2 3.1c.6-.2 1.2-.9 1.5-1.2l.8-.6.8-.5.8-4.6c-.7.3-2.7 1.8-3.3 2.5-1.2 1.6-1.3 2-1 4.5zm4.4-11.3 2.6-.2c-.1.3-.5.3-1.2.5l-4.5.1 1 .6 1 .6c.9.4 1.9.3 2.7 0l3.4-3.1c-1.8.4-.8.5-3.2 0-.4.3-.5.7-1.3 1.2l-.5.3zm-18.1-6.1c.7 1.4 2.8 3.2 4.7 3 .8-.1 1-.4 1.5-.9l-.1-.1a.8.8 0 0 0-.3 0c-1.4-.4-1.6-.2-3 0l.6-.4-1.2-.3-1-.5c.2-.2.2-.1.5 0 2 .6 2.4.6 4.5.9-.2-.7-1.9-1.4-2.8-1.6-1.4-.1-1.9.6-3.4-.1zm12.5 17-.7-4.2c.4.1.3.3.4 1.1l.8 3.8c0-1.5.5-2.5 0-4l-1.4-2.8c-.3.7-.5 2.6-.4 3.4 0 1.3.4 1.6 1 2.4l.3.3zm5.6-42.2.5-.6.6-.4c0 .3-.4.7-.8 1.1-.5.7-.8.8-1 1-1 1.2-.9 1-2.3 1.7 3 .2 4.7-3 6-5.3-2.9.4-2.4.6-2.6 1.5l-.4 1zm1 13 .8-1.4c.5-.7.8-.2 1.6-1-.2-.2-.1-.1-1 .2l1.4-1.9c-.8.2-2.4 2.9-2.8 3.5l-1 1.1c.6-1.7.4-3.3 1.2-4.1l4.7-3a14 14 0 0 1-1.2 3.8c-.7 1.5-1.9 2-3.7 2.8zm-11.6 5.5c-.2-.8-1.2-1.6-1.3-2l-.7-2.7c.4 0 .4.8.5 1.1l.3 1.2c.2-.9-.1-.3.4-1 .2.4-.3 1.3 0 1.7l1 1.2c.2-1.2.3-2.8-.5-3.6l-2.1-2.4c-.5.8-.5 3-.1 4.2.4 1.3 1 1.4 1.7 1.8l.8.5zm1.9-.3c.5-.7 1.8-1.2 2.1-1.6l1.7-2.6c-.4-.1-.7.6-.8 1l-.8 1c0-1 .2-.2 0-1.2-.5.4-.2 1.5-.8 1.9l-1.4 1c.2-1.5.7-3.2 1.8-3.8l3.1-1.7c.3 1-.6 3.4-1.4 4.5-1 1.2-1.5 1.1-2.5 1.3l-1 .2zm5.6.3c.9 0 3.2 0 3.9-.4l1-.5c0 .3 0 .1-.4.5h1.4c-.1.2.2.2-.8.3l-2.5.2-3.4.4c2.2.8 2.6 2 5 1 2-.7 2.4-1.5 3.6-3-3 .8-3.4-1.8-6.4.1l-1.4 1.4z"/><path d="M413 299.6c.7.1.4 0 1 .3-.2.3-1.6 0-2.1 0h-2.2c.7 1 1.9 1.5 3.5 1.3 1.7-.2 2.1-.6 3.4-1.4l-2.5-.8zm-1 14.3a4 4 0 0 0-1-.6c-1.5-.5-2.6 0-3.3 0l-1.6-.2c.5.5 2.2 1.1 3 1.2 2.1.4.7 1 3-.4zm.2 1.6.7.6c-.2 0-.4 0-.7-.2l-.1 1.4 2.9-.3a21 21 0 0 0-2.6-2.8l-.2 1.3zm-3.7.8 1.7-1.3c-.4-.3-1.2-.3-1.8-.5l-1.7-.7 1 1.3c.2.4.4 1 .8 1.2zm8.4-25.7c-.7.5-1.3 1.2-2.1 1.5-1.1.5-2.4 0-3 .7 1.8 0 3.1.7 4.6-.7 1-.8 1.7-2.1 2.5-3.2-.3 0-1.3.3-1.5.5l-.4.6c-.3.5-.1.1 0 .6zm-6.3 43.7 1.4 2.9 2 2.3 1.2-.7 1.6-.6c-.9-.3-1-.7-1.4-.8-1.2 0-.5.1-2.1-.1.1-.3 0-.2.9-.2h1c-.6-.6-1.3-1-2-1.4l2 1v-1.3c.5 0 .2.8.5 1.6 0 .3.7.8 1 1 .8.3 1 .2 1.7.4l1.7.5c-.7-1-.4.1-1.5-2.2-.5-1-1-1.5-1.7-2-1.9-1.2-4.2-.4-6.3-.4zm2.3-2.8v-3.3c.1-.6-.1-2-.2-2.7.2 0 .2.2.2.5l.3.7c.2-1.2.3-1.1 1-2 0 .3-.7 1.2-.8 2.6l-.2 3.4.3-.4.4-.4.6-.8c1.6-2.5.6-4 .7-4.7l.4-2.5c-.5.2-1.9 1.2-2.2 1.6-1.2 1.2-2.5 3.5-1.7 5.4l.7 1.2.5 1.4z"/><path d="m412 341.2 2.3.8c1.5.5 3.8.7 4.9-.7.5-.8.9-1 1.6-1.5-1.1 0-1.9.4-2.8.6-.8.2-.8.7-1.4 1.3l-.5.3c0-.3.7-1 1-1.4h-2.2c0-.3.7-.2 1.6-.3 1.9-.1 2.2-.6 4.2-.9a.8.8 0 0 0 .4 0c-3 0-3.7-2.1-7.3.5zm14-1.8v-1.6c-.7-.5-.7-.6-1.1-1.4.3 0 .5.6 1 1 0-.7-.3-2-.5-2.7.4 0 .5 1 .6 1.3.4 1.8 0 3.2.4 3.8l.9 1.1c.3-1.2 1.5-2 0-5-1-2-1.7-2.2-3.2-3.4.2.9.4 1.2.2 2.2 0 .7-.3 1.3-.4 2-.2 1.6.3 1.5.6 1.7l1.5 1zm-15-3-.5-1c-1.3 0-1.7.6-3.5-.6-.4-.3-.4-.3-.6-.8l2 1.1c-.2-.2-.4-.4-.8-1.2 0 0 0-.2.2 0l.2.2 1 1.2 1.2-.1-.3-.8c-.2-.5-.1-.6-.4-.8-.5-.3-1-.6-1.7-.7-.8 0-1.3.2-2 .3l-2-.4c0 .3.8 1.6 1 1.9.8 1.2 3 3 5 2.2l1.1-.4zm-10.6-9.3.1.1h.2l1.5 1c.5.6.5.9 1.3 1.6 1.3 1 2.7 1 4.4 1.2l-.8-1c-1.4-1.4-1.1-1.3-2-1.2l-1.4.1c0-.2 1-.3 1.5-.4a4 4 0 0 0-.9-.3l-1-.3c.4-.5 2.2.2 3 1 .7.5 1.5 1.5 2 2.2l-1-2.1c-1-1.9-3.6-2.5-5.6-2.2l-1.3.3zm11.9 4.9c-.7-2.2-1.9-3.2-2.2-4.6-.2-.9-.1-1 0-1.8.5.6-.3 1 1 3.3 0-.8-.3-1-.1-2l.4-1.7c0-.3-1.6-1.8-2-2.3-.3 2-.8 3.8-.2 5.7.7 2 1.8 1.6 3 3.4zm10.7 10 1.4-.3-.9-1.1c-.6-1-.5-1-.3-1.4v.1c0 .3 0 .4.2.7l.4.5 1 1.1v-1.5c.3.1.2 0 .3.2v1.3l1.6-.5c-1-1.8-3-2.5-5-3.2l.6 2.2.7 2zm-2.5-4-.7-1.3c-.5-1-.4-1.6-1.4-2.6l-.5-.6c-.2 0-.4-.2-.5-.3v-.2c.4 0 1 .7 1.3 1 .6.5 2 3.5 2.5 4.4 0-.4-.3-.9-.2-1.3.4-1.1-.7-3-1.2-3.3l-4.4-2c.5.5.8.8 1.2 1.6.3.7.4.1 1.5 1.3 1.2 1.3 1.2 2.9 2.4 3.4z"/><path d="m428.6 338 .2-.6c.1-.4 0-.2.4-.6.1.3 0 .4-.2 1l-.9 3c1 0 1-.1 1.3-.8.3-.5.5-1.1.6-1.7l-.1-4.1-1.3 1.7c-.7.9-.2.4 0 2.2zm-13.2-9.3 1.3-1.4c.2.3-.6 1.2-.8 1.4-.7.6-.3 0-1.2 1 1.9.4 2.7-2.1 3.3-3.4-.4 0-1.6.4-1.9.6-.2.1-.2 0-.2.4l-.2.5-.3.9z"/></g><g fill="#e30631" stroke="#0a1a1d"><path stroke-width=".295" d="m434.5 352.3 2.3 1.2-1.3 2.6c1-.1 4.5-1.4 5.7-1.7-.3-.8-.4-1-.3-2l-.4-1.9-2.9 1a24 24 0 0 1-3.1.8zm31-.5-2.3 1.3 1.3 2.6c-1-.1-4.5-1.4-5.7-1.7.3-.9.4-1 .3-2l.4-1.9 2.9 1a24.2 24.2 0 0 0 3.1.7z"/><path stroke-width=".301" d="M443 356c2.7-.4 5.1-1.8 5.1-1.8.4.5 2.5.2 2.5.2l1.4-.4c2.7 1.7 4.7 2 4.7 2 2.4-.2 2.5-2 2.5-2-.1-1.6-.3-1.6-.3-1.6 1.3-2 0-3.6 0-3.6-.7-.7-4.3.5-4.3.5-2.5 1.1-2.6.6-2.6.6-.7-1-3.3-.9-4.4 0-2.7-.6-3-.8-3-.8-2.8-1-3.2-.4-3.2-.4-1 1.1-.7 2.3-.7 2.3 0 .7.2 1.3.2 1.3-.6 3.5 2.2 3.7 2.2 3.7z"/><path stroke-width=".239" d="M452 353c5.9 1.4 5.5 2.2 5.5 2.2-.4.6-2-.2-2-.2-4.7-1.6-3.5-2-3.5-2zm-3.6 0c-5.8 1.4-5.4 2.2-5.4 2.2.3.6 2-.1 2-.1 4.6-1.6 3.4-2 3.4-2z"/><path fill="#c40f38" stroke-width=".223" d="M448.7 349.1c-2.6.5-.6 2.3-.5 3.5 0 .6-.6 1.7 0 2 .7.2 2 0 2.7 0 1-.1 1.6 0 1.5-1.3 0-1-.4-1.2-.4-2.5 0-.8.1-1.7-.8-1.8l-2.5.1z"/><path fill="none" stroke-width=".241" d="M452.1 350.5c6.7 0 6.2-1.1 6.2-1.1m-6 3.1c6.6 1 5.7 1.9 5.7 1.9"/><path fill="none" stroke-width=".234" d="M448.1 352.3c-6.2 1.4-5.6 2.4-5.6 2.4m5-4.3c-6.4.4-5.7-.6-5.7-.6"/></g><path d="M422.7 342.6a39.7 39.7 0 0 0-8.9 3.8l-4-6.2a8.7 8.7 0 0 0-2.8-2.4c-1.9-.8-2.5-.6-3.7.4l-.8-1.5c-1.6-2.9-3.4-4.2-5.2-6.6l-1.6-1.9-.6-.6c.7 2.4 1.2 4.6 1.6 7l-3-1.5c-.7-.3-2.7-.7-3.7-.6l1.2 1c2 1.9 3.4 4.3 4.2 7 .9 3 3 6 5.2 8.2.4.4 1.7 1.6 2.5 1.9 2.5.8 2.4 0 3.3-.5a39 39 0 0 0 5.3 7.2c2.3 2.5 6 3.2 9.4 2.4 1.5-.4 2.4-.8 3.5-1.5 4.4-2.5 2.3-4.4 1.8-6.4 1.4-.5 7-2.1 9-2.5 7-1.3 20-1.5 28.3-.3.8.1 9.2 2.4 10 2.9-.6 1.3-.8 2-.7 3.6.1 1.4 1.3 2.1 2.4 2.7 1.2.7 2 1.1 3.6 1.5a12.3 12.3 0 0 0 4.5.2 9.6 9.6 0 0 0 6.1-4c2.2-2.5 3-4 4-5.9 0 0 .7.6 1.2.8.4.1 1.8-.1 2.1-.3 1.1-.4 1.8-1.2 2.5-1.9 2.4-2.2 4.3-5.1 5.2-8.2a15 15 0 0 1 5.4-7.9c-3.5.1-4.7 1-6.7 2.2l.7-3.6 1-3.5c-1.7 1.7-3 3.5-4.5 5.1l-2.1 2.6c-1.4 2.2-1.1 2.2-1.7 3-5-2.8-7.1 3.9-10.5 8a55.4 55.4 0 0 0-18.9-6c-1.6 0-3-.3-4.4-.5-9.2-1-19.3-1-28.5.4-4.7.6-7.6 1.4-11.7 2.4z"/><g fill="#e30631"><path d="M416.3 356.9c.6-1.7 1.3-2 2.7-2.7 4.5-2 6.7-3 11.9-4.3a66.4 66.4 0 0 1 9-1.7l4.8-.4a84.3 84.3 0 0 1 24.5 2.1c4.6 1.2 7.6 2.3 11.8 4.3 2 .9 1.7.9 2.7 2.6 1.4-.9 2.4-2.9 3.2-4.2.4-.7 1-1.7 1.3-2.5.4-1.4-.4-1.8-1-2.3-2.4-2-6.7-3.8-10.4-4.8a108.2 108.2 0 0 0-53.5 0 31 31 0 0 0-11.2 5.6c-1 1 .5 3 1 4l1.4 2.3c.5.8 1.2 1.4 1.8 2z"/><path d="M400.6 342.8c1.8.3 2.4.8 3.6 2.4 2.6 3.5 2.7 6 7 10.8 1 1.1 1.8 2 3.3 2.7 1.6.7 3.3 1 5.2.7 1.8-.3 3.1-.7 4.5-1.5 0 0 1.6-1 2-1.5.4-.6.5-2 .5-2-1.3-.3-3.6 2.2-5.2 3.2-2.8 1.9-3.8 1.2-5.8-.5-1.7-1.5-2.4-3.1-3.5-5-.4-.8-1.2-2-1-3.2l2.1-2.1c-.8-1.4-1.8-3-2.6-4-1-1.7-1.6-2.7-3-3.8-.7-.6-2.3-1.5-3.4-.9-1 .8-1.6 1.6-2.4 2.6-.5.5-1 1.3-1.3 2z"/><path d="m397.6 336-2.6-1.7-3.3-1c.4.5.9.8 1.8 1.9 2 2.7 2 4.8 3.7 8a20.9 20.9 0 0 0 5.3 6.3c1.1 1 2.3 1.1 3 .3.1-.5-1.4-1.5-2.2-2a13 13 0 0 1-2.6-1.7c-2-2-.4-4.4 1-6l1-1.3c.3-.8-1.4-3-2.2-4.2l-4.2-4.8.6 3.2c.2.7.7 2.4.7 3zm29 17.9-.8-1.9c-1 .1-6.3 2.5-7.6 3.3-.3.2-1.8 1.4-1.1 2.1 2 2.2 5.1-1 7-2.4.6-.6 1.4-1.2 2.5-1.1z"/><path d="M406.1 349.6c-.3-.1-.2-.8-1.4-1.7-.5-.3-3.2-1.7-3.6-2.2 0 0-1-.7-.8-1.6 0-.7.7-.8.7-.8 2.4 0 5.3 6 5.1 6.3zm93.4-6.7c-1.8.3-2.5.8-3.6 2.4-2.6 3.5-2.7 6-7 10.8-1 1.1-1.8 2-3.3 2.7-1.6.7-3.3 1-5.2.7-1.8-.3-3.2-.7-4.5-1.5 0 0-1.6-1-2-1.5-.5-.6-.5-2-.5-2 1.3-.3 3.6 2.2 5.1 3.2 2.8 1.9 4 1.2 5.9-.5 1.7-1.5 2.3-3.1 3.5-5 .4-.8 1.2-2 1-3.2l-2.2-2.1 2.7-4c1-1.7 1.6-2.7 3-3.8.7-.6 2.3-1.5 3.4-.9 1 .8 1.6 1.6 2.4 2.6.5.5 1 1.3 1.3 2z"/><path d="M502.5 336c.4 0 1.9-1.2 2.6-1.6l3.3-1c-.4.5-.9.8-1.8 2-2 2.6-2 4.7-3.7 8a20.8 20.8 0 0 1-5.3 6.3c-1.1 1-2.6 1-3 .3-.1-.6 1.4-1.6 2.2-2a13 13 0 0 0 2.6-1.8c2-2 .4-4.4-1-6l-1-1.3c.2-1.5 1.4-3 2.2-4.2l4.2-4.7-.6 3.1-.7 3zm-29 18 .8-1.8c1 0 6.3 2.4 7.6 3.2.3.2 1.8 1.4 1.1 2.1-2 2.2-5.1-1-7-2.4-.6-.5-1.4-1.1-2.5-1.1z"/><path d="M494 349.7c.3-.1.2-.8 1.4-1.7.5-.3 3.2-1.7 3.6-2.2 0 0 .9-.7.8-1.6 0-.7-.7-.8-.7-.8-2.4 0-5.3 6-5.1 6.3z"/></g><path fill="#fcd80e" d="m421.8 346.2-.8.1-1.1.5c-.2 0-.2.2 0 .3.2.1.2.4.3.7l.2.7c0 .4.2.7.3 1l.2 1c0 .2-.3.5 0 .4l.9-.3s.3-.2 0-.2c-.2-.2-.1-.5-.3-.8l-.2-.7c.1-.3.5 0 .5.1l.6.6c.2.2.5.4.8.4a1 1 0 0 0 .6 0l-.9-.8-.5-.8c.3-.3.6-.6.6-1s-.2-.9-.5-1.1a1.6 1.6 0 0 0-.7-.1zm-.3.3c.2 0 .4.2.5.4l.2.8a.7.7 0 0 1-.4.6c-.2.1-.6.4-.6 0l-.4-1.3c0-.2.2-.3.4-.4a1.2 1.2 0 0 1 .3 0zm1.8-1c0 .3.3.4.3.6 0 .3 0 .6.2 1l.1.8.2.6.1.8c.1.1-.2.4 0 .3l2.3-.6c.2 0 .3 0 .2-.3v-.7c-.2 0-.2.4-.4.5-.3.3-.6.4-1 .5-.2 0-.3-.2-.4-.4v-.5l-.2-.8c.2-.1.5-.2.8-.1.2 0 .3.3.4.1l-.1-.7s0-.4-.2-.3l-.3.4a1.8 1.8 0 0 1-.7.2l-.1-.7c0-.2-.2-.6.2-.6a1 1 0 0 1 1 0c0 .1.3.4.4 0-.2-.1-.2-.5-.4-.6h-.6l-1.8.6zm5-1.3-.8.1-1 .4c-.3 0 .2.2.2.4l.1.6.1.7.2 1 .2.8-.1.6 1-.3c.1 0 .2-.2 0-.2l-.2-.7-.1-.8c.4 0 .9-.2 1.3-.5.2-.2.4-.5.4-.9a1.4 1.4 0 0 0-.2-.8 1.3 1.3 0 0 0-.5-.4h-.5zm.6 0zm-.9.3a.7.7 0 0 1 .7.5c0 .3.1.6 0 .8 0 .2 0 .4-.3.5l-.6.2-.1-.6-.2-1c0-.1.1-.3.3-.3a1 1 0 0 1 .2 0zm4.1-1c.2 0 .3.1.4.3l.1.5.1.8.1.7.1.8c0 .5-.5.8-.9.7a.6.6 0 0 1-.4-.4c-.2-.1-.2-.3-.2-.5l-.2-.9-.1-.8-.1-.7c0-.2.3-.4 0-.4l-1 .2c-.3.2.2.2.2.4v.6l.3 1.4v.6l.4.5c.1.2.4.4.7.4.4.1 1 0 1.3-.4l.3-.6v-1l-.2-1-.1-.7a.6.6 0 0 1 0-.4c0-.2.2-.3 0-.4h-.5l-.3.2zm3.3-.7c-.5 0-.9 0-1.3.2-.2 0-.5 0-.6.2.1 0 .3.2.2.4l.3 1.4v.9l.1 1c0 .1-.2.4 0 .3h.6a5.2 5.2 0 0 1 .7-.2 4.8 4.8 0 0 0 1-.2 2.5 2.5 0 0 0 .4-.4.7.7 0 0 0 .2-.5c0-.3 0-.7-.3-.9l-.6-.2c-.1 0-.3-.2 0-.3.1-.1.4-.3.4-.6a.8.8 0 0 0-.1-.7c-.1-.2-.4-.3-.6-.4a2.4 2.4 0 0 0-.4 0zm-.6.3c.3 0 .6 0 .8.3v.7c0 .3-.2.4-.5.5-.1 0-.5.2-.4-.1v-.6a5 5 0 0 1-.1-.6zm.3 1.9.7.1c.2.2.3.5.3.8 0 .2 0 .5-.2.6l-.8.2c-.2-.1-.2-.4-.2-.6l-.1-.7c0-.2-.1-.5.2-.4a.7.7 0 0 1 .1 0zm2.1-2.6.2.4.1.7v.6c.1.3 0 .6.2.9v.8l-.1.7h1.3l.5-.1h.7a4 4 0 0 0 .1-1s0-.2-.1-.1c0 .2-.2.3-.3.5a1 1 0 0 1-.4.2h-.4c-.2.1-.4 0-.4-.2l-.1-.8-.1-1.5-.1-1s.3-.3 0-.2a1.9 1.9 0 0 1-.4 0l-.5.1a1 1 0 0 0-.2 0zm3.1-.3c0 .1.2 0 .2.2l.1.5v.6l.2 2v.4l-.1.4 1.2-.1c.1 0 0-.2 0-.2-.2-.1-.2-.3-.2-.5l-.1-1v-.6l-.1-1v-.7s.2-.2 0-.2a7 7 0 0 0-1 .1.3.3 0 0 0-.2 0zm5 2.5c-.2 0-.3.3-.4.4-.1.2-.4.3-.6.3-.2.1-.5 0-.7-.3a2 2 0 0 1-.3-.6l-.2-.7a4.2 4.2 0 0 1 0-1l.4-.7c.3-.1.6 0 .8.2l.4.5c.1.3.2 0 .2-.2l.1-.5c-.1-.2-.4-.2-.6-.3-.5-.2-1 0-1.4.3-.1 0-.3.2-.3.4-.2.1-.2.3-.3.5l-.1.7c0 .5 0 1 .3 1.5l.5.6c.1.2.4.3.7.3.3 0 .6 0 .8-.2.3-.2.4-.4.5-.6a1.2 1.2 0 0 0 .2-.5zm1.8-3.1h-.6l-.2 1-.1.6-.4 1.7-.3.8c-.1 0 0 .2 0 .2h.9c0-.2-.3-.3-.3-.5v-.5c0-.3.4-.1.5-.2h.7l.2.7c0 .2-.3.4 0 .4h.9c.3 0 0-.3-.1-.5l-.3-.9-.4-1.3-.3-1.2c0-.2 0-.3-.2-.3zm-.5 1 .5 1.6c.1.2-.1.1-.3.2h-.5v-.6l.2-.7.1-.5zm5.4-1.2-1.2.1.2.4v1l-.1 2.6c0 .1-.3.4 0 .4l1.7-.1c.2 0 .4-.2.5-.3l.5-.6a3 3 0 0 0 .2-.9 3.4 3.4 0 0 0 0-.9l-.3-.7-.3-.5a2 2 0 0 0-.6-.4h-.6zm.1.4c.3 0 .5.1.6.3l.2.6V344.3a1.7 1.7 0 0 1-.2.8c-.1.2-.3.2-.5.3-.2 0-.5 0-.5-.2V342c0-.2.2-.3.4-.2zm3.7-.2a1 1 0 0 0-.7.2l-.5.6c-.2.4-.3.7-.3 1.1v1l.2.6a1.4 1.4 0 0 0 1.2 1c.4 0 .8-.2 1-.5l.5-1 .1-.7v-.6c0-.3-.2-.6-.3-.8-.1-.3-.3-.6-.6-.7a1 1 0 0 0-.6-.2zm0 .2c.3 0 .5.4.6.7v2.6c-.1.2-.2.5-.4.6-.2.1-.4.2-.5 0-.2 0-.2-.3-.3-.5l-.1-1v-1.4l.2-.7a.5.5 0 0 1 .5-.3zm1.6 4.4h.8c.2-.1-.2-.3-.1-.5v-.8l.2-.7v-.7l.2-.7.1.7.1.8.2.8v.8c.1.2 0 .5.3.4.3.1.2-.2.3-.4l.3-1.1.2-.7c0-.4.2-.8.3-1.1v3.1c0 .2-.3.4 0 .4h.8c.2.1.2 0 0-.2v-2.4a12 12 0 0 1 0-1.4c0-.1.3-.3 0-.3h-.9l-.2.7a11.2 11.2 0 0 1-.2.9l-.2.8s-.1.2-.1 0l-.1-.7v-.6l-.2-1.2c0-.2-.4-.1-.5-.2h-.6c.1.3.2.5.1.8v.7l-.4 1.6-.1.6c0 .2-.1.3-.3.5zm4.2.4c.2.1.5 0 .7.2h.4l-.2-.6.1-.7v-.6a27.5 27.5 0 0 1 .2-1.5 1.6 1.6 0 0 1 0-.5c0-.2.2-.2.3-.3 0-.2-.3-.1-.4-.2h-.8s.2.1.2.3v.5l-.1.8v.8c-.2.2-.2.4-.2.6a3.2 3.2 0 0 1 0 .7c0 .2 0 .4-.2.4v.1zm1.4.3.6.1h.3a1 1 0 0 1-.2-.7l.1-1a2.5 2.5 0 0 1 0-.8l.2-.7.2.5 1 2.6c.1.2.1.4.3.5.3 0 .2-.2.2-.4s.2-.4.1-.6l.1-.7v-.7l.2-.7v-.8c.1-.1.5-.3.3-.4-.3 0-.6-.2-.8 0l.2.5v1.4l-.2.8-.3-.7c0-.3-.2-.6-.3-.8l-.2-.7-.4-.8a4.3 4.3 0 0 1-.8-.2c-.2.1.1.3 0 .5.2.3 0 .7 0 1a5.3 5.3 0 0 1 0 .7l-.1.8a7.1 7.1 0 0 1-.1.7c0 .3-.2.4-.4.5v.1zm3.8-3.6c0 .1.3.2.2.4v.6a3.9 3.9 0 0 1-.2.6v1l-.1.5-.1.5v.4l-.3.1c0 .2.3.2.4.2.2 0 .4 0 .6.2.2 0 .2-.2.1-.2-.2-.2 0-.5 0-.7v-.5l.1-.7.1-.5v-.7l.2-.5c0-.2 0-.4.2-.5a1.6 1.6 0 0 0-.5-.1l-.5-.1a.2.2 0 0 0-.2 0zm1.4 3v.7c0 .3.2.6.4.8l.5.5h.8l.4-.3.5-.6c-.2-.2-.3 0-.4.2-.3.1-.6.2-1 0a1 1 0 0 1-.3-.5v-.6a8.8 8.8 0 0 1 0-.9v-.7l.3-.6a.6.6 0 0 1 .5-.2c.2 0 .3.2.4.4a1 1 0 0 1 .2.6c0 .1.2.4.3.2l.2-.7c0-.2-.2-.3-.4-.5l-.4-.2h-1a1.5 1.5 0 0 0-.4.4l-.4.8a3.5 3.5 0 0 0-.2.8v.4zm4.3-1.7-.7 1.7-.3.6c0 .3-.2.6-.4.9-.1.2-.1.5-.4.6-.1 0 0 .2 0 .2l.7.2c.2-.1 0-.3 0-.4v-.6c.2-.2.5 0 .7 0l.4.1v1c-.2 0-.1.2 0 .2l.7.2s.3 0 .2-.1c-.2-.3-.1-.6-.1-1v-.7l-.1-.6V344.7l-.6-.1zm0 1v2l-.7-.2c-.2-.2.1-.4.1-.6l.4-1s0-.2.2-.2zm2 4c-.1-.2-.3-.4-.2-.7l.1-.9.2-.6.1-.8c.1-.3.2 0 .2.1l.4 1.4.1.6.4 1c0 .3 0 .6.3.5.2-.2.2-.5.3-.8l.1-.7.3-1.2.2-1c0-.1.4-.3.2-.4l-.7-.2.1.6v.7a5.7 5.7 0 0 0-.2.7l-.2.7c-.1-.1 0-.4-.2-.6l-.2-.9a7.5 7.5 0 0 1-.2-.9 2.7 2.7 0 0 1-.2-.6c-.2-.2-.5-.2-.7-.3-.2-.2-.4 0-.2.2v1.3c-.2.4-.3.7-.3 1.1l-.2.8c0 .2-.2.4-.3.5-.3.3.2.3.3.3a.9.9 0 0 0 .4.2zm4.2-2.8-.5 1-.5.8-1 1.6s-.3.3 0 .3l.6.3c.2-.1 0-.3 0-.5s0-.4.2-.6l.5.2c.1 0 .5 0 .5.3l-.1.8c-.2 0-.2.1 0 .2l.4.2c.2 0 .3.2.5.1 0-.2-.2-.4-.1-.6V346.9l-.5-.2zm-.2.9v2l-.5-.2c-.1-.1-.4-.1-.2-.3l.4-.8.3-.7z"/><g transform="matrix(1.11591 0 0 1.11592 -106.897 -41.652)"><path fill="#faf6f5" d="M474.5 281v40.6c0 3.6 0 5.9 1.8 8.1a11 11 0 0 0 6 4.2c1.7.3 7.7.2 9.8.2 4.6-.2 5.2.8 7 3 2-3.1 4.1-3.2 8.2-3 2 0 6.6.1 8.4-.3 2.2-.5 4-1.6 5.4-3.3 2.3-2.7 2.2-6 2.2-9.6v-38.3c0-1.8-.2-1.3.7-2.2l5.8-6H468l6.4 6.6z"/><path fill="#001f56" d="M493.8 299v-24.7h-25.5l6.3 6.7v18z"/><path fill="#e30631" d="M504 299v-24.7h26l-6.7 7.1v17.7zm-10.2 10.3h-19.3l-.1 15.6c.9 6.8 6 9.2 10.4 9.1h9z"/><path fill="#001f56" d="M504 309.3h19.4V325c-.5 6.8-6 9.2-10.5 9.1h-9z"/><path fill="none" stroke="#0a1a1d" stroke-width=".454" d="M474.6 281v40.6c0 3.6 0 5.8 1.8 8.3 1.4 2 3.5 3.6 6 4 1.7.3 7.7.2 9.8.2 2.7 0 3.9-.2 5.7 1.6l1.1 1.5a8.2 8.2 0 0 1 3-2.8c1.4-.5 3.8-.3 5.4-.3 2.1 0 6.6.1 8.4-.3 2.2-.5 4.2-2 5.4-3.3 2.4-2.7 2.2-6 2.2-9.6v-38.3c0-1.8-.2-1.3.7-2.2l5.8-6h-61.7l6.4 6.6z"/><path fill="#fcd80e" stroke="#0a1a1d" stroke-width=".273" d="M498 280.4v2.8H495v2.3h2.8v10h2.3v-10h2.9v-2.3h-2.9v-2.8z"/><g id="b"><path fill="#faf6f5" d="M481.9 284v4.6l-1.9-2 .3 32c0 4.7 3.4 8.6 7.6 8.6 4.2 0 7.6-3.8 7.7-8.5l-.3-16.4-2-2.2-.1-1.7z"/><path fill="#001f56" d="M481.9 284.2v4.6l-1.9-2 .2 18.2 8.2 7.9v-17.4l-.2-.4v-3z"/><path fill="#e30631" d="m490.8 295.5 2.4 3v1.1l-2.4-2.5zm4.5 7 .2 11.4c-1.2 2.2-3.6 1-3.6 1l.1-15.8z"/><path fill="#001f56" d="M495.6 319.6c-3.2 2.4-4-1-4-1a4.4 4.4 0 0 0 4-3z"/><path fill="#e30631" d="M480.2 309.7c4.3 4.9 8 7.5 8 7.5 1 7.7 5.5 5.1 7.1 4-1 3.5-3.9 6.2-7.4 6.2-4.2 0-7.6-3.9-7.6-8.7z"/><path fill="none" stroke="#0a1a1d" stroke-width=".262" d="M493.2 299.6v-1.1L481.9 284v4z"/><path fill="none" stroke="#0a1a1d" stroke-width=".317" d="m480 286.7.3 31.9c0 4.7 3.4 8.6 7.6 8.6 4.2 0 7.7-3.8 7.7-8.5l-.3-16.5z"/><g fill="#fcd80e" stroke="#0a1a1d" stroke-width=".064"><path d="M486.2 281.2c-.8-1.4-.7-2-.1-2.6l-3-3 .9 4.2c.8-.2 1.4 0 2.2 1.4zm-3-5.6 3 5.6"/><path d="m498 300.7-.7.3-12-20.4.8-.4z"/><path d="M485 280.6c-.1-.2 0-.5.4-.7.4-.2.8-.2.9 0 0 .1-.1.5-.5.7-.3.2-.7.2-.8 0zm-4 1.6c-1-1.3-.9-2-.4-2.6l-3.3-2.6 1.4 4c.8-.2 1.4-.1 2.3 1.2zm-3.7-5.2 3.7 5.2"/><path d="m495.3 300-.7.4-14.4-18.7.6-.5z"/><path d="M479.8 281.8c-.2-.2 0-.6.3-.8.4-.3.7-.3.9-.1 0 .1 0 .5-.4.7-.3.3-.7.3-.8.1zm.4 4.6c-1.1-1.3-1.1-2-.7-2.6l-3.6-2.2 1.8 3.9c.8-.4 1.4-.4 2.5.9zm-4.3-4.8 4.3 4.7"/><path d="m495.7 302.9-16.4-17 .6-.5 16.4 17z"/><path d="M478.9 286c-.2-.1 0-.5.3-.8.3-.3.6-.4.8-.2.1.2 0 .5-.3.8-.3.3-.7.4-.8.2z"/></g></g><use xlink:href="#b" width="100%" height="100%" transform="matrix(-1 0 0 1 998.257 0)"/><g stroke="#0a1a1d" stroke-width=".236"><path fill="#e30631" d="m496.7 314.5-.6 10.1c-.6 0-1.9-.1-2-1 0-.4 1.3-8.7 1.3-9.5l1.3.4z"/><path fill="#001f56" d="m495.8 314.1-.3 3.1c.2 1 1.4.8 2 .9l.2-5.2-2 1.2z"/><path fill="#001f56" d="M495.9 327c1.6-2 4.8-.5 4.8-.5 3.4.8 2.5-3.1 2.5-3.1-.7-7.8-1.5-13.2-1.5-13.2l-5 3.4z"/><path fill="#001f56" stroke-width=".188" d="M495.9 327.2c-.4 2.3 2 2 2 2 2.7 0 1.9-3 1.9-3-3-.9-4 1-4 1z"/><path fill="#e30631" d="m497.8 312.7-.2 9c.1 2.1 2.5 1 2.5 1 .6-.3 1.2-.1 1.2-.1v-2.8c4-.3 3-2.6 3-2.6-1.6-7.6-1.8-7.3-1.8-7.3z"/><path fill="none" stroke-width=".225" d="M501.3 319.8c-2.5 0-3.6 1-3.6 1v.2"/><path fill="#faf6f5" stroke-width=".209" d="m501 326.4-.9-15.1 1.8-1.2 1.5 14.2v.1c0 2.7-2.4 2-2.4 2z"/></g><g fill="#faf6f5" stroke="#0a1a1d"><path fill="#0a1a1d" stroke-width=".042" d="m488.2 302.2 6.8 12.4 14.6-9.7-7.6-11.2z"/><path stroke-width=".272" d="m488.5 302.1 13.7-8 7.6 10.8-14.6 9.4z"/><path fill="#0a1a1d" stroke-width=".039" d="m495.4 313.5 13.7-8.8-1-1.7-6.9-9.3-5 4-6.3 3.5-1.1-.7.2 1.5z"/><path stroke-width=".148" d="M496.2 297.8c-2-1-4.4 2-5 2.6-.8.6-2.1.3-2.1.3l6.2 11c1.8.8 3-1.6 3.8-2.3 1.6-1.3 3.4-1.2 3.4-1.2z"/><path stroke-width=".148" d="M496.4 297.9c0-2.4 3-3.2 3.7-3.6.8-.4 1-1.9 1-1.9l7 10.6c-.2 2-2.6 2.3-3.6 2.8-1.7 1-2 2.5-2 2.5z"/><path stroke-width=".105" d="m495 311.8-6.1-11v1.2c4.6 7.5 6.5 11.5 6.5 11.5l-.4-1.7z"/><g fill="#0a1a1d" stroke="none"><path d="M490.9 302.2v.2l.1-.1.2.1h-.2l.1.2.2-.2-.3.3-.2-.4h-.1l.4-.3v.2h-.2zm.4-.3.2.4v.2c-.1 0 0 0 0-.1l-.1-.1-.2-.3zm.5-.3v.1h-.2v.1h.4v.2a.2.2 0 0 1-.2.2l-.1-.2h.3-.2l-.2-.1v-.2a.2.2 0 0 1 .2 0v-.1zm.5.2v.2l-.2-.1v-.1l.1-.1v-.1h-.1v.1c-.1 0 0 0 0 0a.2.2 0 0 1 0-.2l.2.1v.2h.1-.1zm0 0v-.1l-.1.1zm.1-.4.1-.1h.2v.2h.1l-.1.2v-.1l-.1-.1v-.1h-.1v.2h.1l-.1.2v-.2l-.1-.1h-.1l.1-.1zm.3-.4.1.1h.1v.3h.1-.1l-.2-.2a.5.5 0 0 0 0-.2zm.3 0a.2.2 0 0 1 .2 0 .2.2 0 0 1 .1.2.2.2 0 0 1 0 .1.2.2 0 0 1-.2 0 .2.2 0 0 1-.1-.3zm0 0v.1l.2.2V301h-.1zm-1.6 2 .1.2v-.1l.2.2h-.2l.1.1h.1l.1-.1v-.1.2l-.3.2v-.1l-.2-.3.3-.3v.1h-.1zm.7.2-.3-.2H492l-.1-.1.1.3zm.3-.3v.2h-.2v-.2l.1-.1c0-.1-.1 0-.1 0a.2.2 0 0 1 .1-.2l.1.1.1.2zm0 0zm.2-.4c.1-.1.2 0 .2 0l.1.1v.2c-.1 0 0 0 0 0l-.2-.2v-.1.3c.1 0 0 0 0 0l-.1-.1-.1-.1v-.1zm.4-.3h.1V302.5h.2v.2a.4.4 0 0 1-.2 0l-.1-.1v-.1h-.1v-.2a.2.2 0 0 1 .1 0zm0 0v.2c.1 0 .1 0 0 0a.3.3 0 0 0 0-.1zm.2.4s-.1 0 0 .1l.1-.1h-.1zm.3-.5h-.2l.2.2v-.1a.2.2 0 0 1 0 .1h-.1a.2.2 0 0 1-.2-.1v-.2h.3zm-.1 0h-.1.1zm0-.4.3.4h.1l-.2.1v-.1l-.2-.3v-.1zm.2-.1h.1v.1h-.1v-.1zm.2.1.1.3v.1c-.1 0 0 0 0 0l-.1-.1-.1-.2zm.2-.1a.2.2 0 0 1 .2 0v.2a.2.2 0 0 1 0 .1.1.1 0 0 1-.2 0 .2.2 0 0 1 0-.2.2.2 0 0 1 0-.1zm0 0v.1l.1.2v-.2l-.1-.1zm-2 2.2.1.2c0-.1-.2-.1-.2 0h.2l.2.1v.2a.2.2 0 0 1-.2.1l-.2-.1H492.2v-.1h-.4v-.3a.2.2 0 0 1 .2 0zm.6 0-.2.2h.2a.2.2 0 0 1 0 .1h-.2a.2.2 0 0 1-.1 0v-.3h.2zm-.1.1h-.1zm.2-.3h.1v.1a.2.2 0 0 1 0 .2h.2v.1a.4.4 0 0 1-.2.1l-.1-.1v-.1h-.1v-.3a.2.2 0 0 1 .1 0zm0 0v.2s.1 0 0 0a.3.3 0 0 0 0-.2zm.2.4s-.1 0 0 0c0 .1 0 0 0 0s.1 0 0 0zm.2-.7.2.3-.2.2-.2-.3.2.2h.1v-.1l-.1-.2zm.3-.1v-.1h.2l.1.2-.1.2v-.2l-.1-.1s-.1 0 0 0v.4c-.1 0 0 0 0 0l-.2-.2v-.2zm.6-.6v.1h-.2v.1h.4v.3a.2.2 0 0 1-.2 0v.1l-.1-.1h.2v-.1H493.8a.2.2 0 0 1 0-.3.2.2 0 0 1 .1 0v-.1zm.5.2-.1.1h-.1V302.6v.1c-.1 0-.1 0 0 0a.2.2 0 0 1 0-.2.1.1 0 0 1 .2 0v.2h.1v.1h-.1zm0 0-.1-.1v.1zm.1-.4.1-.1h.1l.2.2-.1.2-.1-.2v-.1h-.1v.2h.1l-.1.2v-.2l-.2-.1.1-.1zm.4-.5.3-.1.1.3v.2a.2.2 0 0 1-.1.1h-.1v-.1h.1v-.2l-.2-.2zm.7-.2.1.3h.1-.1l-.1.2a.1.1 0 0 1-.1 0l-.2-.3h.1l.1.2h.1V301.7h-.1zm.4.1v.1h-.2V301.6v.1c-.1 0 0 0 0-.1h.2v.1h.1v.1h-.1zm0 0v-.1l-.1.1zm.1-.4.1-.1h.1l.2.2-.1.1-.1-.1v-.1h-.1v.2h.1l-.1.2V301.5h-.2l.1-.1zm-2.7 4.7.1.1a.2.2 0 0 0-.2 0 .2.2 0 0 0-.1.2l.1.2H493.7v-.2.1a.2.2 0 0 1 0 .2.2.2 0 0 1-.3 0 .3.3 0 0 1-.1-.4.3.3 0 0 1 .2-.1zm.6 0-.2.2v.1c.1 0 0 0 0 0v.1-.2l-.1-.4.4.3h.1l-.2.1v-.1zm0 0h-.3v.2l.2-.1zm.2-.2.1.2h.1l-.2.1v-.1l-.1-.3h-.1l.2-.2h.1c.1 0 .1.1 0 .2a.3.3 0 0 1 0 .1zm0 0 .1-.1v-.1h-.2l.1.2zm.6 0h-.2l-.1-.4h-.1l.1-.1v.1l.2.3h.1zm.1-.8.1.1h-.2l.2.4h.1l-.2.2c.1 0 0-.1 0-.2l-.1-.3h-.1v.2l-.1-.1.3-.3zm.4-.2h.2v.3l.1.1-.2.2a.2.2 0 0 1-.2-.1v-.2h-.2l.2-.2v.1l.1.2.1.1a.2.2 0 0 0 .2 0 .1.1 0 0 0 0-.2l-.2-.2c0-.1 0 0 0 0zm.7 0 .1.1-.3.2-.2-.4h-.1l.2-.1v.1l.1.3h.1l.1-.1v-.1zm.1-.5h.4a.3.3 0 0 1 0 .3.3.3 0 0 1-.2.2.3.3 0 0 1-.2-.1.3.3 0 0 1 0-.3.3.3 0 0 1 0-.1zm0 0a.2.2 0 0 0 0 .2.4.4 0 0 0 0 .2h.2a.2.2 0 0 0 .2-.1.4.4 0 0 0-.1-.2l-.2-.1zm1-.6h-.1V304.5l-.4-.3h.1l.3.2v-.3s0-.1-.1 0l.1-.2zm.4.3-.2.2v-.1l-.1-.4h-.1l.1-.1v.1l.2.3h.1zm.2-.1-.1.1v-.1l-.2-.3h-.1l.2-.2v.1l.1.4h.1zm.3-.2-.2.2v-.1l-.2-.4h-.1l.2-.1v.1l.2.3zm-4 4.2v-.2h.2v.1a.1.1 0 0 1 .2.1.2.2 0 0 1 0 .2.3.3 0 0 1-.1.1c.1-.1.1-.2 0-.2h-.1a.1.1 0 0 0 0-.2h-.1zm.4-.3v-.2l.3.4h.1l-.1.2v-.1l-.2-.3h-.1zm.7-.5.2-.1v.4l.1.1-.2.1v-.2l-.3-.1.1-.2v.1l.2.1v-.2zm.8 0v.1h-.2a.2.2 0 0 1 0-.3v-.2l.3.3v.1zm0 0v-.2h-.2v.1l.1.2.1-.1zm.1-.3.2.1v-.1h.1v.2a.1.1 0 0 1-.2 0 .2.2 0 0 1-.1-.1.2.2 0 0 1 0-.2.1.1 0 0 1 .2 0zm0 0h.2l-.1-.1s-.1 0 0 .1zm.6-.2a.2.2 0 0 1 0 .2.1.1 0 0 1-.2 0l-.1-.1v-.2a.1.1 0 0 1 .2 0h-.1v.1a.2.2 0 0 0 0 .1h.2v-.1zm-.1-.4zm.1.1.2.3c-.1 0 0 0 0 0h-.1l-.1-.2zm.4.1v.1h-.2v-.1a1 1 0 0 1 .1-.1v-.1h-.1v.1-.1h.1l.2.2zm0 0v-.1l-.1.1h.1zm.1-.6.2-.2v.1l.1.3v.2s-.1 0 0 0v-.1l-.2-.3zm.4 0 .2.2.1-.1v.1a.1.1 0 0 1-.2 0 .2.2 0 0 1-.1-.1.2.2 0 0 1 0-.2.1.1 0 0 1 .2 0zm0 0h.2s0-.1-.1 0zm.4-.3c-.1.1 0 .1 0 .1h.1a.1.1 0 0 1 .1.1v.1h-.2c0 .1 0 0 0 0h.1c0-.1-.1 0-.2 0V305.5h.1zm.4-.2.1.2v.1c-.1.1-.2.1-.2 0l-.1-.1h-.1v-.1l.2.2h.1v-.2h-.1zm.2-.2c0 .1 0 0 0 0-.1.1 0 .2 0 .2h.1a.1.1 0 0 1 .1 0v.2h-.2c0-.1 0 0 0 0h.2v-.2h-.3v-.1l.1-.1zm.6 0v.1h-.2v-.2h.1v-.1h-.1v.1-.1h.1l.2.2h-.1zm0 0v-.1h-.2l.1.2v-.1zm-4.5 3.5.2.4h.1-.1l-.2-.3s-.1 0 0 0v-.1zm.3 0a.2.2 0 0 1 .2 0 .2.2 0 0 1 0 .1.2.2 0 0 1 0 .2.2.2 0 0 1-.1 0 .2.2 0 0 1-.2-.2.2.2 0 0 1 .1-.1zm0 0a.3.3 0 0 0 .1.2h.1v-.1l-.1-.1zm.4-.3v.1h-.1s0 .1 0 0h.2a.1.1 0 0 1 0 .2v.1h-.2.2v-.1h-.2v-.2h.1zm.2-.3s.1 0 0 0zm.1.1.2.3v.2c-.1 0 0 0 0 0v-.2l-.2-.2zm.4-.2.2.2v.1l-.1.1h-.2v-.1l-.1-.1v-.1l.2.2s.1 0 0 0v-.2s-.1 0 0 0zm.5 0-.1.2h-.2a.2.2 0 0 1 0-.3h.1v-.2h-.1l.3.3v.1zm0 0h-.2v-.1c-.1 0-.1 0 0 .1v.1h.1zm-.1-.5c0 .1 0 0 0 0zm.1.2.2.2v.1c-.1 0 0 0 0 0h-.1l-.1-.2v-.1zm.2-.2a.2.2 0 0 1 .2 0 .2.2 0 0 1 .1.2.2.2 0 0 1 0 .1.2.2 0 0 1-.2 0 .2.2 0 0 1-.1-.2.2.2 0 0 1 0-.1zm0 0v.1a.3.3 0 0 0 .1.2h.2v-.2h-.2zm.4-.3v.2c0-.1 0 0 0 0h.2v.2h-.1s0 .1 0 0h-.1.2v-.1h-.3a.1.1 0 0 1 0-.2h.1zm.5-.3.3.4v.2c-.1 0 0 0 0 0v-.2h-.4V307h.1zm.1.3v-.1h-.2l.1.2h.1zm.3-.5.1.3c.1 0 .1 0 0 0 0 0 0 .1 0 0v.2h-.2v-.2h-.1c0-.1 0 0-.1 0l.1-.1.1.2h.1V306.8h-.1zm.2 0 .1.2.1-.1c0-.1 0 0 0 0v.1a.1.1 0 0 1-.2 0 .2.2 0 0 1 0-.1.2.2 0 0 1 0-.2.1.1 0 0 1 .1 0l-.1.2zm0 0h.1l-.1-.1v.1zm.3-.6.3.5c-.1 0 0 0 0 0h-.1l-.2-.3v-.1zm.3.2.2.1v-.1h.1v.2a.1.1 0 0 1-.2 0 .2.2 0 0 1-.1-.1.2.2 0 0 1 0-.2.1.1 0 0 1 .2 0zm0 0h.2l-.1-.1s-.1 0 0 .1zm-3.7 3.2.1.2h.1c0-.1.1 0 .1 0l.1.1h.1l-.1.1-.1-.2h-.1v.3h.1-.1v-.1l-.2-.3zm.7.2c-.1.1-.2.1-.2 0a1 1 0 0 1 0-.2c0 .1-.1.1-.1 0 .1 0 .1-.1.2 0l.1.1c.1 0 0 0 0 0 0 .1 0 .1 0 0zm0 0-.1-.2v.2zm0-.4.1-.1h.2a.2.2 0 0 1 0 .3c-.1 0-.1.1-.2 0l-.2-.3s0-.1 0 0zm0 0 .2.2h.1v-.2h-.2zm.3-.4zm.1.1.2.3-.1.1v-.1l-.1-.2zm.4.2h-.2v-.1a1 1 0 0 1 .1-.1h-.1l.1-.1.2.2s0 .1 0 0zm0 0v-.2l-.1.1v.1h.1zm.1-.4v-.1h.2l.1.2v.1l-.1-.2h-.1v.2h.1l-.1.1-.1-.2h-.1v-.1zm.8-.3a.2.2 0 0 1 0 .2.1.1 0 0 1-.2 0h-.1v-.3a.1.1 0 0 1 .2 0h-.1l-.1.1a.2.2 0 0 0 .1.2h.2v-.2zm0-.3v.1-.1h.1V308.6h.1l-.1.1-.1-.3h-.1zm.2 0 .2.1v-.1h.1v.2a.1.1 0 0 1-.2 0 .2.2 0 0 1-.1-.2.2.2 0 0 1 0-.1.1.1 0 0 1 .2 0zm0 0h.2l-.1-.1s-.1 0 0 0a.1.1 0 0 0 0 .1zm.2-.5v.1zm.1.2.2.2v.2c-.1 0 0 0 0 0l-.1-.2-.1-.1v-.1zm.5 0-.1.2h-.2a.2.2 0 0 1 0-.3h.1v-.2h-.1c.2 0 .2.2.3.3 0 0 .1 0 0 0v.1zm0 0h-.1l-.1-.1v.2h.2zm0-.4a.2.2 0 0 1 .2 0 .2.2 0 0 1 .2.2.2.2 0 0 1-.1.2.2.2 0 0 1-.2 0 .2.2 0 0 1 0-.3zm0 0v.2a.3.3 0 0 0 .2.1h.1v-.1l-.1-.1h-.1zm-1-9.2.2.1h-.3v.1h.3a.1.1 0 0 1 0 .1v.2h-.1v-.1h.1v-.1h-.2c-.1-.1-.1-.2 0-.2v-.1zm.2-.1zm.1 0 .1.3h.1l-.1.1-.1-.2v-.1zm.2 0 .1-.1.2.2v-.2s-.1 0 0 0v-.1.4l-.2-.2zm.4-.3a.1.1 0 0 1 .2 0V298.2a.2.2 0 0 1-.2-.1.1.1 0 0 1 0-.2zm0 0v.1l.2.2v-.2s-.1-.1-.1 0zm.4-.2h-.1v.1h.2v.2h-.1c.1 0 0-.1 0-.1h-.1v-.2zm.2-.1a.1.1 0 0 1 .1 0s.1 0 0 .2c0 0 0 .1 0 0a.2.2 0 0 1-.2 0 .1.1 0 0 1 0-.2zm0 0v.2h.2v-.1l-.2-.1zm.1-.3v.1h.2v.2c.1 0 0 0 0 .1l-.1-.2c-.1 0 0 0 0 0v-.2zm.3 0s.1 0 0 0v.2h.2l-.2.1v-.2h-.1zm.2-.1a.1.1 0 0 1 .1 0l.1.1-.1.2a.2.2 0 0 1-.2-.2.1.1 0 0 1 0-.1.1.1 0 0 1 .1 0zm0 0v.1l.1.1h.1v-.2h-.2zm.3-.2v.1h.1s.1 0 0 .1v.1a45 45 0 0 1-.1 0h.1v-.1h-.1v-.2zm-2 2.4v-.1h.1c0-.1.1-.1.1 0l.1.1a.1.1 0 0 1-.1.1v.1h.1l-.1.1-.2-.3zm0 0h.2c0 .1 0 .1 0 0v-.1h-.1zm.3-.2h.2v.1a.1.1 0 0 1-.1 0 .2.2 0 0 1-.1-.1.1.1 0 0 1 0-.2.1.1 0 0 1 .2 0zm0 0 .1-.1zm.3-.3s.1 0 0 0v.2h.2l-.2.1v-.2h-.1z"/><path d="M498.8 298.8h.2v-.2h.1l.1.2v.1-.1l-.1-.1h-.1v.2h.1l-.1.1v-.2h-.2l.1.2a54.8 54.8 0 0 1 0 .1v-.1l-.2-.1v-.1h.1zm.6-.1c-.1.1-.2 0-.1 0v-.1c0-.1 0-.1 0 0h-.1v-.1h.1l.2.1v.1zm0 0v-.1h-.1v.1a.2.2 0 0 0 .1 0zm.1-.3v-.1h.2v.2h.1-.1v-.1h-.2l.1.2-.1-.2h-.1zm.3-.1h.2a.1.1 0 0 1-.2.1.2.2 0 0 1 0-.1.1.1 0 0 1 0-.2.1.1 0 0 1 .1 0zm0 0 .1-.1h-.1zm.5-.2v.1a.1.1 0 0 1-.2 0h-.1a.2.2 0 0 1 0-.3h.2c0 .1 0 .1 0 0l-.2.1a.2.2 0 0 0 0 .2h.2v-.1zm0-.2.1.1h.1v-.1.2a.1.1 0 0 1-.2 0 .2.2 0 0 1 0-.2.1.1 0 0 1 0-.1.1.1 0 0 1 .1 0zm0 0h.1c0-.1 0-.1-.1 0zm.2-.3v.1l.1-.1V298h.1c-.1 0 0 0 0 0l-.2-.2zm.3 0v.1h.2a.1.1 0 0 1-.2 0 .2.2 0 0 1-.1 0 .1.1 0 0 1 0-.2.1.1 0 0 1 .2 0zm0 0zm0-.4c.1 0 .2 0 .1.1zm.2.2.1.2h.1-.1l-.1-.1v-.1zm.2-.2c0 .1 0 0 0 0v.1h.1s.1.1 0 .2h-.1.1s0-.1 0 0h-.1V297.1zm-2.7 3h.2v-.1.1a.1.1 0 0 1-.1 0 .2.2 0 0 1-.1 0 .1.1 0 0 1 0-.2.1.1 0 0 1 .1 0zm0-.1h.1c0-.1 0-.1-.1 0zm.3-.2v-.1h.1l.1.1v.1l-.1-.2h-.1v.2h.1v.1c-.1 0-.1 0 0 0h-.1v-.2h-.1zm.4-.3v-.1h.1l.1-.1h.1l.1.2-.1-.2h-.1V299.8h.1a51.1 51.1 0 0 1-.1 0v-.2h-.2v.1l.1.2h-.1v-.2h-.1zm.3-.5s.1 0 0 0c0 .1 0 0 0 0zm.1.1.2.3c-.1 0 0 0 0 0h-.1v-.2h-.1zm.2 0 .1-.1v-.1h.2s.1.2 0 .2a.1.1 0 0 1 0 .1v.1c.1 0 0 0 0 0v.1l-.2-.3zm.2 0c0 .1.1.1.1 0v-.1h-.1zm.4-.1c-.1.1-.2 0-.1 0v-.2.1h-.1v-.1h.2v.1h.1v.1zm0 0v-.1h-.1v.1a.2.2 0 0 0 .1 0zm0-.5.2.3v.1l-.2-.3v-.1zm.5.2-.1.1h-.1v-.2s-.1 0 0 0v-.1h.1v.2h.1zm0 0-.1-.1v.1zm0-.3v-.1h.2v.2a.2.2 0 0 1 0 .1h-.1l-.2-.3.1.1zm0 0 .1.2h.1v-.2h-.1zm.3-.2c.1 0 .1 0 0 0l.1.2v.1l-.1-.2v-.1zm.4 0v.1h-.2l.1-.2h-.1c0 .1 0 0 0 0h.1l.1.1zm0 0h-.1s0 .1 0 0zm-2.6 2.4c-.1.1 0 .1 0 .1h.1v.2a45 45 0 0 1-.1 0h.1v-.1h-.2v-.2h.1zm.2 0h.2v.1a.1.1 0 0 1-.2 0 .2.2 0 0 1 0-.1.1.1 0 0 1 0-.2.1.1 0 0 1 .1 0zm0 0v-.1zm.2-.3h.1v.2h.1a67.3 67.3 0 0 0-.1.1l-.1-.2zm.2 0 .1.1h.1v-.1.1a.1.1 0 0 1-.1 0 .2.2 0 0 1-.1 0 .1.1 0 0 1 0-.2.1.1 0 0 1 .2 0zm0 0h.1c0-.1 0-.1 0 0zm.2-.4zm0 .1.2.3-.1-.2h-.1zm.3-.1c-.1.1 0 .1 0 .1h.1v.2h-.1.1v-.1h-.2v-.2h.1zm.2-.2h.1l.2.1v-.1h-.1v-.1l.1.3-.2-.1h-.1zm.4 0h.2v-.1.1a.1.1 0 0 1-.2 0 .1.1 0 0 1 0-.2.1.1 0 0 1 .1 0zm0 0 .1-.2h-.1v.1zm.2-.4v.1l.1-.1V299.8h.1c-.1 0 0 0 0 0l-.2-.2zm.5 0-.1.2h-.2a.2.2 0 0 1 0-.3h.1v-.2l.2.3v.1zm0 0h-.1c0-.1-.1-.1-.1 0v.1h.2zm.2 0h-.1v-.2h-.1.2c0 .1.1.1.1 0v.2zm0 0v-.2l-.1.1s0 .1 0 0a.2.2 0 0 0 .1 0zm.3-.3v.1h-.2a.2.2 0 0 1 0-.2v-.2l.2.3h.1zm0 0v-.1h-.2l.1.2h.1zm0-.2.2.1h.1v-.1.1a.1.1 0 0 1-.2 0 .1.1 0 0 1 0-.2.1.1 0 0 1 .1 0zm0 0h.2c0-.1 0-.1-.1 0zm.3-.3h.1v.2h.1l-.1.1v-.2h-.1zm.4 0v.2c-.1 0-.2 0-.1-.1v-.2.1h-.1v-.1h.2v.1h.1v.1zm0 0h-.1v.1a.2.2 0 0 0 .1 0zm.1-.2v-.1h.2v-.1h.1l.1.2c.1 0 0 0 0 0l-.1-.2h-.1V298.6h.1c-.1 0 0 0 0 0h-.1v-.2h-.2v.1l.1.2-.1-.2zm.5-.2h.2v.1a.1.1 0 0 1-.2 0 .2.2 0 0 1-.1-.1.1.1 0 0 1 0-.2.1.1 0 0 1 .2 0zm0 0v-.1zm.2-.3h.2v.1h.1v.1l-.2-.2v.2c.1 0 0 0 0 0v.1l-.1-.2v-.1zm.2-.3v.1h.1v.2h.2-.2v-.1h-.1v-.2zm.3.1v.1h.2v-.1.1a.1.1 0 0 1-.2 0 .1.1 0 0 1 0-.2h.1zm0 0c0-.1 0-.1 0 0zm-4.5 3.8v-.1h.2v-.1h.1l.1.2-.1-.1h-.1v.2h.1a51.1 51.1 0 0 1-.1 0v-.1h-.2l.1.2-.2-.2zm.3-.5s.1 0 0 .1zm.1.2.2.2c-.1 0 0 0 0 0h-.1v-.1h-.1v-.1zm.3-.2c0 .1 0 0 0 0l-.1.1h.2v.2h-.1c.1 0 0-.1 0 0h-.1V301zm.5 0v.1h-.2a.2.2 0 0 1 0-.3v-.1c0-.1 0-.1 0 0l.2.2h.1v.1zm0 0v-.1c-.1 0-.2-.1-.2 0l.1.2.1-.1zm0-.5c0 .1 0 0 0 0zm0 .1.2.3-.2-.2zm.3-.1h-.1v.1h.2v.2h-.1.1v-.1h-.2v-.2zm.4 0v.1a.1.1 0 0 1-.2 0 .2.2 0 0 1 0-.2h.1-.2a.2.2 0 0 0 .1.2h.1v-.1zm-.1-.4zm.1.1.1.3h.1-.1l-.1-.2zm0 0h.1l.1-.1h.2v.2a.1.1 0 0 1 0 .1h-.1v.1h.1-.1l-.2-.3zm.2 0v.2h.2v-.2h-.2zm.1-.4s.1 0 0 0c0 .1 0 0 0 0zm.1.1.2.3-.2-.2zm.1-.2.2.4h.1-.1l-.2-.3zm.3 0a.1.1 0 0 1 .1 0l.1.2-.1.1a.2.2 0 0 1-.2-.1.1.1 0 0 1 0-.2.1.1 0 0 1 .1 0zm0 0v.2h.2v-.1h-.2zm.3-.2c0 .1 0 0 0 0v.1h.1s.1.1 0 .2a45 45 0 0 1-.1 0h.1s0-.1 0 0h-.1V299.4zm-1.7 4.3v-.2h.1v.1a.1.1 0 0 1 .2.1.2.2 0 0 1 0 .2h-.1c.1 0 0-.1 0-.2h-.1v-.1h-.1zm.6-.1-.2.2v-.4h-.1v.1-.2a.1.1 0 0 1 .1 0l.1.2v.2h.1v-.1zm.2 0zm.2-.7.2-.1V303.5v-.2h-.1l-.3-.2h.1l.2.1v-.2zm.7 0a.1.1 0 0 1-.1.1l-.1-.1a.1.1 0 0 1 0-.2h.2s0 .1-.1 0v.1a.2.2 0 0 0 0 .1h.1zm.1-.3a.1.1 0 0 1 .1 0l.1.1-.1.2a.2.2 0 0 1-.2-.2.1.1 0 0 1 0-.1.1.1 0 0 1 .1 0zm0 0v.1l.1.1h.1v-.2h-.2zm.3-.2h.1l.1.1c.1 0 .1 0 0 0v.1l-.1-.2h-.1v.2h.1v.1l-.2-.2v-.1zm.3-.2a.1.1 0 0 1 .1 0l.1.2s0 .1-.1 0a.2.2 0 0 1-.2 0 .1.1 0 0 1 0-.2zm0 0V302.6l.2-.1v-.1c-.1 0-.2-.1-.2 0zm.5 0a.1.1 0 0 1-.2.1v-.1a.1.1 0 0 1 0-.2h.1l-.2.1a.2.2 0 0 0 .1.1h.1zm0-.2h.2v.1a.1.1 0 0 1-.1 0 .2.2 0 0 1-.1-.1.1.1 0 0 1 0-.2.1.1 0 0 1 .1 0zm0 0h.1c0-.1 0-.2-.1-.1zm.2-.3h.1v.2h.1v.1c-.1 0 0 0 0 0l-.2-.2zm.3 0v.1h.2v-.1.1a.1.1 0 0 1-.2 0 .1.1 0 0 1 0-.2h.1zm0 0c0-.1 0-.1 0 0zm0-.4h.1zm.2.1.1.2h.1l-.1.1-.1-.2v-.1zm.2-.1h.1-.2l.1.1h.1s.1.1 0 .1v.1h-.1.2l-.1-.1h-.1v-.2zm.2-.4.3.4h-.1l-.2-.3zm.5.3c-.1.1-.2 0-.2 0l.1-.1h-.1v-.1h.2v.2zm0 0v-.1h-.1v.1zm-4 3.3v-.1l.2.2V304.4v.3l-.2-.1zm.3-.2.1.1h.1v-.1.1a.1.1 0 0 1-.1 0 .2.2 0 0 1-.1 0 .1.1 0 0 1 0-.2.1.1 0 0 1 .2 0zm0 0h.1c0-.1 0-.1 0 0zm.3-.3v.1-.1V304.5h.2-.2v-.2h-.1zm.4.1v.1h-.2a.2.2 0 0 1 0-.3v-.1c0-.1 0-.1 0 0l.2.2h.1v.1zm0 0v-.1c-.1 0-.2-.1-.2 0l.1.2.1-.1zm.3-.2-.1.1h-.1v-.2s-.1 0 0 0h.1c.1.1.1.1.1 0v.2zm0 0h-.1s0 .1 0 0zm.3-.1H502.5a.2.2 0 0 1 0-.2h.1v-.2h-.1l.3.3s0 .1 0 0zm0 0-.1-.2h-.2v.1l.2.1zm.2 0v-.1h-.1c.1 0 .1 0 0 0v.1zm0-.5.1-.1.2.2v-.2h-.1v-.1l.1.3v.2s-.1 0 0 0v-.2l-.2-.1h-.1zm.4-.5.3.3-.1.2v-.2l-.2-.2v-.1zm.5.2-.1.1s-.1 0 0 0v-.2h-.1v-.1h.1l.1.2zm0 0v-.1l-.1.1s0 .1 0 0zm0-.4h.2l.2.1v-.1h-.1v-.1l.1.3-.2-.1h-.1zm.5 0h.1l.1-.1v.1a.1.1 0 0 1-.2 0 .1.1 0 0 1 0-.2.1.1 0 0 1 .1 0zm0-.1h.1l-.1-.1zm.2-.3h.1v.2h.1l-.1.1v-.2h-.1zm.5 0-.1.2h-.2a.2.2 0 0 1 0-.3h.1v-.2l.2.3v.1zm0 0h-.1c0-.1-.1-.1-.1 0v.1h.2zm.2 0h-.1v-.2s-.1 0 0 0h-.1v-.1h.2v.2h.1zm0-.1v-.1l-.1.1a.2.2 0 0 0 .1 0zm.3-.2v.1h-.2a.2.2 0 0 1 0-.2v-.2l.2.3h.1zm0 0v-.1h-.2l.1.2h.1zm.3-.5c.2 0 .2.1.2.2 0 0-.1.2-.2.1a.2.2 0 0 1-.1-.1.1.1 0 0 1 0-.1zm0 0V301.9h.1v-.2h-.1zm.3-.2v.1h-.1.2v.2l-.1.1c0-.1 0 0 0 0l.1-.1h-.2v-.2zm-4.6 3.8v.2l.1-.1h.2v.2h.1-.1l-.1-.2c-.1 0-.1.1 0 .1v.2h-.1l-.1-.3c-.1 0-.1 0 0 0v-.1zm.6.1-.1.1h-.1v-.2c0 .1 0 0 0 0h.1l.1.1zm0 0h-.1s0 .1 0 0z"/><path d="M502.2 304.9h.1v.2h.1l-.1.1-.1-.2v-.1zm.4 0v.2l-.2-.1.1-.2s-.1 0 0 0c-.1.1-.1 0-.1 0h.2v.1h.1s0 .1 0 0zm0 0h-.1v.1a.2.2 0 0 0 .1 0zm.1-.5.2.3h.1l-.1.1c0-.2-.1-.3-.2-.3v-.1zm.2-.1zm0 0 .2.3v.1-.1l-.1-.1h-.1v-.1zm.2 0H503.4v.2a.2.2 0 0 1-.1 0l-.3-.2v-.1zm0 0 .2.2v-.2h-.1zm.3-.2h.1v.2h.1a67.3 67.3 0 0 0-.1.1v-.2h-.1zm.2 0 .2.1v-.1.1a.1.1 0 0 1-.1 0 .2.2 0 0 1-.1 0 .1.1 0 0 1 0-.2.1.1 0 0 1 .2 0zm0 0h.1c0-.1 0-.1 0 0zm.4-.3h-.1v.1h.2v.2h-.1v-.1h-.1v-.2zm.2.1z"/></g></g></g></svg>