<svg xmlns="http://www.w3.org/2000/svg" width="1200" height="720"><path fill="#0a1a1d" d="M0 0h1200v720H0Z"/><path fill="#faf6f5" d="M0 0h1200v480H0Z"/><path fill="#e30631" d="M0 0h1200v240H0Z"/><path fill="#cb8500" d="M552 459h2v-2h-2v2Zm47-200c-2 0-3-1-3-3v-1h6v1c0 2-1 3-3 3Zm-14 47v-4c5-6 8-15 8-24h-2c0 13-6 23-16 25 10-13 13-20 13-38l4 2 1-1c-4-6-8-7-11-7s-5 1-5 1h-1c-1-1-1-8 6-8 8 0 10 10 17 10 3 0 5-2 7-4h3c2 2 3 5 3 8 0 18 3 24 13 37-10-2-16-12-16-25h-2c0 9 3 18 8 24v4c-8-2-11-9-11-26h-2c0 11 1 16 2 22l-4 4-4-4c1-6 2-11 2-22h-2c0 17-3 24-11 26Zm83 112V300l-7 7v104l7 7Zm-11-11v-96l-7 6v83l7 7Zm-18-22-4-15v-14l4-17v46Zm-39 0c-3-2-8-6-12-12v-48c4-2 9-4 12-6 3 2 8 4 12 6v48c-4 6-9 10-12 12Zm0 4c19-12 33-37 33-63-11 0-24-4-33-10-9 6-21 10-33 10 0 26 14 51 33 63Zm0 5c-22-14-37-39-37-71 13 0 28-5 37-11 9 6 22 11 37 11 0 32-15 57-37 71Zm21 10 4-7 6 3 3-7-1-4-3 7-6-3-4 7-6-5 1 4 6 5Zm5 19 4-7 6 3 3-8-1-4-3 8-6-3-4 7-6-5 1 4 6 5Zm30 34h2v-2h-2v2Zm-95-72v-46l4 17v14l-4 15Zm89 68v-2h2v2h-2Zm-87-12c-2-2-2-8-2-11h-2l-1 4-16-4v2l-5 2c0-4 4-8 9-8l8 1 17-60c5 10 13 19 18 23l-7 30 4 6 6-3 3-28 2 2-2 26 5 5 5-5-2-26 2-2 3 28 6 3 4-6-7-30c5-4 13-13 18-23l17 60 8-1c5 0 9 4 9 8l-5-2v-2l-16 4-1-4h-2c0 3 0 9-2 11l-5-7h-2l-1 3-17-1h-1v2l-5 3c0-6 1-8 8-9l9-1-3-8h-1l-1 5c-10 0-16 3-16 9h-4c0-6-6-9-16-9l-1-5h-1l-3 8 9 1c7 1 8 3 8 9l-5-3v-2h-1l-17 1-1-3h-2l-5 7Zm79 12v-3l2 1v1l-2 1Zm-10 8 2-2v-2l2-1h4v3h2l4-2v-3l2-1 1 2h4l1-2h5l2-1v-2h-3l-3-9h-6v3h1l1-1h2l3 8h-2l-1-2h-4l-1 2-2 1v-2l-4-2v-3l-3 1v1l1 1v1l-4 2v3l-2 1v-4h-4l-2 2v2l2 2h2v1l-1 1h-2v1l3 1Zm-89-54 7-7v-83l-7-6v96Zm99 50v-2l2-1v2l-2 1Zm-4-3v-2l2-1v3h-2Zm-59-50 6-5 1-4-6 5-4-7-6 3-3-7-1 4 3 7 6-3 4 7Zm51 51v-2h2v2h-2Zm-98-37 7-7V307l-7-7v118Zm91 44 3-3v-2l-1-5-3 1v1l1 1 1 3-2 2h-2v1l3 1Zm-14-14h2v-2h-2v2Zm0 12h9l2-2v-6l-3 1v1l1 1v2l-1 1h-2v-11l-3 1v1l1 1v4h-2l-2 2v4Zm-1-9h2v-2h-2v2Zm-34-28 6-5 1-4-6 5-4-7-6 3-3-8-1 4 3 8 6-3 4 7Zm37 35v-2h2v2h-2Zm3 6h2v-2h-2v2Zm-14 3c-32 0-58-6-64-8v-6l-4-1-3-6 3-6h4l7-4 15 2c0 2 3 6 6 7l4-5 17 1 13 6v-6h4v6l13-6 17-1 4 5c2 0 6-5 6-7l15-2 7 4h4l3 6-3 6-4 1v6c-6 2-31 8-64 8Zm3-10v-1l2-2v3h-2Zm7 7h2v-2h-2v2Zm-14-4-1-1v-3h-4v-2h6v5l-1 1Zm-1 2h2l2-2v-1h7l1-1v-6l-1-1h-1l-4 4v2h-2v-5h-8v-3l-3 1v1l1 1v4h-2l-1-5-3 1v1l1 1 1 3-2 2h-2v1l3 1 3-3h6v2l2 2Zm-16-5h2v-10l1-1v-1l-3-1v13Zm-12-5v-1l2-2 2 2v1h-4Zm4 8h4l2-2v-14l-3 1v1l1 1v10l-1 1h-2v-3l-1-1 2-1v-3l-3-3h-2l-3 3v3l2 1-1 1h-3l-1-6-3 1v1l1 1 1 3-2 2h-2v1l3 1 2-2h5l2-2 1 1v3l1 1Zm-30-19h2v-2h-2v2Zm12 14h4v-8l-3 1v1l1 1v3h-2l-1-1v-6l-3 1v1l1 1v3h-2l-1-1v-11l-3 1v1l1 1v4h-2l-2 2v4h6l1 1h4l1 1Zm-13-11h2v-2h-2v2Zm3 7v-2h2v2h-2Zm3 7h2v-2h-2v2Zm-4-1h2v-2h-2v2Zm58 14c32 0 60-5 68-9v-5l2-1 3-6 3-2v-4l-3-2-3-6h-2c0-10-6-14-16-14h-3l-9-32 6 6v-76h-9c-15 0-28-6-35-11l4-4c3 3 8 4 12 5v-6c3 2 9 3 14 3l-5-6c11-2 26-12 37-12 7 0 13 6 13 13l-5-3v123l12 12-4-133c0-10-7-16-16-16-13 0-27 11-39 12-6-8-9-17-9-27 0-13-5-23-18-23h-5l-3 1h-8c-6 0-11 4-11 9 0 3 1 5 2 7h5c4 0 6 3 6 7 0 9-3 18-9 26-11-1-26-12-39-12-10 0-16 7-16 16l-4 133 12-12V299l-5 3c0-7 6-13 13-13 11 0 26 10 37 12l-5 6c5 0 11-1 14-3v6c4-1 9-2 12-5l4 4c-7 5-20 11-35 11h-9v76l6-6-9 32h-3c-9 0-16 3-16 14h-2l-3 6-3 2v4l3 2 3 6 2 1v5c8 4 37 9 68 9Z"/></svg>