<svg xmlns="http://www.w3.org/2000/svg" xmlns:xlink="http://www.w3.org/1999/xlink" width="1200" height="720"><defs><path id="f" d="M281.4 230.4h-.6l-.1.8v.2h.2l.8-.5-.3-.5"/></defs><path fill="#c40f38" d="M0 0h1200v720H0z"/><path fill="#ffb81c" d="M0 180h1200v360H0z"/><g stroke="#0a1a1d" stroke-width=".39" transform="matrix(1.5 0 0 1.5 24 -15)"><g stroke-width=".26"><path fill="#c40f38" stroke-linejoin="round" d="M168 222.2s-.5 0-.8-.1-1.1-1-1.1-1l-.7-.5-.6-.8s-.8-1.2-.4-2.1c.3-1 .9-1.2 1.4-1.5.5-.3 1.6-.6 1.6-.6l1.1-.4 1.3-.3.6-.3.9-.2 1.1-.2h1.6l1.7.1H179l1.5.3 2 .8 2.4.6c.5.3.9.8 1.2 1.1.3.4.3.8.4 1v1.2c0 .3-.5.8-.5.8l-.6 1-.8.7s-.6.5-1 .4c-.5 0-5-.8-8-.8s-7.6.8-7.6.8z"/><g fill="#fcd80e"><ellipse cx="175.66" cy="215.68" rx="1.38" ry="2.5"/><ellipse cx="175.68" cy="215.68" rx=".64" ry="2.3"/><ellipse cx="175.68" cy="213.04" stroke="none" rx=".93" ry=".87"/><path stroke-width=".3" d="M177 212.7v.6h-2.6v-.6h1v-1.3h-.7v-.5h.7v-.6h.6v.6h.6v.5h-.6v1.3h1"/><path fill="none" d="M176 212.2a1 .9 0 1 1-.6 0"/><path d="M175.7 222h-4.8l-.1-1.1-.3-1.2-.2-1.6c-1.3-1.7-2.5-2.9-3-2.6.1-.3.3-.6.5-.7 1.2-.7 3.6 1 5.4 3.7l.5.8h4l.4-.8c1.9-2.7 4.3-4.4 5.5-3.7.2.1.3.4.4.7-.4-.2-1.6.9-3 2.6l-.1 1.6-.3 1.2v1.2h-5z"/><path fill="none" d="M167.6 215.4c.9-.5 3 1.2 4.7 3.8m11.5-3.8c-.9-.5-3 1.2-4.7 3.8"/></g><g id="a" fill="#fcd80e"><path d="M168.6 224.3c-.2-.6-.6-1.1-.6-1.1a29 29 0 0 1 15.4 0l-.6.9-.3.8a24 24 0 0 0-6.8-.8c-2.8 0-5.5.3-6.9.8l-.2-.6"/><path d="M175.7 226.7c2.4 0 5-.3 6-.6.7-.2 1.1-.5 1-.8 0-.2-.1-.3-.3-.4-1.5-.5-4-.8-6.7-.8a25 25 0 0 0-6.8.8c-.1 0-.3.2-.3.4 0 .3.3.6 1 .8 1 .3 3.6.6 6 .6zm7.8-4.6-.6-.6s-.6.4-1.3.3c-.7-.1-1-1-1-1s-.7.7-1.4.6c-.6 0-1-.6-1-.6s-.7.5-1.4.5c-.6 0-1.2-.9-1.2-.9s-.6.8-1.2 1c-.6 0-1.2-.6-1.2-.6s-.2.6-1 .7-1.5-.6-1.5-.6-.4.7-1 .9c-.5.2-1.2-.3-1.2-.3l-.2.4-.3.2.1.5c2-.6 4.6-.9 7.6-.9s5.6.3 7.6 1l.2-.6z"/><path d="M175.7 219.5h.3v.4c0 .6.4 1 1 1 .5 0 1-.2 1-.7l.2-.3v.4c.2.5.6.9 1.2.9a1 1 0 0 0 1.1-1.1v-.1l.3-.4.2.5v.4c0 .6.4 1 1 1 .4 0 .7-.1.9-.4l.2-.3v.4c0 .3.1.6.5.7 0 0 .4 0 .9-.4l.8-.8v.5s-.5.8-1 1c-.2.2-.6.4-.9.3-.3 0-.5-.3-.7-.6l-.8.2c-.6 0-1.2-.3-1.4-.8-.3.3-.7.5-1.1.5-.5 0-1-.3-1.3-.6-.3.3-.7.4-1 .4-.6 0-1.1-.3-1.4-.7-.3.4-.8.7-1.4.7-.4 0-.8-.1-1-.4a1.6 1.6 0 0 1-2.5 0c-.2.6-.8 1-1.4 1-.3 0-.5-.2-.8-.3-.1.3-.3.6-.7.6-.3 0-.6 0-.9-.2-.5-.3-1-1.1-1-1.1v-.5l.9.8c.6.4.9.4.9.4.3 0 .5-.4.5-.7v-.4l.2.3c.2.3.5.4.9.4.6 0 1-.4 1-1a.9.9 0 0 0 0-.4l.1-.5.4.4v.1c0 .6.4 1 1 1s1-.3 1.2-.8v-.4l.2.3c.1.5.5.8 1 .8a1 1 0 0 0 1.1-1v-.5h.3z"/><path stroke-linejoin="round" d="M175.7 222.2c-3 0-5.8.4-7.7 1-.1 0-.3 0-.3-.2l.1-.3c2-.6 4.8-1 7.9-1s5.8.4 7.8 1l.2.3-.3.2c-2-.6-4.7-1-7.7-1z"/><path d="m165.4 221-.6-.7-.7-.4.6-.2c.2 0 .3 0 .4.2v-.2s.3 0 .4.3v1zm2-.8-.2.7-1.4.1h-.2v-.3l1.1-.9.6.4"/><path d="M165.4 220.8c.2-.2.4-.1.6 0 .2.2.2.4.1.5h-.5c-.2-.2-.3-.4-.2-.6zm2.6 0 .1-.3c.2 0 .3 0 .4.2l-.1.5c-.2 0-.3-.1-.4-.3zm.7-.8.5.5 1.2-.6v-.4l-1.5-.1-.2.6"/><path d="m170 217.8-.6.6.9 1.1.2.1.2-.2.3-1.3-1-.3"/><path d="m172.4 219.3-.3.6-1.4-.1-.2-.2.1-.2 1.2-.6.6.5"/><ellipse cx="170.51" cy="219.65" rx=".49" ry=".47"/><path d="M172.9 220c0-.3 0-.4.2-.4s.3 0 .3.3c0 .2 0 .4-.2.4s-.3-.2-.3-.4zm.9-.8.4.6 1.3-.4.2-.2-.2-.2-1.3-.4-.4.6"/><path d="m175.7 217.2-.9.5.6 1.4h.5l.6-1.4-.8-.5"/><path d="m177.6 219.2-.4.6-1.4-.4-.1-.2.1-.2 1.4-.4.4.6"/><ellipse cx="175.67" cy="219.21" rx=".49" ry=".47"/><path d="M178.5 220c0-.3 0-.4-.2-.4s-.3 0-.3.3c0 .2 0 .4.2.4.1 0 .3-.2.3-.4zm.5-.7.3.6 1.3-.1.2-.2v-.2l-1.3-.6-.5.5"/><path d="m181.3 217.8.6.6-.8 1.1-.3.1-.1-.2-.3-1.3.9-.3"/><path d="m182.7 220-.5.5-1.2-.6-.1-.3.1-.1 1.4-.1.3.6"/><ellipse cx="180.85" cy="219.65" rx=".49" ry=".47"/><path d="M183.3 220.9c.1-.2 0-.4 0-.4-.2 0-.4 0-.5.2 0 .2 0 .4.2.5.1 0 .3-.1.3-.3zm2.4.1.7-.7.7-.4-.6-.2c-.2 0-.4 0-.5.2v-.2s-.3 0-.4.3v.7l.1.3zm-1.9-.8.1.7 1.5.1h.2v-.3l-1.1-.9-.7.4"/><path d="M185.7 220.8c0-.2-.3-.1-.5 0s-.2.4-.1.5h.5c.2-.2.3-.4.1-.6z"/></g><g id="b" fill="none"><path fill="#c40f38" d="m168 224.3.4-.5.6.1-.4.6-.5-.2"/><path fill="#028a66" d="m170.8 223.8-.6.1c-.2 0-.4 0-.4-.2a.3.3 0 0 1 .2-.4h.8l.7-.2c.1 0 .3 0 .3.3 0 .1 0 .3-.2.3l-.7.1"/><ellipse cx="173.19" cy="223.3" fill="#faf6f5" rx=".44" ry=".41"/><path fill="#c40f38" d="M175.7 223.5h-1l-.3-.3c0-.1.1-.3.3-.3h2c.2 0 .3.1.3.3s-.1.3-.3.3h-1"/><ellipse cx="178.16" cy="223.3" fill="#faf6f5" rx=".44" ry=".41"/><path fill="#028a66" d="m180.5 223.8.7.1c.2 0 .3 0 .4-.2a.3.3 0 0 0-.3-.4h-.7l-.7-.2c-.2 0-.4 0-.4.3a.3.3 0 0 0 .3.3l.7.1"/><path fill="#c40f38" d="m183.2 224.3-.2-.5h-.7l.3.7.6-.2"/><path fill="#c40f38" stroke-linejoin="round" d="M175.7 226.2c-2.5 0-4.7-.3-6.3-.7a26.6 26.6 0 0 1 12.6 0c-1.7.4-3.9.7-6.3.7z"/><path stroke-width=".01" d="M176.8 226v-1m-.6 1.1V225m-.4 1.2V225"/><path stroke-width=".02" d="M175.4 226.2v-1.3"/><path stroke-width=".03" d="M175 226.2v-1.3"/><path stroke-width=".04" d="M174.8 226.2v-1.3m-.4 1.2V225"/><path stroke-width=".05" d="M174.2 226.2v-1.3"/><path stroke-width=".07" d="M173.1 226v-1m.3 1v-1"/><path stroke-width=".08" d="M172.4 226v-1m.2 1v-1m.3 1v-1"/><path stroke-width=".09" d="M172.2 226v-1"/><path stroke-width=".1" d="M172 226v-1"/><path stroke-width=".11" d="M171.7 225.9v-.8"/><path stroke-width=".12" d="M171.2 225.8v-.6m.3.7v-.7m-.5.6v-.6"/><path stroke-width=".13" d="M170.8 225.7v-.4"/><path stroke-width=".14" d="M170.5 225.7v-.4"/><path stroke-width=".15" d="M170.3 225.6v-.2"/><path stroke-width=".18" d="M170 225.6v-.1"/></g></g><g id="c"><g fill="#0859b9"><path d="M191.3 330.7c-1.6 0-3-.3-4-.9-1-.5-2.3-.8-3.8-.8s-3 .3-4 .8-2.3.9-3.8.9c-1.6 0-3-.4-4-1-1-.4-2.3-.7-3.8-.7s-2.8.3-3.8.8-2.4.9-4 .9v2.4c1.6 0 3-.4 4-.9s2.3-.8 3.8-.8 2.8.3 3.8.8 2.4.9 4 .9c1.5 0 2.9-.3 3.9-.9 1-.5 2.4-.8 3.9-.8s2.8.3 3.8.8c1 .6 2.4.9 4 .9v-2.4z"/><path fill="#d3d3d5" d="M191.3 333c-1.6 0-3-.2-4-.8-1-.5-2.3-.8-3.8-.8s-3 .3-4 .8c-1 .6-2.3.9-3.8.9-1.6 0-3-.4-4-1-1-.4-2.3-.7-3.8-.7s-2.8.3-3.8.8-2.4.9-4 .9v2.4c1.6 0 3-.3 4-.9 1-.5 2.3-.8 3.8-.8s2.8.3 3.8.8 2.4.9 4 .9c1.5 0 2.9-.3 3.9-.9s2.4-.8 3.9-.8 2.8.3 3.8.8c1 .6 2.4.9 4 .9v-2.4"/><path d="M191.3 335.5c-1.6 0-3-.3-4-.9-1-.5-2.3-.8-3.8-.8s-3 .3-4 .8-2.3.9-3.8.9c-1.6 0-3-.4-4-.9s-2.3-.8-3.8-.8-2.8.3-3.8.8-2.4.9-4 .9v2.4c1.6 0 3-.3 4-.9 1-.5 2.3-.8 3.8-.8s2.8.3 3.8.8 2.4.9 4 .9c1.5 0 2.9-.3 3.9-.8 1-.6 2.4-.9 3.9-.9s2.8.3 3.8.8c1 .6 2.4.9 4 .9v-2.4"/><path fill="#d3d3d5" d="M191.3 340.3c-1.6 0-3-.3-4-.9-1-.5-2.3-.8-3.8-.8s-3 .3-4 .9-2.3.8-3.8.8c-1.6 0-3-.4-4-.9s-2.3-.8-3.8-.8-2.8.3-3.8.8c-1 .6-2.4 1-4 1v-2.5c1.6 0 3-.3 4-.9 1-.5 2.3-.8 3.8-.8s2.8.3 3.8.8c1 .6 2.4.9 4 .9 1.5 0 2.9-.3 3.9-.8 1-.6 2.4-.9 3.9-.9s2.8.3 3.8.8c1 .6 2.4.9 4 .9v2.4"/><path d="M191.3 342.7c-1.6 0-3-.3-4-.8s-2.3-.9-3.8-.9-3 .4-4 .9a9 9 0 0 1-7.8 0c-1-.6-2.3-.9-3.8-.9s-2.8.3-3.8.9c-1 .5-2.4.8-4 .8v-2.4c1.6 0 3-.3 4-.9 1-.5 2.3-.8 3.8-.8s2.8.3 3.8.8c1 .6 2.4 1 4 1 1.5 0 2.9-.4 3.9-1s2.4-.8 3.9-.8 2.8.3 3.8.9c1 .5 2.4.8 4 .8v2.4z"/></g><g fill="#fcd80e"><path stroke-linejoin="round" d="M167 320.8v.6c0 1.5-1.2 2.6-2.8 2.6h23c-1.6 0-2.8-1.1-2.8-2.6v-.6H167z"/><path d="M167.3 319.3H184c.6 0 1 .3 1 .7s-.4.8-1 .8h-16.7c-.5 0-1-.3-1-.8s.5-.7 1-.7zm-3 10.6H187V324h-22.8v5.9z"/></g><path fill="#d3d3d5" d="M167.6 318.3h16.2v-79.6h-16.3v79.6z"/><path fill="none" d="M179.1 238.8v79.5m1.9-79.5v79.5"/><g fill="#fcd80e"><path d="M164.6 232.4h22.3v-5.9h-22.3v5.9z"/><path stroke-linejoin="round" d="M167 236.3a1 1 0 0 1 .3-.1h17.2c-.6-.1-1-.6-1-1.2s.4-1.2 1-1.4a2 2 0 0 1-.5.1H167c.6.1 1 .7 1 1.3 0 .5-.4 1-1 1.3z"/><path d="M167.3 236.2H184c.6 0 1 .3 1 .8 0 .4-.4.8-1 .8h-16.7c-.5 0-1-.4-1-.8 0-.5.5-.8 1-.8zm0-3.8H184c.6 0 1 .3 1 .6 0 .4-.4.7-1 .7h-16.7c-.5 0-1-.3-1-.7 0-.3.5-.6 1-.6z"/></g></g><g id="d" fill="#c40f38"><path d="M162.5 298.6c-2.3 1.3-3.8 2.7-3.6 3.3.1.6.9 1.1 1.9 1.8 1.6 1.1 2.6 3.1 1.8 4a5.8 5.8 0 0 0-.1-9z"/><path stroke-linejoin="round" d="M200.4 268.5a51.8 51.8 0 0 0-24.3-2.1c-9.7 1.6-17.1 5.5-16.5 8.7v.2l-3.7-8.5c-.6-3.5 7.6-7.8 18.4-9.6a55 55 0 0 1 9.5-.8c7 0 13 1 16.6 2.3v9.8"/><path d="M167.5 278.5c-4.5-.3-7.6-1.6-8-3.4-.2-1.5 1.3-3.2 4-4.7 1.3.1 2.6.3 4 .3v7.8m16.3-6.1c2.9.4 5 1.1 6 2l.1.1c.5 1-2 3.3-6.1 5.7v-7.8"/><path stroke-linejoin="round" d="M157.4 293.8c-.4-1.3 4-3.8 10.2-6.1 2.8-1 5.2-2 8-3.4 8.7-3.8 15-8.2 14.3-9.8v-.1c.4.4 1.1 8.2 1.1 8.2.8 1.5-5 5.8-13 9.6a138 138 0 0 1-10.4 4c-4.6 1.7-9 4.6-8.7 5.7l-1.5-8z"/></g><g stroke-width=".26"><path fill="#c40f38" stroke-width=".27" d="M324.9 220.4s-.8.8-1.3 1c-.6 0-1.2-.6-1.2-.6s-.5.5-1.1.7c-.6.1-1.4-.7-1.4-.7s-.6.8-1.1 1c-.5.2-1.1-.3-1.1-.3s-.3.4-.7.7h-.5l-.6-.5-.6-.7-.7-.2-.3-1.1v-.6c-.2-.6.8-1.4 2.3-1.7a4 4 0 0 1 2 0c.6-.5 1.8-.8 3.2-.8 1.3 0 2.4.2 3 .7.7-.5 1.8-.7 3-.7 1.5 0 2.7.3 3.3.8.5-.2 1.2-.2 2 0 1.5.3 2.5 1 2.3 1.7v.6l-.4 1-.6.3-.7.7-.5.4s-.3.1-.5 0c-.4-.2-.7-.6-.7-.6s-.6.5-1.1.3c-.5-.2-1-1-1-1s-.9.8-1.5.7c-.6-.2-1-.7-1-.7s-.7.6-1.3.5c-.5-.1-1.2-.9-1.2-.9z"/><g fill="#fcd80e"><ellipse cx="324.82" cy="216.2" rx="1.38" ry="1.96"/><ellipse cx="324.85" cy="216.2" rx=".63" ry="1.81"/><ellipse cx="324.84" cy="213.95" stroke="none" rx=".93" ry=".88"/><path stroke-width=".3" d="M326.1 213.6v.6h-2.5v-.6h1v-1.3h-.7v-.5h.6v-.6h.7v.6h.6v.5h-.6v1.3h1"/><path fill="none" d="M325.1 213.1a1 .9 0 1 1-.5 0"/></g><g fill="none" stroke-width=".21"><path stroke-linecap="round" stroke-width=".26" d="M314.4 220a2.9 2.9 0 0 1 2.6-4c.5 0 1 .2 1.4.4"/><path stroke-width=".26" d="M319.5 218c-.2-.3-.3-.6-.3-1 0-1 1.2-2 2.6-2 .6 0 1.2.2 1.7.5m6.7 2.5.2-1c0-1-1.2-2-2.6-2-.6 0-1.2.2-1.7.5"/><path stroke-linecap="round" stroke-width=".26" d="m335.2 220 .2-1c0-1.7-1.2-3-2.8-3-.5 0-1 .2-1.4.4"/><ellipse cx="313.57" cy="218.68" rx=".45" ry=".43"/><ellipse cx="313.74" cy="217.1" rx=".45" ry=".43"/><ellipse cx="314.76" cy="215.9" rx=".45" ry=".43"/><ellipse cx="316.11" cy="215.25" rx=".45" ry=".43"/><ellipse cx="317.55" cy="215.31" rx=".45" ry=".43"/><ellipse cx="318.43" cy="217.08" fill="#faf6f5" rx=".45" ry=".43"/><ellipse cx="318.68" cy="215.58" rx=".45" ry=".43"/><ellipse cx="319.81" cy="214.64" rx=".45" ry=".43"/><ellipse cx="321.23" cy="214.19" rx=".45" ry=".43"/><ellipse cx="322.67" cy="214.24" rx=".45" ry=".43"/><ellipse cx="326.94" cy="214.24" rx=".45" ry=".43"/><ellipse cx="328.39" cy="214.19" rx=".45" ry=".43"/><ellipse cx="329.8" cy="214.64" rx=".45" ry=".43"/><ellipse cx="330.93" cy="215.58" rx=".45" ry=".43"/><ellipse cx="331.18" cy="217.08" fill="#faf6f5" rx=".45" ry=".43"/><ellipse cx="332.06" cy="215.31" rx=".45" ry=".43"/><ellipse cx="333.51" cy="215.25" rx=".45" ry=".43"/><ellipse cx="334.86" cy="215.9" rx=".45" ry=".43"/><ellipse cx="335.88" cy="217.1" rx=".45" ry=".43"/><ellipse cx="336.05" cy="218.68" rx=".45" ry=".43"/></g><use xlink:href="#a" x="149.17"/><use xlink:href="#b" x="149.17"/></g><use xlink:href="#c" x="149.17"/><use xlink:href="#d" transform="matrix(-1 0 0 1 500.57 0)"/><path fill="#fcd80e" stroke="none" d="M166.4 264.6c2-.7 3.3-1.5 2.7-3-.4-1-1.5-1.3-3-.7l-2.7 1 2.4 6 .8-.3.9-.3-1-2.6zm-1.2-2.9.7-.2c.6-.2 1.2 0 1.5.8.2.5.2 1.1-.5 1.5l-.7.4-1-2.5m7.6-2.5-.9.2-.9.2 1.4 6.2 4.4-.8-.1-.4v-.4l-2.7.6-1.2-5.6m8.8 5.4c.8-2.3 1.8-4.4 2.8-6.6h-1.1c-.5 1.6-1.2 3.2-1.9 4.8l-2.4-4.5-1 .1h-1l3.6 6.3h1m9.1-4.9.5-.9c-.2-.2-1-.5-1.8-.6-1.8-.2-2.8.6-3 1.7-.2 2.2 3.4 2 3.2 3.5 0 .7-.8 1-1.5.9-.8-.1-1.4-.6-1.5-1.2h-.2l-.5 1.1c.5.3 1.2.5 1.9.6 1.8.2 3.2-.5 3.3-1.7.2-2.2-3.4-2.3-3.2-3.6 0-.5.4-.9 1.4-.8.6.1 1 .5 1.2 1h.2m119.6 5.2c.6-2.4 1.4-4.6 2.2-6.9l-.5.1h-.6l-1.4 5c-1-1.4-2-2.8-2.8-4.3l-1 .2-1 .1 4.1 6 .5-.2h.5m6.2-6.8h-1.8l-.1 6.3 4.5.1v-.8h-2.7v-5.6m7.1 1 2.1.3v-.4l.1-.4-6-.5v.4l-.1.4h2.2l-.6 5.8h1l.8.2.5-5.8m2.5 6.3.9.2.8.2.8-3 .5 1.3 1 2.2 1 .2 1 .2-.3-.6-1.4-3c1.1 0 2-.4 2.2-1.3.2-.6-.1-1.1-.7-1.5-.4-.3-1.3-.5-1.8-.6l-2.4-.6-1.6 6.3m3.2-5.4c.7.2 1.5.3 1.5 1v.6c-.2.9-1 1.2-2.1.9l.5-2.5m8.5 7.4-.3 2 .9.5.8.5.6-7.2a7.5 7.5 0 0 1-.8-.4l-6.3 4 .5.3.4.2 1.8-1.3 2.4 1.3zm-1.8-1.7 2-1.4-.2 2.4-1.8-1"/><path fill="#c40f38" stroke-width=".26" d="M249.7 182.7c6.6 0 12.5 1 16.4 2.5a33.7 33.7 0 0 0 15.3 2.4c2.6 0 6.6.8 10.5 2.5 3.3 1.5 6 3.2 7.8 5l-1.5 1.3-.5 4-4.3 5-2.1 1.7-5.1 4.1-2.6.2-.8 2.3-33-3.9-33 3.9-.7-2.3-2.6-.2-5.1-4-2.2-1.9-4.3-5-.4-3.9-1.6-1.4c1.8-1.7 4.5-3.4 7.8-4.9 4-1.7 7.9-2.5 10.6-2.5a33.7 33.7 0 0 0 15.3-2.4c3.8-1.5 9.4-2.5 16-2.5z"/><g fill="#fcd80e"><path d="m225.3 191.4 1.4 1.1 2.1-3.4a7.7 7.7 0 0 1-3.7-7.4c.2-4.3 5.5-8 12.2-8 3.4 0 6.6 1 8.8 2.6l.2-1.9a18.1 18.1 0 0 0-9-2.3c-7.8 0-13.8 4.4-14 9.6l-.1 1c0 2.7 1.2 5.2 3.2 7l-1 1.7"/><path d="M225.4 191.5c-2.6-2-4.2-4.7-4.2-7.6 0-3.4 2.2-6.4 5.5-8.4a8.9 8.9 0 0 0-3.5 7.1c0 2.8 1.2 5.3 3.2 7l-1 1.9"/><path d="M202.2 194.9a9.1 9.1 0 0 1-1.5-10c2.2-4.5 8.9-7.7 16.8-7.7 2.2 0 4.2.3 6.1.7l-1 1.5c-1.6-.3-3.3-.5-5.1-.5-7.3 0-13.4 2.8-15.1 6.7a7.3 7.3 0 0 0-.8 3.2c0 2.3 1.1 4.4 2.8 5.8l-2.6 4.3-1.4-1.1 1.8-3z"/><path d="M204.9 180.5a11 11 0 0 0-4.2 4.3 9 9 0 0 0 1.5 10l-1.6 2.7c-1.5-2-2.4-4.3-2.4-6.7 0-4.2 2.7-7.9 6.7-10.3zm45.1-9.2c1.8 0 3.3 1.1 3.7 2.7.2 1.4.4 3 .4 4.6v1.1c0 3.6.6 6.7 1.3 8.6l-5.4 5.1-5.4-5.1c.7-2 1.2-5 1.3-8.6v-1.1c0-1.7.2-3.2.4-4.6.4-1.6 2-2.7 3.7-2.7z"/><path d="M250 173c1 0 1.7.5 2 1.3.1 1.3.3 2.8.3 4.4v1.1c0 3.3.6 6.2 1.2 8l-3.5 3.4-3.5-3.4c.6-1.8 1.1-4.7 1.2-8v-1.1c0-1.6.2-3 .4-4.4.2-.8 1-1.4 2-1.4zm24.7 18.4-1.4 1.1-2-3.4a7.7 7.7 0 0 0 3.7-7.4c-.2-4.3-5.5-8-12.2-8-3.5 0-6.6 1-8.9 2.6 0-.7 0-1.3-.2-1.9 2.5-1.4 5.6-2.3 9-2.3 7.8 0 13.8 4.4 14.1 9.6v1c0 2.7-1.2 5.2-3.2 7l1.1 1.7"/><path d="M274.6 191.5c2.6-2 4.3-4.7 4.3-7.6 0-3.4-2.2-6.4-5.6-8.4a8.9 8.9 0 0 1 3.6 7.1c0 2.8-1.3 5.3-3.3 7l1 1.9"/><path d="M297.8 194.9a9.2 9.2 0 0 0 1.5-10c-2.1-4.5-8.8-7.7-16.8-7.7-2.1 0-4.2.3-6.1.7.4.5.8 1 1 1.5 1.7-.3 3.4-.5 5.1-.5 7.3 0 13.4 2.8 15.1 6.7.5 1 .8 2 .8 3.2 0 2.3-1.1 4.4-2.8 5.8l2.6 4.3 1.4-1.1-1.8-3z"/><path d="M295.1 180.5a11 11 0 0 1 4.2 4.3 9 9 0 0 1-1.5 10l1.6 2.7c1.6-2 2.4-4.3 2.4-6.7 0-4.2-2.6-7.9-6.7-10.3z"/><ellipse cx="250.05" cy="167.3" fill="#0859b9" stroke-width=".26" rx="4.43" ry="4.2"/><path stroke-width=".26" d="M248.9 155.5v2.3h-2.4v2.3h2.4v6.6h-3l-.3.6c0 .6.1 1.1.4 1.6h8.1c.3-.5.4-1 .4-1.6l-.2-.6h-3v-6.6h2.4v-2.3h-2.4v-2.3H249z"/></g><g fill="#faf6f5"><ellipse cx="250.04" cy="188.94" rx="1.91" ry="1.8"/><ellipse cx="250.04" cy="185.4" rx="1.91" ry="1.8"/><ellipse cx="250.04" cy="181.6" rx="1.52" ry="1.44"/><ellipse cx="250.04" cy="178.18" rx="1.1" ry="1.04"/><ellipse cx="250.04" cy="175.18" rx=".88" ry=".83"/><ellipse cx="198.94" cy="198.67" rx="1.1" ry="1.04"/><ellipse cx="197.44" cy="196.02" rx="1.1" ry="1.04"/><ellipse cx="196.44" cy="192.94" rx="1.1" ry="1.04"/><ellipse cx="196.31" cy="189.64" rx="1.1" ry="1.04"/><ellipse cx="197.12" cy="186.4" rx="1.1" ry="1.04"/><ellipse cx="198.81" cy="183.45" rx="1.1" ry="1.04"/><ellipse cx="201.06" cy="181.02" rx="1.1" ry="1.04"/><ellipse cx="203.68" cy="179.01" rx="1.1" ry="1.04"/><ellipse cx="206.8" cy="177.36" rx="1.1" ry="1.04"/><ellipse cx="210.04" cy="176.19" rx="1.1" ry="1.04"/><ellipse cx="213.66" cy="175.54" rx="1.1" ry="1.04"/><ellipse cx="217.1" cy="175.36" rx="1.1" ry="1.04"/><ellipse cx="220.47" cy="175.48" rx="1.1" ry="1.04"/><ellipse cx="224.21" cy="190.32" rx="1.1" ry="1.04"/><ellipse cx="222.34" cy="187.65" rx="1.1" ry="1.04"/><ellipse cx="221.35" cy="184.75" rx="1.1" ry="1.04"/><ellipse cx="221.47" cy="181.57" rx="1.1" ry="1.04"/><ellipse cx="222.16" cy="178.37" rx="1.1" ry="1.04"/><ellipse cx="223.84" cy="175.48" rx="1.1" ry="1.04"/><ellipse cx="226.4" cy="173.47" rx="1.1" ry="1.04"/><ellipse cx="229.39" cy="171.81" rx="1.1" ry="1.04"/><ellipse cx="232.7" cy="170.82" rx="1.1" ry="1.04"/><ellipse cx="236.13" cy="170.23" rx="1.1" ry="1.04"/><ellipse cx="239.5" cy="170.28" rx="1.1" ry="1.04"/><ellipse cx="242.99" cy="170.87" rx="1.1" ry="1.04"/><ellipse cx="246.23" cy="171.99" rx="1.1" ry="1.04"/><ellipse cx="253.8" cy="171.99" rx="1.1" ry="1.04"/><ellipse cx="257.04" cy="170.87" rx="1.1" ry="1.04"/><ellipse cx="260.54" cy="170.28" rx="1.1" ry="1.04"/><ellipse cx="263.9" cy="170.23" rx="1.1" ry="1.04"/><ellipse cx="267.34" cy="170.82" rx="1.1" ry="1.04"/><ellipse cx="270.64" cy="171.81" rx="1.1" ry="1.04"/><ellipse cx="273.64" cy="173.47" rx="1.1" ry="1.04"/><ellipse cx="276.19" cy="175.48" rx="1.1" ry="1.04"/><ellipse cx="277.88" cy="178.37" rx="1.1" ry="1.04"/><ellipse cx="278.57" cy="181.57" rx="1.1" ry="1.04"/><ellipse cx="278.69" cy="184.75" rx="1.1" ry="1.04"/><ellipse cx="277.69" cy="187.65" rx="1.1" ry="1.04"/><ellipse cx="275.83" cy="190.32" rx="1.1" ry="1.04"/><ellipse cx="279.57" cy="175.48" rx="1.1" ry="1.04"/><ellipse cx="282.94" cy="175.36" rx="1.1" ry="1.04"/><ellipse cx="286.38" cy="175.54" rx="1.1" ry="1.04"/><ellipse cx="290" cy="176.19" rx="1.1" ry="1.04"/><ellipse cx="293.24" cy="177.36" rx="1.1" ry="1.04"/><ellipse cx="296.36" cy="179.01" rx="1.1" ry="1.04"/><ellipse cx="298.97" cy="181.02" rx="1.1" ry="1.04"/><ellipse cx="301.22" cy="183.45" rx="1.1" ry="1.04"/><ellipse cx="302.91" cy="186.4" rx="1.1" ry="1.04"/><ellipse cx="303.72" cy="189.64" rx="1.1" ry="1.04"/><ellipse cx="303.6" cy="192.94" rx="1.1" ry="1.04"/><ellipse cx="302.6" cy="196.02" rx="1.1" ry="1.04"/><ellipse cx="301.1" cy="198.67" rx="1.1" ry="1.04"/></g><g fill="#fcd80e"><path d="M250.2 226.2c-12.3 0-23.3-1.5-31.1-3.8-.6-.2-1-.8-.9-1.3 0-.5.3-1 .9-1.2 7.8-2.3 18.8-3.8 31-3.8 12.3 0 23.3 1.5 31.1 3.8.6.2.9.7.9 1.2 0 .6-.3 1-.9 1.3-7.8 2.3-18.8 3.8-31 3.8"/><path d="M250 216c-12.3.1-23.5 1.7-31.3 4 .6-.2.6-1-.2-3.1-1-2.5-2.5-2.4-2.5-2.4 8.6-2.6 20.7-4.2 34.1-4.2 13.5 0 25.6 1.6 34.3 4.2 0 0-1.5-.1-2.5 2.4-.8 2-.9 2.9-.2 3.2-7.9-2.4-19.2-4-31.6-4"/><path d="M250.1 210.3c-13.4 0-25.5 1.6-34.1 4.2-.6.2-1.2 0-1.4-.6s.1-1.2.7-1.4c8.7-2.6 21-4.3 34.8-4.3 13.8 0 26.2 1.7 35 4.3.5.2.8.8.6 1.4s-.8.8-1.4.6c-8.6-2.6-20.7-4.2-34.2-4.2"/><path d="m250.2 199.8 1.2.2c-.2.5-.2 1-.2 1.6 0 2.6 2.2 4.7 5 4.7 2 0 4-1.4 4.6-3.2 0 0 .4-1.7.7-1.7l.2 1.8c.3 2.3 2.4 4 4.9 4a4.8 4.8 0 0 0 4.8-5.3l1.6-1.5.8 2c-.3.5-.5 1.2-.5 2 0 2.4 2.1 4.4 4.7 4.4 1.7 0 3-.8 4-2l1-1.2-.1 1.5c0 1.5.7 3 2.2 3.2 0 0 1.7 0 4-1.7 2.3-1.8 3.5-3.3 3.5-3.3l.2 1.8s-1.9 3-4 4.1c-1 .7-2.8 1.4-4.2 1.2-1.4-.3-2.4-1.4-3-2.8a7 7 0 0 1-3.5 1 6.8 6.8 0 0 1-6.3-3.9 7.3 7.3 0 0 1-10.8-.3 7.2 7.2 0 0 1-4.9 1.9 7.2 7.2 0 0 1-6-3 7.2 7.2 0 0 1-5.9 3c-1.9 0-3.6-.7-4.8-1.9a7.3 7.3 0 0 1-10.8.3 6.8 6.8 0 0 1-6.3 3.9 7 7 0 0 1-3.6-1c-.5 1.4-1.5 2.5-3 2.8-1.4.2-3-.5-4.2-1.2-2.1-1.2-4-4.1-4-4.1l.2-1.8s1.3 1.5 3.6 3.3c2.2 1.8 4 1.7 4 1.7 1.5-.3 2.1-1.7 2.1-3.2v-1.5l1 1.2c.9 1.2 2.3 2 4 2 2.5 0 4.6-2 4.6-4.5 0-.7-.1-1.4-.4-2l.8-2 1.5 1.6v.6c0 2.5 2.2 4.6 4.9 4.6 2.4 0 4.6-1.6 4.9-4 0 .1 0-1.7.2-1.7s.6 1.7.7 1.7a4.9 4.9 0 0 0 4.6 3.2 4.8 4.8 0 0 0 4.7-6.3l1.3-.2"/><path d="M208.4 206.3a2.2 2.2 0 0 0-.8-1c-.7-.7-1.8-.8-2.3-.3l-.2.3s-1-2.1-2.4-2.8c-1.3-.7-3.5-.5-3.5-.5a3 3 0 0 1 3-3c1 0 2 .5 2.5 1.2l.2-1s1.4.2 2 1.7 0 3.8 0 3.8.3-1 .8-1.6c.5-.6 1.8-1.3 2.5-1.6l1.3-.8.1.6v.8c1.2-.2 2.7 0 3.8.5a5 5 0 0 1-2.6 2.3 13 13 0 0 0 1.3 1.2l-1.3.2c-.4 0-1.8.3-2.7.2l-1.7-.2"/><path fill="#c40f38" d="M205.3 205c.5-.5 1.6-.4 2.3.3.9.6 1 1.6.6 2.1-.5.6-1.6.5-2.4-.2-.8-.7-1-1.7-.5-2.2"/><path fill="#faf6f5" d="M216.4 206c-.3-1 0-1.7.6-2 .6-.1 1.3.4 1.6 1.2s0 1.7-.6 1.9c-.6.2-1.3-.4-1.6-1.2"/><path d="M226.1 201.9c-.3-.3-.6-.7-.6-1.1s0-.9.2-1.3l-1.8-.6c-.8-.2-2-.2-2.4-.2h-1.2a6.2 6.2 0 0 0 .8 1.2 5.2 5.2 0 0 0-3 2.1c1 .7 2.3 1.1 3.6 1l-.2.9v.6l1-.4c.3-.2 1.5-.6 2.1-1 .8-.5 1.5-1.2 1.5-1.2"/><path d="M225.7 191.7c1 .6 2 1.7 2.3 3 0 0 .1-.3.7-.6s1-.3 1-.3l-.2 1.3c0 .3 0 1.4-.3 2.3-.2 1-.6 1.7-.6 1.7a2 2 0 0 0-1.6-.4c-.6 0-1 .4-1.3.9 0 0-.7-.6-1.2-1.4-.6-.8-1-1.8-1.2-2l-.7-1.2s.5-.2 1.2 0c.6 0 .8.2.8.2a5 5 0 0 1 1-3.6"/><path d="M229 201.4a1.7 1.7 0 0 0-.5-2.3s.7-.7 1.5-1.3c.6-.4 1.8-.8 2.2-1l1-.3v.6l-.2.9c1.3-.2 2.6.2 3.6 1-.7.9-1.8 1.7-3 2a6.3 6.3 0 0 0 .7 1.3h-1.1c-.4 0-1.7 0-2.4-.2l-1.8-.7"/><ellipse cx="227.37" cy="200.45" fill="#c40f38" rx="2.17" ry="2.06"/><path fill="#faf6f5" d="M237.8 201.8c-.2-.9.3-1.7.9-1.7.6-.1 1.2.5 1.3 1.4.1.9-.3 1.6-.9 1.7-.6 0-1.2-.6-1.3-1.4"/><path d="M248.5 199.8a2 2 0 0 1 0-2.7l-2-1c-.7-.4-2-.6-2.5-.7l-1.3-.2.2.6.4 1a6 6 0 0 0-3.8 1.7c1 1 2.3 1.7 3.8 1.8l-.4.9-.2.7 1.3-.3c.4 0 1.8-.3 2.6-.7 1-.4 1.9-1 1.9-1"/><path d="M250.1 188.4c1 1 1.9 2.3 2 3.8 0 0 .2-.3.9-.5.7-.3 1.2-.2 1.2-.2l-.5 1.4-.8 2.5-1 1.8a2.2 2.2 0 0 0-3.4 0s-.6-.8-1-1.8l-1-2.5-.5-1.4s.6-.1 1.3.2l1 .5a6 6 0 0 1 1.8-3.8"/><path d="M251.8 199.8a2 2 0 0 0 0-2.6s.9-.7 1.9-1.1c.7-.4 2.2-.6 2.6-.7l1.2-.2-.1.6-.4 1a6 6 0 0 1 3.8 1.7 6 6 0 0 1-3.8 1.8 6.6 6.6 0 0 0 .5 1.6l-1.2-.3c-.4 0-1.9-.3-2.6-.7l-2-1"/><ellipse cx="250.14" cy="198.5" fill="#c40f38" rx="2.17" ry="2.06"/><path fill="#faf6f5" d="M262.6 201.8c0-.9-.3-1.7-1-1.7s-1.2.5-1.3 1.4c-.1.9.3 1.6 1 1.7.6 0 1.2-.6 1.3-1.4"/><path d="M271.4 201.4c-.2-.4-.3-.8-.3-1.3.1-.4.4-.8.7-1l-1.5-1.3c-.6-.4-1.8-.8-2.1-1-.4 0-1-.3-1-.3v.6c0 .5.2.9.2.9-1.3-.2-2.7.2-3.6 1 .6.9 1.7 1.7 3 2l-.5.8-.3.5h1.2c.3 0 1.6 0 2.3-.2l1.9-.7"/><path d="M274.7 191.7c-1 .6-2 1.7-2.3 3l-.7-.6c-.6-.3-1.1-.3-1.1-.3l.2 1.3.3 2.3c.3 1 .7 1.7.7 1.7a2 2 0 0 1 2.9.5l1.2-1.4 1.1-2 .7-1.2s-.4-.2-1.1 0c-.7 0-.9.2-.9.2a5 5 0 0 0-1-3.6"/><path d="M274.2 201.9a1.7 1.7 0 0 0 .5-2.3s.9-.5 1.8-.7c.7-.2 2-.2 2.4-.2h1.1l-.3.5-.5.7c1.3.3 2.4 1.2 3 2.1-1 .7-2.2 1.1-3.5 1l.2.9v.6l-1-.4c-.4-.2-1.6-.6-2.2-1-.8-.5-1.5-1.2-1.5-1.2"/><ellipse cx="272.98" cy="200.45" fill="#c40f38" rx="2.17" ry="2.06"/><path fill="#faf6f5" d="M284 206c.2-1 0-1.7-.6-2-.6-.1-1.3.4-1.6 1.2-.3.9 0 1.7.5 1.9.6.2 1.4-.4 1.7-1.2"/><path d="M292 206.3c0-.4.3-.7.7-1 .8-.7 1.8-.8 2.4-.3l.1.3s1.1-2.1 2.4-2.8 3.5-.5 3.5-.5a3 3 0 0 0-3-3c-1 0-1.9.5-2.4 1.2l-.3-1s-1.3.2-2 1.7.1 3.8.1 3.8-.3-1-.8-1.6a8.3 8.3 0 0 0-2.5-1.6l-1.4-.8v1.4c-1.3-.2-2.7 0-3.9.5.5 1 1.4 1.8 2.6 2.3l-.8.7-.4.5 1.3.2c.4 0 1.8.3 2.6.2l1.8-.2"/><path fill="#c40f38" d="M295 205c-.5-.5-1.5-.4-2.3.3-.8.6-1 1.6-.5 2.1.5.6 1.6.5 2.3-.2.8-.7 1-1.7.6-2.2"/></g><g fill="none"><path fill="#c40f38" stroke-linejoin="round" d="M250.1 224.6c-11 0-21-1.3-28.7-3.3 7.6-2 17.7-3.2 28.7-3.2s21.2 1.2 28.8 3.2a119 119 0 0 1-28.8 3.3z"/><path stroke-width=".05" d="M258 224.3v-6m-3 6.2V218m-2.2 6.5V218"/><path stroke-width=".09" d="M251 224.6v-6.5"/><path stroke-width=".14" d="M249.2 224.6v-6.5"/><path stroke-width=".18" d="M247.5 224.6v-6.5"/><path stroke-width=".23" d="M245.8 224.6v-6.5"/><path stroke-width=".28" d="M244.3 224.6v-6.5"/><path stroke-width=".37" d="M238.9 224v-5.5m1.3 5.7v-5.9"/><path stroke-width=".42" d="M235.3 223.7v-4.8m1.2 4.9v-5.1m1.2 5.2v-5.2"/><path stroke-width=".46" d="M234.1 223.7V219"/><path stroke-width=".51" d="M233 223.4v-4.3"/><path stroke-width=".56" d="M231.7 223.3v-4"/><path stroke-width=".63" d="M228 222.7v-2.9"/><path stroke-width=".68" d="M226.7 222.4v-2.3"/><path stroke-width=".73" d="M225.4 222.1v-1.8"/><path stroke-width=".77" d="M224.1 222v-1.4"/><path stroke-width=".91" d="M222.7 221.7v-.7"/><path d="M220.1 221.7c7.8-2.2 18.3-3.6 30-3.6s22.3 1.4 30 3.6"/><path fill="#c40f38" d="m216.7 217.2 1.2-1.6 3.4.4-2.7 2-1.9-.8"/><path fill="#faf6f5" d="M224 215.3c0-.6.5-1 1.1-1s1.1.4 1.1 1c0 .5-.5 1-1 1s-1.2-.5-1.2-1"/><path fill="#028a66" d="m233.6 215-2.3.3c-.6.1-1.2-.3-1.3-.9 0-.5.4-1 1-1.1l2.4-.3 2.4-.3c.6 0 1.1.4 1.2 1s-.4 1-1 1l-2.4.4"/><path fill="#faf6f5" d="M240.5 213.3c0-.5.5-1 1.1-1 .6 0 1.1.5 1.1 1 0 .6-.5 1-1 1a1 1 0 0 1-1.2-1"/><path fill="#c40f38" d="M250.2 214.2h-3.3c-.6 0-1.1-.5-1.1-1 0-.6.4-1.1 1-1.1h6.7a1 1 0 0 1 1 1c0 .6-.4 1-1 1H250"/><path fill="#faf6f5" d="M257.6 213.3c0-.5.5-1 1-1a1 1 0 0 1 1.2 1c0 .6-.5 1-1.1 1-.6 0-1.1-.4-1.1-1"/><path fill="#028a66" d="m266.7 215 2.3.3c.6.1 1.2-.3 1.3-.9s-.4-1-1-1.1l-2.4-.3-2.4-.3c-.6 0-1.1.4-1.2 1 0 .5.4 1 1 1l2.4.4"/><path fill="#faf6f5" d="M274 215.3c0-.6.6-1 1.2-1s1 .4 1 1c0 .5-.4 1-1 1s-1.1-.5-1.1-1"/><path fill="#c40f38" d="m283.6 217.2-1.2-1.6-3.4.4 2.7 2 1.9-.8"/></g><g stroke-width=".52"><path fill="#d3d3d5" d="M250.5 344.3c-13 0-26-3.2-37-8.5-8-4-13.3-12-13.3-21.2v-33.3h100.4v33.3c0 9.2-5.3 17.2-13.4 21.2a84.3 84.3 0 0 1-36.7 8.5z"/><path fill="#edcfb7" d="M253 329.6c2 .6 3 2.1 3 4 0 2.3-2.2 4.1-5.2 4.1s-5.5-1.8-5.5-4.1c0-1.8 1-3.8 3.1-4l-.2-.5-.7-.6s.8-.2 1.3 0l.8.4.5-.7.7-.5.6.6.2.6.8-.5.9-.3-.2.7-.2.7"/><path fill="#028a66" d="M250.3 340.3s-4-2.7-5.7-3c-2.2-.5-4.7-.1-5.7-.2l1.8 1.5a11 11 0 0 0 3.4 2c3.3.7 6.2-.3 6.2-.3m1.2.3s2.5-2.7 5.2-3c3.1-.5 5.2.2 6.4.5l-1.6.9c-.5.4-2 1.6-4 1.6l-5-.2-1 .2"/><path fill="#c40f38" d="M250.7 337.3a5 5 0 0 1 0-7.5 5 5 0 0 1 0 7.5"/><path fill="#028a66" d="M249.7 342.7s.6-1.5.7-2.8l-.2-2.2h.8s.4 1.2.4 2.2l-.2 2.4-.7.1-.8.3"/><g fill="#fcd80e"><path fill="#c40f38" d="M250.3 314.6c0 13.1-11.1 23.8-25 23.8S200 327.7 200 314.6v-33.4h50.2v33.4"/><path d="M200 314.1c.2 7 3 12.3 5.8 15.7v-49.5H200v33.8zm11 20.1c1.7.9 3.8 2.3 6.1 2.8l-.1-57h-6v54.2zm11.3 4c2.3.3 4 .2 5.8 0V280h-5.8v58.3zm11-1.2c2.3-.5 5-1.9 6-2.6V280h-5.8l-.2 57zm11.5-7.8c2.5-2.1 4.8-7 5.6-12.7l.1-36.5h-5.8l.1 49.2z"/></g><path fill="#c40f38" d="M300.6 281.2v33.4a24.5 24.5 0 0 1-25.1 23.8 24.5 24.5 0 0 1-25.2-23.8v-33.4h50.3"/><path id="e" fill="#fcd80e" stroke="#fcd80e" stroke-width=".26" d="m272.7 306.1.2-.4-4.3-4.7-1.6.7-3-3.4 1-1.4-5.4-6h-.3v4l1.8.5v4.5l-1.8.5v4c.8.3 1.5 1 1.7 1.7h3.3l.5-1.6h4.7l.5 1.6zm-7-18.5v1.6h2.8v-1.6zm-7.3 20.4c.7 0 1.2-.5 1.2-1s-.5-1.2-1.2-1.2c-.6 0-1.1.5-1.1 1.1s.5 1.1 1.1 1.1zm16-9.7-1.7-.5v-4.5l1.7-.5V291c-.8-.2-1.5-.9-1.8-1.7H270l-.5 1.7h-4.7l-.5-1.7h-3l-.4.7 5.4 6 1.7-.8 3 3.4-1 1.5 4.2 4.6.3-.1zm-7.2-1.4-1.3 1 1.7 2 1.3-1zm8 36.2c-1.3 0-2.3-1-2.5-2a18 18 0 0 1-4.8-1.3l.9-1.5c1.3.6 2.6 1 4 1.1.4-.6 1-1.1 1.6-1.4v-5.6l-1.7-.5v-4.4l1.7-.5v-7.7a.9.9 0 0 1-.2 0l-4 4.4 1 1.4-3 3.4-1.7-.7-3.3 3.7c.6.9.6 2 0 2.8a15.6 15.6 0 0 0 3.2 2.8l-.9 1.4c-1.4-.9-2.7-2-3.8-3.2-.8.3-1.8.1-2.6-.5a2.5 2.5 0 0 1-.3-3.6l.2-.2a16 16 0 0 1-1.4-5h1.8c.1 1.5.5 3 1 4.3l1.5.1 3.3-3.6-1-1.5 3-3.4 1.8.7 4-4.4a2.1 2.1 0 0 1-.3-.5H270l-.5 1.7h-4.7l-.6-1.6H261c-.3.7-.9 1.3-1.7 1.6v4h-1.7v-4c-1.1-.3-2-1.3-2-2.5 0-1.1 1-2.1 2-2.5v-4l-1.7-.5v-4.5l1.7-.5v-4c-1-.4-1.8-1.3-1.8-2.5 0-1.4 1.2-2.5 2.7-2.5 1.2 0 2.3.7 2.6 1.7h3.1l.5-1.6h4.7l.5 1.6h2.7c.4-1 1.4-1.7 2.6-1.7v8.3h-.8v2.6h.8v21.6h-.8v2.6h.8zm-6-18.3-1.2-1-1.8 2 1.3 1zm-9.9-18.5h-1.7v2.6h1.7zm9.2 11.4v-1.6h-2.9v1.6zm-10.6 9.7-1.8-.4-.3-4.4 1.8-.6v2.6c0 1 0 1.9.3 2.8zm1.4-5.5 1.8.4v2.2l.2 2.3-1.8.6-.2-2.8zm10.8 17 .4-1.8c-1.5-.4-3-1.1-4.2-2l-1.2 1c1.5 1.2 3.2 2.1 5 2.7zm-.8 1.4-1.3 1.2c-1.5-.5-2.9-1.3-4.1-2.1l.3-1.8c1.5 1.2 3.2 2 5 2.7z"/><use xlink:href="#e" transform="matrix(-1 0 0 1 550.43 0)"/><path fill="#028a66" stroke="none" d="M272.6 307c0-1.5 1.2-2.7 2.7-2.7s2.8 1.2 2.8 2.6c0 1.5-1.3 2.6-2.8 2.6s-2.7-1.1-2.7-2.6"/><g fill="#fcd80e" stroke-width=".46"><path fill="#c40f38" stroke-width=".52" d="M200.1 281.3h50.2v-55.8h-50.2v55.8z"/><path d="M217.3 238.4h-.9v-1h-1.6v3.8h1.6v2.5H213v7.4h1.8V266h-3.7v7.6h28.4V266h-3.7v-14.8h1.9v-7.4h-3.5v-2.5h1.6v-3.7h-1.6v1h-1v-1h-1.5v1h-1.2v-1H229v3.7h1.6v2.5h-3.4v-8h1.8v-3.8H227v1h-1v-1h-1.6v1h-1v-1h-1.8v3.7h1.9v8.1H220v-2.5h1.6v-3.7h-1.6v1h-1v-1h-1.8v1zm-6.2 35.1h28.4m-28.4-1.8h28.4m-28.4-1.9h28.4m-28.4-1.8h28.4m-28.4-2h28.4m-24.7-1.7h21m-21-1.9h21m-21-2h21m-21-1.9h21m-21-1.8h21m-21-1.9h21m-21-1.8h21M213 251h24.8m-24.8-1.8h24.8m-24.8-1.9h24.8m-24.8-1.8h24.8m-21.3-1.9h17.8m-10.6-1.8h3.4m-3.4-1.9h3.4m-3.4-1.8h3.4m-3.4-1.9h3.4m-5.3-2.3h7.2m-12.5 7.9h3.7m-5.3-2.3h7m-7 34v-2m0-1.8V268m-1.9 1.8v1.9m3.5 0v-1.9m1.9 3.7v-1.8m0-1.9V268m0-2v-1.7m0-1.9v-2m-1.9 7.6v-2m-3.5 2v-2m7.2 0v2m1.6-2v-1.7m-5.3-1.9v1.9m3.7-1.9v1.9m3.5-1.9v1.9m-1.9-1.9v-2m1.9-1.9v1.9m0-5.6v1.9m-1.9-3.7v1.8m1.9-3.7v1.9M220 251v1.9m-3.7-1.9v1.9m-1.6-3.7v1.8m3.5-1.8v1.8m3.4-1.8v1.8m1.9-3.7v1.9m-3.5-1.9v1.9m-3.7-1.9v1.9m-1.6-3.7v1.8m7-1.8v1.8m-3.5-5.5v1.8m16-1.8h-3.8m5.3-2.3h-7m7 34v-2m0-1.8V268m1.9 1.8v1.9m-3.5 0v-1.9m-1.8 3.7v-1.8m0-1.9V268m0-2v-1.7m0-1.9v-2m1.8 7.6v-2m3.5 2v-2m-7.2 0v2m-1.6-2v-1.7m5.3-1.9v1.9m-3.7-1.9v1.9m-3.5-1.9v1.9m1.9-1.9v-2m-1.9-1.9v1.9m0-5.6v1.9m1.9-3.7v1.8m-1.9-3.7v1.9m3.5-1.9v1.9m3.7-1.9v1.9m1.6-3.7v1.8m-3.4-1.8v1.8m-3.5-1.8v1.8m-1.9-3.7v1.9m3.5-1.9v1.9m3.7-1.9v1.9m1.6-3.7v1.8m-7-1.8v1.8m3.6-5.5v1.8m-7.2 18.7v-2m0-5.6V253m0 5.5v-1.8m0-5.6v-1.8m0-1.9v-1.8m0-3.7V240m0-1.8v-1.9m-8.8 4.9h3.7m3.5-5.6h3.4m3.5 5.6h3.7"/><path d="M230 273.5v-4.8c0-1-.4-3.7-4.8-3.7-4.2 0-4.6 2.8-4.6 3.7v4.8h9.5z"/><path d="m222.2 269-2.3-.3c0-1 .2-2.3 1-2.8l2 1.6c-.2.3-.7 1-.7 1.4zm4-2.4 1-2c-.4-.3-1.3-.5-2-.5-.5 0-1.4.2-1.9.4l1.2 2.1h1.6zm2.2 2.3 2.3-.2c0-1-.2-2.3-.9-2.8l-2 1.6c.2.3.6 1 .6 1.4zm-6.7-8v-5.2c0-1.3-.9-2.5-2.5-2.5s-2.5 1.2-2.5 2.5v5.1h5zm7.2 0v-5.2c0-1.3 1-2.5 2.5-2.5 1.7 0 2.6 1.2 2.6 2.5v5.1h-5.1zm-8.8-12.5.2-4.7H216l.5 4.7h3.7zm7 0 .4-4.7h-4.4l.3 4.7h3.7zm3.4 0-.4-4.7h4.6l-.5 4.7h-3.7z"/><path fill="#003396" stroke="none" d="M228.4 273.5v-4.1c0-.7-.4-2.8-3.2-2.8-2.5 0-3 2-3 2.8v4.1h6.2zm-7.1-13.1V256c0-1.2-.7-2.3-2.1-2.3s-2 1.1-2 2.3v4.4h4zm8 0V256c0-1.2.8-2.3 2.1-2.3 1.4 0 2.1 1.1 2.1 2.3v4.4h-4.1z"/></g><path fill="#d3d3d5" d="M250.3 281.3h50.3v-55.8h-50.3v55.8z"/><path fill="#f42a41" stroke-width=".39" d="M276 239.3v-1s-1.5.1-2.4-.1-1.6-.6-2.4-1.3c-.8-.6-1-1-1.7-1.1-1.3-.3-2.4.4-2.4.4s1 .3 1.8 1.3 1.6 1.4 2 1.5c.6.2 2.6 0 3.2 0l1.8.3z"/><g fill="none" stroke-width=".39"><path fill="#ed72aa" d="M283.5 237v1.4c.1.7-.2 1.2 0 1.6l.2 1c.2.2.2.9.2.9l-.7-.6-.6-.4.1 1c0 .3.2 1 .5 1.3.3.3.9.9 1 1.3.2.5.2 1.4.2 1.4s-.5-.7-.9-.8l-1.2-.7s.8.8.8 1.6c0 .7-.4 1.6-.4 1.6s-.3-.7-.8-1.1l-1.1-1s.5 1.2.5 2l-.2 2.5s-.3-.7-.7-1c-.4-.3-1-.6-1-.8-.2-.2.4.7.5 1.2 0 .5.3 2.4 1.9 4.7 1 1.4 2.4 3.8 5.5 3 3.1-.8 2-5 1.3-7-.7-1.9-1-4-1-4.8l.6-3.4c-.1-.4-.3-2 .1-3.3.4-1.3.7-1.8 1-2.4l.4-1.3v-1.4s.7 1 .8 1.4c.2.4.2 1.5.2 1.5s0-1 1-1.6 1.8-1.2 2-1.5l.4-.5s0 2-.6 2.7l-1.8 2 1.2-.2h1s-.7.5-1.5 1.6c-.8 1.2-.5 1.3-1 2.2s-1.1 1-1.8 1.6c-1.1.9-.5 4.4-.4 4.9.2.5 2 4.7 2 5.8.1 1 .3 3.3-1.5 4.8-1.2 1-3 1-3.5 1.2-.5.3-1.3 1.1-1.3 3 0 1.7.6 2 1.1 2.4.5.5 1.2.2 1.3.6.2.3.2.5.5.7.2.2.3.5.3.8-.1.4-1 1.3-1.2 1.9-.3.6-1 2.2-1 2.5s0 1 .3 1.3c0 0 .9 1 .3 1.3-.4.1-.8-.3-1-.2-.6.1-.8.5-1 .4-.4 0-.4-.2-.4-.7 0-.5 0-.7-.2-.7s-.3.1-.3.4 0 .9-.3.9-.6-.4-.9-.5-.8-.2-.8-.5.3-.9.7-1c.4 0 .8-.3.5-.5-.2-.2-.5-.2-.7 0-.3.2-.8 0-.8-.3l.1-.8c0-.2-.5-.5.1-.8.6-.4.8.2 1.4.1s.9-.3 1.1-.6.2-1-.2-1.5-.8-.5-1-.8l-.3-1v2.4l-.7-.9c-.4-.3-.7-1.3-.7-1.3v1.3c0 .4.4.7.3.9-.2 0-.9-.8-1-1-.2 0-.8-.5-1-1l-.6-1.4c0-.2-.2-1.3 0-1.6l.4-1h-1.4c-.7 0-1.3-.3-1.6.2s-.1 1.5.2 2.9c.4 1.3.6 2 .5 2.2 0 .2-.6.8-.7.9h-1c-.2-.1-.5-.3-1.2-.3h-1.4l-1.2-.4c-.2 0-.7.4-.6.8.2.6-.2.7-.5.7l-1-.3c-.3 0-.8 0-.7-.4 0-.4.2-.4.4-.7.1-.3.2-.5 0-.6-.2 0-.5 0-.7.2-.2.1-.5.5-.8.3-.2-.1-.4-.4-.4-1 0-.7-.7-1.2 0-1.2.6 0 1.3.5 1.5.1s0-.5-.3-.8-.8-.4-.3-.7l.7-.6c.2-.2.4-.8.8-.6.6.3 0 .7.6 1.4s1 1 2 .8c1.1 0 1.4-.2 1.4-.5l-.1-1 .1-1-.6.6-.4.8-.1-1.1.1-1-.2-.9-.3 1-.2 1s-.6-.5-.4-1.5c0-.8-.2-1.7 0-2 .3-.4.8-1.7 2.1-1.8h2.8l2-.3s-3-1.5-3.6-2a10 10 0 0 1-2-2.1c-.4-.5-.7-1.6-.7-1.6s-.5 0-1 .3l-1.3 1-.7 1v-2s-.3 1.2-1 1.7l-1.4 1.2v-1l.2-.9s-.5.7-1.2.9c-.7 0-1.8 0-2 .5 0 .5.3 1 .1 1.4s-.5.6-.5.6-.4-.4-.8-.4l-.7.1s-.3-.4-.2-.6c.1-.3.7-.7.5-.9-.1-.1-.6 0-.8.2-.3.2-1 .3-.9-.2 0-.4.2-.7 0-1 0-.3 0-.5.3-.6.2-.1 1 0 1.2-.2 0-.2-.2-.5-.8-.6-.6-.2-1-.5-.6-.8l.5-.6c.2-.3.2-.8.8-.5.5.2.4.8 1 1 .5.2 1.8-.1 2.1-.3l1.5-1 1.6-1-1-.9-1-1-2-.7c-.4 0-1.7-.5-1.7-.5l.8-.3c.2-.2.6-.6.9-.5h.2l-1.4-.1c-.3-.1-1-.6-1.3-.6l-.8.1s.7-.5 1.3-.6h1.1s-1-.3-1.1-.6l-.7-1c-.1-.3-.2-.6-.6-.6s-.8.3-1.1.3-.6-.2-.6-.7v-.5c-.2-.2-.7-.8-.2-1 .4 0 1.3.2 1.4 0 0-.2-.5-.7-.9-.8-.3-.2-1-.5-.6-.8l.8-.6c.2-.2.3-1 .7-.7.4.2.9 1.2 1.2 1.2.3-.1.3-.9.2-1.2 0-.3 0-.9.3-.8s.5.4 1 .4c.4 0 1 0 1 .2 0 .4-.3.8-.6 1.1-.3.4-.4 1-.2 1.5s.7 1.2 1.1 1.5 1.3.5 1.9.8c.5.4 1.7 1.4 2.2 1.5l.8.3s.5-.2 1.1-.2 2.2 0 2.8-.1 1.3-.7 1-1.2c-.2-.5-1.4-1-1.3-1.4s.5-.4 1.3-.4 1.8.1 2-1c.2-1 .3-1.6-.8-1.9-1-.2-1.9-.2-2-1-.3-.8-.5-1-.2-1.2.2-.2.6-.3 1.4-.4.8 0 1.7 0 2-.2.2-.2.2-.7.5-1l1.6-.3s1.4.7 2.8 1.7c1.2.9 2.3 2.2 2.3 2.2"/><path d="M269 243.4s-.8.2-1.1.7c-.4.5-.3 1-.3 1s.6-.5 1.5-.3l1.3.3c.4 0 1.3-.4 1.3-.4s-.7 1-.6 1.5c0 .6.2.8.1 1.1 0 .8-.6 1.7-.6 1.7l1-.4c.8-.2 1.4-.5 1.8-.8l1-1s-.2 1 0 1.4l.2 1.7s.4-.5.8-.7c.2 0 .7-.3 1-.7l.2-1s.1.9.4 1.3c.3.4.7 1.8.7 1.8s.3-.9.6-1.2.7-.8.7-1.1v-.9l.3.9m-11.4.6s.5-.8 1-1.1l1.2-.8 1-.5m.9 5.2 1.4-.7c.7-.4 1.2-1.2 1.2-1.2"/><path fill="none" stroke-width=".26" d="m282.6 240.9-.5-.7-.2-.4"/><path fill="none" d="M278.3 257.4s2 1.3 2 2.3c0 1-1.1 2.4-1.1 2.4"/></g><path fill="#0a1a1d" stroke-width=".26" d="m273 236.2-.1-.6-.2-.3s1 0 .9.3c0 .3-.3.3-.4.4l-.1.2z"/><path fill="#0a1a1d" stroke-width=".05" d="M277 234.8v-.4s.8 0 1.1.3c.6.4 1 1 1 1-.2.1-.6-.2-1-.3h-.4c-.2 0-.3-.1-.3-.2v-.3h-.3z"/><path fill="#0a1a1d" stroke-width=".26" d="m273 240.1.4-.5.3.5h-.6m.8 0 .4-.5.4.5h-.8m-.4-3.3.8.3-.7.4v-.7m1 .3.6.2-.5.4-.2-.6"/><path fill="#f42a41" stroke-width=".39" d="M261.9 236s.5.4.8.5h.9v-.9c-.1-1.2-1.2-1.4-1.2-1.4s.3.7.1 1c-.2.5-.6.9-.6.9zm-2.3 1.1s-.4-.7-1.3-.6c-1 0-1.5.8-1.5.8s1 0 1.2 0c.4.3.5 1 .5 1l.7-.6.4-.6zm-1.1 3.2s-.8 0-1.2.5c-.4.5-.4 1.4-.4 1.4s.5-.5 1-.5l1.1.2-.2-.8-.3-.8zm2.6 10s-.5-.4-1.2-.3c-.7.2-1.2 1-1.2 1s.6-.1 1 0c.3 0 .6.4.6.4l.4-.5.4-.5zm-.9 3s-.6 0-1.2.4c-.5.4-.5 1.2-.5 1.2s.5-.4.9-.3l.9.2v-.6c.2-.4 0-.9 0-.9zm1.5 2.8s0 .8.3 1.3c.4.5 1.1.5 1.1.5l-.3-.8c0-.4.4-.7.4-.7s-.4-.4-.8-.4h-.7zm7.3 7s-.5-.6-1.2-.6-1.5.7-1.5.7 1 0 1.1.2l.5.7.6-.4.5-.6zm-2.2 2.8s-.9-.1-1.4.4c-.4.5-.4 1.3-.4 1.3s.6-.6 1-.5l1.2.3-.2-.8-.2-.7zm2 3s-.4.6 0 1.2 1 .7 1 .7-.3-.4-.2-.8c.1-.3.7-.8.7-.8l-1.5-.3zm12.4 1.2s-.8-.2-1.2 0c-.5.3-.9 1.5-.9 1.5s.8-.6 1.3-.6l1 .3v-.7l-.2-.5zm.4 3s-.6.6-.4 1.2l.7 1s0-.7.2-1c.4-.3 1-.3 1-.3l-.7-.5-.8-.4zm3.1 1s-.3.7.3 1.2 1.1.6 1.1.6-.4-.8-.3-1.2c.2-.5.6-.8.6-.8l-.9-.2-.8.3z"/><g fill="#fcd80e" stroke-width=".26"><path d="M282.9 232.7h-.3l-.3.4c-.2.2-.6.3-.8 0a.5.5 0 0 1-.2-.4h-.5c-.2-.1-.3-.5-.1-.8v-.5l-.3.1v.2c-.3.3-.6.3-.8.2a.5.5 0 0 1-.1-.3l-.2.1c-.5.2-.7-1-.8-1.3l-.1.2s.1.7 0 1.3l-.2 1.2c.7.2 1.8.8 3 1.7s2 1.7 2.3 2.4l1.2-.5c.6-.2 1.3-.2 1.3-.2l.2-.2c-.3 0-1.5 0-1.5-.5v-.1a.7.7 0 0 1-.2-.1c-.2-.1-.2-.4 0-.7l.2-.1v-.4h-.4l-.1.2c-.3.2-.7.3-.9 0a.4.4 0 0 1 0-.4.6.6 0 0 1-.5 0c-.3-.2-.4-.6-.2-.9l.4-.3-.1-.3z"/><path fill="#0a1a1d" stroke-width=".05" d="M280.6 233.4h.3v.2h-.2s-.1-.1 0-.2zm1 .8-.4-.3v-.1h.2l.3.2.3.3c.1 0 .1.1 0 .1l-.4-.2m-1.8-1.2-.2-.1s-.1-.2 0-.2l.3.1.3.2v.1h-.1l-.3-.1m-1-.7h.2c.1 0 .1.1 0 .2h-.1l-.1-.2zm3.8 2.6v-.2h-.3l.1.2h.2zm.6.7.2.2h.2v-.1l-.2-.2-.2-.3h-.2v.2l.2.2m1 .8-.1-.2h-.2v.2h.2z"/><use xlink:href="#f"/><use xlink:href="#f"/><path d="M279.8 230.8v.6l.9.1h.2v-.2l-.6-.7-.5.2"/><path d="m281.7 232-.5.2-.5-.7v-.2h1.1l-.1.6"/><path d="M280.5 231.3c0-.2.3-.2.4-.1.1 0 .2.2.1.3s-.3.2-.4.1a.3.3 0 0 1 0-.3zm-2.1-1-.3-.7c0-.2-.4-.4-.4-.4s.4-.2.9.1c.4.3 0 .9 0 .9l-.2.1z"/><path d="m279.4 230.7-.4.3-.7-.6v-.2h1v.5"/><path d="M278.2 230.3c0-.2.2-.2.3-.2.1 0 .2.2.1.3l-.3.2v-.3zm5.5 1.5h-.6l-.3.8v.1h.2l.9-.4-.2-.5"/><path d="M282 232v.6l.8.2h.2v-.2l-.5-.8-.5.2"/><path d="m283.7 233.4-.5.2-.4-.8v-.2h.1l1 .2-.2.6"/><path d="M282.6 232.5h.4c.2 0 .2.3.1.4s-.3.1-.4 0a.3.3 0 0 1 0-.4zm3 1.1.1.6-.8.3h-.2v-.2l.4-.8.5.1"/><path d="m285.5 235.2-.6.1-.3-.8v-.2h.2l.9.4-.2.5"/><path d="m284 233.7-.2.5.8.3h.2v-.1l-.3-.9-.5.2"/><path d="M285 234.6v-.4a.3.3 0 0 0-.5 0c0 .1-.1.3 0 .4.1.1.3.1.4 0zm1.3 1.8.8.1c.2 0 .5.3.5.3s.1-.4-.3-.8c-.4-.3-.9.2-.9.2l-.1.2z"/><path d="m285.8 235.5-.3.5.7.5h.1l.1-.1v-.9h-.7"/><path d="M286.4 236.5c.1 0 .2-.2.1-.3h-.3l-.2.3c0 .1.2.1.4 0z"/></g><g stroke-width=".61"><ellipse cx="250.43" cy="281.01" fill="#c40f38" rx="16.26" ry="18.3"/><ellipse cx="250.44" cy="280.97" fill="#0859b9" rx="11.44" ry="13.42"/><g id="g" fill="#fcd80e" stroke-width=".34"><path stroke-linejoin="round" d="M245 271.7s-1.3 1.5-1.3 2.9.6 2.5.6 2.5c-.3-.5-.8-.9-1.5-.9-.8 0-1.5.6-1.5 1.4l.3.8.5 1c.1-.4.5-.6 1-.6s1 .5 1 1v.3h-1.2v1h1l-.7 1.6 1-.4.8 1 .9-1 1 .4-.8-1.6h1.1v-1H246v-.3c0-.5.5-1 1-1s.9.2 1 .6l.5-1 .3-.8c0-.8-.7-1.4-1.5-1.4-.7 0-1.2.4-1.4 1 0 0 .5-1.2.5-2.6 0-1.4-1.4-2.9-1.4-2.9z"/><path d="M242.9 281.1h4.3v-1H243v1z"/></g><use xlink:href="#g" x="10.63"/><use xlink:href="#g" x="5.31" y="9.14"/></g></g></g></svg>