<svg xmlns="http://www.w3.org/2000/svg" width="1200" height="720" fill="#fcd80e"><path fill="#e30631" d="M0 0h1200v720H0Z"/><path d="M0 0h1200v480H0Z"/><path fill="#0f7d3a" d="M0 0h1200v240H0Z"/><circle cx="600" cy="360" r="220" fill="#0859b9"/><path d="m650 297-6-5 56-77 6 5Zm-73 23 5-14h42l-32-98 8-24 40 122h93l-20 14Zm189 98-90-30 2-7 90 30Zm-73 52-20-15-42-129h15l13 40 83-60h25l-103 75ZM550 297l-56-77 6-5 56 77Zm5 73-12-9 13-41H453l-20-14h127l29-89 8 23Zm148 132-103-75-75 55 8-24 109-79 5 14-35 25 84 61Zm-206 0 39-121-76-55h25l110 80-12 9-34-25-32 98Zm99 34v-95h8v95ZM434 418l-2-7 90-30 2 7Z"/></svg>