<svg xmlns="http://www.w3.org/2000/svg" width="1200" height="720"><path fill="#62c1f2" d="M0 0h1200v720H0Z"/><path fill="#0a1a1d" d="M1035 427c0 62-82 101-135 121-53-20-135-59-135-121V200h270Z"/><path fill="#012778" d="M0 0h600v360H0Z"/><path fill="#faf6f5" d="M0 360h62l188-117v117h100V243l183 117h67v-34l-154-96h154V130H446l154-96V0h-62L350 117V0H250v117L67 0H0v34l154 96H0v100h154L0 326Zm900 183c51-19 131-56 131-116V204H769v223c0 60 80 97 131 116Z"/><path fill="#c40f38" d="M270 360h60V210h270v-60H330V0h-60v150H0v60h270ZM0 360h38l212-130h-38Zm174-230h38L0 0v22Zm426 230v-22L426 230h-38ZM350 130h38L600 0h-38Zm550 413 18-7V424h113v-36H918v-96h113v-88H769v88h113v96H769v36h113v112Z"/><g stroke="#0a1a1d"><g fill="#faf6f5" stroke-width=".8"><ellipse cx="788.05" cy="254.86" rx="14.99" ry="12.06"/><ellipse cx="788.05" cy="248.6" rx="13.33" ry="6.74"/><ellipse cx="788.05" cy="262.07" rx="13.33" ry="6.74"/><ellipse cx="788.05" cy="254.86" rx="13.33" ry="6.74"/></g><path fill="#fcd80e" stroke-miterlimit="3" stroke-width="1.2" d="M875.8 244c-9.4-1.3-11.9-3.2-12.5-5.2l1.5.2c.5-2.8-2.3-8.5-2.3-8.5l.8-1.3c6.4-5.1 11-6.3 11-6.3-4.3-5.2-10.8-2.2-10.8-2.2.1-6.3-2.5-13.6-2.5-13.6-9.1 1-14.3 8.2-14.3 8.2-.3-6.4-7-9.6-7-9.6 1.2 5-.7 12.4-.7 12.4l-2 2.7s-2.2 0-5.9 8c0 0-.4 2-1.8 3.7v-.7s-4 3.4-12.5-1.4c0 0-11.7-7-15.8-6.7s-6.8 2.2-6.5 3.4c0 0-9.3-.8-12.5 4.6 0 0-7 2.5-1 8.3a9 9 0 0 0 2.5 3.8s-.3-5.2 1-3.7c0 0 .4.5 1 .9.2.7.7 2.8 2 3.8l.9-.3c.1-1.3.4-3 .7-3.6h.3l-.1.1 1.6 2.6 2-1c.8-.2 2 .7 2 .7l2.2-1.8c2 .3 2.7-3.8 2.7-3.8 1.9.5 3.7 0 5.2-1 1 3.4 8.6 7.1 8.6 7.1h.3l-1 .7c3.5 2.4 9.5 4.4 9.5 4.4-3 1-1.9 3.5-1.9 3.5a2.8 2.8 0 0 0-1.7 2.2c5.3 2.2 8.9.4 8.9.4.3 1.7-.1 2-.1 2-2.2 4.4-3 8.8-3 8.8l-.1.4s-9.2 3.2-13.3 7.7c0 0-.4-1.3-1.6-1.3s-4.7-2.9-6.4-3.4-4 .5-4.7-.3c-.6-.7-.3-6-1.4-6.8l-1.2-3.2c-.7 1.7-4 1.3-4 1.3l-1.3 1-1.3-.2c-.4 0-.7 1-1 1.9l-.3.3v-1c-.7.6-2-.2-2.4-.2-.3 0-.6.7-.9 1.5l-3 .3c-.5.3-.1 4.2-.1 4.2-3.7 2-2 5.2-2 5.2 2.1 10 19.1 5.5 20.4 6.8s4.3 1.5 5.8 1.5 3.4 3.7 5.6 4 0-2.9 10.1-5.3 13.5-6.5 13.5-6.5c3.1-.6 4-4.5 4.3-6 0 .7 0 1.5.2 2.4.5 3.5-2 4.7-2 4.7l8.8-2.6c3.5-1 3-4 3-4 3.3 9.6 9.4 10.2 9.4 10.2 1.2-3.6 1-4.7 1-4.7l2.8-.2c0-2-1.7-3.5-2.8-4.2l4.3 2.6 1.6-.3c0 1.5 2.3 2.9 2.3 2.9l.3-2c2 2.6 5.6 1.7 5.6 1.7l-.3-1.5c7.7 4.8 20-1.3 20-1.3 3.4.8 3.9-1.2 3.9-1.2 3.8.5 4.6-2.1 4.6-2.1 9-.8 15.2-7.1 15.2-7.1 4.3-.3 4.5-3.4 4.5-3.4s4.4.8 8.6-4.4c9.8-14.1 24.5-6.8 24.5-6.8l-8.5.6c-22.2-.2-13 15-13 15l1.4-.2c2.1.4 9.4 6.2 6.7 10.4l-.2.2c-4.5 6.2-12.9.3-15.3-4.9-2.4-5.3-7.2-4-7.2-4s-12.6 2-7.4 12h.2c0 2.5 1.6 5.2 6 8 2.6 3.5 10.8 4 16.9 2.6 2.8-.6 17.7-7 17.7-7 1.1-3.3 4.8-2.5 8.1-7.2s-4.6-6.4-6.5-9c-1.8-2.5.5-2 .5-2 7.3 3.9 7.9-8.7 7.9-8.7.7 7.3 7 9.3 7 9.3 4-4 1.1-12 1.1-12 9.4 16.8 15 14.1 15 14.1-5-3.1-2.4-7.3-2.4-7.3 4.5 17.8 23 2.3 23 2.3-.8 2.6 0 4 1.7 5.7s3.7 2.4 2.8 5.5c-1 3-9.6 2.4-9.6 2.4s-8.4-.5-7.7 6.6c.5 1.7 6 2.3 8.2 1.8 0 0-.9.2 2.3.7h3.6c3.6 0 7.4-.7 7.4-.7 4.8-1 4-2.7 4-2.7 7.5-1.3 8.2-6.3 8.2-6.3l-2.1-6s-6-2.5-6.5-5.7c-1-8.4-4-11.6-8.6-12.8-4.5-1.2-7.5.7-7.5.7-1.4 2-8.2 2-12 2.2-3.8.1-3.8-1.7-3.8-1.7-3 0-4.2-2.1-4.2-2.1-2-3.9-3.3-5.3-4.3-5.8 5 0 8.6-2.2 14.1-8 6-6.3 10.4-3.9 10.4-3.9-3 6 1 5.4 1 5.4 8-4 1-14.3-1.4-13.9s-3-1.2-3-1.2c0 1.9-2.8 2.6-2.8 2.6 2.1-11.7-5-14.8-5-14.8-1 1-1.6 3.1-1.6 3.1-2 7.1-8.4 6-15.7 2.6-7.2-3.5-25.7 3.6-31.4 6-5.8 2.5-16.3 6.3-25.9.7s-11.8-4.6-15.6-3.5-10.3 2.7-12.8 1.4-5.3-1.5-5.3-1.5c.7-.4-.3-2-.3-2-3-4.1.3-6.6.3-6.6s-5.3 1.6-3.2 11.2l1 1.4s.7 3 2.3 4v.6s1.3-.6 1.7 1.3c.5 2 2.5.2 3.3-1.5 0 0-1.4 8.8 9 10.9 0 0-1.2-1.4-.7-2.3s-1.3-1.6-1.2-3-2.6-2-.4-3 3.2-3.2 7.8-.3 8.2 2.3 8.2 2.3-2.8-6.1-1.3-6.1 8.6 9 12 8.6 10-4.5 13.4-3c0 0 .3-1.8 13-4s28.7-9 34.9-3.2c0 0 .7 4.6 3.3 5.8 0 0-.5 9.6-17 4.3l-6-1.6s-.8-2.9-32.1 5.2c0 0-1.9.6-3 1.5-1.3 1-3-.4-9.2 1.8s-29.3 9.9-43.5 7.1l.8-.7Z"/></g><path d="M836.2 235.2c-.5 0-.4.7 0 .7s.4-.7 0-.7Zm-.5-1.8c-.4 0-.4.7 0 .7.5 0 .5-.7 0-.7Zm2 3.2h-.1Zm-2.8 0c-.4 0-.4.6 0 .6.5 0 .4-.7 0-.6Zm-.7-1.9c-.4 0-.4.7 0 .6.5 0 .5-.6 0-.6Zm-37.6 27.6c-1.4.1-6.5 1.3-5.3 4.2l.4 1c1 2.6 2 5.3 3 6l.3-.5c-1-.5-2-3.2-2.8-5.6-.3-.7-.9-1.8-.3-2.5.8-1.4 3.6-2 4.8-2 .7-.2 1 2.5 1 4h.6c-.2-2.3-.4-4.7-1.7-4.6Z"/><path d="M788.2 266.3c-.2-1.4 1.3-1.7 3-1.2l.1-.4c-1.4-.5-2.5-.4-3 .2-.2 0-.3.2-.4.4-.8-.3-1.5-.3-2.1 0-1.2 1-1.3 3.1-1.3 3.7l-.6.3c-1 .1-2.2-.9-2.2-.9-1.5.7-2.3 1.6-2.6 2.6l.5.2c.2-1 1-1.7 2-2.4-.2 0 1.2 1.1 2.4 1l.7-.4c.3.3 2.3 2 2.3 4.4 0 .5 0 1-.3 1.5l.5.2c1.3-3.2-1.7-6-2.2-6.5 0-1 .5-4.3 2.7-3.2 0 .5.1 7 3.4 8.5l.2-.4c-2.8-1.2-3-7.5-3-7.6Zm-6-26.7c.7 0 1.4.3 2.1 1.2l.4-.3s-2-2.9-1.2-4.9c.3-1 1.2-1.5 2.6-1.8l-.1-.5c-1.6.3-2.6 1-3 2.1-.5 1.3 0 3 .5 4-1-.7-2.3-.1-2.6.7l.2.5s.4-.9 1.2-1Zm17.6-1.6h-.3c0 .2-.3 2.8-1.6 3.7-.3.2-.7.2-1.1 0l-2.1-1.2c-.4-.4-.8-.7-1.4-.5-1.3-1.7-.3-4.3 2-5.7l-.3-.4c-1.7 1.2-2.6 2.5-2.7 3.9-.1.7 0 1.5.4 2.1l-.5-.3c-.5 0-1 .4-1.4.8-.5.4-1 .9-1.5.8-1.2-.3-2.4-2.8-1.9-4.1.6-2.4 3.5-4.1 3.5-4.2l-.3-.4s-3 1.9-3.7 4.5c-.7 2.4 1.9 6.5 4.2 3.8.4-.4.8-.7 1-.7l.5.3.3-.2.2.4c.5-.3.8-.3 1.2.2l2.3 1.4c2.2 1 3.3-2.7 3.3-3.7 5.4 1.2 9.7-5.4 10-5.6l-.5-.3s-4.4 6.7-9.6 5.4Zm90.7 15.9c-3-2.8-10.2-6-13.2-7.2 0 0-.9-.4-1.6.3 2.9 1.2 9.2 3.8 13.4 7-1 .9-5.7 4.4-13.9 2.4-1-.7-5.6-5-10.4-5.8l-.2 1c4.6.8 9.8 5.3 10.1 5.6.4.4 5.4 6.2 6.5 9.8-1.9 0-9 0-11.6-2.2 0 0-3.8-2.2-4-5.5l-1 .1c.3 3.5 3.9 5.7 4.5 6.1.4.7 3.4 5.2 4.1 8.9-1 .1-3.3.2-4.7-1.6l-.6-.8-.3 2.2c-1-.6-1.7-1.5-1.5-2.6l-2 .4-4.8-2.9c-.4-.5-3.9-5.2-3.9-8.9h-.9c0 4.2 4 9.3 4.1 9.5 1.3 1 3 1.9 3.4 4l-2.7.2c0 1.2 0 1.3-1 4.5-1.2-.3-5.8-1.9-8.6-9.7l-.8.2c0 1 0 2.7-2.7 3.4l-7.1 2.2c1.4-1.5.6-5 .6-6.8 0-1.6.4-2.6 1.5-3.3 1.8-.6 1.7-2.2.8-4.1l-.8.4c.8 1.7.8 2.6-.2 2.9-.3 0-10.6 4.2-16 2.5.3-1 1.2-4.6 3-8.3.2-.3.4-.9.2-2.3l-.1-.6-.6.3s-3.3 1.5-8.1-.3c0-.4.6-1.3 1.6-1.6v-.3c0-1.5-.7-2.1 1.6-3l-.2-1c-.1 0-5.2-2-8.6-4 .9-.6 3.2-2.2 5.6-2.4 0-1-1.5 0-1.2-.4-2.8.7-5.5 2.5-5.6 2.6l-.4.3c2.6 2.1 6.2 5 8.7 5-1.5 1.6-.8 1.3-.8 2.7-1 .5-1.6 1.4-1.7 2.4v.3l.3.2a12 12 0 0 0 8.6.5v1a45.2 45.2 0 0 0-3.2 9.1v.4c4.2 2 12-.4 15.4-1.7-.4.8-.7 1.7-.7 2.7.2 3 1 5.9-1.4 7.3l.3.8 8.7-2.6c2-.5 2.8-1.7 3.2-2.7 3.4 8.1 8.8 8.9 9 9h.4l.1-.4a18 18 0 0 0 1.1-4.4l2.7-.2c.1-.8 0-1.8-.5-2.5l1.5 1 1.5-.3c.6 1.9 2 2.5 2.9 3l.3-1.9c2.1 2 5.2 1.4 5.3 1.4l.4-.1c-.3-3-2.4-6.8-3.6-8.8 4.2 1.9 10.9 1.6 11.7 1.6-.5-3.3-4.5-8.3-6.3-10.5 9.5 1.7 13.9-3 14.4-3.5ZM845.7 239c-.4 0-.3.7 0 .7.5 0 .5-.7 0-.7Zm73 36.4c-2 2.7-2.7 5-2.2 6.9-7.7-5.2-4.3-11.3-.3-14.3l-.5-.7c-5.3 4-7.7 11.1 1.7 16.6l.4-.7c-1.1-1.8-.6-4.2 1.6-7.2l-.8-.6Zm82.6-.3-.2-.8c-4.2.6-5.4 4.6-4.9 7l.9-.2c-.4-2 .5-5.5 4.2-6Zm-162.5-49.4s4.7 1.5 1.8 7c0 0 1.7-1.8 1.3-4.3-.4-2.5-2.5-4-3.1-2.7Zm175.6 54.5c-5 .8-12.5 1.3-13-.2-.1-.3-.2-1.4 4-4.1l-.5-.7c-12.7 8.3 5 6.8 9.7 5.9l-.2-.9Z"/><path d="m821.5 242.3-.1-3c1.5.6 3.3.7 5.4.5-1.1 1.2-4.8 5.9-4.3 9.8.4.3 5.6 1.6 8-1.3 0 1.2 0 2.5 1.6 4 1.3 1.3 1 3.7.6 5l.6-.4c.2 0 5.6-.2 7.1-4.6 0 0 .8-1 2.2-1.5v.6c0 1.7-.8 1.8 3.8 3.6l.4.1v-.6c0-1.1 2.2-1 3.5-2.2a3.4 3.4 0 0 0 .7-3.9c1 .3 3 2.2 4 4 1.4 2.6 6 .3 7.2-.7l-.1-.5c-1 .2-4.3.3-4.6-2.2l-.2-2.7c0-1.3-.2-2-.9-2.7.7 0 2 0 2.6 1.2 1 1.9 4 2 4.1 2l1 .1-.8-.5s-2.7-1.8-2.2-4c.6-2.8 1.6-6.4 1.4-10.1l.4-1.4 1-1.5-.2-.4c-8-11.5-24.6-11.1-24.7-11.1h-.3l-2.5 3.3a24.8 24.8 0 0 0-5.4 8.2c-1 4.9-6 7.8-12.7 5.1v.6c7.2 2.8 12.3-.6 13.3-5.6 2-4.3 3.8-6.6 5-7.8 1.6.2.9 0 2.3.3-1 .7-2.1 2.3-3.1 3.7a12.6 12.6 0 0 0-2.3 5.7c0 .3 0 .9.2.7-1.8 2.3-2.8 4.8-1.6 7.6 0 0 0 2 .6 3.3 1.8 4.8 3.6 8 10.1 5.6 6.8-2.5 6.5-2.7 8.4-6 1.9-3.2 4.4-1.2 6.1-5.1 1.2-2 2.7-3.7 3.3-6.1l.7.6c.8 3.7-.1 7.5-.6 11 0 1.4 1 2.5 1.7 3.1-1-.2-2.2-.6-2.7-1.6-.7-1.5-2.7-1.6-3.6-1.4l-.7.1.6.4c.9.5.9 1.2 1 2.7.1 1.4 0 4 1.5 4.9.6.4 1.3.4 2 .5-.8 1.2-4 1.8-4.8.4a11.2 11.2 0 0 0-5.5-4.4c.4.6.8 1.4.8 2.1 0 .7-.2 1.4-1 2-1.4 1.6-3.6 1-3.6 2.5-4.4-2-3.3-1.6-3-4l.2-.4-.4.1c-2.2.4-3 2-3 2.1-1.3 3.5-5.4 3.2-6.5 4v-1c0-1-.1-2.3-1-3.2-1.6-1.6-1.5-4.1-1.5-4.2v-1l-.5.9c-2 3.3-7.6 1.7-7.6 1.7-.1-4.8 4.8-9.7 5.3-10.2-4.2.7-9-.2-10.5-4 0 1 .9 2.5 1.9 3.3l.8.5.2 2.8c-.9 0-2.5.5-2.6.5 1.5.4 2.9.7 3.6 0Zm36.1-6.7-1 1.7c-1.4 3.1-3.3 2-5.3 4 .2-3-1.5-3.6-2-4l-.4.5c.3.1 3.4 2 1.2 5.2-1.4 2.5-1.6 2.9-7.7 5.1-6 2.2-7.3-.7-9.1-4.6-.3-.8-1-2.3-.8-2.8l2 3.9.1.4c.3.4.4.8.5 1.1.6 1.7 4.4 3 5.9 1.6l1.5-1.4c1.4-1.2 2.6-1.3 4.2-1 .7 0 .5-.7.5-.7-2.4-.1-4.4-.2-6.2-1-1.3-.6-1.2-2.8-1.6-3 2.5 1 4.5.1 3.4-2.8-.2 1.3-.2 3.3-2.7 2.5-.7-.2-1.6-.5-2.1-1 .9.3 2.2.2 2.2.2-2.3-.4-2.7-2.1-1.5-3.5 0 0-1.7.8-2 2-.3 1 .9 1.9 2 2.4-3.5 1-6 0-6.8-2.8 0-2.4 1.5-6.9 4.8-5.8l.2-.5c-1.3-.4-1.6-.4-2.6.1l-.4.1c-.2-.9.6-3.1 2.1-5.5 1.1-1.6 2.8-4.1 3.6-4a40.6 40.6 0 0 1 20.2 9c-.3 1.7-1.3 3.3-2.2 4.5Zm-23 8c-1.7-2.8-1.3-2.9.6-2.1l-.5 1.7.2.4c1.3-.8 2.8-2.3 2.8-2.3l1.1-.4c0 .7.4 1.6 1.2 2.7-.2 3.1-.1 3 .4 3 0 0 1.4-2 1.6-2 .3.1 1.6-.1.9.4l-2.3 2.3c-1 .7-2.1.5-2.7.3-2.2-.7-2.2-1.8-3-3.4l-.3-.5Zm5.9.4.9.3-1 1.4V244Zm-5.2-1.2.5-1 .8-.2-1.3 1.2ZM861 231c-5.6-5.4-11.3-8.5-23.5-10.1l1.6-2.2c2 0 15.7.3 23.4 10.5l-1.5 1.8Z"/><path d="M849.6 232.3c1.5-1 2.5-.7 4.4.4 1.7 1 2.2.7 3.1.5l.2-.1c-1.4 0-2.7-.4-4-1.4-1.2-1-3-1.4-4.2.4l-.8 1.2s.5-.1 1.3-1Z"/><path d="M846.5 236.1a4 4 0 0 0 .5-1.8c.2.1.6.3 1 0 0 0 .8 1.6 2 1.8.5.2 1.2-.2 1.8-.5.6-.5 1.4-.9 2.1-.4 0 0 1 .3.1-.4-.7-.4-1.4 0-2.3.4l-1.1-.1.4-.1c.7-.1.8-1 .2-1.4-.5-.4-1.5 0-1.4.8l.2.4c-.5-.3-1-.8-1.1-1 1.2-.8 2.5-1 3-.7.8.6 3 1.4 4 .9l.6-.3c-2.1.8-4-2-6-1.3-.6.2-1.2.5-1.8 1a4 4 0 0 1-1.7.7v-.8l-.3-.9s-1.2.8-.6 1.8-.7 3.8-.7 3.8l1.1-1.9Zm2.3-2.3c.1.4.6 1.6 2 1.8h-.2c-1.1.5-2-1-2.4-1.4l.6-.4Zm-2.6 7c-.5 0-.4.6 0 .6s.4-.7 0-.7Zm-6.3-13.4c-1.5-1.7-3-.9-3-.9s-.4.5 0 .7c0 0 2.7-.6 3.5 2-.4-.8-1.8-.6-1.4.5.2.4.2.4 0 0-.6-.8 0-2 0-2l-.6-.2c-.5 1-.5 3.4 1.9 3.6v-.5c-.2 0-1-.3-.5-.3.4 0 .7-.5.6-.9.1.6.2 1.3 0 2.2-2.1-.8-3.5-2.3-2.2-4l-.4-.3c-1.4 1.6 0 3.8 2.6 4.8v-.3.3s1-3-.5-4.7Zm4.4 13.4c.4 0 .4-.6 0-.6-.5 0-.4.7 0 .7Zm.7 2c.4-.1.4-.8 0-.7-.5 0-.5.6 0 .6Z"/><g fill="#faf6f5" stroke="#0a1a1d" stroke-miterlimit="3"><g stroke-width=".36"><path d="M781 240s.3 2.7 2.5 4.4c0 0-.3-3 .4-4.4 0 0-1.2-1.2-2.9 0Zm4.4 1.7s.5 2.6 2 3.7l1-.2s.3-3.2.8-3.6-2.1 1.1-3.8.1Z"/><path d="m789.2 241.6 1.7 2.5 2-1-.5-3s-1.1-.3-3.2 1.5Zm7.8.5-2.1 1.8s-1.2-1-2-.8l.3-2.8s1.5-1.2 3.8 1.8Zm-15.5 26.5s-.3-4 .2-4.2c0 0 1.5.5 2.2-.2 0 0 .9 3.3.6 4.5s-1.8.8-3-.1Zm10-4.1s-.2-3.3.4-3.7c0 0 3.2.4 4-1.3l1.1 3.2s-3.5-.4-5.6 1.8Z"/></g><path stroke-width=".35" d="M788 265.1s.6-3.4 1.3-3.5c0 0 1.6.5 2.1-.2l-.1 4.3s.1-1.8-3.3-.5Zm-3.7.6s.7-3.1 1.2-3.1 1.8.8 2.5.2v2.4s-2.9-.7-3.2 3.2l-.6-2.7Z"/></g><g stroke="#0a1a1d" stroke-miterlimit="4.8" stroke-width=".78"><path fill="#24a34e" d="M834.2 329.4s8.7 8.1 6.4 15.2c0 0 5.6-12-.4-15.6-6-3.5-6.2-.8-6 .4Z"/><path fill="#961538" d="M823.2 337.3s-2.3 3.1.2 5.4c0 0-2.7 4-.6 7.2 0 0-1.7 3.6-1.3 7.3 0 0-1.4 5.8 1.7 8.5 0 0 3.3 1.7 4.8.2 0 0 2.9-4.3 1-9 0 0 2-3.6-.2-8.4 0 0 .6-2.7-1.3-5.8 0 0 1.3-2 .2-3.7 0 0-4.1-4.4-4.5-1.7Z"/><path fill="#24a34e" d="M825.7 327.1s-10.4-19.9-17.7-20.7-7.6-7.9-7.6-7.9.8 3.3 6.6 3.3 17 8.1 18.2 14.3c1.3 6.3 2.5 5.4 2.5 5.4l-2 5.6Z"/><path fill="#24a34e" d="M825.7 325.7s3.7-25.1 20-25.5c16.4-.4 11 1.2 15-1.5 0 0-11 5.8-17.8 6.7-6.9.8-12.5 14-12.3 16.6.2 2.4-3.7 7.2-5.6 5.6s.7-2 .7-2Z"/><path fill="#24a34e" d="M829.4 335s3.7-10 10.2-6.6c0 0-5-9.5-14-1.3 0 0 4 5.4 3.8 8ZM817 325s5.3 22.2-3 29c0 0 .3-11.3-4.7-18.2s5-14.3 7.7-10.8Z"/><path fill="#24a34e" d="M817.6 329s9.7 9.3 10.4 12.4 2.9-9.3-1.7-12.8a21.7 21.7 0 0 0-9.5-4.2l.8 4.6Z"/><path fill="#961538" d="M799.6 353.5s.9 3.9 3.3 4.6c0 0 .1 3 2.3 3.8 0 0-1.2 2.4.7 4 0 0-.4 4.7 1.4 5.8 0 0 4.3-.3 5.8-1.6 0 0 1-3.1-1.5-6.3 0 0 .4-3-2-4.6 0 0 .7-4.1-2.3-5.6 0 0-.5-3.3-2.4-5 0 0-3.7 5.2-5.3 4.9Z"/><path fill="#24a34e" d="M804.4 348.6s-12.8-4.6-19.8 2c0 0 10.8 1.6 12.2 3.7s8.1-3.5 7.6-5.7Z"/><path fill="#24a34e" d="m800.5 356.6-2.3-1.8c-1.3-.9-12-3.7-13.5 6.6 0 0-4-10.2 1.8-11.6s10.2 1.9 14 6.8m-8.4-21.2s4 8.5 5.4 9c1.4.4 2.5-1.1 2.5-1.1s-5.2-7.7-8-7.9Zm-3-13s-3.2-11-7.2-8.1S779 325 779 325s-7.8-8.1-3.3-14.6c4.6-6.4 13.5.7 13.5 11.9Z"/><path fill="#961538" d="M798.1 345s0 2 1.5 2.7 4.1 1.6 4.1.4-2-6-2.9-5.4-2.3.6-2.7 2.3Z"/><path fill="#24a34e" d="M795.6 332.1s-.4-9.5 5.8-13c0 0 1.3.2 1.9-1.7 0 0-5 12-3.5 18l-.2.9"/><path fill="#24a34e" d="M796.9 320.5s11.2-23.2 24.8-15.1c0 0-14.3 2.9-19.5 13l-5.1 7.7-.3-5.6Z"/><path fill="#24a34e" d="M790.9 329s-3.4-15.6-5.4-17.6-5.6-4.4-9.8-.8c0 0 7.3-6.5 15-1s6 13.8 6 13.8l-.9 10.8-5.2-4.8"/><path fill="#24a34e" d="M802.9 347.4s-13.7-25.9-22.6-7.4c0 0-1.7 4.8.2 6.6 0 0-5-3.7-2.7-12.8s17.4-5 21.8 2.5c4.3 7.4 5.5 11.2 5 11.6-.7.4-1.7-.4-1.7-.4Zm38.5 7.5s10-20.5 15.8-11.2c0 0 1.7 4.6-.8 6.5 0 0-4-4.8-7.5 1s-2 5.4-2 5.4-3.8 1-5.5-1.7Z"/><path fill="#24a34e" d="M856.4 350.1s5.3 3 3.5 8.7c0 0 7.2-13.8-2.7-15 0 0 1.8 4.3-.9 6.3Zm.6-14s13 3.7 13.5 9.3c0 0 2.2-10.8-5.2-14.1 0 0-9 1.4-8.3 4.8Z"/><path fill="#24a34e" d="M862.8 318.8c5.6-11 12.6 3.6 12.6 3.6s2.5-11.4-4.5-13.5c-7-2-11.6 24.2-11.6 24.2L851 335s2.3-23 14.7-25l1.4.1"/><path fill="#24a34e" d="M852.8 325.5s-7.8-16.2-13.2-17.9 2.9-4.1 6.2-1 9.5 7 8.9 15.3l-1.9 3.6Zm-8 22.2s2.2-11 8.5-14.3 12-2.1 12-2.1-7.5 1.7-8.7 5.4c-1.3 3.7-3.4 4-3.4 4l-8.5 7Z"/><path fill="#961538" d="M841.4 355s-3.5 6.6-2.7 7.6c0 0-3.7 5.4-2.2 8 0 0 3.7 3 5.4 1.7 0 0 4.3-6 3-9.3 0 0 3-4 2-6.4 0 0-4.4.2-5.5-1.7Z"/></g><path d="M823.2 343c.2.2 2.3 1.2 3.7.7l1-.8-.7-.4c-.6 1-2.8.2-3.6-.2l-.4.8Zm-.3 6.5-.2.9c.2 0 4.4.8 6.4-1l-.6-.6c-1.7 1.5-5.6.7-5.6.7Zm-1.1 7.3-.5.7s5 3.6 8-.2l-.6-.6c-2.7 3.2-6.7.3-7 .1Zm-19 1.1.2.5c.2-.1 4.3-1.8 4.6-4.8h-.5c-.3 2.7-4.3 4.3-4.3 4.3Zm2.3 3.8v.5c.2 0 4-.3 4.7-3l-.5-.1c-.5 2.3-4.1 2.6-4.2 2.6Zm.8 3.9v.5c.2 0 4.5.2 6-2.1l-.5-.3c-1.3 2.1-5.4 2-5.5 1.9Zm32.5-2.7c0 .1 2 2 4 1.8 1.2 0 2-.5 2.9-1.4l-.7-.6a3 3 0 0 1-2.1 1.2c-1.8 0-3.4-1.6-3.5-1.6l-.6.6Z"/><g fill="#961538" stroke="#0a1a1d" stroke-miterlimit="4.8" stroke-width=".42"><path d="M967.2 378a2 2 0 0 0-.7.5l.7-.4Zm15.2-3.8c-.1-.3-.2-.2-.4-.3-.3-.3-.5-1-.7-1.3-.2-.2-.3 0-.5 0l-1.1-2.4v-.4l-.1-.6c-.1-.2-.3 0-.4-.4v-1l-.2-.8.2-1-.3-.6-.5-2 .2-1.6c0-.6-.3-1-.3-1.6l.2-1.5V349.8c-.2-.5-.1-1-.2-1.7l-.2-.6.2-.8a2 2 0 0 0 0-.9l-.2-1v4.2l-.3-7-5.6-2.6s-.4 10.2-.3 11.6c.1 1.4.6 11 .3 12.3s-.8 7-.8 7-2.7 2-3.7 4-.9 2.9-1.2 2.9l2.6-.4-2 1.2c.5-.1 1 0 1.3.2l.3.3.4-.3c.4-.1.8.6 1.2.6.2 0 .4-.3.6-.5.2-.2.2-.5.4-.6H973c.5 0 1-.7 1.4-1.1.5-.4.8-.6 1.3-.5.5 0 1 .5 1.5.5.4 0 .6.1 1-.3l.5-1 1.3-.2.8.2h1c.1 0 .4.3.5.2l.2-.5-.1-.7Z"/><path d="M971.3 377.9c.3 0 .6-.1.9.2l.1.2h.3c.2.2.2.3.4.3h.6c.2 0 .4 0 .6.2.4.1.6 0 1-.3.4-.2.5 0 .9.3.3.3.2.3.5.1l.1-.2.4-.2.6-.1.6-.3.6.3.4.2c.3-.6.8-.7 1.2-1 .4-.3.8 0 1.2 0l.5-.1h.5c.2-.1.2-.3.4-.3.4 0 .8.5 1.2.6.2.1 1.2.3 1-.4 0-.7-.7-.2-.8-.7v-1l-.6-.6c-.2 0-.4.2-.6 0l-.3-1c-.2.2-.3.3-.6.3-.3-.1-.2-.2-.4-.5-.5-.5-.8.4-1.2.2-.3 0-.6-.9-.9-1.2 0-.2-.5-.8-.7-.6-.3.2 0 .8-.2 1 0 .3-.5 0-.7.1-.2 0-.3.1-.5.4-.3.6-.5 1.1-1.1 1-.3 0-.5-.3-.7-.2l-.8.5h-.7l-.6-.7a.2.2 0 0 0-.3 0l-.3-.2c-.3-.1-.3-.1-.5.3 0 .3 0 .6-.2.9 0 .2-.3.5-.4.6-.2.3-.4.2-.7.3-.2 0-.5.5-.7 0-.2-.8.6-1.9-.3-1.7-.2 0-.4.2-.4.4-.2.4 0 .6-.1 1-.1.5-1 1.4-.9 1.9.1.3.6-.2.7-.1.2.1.1.4.3.6.3.5 1.1-.7 1.2 0m-3.6-4.5v-.2l-.7-.3c-.2 0-.6.5-.7.7-.4.7-.3 1.7-1 1.7-.2 0-.6-.1-.8 0-.3.2 0 .7 0 1.1l-.1.5-.3.3c-.1.6.4.4.6.4h1.7c.4 0 .6 0 1-.2.1 0 .6 0 .8-.3l.3-.6v-.8c0-.3.4-.2.4-.7.2-1.1-1-.2-.9-1.4"/></g><g stroke="#0a1a1d" stroke-miterlimit="4.8" stroke-width=".78"><path d="M981.6 341.8c0 1.5-1 2.7-2.3 2.7s-2.2-1.2-2.2-2.7 1-2.7 2.2-2.7c1.3 0 2.3 1.2 2.3 2.7Zm-7.4-3.3c0 1.5-1 2.7-2.3 2.7s-2.3-1.2-2.3-2.7 1-2.7 2.3-2.7 2.3 1.2 2.3 2.7Z"/><path d="M978.1 339.5c0 1.5-1 2.7-2.3 2.7s-2.2-1.2-2.2-2.7 1-2.7 2.2-2.7 2.3 1.3 2.3 2.7Z"/><path d="M974.3 342c0 1.5-1 2.7-2.3 2.7s-2.3-1.2-2.3-2.7 1-2.7 2.3-2.7 2.3 1.2 2.3 2.7Z"/><path d="M977.8 344c0 1.6-1 2.8-2.2 2.8s-2.3-1.3-2.3-2.7 1-2.7 2.3-2.7 2.2 1.2 2.2 2.7Z"/></g><path fill="#24a34e" stroke="#0a1a1d" stroke-miterlimit="4.8" stroke-width=".78" d="M979 314.7s23-32.2 47.6 1.2c0 0 .2 3.3-2 6.9l-.7-2.7-1.4.4-.4-1.7-2.7-.2.8-3.5-3 2.3.5-2.5-3.3 3.3.4-7-3.5 6 .4-4.2-1.2 1.9-.8-2.5-1.1 2.5-1.7-1.3v1.7l-2.9-2.5-1 3.3-1.5-3.5-.4 2.5-1.4-3-.2 3.2-4.8-2 1 2.8-2.2-1.6.4 1.6-3.1-.6.2 1.9-3.4-.7.7 1.7-4.6-.6 1.6 1.9-.4.7s25-8.2 26.6 22.9l-4.6 2.3 1.3-2.5-1.3-.8-3.7-3 1-3.9-1.2.4-.2-2.2-.6.4-1.5-2.3-.4.8-1-2.7-1 1.9-.7-4.6-1.7 3-.2-1.7-.6 1-2-2.5-.7 1.7-.8-1.2-.6 1.4-2.3-2v1.6l-1.5-1.3-.6.9-3.5-2-.2 1.8-1.9-1.7-.6 1.7s22.6 12.8 15.5 33.8l-1.2 2.6-.4-7-2.1 3.7 1.4-8-1.4 1.4-.2-3.1-1.9 3-.6-3.4-.8 1-1.3-5.4-1 2.3-1.7-6-1.2 2.5-.8-5.2-.9 3.1-2.5-4.5-.4 1.8-1.4-3.7-.9 1.2s-4.1-.2-5.3-1.2-4.8 6.2-4.8 6.2l.4-4.4-1.4 3v-3l-2.7 8.8-.7-6.3-1.4 5.4-.6-1.6-.4 2.2-.9-.8-.7 2.5-1.3-1v3.3l-1.3-1.7-1 5-.6-2v2.2l-1-1.2-1.1 5-1.5-2.1-.2 3.5.6 2.7-1.6-.8.6 4.3s-6.4-12 1.3-23.6a36.7 36.7 0 0 1 18-14.7l-1-1-.3-1-6.2 3 .2-1.8-1.6 1.4-.4-2-1 1.8-.3-.8-1.4 2.3-.9-3.4-1 4-1-2.8-2.1 5.9v-4.4l-1.7 4.6-.6-5-1.2 5.8V329l-1.9 5.2-1.2-5-.9 4.8-1.2-3.7-1.3 5.6-1.8-5-1 7.5-1.3-3-.2 5.4-1.5-3.3 1.5 7-1.9-2.6.6 4.3-2.6-4.7.2 5.6-1.5-2-.6 2.2s-.6-21.6 14.1-25.8a33.5 33.5 0 0 1 24.3 1.3l-5.6-4.6.6-1.4h-2l.7-1.7-4.3.2 1.2-1.6-3.3.4v-1l-2 1.6.8-1.9-3 1.9-.1-2.8-1.5 2.4-.8-2.5-6.7 6.6 2-6.8-1.3 1.4-.2-1.4-1.9 2.9-.4-2-.9 2.4-.6-2.9-1.4 3-1.5-2.8-.6 3.6-1-2-1.3 2.8-1.6-1.7-.2 1.7-3.4-1.5.9 2.5-2.5-2-.6 3.3-1.5-1.7-1 4.2-1-4-1.1 3.1s13-33.3 45.8-11.6c0 0 3.5 3.5 4.4 6s.2.4.2.4l-.7-23 1.3 10 .8-3.5-.2 5.1 3.3-7.2s-4 12-2.5 16.4c0 0 1.5-14 6.5-15.6l-4.6 10 1.4-.3-1 2.1h1.2l-1.5 3.3-.7 1.7.8 1.7 1.3-1.3Z"/><path d="m975.5 328.2.7.6c0-.1 2.1-2.3 5.6.6l.5-.7c-4-3.5-6.8-.6-6.8-.5Zm-1-11.3-.1.8 1.6-.7-1.1 2 2.4-.9-3 4 .7.4 4.7-6.1-2.9 1 1.3-2.2-2.6 1 .5-3.1-.8-.2-.7 4Zm-4.4.2 1 2.3-1.6-.7 4.8 8.5.6-.8-1 2.5.9.3 2-5.3-.7-.4-1.7 2.1-2.9-5.1 1.4.5-1.3-2.9 1.7 1.1v-3.1h-.8v1.5l-3-1.8.6 1.3Zm-3 10.7.4.8c1.3-.6 2.3-.7 3.2-.3.9.5 1.2 1.4 1.2 1.5l.8-.3s-.4-1.3-1.7-2c-1-.5-2.3-.4-3.9.3Zm3.7 9-.7-4.7.9-.2.7 4.7-.9.1Zm6.4-.8-1.2-3.6.9-.3 1.2 3.6-.9.3Zm2.3 2.6-.8-3.6.8-.2 1 3.6-1 .2Z"/><path fill="#24a34e" stroke="#0a1a1d" stroke-miterlimit="4.8" stroke-width=".78" d="M802.5 445s-3.8-1.8-5.6-.5-1.5 3.2-3 3c0 0 5.8 1.4 7.1-.2l1.6-2m.7 1.3s-2.6 3.4-1.7 5.4 2.8 2.2 2.3 3.7c0 0 2.6-5.5 1.4-7.1l-1.7-2m-4.6-9.5s-4.1 1.3-4.6 3.4c-.4 2.2 1 3.4-.2 4.3 0 0 5.2-2.9 5.2-5l-.2-2.4m2.2 1.1s1.9-3.8.7-5.6c-1.2-1.8-3.1-1.7-3-3.2 0 0-1.5 5.8 0 7.2l2 1.6m-3.7-1.4s0-4.2-1.8-5.3-3.6-.2-4-1.7c0 0 1 6 3 6.6l2.4.6m7.3 7s4.5-1.6 4.9 3.2-.3 3.2-.3 3.2-2.3-5.2-5-6l.4-.5Z"/><path d="m803.2 446.7.5 3.7h.6l-.5-3.7 1.6-8-.7-.1-1.5 8Z"/><path d="m799.1 445.5-.2.6c2.1.7 5.1-1.6 5.3-1.7l-.4-.5s-2.9 2.2-4.7 1.6Zm5.6-4.7-10-5.1.4-.8 10 5-.4.9Z"/><path d="m797.5 439.6-.6-.6 2-2 .6.6-2 2Zm3.5-1-2.1-4.5.8-.4 2 4.6-.7.4Zm3 5.7v.9c2.7-.2 3.4 1.5 3.4 1.6l.9-.2c-.1-.5-1.2-2.5-4.4-2.3Z"/><g fill="#faf6f5" stroke="#0a1a1d" stroke-miterlimit="4.8"><path d="M849.9 446.3c3.3-1.9 4-8.4 4-8.4-.8 2.4-7 4.8-7 4.8 4.6-2.8 10-15.5 10-15.5-1.4 4.6-13.3 8.3-21 12.6s-3.5 16.5-3.5 16.5c-2.2-1.4-6.3-8-7.1-13.7-.8-5.8-3-8-8.3-8.7s-8.3 5.2-8.3 5.2l-7.7 4 7.9.3s5.6 1.8 5.6 6.2-5 22 3.2 32c5.6 6.8 26.6 10.8 26.6 10.8"/><path d="M834.5 460s1.6-8 6.8-7.7 6.7-5.8 9.8-6.8 19-5.2 20.7-12.8c0 0-1.5 12.6-16 18.8 0 0 11.7-3.9 13-6.4 0 0-5.2 11.2-17.8 13 0 0 11.8-1 13.6-4.2 0 0-5.4 7.1-14.2 8 0 0 8.2 3.4 10.3.6 0 0-4.4 5.2-9.9 5.6l1.5.4s-5.2 6.1-11 2c-5.7-4.2-5.9 1-5.9 1"/><path d="M846.4 471.8s6.7 11.2 7.4 17.2c0 0 12.8 14.2 17.6 15 0 0-2.3 1-6.4-2.5 0 0 3.5 3.6 4.1 3.7s-2.8-.3-3.3-1.2c0 0 1.5 2.1 2.4 2.4l-1-.3s-1.7-.2-2.5-1-.3 1.8-.3 1.8-2-.5-2.6-1.2.2 1.5.2 1.5l-1.7-.4-1.2.8s-.1.8-1 .1c-.7-.6-2.2 0-2.2 0s-1 1-1.6.3-2.6 2.6-2.6 2.6l-8.4-20.3"/></g><path d="m854.4 508.6-10.7-20.2 1.1-.6 10.7 20.2-1.1.6Zm9.3-1.3-18.2-20.4 1-.8 18 20.3-.8.9Zm4.1-1.8L847 486l1-.9 20.7 19.4-.9.9Zm-52-65.2s-1.4-2.4-2.5-1.5-1.9 1.1-2.1 1c0 0 1.2.1 1.9-.5s1.8-.3 2.7 1Zm-7.3-1 .7 1.5-.8 2.5.6.2.8-2.7c0-.3-.8-1.9-.8-1.9l-.5.3Z"/><path d="M815.5 440s-1 1.2-2.4.8l-1.4-.3h2c.7.1 1.7-.3 1.8-.5Z"/><path d="M815.1 440.2s-1.2-1.3-2-1c0 0 1.4-.4 2.3.9l-.2.1Z"/><path d="M815 440s-1.5 1-3-.1l-.1-.1h.2s2 .7 2.8.2Z"/><circle cx="813.73" cy="439.73" r=".42"/><path d="M814.9 477s-1.1 2-.5 3.3c.5 1.2 3.1 1.8 3.5 3.4s1.2 1.7 2.4 1.4l1.5-.3s-5.1-2.7-6.5-7l-.4-.8Z"/><g stroke="#0a1a1d" stroke-miterlimit="4.8"><g fill="#961538"><path stroke-width=".48" d="M979.3 436s9.3-12.3 17.5-9c8.2 3.2 13.5 4.7 13.5 4.7s.2 8.2-4.2 8.2-8.5-8.2-12.5-5.7c-4 2.4-7.2 5.7-7.5 6.9s-10.5 1.4-6.8-5.1Z"/><g stroke-width=".78"><path d="M944.1 494.8s-2.5 2.7-1.4 3.4c1.2.6 3.5-.2 3.5-1s-1.5-2.6-2-2.4Z"/><path d="M942.1 497.4s-4.7-2.7-8.5 3.7-6.8 16.8-9 18.2 21.2-10.2 21.5-15.1c0 0 1.5-6.3-1-6.2-2.4.2-2.5.4-3-.6Z"/></g><path stroke-width=".48" d="M942.8 498.2s-5 1.1-6 8c-1 7-7.8 10.6-8.2 10.8m81.7-85.3s-7.4 2.6-6.1 7.7"/></g><path fill="#fcd80e" stroke-width=".48" d="M953.4 446.7s.3-17.5 14.6-16.8c2.7.3 1.4 3.5 1.4 3.5s3.1-2.2 4.5 1.3c0 0 4.6-2 5 2.4 0 0 5-.6 4.4 3.3 0 0 3.3-.7 3.2 2 0 0 3.9-1.5 3.5 2.5 0 0 4.3-2.8 3.6 2.3 0 0 4.4-3 6 2 1.5 5.2-4.4 16.1-10.3 19"/></g><path d="M993.3 447.8c0 .1 2 13.7-5.8 18.7l.3.5c8-5.2 6-19.1 6-19.3h-.5Zm-9.3 14.9.4.4c4.8-4.8 5.9-17.6 6-18.2h-.6c0 .1-1 13.2-5.8 17.8Zm-4.6-3h.5c.6-8 6.8-17 6.9-17l-.4-.4c0 .1-6.3 9.3-7 17.3Zm-3.6-2.4h.5c1-9.5 7.2-16.6 7.3-16.7l-.4-.3s-6.5 7.3-7.4 17Zm-5-3.2h.5a23 23 0 0 1 8-16.8l-.3-.4s-7.7 5.7-8.2 17.2Zm-4.6-2.8h.5c-.4-10.2 7.5-16.4 7.6-16.5l-.3-.3s-8.2 6.3-7.8 16.8Zm-8.3-3.7h.5a16.8 16.8 0 0 1 11.3-14l-.1-.5c-.1 0-10.3 3-11.7 14.5Z"/><path fill="#24a34e" stroke="#0a1a1d" stroke-miterlimit="4.8" stroke-width=".48" d="M945 468s-2.5-16.3 7.2-21.4c0 0 1.8-.4 2.8 2 0 0 5.2-2.3 5.3 2.1 0 0 2.6-2 3.2.8 0 0 5.5-1.2 4.5 3 0 0 4.6-1.4 4.2 2.6 0 0 4.7-1.7 3.9 1.8 0 0 4.9-1.1 3.7 2.8 0 0 6-.6 4.2 3.6 0 0 4.5-1.1 3.5 2.3 0 0 5.9 1 3.2 4.8s-9.5 9.3-16.1 11.8m-35 .2s-4-13.6 3.7-17c0 0 1.4-.4 1.6 1 0 0 1.7-2.2 3-.3 0 0 3.8-1.8 4.7 1 0 0 2.6-2.1 3.9 1 0 0 2.4-1 2.4 1.6 0 0 3.4-1.4 3.4 1.7 0 0 3.2-1.3 2.5 2.2 0 0 4.9.7 3.5 3 0 0 4.4 1.2 2.7 3 0 0 4.7-.5 2.2 2.7 0 0 3.5-1.2 1.5 2.8s-8.5 8.4-13 8.9m-17.3-.8s-8.4-8.2-4.5-10.6c0 0 1.8.5 2.5 2.3 0 0 2-3 3.2.1 0 0 3-1 3 1l2.5 1.8s2.8-.2 2.3 1.6c0 0 3-.4 3 1.3 0 0 2.7 0 2.4 1.9 0 0 4.6.7 2.6 3 0 0-8.1 1.7-13.8-.6 0 0-3-1-3.2-1.8Z"/><path d="m973.4 481.6.2.5c5-2 13.7-13.8 14.1-14.3l-.4-.3c0 .1-9 12.3-13.9 14.1Zm-2.8-2.1.2.4c4.4-2.4 13-14 13.5-14.4l-.4-.3c-.1.1-9 11.9-13.3 14.3Zm-2.5-1 .3.3c4.7-3.8 11.4-16.4 11.7-17l-.5-.2c0 .1-7 13.1-11.5 16.9Zm-2.3-3 .6.1c.8-6.4 9.8-16.4 9.9-16.5l-.4-.4c-.4.5-9.2 10.3-10 16.8Zm-18-7.7h.6c-.8-9 6.8-19 6.9-19.1l-.4-.3c-.1 0-7.8 10.2-7 19.4Zm4.8.8.5-.1c-1.2-7.2 7.3-17.5 7.4-17.6l-.4-.4c-.3.5-8.8 10.6-7.5 18Zm7.3 2.6h.5c-.2-8.2 7.7-16.5 7.8-16.6l-.4-.3s-8.1 8.5-7.9 17Zm-17.4 15 .5-.2c-2.9-7.6 2.1-17.4 2.2-17.5l-.5-.2s-5.2 10-2.2 17.9Zm3.3.5.5-.2c-2.5-7.7 1.8-18.2 1.8-18.3l-.5-.2c0 .1-4.3 10.7-1.8 18.7Zm13.8 7.8.2.4c8.1-2.9 13.5-10.4 13.6-10.4l-.5-.3s-5.3 7.4-13.3 10.3Zm-1.7-1.8.2.4c6.6-2.9 12.6-11.1 12.7-11.2l-.4-.3s-6 8.2-12.5 11Zm-1.6-.6.3.4c5.1-3.7 11.7-13.2 11.8-13.3l-.5-.3c0 .1-6.5 9.5-11.6 13.2Zm-8.1-4.8h.5a34.7 34.7 0 0 1 4.2-18l-.5-.2s-5.4 9.9-4.2 18.2Zm3.5 2.2.3.4c5.3-4.8 7.1-17.6 7.2-18.1h-.5s-1.9 13-7 17.7Zm3.6 1.5.3.4c7.4-5.3 9.5-15.7 9.5-15.8h-.5s-2 10.2-9.3 15.4Zm.9-22.2v1.4l-5.6 18.3.5.1 5.6-18.3c-.8-8.9 7-18.6 7-18.7l-.4-.3c0 .1-7.1 9-7.1 17.5Zm5.9 4.4c-.1.3-1.8 12.8-8.6 17.5l.3.4c7-4.8 8.7-17.1 8.7-17.7 3-3.5 10-16 10-16.1l-.4-.3c-.1.1-7 12.6-10 16.3ZM942 487c0 .3 1.2 6.5 2.5 8.7l.4-.3a39.6 39.6 0 0 1-2.4-8.5l-.5.1Zm3.2.1v8.6l.4.2c.3-.6.2-7.4.1-8.8h-.5Z"/><path d="m945.6 495.9.5.2c2.1-4.7 2.8-8 2.8-8l-.5-.1s-.7 3.2-2.8 7.9Z"/><path d="m946 496 .3.5c4-2.4 5-6.4 5-6.6l-.5-.1s-.9 4-4.7 6.2Z"/><path d="M946.8 496.4v.5c4-.4 6.7-5.2 6.8-5.4l-.4-.3s-2.7 4.8-6.4 5.2Z"/><path d="M947.2 496.6v.5c6.4-.4 9.2-4.2 9.3-4.3l-.4-.3s-2.8 3.8-8.9 4.1Z"/><path d="m947.7 496.8-.1.4c.3.1 8.4 1.8 11.1-2.4l-.4-.3c-2.6 4-10.5 2.3-10.6 2.2Z"/></svg>