<svg xmlns="http://www.w3.org/2000/svg" width="1200" height="720"><path fill="#62c1f2" d="M0 0h1200v720H0z"/><path d="M1035 427c0 62-82 101-135 121-53-20-135-59-135-121V200h270z"/><path fill="#012778" d="M0 0h600v360H0z"/><path fill="#faf6f5" d="M0 360h62l188-117v117h100V243l183 117h67v-34l-154-96h154V130H446l154-96V0h-62L350 117V0H250v117L67 0H0v34l154 96H0v100h154L0 326zm900 183c51-19 131-56 131-116V204H769v223c0 60 80 97 131 116"/><path fill="#c40f38" d="M270 360h60V210h270v-60H330V0h-60v150H0v60h270zM0 360h38l212-130h-38zm174-230h38L0 0v22zm426 230v-22L426 230h-38zM350 130h38L600 0h-38zm550 413 18-7V424h113v-36H918v-96h113v-88H769v88h113v96H769v36h113v112z"/><path d="M963 382c2 1 4-2 8 0h6c4 0 2 1 6-1q3-1 3-3l-4-4c-4-7-3-20-4-27q3 0 3-2l1 1 1-2v4l1-1 2 6 2-3 2 7 2-3v3l1-1-1 7 2-2v7c9-13 2-33-15-38l2-1 2 2 1-2 2 2 1-2 2 3 1-3 2 3 1-2 2 3 2-3v5l2-2v2l3-1v4h2l1 5 2-1 3 7c6-14-5-30-24-27l-1-2 4 1v-3l3 2v-3l5 4-1-4 4 2v-4l3 4 2-3 2 3 2-4 2 5 3-5v7l3-4 2 6 4-2v4q4-3 4-8c-13-19-33-20-49-1l4-6c-3 1 0-2-2-2l6-6c-3 0-8 0-10 8l3-10-3 1v-6l-4 5c-3-4-7 0-6 4q6 0 7 11c-15-21-44-11-50 7l6-4 2 3 5-5 3 2 3-3 1 2 3-3v5l4-5 1 3 5-3v3l4-2-1 3h6l-2 1 3 3c-18-5-41 4-34 28l2-6 2 3v-6l2 4v-7l2 1v-5l2 4 3-5 2 3 3-5 1 4 2-6 2 3 1-3 1 3 2-4 2 2 6-2c-17 8-27 22-17 41v-6l1 1v-5l2 1v-4l2 1v-6l2 1v-3l2 2v-4l1 1 2-3 1 3 2-6 1 3 3-5 1 1q-2 4 1 5v25l-4 3q-6 4-4 7M811 276c-4-1-6-7-12-5l-3-1q5-1 6-6 6-7 0-14-2-4-7-6 5-1 5-3l5-1 8 7c1 3 7 5 9 5q-3 2-5 6 7 2 10 0-1 4-3 10c-2 0-9 3-13 8m113 247c7 1 30-13 23-20l1-2c6 4 14 4 14 0 8-1 16-9 15-12 12-5 20-14 14-17 7-3 12-13 10-19q-2-4-5-3-2-3-5-2 0-2-3-3 1-6 7-7c4 0 5 4 11 7 3 2 9-7 6-9s-8-6-16-6c-9 0-16 9-16 10q0-3-4-2l-5-1q1-3-3-3c-5 0-16 2-15 16-9 5-8 18-8 22-6 0-8 10-4 17-3 3 1 8 4 10l-2 2c-13-4-10 18-19 22m-84-146q7-1 6-9 3-2 2-8 3-9 8-5l5 7c5-11-3-17-8-17l3-4c5 0 13 3 14 11 5-15-5-19-10-18q2-9 4-13 6-5 11 7c7-23-13-20-20-6q-1-10-10-13c6-1 14-4 15-6-17 0-28 0-33 20q-2-7-8-12l4-2-10-2c-4-4-11 0-12-7q-3 6 6 10c-5 3-9 11-10 13 0-5-5-13-14-13-10 0-12 13-4 19 1-19 11-7 11 4-12-5-18 8-10 19-1-6 3-18 12-13 0 2 2 8 5 10l1 2c-12-4-19 4-13 16q3-11 14-8l3 3 2 4 1 4q-1 6 4 6 8-1 3-9l-2-4-2-5q0-3-4-6l-4-11c-2-9 2-15 3-19q3-5 9-8 9 9 12 16c-13-8-20 3-15 10q5 9 4 19c9-6 6-18 5-25l6 6q-3 3-1 7-2 2-1 7l-1 7c0 6-1 10 5 10q7-1 4-10 1-5-1-7v-7q2-3 1-7c2 0 1-6 4-6s7 7 6 14q8-10 0-16-4-7-9-5 1-9 8-15c7 4 12 15 12 19l-1 8c-4 4-6 12-6 14l-3 6q-3 4-3 8-6 9 2 10m-28 65h3q-1-3-3 0m39 70-8-19-1 1c-4-1-19-5-25-11-7-7-3-20-3-28 0-10-5-11-11-11l5-2q2-4 8-6c11 0 6 19 16 24v-2c-4-15 6-19 22-26q-2 6-8 10l6-1-1 4c-4 1-4 6-10 8q-6 2-6 9 1-6 6-7c6-2 6-7 10-9s14-1 18-7c-1 5-8 12-14 13q5 2 10-2-3 6-14 9h9q-3 4-11 4 1 4 8 3-2 4-7 4-2 3-5 3c-4 0-11-6-11 1 2-4 7 0 11 0 2 3 7 13 7 17 1 1 11 11 16 14l-4-1-13-11v1l16 14q-7-1-14-9h-1l9 9-3-1v2l-2-3-2 3-6-13h-1l6 13zm0 3 3-5 1 1 1-3 3 4v-4l5 2-1-2q4 2 6 0l-3-2q3 1 5-1c-5-1-17-13-18-14 0-5-5-14-7-17q3 0 5-3 7-1 8-7h-8q10-1 13-7l-6 1q8-5 10-11l-7 4c5-3 11-10 9-16-4 9-12 7-17 9l1-5-5 2q6-4 7-12c-6 6-32 8-25 29-7-6-4-23-15-23-5 0-8 5-9 6l-2 1-4-2c5-5-1-7-2-10q-3 4-2 7-3-6-7-5 0 7 5 7-4 2-3 7 7-1 7-6l4 3-2 1 2 1-1 2q-7-4-9 2 4 3 8 0c-5 5 1 6 0 9q7-4 2-9l1-2q1 5 4 6 4-4-1-7 6 0 6 9c0 9-5 21 3 29 7 7 21 10 27 11zm-39-226c7-10 16-4 23-13q3 0 4-3v4q8-1 11-6 1 10 7 11l1-6q6 0 10 2v-3q3 3 5 2v-2c3 3 11 3 15-2q13 2 14-2 13 0 16-8 4-1 4-3 3 1 10-5-2 5 1 11c9-5 15 10 8 10-8 0-12-9-19-9-6 0-13 6-8 12q0 4 6 7c18 9 21-2 33-4 1-6 9-4 9-10 0-5-8-4-8-9q6 5 8-6c3 8 10 12 11 0q8 13 16 9 10 2 16-4c-1 6 5 6 5 9 0 4-7 1-11 1-11 0-11 14 1 13 7 4 12 0 15 0s4-1 4-4c10-3 9-9 6-14-2-1-7 3-7-7q-1-12-11-12c-8 0-11 8-20-1-7 5-5-3-8-4 10 0 15-14 22-12l-1 6c11-2 10-16 0-18l-4 3q0-12-6-15c0 4-1 10-6 10-4 0-9-4-18-4-15 0-28 11-38 11-9 0-14-8-23-8q-8 2-13 3c-5 1-6-3-8-2 0-2-4-4-1-9-13 11 1 15 1 22l3-2c0 3 3 10 12 9q-6-4-4-8c3-3 11 4 17 2l-3-5 13 8q4-7 13-3c7-4 34-14 47-8q-1 5 3 6c0 7-15 5-22 4-9-9-17 6-35 3q0 2-5 2c-36 0-18 12-45 9l1-3c-5-2-10 0-13-2h2c0-4-5-8-6-8l3-3 12-8-14-2-2-15-13 8-9-8-1 13-1 4q-6 3-7 10c-8 6-20-8-29-8q-6 0-7 4c-2-1-9-1-13 4-2 0-5 5-1 9l1 2q-5 2-7 6-6 7 0 14 2 5 7 6-7 14 18 12 3 3 7 2 1 4 6 5" todo="true"/><path fill="#961538" d="M976 376h6c-5-6-3-14-5-29q-2 3-5 0v26l-4 3 2 1q5 2 6-1m8 3q-4-4-5-2-5 2-8 1-6 2 2 3h6c2 1 2-3 5-2m-17-2q-2 0-3 3c4 2 4-3 3-3m44 60c-2-1-6 6-4 7s6-6 4-7m-1-1q-4-4-14-5c-8 0-14 8-15 10q5-2 6 3 2-6 8-7 6 2 10 6c0-2 3-7 5-7m-171-70q2 3 6 1 3-4 2-6l-6-1zm-12-20q1-2-2-5c-5 2-1 8 2 5m1 7v-6c-2 1-7-1-5 6zm11 14q-5 8 1 9 5 1 5-8-3 2-6-1m-10-6q1-2-1-7h-5l-1 7q2 2 7 0m-7 1q-2 9 4 8c6-1 4-4 3-8q-5 2-7 0m-19-10q-3-6-5-3 0 3 5 3m141 150 3-1q-3-2-3 1M806 371q-1 4 3 4 6 0 3-7zm138 132c-5 0-5 13-12 17 6-3 15-9 15-14q0-3-3-3m-1-1c-11-4-10 16-16 20 10-2 11-19 16-20M805 354q0 3-5 5l3 3c3 0 7-4 2-8m3 5q-1 3-5 4l2 3c5 0 5-5 3-7m3 9q1-2-1-4-3 4-5 3l1 3z"/><path fill="#24a34e" d="M964 457q-2-3-5 2c-3 5-4 7-5 15q4-3 6 2 2-12 6-16 5-5-2-3m16-145c-3 0 2-3-2-2l6-6q-7 0-8 14zm46 6c-12-16-32-20-48 1l2-1-5 7 2-5-2 1 1-2-2 1 1-1q-1-9 2-16l-2 1v-5l-3 5q-3-7-5 0 7 2 7 14c-16-20-38-14-49 2l4-3 2 3 5-5 3 2 4-3v2l4-3v4l4-5 1 4 5-3v3l5-2-1 4h6l-2 2 5 5c-14-4-40-3-38 22l2-4 1 2v-6l2 4v-6l2 1v-6l3 4 3-5 2 4 3-6 1 4 2-5 2 3 1-4 1 4 2-5 2 3 7-1 5 4-5-2c-9 4-26 15-19 36v-4l1 1v-6l2 2v-4l2 1v-6l2 1v-3l2 2v-4l2 1 2-4 1 3 1-6 2 3q2-4 5-5l-1-4c5 2-1 7 4 9q4-4 1-9c4 2 1 5 4 7v-5l3 8 1-4 1 6 1-2 1 6 2-3 2 8 2-4 1 4 1-1-1 7 2-3v7c7-19-8-34-19-34l5-4 2 2v-2l3 2 1-2 2 3 1-2 2 2 1-2 2 3 3-3v5l2-2v3l3-2v5h2l1 4 2-1 2 6c3-13-7-26-26-23l1-1-2-3 5 1v-4l3 2v-3l4 3-1-4 5 3v-4l4 4 2-3 2 3 2-4 2 4 4-5v7l3-3 2 6 4-2v3q3-3 2-5m-162 2q6-5 11 5c2-11-4-19-11-5m-5 14c3-6 1-15 10-22-13 3-16 17-18 26zm-21-24c6 3 12 12 14 19 4-8 0-22-14-19m-8 17c0-3 3-11 8-16l-2-1c2-2 14-1 21-6-25-2-28 12-31 26zm28 13c3 0 10 3 12 8 2-12-7-15-12-8m-13 12c7-6 10-14 18-17q-14 0-18 17m13-4q-3 8 3 12 2-7-3-12m130 126c-2 2-7 10-13 14h2c5-2 15-8 15-13q0-3-4-1m-9-6q-2 9-9 15l1 1c4-2 10-9 12-13s-3-7-4-3m9 3q-1-3-3-1-4 8-13 15l2 3c5-4 14-15 14-17M835 333q6 5 6 12c4-6 2-14-6-12m139 132q4-4-1-3-1-5-6-1-7 5-6 15 3 0 5 3 3 0 4 3c4-4 8-12 8-15q-1-6-10 5 2-4 6-7M839 332c-3-7-10-5-13-1l4 7q2-7 9-6m-31-23 4-1c0-3-9-1-11-5q1 5 7 6m10 2-5 3q8 7 12 16 5-9-7-19m34 35c-3 4-9 8-10 13l5 1c2-9 7-7 9-6 0-4 4-8-4-8m104 108q-6 5-7 18 2-2 4 1 2-12 6-16 2-6-3-3m-14 36q-3 2 3 8c-3-5-1-8-3-8M821 309c-13-4-21 8-24 16v5c6-14 16-18 24-21m131 143c-8 5-6 18-6 20q2 1 2-1 2-10 5-16 2-4-1-3M817 328l1 5q7 5 11 13 2-15-12-18m155 158q-3 6-13 12c6 0 17-8 13-12m-14 11c7-3 17-12 11-13q0-4-3-4c0 6-6 13-10 17zm15-7q-3 6-13 9l2 1c5 0 14-7 14-10q-1-3-3 0m-8-9q1-3-5-4 0 8-7 17l1 3c6-4 11-12 11-16m-13 12c3-2 7-11 7-15s-4-5-6-2-4 11-3 17zM810 340c4 5 4 14 4 17 7-7 4-16 2-29-7 0-10 7-6 12m-19-7 4 2c5-15-3-26-14-24 7 2 8 12 10 22m8 7q-1-7 3-17l-5 9-1 4zm147 135q-4 7-2 16 3-2 5 1 0-11 3-17c3-6-3-4-6 0M788 322c-5-20-19-6-10 5 0-7 5-14 10-5m155 167c-2-6 0-14 3-16-5-1-9 10-3 16m9 13q9 3 9-1c0-4-3 1-9 1m6-4c-2-2-4 2-9 3q11 1 9-3m-5-1q1-3-2-3-3-1-4 6 5 0 6-3m-7-6q-3 1 0 8 3-8 0-8M793 340c1 4 4 11 6 7zm10 11c-1-8-8-18-18-18-8 0-9 10-6 16 0-4 2-12 9-12s11 8 15 14m-5 7c-8-7-19-6-13 7q2-9 13-7m1 81v-3l1 3c4-4-1-5-1-7q-3 4 0 7m6 7 2 3-2-2q0 3 3 5 2-4-3-6m-11-10 2 2q0-5-5-5 1 5 4 5zm4 4-3 2 2-2q-4 0-4 5 4 0 5-5m0 8 3-1q-5-3-7 2 4 2 7-1zm5 4-1-3c-4 5 0 5 0 7q4-3 1-6zm-4-100q-9-3-14 2 7-2 14 4c2 1 7-3 5-5z"/><path fill="#fcd80e" d="M1024 268c-1-1-7 3-7-8 0-7-5-11-7-11-3 0-15 6-23 0-9 5-4-4-11-7 13 1 18-16 27-12l-1 5c7-3 5-13-2-14q-2 3-5 3 0-13-4-15 0 8-7 9c-7 1-10-4-17-4-15 0-29 11-39 11s-15-8-23-8q-6 2-13 3-4-2-9-2-2-3-2-7c-6 9 4 13 4 17l3-2q-1 6 8 10-5-4-2-8c4-4 11 3 16 2l-3-6 14 8c3-4 11-4 14-2 11-6 33-14 49-8q-2 5 2 6c1 9-14 7-24 6-8-8-17 6-33 3q0 2-7 2c-34 0-16 12-46 9l1-3c-5-2-11 1-13-4h3l-4-5c2 4-5 9 2 14l-7-2q-2 3 4 5c-4 6-9 3-10-1 1 3-6 6-7 10l-3-6c-4 0-4 4-9 4l-3-9c-5 4-7-2-11 6 4 0 7 3 9-2 1 7-3 8-3 13q17-1 16-6c3 3-1 4-1 14q8-3 10-7c3 9 4 10 6 11l1-5h6q-6-3-8-13 3 10 12 13v-3q2 4 5 4l-3-8q-3-1-4-7 2 7 15 8c-1-2-8-15-15-16q6 1 9 5 7 2 10-2l-4-2 6 1q-3 6-11 4l6 11-11-2c2 9 11 10 18 4q13 2 13-2 13 0 16-8 4 0 4-3c11 1 13-19 34-11-14-4-27 5-21 16 11-4 16 13 7 13s-13-9-19-9q-9 1-8 9 2-4 5-5-7 8 0 12 0-4 4-6c-6 7 1 10 10 10s11-7 19-7c0-6 8-4 8-9 0-4-7-2-7-10 7 3 7-1 9-8 4 12 11 13 9-3q8 15 15 14-4-3-2-10c-1 12 12 13 22 5-1 8 5 7 5 11 0 5-8 2-12 2-9 0-8 10-4 10q-1-5 4-7c-3 2-6 9 1 8q0-5 5-7-4 3-4 6 0 4 5 3 6-1 9-2 4 0 3-4c6-1 11-5 6-12m-160-38 9-6-12-1-1-14-13 7-7-7-1 10q14 0 25 11m-1 1c-8-10-22-11-24-11l-1 3q14 1 23 10zm-4 2q-6-7-19-9-9 6-3 10c-4-2-7 6-3 8h4q-2-3 1-4c-2 3 3 5 5 2q0 5-4 3l1 3 6 1-4 1c-4 4-10 2-10-5 0 2 0 8 6 8s13-5 10-11q3-1 2 3c3-4 8-3 8-10m-19 1v-3l-2 1 1 1q-2-1-2-3l1 1q1-1 2-1l-3-1q6-1 3 5m1 1q2-6-2-8c4-1 5 5 2 8m16-1c-3 2-5-2-9 0 3-4 5 1 9 0m-12 6q2-2 1-4t1-2c2 0 0 6-2 6m3-4q0-2 3-2 3 1 5 2-2 0-6-1-3 1 0 2c-1-3 3-1 1 0h3q-5 2-6-1m-9 7h-2l-1 2-1-2c-3 3 3 9 8 4l-4 1 1-2zm-56-2q-1-4 3-6c-2 2-3 8 1 6q-2-4 4-6-4 1-3 7h3q-1-4 4-6c-6 5 0 4 0 7q4 0 4-4 3 2 6-1l9 8 7-2-2-5q4 3 10 2-3 2-6 10 4 1 7-2l4 9c3 0 4-4 9-4l2 5c1-4 8-4 5-9 4 0 4 8 10 4-5-1-1-6-5-9l7 3c-4-4 2-8-1-14l-1-1c0 8-7 8-9 12s-7 7-12 7c-7 0-7-8-7-10q-2-3 1-8 0-7 6-10-6-2-8 10c-1 3-6 7-12 2q6 3 10-1c-9 4-18-9-29-9q-5 0-5 5c-3-3-11-1-13 3-5 1-3 10 1 7m39 10q3-7 5-9l-6-1 2 4q-5 0-9 2zm3 18c-4 0-11 5-13 8-5 0-7-8-14-4q-1-4-3-2c0 3-6 2 0 7q-5-2-4-6h-3q-1 6 3 7-6-2-4-6c-4-2-3 4-1 6q-4-1-3-6l-2-1c-2 4-1 12 19 9q2 4 7 1 0 5 5 5c6-10 15-3 22-12 5 0 5-6 6-9q-7 3-15 3m170 182q0-3-4-2 0 10-6 19 4-1 4 2 5-6 6-14 1 8-5 15c11-4 14-22 5-20m-10-3q-5 6-6 18 3-2 5 2 6-10 6-19-1-6-5-1m-5-5q-4 3-7 13c0-9 5-12 6-14s-1-5-4-2q-8 5-7 19 5-2 6 2 2-1 4 2 2-9 6-15c4-5 0-9-4-5m-5-4c-6-2-14 2-16 11q3-12 9-12c6 0 2-3 0-3-12 0-16 10-13 18q5-3 6 2 3-1 4 1h2q1-14 8-17"/><path fill="#faf6f5" d="M792 245c4-4-3-4 0 0m-3 0c4-4-3-4 0 0m13 7q-2 3-1 5 0 2 1 5 3-5 0-10m-16-7c4-4-3-4 0 0m-3 0c4-4-3-4 0 0m17 9q4-4-6-9-2 3-3-1-2 4-3 0-2 4-3 0-2 3-3 1-10 5-6 9c5-6 19-6 24 0m-12-3q-12 1-12 6 0 7 12 6c12-1 12-3 12-6s-4-6-12-6m-12 9q-4 5 6 9 1-2 3 1 1-4 3 0 1-4 3 0 1-3 3-1 10-4 6-9c-5 6-19 6-24 0m16 9c-3 4 4 4 0 0m-3 0c-3 4 4 4 0 0m-14-12q1-2-1-5-3 5 0 10 2-3 1-5m11 12c-3 4 4 4 0 0m-3 0c-3 4 4 4 0 0"/></svg>