<svg xmlns="http://www.w3.org/2000/svg" width="1200" height="720"><path fill="#62c1f2" d="M0 0h1200v720H0z"/><path fill="#0a1a1d" d="M1035 427c0 62-82 101-135 121-53-20-135-59-135-121V192h270z"/><path fill="#012778" d="M0 0h600v360H0z"/><path fill="#faf6f5" d="M0 360h62l188-117v117h100V243l183 117h67v-34l-154-96h154V130H446l154-96V0h-62L350 117V0H250v117L67 0H0v34l154 96H0v100h154L0 326zm900 183c51-19 131-56 131-116V196H769v231c0 60 80 97 131 116"/><path fill="#c40f38" d="M270 360h60V210h270v-60H330V0h-60v150H0v60h270zM0 360h38l212-130h-38zm174-230h38L0 0v22zm426 230v-22L426 230h-38zM350 130h38L600 0h-38zm550 413 18-7V422h113v-36H918v-98h113v-92H769v92h113v98H769v36h113v114z"/><path fill="#0a1a1d" d="M812 441h4c0-3-4-3-4 0m166-127 4-6c-5 0 0-4 4-8q-4-1-9 4l2-6-3 1v-5l-4 5c-3-5-9 0-8 5q7-2 9 10c-15-22-42-15-50 6l6-4 2 3 5-5 3 2 3-3 1 2 3-3v5l4-5 1 3 5-3v3l4-2-1 3h6l-2 1 3 3c-18-5-41 4-34 28l2-6 2 3v-6l2 4v-7l2 1v-5l2 4 3-5 2 3 3-5 1 4 2-6 2 3 1-3 1 3 2-4 2 2 6-2c-17 8-27 22-17 41v-6l1 1v-5l2 1v-4l2 1v-6l2 1v-3l2 2v-4l1 1 2-3 1 3 2-6 1 3 3-4q-2 4 2 4v26l-4 3c-5 1-5 6-3 7s2-1 6 1l7-1q2 1 6-1 3 0 3-2c0-2-2-1-4-5-4-7-3-20-4-28q2 1 3-1l1 1 1-2v4l1-1 2 6 2-3 2 7 2-3v3l1-1-1 7 2-2v7c9-13 2-33-15-38l2-1 2 2 1-2 2 2 1-2 2 3 1-3 2 3 1-2 2 3 2-3v5l2-2v2l3-1v4h2l1 5 2-1 3 7c6-14-3-32-24-27l-1-2 4 1v-3l3 2v-3l5 4-1-4 4 2v-4l3 4 2-3 2 3 2-4 2 5 3-5v7l3-4 2 6 4-2v4q4-3 4-8c-13-19-33-20-49-1m-30-37c0-8 8-6 8-12 0-5-5-4-5-9q10 2 12-7c2 6 10 12 10 1q7 12 15 9 10 2 17-4c-1 6 5 6 5 9 0 4-7 1-11 1-11 0-11 14 1 13 5 5 12 0 15 0s4-1 4-4c10-3 7-9 4-14-2-1-5 3-5-7q0-11-10-12c-9 0-12 8-21-1-7 5-5-3-8-4q9-1 15-9c6-6 8-2 6 3 11-2 10-17-2-16q1-11-8-14c0 4-1 10-6 10-4 0-12-6-20-6-16 0-26 13-35 13-7 0-10-7-19-7-6 0-11 4-14 4l-9-2c0-2 3-8-3-10-7 7-3 17 6 21 0 3 3 10 12 9-8-4-2-19 10-2v-7s4 2 4 7q8-10 17-3c16-18 52-15 52-5 0 6-13 8-22 5-13-14-45 19-88 11l2-5c-13 8-12-5-13-7l3-3 11-8-13-1-2-14-13 6-8-6-2 11-1 4q-7 3-9 10c-8 6-20-7-29-7q-6 0-7 4c-2-1-9-1-13 4-4 1-5 8 0 10v1q-5 2-7 6-6 7 0 14 2 5 7 6-7 15 18 12 3 3 7 2c0 3 5 5 7 4 5-8 18 3 29-12l3 4 6-4q3 4 11 4l-2-4c11 4 20 5 39-12 10 2 23-7 28-10q-3 5 0 12c9-5 15 10 8 10-8 0-12-8-19-8q-13 1-8 13 1 3 7 6c16 8 26-7 33-3m-122-16q-7 0-15 8c-3 0-5-8-12-4q-1-2-3-2 5-1 6-6 6-7 0-14-2-4-7-6 5-1 5-3l5-1 11 5-2 1q6 5 10 5-3 2-5 6l7 2zm45 243c-5-1-17-13-18-14 0-5-5-14-7-17q3 0 5-3 7-1 8-7-2 2-8 0 10-1 13-7l-6 1q8-5 10-11l-7 4c5-3 11-10 9-16-4 9-12 7-17 9l1-5-5 2q6-4 7-12c-6 6-32 8-25 29-7-6-4-23-15-23-5 0-8 5-9 6l-2 1-4-2c5-5-1-7-2-10q-3 3-2 6-4-5-7-4 0 7 5 7-4 2-3 7 7-1 7-6l4 3-2 1 2 1-1 2q-7-4-9 2 4 3 8 0c-5 5 1 6 0 9q7-4 2-9l1-2q1 5 4 6 4-4-1-7c14 1-3 27 9 39q11 9 27 10l8 20 3-5 1 1 1-3 3 4v-4l5 2-1-2q4 2 6 0l-3-2q3 1 5-1m-4 3q-6 0-12-8l6 8-3-1v2l-2-3-2 3-4-10 3 10-2 3-8-19-1 1c-8-1-20-5-25-10-13-13 9-40-14-40l5-2q2-4 8-6c11 0 6 19 16 24v-2c-4-15 6-19 22-26q-2 6-8 10l6-1-1 4c-4 2-4 6-10 8q-6 2-6 9 1-6 7-8c6-2 6-6 10-8s13-1 17-7c-1 5-8 12-14 13q5 2 10-2-3 6-14 9h9q-3 4-11 4 1 4 8 3-2 4-7 4-2 3-5 3c-4 0-11-6-11 1 2-4 7 0 11 0 2 3 7 13 7 17 1 1 11 11 16 14l-4-1-10-8zm144-72q-4-5-16-6c-9 0-16 9-16 10q0-3-4-2l-5-1q1-3-4-3c-3 0-15 2-14 16-9 5-8 18-8 22-6 0-8 10-4 17-3 3 1 8 4 10l-2 2c-13-4-10 18-19 22 7 1 30-13 23-20l1-2c6 4 14 4 14 0 8-1 16-9 15-12 12-5 20-14 14-17 7-3 12-13 10-19q-2-4-5-3-2-3-5-2 0-2-3-3 1-6 7-7c6-1 7 5 11 7 3 2 9-7 6-9M855 321q-1-10-10-13 11-1 14-10c-15 6-23-6-32 24q-1-8-7-13l4-2q-4-2-12-1s-9-2-11-7q-4 6 6 10c-5 3-9 11-10 13-1-6-6-13-14-13-10 0-12 13-4 19 1-19 11-7 11 4-12-5-18 8-10 19-1-6 3-18 12-13 0 2 2 8 5 10l1 2c-12-4-19 3-13 16q3-11 14-8l3 3 2 4 1 4q-1 9 4 8 8-2 3-11l-2-4q0-4-2-5 0-4-4-6l-4-11c-2-10 3-23 12-27q9 9 12 16c-13-8-20 3-15 10q5 9 4 19c9-6 6-18 5-25l6 6q-3 3-1 7-2 2-1 7l-1 7q-3 10 5 10 7-1 4-10 1-5-1-7v-7c2 0 1-5 1-7 2 0 1-6 4-6s7 7 6 14q8-10 0-16-4-7-9-5 1-9 8-15c7 4 12 15 12 19l-1 8c-4 4-6 12-6 14l-3 6q-3 4-3 8c-3 5-4 12 2 12 5 0 6-7 6-11q3-2 2-8 3-9 8-5l5 7c5-11-1-16-8-17l3-4c5 0 13 3 14 11 5-15-5-19-10-18l4-13q6-5 11 7c7-23-13-20-20-6"/><path fill="#24a34e" d="M1026 315c-12-16-32-20-48 1l3 2-6 4 4-4-3-2 4-7q-3-3 4-8-3-1-8 7-1-4 1-8l-2 1v-4l-3 4c-1-5-7-4-7 2q8 0 9 11l-3 2 2 2-2 1 2 3-4-4h2l-2-2 3-2c-14-19-38-14-46 3l3-3 2 3 5-5 3 2 4-3v2l4-3v4l4-5 1 4 5-3v3l5-2-1 4h6l-2 2 5 5c-15-5-40-3-38 22l2-4 1 2v-6l2 4v-6l2 1v-6l3 4 3-5 2 4 3-6 1 4 2-5 2 3 1-4 1 4 2-5 2 3 7-1 5 4-5-2c-10 4-27 15-19 36v-4l1 1v-6l2 2v-4l2 1v-6l2 1v-3l2 2v-4l2 1 2-4 1 3 1-6 2 3 5-5-1-4q6 11 5 0l4 7v-5l3 8 1-4 1 6 1-2 1 6 2-3 2 8 2-4 1 4 1-1-1 7 2-3v7c7-19-8-34-19-34l5-4 2 2v-2l3 2 1-2 2 3 1-2 2 2 1-2 2 3 3-3v5l2-2v3l3-2v5h2l1 4 2-1 2 6c3-13-5-28-26-23l1-1-2-3 5 1v-4l3 2v-3l4 3-1-4 5 3v-4l4 4 2-3 2 3 2-4 2 4 4-5v7l3-3 2 6 4-2v3q3-3 2-5m-162 4q6-5 11 5c2-11-4-19-11-5m-5 14c3-6 1-15 10-22-13 3-16 17-18 26zm-21-24c6 3 12 12 14 19 4-8 0-22-14-19m0 1-2-1c2-2 17-1 21-9-14 4-23-6-31 29l4-3c0-3 3-11 8-16m20 29c3 0 10 3 12 8 2-12-7-15-12-8m-13 12c7-6 10-14 18-17q-14 0-18 17m142 122c-2 2-7 10-13 14h2c5-2 15-8 15-13q0-3-4-1m-9-6q-2 9-9 15l1 1c4-2 10-9 12-13s-3-7-4-3M859 348q-4 7 2 11 2-7-2-11m128 122q-1-3-3-1-4 8-13 15l2 3c5-4 14-15 14-17M835 332q6 5 6 12c4-6 2-14-6-12m138 132q4-4-1-3-1-5-6-1-7 5-6 15 3 0 5 3 3 0 4 3c4-4 8-12 8-15 0-4-6 0-10 5q2-4 6-7M839 331c-3-7-10-5-13-1l4 7q2-7 9-6m-29-24c1-1-7-2-9-6-1 4 6 9 9 6m9 3c-1-1-6 2-6 3q8 7 12 16c3-8-2-17-6-19m33 35c-3 4-9 8-10 13l5 1c1-9 8-8 9-6 0-4 6-7-4-8m111 111q-2-3-5 2c-3 5-4 7-5 15q4-3 6 2 2-12 6-16 5-5-2-3m-8-3q-6 5-7 18 2-2 4 1 2-12 6-16 2-6-3-3M822 307c-14-3-21 8-25 18v4a40 40 0 0 1 25-22m-5 20 1 5q7 5 11 13 2-15-12-18m134 124c-8 5-6 18-6 20q2 1 2-1 2-10 5-16 2-4-1-3m6 45c7-3 17-12 11-13q0-4-3-4c0 6-6 13-10 17zm14-11q-3 6-13 12c6 0 17-8 13-12m1 4q-3 6-13 9l2 1c5 0 14-7 14-10q-1-3-3 0m-8-9q1-3-5-4 0 8-7 17l1 3c6-4 11-12 11-16m-13 12c3-2 7-11 7-15s-4-5-6-2-4 11-3 17zM810 339c4 5 4 14 4 17 7-7 4-16 2-29-7 0-10 7-6 12m135 135q-4 7-2 16 3-2 5 1 0-11 3-17c3-6-3-4-6 0M791 332l4 2c4-16-4-25-14-24 7 2 9 12 10 22m5 3 3 4q-1-7 3-17zm-8-14c-5-20-19-6-10 5 0-7 5-14 10-5m154 167c-2-6 0-14 3-16-5-1-9 10-3 16m9 13q9 3 9-1c0-4-3 1-9 1m6-4c-2-2-4 2-9 3q11 1 9-3m-5-1q1-3-2-3-3-1-4 6 5 0 6-3m-7-6q-3 1 0 8 3-8 0-8m-4-1q-3 2 3 8c-3-5-1-8-3-8M793 339c1 4 4 11 6 7zm10 11c-1-8-8-18-18-18-8 0-9 10-6 16 0-4 2-12 9-12s11 8 15 14m-4 1q-9-3-14 2 7-3 14 4 5 0 5-5zm-1 6c-8-7-18-6-13 7q2-9 13-7m1 81v-3l1 3c4-4-1-5-1-7q-3 4 0 7m6 7 2 3-2-2q0 3 3 5 2-4-3-6m-11-10 2 2q0-5-5-5 1 5 4 5zm4 4-3 2 2-2q-4 0-4 5 4 0 5-5m0 8 3-1q-5-3-7 2 4 2 7-1zm5 4-1-3c-4 5 0 5 0 7q4-3 1-6z"/><path fill="#fcd80e" d="M994 450q0-3-4-2 0 10-6 19 4-1 4 2 5-6 6-14 1 8-5 15c11-4 14-22 5-20m-10-3q-5 7-7 16l1 2q4-2 5 2 6-10 6-19-1-6-5-1m-1 0c4-5 0-9-4-5q-4 4-7 13c0-9 5-12 6-14s-1-5-4-2q-8 6-7 19 5-2 6 2 4-1 3 2 3-10 7-15m-9-9c-6-2-14 3-16 11q3-11 9-12 4-2 0-3c-12 0-16 10-13 18q5-3 6 2 3-1 4 1h2q1-14 8-17m48-177c-1-1-5 3-5-8q-1-10-9-11c-6 0-13 8-21 0-9 4-4-4-12-7 9 1 14-5 18-9q10-7 9 2c7-3 6-14-6-13q1-12-5-13 1 8-6 9c-7 1-14-6-21-6-15 0-24 13-35 13-8 0-11-7-19-7-5 0-10 4-14 4s-7-3-11-1q3-7-1-10c-5 5-2 14 7 18q-1 5 8 9c-6-5 1-17 12-5v-6s5 3 6 7q7-8 16-2c18-18 53-14 53-3 0 7-12 9-24 6-12-13-44 20-89 11l1-3q-9 3-10-4-2 3-1 8c-4-7 3-8-1-15 0 8-7 9-8 10q-1 5-6 5c-4 9-18 4-14-6q-2-3 1-8 0-7 6-10c-3-1-9 5-10 10l-3 4 1-3c-9 4-18-8-29-8q-5 0-5 5c-3-3-11-1-13 3-5 1-3 10 1 7q-2-4 2-6c-2 2-2 8 2 6q-2-4 4-6-4 1-3 7h3q-1-4 4-6c-6 5 0 4 0 7q4 0 4-4 3 2 6-1l12 6 5-2-1-5 3 5-8 4c3 3 4 3 11 5q-4 1-6 5l6 2v12c6-7 16 1 22-9-3 12-17 2-23 12v-4c-4 0-12 5-14 8-6 1-5-8-13-4q-1-2-4-2c0 3-5 3 0 6q-4 0-4-5c-2 1-5 1 0 6q-4-2-4-5c-4-2-3 3-1 5q-4-2-3-5l-2-1c-2 4-1 12 19 9q2 4 7 1 0 5 5 5c6-9 19 4 30-14l3 5 5-3-2-7q3 10 12 11l-3-6c11 7 22 7 41-10 18 2 27-15 42-15q-16 4-12 16c11-3 16 13 7 13s-13-8-19-8-9 5-8 10q2-4 5-4-7 5 0 9 0-3 4-5c-7 7 3 9 8 9 10 0 13-7 22-6-1-7 7-5 7-10 0-4-4-2-5-11 8 4 12-2 14-9 4 12 11 14 8-1q8 17 15 14-4-3-2-10c-1 12 12 14 22 5-1 8 5 7 5 11 0 5-8 2-12 2-8 0-8 9-4 10q-1-5 4-7c-3 2-5 8 1 8q0-5 5-7c-4 3-6 9 1 9l9-2q4 0 3-4 10-1 4-12m-181-11-9 3-1-10-6-4 7 3 1 9 8-2 6 3zm22 1v8q-9-1-12-7 4 4 11 5 1-5-3-11c6 6 15 7 18 5q-7-2-7-9 1 6 10 9-8 5-17 0m3-29 8-6-11-1-1-13-12 6-7-5-2 8q14 0 25 11m-1 1c-8-10-22-11-24-11l-1 3q14 1 23 10zm-4 2q-6-7-19-9-9 6-3 10c-4-1-7 6-3 8h4q-2-3 1-4c-2 3 3 5 5 2q-1 4-3 3l3 3q8 1 5-6c3 2 10 0 10-7m-19 0q-2 0-3-4 5 0 3 4m1 2q2-7-3-8c4-1 8 4 3 8m6 2q5-8 9-1-4-4-9 1m2 0q2-3 6 0-5 2-6 0m-9 10 1-2-2-2h-2l-1 2-1-2c-2 4 5 8 9 4zm-7-4c-3 8 8 12 11 5-3 4-11 2-11-5"/><path fill="#961538" d="M976 373h6c-5-6-3-14-5-29q-2 3-5 0v26c-10 4 0 5 4 3m1 1-6 1c-3 0-4 4 0 4s4-2 6-2 2 2 7-1q-4-4-7-2m-10 0q-4 1-3 3c3 3 4-3 3-3m43 62c-2-1-6 6-4 7s6-6 4-7m-1-1q-4-4-14-5c-8 0-14 8-15 10q5-2 6 3 2-6 8-7 7 0 10 6c0-2 3-7 5-7m-170-70q2 3 6 1 3-4 2-6l-6-1zm-12-20q1-2-2-5c-5 2-1 8 2 5m1 7v-6c-2 1-7-1-5 6zm11 14c-3 4-4 11 1 11q5 1 5-10-3 2-6-1m-10-6q1-2-1-7h-5l-1 7q2 2 7 0m-7 1q-2 9 4 8c6-1 4-4 3-8q-5 2-7 0m-19-10q-3-6-5-3 0 3 5 3m2 2q0 3-5 5l3 3c3 0 7-4 2-8m138 148 3-1q-3-2-3 1M808 358q-1 3-5 4l2 3c5 0 5-5 3-7m2 5q-3 4-5 3l1 3q8-2 4-6m-4 7q-1 5 3 6 6-1 3-9zm137 132c-5 0-5 13-12 17 6-3 15-9 15-14q0-3-3-3m-1-1c-11-4-10 16-16 20 10-2 11-19 16-20"/><path fill="#faf6f5" d="M792 238c4-4-3-4 0 0m-3 0c4-4-3-4 0 0m13 7q-2 3-1 5l1 5q3-5 0-10m-16-7c4-4-3-4 0 0m-3 0c4-4-3-4 0 0m17 9q4-4-6-9-2 3-3-1-2 4-3 0-2 4-3 0-2 3-3 1-10 5-6 9c5-6 19-6 24 0m-12-3q-12 1-12 6 0 7 12 6c12-1 12-3 12-6s-4-6-12-6m-12 9q-4 5 6 9 1-2 3 1 1-4 3 0 1-4 3 0 1-3 3-1 10-4 6-9c-5 6-19 6-24 0m16 9c-3 4 4 4 0 0m-3 0c-3 4 4 4 0 0m-14-12q1-2-1-5a9 9 0 0 0 0 10q2-3 1-5m11 12c-3 4 4 4 0 0m-3 0c-3 4 4 4 0 0"/></svg>