<svg xmlns="http://www.w3.org/2000/svg" xmlns:xlink="http://www.w3.org/1999/xlink" width="1200" height="600"><defs><path id="c" fill="#edcfb7" d="M8.9 561.5a10 10 0 0 0-7.2 3.5l8 13.6L4 565c2.2-2.4 5-2.8 8.2-1.6l-.2-1.6-3.1-.3z" paint-order="markers stroke fill" style="isolation:auto;mix-blend-mode:normal"/><path id="d" fill="#e17000" d="m12.6 561.9 2.7 20.1a5 5 0 0 1 1-.2c2.3-.2 5.2 1.5 5.6 3.7.4 1.8-.7 4-2.7 4.9 5.8-1.9 2.6-8 1.4-11 0 0-2-3.4-2.6-5.3-1.3-3.6-2.5-11.3-2.5-11.3a22.2 22.2 0 0 0-3-1zm6.5 28.5-.6.2.7-.2z" paint-order="markers stroke fill" style="isolation:auto;mix-blend-mode:normal"/><path id="e" fill="#c40f38" d="m13.3 562 4.3 20c2 .3 4 1.7 4.3 3.5.4 1.8-.7 4-2.7 4.9 5.8-1.9 2.6-8 1.4-11 0 0-2-3.4-2.6-5.3-1.3-3.6-2.5-11.3-2.5-11.3l-2.2-.7z" paint-order="markers stroke fill" style="isolation:auto;mix-blend-mode:normal"/><path id="j" stroke-width=".474" d="m413.6 471 7.6-27 2-3.8m-7 31.6 6.2-27.5.8-4.1m-4.4 31.2 4.8-26.9-.4-4.3m-9.3 27 6.1.9" paint-order="markers stroke fill"/><path id="m" fill="#faf6f5" fill-opacity=".996" stroke="#6c401f" stroke-linecap="round" stroke-linejoin="round" stroke-opacity=".996" stroke-width=".898" d="M387.7 262.8s-4-1.4-6-1.2c-1.9.2-3.4 1.9-5.3 2.2-1.7.2-3.4-.8-5.1-.5-1.6.2-4.3 1.8-4.3 1.8s2.8-1 4.1-.7c2 .4 3.2 3 5.2 3.2 2 .2 3.5-2 5.5-2 2.2.1 6 2.7 6 2.7z" paint-order="markers stroke fill" style="isolation:auto;mix-blend-mode:normal"/><path id="n" fill="#c40f38" d="M65.4 496.2H65v2c-2.3.3-4 2.9-6.3 3-2.2.1-4-2-6.2-2-1.4-.1-3.6.6-4.9 1.1 1.2-.4 3.4-1 4.8-1 2.3.3 4 3 6.3 3 2.2 0 4-2.6 6.2-2.7h.1v2h.4l1.3.1V500c2.8.5 6.2 2.5 6.2 2.5v-2.6s-3.4-1.3-6.2-1.5v-2.1h-1.3z" paint-order="markers stroke fill" style="isolation:auto;mix-blend-mode:normal"/><path id="p" fill="#e30631" fill-opacity=".996" stroke="#6c401f" stroke-opacity=".996" stroke-width=".813" d="m119.6 166-.4-1.3h-1.5l1-1-.8-1.3 1.5.3.6-1.3.5 1.4h1.5l-1 1 .7 1.3-1.4-.3z" color="#0a1a1d" paint-order="markers stroke fill" style="isolation:auto;mix-blend-mode:normal"/></defs><path fill="#012778" d="M0 0h1200v600H0z"/><path fill="#012778" d="M0 300h600V0h600v600H0z"/><path fill="#012778" d="M0 0h600v300H0z"/><path fill="#faf6f5" d="M0 0v33.5L533 300h67v-33.5L67 0zm600 0v33.5L67 300H0v-33.5L533 0z"/><path fill="#faf6f5" d="M250 0v300h100V0zM0 100v100h600V100z"/><path fill="#c40f38" d="M0 120v60h600v-60zM270 0v300h60V0zM0 300l200-100h44.7l-200 100zM0 0l200 100h-44.7L0 22.4zm355.3 100 200-100H600L400 100zM600 300 400 200h44.7L600 277.6z"/><path fill="#961538" stroke="#961538" stroke-linejoin="round" d="M745.2 486.5c-4.6-.7-8.7-2.8-13.1-7.4l-2.3-2.2-2.7 1c-14.1 4.7-30.7 8-50.6 8.3-25.7.4-47.8-3.4-60.7-9l-4-1.5-2.2 2.2a22 22 0 0 1-14.7 8c-5.1.4-12.1-2.2-15.6-5.7-1.5-1.4-1.7-2-2.4-5-.6-2.7-2.2-6.9-3.3-8.7l-2.6-3.6c-4.5-5.5-4.7-5.8-3.3-8 1.7-2.7 4.4-4.4 7.6-4.9l2-.4-1-1.8c-1.6-2.5-2.6-4.6-2.4-4.9.2 0 1.5-1 3-2 5.9-4.3 7.4-6.7 9.6-15a36 36 0 0 1 1.8-5.7c1.5-2.4 4.4-3.8 8.4-4 3-.2 4.6.1 8 1.6 6.5 3.1 13.2 8.7 18.8 15.7l2.4 3-.2 2.6c-.5 8.3-1.3 13-2.7 17.2-.5 1.6-.7 2.6-.6 2.8.4.3 8 2.7 11.8 3.6 6 1.4 13.4 2.5 21.6 3.3 5.2.5 24.9.5 29.8 0 8-.8 17.1-2.3 23-3.9a61.6 61.6 0 0 0 10.4-3.4 55.9 55.9 0 0 1-3-17l-.2-4.6 2.2-2.8c2.7-3.3 7.2-7.9 10.3-10.3 3-2.4 7.4-5 10-6 5.3-2.1 12.2-1 14.5 2.3.4.6 1.6 3.3 2.5 5.9 3.1 8.5 4.4 10.4 10.1 14.2 1.2.8 2.2 1.6 2.2 1.9s-1 2-2 4.2l-1.9 4 1.2.1c3.5 0 8 2.7 9.4 5.9.6 1.2.4 2-1 3.8l-3 3.7c-2.4 3.2-4 6.2-5 10.2-1.7 5.4-1.7 5.6-3.5 7.2-2 1.8-6.2 4-9 4.7a24 24 0 0 1-7.6.4z" color="#0a1a1d" paint-order="markers stroke fill" style="isolation:auto;mix-blend-mode:normal" transform="translate(15.723 -159.642) scale(1.3183)"/><g color="#0a1a1d" paint-order="markers stroke fill"><path fill="none" stroke="#6c401f" stroke-linejoin="round" stroke-width=".12" d="m439.7 585.5 8.3-7.5c0-3.6-2.1-6.5-5-7.6-2.4-1-4.8-1-7.6 2 .3 5.7 1.2 8.6 4.3 13z" style="isolation:auto;mix-blend-mode:normal" transform="translate(407.357 -335.206) scale(1.3183)"/><path fill="#961538" d="m449.3 596.8 2.6 4 1.8.3c-.3 2.6 1.2 6.5 1.2 6.5l-15.5 8.5c-2.7-2-5.3-4.7-7.6-8.2l-2.6-4.1c2.5-1 5-1.8 5.2-2l11.7-4.6z" style="isolation:auto;mix-blend-mode:normal" transform="translate(407.357 -335.206) scale(1.3183)"/><path fill="#cca76d" d="M452.3 600.8c6.9 1.3 14.5 2 15 9.1.3 5.5-10 9.7-16.3 10-5.4.4-10.4-2.4-14.8-6.7 5-2.5 15.4-6 16-12.4z" style="isolation:auto;mix-blend-mode:normal" transform="translate(407.357 -335.206) scale(1.3183)"/><path fill="none" stroke="#6c401f" stroke-linejoin="round" stroke-width=".12" d="M467.3 610c.3 5.4-10 10-16.3 10-7.6 0-13.8-4.1-19.2-12.1l-8.3-13.2c-4-6.3-4.6-15.8-4.8-24.3a60.5 60.5 0 0 1 18.5-17.3c4.3-2.4 8.6-4.5 14.9-2.2 4 1.4 5 4.4 5.6 7.7-.4 13.3-1.3 26.5-8.4 38.2l2.6 4c7 1.3 15 1.8 15.4 9.1z" style="isolation:auto;mix-blend-mode:normal" transform="translate(407.357 -335.206) scale(1.3183)"/><path fill="#cb8500" d="M436.7 579.6c.5 1.7 1.3 3.4 2.4 5a58.8 58.8 0 0 1-16.6 8.3l-.1-.3-.7-1.5-.2-.7-.3-.7a31.8 31.8 0 0 1-.2-.8l-.1-.3c5.4-3.2 10.4-5.8 15.8-9z" style="isolation:auto;mix-blend-mode:normal" transform="translate(407.357 -335.206) scale(1.3183)"/><path fill="#c40f38" d="M460 602.4c4 1.2 7 3 7.3 7.5.3 5.5-10 10.1-16.3 10-3 0-5.8-.6-8.4-1.9.2 0 7-1.5 10-3.4 2.2-1.4 4.6-4.5 5.4-5.6.8-1.2 1.1-4.3 2-6.3v-.3z" style="isolation:auto;mix-blend-mode:normal" transform="translate(407.357 -335.206) scale(1.3183)"/><path fill="#e17000" d="m460 602.4 2 .7c0 1.7 1 3.1.9 4.7a8.6 8.6 0 0 1-1.5 3.8 14.2 14.2 0 0 1-4.1 4 21.1 21.1 0 0 1-6 2.3c-2 .6-3.2.6-6.3 1.1a19.2 19.2 0 0 1-2.4-1c1.3-.7 3.5-1 4.7-1.5 1.3-.5 3-1.1 4.4-2a19 19 0 0 0 3-2 62 62 0 0 0 2.8-3.3c.2-.3 2.1-5 2.6-6.8z" style="isolation:auto;mix-blend-mode:normal" transform="translate(407.357 -335.206) scale(1.3183)"/><path fill="#f76230" d="M435 554.5a60.5 60.5 0 0 1 0 2.2l.1 3.3v10.5l.2 2s0 4.7.8 7.1c.7 2.1 3 5 3 5l-10.5 5.7-6 2.6-.2-.2c-2.2-6-3.5-15.5-3.7-22.3a62.4 62.4 0 0 1 16.2-15.9z" style="isolation:auto;mix-blend-mode:normal" transform="translate(407.357 -335.206) scale(1.3183)"/><path fill="#cca76d" d="M435 563a402.3 402.3 0 0 0 .3 9.5c.2 2.9.7 5.6 1.7 8.2l-16 8h-.1v-.1a36 36 0 0 1-.4-1.3v-.3a39 39 0 0 1-.4-1.5l-.2-1a53.1 53.1 0 0 1-.5-3.4v-.8a72.8 72.8 0 0 1-.2-1.6v-.1a103.6 103.6 0 0 1-.3-3.4z" style="isolation:auto;mix-blend-mode:normal" transform="translate(407.357 -335.206) scale(1.3183)"/><path fill="#edcfb7" d="M435.2 570c0 2.7.3 5.3 1 7.8-4.7 2.1-13.1 6.3-16 7.7-.2-.3-.2-.7-.3-1a53.3 53.3 0 0 1-.3-1.8v-.7l-.1-.1a70.8 70.8 0 0 1-.3-3.2v-.3z" style="isolation:auto;mix-blend-mode:normal" transform="translate(407.357 -335.206) scale(1.3183)"/><path fill="#961538" d="m438.4 583.4.7 1.1a58.7 58.7 0 0 1-16.6 8.4 23.8 23.8 0 0 1-.7-1.6z" style="isolation:auto;mix-blend-mode:normal" transform="translate(407.357 -335.206) scale(1.3183)"/><path fill="none" stroke="#6c401f" stroke-linejoin="round" stroke-width=".12" d="M435 554.5c.8 10.2-1.7 21.6 4 30a58.7 58.7 0 0 1-16.5 8.4c-3-6.2-3.6-14.7-3.8-22.5a62.4 62.4 0 0 1 16.2-15.9z" style="isolation:auto;mix-blend-mode:normal" transform="translate(407.357 -335.206) scale(1.3183)"/><path fill="#d7ccbf" d="M448.4 576.7c.9-1 2.1-2.4 3-3.7a33 33 0 0 0 5.7-10.5 10.4 10.4 0 0 0 .4-4.7 9 9 0 0 0-2.3-5 13.7 13.7 0 0 0-8.7-2.9c-2.7.2-5 1-8.6 3-1 .4-2.6 1.4-2.8 1.6v.5l.1 8.9a192.3 192.3 0 0 0 .2 8.3l.5-.4c.7-.7 1.3-1.1 2-1.5 1.6-.8 3.2-.8 5.1 0 2 .7 3.7 2.4 4.5 4.6a9.1 9.1 0 0 1 .5 2l.4-.2z" style="isolation:auto;mix-blend-mode:normal" transform="translate(407.357 -335.206) scale(1.3183)"/><g stroke="#0a1a1d" stroke-linejoin="round"><path fill="#e30631" stroke-width=".008" d="M436 571.6c1-1 2.2-1.6 3.3-1.8.3 0 .3 0 .3-.3a1835.7 1835.7 0 0 1 1-18c-.2 0-3.7 1.9-5 2.8-.6.3-.6.2-.5 1.3a323.4 323.4 0 0 1 .3 16.3v.2l.6-.5z" style="isolation:auto;mix-blend-mode:normal" transform="translate(407.357 -335.206) scale(1.3183)"/><path fill="#cca76d" stroke-width=".012" d="M443.3 570.3a3193.2 3193.2 0 0 1 2.6-20.2l-2.5.4a25.6 25.6 0 0 0-1.9.6l-1 .4v.6l-.8 17v.6h.3c.5-.1 1.8.1 2.6.4l.7.2zm5.8 5.5a39 39 0 0 0 7-10.5c1.4-3.3 1.8-5.8 1.2-8.1-.9-3.6-2.5-5.3-6-6.4a14.1 14.1 0 0 0-5.3-.7 410.3 410.3 0 0 0-2.4 17.9l-.3 2.3.6.3c2 1.1 3.4 3.1 4 5.5l.2.8 1-1.1z" style="isolation:auto;mix-blend-mode:normal" transform="translate(407.357 -335.206) scale(1.3183)"/></g><path fill="#012778" stroke="#961538" stroke-linejoin="round" stroke-width=".75" d="m1340.4 242.2 4.2-3.2 2-1.7s1-.6.8-1a7.9 7.9 0 0 0-4.7-5.8c-2.7-1-4.7-.6-6.8 1.4l-.8.7.1 1c.4 4 1.2 7.1 2.9 9.9.3.4 1-.4 1-.4l1.3-1z" style="isolation:auto;mix-blend-mode:normal" transform="translate(-778.766 112.853) scale(1.3183)"/></g><g color="#0a1a1d" paint-order="markers stroke fill"><path fill="none" stroke="#6c401f" stroke-linejoin="round" stroke-width=".12" d="m307.6 584.8-8.3-7.5c0-3.6 2.1-6.5 5-7.6 2.4-1 4.8-1 7.7 2-.3 5.7-1.3 8.6-4.4 13.1z" style="isolation:auto;mix-blend-mode:normal" transform="translate(407.485 -335.334) scale(1.3183)"/><path fill="#961538" d="m298 596-2.6 4-1.8.4c.3 2.6-1.2 6.5-1.2 6.5l15.5 8.5c2.8-2 5.3-4.7 7.7-8.2l2.5-4.1-5.2-1.9-11.7-4.7z" style="isolation:auto;mix-blend-mode:normal" transform="translate(407.485 -335.334) scale(1.3183)"/><path fill="#cca76d" d="M295 600.1c-6.9 1.3-14.5 2-15 9.2-.3 5.4 10 9.6 16.3 10 5.4.3 10.4-2.4 14.8-6.7-5-2.6-15.4-6-16-12.5z" style="isolation:auto;mix-blend-mode:normal" transform="translate(407.485 -335.334) scale(1.3183)"/><path fill="none" stroke="#6c401f" stroke-linejoin="round" stroke-width=".12" d="M280 609.3c-.3 5.4 10 10 16.3 10 7.6 0 13.8-4 19.3-12l8.2-13.2c4-6.3 4.6-15.8 4.8-24.4a60.5 60.5 0 0 0-18.5-17.3c-4.3-2.4-8.6-4.5-14.9-2.2-4 1.5-5 4.5-5.6 7.7.4 13.3 1.3 26.5 8.4 38.2l-2.6 4c-7 1.3-15 1.8-15.4 9.2z" style="isolation:auto;mix-blend-mode:normal" transform="translate(407.485 -335.334) scale(1.3183)"/><path fill="#cb8500" d="M310.7 579c-.6 1.7-1.4 3.3-2.5 4.8a58.8 58.8 0 0 0 16.6 8.4l.1-.2.7-1.6.2-.7.3-.6.3-1v-.2c-5.4-3.1-10.4-5.8-15.7-9z" style="isolation:auto;mix-blend-mode:normal" transform="translate(407.485 -335.334) scale(1.3183)"/><path fill="#edcfb7" stroke="#6c401f" stroke-linejoin="round" stroke-width=".12" d="M289.6 558c-2 12.1-7.7 15-13.2 18.3 0 0 17.5 43 97.5 42.6 68.1 0 89.8-26.2 96.7-43.7-11.5-6.3-10.5-11.7-13.2-17.3 2.6 11.3-21.9 42-83.2 42-71.7.1-85.6-35.6-84.6-42z" style="isolation:auto;mix-blend-mode:normal" transform="translate(407.485 -335.334) scale(1.3183)"/><path fill="#cca76d" d="m459.5 563.4-.4.7a45.7 45.7 0 0 1-16.6 18.7 95.3 95.3 0 0 1-27.8 13c-6.7 2.2-13.7 3.3-20.6 4-10 1.3-20.2 1.6-30.3 1.2a137.6 137.6 0 0 1-20-2.2 131.5 131.5 0 0 1-29.9-9.5c-4.8-2.4-13.6-8.5-13.6-8.5l-7.9-8.5-4.4-8.1c-2.6 7-7.2 9.4-11.6 12.1 0 0 17.5 43 97.5 42.6 68.1 0 89.8-26.2 96.7-43.7-7.7-4.2-9.8-8-11.1-11.8z" style="isolation:auto;mix-blend-mode:normal" transform="translate(407.485 -335.334) scale(1.3183)"/><path fill="#cca76d" d="M288 564.2c-2.6 7-7.2 9.4-11.6 12.1 0 0 5.8 14.3 26 26.3l-1.6-14.2c0-.5 0-7.2-.6-7.6-.6-.4-7.6-8-7.9-8.5l-4.3-8.1z" style="isolation:auto;mix-blend-mode:normal" transform="translate(407.485 -335.334) scale(1.3183)"/><path fill="#cb8500" d="M463.5 570.6c2.1 1.9 4.4 3.2 6.7 4.6 0 0-1 4.7-5.5 10.3-.4-1-1.4-2.4-1.4-2.6 0-.5-1-3.8-1-4.7l.3-5.8c0-.2.4-1 1-1.8z" style="isolation:auto;mix-blend-mode:normal" transform="translate(407.485 -335.334) scale(1.3183)"/><path fill="none" stroke="#6c401f" stroke-linejoin="round" stroke-width=".12" d="M289.6 558c-2 12.1-7.7 15-13.2 18.3 0 0 17.5 43 97.5 42.6 68.1 0 89.8-26.2 96.7-43.7-11.5-6.3-10.5-11.7-13.2-17.3 2.6 11.3-21.9 42-83.2 42-71.7.1-85.6-35.6-84.6-42z" style="isolation:auto;mix-blend-mode:normal" transform="translate(407.485 -335.334) scale(1.3183)"/><path fill="#c40f38" d="M287.2 601.7c-3.9 1.2-6.9 3.1-7.2 7.6-.3 5.4 10 10 16.3 10 3 0 5.8-.7 8.4-2-.2 0-7-1.5-10-3.4a23.3 23.3 0 0 1-5.4-5.6c-.8-1.2-1.1-4.3-2-6.2a2.2 2.2 0 0 0 0-.4z" style="isolation:auto;mix-blend-mode:normal" transform="translate(407.485 -335.334) scale(1.3183)"/><path fill="#e17000" d="m17.1 580.1-1.9.7c.1 1.7-1 3.1-.8 4.7 0 1.4.7 2.7 1.5 3.8a14.2 14.2 0 0 0 4 4c1.8 1.1 3.9 1.8 6 2.3 2 .6 3.2.6 6.3 1.1.8-.2 1.6-.6 2.4-1-1.2-.7-3.5-.9-4.7-1.4-1.3-.6-3-1.2-4.4-2a19 19 0 0 1-3-2.2c-.3-.2-2.6-2.8-2.8-3.2-.2-.3-2.1-5-2.6-6.8z" style="isolation:auto;mix-blend-mode:normal" transform="translate(763.551 -306.847) scale(1.3183)"/><path fill="#f76230" d="M312.4 553.8a61 61 0 0 0-.2 2.3 82.3 82.3 0 0 0 0 3.2v10.6l-.2 2s0 4.7-.8 7c-.7 2.1-3 5-3 5l10.5 5.8 6 2.5.2-.2c2.2-6 3.5-15.5 3.7-22.3a62.4 62.4 0 0 0-16.2-15.9z" style="isolation:auto;mix-blend-mode:normal" transform="translate(407.485 -335.334) scale(1.3183)"/><path fill="#cca76d" d="M312.2 562.4v6.6a56 56 0 0 1-.2 2.8c-.2 2.9-.7 5.6-1.7 8.2l16.1 8v-.1l.4-1.3v-.3l.4-1.5.2-.9a53.1 53.1 0 0 0 .5-3.5 72.8 72.8 0 0 0 .3-2.4v-.1l.2-3.4z" style="isolation:auto;mix-blend-mode:normal" transform="translate(407.485 -335.334) scale(1.3183)"/><path fill="#edcfb7" d="M312.1 569.4c0 2.6-.3 5.2-1 7.7 4.7 2.1 13.1 6.3 16.1 7.7l.2-1c0-.6.2-1.2.3-1.7v-.7l.1-.2.4-3.2v-.2z" style="isolation:auto;mix-blend-mode:normal" transform="translate(407.485 -335.334) scale(1.3183)"/><path fill="#cb8500" d="M283.3 571.8c-2.1 1.9-4.5 3.2-6.8 4.6 0 0 1.7 4 6.2 9.6l.8-1.9c0-.5 1-3.8 1-4.7l-.3-5.8c0-.2-.4-1-1-1.8z" style="isolation:auto;mix-blend-mode:normal" transform="translate(407.485 -335.334) scale(1.3183)"/></g><g color="#0a1a1d" paint-order="markers stroke fill"><use xlink:href="#a" stroke-linejoin="round" stroke-width=".12" style="isolation:auto;mix-blend-mode:normal" transform="translate(407.485 -335.334) scale(1.3183)"/><use xlink:href="#b" style="isolation:auto;mix-blend-mode:normal" transform="matrix(1.5221 0 0 1.5916 -108.474 -631.053)"/><use xlink:href="#c" style="isolation:auto;mix-blend-mode:normal" transform="translate(763.551 -306.847) scale(1.3183)"/><use xlink:href="#d" style="isolation:auto;mix-blend-mode:normal" transform="translate(763.551 -306.847) scale(1.3183)"/><use xlink:href="#e" style="isolation:auto;mix-blend-mode:normal" transform="translate(763.551 -306.847) scale(1.3183)"/><use xlink:href="#f" stroke-linejoin="round" stroke-width=".102" style="isolation:auto;mix-blend-mode:normal" transform="matrix(1.5221 0 0 1.5916 -108.474 -631.053)"/></g><g color="#0a1a1d" paint-order="markers stroke fill"><path fill="#961538" d="m38.9 561-.8 1.2a58.8 58.8 0 0 0 16.6 8.4 23.6 23.6 0 0 0 .7-1.6z" style="isolation:auto;mix-blend-mode:normal" transform="translate(763.551 -306.847) scale(1.3183)"/><path fill="none" stroke="#6c401f" stroke-linejoin="round" stroke-width=".12" d="M312.4 553.8c-1 10.2 1.6 21.7-4.2 30a58.7 58.7 0 0 0 16.6 8.4c3-6.2 3.6-14.7 3.8-22.5a62.4 62.4 0 0 0-16.2-15.9z" style="isolation:auto;mix-blend-mode:normal" transform="translate(407.485 -335.334) scale(1.3183)"/><path fill="#d7ccbf" d="M176.7 559.6c-28.4 20-94 31.5-139.2 3.6l.2 20.8c14.8 7.5 36 13.5 66.1 13.3 35.2 0 58-7 72.7-16.2z" style="isolation:auto;mix-blend-mode:normal" transform="translate(763.551 -306.847) scale(1.3183)"/></g><g aria-label="DESIRE THE RIGHT" style="font-feature-settings:normal;font-variant-caps:normal;font-variant-ligatures:normal;font-variant-numeric:normal"><path d="M330 717q-1.2 2-3.2 2.4-1.8.4-3.8-.7l-2.2-1.4q.9-.8 1.9-2.4l1.9-3.1q.9-1.5 1.4-3l.9.5q5.7 3.4 3 7.8zm-1.5-.8q1-1.6.6-3.1-.5-1.5-2-2.5l-4.1 6.8q3.7 1.8 5.5-1.2zm7.8 7.1-1.6 1.5-4.9-2.3q.8-.9 1.8-2.9l1.5-3.2q.7-1.5 1-3l5 2.4-1.4 1.1q-.6-1-1.7-1.4l-.6-.3-1.4 3 3 1.4-1.6 1q-.6-.8-1.9-1.4l-1.5 3.1 2.1.8q1 .3 2.2.2zm6.9 1.9q-.6 1.3-1.9 1.6-1.1.4-2.5-.2-.9-.3-1.6-1l.7-1.9.5 1.1q.4.5 1 .7.6.3 1.2 0 .7-.1 1-.8.2-.7-.4-1.7l-1.2-1.9q-.5-1.2-.1-2.2.4-1.2 1.6-1.6 1-.3 2.3.2.8.3 1.5 1l-.6 1.6-.5-1q-.3-.3-.9-.5-.6-.3-1 0-.6.1-.8.7-.3.6.4 1.7l1.1 1.9q.6 1.2.2 2.3zm3.6 4.1-2.1-.7q.7-1.1 1.1-2.3l1.4-4.3q.6-1.6.7-3l2 .8q-.7 1.1-1.2 2.7l-1.4 4.2q-.4 1.3-.5 2.6zm10 3-1.7-.5q-1.2-2-2.4-5.4l-.4 1.3q-.5 1.7-.5 3.2l-2.2-.6q.6-1 1.2-2.8l1.1-4.1q.4-1.2.4-2.8l1.1.3q2 .5 3 1.2 1.3 1.1.8 2.9-.4 1.6-2.6 1.9.8 2.6 2.3 5.4zm-1.2-7.7q.5-1.8-1.7-2.6l-1.1 4q1 .1 1.7-.2.9-.3 1.1-1.2zm9.4 7.5-1.2 1.7-5.2-1.1q.6-1 1-3.2l.9-3.4q.3-1.7.3-3.2l5.4 1.2-1.1 1.4q-.9-.8-2-1l-.7-.1-.7 3.1 3.2.8-1.3 1.3q-.8-.6-2.1-1l-.8 3.4 2.2.3 2.1-.2zm15.3-7.3-.6 1.7q-.8-.4-1.4-.5l-1.4-.2-.3 6q-.1 2.3.2 3.5l-2.4-.1q.4-1 .6-3.6l.2-5.9-1.7.1q-1 0-1.7.3l.7-1.7zm10.2 10.6h-2.3q.3-1.3.3-2.1v-2.7h-4.6v1.5q0 1.7.4 3.4H382q.3-1.3.3-3.1v-4.2q-.1-2-.5-3.4h2.4q-.4 1.5-.4 2.6v2l4.6-.1v-1.4q0-1.6-.4-3.1h2.4q-.4 1.3-.4 3l.1 4q0 2.1.4 3.6zm9.6-2.7-.8 2.1-5.6.4q.3-1.2.1-3.6l-.2-3.7q-.1-1.7-.6-3.3l5.8-.4-.7 1.7q-1-.5-2.3-.4h-.7l.2 3.5 3.5-.2-.9 1.8q-1-.4-2.5-.4l.2 3.7 2.3-.4q1.2-.2 2.2-.8zm16.4-.6-1.8.4q-2.2-1.3-4.9-3.9l.3 1.5q.3 1.7 1 3.1l-2.3.5q.2-1.2-.2-3.1l-.9-4.3q-.2-1.3-1-2.8l1.2-.3q2.2-.4 3.3-.2 1.8.4 2.2 2.2.3 1.8-1.5 3 2 2 4.6 4zm-4.8-6.5q-.4-1.8-2.8-1.5l.8 4.1q1-.3 1.6-.9.6-.7.4-1.7zm8.7 5.5-2.2.6q0-1.5-.4-2.7l-1.1-4.5q-.5-1.7-1.1-3l2.2-.5q0 1.4.4 3l1.2 4.5q.3 1.3 1 2.6zm9.6-8.5q0 .9.2 1.5l.4 1.4q.3 1 .7 1.7-1.6 1.2-3.2 1.7-2.3.8-4.1 0-2-.9-2.7-3.1-.8-2.4.2-4.4 1-2 3.4-2.7 1.1-.4 2.6-.5l.6 1.7q-1.6-.4-3.1 0-1.6.6-2.2 2.1-.5 1.4 0 3 .6 1.7 1.8 2.5 1.3.8 2.9.3.8-.3 1.8-1.1l-.4-1.3q-.4-1.2-1-2zm11.9.3-2.1 1q-.2-1.3-.6-2l-1-2.4-4.1 2 .6 1.1q.7 1.6 1.7 2.9l-2 1q-.3-1.3-1-3l-1.8-3.6q-.8-1.7-1.7-2.8l2-1q.3 1.4.8 2.4l.8 1.8 4-2-.5-1.2q-.7-1.4-1.7-2.6l2.1-1q.3 1.4 1 2.9l1.6 3.5q1 1.9 1.9 3zm3.3-14.3.5 1.7q-.8.1-1.4.4l-1.2.6 3 5q1.3 1.9 2.3 2.7l-2 1.2q-.3-1-1.6-3.1l-3-4.9-1.4 1-1.2 1.2-.4-1.7z" style="font-feature-settings:normal;font-variant-caps:normal;font-variant-ligatures:normal;font-variant-numeric:normal" transform="matrix(1.60215 -.01667 .01796 1.62571 271.006 -711.78)"/></g><g color="#0a1a1d" paint-order="markers stroke fill"><path fill="#d7ccbf" d="m28.8 554.4-3-3.6a33 33 0 0 1-5.7-10.5 10.4 10.4 0 0 1-.4-4.8 9 9 0 0 1 2.3-5c1-.9 2-1.4 3.8-2 1.7-.6 3.2-.8 5-.8 2.6 0 5 .9 8.6 2.9l2.7 1.6v.6l-.1 8.8a194.9 194.9 0 0 1-.2 8.3l-.4-.4a7.7 7.7 0 0 0-2.1-1.5c-1.6-.8-3.1-.8-5.1 0-2 .8-3.7 2.4-4.5 4.6a9.2 9.2 0 0 0-.5 2l-.4-.2z" style="isolation:auto;mix-blend-mode:normal" transform="translate(763.551 -306.847) scale(1.3183)"/><g stroke="#0a1a1d" stroke-linejoin="round"><path fill="#e30631" stroke-width=".008" d="M41.2 549.3c-1-.9-2.2-1.6-3.2-1.8-.4 0-.4 0-.4-.3a1993.3 1993.3 0 0 0-.9-18l5 2.8c.5.3.5.2.4 1.3a323.3 323.3 0 0 0-.2 16.3l-.1.3-.6-.6z" style="isolation:auto;mix-blend-mode:normal" transform="translate(763.551 -306.847) scale(1.3183)"/><path fill="#cca76d" stroke-width=".012" d="M34 548a3614 3614 0 0 0-2.7-20.2l2.6.4 1.8.6 1 .4v.6l.8 17v.6h-.3c-.4 0-1.7.1-2.6.4l-.6.2zm-6 5.5a39 39 0 0 1-6.8-10.5c-1.5-3.3-1.8-5.8-1.3-8 .9-3.7 2.5-5.4 6-6.5a14 14 0 0 1 5.3-.7l1 7.8a6617.7 6617.7 0 0 0 1.4 10.1l.3 2.3-.6.3a8 8 0 0 0-4 5.5l-.2.8-1-1.1z" style="isolation:auto;mix-blend-mode:normal" transform="translate(763.551 -306.847) scale(1.3183)"/></g></g><path fill="#012778" stroke="#961538" stroke-linejoin="round" stroke-width=".75" d="M1206.7 243.1a56.6 56.6 0 0 1-6.6-5.4 6.6 6.6 0 0 1-1-1.3l.2-.9a7.9 7.9 0 0 1 4.8-5.7c2.6-1 4.7-.6 6.8 1.4l.8.7-.1 1a23.7 23.7 0 0 1-3.7 11l-1.2-.8zm-16.4 17.8c-.4-.5-2.3-4.4-2.6-5.4-.3-1.1-1-3.4-1-4.2l-.1-.4 1 .9a80.1 80.1 0 0 0 8.3 7l-.8 1.3a40.9 40.9 0 0 1-4.8.8z" color="#0a1a1d" paint-order="markers stroke fill" style="isolation:auto;mix-blend-mode:normal" transform="translate(-778.638 112.725) scale(1.3183)"/><g color="#0a1a1d" paint-order="markers stroke fill"><use xlink:href="#a" stroke-linejoin="round" stroke-width=".12" style="isolation:auto;mix-blend-mode:normal" transform="matrix(-1.3183 0 0 1.3183 1392.538 -334.29)"/><use xlink:href="#b" style="isolation:auto;mix-blend-mode:normal" transform="matrix(-1.5221 0 0 1.5916 1908.497 -630.008)"/><use xlink:href="#c" style="isolation:auto;mix-blend-mode:normal" transform="matrix(-1.3183 0 0 1.3183 1036.472 -305.802)"/><use xlink:href="#d" style="isolation:auto;mix-blend-mode:normal" transform="matrix(-1.3183 0 0 1.3183 1036.472 -305.802)"/><use xlink:href="#e" style="isolation:auto;mix-blend-mode:normal" transform="matrix(-1.3183 0 0 1.3183 1036.472 -305.802)"/><use xlink:href="#f" stroke-linejoin="round" stroke-width=".102" style="isolation:auto;mix-blend-mode:normal" transform="matrix(-1.5221 0 0 1.5916 1908.497 -630.008)"/></g><path fill="#012778" stroke="#961538" stroke-linejoin="round" stroke-width=".7" d="M1356.3 261.7c.3-.4 2-4.3 2.3-5.2l1.2-4v-.4l-.8 1a77.1 77.1 0 0 1-7.8 6.9l.7 1a35.1 35.1 0 0 0 4.4.7z" color="#0a1a1d" paint-order="markers stroke fill" style="isolation:auto;mix-blend-mode:normal" transform="translate(-778.638 112.725) scale(1.3183)"/><path fill="#2d86cf" fill-rule="evenodd" d="M899 441.7s-127.4-32.4-126.7-155.5l1-162.8h251.4l1 161.9c.8 123.1-126.7 156.4-126.7 156.4z"/><path fill="#0a1a1d" stroke="#0a1a1d" stroke-width="2.987" d="M346.3 143c-.8-.2-1.2-.6-1.2-1.1 0-.3-.2-.4-.4-.4-.1 0-.4-.1-.6-.4-.3-.4-.2-.5 1.1-2l1.4-1.6.7-2.8a114 114 0 0 0 1.8-9.8c-1.5-.2-2.2-2.8-4.4-3-2.4 0-3.4-4.3-4-4.5-1.7-.5-4.8-1.2-7.7-4.1-2.6-2.7-2.8-3-4.3-6.2a25 25 0 0 0-1.7-3.1l-1.1-1.6-.2-3.5-.6-5.1c-.4-1.8-.4-2.3.3-5.4.4-1.6.5-2.3.3-5.2l-.1-3.3-1.1-1.2a7.3 7.3 0 0 1-2.2-5.1c-.3-3.2-1.5-6.1-3.8-6.8a24 24 0 0 0-5 0c-5.8.1-7 .9-7.4-1.2 0-.5-.3-1-.6-1.3-.3-.4-.5-1-.7-2.6l-.2-2.2.7-1c2-2.6 9-9.9 14.7-15 .7-.6 1-1 1-1.6.2-1 .6-1.5 1.7-1.7 1.6-.3 1.7-.3 2-1 .5-.7.8-.8 2-.4.6.2.7.2 1.2-.2.4-.4.7-.4 3.1-.4 2.3 0 2.8.1 3.5.5.4.3 1.5.8 2.4 1l2 1 1.6.8a35 35 0 0 1 6.6 3.9 26.6 26.6 0 0 0 3 2 41.5 41.5 0 0 1 10.7 8.5c.6.2 1.4.8 2 1.3l1 .9 3.4.3a136.9 136.9 0 0 0 34.4-.4 92 92 0 0 1 17.6-1.3c5 .1 6 .3 8 1 2.8 1.2 7.6 4.5 10.2 7a35 35 0 0 1 7 20.7c-.4 2.3-1 2.6-2 1-.9-1.9-1.3-2.7-1.4-2.6l.1 1.6c.2 1.1.2 1.8 0 2.6-.4 2-.3 2.5.9 4.9L443 95l-.2 2.2-.2 3.5v1.3l-1 .4c-1 .4-1 .4-.9 1.2.7 2.9-.3 5.8-2.5 7.3l-1.2 1c-.1 1.4.7 7 1.3 9.2.5 1.7.6 3.3.3 6-.3 2-.6 2.8-2 5l-.7 1.4.5 1.6c.3.9.5 2 .5 2.4 0 .7 0 .7-1 1-1.7.4-3.3.4-3.9 0-.3-.2-.7-.3-1-.3-.3.1-.6 0-.8 0-.3-.2-.2-.6.5-2.2.8-2 1.8-5.4 2-7.2.1-.5 0-2-.2-3.5-.4-3.3-1.2-5-3.4-7.7a9.3 9.3 0 0 0-3-2.7l-1.6-.8c-.1 0-.5.7-.8 1.6-.6 1.8-1 2.2-2 2.6-.6.2-.6.2-.5 1.8 0 1 .4 2.5.7 3.6l.6 1.9-1 2-1.3 3.3c-.4 1.4-1.3 3-2 4.2l-.6.9.5 1.6.5 2.3c0 .8 0 .8-1.1 1-1.9.5-3.3.4-4-.1-.4-.4-.6-.4-.8-.2-.1.3-1 0-1-.2l.7-2c.9-2.3 1.4-4.4 2.3-9l.7-3.4-.5-1.3c-.8-2.4-3.2-7-4-7.6-.3-.3-.9-.6-1.2-.6-.5 0-1-.3-1.7-1.1l-1-1.2-2 1c-1.2.5-2.2.9-2.8.9l-2.3.1c-1.4.1-1.6.2-1.8.8-.8 1.4-1.4 1.6-2.7.7l-.8-.5-.6.5c-.6.4-.8.4-2 .3-1.3-.1-1.6 0-2.3.3-.7.4-1 .5-1.9.3a12.8 12.8 0 0 0-2.1-.1 4.9 4.9 0 0 1-2.1-.4c-.8-.4-1.2-.4-1.9-.2a26 26 0 0 1-7.8-.4c-1-.3-1.3-.3-2-.1-1.2.4-2 .2-2.4-.6-.9-1.5-2-.4-1.8 1.8 0 1.4-.4 2-1.8 2-1 0-1 0-1.4.6-.2.3-.6.7-1 .9-.4.2-.4.3-.3 2a11.4 11.4 0 0 1-.2 3.3 34 34 0 0 0-1 6.8l-.1 2.7 1 2 .8 2.3c0 .2-.3.5-.7.8a7 7 0 0 1-4.7 1c-1.3 0-1.5-.2-2.3-1l-1-1 1.2-1.6c1.5-2.3 1.8-3.4 1.8-8s-.3-8.9-.7-9.1c-.3-.2-1.2 1.5-1.3 1.7 0 0-1.7 0-2 2.5-.5 5-1 7-2 9.7l-.9 1.8.7 1.9c.8 2 .7 2.2-.8 3-1 .4-3.6.5-4.8.1z" color="#0a1a1d" paint-order="markers stroke fill" style="isolation:auto;mix-blend-mode:normal" transform="translate(403.423 82.951) scale(1.3183)"/><g color="#0a1a1d" paint-order="markers stroke fill"><path fill="#e17000" d="m67.6 60.9.4 1.8-.3 1.8-.5 2.3 1.3.2.5-1.3.3-1.3.1-2.3v-1.4z" style="isolation:auto;mix-blend-mode:normal" transform="translate(535.4 -59.232) scale(4.82918)"/><path fill="#9d7a51" d="M261 231.7h-4.7c.3.7.1 1.5 1 2.6l2.3 2.6c.4.4.6 1.1.6 2.3v3.7c0 1.6-.8 4.5-1 5.3l-1.7 4.5s1.1-.4 1.7-.2l1.8-4.1.8-5 .7-8.6-.2-2.4z" style="isolation:auto;mix-blend-mode:normal" transform="translate(535.4 -59.232) scale(1.27772)"/><path d="m67.2 66.8-.8.9.2.3.5-.4-.4.5c.3.3.7.4 1.4.4.4-.1.6-.2.8-.5l-.4-1z" style="isolation:auto;mix-blend-mode:normal" transform="translate(535.4 -59.232) scale(4.82918)"/><path fill="#d7ccbf" d="m67.5 67-.6 1c.5.6 1.7.5 1.7 0-.6.2-1 .3-1.5-.2z" style="isolation:auto;mix-blend-mode:normal" transform="translate(535.4 -59.232) scale(4.82918)"/></g><g color="#0a1a1d" paint-order="markers stroke fill"><path fill="#d7ccbf" d="M339 116.1c1 .5 2.8 4 2.8 4s1 1.8 1.8 2c.8.2 0-.8 1.8.5 1.7 1.3 4 2.2 4 2.2l3.2-.1s3.3-.7 4-1c.6-.3.9.2 1.4-1.6.4-1.8 1-2 1.3-4.5s.1-6.6.1-6.6l-.6-2.8h-4.4l-5.8.3-4.2-.3-2 2.8z" style="isolation:auto;mix-blend-mode:normal" transform="translate(403.423 82.951) scale(1.3183)"/><g fill="#cca76d" stroke="#0a1a1d" stroke-linejoin="round" stroke-width=".25"><path fill="#edcfb7" stroke="#6c401f" stroke-width=".666" d="m-239-7.7-3.1-4.6-4.3-7.1c-1.9-3.1-1.8-4.4-3.5-6a17 17 0 0 0-6.8-4 35.5 35.5 0 0 0-28.6 4.9c-.8.6-5.8 5.6-5.8 5.6l-3.4 3.3c-.7 1-4 4-5.1 4.8-1.1.8-4.5 5.3-5.2 6l-2.2 2c-1 1-1.6 2.3-2 2.8l-1.2 2s0 2.1.4 3.3c.2 1.2-.1 4 .9 5.7.5.9 2.3 1.9 2.3 1.9 6 .1 12 .9 11.5-3-1.2 2.9-6.8 5.7-11.5 3l-.5 2c.2 1 .2 2 1.4 2.7 3.3 1.6 6 1.8 8.7 2l7.7-1.1c2.6-.3 10-.4 13.4 3.5 2.5 2.8 7.3 12 6.3 15.4l33-.9V11.2l-.7-13.5z" style="isolation:auto;mix-blend-mode:normal" transform="translate(1000.821 159.586) scale(.63366)"/><path fill="#cca76d" stroke="none" d="M-284.6-24.5c-1 .8-1.2 1.3-2.8 2.5-1.7 1.2-3.1 2.7-6 5.9-3 3.2-5.8 4.4-3.3 5.7 2.5 1.2 1.6 2 2.2 3 .6.9.3 2.8 1.5 5.7 1.1 3 6.8 3.4 6.8 3.4s4.5 1 4.8-.7c.3-1.5-1.4-4.7 1.6-5 3-.4 4.1 1.7 6.1-.6s1.2-6.8 3.5-8.4c2.4-1.6 3-2.7 3-2.7s-4.7 1.1-6.3 1.1c-1.5 0-6-1.8-6.5-3.2-.5-1.5-1.4-7.8-1.4-7.8z" style="isolation:auto;mix-blend-mode:normal" transform="translate(1000.821 159.586) scale(.63366)"/><path fill="#0a1a1d" d="m-310 4.9 1.7-2.1c1.1 0 1.6.4 2 1 .6.3 1.2.5 1.7-.2l-.1-2c.9.6 1.6 1.3 1.7 2-.3 1-.8 2-3 2.3-1.2.3-2.6 1.5-3.5 3-.1-1.6-.1-3-.4-4z" style="isolation:auto;mix-blend-mode:normal" transform="translate(1000.821 159.586) scale(.63366)"/><g stroke="none"><path fill="#edcfb7" d="M-297-12.3c2 1.5 3.2 1.2 3.4 4.2.2 3-.6 2.7 0 3.4.5.8 2.9 2.4 3.3 4.3.5 1.8.6 2.9.3 4-.2 1.2-.5 2.2-.4 2.8l1 3s-2-.5-2.6-2.4c-.7-1.8-.7-.7-3.4-2-12.9 18-5.8-6-6.4-7-.6-.9-3.6-2.3-3.6-2.3 2.8-2.8 6-7 8.5-8z" style="isolation:auto;mix-blend-mode:normal" transform="translate(1000.821 159.586) scale(.63366)"/><path fill="#cca76d" d="M-263.2-6.6c-.6 1-1.4 3-3.2 4-1.8 1-5.7 1.9-7.3 1.9-1.7 0-3-1.9-4 .2-1.1 2-1.7 2.8-2.3 4.6-.6 1.9-3.9 1.9-4 3-.3 1.3-1.3 2-1.5 4.3-.2 2.5-.6 4.5-.6 4.5s1.6-4 3.6-4.3c2-.2 2.3 0 5-.2s4.6-.4 6-2.2c1.4-1.8 4.3-3.4 6.5-3.6 2.2-.3 4.3-.7 5.3-3.3s1.8-2.6 1-4.7c-.8-2-4.5-4.2-4.5-4.2zM-276-21.8c2.6 0 2.4-.3 3.7 0 1.3.3 2.2 1 2.9 2 .7 1 .3 1.9 2 2 1.7.2 2.9.9 2.9.9s.5 1.4 1.1 1.3c.6-.2.7-2.9.7-4.2 0-1.3-1.3-3.7-1.3-3.7l-2.5-1.5-2.7-.8c-1.7-.4-2 .4-2.8.4-.9 0-1.3-.4-2.3.7a45.2 45.2 0 0 0-1.9 2.3z" style="isolation:auto;mix-blend-mode:normal" transform="translate(1000.821 159.586) scale(.63366)"/></g></g><path fill="#6c401f" d="m318.8 50.5.9-1.1c.2-.3.5-.6.8-.7.6-.2 1.3 0 1.8.2.4.2.7.3 1 .9.3.6 0 .5.4.8l.5.3-.8.4-1.3.7-1 .3c-.5 0-1-.4-1.3-.6l-.6-.2s-.3 0-.5.3l-.5.9-.5 1-.2.3-.1-.8v-1c.1-.4.6-1.1.6-1.1z" style="isolation:auto;mix-blend-mode:normal" transform="translate(403.423 82.951) scale(1.3183)"/></g><g color="#0a1a1d" paint-order="markers stroke fill"><path fill="#e17000" d="m70.2 62 .2 2V66l-.1.7h1.2v-.6l.1-1.5V63l-.3-.8z" style="isolation:auto;mix-blend-mode:normal" transform="translate(535.4 -59.232) scale(4.82918)"/><path fill="#9d7a51" d="M70.3 62.8v1c.2.3.8.2 1 .6l.2 1v-.6l.2-.5.2-.9-.4-2.5s-1.6 0-1.6.2l.4 1.7z" style="isolation:auto;mix-blend-mode:normal" transform="translate(535.4 -59.232) scale(4.82918)"/><path d="m70.2 66.8-.7 1 .3.3.4-.5-.3.6c.3.2.7.3 1.3.2.5-.2.7-.3.8-.6l-.5-1z" style="isolation:auto;mix-blend-mode:normal" transform="translate(535.4 -59.232) scale(4.82918)"/><path fill="#d7ccbf" d="m70.6 67-.6 1.1c.6.5 1.8.2 1.8-.2-.7.2-1 .4-1.5 0z" style="isolation:auto;mix-blend-mode:normal" transform="translate(535.4 -59.232) scale(4.82918)"/></g><g color="#0a1a1d" paint-order="markers stroke fill"><path fill="#e17000" d="M84.4 59c.2 1 .5 2 .9 2.7l1 2-.4 1.3-.3 1.6 1.2-.2s.6-.8.7-1.4.6-1.2.6-1.4l-.3-1v-3.7z" style="isolation:auto;mix-blend-mode:normal" transform="translate(535.4 -59.232) scale(4.82918)"/><path fill="#9d7a51" d="m331.7 222.5-9.5.3c1 2.2 1.8 4 3.2 6 1.8 2.6.8 1.8 2.5 5.2 1.7 3.4 1.1 3.9 2.4 5.4 1.3 1.6 1.6 2.9 1.6 2.9l1.2-1.7v-.3c0-.9-1.2-3.9-1.2-3.9l-.3-6.8.1-7.1z" style="isolation:auto;mix-blend-mode:normal" transform="translate(535.4 -59.232) scale(1.27772)"/><path d="m85.8 66.8-.2 1c.3.3 1 0 1.6-.1l-.4-1.3-1.2.1-.5 1.2c.2 0 .4.1.4 0z" style="isolation:auto;mix-blend-mode:normal" transform="translate(535.4 -59.232) scale(4.82918)"/><path fill="#9d7a51" d="m86.8 66.7.3.9c-.5.2-1 .3-1.3 0l1-.1z" style="isolation:auto;mix-blend-mode:normal" transform="translate(535.4 -59.232) scale(4.82918)"/></g><path fill="#d7ccbf" d="M405 110.1c1 .5 2.8 4 2.8 4s1 1.8 1.8 2c.8.2 0-.8 1.8.5 1.7 1.3 4 2.2 4 2.2l3.2-.1s3.3-.7 4-1c.6-.3.9.2 1.4-1.6.4-1.8 1-2 1.3-4.5l.1-6.6-.6-2.8h-4.4l-5.8.3-4.2-.3-2 2.8z" color="#0a1a1d" paint-order="markers stroke fill" style="isolation:auto;mix-blend-mode:normal" transform="translate(403.423 82.951) scale(1.3183)"/><g color="#0a1a1d" paint-order="markers stroke fill"><path fill="#e17000" d="M89 59.9c.3.8 1.1 1.6 1.3 1.9l.5.8c0 .8.3 1.5.2 2l-.4 1.4 1.2-.1.4-.8.4-.8v-1.2l-.3-1.7-.7-1-.6-.7z" style="isolation:auto;mix-blend-mode:normal" transform="translate(535.4 -59.232) scale(4.82918)"/><path fill="#9d7a51" d="M89.4 59.6c.2.5 1 1.5 1.4 1.6.4.2.4.5.4.5l.1.7c0 .5-.2.7.2 1.1.3.4.7.5.7.5l.4.2v-1.4l-.2-.8-.1-.9L92 60l-1.2-.7z" style="isolation:auto;mix-blend-mode:normal" transform="translate(535.4 -59.232) scale(4.82918)"/><path d="m90.8 66.1-.2 1c.4.3 1 .1 1.7 0l-.4-1.3h-1.3l-.5 1.2c.3.1.5.2.5 0z" style="isolation:auto;mix-blend-mode:normal" transform="translate(535.4 -59.232) scale(4.82918)"/><path fill="#9d7a51" d="m91.8 66 .3 1c-.4 0-.9.2-1.3 0l1-.2z" style="isolation:auto;mix-blend-mode:normal" transform="translate(535.4 -59.232) scale(4.82918)"/></g><g fill="#d7ccbf" color="#0a1a1d" paint-order="markers stroke fill"><path stroke="#d7ccbf" stroke-linejoin="round" stroke-width=".12" d="M316.4 46c1-1.4 1.6-1.5 2.5-2.3l1.6-1.4s0-1.5.4-2c.8-.8 3.2-.8 3.2-.8s0-1.2.5-1.4c.8-.4 2.5.7 2.5.7s.5-1.1 1-1.3c.8-.3 2.7.7 2.7.7s1.2-.7 1.9-.7c.9.1 1.4 1 2.4 1.4 1 .3 2 .4 3 .9.5.2 1.3 1 1.3 1l2.2.8c.8.3 2 1.2 2 1.2l1.4.7c1 .6 2.8 2.3 2.8 2.3a52 52 0 0 0 5 2.7 202.5 202.5 0 0 0 4.5 3.9s1.4.5 1.8 1c.4.5.3 1.5.6 1.7.3.2 1.5.4 2.1.8.7.4 1.7 1.7 1.7 1.7 10.5 1.4 21.4 1.7 32.8.8 0 0 13-2.2 19.5-2.3 4 0 8.3-.2 12 1.2 4.3 1.5 11 7.6 11 7.6l3.5 6.2 2.3 7c1.9 6.5-.5 11.8-1.6 7.1-.7.6-2.5-6.1-2.4-6.3l-.7-3.7 1.2 7.1 1 4-.6 2.4-.6-1.4.6 3.2 2.1 3.7V96l-.3.5-.1 5.1-2.2.7c.6 1.7 1 3.3.5 4.7l-1.4 2.7-2.6 1.6c0 1.2.4 2.4-.7 3.5-1 .2-1.8 1.2-3-.2 0 0-1 1.3-1.8 1.3-.7 0-2-1.1-2-1.1l-2.1.3-2.9-1.5-2.2 1h-1.5l-3.6-2.5s-3-.7-3.4 0c-.3.7-1.8 1-1.8 1l-2.9-.9-2.7.8-1.3 1-2.2 1.6-2.1-.3s-2.5-.3-2.7.4c-.3.7-.6 2.1-1.5 2.3-1 0-2.2-1.9-2.2-1.9s-.6 1.2-1.1 1.4c-1 .4-3-.3-3-.3s-1 1-1.8 1.2c-.8.1-2.3-.7-2.3-.7s-1.1.6-1.7.5c-.8-.1-2-1.3-2-1.3s-1.6.6-2.4.7c-1.1.1-3.4-.4-3.4-.4s-1 .4-1.5.4c-1.1 0-2-1-3-1.2-.6-.1-1 1-1.4 1-.8 0-1.5-.5-1.5-.5l-.5-1.1-.8-.3-.5.3c.7 1-.3.7-.6.9l.5 1.7c-.2.6.3 1.3-1.5 1.8 0 0-1.5-.5-1.6 0-.1.6-.7 1.3-.7 1.3s-2 0-1.8.4c.3 1 .7 1.8 0 2.7 0 0-1.6.5-2.4.4-.7-.1-1.8-1.2-1.8-1.2l-.7-2s-2.4-.2-3.3-.8c-1.1-.6-2.3-3-2.3-3H346c-.5 0-5.9.1-8.5-1-2-.8-5-4-5-4s-2.4-2.3-3.2-3.7c-.5-.9-1-2.9-1-2.9l-1.3-2.1s-1.4-1.7-1.7-2.8V100l-.3-5.2s-.8-2-.8-3.1c0-1.4 1-4.2 1-4.2l.3-2.9-.4-2.8s.2-1.4 0-2c-.4-1.2-1.7-1.7-2.3-2.7a7 7 0 0 1-1-2.4c-.1-.8.2-1.6.1-2.4-.2-1.1-1.2-3.1-1.2-3.1l.5-1s3.3-3.3 4.3-3.3 3.2.5 4.4-.2c1.6-1 2.9-3 2.8-4.7-.2-1.8-2.7-2.7-3.3-4.4-.8-1.9-.8-6.1-.8-6.1l-1-2.5-1.5-1.7-4.2-.8z" style="isolation:auto;mix-blend-mode:normal" transform="translate(403.423 82.951) scale(1.3183)"/><path d="M328.1 92.5c2.8.3 3.7.5 6-.1 2.2-.7 4.4-1.7 4.4-1.7s-1.3 2-2.4 2.5c-1 .6-2.8 1.7-2.7 2 .1.5.2.2 1.8-.4 1.5-.6 4.6-2.2 2.2.6-2.3 2.7-3.4 3.1-3.6 3.7-.2.6-1.3 2-1.2 3 .1.8 3.8-.6 3.8-.6s-1.5 1.2-3 2.8l-2.4 2.2s-1.8-1-1.9-4.5c0-3.5-1.2-7.3-1.4-8-.2-.9 0-1.8 0-1.8z" style="isolation:auto;mix-blend-mode:normal" transform="translate(403.423 82.951) scale(1.3183)"/><path d="M330.5 104.6c-.3.1-.1-.4-1.3-.4l-2.2-.2.1.2 1.4 2.1s.4 2 .9 2.9c.8 1.4 3.2 3.6 3.2 3.6s3 3.3 5 4.1c2.6 1.1 8 1 8.5 1h3.2l-.7-1.4c-1.3-3.7-1.8-2.5-2.7-3.4-.9-1-1-.5-2.5-2.8-1.6-2.2-4.8-1.1-4.8-1.1s-2.5-.2-4.1-1.6c-1.6-1.4-.6-.4-2-2-.5-.6-2 2.2-2-1z" style="isolation:auto;mix-blend-mode:normal" transform="translate(403.423 82.951) scale(1.3183)"/></g><path fill="#faf6f5" d="m836.3 134.3-2 3c-.5.6-2.6.8-3.1.8l-3 1.7 4.5.1 3.8 3.5 3.3 6.1-1.4-6.2 5.4 1.4s.2 3.5-.1 4.2l-2.6 5.3c-.5 1.3 4.6 5.1 4.6 5.1v-4l6.3-4 4.9-3.7 3.5 2.7s3.5 5.5 3.5 6.2l-.7 1.6a37.6 37.6 0 0 0-7.8 10.3c-1.5 5.6-10.7 1.6-4.5-2.3l5.7-7.2c-3.4 1.6-8.6 1-11.7 3-4.2 3.4-11.6 8.9-15 10 1.5 0 3-.2 4.4.2 6.8-1.1 2.4 5-2 4-6.4-.2 1.1 3 3.8 2 3.8-.3 12 0 6 4.4 7 3.2 12.7-2.2 18.2-5.4 1.8 1.8-5.6 7-7.8 9.2-3.5 4.6-8.5 4.3-13.4 4.2-2.6 2.1 3.3 1.3 4.7 1.4.3 4-14.7 2.3-8.6 8.3 6 .5 12.4 1 18.3-1 4.7-1.6.6 2.1-.6 3.5 2 3 8.2-2.2 11.7-2.5 2.4 5.2-7.2 5.6-10.4 8.6 3.2.4 13.7.4 17.4-5 4.4-4 6 2.3 2.4 4.7-4.4 3.6-10.1 7.4-15.5 7.7-7-4.8-6 3.7-11.1 6.8 8.2 1.3.6 3.2 4 4.6 6.6 1.5 10.5-6.4 16.5-2.2 5.3 4.3 1.2-9.6 5.6-6.8-1.7-6.3 6.6-4.3 6.9.5.6 4.4 3.6 3.3 2.9-.7.3-3.3-.2-6.4-2.6-9-2-5.8 8-3.7 6.4 1.9 2.3 8.6.7-9.7 4.2-6 3.5 4.3 1.4 12.6 6.5 15.3 4.1-1.8 8.4 5 10.8 2.3 4.4-4.8.5-12.4 1-18.3 3.2-3.2 4.4 3.6 3.3 6.2.2 4.6-.4 9.3.4 13.8 1.9-1 3.6-6.8 4.1-10 .4-4-2.3-11.3 4.5-10-.3 4.7 1.6 7.5 5.3 10.1 4.6 5.2-1.6-8.2 4.1-4.7 1.3 1.6 5.2 13.2 5 7.4 1.3-6-1.1-11.5-1.2-17.4 3-1.3 5.9 6 6.4 9.3 2 0-3.3-10.3-1.7-10 5.6 2.5 8.6 8.1 10.4 13.8 2.6 7-.4-3.7-.8-6.2 3 5.3 6 10.7 8.2 16.5.3-4-.4-7.8-1.4-11.5-1.6-8.4 4.2-.4 5.8 2.8 4 4.2 5.5 9.7 7.7 14.8.8 4.4 1.7.2 3.2-1.2 4.6-5.3-1.1-11.5-1.2-17.5 1.5-6 3.3 4.1 3.7 6.2 2.2.5 3.9 11.4 4 7l.2-2.4c.2-2.7.3-5.4.2-8.2 8.8 7.8 5.3-12.8-1.3-24.1-2.1-5.3 2.3 0 2.6 2.5 5 1.5-1.4-9.9 3.3-8 2.2 7 .5-3.5 0-5.7-4.5-4.5-8.7-11.7-15.9-12.5l1 1c0 .3.5.8 1.1 1.4l-.1-.2.2.3c2 2 5.7 5.4 6.6 7.6 2 7.3-6.3-1.8-8-1.1 3 5.9-2.3 2-4.5 0-3.6-4-5.3-10.4-11.2-11.6-2.1 1.9 5.4 6 7 8.7 1.7 1.5 6.4 10.1 3.4 8.9l-1.5-1c-3.4-1.7-9-5.2-11-9-4.6-5.4-2 1.5 1.2 3.3.3 2.6 5 13-.3 10.2-5.7-4.3-7.2-11.3-11.4-16.7-1.5 1 1.8 8.6 1.2 12.3 1.1 6.8-2.9 1.7-4.5-1.5-4-1.9-2-10.7-5.2-10.6-1.6 4.7-1.7.9-3-1.6-1.9 3.9-.9 8.2-1.2 12.4.4 7.5-3.6-1.2-4.5-4.1.4-4.6-1.8-4.2-2.5-.1-.4 8.6-5.6-.7-5.3-4.3 2.2-5-6.9-8.5-6.4-2.8 2 4.8 3.5 12.3.3 17.4.9-6.6-6.2-11-5.1-17.8-1.6-5.3-3.4-.5-3.9 2.5.4 5.8-1.6 9.4-5.2 13.7-3.3 5.4-2.5-1.7-3.3-4.2-2-9-.9 4.1-3 6.6-2.6-3.2-2.8-10.5-2.7-15.4 2-6-2 .8-2.4 1.5l-.3.5c-3.4 7.7-3-2-3.4-5.5-.1-4.5-.7-.8-1 1.2v.4c-.7 2.3-.4 14-3.6 8-1.5-1.6-1.2-12-2-7-.1 7.9-5.1-2.2-3.1-5.7 0-6-.2 1.3-1.2 3.1-2.7-3.7-1.9-7.7-.7-11.8l-2.5 1.1-.1-1.3c-.2-.7-.4-1.2-.5-3s.3-2.1.3-2.1-2.3-.3-2.8-.8-1.3 0-4-.6a21 21 0 0 1-8-5.5c-1.4-1.6-1.3-2-2.1-2.9-.8-.9-1.4 2.1-1.4 2.1s-2.9-.1-4.2-3.3c-1.3-3-1.3-1.4-1.3-1.4s-3 2.9-4.7.8c-1.7-2.1-1.4-3.4-1.4-3.4zm126.2 45.3a31.8 31.8 0 0 0 2 1c-1.9-1.5-3.5-2-2-1zm8.2-11.5c.1.2.1.2 0 0zm9 53.5-.3 3.7.2-3.7zm-123-62.7c1.8-.8 3.1-2.3 3.3-5.2-.3 1.1-1.7 3-3.4 5.2z"/><g color="#0a1a1d" paint-order="markers stroke fill"><path fill="#0a1a1d" d="M333.8 56.3c-.3-1.4-.7-2.7 0-4.4.5-1.4 2.5-2.6 4.1-2.8 2.5-.4 6.4 0 7.3 2.1.6 1.4 1 3.3-1.8 4.2-2 .7-4 3.2-6.3 3.5-1-.9-1.2-1.9-3.3-2.6z" style="isolation:auto;mix-blend-mode:normal" transform="translate(403.423 82.951) scale(1.3183)"/><path fill="#edcfb7" d="M333.7 56c-.3-1.3-.7-2.6 0-4.2.5-1.4 2.4-2.5 4-2.8 2.4-.3 6.2.1 7.1 2.2.6 1.3 1 3.1-1.8 4-2 .7-3.9 3.1-6.1 3.4-1-.8-1.2-1.8-3.2-2.5z" style="isolation:auto;mix-blend-mode:normal" transform="translate(403.423 82.951) scale(1.3183)"/><path fill="#0a1a1d" stroke="#6c401f" stroke-linejoin="round" stroke-width=".12" d="M335.6 55c1-.3 1.3 1 1.3 1.3 2.1-1.7 4.5-3.6 5.4-3.3.3-2.2-6.3-3-6.7 2z" style="isolation:auto;mix-blend-mode:normal" transform="translate(403.423 82.951) scale(1.3183)"/></g><path fill-rule="evenodd" stroke="#0a1a1d" stroke-linejoin="round" stroke-width=".15843727999999999" d="M827 147.6c-1 0-1.8.5-2.1 1.2v.2l-.4.4-.9.7a5 5 0 0 0-1 1.3l-.4 1.3.7-1.3c.2-.4.5-.8.9-1.1l.8-.5.3.3-.2-.8c.1 1.4 1.3 1.9 2.2 1.9 1.2 0 2.2-.8 2.2-1.8s-1-1.8-2.2-1.8z" paint-order="markers stroke fill"/><g color="#0a1a1d" paint-order="markers stroke fill"><path fill="#6c401f" d="M-1037.2-71.6a13 10.7 0 0 0-11.2 5.4l-.6.9-1 2.5c6.1 1.7 18.6 1.6 25.6.3a9 9 0 0 0-.3-1.1 9.5 9.5 0 0 0-.4-1.2l-.6-1.1a13 10.7 0 0 0-11.5-5.7z" style="isolation:auto;mix-blend-mode:normal" transform="translate(1000.82 159.586) scale(.16766)"/><path stroke="#0a1a1d" stroke-linejoin="round" stroke-width=".25" d="m-276.2-16 .2.6h3l.4-.6h-3.6z" style="isolation:auto;mix-blend-mode:normal" transform="translate(1000.82 159.586) scale(.63366)"/><path fill="#fcd80e" stroke="#fcd80e" stroke-linejoin="round" stroke-width=".001" d="M228 164.6a1.9 1.9 0 0 1-1-.4 1.5 1.5 0 0 1-.4-.4 7.7 7.7 0 0 1-.1-.6v-.1l.8.1a11.9 11.9 0 0 0 2 0h.5l-.1.6c-.3.5-1 .8-1.7.8zm.9-1a.7.7 0 0 0 .1 0l.1-.3a36.6 36.6 0 0 1-1.1 0h-.8l.1.4h1.6z" style="isolation:auto;mix-blend-mode:normal" transform="translate(535.4 -59.232) scale(1.27772)"/></g><g color="#0a1a1d" paint-order="markers stroke fill"><path fill="#d7ccbf" d="M309.3 67.4c-1-.1-2-.4-2.9-.8-.5-.2-.7-.4-.8-1V65l.2-.5.4.1c.6.2 1.2.3 1.7.2.5 0 .9-.2.9-.2a4.4 4.4 0 0 1-1.5 0c-.9 0-1.6-.2-2.2-.7-.4-.3-.6-.6-.7-1l.1-.6c.3-.3.8-.9 1.1-1a2.7 2.7 0 0 1 .6-.2c.7-.2 1.1-.5 1.3-1 0-.2 0-.4-.2-.7l-.7-.5V60h-.1c-.2.1-.5 0-.7-.2a1 1 0 0 0-.7-.3h-.3l-.2.3a23.9 23.9 0 0 0-.5.5v-1.1l.2-.3c.7-1.2 1-1.7 1.8-2.5 1-1 .8-.9 1.4-.6.4.2.7.4.8.7l.1.7.2.8 1.3 1.3 1.4.3h.5l1.9 1.9.5 2c.1.8 0 2.8 0 3.2l-.2.3-1.7.3c-2 .3-2 .3-3 .2z" style="isolation:auto;mix-blend-mode:normal" transform="translate(403.423 82.951) scale(1.3183)"/><path fill="#cca76d" d="M334 53.9s1.3-3 2.6-3.7c1.7-1 4.1-.9 5.8 0 .6.3 1 1.5 1 1.5s-1.2-.6-2-.7c-2 0-3.2 0-4.7.6-1 .5-2.6 2.3-2.6 2.3z" style="isolation:auto;mix-blend-mode:normal" transform="translate(403.423 82.951) scale(1.3183)"/><path fill="#d7ccbf" d="M324.2 74.7c2.8.2 4.7 0 5.5 0 .8 0-.6-.2 1 1.3 1.5 1.6 0 1.2 2.1 1.8s6.7.2 6.7.2-2 1.6-3.4 1.6-5.2-.4-6.4 0c-1.2.3-2.5 2-2.5 2l.5 1.9h-1.5l.6-4.1-1.8-2.8zm30.1-21.1s.8 1.7.8 3.1c0 1.4.6 2 .6 2l.4 1.3 2 .2 1.3 3.1s0-4.7 1.6-3.9c1.5.8 1.3-1.1 2.1 1l1.6 4.1s-1.2-2 1.1-2.1c2.4-.2 3.6-.8 3.8.4.1 1.1 0 1.3-.2 2.7-.2 1.4-.8 3.3-.2 2.3.5-1 .2-2.1 1.1-1.7 1 .4.6-1.2 1.6 1.7 1 3 1 3.4 1 3.4s.4-.2.8-3.6c.3-3.3-1-3.7.3-5 1.4-1.4 2.1-3.4 4-2.4 2 1 2-1.2 2.9 3.3 1 4.5 1.7 5.9 1.7 5.9l-.2-4.7c-.1-3.3-.3-4.3-.3-4.3l-3.4-1.2s-5.2.8-6 .8-3.3 0-4.7-.6c-1.4-.6-8.4-2.3-8.4-2.3l-4.5-2.6zM387 60c7 0 7.5-.4 11.8-.4s6-1.5 8.4-1.7c2.3-.2 3.7-.2 7-.2s3.1-1.8 8.8-.2 6.2 2 7.2 2.3c1 .4 4.7 2.8 4.7 2.8l4.5 4.5s-4.3-3.8-5.5-4.5c-1.1-.8-6.4-2-6.4-2s-1.2-.2-1.2 1.2c0 1.3 2.2 3.5 2.2 3.5l3.9 2.3 1.3 2.8-3.5-3.2s-2.1-.7-2.3.2c-.2 1 .6 2.6.6 2.6s-2.2-2.4-3.2-4.3c-1-2-1.5-3.3-2.7-4.1-1.2-.8-3.7-1.8-3.7-1.8s-5-1.5-4.3 0c.8 1.6.6.8 1.6 2.8 1 2 1.7 1.3 4 4.8 2.4 3.6 3 4.1 1.2 2.4-1.7-1.8-2.1-2.2-3.3-4-1.2-1.7-2.1-2.9-3.5-3-1.4-.2-1.8-1.4-1.8.1s-1.1.6 0 2.6c1.2 2 1 1.7 1.6 3.9.6 2.1 2.5 5.7 2.5 5.7s-1.7-.8-2.3-2.4c-.6-1.5-2.5-3.7-3-5.6-.3-2-1.9-4.2-1.9-4.2l-2.5-.3s-.6.7-.6 1.7-.4-.8-.4 1.8.2 1.5.6 4.7c.4 3 0 1-.8-.4s-1.4-3-2-5.1c-.5-2.2-1.1-3.5-1.1-3.5l-1.6 1.5-1.2-1.7s-2-.4-2 .4-.9 2.7-.9 4.5V72s-1-2.9-1-4c0-1.2-1.1-4.8-1.5-4-.4.8-2.8.8-2.8 1.8v2.3s1.2 0-.8-3.7-4-4.5-4-4.5z" style="isolation:auto;mix-blend-mode:normal" transform="translate(403.423 82.951) scale(1.3183)"/><path fill="#d7ccbf" d="M378.8 76c0 1.6-.8 3-1 5.6-.1 2.7-.7 3.5-.1 7 .5 3.7 2.2 9.5 2.2 11s.1 5.5.4 0c.3-5.5-1.2-8.6-1.2-9.5 0-1-.3-3.2-.3-6.4s.4-5.5.4-5.5l-.4-3zm8.8-3.7c.4 2.9.4 2-.1 6.2-.6 4.1-.8 5.8-.7 6.9l1.1 7.6c.3 2-.1 4.7.1 2.7.3-1.9-.2-7-.2-9.6 0-2.7-.3-3 0-5.6l.2-5zm7.3 4-.2 8.4c0 2.2.5 5.5 1.2 8s1 5.1 1 5.1 2-2 0-5.7-1.5-8.2-1.5-9.6l-.5-6.2zm6.7-6c0 1.7-.4 3 .3 5.7s1 2 .5 4.1c-.4 2.2-.7 2.2-.7 4.2l.2 3.1s-.2-3.4.4-4.4c.5-1 1-3.8 1-4.8s-.8-1.8-.9-2.6a49 49 0 0 0-.7-3zm9.8 5c0 1.5-.8 3.3-.6 6.2.3 3-.8 2.6 1.1 5.3 2 2.6 1.8 3 3 5 1.3 2.1 2.4 6.3 2.4 6.3s-1-6.5-1.4-7c-.4-.6-2.7-4.6-2.9-5.4 0-.9-1-1.8-1.3-3-.3-1.3-.3-7.4-.3-7.4zm9.1 1c1.1 2.4.7 1.6 1.4 5.3.7 3.8-.1 3 .8 6.1 1 3 1.5 4.6 2.4 6.4.8 1.8.7 1.8 2 4.3 1.4 2.4 2.1 4.5 2.4 5.8s.8-.7.3-2.4-1.4-3.3-2.1-5.8c-.7-2.5-2-4.3-2.5-5.8-.4-1.5-1.8-3.3-1.8-4.3s-1-6-1-6l-.8-2zm-55.4-4.5c0 1.7-1.4 4.5-1.2 6.5s1.2 6.8 1.3 7.4c.2.5.9 2.3 1.1 4.6.3 2.4.3 4.2.7 2.4s.2-7-.5-9.1c-.7-2-1.5-2.5-1.5-4.3v-3.5l.1-4zM339 70.6c2.2-.1 3.7-.7 6-2 2.1-1.2 4-4 4.5-4.6.4-.6 1.2-4.6 1.2-3.6s.3 3-1 5c-1.5 2.2.9 1.5-2.6 3-3.4 1.5-1.3 1-3.7 1.6-2.3.6-4.4.6-4.4.6zm-.7 12.6c1.8-.9 5.8-1.3 7.2-3.5 1.4-2.2.1-2.3 2.2-3.9 2-1.5 1.4-.6 3.5-2.9 2-2.2 2.6-3.8 2.6-3.8l-2.2 4.7s-1.6-.3-2.5 2.3c-1 2.6-.4 2.4-1.4 3.6-1 1.3 2.5.1-1.7 1.7-4.1 1.5-5.8 1.4-5.8 1.4zm10 3.7c1.5-.3 3-1.2 4.4-3.6 1.4-2.3 2-4 3.4-5.2 1.4-1.3 2.8-4.5 2.8-4.5s-.3 3.9-.7 4.5c-.4.5-2.6 1-2.8 1.9-.1 1 .2 1-.5 2.3-.7 1.3-.8 1.3-1.3 2s-1.8 1.8-1.8 1.8l-2 .5zm79-10.5c.3 1.8.8 4.7 1.8 6s3 4.5 3.7 6.3c.7 1.8 2.4 7.7 2.4 7.7s0-3.6-.2-4.5l-1.4-4.2c-.2-1-1.6-3.6-2-4.4-.5-.8-1.8-2-2-2.9-.1-.8-2.3-4-2.3-4zm3.2-2.8s1 .3 1.6.7c.7.4 2.4.2 3.2.9.8.6 2.2 1.3 2.5 2.4l.4 1.7s-1-1.8-2-2.5-2.2-1.1-3.4-1.5l-2.2-.8z" style="isolation:auto;mix-blend-mode:normal" transform="translate(403.423 82.951) scale(1.3183)"/><path fill="#d7ccbf" d="M345 111.4c1.9-.4 1.6 1.9 5.9 1.5s6.9-2.1 7.4-3c.6-1 .6-5.5 1.1-5 .6.4 1 3.5 2 4 1 .4 1.4 1.6 2.7.4s2.1-1.7 2.2-3c.2-1.2 0-4.2.6-3.7.7.6 2.5 5.6 2.5 5.6s0-4.6.8-3.5 2 4 2 4 1-3.3 2-3.4c.7-.1 1.5 2 3.3 2.7 5 1.6 3 .4 5 1.3 1.9 1-.7-2.5 2.5-2.5 1.2 0 1.5 2.4 2.4 3.1 1.4 1.2 2-1 2-1s2.4-2.7 2.8-3.4c.4-.6-.6-6.3 1-3s3.6 4.3 3.6 4.3l1.5 1s2-1.3 2.6-1.1c.5 0 1.6.5 2.3.5.7 0 1.5-1.4 2-2l1.6-1.8s-.3-2.5 3.5-2.8c1.7-.3 2.5 5.2 3.9 5.5 1.3.3-2-6.1.4-4.3 2.3 1.8 2 4.3 3.7 5.4 6.3 10.1.7 1.4 1.3 2.1l2.4 2s1.3 3.8.2 4.3c-1.8.9-2.5-1.3-2.5-1.3s-3.6-4-5.7-4.2c-2-.1-3.4-1.8-7.3 0s-2.4 1.1-5.7 2.4c-3.3 1.2-3.8 1.9-6.3 1.8-2.5-.2-3.7.7-6.4.7s.9-.6-4.2.3c-4 .7-7.9 1.3-11.4 1-1-.1-2 .5-2.8 0-1-2.4 1.1-2.5 1-3.7-2.8.8-3.2 1-4.6 1.8-2 2.8-.6 2.7-2.4 3.8a17 17 0 0 0-3.6 3.5s-.3.4-2.5-2c-2.2-2.5 1.4-.5-2.9-1.6-4.3-1-.5-1.4-4-1.8-.3.1-2-1.6-2-1.6z" style="isolation:auto;mix-blend-mode:normal" transform="translate(403.423 82.951) scale(1.3183)"/><path fill="#d7ccbf" d="M413.2 97.5s0 2.4-.5 3.5c-.6 1.1-1.4 0-4 .3-2.4.2-1.4 3-1.4 3l-2 2.8-1 .6-4.5 1.3s-2.5 0-3.8-1c-1.2-1-1.1-.8-2.2-1.5-1-.8-2.2 1.3-2.6 1.8a6 6 0 0 1-3.7 2.3c-1.9.2-1.6-2.2-2.3-3s-.3 1.4-1 2.4c-.6 1-1.2.2-3.6-.9-2.4-1-2.6.3-2.6.3L374 106s-.2 2-.8 4.3c-.6 2.3-2.3 2.8-3 5.7-.2.5-.7.5-.8.9 0 0 1 .5 1.8.5.3 0 .8-.8 1.4-.8 1 .2 1.9 1 3 1l1.5-.3s2.3.4 3.4.4c.8 0 2.3-.6 2.3-.6s1.3 1 2 1c.7.1 1.8-.3 1.8-.3s1.5.6 2.3.5c.7 0 1.8-1 1.8-1s2 .6 3 .3c.5-.2 1.1-1.1 1.1-1.1s1.2 1.6 2.2 1.4c.9 0 1.2-1.3 1.5-1.8.2-.6 2.7-.3 2.7-.3l2.3-.2 2-.9 1.3-.7s1.8-.7 2.7-.7c1 0 2 .8 2.9.7.7 0 1.2-.6 1.8-.8 1.1-.2 2.3-.3 3.4 0 .9.2 2.3 1.3 2.3 1.3h2.3c-.7-.2-4.6-1.6-5-4.9-.9-3-.7-1.5-2-4.2s-2-7.9-2-7.9zM356 113.8c1.3 0 3.2-.6 3.4-1 .2-.4 0-1.4.5-1.3.4.1.3 1.5 1 1.6s3.7-1.9 2.8-.7c-.9 1.2-3 1.3-3 2.5-.1 1.2-.7 1.7-.7 1.7s-.7-1.4-1.2-1.6l-2.8-1.2z" style="isolation:auto;mix-blend-mode:normal" transform="translate(403.423 82.951) scale(1.3183)"/><path d="M307.4 64.7a4.7 4.7 0 0 1-1-.1 2.3 2.3 0 0 1-.4-.2 2.7 2.7 0 0 1-.2 0h.1a.4.4 0 0 1 .1 0h.4a4.8 4.8 0 0 0 2.3 0l-.5.3h-.8z" style="isolation:auto;mix-blend-mode:normal" transform="translate(403.423 82.951) scale(1.3183)"/><path fill="#d7ccbf" d="M443.6 94.2c-.5.3-.9.8-1.1 1-.6.3 0 2.5.1 3.4 0 .9-1.4 2-2.9 2.3s-.6 3-1 4.4c-.5 1.3-.5 2.7-.9 3.7s-2.6 2-2.9 2.9c-.2.6.3 2 .9 3.2.3-.2.7-.4 1-.4 1.1-1 .7-2.3.7-3.5l2.6-1.6 1.4-2.7c.6-1.4.1-3-.5-4.7l2.2-.7.1-5.1.3-.5v-1.7z" style="isolation:auto;mix-blend-mode:normal" transform="translate(403.423 82.951) scale(1.3183)"/><path fill="#faf6f5" d="M344.2 108c.8 0 3.8 1.5 4.6 2.7.7 1.2.2 1.8 2 3.5s4.3 2.6 4.6 2.7c.3.2 1.3 1 3.2 1.4 1.9.4.9 1.3 2 .8 1-.4 1-.8 1.9-2s1.8-2.6 2.4-3c.5-.3 1-1.3 1.2-2.6 0-1.4 1.1-1 0-3.3-1-2.2-3.4-5.7-3.9-7.1-.5-1.5-1.4-3.6-1.8-3.4s-4 1-4.8 1.9c-.7 1-3.5 2.7-4 3.2s-3.3 2.2-3.7 2.7c-.5.6-3.5 2.6-3.7 2.5z" style="isolation:auto;mix-blend-mode:normal" transform="translate(403.423 82.951) scale(1.3183)"/><path fill="#d7ccbf" stroke="#d7ccbf" stroke-linejoin="round" stroke-width=".12" d="M345.9 105.5c3-.1 2.8-.5 4.5-.5h3.3c3 0 3.9-.2 5.5-1.1 1.7-1 3.3-3.5 3.3-3.5s-1.3 2.3-2.9 3.8c-1.5 1.5-2.4 1.5-4.1 1.3h-4.8l-6.6.5zm4.3 4h4c1.7 0 3.5.1 5-.4 1.1-.3 3-1.7 3-1.7s-1.4 1-2.1 1.5c-1 .4-2 .9-3 1-1.5.3-3 0-4.6 0l-2.3-.4zm4.6 4.1s1.7.6 3.5 0c1.8-.5 1.6-.5 3.3-1.2 1.6-.7 2.6-1.7 2-1.1-.5.5-2.7 1.6-2.7 1.6l-3.5.8z" style="isolation:auto;mix-blend-mode:normal" transform="translate(403.423 82.951) scale(1.3183)"/></g><g color="#0a1a1d" paint-order="markers stroke fill"><path fill="#0f7d3a" d="m35.2 37.4 1.7-.7c-.6-.9-.8-1.9-.8-2.9a14 14 0 0 1 1.9 2.1c-1-1.2-1-1.9-.9-3l1.3 1.9c0-.7-.2-1.3.3-2.1.5.5.6 1.4.8 2.3 0-.7.2-1.1.7-1.8.3.7.3 1.6.3 2.5.3-.7.5-1.3.9-1.8.2.6.3 1.5.2 2.1.2-.8.8-1 1.5-1l-.2 1c.3-.4.7-.8 1.4-1 0 .4 0 .8-.5 1.2.7-.7 1.2-1.5 2.4-2l-.8 2.2c.5-1.1 1.2-2.1 2.7-2.9 0 .5 0 1-.3 1.5.6-.9 1.4-1.4 2.6-1.7 0 .6-.4 1-.9 1.5.7-.6 1.3-1.3 2.5-1.5l-1 1.6c.8-.5 1.4-1.2 2.5-1.3.1.3-1 1.4-1 1.4s2.3-2 3.5-1.8c-.4.8-.7 1.2-1.6 1.8.7-.5 1.3-1.2 2.3-1.3-.1.5.2.9-.6 1.4.6-.2 1.2-.6 1.8 0 0-.5.3-.8.5-1 .6.4.8.6 1 1.1-.2-.6-.1-1.2 0-1.7.9.5.7 1.3.8 2 .1-.8-.3-1.7.7-2.2a2.6 2.6 0 0 1 .3 1.5c.8-.3 1.3-.6 1.6-1 .3.1.3.4 0 1 .5-.5 1.2-1.2 1.8-1.1l-.3 1.2c.6-1 1.2-1.3 2.2-1.4 0 .5-.5 1-1 1.7 1-1.4 2.1-2 3.3-1.8-.3.6-.5 1.3-1.5 1.8.9-.5 1.7-1.2 2.8-.3-.6.6-1.5.8-2.6 1l2.5 2.3v2.3l-35-.6z" style="isolation:auto;mix-blend-mode:normal" transform="translate(655.612 92.308) scale(4.82918)"/><path fill="#036a4a" stroke="#0f7d3a" stroke-linejoin="round" stroke-width=".033" d="M38.4 37.1s1 .3.8 0c0-.4-.5-1.2-.5-1.2s.4-.1.6 0l.5.3v-.4l-.4-.5s.2-.3.4 0l.5.5.7.5.3-.4.4.3.5-.6.2.9.8-.7v.6c0 .1 0 .6.3.5l.9-.7s-.4.6-.2.7c.3.1.2.4.6.1l.6-.6c.2-.3.4-1 .4-.4v.7s0 .3.3.3c.2 0 .3-.2.5-.3s.3-.7.5-.8c.3 0 .5 0 .9-.2l1-.4c.1 0-.4-.3.4 0l1 .5 1 .5c1 .5.8-.8.8-.8s2.2 2.4 2.5 2.4c.1 0-1-1.3-.8-1.3.4.1 1 .7 1 .7l.2-.4-1-.7h1.3l-.6-.5v-.4h.5c.1.1-.2.5.7.4l1-.1s.3-.2.5.2 0-.1.5 0c.5.3.4.6.6.2l.2-.6.3.8s.3.2.3 0l.2-.5.3.6.2-.3.2-.3.6-.2.5-.2.3.2H62.3l.3-.2.4.2.4.1.5.3h.3c.6-.1.6-.5 1-.5.5 0 1.2-.2 1.4-.1.3.1.2-.2.5.3s.3.2.5 1 .2.7.2 1.6l-.1 1.5h-9l-13-.3h-5.3l-2-.5-.4-1 .9.3z" style="isolation:auto;mix-blend-mode:normal" transform="translate(655.612 92.308) scale(4.82918)"/><path fill="#24a34e" d="m40.3 37.5.4 3 1.5.8h2.4v-1.7l-.5.3.4-1-.7.2.2-.6-.8.3-.2-.9-.5.6-.1-.8-.4.5v-.7l-.5.5-.2-.8-.3 1zm15.6-.4.2 1.4-.7-.7.3 1.8 1.3 1 2.6.5-.1-.6.1-.7.7-.4-.7-.6-.5.3v-.5l-.5.4v-1.2l-.7.9v-.9l-.8.5v-1l-.3.5-.3-1.1-.2.7zm4.3 1.8 1.5.8 2.5-.7-.3-2.3-.5.7-.1-.8-.4.6-.5-.6v.8l-.8-.9v1.4l-.8-.7.1.7h-.7l.8.6z" style="isolation:auto;mix-blend-mode:normal" transform="translate(655.612 92.308) scale(4.82918)"/><path fill="#0f7d3a" d="M36.6 35c0 .1-.1.1.2.6l.5.8.3.5-.7.2h1l.3-.2-.5-.3s-.5-.6-.5-.8a3 3 0 0 0-.3-.7z" style="isolation:auto;mix-blend-mode:normal" transform="translate(655.612 92.308) scale(4.82918)"/><path fill="#24a34e" d="m36.5 34.8.2.4a5.8 5.8 0 0 0 .5 1.1l.3.3-.1-.7-.3-.6-.6-.5zm.8-1v.6l.2.5.4.7zm1.3-.6-.1.6.1.9zm1.5.4.2.8v1l-.3-.7.1-1.1zm1.2.7.2.7v.8l-.3-.7.1-.8zm1.6.9v.3l-.1.3-.3.1.2-.2v-.2l.2-.3zm1.2 0v.3l-.2.4-.4.4.3-.5.2-.3zm1.8-.7-.2.5-.3.8-.1.4-.6.4.5-.4.3-.8.2-.7zm2.1-.7v.7l-.3.4a4.9 4.9 0 0 1-.3.6l-.4.3-.4.3-.4.5s0-.4.2-.5l.2-.4.5-.3.3-.4.3-.6.3-.6zm2.2-.2-.1.4-.3.4-.3.3-.3.2-.4.2-.4.3s.3-.4.5-.4l.4-.4.5-.5s0-.2.2-.3l.2-.2zm1.6-.1-.3.3-.2.4-.3.4-.2.4-.6.3.3-.3.3-.5.5-.7zm1.5.3-.1.2-.3.3-.3.3-.5.5-.5.4.4-.4.4-.5.5-.4c.2 0 .4-.4.4-.4zm2.5-.5a5 5 0 0 1-.3.4c0 .3-.2.3-.3.5l-.2.4-.2.4a1 1 0 0 1-.4.2 7.8 7.8 0 0 1-.6.2c-.3 0-.5.2-.5.2l.4-.3.5-.3c.2 0 .4-.2.5-.3l.3-.4a3.2 3.2 0 0 1 .3-.4l.2-.3.3-.3zm.7.6v.7l-.3.2-.3.3-.1.2.1-.5.3-.2.1-.3v-.2l.2-.2zm1.9.4-.2.2v.6l.1-.3.1-.4zm1.1-.5v.4c0 .2-.1.2 0 .4v.6l.2.4v-1.5l-.2-.3zm1.3-.2-.3.1-.1.4v1.2V34.4l.2-.4.2-.4zm2 .5v.2l-.2.3-.3.3.5-.4a.6.6 0 0 0 0-.3v-.3.2zm1.6-.3v.3l-.1.3-.1.3-.2.2c-.2.2-.2.2 0 .2l.2-.3.2-.4v-.6zm1.8-.1v.3l-.2.3s0 .2-.2.3a1 1 0 0 1-.2.3l-.4.2.4-.3.2-.4.2-.3.1-.3v-.1zm2.3-.2v.2l-.2.4-.3.4-.3.3-.6.3.4-.3.4-.5.3-.6.3-.2zm1.2 1.3-.3.3-.7.3h-.6l-.7.1s.1.2.4.1h.6l.4-.2.6-.2.2-.1.1-.3z" style="isolation:auto;mix-blend-mode:normal" transform="translate(655.612 92.308) scale(4.82918)"/></g><path fill="#faf6f5" fill-rule="evenodd" d="M814 267.3c-18 0-24 15.8-42 15.8v31.5c3.1-1 30-15.8 42-15.8 12.1 0 30.2 15.8 42.2 15.8 12 0 29.8-15.8 42.2-15.8 12 0 34.1 15.8 48.1 15.8 18 0 26.5-15.8 42.2-15.8 12 0 26.5 15.5 36 15.8 0-10.5 1.4-30 1.4-30l-.4-1.3c-5.2.2-19-16-37-16s-30.1 15.8-46 15.1c-16-.7-26.3-15-44.3-15-18.1 0-24.1 15.7-42.2 15.7s-24-15.8-42.1-15.8zm.3 65c-12.3 0-32.7 16.5-34.4 16.7 1.6.9 15.7 25.4 15.7 25.4s5.7-3.3 18-5.3c12.4-2 25.3 11.3 39.7 13.5 14.5 2.3 32.2-13.5 44.6-13.5 12 0 28.5 16.5 44.3 13.5 16-3 22.1-20 37-19.4 15 .6 21 5.9 21 5.9l18.1-21s-18-14.3-33-15c-15.1-.8-21.2 15-39.2 15-24.1 0-30.2-15.8-48.2-15.8-18 0-24 15.8-42.1 15.8s-28.8-16-41.5-15.9zm85.7 73.6a29.8 29.8 0 0 0-1.7 0c-18.3.5-25 15.7-50 15.7 0 1.3 43.8 21 50 21 6.3 0 60.7-22.1 50-21-24.2 0-31.2-15.3-48.3-15.7z"/><path fill="#001f56" stroke="#001f56" stroke-width=".99" d="M371.3 257.7a41.8 41.8 0 0 1-28.1-18.7c-3.6-5.4-6-11.2-6.6-15.5-.3-2.5-1-3-3.6-2.5-1.5.3-1.8.2-3.2-1.4a10 10 0 0 1-1.6-2 8 8 0 0 0-.7-1.6 4 4 0 0 1-.4-2.3c.2-.8-.3-1.1-3.7-2.6a293 293 0 0 0-4.5-2c-.4-.1-.3 1.2.5 4.7 1 5 1 5.6 0 5.6-.5 0-1.4-2-1.2-2.8 0-.4-1.6-8.5-1.8-8.7a112.4 112.4 0 0 1-22.5-11.5c.2-.2 8.7 3.3 16.4 6.9 3 1.3 5.5 2.4 5.6 2.3l-.6-4c-.8-4.6-.8-4.9 0-4.9.3 0 .9 1.6 1.5 4.5l1.1 5c.2.8 6.1 3.6 20.6 9.7a193.5 193.5 0 0 1 8.4 3.5 47.8 47.8 0 0 0-.2-14c1.1 0 .6-1.7-.8-2.7l-1.3-1-1.2 1c-1.6 1.2-3.1 1-4.2-.3-.8-1-1-1.1-2.5-.7-1.3.3-1.6.3-1.9-.3-.3-.9.4-1.3 2.6-1.7 1-.2 1.7-.5 1.7-.6 0-.2-.6-1-1.3-2a14.1 14.1 0 0 1-3.5-9c-.2-3 0-3.7.9-5.5.7-1.5.9-2.2.5-2.2-.5 0-1.3-1.3-1-1.6l10.7-3c1.7-.4 2-.5 2-1.9 0-1.1-.5-1.7-1.7-2.7l-1.6-1.3-1 1c-1.4 1.2-3.1 1.2-4.3-.2-2-2-1.7-2.2 4.4-3.7l3.9-1v-1.5c0-1.6-1-2.5-4.2-3.6-1.2-.4-1.8-.3-3.9.7-3 1.4-3.1 1.4-4.8 0-2.3-2-3.6-2.4-5.4-2-2.4.5-2.4.1 0-1 1.8-.8 2.7-.9 4.8-.7 2.2.3 3 .2 5.2-.9 2.7-1.2 2.7-1.2 5.5-.5a9 9 0 0 0 3 .4c.1 0 0-.3-.3-.4a1 1 0 0 1-.6-.8c0-.5.6-.7 2.2-.7h2.2l-.2 5v5l3.3-1c1.7-.5 3.7-1 4.3-1 1.3-.2 2 .6 1.3 1.4-.3.3-.4.6-.2.6.1 0-.3.6-1 1.4-1.2 1.3-3 1.8-4 .9-.7-.8-3.8 3.8-3.8 5.7 0 1.3.1 1.5.8 1.3l11.2-3c.7 0 .5 1.6-.2 2.4-.6.6-1.7 2.6-2.6 4.4a11.2 11.2 0 0 0-1.7 5.9c0 2.8 1.4 6 3.8 8.6.8.9 1.3 1.7 1.2 1.9-.1.2-1 .5-1.7.6-1.2.2-1.7.6-2.1 1.9-.7 1.8-1.9 2.6-3.8 2.4-1-.1-1.6.2-2.8 1.8-.9 1-1.7 1.7-1.9 1.6.2 7.3 0 11.8-.2 17.1 0 2 .2 2.6 1.4 4.2a32 32 0 0 0 14.5 10.9l2.5.5a29.4 29.4 0 0 1 5.3 1l1.3.3c-.1-10 0-20-.2-30 0-3.6-.2-4-1.3-5.1-1.2-1.2-1.2-1.2-2-.4-1 1.1-2.8 1.1-4.4 0-.7-.4-1.7-.7-2.2-.6-.5.2-1.1 0-1.3-.4-.6-1-.5-1.3.4-1.3.5 0 1-.2 1.2-.4s-.5-2.6-1.4-5.3a23.3 23.3 0 0 1-1.7-8.4c0-3.3 0-3.8 1.8-7.2 1.7-3.2 1.8-3.7 1-3.4-.6.2-.8 0-.8-.6 0-.7.4-1 1.4-1.4l5.5-1.4 4-1v-1.6c0-1.2-.2-1.5-.9-1.5-.5 0-1.3-.4-1.9-.8-1-.8-1-.8-1.8 0-1.1 1-2.3 1-3.8-.1-2.5-2-1.6-2.8 5-4.3 3.2-.7 3.4-.9 3.4-2s-.4-1.5-3-2.7c-3.4-1.7-4.5-1.8-7.2-.3-2.6 1.5-3.5 1.3-6.2-1-2-1.5-2.1-1.6-4.7-1.4l-2.8.2 2.3-1c2-1 2.7-1.1 5.7-.9 3.2.3 3.7.2 5.7-.8 2.5-1.4 4.8-1.5 8.1-.5 1.6.4 2 .5 1.7.1-1-1-.6-1.3 1.6-1.3h2.2l-.2 5-.1 4.9 4.3-1.2c2.4-.6 4.5-1 4.6-.8.6.5-1 3.6-2.4 5-1.6 1.2-2.7 1.4-4.7.5-.9-.3-1.8 1.5-1.8 3.8v1.7l6.5-1.7c3.6-1 6.7-1.7 7-1.5.7.2.8 1.6.2 1.6-.6 0-4.5 8.1-5 10.7-.5 1.9-.5 2.8.3 6 1.2 4.6 2.6 7.8 3.5 7.8.3 0 .7.3.9.7.4 1 .4 1-.8 1.2a2 2 0 0 0-1.4 1.4 8 8 0 0 1-1.9 2.8c-1.6 1.6-3.1 2-4.8 1-.9-.4-1.1-.3-1.7.6a20.3 20.3 0 0 1-1.7 2.1c-1 1-1 1.3-1 18.3V237h2.6a28 28 0 0 0 10.2-2c.8-.4 1.6-.7 2-.7.3 0 .7-.3.9-.7.2-.3.5-.6.7-.6 3.7-2.2 5.4-3.5 7.8-4.6.6-.4.7-5.5.7-5.5s-.4-9-.4-16.3c0-1.1.3-1.3.4-2.2 0-.8-.2-1.4-.5-1.4s-1-.4-1.6-1c-1-.9-1-.9-2.2-.1-1.1.7-1.3.7-2.9 0a9 9 0 0 0-3.4-1c-1.3 0-1.9-.1-1.9-.6 0-.3.8-.9 1.9-1.1 2-.6 2-.7.4-5-.6-1.6-1.3-4.3-1.6-5.9-.5-2.6-.5-3.2.4-6l1.3-4c.2-.7 0-.8-1-.6-.7.1-1.2 0-1.4-.5-.3-1-.1-1 6.6-2.8l6-1.6v-1.7c0-1.4-.2-1.7-1-1.7-.4 0-1.2-.4-1.5-1-.7-.9-.8-1-1.6-.2a3 3 0 0 1-1.6.8c-1.6 0-4-2-3.8-3 .1-.2 2.2-.9 4.7-1.5l4.5-1.2.1-1.6c.2-1.5 0-1.7-2-2.7-2-1.1-2-1.1-3.4-.3-1.9 1-2.8 1-4.4-.4-1.1-1-1.7-1.1-2.9-1l-1.5.4 1.3-.8c.9-.5 2-.6 3.2-.5 1.3.1 2.4-.1 3.7-.7 1.5-.8 2-.8 3.8-.4 1.9.4 3.4.2 2-.3a1 1 0 0 1-.6-.8c0-.5.6-.7 2.2-.7h2.2l-.2 4.4c-.1 2.3 0 4.3.2 4.3l8-2.1c.6-.2.8 0 .8.7 0 1-.8 2.1-3 4.2-1 1-1.6 1.3-2.7 1.1-1.2-.2-1.5 0-2.4 1.4-1 1.7-1.4 4.2-.4 4.2.8 0 10.2-2.6 10.7-3 1.3-.7.9 1.5-.7 4.7-3.8 7.3-4 9.6-1.5 15.8 1.3 2.9 1.6 3.3 2.4 3.1.7-.2.8 0 .7.8-.1.7-.6 1.1-1.6 1.4-.9.2-1.8 1-2.7 2.2-1.4 2-3.4 3.3-4.7 2.9-.6-.2-1 .1-1.7 1.1-.4.8-1 1.4-1.1 1.4-.2 0-.3.8-.3 1.8.2.6.1 1.2.1 1.7 0 .7.6 1.6.3 1-.3-.3-.4 3.1-.5 8.9 0 9.4 0 9.4 1 8.6.4-.5.8-1.1.8-1.4 0-.4.3-.6.6-.5.3 0 .5-.5.5-1.7 0-1.1.3-1.9.6-2h1c.7-.1.2-.7.3-1.6-.2-1.1-.1-1.6-.1-2.2 0-1.3.4-2.2-.1-2.2a.5.5 0 0 0-.5.5c-.5-1 0-.4-.6-1.2 0-.5 0-2 .4-2.3.5-.4 9.6-2 13.6-2.6l1.2-.2c.2 0 .4-1.8.4-3.9 0-3.8 0-3.8-1.4-4.3-1-.5-1.6-.5-2.9 0-1.4.5-1.7.5-2.7-.4-.7-.5-1.6-.8-2.1-.7-.5.1-1 0-1-.2 0-.6 2.4-1 3.6-.7.5.1 1.5-.1 2.3-.5.8-.4 1.7-.6 2-.5a29.7 29.7 0 0 0 1.8.4l1.3.3v5c0 5.8-.7 5.4 6.6 3.8 2.7-.6 5.8-1.2 6.8-1.2 1.8-.1 1.8-.1 1.7 1.4 0 1-.4 1.7-1 2.1-2 1.4-2.3 10.6-.4 11.6 1 .5 1.1 2.7.2 2.8h-6.5l-5.9-.2-1.4 4a50.7 50.7 0 0 1-23.5 27.5 60.4 60.4 0 0 1-12.3 4.3c-4.6 1-15.5 1.2-19.8.3zM345 197.6c2-.5 2.2-.6 2.2-2 0-.9-.1-1.6-.3-1.6-.6 0-4.6 2.8-5.4 3.7-.9 1-.9 1 .3.7.6-.2 2-.6 3.3-.8zm26.6-.5 3.8-1v-2c0-1.6-.2-1.8-.8-1.6-1.1.4-6.2 4-7 4.9-.7 1-.4.9 4-.3zm28.7.2c3-.8 3-.9 3.1-2.5.1-1 0-1.7-.2-1.7-.5 0-4 2.3-5.8 3.8-1.7 1.4-1 1.5 3 .4zm-44.8-2.6 4.3-1.3c.2-.2-1.9-.3-4.6-.3h-4.8v1.4c0 1.6 0 1.6 5.1.2zm32.3-1.9c2.4-.5.2-1-4.6-1h-4.7v3.5l4-1.1 5.3-1.4zm23.6 1.5a32 32 0 0 0 4.3-1.4c.1-.1-1.8-.2-4.4-.2-2.5 0-4.6.1-4.8.3-.3.5.2 2.4.6 2.4l4.3-1.1z" color="#0a1a1d" paint-order="markers stroke fill" style="isolation:auto;mix-blend-mode:normal" transform="translate(403.423 82.951) scale(1.3183)"/><path fill="#faf6f5" fill-rule="evenodd" stroke="#0a1a1d" stroke-width="1.234" d="M901 444.4s-132-29.7-131.4-152.8V118h258.8l2 172.7C1031 413.8 901 444.4 901 444.4zm-.2-5.5s-127-29.5-126.2-152.7l1-162.8h247.3l1.7 161.9c.7 123.1-123.8 153.6-123.8 153.6z"/><g fill="none" stroke="#6c401f" stroke-linecap="round" stroke-linejoin="round" stroke-opacity=".996" paint-order="markers stroke fill"><g stroke-width=".385"><path d="m413.3 472.4 7.9-27.9 2-4.3m-6.5 30.3 6.4-30.3m-3.4 27.5L423 445l.2-4.9" transform="matrix(1.48121 0 0 1.55817 310.95 -342.922)"/><use xlink:href="#g" transform="matrix(1.48121 0 0 1.55817 326.78 -128.983)"/><use xlink:href="#h" transform="matrix(1.48121 0 0 1.55817 310.95 -342.922)"/><path d="m405.6 323.4 4.6.6m-3.4-4.5 4 .7m-3-4.5 3.5.7m-2.6-4.5 3.1.6" transform="matrix(1.48121 0 0 1.55817 326.78 -128.983)"/></g><path stroke-width=".395" d="m404.6 327.2 5 .5" transform="matrix(1.48121 0 0 1.55817 326.78 -128.983)"/><path stroke-width=".404" d="m404 329.1 5.3.5" transform="matrix(1.48121 0 0 1.55817 326.78 -128.983)"/></g><g fill="none" stroke="#6c401f" stroke-linecap="round" stroke-linejoin="round" stroke-opacity=".996" paint-order="markers stroke fill"><path stroke-width=".271" d="m422.4 502.3 9.3 5.3 2.6 6.4" transform="matrix(1.48121 0 0 1.54883 311.765 -490.779)"/><g stroke-width=".317"><path d="m414.4 468.5 6.8-24 2-4.3m-6 29 6-29m-3.7 29.2 3.4-24.3.2-4.9" transform="matrix(1.8014 0 0 1.895 137.946 -491.168)"/><use xlink:href="#g" transform="matrix(1.8014 0 0 1.895 157.2 -230.983)"/><use xlink:href="#h" transform="matrix(1.8014 0 0 1.895 137.946 -491.168)"/><use xlink:href="#i" transform="matrix(1.8014 0 0 1.895 157.2 -230.983)"/></g><g stroke-width=".271"><path d="M344.4 546.9c11.1-14.1 19.4-27.9 27.4-43" transform="matrix(1.48121 0 0 1.54883 311.765 -490.779)"/><path d="M326.7 539c5.5-3.4 25.7-15.5 37.3-25 5.7-4.7 8-10.7 8-10.7m1 .3c-.4 0 8.5 6 8.5 6l1.6 6.8m56.4 30.5c-.3 0-33.1-41.4-33.1-41.6 0-.3-9-6.9-9-6.6l-7.7 10" transform="matrix(1.48121 0 0 1.54883 311.765 -490.779)"/></g><use xlink:href="#j" stroke-width=".474" transform="matrix(1.25475 0 0 1.21478 331.373 -190.13)"/><use xlink:href="#k" stroke-width=".484" transform="matrix(1.25475 0 0 1.1691 375.732 -8.336)"/><use xlink:href="#l" stroke-width=".474" transform="matrix(1.25475 0 0 1.21478 331.373 -190.13)"/><path stroke-width=".484" d="m384 311.5 3.5.6m-4.7 3.6 4.3.5m-5.6 3.6 4.8.6" transform="matrix(1.25475 0 0 1.1691 375.732 -8.336)"/></g><g color="#0a1a1d" paint-order="markers stroke fill"><g stroke-width=".618"><use xlink:href="#m" fill-opacity=".996" stroke-linecap="round" stroke-linejoin="round" stroke-opacity=".996" stroke-width=".898" style="isolation:auto;mix-blend-mode:normal" transform="matrix(.8932 0 0 .93398 589.12 43.106)"/><use xlink:href="#n" style="isolation:auto;mix-blend-mode:normal" transform="translate(883.912 -63.022) scale(.70632)"/></g><g stroke-width=".541"><g transform="matrix(1.48121 0 0 1.54883 324.288 -124.042)"><path fill="#fd8b32" stroke="#6c401f" stroke-linecap="round" stroke-linejoin="round" stroke-opacity=".996" d="M387.8 262.3h2.5v73h-2.5z" style="isolation:auto;mix-blend-mode:normal"/><path fill="#edcfb7" d="M388.2 262.3h1.6v73h-1.6z" style="isolation:auto;mix-blend-mode:normal"/><path fill="#edcfb7" d="M388.7 262.3h.7v73h-.7z" style="isolation:auto;mix-blend-mode:normal"/><rect width="3.857" height=".787" x="387.119" y="261.268" fill="#fd8b32" stroke="#6c401f" stroke-linecap="round" stroke-linejoin="round" stroke-opacity=".996" rx="0" ry="0" style="isolation:auto;mix-blend-mode:normal"/></g><g transform="matrix(1.48121 0 0 1.54883 323.943 -124.042)"><path fill="#fd8b32" stroke="#6c401f" stroke-linecap="round" stroke-linejoin="round" stroke-opacity=".996" d="M363 266.8h2.5v73H363z" style="isolation:auto;mix-blend-mode:normal"/><rect width="3.857" height=".787" x="362.354" y="265.697" fill="#fd8b32" stroke="#6c401f" stroke-linecap="round" stroke-linejoin="round" stroke-opacity=".996" rx="0" ry="0" style="isolation:auto;mix-blend-mode:normal"/><path fill="#edcfb7" d="M363.6 267h1.4v72.7h-1.4z" style="isolation:auto;mix-blend-mode:normal"/><path fill="#edcfb7" d="M364 267h.6v72.7h-.6z" style="isolation:auto;mix-blend-mode:normal"/></g><g fill="#fd8b32" stroke="#6c401f" stroke-linecap="round" stroke-linejoin="round" stroke-opacity=".996" transform="matrix(1.48121 0 0 1.54883 323.943 -124.042)"><path d="M413 265.7h2.5v73H413z" style="isolation:auto;mix-blend-mode:normal"/><rect width="3.857" height=".787" x="412.351" y="264.597" rx="0" ry="0" style="isolation:auto;mix-blend-mode:normal"/></g></g></g><path fill="#edcfb7" d="M413.5 265.7h1.6v73h-1.6z" color="#0a1a1d" paint-order="markers stroke fill" style="isolation:auto;mix-blend-mode:normal" transform="matrix(1.48121 0 0 1.54883 323.943 -124.042)"/><path fill="none" stroke="#6c401f" stroke-linecap="round" stroke-linejoin="round" stroke-opacity=".996" stroke-width=".271" d="m332 541.5 10.8-2.1 16.5 14.7-13.1 2.1z" paint-order="markers stroke fill" transform="matrix(1.48121 0 0 1.54883 311.765 -490.779)"/><path fill="#edcfb7" d="M413.9 265.7h.8v73h-.8z" color="#0a1a1d" paint-order="markers stroke fill" style="isolation:auto;mix-blend-mode:normal" transform="matrix(1.48121 0 0 1.54883 323.943 -124.042)"/><g fill="none" stroke="#6c401f" stroke-linecap="round" stroke-linejoin="round" stroke-opacity=".996" paint-order="markers stroke fill"><use xlink:href="#j" stroke-width=".474" transform="matrix(-1.25475 0 0 1.21478 1468.897 -191.93)"/><use xlink:href="#k" stroke-width=".484" transform="matrix(-1.25475 0 0 1.1691 1424.538 -10.136)"/><use xlink:href="#l" stroke-width=".474" transform="matrix(-1.25475 0 0 1.21478 1468.897 -191.93)"/><path stroke-width=".484" d="m384 311.5 3.5.6m-4.7 3.6 4.3.5m-5.6 3.6 4.8.6M381 324l4.7.7" transform="matrix(-1.25475 0 0 1.1691 1424.538 -10.136)"/></g><path fill="#cb8500" fill-rule="evenodd" stroke="#6c401f" stroke-linecap="round" stroke-linejoin="round" stroke-opacity=".996" stroke-width=".541" d="M453.3 557.1c-.3-.8-.5-2.4-.6-3.6V550c.2-1.3 1.2-3.8 1.2-3.8s-25.3 3.7-25.3 4l-.1 6.8z" paint-order="markers stroke fill" transform="matrix(1.48121 0 0 1.54883 311.765 -490.779)"/><path fill="#ffb81c" fill-rule="evenodd" stroke="#6c401f" stroke-linecap="round" stroke-linejoin="round" stroke-opacity=".996" stroke-width=".541" d="M439.9 312.4v6.5h3.2v-7zm-4.7.6v6l3.2-.1v-6.4zm-4.6 6v-5.1l3-.5.2 5.5zm-4.5 0v-4.5l3-.5v5zm-4.7 0 .2-3.8 3-.5v4.2z" paint-order="markers stroke fill" transform="matrix(1.48121 0 0 1.54883 323.943 -124.042)"/><g fill-rule="evenodd" stroke="#6c401f" stroke-linecap="round" stroke-linejoin="round" stroke-opacity=".996" stroke-width=".541" paint-order="markers stroke fill"><path fill="#fd8b32" d="M342.2 538.2c0 .8 3.7 18.6 3.7 18.6 0 .3 1.3.4 1.2-.3l-4-18.4c-.5-.4-.5-.1-1 0z" transform="matrix(1.48121 0 0 1.54883 311.765 -490.779)"/><path fill="#fd8b32" d="m323.4 303.8 24.5 10.8v1l-24.4-10.3-9-5 9 3.5z" transform="matrix(1.48121 0 0 1.54883 323.943 -124.042)"/><path fill="#ffb81c" d="M362.4 523.3s-3.8 2.8-2.9 8 4.7 8.2 5 8.2c.2 0 3.9-3.6 7.3-4.5 3.5-.9 12.3-.4 12.3-.4s-4.5-4.6-3.6-9c.9-4.3 4.3-8 4.3-8s-21.5 5.7-22.4 5.7z" transform="matrix(1.48121 0 0 1.54883 311.765 -490.779)"/></g><path fill="none" stroke="#6c401f" stroke-linecap="round" stroke-linejoin="round" stroke-opacity=".996" stroke-width=".271" d="m452.9 544.5-18-28.4" paint-order="markers stroke fill" transform="matrix(1.48121 0 0 1.54883 311.765 -490.779)"/><path fill="#ffb81c" fill-rule="evenodd" stroke="#6c401f" stroke-linecap="round" stroke-linejoin="round" stroke-opacity=".996" stroke-width=".541" d="M388.3 518.4c0 .6-3.9 4.8-3.6 9.5.2 4.4 3.2 11.2 3.5 11.2s4.8-4.7 8.6-5.6c3.8-.8 13 .3 12.6.3a32 32 0 0 1-3.2-10.5c0-3.2 4.8-11 4.8-11z" paint-order="markers stroke fill" transform="matrix(1.48121 0 0 1.54883 311.765 -490.779)"/><g fill="#fcd80e" color="#0a1a1d" paint-order="markers stroke fill"><path d="M399.6 281.1a889 889 0 0 1-22 5c-.5 1.2-.8 2.3-.8 3.2 0 1.4-.2 3.2.2 5l21.4-4.9a8.6 8.6 0 0 1-.6-3.3c.2-1.3 1-3.2 1.8-5z" style="isolation:auto;mix-blend-mode:normal" transform="matrix(1.48121 0 0 1.54883 323.943 -124.042)"/><path d="m398.8 283-22 4.7c0 .6-.3 1.1-.3 1.6 0 1-.2 2.1 0 3.3l21.5-4.7-.2-1.8c.1-.8.5-2 1-3.2z" style="isolation:auto;mix-blend-mode:normal" transform="matrix(1.48121 0 0 1.54883 323.943 -124.042)"/></g><g transform="matrix(1.4716 -.1685 .1762 1.53877 277.074 -55.747)"><use xlink:href="#o" width="100%" height="100%" stroke-linecap="round" stroke-linejoin="round" stroke-width=".541" transform="matrix(.99572 .08841 -.09667 .99572 28.306 -28.34)"/><use xlink:href="#p" fill-opacity=".996" stroke-opacity=".996" stroke-width=".813" color="#0a1a1d" paint-order="markers stroke fill" style="isolation:auto;mix-blend-mode:normal" transform="matrix(.67942 -.0362 .03785 .64976 306.232 184.583)"/><use xlink:href="#p" fill-opacity=".996" stroke-opacity=".996" stroke-width=".813" color="#0a1a1d" paint-order="markers stroke fill" style="isolation:auto;mix-blend-mode:normal" transform="matrix(.67942 -.0362 .03785 .64976 294.858 185.692)"/></g><g fill="none" stroke="#6c401f" stroke-linecap="round" stroke-linejoin="round" stroke-opacity=".996" stroke-width=".271" paint-order="markers stroke fill"><path d="M413.8 540.1s3 9.1 6.2 12.6a31 31 0 0 0 7.6 4.6" transform="matrix(1.48121 0 0 1.54883 311.765 -490.779)"/><path d="M390.4 440.3s4 18 11 22.3a952.1 952.1 0 0 1 12.8 8.1" transform="matrix(1.48121 0 0 1.54883 308.111 -336.699)"/><path d="M390.5 440.5s7.7 13.4 14.1 18c6.4 4.7 15.1 9 15.1 9M366.3 440c2 3.5 1.7 10.2 4 12.5 2.3 2.3 5.8 7.6 5.8 7.6" transform="matrix(1.48121 0 0 1.54883 308.111 -336.699)"/><path d="M366.8 440.2c1.2 1.7 4.4 10.4 6.4 13 1.5 2.4 16.3 17.2 16.3 17.2" transform="matrix(1.48121 0 0 1.54883 308.111 -336.699)"/></g><path fill="#fd8b32" stroke="#6c401f" stroke-linecap="round" stroke-linejoin="round" stroke-opacity=".996" stroke-width=".541" d="M433 300.7h.5V312h-.5z" color="#0a1a1d" paint-order="markers stroke fill" style="isolation:auto;mix-blend-mode:normal" transform="matrix(1.48121 0 0 1.54883 323.943 -124.042)"/><path fill="#e17000" fill-rule="evenodd" stroke="#6c401f" stroke-linecap="round" stroke-linejoin="round" stroke-opacity=".996" stroke-width=".541" d="M427.6 551.2c3.2 0 27.3-4.6 27.3-4.6s.9-3 0-3-27.3 5.6-27.3 5.6z" paint-order="markers stroke fill" transform="matrix(1.48121 0 0 1.54883 311.765 -490.779)"/><g stroke="#6c401f" stroke-opacity=".996" color="#0a1a1d" paint-order="markers stroke fill" transform="matrix(1.48121 0 0 1.54883 323.943 -124.042)"><use xlink:href="#p" id="o" fill-opacity=".996" stroke-opacity=".996" stroke-width=".813" color-rendering="auto" image-rendering="auto" shape-rendering="auto" style="isolation:auto;mix-blend-mode:normal" transform="matrix(.673 -.09611 .1005 .64363 291.729 188.469)"/><path fill="#e30631" fill-opacity=".996" stroke-width=".813" d="m119.6 166-.4-1.3h-1.5l1-1-.8-1.3 1.5.3.6-1.3.5 1.4h1.5l-1 1 .7 1.3-1.4-.3z" style="isolation:auto;mix-blend-mode:normal" transform="matrix(.66993 -.11412 .11932 .64068 289.015 200.42)"/><rect width="3.857" height=".787" x="412.351" y="264.597" fill="#fd8b32" stroke-linecap="round" stroke-linejoin="round" stroke-width=".541" rx="0" ry="0" style="isolation:auto;mix-blend-mode:normal"/></g><g stroke="#6c401f" stroke-linecap="round" stroke-linejoin="round" stroke-opacity=".996" stroke-width=".541" paint-order="markers stroke fill"><path fill="#ffb81c" fill-rule="evenodd" d="M405.2 275.6c-.3.6 1.5 1.9 2.9 1.8s1.7-1.2 2-1.6c.4.5 1 3 4.5 1.8 2.9-1.1 2.6-2.8 3-3.2.3 0 .8.6 1.4.7 2.5 0 4.7-4.2 4.4-4.2-.3 0-17.7 5-18.2 4.7z" transform="matrix(1.48121 0 0 1.54883 323.943 -124.042)"/><path fill="#fd8b32" d="M315 367.1h19.8v1H315z" color="#0a1a1d" style="isolation:auto;mix-blend-mode:normal" transform="matrix(1.43443 -.3862 .4014 1.49088 323.943 -124.042)"/><path fill="#ffb81c" fill-rule="evenodd" d="M379.7 273.5s1 2 2.9 1.8c1.8-.2 1.8-2 1.8-2s1.1 2.8 4 2.2c2.8-.6 3.5-3.6 3.5-3.6s1.4 2 3.7.9c2.2-1.1 3.1-4.2 2.8-4.2l-18.7 5z" transform="matrix(1.48121 0 0 1.54883 323.943 -124.042)"/><path fill="#fd8b32" d="M291.4 358.7H311v1h-19.7z" color="#0a1a1d" style="isolation:auto;mix-blend-mode:normal" transform="matrix(1.43443 -.3862 .4014 1.49088 323.943 -124.042)"/><path fill="#ffb81c" fill-rule="evenodd" d="M355.2 277.7c-.4.3.1 2.1 2.1 2 2.5-.3 2.8-2.6 2.8-2.6s.7 3.3 3.8 2.6c3.2-.6 4.8-4.8 4.8-4.8s.1 1.6 2.2 1.4c2.3-.6 2.6-3.3 2.6-3.3l-18.3 4.7z" transform="matrix(1.48121 0 0 1.54883 323.943 -124.042)"/><path fill="#fd8b32" d="M266.3 356.8H286v1h-19.7z" color="#0a1a1d" style="isolation:auto;mix-blend-mode:normal" transform="matrix(1.43443 -.3862 .4014 1.49088 323.943 -124.042)"/></g><g stroke-width=".541" color="#0a1a1d" paint-order="markers stroke fill"><use xlink:href="#m" fill-opacity=".996" stroke-linecap="round" stroke-linejoin="round" stroke-opacity=".996" style="isolation:auto;mix-blend-mode:normal" transform="matrix(1.48121 0 0 1.54883 323.943 -124.042)"/><use xlink:href="#n" style="isolation:auto;mix-blend-mode:normal" transform="translate(812.8 -300.036) scale(1.1713)"/></g><g stroke-width=".618" color="#0a1a1d" paint-order="markers stroke fill"><use xlink:href="#m" fill-opacity=".996" stroke-linecap="round" stroke-linejoin="round" stroke-opacity=".996" style="isolation:auto;mix-blend-mode:normal" transform="matrix(1.29798 0 0 1.35724 358.278 -66.333)"/><use xlink:href="#n" style="isolation:auto;mix-blend-mode:normal" transform="translate(786.662 -220.556) scale(1.0264)"/></g><g fill="#fd8b32" stroke="#6c401f" stroke-linecap="round" stroke-linejoin="round" stroke-opacity=".996" stroke-width=".541" color="#0a1a1d" paint-order="markers stroke fill"><path d="M261.2 364.6h25.5v1.3h-25.5zm26.8 1.6h25.5v1.3H288z" style="isolation:auto;mix-blend-mode:normal" transform="matrix(1.43443 -.3862 .4014 1.49088 323.943 -124.042)"/><path d="M288 366.2h25.5v1.3H288zm19.4 28.4H327v1h-19.7z" style="isolation:auto;mix-blend-mode:normal" transform="matrix(1.43443 -.3862 .4014 1.49088 323.943 -124.042)"/><path d="M307.4 394.6H327v1h-19.7z" style="isolation:auto;mix-blend-mode:normal" transform="matrix(1.43443 -.3862 .4014 1.49088 323.943 -124.042)"/></g><path fill="#fd8b32" fill-rule="evenodd" stroke="#6c401f" stroke-linecap="round" stroke-linejoin="round" stroke-opacity=".996" stroke-width=".8199099999999999" d="M837.5 362.6a2.8 2.8 0 0 0-1.2 5.2 2.8 2.8 0 0 0-.1.8 2.8 2.8 0 0 0 2.5 2.8 2.8 2.8 0 0 0 0 .3c0 1.5 1.5 2.8 3 2.8 1.3 0 1.8-1 2.1-1.2l3.6 1.3c-1.6 3.2 10.7 51.2 60.8 48.6 49.5-2.6 59.6-48.7 59.6-48.7l-22.7-.3c-.4 0-17.2 21.7-38.7 21.2-21.6-.4-28.5-5.9-33.2-10.4-4.7-4.5-9-11.2-9-11.2L839.4 363c-1.6-.5-1-.5-1.9-.5z" paint-order="markers stroke fill"/><path fill="#fcd80e" d="M390.5 339.3c-9.9-.8-19.3-3.9-24.3-8.4a14.1 14.1 0 0 1-3.8-5l-.3-1.5-4.3-1.2c-6.2-1.8-6-2-6.6-2.2l-.5-1.1-.5-.1-.3.1c0 .2.1.4.3.4.6.1.6 1 0 1.2-.6.3-1.2.2-1.8-.3-.7-.5-.8-1-.2-1.2.6 0 1.2-.9 1-1.5 0-.3-.2-.4-.5-.4-.4 0-.5.1 0 .4.3.2.3.3 0 .7-.6 1-2 .6-2.6-.5-.3-.8-.3-.8.4-.8l1-.1c.4-.2.9-1.1.7-1.6 0-.3-.8-.5-.8-.1l.2.1c.3 0 .2.7-.1 1-.8.7-2.4 0-2.4-1a3.4 3.4 0 0 1 0-1c.2-.5 1-1 1.7-1 .5 0 17.8 7.1 18 7.4.8 1.3 4 5.2 5.7 6.7 3.5 3.3 6.6 5 11.9 6a52 52 0 0 0 15.7.7 33 33 0 0 0 10.8-4.5 45 45 0 0 0 7.7-6l2.6-2.4h3.7l-1.1 1.4A40.2 40.2 0 0 1 399 339c-2 .4-6.5.6-8.6.4z" color="#0a1a1d" paint-order="markers stroke fill" style="isolation:auto;mix-blend-mode:normal" transform="matrix(1.48121 0 0 1.54883 323.943 -124.042)"/><g fill="none" stroke="#6c401f" stroke-linecap="round" stroke-linejoin="round" stroke-opacity=".996" stroke-width=".385" paint-order="markers stroke fill"><path d="m413.7 471 7.5-26.5 2-4.3m-6.1 29 6-29m-3 26.1 2.8-21.2.2-4.9" transform="matrix(-1.48121 0 0 1.55817 1490.048 -343.74)"/><path d="m405.3 325.2 4.6.5m-3.6-4.5 4.2.7m-3-4.4 3.4.6m-2.5-4.3 3 .6" transform="matrix(-1.48121 0 0 1.55817 1474.216 -129.801)"/><use xlink:href="#h" transform="matrix(-1.48121 0 0 1.55817 1490.048 -343.74)"/><path d="m405.6 323.3 4.7.5m-3.5-4.4 4 .7m-3-4.4 3.5.6m-2.6-4.3 3.1.5" transform="matrix(-1.48121 0 0 1.55817 1474.216 -129.801)"/></g><path fill="#ffb81c" fill-rule="evenodd" stroke="#6c401f" stroke-linecap="round" stroke-linejoin="round" stroke-opacity=".996" stroke-width=".541" d="M355.6 304.6c-.5.3 0 2.1 2 2 2.6-.3 2.8-2 2.8-2s1 2.4 4.2 1.8c3.1-.6 4.4-4 4.4-4s.1 1 2.2.8c2.3-.6 2.6-3.2 2.6-3.2l-18.2 4.6z" paint-order="markers stroke fill" transform="matrix(1.48121 0 0 1.54883 323.943 -124.042)"/><path fill="#fd8b32" stroke="#6c401f" stroke-linecap="round" stroke-linejoin="round" stroke-opacity=".996" stroke-width=".541" d="M256.3 382.4h25.5v1.3h-25.5z" color="#0a1a1d" paint-order="markers stroke fill" style="isolation:auto;mix-blend-mode:normal" transform="matrix(1.43443 -.3862 .4014 1.49088 323.943 -124.042)"/><path fill="#ffb81c" stroke="#6c401f" stroke-linecap="round" stroke-linejoin="round" stroke-opacity=".996" stroke-width="1.204" d="M387.7 262.8s-4-1.4-6-1.2c-1.9.2-3.4 1.9-5.3 2.2-1.7.2-3.4-.8-5.1-.5-1.6.2-4.3 1.8-4.3 1.8s2.8-1 4.1-.7c2 .4 3.2 3 5.2 3.2 2 .2 3.5-2 5.5-2 2.2.1 6 2.7 6 2.7z" color="#0a1a1d" paint-order="markers stroke fill" style="isolation:auto;mix-blend-mode:normal" transform="matrix(.66587 0 0 .69627 707.14 158.657)"/><path fill="#ffb81c" fill-rule="evenodd" stroke="#6c401f" stroke-linecap="round" stroke-linejoin="round" stroke-opacity=".996" stroke-width=".541" d="M412.8 521.2s-2.3 4.7-2.3 7.3c0 3.7 3 10.8 3.3 10.8s4.8-4.6 8.3-5 11.2-.1 11.2-.1-3.3-5.7-3-9c.3-3.1 4.2-9.9 4.2-9.9z" paint-order="markers stroke fill" transform="matrix(1.48121 0 0 1.54883 311.765 -490.779)"/><g stroke="#6c401f" stroke-linecap="round" stroke-linejoin="round" stroke-opacity=".996" color="#0a1a1d" paint-order="markers stroke fill"><path fill="#fd8b32" stroke-width=".541" d="M310 375h25.4v1.3H310z" style="isolation:auto;mix-blend-mode:normal" transform="matrix(1.43443 -.3862 .4014 1.49088 323.943 -124.042)"/><path fill="none" stroke-width=".271" d="M350.2 321.8c1-.4.9-1.8-.2-1.8m-4.3-2.4c2.4 1 2.8-1.8 1.8-1.5m-.2 3.9c2 .3 2.1-2 1.2-1.7" style="isolation:auto;mix-blend-mode:normal" transform="matrix(1.48121 0 0 1.54883 323.943 -124.042)"/></g><g stroke="#6c401f" stroke-linecap="round" stroke-linejoin="round" stroke-opacity=".996" paint-order="markers stroke fill"><g fill="none" stroke-width=".317"><path d="m414.4 468 6.8-23.5 2-4.3m-6.2 28.2 6.1-28.2m-3.5 28.4 3.3-23.5.2-4.9" transform="matrix(-1.8014 0 0 1.895 1662.537 -490.991)"/><use xlink:href="#g" transform="matrix(-1.8014 0 0 1.895 1643.284 -230.806)"/><use xlink:href="#h" transform="matrix(-1.8014 0 0 1.895 1662.537 -490.991)"/><use xlink:href="#i" transform="matrix(-1.8014 0 0 1.895 1643.284 -230.806)"/></g><path fill="#ffb81c" fill-rule="evenodd" stroke-width=".541" d="M380.2 303.7s1.2 2.2 3.2 2c2-.3 2-2.3 2-2.3s1.2 3.2 4.4 2.5c3.1-.7 3.9-4 3.9-4s1.6 2.2 4 1c2.5-1.2 3.5-4.6 3.2-4.6l-20.7 5.4z" transform="matrix(1.48121 0 0 1.54883 323.943 -124.042)"/><path fill="#fd8b32" stroke-width=".541" d="M281.4 388H307v1.2h-25.5z" color="#0a1a1d" style="isolation:auto;mix-blend-mode:normal" transform="matrix(1.43443 -.3862 .4014 1.49088 323.943 -124.042)"/><path fill="none" stroke-width=".271" d="M413.6 540s1.8 11.3 5 15.9c1.6 2.4 7 5.5 7 5.5" transform="matrix(1.48121 0 0 1.54883 311.765 -490.779)"/></g><g stroke="#6c401f" stroke-linecap="round" stroke-linejoin="round" stroke-opacity=".996" stroke-width=".541" paint-order="markers stroke fill"><path fill="#ffb81c" fill-rule="evenodd" d="M405.3 304c-.2.6 1.5 1.9 3 1.8s1.7-1.2 2-1.6c.3.5.9 3 4.4 1.8 3-1 2.7-2.8 3.1-3.2.3 0 .7.6 1.3.7 2.6 0 4.7-4.2 4.4-4.2-.2 0-17.6 5-18.2 4.7z" transform="matrix(1.48121 0 0 1.54883 323.943 -124.042)"/><path fill="#fd8b32" d="M304.5 394.4H330v1.3h-25.5z" color="#0a1a1d" style="isolation:auto;mix-blend-mode:normal" transform="matrix(1.43443 -.3862 .4014 1.49088 323.943 -124.042)"/><path fill="#e17000" fill-rule="evenodd" d="m426.4 558.5 27.9.6c.5-1 .3-1.6 0-2l-27.9-.3z" transform="matrix(1.48121 0 0 1.54883 311.765 -490.779)"/></g><g color="#0a1a1d" paint-order="markers stroke fill"><path fill="#edcfb7" d="M110 412.9h24.7l-.2.7h-24.8z" style="isolation:auto;mix-blend-mode:normal" transform="matrix(1.43454 -.38572 .88164 1.24459 323.943 -124.042)"/><path fill="#edcfb7" d="m352.5 304.5 23.3-6 .2.4-23.5 6zm-.1-18.5 24-6.2.1.6-24 6.2z" style="isolation:auto;mix-blend-mode:normal" transform="matrix(1.48121 0 0 1.54883 323.943 -124.042)"/><path fill="#edcfb7" d="m352.6 286 23.4-6 .1.5-23.4 6zm2.6-8.8 18-4.7.2.5-18.1 4.7z" style="isolation:auto;mix-blend-mode:normal" transform="matrix(1.48121 0 0 1.54883 323.943 -124.042)"/><path fill="#edcfb7" d="m355.3 277.2 17.7-4.5v.3l-17.6 4.5zm24.7-4.5 18-4.6.2.5-18 4.6z" style="isolation:auto;mix-blend-mode:normal" transform="matrix(1.48121 0 0 1.54883 323.943 -124.042)"/><path fill="#edcfb7" d="m380.1 272.8 17.7-4.6v.4l-17.6 4.5zm25 2.2 18-4.7.2.5-18.1 4.6z" style="isolation:auto;mix-blend-mode:normal" transform="matrix(1.48121 0 0 1.54883 323.943 -124.042)"/><path fill="#edcfb7" d="m405.2 275 17.7-4.5v.3l-17.6 4.5zm-26.6 5.9 24-6.2.2.6-24 6.2z" style="isolation:auto;mix-blend-mode:normal" transform="matrix(1.48121 0 0 1.54883 323.943 -124.042)"/><path fill="#edcfb7" d="m378.8 281 23.4-6.1.2.5-23.5 6zm23.5 3 24-6.2.2.6-24 6.2z" style="isolation:auto;mix-blend-mode:normal" transform="matrix(1.48121 0 0 1.54883 323.943 -124.042)"/><path fill="#edcfb7" d="m402.5 284 23.4-6 .1.4-23.4 6zM378 303.4l24-6.1.2.6-24 6.2z" style="isolation:auto;mix-blend-mode:normal" transform="matrix(1.48121 0 0 1.54883 323.943 -124.042)"/><path fill="#edcfb7" d="m378.3 303.5 23.3-6 .2.4-23.5 6z" style="isolation:auto;mix-blend-mode:normal" transform="matrix(1.48121 0 0 1.54883 323.943 -124.042)"/><path fill="#fcd80e" d="m54.7 528.3-27.7 7a12 12 0 0 0-.1 4.4 18 18 0 0 0 1.7 5.2l25.8-6.3a11 11 0 0 1-1-6.4c.3-1.4.7-2.7 1.3-4z" style="isolation:auto;mix-blend-mode:normal" transform="translate(812.8 -300.036) scale(1.1713)"/><path fill="#fcd80e" d="m54 530-27.3 7c0 .8 0 1.7.2 2.7a18 18 0 0 0 1.2 4.1l25.8-6.4a10.1 10.1 0 0 1 .1-7.5zm64.5-4.9c-5.7 1.5-19.7 5.2-26.3 6.6-.5 1.5-.9 3-.9 4.3 0 1.8.5 4.2 1.2 6.6l24.6-6.5c-.5-1.6-.8-3.1-.7-4.4a25 25 0 0 1 2.1-6.6z" style="isolation:auto;mix-blend-mode:normal" transform="translate(812.8 -300.036) scale(1.1713)"/><path fill="#fcd80e" d="m117.6 527.5-26 6.3-.3 2.2c0 1.2.3 2.7.6 4.3l24.7-6.3a9 9 0 0 1-.2-2.3c.1-1.1.6-2.6 1.2-4.2z" style="isolation:auto;mix-blend-mode:normal" transform="translate(812.8 -300.036) scale(1.1713)"/><path fill="#edcfb7" d="m402.2 303.9 24-6.2.2.7-24 6.1z" style="isolation:auto;mix-blend-mode:normal" transform="matrix(1.48121 0 0 1.54883 323.943 -124.042)"/><path fill="#edcfb7" d="m402.4 304 23.4-6 .1.4-23.4 6z" style="isolation:auto;mix-blend-mode:normal" transform="matrix(1.48121 0 0 1.54883 323.943 -124.042)"/></g><g fill="#6c401f" fill-rule="evenodd" stroke="#6c401f" stroke-linecap="round" stroke-linejoin="round" stroke-opacity=".996" stroke-width=".541" paint-order="markers stroke fill" transform="matrix(1.48121 0 0 1.54883 323.943 -124.042)"><ellipse cx="391.065" cy="337.37" rx=".955" ry=".913"/><g transform="translate(-.135)"><ellipse cx="367.833" cy="328.845" rx=".955" ry=".913"/><ellipse cx="414.568" cy="328.845" rx=".955" ry=".913"/></g><g transform="translate(-.101)"><ellipse cx="376.545" cy="334.399" rx=".955" ry=".913"/><ellipse cx="405.788" cy="334.399" rx=".955" ry=".913"/></g></g><g color="#0a1a1d" paint-order="markers stroke fill"><g fill="none" stroke="#6c401f" stroke-linecap="round" stroke-linejoin="round" stroke-opacity=".996"><path stroke-width=".232" d="m288.9 682.3 8.9 2.6c2.2 10.3 21.9 16 34.5 15 10.8-.9 20-8.5 26.8-17.5" style="isolation:auto;mix-blend-mode:normal" transform="matrix(1.48121 0 0 1.54883 419.01 -682.25)"/><path stroke-width=".232" d="M296 684.5c.7 6.8 9.6 18.8 33.6 18.8 23.2 0 32.4-21 32.4-21" style="isolation:auto;mix-blend-mode:normal" transform="matrix(1.48121 0 0 1.54883 419.01 -682.25)"/><path stroke-width=".269" d="M293.6 683.8c.7 7.9 8.2 24.2 36 24.2 26.8 0 36.4-25.4 36.4-25.4" style="isolation:auto;mix-blend-mode:normal" transform="matrix(1.48121 0 0 1.54883 419.01 -682.25)"/><path stroke-width=".301" d="M291.3 683.2c-.2 5.8 8.9 29.4 38.2 29 26-.3 36.8-23.2 39.2-29.5" style="isolation:auto;mix-blend-mode:normal" transform="matrix(1.48121 0 0 1.54883 419.01 -682.25)"/><g stroke-width=".036"><path d="M76.1 603.4a51.4 51.4 0 0 1-25.9-7.7c-2-1.4-3.2-2.3-4.9-4a23.1 23.1 0 0 1-6.8-12.6l.9.2.8.3.2.6c.2 1 .8 2.5 1.5 3.6 1.7 2.8 4.5 5.4 8 7.7a58.9 58.9 0 0 0 36.5 7.6c8.1-1.4 16-5.8 23.4-13.3 2.8-2.7 4.7-5 7.3-8.3l.9-1.2h3.2l-.8 1.6a54.5 54.5 0 0 1-8.8 12 42.4 42.4 0 0 1-35.5 13.5z" style="isolation:auto;mix-blend-mode:normal" transform="translate(812.8 -300.036) scale(1.1713)"/><path d="M78.1 609.7a62.6 62.6 0 0 1-23.5-5.4 34.7 34.7 0 0 1-19.2-25.5l-.1-.7h.3l1.3.5 1.1.3.2 1c0 .6.3 1.7.6 2.4 2.3 7 8.6 13.2 17.2 17 4 1.7 8.9 3.1 13.8 3.8 5 .8 11.9 1 16 .5a44 44 0 0 0 29.4-17.1c2.2-2.7 4.1-5.6 5.6-8.5l.9-1.7h2.3c1.3 0 2.3.1 2.3.2l-1.9 4.1a62.3 62.3 0 0 1-14.3 18.3 44.8 44.8 0 0 1-32 10.8z" style="isolation:auto;mix-blend-mode:normal" transform="translate(812.8 -300.036) scale(1.1713)"/><path d="M76.9 615.2a45.5 45.5 0 0 1-44-34.7c-.4-1.7-.6-3.3-.4-3.3l1.2.4 1 .3.2.6c.2 2.3 1 5 1.8 7.2 3.7 9.4 11 16.5 21.1 20.5 4.7 1.9 9.8 3 16 3.7a45.7 45.7 0 0 0 43-17.1 64.2 64.2 0 0 0 9.6-15.2l.4-1.1h1.4a7 7 0 0 1 1.5 0c.2.3-2.8 6.8-4.6 10a61 61 0 0 1-18.5 20.7 46.8 46.8 0 0 1-29.7 8z" style="isolation:auto;mix-blend-mode:normal" transform="translate(812.8 -300.036) scale(1.1713)"/><path d="M74.7 617.4a47.9 47.9 0 0 1-40.5-26.5 43.2 43.2 0 0 1-4.7-13.6v-1l.6.2 1.2.3.6.2v1A46 46 0 0 0 72 615.3a49.7 49.7 0 0 0 47.5-19.6c3.9-4.9 7.6-11.3 10-17.2l.8-2h1.9l-.2.6c-1.2 4-3.3 9-5.6 13a52.7 52.7 0 0 1-44 27.2c-1.6.2-6.4.2-7.7 0z" style="isolation:auto;mix-blend-mode:normal" transform="translate(812.8 -300.036) scale(1.1713)"/></g></g><path fill="#ffb81c" d="M76.6 603.3c-11-.5-20.2-3.3-27.2-8.3a29 29 0 0 1-9-10c-1-2-1.8-4.6-1.8-5.5v-.4l.7.2.8.3.2.8c.3 1 1.5 3.5 2.4 4.7a28 28 0 0 0 9 7.4 62.4 62.4 0 0 0 27 7.1 38 38 0 0 0 27-10 104.8 104.8 0 0 0 11-11.6l1.3-1.6h3l-.5 1.1c-3.5 7-9.7 14.1-16 18.5a41.6 41.6 0 0 1-27.9 7.3z" style="isolation:auto;mix-blend-mode:normal" transform="translate(812.8 -300.036) scale(1.1713)"/><path fill="#ffb81c" d="M78.4 609.6a62.6 62.6 0 0 1-19.3-3.4c-1.8-.7-5.4-2.4-7.4-3.6a35.4 35.4 0 0 1-9.9-8.8 35.7 35.7 0 0 1-6.4-15.6l1.3.3 1.2.4.2 1c.7 3.3 2.3 6.7 4.6 9.6 3 3.7 7.7 7.3 12.7 9.6a58.9 58.9 0 0 0 32.4 4.2c10.1-1.7 19-6.9 26.2-15.3 2.8-3.2 5.4-7 7.1-10.5l.6-1.1h3.3l1.3.1-.5 1a59.2 59.2 0 0 1-14 19.8 44.9 44.9 0 0 1-32 12.4 64 64 0 0 0-1.4-.1z" style="isolation:auto;mix-blend-mode:normal" transform="translate(812.8 -300.036) scale(1.1713)"/><path fill="#cb8500" d="M74 615a45.5 45.5 0 0 1-40.6-32.3c-.4-1.7-.9-4-.9-4.9 0-.5 0-.5.3-.4a62.7 62.7 0 0 0 1.9.6l.2 1.1a33 33 0 0 0 10 19 47.3 47.3 0 0 0 32 12c7.3.2 12-.3 17.7-2a49.4 49.4 0 0 0 24.3-17.7c3-4 6-9 7.5-12.7l.5-1.2h1.8c1.1.1 1.1-.1 0 2.3a83.6 83.6 0 0 1-6.3 12A49.2 49.2 0 0 1 74 615z" style="isolation:auto;mix-blend-mode:normal" transform="translate(812.8 -300.036) scale(1.1713)"/><path fill="#e17000" d="M75.2 617.3a54 54 0 0 1-11.7-1.9 45 45 0 0 1-19.3-11.2 52 52 0 0 1-14.6-27v-.8l1 .3 1.1.4s.2.6.2 1.3a46 46 0 0 0 28 34 51.7 51.7 0 0 0 31.6 2c11.1-2.7 20.6-9 28.5-19.2a86.1 86.1 0 0 0 9.6-16.8l.8-1.7h.8l.9-.1-.2.6a44.1 44.1 0 0 0-1 3c-3.1 8.5-7.8 16-13.6 21.8a52.2 52.2 0 0 1-33 15.1c-1.7.2-7.8.3-9 .2z" style="isolation:auto;mix-blend-mode:normal" transform="translate(812.8 -300.036) scale(1.1713)"/></g></svg>