<svg xmlns="http://www.w3.org/2000/svg" xmlns:xlink="http://www.w3.org/1999/xlink" width="450" height="300" viewBox="0 0 600 400"><path d="M0 0h600v400H0z"/><path fill="#012778" d="M0 0h600v133.5H0z"/><g fill="#0f7d3a"><path d="M166.7 205.3a44 44 0 0 1 9.4 3c5 2 11.3 3.7 14 4 5 .1 22 8.3 21.9 10.3 0 1.8-26-6.1-35-10.7-11-5.5-11.2-5.7-10.3-6.6z"/><path d="M198.7 209c2 5.1 9.5 8.6 19.4 9.5 6.7.5 3.6-2.4-5.8-5.9a50 50 0 0 1-11.7-5.6c-3.8-3-3.8-3-2 2zM105 171c5.4 8 11.5 13.7 23.3 21.7 8.7 5.9 16.3 10.5 16.7 10.2a540 540 0 0 0-45.6-42.3c-1-.4 1.3 4.2 5.6 10.4zm111.5 42.4c4 1.9 9.1 3.4 11.7 3.5 3 0 2.3-.7-3.4-3a60 60 0 0 1-12.2-6.4c-4.3-3.5-4.3-3.5-3.8-.4.2 1.7 3.4 4.4 7.7 6.3zm-25-36.2c2.6 10.4 13.3 29.5 17 30.3 3.3.5 3.3.3.6-2.8-4.7-5.4-14.7-25-14.7-28.8 0-2-.9-3.5-2-3.5-1.3 0-1.7 1.9-1 4.8zm-111.3-13c-.1.4 3.4 3 7.7 6.1 4.4 3 9.5 7.3 11.1 9.5 3 3.9 19.3 13.6 20.8 12.3 1.5-1-19.5-18.1-28.5-23-10.6-6.1-11-6.2-11.1-4.9zm6 14.3c0 .4 3.8 2.4 8.6 4.6s10.6 5.6 12.6 7.4c3.5 3.4 21.3 10 22.6 8.6 1.3-1.3-22.4-14.5-32-17.8-11.5-4.1-11.9-4.1-11.9-2.8zm82.5 6.5c7 13 14.3 21.5 17.2 20.6 1.5-.6-1.8-6-9-14.6L164.4 176c-.6-.5 1.5 3.5 4.4 9zm9.1-5c0 2 7.2 16.1 11.5 22 2.4 3.4 5.2 5.2 8.3 5.2 4.7 0 4.7 0-2.4-8-4-4.2-9.4-10.7-12.2-14.2-2.8-3.6-5.2-5.8-5.2-5zm-17 6c0 2.7 13.5 21.3 15.6 21.3 1 0-1.3-4.5-5.3-9.9-9-12.2-10.3-13.5-10.3-11.4zm-12.8 51c-12.2 4.9-14.8 6.5-14.8 9.1 0 1.1 1.3 1 3.3-.7 1.7-1.7 7.8-4 13.4-5.2s12.2-3.5 14.8-4.8l4.6-2.4h-5.6c-3 .1-10.1 2-15.7 4zm-34.7-31.5c9.1 8.4 39.7 24 55.1 28.7 4.2 1.2 11 1.5 14.9.7l7.1-1.4-7-3.8c-11.4-5.9-30.2-18.4-36.9-24.4-7.3-6.6-7-4.3.4 4.8 2.9 3.7 11.5 10 19 14 7.7 4 13 7.9 12.1 8.2-2.3.8-23.2-11.1-39-22.3-17.3-12.3-18-12.6-11.6-4.7 3.2 3.8 9 9 13.2 11.4 4.1 2.6 7 5 6 5.3-1.7.6-12.5-5.3-26.6-14.3-4-2.8-9.3-6.1-11.7-7.6-2.5-1.7-.2.8 5 5.4zm1.3-2.5-7.4 2.4 5.6.9c3 .7 6.8.4 8.7-.6 1.7-.9 5-1.6 7.4-1.8 4 0 4-.2.6-1.7-4.7-2-5.8-2-14.9.8zm9.2 5c-3.2 2.4-3 2.6 3.9 1.5 4-.6 10-1.7 13-2.4 4.7-1.3 4.4-1.5-4-1.7-5.5-.2-10.7 1-13 2.6zm-46-19.5c30.5 5.6 91.8 26.1 88.1 29.7-1 .9-18.1-3.4-20.5-5-1-1-10-.6-20 .7-18.7 2-21.9 3.7-21.5 11.3.2 3.7.2 3.7 1 0 1.8-6.9 4.5-8.3 15-8.3 11.6 0 43 4.6 57 8.3 18.5 5.2 19 5.2 12.9 1.9-8-4.5-20-12.7-22.2-15-4.1-4.7-78-25-88.7-24.7-5 .4-5.2.4-1.1 1zm14 9.9a16 16 0 0 0-5.2 8.7c-1 5.4-1 5.4 1.9 1.8 7.8-9.8 8.3-10.2 18-10.3 7.7-.2 8.8-.6 5.1-1.7-7.8-2.4-15.5-1.9-19.8 1.5zm94.4 11.4c1.5 2.6 16 9.8 17 8.7.6-.5-1-2-3.3-3.3a29.6 29.6 0 0 1-6.8-4.8c-3-2.8-8.6-3.4-6.9-.6zm1.1 17.6c1.5 2.6 16 9.9 17 8.7.6-.5-1-2-3.3-3.3a29.6 29.6 0 0 1-6.8-4.8c-3-2.8-8.6-3.4-6.9-.6zm10-8.5c-3.5 1.3-7 3.8-8 5.5-1.3 2-.2 2 4.2-.2 3.5-1.7 8.6-3.2 11.3-3.4 5.2-.3 5.2-.3 2-2.3-2-1.2-6-1-9.5.4zM176 232.1c-10.6 9.5-13 16.1-9.5 26l2.9 8.3-.8-8.5c-1.3-11.7 1.8-17 14.6-26.2a70 70 0 0 0 10.7-8.5c-.6-2-12.6 3.9-18 9zm-65.4-75.8c5.8 11 29.1 36.2 42 45.8 3.6 2.6 9.9 5.2 13.8 5.8l7.2 1-5.4-5.9c-8.7-9.4-22-27.6-26.3-35.6-4.6-8.7-5.2-6.4-1.3 4.7a73.6 73.6 0 0 0 13.2 19.6c5.7 6.5 9.4 11.9 8.5 11.9-2.4 0-18-18.4-29-34.3-12.1-17.4-12.7-18-9.3-8.3a58.3 58.3 0 0 0 8.5 15.2c3 3.9 4.8 7 3.9 7-1.9 0-10-9.3-20.2-22.6-2.8-4-6.7-9-8.4-11.1-1.8-2.5-.5.7 2.8 6.8zm59.8 52c0 1.2 2.7 4.6 6 7.2 9.9 7.4 36 19.8 39.3 18.5 2-.7-1-2.8-10-6.1-15.5-6.1-29.8-14.3-29.8-17 0-1.6 6.1-1.7 21.3-.8 22.8 1.3 29.6-1.3 8.9-3.2-21.9-2.2-35.7-1.6-35.7 1.3zm-49 19.8c-7.9 1.8-12.2 4.6-12.2 8 0 1.2.8 1 1.7-.4 1.5-2.4 16.7-6.9 18.2-5.4.3.4-.2 3.1-1.3 6-1.1 2.7-1.5 5.5-1 6 .6.8 1.5-.7 2-2.7 2.3-8 9.2-10.4 25.6-9l20.6 2c3.1.1 7.4 1.2 9.6 2.5 4.8 2.6 23.5 2.8 21.9.2-.6-1-4.1-2.2-8-2.8a226 226 0 0 1-17.2-3.9c-11.5-3-48.2-3.3-59.8-.5zm67.7 21.4c-14-2.5-20.6-.3-26.2 8.4l-4.9 7.5 6.2-5.9c8.4-8.2 14.6-9 29.7-4.5a70 70 0 0 0 13.3 3.1c1.1-1.7-10.8-7.5-18.1-8.6zm-18-5.2c-25.8 7-28.8 9.6-25 21.3 1.4 4.5 1.4 4.3 1.6-1.5.2-3.1 1.8-7.6 3.7-9.4 3.3-3.3 18.3-7.6 36.7-10.6 4.4-.5 7.4-1.8 6.8-2.8-1.5-2.4-7.4-1.6-23.9 3zm21.8 9c-13 5.8-17.2 11.4-17 21.8l.1 8.9 1.9-8.4c2.4-11.5 7-15.6 22-20.4a70 70 0 0 0 12.8-4.8c0-2-13.1-.2-19.8 3zm-2.5 16c-2.2 3-3.9 6.8-3.9 8.9 0 2.4 1 1.8 3.6-2.4 2-3.4 5.5-7.3 7.7-9 4.3-2.9 4.3-2.9.4-2.9-2.2 0-5.5 2.2-7.8 5.4zm298 84.8a401 401 0 0 0-2.6 4.4c-5.8-1.7-30.1-12.6-50.9-22-21-9.5-50.8-21.6-56.3-25-4.3-2.7-4-5 1.3-3 5.2 2 25.4 11.5 39.7 17.7 16.6 7.4 58.2 23.6 68.8 28zm-106.3-47.4c5.7 3.2 35.9 14.3 57.2 23A882.1 882.1 0 0 0 491 350a413.5 413.5 0 0 1 2.4-4.4c-10.7-4-52.8-18.7-69.6-25.5-14.6-5.8-35-14.5-40.4-16.3s-5.6.5-1.2 3zm-6 6.3c-5.2-2.3-5.7 0-1.5 2.8 5.4 3.7 34.5 17.4 55 28 20.2 10.5 43.9 22.6 49.6 24.6l2.8-4.2c-10.3-4.9-51-23.2-67.2-31.5-14-7-33.6-17.5-38.7-19.7zm61.4-10.7c-15.2-3.7-36.7-9.5-42.2-10.5s-5.5 1.2-.8 3c6 2.5 37.5 9.3 59.8 15 22.1 5.6 48 12 54 12.8l1.7-4.8c-11.1-2.4-54.9-11-72.5-15.5zM428 314c-14.7-5-35.7-12.7-41-14.1-5.5-1.5-5.7.7-1.2 3 5.9 2.9 36.6 12.4 58.3 20a881.7 881.7 0 0 0 52.6 17.5 413.5 413.5 0 0 1 2.2-4.6c-10.8-3.4-53.7-15.9-70.9-21.8zm5.4-5.6c-15-4.2-36.4-10.8-41.8-12-5.5-1.2-5.6 1-1 3.1 6 2.6 37.3 10.5 59.3 17a882.4 882.4 0 0 0 53.5 14.7l2-4.7c-11.1-2.8-54.6-13-72-18z"/></g><g fill="#fcd80e"><path d="m310 355.2 6 4.3c8.7 6 13.4 14.3 13 23l-.4 7 2.8-7c3.1-7.3 2.7-18.3-1-26.5l-2-4.8 6.7 3c9.6 4 16 11.2 17.3 19.7l1.2 7 1.3-7.4a36.4 36.4 0 0 0-6.5-25.8l-3-4.3 7.1 1.5c10.3 2 18 7.7 21.1 15.7l2.6 6.6-.3-7.5c-.1-8-5-17.9-11.7-23.9l-3.9-3.5h7.4c10.5-.3 19.2 3.7 23.9 11l3.9 5.9-1.8-7.4a36.4 36.4 0 0 0-16.4-20.9l-4.6-2.6 7.2-1.6c10.2-2.4 19.6-.3 25.7 5.8l5 5-3.3-6.8a36.4 36.4 0 0 0-20.4-17l-5-1.7 6.8-3c9.4-4.5 19-4.4 26.2.3l6 3.8-4.6-6a36.4 36.4 0 0 0-23.5-12.4l-5.2-.5 6-4.4c8.3-6.3 17.6-8.3 25.7-5.2l6.6 2.5-5.7-4.8c-6-5.2-16.7-8.2-25.6-7.3l-5.2.6 4.9-5.6c6.8-7.9 15.6-11.7 24.1-10.4l7 1-6.6-3.5c-7-3.8-18-4.5-26.5-1.8l-5 1.7 3.6-6.5c5-9.1 12.9-14.7 21.5-15.2l7-.4-7.2-2a36.4 36.4 0 0 0-26.3 3.7l-4.5 2.6 2.2-7c3-10 9.5-17.1 17.8-19.4l6.8-1.8-7.5-.6a36.3 36.3 0 0 0-25 9.2L372 213l.7-7.4c.9-10.4 5.7-18.7 13.4-22.6l6.3-3.3-7.4 1.1c-8 1-17.3 6.9-22.5 14.1l-3.1 4.3-.8-7.3c-1.4-10.5 1.7-19.6 8.4-25l5.5-4.5-7.1 2.6a36.4 36.4 0 0 0-19.1 18.5l-2.1 4.8-2.4-7c-3.4-9.9-2.3-19.4 3.1-26.1l4.4-5.6-6.4 4a36.4 36.4 0 0 0-14.8 22.1l-1 5.1-3.8-6.3c-5.4-9-6.3-18.5-2.4-26.2l3.2-6.4-5.5 5.3a36.4 36.4 0 0 0-9.9 24.7v5.2l-5-5.4c-7.1-7.7-10-16.8-7.8-25.2l1.8-6.8-4.2 6.2a36.5 36.5 0 0 0-4.5 26.2l1 5.2-6-4.3c-8.6-6-13.3-14.4-12.8-23l.3-7-2.8 7c-3.1 7.2-2.7 18.3 1 26.5l2 4.8-6.7-3c-9.6-4-16-11.2-17.3-19.7l-1.2-7-1.3 7.4a36.4 36.4 0 0 0 6.5 25.8l3 4.2-7.1-1.4c-10.3-2-18-7.7-21.1-15.8l-2.6-6.6.3 7.6c.1 7.9 5 17.8 11.7 23.9l3.9 3.5h-7.4c-10.5.2-19.2-3.7-23.9-11l-3.9-6 1.8 7.4a36.4 36.4 0 0 0 16.4 21l4.6 2.6-7.2 1.6c-10.2 2.3-19.6.3-25.7-5.8l-5-5 3.3 6.8a36.4 36.4 0 0 0 20.4 17l5 1.6-6.8 3.1c-9.4 4.5-19 4.4-26.2-.3l-6-3.9 4.6 6a36.4 36.4 0 0 0 23.5 12.4l5.2.6-6 4.4c-8.3 6.3-17.6 8.2-25.7 5.1l-6.6-2.5 5.7 4.9c6 5.2 16.7 8.2 25.6 7.2l5.2-.5-4.9 5.5c-6.8 8-15.6 11.8-24.1 10.4l-7-1 6.6 3.5c7 3.9 18 4.6 26.5 1.8l5-1.6-3.6 6.4c-5 9.2-12.9 14.8-21.5 15.2l-7 .4 7.2 2.1c7.6 2.3 18.5.7 26.3-3.7l4.5-2.7-2.2 7c-3 10.1-9.5 17.2-17.8 19.4l-6.8 1.9 7.5.5c7.9.7 18.3-3.1 25-9.1l3.8-3.5-.7 7.3c-.9 10.5-5.7 18.7-13.4 22.6l-6.3 3.3 7.4-1c8-1 17.3-7 22.6-14.2l3-4.2.9 7.3c1.3 10.4-1.8 19.5-8.5 25l-5.5 4.4 7.1-2.5a36.4 36.4 0 0 0 19.1-18.6l2.1-4.8 2.4 7c3.4 10 2.3 19.5-3.1 26.2l-4.4 5.5 6.4-4c6.8-4 13-13.3 14.8-22l1-5.2 3.8 6.4c5.4 9 6.4 18.5 2.4 26.2l-3.1 6.3 5.4-5.2a36.4 36.4 0 0 0 9.9-24.7v-5.2l5 5.4c7.1 7.7 10 16.8 7.8 25.1l-1.8 6.9 4.2-6.3a36.5 36.5 0 0 0 4.6-26.2l-1.1-5.1"/><path id="a" d="M291.6 15c-7.3 12-8.2 21.7-3.2 38.4 2.4 7.8 5 19.4 6.2 25.7 1.4 8.9 1.3 9.7 1.5 11.7h8c.3-3.1.5-6.7 1.2-11.6.7-5.7 3-17.6 5.4-25.9 5-16.5 4.6-26.7-3-38.2-2.8-4.2-6.5-7.8-8.1-7.8-1.7 0-5.5 3.3-8 7.6zm36 34.1C317.2 53.6 311 66 307.6 83a58 58 0 0 0-1.1 7.9h5.3c.5-2.4.8-3.7 1.9-7.1 4.1-13.3 16.5-18.6 16-6.2-.3 3.4-1.7 5.3-3.3 7.2 2-.5 6.2-2.5 9.6-4.4 19-11.5 11.6-39.7-8.4-31.2zm-42.4 46H315V93h-29.8V95zm2.5 9.8c-3 3.3-7.8 5.7-7.8 5.7s4.2.5 8 .2c4-.3 6.1-.8 8.4-1.9-.6 4.6-.6 9.1-.6 9.1a26 26 0 0 0 2.5 10.4c1.7 2.5 2.7 2.5 4-.1 1.4-2.9 2.3-5.8 2.6-10.3 0-3.4-.2-5-1-9a23 23 0 0 0 8.4 1.8c4 .4 7.8.2 7.8.2s-5.5-2.8-8-6.2c-2.4-3.4-1.8-2.8-3.6-7.2H292c-1.8 4-2 4.8-4.3 7.3zm-15.3-55.8c10.4 4.5 16.6 16.8 20 33.8a58 58 0 0 1 1.1 7.9h-5.3c-.5-2.4-.8-3.7-1.9-7.1-4.1-13.3-16.5-18.6-16-6.2.3 3.4 1.7 5.3 3.3 7.2-2-.5-6.2-2.5-9.6-4.4-19-11.5-11.6-39.7 8.4-31.2z"/><use xlink:href="#a" x="-185"/><use xlink:href="#a" x="185"/></g></svg>