<svg xmlns="http://www.w3.org/2000/svg" xmlns:xlink="http://www.w3.org/1999/xlink" width="1200" height="720"><path fill="#e30631" d="M0 0h1200v720H0V0Z"/><path fill="#faf6f5" d="M0 0h1200v480H0V0Z"/><path fill="#24a34e" d="M0 0h1200v240H0V0Z"/><path fill="#0859b9" d="M0 0v720l283.5-360L0 0Z"/><g id="b"><path fill="#0a1a1d" d="M518 423c-1 6-7 9-7 14 0 16 50 21 69 17v-1c-22 4-68-2-68-16 0-4 6-7 7-14 2 7 18 12 37 12 17 0 31-2 31 2 0 3-7 3-7 7 0 2-1 8-1 16 0 5 10 7 21 7l1-1c-11 0-21-2-21-6 0-6 1-9 1-16 2 4 11 5 19 5l1-1c-10 0-19-2-19-5 0-2 4-2 6-5l1 10h1l-1-10c-1-7-13-4-33-4-21 0-36-6-36-13 0-4 6-6 12-6l-6 14 1 1 6-14c4-8-13-10-18-19l-1 1c6 14-7 22 3 29l1-1c-9-6 1-11-2-26 4 6 16 9 16 13 0 2-12-2-14 10Zm23-131v108c0 43 55 14 58 35h2V292h-60Z"/><g id="a" transform="rotate(5 600 440)"><path fill="#0a1a1d" d="m589 262 11 18 11-18Zm0 12h22l-11-18Z"/><path fill="#fcd80e" d="M591 263h18l-9 15Zm0 10 9-15 9 15Z"/></g><use xlink:href="#a" transform="rotate(10 600 440)"/><use xlink:href="#a" transform="rotate(20 600 440)"/></g><use xlink:href="#b" transform="matrix(-1 0 0 1 1200 0)"/><path fill="#d3d3d5" d="M600 432c-5-18-57 7-57-31V294h114v107c0 38-52 13-57 31Z"/><path d="m677.6 438.5-.4-3.2 2.7 1.8Zm-1.2 4.7 1.7-1-.2-2 3.2-2 1.6 1.1 1.6-1-7.7-5.5-1.2.7Zm-4 1.5 1.7-.7-2.9-8.4-1.7.7Zm-11.3-1.3a4.7 4.7 0 0 0 8.1 1.4l-.6-2c-.8 1.8-4.9 2.9-5.8 0-.9-2.9 2.6-4.5 4.9-3.2l-.5-1.9c-3.9-1.3-7.4 2-6.1 5.7Zm-3.3 4.9 1.8-.3-1.6-9-1.8.3Zm-7 .7 1.8-.2-.7-7.3 2.5-.3-.2-1.7-6.9.8.2 1.7 2.6-.3Zm-10.1-.3c2.7 1.4 5.9 1.1 5.9-1.8s-4.5-2.8-4.5-4 2.4-.8 3.5-.1V441c-2-1.3-5.3-.6-5.3 1.6 0 2.9 4.5 2.9 4.5 4.3 0 1.2-2 1.1-4.2-.1Zm-2.6-2.4.4-5.8-1.9-.1-.3 5.8c-.1 2.3-3.7 2.2-3.5-.1l.5-5.8-1.9-.1-.4 5.7c-.3 4.7 6.8 4.9 7.1.4Zm-15.3 2.3c2.3.9 4.7.4 5-2l.7-6.6-1.8-.1-.6 6.1c0 1.7-2.1 1.4-3.1.8Zm-14.7 13 6.8-1.1-.3-1.7-4 .7 2.8-7.8-6.5 1 .3 1.6 3.7-.5Zm-9.9-2.9 1.4-3.1 1.4 3.1Zm-1.4 3.6.8-2h3.9l.9 2 2-.2-4.1-8.9h-1.4l-4.1 8.9Zm-7.2-5.9-1.6-.2.4-2.6 1.5.2c1.7.2 1.3 2.8-.3 2.6Zm-2.3 4.6.5-3.2 1.5.2c3.8.6 4.8-5.3 1.1-5.8l-3.6-.5-1.4 9Zm-18.8-13.2-.2-5.7 2-.1c2.9-.1 3.3 5.5.1 5.7Zm-1.8 1.7 3.9-.2c5.5-.3 5.1-9.4-.9-9l-3.3.2Zm-8.8-3.6 1.5-3 1.4 3Zm4.3 3.6h2l-4-9.1h-1.4l-4.3 8.9h2l.9-1.9 4 .1Zm-13.8-2.2-1.8-.2.6-5.7 2 .2c2.9.4 2.4 6-.8 5.7Zm0 1.6c5.5.5 6.5-8.5.5-9.1l-3.3-.3-1.1 9Zm-7.3-.7 1.5-8.8-1.9-.4-1.5 8.8Zm-20.3-6.3c1.9 1.1 4 .4 5-1.6l2.3-4.7-1.7-.9-2.4 5c-.4.9-1.4 1.3-2.3.8-.9-.5-1.2-1.5-.8-2.3l2.4-4.9-1.7-.9-2.3 4.8c-.8 1.8-.3 3.8 1.5 4.7Zm14.7 5.2 2.6-8.5-1.8-.6-1.6 5.5-3-6.7-1.3-.5-2.8 8.4 1.8.6 1.9-5.3 2.8 6.7Z"/><path fill="#24a34e" d="M628 333c1-3 3-3 5-2-1-2-4-2-5 0-1-2-4-4-8-2v1c4-1 6 0 8 3Zm-69 13c-4 1-5-5-1-6 0-5 3-8 8-7 3-3 6-2 8 1 0-2-2-4-4-4 0-3 1-5 4-6 0-3 1-5 5-5-2-5 5-9 9-3 2-3 6-1 5 3 3-4-2-8-5-5-1-2-2-2-3-2 0-1 1-2 3-2-1-4 2-7 6-6 5-6 15-2 15 6-2 0-5 2-5 4-2-1-6 0-6 2 2-1 5-1 7 0 3-10 16-2 9 5 3-1 4-4 3-6 1-1 3-2 5-1 1-2 6-4 8 1 3-1 6 2 4 5-2-1-5 0-5 2 2-2 6-1 7 0 5-2 8 0 8 5 6 1 5 11 2 11-2 0-2-2-5-1 0-2-1-3-3-3v1c2 1 2 2 2 4 1-1 4-1 5 0 0 3-6 5-10 3 2-2 1-4-1-4 2 3-1 6-5 6s-7-4-7-7c-6 6-15 0-12-6v-1c-2 1-3 3-2 5-4 2-9 2-12-1 0 2-2 4-5 3 1 4-2 7-6 6l-1 1c2 5-5 8-9 3-3 1-6 1-8-2 0 5-7 5-8 1Zm46 10c1-7 2-11 9-15 3 1 5 1 7-1 4 4 0 4 2 6 3 3 2 9-4 8-1 3-5 4-7 1-1 2-4 3-7 1Zm-14-26c1-2 3-3 5-3v-1c-2-1-4 0-5 2-3-4-5-5-9-5v1c4 0 6 2 9 6Zm-23 0c-5 0-7-5-5-7-1-2 0-4 2-4 0-3 3-5 6-4 1-4 5-4 7-1-1 0-2 3-1 4-3-1-5 3-4 5-4 1-5 5-5 7Zm26 24c-2 1-6 1-8-2-3 2-7 1-7-1 6-1 8-4 7-6 2 0 4-1 5-2 2 3 3 8 3 11Zm-14-9c1-1 0-4-3-2 0-4-4-4-7-1l1 1c3-3 5-2 5 1 2-1 4 0 4 1Z"/><path fill="#b5915f" d="M597 415c2-4 2-9 0-9 2 9-5 11-6 8 3-4 6-13 4-13-3 17-11 15-10 11 1-3 7-8 9-16 2-7 2-16 2-26 0-15-1-24-4-28v-4c7 4 7 3 6 17 2 0 2-10 1-17h4c0 3-3 14-1 14 1-7 3-12 7-14l3 2c-9 6-9 15-9 30 0 8 1 18 3 26s8 13 9 16c1 4-7 6-10-11-2 0 1 9 4 13-1 3-8 1-6-8-2 0-2 5 0 9-1 2-5 2-6 0Z"/></svg>