<svg xmlns="http://www.w3.org/2000/svg" xmlns:xlink="http://www.w3.org/1999/xlink" width="960" height="600"><style>.B{stroke-width:.164}.C{fill:#036a4a}.D{fill:#24a34e}.E{stroke-width:.218}.F{fill:#036a4a}.G{stroke:#036a4a}.H{stroke-width:.109}.I{stroke:none}.J{fill:#036a4a}.K{stroke-width:.437}</style><defs><radialGradient xlink:href="#M" id="A"><stop offset=".216" stop-color="#fcd80e"/><stop offset="1" stop-color="#cb8500"/></radialGradient><radialGradient xlink:href="#A" id="B" cx="447.418" cy="308.269" r="16.534"/><radialGradient xlink:href="#A" id="C" cx="451.558" cy="312.995" r="10.911"/><radialGradient xlink:href="#A" id="D" cx="454.11" cy="308.643" r="9.78"/><radialGradient xlink:href="#A" id="E" cx="458.39" cy="307.057" r="17.354"/><radialGradient xlink:href="#A" id="F" cx="445.976" cy="252.363" r="13.018"/><radialGradient xlink:href="#M" id="G" cx="477.858" cy="215.266" r=".345"><stop offset=".259" stop-color="#c40f38"/><stop offset="1" stop-color="#961538"/></radialGradient><radialGradient xlink:href="#M" id="H" cx="489.072" cy="210.326" r=".345" fx="489.072" fy="210.326" gradientTransform="scale(.97707 1.02346)"><stop offset="0" stop-color="#faf6f5"/><stop offset="1" stop-color="#faf6f5" stop-opacity="0"/></radialGradient><linearGradient xlink:href="#M" id="I" x1="473.906" x2="472.357" y1="259.171" y2="231.963"><stop offset=".216" stop-color="#cb8500" stop-opacity="0"/><stop offset="1" stop-color="#cb8500"/></linearGradient><linearGradient xlink:href="#M" id="J" x1="483.126" x2="485.495" y1="296.656" y2="326.583"><stop offset=".216" stop-color="#cb8500" stop-opacity="0"/><stop offset="1" stop-color="#cb8500"/></linearGradient><linearGradient xlink:href="#M" id="K" x1="451.541" x2="455.366" y1="249.523" y2="240.576"><stop offset=".216" stop-color="#fcd80e"/><stop offset="1" stop-color="#cb8500"/></linearGradient><linearGradient xlink:href="#M" id="L" x1="473.314" x2="475.929" y1="237.247" y2="270.446"><stop offset=".216" stop-color="#fcd80e"/><stop offset="1" stop-color="#cb8500"/></linearGradient><linearGradient id="M" gradientUnits="userSpaceOnUse"/></defs><path fill="#47a3d8" d="M0 0h960v600H0z"/><path fill="#faf6f5" d="M320 0h320v600H320z"/><g transform="matrix(1.01416 0 0 1.033 -6.796 -9.894)"><g class="G"><path fill="none" d="M452.1 377.5c2.7-.4 4.2-1.2 6-1.8m2.3-4a13 13 0 0 1 3 4.6m-8.1-5.1c1.4 1.3 2.3 2.7 3 4.2m-49.5-136.6c-1 1.6-3 2.7-4.8 3.4m-.3-.2c0-1.4-.2-3 0-4.4m-2 5 .7 2m2 1-2 .3m-4-.9c0 2.6.4 5.6.6 7.9m-1.8-1c.5.8 1 1.5 1.6 1.9m-4.6 6.4c.5 1 1 2.2 1.3 4m3.7-4.6-2 1.5m1.7 4.4c-1 .9-2.2 1.5-3.5 2.1m-3.8 40.4a16 16 0 0 0 4 4.7m.6 1.7a8 8 0 0 1-3-1m4.4 8.5 1.7 1m-.4 3.4c1.2.8 2.5 2.3 3.7 3.9m-1.4 2.8c1.4.3 2.5.7 3.2 1m-1 2.5h2m1.3-5.3-.5 4.2m1 1.6.4-1.6m4.7 6-.1 3.2m39.2 28-1.2 1.5m-2.4-4-.7-1.7" class="K"/><path d="M486.1 385c-.8-1.3-2.1-2.1-3.3-2.7-7.7-4-15.4-5.9-24-7.3-2.1-.3-4.1-2.2-6.2-3.2-5-2.3-10.5-3.2-15.3-5.7-.3-.1-1.5-.8-2-1.5-2-2.2-5.5-2.9-7.6-5-8.4-7.8-17.2-15-21.8-25.5-5.6-12.7-12.5-25.8-11.6-40.2.6-9.2-.7-18.4 1.5-27 3.4-13 7.6-25.7 15.4-36.4l-1.3.8a103.8 103.8 0 0 0-15.4 36.3c-2.3 8.7-1 18-1.5 27-1 14.5 6 27.6 11.5 40.3 4.6 10.4 13.5 17.7 21.8 25.6 2.2 2 5.6 2.7 7.6 5a10 10 0 0 0 2 1.5c4.9 2.4 10.4 3.3 15.4 5.7 2 1 4 2.8 6 3.2a76.5 76.5 0 0 1 24.2 7.2 8 8 0 0 1 3.3 2.6l1.3-.8" class="B C"/><g class="B D"><path d="M406.3 331.6a46.9 46.9 0 0 1-.2-23.5c6.7 13 4.5 23.7.2 23.5zm45.9 45.4c-7 .4-20.6 9.3-21.9 11.4 15.1.1 24-7.3 21.9-11.4zm7.5-4.3a60.1 60.1 0 0 1-14-26.5c15 10.9 18.9 24.3 14 26.5z"/><path d="M454.6 372.8a55.1 55.1 0 0 1-16-22.8c15.3 8.2 20.3 20.2 16 22.8zM439 366c1-7.8-5.6-24.2-7.5-26-3 16.5 3 27.6 7.5 26zm-27.3-24.3c-2.3-5.6-.6-19.3.5-21 5.5 11.7 3.3 21.2-.5 21zM398 265a51 51 0 0 1 21-16c-6.8 14.6-18 19.9-21 16z"/><path d="M398.7 259.3a51.8 51.8 0 0 1 17.4-20c-3.7 15.7-13.7 23.2-17.4 20zm27.9 99.2c-5-6.2-8-23.9-7.3-26.4 11.2 12.5 12 25.3 7.2 26.4zM397.9 322c-7 1.1-21.4-4.6-23-6.3 14.6-3.2 24.4 2 23 6.3zm-2.2-9.7c.8-5.5 8.6-15.8 10.3-16.6-1 12-7.4 18.6-10.3 16.6zM447 371a57.1 57.1 0 0 0-26.1 13.6c18 .1 28.7-8.7 26.1-13.6z"/></g><g class="B C"><path d="M406.4 331.5c4.2.2 6.4-10.4-.3-23.4a78.9 78.9 0 0 1 .3 23.4zm11.2 20a48.8 48.8 0 0 0-21.7-11.2c8.9 12.1 19.9 15.1 21.7 11.2zm-24.4-53a56.8 56.8 0 0 0-14.8-24c1.5 17.2 10.6 26.7 14.8 24zm8.4 34.3c-5-3.7-19-5.4-21-4.8 10.2 8.4 20.2 8.5 21 4.8zm-9.4-24.9a42 42 0 0 0-16.9-13.7c5.5 12.4 14.6 17 16.9 13.7zm2.7-47.5c1-7.6-5.5-23.4-7.3-25.2-2.9 16 2.9 26.7 7.3 25.2zm4.5-15c2.7-6.4.8-22.3-.5-24.3-6.4 13.5-3.8 24.6.5 24.4zm5-7.6a40.3 40.3 0 0 0 3.5-19.4c-7.2 9.7-7 18.9-3.5 19.4zm6-6.1a38.8 38.8 0 0 0 9-17.4c-9.7 7-12.2 15.8-9 17.4zm-16 43.2c0 .9-1-8.2-10.1-18.3.4 14.8 6.2 20.4 10 18.3zm32.5 85.8a53.1 53.1 0 0 0-25.8-6c12.6 10.4 24.9 10.6 25.8 6zm12 5.2c-4.5 1.6-10.4-9.4-7.5-25.9 2.8 14 6.2 25 7.5 26zm13.4 11.2c2 4-6.8 11.4-21.8 11.3 12-5 21.2-9.9 21.8-11.3zm7.3-4.5c4.9-2.3 1.1-15.5-14-26.4 8.6 13.2 14.5 24.6 14 26.4zm-5 0c4.2-2.6-.7-14.4-16-22.6 9.5 11.2 16.2 21 16 22.7zm-42.8-31c3.7.3 6-9.2.5-20.8.7 11 .4 20-.5 20.9zM398 265c3 4 14-1.3 20.9-15.9-10.2 9.4-19.3 16-20.9 16zm.9-5.6c3.6 3.2 13.5-4.3 17.2-20-8 11.3-15.6 19.8-17.2 20zm27.7 99.1c4.7-1.1 4-13.8-7.3-26.3 5 13.5 8 24.8 7.3 26.3zM397.7 322c1.4-4.3-8.3-9.4-22.8-6.3 12.3 2.2 22 5 22.8 6.3zm-2-9.7c3 2 9.2-4.6 10.4-16.6a68.6 68.6 0 0 1-10.3 16.6zM447 371c2.5 5-8 13.7-26 13.6 14.2-5.9 25.3-11.8 26-13.6z"/><path d="M399.4 326.3a45 45 0 0 0-17-15.8c5 13.6 14.2 19.1 17 15.8z"/></g><g class="B D"><path d="M392.4 274c4.1-4.7 17.5-9.2 19.6-9-8 10.5-18 12.6-19.6 9zm25 77.5c-1.7 4-12.6 1-21.6-11.1a84.4 84.4 0 0 0 21.7 11.1zm-24.3-53c-4.2 2.7-13.1-6.8-14.7-24 6.6 13.3 13 23.5 14.7 24zm8.4 34.3c-.7 3.7-10.7 3.6-20.8-4.7a74 74 0 0 0 20.8 4.7zm-9.4-25c-2.4 3.3-11.3-1.2-16.8-13.6 8.2 8 15.5 13.7 16.8 13.6zm2.7-47.5c-4.4 1.6-10.1-9-7.3-25 2.7 13.5 6 24.2 7.3 25zm4.5-14.9c-4.3.3-6.9-10.8-.5-24.3-.8 12.8-.5 23.3.5 24.3zm5-7.6c-3.4-.6-3.7-9.7 3.6-19.4a66.2 66.2 0 0 0-3.6 19.4zm6-6.1c-3.1-1.7-.7-10.4 9-17.3a66.3 66.3 0 0 0-9 17.3z"/><path d="M394.3 274.9c-3.9 2.1-9.6-3.5-10-18.3 5 11.7 8.6 17.8 10 18.3zm32.5 85.8c-.9 4.6-13.1 4.4-25.7-5.9 13.2 4.3 24.3 6.7 25.7 5.9zm-8.2-9.5A41 41 0 0 1 412 332c9 8.7 10.2 18.1 6.7 19.2zm-16.8-25c-3.6-5.8-4-20.9-3-23 8.3 11.9 7.3 22.7 3 23zm-2.7.1c-2.7 3.3-11.9-2.1-16.8-15.8a77.3 77.3 0 0 0 16.8 15.8z"/></g><g class="B C"><path d="M392.4 274c1.6 3.6 11.4 1.5 19.5-8.9-12 6.8-16.7 9.8-19.5 8.9zm9.3 52c4.3-.3 5.3-11-3-22.8a72.7 72.7 0 0 1 3 22.9zm17 25.2c3.4-1 2.2-10.5-6.7-19.2 4.4 9.7 7.2 18 6.7 19.2z"/><path d="M394.2 291.8c2-8.4-1.7-22.6-4.3-25.6-4.7 15.4-.2 26.6 4.3 25.6z"/></g><g class="B"><g class="D"><path d="M394 293.8c-6 1.3-8.7-12-4.1-27.1 1 13.5 2.8 26.1 4 27z"/><path d="M392.7 293.7c-.5-7.5 7-23 9-24.7 2 15.8-4.5 26.3-9 24.7z"/></g><path d="M392.8 293.6c4.5 1.6 10.9-8.8 8.9-24.6-3.5 13.3-7.5 23.8-8.9 24.6z" class="C"/><path d="M394.1 303.3a50 50 0 0 1 10.6-23.7c.8 16.2-6.3 25.9-10.6 23.7z" class="D"/><path d="M394.2 303.4c4.2 2.2 11.3-7.4 10.5-23.5-4.4 12.8-9 22.9-10.5 23.5z" class="C"/></g><g fill="#c40f38" stroke="#961538"><g stroke-width=".186"><circle cx="396.835" cy="251.27" r="1.085"/><circle cx="405.205" cy="245.07" r="1.085"/><circle cx="401.564" cy="241.71" r="1.086"/></g><g class="E"><circle cx="392.503" cy="313.12" r="1.277"/><circle cx="395.033" cy="297.13" r="1.277"/><circle cx="408.213" cy="334.46" r="1.277"/><circle cx="402.393" cy="336.43" r="1.277"/><circle cx="446.703" cy="367.63" r="1.277"/><circle cx="449.613" cy="374.71" r="1.277"/></g></g><path fill="none" d="M561.1 259c.7.6 1.2.8 2.3 1.9m-6.6-19c0-1.3-.6-3.6-.9-5m3.4 3c.1 2-.2 3.8-1 5.5m-4.2-.5c1.8 1.6 3.5 3 5.3 3.9m3.8 1.2c.1 2-.1 4-.7 6m.3 1.5 1.4-2.3m-1.9 12.2c1.4.3 2.8 2 3.5 3.5m.5-1.3 1.6-2.2m1.7 30.8a24 24 0 0 1-2.4 3.4m-4 0c.8 1.4 1.6 3 2.6 4m2.5 5.9a13.2 13.2 0 0 1-4.5 4m.2 4.5c-1.1.8-2.5 3-3.7 4.7m8.4-20.2-2.1.9m-1.4-7.5 1.2 1.1m-9.2 37.4H555m-2-1.8.6 1.6m-7.7 5.1c-.2 1.9 0 3.7.2 5.6m4.3-9 1 2.2m3.9-.2-2.5.5m-30.9 25.2-1 1.8m12-4c-1.5.2-2.8 0-4.1-.2m-5.5 6a27.3 27.3 0 0 0-3-1m-14.6 2.7c-1 .7-2 2.4-3.1 4m-.6-4.5c-2.4 1.3-3.2 3.7-4.4 5.8m2.8 2.9-5.3-2m16.7-.8c-2.3-1.2-4.7-1-7.1-1.4m10.8-.4c-3.7-.7-7-.6-10.3-.1m7.8-2.6-1.4-.6m-5.6 5.5-2.3-1.3m58-49.2c-1.3.8-2.6 2.3-3.8 3.9m1.8-79.6-2.2-.8" class="K"/><g class="C B"><path d="M474.4 384.9c.8-1.3 2.1-2 3.3-2.7 7.7-4 15.4-5.8 24-7.2 2.1-.4 4.1-2.3 6.2-3.2 5-2.4 10.5-3.3 15.3-5.7.3-.2 1.5-.9 2-1.6 2-2.2 5.5-2.9 7.6-5 8.4-7.8 17.2-15 21.8-25.5 5.6-12.7 12.5-25.8 11.6-40.2-.6-9.2.7-18.4-1.5-27a104.6 104.6 0 0 0-15.4-36.4l1.3.8a103.8 103.8 0 0 1 15.4 36.4c2.3 8.6 1 17.9 1.5 27 1 14.4-6 27.5-11.5 40.3-4.6 10.4-13.5 17.6-21.8 25.5-2.2 2-5.6 2.7-7.6 5a10 10 0 0 1-2 1.5c-4.9 2.4-10.4 3.4-15.4 5.7-2 1-4 2.8-6 3.2A76.5 76.5 0 0 0 479 383a8 8 0 0 0-3.3 2.7l-1.3-.9"/><path d="M553.6 334.6c2.8-7.4 0-24.8-1.4-27-6.7 15.4-3.4 27.6 1.4 27zm-7 7c2.2-5.6.6-19.3-.5-21-5.6 11.7-3.3 21.3.4 21zm16.7-74.1a46.9 46.9 0 0 0-19.2-14.6c6.2 13.3 16.5 18.2 19.2 14.6zm-1.5-8c-1.8-6.1-12.4-16-14.5-16.7 3.1 13 11.4 19.3 14.5 16.7zm4.7 15c-3.5-4.1-15.2-8-17-7.8 7 9 15.6 10.9 17 7.7zm-2.8 46.3c6.1 1 19-4.2 20.3-5.7-12.9-2.8-21.5 1.9-20.3 5.7zm-.2-5.7c0-5.6-6.3-16.8-8-18-.5 12 4.9 19.5 8 18zm.5-13.7a50 50 0 0 0-10.6-23.6c-.8 16.2 6.3 25.8 10.6 23.6zm-53 75.3a47.7 47.7 0 0 0 22.2 11c-8.8-12.3-20.1-15.1-22.1-11z"/></g><path d="M553.6 334.4c-4.9.6-8.1-11.4-1.4-26.8-.5 14.2.2 25.7 1.4 26.8zm-53.4 43.7c7 .4 20.6 9.3 21.9 11.4-15.1.1-24-7.3-22-11.4zm0-8c2-8 15-21.2 17.5-22.1-3.6 17.1-13.7 25.5-17.5 22.2zm21.3-4.2c-1-7.8 5.6-24.2 7.5-26 3 16.5-3 27.6-7.5 26zm21.4-14.5a48.8 48.8 0 0 1 21.7-11.2c-8.9 12.1-19.8 15.1-21.7 11.2zm25.8-53.3c1-6.3 9.7-17.9 11.6-18.9-1.2 13.6-8.3 21-11.6 19zm-11.7 38a50.5 50.5 0 0 1 24.4-5.4c-11.8 9.7-23.5 9.8-24.4 5.5zm10.3-24.4c3-6 15.6-14.2 17.7-14.4-5.8 13-15.3 17.8-17.7 14.4zm-1.5-45.6c0-7.6 8-22.7 10-24.2 1.1 16.1-5.7 26.2-10 24.2zm-7-26a40.4 40.4 0 0 1 0-20c5.5 11 3.7 20.2 0 20zm-4.2-2.1a49.7 49.7 0 0 1-10.4-22.1c11.8 9.3 14.4 20.4 10.4 22.1zm11.7 34.5c-.3.9 3-7.7 14.2-15.3-4 14.3-11 18.3-14.2 15.3zm-34.1 90c7-5.2 26.5-7.7 29.2-6.8-14.2 11.8-28.2 12-29.2 6.7zm14.3-20.9c-3.7.2-6-9.3-.5-21-.7 11-.4 20 .5 21zm16.9-74c-2.7 3.5-13-1.3-19.2-14.7a78.8 78.8 0 0 0 19.2 14.6zm-1.7-8.1c-3.1 2.6-11.3-3.6-14.4-16.7 6.7 9.4 13 16.5 14.4 16.7zm4.8 15c-1.4 3.1-9.9 1.3-16.9-7.7 10.4 5.9 14.5 8.4 17 7.7zm-2.6 46.2c-1.3-3.8 7.3-8.3 20.2-5.5a69 69 0 0 0-20.2 5.5zm-.4-5.6c-3.2 1.5-8.5-5.9-8-17.9a68.6 68.6 0 0 0 8 18zm.4-13.5c-4.3 2.2-11.3-7.4-10.5-23.5 4.4 12.8 9 22.9 10.5 23.5zm-52.7 75c2-4 13.1-1.3 22 11-11-6.8-20.5-11.4-22-11z" class="B D"/><g class="B C"><path d="M521.5 365.8c4.6 1.6 10.5-9.4 7.6-25.9-2.8 14-6.2 25.1-7.6 26z"/><path d="M531.8 360.6a55 55 0 0 0 4.6-27c-10 13.6-9.4 26.3-4.6 27zM500.1 378c-2 4.1 6.7 11.5 21.8 11.3-12-4.8-21.2-9.8-21.8-11.3zm.2-8c3.8 3.3 13.8-5 17.4-22.1-8.1 12.4-15.7 21.8-17.4 22zm42.7-18.7c1.8 4 12.7 1 21.7-11.1a84.4 84.4 0 0 1-21.7 11.1zm25.8-53.3c3.3 2.1 10.3-5.3 11.5-18.8a74.8 74.8 0 0 1-11.5 18.8zM557 336.2c.9 4.4 12.4 4.2 24.3-5.5-12.5 4-23 6.2-24.3 5.5zm10.3-24.6c2.5 3.4 11.9-1.4 17.7-14.4a75 75 0 0 1-17.7 14.4zM566 266c4.3 2 11-8 10-24-4.2 13-8.5 23.3-10 24zm-7-25.9c3.6.1 5.5-9 0-20 .9 10.5.8 19.1 0 20zm-4.2-2.2c4-1.7 1.4-12.7-10.4-22a81.7 81.7 0 0 1 10.4 22zm11.6 34.7c3.2 3 10.2-1 14.2-15.4-7.8 10.1-12.7 15.2-14.2 15.4zm-34 89.9c1 5.2 14.9 5 29-6.7-14.9 4.8-27.4 7.6-29 6.7zm6.8-7.7a41 41 0 0 0 3.6-20.1c-7.5 10-7.2 19.5-3.6 20zm19.6-28.7c3.6-5.7 4-20.9 3-23-8.3 11.9-7.3 22.7-3 23z"/></g><path d="M531.8 360.5c-4.8-.6-5.3-13.3 4.5-26.8-3.6 13.8-5.4 25.4-4.5 26.8zm35.2-68.3c-1-7.8 4-20.1 6.6-22.5 2.6 14.4-2.7 24-6.7 22.5zM539 354.7c-3.6-.5-3.9-10 3.6-20a67.4 67.4 0 0 0-3.6 20zm23.4-104.2c-2.2-6 0-20 1.2-21.8 5.3 12.2 2.6 22.1-1.2 21.8zm-58.1 120.1c2.5-8 16.2-21 18.8-22-4.3 17.5-15 25.6-18.8 22zm54.5-41.6a45 45 0 0 1 17-15.8c-5 13.6-14.2 19.1-17 15.8zm-.1-3c-4.3-.4-5.3-11 3-22.9a72.7 72.7 0 0 0-3 22.9z" class="B D"/><g class="B C"><path d="M567 294c5.2 1.9 9-9.8 6.6-23.9a98 98 0 0 1-6.6 24z"/><path d="M567.8 293.6c.5-7.5-7-23-9-24.7-2 15.8 4.5 26.3 9 24.7zm-5.2-43.2c3.8.4 6.4-9.4 1.1-21.7.4 11.5-.2 20.8-1.2 21.7zm-58.1 120.1c3.8 3.7 14.4-4.4 18.7-21.8-8.8 12.3-17 21.6-18.7 21.8zm54.6-41.5c2.8 3.3 12-2.1 17-15.8a77.3 77.3 0 0 1-17 15.8z"/></g><path d="M567.7 293.5c-4.5 1.7-10.9-8.7-8.9-24.5 3.5 13.2 7.5 23.7 8.9 24.5z" class="B D"/><g fill="#c40f38" stroke="#961538" class="E"><circle cx="564.625" cy="254.9" r="1.085"/><circle cx="568.415" cy="266.82" r="1.085"/><circle cx="569.757" cy="304.3" r="1.277"/><circle cx="564.647" cy="297.29" r="1.277"/><circle cx="549.907" cy="337.17" r="1.277"/><circle cx="556.197" cy="339.9" r="1.277"/><circle cx="513.797" cy="372.26" r="1.277"/><circle cx="506.797" cy="377.29" r="1.277"/><circle cx="557.054" cy="249.25" r="1.084"/></g></g><g id="N" fill="#47a3d8" stroke="#036a4a"><path d="M434.3 336.3c-.2 1 .8 2.3 2 2 .5 0 .7-.5.2-.5-.4.2-.9 0-1.2-.3a1.7 1.7 0 0 1-.4-2l-.7.8z" class="H"/><g class="I"><path d="M437.2 338.3c-1 1.2-2.5 1.7-3.4.9-.6-.6-.8-1.2-.5-2l-1 1.3s.6 1.3 1.6 1.8c1.3.5 3-.3 4-1.6.8-1 1.6-2.4 1-3.6a4 4 0 0 0-2-1.7l-1 1c.5-.2 1.2 0 1.7.4 1.3 1 .6 2.5-.4 3.5z"/><path d="M437.2 338.3c-.3.4-.7.8-1.1 1s-1 .4-1.5.3a1.5 1.5 0 0 1-.7-.3 2.4 2.4 0 0 1-.5-.6 1.6 1.6 0 0 1-.3-.7 1.7 1.7 0 0 1 .2-.8l.1.1-1.1 1.3v-.1l1 1.3.7.4.8.1c.6 0 1.1-.2 1.6-.5a5.1 5.1 0 0 0 1.3-1 6.2 6.2 0 0 0 1-1.4c.2-.5.4-1 .3-1.6 0-.2 0-.5-.2-.8l-.5-.6a4.2 4.2 0 0 0-1.4-1h.1l-1 1.1h-.1a1.4 1.4 0 0 1 .7-.2 1.8 1.8 0 0 1 .8.2c.4.3.8.7.9 1.2s0 1-.2 1.4a5 5 0 0 1-.9 1.2zm0 0c.4-.3.6-.7.8-1.2s.3-1 .2-1.4-.5-.8-.9-1-1-.4-1.3-.2h-.1l1-1.2a4.2 4.2 0 0 1 1.5 1l.6.7c.2.3.2.5.2.8 0 .6-.1 1.2-.4 1.7a6.4 6.4 0 0 1-1 1.5 5.3 5.3 0 0 1-1.3 1c-.5.3-1 .5-1.7.5a2.2 2.2 0 0 1-1.6-.6 5 5 0 0 1-1-1.4l1-1.3h.2l-.1.8c0 .2 0 .5.2.7l.5.5.6.3c.5.1 1 0 1.5-.2s.8-.6 1.1-1z" class="J"/></g><path fill="#6c401f" stroke="#6c401f" stroke-linejoin="round" d="m515.2 249.3-40.1 39.5L434 328l-4.6 5.4c-2 2.3-4.4 5.3-7.2 8-.5.7-1.1.4-1.7.8-1.8 1-3.7 2.8-5 4.3l-12.3 13.5c-.7.9-1 1.4-.4 2l6.6 8.8c1.2 1.2 2.6 1.8 3.2.8 3.1-5.5 11-13.8 14-20.4 1.7-3.9 3.9-11 5.5-12.7 2-2.2 7.1-7.8 11.8-12.7l1-1 .9-1 70.5-73.6-1-1z" class="E"/><path d="M431.9 328.1c-1.2 0-2-.7-2.9-1.4 1.2.4 2.4.8 3.5.3l-.6 1.1z" class="H"/><path fill="#d7ccbf" d="m557 220.1-31.8 26.2c-.3.4-.6.3-.9 0l-2.9-2.4v-.6l1.4-1.4c.2-.2 0-.3-.1-.6l-.6-.6c-.3-.1-.5 0-.7.2l-1.4 1.5c-.7 0-1.3.6-1.4 1.4l-54.9 53.8-22.6 21.6c-.8 1-4.3 2.9-6.6 4.4-.8.5-1.5 1-1.8 1.5l-1.8 5.5c-.6 1.2-2.5 4-2.5 4.2l3.8 3.7 11.1-11.9.9-1a13.3 13.3 0 0 0-1.4-1.6 34 34 0 0 0-1.2-1l-.7-.6c-.2-.1.3-.5.5-.7l78.2-76.6a1.4 1.4 0 0 0 .4 0 1.4 1.4 0 0 0 .7 0l2.8 3.1c.6.7 1.2.7 1.7.4l31.8-28.5z" class="E"/><path d="M431 330.4a2.7 2.7 0 0 0 .6 0 1.5 1.5 0 0 0 .5-.1l.7-2.4.8-2.4c-.2-.2-.4-.4-.7-.4.3 0 .5.2.7.4l-.7 2.4-.7 2.4a1.4 1.4 0 0 1-.6.2 2.9 2.9 0 0 1-.7-.1z" class="I J"/><g fill="none" class="B"><circle cx="438.179" cy="328.135" r=".619"/><circle cx="434.436" cy="331.877" r=".619"/></g><path d="M441 322.4a11.8 11.8 0 0 1-1-.8l-.8-.8a11.6 11.6 0 0 1 1 .7l.8.9z" class="I J"/><path d="m502.2 259 3.5 3.5.6-.6-3.5-3.4-.6.6z" class="H"/></g><use xlink:href="#N" transform="scale(-1 1) rotate(-2.841 -9.261 19640.11)"/><g class="G B"><path d="M434 365.4a55.8 55.8 0 0 0-29.3.9c16.3 8 29.5 4.6 29.2-1zm89 3.3c7.8-3.3 26.8-.7 29.1 1-16.2 7.9-29.5 4.5-29.2-1z" class="D"/><path d="M433.8 365.5c.3 5.5-12.8 8.9-29.1.9 15.3 1 27.8.4 29-1zm89.3 3.3c-.3 5.5 12.8 8.9 29 .9-15.2 1-27.7.4-29-1z" class="C"/></g><g id="O"><path fill="#d7ccbf" stroke="#036a4a" d="M508.5 360a237.5 237.5 0 0 0-76.1-68c3.5-.2 11.4 3.9 14.7 6 23.9 15.4 44.3 35.8 65.6 59.8-1.2 1.2-2 2-3.4 3l-.8-.8z" class="E"/><path fill="#47a3d8" d="M510.6 359.8 509 361c-23-29.6-55-57.9-76.7-69 30.1 13.8 55.4 41.7 78 67.6h.1z"/><path d="M510.6 359.8 509 361a303.1 303.1 0 0 0-35.2-38 283.3 283.3 0 0 0-30.4-24.3c-3.6-2.4-7.3-4.7-11.1-6.7v-.2c8 3.7 15.4 8.2 22.5 13.3s13.6 10.7 20 16.6 12.4 12.2 18.3 18.5 11.6 13 17.4 19.4zm0 0L493 340.4c-5.9-6.4-12-12.6-18.3-18.5s-13-11.5-20-16.6c-7-5-14.5-9.6-22.4-13.2v-.2a194.4 194.4 0 0 1 21.7 14.3A285 285 0 0 1 474 323a336 336 0 0 1 18.3 18.3c5.9 6.4 11.5 13 16.8 19.8l1.5-1.4z" class="J"/><g fill="#ffb81c"><g stroke="#6c401f"><path d="M517.5 355c-2 .6-3.7 1.3-5.3 2.3-.2 1.4-2 3-3.5 3.3l-.6-.8a.1.1 0 0 0-.2 0l-.6.3c-.6 0-1.3.2-1.6 1-.4 1 .3 2.3 1.2 3.1 1 .7 1.4 1 2.4 1 1.1-.3 1.7-1.3 2-1.6 3.7 4.5 6.5 7 11.2 10.6 2 0 3.2-1.3 2.5-2.8-.2-.5-.8-.8-1.3-.6a1 1 0 0 0 0-.5c2.4-2.2 3.5-5 .9-9.8-2.2-4-4.7-5.4-7-5.4h-.1zm6.2 4.6c.5.7.7 1.4 1 2 1.6 3 .3 6.7-2.3 7.8h-.2c.4-.7-.8-2.2-1.4-1.7.3-.7-.7-2-1.5-1.7.4-.7-.5-1.9-1.4-1.5.4-.7-.3-1.8-1.3-1.6.3-.8-.4-1.8-1.3-1.6 0-.8-.2-1.2-.5-1.5 1-.8 2.3-2.1 3.4-2.7 2.7-1.2 4.4 1 5.5 2.5z" class="E"/><g class="H"><path d="M524.9 362.8c-.5-.3-.8-.8-.6-1.1s.7-.5 1.2-.2.8.7.7 1-.8.5-1.3.3z"/><path d="M524.6 361.8c-.5-.3-.8-.8-.6-1.2s.7-.4 1.2-.1.8.7.7 1-.8.5-1.3.3z"/><path d="M524 360.6c-.5-.2-.8-.7-.6-1s.7-.5 1.2-.3.8.8.6 1.1-.7.5-1.2.2z"/><path d="M523.2 359.6c-.5-.3-.8-.8-.6-1.1s.7-.4 1.2-.2.8.8.7 1.1-.8.5-1.3.2z"/><path d="M522.2 358.6c-.6-.2-.8-.8-.6-1.1v-.1c.2.1.7.2.6-.1 0-.2-.1-.3 0-.2l.6.2c.5.3.8.8.6 1.1s-.7.5-1.2.2z"/></g></g><path d="M511.3 363.6c.7-1.8 2-3.4 3.5-3.8m-3.3 4c1.3.3 3.3-1.2 3.8-2.5m-2.6 4c1.6.4 3.3-1.2 4-2.4m-2.5 4c2 0 3.1-1.3 3.7-2.4m-2.2 4c1.7 0 3.2-1.4 3.6-2.5m-2.1 3.8c1.8 0 3-.9 3.6-2m-2 3.4c1.7.1 3-.9 3.4-1.8m-1.6 3.3c1.6 0 2.7-1 3.1-2"/></g><path fill="#6c401f" d="M511.3 363.6a7.1 7.1 0 0 1 1.3-2.3l1-1a3 3 0 0 1 1.2-.5 4 4 0 0 0-1.2.6 6 6 0 0 0-1 1c-.5.6-1 1.4-1.3 2.2zm.2.3c.4 0 .8 0 1.2-.2a4.9 4.9 0 0 0 1-.6l1-.8.6-1c-.1.4-.3.7-.6 1l-1 .9-1 .5c-.4.1-.8.3-1.2.2zm1.2 1.4a2.5 2.5 0 0 0 1.2 0 3.8 3.8 0 0 0 1-.6l1-.8a6.2 6.2 0 0 0 .7-1 4.7 4.7 0 0 1-.7 1 5.2 5.2 0 0 1-.9.9l-1 .5h-1.3zm1.5 1.6c.4 0 .8 0 1.1-.2l1-.5a4.7 4.7 0 0 0 1-.8 6.6 6.6 0 0 0 .6-1 4.5 4.5 0 0 1-1.5 1.9 3.6 3.6 0 0 1-1 .5 3.4 3.4 0 0 1-1.2 0zm1.5 1.5c.8 0 1.5-.3 2.1-.8a5.2 5.2 0 0 0 .9-.7 4.2 4.2 0 0 0 .6-1 3.3 3.3 0 0 1-.6 1 4.8 4.8 0 0 1-.8.8l-1 .6c-.4.2-.8.1-1.2.1zm1.5 1.4a7 7 0 0 0 1-.2 4.7 4.7 0 0 0 1-.4 3.7 3.7 0 0 0 1-.6 3.5 3.5 0 0 0 .6-.9 2.9 2.9 0 0 1-.6 1 3.5 3.5 0 0 1-1 .6 4.5 4.5 0 0 1-2 .5zm1.6 1.4a4.5 4.5 0 0 0 1 0 4 4 0 0 0 1-.5l.8-.5.6-.8a2.5 2.5 0 0 1-.5.8 3.6 3.6 0 0 1-.9.6 3.7 3.7 0 0 1-2 .4zm1.8 1.5a4 4 0 0 0 1-.1 3.1 3.1 0 0 0 .8-.4l.7-.6a4 4 0 0 0 .6-.8 3 3 0 0 1-1.2 1.5 3 3 0 0 1-1 .3 3 3 0 0 1-1 0z"/></g><use xlink:href="#O" transform="scale(-1 1) rotate(-3.408 -13.793 16470.962)"/><g class="G B"><path d="M409.2 240a52.4 52.4 0 0 0 19.5-17.9c-15.6 4.2-22.7 14.3-19.5 18zm145.8 4.7a50 50 0 0 0-15.6-19.9c2.8 15.2 12 22.8 15.6 20z" class="C"/><path d="M409.2 240c-3.3-3.6 3.8-13.6 19.4-17.8-11 8.4-19.2 16.2-19.4 17.8zm145.8 4.7c-3.7 3-12.7-4.6-15.5-19.7 7.2 11 14 19.5 15.5 19.7z" class="D"/></g><g stroke="#9d7a51"><g class="B"><path fill="url(#B)" d="M452.2 318.1s-6.1.7-7.9-7.8c-1.8-9.1 5.3-10 5.3-10s8.1-.9 13.2-1l2.2 18-12.8.8z"/><path fill="url(#C)" d="M453 315.4s-4 .7-4.8-5.6c-.6-4.5 2.2-5.1 2.2-5.1l9.2 1.6v8.2l-6.6.9z"/><path fill="url(#D)" d="m450.4 304.7 9-.8 1.3 5.7-7.1.4s-.5-5.1-3.2-5.3z"/><path fill="url(#E)" d="M449.2 300.4s7.5-1.9 8.5 6.4c.2 2.2-1 7.2-4.7 8.6l13.9-1.5-1.3-15-4.6.4s-10 .3-11.8 1z"/><path fill="#fcd80e" d="M452.2 318.1s51.9-3.5 57.2-3.3c15.8-8.6 0-42.5-13.3-61.5 1.5-4.3-29.9-13.9-44-13l-5.2.3c-7.7.8-7.8 10.7-4.7 17 3 6 30.4 55 11.2 60.3l-1.2.2z"/><path fill="url(#I)" d="M507.8 273.3a148.4 148.4 0 0 0-11.7-20c1.5-4.3-29.9-13.9-44-13l-5.2.3c-7.7.8-7.8 10.7-4.7 17 1 1.8 4.3 8 7.9 15.7"/><path fill="url(#J)" d="M455 285c5.6 14.6 8.7 30-1.6 32.9l-1.2.2s52-3.5 57.2-3.3c8.6-4.7 7.8-16.8 3.2-30"/><path fill="url(#F)" d="M447.4 243.5c-3.7 0-4.7 3.6-4.6 5.8.1 6 4.6 6.2 4.6 6.2l6-.3 2.8-12.2-8.8.5z"/><path fill="url(#K)" d="m447.4 243.5 8.8-.5 1 9.1-7.8.4s2.5-7.3-2-9z"/><path fill="url(#L)" d="M496.1 253.3c6.7-1 6.6-10 2-13.7-15.5-.6-35.8-.1-50.6 1 1.7 0 6.4.4 6.9 6.5a8.2 8.2 0 0 1-3 7c-2 1.4-4 1.4-4 1.4h3.6l3-.4c21-2.7 42-1.8 42-1.8h.1z"/></g><path fill="#cb8500" d="M458.5 267.4c-.2-.3-.4-.7-.8-.8-.2 0-.6 0-.5-.4h.8l1.6-.2c.4.1.3.5 0 .5-.5 0-.2.5-.1.8l1.3 3c.1.4.4.7.7.7l1.1-.1c.3-.2.2-.6.2-1-.1-.3.5-.2.5 0l.4 1.4c0 .2-.2.1-.4.1l-3 .2c-.3 0-.8.3-1 0 0-.4.6-.2.6-.5l-.3-1-1.1-2.7zm4.8-.3c-.1-.3-.3-.7-.7-.8-.2 0-.6 0-.6-.4.2-.2.5 0 .7 0l1.7-.2c.3 0 .4.5 0 .4-.3 0-.3.4-.2.7l1.5 3.4c0 .2.2.5.5.6.3 0 .6 0 .7.3 0 .3-.4.1-.6.1-.5 0-1 0-1.6.2-.2 0-.5 0-.5-.3s.5 0 .6-.4c0-.3-.2-.6-.4-1l-1.1-2.6zm4.5.7c0 .2.4 0 .5 0 .3 0 .6-.2.6-.4 0-.5-.3-1-.7-1.2-.3-.3-.7-.2-1.1-.2l.1.5.6 1.3zm.6 1.6c.2.3.3.7.6 1 .2.2.6.1.8 0 .3 0 .5-.3.4-.5-.1-.7-.5-1.3-1.2-1.5a2.4 2.4 0 0 0-1 0l.2.5.2.5zm-2-2.4c-.2-.3-.3-.8-.7-1-.2 0-.6.1-.7-.2 0-.3.6-.1.8-.2.9 0 1.8-.3 2.6 0 .7.2 1.4.8 1.5 1.6 0 .4-.3.7-.6.8l.5.1c.6.2 1.1.6 1.4 1.2.2.3.3.9 0 1.3-.4.4-1 .4-1.4.4-.8 0-1.5 0-2.3.2-.3 0-.4-.5 0-.5.3 0 .3-.4.2-.6l-1.3-3zm7.4-1.9c.3 0 .4.3.5.5l.3.9c-.3.2-.5-.2-.6-.4-.2-.2-.4-.5-.7-.4a8.3 8.3 0 0 0-1.2 0c-.2.2 0 .4 0 .6l.7 1.4c.2 0 .6 0 .8-.3 0-.2-.3-.7.2-.6.3.2.2.6.4.9l.5 1.1c-.3.3-.5-.1-.6-.4-.2-.3-.7-.3-1-.3-.2 0 0 .2 0 .3l.6 1.5c.2.3.7.3 1 .3.3 0 .8 0 1-.4.2-.2-.3-.7 0-.8.4 0 .4.4.5.6 0 .3.2.6.3.8 0 .2-.3.2-.4.2l-3 .2c-.4 0-.9.2-1-.2 0-.3.7-.1.6-.5l-.4-1-1.1-2.7c-.2-.3-.4-.7-.8-.7-.2 0-.6 0-.4-.4h1l2.8-.2zm2.3 1.3c-.1-.3-.3-.7-.7-.9-.2 0-.7 0-.7-.4.3-.2.7 0 1 0 .8-.1 1.6-.3 2.4 0 .8.1 1.5.9 1.6 1.8 0 .4-.3.7-.7.8-.3 0 .2.1.3.2.6.3 1 .9 1.4 1.5.1.2.5.7.6.2 0-.5.6 0 .5.3 0 .4-.4.6-.7.6-.4 0-.9-.2-1.1-.6-.4-.6-.7-1.3-1.3-1.7-.2-.2-.5-.3-.8-.2v.5l.6 1.2c.2.3.6.3 1 .3.3.1.2.6-.2.5h-1.7c-.3.2-.9 0-.7-.3.3 0 .7-.2.5-.5l-1-2.6-.3-.7zm1.4 1c.2.2.6 0 .9 0 .3 0 .3-.5.2-.7-.1-.5-.4-1-.9-1.2-.2 0-.8-.2-.9.1l.7 1.6v.1zm7.2 1.6c.1.3.3.6.6.7.2 0 .6 0 .7.3 0 .3-.4.1-.6.2h-1.7c-.2.1-.5 0-.5-.3.2-.2.7 0 .7-.4l-.5-1.1-1.1-2.9c-.1-.3-.5-.3-.7-.3-.3 0-.7 0-.7.4 0 .3.2.6 0 .8-.3 0-.4-.3-.5-.5 0-.3-.2-.6-.4-1 0-.2.4-.1.5-.1l4.2-.2c.3 0 .5.2.5.5l.4 1c-.1.3-.5 0-.6-.3-.1-.3-.5-.7-.9-.7-.2 0-.6 0-.8.2l.2.7 1.2 3zm3.8-.9c-.2 0-.1.3-.1.4v.8c.1.4.5.3.8.4.2 0 .1.5-.2.4h-1.2c-.3.1-.8-.1-.5-.4.2 0 .4-.1.5-.3v-5c.2-.3.5 0 .6.2l3.6 4.5c.2.2.5.4.8.4.3 0 .4.5 0 .4h-1.5c-.2 0-.5.2-.7 0-.3-.1 0-.4.2-.4.3 0 0-.4-.1-.6l-.6-.8h-1.6zm1.1-.5c.2 0 0-.1 0-.2l-1.3-1.7v2h1.3zm3.1-1.8c-.1-.4-.3-1-.8-1-.3 0-.7-.2-.5-.5h1.7c.7 0 1.4 0 2 .2 1.5.5 2.7 1.8 3 3.4 0 .6-.1 1.3-.6 1.6-.8.5-1.7.4-2.5.3l-1.4.1c-.3 0-.4-.5 0-.4.4 0 .4-.5.2-.7l-1.1-3zm2 2.5c.1.3.2.7.5 1h1c.5 0 .7-.5.7-.9 0-.7-.3-1.5-.6-2.1-.4-.7-1-1.2-1.8-1.4a3 3 0 0 0-1 0c-.1 0 0 .2 0 .4l1.2 3zm-21.1 12.4c0 .3.4.6.8.6.2 0 .7 0 .7.4-.2.2-.6 0-.8 0a8.6 8.6 0 0 0-1.5.2h-.9c-.2 0-.2-.4.1-.4.3 0 .6-.1.7-.4 0-.3-.2-.6-.3-.8l-1.2-2.8c0-.3-.4-.3-.7-.3-.2 0-.6.1-.7-.2 0-.3.5-.2.7-.4l1-.3c.2 0 .3.1.3.3l1.8 4zm.7-4.5h2c.4 0 .2-.5.4-.5.4 0 .4.5.4.7a.5.5 0 0 1-.6.6h-1.6l.5 1.2.6-.2c1 0 2.2.6 2.6 1.6.2.5.3 1 0 1.5-.4.5-1 .6-1.6.6-.5 0-1-.1-1.4-.6-.1-.2-.1-.7.2-.6.4 0 .7.2.7.6.1.2.5.1.7.1.3 0 .6-.2.6-.5 0-.5-.2-1-.5-1.4-.2-.4-.7-.7-1.3-.7l-.8.1c-.3 0-.3-.3-.4-.5l-.7-1.9.2-.1zm6.9 1c-.2-.4-.4-.9-.9-1-.2 0-.7-.1-.4-.4h1.6c.7-.2 1.5-.1 2.1.1 1.5.5 2.7 1.8 3 3.4 0 .6-.1 1.2-.7 1.5-.7.5-1.6.4-2.4.4l-1.3.2c-.3 0-.4-.5 0-.5.3 0 .3-.4.2-.7l-1.2-3zm2 2.5c.1.3.3.7.6 1h1c.4-.1.6-.6.6-1 0-.7-.3-1.4-.7-2.1-.4-.7-1-1.2-1.8-1.3a3 3 0 0 0-1 0v.4l1.3 3zm6.4-4.3c.3 0 .4.3.5.5 0 .3.2.5.3.8-.2.3-.5 0-.6-.3-.1-.2-.3-.5-.6-.5a9.6 9.6 0 0 0-1.3 0c-.2.2 0 .5 0 .6l.6 1.4c.3 0 .6 0 .8-.2.2-.2-.3-.7.2-.6.4 0 .3.5.4.8l.5 1.1c-.1.4-.5 0-.6-.3-.1-.3-.5-.3-.8-.3-.2 0-.4 0-.2.2l.6 1.5c.2.4.7.3 1 .3.4 0 .8 0 1-.3.2-.2-.2-.6 0-.8.4 0 .5.3.5.5l.3 1c0 .1-.3 0-.4 0l-3.1.2c-.3 0-.7.2-.9-.1-.2-.4.5-.2.6-.5l-.3-.9-1.1-2.9c-.2-.3-.4-.6-.8-.7-.2 0-.6 0-.4-.4h1l2.8-.1zm-27.2 14.3c.1.5.6.7 1 .8.8.2 1.7.5 2.2 1.1.3.4.5.9.5 1.4 0 .5-.5.9-1 1a2.5 2.5 0 0 1-1.7-.1c-.2-.1-.1.4-.5.3-.2-.2-.1-.6-.2-.9a9.3 9.3 0 0 0-.4-1c0-.3.4 0 .5.2.3.6.9 1 1.6 1.1.4 0 .8-.2.8-.6 0-.5-.4-1-.8-1.2-.7-.3-1.4-.4-2-.8a2 2 0 0 1-1-1.6c0-.4.4-.8.8-.9a2.6 2.6 0 0 1 1.6 0c.2 0 .3-.3.6-.1 0 .2 0 .4.2.6l.3.9c-.2.2-.5 0-.5-.2-.3-.4-.5-.8-1-.8-.4 0-.8 0-1 .3a.6.6 0 0 0 0 .5zm6.6-1.7c.4 0 .4.3.5.5l.2.8c0 .3-.4 0-.5-.2-.1-.2-.3-.5-.7-.5a9.7 9.7 0 0 0-1.2 0c-.2.2 0 .4 0 .6l.5 1.4c.3 0 .6 0 .8-.2.2-.2-.2-.6.1-.7.4 0 .4.5.5.7 0 .4.3.8.4 1.3-.1.3-.5 0-.5-.3-.1-.3-.5-.4-.8-.3-.2 0-.4 0-.3.2l.6 1.5c.1.3.4.3.7.3.4 0 .9 0 1.2-.3.2-.2 0-.6 0-.8.3-.2.6 0 .6.3a9.7 9.7 0 0 0 .2 1c0 .2-.3.2-.4.2l-3 .2c-.4 0-.8.3-1 0 0-.4.5-.3.6-.6s0-.5-.2-.8l-1-3c0-.3-.3-.6-.7-.6-.2 0-.6-.1-.4-.4h1l2.8-.3zm4.2 4.2c.1.3.3.6.6.7.3 0 .7-.1.8.2 0 .4-.5.2-.7.2a6.3 6.3 0 0 0-1.6.2c-.2 0-.5 0-.6-.2 0-.4.5-.2.6-.4l-.1-.8-1-3c-.2-.3-.3-.7-.7-.7-.2 0-.6 0-.5-.4.1-.2.4 0 .7 0 .7 0 1.4-.3 2.2-.2a2 2 0 0 1 1.7 1.2c.2.4.2 1 0 1.3-.5.4-1.1.5-1.7.6-.2 0 0 .2 0 .3l.3 1zm-.6-1.8h.7c.3-.1.5-.4.4-.7 0-.5-.2-.9-.5-1.2-.3-.3-.8-.3-1.1-.2-.2.1 0 .3 0 .5l.5 1.6zm6.2 1.5c0 .2.2.6.5.6.2 0 .7 0 .7.3s-.5.2-.7.2l-1.6.1c-.2 0-.5 0-.5-.3.2-.2.7 0 .7-.4l-.3-1.2-1-2.9c0-.3-.4-.2-.7-.2s-.6 0-.7.3v.8c-.2.2-.4 0-.4-.3a6.6 6.6 0 0 0-.4-1c0-.3.3-.2.5-.3l4.1-.2c.3 0 .5.2.5.5l.4 1c-.1.2-.5 0-.5-.2-.2-.3-.5-.7-1-.7-.2 0-.5-.1-.8 0l.2.7 1 3.2zm2.1-3.3c-.1-.3-.2-.7-.6-.8-.2 0-.6 0-.6-.4.1-.2.4 0 .6 0l1.8-.2c.3-.1.5.4.2.4s-.6.2-.5.5l.5 1.6.7 2.2c0 .2.3.4.5.4.3 0 .7 0 .6.4h-.7l-1.6.2c-.2 0-.5-.2-.4-.4.2-.1.6 0 .6-.4l-.3-1.2-.8-2.3zm5.8-1.6c.3 0 .3.3.4.5l.2.8c-.1.3-.5 0-.5-.2-.1-.3-.3-.6-.7-.6a9.6 9.6 0 0 0-1.2 0c-.2.2 0 .5 0 .7l.5 1.3c.2 0 .5 0 .8-.2.2-.1-.2-.6.1-.6.4 0 .4.4.5.6 0 .5.3.9.4 1.3-.1.3-.5 0-.5-.2-.1-.3-.5-.4-.8-.4-.1 0-.5 0-.3.2l.5 1.5c.1.3.5.4.7.4.4 0 .9 0 1.2-.3.2-.2 0-.6.1-.9.3-.1.5.1.5.4l.2 1c0 .2-.2.2-.4.2l-3 .1c-.4 0-.7.3-1 0-.1-.4.5-.3.6-.5.1-.3 0-.5-.1-.8l-1-3c0-.3-.3-.7-.7-.7-.2 0-.6-.2-.4-.4h1l2.9-.2zm2 1c-.1-.4-.4-.7-.8-.7-.3.1-.5-.6 0-.4h1.5l.7.9 2.2 2.9c-.2 0 0-.2-.1-.3l.4-3.6c.2-.2.7 0 1-.2.3 0 1 0 .8.4-.4 0-.8.2-.6.6l1.2 3.6c0 .4.4.6.8.5.3 0 .3.6 0 .5H494c-.3.1-.8.1-.7-.3.3 0 .8-.2.6-.6l-1-3.2c.1.1 0 .3 0 .4l-.2 3-.1.8c-.3.1-.4-.1-.5-.3l-2.9-3.7.2.3.9 2.9c0 .4.5.5.8.5.4.2.1.5-.2.4h-1.5c-.3 0-.3-.4 0-.4.5 0 .3-.5.2-.8l-1-3.2zm8.7.8c0 .2.4 0 .5 0 .3 0 .6 0 .7-.4 0-.4-.2-1-.5-1.2-.4-.3-.8-.2-1.2-.2v.5l.5 1.3zm.5 1.6.4 1c.3.2.6.1.9.1.2 0 .5-.2.4-.5 0-.6-.3-1.3-.9-1.5h-1v.3l.2.6zM496 288c-.1-.4-.2-.8-.6-1-.2 0-.6 0-.6-.3s.5 0 .7-.1c1 0 1.8-.2 2.7 0 .7.2 1.3.9 1.3 1.6 0 .4-.4.7-.7.9 0-.2.4 0 .5 0 .5.2 1 .6 1.2 1.2.2.4.3.9 0 1.3-.4.4-1 .4-1.5.4l-2.3.1c-.3 0-.4-.5 0-.4.3 0 .4-.4.2-.7l-.9-3zm5-.2c0-.3-.2-.8-.6-1-.2 0-.6 0-.6-.3.2-.3.6 0 1-.1h2c.8 0 1.5.6 1.7 1.4.1.4 0 1-.4 1.2l-.4.2c.6.2 1.1.7 1.4 1.2l.5.8c.2.2.3-.1.3-.3.4-.2.6.3.4.6-.1.4-.7.5-1 .4-.4 0-.7-.3-.8-.6l-1-1.7c-.3-.1-.6-.3-.9-.1v.4l.5 1.2c.1.3.5.4.8.4.4 0 .4.5 0 .4h-1.8c-.2 0-.6.2-.7 0-.2-.5.4-.3.6-.5l-.2-.9-.8-2.7zm1.3 1c.1.3.6 0 .8 0 .3 0 .5-.3.4-.5 0-.5-.2-1-.5-1.3-.3-.2-.7-.2-1-.1-.2 0-.1.3 0 .5l.3 1.3zm7-2.6c.2 0 .2.3.3.5 0 .3.2.6.3.8-.2.3-.5 0-.6-.2 0-.2-.2-.6-.6-.6a9.5 9.5 0 0 0-1.3 0c-.2.1 0 .4 0 .6l.4 1.4c.3 0 .6 0 .8-.2.3-.1-.1-.5.2-.7.4 0 .4.4.4.7 0 .5.3.9.4 1.3-.1.3-.5 0-.5-.2 0-.3-.4-.5-.7-.4-.1 0-.5-.2-.4 0l.5 1.7c.1.3.4.3.7.3.4 0 .9 0 1.2-.2.2-.2 0-.6.1-.8.3-.2.6 0 .5.3a9.3 9.3 0 0 0 .2 1c0 .2-.3.2-.4.2h-3.1c-.3 0-.6.2-.9 0-.2-.4.3-.3.5-.5s0-.5 0-.7l-.9-3.1c0-.3-.3-.7-.6-.7s-.6-.1-.5-.4h1l3-.1zm-32.9 13.1c0-.3-.2-.8-.6-1-.3 0-.7 0-.5-.3l1-.1c.8 0 1.6-.2 2.4 0 1.2.2 2.3 1.2 2.6 2.3.2.8.3 1.6-.2 2.3-.5.6-1.4.8-2.2.8-.7 0-1.3 0-1.9.2-.2.1-.6-.1-.4-.4.3 0 .7-.1.6-.5l-.4-1.5-.4-1.8zm1.6 2.5c.1.3.2.7.4.9.3.2.7.1 1 0 .4 0 .8-.4.9-.9a4 4 0 0 0-.4-2.2 2 2 0 0 0-1.5-1.2 3 3 0 0 0-1.1 0c-.1 0 0 .2 0 .4l.7 3zm7.1-4.5c.3 0 .3.3.4.5l.2.9c-.2.2-.5 0-.5-.2-.1-.3-.3-.6-.6-.6h-1.3c-.2.1 0 .4 0 .6l.3 1.4c.3 0 .6 0 .8-.2.2-.2-.1-.6.2-.7.4 0 .3.5.4.7 0 .4.3.8.3 1.3 0 .3-.5 0-.5-.2 0-.3-.4-.5-.7-.4-.1 0-.5-.1-.3.1 0 .5.2 1 .4 1.6 0 .3.4.3.7.3.4 0 .9 0 1.2-.3.2-.2 0-.6.2-.8.2-.2.4.1.4.4 0 .3 0 .6.2 1-.1.2-.3.1-.5.1l-3 .2c-.3 0-.6.2-.9 0-.2-.2.1-.4.4-.4.3-.1.2-.5.1-.7l-.7-3.2c-.1-.3-.3-.7-.6-.7s-.6-.1-.5-.4h1l2.9-.3zm6.5 4.1c0 .3.3.6.6.7.2 0 .6 0 .7.2.1.3-.4.2-.6.2l-1.7.1c-.3 0-.6.1-.8 0-.3 0-.2-.4.1-.4.3 0 .6-.1.7-.4l-.1-.8-.7-2.8c0-.3-.3-.3-.6-.3-.2 0-.6.2-.7-.1 0-.4.5-.3.7-.4l1.1-.4c.2 0 .3.1.3.3l1 4.1zm3.7-3.3c0-.4-.3-.8-.7-.8-.3 0-.7 0-.8.3a1 1 0 0 0 .4 1l.9.5.2-.6a1.4 1.4 0 0 0 0-.4zm.8 2.9c0-.5-.6-.8-1-1-.2 0-.4-.2-.5-.1a1 1 0 0 0-.4 1c.2.6.5 1 1 1 .4.1.8 0 1-.4a1 1 0 0 0 0-.5zm1-.2c0 .5-.2 1-.6 1.3-.5.4-1.3.4-2 .2-.6-.1-1-.6-1.2-1.3 0-.4.1-1 .5-1.3.1 0 .5-.1.2-.2-.5-.2-1-.6-1-1.2-.2-.5 0-1 .5-1.3.8-.4 2-.2 2.6.7.2.4.2.9 0 1.2l-.6.5c.5 0 1 .4 1.2.8.2.1.3.4.3.6zm3.2.5c.2 0 .5 0 .5-.3.1-.2 0-.7.3-.6.3 0 .2.3.3.6 0 .4 0 .8-.4 1.1-.2.2-.5.1-.8.1h-1.7c-.2 0-.5.2-.7 0-.2-.2 0-.5 0-.7.2-.7.6-1.2 1-1.6.4-.3.8-.6.8-1.1a2 2 0 0 0-.2-1.2 1 1 0 0 0-1.4-.3c-.3.1-.5.5-.3.7.2.2.6 0 .7.4.2.2 0 .6-.3.6-.4 0-.8-.3-1-.7-.1-.5.1-1.1.6-1.4.5-.3 1.1-.3 1.7-.2.5.2 1 .6 1.2 1.2.1.4.1.9-.1 1.3-.4.7-1.2 1-1.7 1.7-.1.1-.2.3-.1.6 0-.3.4-.2.5-.2h1zm4-.4c0 .3.2.6.5.7.2 0 .6 0 .7.2.2.3-.3.3-.5.3h-2.7c-.2-.1 0-.5.2-.4.3 0 .6-.1.7-.4v-.8l-.7-2.8c0-.3-.3-.3-.5-.3-.3 0-.6.2-.7 0-.2-.4.3-.4.5-.5l1.2-.4c.3 0 .3.1.4.3l.8 4.1z" class="I"/></g><g fill="#0f7d3a" stroke="#036a4a" class="E"><path fill="url(#G)" stroke="#961538" d="M475.8 219.4 472 224c-1.2 5.2 1.8 9.2 7.7 12.6 4.7 3 13.5 3.7 16.3 1.3l-13.7-13-6.5-5.4z"/><path d="m503.6 354.3-2-2.5a100.8 100.8 0 0 1-32.7 28.6c15.1-4.2 25-15.2 34.7-26.1zM488 390a455.6 455.6 0 0 1 18.2-32.3l-2.1-2.7c-7.4 12.2-16 26.7-16 35zM530 275.5c-1-4.3-2.3-8.9-4.3-13a126.6 126.6 0 0 0-43.8-44v-.3H482.2l-.1-.1h.4l-.2-.3h.4l-.3-.4h.4l-.3-.3h.5l-.3-.4h.4l-.4-.3.6-.1-.5-.3.5-.1-.4-.3.6-.2-.5-.3.6-.3-.6-.4.7-.2-.8-.3.7-.4h-.8l.5-.7h-.7l.3-.5h-.6l.3-.5-.7.1.3-.6-.6.4.2-.7-.7.4.1-.7-.6.5.1-.7-.5.5v-.7l-.5.6v-.7l-.4.5-.2-.6-.4.6-.1-.7-.3.7-.2-.7-.3.7-.2-.6-.2.6-.2-.6-.2.8-.2-.7-.3.8-.3-.7v.8l-.4-.7v.8l-.5-.6v.8l-.4-.6v.7l-.4-.3.2.7-.5-.3.2.6-.4-.2.1.6h-.4l.2.4h-.3l.2.4a9 9 0 0 0-.4 3.5c0 .2.6.4.7.6.3.4.2.6.2.6-1.6 2.6-3 4.6-3.1 7.6 1.2-1.7 2.6-3.6 4.4-3.6-.9 1.5-1.3 6.1-.3 6.8l.8-1.3c0 1 .1 1.8.4 2.3.3-.6.6-1.3 1-1.7 0 1.5.2 2.7.6 3.3.5-.8 1-1.2 1.6-1.6-.2.9-.5 1.7-.3 2.7.6-1 1.2-1.7 1.9-2.5-.4 1.6 0 2.8.4 4.5.4-2 .6-2.3 1.5-3.1.1 1.9-.2 3.6.2 4.6.8-1.6 1.4-1.4 2-2.5-.2 1.6-.5 3.3 0 4.7a4.5 4.5 0 0 1 1.9-2.6c0 2.2.5 1.8-.8 3.7.6.2 2.5-.4 3.6-.9-.5 1.2-.4 2.1-.9 3 1-.6 2-1.5 2.9-2.4-.4 1.4-1.5 2.7-1 4.1.3-1.3 1.3-2.3 2.3-2.5-.2.7-.3 2.2-1.3 2.9 2.4.2 3.4-1.4 4.6-2.7-.1 1.3 0 2.4 1.6 4.3-.3-2.4.2-1.9 1.3-3.4.6 2.2 1.2 4.5 3.4 6-1-2.2-1-3.4-.6-4.8.3 1.5 1.7 3.2 2 4.6.3-1.5.5-3 1-4 .7 1.7 1.2 3.6 1.4 5.6a17.2 17.2 0 0 0 1.1-3.1c19.8 20.6 24.2 46.8 2.5 74.5 7.8-5.2 9.8-13.5 14.1-20.6-4.2 9.3-6 19.7-13.5 27.4 7.2-6.2 8.7-11.9 13-17.9-4.5 12.5-11 26.2-19.8 38.8l4.8 5.2 4-6.9c9.4-15.4 24.7-37.5 17-71.1z"/></g><path fill="#fcd80e" stroke="#cb8500" d="M473.2 215.3c-1 .2-1.4.6-2.2 1.4 1 .2 1.7.3 2.6.3.2 0 .3-.4.3-.6l-.2-1c0-.2-.6-.1-.8 0l.3-.1z" class="E"/><path fill="#cb8500" d="M471 216.7a9.9 9.9 0 0 1 1-.3l1.2-.2a9.8 9.8 0 0 1-1 .3l-1.2.2z"/><ellipse cx="477.68" cy="215.416" stroke="#0a1a1d" stroke-width=".098" rx=".775" ry=".811"/><ellipse cx="477.86" cy="215.261" fill="url(#H)" rx=".337" ry=".353"/><path d="m488.2 389.7 1.5-4.4 1.8-4.4 4.1-8.4 4.7-8.2 2.4-4 2.6-4-2.5 4-2.4 4.1-4.6 8.2-4.2 8.4-1.8 4.3-1.6 4.4zm-18.9-9.5 5-2.3 4.6-2.7a72 72 0 0 0 8.8-6.5 84.8 84.8 0 0 0 11.3-11.6 170.5 170.5 0 0 0 3.4-4.3 153.8 153.8 0 0 1-3.3 4.3 112.7 112.7 0 0 1-3.6 4.2 81.9 81.9 0 0 1-7.7 7.6 70 70 0 0 1-8.8 6.4 71.4 71.4 0 0 1-4.7 2.7 76.8 76.8 0 0 1-5 2.2zm37.3-29.3 2.2-3.3 2.1-3.4 4-6.8 3.7-7 3.7-7-1.7 3.5-1.8 3.6-3.7 7-4 6.8-4.5 6.6zm6-25.1a58.5 58.5 0 0 0 4.6-6.4 60 60 0 0 0 3.8-7c2.2-4.8 3.9-10 5-15l.4-2a61.1 61.1 0 0 0 .3-2 61 61 0 0 0 .4-4c.2-2.6.2-5.2 0-7.9a50.6 50.6 0 0 0-1.3-7.8 53.3 53.3 0 0 0-2.4-7.6 53.5 53.5 0 0 1 2.5 7.5 50.5 50.5 0 0 1 1.3 7.9c.2 2.7.2 5.3 0 8a61.3 61.3 0 0 1-.3 4 58.8 58.8 0 0 1-.3 2l-.4 1.9a72.7 72.7 0 0 1-5 15 59.9 59.9 0 0 1-4 7 58.1 58.1 0 0 1-4.7 6.4zm-1.7-5.7a52.1 52.1 0 0 0 8.7-12.5l3-7 1.4-3.6.3-.9.3-.9.6-1.8a41.6 41.6 0 0 0 .2-15.4c-.4-2.5-1-5-1.7-7.5a80.1 80.1 0 0 0-2.6-7.3l2.7 7.3a57.6 57.6 0 0 1 1.7 7.5 46 46 0 0 1-.1 15.4l-.6 1.9-.3.9-.4.9-1.3 3.5-3.1 7a51.6 51.6 0 0 1-3.8 6.7 36 36 0 0 1-5 5.8zm-5.8 29.1 3.5-5 1.8-2.5 1.7-2.5c1.1-1.7 2-3.6 3-5.4l2.6-5.5c1.8-3.7 3.5-7.4 5-11.3a75.3 75.3 0 0 0 3.5-11.7c.8-4 1.4-8 1.8-12.1a58.4 58.4 0 0 0-2.6-24.2 52.4 52.4 0 0 1 2.8 24.2c-.4 4-1 8.1-1.8 12.1s-2 8-3.5 11.8-3.2 7.6-5 11.2l-2.8 5.5c-.9 1.9-1.8 3.7-2.9 5.5l-1.7 2.5-1.8 2.5-3.7 5zm2.7 3 7-11.5c2.2-4 4.4-7.8 6.4-11.9s3.7-8.2 5-12.5a74.2 74.2 0 0 0 1.7-6.6 59.3 59.3 0 0 0 .6-3.3l.4-3.3c.6-4.5 1-9 1-13.5s-.4-9-1.2-13.4-2.2-8.7-4-12.9a54 54 0 0 0-7-11.5 54 54 0 0 1 7 11.5c2 4.1 3.3 8.5 4.1 12.9a77.3 77.3 0 0 1 .4 27l-.5 3.3a58.8 58.8 0 0 1-.6 3.3 74.2 74.2 0 0 1-1.7 6.5c-1.3 4.4-3 8.5-5 12.6s-4.3 8-6.5 11.8a447 447 0 0 1-7 11.6zM480 220.9a8 8 0 0 1 1.4 0 14.2 14.2 0 0 1 1.4.4 18.9 18.9 0 0 1 2.7 1c1.7.7 3.4 1.7 4.9 2.8a35.8 35.8 0 0 1 4.3 3.8l1.9 2.1 1.7 2.3-1.8-2.2-2-2a37.9 37.9 0 0 0-4.2-3.8 26.8 26.8 0 0 0-4.9-3 19 19 0 0 0-2.6-1c-1-.2-1.9-.4-2.8-.4z" class="F"/><g fill="#0f7d3a"><path d="M496.4 231.6s3 1.8 4.7 4.4c0 0-4.7-.9-8-4.6"/><path d="M496.4 231.6a14.3 14.3 0 0 1 1.4.8l1.2 1 1.2 1.2a10.3 10.3 0 0 1 1 1.4l.1.2h-.2a14.6 14.6 0 0 1-4.4-1.8c-1.4-.8-2.6-1.8-3.7-3a15.2 15.2 0 0 0 3.8 2.8 18.3 18.3 0 0 0 2 1 14.4 14.4 0 0 0 2.3.7v.2a11.2 11.2 0 0 0-2.2-2.5l-1.2-1-1.3-1z" class="F"/><path d="m489.6 230.7 8.3 5s-1.7-3.5-5.1-5"/><path d="m489.6 230.7 4.1 2.5 2 1.2 1.1.6 1 .6v.1a10.7 10.7 0 0 0-1-1.5l-1.1-1.4a10.7 10.7 0 0 0-1.4-1.2 9.2 9.2 0 0 0-1.5-.9 8.4 8.4 0 0 1 3 2 11 11 0 0 1 1.2 1.4 10.8 10.8 0 0 1 1 1.5v.3l-.2-.1-2.1-1.2-2-1.3-4.1-2.6z" class="F"/><path d="M492.5 228.4s3.7 1.6 4.6 4.3c0 0-6.8-2.8-8-4.3"/><path d="m492.5 228.4 1.4.7a10.9 10.9 0 0 1 1.4 1 7.2 7.2 0 0 1 1.1 1.1l.8 1.5v.2h-.2l-2-1-2.1-1-2-1.1-1-.6-.8-.8.9.7 1 .6 2 1 4.1 2h-.1a4.8 4.8 0 0 0-.8-1.3 7.8 7.8 0 0 0-1-1.2 10.9 10.9 0 0 0-1.3-1 12.7 12.7 0 0 0-1.4-.8z" class="F"/><path d="M486.8 231.3s6.6 4.7 8.6 4.7c0 0-2-3.2-5.4-4.7"/><path d="m486.8 231.3 2 1.3 2.1 1.3 2.2 1.2 1.1.5 1.2.3-.1.2a12.5 12.5 0 0 0-2.3-2.8 13.3 13.3 0 0 0-3-2c1.1.4 2.2 1 3 1.9a13 13 0 0 1 1.4 1.3l1 1.5.2.1h-.2c-.5 0-.9-.1-1.3-.3a13.9 13.9 0 0 1-1.1-.5l-2.2-1.2-2-1.4-2-1.5z" class="F"/><path d="M486.8 232.7s3.4 3 5.4 3c0 0-2-3.3-5.4-4.8"/><path d="m486.8 232.7 1.2 1 1.3.8a11.2 11.2 0 0 0 2.1 1 2.9 2.9 0 0 0 .8 0l-.1.2a12.4 12.4 0 0 0-1-1.4 15.6 15.6 0 0 0-2.7-2.5l-1.6-.9c1.1.5 2.2 1.1 3 2a13 13 0 0 1 1.4 1.2 12.6 12.6 0 0 1 1 1.5l.2.2h-.2c-.6 0-1-.2-1.6-.4s-.9-.5-1.3-.8l-1.3-.9-1.2-1z" class="F"/><path d="M485 226.2s7.2 5.1 8 7.9c0 0-6.4-3-7.6-4.5"/><path d="m485 226.2 2.3 1.7 2.2 1.8a25.7 25.7 0 0 1 2 2 12.4 12.4 0 0 1 1 1l.7 1.3v.3l-.2-.1-2-1-2-1-1.9-1.2-1-.7-.7-.7.8.7 1 .6 2 1 4 2-.2.2-.7-1.2a12.2 12.2 0 0 0-.9-1.1l-2-2-2.1-1.9-2.3-1.7z" class="F"/></g><g class="G B"><path d="M445 370.3a42.2 42.2 0 0 1-20.4 4.8c10-8.2 19.7-8.4 20.4-4.8zm69.8 4.5c5.2 4.7 21 8 23.5 7.4-10.6-10.7-22.1-11.8-23.5-7.4z" class="C"/><path d="M445 370.3c-.7-3.7-10.5-3.4-20.4 4.8a69.6 69.6 0 0 1 20.4-4.8zm69.9 4.4c1.4-4.4 12.8-3.3 23.4 7.5-12-5-22-8.1-23.4-7.5z" class="D"/></g></g></svg>