<svg xmlns="http://www.w3.org/2000/svg" xmlns:xlink="http://www.w3.org/1999/xlink" width="1200" height="720"><path fill="#faf6f5" d="M0 0h1200v720H0Z"/><path id="a" fill="#001f56" d="M201 118c48 0 52-48 100-48s84 48 132 48 53-48 101-48 84 48 132 48 52-48 100-48 84 48 132 48 52-48 100-48 85 48 133 48c34 0 52-16 69-36V22c-14 12-31 36-69 36-48 0-85-48-133-48s-52 48-100 48-84-48-132-48-52 48-100 48-84-48-132-48-53 48-101 48-84-48-132-48-52 48-100 48-84-48-132-48C35 10 17 26 0 46v60c14-12 31-36 69-36 48 0 84 48 132 48Z"/><use xlink:href="#a" transform="translate(0 120)"/><use xlink:href="#a" transform="translate(0 240)"/><use xlink:href="#a" transform="translate(0 360)"/><use xlink:href="#a" transform="translate(0 480)"/><use xlink:href="#a" transform="translate(0 600)"/><path fill="#001f56" d="M0 0h600v360H0Z"/><path fill="#faf6f5" d="M0 360v-34l154-96H0V130h154L0 34V0h67l183 117V0h100v117L538 0h62v34l-154 96h154v100H446l154 96v34h-67L350 243v117H250V243L62 360Z"/><path fill="#c40f38" d="M270 360h60V210h270v-60H330V0h-60v150H0v60h270v150ZM0 360l212-130h38L38 360H0Zm174-230L0 22V0l212 130h-38Zm426 230L388 230h38l174 108v22ZM350 130 562 0h38L388 130Z"/><path fill="#6c401f" stroke="#0a1a1d" stroke-miterlimit="9" stroke-width="1.5" d="M884.7 210.3 880 669.5c-.6 26 23.3 26.2 23.3 0l-4.7-459.4h-14Z"/><path fill="#0f7d3a" stroke="#0a1a1d" stroke-width="1.5" d="M934.3 381.2 919 364.5l-3.7 16.8-6.6-24.3-6.2 12.2-1-25.9-6.2 12.3-1.1-26L888 342l-3.5-30.5-6.2 12.3-3.5-30.5-6.1 12.3-3.5-30.5-1.8-15.2 3-6.2 8 3 12.8 12.1 25.5 24.2-15.9-6 25.5 24.2-15.8-6 25.5 24.2-15.8-6 23 19.7-15.8-6 23.1 19.6-15.8-6 17.6 21.3-18.3-10.5 4.2 19.8Z"/><path stroke="#0a1a1d" stroke-miterlimit="9" stroke-width="1.45" d="m970.2 451.3-1.5.3-.3-2.4 1.2.3c2 0 3.7-1.6 3.7-3.7v-.1c0-2-1.6-3.8-3.6-3.8-1.2 0-2.2.6-3 1.4l-1-2.8h.3c2 .1 3.7-1.6 3.7-3.6v-.1c0-2-1.6-3.8-3.6-3.8-1.7 0-3 1-3.5 2.6a29 29 0 0 0-2-2.3 3.8 3.8 0 0 0 2.4-3.4c0-2.2-1.6-3.9-3.6-3.9s-3.5 1.5-3.7 3.4c-.8-.5-1.6-1-2.4-1.3.8-.7 1.3-1.7 1.3-2.8 0-2.1-1.6-3.8-3.7-3.9s-3.7 1.7-3.7 3.8v.7l-1-.2-2-.5c.5-.6.8-1.4.8-2.3 0-2.1-1.6-3.8-3.7-3.9s-3.7 1.7-3.7 3.8c0 .7.2 1.3.5 1.8-1.1 0-2.2 0-3.2.2l.3-1.4c0-2.2-1.7-3.9-3.7-3.9s-3.7 1.7-3.7 3.7v.1c0 1 .4 2 1.1 2.7l-3.3 1 .2-1c0-2.1-1.6-3.8-3.7-3.8-2 0-3.7 1.6-3.7 3.7 0 1.3.6 2.5 1.6 3.2l-3.2 1 .4-1.4c0-2.1-1.7-3.8-3.7-3.9-2 0-3.7 1.7-3.7 3.7v.1c0 1.3.6 2.4 1.5 3l-3.2.5c.2-.5.4-1 .4-1.7 0-2.2-1.6-3.9-3.6-3.9s-3.7 1.7-3.8 3.7v.1c0 .6.2 1.2.4 1.7l-1.5-.3a2.3 2.3 0 0 0-1.5-.2l-.5-.1c1.8-1.5 3.1-3.6 3.6-6h.7V421h-.8c-1-3.8-4-6.8-7.7-7.6v-.2h6.8c-1-1.3-2.2-2.2-3.2-3.5a13 13 0 0 1-2.1-4.8c1.7.4 3.4 1.2 4.8 2.2 1.3 1 2.2 2.2 3.5 3.2V394c-1.3 1-2.2 2.3-3.5 3.2-1.4 1-3 1.8-4.8 2.3.4-1.8 1.1-3.5 2.1-4.8 1-1.3 2.2-2.3 3.2-3.5h-18c1 1.2 2.2 2.2 3.2 3.5 1 1.3 1.8 3 2.2 4.8-1.8-.5-3.5-1.3-4.8-2.3-1.3-1-2.3-2.1-3.5-3.1v16.2c1.2-1 2.2-2.2 3.5-3.2 1.3-1 3-1.8 4.8-2.2-.4 1.7-1.2 3.5-2.2 4.8-1 1.3-2.2 2.2-3.2 3.5h6.9v.2c-3.8.8-6.8 3.8-7.7 7.6h-.8v4.3h.7c.4 2.5 1.7 4.6 3.5 6l-.5.2h-.2c-.5 0-.9 0-1.2.2l-1.6.3c.3-.5.4-1 .4-1.7 0-2.1-1.7-3.8-3.7-3.8s-3.7 1.7-3.7 3.8c0 .7.2 1.3.5 1.8-1.1 0-2.2-.2-3.2-.4.9-.7 1.5-1.8 1.5-3v-.1c0-2.1-1.7-3.8-3.8-3.8-2 0-3.6 1.8-3.6 3.8v.1l.3 1.5-3.1-1.1c1-.7 1.5-1.8 1.5-3.1 0-2.1-1.7-3.8-3.7-3.8s-3.7 1.7-3.6 3.8l.1 1a70.7 70.7 0 0 0-3.3-1c.7-.6 1.2-1.6 1.2-2.7 0-2.1-1.7-3.8-3.8-3.8-2 0-3.6 1.8-3.6 3.8v.1c0 .5.1 1 .3 1.4a26 26 0 0 0-3.2-.2c.3-.5.4-1.1.4-1.8 0-2-1.6-3.8-3.7-3.7-2 0-3.7 1.7-3.6 3.7v.1c0 1 .3 1.7.8 2.3l-2.1.5-1 .2v-.7c0-2-1.6-3.8-3.7-3.7s-3.7 1.7-3.6 3.8c0 1.1.5 2.1 1.2 2.8l-2.3 1.3a3.7 3.7 0 0 0-3.7-3.4c-2 0-3.7 1.8-3.6 3.8v.1a3.8 3.8 0 0 0 2.3 3.5 29 29 0 0 0-1.9 2.2 3.7 3.7 0 0 0-3.5-2.6c-2 0-3.7 1.7-3.7 3.8 0 2.1 1.7 3.8 3.8 3.8h.3l-1.1 2.8a3.7 3.7 0 0 0-3-1.5c-2 0-3.6 1.8-3.6 3.8 0 2.2 1.7 3.8 3.7 3.8.5 0 .9 0 1.3-.2l-.3 2.4c-.5-.3-1-.4-1.6-.4-2 0-3.6 1.7-3.6 3.8 0 2.2 1.7 3.8 3.7 3.8.6 0 1.2-.2 1.7-.5v.4l.3 1.4h-.3c-2 0-3.7 1.7-3.6 3.8 0 2.1 1.6 3.8 3.7 3.8.9 0 1.7-.4 2.3-1l1 2.3-1.2.4 1 2h.1a183 183 0 0 1 6.6 13.2 4.1 4.1 0 0 0-1.3 3v.1a4 4 0 0 0 4.1 4.1h.4c1.6 4 3 8.2 4.5 12.3l-2.3.3c-1 1.2-1 2.4.8 3.2l1.1-.1.4 1.8-.5-.2v2.4l-1.6 3.5 2.5 3.1 1.1 2.6.9-.7.5 2.5-.9.1c-1 1.2-1 2.3.7 3.2l-1.7.3c-4 .8-4.6 5.7-2.5 8.3a11 11 0 0 0 4.2 2.8c9.4 4 31.3 7 56.3 7h.4c25 0 46.9-3 56.2-7 2-1 3.5-1.8 4.2-2.8 2.2-2.6 1.6-7.5-2.5-8.3l-1.6-.3c1.8-1 1.6-2 .6-3.2l-.8-.1.5-2.5.9.7 1-2.6 2.6-3-1.5-3.6v-2.4l-.6.1.4-1.7 1.2.1c1.9-1 1.7-2 .6-3.2l-2.5-.3c1.5-4.1 3-8.2 4.7-12.3h.5a4 4 0 0 0 4-4v-.2a4.1 4.1 0 0 0-1.2-3c1.9-4.1 4-8.3 6.3-12.5l.3-.6 1.1-2-1.2-.5 1-2.2c.6.5 1.4.9 2.3.9 2 0 3.7-1.7 3.8-3.8 0-2.1-1.7-3.8-3.7-3.8h-.3l.3-1.5v-.3c.5.3 1 .5 1.7.5 2 0 3.7-1.6 3.7-3.7 0-2.2-1.6-3.9-3.6-3.9Z"/><path fill="none" stroke="#0a1a1d" stroke-width=".8" d="m934.3 381.2-67.7-127.6m46.1 39.3-36.5-21-7.4 33.6"/><path fill="none" stroke="#0a1a1d" stroke-width=".8" d="M922.4 311 886 290l-7.5 33.7"/><path fill="none" stroke="#0a1a1d" stroke-width=".8" d="m932 329.3-36.4-21-7.5 33.6"/><path fill="none" stroke="#0a1a1d" stroke-width=".8" d="m939.4 343-34.1-16.5-10 29"/><path fill="none" stroke="#0a1a1d" stroke-width=".8" d="m946.6 356.6-34-16.4-10 29"/><path fill="none" stroke="#0a1a1d" stroke-width=".8" d="m948.4 371.9-31-22.6-2 32"/><path fill="#0f7d3a" stroke="#0a1a1d" stroke-width="1.5" d="m756.6 163.8 24.8 9.4-7.2-18.7 21.6 21.3-2-15.3 17.5 25.6-2-15.3 17.5 25.5-2-15.3 22.6 29-2-15.3 22.6 29-2-15.4 22.6 29 11.4 14.5 1 7.7-9.3.8-19.6-6-39.2-12.1 18.6-1.6-39.2-12 18.5-1.7-39.2-12 18.6-1.7-34-8.6 18.5-1.7-34-8.6 18.6-1.6-30-12.9 23.8 1.8-16.5-17.9Z"/><path fill="none" stroke="#0a1a1d" stroke-width=".8" d="M756.6 163.8 901 259.5m-68.1-17.3 47.5 3.6-14.4-37.4"/><path fill="none" stroke="#0a1a1d" stroke-width=".8" d="m812.3 228.6 47.4 3.5-14.4-37.4"/><path fill="none" stroke="#0a1a1d" stroke-width=".8" d="m791.6 214.9 47.5 3.6-14.4-37.5"/><path fill="none" stroke="#0a1a1d" stroke-width=".8" d="m776.2 204.6 42.3.2-9.3-34"/><path fill="none" stroke="#0a1a1d" stroke-width=".8" d="m760.7 194.4 42.3.1-9.2-34"/><path fill="none" stroke="#0a1a1d" stroke-width=".8" d="m749.4 179.9 43.3 7.8-18.5-33.2"/><path fill="#0f7d3a" stroke="#0a1a1d" stroke-width="1.5" d="m1044.4 195.7-20.6 15.1 22.8 2.6-31.8 7.5 17 5-34.5 2.5 17 5-34.4 2.6 17 5-40.3 5 17 5-40.3 5 17 5.1-40.3 5-20 2.6-8.5-2.6 3.1-7.5 14.8-12.6 29.7-25.1-6.4 15 29.6-25-6.3 15 29.6-25.1-6.3 15 23.8-22.6-6.4 15.1 23.8-22.6-6.3 15 26.4-17.5-12.1 17.6 26-5Z"/><path fill="none" stroke="#0a1a1d" stroke-width=".8" d="m1044.4 195.7-163 70.4m47.7-45.3-24.4 35.3 45.6 5"/><path fill="none" stroke="#0a1a1d" stroke-width=".8" d="M952.3 210.8 928 246l45.5 5"/><path fill="none" stroke="#0a1a1d" stroke-width=".8" d="M975.6 200.7 951.3 236l45.5 5"/><path fill="none" stroke="#0a1a1d" stroke-width=".8" d="m993 193.2-18.4 32.7 39.7 7.6"/><path fill="none" stroke="#0a1a1d" stroke-width=".8" d="M1010.5 185.7 992 218.4l39.7 7.5"/><path fill="none" stroke="#0a1a1d" stroke-width=".8" d="m1030.6 183.2-27 30.1h43"/><path fill="#0f7d3a" stroke="#0a1a1d" stroke-width="1.5" d="m1041 348.1-25.6-7.4 9.2 18-23.9-19.5 3.7 15.1-20.2-24 3.7 15-20.2-24 3.7 15-25.7-27 3.7 15-25.7-27 3.7 15-25.7-27-12.8-13.5-1.9-7.6 9.2-1.5 20.2 4.4 40.3 9-18.3 3 40.3 9-18.3 3 40.3 8.9-18.3 3 34.8 6-18.3 3 34.8 6-18.3 3 31.2 10.5h-23.9l18.4 16.6Z"/><path fill="none" stroke="#0a1a1d" stroke-width=".8" d="m1041 348.1-154-83.9m69.7 11.8-47.7.2 18.4 36.2"/><path fill="none" stroke="#0a1a1d" stroke-width=".8" d="m978.7 288-47.7.2 18.4 36.2"/><path fill="none" stroke="#0a1a1d" stroke-width=".8" d="m1000.7 300-47.7.2 18.4 36.1"/><path fill="none" stroke="#0a1a1d" stroke-width=".8" d="m1017.2 309-42.2 3.2 12.9 33.1"/><path fill="none" stroke="#0a1a1d" stroke-width=".8" d="m1033.7 318-42.2 3.2 13 33.1"/><path fill="none" stroke="#0a1a1d" stroke-width=".8" d="m1046.5 331.5-44-4.3 22 31.6"/><path fill="#0f7d3a" stroke="#0a1a1d" stroke-width="1.5" d="m773.6 357 12.9-18-19.7 2.9 24.3-13.8-15.5-.7 27.9-10-15.5-.6 27.9-10-15.5-.6 32-13.4-15.5-.7 32-13.5-15.5-.7 32-13.4 16-6.7 7.8.3-.5 7.4L880 280l-17.5 29 1-14.9-17.6 29 1-14.8-17.5 29 1-14.9-13.3 25.4 1-14.8-13.4 25.4 1-14.8-17 21.5 5-18.3-20 10.2Z"/><path fill="none" stroke="#0a1a1d" stroke-width=".8" d="m773.6 357 115.6-98.9M862.4 309l10.3-36.7-39.3 5.6"/><path fill="none" stroke="#0a1a1d" stroke-width=".8" d="m846 323.1 10.2-36.7-39.3 5.7"/><path fill="none" stroke="#0a1a1d" stroke-width=".8" d="m829.4 337.2 10.3-36.7-39.3 5.7"/><path fill="none" stroke="#0a1a1d" stroke-width=".8" d="m817 347.8 6.1-33.2-35.1 2.2"/><path fill="none" stroke="#0a1a1d" stroke-width=".8" d="m804.6 358.4 6.2-33.1-35.2 2"/><path fill="none" stroke="#0a1a1d" stroke-width=".8" d="m788.6 365.1 14-32.8-35.8 9.6"/><path fill="#0f7d3a" stroke="#0a1a1d" stroke-width="1.5" d="m1007.3 119.6-25 16.7-4-17.9-14.7 24.8-2.7-12-12 25.4-1.7-11.7-9.3 26-5.3-12.5-9.4 31.6-5.3-12.5-9.4 31.6-5.3-12.5-9.3 31.6-4.7 15.8 2.7 6.3 10-3.3 17.3-12.8 34.7-25.7-20 6.6 34.6-25.7-20 6.6 34.7-25.6-20 6.5 34.7-20-23.7 5.7 37.3-19.4-22.6 6 27.3-21.8-23.7 11.3 14.7-19Z"/><path fill="none" stroke="#0a1a1d" stroke-width=".8" d="m997.6 128.6-36 31-69.7 90.7"/><path fill="none" stroke="#0a1a1d" stroke-width=".8" d="m946.3 212.4-39.7 18.8-3.4-29"/><path fill="none" stroke="#0a1a1d" stroke-width=".8" d="m961.6 193.4-40.4 18.7-3.3-29"/><path fill="none" stroke="#0a1a1d" stroke-width=".8" d="M976 174.3 935.8 193l-3-28.9"/><path fill="none" stroke="#0a1a1d" stroke-width=".8" d="m987.8 160.2-37.2 13.7-4.3-23.6"/><path fill="none" stroke="#0a1a1d" stroke-width=".8" d="m1001.6 146.5-40 13-1.6-22.8"/><path fill="none" stroke="#0a1a1d" stroke-width=".8" d="m1006.9 133.6-37 18.9 7.1-28.7"/><path fill="#0f7d3a" stroke="#0a1a1d" stroke-width="1.5" d="m872.3 88.4 11 25.4 14.4-13.5-2.5 27.7 9.5-9-5.1 27 8.5-9.1-7.8 26.3 12.1-8.3-11.2 31.2 12.1-8.3-11.2 31.2 12.2-8.3-11.3 31.1-5.6 15.6-6 4.2-6.6-7.3-7-18.7-14-37.4 13 14.5-14-37.4 13.2 14.6-14-37.5 13 14.6-17.4-32.6 16.7 15.4-20-33.2 15.7 15.2L860 91l13.3 20.3-1-22.9Z"/><path fill="none" stroke="#0a1a1d" stroke-width=".8" d="m875 100.4 12 42.5 4.3 108.7"/><path fill="none" stroke="#0a1a1d" stroke-width=".8" d="m868 194.8 22.4 33.9 20.5-23.2"/><path fill="none" stroke="#0a1a1d" stroke-width=".8" d="m866.4 171.8 23 34 20.5-23.2"/><path fill="none" stroke="#0a1a1d" stroke-width=".8" d="m865.8 149 22.8 34 20.1-23.3"/><path fill="none" stroke="#0a1a1d" stroke-width=".8" d="m864.2 131.7 23.4 28.4 18-18.2"/><path fill="none" stroke="#0a1a1d" stroke-width=".8" d="M860.8 113.8 887 143l15.2-19"/><path fill="none" stroke="#0a1a1d" stroke-width=".8" d="m864.1 100.4 20 32.7 11.4-27.7"/><path fill="#0f7d3a" stroke="#0a1a1d" stroke-width="1.5" d="m723 275.3 32.5-22.6-16.3-8.4 28.5 4.9-9.8-12.9 27.7 10.3-9.8-12.9 27.7 10.4-9.8-12.9 33.4 11.3-9.8-12.9 32.6 16.8-9.8-12.9 33.4 11.3 16.3 8.4 4.9 6.5-6.5 4.5-18 2.6-28.8 11.9 5.3-10.4-35.8 5.2 13-9-36.7 10.6 13-9-30.9 11.5 13.9-14.5-31.8 17 13.9-14.4-26 18 14.6-20-31 11.6Z"/><path fill="none" stroke="#0a1a1d" stroke-width=".8" d="m733.3 269.2 33.6-14.5 18-2.6 14.9-.2 25.7 1.5 23.2 1 46 5.2"/><path fill="none" stroke="#0a1a1d" stroke-width=".8" d="m845.9 273.8 25.7-15.8-26.2-20.6"/><path fill="none" stroke="#0a1a1d" stroke-width=".8" d="m817 271.4 31.7-17-26.2-20.5"/><path fill="none" stroke="#0a1a1d" stroke-width=".8" d="m796.5 271 29-17.6-26.4-19M758 275.6l26.8-23.5-21.6-11.9"/><path fill="none" stroke="#0a1a1d" stroke-width=".8" d="m746 277.2 20.9-22.5-16.6-6.2m25.6 24.6 26.5-21.2-21.3-14.4"/><path fill="#faf6f5" d="M896.4 469h64s4.2-8.9 4.7-12.8c.6-4.7.6-6.3-.6-10.6-1.2-4.6-3-7.7-6-10.7a23 23 0 0 0-11-5.5c-3.8-.9-8-1.3-11.2-.6-6.1 1.3-10.1 3.3-16.8 5.4-4.8 1.5-8.5 2-13.4 2.3-3 .2-6.4-.6-9.7-1.2V469Zm-9.5 0h-64s-4.2-8.9-4.7-12.8c-.6-4.7-.6-6.3.6-10.6 1.3-4.6 3-7.7 6-10.7a23 23 0 0 1 11.1-5.5c3.7-.9 7.9-1.3 11.1-.6 6.2 1.3 10.2 3.3 16.8 5.4 4.9 1.5 8.6 2 13.4 2.3 3 .2 6.5-.6 9.7-1.2V469Z" isolation="isolate" opacity="1"/><path fill="#faf6f5" d="M883 523c-9.1.2-18.2.3-27.2 1-6.6.4-14.2 1-20.7 2l-1.6.2c-4 .8-4.6 5.7-2.5 8.3 4.4 5.5 30.2 9.7 60.7 9.7s56.2-4.2 60.6-9.7c2.1-2.7 1.6-7.5-2.5-8.3l-1.6-.3c-6.5-1-14-1.5-20.7-2-9-.6-18-.7-27.2-.9H883Z"/><path d="M897.7 528.3a70.7 70.7 0 0 1-11.2-2.8c.5.7 1.2 1.5 2.8 2-1.3 0-3 .5-3.7.8.6.2 2.5.7 3.8.7-1.6.6-2.2 1.3-2.6 2a64 64 0 0 1 10.9-2.7Zm-23.7 0c-2.1-.2-4.2-.6-6.3-1a56.2 56.2 0 0 1-5-1.4c.5.7 1.2 1.5 2.9 2-1.4 0-3 .6-3.7.8.7.3 2.5.7 3.8.6-1.6.7-2.2 1.5-2.5 2.2a58.5 58.5 0 0 1 10.8-3.1Zm-23.5 1.2a68.6 68.6 0 0 1-11.4-1.7c.5.7 1.2 1.4 3 1.8-1.4.1-3 .8-3.7 1.1.7.2 2.5.5 3.8.4-1.5.7-2 1.5-2.3 2.3a56 56 0 0 1 10.5-3.9Zm70.9-.8a69 69 0 0 0-11.2 2.6c.4-.8 1-1.5 2.8-2-1.3 0-3.1-.6-3.7-.9.6-.2 2.5-.6 3.8-.6-1.6-.6-2.2-1.4-2.5-2.1a58.4 58.4 0 0 0 10.8 3Zm23.5 2a66.3 66.3 0 0 0-11.4 1.7c.5-.7 1.3-1.4 3-1.8-1.4 0-3-.7-3.7-1 .7-.3 2.5-.6 3.9-.4-1.6-.7-2.1-1.6-2.4-2.4a68.5 68.5 0 0 0 10.6 4Z"/><path fill="#d3d3d5" d="M891.6 533.4c-36.3 0-58.3 2.1-56.5 3.7 12.7 5.4 37.8 7.1 56.5 7.1 18.7 0 43.8-1.7 56.6-7 1.8-1.7-20.2-3.8-56.6-3.8Z"/><path fill="none" stroke="#0a1a1d" stroke-width=".77" d="M948.1 537.3c.3-.9-1.1-1.1-2.6-1.3a350.2 350.2 0 0 0-45.2-2.6H883a350.2 350.2 0 0 0-45.2 2.5c-1.4.3-2.9.5-2.5 1.4"/><path fill="none" stroke="#0a1a1d" stroke-width=".77" d="M883 523c-9.1.2-18.2.3-27.2 1-6.6.4-14.2 1-20.7 2l-1.6.2c-4 .8-4.6 5.7-2.5 8.3 4.4 5.5 30.2 9.7 60.7 9.7s56.2-4.2 60.6-9.7c2.1-2.7 1.6-7.5-2.5-8.3l-1.6-.3c-6.5-1-14-1.5-20.7-2-9-.6-18-.7-27.2-.9H883Z"/><path fill="#c40f38" fill-rule="evenodd" d="m940.6 515 4.4-12.8 1.8-5.4 4.4-2.7 4.5-10.1 2-2.7.4-9.3s-3.1-6.7-7.9-9c-6.8-3.5-16-3-16-3s-2.1-5.6-6-7.8-8.3-2.8-12.9-2.8-12.7 4.1-17.2 5.3c-2.3.6-7.5 2.7-7.5 2.7s-5.2-2-7.5-2.7c-4.4-1.2-12.6-5.3-17.1-5.3s-8.8.5-12.9 2.8c-3.7 2-9 7.8-9 7.8s-5.9-.8-10 1.7c-5.2 3.2-8.9 9.8-8.9 9.8l.4 10.2.8 3.9 3.4 3.8 4.3 7.9 3.2 7.7 3.3 10h100Z"/><path fill="none" stroke="#0a1a1d" stroke-width=".77" d="m940.6 515 4.4-12.8 1.8-5.4 4.4-2.7 4.5-10.1 2-2.7.4-9.3s-3.1-6.7-7.9-9c-6.8-3.5-16-3-16-3s-2.1-5.6-6-7.8-8.3-2.8-12.9-2.8-12.7 4.1-17.2 5.3c-2.3.6-7.5 2.7-7.5 2.7s-5.2-2-7.5-2.7c-4.4-1.2-12.6-5.3-17.1-5.3s-8.8.5-12.9 2.8c-3.7 2-9 7.8-9 7.8s-5.9-.8-10 1.7c-5.2 3.2-8.9 9.8-8.9 9.8l.4 10.2.8 3.9 3.4 3.8 4.3 7.9 3.2 7.7 3.3 10h100Z"/><path fill="#fcd80e" d="M946.3 425.7a28 28 0 0 1 13.8 7c3.7 3.7 6.1 8 7.5 13.3a29 29 0 0 1 .8 12.7 36.9 36.9 0 0 1-4.6 12.6l-6.7-1.1s4-8.5 4.5-12.3c.5-4.5.5-6-.6-10a20.8 20.8 0 0 0-5.7-10.2 22 22 0 0 0-10.6-5.3c-3.5-.9-7.5-1.2-10.5-.6-5.9 1.2-9.7 3.2-16 5.2-4.7 1.4-8.2 2-12.8 2.2-2.9.2-6.1-.6-9.2-1.2l-5.7-1.4 1.8-6.6 5.3 1.3a48 48 0 0 0 7.4 1c4.4-.2 7-.6 11-1.9 6-1.9 10.1-4 16.8-5.3 4.5-1 9-.4 13.5.6Z"/><path fill="none" stroke="#0a1a1d" stroke-width=".77" d="M946.3 425.7a28 28 0 0 1 13.8 7c3.7 3.7 6.1 8 7.5 13.3a29 29 0 0 1 .8 12.7 36.9 36.9 0 0 1-4.6 12.6l-6.7-1.1s4-8.5 4.5-12.3c.5-4.5.5-6-.6-10a20.8 20.8 0 0 0-5.7-10.2 22 22 0 0 0-10.6-5.3c-3.5-.9-7.5-1.2-10.5-.6-5.9 1.2-9.7 3.2-16 5.2-4.7 1.4-8.2 2-12.8 2.2-2.9.2-6.1-.6-9.2-1.2l-5.7-1.4 1.8-6.6 5.3 1.3a48 48 0 0 0 7.4 1c4.4-.2 7-.6 11-1.9 6-1.9 10.1-4 16.8-5.3 4.5-1 9-.4 13.5.6Z"/><path fill="#faf6f5" stroke="#0a1a1d" stroke-width=".77" d="M964.7 464a3.7 3.7 0 0 0 7.4 0c0-2.1-1.6-3.8-3.6-3.8s-3.7 1.6-3.8 3.7Zm1.8-9c0 2.2 1.6 3.9 3.6 3.9s3.7-1.7 3.8-3.7v-.1c0-2-1.6-3.8-3.7-3.8-2 0-3.7 1.6-3.7 3.7Zm-.5-9.3c0 2 1.6 3.8 3.6 3.8s3.7-1.6 3.7-3.7v-.1c0-2-1.6-3.8-3.6-3.8s-3.7 1.6-3.7 3.7v.1Zm-3.6-8.9c0 2 1.6 3.8 3.6 3.8s3.7-1.6 3.7-3.7v-.1c0-2-1.6-3.8-3.6-3.8s-3.7 1.6-3.7 3.7v.1Zm-6.8-7c0 2 1.7 3.8 3.7 3.8s3.7-1.6 3.7-3.7-1.6-3.8-3.6-3.9c-2 0-3.7 1.7-3.7 3.7v.1Zm-8.4-4.6c0 2.1 1.6 3.8 3.7 3.8 2 0 3.7-1.6 3.7-3.7s-1.6-3.8-3.6-3.8-3.7 1.6-3.8 3.7Zm-9.6-2.4c0 2.1 1.6 3.8 3.7 3.8 2 0 3.7-1.6 3.7-3.7s-1.6-3.8-3.6-3.9c-2 0-3.7 1.7-3.8 3.8Zm-9.8.5c0 2 1.6 3.8 3.6 3.8s3.7-1.6 3.8-3.7c0-2.1-1.6-3.8-3.7-3.9-2 0-3.7 1.7-3.7 3.7v.1Zm-26.6 7c0 2 1.6 3.8 3.6 3.8s3.7-1.6 3.7-3.7v-.1c0-2-1.6-3.8-3.6-3.8s-3.7 1.6-3.7 3.7v.1Zm17.2-4.3c0 2 1.7 3.7 3.7 3.8 2 0 3.7-1.7 3.7-3.8 0-2.1-1.6-3.8-3.6-3.8s-3.7 1.6-3.8 3.7Zm-8.6 2.6c0 2 1.6 3.8 3.6 3.8s3.7-1.6 3.8-3.7c0-2.1-1.6-3.8-3.7-3.9-2 0-3.7 1.7-3.7 3.7v.1Z"/><path fill="#fcd80e" d="M837 425.7a28 28 0 0 0-13.8 7c-3.7 3.7-6.1 8-7.5 13.3a29 29 0 0 0-.8 12.7c.7 6.3 4.6 12.6 4.6 12.6l6.7-1.1s-4-8.5-4.5-12.3c-.5-4.5-.5-6 .6-10 1.1-4.4 2.8-7.3 5.7-10.2a22 22 0 0 1 10.5-5.3c3.6-.9 7.5-1.2 10.6-.6 5.9 1.2 9.7 3.2 16 5.2 4.6 1.4 8.2 2 12.8 2.2 2.8.2 6.1-.6 9.2-1.2l5.7-1.4-1.8-6.6-5.3 1.3a48 48 0 0 1-7.4 1c-4.4-.2-7-.6-11-1.9-6-1.9-10.1-4-16.8-5.3-4.5-1-9.1-.4-13.5.6Z"/><path fill="none" stroke="#0a1a1d" stroke-width=".77" d="M837 425.7a28 28 0 0 0-13.8 7c-3.7 3.7-6.1 8-7.5 13.3a29 29 0 0 0-.8 12.7c.7 6.3 4.6 12.6 4.6 12.6l6.7-1.1s-4-8.5-4.5-12.3c-.5-4.5-.5-6 .6-10 1.1-4.4 2.8-7.3 5.7-10.2a22 22 0 0 1 10.5-5.3c3.6-.9 7.5-1.2 10.6-.6 5.9 1.2 9.7 3.2 16 5.2 4.6 1.4 8.2 2 12.8 2.2 2.8.2 6.1-.6 9.2-1.2l5.7-1.4-1.8-6.6-5.3 1.3a48 48 0 0 1-7.4 1c-4.4-.2-7-.6-11-1.9-6-1.9-10.1-4-16.8-5.3-4.5-1-9.1-.4-13.5.6Z"/><path fill="#faf6f5" stroke="#0a1a1d" stroke-width=".77" d="M818.5 464c0 2-1.6 3.7-3.6 3.7s-3.7-1.6-3.7-3.7 1.6-3.8 3.6-3.8 3.7 1.6 3.7 3.7Zm-1.7-9c0 2.2-1.6 3.9-3.7 3.9-2 0-3.7-1.7-3.7-3.7v-.1c0-2 1.6-3.8 3.7-3.8 2 0 3.7 1.6 3.7 3.7Zm.5-9.3c0 2-1.6 3.8-3.6 3.8s-3.7-1.6-3.8-3.7v-.1c0-2 1.6-3.8 3.7-3.8 2 0 3.7 1.6 3.7 3.7v.1Zm3.6-8.9c0 2-1.6 3.8-3.6 3.8s-3.7-1.6-3.8-3.7v-.1c0-2 1.6-3.8 3.7-3.8 2 0 3.7 1.6 3.7 3.7v.1Zm6.7-7c0 2-1.6 3.8-3.6 3.8s-3.7-1.6-3.7-3.7 1.6-3.8 3.6-3.9c2 0 3.7 1.7 3.7 3.7v.1Zm8.4-4.6c0 2.1-1.6 3.8-3.6 3.8s-3.7-1.6-3.7-3.7 1.6-3.8 3.6-3.8 3.7 1.6 3.7 3.7Zm9.6-2.4c0 2.1-1.6 3.8-3.6 3.8s-3.7-1.6-3.7-3.7 1.6-3.8 3.6-3.9c2 0 3.7 1.7 3.7 3.8Zm9.9.5c0 2-1.6 3.8-3.7 3.8-2 0-3.7-1.6-3.7-3.7s1.6-3.8 3.7-3.9c2 0 3.7 1.7 3.7 3.7v.1Zm26.6 7c0 2-1.6 3.8-3.6 3.8s-3.7-1.6-3.7-3.7v-.1c0-2 1.6-3.8 3.6-3.8s3.7 1.6 3.7 3.7v.1Zm-17.3-4.3c0 2-1.6 3.7-3.6 3.8-2 0-3.7-1.7-3.7-3.8 0-2.1 1.6-3.8 3.6-3.8s3.7 1.6 3.7 3.7Zm8.7 2.6c0 2-1.6 3.8-3.7 3.8-2 0-3.7-1.6-3.7-3.7s1.6-3.8 3.7-3.9c2 0 3.7 1.7 3.7 3.7v.1Z"/><path fill="#fcd80e" stroke="#0a1a1d" stroke-width=".77" d="M882.6 413.2c1-1.2 2.2-2.2 3.2-3.5 1-1.3 1.8-3 2.2-4.8-1.8.5-3.5 1.2-4.8 2.3-1.3 1-2.3 2.1-3.5 3.1v-16.2c1.2 1 2.2 2.2 3.5 3.1 1.3 1 3 1.8 4.8 2.3-.4-1.8-1.2-3.5-2.2-4.8-1-1.3-2.1-2.3-3.2-3.5h18c-1 1.2-2.2 2.2-3.1 3.5a13 13 0 0 0-2.2 4.8c1.7-.5 3.5-1.3 4.8-2.3 1.3-1 2.2-2.1 3.5-3.1v16.2c-1.3-1-2.2-2.2-3.5-3.1-1.4-1-3-1.8-4.8-2.3.4 1.7 1.2 3.5 2.2 4.8 1 1.3 2.1 2.2 3.1 3.5h-18Z"/><path fill="#faf6f5" stroke="#0a1a1d" stroke-width=".77" d="M896 402.2c.1 2.5-1.9 4.6-4.3 4.6-2.5 0-4.5-2-4.5-4.5v-.1c0-2.5 2-4.6 4.4-4.6 2.4 0 4.5 2 4.5 4.5Z"/><path fill="#fcd80e" d="M901.8 423.4a10.1 10.1 0 1 1-20.3.2v-.2a10.1 10.1 0 1 1 20.3-.2v.2Z"/><path fill="none" stroke="#0a1a1d" stroke-width=".77" d="M901.8 423.4a10.1 10.1 0 1 1-20.3.2v-.2a10.1 10.1 0 1 1 20.3-.2v.2Z"/><path fill="#fcd80e" d="M889.5 412.5v8.5H881v4.3h21.3V421h-8.5v-8.5h-4.3Z"/><path fill="none" stroke="#0a1a1d" stroke-width=".77" d="M889.5 412.5v8.5H881v4.3h21.3V421h-8.5v-8.5h-4.3Z"/><path fill="#fcd80e" fill-rule="evenodd" d="M888.3 431.5h6.7c1.8 0 3.3 1.5 3.3 3.3V466c0 1.9-1.5 3.4-3.3 3.4h-6.7a3.4 3.4 0 0 1-3.3-3.4v-31.2c0-1.8 1.5-3.3 3.3-3.3Z"/><path fill="none" stroke="#0a1a1d" stroke-width=".77" d="M888.3 431.5h6.7c1.8 0 3.3 1.5 3.3 3.3V466c0 1.9-1.5 3.4-3.3 3.4h-6.7a3.4 3.4 0 0 1-3.3-3.4v-31.2c0-1.8 1.5-3.3 3.3-3.3Z"/><path fill="#fcd80e" fill-rule="evenodd" d="M884.5 431.4c1.1 0 2 .8 2 1.8v34.4c0 1-.9 1.8-2 1.8s-2.2-.8-2.2-1.8v-34.4c0-1 1-1.8 2.2-1.8Z"/><path fill="none" stroke="#0a1a1d" stroke-width=".77" d="M884.5 431.4c1.1 0 2 .8 2 1.8v34.4c0 1-.9 1.8-2 1.8s-2.2-.8-2.2-1.8v-34.4c0-1 1-1.8 2.2-1.8Z"/><path fill="#fcd80e" fill-rule="evenodd" d="M898.8 431.4c1.2 0 2.2.8 2.2 1.8v34.4c0 1-1 1.8-2.2 1.8s-2.1-.8-2.1-1.8v-34.4c0-1 1-1.8 2.1-1.8Z"/><path fill="none" stroke="#0a1a1d" stroke-width=".77" d="M898.8 431.4c1.2 0 2.2.8 2.2 1.8v34.4c0 1-1 1.8-2.2 1.8s-2.1-.8-2.1-1.8v-34.4c0-1 1-1.8 2.1-1.8Z"/><path fill="#faf6f5" stroke="#0a1a1d" stroke-width=".77" d="M895.3 432.3c0 2-1.6 3.7-3.6 3.7s-3.7-1.6-3.7-3.7 1.6-3.8 3.6-3.8 3.7 1.6 3.7 3.7Z"/><path fill="#faf6f5" stroke="#0a1a1d" stroke-width=".77" d="M895.3 439.7c0 2-1.6 3.8-3.6 3.8s-3.7-1.6-3.7-3.7 1.6-3.8 3.6-3.9c2 0 3.7 1.7 3.7 3.8Z"/><path fill="#faf6f5" stroke="#0a1a1d" stroke-width=".77" d="M895.3 447.2c0 2-1.6 3.8-3.6 3.8s-3.7-1.6-3.7-3.7v-.1c0-2 1.6-3.8 3.6-3.8s3.7 1.6 3.7 3.7v.1Z"/><path fill="#faf6f5" stroke="#0a1a1d" stroke-width=".77" d="M895.3 454.7c0 2-1.6 3.7-3.6 3.8-2 0-3.7-1.7-3.7-3.8 0-2.1 1.6-3.8 3.6-3.8s3.7 1.6 3.7 3.7Z"/><path fill="#faf6f5" stroke="#0a1a1d" stroke-width=".77" d="M895.3 462.1c0 2.1-1.6 3.8-3.6 3.8s-3.7-1.6-3.7-3.7 1.6-3.8 3.6-3.8 3.7 1.6 3.7 3.7Z"/><path fill="#fcd80e" d="M957.8 485.9a294 294 0 0 0-9.2 23.7H834.3c-2.7-7.7-5.4-16-8.8-23.7 0 0 7 10 12.4 12.4 3 1.3 6.7 1.7 9.7.6 4-1.4 9.4-8.7 9.4-8.7s4.9 5.6 8.1 7.1a22 22 0 0 0 10 1.3c3-.1 6.4-.2 8.8-2 3.8-2.5 7.5-11.3 7.5-11.3s3.6 7 6.5 9.4a17.8 17.8 0 0 0 17.8 3.6c4-1.5 10.4-7.5 10.4-7.5s4.3 5.5 7.4 6.8c3 1.4 6.6 1.8 9.7 1 3.4-.8 6.2-3.2 8.8-5.5a53 53 0 0 0 5.8-7.2Z"/><path fill="none" stroke="#0a1a1d" stroke-width=".77" d="M957.8 485.9a294 294 0 0 0-9.2 23.7H834.3c-2.7-7.7-5.4-16-8.8-23.7 0 0 7 10 12.4 12.4 3 1.3 6.7 1.7 9.7.6 4-1.4 9.4-8.7 9.4-8.7s4.9 5.6 8.1 7.1a22 22 0 0 0 10 1.3c3-.1 6.4-.2 8.8-2 3.8-2.5 7.5-11.3 7.5-11.3s3.6 7 6.5 9.4a17.8 17.8 0 0 0 17.8 3.6c4-1.5 10.4-7.5 10.4-7.5s4.3 5.5 7.4 6.8c3 1.4 6.6 1.8 9.7 1 3.4-.8 6.2-3.2 8.8-5.5a53 53 0 0 0 5.8-7.2Z"/><path fill="#fcd80e" d="M891.6 490.4s-2.6 4-4.2 5.4c-2.2 1.9-3.7 3-6.5 4-2.9.8-6.9 1.4-9.8 1.2-3-.2-6-1-8.5-2.3-2.3-1-5.9-4.3-5.9-4.3-1.7 2.3-4 4-6.1 5.1a14.4 14.4 0 0 1-8.2 1.5c-5.8-.3-11.1-3.9-15.4-11.2-2.8-6.6-6-13.3-10-20.3 4.6-1.6 10-2.5 16-2.8-2.5 6.9-5 13.6-4.1 19 5-3.7 6.6-8.8 8.3-13.9l5.9 20.6c-3.6-.7-1.7-1.4-11-3.1 1.9 3.5 6.1 7.8 10.8 8.2 3.2.3 5.5-.7 7.5-2.4 1.4-1.2 2.7-2.9 2.7-4.8v-3.2c0-.7-.8-1.6-1.5-1.6s-.9 1-1 1.6c-.4 1.3.3 2.7 0 4a5.3 5.3 0 0 1-2.4 3.2c-1 .7-3.5.8-3.5.8l.8-3c.6-2.2-1.5-3.8-2-6-.3-1.3-.5-2.9 0-4.2a6.3 6.3 0 0 1 3-3.5c.5-.2 1.1-.3 1.7-.2.8 0 2.3.5 2.3.5s-.4-2.1-.3-3.4a20.9 20.9 0 0 1 5.7-10.6c.2.2 2.4 2.2 3.8 4.4.9 1.4 1.8 3.3 2 5 .2 1.2.1 4 .1 4s2.3-1 3.1-1c.6-.2 1.2-.2 1.7 0 1.4.6 2.6 1.9 3.3 3.3.6 1.3.5 2.8.3 4.2-.4 2.2-1.7 3.9-1 6l1 3s-2.4 0-3.5-.6c-1.3-.7-2-1.7-2.6-3-.4-1.3-.1-2.8-.9-3.9-.3-.4-.8-1-1.5-.9-.6 0-1.1 1.2-1.1 1.9l-.2 2.8c0 1 .4 1.9.9 2.6a10 10 0 0 0 4.8 3.6c2.1.8 4 1.2 6.3 1.2 1.9 0 5.2-.3 7-1a13 13 0 0 0 5.2-3.2c1-1 1.6-2.2 2-3.5.6-1.4.4-3.9.4-3.9a23 23 0 0 0-5.9 3.3c-2 1.5-3.6 3.2-5.3 5l-.1-24.8c2.3 2.5 4 4.8 6.3 6.7 1.9 1.6 2.9 2.3 4.8 2.9-.5-2-.7-3.2-2.2-5.2-2-2.8-3.9-5.8-6.3-8.5 4.5-.8 8.9-1 13.3-1s8.9.2 13.3 1c-2.4 2.7-4.3 5.7-6.3 8.5-1.4 2-1.6 3.2-2.2 5.2 2-.6 3-1.3 4.9-2.9 2.3-1.9 4-4.2 6.3-6.7l-.2 24.8a36.6 36.6 0 0 0-5.3-5 23.2 23.2 0 0 0-5.8-3.3s-.2 2.5.3 4c.4 1.2 1 2.5 2 3.4 1.7 1.6 3 2.5 5.3 3.3 1.8.6 5 1 7 .9 2.2 0 4.1-.4 6.2-1.2a10 10 0 0 0 4.9-3.6c.4-.8.9-1.7.8-2.6l-.1-2.8c0-.7-.5-1.8-1.2-1.9-.6 0-1.1.5-1.5 1-.7 1-.5 2.5-.9 3.7a5.3 5.3 0 0 1-2.6 3.1c-1 .6-3.5.6-3.5.6l1-3c.7-2.1-.6-3.8-1-6-.1-1.4-.2-3 .4-4.2a6.3 6.3 0 0 1 3.2-3.3c.6-.2 1.2-.2 1.7 0 .8 0 3.1 1 3.1 1s0-2.8.2-4c.2-1.7 1-3.6 2-5 1.3-2.2 3.5-4.2 3.7-4.4a21 21 0 0 1 5.7 10.6c.2 1.3-.3 3.4-.3 3.4s1.6-.5 2.4-.5c.5 0 1.1 0 1.6.2 1.4.6 2.5 2 3 3.5.6 1.3.4 2.9 0 4.2-.4 2.2-2.5 3.8-2 6l.8 3s-2.4-.1-3.4-.8c-1.3-.7-2-1.8-2.4-3.2-.3-1.3.4-2.7 0-4-.2-.6-.3-1.6-1-1.6s-1.5 1-1.5 1.6v3.2c0 2 1.2 3.6 2.7 4.8 2 1.7 4.3 2.7 7.4 2.4 4.7-.4 9-4.7 10.8-8.2-9.3 1.7-7.4 2.4-10.9 3l5.8-20.5c1.7 5.1 3.4 10.2 8.4 14 .9-5.5-1.7-12.2-4-19 5.9.2 11.2 1.1 15.8 2.7-4 7-7.2 13.7-10 20.3-4.2 7.3-9.6 10.9-15.3 11.2-2.8.2-5.5 0-8.2-1.5a19.5 19.5 0 0 1-6.2-5s-3.6 3.1-5.8 4.2a22.4 22.4 0 0 1-8.5 2.3c-3 .2-7-.3-9.8-1.3-2.9-.9-4.3-2-6.6-4a35.4 35.4 0 0 1-4.2-5.3Z"/><path fill="#fcd80e" d="M842.4 501c-5.8-.3-11.1-3.9-15.4-11.2-2.8-6.6-6-13.3-10-20.3 4.6-1.6 10-2.5 16-2.8-2.5 6.9-5 13.5-4.1 19 5-3.7 6.6-8.8 8.3-13.9l5.9 20.6c-3.6-.7-1.7-1.4-11-3.2 1.9 3.6 6.2 7.9 10.8 8.3l-.5 3.5Zm98-3.5c4.6-.4 8.9-4.8 10.8-8.3-9.3 1.8-7.4 2.5-11 3.1l5.8-20.5c1.8 5 3.4 10.2 8.4 14 .9-5.6-1.6-12.2-4-19 6 .2 11.3 1 15.9 2.7-4 7-7.2 13.7-10 20.3-4.3 7.3-9.6 10.9-15.4 11.2v.2l-.5-3.7Z"/><path fill="#fcd80e" d="M871 501c-2.8-.2-5.8-1-8.4-2.3-2.3-1-5.9-4.3-5.9-4.3-1.7 2.3-4 4-6.1 5.1a14.4 14.4 0 0 1-8.2 1.5l-.1 1 .6-4.5c3.2.3 5.5-.7 7.5-2.4 1.4-1.3 2.7-3 2.7-4.8v-3.2c0-.7-.9-1.6-1.6-1.7-.6 0-.8 1.1-1 1.7-.3 1.3.4 2.7 0 4a5.3 5.3 0 0 1-2.3 3.2c-1 .6-3.5.8-3.5.8l.8-3c.5-2.2-1.5-3.8-2-6-.3-1.4-.5-3 0-4.2a6.3 6.3 0 0 1 3-3.5c.5-.2 1.1-.3 1.7-.2.8 0 2.3.5 2.3.5s-.4-2.1-.3-3.5a20.9 20.9 0 0 1 5.7-10.6c.2.3 2.4 2.3 3.8 4.5.9 1.4 1.7 3.3 2 4.9.2 1.3.1 4 .1 4s2.3-.9 3.1-1c.6 0 1.2-.1 1.7.1 1.4.5 2.6 1.9 3.3 3.3.5 1.2.5 2.8.3 4.2-.4 2.2-1.7 3.9-1 6l1 3s-2.4 0-3.5-.6c-1.3-.7-2-1.7-2.6-3-.4-1.3-.1-2.8-.9-3.9-.3-.5-.8-1-1.5-1-.6.1-1.1 1.3-1.2 2v2.8c-.1 1 .3 1.8.8 2.5a10 10 0 0 0 4.8 3.7c2.1.8 4 1.1 6.3 1.2L871 501Z"/><path d="M928 490.2h-.1c-.1-1.4.4-3.8.4-3.8a4.2 4.2 0 0 1 2.4-2.8c.7-.2 1.5-.3 2.2 0 .4.2.8.4 1 .7.4.3.6.7.7 1.3.3.8.2 1.6 0 2.4-.2 1.2-.2 2.2.2 3 .2.6.7 1 1.3 1.4l-.2-1c-.1-.7 0-1.4.3-2 .4-1.1 1-2 1.5-2.9.4-.9.6-2 .5-2.9a4 4 0 0 0-.7-2.2 3.5 3.5 0 0 0-2-1.2c-.7-.1-1.8 0-2.6.4-1 .2-1.6.6-1.6.6l-.7.3v-.8c.5-2.9 1-4.3 0-7-.3-1-.9-2.2-1.8-3.6l-1.7-2.3a16.6 16.6 0 0 0-3.3 5.6c-.7 2-.7 4.7-.6 7v.8l-.6-.5-2-1c-1-.5-2.2-.9-2.7-.8-1 0-1.6.5-2.3 1.3-.5.7-.6 1.4-.8 2.3l.2 2.5c.1 1 .6 1.8.8 3l.2 1c.1.3.2.7 0 1.2l-.2 1 .5-.3c.5-.3.7-1 1-1.7l.3-1.2c0-.5 0-1 .2-1.5.4-1 .9-2.1 1.8-2.8.8-.6 1.9-.8 2.8-.5.6.2 1 .5 1.3 1 .3.3.4.8.6 1.2.3.5.5 1.4.6 2l.2 1.4v.2l-.7 2.2-.9-.2.7-2.1a26.4 26.4 0 0 0-.7-3.1l-.6-1.1c-.2-.2-.4-.5-.7-.6-.7-.2-1.5-.1-2 .3-.8.5-1.2 1.4-1.5 2.4-.2.4-.2.8-.2 1.2s0 1-.3 1.5c-.3.7-.6 1.6-1.3 2.1-.6.5-1.7.9-1.7.9l-.9.3.3-.9.6-1.9v-.8l-.3-1.2c-.1-.8-.6-1.8-.8-2.9 0-.7-.3-1.8-.2-2.7a5 5 0 0 1 1-2.7 4 4 0 0 1 3-1.8c1 0 2.1.5 3.2 1l1.2.7c0-2.1 0-4.5.6-6.6.8-2.1 2-4.2 4-6.3l.3-.3.3.3c.9 1 1.5 2 2 2.8 1 1.5 1.7 2.8 2 4 .9 2.5.6 4.2.2 6.5l1-.3c.9-.3 2-.6 3-.4 1 .2 1.9.8 2.5 1.6a5 5 0 0 1 1 2.7 7 7 0 0 1-.7 3.3l-1.5 2.8a3 3 0 0 0-.2 1.5c0 .8.5 2 .5 2l.2.8-.8-.3a4.3 4.3 0 0 1-2.7-2.3c-.5-1.1-.5-2.3-.2-3.6a4 4 0 0 0 0-2l-.4-1-.9-.4c-.4-.2-1-.2-1.4 0-.9.3-1.8 1.4-2 2.2a7.8 7.8 0 0 1-1.1 3.6Zm25.7-1.6.2-.4-.5-.2c-3.7-1.2-7-.3-10.3 1 1.3-3.4 2.3-7 3-10.6 3.5 6.3 6.5 8.4 9.3 9.7l.5.2v-.6c1-4.3 1-10-2.5-18.5 4 .2 7.8.7 11.7 2.4l.4-.8a34 34 0 0 0-12.8-2.6h-.7l.3.6a30.5 30.5 0 0 1 2.9 18.1c-2.7-1.3-5.4-3.2-8.9-9.9l-.6-1.1-.2 1.3a71 71 0 0 1-3.5 12.5l-.4 1 1-.4c3.2-1.5 6.5-2.5 10-1.5l1-.2Zm-123 .1c3.5-.9 6.8 0 10 1.6l1 .4-.4-1a70.1 70.1 0 0 1-3.5-12.5l-.2-1.3-.6 1.1c-3.5 6.7-6.2 8.6-9 10-.6-4.3-.6-9.8 3-18.2l.3-.6h-.7c-4.3.2-8.5.6-12.8 2.5l.3.9a32 32 0 0 1 11.8-2.4 31 31 0 0 0-2.6 18.5v.6l.6-.3c2.8-1.2 5.8-3.3 9.3-9.6a71 71 0 0 0 3 10.7 14.4 14.4 0 0 0-10.3-1.1l-.5.2.2.4h-.1l1.2.1Zm29 2-.6-1.9a17.2 17.2 0 0 1 .6-3l.6-1.2c.2-.2.4-.4.8-.5.7-.2 1.5-.1 2 .3.7.5 1.1 1.4 1.5 2.4.2.4.2.8.2 1.2s0 1 .3 1.5c.3.7.5 1.6 1.3 2.1.6.5 1.6.9 1.6.9l1 .3-.4-.9-.5-1.9v-.8l.3-1.2c0-.8.6-1.8.7-2.9.1-.7.3-1.8.2-2.7a5 5 0 0 0-1-2.8 4 4 0 0 0-2.8-1.7c-1 0-2.2.5-3.3 1l-1.2.7a18 18 0 0 0-.7-6.6c-.7-2.1-2-4.2-3.8-6.3l-.4-.3-.3.3c-.9 1-1.5 2-2 2.8-1 1.5-1.7 2.7-2.1 4-.8 2.5-.5 4.2-.1 6.5l-1-.3c-.9-.3-2-.6-3-.4-1 .2-2 .8-2.5 1.6a5 5 0 0 0-1 2.6 7 7 0 0 0 .7 3.4l1.5 2.8c.2.5.3 1 .2 1.5l-.5 2-.3.8.9-.3a4.3 4.3 0 0 0 2.7-2.3c.4-1 .4-2.3.2-3.6a4 4 0 0 1 0-2c.1-.5.3-.7.4-.9s.4-.3.8-.5 1-.2 1.5 0c.8.3 1.7 1.4 1.9 2.2 0 0 .4 2.4.4 3.5l1 .2c0-1.5-.5-3.9-.5-3.9a4.1 4.1 0 0 0-2.5-2.8c-.6-.3-1.5-.3-2.2 0l-1 .7c-.3.3-.5.7-.7 1.2-.3.9-.2 1.7 0 2.5.2 1.2.2 2.2-.2 3a3 3 0 0 1-1.3 1.4l.3-1c0-.7 0-1.4-.3-2l-1.5-2.9c-.4-.9-.7-2-.6-2.9 0-.8.3-1.6.8-2.2.4-.6 1.2-1 2-1.2.6-.2 1.7 0 2.6.4l1.5.6.8.3-.2-.8c-.4-2.9-.8-4.3 0-7 .4-1 1-2.2 2-3.6l1.6-2.3c1.6 1.8 2.7 3.7 3.4 5.6.7 2 .7 4.7.5 7v.8l.7-.5 1.9-1c1-.5 2.2-.9 2.8-.9 1 .1 1.6.6 2.2 1.4.6.7.7 1.3.8 2.3 0 .6 0 1.8-.2 2.5-.1 1-.6 1.8-.7 3l-.3 1v1.2l.3 1-.6-.3c-.5-.3-.7-1-1-1.7-.2-.4-.2-.8-.2-1.2s0-1-.3-1.5c-.4-1-.8-2.1-1.8-2.8-.8-.6-1.9-.8-2.8-.5-.5.2-1 .5-1.2 1-.3.3-.5.8-.7 1.2-.3.5-.4 1.4-.5 2l-.2 1.4v.2l.5 2h.3l.6-.3Zm34-7.3v-.5l.6.1c2.5.6 4.5 1.5 6 2.4 2 1.2 3.6 2.6 5.1 3.9l.3-15c-1.3 1.5-2.6 3.1-4.4 4.4a17 17 0 0 1-7 2.7h-.7l.2-.6c.3-1.6.3-2.8 1.2-4.8a53 53 0 0 1 5.8-9.2c-2.9-.4-5.4-.7-9.2-.7s-6.3.3-9.2.7c3.4 4.6 5 7.3 5.9 9.2.8 2 .8 3.2 1.2 4.8v.6h-.5c-2.7-.3-5.5-1.7-7-2.7-1.9-1.3-3.1-2.9-4.5-4.3l.3 14.9c1.6-1.3 3-2.7 5-3.9 1.7-1 3.6-1.8 6-2.4l.6-.1v.5l-.9.7c-2 .5-3.8 1.3-5.2 2-2.2 1.4-3.8 3-5.7 4.5l-.7.5v-.9l-.3-17V472l.8.7c1.7 1.8 3 3.7 5 5.1 1.3.9 3.8 2 6 2.4-.2-1.3-.3-2.4-1-4-.8-1.9-2.4-4.6-6.2-9.7l-.4-.6h.8c3.2-.4 5.8-.8 10-.8s6.8.4 10 .7l.8.1-.5.6c-3.7 5.1-5.3 7.8-6.1 9.7-.7 1.6-.8 2.7-1 4a17 17 0 0 0 5.9-2.4c2-1.4 3.4-3.3 5.1-5l.8-.9v1.2l-.3 17v1l-.8-.7c-1.9-1.5-3.4-3-5.7-4.3a21 21 0 0 0-5.2-2.2l-.9-.6Z"/><path fill="none" stroke="#0a1a1d" stroke-width=".77" d="M891.6 490.4s-2.6 4-4.2 5.4c-2.2 1.9-3.7 3-6.5 4-2.9.8-6.9 1.4-9.8 1.2-3-.2-6-1-8.5-2.3-2.3-1-5.9-4.3-5.9-4.3-1.7 2.3-4 4-6.1 5.1a14.4 14.4 0 0 1-8.2 1.5c-5.8-.3-11.1-3.9-15.4-11.2-2.8-6.6-6-13.3-10-20.3 4.6-1.6 10-2.5 16-2.8-2.5 6.9-5 13.6-4.1 19 5-3.7 6.6-8.8 8.3-13.9l5.9 20.6c-3.6-.7-1.7-1.4-11-3.1 1.9 3.5 6.1 7.8 10.8 8.2 3.2.3 5.5-.7 7.5-2.4 1.4-1.2 2.7-2.9 2.7-4.8v-3.2c0-.7-.8-1.6-1.5-1.6s-.9 1-1 1.6c-.4 1.3.3 2.7 0 4a5.3 5.3 0 0 1-2.4 3.2c-1 .7-3.5.8-3.5.8l.8-3c.6-2.2-1.5-3.8-2-6-.3-1.3-.5-2.9 0-4.2a6.3 6.3 0 0 1 3-3.5c.5-.2 1.1-.3 1.7-.2.8 0 2.3.5 2.3.5s-.4-2.1-.3-3.4a20.9 20.9 0 0 1 5.7-10.6c.2.2 2.4 2.2 3.8 4.4.9 1.4 1.8 3.3 2 5 .2 1.2.1 4 .1 4s2.3-1 3.1-1c.6-.2 1.2-.2 1.7 0 1.4.6 2.6 1.9 3.3 3.3.6 1.3.5 2.8.3 4.2-.4 2.2-1.7 3.9-1 6l1 3s-2.4 0-3.5-.6c-1.3-.7-2-1.7-2.6-3-.4-1.3-.1-2.8-.9-3.9-.3-.4-.8-1-1.5-.9-.6 0-1.1 1.2-1.1 1.9l-.2 2.8c0 1 .4 1.9.9 2.6a10 10 0 0 0 4.8 3.6c2.1.8 4 1.2 6.3 1.2 1.9 0 5.2-.3 7-1a13 13 0 0 0 5.2-3.2c1-1 1.6-2.2 2-3.5.6-1.4.4-3.9.4-3.9a23 23 0 0 0-5.9 3.3c-2 1.5-3.6 3.2-5.3 5l-.1-24.8c2.3 2.5 4 4.8 6.3 6.7 1.9 1.6 2.9 2.3 4.8 2.9-.5-2-.7-3.2-2.2-5.2-2-2.8-3.9-5.8-6.3-8.5 4.5-.8 8.9-1 13.3-1s8.9.2 13.3 1c-2.4 2.7-4.3 5.7-6.3 8.5-1.4 2-1.6 3.2-2.2 5.2 2-.6 3-1.3 4.9-2.9 2.3-1.9 4-4.2 6.3-6.7l-.2 24.8a36.6 36.6 0 0 0-5.3-5 23.2 23.2 0 0 0-5.8-3.3s-.2 2.5.3 4c.4 1.2 1 2.5 2 3.4 1.7 1.6 3 2.5 5.3 3.3 1.8.6 5 1 7 .9 2.2 0 4.1-.4 6.2-1.2a10 10 0 0 0 4.9-3.6c.4-.8.9-1.7.8-2.6l-.1-2.8c0-.7-.5-1.8-1.2-1.9-.6 0-1.1.5-1.5 1-.7 1-.5 2.5-.9 3.7a5.3 5.3 0 0 1-2.6 3.1c-1 .6-3.5.6-3.5.6l1-3c.7-2.1-.6-3.8-1-6-.1-1.4-.2-3 .4-4.2a6.3 6.3 0 0 1 3.2-3.3c.6-.2 1.2-.2 1.7 0 .8 0 3.1 1 3.1 1s0-2.8.2-4c.2-1.7 1-3.6 2-5 1.3-2.2 3.5-4.2 3.7-4.4a21 21 0 0 1 5.7 10.6c.2 1.3-.3 3.4-.3 3.4s1.6-.5 2.4-.5c.5 0 1.1 0 1.6.2 1.4.6 2.5 2 3 3.5.6 1.3.4 2.9 0 4.2-.4 2.2-2.5 3.8-2 6l.8 3s-2.4-.1-3.4-.8c-1.3-.7-2-1.8-2.4-3.2-.3-1.3.4-2.7 0-4-.2-.6-.3-1.6-1-1.6s-1.5 1-1.5 1.6v3.2c0 2 1.2 3.6 2.7 4.8 2 1.7 4.3 2.7 7.4 2.4 4.7-.4 9-4.7 10.8-8.2-9.3 1.7-7.4 2.4-10.9 3l5.8-20.5c1.7 5.1 3.4 10.2 8.4 14 .9-5.5-1.7-12.2-4-19 5.9.2 11.2 1.1 15.8 2.7-4 7-7.2 13.7-10 20.3-4.2 7.3-9.6 10.9-15.3 11.2-2.8.2-5.5 0-8.2-1.5a19.5 19.5 0 0 1-6.2-5s-3.6 3.1-5.8 4.2a22.4 22.4 0 0 1-8.5 2.3c-3 .2-7-.3-9.8-1.3-2.9-.9-4.3-2-6.6-4a35.4 35.4 0 0 1-4.2-5.3Z"/><path fill="#faf6f5" stroke="#0a1a1d" stroke-width=".77" d="M895.7 482c0 2.3-1.8 4.2-4 4.2a4 4 0 0 1-4.1-4v-.2c0-2.2 1.8-4.1 4-4.1a4 4 0 0 1 4.1 4v.1Zm-64.1 5.7c0 2.3-1.8 4.2-4 4.2a4 4 0 0 1-4.1-4.1c0-2.4 1.8-4.2 4-4.2a4 4 0 0 1 4 4v.1Zm120.1 0c0 2.3 1.8 4.2 4 4.2a4 4 0 0 0 4.1-4.1c0-2.4-1.8-4.2-4-4.2a4 4 0 0 0-4 4v.1Z"/><path fill="#fcd80e" d="m852.6 488.2 9-.5 1.2 2-1 2-9 .5-1.5-2 1.3-2Z"/><path fill="none" stroke="#0a1a1d" stroke-width=".77" d="m852.6 488.2 9-.5 1.2 2-1 2-9 .5-1.5-2 1.3-2Z"/><path fill="#fcd80e" d="m930.7 488.2-9-.5-1.2 2 1 2 9 .5 1.5-2-1.3-2Z"/><path fill="#fcd80e" stroke="#0a1a1d" stroke-width=".77" d="m930.7 488.2-9-.5-1.2 2 1 2 9 .5 1.5-2-1.3-2Z"/><path fill="#fcd80e" fill-rule="evenodd" d="m835.4 522.8 17.6-1a612 612 0 0 1 29.3-1H901c6 0 18.2.3 29.4 1l17.4 1 3.9-17.4s-40-3.6-60-3.6-60 3.6-60 3.6l3.7 17.4Z"/><path fill="none" stroke="#0a1a1d" stroke-width=".77" d="M891.4 502c20 0 40.1 1 60.1 3.3l-3.7 17.6a640.8 640.8 0 0 0-56.2-2.4m.3-18.5c-20 0-40.1 1.1-60.1 3.3l3.7 17.6c19.8-1.7 36-2.2 56.2-2.4"/><path fill="#fcd80e" d="M852.8 502.4c-7.2.6-15.4 1.1-22.6 2-1 1.3-1.2 2.4.7 3.3 7-1 15-1.5 22.2-2 9.7-.6 19.5-1 29.2-1H901c5.8 0 18.1.3 29.1 1s22.3 2 22.3 2c2-1 1.7-2 .7-3.2 0 0-11.4-1.4-22.6-2-11.2-.8-23.5-1.1-29.5-1.1h-18.7c-9.9 0-19.7.5-29.5 1Z"/><path fill="none" stroke="#0a1a1d" stroke-width=".77" d="M852.8 502.4c-7.2.6-15.4 1.1-22.6 2-1 1.3-1.2 2.4.7 3.3 7-1 15-1.5 22.2-2 9.7-.6 19.5-1 29.2-1H901c5.8 0 18.1.3 29.1 1s22.3 2 22.3 2c2-1 1.7-2 .7-3.2 0 0-11.4-1.4-22.6-2-11.2-.8-23.5-1.1-29.5-1.1h-18.7c-9.9 0-19.7.5-29.5 1Z"/><path fill="#fcd80e" d="M855.5 520.6c-6.7.5-14.3 1.1-21 2-1 1.3-1 2.4.7 3.3 6.4-1 14-1.5 20.6-2 9-.6 18-1 27.2-1h17.3a369 369 0 0 1 47.8 3c1.8-1 1.6-2 .7-3.2 0 0-10.6-1.4-21-2-10.4-.8-21.9-1.1-27.5-1.1H883c-9.2 0-18.4.5-27.5 1Z"/><path fill="none" stroke="#0a1a1d" stroke-width=".77" d="M855.5 520.6c-6.7.5-14.3 1.1-21 2-1 1.3-1 2.4.7 3.3 6.4-1 14-1.5 20.6-2 9-.6 18-.7 27.2-.8h17.3a369 369 0 0 1 47.8 2.9c1.8-1 1.6-2.2.7-3.3 0 0-10.6-1.4-21-2-10.4-.8-21.9-1-27.5-1H883c-9.2.1-18.4.4-27.5 1Zm25-14.6h22.3c.5 0 .8.3.8.6v10.9c0 .3-.3.6-.8.6h-22.3c-.4 0-.8-.3-.8-.6v-11c0-.2.4-.5.8-.5Z"/><path fill="#001f56" fill-rule="evenodd" stroke="#b5915f" stroke-width=".77" d="M883.7 507.6h16c.8 0 1.4.4 1.4 1v6.8c0 .6-.6 1-1.4 1h-16c-.8 0-1.4-.4-1.4-1v-6.8c0-.6.6-1 1.4-1Z"/><path fill="#2d86cf" fill-rule="evenodd" stroke="#b5915f" stroke-width=".77" d="M900.7 516.2c-.3.2-.7.3-1 .3h-16c-.4 0-.7-.1-1-.3s-.4-.5-.4-.8v-6.8c0-.3.2-.5.4-.7.3-.2 18.2 8 18 8.3Z"/><path fill="#001f56" fill-rule="evenodd" stroke="#0a1a1d" stroke-width=".77" d="M900.7 516.2c-.3.2-.7.3-1 .3h-16c-.4 0-.7-.1-1-.3s-.4-.5-.4-.8v-6.8c0-.3.2-.5.4-.7.1-.1 4.8 2 9.4 4 4.4 2.1 8.7 4.2 8.6 4.3Z"/><path fill="#001f56" fill-rule="evenodd" stroke="#0a1a1d" stroke-width=".77" d="M900.7 507.9c.2.2.4.4.4.7v6.8c0 .3-.2.6-.4.8-.3.2-.7.3-1 .3h-16c-.4 0-.7-.1-1-.3a231 231 0 0 1 18-8.3Z"/><path fill="#001f56" fill-rule="evenodd" stroke="#0a1a1d" stroke-width=".77" d="M900.7 516.2c-.3.2-.7.3-1 .3h-16c-.4 0-.7-.1-1-.3-.1-.1 4.4-2.3 9-4.4 0 0 9.2 4.2 9 4.4Z"/><path fill="none" stroke="#0a1a1d" stroke-width=".77" d="M883.7 507.6h16c.8 0 1.4.4 1.4 1v6.8c0 .6-.6 1-1.4 1h-16c-.8 0-1.4-.4-1.4-1v-6.8c0-.6.6-1 1.4-1Z"/><path fill="#001f56" stroke="#0a1a1d" stroke-width=".77" d="M886.4 509.6H897v4.6h-10.6z"/><path fill="#fcd80e" fill-rule="evenodd" stroke="#0a1a1d" stroke-width=".77" d="m856.5 508.4 6.5-.7c2.8-.2 5.3 1.5 5.7 4l.1.4c.5 2.4-1.4 4.6-4.1 4.9l-6.6.6c-2.7.3-5.2-1.5-5.6-4l-.1-.4c-.5-2.4 1.4-4.6 4.1-4.8Z"/><path fill="#036a4a" fill-rule="evenodd" d="m857 509.6 6-.6c2.2-.2 4.1 1.1 4.4 3s-1 3.5-3.1 3.7l-6.2.6c-2 .2-4-1.1-4.4-3s1.1-3.5 3.2-3.7Z"/><path fill="none" stroke="#0a1a1d" stroke-width=".77" d="m857 509.6 6-.6c2.2-.2 4.1 1.1 4.4 3s-1 3.5-3.1 3.7l-6.2.6c-2 .2-4-1.1-4.4-3s1.1-3.5 3.2-3.7Z"/><path fill="#fcd80e" stroke="#0a1a1d" stroke-width=".77" d="m834 520.8 9.1-7.8-11.2-3.9-.1 6.4 2.2 5.3Z"/><path fill="#c40f38" d="m833.7 519.2 6.6-5.6-8.1-2.9-1.7 4.5 3.2 4Z"/><path fill="#c40f38" d="m833.7 519.2 6.6-5.6-9.8 1.6 3.2 4Z"/><path fill="none" stroke="#0a1a1d" stroke-width=".77" d="m840.4 513.5-10 1.7m3.3 4 6.6-5.6-8.1-2.9-1.8 4.4 3.3 4Z"/><path fill="#faf6f5" stroke="#0a1a1d" stroke-width=".77" d="M876 508.9a2 2 0 0 1-2 2 2 2 0 0 1-2.1-2 2 2 0 0 1 2-2 2 2 0 0 1 2 2Zm.3 6.4a2 2 0 0 1-2 2.1 2 2 0 0 1-2-2 2 2 0 0 1 2-2.1 2 2 0 0 1 2 2Zm-27.5-5a2 2 0 0 1-2 2.1 2 2 0 0 1-2-2 2 2 0 0 1 2-2.1 2 2 0 0 1 2 2Zm.4 6.5a2 2 0 0 1-2 2.1 2 2 0 0 1-2-2 2 2 0 0 1 2-2.1 2 2 0 0 1 2 2Z"/><path fill="#fcd80e" fill-rule="evenodd" stroke="#0a1a1d" stroke-width=".77" d="m926.8 508.4-6.6-.7c-2.7-.2-5.2 1.5-5.7 4v.4c-.5 2.4 1.4 4.6 4.1 4.9l6.5.6c2.8.3 5.3-1.5 5.7-4l.1-.4c.4-2.4-1.4-4.6-4.1-4.8Z"/><path fill="#036a4a" fill-rule="evenodd" d="m926.3 509.6-6-.6c-2.2-.2-4.1 1.1-4.5 3s1.1 3.5 3.2 3.7l6.2.6c2 .2 4-1.1 4.3-3s-1-3.5-3.2-3.7Z"/><path fill="none" stroke="#0a1a1d" stroke-width=".77" d="m926.3 509.6-6-.6c-2.2-.2-4.1 1.1-4.5 3s1.1 3.5 3.2 3.7l6.2.6c2 .2 4-1.1 4.3-3s-1-3.5-3.2-3.7Z"/><path fill="#fcd80e" stroke="#0a1a1d" stroke-width=".77" d="m949.3 520.8-9.2-7.8 11.3-3.9.1 6.4-2.2 5.3Z"/><path fill="#c40f38" d="m949.6 519.2-6.7-5.6 8.2-2.9 1.7 4.5-3.2 4Z"/><path fill="#c40f38" d="m949.6 519.2-6.7-5.6 9.9 1.6-3.2 4Z"/><path fill="none" stroke="#0a1a1d" stroke-width=".77" d="m943 513.5 9.8 1.7m-3.2 4-6.7-5.6 8.2-2.9 1.8 4.4-3.3 4Z"/><path fill="#faf6f5" stroke="#0a1a1d" stroke-width=".77" d="M907.4 508.9c0 1.1.9 2 2 2a2 2 0 0 0 2-2 2 2 0 0 0-2-2 2 2 0 0 0-2 2Zm-.4 6.4c0 1.2.8 2 2 2.1a2 2 0 0 0 2-2 2 2 0 0 0-2-2.1 2 2 0 0 0-2 2Zm27.5-5c0 1.2.9 2.1 2 2.1a2 2 0 0 0 2-2 2 2 0 0 0-2-2.1 2 2 0 0 0-2 2Zm-.4 6.5c0 1.2.9 2 2 2.1a2 2 0 0 0 2-2 2 2 0 0 0-2-2.1 2 2 0 0 0-2 2Z"/></svg>