<svg xmlns="http://www.w3.org/2000/svg" xmlns:xlink="http://www.w3.org/1999/xlink" width="600" height="300"><defs><path id="e" fill="#fcd80e" fill-opacity="1" stroke="none" stroke-width="1.176" d="M358.4 213.6c-9 2-18.6 6-26.1 13.5-7 6.9-11.7 15-14.3 25a54.2 54.2 0 0 0-1.5 24 69.4 69.4 0 0 0 8.8 23.8l12.6-2.2s-7.6-16-8.5-23.1a39 39 0 0 1 1.1-19.1 39.3 39.3 0 0 1 11-19.2 41.6 41.6 0 0 1 19.8-10 50 50 0 0 1 20-1c11.2 2.3 18.4 5.9 30.4 9.7a90.3 90.3 0 0 0 24.2 4.2c5.4.3 11.6-1 17.4-2.3 5.9-1.2 10.8-2.5 10.8-2.5l-3.3-12.6s-4.7 1.2-10.2 2.4a91.8 91.8 0 0 1-14 2 74.1 74.1 0 0 1-21-3.6c-11-3.5-19-7.4-31.6-10a60.9 60.9 0 0 0-25.6 1z" color="#0a1a1d" direction="ltr" display="inline" font-family="Bitstream Vera Sans" font-size="medium" font-stretch="normal" font-style="normal" font-variant="normal" font-weight="400" letter-spacing="normal" style="line-height:normal;-inkscape-font-specification:&quot;Bitstream Vera Sans&quot;;text-indent:0;text-align:start;text-decoration-line:none;text-transform:none;marker:none" text-anchor="start" text-decoration="none" visibility="visible" word-spacing="normal" writing-mode="lr-tb"/><path id="f" fill="none" stroke="#0a1a1d" stroke-dasharray="none" stroke-miterlimit="4" stroke-opacity="1" stroke-width="1.176" d="M358.4 213.6c-9 2-18.6 6-26.1 13.5-7 6.9-11.7 15-14.3 25a54.2 54.2 0 0 0-1.5 24 69.4 69.4 0 0 0 8.8 23.8l12.6-2.2s-7.6-16-8.5-23.1a39 39 0 0 1 1.1-19.1 39.3 39.3 0 0 1 11-19.2 41.6 41.6 0 0 1 19.8-10 50 50 0 0 1 20-1c11.2 2.3 18.4 5.9 30.4 9.7a90.3 90.3 0 0 0 24.2 4.2c5.4.3 11.6-1 17.4-2.3 5.9-1.2 10.8-2.5 10.8-2.5l-3.3-12.6s-4.7 1.2-10.2 2.4a91.8 91.8 0 0 1-14 2 74.1 74.1 0 0 1-21-3.6c-11-3.5-19-7.4-31.6-10a60.9 60.9 0 0 0-25.6 1z" color="#0a1a1d" direction="ltr" display="inline" font-family="Bitstream Vera Sans" font-size="medium" font-stretch="normal" font-style="normal" font-variant="normal" font-weight="400" letter-spacing="normal" style="line-height:normal;-inkscape-font-specification:&quot;Bitstream Vera Sans&quot;;text-indent:0;text-align:start;text-decoration-line:none;text-transform:none;marker:none" text-anchor="start" text-decoration="none" visibility="visible" word-spacing="normal" writing-mode="lr-tb"/></defs><clipPath id="b"><path d="M0 0h300v150H0z"/></clipPath><path fill="#faf6f5" d="M0 0h600v300H0z"/><path id="a" fill="#012778" d="M600 260.9c-6.7 4-12.5 13.5-30.4 13.5-35.7 0-44.6-20-71.4-20-17.8 0-26.8 20-44.6 20-35.7 0-44.7-20-71.5-20-17.8 0-26.7 20-44.6 20-35.7 0-44.6-20-71.4-20-17.9 0-26.8 20-44.7 20-35.7 0-44.6-20-71.4-20-17.9 0-26.8 20-44.6 20-35.8 0-44.7-20-71.5-20-17.8 0-23.2 14.3-33.9 14.3v25.6c10.7 0 16-14.2 34-14.2 26.7 0 35.6 19.9 71.4 19.9 17.8 0 26.7-19.9 44.6-19.9 26.8 0 35.7 19.9 71.4 19.9 17.9 0 26.8-19.9 44.7-19.9 26.8 0 35.7 19.9 71.4 19.9 17.9 0 26.8-19.9 44.6-19.9 26.8 0 35.8 19.9 71.5 19.9 17.8 0 26.8-19.9 44.6-19.9 26.8 0 35.7 19.9 71.4 19.9 17.9 0 23.7-5.6 30.4-9.7z"/><use xlink:href="#a" transform="translate(0 -49.753)"/><use xlink:href="#a" transform="translate(0 -99.507)"/><use xlink:href="#a" transform="translate(0 -149.26)"/><use xlink:href="#a" transform="translate(0 -199.014)"/><use xlink:href="#a" transform="translate(0 -248.768)"/><path fill="#faf6f5" d="M0 0h290v152H0z"/><g clip-path="url(#b)"><path fill="#012778" d="M0 0h300v150H0z"/><path stroke="#faf6f5" stroke-width="50" d="M150 0v200M0 75h350"/><path stroke="#c40f38" stroke-width="30" d="M150 0v200M0 75h350"/></g><path fill="#6c401f" stroke="#0a1a1d" stroke-dasharray="none" stroke-miterlimit="4" stroke-opacity="1" stroke-width=".75" d="m446.5 79.2-2 204.2c-.3 11.6 10.3 11.6 10.3 0l-2-204.2z"/><g transform="matrix(.43857 0 0 .37683 122.2 25.058)"><g transform="matrix(-.31451 .10485 -.1383 -.30323 1046.472 373.319)"><g id="c" fill="none" stroke="#0a1a1d"><path fill="#0f7d3a" stroke="#0a1a1d" stroke-dasharray="none" stroke-miterlimit="4" stroke-opacity="1" stroke-width="4.453" d="M673.2 325.2 691 396l35.5-53.1-17.7 88.6L744 396l-35.4 88.6 35.4-35.4-35.4 88.6 35.4-35.5-35.4 106.3 35.4-35.4-35.4 106.3L744 644l-35.4 106.3-17.8 53.1-17.7 17.7-17.7-17.7-17.7-53.1L602.4 644l35.4 35.4-35.4-106.3 35.4 35.4-35.4-106.3 35.4 35.5-35.4-88.6 35.4 35.4-35.4-88.6 35.4 35.5-17.7-88.6 35.4 53.1z"/><path d="M673.2 325.2v496m-70.8-177.1 70.8 106.3L744.1 644"/><path d="m602.4 573.2 70.8 106.3 70.9-106.3"/><path d="m602.4 502.3 70.8 106.3 70.9-106.3"/><path d="m602.4 449.2 70.8 88.6 70.9-88.6"/><path d="m602.4 396 70.8 88.6 70.9-88.6"/><path d="m620 342.9 53.2 106.3 53.2-106.3"/></g></g><use xlink:href="#c" transform="matrix(.23652 -.28186 .29496 .22762 354.567 204.654)"/><use xlink:href="#c" transform="matrix(.15164 .33524 -.3329 .1673 907.539 -153.47)"/><use xlink:href="#c" transform="matrix(-.20952 .30246 -.3147 -.19945 1141.363 167.58)"/><use xlink:href="#c" transform="matrix(-.20772 -.25838 .23618 -.23515 689.986 567.277)"/><g transform="matrix(-.36218 -.09947 -.2098 .31773 1222.415 -24.23)"><g id="d" fill="none" stroke="#0a1a1d"><path fill="#0f7d3a" stroke="#0a1a1d" stroke-dasharray="none" stroke-miterlimit="4" stroke-opacity="1" stroke-width="3.336" d="m744.1 425.2 28.6 70.9 42.3-53.2-10.2 88.6 27.9-35.4-17.7 88.5 25.2-35.4-25.2 88.6 35.4-35.4L815 708.7l35.4-35.5L815 779.5l35.4-35.4L815 850.4l-17.8 53.1-17.7 17.8-17.7-17.8-17.7-53.1L708.7 744l35.4 35.4-35.4-106.3 35.4 35.5-35.4-106.3 35.4 35.4-45.6-88.6 45.6 35.4-53.2-88.5 43 35.4-25.2-88.6 35.4 53.2z"/><path d="m750.7 460.6 28.8 124v336.7"/><path d="m719.7 761.8 59.8 88.6 60.7-88.6"/><path d="m718 691 61.5 88.5 60.7-88.6"/><path d="m718.8 620 60.7 88.7 59.9-88.6"/><path d="m716.3 567 63.2 70.8 53.2-70.9"/><path d="m708.7 513.8 70.8 70.8 45.4-70.8"/><path d="m719.6 469.2 53.1 87 35.4-95.6"/></g></g><use xlink:href="#d" transform="matrix(.36088 .10411 .01321 .38053 452.761 -239.266)"/><g fill="none" stroke="#0a1a1d"><path fill="#0f7d3a" stroke="#0a1a1d" stroke-dasharray="none" stroke-miterlimit="4" stroke-opacity="1" stroke-width="3.523" d="m354.3 531.5 88.6 88.6 17.7-53.2v88.6l35.5-35.4-17.8 88.6 35.5-35.5-17.7 88.6 35.4-35.4-17.7 106.3 35.4-35.5-35.4 106.3 35.4-35.4-17.7 106.3-17.7 53.2-17.7 17.7-17.8-17.7-17.7-53.2-53.1-82.3 35.4 11.4-35.4-106.3 35.4 35.5-53.1-106.3 35.4 35.4-53.2-88.6 53.2 35.5-70.9-88.6 53.2 35.4-70.9-70.9 70.9 35.5z" transform="matrix(.04613 -.36474 .32602 .0648 386.005 315.21)"/><path d="m379 560 64 95.5 17.6 53.2 8.9 45.2 8.8 78.8 9.4 70.8 8.4 141.8" transform="matrix(.04613 -.36474 .32602 .0648 386.005 315.21)"/><path d="m425.2 903.5 63.7 71 50.7-88.7" transform="matrix(.04613 -.36474 .32602 .0648 386.005 315.21)"/><path d="m417 815 70.7 88.5 50.7-88.5" transform="matrix(.04613 -.36474 .32602 .0648 386.005 315.21)"/><path d="m407.5 752.4 70.8 80.3 46-88.6M372 637.8l88.6 70.9 25.9-70.9" transform="matrix(.04613 -.36474 .32602 .0648 386.005 315.21)"/><path d="m360.6 602.4 82.3 53.1 10.5-53.1m-63.6 88.5 81 71 34-71" transform="matrix(.04613 -.36474 .32602 .0648 386.005 315.21)"/></g></g><path fill="#faf6f5" fill-opacity="1" d="M451.7 194.5h28.5s1.9-4.2 2-6.1c.3-2.3.3-3-.2-5-.5-2.2-1.3-3.7-2.7-5.2a10 10 0 0 0-4.9-2.6c-1.6-.4-3.5-.6-5-.3-2.7.6-4.4 1.6-7.4 2.6-2.1.7-3.8 1-6 1.1-1.3 0-2.8-.3-4.3-.6zm-4.2 0h-28.4s-2-4.2-2.1-6.1c-.3-2.3-.3-3 .3-5 .5-2.2 1.3-3.7 2.6-5.2a10 10 0 0 1 5-2.6c1.6-.4 3.4-.6 4.9-.3 2.7.6 4.5 1.6 7.5 2.6 2.1.7 3.7 1 6 1.1 1.2 0 2.8-.3 4.2-.6z" color="#0a1a1d" direction="ltr" display="inline" font-family="Bitstream Vera Sans" font-size="medium" font-stretch="normal" font-style="normal" font-variant="normal" font-weight="400" letter-spacing="normal" opacity=".995" style="line-height:normal;-inkscape-font-specification:&quot;Bitstream Vera Sans&quot;;text-indent:0;text-align:start;text-decoration-line:none;text-transform:none;marker:none" text-anchor="start" text-decoration="none" visibility="visible" word-spacing="normal" writing-mode="lr-tb"/><path fill="#faf6f5" fill-opacity="1" fill-rule="nonzero" d="M445.8 220.3c-4 0-8.1.2-12.1.4-3 .3-6.3.5-9.2 1l-.7.1c-1.8.4-2 2.7-1.1 4 1.9 2.6 13.4 4.6 27 4.6 13.5 0 25-2 26.9-4.6 1-1.3.7-3.6-1.1-4l-.8-.1a133.2 133.2 0 0 0-21.2-1.4h-3.9z"/><path fill="#0a1a1d" fill-opacity="1" fill-rule="nonzero" d="M452.3 222.8a30.8 33.1 0 0 1-2.8-.6 35.2 38 0 0 1-2.2-.7c.2.3.6.7 1.3 1-.6 0-1.4.2-1.7.3.3.1 1.1.4 1.7.4-.7.2-1 .6-1.1 1a26.7 28.7 0 0 1 2-.7 30.8 33.2 0 0 1 2.8-.7zm-10.5 0a26.7 28.7 0 0 1-2.8-.5 24.2 26 0 0 1-2.2-.6c.2.3.5.7 1.2 1-.6 0-1.3.2-1.6.3.3.2 1.1.4 1.7.3-.7.3-1 .7-1.1 1a24.3 24.3 0 0 1 4.8-1.4zm-10.5.6a29.9 32.2 0 0 1-2.8-.3 25.9 25.9 0 0 1-2.2-.5c.2.3.5.7 1.3.8-.6 0-1.4.4-1.6.6.3 0 1 .2 1.7.1-.7.4-1 .8-1 1.2a23.1 23.1 0 0 1 1.8-1 23.8 25.6 0 0 1 2.8-.9zm31.5-.4-2.8.6a19.9 21.4 0 0 0-2.2.6 2 2 0 0 1 1.3-1c-.6 0-1.4-.2-1.6-.3.3-.1 1-.3 1.7-.3-.7-.3-1-.7-1.2-1a25.2 25.2 0 0 0 4.8 1.4zm10.5 1c-1 0-2 .1-2.9.3a29.3 31.5 0 0 0-2.2.5 2 2 0 0 1 1.3-.9c-.6 0-1.3-.3-1.6-.5l1.7-.2c-.6-.3-.9-.7-1-1a31.7 34.2 0 0 0 1.9.8 31.9 34.3 0 0 0 2.8 1z"/><path fill="#d3d3d5" fill-opacity="1" fill-rule="nonzero" d="M449.6 225.3c-16.1 0-26 1-25.1 1.7a75.2 75.2 0 0 0 25.1 3.4c8.3 0 19.5-.8 25.1-3.4.9-.7-9-1.7-25-1.7z"/><path fill="none" stroke="#0a1a1d" stroke-dasharray="none" stroke-linecap="butt" stroke-linejoin="miter" stroke-miterlimit="4" stroke-opacity="1" stroke-width=".616" d="M1143.5 822.7c.3-.8-1-1-2.6-1.3a347.4 347.4 0 0 0-44.8-2.5h-17.3a347.3 347.3 0 0 0-44.8 2.5c-1.5.2-2.9.5-2.6 1.3" transform="matrix(.44777 0 0 .48232 -37.317 -169.71)"/><path fill="none" stroke="#0a1a1d" stroke-dasharray="none" stroke-linecap="butt" stroke-linejoin="miter" stroke-miterlimit="4" stroke-opacity="1" stroke-width=".616" d="M1078.8 808.6c-9 .1-18 .3-26.9.9-6.6.5-14.1 1-20.5 2l-1.6.3c-4 .7-4.7 5.6-2.5 8.2 4.3 5.4 30 9.6 60.2 9.6 30.2 0 55.8-4.2 60.2-9.6 2.1-2.6 1.5-7.5-2.5-8.2l-1.6-.3c-6.4-1-14-1.5-20.6-2-8.9-.6-17.9-.8-26.9-.9h-8.6z" transform="matrix(.44777 0 0 .48232 -37.317 -169.71)"/><g stroke-dasharray="none" stroke-miterlimit="4" stroke-width="1.176"><g stroke-width="2.417" display="inline"><path fill="#c40f38" fill-opacity="1" fill-rule="evenodd" d="m471.4 216.5 2-6.2.7-2.5 2-1.3 2-4.8 1-1.3v-4.5s-1.3-3.1-3.4-4.3c-3-1.6-7.2-1.4-7.2-1.4s-1-2.7-2.7-3.7-3.6-1.3-5.7-1.3c-2 0-5.6 2-7.6 2.5l-3.3 1.3s-2.3-1-3.4-1.3c-2-.6-5.6-2.5-7.6-2.5s-3.9.2-5.7 1.3c-1.7 1-4 3.7-4 3.7s-2.6-.4-4.5.8c-2.3 1.5-3.9 4.7-3.9 4.7l.2 4.9.3 1.8 1.5 1.9 2 3.7 1.4 3.7 1.4 4.8z"/><path fill="none" stroke="#0a1a1d" stroke-dasharray="none" stroke-linecap="butt" stroke-linejoin="miter" stroke-miterlimit="4" stroke-opacity="1" stroke-width="2.417" d="m1219.6 702.3 17.6-48.6 7-20.1 17.6-10.4 17.8-38.3 8.4-10 1.3-35.4s-12.3-25-31.3-34c-27.2-13-64.2-11.1-64.2-11.1s-8.5-21.4-24.2-29.8c-15.6-8.3-33-10.3-51.3-10.3-18.2 0-51 15.5-68.7 20-9.2 2.4-30 10.3-30 10.3s-20.8-8-30-10.3c-17.7-4.5-50.4-20-68.7-20-18.2 0-35 1.7-51.3 10.3-15 8-35.8 29.8-35.8 29.8s-23.7-3-40.3 6.4c-20.8 11.9-35.5 36.8-35.5 36.8l1.5 38.6 3.2 14.7 13.5 14.7 17.5 29.5 12.5 29.2 13.4 38z" display="inline" transform="matrix(.11116 0 0 .12634 335.833 127.758)"/></g><g stroke-width="1.176"><g display="inline"><g stroke-width="1.176" color="#0a1a1d" direction="ltr" font-family="Bitstream Vera Sans" font-size="medium" font-stretch="normal" font-style="normal" font-variant="normal" font-weight="400" letter-spacing="normal" text-anchor="start" transform="matrix(-.23459 0 0 .25269 557.991 119.83)" visibility="visible" word-spacing="normal" writing-mode="lr-tb"><use xlink:href="#e" fill-opacity="1" display="inline" style="line-height:normal;-inkscape-font-specification:&quot;Bitstream Vera Sans&quot;;text-indent:0;text-align:start;text-decoration-line:none;text-transform:none;marker:none" text-decoration="none"/><use xlink:href="#f" stroke-dasharray="none" stroke-miterlimit="4" stroke-opacity="1" display="inline" style="line-height:normal;-inkscape-font-specification:&quot;Bitstream Vera Sans&quot;;text-indent:0;text-align:start;text-decoration-line:none;text-transform:none;marker:none" text-decoration="none"/></g><use xlink:href="#g" fill-opacity="1" stroke-dasharray="none" stroke-dashoffset="0" stroke-linecap="butt" stroke-linejoin="miter" stroke-miterlimit="4" stroke-opacity="1" stroke-width="1.768" display="inline" style="marker:none" transform="matrix(-.15612 0 0 .16816 903.662 60.086)" visibility="visible"/><use xlink:href="#g" fill-opacity="1" stroke-dasharray="none" stroke-dashoffset="0" stroke-linecap="butt" stroke-linejoin="miter" stroke-miterlimit="4" stroke-opacity="1" stroke-width="1.768" display="inline" style="marker:none" transform="matrix(-.15612 0 0 .16816 904.45 55.85)" visibility="visible"/><use xlink:href="#g" fill-opacity="1" stroke-dasharray="none" stroke-dashoffset="0" stroke-linecap="butt" stroke-linejoin="miter" stroke-miterlimit="4" stroke-opacity="1" stroke-width="1.768" display="inline" style="marker:none" transform="matrix(-.15612 0 0 .16816 904.212 51.368)" visibility="visible"/><use xlink:href="#g" fill-opacity="1" stroke-dasharray="none" stroke-dashoffset="0" stroke-linecap="butt" stroke-linejoin="miter" stroke-miterlimit="4" stroke-opacity="1" stroke-width="1.768" display="inline" style="marker:none" transform="matrix(-.15612 0 0 .16816 902.612 47.116)" visibility="visible"/><use xlink:href="#g" fill-opacity="1" stroke-dasharray="none" stroke-dashoffset="0" stroke-linecap="butt" stroke-linejoin="miter" stroke-miterlimit="4" stroke-opacity="1" stroke-width="1.768" display="inline" style="marker:none" transform="matrix(-.15612 0 0 .16816 899.625 43.783)" visibility="visible"/><use xlink:href="#g" fill-opacity="1" stroke-dasharray="none" stroke-dashoffset="0" stroke-linecap="butt" stroke-linejoin="miter" stroke-miterlimit="4" stroke-opacity="1" stroke-width="1.768" display="inline" style="marker:none" transform="matrix(-.15612 0 0 .16816 895.89 41.6)" visibility="visible"/><use xlink:href="#g" fill-opacity="1" stroke-dasharray="none" stroke-dashoffset="0" stroke-linecap="butt" stroke-linejoin="miter" stroke-miterlimit="4" stroke-opacity="1" stroke-width="1.768" display="inline" style="marker:none" transform="matrix(-.15612 0 0 .16816 891.623 40.45)" visibility="visible"/><use xlink:href="#g" fill-opacity="1" stroke-dasharray="none" stroke-dashoffset="0" stroke-linecap="butt" stroke-linejoin="miter" stroke-miterlimit="4" stroke-opacity="1" stroke-width="1.768" display="inline" style="marker:none" transform="matrix(-.15612 0 0 .16816 887.25 40.68)" visibility="visible"/><use xlink:href="#g" fill-opacity="1" stroke-dasharray="none" stroke-dashoffset="0" stroke-linecap="butt" stroke-linejoin="miter" stroke-miterlimit="4" stroke-opacity="1" stroke-width="1.768" display="inline" style="marker:none" transform="matrix(-.15612 0 0 .16816 875.407 44.013)" visibility="visible"/><use xlink:href="#g" fill-opacity="1" stroke-dasharray="none" stroke-dashoffset="0" stroke-linecap="butt" stroke-linejoin="miter" stroke-miterlimit="4" stroke-opacity="1" stroke-width="1.768" display="inline" style="marker:none" transform="matrix(-.15612 0 0 .16816 883.089 41.945)" visibility="visible"/><use xlink:href="#g" fill-opacity="1" stroke-dasharray="none" stroke-dashoffset="0" stroke-linecap="butt" stroke-linejoin="miter" stroke-miterlimit="4" stroke-opacity="1" stroke-width="1.768" display="inline" style="marker:none" transform="matrix(-.15612 0 0 .16816 879.248 43.209)" visibility="visible"/></g><g stroke-width="1.176" color="#0a1a1d" direction="ltr" font-family="Bitstream Vera Sans" font-size="medium" font-stretch="normal" font-style="normal" font-variant="normal" font-weight="400" letter-spacing="normal" text-anchor="start" transform="matrix(.23459 0 0 .25269 341.256 119.83)" visibility="visible" word-spacing="normal" writing-mode="lr-tb"><use xlink:href="#e" fill-opacity="1" display="inline" style="line-height:normal;-inkscape-font-specification:&quot;Bitstream Vera Sans&quot;;text-indent:0;text-align:start;text-decoration-line:none;text-transform:none;marker:none" text-decoration="none"/><use xlink:href="#f" stroke-dasharray="none" stroke-miterlimit="4" stroke-opacity="1" display="inline" style="line-height:normal;-inkscape-font-specification:&quot;Bitstream Vera Sans&quot;;text-indent:0;text-align:start;text-decoration-line:none;text-transform:none;marker:none" text-decoration="none"/></g><use xlink:href="#g" fill-opacity="1" stroke-dasharray="none" stroke-dashoffset="0" stroke-linecap="butt" stroke-linejoin="miter" stroke-miterlimit="4" stroke-opacity="1" stroke-width="1.768" display="inline" style="marker:none" transform="matrix(.15612 0 0 .16816 -4.414 60.086)" visibility="visible"/><use xlink:href="#g" fill-opacity="1" stroke-dasharray="none" stroke-dashoffset="0" stroke-linecap="butt" stroke-linejoin="miter" stroke-miterlimit="4" stroke-opacity="1" stroke-width="1.768" display="inline" style="marker:none" transform="matrix(.15612 0 0 .16816 -5.203 55.85)" visibility="visible"/><use xlink:href="#g" fill-opacity="1" stroke-dasharray="none" stroke-dashoffset="0" stroke-linecap="butt" stroke-linejoin="miter" stroke-miterlimit="4" stroke-opacity="1" stroke-width="1.768" display="inline" style="marker:none" transform="matrix(.15612 0 0 .16816 -4.965 51.368)" visibility="visible"/><use xlink:href="#g" fill-opacity="1" stroke-dasharray="none" stroke-dashoffset="0" stroke-linecap="butt" stroke-linejoin="miter" stroke-miterlimit="4" stroke-opacity="1" stroke-width="1.768" display="inline" style="marker:none" transform="matrix(.15612 0 0 .16816 -3.364 47.116)" visibility="visible"/><use xlink:href="#g" fill-opacity="1" stroke-dasharray="none" stroke-dashoffset="0" stroke-linecap="butt" stroke-linejoin="miter" stroke-miterlimit="4" stroke-opacity="1" stroke-width="1.768" display="inline" style="marker:none" transform="matrix(.15612 0 0 .16816 -.377 43.783)" visibility="visible"/><use xlink:href="#g" fill-opacity="1" stroke-dasharray="none" stroke-dashoffset="0" stroke-linecap="butt" stroke-linejoin="miter" stroke-miterlimit="4" stroke-opacity="1" stroke-width="1.768" display="inline" style="marker:none" transform="matrix(.15612 0 0 .16816 3.357 41.6)" visibility="visible"/><use xlink:href="#g" fill-opacity="1" stroke-dasharray="none" stroke-dashoffset="0" stroke-linecap="butt" stroke-linejoin="miter" stroke-miterlimit="4" stroke-opacity="1" stroke-width="1.768" display="inline" style="marker:none" transform="matrix(.15612 0 0 .16816 7.624 40.45)" visibility="visible"/><use xlink:href="#g" fill-opacity="1" stroke-dasharray="none" stroke-dashoffset="0" stroke-linecap="butt" stroke-linejoin="miter" stroke-miterlimit="4" stroke-opacity="1" stroke-width="1.768" display="inline" style="marker:none" transform="matrix(.15612 0 0 .16816 11.998 40.68)" visibility="visible"/><use xlink:href="#g" fill-opacity="1" stroke-dasharray="none" stroke-dashoffset="0" stroke-linecap="butt" stroke-linejoin="miter" stroke-miterlimit="4" stroke-opacity="1" stroke-width="1.768" display="inline" style="marker:none" transform="matrix(.15612 0 0 .16816 23.84 44.013)" visibility="visible"/><use xlink:href="#g" fill-opacity="1" stroke-dasharray="none" stroke-dashoffset="0" stroke-linecap="butt" stroke-linejoin="miter" stroke-miterlimit="4" stroke-opacity="1" stroke-width="1.768" display="inline" style="marker:none" transform="matrix(.15612 0 0 .16816 16.159 41.945)" visibility="visible"/><use xlink:href="#g" fill-opacity="1" stroke-dasharray="none" stroke-dashoffset="0" stroke-linecap="butt" stroke-linejoin="miter" stroke-miterlimit="4" stroke-opacity="1" stroke-width="1.768" display="inline" style="marker:none" transform="matrix(.15612 0 0 .16816 20 43.209)" visibility="visible"/><g stroke-width=".972"><path fill="#fcd80e" fill-opacity="1" stroke="#0a1a1d" stroke-dasharray="none" stroke-miterlimit="4" stroke-opacity="1" stroke-width=".972" d="M186 37c1.5-2 3.4-3.4 5-5.4 1.5-2.1 2.7-4.8 3.4-7.5-2.8.7-5.5 1.9-7.6 3.5-2 1.5-3.5 3.4-5.5 5V7c2 1.6 3.5 3.5 5.5 5 2.1 1.6 4.8 2.8 7.6 3.5-.7-2.7-1.9-5.4-3.5-7.5-1.5-2-3.4-3.5-5-5.5h28.2c-1.6 2-3.4 3.5-5 5.5a20.4 20.4 0 0 0-3.4 7.5c2.8-.7 5.5-2 7.6-3.5 2-1.5 3.5-3.4 5.5-5v25.4c-2-1.5-3.5-3.4-5.5-5a21.4 21.4 0 0 0-7.6-3.4c.6 2.7 1.9 5.4 3.5 7.5 1.5 2 3.3 3.5 5 5.4z" display="inline" transform="matrix(.28385 0 0 .30575 392.844 156.536)"/><use xlink:href="#g" fill-opacity="1" stroke-dasharray="none" stroke-dashoffset="0" stroke-linecap="butt" stroke-linejoin="miter" stroke-miterlimit="4" stroke-opacity="1" stroke-width="1.461" display="inline" style="marker:none" transform="matrix(.1889 0 0 .20348 -58.467 2.86)" visibility="visible"/></g><g stroke-width="1.247"><g stroke-width=".675" display="inline" visibility="visible"><path fill="#fcd80e" fill-opacity="1" d="M2700.2 785a10.5 10.7 0 1 1-21 0 10.5 10.7 0 1 1 21 0z" display="inline" style="marker:none" transform="matrix(.42875 0 0 .45439 -703.591 -183.976)"/><path fill="none" stroke="#0a1a1d" stroke-dasharray="none" stroke-dashoffset="0" stroke-linecap="butt" stroke-linejoin="miter" stroke-miterlimit="4" stroke-opacity="1" stroke-width=".649" d="M2700.2 785a10.5 10.7 0 1 1-21 0 10.5 10.7 0 1 1 21 0z" display="inline" style="marker:none" transform="matrix(.42875 0 0 .45439 -703.591 -183.976)"/></g><g stroke-width="1.247"><path fill="#fcd80e" fill-opacity="1" d="M448.7 167.5v4h-3.8v2.2h9.5v-2.1h-3.8v-4z"/><path fill="none" stroke="#0a1a1d" stroke-dasharray="none" stroke-miterlimit="4" stroke-opacity="1" stroke-width="1.247" d="M195.8 28.4v17.1h-17v8.7h42.8v-8.7h-17.1v-17z" display="inline" transform="matrix(.22124 0 0 .23831 405.334 160.738)"/></g></g><g stroke-width="1.176"><g stroke-width="1.176"><g transform="matrix(.23459 0 0 .25269 403.883 167.747)" visibility="visible"><rect width="25.322" height="71.72" x="182.326" y="34.934" fill="#fcd80e" fill-opacity="1" fill-rule="evenodd" display="inline" ry="6.386" style="marker:none"/><rect width="25.322" height="71.72" x="182.326" y="34.934" fill="none" stroke="#0a1a1d" stroke-dasharray="none" stroke-dashoffset="0" stroke-linecap="butt" stroke-linejoin="miter" stroke-miterlimit="4" stroke-opacity="1" stroke-width="1.176" display="inline" ry="6.386" style="marker:none"/></g><g stroke-dasharray="none" stroke-miterlimit="4" stroke-width="1.154" display="inline" visibility="visible"><g transform="matrix(.26907 0 0 .22912 385.928 -39.096)"><rect width="7.041" height="79.256" x="221.335" y="941.218" fill="#fcd80e" fill-opacity="1" fill-rule="evenodd" display="inline" ry="3.8" style="marker:none"/><path fill="none" stroke="#0a1a1d" stroke-dasharray="none" stroke-dashoffset="0" stroke-linecap="butt" stroke-linejoin="miter" stroke-miterlimit="4" stroke-opacity="1" stroke-width="1.154" d="M224.9 941.2c1.9 0 3.5 1.7 3.5 3.8v71.7c0 2-1.6 3.8-3.5 3.8s-3.6-1.7-3.6-3.8V945c0-2 1.6-3.8 3.6-3.8z" display="inline" style="marker:none"/></g><g transform="matrix(.26907 0 0 .22912 387.161 -39.096)"><rect width="7.041" height="79.256" x="240.494" y="941.218" fill="#fcd80e" fill-opacity="1" fill-rule="evenodd" display="inline" ry="3.8" style="marker:none"/><rect width="7.041" height="79.256" x="240.494" y="941.218" fill="none" stroke="#0a1a1d" stroke-dasharray="none" stroke-dashoffset="0" stroke-linecap="butt" stroke-linejoin="miter" stroke-miterlimit="4" stroke-opacity="1" stroke-width="1.154" display="inline" ry="3.8" style="marker:none"/></g></g></g><g stroke-width=".884"><use xlink:href="#g" fill-opacity="1" stroke-dasharray="none" stroke-dashoffset="0" stroke-linecap="butt" stroke-linejoin="miter" stroke-miterlimit="4" stroke-opacity="1" stroke-width="1.768" display="inline" style="marker:none" transform="matrix(.15612 0 0 .16816 29.714 44.948)" visibility="visible"/><use xlink:href="#g" fill-opacity="1" stroke-dasharray="none" stroke-dashoffset="0" stroke-linecap="butt" stroke-linejoin="miter" stroke-miterlimit="4" stroke-opacity="1" stroke-width="1.768" display="inline" style="marker:none" transform="matrix(.15612 0 0 .16816 29.714 48.512)" visibility="visible"/><use xlink:href="#g" fill-opacity="1" stroke-dasharray="none" stroke-dashoffset="0" stroke-linecap="butt" stroke-linejoin="miter" stroke-miterlimit="4" stroke-opacity="1" stroke-width="1.768" display="inline" style="marker:none" transform="matrix(.15612 0 0 .16816 29.714 52.082)" visibility="visible"/><use xlink:href="#g" fill-opacity="1" stroke-dasharray="none" stroke-dashoffset="0" stroke-linecap="butt" stroke-linejoin="miter" stroke-miterlimit="4" stroke-opacity="1" stroke-width="1.768" display="inline" style="marker:none" transform="matrix(.15612 0 0 .16816 29.714 55.652)" visibility="visible"/><use xlink:href="#g" fill-opacity="1" stroke-dasharray="none" stroke-dashoffset="0" stroke-linecap="butt" stroke-linejoin="miter" stroke-miterlimit="4" stroke-opacity="1" stroke-width="1.768" display="inline" style="marker:none" transform="matrix(.15612 0 0 .16816 29.714 59.222)" visibility="visible"/></g></g><g stroke-width="1.176"><path fill="#fcd80e" fill-opacity="1" d="M479 202.6c-1.5 3.8-2.8 7.5-4 11.3H424c-1.2-3.7-2.4-7.7-3.9-11.3 0 0 3.2 4.7 5.5 5.9 1.4.6 3 .8 4.4.3 1.8-.7 4.1-4.2 4.1-4.2s2.2 2.7 3.6 3.4c1.4.7 3 .7 4.5.6 1.3 0 2.8 0 3.9-.9 1.7-1.2 3.3-5.4 3.3-5.4s1.6 3.3 2.9 4.5a7.4 7.4 0 0 0 8 1.7c1.7-.7 4.5-3.6 4.5-3.6s2 2.6 3.3 3.3c1.4.6 3 .8 4.4.4a9.5 9.5 0 0 0 3.9-2.6c1-1 2.5-3.4 2.5-3.4z" display="inline"/><path fill="none" stroke="#0a1a1d" stroke-linecap="butt" stroke-linejoin="miter" stroke-opacity="1" d="M-147.3 1087c-6.7 15-12 29.6-17.4 44.7h-216.6c-5-14.6-10.3-30.3-16.7-44.8 0 0 13.5 19 23.6 23.5a25.6 25.6 0 0 0 18.4 1.2c7.6-2.7 17.8-16.6 17.8-16.6s9.1 10.7 15.4 13.5a41.8 41.8 0 0 0 19 2.5c5.6-.3 12-.5 16.6-3.7 7-4.9 14.1-21.5 14.1-21.5s6.8 13 12.3 17.8a33.9 33.9 0 0 0 33.8 6.8c7.5-2.8 19.6-14.1 19.6-14.1s8.3 10.2 14.1 12.8a29.7 29.7 0 0 0 18.4 1.9 40.7 40.7 0 0 0 16.6-10.4c4.4-4 11-13.7 11-13.7z" display="inline" transform="matrix(.23459 0 0 .25269 513.583 -72.093)"/><path fill="#fcd80e" fill-opacity="1" d="M449.6 204.7s-1.1 2-1.8 2.6c-1 1-1.7 1.5-3 1.9-1.2.4-3 .7-4.3.6-1.3 0-2.6-.5-3.8-1.1-1-.5-2.6-2-2.6-2-.8 1-1.8 1.8-2.7 2.4a6 6 0 0 1-3.7.7c-2.5-.2-4.9-1.9-6.8-5.4a92.4 92.4 0 0 0-4.4-9.6c2-.8 4.4-1.2 7-1.4-1 3.3-2.2 6.5-1.8 9.1 2.3-1.8 3-4.2 3.7-6.7l2.6 9.9c-1.5-.3-.7-.7-4.8-1.5.8 1.6 2.7 3.7 4.8 4a4 4 0 0 0 3.3-1.2c.6-.6 1.2-1.4 1.2-2.3V203c0-.3-.4-.7-.7-.8-.3 0-.4.6-.4.9-.2.6.1 1.2 0 1.8-.2.7-.5 1.2-1 1.6-.5.3-1.6.4-1.6.4l.3-1.5c.3-1-.7-1.8-.9-2.8-.1-.7-.2-1.4 0-2a3 3 0 0 1 1.4-1.7c.2-.1.5-.2.7-.1l1 .2s-.1-1 0-1.6a10.4 10.4 0 0 1 2.5-5s1 1 1.6 2c.4.7.8 1.6 1 2.4v2l1.3-.6h.8c.6.3 1.2 1 1.4 1.6.3.6.3 1.4.2 2-.2 1-.7 1.9-.4 2.9l.4 1.4s-1 0-1.6-.3c-.5-.3-.9-.8-1.1-1.4-.2-.6 0-1.3-.4-1.8-.2-.3-.4-.5-.7-.5-.3 0-.5.6-.5.9v1.4l.3 1.2c.5.8 1.3 1.3 2.2 1.7 1 .4 1.8.6 2.8.6.8 0 2.3-.1 3-.4 1-.4 1.6-.9 2.4-1.6.4-.4.7-1 1-1.7v-1.8c-1 .4-1.8.9-2.6 1.5a17 17 0 0 0-2.3 2.4v-11.8c1 1.2 1.7 2.3 2.7 3.2.9.8 1.3 1 2.2 1.4-.3-1-.3-1.6-1-2.5-.9-1.4-1.7-2.8-2.8-4a33 33 0 0 1 11.8 0c-1 1.2-1.9 2.6-2.8 4-.6 1-.7 1.5-1 2.5 1-.3 1.4-.6 2.2-1.4l2.8-3.2v11.8a17 17 0 0 0-2.4-2.4 10.1 10.1 0 0 0-2.6-1.5s0 1.1.1 1.8c.2.6.5 1.3 1 1.7.7.7 1.3 1.2 2.3 1.6.8.3 2.2.4 3 .4 1 0 2-.2 2.9-.6.8-.4 1.6-.9 2.1-1.7.2-.4.4-.8.4-1.2V203c0-.3-.3-.9-.6-.9s-.5.2-.6.5c-.4.5-.3 1.2-.5 1.8-.2.6-.5 1.1-1.1 1.4-.5.3-1.6.3-1.6.3l.5-1.4c.3-1-.3-1.8-.4-2.9-.1-.6-.2-1.4.1-2 .3-.7.8-1.3 1.4-1.5.3-.1.6-.1.8 0l1.4.4v-2c.1-.7.5-1.6 1-2.3.5-1 1.5-2 1.6-2a11.3 11.3 0 0 1 2.5 5l-.1 1.6 1-.2h.8a3 3 0 0 1 1.3 1.7c.2.7.2 1.4 0 2-.2 1.1-1.1 1.9-.9 3l.4 1.4s-1.1-.1-1.6-.4c-.5-.4-.8-1-1-1.6-.2-.6.1-1.2 0-1.8 0-.3-.2-.9-.5-.9s-.6.5-.6.8v1.6c0 .9.5 1.7 1.2 2.3a4 4 0 0 0 3.3 1.1c2-.2 4-2.3 4.8-4-4.2.9-3.3 1.3-4.9 1.6l2.6-9.9c.8 2.5 1.5 5 3.7 6.7.4-2.6-.7-5.8-1.8-9 2.7 0 5 .5 7 1.3a92.4 92.4 0 0 0-4.3 9.6c-2 3.5-4.3 5.2-6.9 5.4a6 6 0 0 1-3.6-.7c-1-.6-2-1.4-2.8-2.5 0 0-1.6 1.6-2.6 2.1-1.1.6-2.4 1-3.7 1-1.4.2-3.1 0-4.4-.5-1.3-.4-2-1-3-1.9l-1.8-2.6z" display="inline"/><path fill="#fcd80e" fill-opacity="1" d="M427.7 209.8c-2.5-.2-4.9-1.9-6.8-5.4a92.4 92.4 0 0 0-4.4-9.6c2-.8 4.4-1.2 7-1.4-1 3.3-2.2 6.5-1.8 9.1 2.3-1.8 3-4.2 3.7-6.7l2.6 9.9c-1.5-.3-.7-.7-4.8-1.5.8 1.6 2.7 3.7 4.8 4zm43.6-1.7c2-.2 4-2.3 4.8-4-4.1.9-3.3 1.3-4.9 1.6l2.6-9.9c.8 2.5 1.5 5 3.7 6.7.4-2.6-.7-5.8-1.8-9 2.7 0 5 .5 7 1.3a92.4 92.4 0 0 0-4.3 9.6c-2 3.5-4.3 5.2-6.9 5.4z" display="inline"/><path fill="#fcd80e" fill-opacity="1" d="M440.5 209.8c-1.3 0-2.6-.5-3.8-1.1-1-.5-2.6-2-2.6-2-.8 1-1.8 1.8-2.7 2.4a6 6 0 0 1-3.7.7v.5l.3-2.2a4 4 0 0 0 3.3-1.1c.6-.6 1.2-1.4 1.2-2.3V203c0-.3-.4-.7-.7-.8-.3 0-.4.6-.4.9-.2.6.1 1.2 0 1.8-.2.7-.5 1.2-1 1.6-.5.3-1.6.4-1.6.4l.3-1.5c.3-1-.7-1.8-.9-2.8-.1-.7-.2-1.4 0-2a3 3 0 0 1 1.4-1.7c.2-.1.5-.2.7-.1l1 .2s-.1-1 0-1.6a10.4 10.4 0 0 1 2.5-5s1 1 1.6 2c.4.7.8 1.6 1 2.4v2l1.3-.6h.8c.6.3 1.2 1 1.4 1.6.3.6.3 1.4.2 2-.2 1-.7 1.9-.4 2.9l.4 1.4s-1 0-1.6-.3c-.5-.3-.9-.8-1.1-1.4-.2-.6 0-1.3-.4-1.8-.2-.3-.4-.5-.7-.5-.3 0-.5.6-.5.9v1.4l.3 1.2c.5.8 1.3 1.3 2.2 1.7 1 .4 1.8.6 2.8.6z" display="inline"/><path fill="#0a1a1d" fill-opacity="1" d="m-203.8 1095.1-.2-.2c-.1-2.5.7-7 .7-7a7.9 7.9 0 0 1 4.7-5.3c1.3-.5 2.8-.6 4.2 0 .8.4 1.4.7 2 1.3.5.6.9 1.3 1.2 2.4.6 1.5.3 3.2 0 4.5-.4 2.3-.3 4.3.3 5.9.5 1 1.4 1.9 2.6 2.6l-.5-2c-.2-1.3 0-2.6.5-3.8.9-2 2-3.6 2.9-5.4.7-1.7 1.1-3.6 1-5.4-.1-1.5-.6-3.1-1.4-4.2a6.7 6.7 0 0 0-3.8-2.4 12 12 0 0 0-5 .7l-2.8 1.2-1.5.7.2-1.6c.9-5.4 1.7-8.1 0-13.1-.6-2-1.7-4.4-3.6-7l-3.1-4.2c-3 3.4-5.2 7-6.4 10.4-1.3 4-1.3 9-1 13.2l.1 1.6-1.4-.8s-1.6-1-3.5-2c-2-.8-4.3-1.7-5.3-1.6-1.9.2-3.1 1-4.4 2.6-1 1.4-1.2 2.5-1.4 4.4-.2 1.1.1 3.3.3 4.7.2 1.7 1.2 3.4 1.5 5.5 0 .7.3 1.2.5 2 .1.6.2 1.4 0 2.3l-.5 1.9 1-.6c1-.6 1.3-1.8 2-3.2l.4-2.3c0-.8 0-1.8.5-2.9.7-1.8 1.5-4 3.4-5.3 1.5-1 3.5-1.4 5.3-.8 1 .3 1.8 1 2.3 1.7.6.7 1 1.6 1.3 2.4.5 1 .8 2.6 1 4a44.8 44.8 0 0 1 .4 2.5v.2l-1.3 4.3-1.7-.3 1.3-4.1a60.2 60.2 0 0 0-.4-2.4c-.2-1.3-.5-2.9-.8-3.5l-1.1-2.1c-.4-.5-.8-.9-1.5-1.1a4.7 4.7 0 0 0-3.9.6c-1.3 1-2 2.8-2.8 4.6-.3.7-.3 1.4-.3 2.3 0 .8-.1 1.8-.6 2.8-.5 1.3-1 3-2.5 4-1 .8-3 1.6-3 1.6l-1.8.7.6-1.8 1-3.5c.2-.7.1-1.1 0-1.7l-.5-2c-.2-1.7-1.2-3.5-1.5-5.6-.1-1.3-.5-3.5-.3-5.1.2-2 .5-3.6 1.8-5.2 1.4-1.8 3.2-3 5.5-3.3 1.9-.1 4.2.9 6.2 1.9l2.4 1.2a34 34 0 0 1 1.1-12.3c1.4-4 3.8-8 7.4-12l.6-.6.6.7c1.7 1.8 2.8 3.8 3.9 5.2 2 2.8 3.1 5.2 3.9 7.4 1.5 4.8 1 8.1.2 12.5l1.8-.7c1.7-.5 3.9-1 5.7-.7 2 .3 3.7 1.5 4.8 3a9.2 9.2 0 0 1 1.8 5c.2 2.2-.3 4.4-1.2 6.3-.9 2-2 3.6-2.8 5.4-.4.9-.6 2-.5 2.9.2 1.4 1 3.6 1 3.6l.5 1.6-1.6-.5a8 8 0 0 1-5.1-4.5c-.9-2-.9-4.3-.4-6.8.3-1.3.4-2.6 0-3.7-.3-1-.5-1.4-.8-1.7l-1.6-1c-.7-.3-1.9-.2-2.8 0-1.6.6-3.4 2.7-3.6 4.2-.3 2.6-1 5.2-2.2 6.8zm48.7-3 .4-.9-.9-.3c-7-2.2-13.4-.5-19.5 2a134.5 134.5 0 0 0 5.7-20c6.6 11.8 12.2 15.7 17.5 18.1l1 .5.2-1c1.6-8.2 1.7-19-5-35.2a61 61 0 0 1 22.3 4.6l.7-1.6a64.6 64.6 0 0 0-24.2-4.8h-1.4l.6 1.2a57.3 57.3 0 0 1 5.4 34.2c-5-2.5-10.2-6.2-16.7-18.7l-1.2-2.2-.4 2.4c-1.5 8-3.7 15.8-6.7 23.7l-.7 2 1.8-1a27.9 27.9 0 0 1 19-2.8l.2.1zm-233 .2c6.6-1.7 12.8.1 19 2.9l1.8.9-.7-2a133 133 0 0 1-6.7-23.7l-.4-2.4-1.2 2.2c-6.5 12.5-11.7 16.2-16.8 18.7-1.3-8-1.3-18.3 5.5-34.2l.6-1.3-1.4.1c-8 .4-16 1.2-24.2 4.8l.7 1.6a60.9 60.9 0 0 1 22.3-4.6 58.6 58.6 0 0 0-5 35.1l.2 1 1-.4c5.3-2.4 11-6.3 17.6-18.2a134.6 134.6 0 0 0 5.6 20.1c-6-2.5-12.5-4.2-19.5-2l-1 .3.5.9h-.2l2.2.2zm54.8 3.8-1-3.6.4-2.3c.2-1.3.5-2.9.8-3.5l1.2-2.1c.3-.5.7-.9 1.4-1.1 1.2-.4 2.8-.1 3.8.6 1.3 1 2.2 2.8 2.9 4.6.3.7.3 1.4.4 2.3 0 .8 0 1.8.5 2.8.5 1.3 1 3 2.5 4 1 .8 3 1.6 3 1.6l1.8.7-.6-1.8-1-3.5c-.2-.7-.1-1.1 0-1.7l.5-2c.2-1.7 1.2-3.5 1.4-5.6.2-1.3.6-3.5.4-5.1a9.5 9.5 0 0 0-1.8-5.2 7.7 7.7 0 0 0-5.5-3.3c-1.9-.1-4.2.9-6.2 1.9l-2.4 1.2c.3-4 .2-8.5-1.1-12.3-1.4-4-3.8-8-7.4-12l-.6-.6-.6.7c-1.7 1.8-2.8 3.8-3.9 5.2a27 27 0 0 0-3.9 7.4c-1.5 4.8-1 8-.2 12.5l-1.8-.7c-1.7-.5-3.9-1-5.7-.7a8.2 8.2 0 0 0-4.8 3 9.2 9.2 0 0 0-1.8 5c-.2 2.2.3 4.4 1.2 6.3.9 2 2 3.6 2.8 5.4.4.9.6 2 .4 2.9-.2 1.4-.9 3.6-.9 3.6l-.5 1.6 1.6-.5a8 8 0 0 0 5.2-4.5c.8-2 .8-4.3.3-6.8a7.4 7.4 0 0 1 0-3.7c.3-1 .5-1.4.8-1.7l1.6-1c.7-.3 1.9-.2 2.8 0 1.6.6 3.2 2.7 3.6 4.2 0 0 .8 4.5.7 6.5l2 .4c-.2-2.8-1-7.2-1-7.2a7.8 7.8 0 0 0-4.7-5.4 5.4 5.4 0 0 0-4.2 0c-.8.4-1.4.7-2 1.3-.5.6-.9 1.3-1.3 2.4a8.8 8.8 0 0 0 0 4.5c.5 2.3.4 4.3-.2 5.9-.5 1-1.4 1.9-2.6 2.6l.5-2c.2-1.3 0-2.6-.5-3.8-.9-2-2-3.6-2.8-5.4-.8-1.7-1.2-3.6-1.1-5.4.1-1.5.5-3 1.4-4.2 1-1.1 2.4-2.1 3.8-2.4 1.2-.2 3.3.2 5 .7a28.8 28.8 0 0 1 2.9 1.2l1.4.7-.3-1.6c-.8-5.4-1.5-8.1 0-13.1.7-2 1.8-4.4 3.7-7l3.1-4.2c3 3.4 5.2 7 6.4 10.5 1.3 3.8 1.3 9 1 13l-.1 1.7 1.4-.8s1.6-1 3.5-2c2-.8 4.3-1.7 5.3-1.6 1.9.2 3.1 1 4.4 2.7 1 1.3 1.2 2.4 1.4 4.3.2 1.1-.2 3.3-.3 4.7-.3 1.7-1.2 3.4-1.5 5.5 0 .7-.3 1.2-.4 2-.2.6-.3 1.4-.1 2.3 0 .6.3 1 .5 1.9l-1-.6c-1-.6-1.3-1.8-2-3.2-.3-.8-.3-1.5-.4-2.3 0-.8 0-1.8-.5-2.9-.7-1.8-1.5-4-3.4-5.3a6.1 6.1 0 0 0-5.3-.8 4.6 4.6 0 0 0-2.3 1.7c-.6.7-1 1.6-1.3 2.4a17 17 0 0 0-1 4 76.8 76.8 0 0 0-.4 2.5v.3l1 3.7h.6l1.1-.4zm64.7-13.8v-1l1 .2c4.8 1.2 8.5 2.8 11.5 4.6 3.8 2.2 6.6 4.8 9.6 7.2l.5-28.2c-2.5 2.8-5 5.8-8.4 8.2-2.9 2-8.2 4.5-13.2 5.1l-1.2.1.2-1.1c.7-3.2.7-5.4 2.3-9.2 1.5-3.6 4.7-8.7 11-17.4-5.4-.6-10.2-1.3-17.4-1.3-7.1 0-11.9.7-17.4 1.3a99 99 0 0 1 11 17.4c1.7 3.8 1.7 6 2.4 9.2l.2 1.1h-1.2c-5-.7-10.3-3.2-13.2-5.2-3.5-2.4-5.9-5.4-8.4-8.1l.5 28.1c3-2.4 5.8-5 9.6-7.2 3-1.8 6.7-3.4 11.4-4.6l1-.3v1l-1.6 1.3c-4 1.1-7.3 2.5-9.9 4-4.2 2.5-7.2 5.4-10.8 8.3l-1.3 1v-1.7l-.6-32.2v-2l1.4 1.4c3.3 3.3 5.8 7 9.7 9.6 2.3 1.6 7 3.8 11.3 4.6-.5-2.6-.7-4.6-2-7.6a99 99 0 0 0-11.7-18.3l-.8-1.2 1.4-.1c6.1-.7 11.1-1.5 19-1.5 8 0 13 .8 19 1.5l1.5.1-.8 1.2a99.9 99.9 0 0 0-11.7 18.3c-1.3 3-1.5 5-2 7.6 4.3-.8 9-3 11.3-4.6 3.9-2.6 6.4-6.3 9.7-9.6l1.4-1.5v2.1l-.5 32.2v1.7l-1.4-1c-3.6-2.9-6.6-5.8-10.8-8.3a40 40 0 0 0-9.8-4z" color="#0a1a1d" direction="ltr" display="inline" font-family="Bitstream Vera Sans" font-size="medium" font-stretch="normal" font-style="normal" font-variant="normal" font-weight="400" letter-spacing="normal" style="line-height:normal;-inkscape-font-specification:&quot;Bitstream Vera Sans&quot;;text-indent:0;text-align:start;text-decoration-line:none;text-transform:none;marker:none" text-anchor="start" text-decoration="none" transform="matrix(.23459 0 0 .25269 513.583 -72.093)" visibility="visible" word-spacing="normal" writing-mode="lr-tb"/><path fill="none" stroke="#0a1a1d" stroke-dasharray="none" stroke-linecap="butt" stroke-linejoin="miter" stroke-miterlimit="4" stroke-opacity="1" stroke-width="1.176" d="M-272.6 1095.5s-5 7.6-8 10.2c-4.2 3.6-7 5.7-12.4 7.5-5.4 1.7-13 2.6-18.6 2.3a43 43 0 0 1-16.1-4.3c-4.3-2-11.1-8.1-11.1-8.1a37.1 37.1 0 0 1-11.6 9.6 27.3 27.3 0 0 1-15.6 2.8c-10.9-.6-21-7.4-29.1-21.1a353.6 353.6 0 0 0-19-38.4c8.8-3 19-4.7 30.2-5.2-4.5 12.9-9.3 25.5-7.6 35.9 9.5-7.1 12.5-16.8 15.8-26.4l11 38.8c-6.7-1.1-3.1-2.5-20.7-5.8 3.5 6.6 11.6 14.8 20.5 15.6 6 .5 10.3-1.3 14-4.6 2.8-2.4 5.3-5.5 5.3-9v-6c-.1-1.4-1.7-3.2-3-3.2-1.2 0-1.6 2-2 3.2-.6 2.3.8 5 0 7.4-.6 2.6-2 4.7-4.4 6.1-1.9 1.2-6.5 1.5-6.5 1.5l1.5-5.7c1-4-3-7.2-3.9-11.2-.6-2.7-.9-5.6 0-8.1 1-2.7 3.1-5.4 5.8-6.6 1-.4 2-.5 3.1-.4 1.5.1 4.5 1 4.5 1s-.9-4-.6-6.5a39.4 39.4 0 0 1 10.8-20c.4.4 4.5 4.2 7.2 8.4 1.6 2.6 3.3 6.3 3.7 9.2.4 2.5.3 7.7.3 7.7s4.3-1.8 5.8-2c1-.2 2.2-.2 3.2.2 2.8 1 5 3.5 6.2 6.1 1.1 2.5 1 5.4.6 8-.7 4.2-3.1 7.4-1.8 11.3l1.9 5.7s-4.7 0-6.7-1c-2.4-1.4-4-3.3-4.8-5.9-.9-2.3-.4-5.2-1.8-7.2-.7-.9-1.6-1.9-2.8-1.8-1.3.2-2.2 2.3-2.2 3.6l-.3 5.4c0 1.7.7 3.4 1.6 4.8 2.2 3.3 5.5 5.3 9.2 6.8a31 31 0 0 0 11.9 2.3c3.6 0 9.8-.5 13.2-1.7a25 25 0 0 0 10-6.2 16 16 0 0 0 3.8-6.6c1-2.7.6-7.4.6-7.4a44 44 0 0 0-11 6.2 70 70 0 0 0-10 9.6l-.4-47c4.4 4.8 7.6 9.1 12 12.8a24 24 0 0 0 9.1 5.4c-1-3.8-1.4-6.1-4-9.9-3.8-5.2-7.5-10.8-12-16 8.3-1.5 16.7-1.8 25.2-1.8s16.8.3 25.1 1.7c-4.5 5.3-8.2 10.9-12 16.1-2.6 3.8-3 6-4 9.9a24 24 0 0 0 9.2-5.4c4.4-3.7 7.5-8 11.9-12.8l-.3 47c-3-3.5-6.3-6.8-10-9.6a44 44 0 0 0-11.1-6.2s-.3 4.7.6 7.4a16 16 0 0 0 3.8 6.6 25 25 0 0 0 10 6.2c3.4 1.2 9.6 1.8 13.2 1.7 4.3 0 8-.7 12-2.3a19 19 0 0 0 9-6.8 8.5 8.5 0 0 0 1.7-4.8l-.2-5.4c-.1-1.3-1-3.4-2.3-3.6-1.2 0-2.1 1-2.8 1.8-1.4 2-1 4.9-1.8 7.2-.9 2.6-2.4 4.5-4.8 5.8-2 1.1-6.7 1-6.7 1l1.9-5.6c1.3-4-1-7.1-1.8-11.2-.4-2.7-.5-5.6.6-8 1.2-2.7 3.5-5.2 6.2-6.2 1-.4 2.1-.4 3.2-.2 1.5.2 5.8 2 5.8 2s-.1-5.2.3-7.7a27 27 0 0 1 3.7-9.2c2.7-4.2 6.8-8 7.2-8.5.4.5 4.2 4.4 6.6 8.9 1.4 2.6 4 8.2 4.3 11.2.2 2.5-.7 6.6-.7 6.6s3-1 4.5-1.1c1 0 2.2 0 3.1.4 2.7 1.2 4.8 3.9 5.8 6.6 1 2.5.6 5.4 0 8-1 4.1-4.9 7.2-3.8 11.3l1.4 5.7s-4.6-.3-6.5-1.5a10.1 10.1 0 0 1-4.5-6.1c-.6-2.4.7-5 0-7.4-.3-1.2-.7-3.2-1.9-3.2-1.3 0-2.9 1.8-2.9 3.1v6c0 3.6 2.4 6.7 5.1 9.1 3.8 3.3 8.2 5.1 14.1 4.6 9-.8 17-9 20.5-15.6-17.6 3.3-14 4.7-20.7 5.8l11-38.8c3.3 9.6 6.3 19.3 15.8 26.4 1.7-10.4-3-23-7.6-36 11.2.6 21.4 2.2 30.1 5.3a353.9 353.9 0 0 0-18.9 38.4c-8 13.7-18.2 20.5-29.1 21.1-5.3.3-10.4 0-15.6-2.8-4-2.3-8.2-5.3-11.6-9.6 0 0-6.8 6-11 8.1a43 43 0 0 1-16.1 4.3c-5.7.3-13.2-.6-18.7-2.3a31.6 31.6 0 0 1-12.4-7.5c-3-2.6-8-10.2-8-10.2z" display="inline" transform="matrix(.23459 0 0 .25269 513.583 -72.093)"/></g><g stroke-width=".804"><use xlink:href="#g" fill-opacity="1" stroke-dasharray="none" stroke-dashoffset="0" stroke-linecap="butt" stroke-linejoin="miter" stroke-miterlimit="4" stroke-opacity="1" stroke-width="1.607" display="inline" style="marker:none" transform="matrix(.17173 0 0 .18498 -12.277 55.517)" visibility="visible"/><use xlink:href="#g" fill-opacity="1" stroke-dasharray="none" stroke-dashoffset="0" stroke-linecap="butt" stroke-linejoin="miter" stroke-miterlimit="4" stroke-opacity="1" stroke-width="1.607" display="inline" style="marker:none" transform="matrix(.17173 0 0 .18498 -40.775 58.23)" visibility="visible"/><use xlink:href="#g" fill-opacity="1" stroke-dasharray="none" stroke-dashoffset="0" stroke-linecap="butt" stroke-linejoin="miter" stroke-miterlimit="4" stroke-opacity="1" stroke-width="1.607" display="inline" style="marker:none" transform="matrix(-.17173 0 0 .18498 940.023 58.23)" visibility="visible"/></g><g stroke-width="1.176"><path fill="#fcd80e" fill-opacity="1" d="m432.3 203.7 4-.3.5 1-.5 1-4 .2-.6-1z"/><path fill="none" stroke="#0a1a1d" stroke-dasharray="none" stroke-miterlimit="4" stroke-opacity="1" stroke-width="1.176" d="M-346.5 1090.7h17l2.1 3.8-2.2 3.8h-16.9l-2.7-3.8z" display="inline" transform="matrix(.23424 -.0137 .01271 .25232 499.568 -76.302)"/><g fill="#fcd80e" fill-opacity="1" display="inline"><path d="m467 203.7-4-.3-.6 1 .5 1 4 .2.7-1z"/><path stroke="#0a1a1d" stroke-dasharray="none" stroke-miterlimit="4" stroke-opacity="1" stroke-width="1.176" d="M-346.5 1090.7h17l2.1 3.8-2.2 3.8h-16.9l-2.7-3.8z" display="inline" transform="matrix(-.23424 -.0137 -.01271 .25232 399.68 -76.302)"/></g></g><g display="inline"><g stroke-width="1.176" display="inline"><path fill="#fcd80e" fill-opacity="1" fill-rule="evenodd" d="m424.6 220.2 7.8-.5c5-.3 10.4-.5 13-.5h8.4c2.6 0 8 .2 13 .5l7.8.5 1.7-8.3s-17.7-1.7-26.7-1.7c-8.9 0-26.7 1.7-26.7 1.7z"/><path fill="none" stroke="#0a1a1d" stroke-dasharray="none" stroke-linecap="butt" stroke-linejoin="miter" stroke-miterlimit="4" stroke-opacity="1" stroke-width="1.176" d="M496.5 341.7a1029 1029 0 0 1 113.9 6.3l-7 33.3c-37.6-3.4-68.4-4.3-106.5-4.6m.5-35a1029 1029 0 0 0-113.8 6.3l6.9 33.3c37.6-3.4 68.4-4.3 106.5-4.6" display="inline" transform="matrix(.23459 0 0 .25269 333.042 123.911)"/></g><g stroke-width="1.33" color="#0a1a1d" direction="ltr" display="inline" font-family="Bitstream Vera Sans" font-size="medium" font-stretch="normal" font-style="normal" font-variant="normal" font-weight="400" letter-spacing="normal" text-anchor="start" transform="matrix(.23718 0 0 .19554 585.173 100.616)" visibility="visible" word-spacing="normal" writing-mode="lr-tb"><use xlink:href="#h" fill-opacity="1" display="inline" style="line-height:normal;-inkscape-font-specification:&quot;Bitstream Vera Sans&quot;;text-indent:0;text-align:start;text-decoration-line:none;text-transform:none;marker:none" text-decoration="none"/><path fill="none" stroke="#0a1a1d" stroke-dasharray="none" stroke-miterlimit="4" stroke-opacity="1" d="M-644.3 561.8c-13.5 1.3-29 2.6-42.4 5-2 3-2.1 5.7 1.4 8 13-2.4 28.2-3.8 41.6-5 18.1-1.4 36.4-2.3 54.7-2.5h35c11 0 34 .8 54.7 2.5 20.6 1.6 41.7 5 41.7 5 3.6-2.5 3.2-5.2 1.2-8 0 0-21.2-3.4-42.3-5-21-1.7-44-2.5-55.3-2.5h-35c-18.5 0-37 1.2-55.3 2.5z" display="inline" style="line-height:normal;-inkscape-font-specification:&quot;Bitstream Vera Sans&quot;;text-indent:0;text-align:start;text-decoration-line:none;text-transform:none;marker:none" text-decoration="none"/></g><g stroke-width="1.379" color="#0a1a1d" direction="ltr" display="inline" font-family="Bitstream Vera Sans" font-size="medium" font-stretch="normal" font-style="normal" font-variant="normal" font-weight="400" letter-spacing="normal" text-anchor="start" transform="matrix(.22054 0 0 .19554 575.66 109.305)" visibility="visible" word-spacing="normal" writing-mode="lr-tb"><use xlink:href="#h" fill-opacity="1" display="inline" style="line-height:normal;-inkscape-font-specification:&quot;Bitstream Vera Sans&quot;;text-indent:0;text-align:start;text-decoration-line:none;text-transform:none;marker:none" text-decoration="none"/><path fill="none" stroke="#0a1a1d" stroke-dasharray="none" stroke-miterlimit="4" stroke-opacity="1" d="M-644.3 561.8c-13.5 1.3-29 2.6-42.4 5-2 3-2.1 5.7 1.4 8 13-2.4 28.2-3.8 41.6-5 18.1-1.4 36.4-1.8 54.7-2h35a622.7 622.7 0 0 1 96.4 7c3.6-2.5 3.2-5.2 1.2-8 0 0-21.2-3.4-42.3-5-21-1.7-44-2-55.3-2h-35c-18.5 0-37 .7-55.3 2z" display="inline" style="line-height:normal;-inkscape-font-specification:&quot;Bitstream Vera Sans&quot;;text-indent:0;text-align:start;text-decoration-line:none;text-transform:none;marker:none" text-decoration="none"/></g><g stroke-width="1.176"><g stroke-width="2.66"><rect width="89.493" height="59.169" x="2840.095" y="823.565" fill="none" stroke="#0a1a1d" stroke-dasharray="none" stroke-dashoffset="0" stroke-linecap="butt" stroke-linejoin="miter" stroke-miterlimit="4" stroke-opacity="1" stroke-width="2.66" display="inline" ry="3.006" style="marker:none" transform="matrix(.1186 0 0 .09777 107.505 131.637)" visibility="visible"/><g stroke-dashoffset="0" stroke-linecap="butt" stroke-linejoin="miter" stroke-opacity="1" transform="matrix(.1186 0 0 .09777 107.505 131.637)" visibility="visible"><rect width="70.263" height="43.637" x="2849.709" y="831.331" fill="#012778" fill-opacity="1" fill-rule="evenodd" stroke="#b5915f" display="inline" ry="5.177" style="marker:none"/><path fill="#2d86cf" fill-opacity="1" fill-rule="evenodd" stroke="#b5915f" d="M2918.5 873.5a5.2 5.2 0 0 1-3.7 1.5h-60a5.2 5.2 0 0 1-3.6-1.5 5.2 5.2 0 0 1-1.5-3.7v-33.3c0-1.4.6-2.7 1.5-3.7 1-.9 68.2 39.7 67.3 40.7z" display="inline" style="marker:none"/><path fill="#012778" fill-opacity="1" fill-rule="evenodd" stroke="#0a1a1d" d="M2918.5 873.5a5.2 5.2 0 0 1-3.7 1.5h-60a5.2 5.2 0 0 1-3.6-1.5 5.2 5.2 0 0 1-1.5-3.7v-33.3c0-1.4.6-2.7 1.5-3.7.5-.4 18 9.8 35.1 20.1 16.6 10 32.6 20 32.2 20.6z" display="inline" style="marker:none"/><path fill="#012778" fill-opacity="1" fill-rule="evenodd" stroke="#0a1a1d" d="M2918.5 832.8a5.2 5.2 0 0 1 1.5 3.7v33.3a5.2 5.2 0 0 1-1.5 3.7 5.2 5.2 0 0 1-3.7 1.5h-60a5.2 5.2 0 0 1-3.6-1.5c-1-1 66.3-41.6 67.3-40.7z" display="inline" style="marker:none"/><path fill="#012778" fill-opacity="1" fill-rule="evenodd" stroke="#0a1a1d" d="M2918.5 873.5a5.2 5.2 0 0 1-3.7 1.5h-60a5.2 5.2 0 0 1-3.6-1.5A398 398 0 0 1 2885 852s34.5 20.5 33.6 21.5z" display="inline" style="marker:none"/><rect width="70.263" height="43.637" x="2849.709" y="831.331" fill="none" stroke="#0a1a1d" display="inline" ry="5.177" style="marker:none"/><rect width="39.367" height="22.304" x="2865.157" y="841.292" fill="#012778" fill-opacity="1" fill-rule="evenodd" stroke="#0a1a1d" display="inline" ry="0" style="marker:none"/></g></g><g stroke-width="1.176"><g stroke-width="1.428" display="inline" transform="matrix(.20308 -.0215 .0319 .19463 320.524 157.952)" visibility="visible"><rect width="35.829" height="22.674" x="494.629" y="340.211" fill="#fcd80e" fill-opacity="1" fill-rule="evenodd" stroke="#0a1a1d" stroke-dasharray="none" stroke-dashoffset="0" stroke-linecap="butt" stroke-linejoin="miter" stroke-miterlimit="4" stroke-opacity="1" stroke-width="1.428" display="inline" ry="10.771" style="marker:none"/><rect width="29.954" height="16.542" x="497.566" y="343.276" fill="#036a4a" fill-opacity="1" fill-rule="evenodd" display="inline" ry="8.271" style="marker:none"/><rect width="29.954" height="16.542" x="497.566" y="343.276" fill="none" stroke="#0a1a1d" stroke-dasharray="none" stroke-dashoffset="0" stroke-linecap="butt" stroke-linejoin="miter" stroke-miterlimit="4" stroke-opacity="1" stroke-width="1.428" display="inline" ry="8.271" style="marker:none"/></g><g stroke-width="1.361" display="inline"><use xlink:href="#i" fill-opacity="1" stroke-dasharray="none" stroke-linecap="butt" stroke-linejoin="miter" stroke-miterlimit="4" stroke-opacity="1" stroke-width="1.361" display="inline" transform="matrix(-.19192 .03609 .03628 .22389 532.88 127.035)"/><use xlink:href="#j" fill-opacity="1" display="inline" transform="matrix(-.19192 .03609 .03628 .22389 532.88 127.035)"/><use xlink:href="#k" fill-opacity="1" display="inline" transform="matrix(-.19192 .03609 .03628 .22389 532.88 127.035)"/><use xlink:href="#l" stroke-dasharray="none" stroke-linecap="butt" stroke-linejoin="miter" stroke-miterlimit="4" stroke-opacity="1" stroke-width="1.361" transform="matrix(-.19192 .03609 .03628 .22389 504.564 143.337)"/><use xlink:href="#m" stroke-dasharray="none" stroke-linecap="butt" stroke-linejoin="miter" stroke-miterlimit="4" stroke-opacity="1" stroke-width="1.361" display="inline" transform="matrix(-.19192 .03609 .03628 .22389 532.88 127.035)"/></g><g stroke-width="1.452"><use xlink:href="#g" fill-opacity="1" stroke-dasharray="none" stroke-dashoffset="0" stroke-linecap="butt" stroke-linejoin="miter" stroke-miterlimit="4" stroke-opacity="1" stroke-width="3.228" display="inline" style="marker:none" transform="matrix(.0855 0 0 .0921 211.768 141.247)" visibility="visible"/><use xlink:href="#g" stroke-dasharray="none" stroke-dashoffset="0" stroke-linecap="butt" stroke-linejoin="miter" stroke-miterlimit="4" stroke-opacity="1" stroke-width="3.226" display="inline" style="marker:none" transform="matrix(.0855 0 0 .0921 211.952 144.327)" visibility="visible"/><g display="inline"><use xlink:href="#g" fill-opacity="1" stroke-dasharray="none" stroke-dashoffset="0" stroke-linecap="butt" stroke-linejoin="miter" stroke-miterlimit="4" stroke-opacity="1" stroke-width="3.228" display="inline" style="marker:none" transform="matrix(.0855 0 0 .0921 199.702 141.958)" visibility="visible"/><use xlink:href="#g" fill-opacity="1" stroke-dasharray="none" stroke-dashoffset="0" stroke-linecap="butt" stroke-linejoin="miter" stroke-miterlimit="4" stroke-opacity="1" stroke-width="3.228" display="inline" style="marker:none" transform="matrix(.0855 0 0 .0921 199.886 145.038)" visibility="visible"/></g></g><g display="inline"><g stroke-width="1.428" display="inline" transform="matrix(-.20308 -.0215 -.0319 .19463 578.723 157.952)" visibility="visible"><rect width="35.829" height="22.674" x="494.629" y="340.211" fill="#fcd80e" fill-opacity="1" fill-rule="evenodd" stroke="#0a1a1d" stroke-dasharray="none" stroke-dashoffset="0" stroke-linecap="butt" stroke-linejoin="miter" stroke-miterlimit="4" stroke-opacity="1" stroke-width="1.428" display="inline" ry="10.771" style="marker:none"/><rect width="29.954" height="16.542" x="497.566" y="343.276" fill="#036a4a" fill-opacity="1" fill-rule="evenodd" display="inline" ry="8.271" style="marker:none"/><rect width="29.954" height="16.542" x="497.566" y="343.276" fill="none" stroke="#0a1a1d" stroke-dasharray="none" stroke-dashoffset="0" stroke-linecap="butt" stroke-linejoin="miter" stroke-miterlimit="4" stroke-opacity="1" stroke-width="1.428" display="inline" ry="8.271" style="marker:none"/></g><g stroke-width="1.361" display="inline"><use xlink:href="#i" fill-opacity="1" stroke-dasharray="none" stroke-linecap="butt" stroke-linejoin="miter" stroke-miterlimit="4" stroke-opacity="1" stroke-width="1.361" display="inline" transform="matrix(.19192 .03609 -.03628 .22389 366.368 127.035)"/><use xlink:href="#j" fill-opacity="1" display="inline" transform="matrix(.19192 .03609 -.03628 .22389 366.368 127.035)"/><use xlink:href="#k" fill-opacity="1" display="inline" transform="matrix(.19192 .03609 -.03628 .22389 366.368 127.035)"/><use xlink:href="#l" stroke-dasharray="none" stroke-linecap="butt" stroke-linejoin="miter" stroke-miterlimit="4" stroke-opacity="1" stroke-width="1.361" transform="matrix(.19192 .03609 -.03628 .22389 394.683 143.337)"/><use xlink:href="#m" stroke-dasharray="none" stroke-linecap="butt" stroke-linejoin="miter" stroke-miterlimit="4" stroke-opacity="1" stroke-width="1.361" display="inline" transform="matrix(.19192 .03609 -.03628 .22389 366.368 127.035)"/></g><g stroke-width="1.452"><use xlink:href="#g" fill-opacity="1" stroke-dasharray="none" stroke-dashoffset="0" stroke-linecap="butt" stroke-linejoin="miter" stroke-miterlimit="4" stroke-opacity="1" stroke-width="3.228" display="inline" style="marker:none" transform="matrix(-.0855 0 0 .0921 687.48 141.247)" visibility="visible"/><use xlink:href="#g" fill-opacity="1" stroke-dasharray="none" stroke-dashoffset="0" stroke-linecap="butt" stroke-linejoin="miter" stroke-miterlimit="4" stroke-opacity="1" stroke-width="3.228" display="inline" style="marker:none" transform="matrix(-.0855 0 0 .0921 687.296 144.327)" visibility="visible"/><g display="inline"><use xlink:href="#g" fill-opacity="1" stroke-dasharray="none" stroke-dashoffset="0" stroke-linecap="butt" stroke-linejoin="miter" stroke-miterlimit="4" stroke-opacity="1" stroke-width="3.228" display="inline" style="marker:none" transform="matrix(-.0855 0 0 .0921 699.545 141.958)" visibility="visible"/><use xlink:href="#g" fill-opacity="1" stroke-dasharray="none" stroke-dashoffset="0" stroke-linecap="butt" stroke-linejoin="miter" stroke-miterlimit="4" stroke-opacity="1" stroke-width="3.228" display="inline" style="marker:none" transform="matrix(-.0855 0 0 .0921 699.362 145.038)" visibility="visible"/></g></g></g></g></g></g></g></g></svg>