<svg xmlns="http://www.w3.org/2000/svg" xmlns:xlink="http://www.w3.org/1999/xlink" width="1200" height="720" fill="#e30631"><path fill="#24a34e" d="M0 0h1200v364H0Z"/><path d="M0 364h1200v356H0Z"/><g id="c" fill="#faf6f5"><path d="M0 238h1200v244H0Z"/><g id="b"><path id="a" d="M25 228h-5v-16h27v11h15v-6h-9v-5h14v16H42v-11H25Zm95 0H93v-11H78v6h8v5H73v-16h20v-11h5v22h6v-22h5v22h6v-22h5Zm-84 0h-5v-5h5Zm51-22H20v-5h67Zm33 38H73v-11h47Zm-53 0H20v-11h47Z"/><use xlink:href="#a" width="100%" height="100%" x="106"/><use xlink:href="#a" width="100%" height="100%" x="212"/><use xlink:href="#a" width="100%" height="100%" x="318"/><use xlink:href="#a" width="100%" height="100%" x="424"/></g><use xlink:href="#b" width="100%" height="100%" x="530"/><use xlink:href="#a" width="100%" height="100%" x="1060"/></g><use xlink:href="#c" transform="matrix(1 0 0 -1 0 720)"/><path id="d" d="M564 295c-30 7-50 35-50 64 0 23 12 45 33 57-12-15-17-34-17-52 0-26 11-52 34-69Zm14-20c-3 7 2 18 11 18 4 0 8-2 11-6v-8c-3 4-6 6-10 6-5 0-11-4-12-10Zm22 170V291c-3 4-6 7-10 9v50l2 65a86.2 86.2 0 0 1-20-118 77.2 77.2 0 0 0 15 129c-10 4-21 6-34 5 13 5 26 5 40 2v3Z"/><use xlink:href="#d" transform="matrix(-1 0 0 1 1200 0)"/></svg>