<svg xmlns="http://www.w3.org/2000/svg" width="1200" height="720"><path fill="#faf6f5" d="M0 0h1200v720H0z"/><path fill="#c40f38" d="M1200 0h-78L600 313 78 0H0v47l522 313L0 673v47h78l522-313 522 313h78v-47L678 360l522-313V0ZM600 289c74-35 84-115 68-191l-68-15-68 15c-16 76-6 156 68 191Z"/><path fill="#ffb81c" d="m581 112 1-2 2-1c0 2-1 3-3 3Zm-6-1c2-1 5-1 5 0s-3 2-5 0Zm25 38c1-3 1-4 3-4v3c2-1 4-2 4-5 1 1 1 2 1 3 2-1 3-2 3-5 1 1 1 2 1 3 2-1 3-2 3-5 3 1 5 0 6-3-2 0-4-1-5-3l3-1c-5-4-10-5-15-4 4 2 1 2 1 4s3 1 3 2c0 2-8 2-11 6-4 0-4-3-7-3 3 1 2 5 0 5 4 0 5 2 4 5 3-2 5 0 6 2Zm-29-39c-3 1-5-1-4-2s3 1 4 2Zm-6-2c-1-2-1-3 0-4l1 2-1 2Zm10 14c-2 7-13 5-9-3q1-2 1-5c-2 0-2-2-2-3l1-1c0 1 0 3 2 3 0 4 3 4 4 2l-2-2 5 1-3 1c0 3 3 3 4 0 2 0 3-1 3-2l1 1c-1 1-2 2-3 2-2 3-1 3-2 6Zm-20 13 5-3c-2-2-4-8-2-12-7-2-10-6-9-13-2 1-4 0-5-3-1 2-3 4-6 4 1 2 1 4 0 6l4 2-4 1c1 2 4 2 7 3l-4 1c1 2 4 2 7 3l-4 1c1 2 4 2 7 3l-4 1c1 2 4 2 7 3l1 3Zm85-14c-11-1-15-4-25-4s-19 4-28 4c-1 2-3 3-5 2 1 6-4 10-10 12v-1h-3l5-4-1 3c7-3 9-9 7-13 1 1 3 2 5 1-2-1-3-5-3-7 5-3 3-9 0-6 0-2-1-4-3-5l-1 3-2-4-4 2 1-3c-2 0-5 2-6 3-1-4-7 0-3 5-1 2-3 4-6 4 0 2 2 3 4 3-3 2-5 8-1 14l2-3c-1 3 0 8 4 9l-1 2c-2-1-4-3-4-5l-10 5c-4 2-7 2-9-1-1 3-4 3-6 2 2 2 2 4 1 6 3 0 4 2 4 4 2-1 2-3 4-3 1 0 3 1 1 4 3-1 5-2 6-5 1 1 1 2 0 4 2-1 4-2 5-5 1 1 1 2 0 4 2-1 4-2 5-5 1 1 1 2 0 4 2-1 4-2 5-5 3 0 5-2 5-5 21 0 24-11 36-11 9 0 16 12 26 12 5 0 8-2 11-4l7 7c2 2 0 4-2 4 2 0 3 3 1 5 2-2 5-2 6 1 1-3 3-3 6-3-1-2-2-3-2-6 0-1 2-2 4-2-1-2-4-3-6-2 0-1 2-2 4-2-1-2-4-3-6-2 0-1 2-2 4-2-1-2-4-3-6-2 0-4-4-5-6-2-6-3-8 0-12 0s-4-4-8-5c5 1 10 1 13 1 11 0 20-5 20-11 0-4-5-7-13-7-13 0-28 7-45 7-7 0-11-1-11-4 0-2 2-3 5-3 4 0 7 3 11 3s4-2 7-2c1 0 3 1 3 3 2-1 3-3 1-5 8 4 21 2 21-7-3 3-5 4-9 5 2-3 1-5-2-5 1 2-1 4-5 4-8 0-10-2-19-2-10 0-17 3-17 9 0 5 7 7 14 7 9 0 21-2 34-6 0 3 2 6 5 7v-5c1 2 3 4 5 4v-5c1 2 3 4 5 4l-1-6c3 0 7 1 7 4 0 5-7 8-16 8h-3m-55 46 1-2 2-1c0 2-1 3-3 3Zm-6-2c2-1 5-1 5 0s-3 2-5 0Zm21 36c1-3 1-4 3-4v3c2-1 3-2 3-5 1 1 1 2 1 3 2-1 3-2 3-4 1 0 1 1 1 2 2-1 3-2 3-4 2 1 4 0 5-3-2 0-4-1-4-3h2c-4-4-9-5-13-4 3 2 1 3 1 4 0 2 2 1 2 2 0 2-7 1-10 5-3 0-3-3-6-4 2 1 2 5 0 5 3 0 5 2 4 5 2-1 4-1 5 2Zm-24-37c-3 1-5-1-4-2s3 1 4 2Zm-7-1c-1-2-1-3 0-4l1 2-1 2Zm4 16c-5-2 2-10-4-13l2-2c0 1 0 3 2 3-1 4 3 4 4 1l-2-2 5 1-3 1c-1 4 4 4 3 1 2 0 3-1 3-2l1 2c-6 2-6 12-11 10Zm-12 8 5-3c-2-2-4-7-2-11-7-2-9-7-8-12-2 2-5 1-5-1-1 2-3 3-5 3 1 1 2 3-1 5l4 1-4 2c1 2 4 1 7 2l-4 2c1 2 4 1 7 2l-4 2c1 2 5 1 7 2l-4 2c1 2 5 1 7 2v2Zm-8 15c3-1 4-2 5-5 1 1 1 2 0 4 2-1 4-2 5-5 1 1 1 2 0 4 2-1 4-2 5-5 1 1 1 2 0 4 2-1 4-2 5-5 3 0 5-2 5-5 20 0 19-9 30-9 8 0 14 11 24 11 4 0 7-2 10-4l4 4c2 2 2 5 0 6 3 0 4 1 2 4 3-3 5-1 6 2 0-2 1-4 4-3-1-2-2-3-2-5 0-1 1-3 3-3-1-2-3-2-5-1 0-1 2-3 4-3-1-2-3-2-5-1 0-1 2-3 4-3-1-2-3-2-5-1-1-3-5-4-7-1-5-3-7 0-10 0-4 0-4-4-8-5 5 1 9 1 12 1 10 0 18-4 18-11 0-4-5-7-13-7-11 0-20 7-38 7-7 0-10-2-10-5 0-1 1-3 3-3 4 0 6 3 10 3 5 0 7-3 9 2 2-2 3-3 1-5 8 4 19 2 19-7-3 3-4 4-8 4 2-2 1-4-2-4 2 2-1 4-4 4-6 0-8-2-17-2s-15 3-15 8 6 8 13 8c8 0 18-2 29-6 0 3 1 6 4 7v-5c1 2 3 4 5 4v-5c1 2 3 4 5 4l-1-6c3 0 7 1 7 4 0 5-7 8-15 8-13 0-16-4-25-4s-16 3-24 3c-1 2-2 3-4 2 1 6-4 9-9 11l-2-2 3-2-1 2c7-2 9-8 7-12 1 1 3 2 4 1-1-1-2-3-2-5 4-2 5-8 0-6 0-2-1-4-3-5l-1 3-2-4-4 2v-3c-2 0-4 1-5 3-1-4-6 0-3 4-1 2-3 4-5 4 0 2 3 3 4 3-2 2-4 7 0 13l2-3c-1 3-1 7 3 8v1c-3 0-5-2-5-4-12 7-16 8-17 5-1 2-3 2-5 2 1 2 1 3 0 5 3 0 4 2 4 4 2-1 1-3 3-3 1 0 3 1 1 4Zm38 15 1-2 1-1c1 2 0 3-2 3Zm-6-1c2-1 5-1 5 0s-3 2-5 0Zm-3-1c-3 1-5-1-4-2s3 1 4 2Zm1 4-2-2 5 1-3 1Zm-7-6c-1-2-1-3 1-4v2l-1 2Zm25 38c1-3 1-4 3-4v2c1 0 3-1 3-3l1 2c1 0 2-2 2-4l1 2c1 0 2-2 2-4 2 0 4 0 5-2-1 0-3-1-4-3l3-1c-4-3-7-4-12-3 3 2-1 3-1 4 0 2 3 1 3 2 0 2-5 0-8 5-3 0-3-2-6-2 2 1 1 3 0 4 3 0 4 2 3 4 2-1 4-1 5 1Zm-21-22c-5-1 0-8-3-11l1-2c1 4 3 5 5 3 0 3 4 2 5 0v2c-4 2-3 9-8 8Zm-14 21c3-1 4-2 5-5l1 3c2-1 3-2 4-5l1 3c2-1 3-2 4-5 3 1 6 0 8-3 10 0 13-7 20-7 11 0 10 12 20 6l4 4c2 2 0 3-2 4 1 0 3 2 2 4 2-2 4-2 5 1 0-3 3-4 5-2 0-2-1-4-1-6 0-1 1-2 3-2-1-2-3-2-5-1 0-1 1-2 3-2-1-2-3-2-5-1 0-1 1-2 3-2-1-2-3-2-5-1 1-3-3-4-4-2-4-4-6 0-9-5 4 1 6 1 8 1 9 0 16-3 16-8 0-4-5-7-11-7-10 0-13 5-25 5-8 0-11-2-11-4 0-3 3-4 5-4 4 0 5 3 8 3 4 0 6-3 7 2 3-1 3-3 2-4 5 3 14 0 14-6-3 2-5 3-7 3 0-1 0-2-2-3 0 2-2 3-4 3-5 0-7-2-14-2s-12 3-12 7 4 7 14 7c4 0 8 0 16-3 0 2 2 4 4 5v-4c1 2 3 3 4 3v-4c1 2 3 3 4 3v-4c2 0 5 1 5 4 0 4-5 6-13 6-10 0-9-4-17-4-9 0-13 4-18 4 0 1-1 2-4 2 0 5-3 7-8 9l-1-2 2-2v2c6-3 6-7 5-9h4c-2-3-2-5-2-7 5-2 2-8-1-4 0-1-1-4-2-5l-1 3-2-4-4 2 1-3c-2 0-4 2-5 3-1-5-6-1-3 4 0 2-2 4-4 4 0 1 1 2 3 2-3 3-4 8 0 12l2-2c0 3 2 5 4 6l-1 1-3-3c-6 7-12 8-14 4-1 1-2 2-5 2 2 1 2 4-1 6 4-2 7 0 7 3 2 0 1-2 2-3s3 1 1 4Zm4-13 4-3c-3-2-5-6-4-9-4-2-5-5-3-9-2 1-4 0-5-3-1 2-3 4-5 3 2 2 1 4 0 5l4 2-3 1c1 2 3 2 6 2l-3 2c1 2 3 2 6 2l-3 2c1 2 2 2 5 2l1 3ZM532 98c38-6 98-6 136 0 3-1 3-5 0-6l1-1v-3l4-4-2-5 1-3-1-1c3-1 3-5 0-6l3-6 3-1 1-2-1-3 13-29c-8 0-15 6-15 14-1-2-3-4-6-4-8 0-5 13-10 17 8 3 9-7 14-6l-2 6-3 1-1 2 1 3c-7 7-24 3-24-8 11-3 9-18-2-18s-12 14-3 18c-11 13-25 12-36 2v-2l3 1 2-4-2-4-3 1c0-4 1-6 3-6 5 0 3 10 13 11-4-8 0-9 0-14 0-6-7-9-11-7 2-5-2-11-8-17-6 6-10 12-8 17-4-2-11 1-11 7 0 5 4 6 0 14 10-1 8-11 13-11 2 0 3 2 3 6l-3-1-2 4 2 4 3-1v2c-11 10-25 11-36-2 9-4 8-18-3-18s-13 15-2 18c0 11-17 15-24 8l1-3-1-2-3-1-2-6c5-1 6 9 14 6-5-4-2-17-10-17-3 0-5 2-6 4 0-8-7-14-15-14l13 29-1 3 1 2 3 1 3 6c-3 1-3 5 0 6l-1 1 1 3-2 5 4 4v3l1 1c-3 1-3 5 0 6Z"/><path fill="#2d86cf" d="M662 149c-2 0-1 3 1 5 1-2 1-5-1-5Zm-89-30-4-1c-6 7 4 10 4 1Zm4 53-3-1c-5 7 3 10 3 1Zm7 51-4-1c-3 6 2 9 4 1Zm44 26c2 0 5-1 4-2-2-2-4 1-4 2Zm8 0c-2-1-2 2-1 4 1-2 3-3 1-4Zm4-1c-2 1 1 3 1 4 2-2 1-5-1-4Zm-52-3c2 1 5 1 5-1s-4 0-5 1Zm6 3c-1-2-5 0-5 3 2 0 6-1 5-3Zm5 4c0-2-3-3-3 2 1-1 3-1 3-2Zm-43-16c2 1 2 4 4 2s-3-3-4-2Zm1 7c0-3-5-1-5 1 3-1 5 1 5-1Zm4 5c0-2-4-3-4 2 1-1 4-1 4-2Zm4-37c-1 2-1 4 0 4 2 0 2-3 0-4Zm-6 3c2-1 0-4-3-2 2 1 1 3 3 2Zm-3 5c2-2-1-3-4-1 2 0 3 2 4 1Zm87-18c2 0 5-1 4-2-2-2-4 1-4 2Zm8 0c-2-1-3 3-2 5 2-2 4-4 2-5Zm5 0c-2 1 1 3 2 4 1-2 0-5-2-4Zm-71-9c2 1 6 2 6-1 0-2-5 0-6 1Zm9 4c-1-2-6 0-6 3 3 0 7-1 6-3Zm4 5c0-2-4-3-4 3 1-1 4-1 4-3Zm-55-13c2 1 3 4 5 2s-4-3-5-2Zm1 7c2-4-5-2-5 1 3-1 4 1 5-1Zm3 5c0-2-3-3-4 3 1-1 4-1 4-3Zm5-44c1 2-1 5 1 5 4 0 1-5-1-5Zm-4 5c2-1-1-5-5-3 3 1 2 4 5 3Zm-3 5c2-2-2-4-5-1 3 0 3 3 5 1Zm101-17c2 0 5 1 5-1 0-3-5 0-5 1Zm10 0c-2-1-4 4-3 6 3-2 5-5 3-6Zm-71-11c2 1 3 4 5 2s-4-3-5-2Zm8 7c0-4-6-2-6 1 3-1 6 1 6-1Zm5 4c0-2-6-3-4 3 1-1 4-1 4-3Zm-63-13c2 1 5 4 6 2 1-3-5-3-6-2Zm2 7c2-4-5-2-5 1 3-1 4 1 5-1Zm3 5c0-2-6-3-4 3 1-1 4-1 4-3Zm5-47c1 2 0 5 2 5 3 0 0-5-2-5Zm-5 5c4-2-2-5-4-3 3 1 2 4 4 3Zm-4 6c3 0-1-7-4-2 1 0 3 2 4 2Z"/></svg>