<svg xmlns="http://www.w3.org/2000/svg" width="1200" height="720"><path fill="#0f7d3a" d="M0 0h1200v720H0Z"/><path fill="#0a1a1d" d="M0 0h1200v360H0Z"/><path fill="#faf6f5" d="M1200 504V216H684l11-19c30-9 59-83 59-113-26 15-75 82-67 108l-14 24H527l-14-24c8-26-41-93-67-108 0 30 29 104 59 113l11 19H0v288h516l-49 85 8 5 52-90h146l52 90 8-5-49-85Z"/><path fill="#c40f38" d="M500 468c64 160 136 160 200 0h500V252H700c-64-160-136-160-200 0H0v216Z"/><path fill="#0a1a1d" d="M700 468c-32-80-32-136 0-216 32 80 32 136 0 216Zm-200 0c-32-80-32-136 0-216 32 80 32 136 0 216Z"/><path fill="#faf6f5" d="M605 331V135c26 56 26 140 0 196Zm-10 0c-26-56-26-140 0-196v196Zm-14 29c0-37 38-37 38 0s-38 37-38 0Zm24 225V389c26 56 26 140 0 196Zm-10 0c-26-56-26-140 0-196v196Z"/></svg>