<svg xmlns="http://www.w3.org/2000/svg" width="1000" height="600"><path fill="#e30631" d="M0 0h1000v600H0z"/><path fill="#fcd80e" d="M454.9 259.3a213 213 0 0 0-35.3-17.5 96.8 96.8 0 0 0-12.1 83.2c5-11.7 11.5-23 19.3-33.9a188.2 188.2 0 0 1 28-31.8zM425 234.7c13.2 4.6 25.9 10.5 38 17.5 2.8-2.4 5.7-4.4 8.4-6.5a220.4 220.4 0 0 0-40.7-17.3c-2 2-4 4.1-5.7 6.3zm11.8-12c15.3 4 29.8 9.6 43.5 17l9.5-5.8c-14.5-7.5-30-12.9-45.9-16.8a57.4 57.4 0 0 0-7 5.6zm14.4-10.2c16.8 3.4 33 8.8 48.3 16.3a205.2 205.2 0 0 1 48.2-16.3 95.4 95.4 0 0 0-96.5 0zm103.8 4.8a209.3 209.3 0 0 0-45.9 16.6 283.5 283.5 0 0 1 9.5 5.7 212.6 212.6 0 0 1 43.5-17c-2.2-2-4.5-3.8-7-5.3zm13.2 11.3c-14 4.3-27.6 10-40.6 17.1a159 159 0 0 1 8.5 6.5c12-7 24.7-13 37.9-17.5a39.1 39.1 0 0 0-5.8-6zm11.2 13.4a198.1 198.1 0 0 0-35 17.3 196 196 0 0 1 28 31.8A204.8 204.8 0 0 1 592 325a102 102 0 0 0 4.2-28.8c0-20.2-6-38.8-16.6-54.2zm-8.3 66.4a204 204 0 0 0-35.9-43.4l-9.1 6.6c22.8 21.4 41.3 48.1 53 79.3 2.7-4 5.2-8.3 7.3-12.5a227 227 0 0 0-15.3-30zm-53.7-44c3-2.2 6.1-4.5 9.3-6.5-2.7-2.4-5.5-4.6-8.4-6.8l-9.7 6.3h.2c2.9 2.2 5.7 4.6 8.6 7zm-18-13.6 9.7-6-9.6-5.9-9.5 6c3.2 1.8 6.3 3.9 9.5 5.9zm-9 6.6-9.6-6.3-8.6 6.6 9.3 6.5a173.3 173.3 0 0 1 8.8-6.8zm9 6.8-8.7 7.1 8.8 7.4c2.9-2.5 5.7-5 8.8-7.4-2.9-2.4-5.8-5-8.8-7.1zm0 31.7a214 214 0 0 0-33.3 47.5 204.9 204.9 0 0 0-14.9 36.6 98.6 98.6 0 0 0 96.5 0 205 205 0 0 0-14.9-36.6 208.6 208.6 0 0 0-33.3-47.5zM443.8 360c11-28 27.3-52.6 47.2-73-2.8-2.7-5.7-5.2-8.8-8A214 214 0 0 0 429 362a94.4 94.4 0 0 0 10.3 9.8c1.3-3.9 2.9-7.8 4.4-11.7zm64.5-73a219.3 219.3 0 0 1 51.7 84.7c3.7-3 7.2-6.2 10.5-9.8a216.4 216.4 0 0 0-53.4-82.8l-8.8 8zM420 351a206 206 0 0 1 53.2-79.1 187 187 0 0 0-9.4-6.8 209.3 209.3 0 0 0-35.9 43.6 215.1 215.1 0 0 0-15.2 29.8c2 4.4 4.6 8.4 7.3 12.5zm80-159.2c59.7 0 108.3 48.6 108.3 108.2s-48.6 108.2-108.2 108.2S391.9 359.5 391.9 300 440.5 191.7 500 191.7zm47.8-23.7a64 64 0 0 0-9.8 15.4c-.8-1.9-.8-4-.3-6.4.8-7.8 3-12.6 7-19.2 1.4-2.3 2.8-4.4 3.5-7 2.5-7.5 2-17.7-3.6-25.7.9 9-1.8 16.5-4.9 21-.5.9-1 1.4-1.7 2-3.2 3.3-6.8 6.5-11.3 14-2.6 4-5.1 9-7.5 16.7-1-1.7-1.3-3.7-1.2-6-.3-8 1-13 4-20.2 1-2.6 2-4.8 2.3-7.5 1.2-7.8-.8-17.8-7.6-24.7 2.2 8.6.8 16.4-1.5 21.5l-1.4 2.2c-2.7 3.7-5.6 7.5-9.1 15.4a74 74 0 0 0-4.6 17.8 9.7 9.7 0 0 1-2.2-6 44 44 0 0 1 .7-20.4c.6-2.6 1.3-5 1.1-7.6a30 30 0 0 0-11.3-23.4 33.3 33.3 0 0 1 1.9 21.7l-1 2.2c-2 4.2-4.5 8.3-6.7 16.7a74 74 0 0 0-1.8 18.3 13 13 0 0 1-3-5.4c-2.8-7.6-3.1-12.5-2.4-20.5.1-2.7.3-5 0-7.6-1.4-8-6.5-16.8-15-21.3a33.2 33.2 0 0 1 5.1 21l-.5 2.5c-1.3 4.4-3 8.8-3.9 17.6-.3 4.8-.5 10.3 1 18.3a12.6 12.6 0 0 1-3.8-5c-4-7-5-12-5.6-19.7a29.2 29.2 0 0 0-19.3-26.2c5.9 6.5 8.3 14.2 8.3 19.7 0 .9 0 1.7-.2 2.6-.7 4.6-1.5 9.3-1 18a72 72 0 0 0 3.9 17.9c-1.9-.9-3.4-2.4-4.8-4.2-4.9-6.3-6.6-11-8.4-18.7-.7-2.7-1.2-4.9-2.6-7.4a30.2 30.2 0 0 0-20.6-15.6c6.7 5.7 10.3 13 11.3 18.5.2.8.2 1.6.2 2.5.1 4.6 0 9.3 1.8 18 1.2 4.5 2.7 10 6.6 16.9-1.8-.5-3.5-1.7-5.2-3.4a40 40 0 0 1-11.4-17.1c-1-2.6-2-4.8-3.5-7a30.4 30.4 0 0 0-23-12c7.7 4.6 12.3 11 14.2 16.3l.5 2.5c.8 4.6 1.3 9.3 4.6 17.5 1.8 4.4 4.4 9.4 9.3 15.7-2-.2-4-1.2-5.8-2.5a44.4 44.4 0 0 1-14-15.1 23.9 23.9 0 0 0-4.6-6.3 30 30 0 0 0-24.6-8.4 33.5 33.5 0 0 1 16.6 14l1 2.4c1.6 4.2 2.8 8.8 7.2 16.4 2.5 4 5.7 8.7 11.6 14.2-2 0-4-.6-6-1.7-7.3-3.3-11-6.7-16.1-12.7-1.9-2-3.4-3.8-5.6-5.5a30 30 0 0 0-25.6-4.4 32 32 0 0 1 18.5 11.1 6 6 0 0 1 1.3 2.2c2.2 4.1 4.3 8.5 9.8 15.1 3 3.7 7 7.8 13.6 12.4-1.9.3-4 0-6.3-.9-7.6-2-11.8-4.9-17.8-10-2-1.7-3.9-3.2-6.2-4.5a30.4 30.4 0 0 0-26.1-.4c9 .5 16 4.4 20.1 8.1l1.6 2c2.8 3.6 5.4 7.7 12 13.5 3.6 3 8.1 6.4 15.4 10-1.9.6-4 .6-6.3.1-8-.8-12.5-3-19.3-7-2.3-1.4-4.4-2.8-7-3.5-7.5-2.5-17.5-2-25.5 3.6 8.8-.9 16.4 1.8 21 4.9.7.5 1.4 1 1.9 1.7 3.4 3.2 6.6 6.8 13.9 11.3 4 2.6 9.1 5.3 16.7 7.5-1.7 1-3.7 1.3-6 1.3-8 .2-13-1.2-20.2-4-2.6-1-4.8-2-7.5-2.4-7.8-1.2-17.7.8-24.7 7.6 8.6-2.2 16.6-.8 21.5 1.5l2.2 1.4c3.7 2.7 7.5 5.6 15.6 9.1 4.4 1.7 9.6 3.6 17.6 4.6a9.6 9.6 0 0 1-5.7 2.2c-8 1.7-13 1-20.7-.7a29.4 29.4 0 0 0-30.8 10.2c8.1-3.6 16-3.4 21.5-1.9l2.3 1c4.1 2 8.3 4.5 16.8 6.7 4.6 1 10.2 2 18.1 1.8a13 13 0 0 1-5.4 3c-7.4 2.8-12.5 3.1-20.3 2.4-2.7-.1-5-.3-7.8 0a30.3 30.3 0 0 0-21.2 15.1 32 32 0 0 1 21-5.2l2.4.5a65.5 65.5 0 0 0 35.9 2.8 12.6 12.6 0 0 1-5 4c-6.8 3.8-12 4.9-19.7 5.5-2.7.4-5.1.5-7.6 1.4a29.6 29.6 0 0 0-18.7 18c6.8-6 14.4-8.2 20-8.4.9 0 1.7 0 2.6.2 4.4.7 9.1 1.5 17.9 1a63 63 0 0 0 17.8-3.9c-.7 1.9-2.2 3.4-4.2 4.8-6.3 4.9-11 6.6-18.7 8.4-2.5.7-4.9 1.2-7.3 2.6A29.7 29.7 0 0 0 345 392a32.7 32.7 0 0 1 18.3-11.3c.8-.2 1.6-.2 2.5-.2 4.6-.1 9.5 0 18-1.8 4.5-1.2 10-2.7 17-6.6-.5 1.8-1.8 3.7-3.5 5.2a40 40 0 0 1-17.1 11.4c-2.4 1.1-4.6 2-6.8 3.5a30 30 0 0 0-12.2 23 32.5 32.5 0 0 1 16.4-14.2l2.4-.5c4.6-.8 9.3-1.3 17.5-4.6 4.4-1.8 9.4-4.4 15.9-9.1-.4 1.9-1.2 3.7-2.7 5.6a42.9 42.9 0 0 1-15.1 14c-2.2 1.4-4.2 2.6-6.3 4.6a29.8 29.8 0 0 0-8.3 24.6c3.3-8.3 9-14 14-16.6l2.3-1c4.4-1.4 9-2.8 16.4-7.2 4-2.5 8.7-5.7 14.2-11.6.2 2-.5 4-1.7 6-3.3 7.3-6.7 11-12.7 16.1-2 1.9-3.8 3.4-5.4 5.6a30 30 0 0 0-4.4 25.6 30.4 30.4 0 0 1 13.2-19.8c4.1-2.2 8.5-4.3 15.3-9.8 3.5-3 7.6-7 12.2-13.6.3 1.9 0 4-.7 6.3-2.2 7.6-5 11.8-10.2 17.8a30 30 0 0 0-5 32.3c.8-9 4.5-16 8.4-20 .5-.7 1.2-1.2 1.9-1.7 3.7-2.8 7.6-5.4 13.4-12 3-3.6 6.4-8.1 10-15.4.6 1.9.6 4 .3 6.3-1 8-3 12.5-7.1 19.3a30 30 0 0 0-3.6 7 30.2 30.2 0 0 0 3.7 25.7c-.8-9 1.7-16.6 5-21.2l1.5-1.9c3.2-3.4 6.8-6.6 11.5-13.9 2.4-4 5-9.1 7.3-16.7 1 1.7 1.3 3.7 1.3 6 .4 8-1 13-4 20.2-1 2.6-1.9 4.8-2.4 7.5-1.2 7.8.8 17.7 7.6 24.7a31.5 31.5 0 0 1 2.9-23.7c2.7-3.7 5.8-7.5 9.1-15.6 2-4.4 3.8-9.6 4.8-17.6 1.2 1.5 1.8 3.5 2.2 5.7 1.5 8 1 13-.9 20.7-.6 2.6-1.1 5-1.1 7.6 0 8 3.7 17.5 11.5 23.2-3.6-8.1-3.6-16-1.9-21.5.2-.8.5-1.5.9-2.3 2-4.1 4.4-8.3 6.6-16.8 1-4.6 2-10.2 1.8-18.1 1.5 1.3 2.4 3.2 3 5.4 3 7.4 3.1 12.5 2.6 20.5a23 23 0 0 0 0 7.6c1.2 8 6.3 16.8 15 21.3a32.1 32.1 0 0 1-4.7-23.5c1.4-4.4 3-8.8 4-17.6a82 82 0 0 0-1-18.3c1.4 1.2 2.8 2.9 3.8 5 4 6.8 5 12 5.6 19.7.2 2.7.3 5.1 1.2 7.6a29.8 29.8 0 0 0 18.1 18.7 33 33 0 0 1-8.5-20c0-.9 0-1.7.2-2.6.7-4.4 1.7-9.1 1-17.9a68 68 0 0 0-3.7-17.8 12 12 0 0 1 4.6 4.2c4.9 6.3 6.7 11 8.6 18.7.5 2.5 1.2 4.9 2.4 7.3a30 30 0 0 0 20.8 15.5 32.1 32.1 0 0 1-11.5-18.3c-.2-.8-.2-1.6-.2-2.5 0-4.6.2-9.3-1.7-18-1.2-4.5-2.8-10-6.7-17 2 .5 3.7 1.8 5.2 3.5a42 42 0 0 1 11.5 17.1c1 2.4 1.9 4.6 3.6 6.8a30 30 0 0 0 22.8 12.2 32.9 32.9 0 0 1-14.7-18.8c-.7-4.6-1.3-9.3-4.6-17.5a64.3 64.3 0 0 0-9.1-15.7c2 .2 3.9 1 5.7 2.5a41 41 0 0 1 14 15.1 33 33 0 0 0 4.5 6.3 29.8 29.8 0 0 0 24.6 8.3c-8.3-3.3-14-9-16.5-14-.5-.8-.8-1.4-1-2.3-1.5-4.4-2.9-9-7.3-16.4-2.5-4-5.7-8.7-11.5-14.2 1.9 0 4 .5 6.1 1.7 7.1 3.3 11 6.7 16.1 12.7 1.7 2 3.2 3.8 5.4 5.4a30.1 30.1 0 0 0 25.6 4.5 32.4 32.4 0 0 1-19.8-13.3c-2.2-4.1-4-8.5-9.7-15.3a74.3 74.3 0 0 0-13.7-12.2c2-.3 4 0 6.3.7 7.6 2.2 11.8 5 18 10.2 2 1.7 3.8 3.2 6.2 4.4a30 30 0 0 0 26 .5c-9-.7-16-4.4-20-8.3-.8-.5-1.3-1.2-1.8-1.9-2.7-3.7-5.4-7.6-11.8-13.4-3.7-3-8.3-6.4-15.4-10 1.8-.6 3.9-.6 6.2-.3 7.8 1 12.6 3 19.2 7.3 2.3 1.3 4.4 2.5 7 3.4a30.2 30.2 0 0 0 25.7-3.7c-9 .8-16.5-1.7-21-5l-2-1.5c-3.3-3.2-6.5-6.8-14-11.5-4-2.4-9-5-16.7-7.3a12 12 0 0 1 6-1.3c8.2-.4 13.1 1 20.2 4 2.6 1 4.8 1.9 7.5 2.4 7.8 1.2 17.8-.8 24.7-7.6-8.6 2.2-16.4.8-21.5-1.7-.7-.4-1.5-.7-2.2-1.2-3.7-2.7-7.5-5.6-15.4-9.1a79.1 79.1 0 0 0-17.8-4.8c1.5-1.2 3.5-1.8 6-2.2a42 42 0 0 1 20.4.9c2.6.6 5 1.1 7.6 1.1 8 0 17.5-3.7 23.4-11.3a32.6 32.6 0 0 1-23.9.8c-4.2-2-8.3-4.4-16.7-6.6a73 73 0 0 0-18.3-1.8c1.3-1.5 3.2-2.4 5.4-3 7.6-3 12.7-3.1 20.5-2.6 2.7.3 5 .5 7.8 0a29.6 29.6 0 0 0 21.1-15c-7.6 4.8-15.4 6-21 5.3-.8-.1-1.7-.3-2.5-.6-4.4-1.4-8.8-3-17.4-4a74 74 0 0 0-18.3 1.3c1-1.7 2.7-3.1 4.9-4.1 7-4 11.8-5 19.6-5.6 2.7-.2 5.1-.3 7.6-1.2a29.5 29.5 0 0 0 18.7-18.1c-6.6 6-14.3 8.3-19.8 8.5-.9 0-1.7 0-2.6-.2-4.6-.7-9.3-1.7-18-1a65 65 0 0 0-17.9 3.9c.9-1.9 2.4-3.4 4.2-4.8 6.3-4.9 11-6.7 18.7-8.6a29.4 29.4 0 0 0 7.4-2.4c7-3.7 14-11.2 15.6-20.8a32.5 32.5 0 0 1-18.5 11.5c-.8.2-1.6.2-2.5.2-4.6 0-9.3-.2-17.8 1.7a65.3 65.3 0 0 0-17 6.7c.4-2 1.6-3.7 3.3-5.2a42 42 0 0 1 17.1-11.5c2.6-1 4.8-1.9 7-3.6a30.3 30.3 0 0 0 12-22.8 32.6 32.6 0 0 1-16.3 14c-.8.4-1.7.5-2.5.7-4.6.8-9.3 1.3-17.5 4.6a71.1 71.1 0 0 0-15.7 9.1c.2-1.9 1.2-3.9 2.5-5.7 4.4-6.7 8.5-9.9 15.1-14a28.4 28.4 0 0 0 14.7-29 33.5 33.5 0 0 1-14 16.5c-.7.4-1.5.7-2.2.9-4.4 1.5-9 2.9-16.6 7.3-4 2.5-8.7 5.7-14.2 11.5 0-1.9.6-4 1.7-6 3.3-7.2 6.7-11 12.7-16.2 2-1.7 3.8-3.2 5.5-5.4a30 30 0 0 0 4.4-25.6c-2 8.6-6.7 15-11.1 18.5-.7.5-1.4 1-2.2 1.3-4.1 2.2-8.5 4-15.1 9.7a63.8 63.8 0 0 0-12.2 13.7c-.5-1.9-.2-4 .7-6.3 2.2-7.6 4.9-11.8 10-18 1.7-2 3.4-3.7 4.5-6.2a30 30 0 0 0 .4-26c-.5 9-4.3 16-8.1 20-.7.8-1.2 1.3-2 1.8-3.6 2.7-7.7 5.4-13.5 12z"/></svg>