<svg xmlns="http://www.w3.org/2000/svg" xmlns:xlink="http://www.w3.org/1999/xlink" width="1200" height="720" fill="#fcd80e"><path fill="#c40f38" d="M0 0h1200v720H0Z"/><path fill="#012778" d="M0 388h1200v332H0Z"/><path d="m667 114 77-10h-45l-32 10ZM488 78c6-2 11-5 16-9l-9-1c-1 3-4 7-7 10Zm90 16c13-7 23-17 31-24-6-2-18-4-28-4l-1-3c9 0 21 1 27 3-22-13-35-14-61-7l-1-3c6-2 16-4 25-4-10-6-34-4-52 2l-1-3c5-2 15-4 22-4-14-5-36 0-50 6l-1-3 14-5c-41-3-63 21-105 22 13 13 38 8 56-1h-11v-2c27-2 93-1 117 26l19 4Zm-48 5c5 0 5 7 0 7s-5-7 0-7Zm-75-16c16 1 30-1 36-16l-14-1c-5 8-15 15-22 17Zm-40-5c24 8 42 8 58-12h-14c-13 9-33 12-44 12Zm157 58c48 0 94-34 186-47h-81l-2-4c-9 1-19-1-30-8l1-3c14 9 34 13 41 1-12 1-23-4-29-8l1-3c20 12 35 9 40-1-10 2-21-1-30-7l1-3c19 11 32 9 39-2-11 3-23-1-31-6l1-3c11 6 29 12 35 1-9-1-21-5-27-9l1-3c15 9 32 10 47 7-8-1-17-4-21-7l1-3c21 11 41 10 53 7-9-1-16-2-24-4v-3c31 7 39 6 59 0-174-25-146-3-186 37-20 20-38 39-60 40v-3c6-1 12-3 17-6-14-3-45-11-62 8-21 1-53-7-53 17 5-6 44-7 62-2s22 17 51 17Zm-92 238a120 120 0 1 1 240 0l-120 60Z"/><g id="c" transform="rotate(-64.5 600 374)"><g id="b"><path id="a" d="M579 253c11-3 31-3 42 0l-21-94Zm36-41 8 38 17-24c-2-21 1-41 10-61-16 13-28 29-35 47Z"/><use xlink:href="#a" transform="rotate(21.5 600 374)"/></g><use xlink:href="#b" transform="rotate(43 600 374)"/></g><use xlink:href="#c" transform="rotate(86 600 374)"/><use xlink:href="#a" transform="rotate(-86 600 374)"/><path id="d" fill="#faf6f5" d="M1200 416v-56c-54 0-80 28-120 28s-66-28-120-28-79 28-120 28-66-28-120-28-80 28-120 28-66-28-120-28-80 28-120 28-66-28-120-28-80 28-120 28-66-28-120-28v56c40 0 66 28 120 28s80-28 120-28 66 28 120 28 80-28 120-28 65 28 120 28 80-28 120-28 66 28 120 28 80-28 120-28 66 28 120 28 80-28 120-28Z"/><use xlink:href="#d" y="116"/><use xlink:href="#d" y="232"/></svg>