<svg xmlns="http://www.w3.org/2000/svg" xmlns:xlink="http://www.w3.org/1999/xlink" width="1200" height="720" fill="#fcd80e"><path fill="#c40f38" d="M0 0h1200v720H0Z"/><path d="M0 0h800v720H0Z"/><path fill="#003396" d="M0 0h400v720H0Z"/><path id="a" fill="#0a1a1d" d="m600 531 3-7V227h-21c0 14-3 26-12 32-18-1-21-10-39-10-1-7 0-16 2-22-11-4-19-12-26-20-16 10-28 27-28 42v197c0 20-2 26-3 28 6-3 16-13 19-19l2 5c14-15 28-32 35-61 2 3 7 8 14 11-2 4-5 8-8 10l5 2c-4 5-10 14-12 18s-4 2-8 2c-12 0-16 14-13 21l2-4c2 6 8 11 11 11 5 0 10-11 13-15l18-25 2 3c1-5 8-8 12-13l13 6c-10 23-29 57-45 66 9 1 19 4 29 9 7-9 13-16 17-24 0 7-6 17-12 27 13 7 25 17 30 27Z"/><use xlink:href="#a" transform="matrix(-1 0 0 1 1200 0)"/><path fill="#0a1a1d" d="M582 227h36c0-4 6-10 3-17l5 3c0-3-2-8-3-9 1 0 3-1 5-1-1-2-4-5-6-6 1 0 4-1 5-3-9 0-18-11-35-11-7 0-12 2-13 5-3 3-11 1-13 5v-9h3c2 0 4 1 5 3h2c2-3 2-9 0-12h-2c-1 2-3 3-5 3h-3v-2c0-2 1-4 3-5v-2c-3-3-9-3-12 0v2c2 1 3 3 3 5v2h-3c-2 0-4-1-5-3h-2c-3 3-3 9 0 12h2c1-2 3-3 5-3h3v25c0 3-2 5-4 5v2c2 0 5 2 6 5h2c1-3 4-5 6-5v-2c-2 0-4-2-4-5v-8c7 3 16 9 16 26Zm0-26c0 3-12-2-16-2v-1c5-3 16-1 16 3Z"/><g id="b"><path fill="#b5915f" d="m600 520 3-10v-75l-3 4c-3-4-8-8-14-11-10 21-25 52-38 62 5 1 10 3 15 5 12-14 24-36 29-54 3 7-3 40-15 61 10 5 19 12 23 18Zm-116-60c4-3 12-13 12-18V279l-6 6-6-6Zm72-34c2-1 6-4 9-7l-16-8c-1 3-3 6-5 7h5l1 4 5-1Zm-56 21 12-14V279l-6 6-6-6Zm16-20V279l6 6 7-6v116c-3 11-7 22-13 32Zm-27-149v-18l-5 5v8Zm2 0 6-6v-6l-6-6Zm14 0v-18l-6 6v6Zm-21-19 5-5v-9l-4-6c-1 2-1 9-1 20Zm23 19 6-6v-6l-6-6Zm-10-18v-21l-6 6v9Zm24 18v-18l-6 6v6Zm2 0 5-4c-2-3-5-6-5-6Zm-24-18 6-6v-7l-6-8Zm14 0v-19l-6 6v7Zm2 0c4-2 8-7 9-9-4-2-8-9-9-10Zm8 7h14c-5-5-10-12-11-14l-3 5Zm4-20c-1-6 0-12 1-18-6-1-17-10-21-15-7 4-17 14-20 22l3 5 7-7c0-4 2-7 4-7-1 1-2 3-2 7l7 9 7-7c0-4 2-7 4-7-1 1-2 4-2 7 2 3 8 10 12 11Zm10 20h11c-2-1-4-5-5-7-2 1-5 4-6 7Zm-1-5c3-3 7-5 10-6-4-2-10-3-15-3 1 3 4 8 5 9Zm12 2c2-2 5-3 8-3l-10-5c0 3 1 6 2 8Zm0 3h13l7-4c-2 0-8 0-12-2Zm15 0h17c2-3 3-5 4-8-8 5-17 7-21 8Zm20 0h20v-2h-3l-5-6c-2 3-5 6-12 8Zm1-2c8-4 11-8 11-16v-21h2v22c0 2 0 5-1 7l4 4 3-4v-40l-18 10c0 14-4 28-11 34 10-3 14-8 14-16v-17h2v19c0 7-4 14-6 18Z"/><path fill="#c40f38" d="m517 461 5-5c1-1-1-3-3-1l-3 3c-2 2 0 4 1 3Zm-2-8c-4 2-1 5 3 1 2-2-1-2-3-1Zm17 6s2-6 4-9l17-23v-3l-4 2c-1-1-2-4-2-6-6 8-10 15-15 23-2 3-6 0-10 1s-9 4-8 6 4 1 7-1 6 0 9-2c0 3-4 5-5 7 2 1 4 0 5-1-1 3 0 5 2 6Zm-12 5 5-5c1-1-1-3-2-2l-5 5c-1 1 1 3 2 2Zm4 2 3-3c2-2 0-4-1-3l-5 5c-1 1 1 3 3 1Zm10-125c8-2 16-6 20-11 4 5 12 9 20 11l1-2c-10-3-23-14-23-31 0-22 23-29 24-35 3 8-8 19-8 33 0 12 7 16 12 17s5 3 7 3 3-3 5-3c3 0 4 4 8 4l2-1v-6h-2l-4-13-12 5 6-11-12-5 12-4-6-11 12 5 4-11 2 1v-4h-69c1 2 1 3 1 5Z"/><path d="M593 406c0 4-10 2-10 0s10-4 10 0Zm-1-80c-2 0-3 3-5 3s-3-3-8-4-14-6-14-19c0-11 9-24 8-26-29 19-20 50 6 57l-5 12c11 2 19 12 19 32 0 21-12 19-12 25 0 3 3 3 7 5s7 6 12 6v-88c-3 0-6-3-8-3Zm5-37-8-4 4 8-8 3 8 3-4 8 8-4 3 8v-30Zm-43 60c3-3 6-6 13-8-7-2-10-5-13-8-3 3-7 6-14 8 7 2 11 5 14 8Zm25 16 3-3-3-3-3 3Zm2 30c7-5 6-18 4-21l-6-1c2 5 4 13 2 22Zm19 39 1-1c-10-13-69-23-69-45V276c0-4-2-5-3-6h73v-1h-75v1c2 1 4 3 4 7v111c0 23 59 33 69 46Z"/></g><use xlink:href="#b" transform="matrix(-1 0 0 1 1200 0)"/><path fill="#b5915f" d="M585 227h30c0-8 7-7 3-20l5 1c0-2-2-4-4-4 1-2 3-3 4-3-2-3-4-3-5-3 0-1 1-2 2-3-9-2-12-9-28-9-6 0-10 1-11 4 6-1 8 3 13 3 3 0 4-1 7-1 6 0 10 7 13 8-2 1-10-6-13-6s-4 1-7 1c-5 0-12-6-12-2 0 2 3 4 6 5 2-4 8-3 8 1s-5 5-7 2c-2 3 3 3 3 8-3-5-11-5-11-1 0 6 4 13 4 19Z"/><path fill="#c40f38" d="M580 206c0-1 2-2 4-3-5 1-9 0-11-1 3 3 5 4 7 4Zm4-5c0-4-5-7-5-10-6 1-10-1-13 5 8-3 17 1 18 5Zm-6-7c1 1-2 1-2 0s1-1 2 0Z"/><path fill="#0a1a1d" d="m540 482 3-13-8-4-2-5-3 3 1 4-2 9Zm-28-36c3 2 7 1 8-2h5c0-2 4 1 7-2 4-4-2-12-8-6l-2-1c7-5 11-11 10-20-3 1-5 2-6 3 1-5-2-10-4-13-4 3-7 9-7 15l-7-13c5 5 10 2 10-1 0-4-6-7-9-2h-2v-1c10-3 9-17 7-26l-5 4c0-3-1-6-3-8l-3 2c0-7-9-6-9-1l-2-3c7-5 9-16 2-25l-4 5c0-4 0-7-2-6 3-6-6-10-9-3v-1c5-7 2-18-4-23-1 2-2 5-2 8-1-3-6-7-10-8-1 4 0 12 4 15-2-1-6-2-9-2 3 12 13 14 15 14-8 0-8 6-5 8s8 0 8-4l5 10c-5-3-12-4-15-4 1 2 3 5 4 6-2 0-3 0-5 1 2 3 6 8 10 9s10 0 12 0l2 5c-7 0-9 5-7 8s10 2 9-4l6 12c-4-3-10-4-15-3 1 3 3 6 6 8-1 0-5 1-7 3 4 5 13 7 21 4l1 4c-6-1-10 3-7 7s10 1 9-5l7 16c-5-5-16-6-20-6 1 5 4 9 7 10-2 0-5 0-7 1 5 6 13 10 21 8-3 1-4 5-1 7Zm149 37 13-8c-1-2-2-4 0-4 0-5-4-7-8-5 0 2-1 2-4 2Zm21-36c6 3 11-3 7-7 3 0 6 0 8-3s-1-8 1-11l15-24c2-1 3-3 2-5 2 0 4-3 2-5 3 1 3-3 5-6l12-19c2-3 5-4 4-7 5 0 3-5 6-8s5-3 7-6 0-6-2-7c8-4-6-13-7-4-6-1-9 0-9 5v3c0 9-6 8-3 13-3 1-1 3-4 8l-10 18c-2 4-5 4-4 7-3 0-4 3-3 5-2 0-3 2-2 4l-15 24c-2 3-6 3-9 7-2 3-1 6 1 8-6 0-8 7-2 10Z"/><path d="m664 478 7-4c-1-2-4-4-7-4Zm8-9c0-2-3-3-4-2-2 2 4 5 4 2Zm11-24c4 2 7-3 3-5s-7 3-3 5Zm11-10c2-3 0-6 2-9l14-23c1-2-2-4-3-2l-14 23c-2 3-5 3-7 6-3 5 5 10 8 5Zm16-36c3 2 5-1 2-3s-5 1-2 3Zm2-4c4 2 5-2 2-4s-6 2-2 4Zm3-5c3 2 5-1 2-3s-5 1-2 3Zm6-6c5-8 11-19 14-22s-4-6-5-2-8 16-12 22c-2 3 1 5 3 2Zm14-26c4-9 6-11 10-14v-6l-6 2c0 6-3 11-6 17Zm-3-3c2-3 6-8 5-16l5-1c-1-2-7-2-7 2 0 6 0 9-4 13Zm5 3h2c2-8 7-10 10-13 2-2-1-5-3-5l1 5c-5 2-9 7-10 13Zm9-21c3 1 5-2 2-4s-5 3-2 4Zm9-1-1-14-12 7Zm-3-4-5-3 5-3Zm-191 60c7 9 15-6 4-8 12-4-1-17-6-7 0-12-15-7-8 2-10-5-12 13-1 10-5 10 9 15 11 3Zm74 5c-1-12 6-20 19-19-6-6-14-7-20-1s-5 14 1 20Zm-72-178c1-2 3-3 5-4-2-1-4-3-4-6v-27h6c2 0 3 1 5 3 1-2 1-6 0-8-1 2-3 3-5 3h-6v-5c0-2 1-3 3-5-2-2-6-2-8 0 2 2 3 3 3 5v5h-5c-2 0-4-1-6-3-2 2-2 6 0 8 2-2 4-3 6-3h5v27c0 3-2 5-4 6 2 1 4 2 5 4Zm-6 174c-5 0-8-4-8-8s3-8 8-8 8 4 8 8-3 8-8 8Zm0-2c4 0 6-3 6-6s-2-6-6-6-6 3-6 6 2 6 6 6Zm35-188c-5 0-5-7 0-7s5 7 0 7Zm0-2c2 0 2-3 0-3s-2 3 0 3Zm-77 244c-4 0-4-5 0-5s4 5 0 5Zm-15-30c-4 0-4-5 0-5s4 5 0 5Zm28 26c-4 0-4-5 0-5s4 5 0 5Zm-42-57c-4 0-4-5 0-5s4 5 0 5Zm27 24c-4 0-4-5 0-5s4 5 0 5Zm-42-56c-4 0-4-5 0-5s4 5 0 5Zm27 25c-4 0-4-5 0-5s4 5 0 5Zm-14-32c-4 0-4-5 0-5s4 5 0 5Zm49 121-1 8 6 3 2-7Z"/><path fill="#003396" d="M561 395c0 12-18 6-14-4-10 2-9-18 1-14-6-9 12-15 12-3 6-9 19 6 8 10 12 3 0 20-7 11Zm17 5c3-10 1-22-3-30l11 2c4 5 4 21-8 28Zm22 30c9-12 66-22 66-42v-47c-8 2-16 6-20 11-4-5-12-9-20-11l5 10c-11-1-22 7-22 30 0 20 13 20 13 25 0 3-5 4-10 7s-8 7-12 7-7-4-12-7-10-4-10-7c0-5 13-5 13-25 0-23-11-31-22-30l5-10c-8 2-16 6-20 11-4-5-12-9-20-11v47c0 20 57 30 66 42Zm-21-62-6-6 6-6 6 6Zm43 32c-12-7-12-23-8-28l11-2c-4 8-6 20-3 30Zm18 4c-12-6-17-20-8-29s23-4 29 8c-16-7-28 5-21 21Zm-19-36-6-6 6-6 6 6Z"/><path fill="#0f7d3a" d="M496 423c3 6 13 10 20 8-4-5-13-8-20-8Zm1 9c5-1 15 1 18 4-5 3-14 1-18-4Zm33-14c-4 2-9 8-8 13 5-1 8-8 8-13Zm-8-9c2 4 3 8 2 12-2 1-4 5-4 8-5-7-4-14 2-20Zm-11-26c-5 5-7 10-4 17 4-2 7-9 4-17Zm-6-6c-5 5-7 12-1 16 0-2 1-5 3-7 1-2 0-7-2-9Zm-21 23c7-4 11-1 17 2-4 2-14 2-17-2Zm1-10c0 2 2 5 5 7 4-1 8 1 11 3-4-6-9-10-16-10Zm8-39c-4 5-4 11-1 17 4-4 4-12 1-17Zm-6-4c-3 4-3 9 0 13 2-4 3-8 0-13Zm-17 17c1 4 8 7 13 6-3-5-7-6-13-6Zm-1-7c2 4 9 7 14 6-3-5-8-6-14-6Zm7-34c-3 5-2 11 1 15 3-5 2-11-1-15Zm-14 11c5 0 10 3 11 8-6 0-10-4-11-8Zm4-12c-1 5 1 10 7 12 0-4-2-10-7-12Z"/></svg>