<svg xmlns="http://www.w3.org/2000/svg" width="1800" height="900"><path fill="#c40f38" d="M0 0h1800v900H0z"/><path fill="#fcd80e" d="M0 0h1200v900H0z"/><path fill="#003396" d="M0 0h600v900H0z"/><path d="M851.5 183.2a13 13 0 0 0-7.7 2.1 6.3 6.3 0 0 1 4.5 6.1v7.5H841a6.3 6.3 0 0 1-6.1-4.5 15 15 0 0 0 0 15.4 6.3 6.3 0 0 1 6-4.5h7.5v35.6a6.3 6.3 0 0 1-4.2 6c3.6.5 6.6 5.3 7.4 7.9.9-2.6 4-7.4 7.5-7.9a6.3 6.3 0 0 1-4.3-6v-35.6h7.4a6.3 6.3 0 0 1 6.1 4.4 15.1 15.1 0 0 0 0-15.4 6.3 6.3 0 0 1-6 4.6h-7.5v-7.5a6.3 6.3 0 0 1 4.5-6 13 13 0 0 0-7.7-2.2z"/><path fill="#fcd80e" d="M851.5 184.8a14.3 14.3 0 0 0-4.4.7 7.8 7.8 0 0 1 2.8 6v7.4a1.5 1.5 0 0 1-.1.3v1.1h-8.9a7.9 7.9 0 0 1-5.9-2.6 13.7 13.7 0 0 0-.8 4.4 14.3 14.3 0 0 0 .8 4.4 7.8 7.8 0 0 1 5.9-2.8h9l-.1.5v.8a1.6 1.6 0 0 1 0 .3v35.6a7.5 7.5 0 0 1-2.7 5.6 12 12 0 0 1 2.9 2.6 14.8 14.8 0 0 1 1.5 2.6 15 15 0 0 1 1.6-2.6 12 12 0 0 1 2.8-2.5 7.6 7.6 0 0 1-2.7-5.7v-37.1h1.2a1.6 1.6 0 0 1 .3 0h7.4a7.9 7.9 0 0 1 6 2.6c.4-1.4.7-2.9.7-4.4a14.3 14.3 0 0 0-.7-4.4 7.8 7.8 0 0 1-6 2.8h-7.4a1.5 1.5 0 0 1-.3 0h-1.2v-1.2a1.6 1.6 0 0 1 0-.3v-7.5a7.9 7.9 0 0 1 2.7-5.9 13.8 13.8 0 0 0-4.4-.7"/><path d="M944.4 314a39.4 39.4 0 0 1-10.9-11.1 67.2 67.2 0 0 1-9-35.5c0-5.4 6-11.5 6-15.9a76 76 0 0 0-.6-10.5c2.1.3 5.9 4 5.9 4s-.2-10.9-3.6-12.8c0 0 1.4-1.4 6.4-1.6-1.4-3.6-8.4-8-8.4-8a4.6 4.6 0 0 1 1.8-1.6 22.9 22.9 0 0 1 6.2-2 66 66 0 0 1-7-1.9 163 163 0 0 1-19.1-7.8 56.5 56.5 0 0 0-25.6-6c-3.6 0-8.8.2-12 2.2-2.7 1.9-2.5 4.3-3.5 5.2-2.3 2-6.3 2-8.2 2-12.5 0-13 13.2-13 13.2s3.2-4.8 8.9-4.8c9.3 0 16.4 5.1 16.4 7 0 .8-1 1-1 1-6.1 0-15.4-3.6-20.3-3.7v2.4c11 3.8 22 9.2 22 32.9 0 15-1.7 30.2-9.2 42.2a39.8 39.8 0 0 1-11 11l44.4 8 44.4-8z"/><path d="m900 304-44.4 10c-2-.6-11.5-3.6-18.1-7.3-11.8-6.5-17.8-13-31.8-13.6v-10.6c0-5.7 2-10.8 2-16.2-5.8-1.6-22.1-21.5-37.1-30.4-22.2 14.4-39.3 37.9-39.3 48.7v313.5c0 4.7-2.8 11.3-2.8 11.3 8-3.4 22.9-23.7 26-31.4v3.7c12.2-5.6 21.1-20.2 25.1-27.8l.3 3.9c10.9-9.6 24.8-66 24.8-66l23 22.7s-8.3 17-11.5 20a39 39 0 0 0 4.6.2c-1.5 2.2-13.1 19-16.8 25.3-3.4 5.9-5.8 3.2-11 3.2-4.4 0-14.2 7-15.9 9.8a20.5 20.5 0 0 0-3 9.4c0 3.3 3.5 7.7 3.5 7.7a4 4 0 0 1 1-2l10.4 12.6c1 1.2 5.6 2 7.2.4 4.1-3.7 8-6.3 11.7-11.6 1.8-2.7 2-5.9 4.1-8.8l24.7-33.2.6 3.5c3.7-7.5 21.4-21.7 21.4-21.7l18.6 8.5s-34.7 79.7-65.5 92c0 0 13.4 5.7 29.9 14.2l7.4 4a203.5 203.5 0 0 0 6.4-8.2c9.8-13.1 19.4-28.4 19.4-28.4.7 4-4.5 16.2-13.3 31.3l-5.5 9.2 6.6 4c16.3 9.7 31.6 21 37.3 31.3l4-10-4-10v-350l2-5-2-8.2z"/><path fill="#b5915f" d="M900 667.2a127.5 127.5 0 0 0-31.3-20.9c16.4-29.3 24.5-75.6 20.7-84.8 0 0-6.8 24-15 37.7-7.5 12.7-16.9 27-25.9 37.5a205.7 205.7 0 0 0-20.8-7.7c27-20.8 54.7-89.7 54.7-89.7L853.8 526s-10.7 12.5-14.1 14.8c0 0-1.5-6.2-2.4-8.4 0 0-4.1 3.1-6.3 3.2l-1.2-7c-2.9 2-7.6 1.5-7.6 1.5 4.2-2 9-13.9 9-13.9L804 479.9s-9.6 46-20.5 55.6V336.9l8.7 8 13-12.2v-9.3l-11.6 10.8v-28.1a94.4 94.4 0 0 0 3.8-6.2c2 3.3 8 13.3 15.1 19.5 1.2-4.8 9-9.3 9-9.3s2.7 7.5 7 9.4c1.4-2.7 10.3-8.5 10.3-8.5s-7.6 1.2-10.7 4c-2.6-.5-3.3-11-3.3-11s-11.2 5.5-13.1 9.4c-2.2-.6-5.5-9-6.8-12.5a74.8 74.8 0 0 1 8.3-.4c3.2 0 7.3 1.5 11.6 3.5 4.7 2.2 9.6 5 14 7 5.7 2.6 14.2 3 16.7 3.2a73.8 73.8 0 0 1-9.4 5.5s13.4-.1 22.8-4.8a90.2 90.2 0 0 0 9.9-6.8 36.3 36.3 0 0 1-6.5 11.4c13.9-1.2 20.8-9 22.7-11.7a37.7 37.7 0 0 0 5.1 9.5h5v340l-5 10zM798 267.3l.3 6.3v18.7c-5-1.7-11.3-10-14.4-14.3v-2.6a7 7 0 0 1 2.5-5l-3-1.2a8.8 8.8 0 0 0-2.5 5.8v1.5l-9 9.7-8.8-13.4v-3.3c0-2.2 1.7-4.7 3.1-6.3l-3-1.1c-1.5 2-3 4.5-3 7v2.7L750 282.2l-5.2-11c6.2-8.7 16.3-18.3 25.8-25.2 0 0 20.5 18.9 27.4 21.3zm-52 18.1v15.4l-7.2 6.7v-22.9a17.6 17.6 0 0 1 2.4-7.7l4.7 8.5zm22.2 6v9.5l-8.2 7.7v-29.8l8.2 12.6zm-11.1 17.2-8.3-7.7v-11.2l8.3-8.6v27.5zm37.6-11.6c-1.9 2.7-7 9.3-12.3 12.2v-26.1c1.2 2 7 11.2 12.3 13.9zm-15.2-12.6v24.2l-8.3-7.7v-8.6l8.3-7.9zm-33.6 25.7v24.2l-7.1-6.7v-10.7l7.1-6.8zm11.2 7.8v8.6l-8.3 7.7v-24l8.3 7.7zm11.1-7.7v24l-8.2-7.7v-8.6l8.2-7.7zm11.3 7.7v8.6l-8.3 7.7v-24l8.3 7.7zm11.1 16.4-8.2-7.8v-8c2.8-1.7 5.7-5 8.2-8.3v24zm-20.9 10.6 8.7-8v198.5l1 16.3-18.4 18.7V336.8l8.7 8.1zm-13.6 218c0 6.4-11.7 21.3-17.4 24.7V337l8.6 8 8.8-8v226z"/><path fill="#c40f38" d="m828.3 541.4 6.4-4.4 1 5-26.1 35.4c-2 2.6-3.5 9.2-3.5 9.2s-2.9-1.3-2.9-3.7c0-2.4.4-5.2.4-5.2a8 8 0 0 1-5.8 2.4c0-3 5.6-6 5.9-10.2-4.3 3.2-8 1.5-13 3-5.4 1.7-6.9 4-8.5 4-1-.1-1.9-1.8-1.5-2.8.6-1.8 7.3-6.8 12-7.7 1-.2 9.9 2 11.6-.8l20.3-31.3a6.7 6.7 0 0 0 2-.7s0 5.8 1.7 7.8zm-40.8 35a1 1 0 0 1 0 1.4l-2.9 2.5a1 1 0 0 1-1.3-.2 1 1 0 0 1 0-1.3l2.9-2.5a.8.8 0 0 1 .7-.2c.2 0 .5.2.6.4zm4.4 3a2.2 2.2 0 0 1-.1 3.2l-7 6.1a2.4 2.4 0 0 1-3.1-3.5l7-6a2.2 2.2 0 0 1 1.2-.6 2.4 2.4 0 0 1 2 .9zm4 4.8a2.2 2.2 0 0 1-.1 3.1l-7 6.1a2.3 2.3 0 0 1-3.2-.3 2.3 2.3 0 0 1 0-3.2l7-6a2 2 0 0 1 1.2-.6 2.5 2.5 0 0 1 2 .9zm2.4 3.7a2.4 2.4 0 0 1 2 .8c.8 1 .8 2.4-.1 3.3l-7 6a2.4 2.4 0 0 1-3.1-3.5l7-6.1a2 2 0 0 1 1.2-.5z"/><path d="m900 304 44.4 10c2-.6 11.5-3.6 18.1-7.3 11.8-6.5 17.8-13 31.8-13.6v-10.6c0-5.7-2-10.8-2-16.2 5.8-1.6 22.1-21.5 37.1-30.4 22.2 14.4 39.3 37.9 39.3 48.7v313.5c0 4.7 2.8 11.3 2.8 11.3-8-3.4-22.9-23.7-26-31.4v3.7c-12.2-5.6-21.1-20.2-25.1-27.8l-.3 3.9c-10.9-9.6-24.8-66-24.8-66l-23 22.7s8.3 17 11.5 20a39 39 0 0 1-4.6.2c1.5 2.2 13.1 19 16.8 25.3 3.4 5.9 5.8 3.2 11 3.2 4.4 0 14.2 7 15.9 9.8a20.5 20.5 0 0 1 3 9.4c0 3.3-3.5 7.7-3.5 7.7a4 4 0 0 0-1-2l-10.4 12.6c-1 1.2-5.6 2-7.2.4-4.1-3.7-8-6.3-11.7-11.6-1.8-2.7-2-5.9-4.1-8.8l-24.7-33.2-.6 3.5c-3.7-7.5-21.4-21.7-21.4-21.7l-18.6 8.5s34.7 79.7 65.5 92c0 0-13.4 5.7-29.9 14.2l-7.4 4a203.5 203.5 0 0 1-6.4-8.2c-9.8-13.1-19.4-28.4-19.4-28.4-.7 4 4.5 16.2 13.3 31.3l5.5 9.2-6.6 4c-16.3 9.7-31.6 21-37.3 31.3l-4-10 4-10v-350l-2-5 2-8.2z"/><path fill="#b5915f" d="M900 667.2c5.7-6.2 17.8-13.8 31.3-20.9-16.4-29.3-24.5-75.6-20.7-84.8 0 0 6.8 24 15 37.7 7.5 12.7 16.9 27 25.9 37.5a205.7 205.7 0 0 1 20.8-7.7c-27-20.8-54.7-89.7-54.7-89.7l28.6-13.3s10.7 12.5 14.1 14.8c0 0 1.5-6.2 2.4-8.4 0 0 4.1 3.1 6.3 3.2l1.2-7c2.9 2 7.6 1.5 7.6 1.5-4.2-2-9-13.9-9-13.9l27.3-36.3s9.6 46 20.5 55.6V336.9l-8.7 8-13-12.2v-9.3l11.6 10.8v-28.1a94.4 94.4 0 0 1-3.8-6.2c-2 3.3-8 13.3-15.1 19.5-1.2-4.8-9-9.3-9-9.3s-2.7 7.5-7 9.4c-1.4-2.7-10.3-8.5-10.3-8.5s7.6 1.2 10.7 4c2.6-.5 3.3-11 3.3-11s11.2 5.5 13.1 9.4c2.2-.6 5.5-9 6.8-12.5a74.8 74.8 0 0 0-8.3-.4c-3.2 0-7.3 1.5-11.6 3.5-4.7 2.2-9.6 5-14 7-5.7 2.6-14.2 3-16.7 3.2a73.8 73.8 0 0 0 9.4 5.5s-13.4-.1-22.8-4.8a90.2 90.2 0 0 1-9.9-6.8 36.3 36.3 0 0 0 6.5 11.4 30.9 30.9 0 0 1-22.7-11.7 37.7 37.7 0 0 1-5.1 9.5h-5v340l5 10zm102-399.9-.3 6.3v18.7c5-1.7 11.3-10 14.4-14.3v-2.6a7 7 0 0 0-2.5-5l3-1.2a8.8 8.8 0 0 1 2.5 5.8v1.5l9 9.7 8.8-13.4v-3.3c0-2.2-1.7-4.7-3.1-6.3l3-1.1c1.5 2 3 4.5 3 7v2.7l10.2 10.4 5.2-11a123.9 123.9 0 0 0-25.8-25.2S1009 265 1002 267.3zm52 18.1v15.4l7.2 6.7v-22.9a17.6 17.6 0 0 0-2.4-7.7l-4.7 8.5zm-22.2 6v9.5l8.2 7.7v-29.8l-8.2 12.6zm11.1 17.2 8.3-7.7v-11.2l-8.3-8.6v27.5zm-37.6-11.6c1.9 2.7 7 9.3 12.3 12.2v-26.1c-1.2 2-7 11.2-12.3 13.9zm15.2-12.6v24.2l8.3-7.7v-8.6l-8.3-7.9zm33.6 25.7v24.2l7.1-6.7v-10.7l-7.1-6.8zm-11.2 7.8v8.6l8.3 7.7v-24l-8.3 7.7zm-11.1-7.7v24l8.2-7.7v-8.6l-8.2-7.7zm-11.3 7.7v8.6l8.3 7.7v-24l-8.3 7.7zm-11.1 16.4 8.2-7.8v-8c-2.8-1.7-5.7-5-8.2-8.3v24zm20.9 10.6-8.7-8v198.5l-1 16.3 18.4 18.7V336.8l-8.7 8.1zm13.6 218c0 6.4 11.7 21.3 17.4 24.7V337l-8.6 8-8.8-8v226z"/><path fill="#c40f38" d="m971.7 541.4-6.4-4.4-1 5 26.1 35.4c2 2.6 3.5 9.2 3.5 9.2s2.9-1.3 2.9-3.7c0-2.4-.4-5.2-.4-5.2a8 8 0 0 0 5.8 2.4c0-3-5.6-6-5.9-10.2 4.3 3.2 8 1.5 13 3 5.4 1.7 6.9 4 8.5 4 1-.1 1.9-1.8 1.5-2.8-.6-1.8-7.3-6.8-12-7.7-1-.2-9.9 2-11.6-.8l-20.3-31.3a6.7 6.7 0 0 1-2-.7s0 5.8-1.7 7.8zm40.8 35a1 1 0 0 0 0 1.4l2.9 2.5a1 1 0 0 0 1.3-.2 1 1 0 0 0 0-1.3l-2.9-2.5a.8.8 0 0 0-.7-.2 1 1 0 0 0-.6.4zm-4.4 3a2.2 2.2 0 0 0 .1 3.2l7 6.1a2.4 2.4 0 0 0 3.1-3.5l-7-6a2.2 2.2 0 0 0-1.2-.6 2.4 2.4 0 0 0-2 .9zm-4 4.8a2.2 2.2 0 0 0 .1 3.1l7 6.1a2.3 2.3 0 0 0 3.2-.3 2.3 2.3 0 0 0 0-3.2l-7-6a2 2 0 0 0-1.2-.6 2.5 2.5 0 0 0-2 .9zm-2.4 3.7a2.4 2.4 0 0 0-2 .8 2.3 2.3 0 0 0 .1 3.3l7 6a2.4 2.4 0 0 0 3.1-3.5l-7-6.1a2 2 0 0 0-1.2-.5z"/><path fill="#b5915f" d="M889.7 206.6c11.5 0 19.6 5.3 30.4 10 2.8 1.3 5.4 2.4 7.8 3.1a9.6 9.6 0 0 0-3 3.7s5 1 7.1 5c0 0-4.6.5-5.4 3.2 2.6.2 5.2 3.5 5.2 6.6l-6.5-2a82.4 82.4 0 0 1 1.5 15.3c0 4.1-5.8 9-5.8 15.9 0 21.7 5.4 30 9.3 36.8 1.6 2.6 2.8 5.6 5.4 7.9-11.3-6-19.6-13.4-19.6-20.4v-26.2h-3v26.2c0 5 1.3 7.4 1.3 7.4a98.7 98.7 0 0 0 7.5 17.6c-10.3-5.6-15.5-12.6-15.5-15.2v-36h-3V302l.6 2.5a21.5 21.5 0 0 1-4 4.8c-1-.7-2.7-3-4-4.8l.6-2.5v-36.6h-2.9v36c0 2.6-5.2 9.6-15.5 15.2 2.2-3.5 5.7-12 7.5-17.6 0 0 1.2-2.4 1.2-7.4v-26.2H884v26.2c0 7-8.3 14.4-19.5 20.4 2.5-2.3 3.7-5.3 5.3-8 4.2-7.3 9.5-16.6 9.5-43.2 0-10-1.5-16.8-4-21.5-.8-1.6-1.9-5.7 4-5.7 3.2 0 10.3 5.4 10.3 5.4a9.8 9.8 0 0 0-4-6.8 4.2 4.2 0 0 1-1.5-3 6.2 6.2 0 0 1 2.8-3.6c.8-.4-12.2-2.7-12.2-8.6 0-1.2.8-2 3.5-2 3.5 0 9.3 4.2 14.4 4.2 3.8 0 5.3-.9 9.2-.9 4.7 0 14.6 9 18 8.7-3.8-2.4-10-11.4-19.2-11.4-3.2 0-6 .7-9 .7-4 0-7.7-3.5-11.9-3.5-2.7 0-5.8.1-6.3-.6-.8-1.2 0-2 .7-3 1.4-2 5.3-2.5 9.2-2.7a78.7 78.7 0 0 1 3.5 0h3z"/><path fill="#c40f38" d="M852.5 220.7a9.7 9.7 0 0 1 8.6-4.6l11-.2c1 3 6.2 7.8 6.2 13 0 0-5.2-9.5-19.7-9.5a14.2 14.2 0 0 0-6 1.3zm23.6 9.9s-3 3.3-3.7 5c-3-1.2-8.4-6.7-8.4-6.7s4.5 2.7 12.1 1.7z"/><path d="M871.2 222s-3.5-1.2-3.5-2.4c0-1.5 1.7-1.5 2.7-.3.5.8.8 1.7.8 2.7z"/><ellipse cx="887.881" cy="223.927" rx="7.373" ry="5.596"/><circle cx="887.873" cy="223.927" r="5.121" fill="#fcd80e"/><circle cx="887.875" cy="223.928" r="2.346"/><path d="m805.2 592 16.2 8.8-4 18-16.2-8.8z"/><path d="m729.7 418.7-5.9 2.7 66 144.4h7l-67.1-147zm77.7 170.4-4.7 4.9 3 6.5 5.7-2.6-4-8.9z"/><path d="M750.2 532.6s5.5 11.5 9.7 13c-2.1-.6-9.2 2-9.2 2s12.5 11.2 23 12c9 .6 13.4-4 13.4-4l-1.8-9.4a35.7 35.7 0 0 0-14.3-9.8c-8.9-3-20.8-3.8-20.8-3.8zM792 512s-7.6 6.6-9.7 14.2 1.3 16.3 1.3 16.3l6.5 12s9-4.8 12.7-11.9 2.4-16.7 2.4-16.7-7 2.7-8 3.8c1.5-7.9-5.2-17.7-5.2-17.7zm-24.6-3s-8.7 3-17.2 2.4c-8-.5-14.8-7.2-14.8-7.2s6.7-4.6 10-4c-3.6-1.3-8.9-10.4-8.9-10.4s7.5-2.3 14.1.3 12.4 9.7 12.4 9.7l4.4 9.2zm3-42.6s4.3 9 3.3 12.2c1.4-2.1 6.5-5.4 6.5-5.4s3 14.6.1 23.7-12 12.4-12 12.4l-9.9-19.3s-1.5-7.2 1.6-12.8 10.4-10.8 10.4-10.8zm-56.8-24s9.5-1 18 2.7c7.3 3 9.5 8.4 9.5 8.4l3.6 9.5s-10.3 3.9-18.4 1-14-12.8-14-12.8 5.6-2.1 7.7-1.3c-3-1.4-6.4-7.4-6.4-7.4zm29.7-17.6s4.1 5.3 4.2 11.4c1.2-3.2 6.3-6.8 6.3-6.8s5.3 12.8 4.2 22-8.8 14.5-8.8 14.5l-9.6-18.1s-3-7.4-2.2-13.2 5.9-9.8 5.9-9.8zm-32.7-34.6s-1.7 9.9 1.2 15.5c2.6 5 4.3 6.2 4.3 6.2-5-3.3-12.5-3.5-12.5-3.5s2.7 10.7 9 15.6 16.3 3.7 16.3 3.7 6.4-8.6 6-17.9-7.8-19.1-7.8-19.1-3 6-3.2 10.5c-1.9-4.7-13.3-11-13.3-11zm77 165 .3 3.6c5.9 0 6.8-.5 8.3 1.3a5 5 0 0 0 5.7 1.2 4.8 4.8 0 0 0 2.4-6.3c-1-2.4-3.3-3-5.4-2.5-1.4.2-2.2 1.3-3.4 1.9-2 1-7.9.9-7.9.9z"/><path d="m787.1 552.6 2.9 2c-3 5-4 5.5-3.3 7.8a5 5 0 0 1-2 5.5 4.8 4.8 0 0 1-6.7-1.3c-1.4-2.2-.7-4.4.8-6 1-1 2.3-1.2 3.4-1.8 2-1.2 5-6.2 5-6.2zm-19.9-42 .3 3.5c5.9 0 6.7-.5 8.2 1.3a5 5 0 0 0 5.8 1.2 4.8 4.8 0 0 0 2.4-6.3c-1-2.4-3.3-3-5.5-2.5-1.3.2-2.1 1.3-3.3 1.9-2.1 1-7.9.9-7.9.9z"/><path d="m768.4 511.8 2.5 2.5c-3.8 4.5-4.8 4.8-4.4 7.1a5 5 0 0 1-2.9 5.2 4.8 4.8 0 0 1-6.3-2.4c-1.1-2.4 0-4.4 1.7-5.7 1-.9 2.4-.8 3.6-1.3 2.2-.9 5.8-5.4 5.8-5.4zm-21-43 .3 3.5c5.9 0 6.8-.6 8.3 1.3a5 5 0 0 0 5.8 1.2 4.8 4.8 0 0 0 2.3-6.4c-1-2.4-3.3-2.9-5.4-2.5-1.4.3-2.2 1.3-3.3 2-2.2 1-8 .8-8 .8z"/><path d="m749 468 2.6 2.5c-3.8 4.5-4.8 4.8-4.4 7.1a5 5 0 0 1-3 5.2 4.8 4.8 0 0 1-6.3-2.4c-1-2.4 0-4.4 1.7-5.8 1-.8 2.4-.8 3.6-1.2 2.2-1 5.9-5.4 5.9-5.4zm-22.6-43.5.2 3.6c6 0 6.8-.6 8.3 1.3a5 5 0 0 0 5.8 1.2 4.8 4.8 0 0 0 2.4-6.4c-1.1-2.4-3.4-2.9-5.5-2.5-1.3.3-2.2 1.4-3.3 2-2.1 1-8 .8-8 .8z"/><path d="m728 423.8 2.5 2.5c-3.8 4.5-4.8 4.8-4.4 7.1a5 5 0 0 1-2.9 5.2 4.8 4.8 0 0 1-6.4-2.4c-1-2.4 0-4.4 1.7-5.8 1.1-.8 2.5-.8 3.6-1.2 2.3-1 6-5.4 6-5.4z"/><g fill="#fcd80e"><path d="m807.5 597 10 5.5-2.4 11.2-10-5.5zm-44-97c-2.1 1-5.2-8.2-7.5-13.2-2.4-5.2-7.2-13.1-5.8-13.7 1.5-.7 3.4 3.4 5.9 8.7s9.4 17.5 7.4 18.3zm-21.6-48.2c-2.1.9-4.4-5.1-6.7-10.2-2.4-5.1-4.7-8.7-3.3-9.4 1.5-.6 3.7 3.9 5.6 8 1.9 4.2 6.3 10.8 4.4 11.6zm50 109.5c-1.6.4-8.9-14.7-14.7-27.5s-10.2-23-8.8-23.7c1.5-.7 6.2 11.4 12 24.2s12.7 26.7 11.5 27z"/><circle cx="799.972" cy="556.984" r="2.606"/><circle cx="782.047" cy="563.933" r="2.606"/><circle cx="779.554" cy="512.25" r="2.606"/><circle cx="761.621" cy="522.24" r="2.606"/><circle cx="759.778" cy="470.414" r="2.606"/><circle cx="742.279" cy="478.402" r="2.606"/><circle cx="738.708" cy="426.239" r="2.606"/><circle cx="721.212" cy="434.223" r="2.606"/></g><path fill="#0f7d3a" d="M713.5 396.2s-.2 7.2 2.2 11.3 7.7 5.7 7.7 5.7.2-7.2-2.2-11.3-7.7-5.7-7.7-5.7zm-5 16.3s6.3.3 10 3.1 5 8.6 5 8.6a12 12 0 0 1-7.8-2.4c-3.6-2.8-7.1-9.3-7.1-9.3zm19.7-14.6a25.1 25.1 0 0 0-1.9 10c.3 5 3.3 10.9 3.3 10.9s2.7-6.2 2.5-11.3-3.2-8.1-4-9.6zm-10.5 46.4a23.8 23.8 0 0 0 7.8 6.6 32.7 32.7 0 0 0 11.7 2.5 27.4 27.4 0 0 0-8.2-7c-4.7-2.3-11.3-2.1-11.3-2.1zm1.5 10s2.2 4.4 6.4 6.3 12.5 1.7 12.5 1.7a23.5 23.5 0 0 0-7.3-6c-4.2-2-11.6-2-11.6-2zm23.7-23.6a17.2 17.2 0 0 0-2.2 8.6c.2 4.6 3.2 9.6 3.2 9.6s2.1-5.7 1.9-10.3a15.8 15.8 0 0 0-2.9-8zm9.2 5.8s-4.2 5.7-4.8 11.6 2.4 12 2.4 12 5.1-5.2 5.8-11.1-3.4-12.5-3.4-12.5zM740.4 491a12.6 12.6 0 0 0 2.3 4.4 34.3 34.3 0 0 0 4.8 4.6 14 14 0 0 1 6.6-.1c3.7.7 8.6 4 8.6 4S757.4 496 752 493a19.8 19.8 0 0 0-11.6-2zm-.6 13.5s6.8-3 12.4-2.2 10.7 5.2 10.7 5.2-7.6 2.6-13.2 1.9a19.8 19.8 0 0 1-9.9-5zm28.7-31.6s-6 6.4-6.5 11.9 4.9 10.6 4.9 10.6a16.2 16.2 0 0 1 .7-5.8 23.2 23.2 0 0 1 2.9-4.9 14.5 14.5 0 0 0 .5-5 23.4 23.4 0 0 0-2.5-6.8zm8.7 7.4s-5.7 5.7-7.2 11.8 1.2 12.7 1.2 12.7 5.1-4 6.6-10.2-.6-14.3-.6-14.3zm14.1 37a41.5 41.5 0 0 1 3.3 9.8c.6 4.4 0 6 0 6s-2.7 2.6-3.8 4.1c-1.6 2-1.8 5.6-1.8 5.6s-5.3-7.9-4.5-13.7 6.8-11.9 6.8-11.9zm11.3 12.3s-6.9 4.5-9.6 9.2a12.8 12.8 0 0 0-1.3 9.3 10.5 10.5 0 0 0 7.6-5c2.7-4.7 3.3-13.5 3.3-13.5zm-44.8 19s9.8-.2 15.8 1.3 8.2 4.7 8.2 4.7-6.8 3.1-12.8 1.6-11.2-7.6-11.2-7.6zM756 537s4.4 6.9 10.2 9.4c7.9 3.4 17 1.7 17 1.7s-5-6-11.8-8.8-15.4-2.3-15.4-2.3z"/><path d="m1092.5 402 1.3 2.7a5.9 5.9 0 0 0-3 2.5c-1 1.9.6 4.5.6 4.5s-10.8-1-12.5.1c-1.5 1 .6 8.5-.4 14.8-1.4 8.8-4.8 8-5 9.8-.1 1.7 1.4 4.2 1.4 4.2s-2 .7-2.5 1.5c-.7 1.4.5 4-.4 5.6l-16.2 31.8c-.6 1.3-2.4 1.7-3.2 3.4a6.2 6.2 0 0 0-.2 3.9s-3 .2-4 2.2a8.9 8.9 0 0 0-.5 5.2 4 4 0 0 0-2.9 2c-1 2 .7 3.1.3 4l-17.9 35c-1.6 3.3-7.3 3.9-10.7 10.4a9.6 9.6 0 0 0 1.4 11s-4.7.4-6 2.9c-1.3 2.5-.3 6.4 3.2 8.1s7.2.3 8.5-2.2c1.2-2.5-1.3-6.6-1.3-6.6a9.7 9.7 0 0 0 9.7-5.4c3.3-6.5.5-11.4 2.1-14.6l17.9-35c.4-1 2.2-.2 3.3-2.2a4 4 0 0 0 0-3.5 9 9 0 0 0 3.9-3.4c1-2.1-.6-4.7-.6-4.7a6.1 6.1 0 0 0 3-2.4c1-1.7.3-3.3 1-4.6l16.1-31.8c.9-1.7 3.6-2.2 4.3-3.6.4-.8-.3-2.9-.3-2.9s3-.3 4.3-1.3c1.3-1.2-1.3-3.6 5-9.9 4.5-4.5 11.8-7.2 11.7-9-.1-2-7.2-10.2-7.2-10.2s3-.2 3.9-2a6 6 0 0 0 .3-4l3-.6v-14l-11.4 8.2zm-98.1 196a3.5 3.5 0 0 0 0 3.1s-3.6-1-4.8-.5c-1.2.6 0 17.5 0 17.5s14.3-9 14-10.3c-.2-1.4-3.2-3.6-3.2-3.6a3.4 3.4 0 0 0 2.5-1.8c.5-1 .6-3.6-2.7-5.3a5.8 5.8 0 0 0-3.2-.7 3.4 3.4 0 0 0-2.6 1.6z"/><path fill="#fcd80e" d="m1095.1 402.5 6.8 3.4-.1-8.1-6.7 4.7zm-2.6 5a3.9 3.9 0 1 0 5.4-1.2 4.1 4.1 0 0 0-.4-.2 4.2 4.2 0 0 0-2.2-.5 3.4 3.4 0 0 0-2.8 1.8zm-11.6 6.1c-.7.5.2 6.6 0 11.7-.2 5-1.7 6.3-2.6 8-.8 1.5-3.6 3.4-3.6 3.4l2.3 2.3s1.6-2.4 4-7.1c2.8-5.6 2.7-15.7 3.6-16.2a64.5 64.5 0 0 1 6.6-2s-5.4-.3-8.4-.2a6.7 6.7 0 0 0-2 .1zm.6 28.1a77.9 77.9 0 0 1 3.5-7.6c3.4-6.5 10.4-11.2 10.6-12.3.2-1.3-2.5-7-2.5-7s-6.2 1.2-7 2.1c-1 .8-.6 9.3-3.9 15.8a77.8 77.8 0 0 1-4 7.3l3.3 1.7zm16-19.5c0 1-8.2 6.9-11 12.5a88.5 88.5 0 0 0-3.5 7.3l3.3.5s-.3-3.3.5-4.9c.9-1.6 1.1-3.7 5-6.7 4-3.2 9.5-6 9.5-6.9 0-.8-6.2-8.3-6.2-8.3a66 66 0 0 1 2.3 6.5zm-24.1 36.5c4.9-9.7 6.4-10.3 7-11.5.7-1.4.5-3.1-1.7-4.2a3.8 3.8 0 0 0-2.1-.5 2.8 2.8 0 0 0-2.2 1.6c-.6 1.2-.3 2.8-5.2 12.5l-11.2 22a2.3 2.3 0 0 0 .8 3.2 2.3 2.3 0 0 0 .2 0 2.2 2.2 0 0 0 3-.8 2.2 2.2 0 0 0 .2-.3l11.2-22zm-19.8 25.2c-.7 1.2.4 3 2.3 4s4 .7 4.6-.5-.5-3-2.4-3.9a5.2 5.2 0 0 0-2.8-.6 2.1 2.1 0 0 0-1.7 1zm-4.2 6.3c-.8 1.5.5 3.7 2.8 5s4.8.8 5.6-.7-.4-3.8-2.8-5a6.3 6.3 0 0 0-2.5-.7 3.1 3.1 0 0 0-3 1.4zm-2.6 7c-.6 1.1.4 2.9 2.4 3.9s4 .7 4.6-.5-.5-3-2.4-3.9a5.4 5.4 0 0 0-2.8-.6 2.1 2.1 0 0 0-1.8 1zm-1.7 6.6-16.8 33c-1.4 2.8-7.3 4.6-9.7 9.1-2.3 4.6-.6 8.8 2.4 10.4s7.5.4 9.8-4.1c2.3-4.6.3-10.4 1.7-13.2l16.8-33a2.3 2.3 0 0 0-.8-3.2 2.2 2.2 0 0 0-.2-.2 2.4 2.4 0 0 0-1.4-.2 2.6 2.6 0 0 0-1.8 1.4zm-31.5 56.8c-1 1.9.2 4.3 2.4 5.5s5 .6 5.9-1.3-.2-4.2-2.5-5.4a5.3 5.3 0 0 0-2.6-.6 3.6 3.6 0 0 0-3.2 1.8zM997 598.1a1.7 1.7 0 0 0-1.5.7c-.5 1 .5 2.4 2.2 3.3s3.5.7 4-.2-.6-2.4-2.3-3.3a5 5 0 0 0-2.4-.5zm-5.8 4.6v12l9.8-7a11 11 0 0 0-9.8-5zm6.2-269.1c0-6.6 8.7-13.2 8.7-13.2H794s8.7 6.6 8.7 13.2v158a14.4 14.4 0 0 0 3.3 9.5c2 2.9 6.4 6.8 11 9.7 13.9 9 37.2 18.6 54.8 26.7 14.7 6.6 20.7 9.3 28.3 18.8 7.6-9.5 13.7-12.2 28.4-18.8 17.6-8 40.9-17.6 54.8-26.7 4.6-2.9 8.9-6.8 11-9.7a14.4 14.4 0 0 0 3.2-9.5v-158z"/><path fill="#c40f38" d="M807.6 423v-89.4a13.5 13.5 0 0 0-2.6-8.1h190a13.5 13.5 0 0 0-2.6 8.1V423L900 451l-92.4-28z"/><path fill="#003396" d="m992.5 423-57.3-1h-70.4l-57.2 1v68.6c0 3.4 3.6 11.5 24.2 21.8 34.1 17 60.3 25 68.2 34.6 7.9-9.7 34-17.6 68.2-34.6 20.6-10.3 24.2-18.4 24.2-21.8V423z"/><path d="M933.8 419.4s33-8.3 33-43.6c0-27.6-33-41.3-34-47.8-3.2 11.4 11 27 11 45.7 0 24-17.7 25.2-17.7 25.2-4.1 0-5.8 3-7.5 3-3.5-.4-5.1-4.8-8.6-4.8-3.2 0-5.7 5-10 5s-6.7-5-10-5c-3.4 0-5 4.4-8.6 4.8-1.6 0-3.3-3-7.5-3 0 0-17.7-1.1-17.7-25.2 0-18.6 14.3-34.4 11-45.7-.9 6.5-34 20.2-34 47.8 0 35.3 33 43.6 33 43.6l-9.4 17.1s13.6.7 20.9 7c8.7 7.4 7.9 23.1 7.9 34.6 0 9-1.2 18.6-5.8 22.5-6.3 5.3-10.5 5.7-10.5 12 0 5.1 4 6.1 10.5 9.5 8.3 4.4 7.9 10.3 20.2 10.3s12-5.9 20.3-10.3c6.4-3.4 10.4-4.4 10.4-9.6 0-6.2-4.2-6.6-10.4-11.9-4.7-3.9-5.8-13.4-5.8-22.5 0-11.5-.9-27.2 7.9-34.7 7.2-6.2 20.9-6.9 20.9-6.9l-9.5-17.1zm-33.8-89-5.7 16.3-15.7-7.4 7.5 15.6-16.3 5.8 16.3 5.8-7.5 15.5 15.7-7.4 5.7 16.3 5.8-16.3 15.6 7.4-7.4-15.5 16.3-5.8-16.3-5.8 7.4-15.6-15.6 7.4-5.8-16.3zM864.8 422s-20.4-5-28-15a78.6 78.6 0 0 1-29.2 16s16.6 7.6 29.2 17.1c5.8-8.3 28-18 28-18z"/><path d="M935.2 422s22.2 9.7 28 18a178 178 0 0 1 29.2-17 78.6 78.6 0 0 1-29.2-16.1c-7.6 10-28 15-28 15zm-62 21.6-8 8 8 7.9 8-8-8-7.9zm53.7 0-8 8 8 7.9 8-8-8-7.9zM871.2 490a94.1 94.1 0 0 1-1 15.3s11.2-3.2 13.4-14.6c1-5.3 2.2-25-3.2-28.3l-14.5-2.8a89.5 89.5 0 0 1 5.3 30.4zm48.4-27.6c-5.4 3.4-4.2 23-3.2 28.3 2.3 11.4 13.4 14.6 13.4 14.6a94.1 94.1 0 0 1-1-15.3 89.4 89.4 0 0 1 5.4-30.4l-14.6 2.8zm-82.8.6a9.3 9.3 0 0 0-6.9 11.2 9.3 9.3 0 0 0 1 2.4 9.2 9.2 0 0 0-2.4-.5 9.3 9.3 0 0 0-1 0 9.4 9.4 0 1 0 2 18.7 9.2 9.2 0 0 0-1.1 2 9.4 9.4 0 0 0 5.1 12.2 9.4 9.4 0 0 0 12.3-5.1v-.1a9 9 0 0 0 .6-2.2 9.3 9.3 0 0 0 1.6 1.7 9.4 9.4 0 0 0 12.3-14.3 9.4 9.4 0 0 0-2.2-1.4 9.3 9.3 0 0 0 2.1-1 9.5 9.5 0 0 0 3-13 9.3 9.3 0 0 0-8.6-4.3 9.5 9.5 0 0 0-4.4 1.4 9.3 9.3 0 0 0-1.7 1.5 9.5 9.5 0 0 0-9.6-9.4 9.5 9.5 0 0 0-2.1.2zm99.8 27.4c1 9.5 8.8 17.6 18.4 19.9a21.3 21.3 0 0 1-3-8.9c-1.2-11.4 7.5-20.6 19.6-20.6 1.8 0 3.7.3 5.5.7a24.8 24.8 0 0 0-20.9-11.8c-12 0-20.8 9.3-19.6 20.6z"/><g fill="#fcd80e"><path d="M851.4 373.7c0 18.1 9.6 28.8 22.5 28.8 2.5 0 5.2 3.3 7.5 3.3 3.8 0 6.3-4.2 8.6-4.2 3 0 5 4.6 10 4.6s7.1-4.6 10-4.6c2.3 0 4.9 4.2 8.6 4.2 2.4 0 5-3.3 7.5-3.3 13 0 22.6-10.7 22.6-28.8 0-14.8-12.4-32.8-11-35.7 0 0 24.1 17.3 24.1 37.8 0 33-33.4 41-33.4 41l7.5 17s-10.3 1.6-16.6 6.7c-8.5 6.8-8.6 25.2-8.6 37.6 0 14.7.5 20.9 5.8 24.8 5.6 4.2 9.8 5.1 9.8 9.4 0 3.7-4.3 5.3-10 7.7-6.4 2.9-7 7.8-16.3 7.8s-9.9-5-16.3-7.8c-5.6-2.4-10-4-10-7.7 0-4.3 4.2-5.2 9.8-9.4 5.3-4 5.9-10.1 5.9-24.8 0-12.4-.2-30.8-8.6-37.6a40.7 40.7 0 0 0-16.7-6.7l7.5-17s-33.4-8-33.4-41c0-20.5 24.2-37.8 24.2-37.8 1.4 2.9-11 20.9-11 35.7zm36 136.1c-6.6 0-10.8 1.4-10.8 3.4s4.2 3.3 10.8 3.3c1.7 0 3.7-1 3.7-3.3a3.5 3.5 0 0 0-3.6-3.4 3.9 3.9 0 0 0-.1 0zm25.3 0a3.5 3.5 0 0 0-3.7 3.2 3.5 3.5 0 0 0 0 .2c0 2.3 2 3.3 3.7 3.3 6.6 0 10.7-1.3 10.7-3.3s-4.1-3.4-10.7-3.4zm-12.6-168.4 3.6 10.4 10-4.8-4.7 10 10.3 3.7-10.3 3.7 4.7 9.9-10-4.7-3.7 10.3-3.7-10.3-10 4.7 4.8-10-10.3-3.6L891 357l-4.7-10 10 4.8 3.7-10.4zm-82.8 81.9s12.6 6.3 19 11.9l.3.3.2-.3c6-6.9 17.1-12.7 17.1-12.7s-10.7-3-17.4-10.6c-7.1 7.2-19.2 11.4-19.2 11.4zm165.4 0s-12.6 6.3-19 11.9l-.3.3-.2-.3c-6-6.8-17-12.7-17-12.7s10.6-3 17.3-10.6a57.7 57.7 0 0 0 19.2 11.4zm-109.5 24.1 4.1 4.1-4.1 4.2-4.2-4.2 4.2-4.1zm53.7 0 4.2 4.1-4.2 4.2-4.2-4.2 4.2-4.1zm-48 18.1c2.8 4 2.3 10.5 2.3 19.5a14 14 0 0 1-6.8 12.5c0-21.8-2.2-27-3.4-33.6l7.8 1.6zM929 464c-1.2 6.6-3.5 11.8-3.5 33.6a14 14 0 0 1-6.8-12.5c0-9-.5-15.5 2.4-19.5l7.9-1.6zm-82.5 8.2a7.1 7.1 0 0 1 .2 2.4 6.9 6.9 0 0 1-.5 1.9 10.7 10.7 0 0 0-11.6 3 7.3 7.3 0 0 1-1.3-1.6 7.2 7.2 0 0 1-1-2.1 7.3 7.3 0 0 1 5.4-8.9 7.3 7.3 0 0 1 8.8 5.3zm11 13.7a7.1 7.1 0 0 1-2.3.9 6.9 6.9 0 0 1-2 .1 10.7 10.7 0 0 0-6.3-10 7.3 7.3 0 0 1 1-1.8 7.2 7.2 0 0 1 1.8-1.6 7.3 7.3 0 0 1 10 2.3 7.3 7.3 0 0 1-2.3 10zm-9.7 14.6a7.1 7.1 0 0 1-1.5-1.9 7 7 0 0 1-.7-1.7 10.7 10.7 0 0 0 7.6-9.2 7.3 7.3 0 0 1 2 .4 7.2 7.2 0 0 1 2 1.2 7.3 7.3 0 0 1 .9 10.3 7.3 7.3 0 0 1-10.3.9zm-16.9-4.6a7.1 7.1 0 0 1 1.3-2 6.9 6.9 0 0 1 1.5-1.3 10.7 10.7 0 0 0 11.1 4.4 7.3 7.3 0 0 1 .2 2 7.2 7.2 0 0 1-.5 2.3 7.3 7.3 0 0 1-9.5 4 7.3 7.3 0 0 1-4-9.4zm-.8-17.5a7.1 7.1 0 0 1 2.4.6c.6.2 1.1.6 1.6 1a10.7 10.7 0 0 0-.8 12 7.3 7.3 0 0 1-1.8.7 7.2 7.2 0 0 1-2.4.3 7.3 7.3 0 0 1-6.7-7.8 7.3 7.3 0 0 1 7.7-6.8z"/><circle cx="842.667" cy="486.468" r="7.065"/><path d="M966.7 477a23 23 0 0 0-19 24.7 18.4 18.4 0 0 1-6.9-12c-1-8.9 5.6-15.8 15.4-15.8a20 20 0 0 1 10.5 3z"/></g><path d="M1002 322H798c2.7 2.7 6.2 7 6.2 11.6v158a13.6 13.6 0 0 0 .7 4.8 14.2 14.2 0 0 0 2.2 3.7 37.1 37.1 0 0 0 7 6.8 53 53 0 0 0 1.7 1.3 47.7 47.7 0 0 0 1.8 1.3c10.9 7 27.6 14.5 42.8 21.2l11.9 5.3.3.2c14 6.3 20.1 9.1 27.4 17.6 7.3-8.5 13.5-11.3 27.5-17.7l.2-.1 11.8-5.3c15.2-6.7 32-14.2 42.8-21.2a49.8 49.8 0 0 0 8.4-6.9 28 28 0 0 0 1.2-1.3l.9-1.1a14.7 14.7 0 0 0 2.2-3.9 13.3 13.3 0 0 0 .8-4.7v-158c0-4.5 3.5-8.9 6.2-11.6zm-3 11.6v158a16.4 16.4 0 0 1-1 5.9 17.7 17.7 0 0 1-2.6 4.5 21.3 21.3 0 0 1-1 1.4 32.2 32.2 0 0 1-1.4 1.4 53.1 53.1 0 0 1-9 7.4c-11 7.2-27.9 14.6-43.2 21.4l-11.8 5.3h-.2c-14.3 6.6-20.2 9.2-27.6 18.4l-1.2 1.5-1.2-1.5c-7.4-9.1-13.3-11.8-27.5-18.3l-.3-.1-11.9-5.3a344.2 344.2 0 0 1-43.2-21.4 48.8 48.8 0 0 1-3.8-2.8 40.4 40.4 0 0 1-7.5-7.4 17.2 17.2 0 0 1-2.6-4.6 16.7 16.7 0 0 1-1-5.8v-158c0-5.9-8-11.9-8-12v-2.8h214v2.9s-8 6-8 11.9zm-4.8-9.7h4.1l-2.1 2.5a11.8 11.8 0 0 0-2.2 7.2v158c0 2.8-2 8.2-11.2 15a78.1 78.1 0 0 1-6 4 118.2 118.2 0 0 1-7.9 4.2 733.9 733.9 0 0 1-33.7 15.5c-17 7.4-29.2 12.8-34 18.7l-1.2 1.5-1.2-1.5c-4.8-5.9-17-11.3-34-18.7-9.9-4.3-21.3-9.3-33.7-15.5a79.4 79.4 0 0 1-18.3-11.8 37.2 37.2 0 0 1-2-2c-3.8-4-4.8-7.4-4.8-9.4v-158a11.8 11.8 0 0 0-2.2-7.2l-2-2.5H994.1zm-2.8 3.1H807.8a16 16 0 0 1 1.4 6.6v158c0 1.4.8 3.9 4 7.2a33 33 0 0 0 1.8 1.8c3.5 3.3 9 7.1 17.5 11.4a726.6 726.6 0 0 0 33.5 15.4c16.2 7 28.2 12.3 34 18.2 5.8-5.9 17.8-11.1 34-18.2 9.7-4.3 21-9.2 33.5-15.4a114.6 114.6 0 0 0 7.6-4.2 74.7 74.7 0 0 0 5.8-3.8c8.2-6 10-10.3 10-12.4v-158a16 16 0 0 1 1.3-6.6h-.8z"/></svg>