<svg xmlns="http://www.w3.org/2000/svg" xmlns:xlink="http://www.w3.org/1999/xlink" width="1200" height="720" fill="#ffb81c"><path fill="#ffb81c" d="M1200 0H0v720h1200Z"/><path fill="#e30631" d="M1165 36v648H37V36Z"/><g id="a"><path fill="#ffb81c" d="M586 193c2 0 2-3 0-3s-2 3 0 3Zm0 2c-4 0-4-6 0-6s4 6 0 6Zm11 22c0-2 2-4 3-5v-2c-4 0-4-6 0-6v-2c-4 0-4-6 0-6v-2c-4 0-4-6 0-6v-1c-1 0-3 0-5-1 3 8-6 22 2 31Zm-18-18c2 0 2-3 0-3s-2 3 0 3Zm0 2c-4 0-4-6 0-6s4 6 0 6Zm-4 17c-1-2-2-6 0-6s5 3 6 5c1-3-1-6-1-9 0-9 14-15 14-19 0-2-1-3-3-3-8 0-21 13-21 22 0 6 3 9 5 10Zm18 3c2 2 5 2 5 0s-3-2-5 0Zm-18-14c2 0 2-3 0-3s-2 3 0 3Zm0 2c-4 0-4-6 0-6s4 6 0 6Zm25 25v-4l-4 2 4 2Zm-14-7h6c6 0 8-4 7-4s-2 2-4 2-3-1-4-3h-2c-1 2-2 3-4 3s-3-2-4-2 2 4 5 4Zm-5-6c0 2 3 2 5 0-2-2-5-2-5 0Zm-2-2c2-1-1-5-4-6 0 4 2 7 4 6Zm-15 1c-1-1-2-5-2-7 0-7 3-13 11-17 2-1 7-6 8-7l-7 2c0-3-5-3-5 0 0 1 1 2 3 1 0 2-3 2-4 1-2 1-4 3-5 4-2-2-6 1-4 3 1 1 3 1 4-1 0 2-2 4-4 3-2 2-2 3-2 4-3-1-5 1-4 3s4 1 4-1c1 1 1 3-1 4 0 4 5 7 8 8Zm14 2c1 1 3 0 2-1s-3 0-2 1Zm6 11c0 3 5 3 5 0s-5-3-5 0Zm-2 1c0-6 9-6 9 0 0 5-9 5-9 0Zm-10-11c2 2 6 1 5-1s-3-1-5 1Zm28 21v-3c-8 0-12 0-18 1 4 1 10 2 18 2Zm-26-2c6-2 20-4 26-4v-1l-4-2c-2-1-2-3-1-4l5-2v-1c-21 0-29 3-34 0l1 4c3-1 12-1 12 2s-5 4-7 6l2 2Zm0-14c4 0 6-1 6-5-2 3-8 3-10 0-1 2-2 3-4 3 1 1 4 2 8 2Zm-11-5c1 2 3 2 5 0-2-2-6-2-5 0Zm37 25v-3c-8 0-17-1-21-2l-4 1c8 3 15 4 25 4Zm-38-22c2 0 0-4-1-3s-1 3 1 3Zm-1-5-4-4c-3 5 3 6 4 4Zm11 16 4-3-5-1-3 2v1l4 1Zm-11 19c11 0 12-8 12-12-3 2-9 4-14 4 1 1 4 3 3 4-7-5-11-8-18-8-10 0-10 7-7 7 2 0 3-1 6-1 6 0 8 6 18 6Zm-20 0c3 0 3-4 0-4s-3 4 0 4Zm27 27c-7-3-15-9-13-11s8 7 10 5c1-1-2-6-6-10-1-1 0-2 1-1 5 5 8 10 8 17Zm9 36c6 1 14 0 18-2 2-1 4-2 2-4s-4-7-5-10c-3 1-11-2-13-4 1 2 0 15-2 20Zm-2-1c2-6 2-20 1-24 4 4 9 7 15 7 3 0 6-1 6-3 0-3-14-8-14-14 0-3 4-3 4-5 0-4-13-9-12-13s-8-4-10-8c-5 1-14 0-19-3-3 5-10 3-9-2-3-2-6-3-10-3-10 0-11 12-9 12 1 0 4-4 10-4 9 0 16 7 16 12 0 2-1 4-5 4-3 0-6-1-8-2 1 4 5 7 9 7 5 0 8-2 10-2 4 0 4 8 4 13 5-2 6-6 8-5 4 2-2 14 0 16s3-2 5 0 2 14 8 17Zm-60-46c6 0 8-3 14-3 4 0 7 3 10 3 2 0 3-2 2-4-5-10-29 8-36-8-3 6 2 12 10 12Zm56 46c-3-3-4-8-4-11-1 3-4 7-5 8 2 1 4 2 9 3Zm-92-39c-2-11-1-19 2-25-7-16-1-41-4-43s-10 15-10 30c0 12 2 23 12 38Zm-14 9c-1-10 2-15 8-13-15-18-9-52-13-52-3 0-7 15-7 24-1 14 4 29 12 41Zm135 168V317c-9 6-27 6-42 0l-17 18c4 7 7 15 7 25 0 13-6 28-6 42 0 32 42 31 58 54Zm-60-68c2-10 5-19 5-28-6-1-8-8-14-9s-15 0-15-8 15-9 15-20-14-22-22-36c-2 2-2 7-2 10-11-7-19-2-10 11-15-4-17 8-6 13-9 3-9 12 2 15-8 7-6 14 6 13-4 10 1 15 11 11-3 8 0 16 10 11-2 11 3 15 12 8-1 7 2 10 8 9Zm-74-76c-10-11-7-21 2-16-19-17-20-45-24-45s-11 37 22 61Zm1 17c-8-5-11-14-4-16-17-9-25-36-28-35-5 2-1 42 32 51Zm4 19c-8-6-11-13-7-17-17-2-30-21-33-18s9 29 40 35Zm62 81c4 2 12-2 12-7-2-2-4-8-4-10-1 1-3 7-5 10-2 4-5 6-3 7Zm67 65v-33c-4-6-11-12-17-15-3 11-12 12-14 20-1 4-1 9 2 9 4 0 6-11 8-9 1 1-7 17 0 17 5 0 7-10 9-10s-7 17 1 17c5 0 5-11 7-11s-4 10 4 15Zm-91-67c2 3 30 0 30-22-3 2-7 5-12 4-4 10-20 15-18 18Zm42 42c6 0 6-11 25-27l-7-3c-2 1-6 2-8 6-1 2-2 0-1-2s4-5 6-6c-3-1-7-3-10-5-1 2-5 8-6 7s3-5 4-9l-6-5c-5 18-22 17-22 19 0 1 3 2 8 2 6 0 9-3 10-2s-4 4-8 4-6-1-6 0 5 3 10 3c4 0 5-1 7-1 3 0 0 5 0 11 0 4 1 8 4 8Zm-77-103 4-3c-7 0-14-5-11-12-17-1-31-17-34-15s13 28 41 30Zm13 52c0 3 24 9 37-10-2 0-6-3-6-6-13 11-31 12-31 16Zm-1-38 3-3c-6 0-13-4-15-7-14 1-31-10-33-8-3 3 15 25 45 18Zm114 138v-22c-3 0-5-5-6-8-4 8-12 3-11-4-6 4-12-1-8-9-1 1-3 2-5 2-5 4-7 15-5 16s4-2 6-4c1-1 2-1 2 1s-2 12 1 12c2 0 4-3 6-5 1-1 2-1 2 1 0 3-2 11 1 11s6-10 8-10c3 0 0 14 9 19ZM470 403c-4 4 16 15 43-2-7 0-12-4-11-9-18 12-29 8-32 11Zm30-13c-7 0-14-3-14-8-14 6-28 2-30 5s15 18 44 3Zm28 88c3 0 8-7 14-10 2-1 4-3 4-6s0-7-1-7-5 5-7 8-4 1-2-1c1-1 6-5 6-8s-8 1-16-5c-5 3-11 3-11 4 0 2 7 4 13 4 2 0 6 0 4 2-4 4-6 10-6 14 0 2 0 5 2 5Zm40 56c3 3 21-6 26-18-2-2-4-8-4-12-1 4-2 6-5 8-3 8-20 19-17 22Zm-56-71c5 0 11-1 11-3 0-3-8-2-11 3Zm71 82c2 1 4-5 8-8s10-8 8-16c-2-1-3-2-4-4-1 7-6 9-11 15-4 5-3 12-1 13Zm-29-23c2 4 20 4 28-10-5 0-2-10-3-11s-2 3-5 4c-3 11-22 14-20 17Zm-12-11c0 3 18 6 30-7-3-3-3-7-2-11-4 4-8 6-8 1-6 14-20 14-20 17Zm58 46v-26c-2 4-5 7-8 9 1 6 5 14 8 17Zm-60-156c0-3 1-7 1-10-4 1-10 0-10-7-8 5-15-1-13-9-8 3-13-3-11-10-8 3-14-5-11-13-11 1-14-9-7-14-9-3-10-13-3-16-8-4-5-19 6-17-5-11 2-18 13-12-15-14-15-39-19-39-5 0-7 22-1 38-17-31-23-5-9 10-13-13-21-2 0 14-17-6-18 3 3 17-16-7-18 7 2 15-19 0-12 13 6 14-18 4-6 13 11 12-17 8-4 16 12 12-10 8 1 16 17 8-11 9 1 17 13 7Z"/><path fill="#e17000" d="M600 450c-13-19-54-20-54-49 0-12 5-28 5-42 0-6-1-13-5-22l15-15c12 6 27 5 39 0v128Z"/></g><use xlink:href="#a" transform="matrix(-1 0 0 1 1200 0)"/><path fill="#24a34e" d="M600 445c-16-15-40-16-50-35h100c-10 19-34 20-50 35Z"/><path d="M600 214c-2 2-2 5 0 5s2-3 0-5Zm-2-43 1-4-4 1v-4l4 1-1-4h4l-1 4 4-1v4l-4-1 1 4h-4Zm-4 9c-1-1-1-2 0-3h4v-4h4v4h4c1 1 1 2 0 3h-12Zm6 12c-2 0-2-3 0-3s2 3 0 3Zm0 8c-2 0-2-3 0-3s2 3 0 3Zm0 8c-2 0-2-3 0-3s2 3 0 3Zm0 14c1 0 1-2 0-2s-1 2 0 2Zm140 214-5-1 2-7-5-1 1-5 5 2v-6l6 1-2 6h5l-1 5-5-1-1 7Zm-4 6c-2 0-2-3 0-3s2 3 0 3Zm0 2c4 0 4-6 0-6s-4 6 0 6Zm18 22c-1 0-1-1-1-2s0-3 1-2c2 2 1 4 0 4Zm-6-5c-2 0-2-3 0-3s2 3 0 3Zm0 2c4 0 4-6 0-6s-4 6 0 6Zm-14-13c-2 0-2-3 0-3s2 3 0 3Zm0 2c4 0 4-6 0-6s-4 6 0 6Zm7 9c-1 1-3 0-4-1 1-1 2-3 2-4 1 1 2 2 2 5Zm7 4c-6 0-5-6-7-10-1-2-2-1-3 1s-3 6-7 6c-5 0-14-3-18-4s-5-2-5-3 1-5 3-9l13 4c3 1 4 0 5-2s2-7 3-12l10 2c-3 8-5 13-4 14s8 2 11 3 4 1 4 3c0 4-2 7-5 7Zm-16-7c-2 0-2-3 0-3s2 3 0 3Zm0 2c4 0 4-6 0-6s-4 6 0 6Zm-101-89-2-2c3 0 9-2 9-5 0-7-26-1-26-12 0-4 4-7 9-7 3 0 6-2 8-2 4 0 5 2 10 1-1 2-4 4-8 4s-7-1-10-1-6 2-6 5c0 9 27 1 27 12 0 6-8 7-11 7Zm92 85c-2 0-2-3 0-3s2 3 0 3Zm0 2c4 0 4-6 0-6s-4 6 0 6Zm-9-5c-2 0-2-3 0-3s2 3 0 3Zm0 2c4 0 4-6 0-6s-4 6 0 6ZM600 344c1-1 1-2 1-4 5-1 4 4-1 4Zm-6-5-1-1c2-1 4-1 6-1 0 1-2 2-5 2Zm113 117c-2 0-3-1-3-2 0-2 2-3 4-4-1 2-1 3-1 6ZM597 352c0-1 0-3-1-4 2-2 4-3 5-3 2 0 4 2 4 4 0 1-2 0-4 1s-2 2-3 2h-1Zm-9-10c0 2 3 2 3 0s-3-2-3 0Zm122 148c-8 0-14-11-33-13l-2-13c18 4 24 16 30 16 2 0 3-1 3-2 0-4-7-10-7-15 0-3 1-6 3-6 6 0 3 19 17 19 12 0 11-14 16-14 3 0 6 2 6 4 0 4-8 5-8 10 0 2 2 3 5 3 11 0 9-12 13-12s6 6 0 10-36 13-43 13ZM583 377c-1 0-1-4-1-6s-1-2-2-1c-2 2-3 4-4 4s-2-2-2-4c0-4 4-6 7-6 0 3 2 1 4 1s0 4 2 4c1 0 4-2 4-4 0-1-4 3-4 1s0-4-1-4-2 2-3 2c-2 0 0-3-1-3-2 0-5 2-7 4 2-7 14-8 14-10 0-3-9-1-9-3s5 0 5-3-6-2-6-3 0-1 1-1 1-1 0-1h-1v-1c0-3 1-2 7-3 0-2 3-2 5-2s2 2 2 3 0 2 1 2c0-2 3-5 5-3s-1 3-2 6l-2-1c0 4-4 3-4 4h4c2 3-4 3-1 6 5-5 11 1 11 4 0 2-5-1-6 0-2 2 3 5 3 8s-3 0-4 0c-3 0 1 7-1 7-1 0-2-3-3-3s-1 6-3 6c-1 0-3-5-4-5s-2 5-4 5Zm-2-27c-7 0-8-4-7-6 1 3 4 4 7 4 2 0 2 2 0 2Zm-14-7c1-3 1-1 1 0h-1Zm59 61c1-2 4-2 4 0h-4Zm-63-61v-3c2 1 2 3 0 3Zm58 61c0-1 3-3 3 0h-3Zm4 0v-2c-2-2 1-4 4-3 2-1 5-3 5-6 0-5-2-4-5-5s-3 0-3 1c-2 0-8-2-8-11 0-1-1-2-3-2-8 0-8 2-6 2 3 0 8-2 8 0 0 1-1 1-4 1-10 0-13 5-18 5-3 0 0-2-1-3s-2 3-3 3c-2 0-2-3-4-3 0 0-3 5-4 5-3 0-2-7-4-7s-4 2-5 2c-3 0-1-7 1-5s3-1 4-1c2 0 2 5 4 5s3-3 4-3 3 3 4 3 3-5 4-5 1 2 2 2c2 0 0-6 5-6 3 0 0-3 3-3 5 0 9-1 14-1s11 2 11 9c0 10 10 1 10 12 0 9-2 12-5 16h-4c0-3-5-4-6 0Zm-65-59c-1-1-1-2-1-3 1 0 3 2 1 3Zm43 59c0-3-2-3-3-3-3 0 0-3 3-2s6-3 6-6c0-2-1-3-2-5-1 1-2 1-2 0 0-7 8-7 11-5 0 3-3 5-3 8 0 2 1 3 1 5s-1 2-2 3-1 4-3 5h-6Zm-31-33c-7 0-7-6-7-10 0-3-7-1-7-6l2-2c1 2 3 1 3-1s-3-2-3-5c0-2 3-2 4 0 0-2-1-3 0-3 2 0 1 2 2 2 0-1 0-2 1-2 2 0 0 5 0 8 0 4 0 8 3 12 4 0 2 4 2 7Zm-15-17s-1-1-1-3l2 2-1 1Zm41 50c1-2 4-2 4 0h-4Zm-3 0c0-2 3-3 4-2-1 0-2 1-2 2h-2Zm-46 5-1-3h104l-1 3H549Zm22-5c0-2-2-2-1-3-2 0-3 0-4 2-2-3 0-4 1-4 5 0 9-10 9-15 0-1 0-2 1-2 2 0 4 4 4 6 0 3-4 10-4 14 0 1-1 2-2 2h-4Zm-5 0c2-2 3-2 3 0h-3Zm-5 0c2-2 4-2 4 0h-4Zm-130-24-4-8-4 2-3-4 5-2-4-5 5-2 2 6 5-3 2 5-5 1 5 8-1 2h-3Zm28 59c-8 0-15-20-16-28s-7-23-13-26c-2-1-4-3 5-3 0-1 7-9 5-2-2 6 5 21 11 31s15 28 8 28Zm3 11c-6 0-6-9 0-9s6 9 0 9Zm10 23c-3 0-6-3-8-10-1-3-2-11 1-12s11 10 11 16c0 5-2 6-4 6Zm22 25c-1-1 1-4 1-6 3 3 1 8-1 6Zm-9-8c1-1 2-4 2-5 2 2 3 7-2 5Zm-3-5-2-2 1-2c1 1 1 3 1 4Zm-3 7c-2 0-2-2-1-4s4-3 4 0c0 1 0 4-3 4Zm-4 2c-3-1-5-4-2-5s3 4 2 5Zm16 3c0-2 0-4-1-5 1-3 0-7-2-9-1-1-2-1-2 0s-1 4-2 5c1-5-2-8 0-8 3 0 11 5 11 2s-14-5-17-2c-2 2 1 7-4 7s-6-7-3-10c6-6 12-3 21-3 3 0 17 0 23-9l9-2c0 18-17 17-26 31 0-2-2-5-3-5-2 0-1 6-4 8Zm-1 23c-3 0-1-7-2-9s4-5 6-3c4 4 9 5 7 7-1 1-5-1-7 0s-2 5-4 5Zm-8-12c-3 1-8 0-8-3 6 0 13-4 15-6 4 0 7 2 5 4-4 4-6 3-12 5Zm-6-5c-7 0-10-4-9-8 4-1 10 3 11-1 2 0 5-1 5-2 3 0 6 0 6 3 0 2-1 3-3 4-4 2-7 4-10 4Zm-6-13c0 3-8 3-8-2 0-3 1-5 3-6s2 2 3 4 2 3 2 4Zm25 32c-3 0-2-5 0-5s3 5 0 5Z"/><path fill="#0859b9" d="M602 176v-3c2 0 3 2 3 3h-3Zm-9 0c0-1 1-3 3-3v3h-3Zm0 5h12c-1 4-11 4-12 0Zm154 272c-4-1-6-1-7-2s2-8 3-11c5 3 9 8 9 13 0 1-1 1-5 0Zm-20-5c-1 1-6-1-15-3 3-5 11-9 18-9-1 5-2 11-3 12Zm12 28c-3-2 4-4 5-8 1 1 4 1 5 1-1 4-7 9-10 7Zm-7-12c-5 12-19 11-22-4 7 2 17 4 22 4Zm-120-60c1-1 4-7 4-9 0-1-1-3-1-4 0-2 1-3 2-4 1 2 5 5 11 5v-2l4 1c0 1 0 6-3 7-2-1-6 0-6 3-1 0-3 1-3 3h-8Zm-33 0c1-1 1-2 1-4 0-5 4-14 8-14 8 0 12-2 16-3-2 3-1 10 2 7l2 3c0 1-1 5-4 5-2 0-5-1-7 3-2 0-3 1-4 3h-14Zm-31 0c0-28 11-46 1-65l12-14c11 5 25 4 39-1 14 5 28 6 38 1l13 14c-14 19 1 37 1 65h-14c2-4 4-10 4-16s-2-8-7-8-2-4-4-8c9 0 13-3 13-8 0-12-27-5-27-12 0-2 2-3 3-3 5 0 6 1 9 1 8 0 12-3 12-6 0-1-1-2-3-1s-8-3-14 0c-2 1-14 0-14 9 0 12 25 7 25 12 0 3-5 4-8 4-7-5-15-1-24-1 1-3-2-5-2-6s6 2 6-2c0-3-4-5-4-6s5-1 5-4c0-2-4-3-4-4s2-2 2-4-3-2-6-2c1-1 1-3-3-3-5 0-3 1-8 1-2 0-4 1-4 2-5 1-7 0-7 4 0 1 0 3-1 3-2 0-2-4-4-3s0 8 5 9c0 5 7 1 7 4 0 1-3 1-4 1-4 0-6 3-7 6-5 0-6-7-6-10 0-4 1-5 1-9 0-1 0-4-1-4s-1 2-2 3c0-2-2-4-3-4-2 0-1 4-2 3s-2-2-3-1 0 3 1 5c-2 2 2 6 1 6-2 0-3-4-5-2s1 9 7 11c3 1-3 13 11 13-3 4-4 11 1 9 0 5-1 10-5 14-1 1-5 1-5 4-1 0-3 1-4 3h-12Z"/></svg>