<svg xmlns="http://www.w3.org/2000/svg" width="1200" height="720" fill="#fcd80e"><path fill="#e30631" d="M0 0h1200v720H0z"/><path fill="#0859b9" d="M400 0h400v720H400z"/><path d="M200 130c0-2 1-7 4-10-5 2-8 7-8 11s2 7 2 10c0 6-6 8-6 16 0 4 3 7 3 13 0 3-2 5-5 5s-5-2-5-5c0-4 5-5 5-9s-6-9 0-15c-11 3-5 10-8 16-2 4-7 8-7 16 0 11 11 22 25 22s25-11 25-22c0-8-5-12-7-16-3-6 3-13-7-16 5 6-1 11-1 15s5 5 5 9c0 3-2 5-5 5s-5-3-5-8c0-7 4-9 4-16 0-10-9-13-9-21ZM90 330v240h50V330Zm170 0v240h50V330Zm-60 30-50-30h100Zm-50 10v20h100v-20Zm0 140v20h100v-20Zm50 60-50-30h100Zm-55-305a55 55 0 1 0 110 0 60 60 0 0 1-110 0zm55-55a40 40 0 1 1 0 80 40 40 0 1 1 0-80zm0 190a23 23 0 0 1 0 46 30 30 0 0 0-24 48 50 50 0 0 1 24-94zm0 100a23 23 0 0 1 0-46 30 30 0 0 0 24-48 50 50 0 0 1-24 94zm0-86a10 10 0 0 0 0 20 10 10 0 0 0 0-20zm0 53a10 10 0 0 0 0 20 10 10 0 0 0 0-20z"/></svg>