<svg xmlns="http://www.w3.org/2000/svg" width="1200" height="600"><g fill="#012778"><path d="M0 0h1200v600H0Z"/><path fill="#faf6f5" d="M0 0v33.5L533 300h67v-33.5L67 0H0zm600 0v33.5L67 300H0v-33.5L533 0h67z"/><path fill="#faf6f5" d="M250 0v300h100V0H250zM0 100v100h600V100H0z"/><path fill="#c40f38" d="M0 120v60h600v-60H0zM270 0v300h60V0h-60zM0 300l200-100h44.7l-200 100H0zM0 0l200 100h-44.7L0 22.4V0zm355.3 100 200-100H600L400 100h-44.7zM600 300 400 200h44.7L600 277.6V300z"/>\n</g><path fill="#faf6f5" d="M769.5 147.5h256.8l-.3 182.8c2.2 73.5-43.6 119-127.9 139.6-59.8-14.8-128.8-45.5-129-137.5l.4-184.9z"/><path fill="#009aaf" stroke="#0a1a1d" stroke-width="1.813" d="M775.2 153h245.4l-.2 175.2c2 70.4-41.8 114-122.3 133.8-57.2-14.2-123.1-43.7-123.2-131.8l.3-177.2z"/><path fill="#6c401f" d="M1018.7 349C1009.8 416 958 445.4 898.1 461c-53-14.2-110.2-37-121.3-111.8l242-.4z"/><path fill="#0a1a1d" d="m888.4 185.7-.4-22.1 17.5.2.1 21.9h47.8l.2 17-48 .2-.3 201.9h-17l-.3-202-47.6.1v-17.4z"/><g fill="#fd8b32" stroke="#0a1a1d" stroke-width=".968"><path fill-rule="evenodd" d="m849.7 357.3 43.7 45.3c15.1-16.6 4.6-78.7-15.2-90.1-2.4 7.3-6.5 16.1-10.8 19-9.4 6.4-32.7 14-24.9 18.8 1.8-2.4 6.4-4.7 8.6.7 2.6 8.6-9.7 9.1-9.7 9.1s-7.8-1-9.1-8.8 11.5-15.1 12.6-15.7c1.1-.4 18-4.9 20.9-19.9 3.5-14.7 7.2-12.5 7.9-12.8 22 2.2 36.5 41.7 37.3 69.5.8 27.8-11.3 46.1-13.5 47.4-2.2 1.2-52.6-59.8-52.6-59.8l4.8-2.7z"/><path fill="none" stroke="#fcd80e" stroke-linecap="round" stroke-width="1.813" d="M896.3 329.9s20.4 44.7 1.5 81.4m-54-58.3s1.4-3.9 3.3-2.3m-7-9s-8 7.1-3.6 11.8"/></g><g stroke="#0a1a1d" stroke-width=".399"><path fill="#0f7d3a" d="M905.8 228c3-2.6 4.6-4.1 6.4-3.8 2 .2 4.5.1 6.3-.5a39 39 0 0 1 15-.4c1.3.1 3 .9 5.7 3 2.7 2.3 6.6 6.2 5.3 17-1.3 10.8-.9 15.5-1.4 21.5-1 10.7-3.4 19.5-7.7 18.8 5.8 10 6.4 18.7 10.1 25.6 3.8 7 6 21 4.6 36.4-1.4 15.2-5.5 49.6 6.7 72.6-2 1.5-7 0-11.3-4.6-4.3-4.6-6.2-4.5-9.8-1.7-11 8.3-21.2 18.4-36.3 8.3-3.5-2.3-4.6-5-2-12a153 153 0 0 0 8.4-53.1V228z"/><path fill="#edcfb7" d="M916.2 217.2a12 12 0 0 1-.1 8.5c-1.3 3-1.6 6.4.6 10.6 3.4-5 8.3-4 11.2-6.8 2.9-2.9 3.5-5.6 5.6-6.2-2.1-1.9-5.4-4-4.7-9.4.7-5.5 8.3-10 1.4-18.3a10 10 0 0 0-16.7 1.5c-.4 1 .2 3-.9 4.3a14.2 14.2 0 0 1-2.6 2.5c-.6.5-1 1.1-.3 2 .3.3.8.3 1.3.5l-1 1.8c-.4.4-.2.8.2 1.2-.6 1.7.5 2-.2 3.2-.7 1.1-1.5 2.5.8 3.8.7.3 3.8 1 5.4.8zm-28 28.7c-4.1 1-10.6-.7-15.5-.1-2.2.2-3.9-.9-3.6-3 .3-2.2.6-5.5.1-8.6-.6-4.7 1.6-11.2 4.8-18.4a41.3 41.3 0 0 0 4.8-14.6c0-2.3.2-4.8 2.2-6.1 1.5-1 1.8-1.9 2.3-2.7 1.2-1.8 2.4-2.2 2.5-1.1.1.6-.1 1.2-.7 2 1.3-1 3.5-2.3 4-2.6.5-.4 3-2.2 3.2-.5 1-.5 1.7-.5 2 0 .2.7 0 .9-.4 1.3.7-.1 1.5 1.1 0 2.3.8-.3 1.6 1 .2 2.1-1.3 1.2-3 2-3.4 3-.5 1-4 3.6-5.3 4.1-1.4.6-1.5 1.4-1.5 3.4 0 22.2-2.6 20.4-2.6 25.8 0 1.4-.3 2.7 1.1 2.3 1.5-.5 3.6-1.1 5.7-1.1v12.5zm.8 47.9c6.5-3.3 14-4.5 17.9-5.5a78 78 0 0 0 13-5.6c3.1-1.6 5.6-3.8 7.3-4.3a8.1 8.1 0 0 0 4.8-4 63 63 0 0 0 8.6-27.3c0-5-1.3-10.7-6.2-6.7a37 37 0 0 0-11 16.5c-2 8-3.7 9.8-4.1 11.4-.5 1.6-2.1 1.6-4 2a33.4 33.4 0 0 0-17 8 170 170 0 0 1-17.8 11.5c-4.6 2.6-5.5 2.8-6.5 5-1 2-2 3.6-2.8 4.5-.9 1-1.1 2-1 3.2.2 1-.2 5.3-.3 6.7 0 1.5.3 1.8.9 1.9.5 0 1.3-.2 1.6-2-.3 1.8 2.1 1.2 2.2-.1 0 1.9 2.5.8 2.6-1 0 1.3 2 .4 2.1-.1.5-1.5.8-3 1.4-4.2.8-1.7 1.7-3.9 3.4-5 1.9-1.4 1-3 4.9-5zm46.7 118c.4 1.7 1.2 3.5 1.5 4.5.3 1.1-.2 1.5-.5 2a41 41 0 0 0-3.4 11c-.1 1.6-1.2 3.1-1.7 4-.6 1.1-.3 1.9 1 2.9.5.4 2.5-.2 2.7-1.2.8.7 2 .5 2.6-.6.7.6 1.8.2 2.5-.9.6.4 1.6-.4 2-1 1 .5 2-.1 2-2 0-.5.3-1.2.6-1.6.3-.5.4-1.4.4-2.2 0-.8.4-2.4 1.1-3.5.7-1.1 1.9-3.1 1.4-5-.5-1.7-1.2-1.6-1.9-4-1.6-1.7-3.7-4-6-4.2-2.2-.1-3.5 1.4-4.3 1.9zm-41 12.5c2 2 6.5 2 9.7-1.3-1.1-.5-3.7-1.7-4.8-2.6-1.6 1.6-3.4 3.4-5 3.9z"/><path fill="#961538" d="M915 195c.9-5 4.5-5 6.8-4.4 1 .2 3.2.4 5.4-.2 4.3-1.1 7.5.4 7 4.5 1.2.8 2.4 2.9 2.2 4.6-.2 1.7.2 2.4 1.8 2.7 1.5.2 5 2.1 2.7 4.9 2.2 1.3 3.8 4.6 2.7 6.8-1.2 2.2-4.6 2.6-6 .6-1.7.7-4.3.9-5.9-.8-1 1.3-3.8 1.2-4.3 0a3.6 3.6 0 0 0-2.4-2c-1.1-.5-1.2-3.6.5-4-.2-1-.1-2 .3-2.5s.1-1.5-1-2.2c-1-.8-1.8-3.9-.8-5.5-1.7.6-5.5-1.1-6.3-2.3-.8-1.1-1.9-1.2-2.6-.2z"/><g fill="none"><path d="M916.2 217.2c2.8-.3 3.7-2 5.8-2m-11.8-5.8.7.4c.5.3 1.2.4 1.7.5m-1.6-3.9 1.2.7m5.3-12c-1.6-1.7 2.8-4.9 7.5-.3 1 .9 3.1.9 3.8.7m-4.8 2c2.2-.5 5.4-.5 6.4 2 1 2.4 2.8.8 4.3 3.7 1.5 2.9 3.9 6.1 6.2 3.9m-9.2 6.6a5 5 0 0 1-.5-4c-.8-1-.5-3.1 0-4.1m-5.7 2.1c.1.9 1.3 2.5 3 2.8m9 4c-1-1.3-.9-2.5-.6-4"/><path d="M927 200.1c0 1.3.7 3 2 3.6.4.8 1.8 2.8 4.7 2.5m.6-11.3a13.6 13.6 0 0 0-6.6-3.1m-11 44.5c-2.5 3.3-4 7.9-3 14.4 1.2 6.5 3.1 16-1.6 20.3m23.3 12.6c-3.3-.8-8-.8-10.7 1.1s-6.9 2-9.8.6"/><path d="M928.4 283.3c-2.9.5-4.2 2.6-4.2 7.9 0 5.3-1.2 13.1-.2 20.8m-.8-26.4c-2 .5-3.9.5-3.5 5.6m-6.3.1c.1-3 1.2-6 3.2-5.4m17.6 6c.1-6.8-1.4-8.8-3.4-8.7 2.7 0 4.6.4 5.8 11.6.8 8.4 2.6 11.3 4.6 17.9 5.2 17 2.6 43.2 5.2 52.5m-16.2-71.3c5.5 15.9 8.4 33.5-.5 61.7 6 16.8 12 28.9 13.2 35.8m-30-60c1-3.6-2.6-4 .6-16.7 1.4-5.5 1.6-8.8.7-10.5"/><path d="M914.2 311.7c-1.3 5.6 4.2 16.1 1.5 23.8m-6.8 1.4c0 5 1.1 11.3.9 16.2-.3 4.9 1.7 7.1 4 11.8 8.4 16.7 14 28.6 13.3 44.4-.2 2.9.8 9-2.2 10.7m-15.8 4.2c.9 0 1.8-.4 2.9-3s4.5-18.1 3-28.8m1.8 12.1c.4 3.3.4 10.1-1.7 15.5"/><path d="M922.3 394.6c1.3 7 1.2 13.4.1 17.9m-3 0c.2 2.8 1.5 10-.7 10.6m11.5-44c5.4 8.3 9.5 28.9 14 33.2m-9.4-3.3c-.1-2.3-.2-5.5-1.5-7m-56-94c0-1.5-.3-3 1.5-5.5m-4.2 6.5c.3-5.5.2-6 1.8-7.6m-4 7.7c0-4-.4-5.3 1.2-7.8m18.7-111.1-5.7 4.3m7.3-3c-.7.1-2.7 1.8-6.2 4.5m6.3-2.2c-1.2.5-3.3 2.5-5.2 3.9m-3.7-4.3-2 2M935.2 435c-.3-.3-.3-1.6.3-3m2.3 2.4c-.4-.4 0-2.2.4-3.3m2 2.4c-.4-.2-.5-1.2.2-2.6m1.8 1.6c-.3-.1-.4-.7.1-2.2"/></g><path fill="#0a1a1d" stroke="none" d="M914 199.6c1 1.3 2.1 1.2 2.3 2 .2 1 .3 1 .5 1.3.2.2-.5.2-.8 0h-1.7c-.5 0-1.1-.7-.8-.7.4-.1.4-.2.3-.5 0-.3.2-.7.4-.8l-.1-.4c-.2-.4-.4-1.2-.1-1zm.6-1.3c1.2.2 3.2.8 4.3 2 .8 1 .1.7-.3.7s-1.3-.2-1.7-.8a5.8 5.8 0 0 0-2.4-1.4c-.4-.1-.8-.6.1-.5z"/></g></svg>