<svg xmlns="http://www.w3.org/2000/svg" xmlns:xlink="http://www.w3.org/1999/xlink" width="1200" height="720"><path fill="#faf6f5" d="M0 0h1200v720H0Z"/><path fill="#e30631" d="M600 0h600v720H600Z"/><g id="b"><g id="a"><path fill="#e30631" d="M40 160v-48h56a20 20 0 0 1 16-16V40h48v4h-44v56a16 16 0 0 0-16 16H44v44Z"/><path fill="#0a1a1d" d="M44 160h1v-43h65l1-1H44Zm3 0h1v-40h60v-1H47Zm72-57h1V48h40v-1h-41Zm-3-2h1V45h43v-1h-44Zm-15 43a43 43 0 0 1 43-43v-1a44 44 0 0 0-44 44zm12 0a31 31 0 0 1 31-31v-1a32 32 0 0 0-32 32zm-14-27c10 0 20-4 21-14l-4-4c-9 0-17 8-17 18Zm5-5c-2-2 5-9 10-9l2 2c-1 5-10 9-12 7Zm-4 4c0-8 8-16 15-16v2c-7 0-14 9-12 11s13-2 14-8l-2-2 2-2 2 2c-1 9-11 13-19 13Zm8-3 1-1-5-3v1Zm0-3-2-3-1 1Zm3 1h1l-4-6-1 1Zm3-2-4-5h-1l4 6Zm1-1 1-1-4-4h-1Z"/></g><use xlink:href="#a" transform="rotate(90 144 144)"/></g><use xlink:href="#b" transform="rotate(180 144 144)"/><g fill="#0a1a1d"><circle cx="164" cy="176" r="2"/><circle cx="124" cy="176" r="2"/><path d="m173.9 128.6 6.5-4.2-.7-1.1-3 1.9-1.5 1 2.1-6.5-.5-.8-6.4 4.2.7 1.1 4.4-2.9h.1l-2.2 6.5Zm-64.5 37.8 6.6-3.9-.6-1.1-2.7 1.6-1.5-2.5-1 .6 1.4 2.5-1.8 1-1.6-2.6-1 .6Zm-2.2-12.2c2.2 0 3.9-1.7 3.9-3.8 0-2.2-1.7-3.9-3.9-3.9s-3.9 1.7-3.9 3.9c0 2.1 1.7 3.8 3.9 3.8Zm0-1.2c-1.5 0-2.6-1.1-2.6-2.6s1.1-2.7 2.6-2.7 2.6 1.2 2.6 2.7-1.1 2.6-2.6 2.6Zm3.5-13.3.3-1.4-4-.8-.1.5 4.7-2.6.3-1.5-3.6 2c0-2.8-4-2.9-4.6-.2l-.5 2.4Zm-3.8-2.2-2.2-.5.2-1c.3-1.6 2.6-1.4 2.2.5Zm8.4-17.6c1.5 1.4 4 1.6 5.5 0 .6-.6 1.4-2.1 1.6-2.9l-2.3-2.4-2.5 2.5.8.8 1.6-1.5 1 1c-.2.6-.6 1.3-.9 1.6a3 3 0 0 1-3.9 0c-1.1-1.1-.9-2.9.2-4 .5-.5 1.7-1.1 2.4-1.1l-1-1c-.8.2-1.7.7-2.3 1.3-1.6 1.3-1.6 4.3-.2 5.7Zm63.4 46.5.7-1.3-1.8-3.2v-.1l3.7-.3.7-1.3-5.2.5-2.9-1.6-.6 1.2 2.9 1.5Zm-51.3-51.8 1.3-.5.1-2 3.2-1.4 1.5 1.4 1.3-.6-6.2-5.7-.9.4Zm1.3-3.8.1-3.1 2.3 2.1Zm48 41.2 3.5-2.2c0 .7.3 2.1 2 2.2 1.3.1 2.3-.9 2.5-2.2l.4-2.6-7.6-1-.2 1.3 3.6.5-4 2.4Zm6.9-2.5c-.2 1.9-2.5 1.5-2.3-.4l.1-1 2.3.3Zm-43.1-38.9 4.4-.2v-1.2l-3.2.2-.3-6.5-1.3.1Zm43.3 28.2 1.1-.2-1.2-6-1.2.2.5 2.3-6.3 1.4.2 1.3 6.4-1.4Zm-28.7-26.5.3-1.2-3-.8 1.6-6.2-1.3-.4-1.9 7.4Zm11.4 6.5 1.5-8.2-.8-.6-7.3 4.3 1.2.8 1.7-1 2.9 2-.4 1.9Zm-.5-4-2.1-1.5 2.6-1.6Zm-19.6 70.7c-.2.1-.6-.1-.8-.5 0 0 0 .5-.2.7-.6.5-1.2.3-1.7.3s-1 .2-1.6-.3c-.2-.2-.2-.6-.2-.7-.2.3-.6.6-.8.5-.2-.1-.1-.7.2-.9h-.7c-.7-.4-.7-1-.8-1.5s-.6-1-.3-1.6c.2-.3.5-.5.6-.5-.4 0-.7-.4-.7-.6.1-.2.6-.3 1 0a1 1 0 0 1-.3-.8c.2-.7.8-.9 1.2-1.1.4-.3.7-.9 1.5-.8.3 0 .5.3.6.4-.1-.3.1-.8.3-.8s.5.5.3.8l.7-.4c.7-.1 1 .5 1.5.8.3.2 1 .4 1.1 1.1l-.2.8c.3-.3.9-.2 1 0 0 .2-.4.6-.8.6.1 0 .5.2.6.5.4.7 0 1.2-.2 1.6s-.1 1.1-.8 1.5c-.3.1-.7 0-.8 0 .4.2.4.8.3.9Zm-4-2c.3.2-.3.7 0 1.3.2.8 1 .5 1.3.5s1.2.3 1.5-.5c.2-.6-.4-1-.2-1.2s.5.5 1.2.5c.8 0 .8-.8.9-1.2.1-.4.6-1 0-1.5-.5-.4-1.2 0-1.3-.3s.7-.3.9-.9c.2-.7-.5-1-.9-1.2-.3-.3-.8-.9-1.4-.5-.5.4-.4 1.2-.6 1.2s-.1-.8-.7-1.1c-.6-.5-1 .1-1.4.4-.4.2-1 .5-.9 1.2.2.6 1 .7.9 1s-.8-.2-1.3.2c-.6.5-.1 1.1 0 1.5.1.4.1 1.2 1 1.2.6 0 .9-.7 1-.5Z"/><path d="M143.8 184.5c-.2 0-.3-.3-.2-.5l-.4.3c-.5 0-.7-.3-1-.5-.1-.2-.5-.2-.6-.7l.1-.4h-.5c0-.2.2-.4.4-.4a.6.6 0 0 1-.4-.3c-.2-.4 0-.7.2-1 0-.2 0-.6.4-.8h.5c-.2-.2-.3-.5-.2-.6.1 0 .4.1.5.3l.1-.4c.4-.3.7-.2 1-.2s.7-.1 1 .2l.1.4c.1-.2.4-.3.5-.3.1.1 0 .4-.1.6 0 0 .3-.1.4 0 .4.2.4.6.5.9 0 .2.3.5.1 1l-.3.2c.2 0 .4.2.4.3 0 .2-.4.2-.6 0 0 .1.2.3.1.5 0 .5-.4.5-.7.7-.2.2-.4.5-.8.5a.6.6 0 0 1-.4-.3c0 .2 0 .5-.2.5Zm0-1.5c.1 0 0 .4.3.6.3.2.6-.1.8-.3s.5-.2.4-.6c0-.4-.5-.4-.4-.5 0-.2.4 0 .6-.2.4-.2.1-.6 0-.8 0-.2 0-.6-.4-.6s-.5.3-.7.3.2-.4.1-.7c-.1-.4-.5-.3-.8-.3s-.6-.1-.7.3c-.2.3.2.6 0 .7s-.2-.3-.6-.3c-.4 0-.4.4-.5.6 0 .2-.3.6 0 .8.3.2.7 0 .7.2 0 .1-.3.1-.4.5-.2.4.2.5.4.7s.5.4.8.2c.3-.2.2-.6.3-.6Z"/><circle cx="143.75" cy="181.81" r=".66"/><path fill="none" stroke="#0a1a1d" stroke-linecap="round" stroke-width=".65" d="M123.2 167c14.7-.6 26.8-.6 41.5 0"/><path fill="none" stroke="#0a1a1d" stroke-width=".32" d="M142.1 127.9c1 1 1.1 1.3 1.1 1.3m1.9 17.7c-.1 1.1 0 2.3.1 3m-3-2.8c.5.4 1.1 2 1 2.7"/><path fill="#faf6f5" stroke="#0a1a1d" stroke-width=".49" d="M139.6 163.2c-1.3-.4-2.8-.1-3.4 1 .1 2.3-1 2.7-2.5 2.5-1-.1-1.2.3-1.5.5l3 .9c2 1.9.9 3.3.5 3.6-.5.4-1.6.2-2.3.2s-.6.2-1 .4-.9.3-1 .1c0-.3.2-1.5 1-1.7.5 0 1.4-.3 1.4-.7 0-.5-1.6-.4-2.9-.9-1-.4-1.4-1-1-2.6.3-2 2.5-2.1 3.6-2.2-.2-.8 0-2.1 1-3 1.4-1.4 3.6-.9 5.5-.8 1.1-.6 3.2-1.5 5.2-1.6 1.8 0 9-2.4 12.7-2 .4-.8-.2-2.7 1.3-3.6 1.9-1 4 .8 4.5.3s-.6-1.2-2-2.7c-.3-.6-.2-.5-.2-.7 0-.5 0-1 .2-1.2.2 0 1.3.3 1.6.7.3.6.8.9 1.2.6.4-.4-.2-.3-.4-1-.2-.5-.3-1.2-.3-1.6.3-.3.6-1.2 1.4-1.5l1.4 1.7c.7 1 1.3.7 1.7 1.4.2.2.2 1 .5 1.6a8.8 8.8 0 0 0 3.3 3.3c.2.1.5.4.5.6 0 .4-.2.7-.3.9-.2.2-1 .3-1.6 0-1-.5-1.3-.8-1.9-.7-1.3.2-2 2.2-3.9 2.3-1.7-.3-2.1-2-3.1-1.3s1.6 2.1 1.2 3c.3.2.7 1 .6 1.5 1.7-.3 3-1.5 3.6-2.4a6.4 6.4 0 0 1 2-2.1c.5-.2 1.2 0 1.2.5l.8.2c.5.3.4 1.1.3 1.3l-.8-.3c-.3-.1-.6-.1-1 .2l-1 1.6-1.9 2c.3.3.2 1 .2 1.3.1 0 .4 0 .6.2.2.2.2.3 0 .7 0 .4-1.7 2.4-2.2 2.4-.7 0-1.2-.9-1.2-1.2-.8.4-1.1-.5-1.2-.9-.3.5-1.5 1.1-2 1.3-.4.2-.6.2-.7-.4-.1.4-1.2.8-1.5.9-1.4.2-2.8.9-4.3.9l-3.4-.1.3.2c-.5.2-1.4.7-1.4 1.2 0 .4 1.1.5 1.4.6-.6.2-2.4.6-3.2.2-.6.3-4.9-.6-5.7-.7-.6 0-1.4-.4-1.3-1.5 0-.2.2-.8.7-1-.3-.4 1-1.3 2.3-2-4.1 3-4.6-.8-5.2-1.9"/><path fill="#faf6f5" stroke="#0a1a1d" stroke-width=".3" d="M156.3 153.7c0 .6-.8 2 .4 3 .7.5 2 1 2.3 1.8.3.7-.1 1.2-.3 1.2-.7-.2-1.7 1.1-2.1 2-.4-1.2-1.3-1-2.3-.7.3-1.4-.8-2.2-2.4-2.4.3-.3-.2-.7-.6-1-.4-.4-1.7-.1-1.8-.4s.6-.8.3-1.4c-.4-.6-2-.2-2.4-.5.1-.7.2-1-.2-1.7s-2-.5-3-.7c.8-.5 1-1.2.7-2-.4-.8-2.2.2-2.2-1 0-.3 2.1-.6 3-.7.7 0 3.4.6 6 1.2.6.5 4.5 1.8 4.6 3.3Z"/><path fill="none" stroke="#0a1a1d" stroke-width=".49" d="M163 164c1.3-.6 2.5-1.4 3.8-2.6m-19.4-.5c1.2 0 1.5.8 2 1.4.7 1 1.3 3.1-3.8 3.1 1.5 0 1.8-.2 2.6 0 .7-.1 2.3-.7 3-.4-.3 0-1.1.3-1.2.8s.4.6 1 .8m4.8-3.3c1.7.3 4.2-.2 4.5 1.6"/><path fill="none" stroke="#0a1a1d" stroke-width=".32" d="M161.5 149.5c.6.5 1.9 1 2.5 1.9 1 0 1.8-.3.6-1.3"/><path fill="none" stroke="#0a1a1d" stroke-width=".3" d="M149.5 157.2c1.8-.3 4.2-.7 5.7-.6m-7.8-1.2c2.7-.8 5.7-.5 7.5-.4m-.5 5.9c.5-.7 1.6-1.6 2.5-2.3m-5 0c.9-.3 2.4-1 3.7-1.1m-3.9-7c1.4-1.5 3.1-1.3 4.8-2.1 1-.5 1.8-2 2.8-2.9.4-.4.7-.7 1.9-.6 1.1.1 1.3.5-.2.7-1.1.1-1.1.6-1.6 1.5-.4.7 0 1.5.2 2a8 8 0 0 0-.7 2c0 .4.1.6.5 1m-15.1.8c3.8-.8 9.3.6 10.3.7"/><path fill="none" stroke="#0a1a1d" stroke-width=".22" d="M167.5 159c1.2-.7 1.3-2 2.9-2.5m-6.2 8.4c1.6-.8 2-1.4 2.8-2m.2-13c-.1.2-.5 0-.7-.2-.2-.2-.3-.6-.1-.7.1-.2.3-.1.6.1s.3.7.2.9Zm-2.5-2.6c.4-.5.6-.2 1.2-.4"/><path fill="#faf6f5" stroke="#0a1a1d" stroke-width=".49" d="m154 125.5-2.3.3c-.2.4-.2 1.7-.2 2.2 2.2 2 4.3 4.7 4.4 7.2.7.6 1.2 1.1 1.5 2.1 1.6-.8 3.2-2 4.5-2.4.9-.2 2.4-.3 3.1.1l5.2 3.2c1.1.7 1.9 1.6 2.4 2.3s.6 2.2.4 2.6l-3.1-1c-.2-.4 0-1 .2-1.5s.2-.6-.2-1c-.3-.2-.8-.1-1 0a1 1 0 0 1-1.1-.5c-.3-.5-3.6-2-4.1-2-.5 0-1.4 0-2 .5-.4.6-1.5 2.3-2.3 3-.3.3-.3.5-.2.8l3.4.1c1.2.2 2.8 1.5 3.5 2.3 3.2 3 4.4 4.5 5.4 5.5.5.5 1 1 .9 1.7h-3.1c0-1.2-.2-1.8-.4-2.4-.3-.5-1-.5-1.3-.4-.2 0-.6-.6-1-1-.3-1-2-2.1-2.8-2.6s-1-.3-1.7-.3c-.5-.2-1.6-.4-2.4 0s-3 1-5.2 1.2c-.8.4-3.1.8-5.5 1.4-1.9.3-6 1-6.9 1-.3 2-2.4 4.8-3 5.1-.6.8-.5 1.5-.1 2 .4.3 3.6.3 4.4.3l2.6.1c.5.1 1.2.8 2 1.2.6.3.7.6 1 1.2l.8 1.1H146c0-.9-.4-1.5-1-1.5-.4.3-1 .8-1.8.5-2.8-.2-4.7 0-7.4-.3-.7 0-1.4-1-1.1-2 .3-1.1.2-1.8 0-2.5l-2 2c-.9 1-.3 2.2 0 2.7.5.5 3.6 3.4 4 4.3.3.5 1.5 1.5 2.8 2.5.4 1 1 1.3 1.7 2h-4.7c.1-.3.2-.6.2-1.3 0-.2-.2-.8-.9-.7-.6 0-1.1-.6-1.3-1.2-.2-.6-2.3-3.3-3-3.9-.5-.6-2.4-2.5-2.7-2.6-.4-.1-.5-.8 0-1.2.3-.4 1.5-2.3 1.9-3.5.2-.8 0-.9-.3-1.2-2-1.5-3.8-3.5-4.9-5.5-.4.3-2.6.3-3.8-.3-.8-.4-2-.5-2.6.5-.3.5-.3 1.6.3 2 1 .7 2 1.9 3 3.1s.2 2.1-1.1 3.2l.2 1.3c.4.6.4 2.2-.1 2.5-.6.3-1.3.7-2 1.4-.6.8-.9 0-.6-1.2.2-.8-.5-1.5-1-2.1-.6-.7-.3-2.5 0-3 .4-.5.8-1.6 0-2.4s-2.4-2.4-2.1-4.6a3.5 3.5 0 0 1 4.7-3c2.7 1.2 4.3.9 5.2.7a9.7 9.7 0 0 1 3.4-3.5 25 25 0 0 1 7.7-2.6l7.5-2.7c1-.3 1-1.2.9-1.7-1-5-.7-10.4 3.4-13.1.4-.4.3-1.5 1-2.4 0 .4 1 1.4 1.1 2l6.3 2.4c.6.3 1.2.4 1.6.5.3.1.6.5.8.9a1 1 0 0 1-.3 1.4c-.3.1-1.8-.4-2.1 0 0 .3.4.6 1.2 1 .4.1-.2.8-.6.8-.2 0-.6 0-.8-.2l-2.7-1Z"/><path fill="none" stroke="#0a1a1d" stroke-width=".49" d="M148.8 122.2c0 3.1 1 4.7 2.7 5.8m6 9.3c.2 1.3.2 2.6 0 3.8m-22.8 12c2.3-1.1 4.4-3.8 4.3-5.4 0-1-.8-2.4-2.9-2.4m2.9 2.4c.6.3 2 0 3.1.2m11.6-7.6c1.9.1 4.3 1.2 5.5 1.1M153 144c1.5.3 1.5 1 4.8.9m-5.6-11.3c1.8.1 2.8 1 3.8 1.6"/><path fill="none" stroke="#0a1a1d" stroke-width=".3" d="M138.7 149.2c1.2 0 2.2-.2 2.7-1.3m7.4-25.7c0 2.5 1 3.2 3 3.6"/><path fill="none" stroke="#0a1a1d" stroke-width=".22" d="M158.6 122.6c-.1.7-.1 1.2 1 1.1m-5.7-2.8c-.8 2 3.3 2.3 3.5 3.6m-23 13.6c2 .9 1.7 4.8 1.7 7.2"/><path fill="#faf6f5" stroke="#0a1a1d" stroke-width=".19" d="M156.4 124.5c-.7 1.3-2 3.3-3.5 4.3-2.2 1.6-3.5 3-6.5 3.7-.4 0-1.9.6-2.4.4-.6-.1-1.2-.6-1.6-1.5-.2-.5-.1-2.8.6-3 .8-.4 1.5-.5 2.3-.4.4 0 1 .1 1 .7-.1.4-.6.7-1 .6-.6-.2-1.5-.5-2-.2-.3.3-.5 1.3-.3 1.8.4.8.7 1 1.1 1.1.4.2 1.8-.1 2.2-.2 2.8-.7 4-2 6.1-3.6 1.4-1 2.9-3 3.4-4m-10.4 4.3c-.9-.2-2.2 0-2.3.3.6-.3 1.4-.2 2.2 0 .3.1.5-.3 0-.3Zm5.5-6.9.3-.6c0-.2-.3-1.6 1.3-.8s.3 1.4.2 1.6l-.3.6"/><path fill="#faf6f5" stroke="#0a1a1d" stroke-width=".3" d="M137.2 120.6c-1.5.2-4.4-.1-6-.4-.7-.2-2.8 2.9-3.9 3.1s-2.2-2.2-3.8-1.6c-.7.5 0 3.5-.4 4-.5.3-2-1.6-2.8-1s.7 4.7.3 5.1c-.4.5-2.4-1.7-3-1.3s.6 6.6 0 7c-.6.3-3.4-1.7-3.8-.9s4 2.9 5.2 3l1.2-.6c.4.3 3.9.5 4.2.6l2-2c3-4 6.4-7.7 10.8-7.5v-7.5Z"/><path fill="none" stroke="#0a1a1d" stroke-width=".3" d="m123.8 121.6 5.8-.2m-9.3 3.3 2.9-1m-5.6 4.7 2.6-1.1m-6.3 7.3 3.6-3.3m2.8 5.6c1.5-2.6 4.6-5.6 7.2-7.2m-9.9 5.7c2.2-2.6 8.5-7 10.5-7.3m-5-2.5c2.6-1.2 6.3-1.3 9.2-1.6m-5-.7c.3 0 4.7-.6 6.6-.5m-13.3 7a51 51 0 0 1 10.6-4.8"/><path fill="#faf6f5" stroke="#0a1a1d" stroke-width=".38" d="M149.6 172c.3 0 .6.7.6.7s-.6.2-.8.2l-27.1-8.1c-.8-.2-.5-1.5.4-1.2l27 8.4Zm-25.8-37.8c-.2-.6-.7-1-1-1.1-.3 0-.9.5-.9.7.1.4.9 1 1.2 1l.7-.6Zm2.5 1-2.3 2.2c-.2.3.3.8.6.5l2.2-2.2c.3-.3-.2-.8-.5-.5Zm-1.1 2.1 7 7.3 1.5.2-.2-1.4-7.3-7-1 1Z"/><path fill="#faf6f5" stroke="#0a1a1d" stroke-width=".42" d="M142 123.5c0-.4.2-.6.5-.8.5-.4.3-.2.6 0 .3 0 .5.3.7.4.2.2.3 0 .3 0 .2-.2.2-.6.3-.7l.3-.2.1-.3c0-.1.1-.4.3-.4.2 0 .6.3.6 0l.2-1.4c.5 0 .4-.6.6-.6.6.2.8-.8.4-1.1 0-.8.6-.9 1.6-.9-.1-.5-.8-.7-1.3-1.3-.4-.7-2-1.5-3.5-1.5-1.6 0-2.9 1.5-3.5 2.2s-1.8 1-2.1.8c-.4 0-.5-.3-1-.3h-1.5c-.6 0-.8.4-1.4.3-.3 0-1.8 0-2.3.2s0 1 .5 1.1c.2 0 1.3.1 1.8.4.4.2 1.8.3 2.5 0 1.1-.4 1.9.4 3.2.7l.4.2c0 .7 0 1-.3 1h-1.1l-1.2-.6c-.6-.1-1 .1-1.2.2-1.5.7-7 5-7.6 6-.6 1-1.5 1.7-2.4 3.4-.5.9-1.4 2-2 3.5-.9.4-1.8 1.3-2 1.5-.2.2.2.6.3.6 0 .1.3.5.5.4-.1.2.3.5.5.4-.1.2.2.7.4.6l2.2-2.2c0-1 .6-2 1-2.6 1.1-1.4 2.7-3.8 3.1-4.5.3-.4 2.9-1.4 3.6-2a14 14 0 0 0 .1 4.2c.4 1.9 1 2.2 1.4 3.8.4 1.5-.6 1.4-.3 3.6.9 2.8 3.8 1.4 4.5 1.6 1.2.4 2.4.4 2.8.5 1.6-.2 3.2.3 3.7.7.6.4.2 1.7 1.5 3.5.8 1.4 2.4 2 2.8 2.6.4.4.5 1.5.4 2-.1.7.9 1.4 1.5 1.4.5-.1 1.7.1 2 .3.3.1 1.1.8 1.4.8h2.2c.6 0 .5-1 .3-1l-2-.4c-.5-.1-1.9-1.3-2.4-2-.5-.6-.8-1.5-1.1-2.2-.4-.7-2.4-3.5-3-4.1 0-.3-1.2-2.9-1.4-3.5-.2-.7-.8-.7-1.2-.9-1.6-.5-2.4-1-4.1-1.3-1.3-.2-1.6-.3-1.7-1.2 0-.7-.5-1.7-.2-2.6l.4-1.7.4-1.6.2-2.8-.2-2.2Zm1.3 8c-.1 0-1 .2-1.3 0v-.5s-.2-.4 0-.4c-.1 0-.2-.5 0-.6-.3-.1-.3-.4 0-.5h1.3c.2.4.1 1.4 0 2Z"/><path fill="none" stroke="#0a1a1d" stroke-width=".49" d="M140.3 120.3c.4.3.3 0 1-.2s1.2.4 1 1c-.2.5-.3 1 .5 1s.9-.6 1-.9c.2-.3.6-.2.8-.6.1-.8.9-.6 1.3-.5m1-1.7c-.4.2-1.2-.5-1.3-1-.3-.8-.8-1.3-1.7-1.3-1 0-2.7.5-3.1 1.6l-.2 1.5c-.3.1-.7 0-.7.2v.7m-5.9 5.8 2-.8"/><path fill="none" stroke="#0a1a1d" stroke-width=".24" d="M136 125c.5 1.3.8 2.5 1.6 3m1 .4c.8.4 1.3.2 2.2 0m-3.6 8.3c2 .1 2 1.1 3.6 1.6s2.7-.5 4.8 1.6m-10-9c.5.5 1.2.7 1.7.7m1.2 1.7c1.9 0 1.9 1.4 3 1.5"/><path fill="none" stroke="#0a1a1d" stroke-width=".22" d="M139.2 121.2c.9 2.9 1 4 3 4.5m-3.7-4.6c.8 2.8 1.8 4.3 3.8 4.6m-4.7-5c1 2.9 2.3 4.9 4.7 5m10.6 22.8-.9-1.2-.7-1.4-.4.2c-.2 0-.5-.3-.2-.4l.4-.2-.6-1c-.3 0 0-.3.2-.4.2 0 .5-.2.4 0l.5 1.1.4-.1c.2-.2.4.2.2.3l-.5.3.8 1.4c.3.6.4.8.4 1.4Z"/></g></svg>