<svg xmlns="http://www.w3.org/2000/svg" width="1200" height="720"><path fill="#faf6f5" d="M0 0h1200v720H0Z"/><path fill="#e30631" d="M0 618v51h1200v-51Zm0-103v51h1200v-51Zm0-103v51h1200v-51Zm0-103v51h1200v-51Zm0-103v51h1200v-51Zm0-103v51h1200v-51ZM0 0v51h1200V0Z"/><path fill="#012778" d="M0 0h600v412H0Z"/><path fill="#fcd80e" d="M324 90a140 140 0 1 0 0 230 125 125 0 1 1 0-230zm48 69 11-71 11 71 41-60-22 70 62-37-49 53 72-6-67 26 67 26-72-6 49 53-62-37 22 70-41-60-11 71-11-71-41 60 22-70-62 37 49-53-72 6 67-26-67-26 72 6-49-53 62 37-22-70 41 60Z"/></svg>