<svg xmlns="http://www.w3.org/2000/svg" width="1200" height="720"><path fill="#24a34e" d="M0 720h1200V0H0Z"/><path fill="#f42a41" d="M0 480h1200V0H0Z"/><path fill="#003396" d="M0 240h1200V0H0Z"/><circle cx="400" cy="360" r="223" fill="#0a1a1d"/><path fill="#fcd80e" d="M190 360c0-114 88-205 202-209v45c-24 10-23 19-23 43 6-5 17-8 23-11v23c-12 4-21 15-21 28 0 14 9 24 21 28v6c-10-1-18-5-26-21-3-7-11-17-17-23 3 7 6 20 7 32 1 23 20 26 36 27v2h-29v16h29v2c-27 4-29 29 0 34v2h-29v16h29v2c-22 2-33 11-35 25-2 23-6 45-8 55 19-22 16-52 43-58v3c-21 11-21 55 0 66v12c-34 2-49 24-72 49-73-24-130-109-130-194Zm290 194c-23-25-38-47-72-49v-12c21-11 21-55 0-66v-3c27 6 24 36 43 58-2-10-6-32-8-55-2-14-13-23-35-25v-2h29v-16h-29v-2c28-5 27-30 0-34v-2h29v-16h-29v-2c16-1 35-4 36-27 1-12 4-25 7-32-6 6-14 16-17 23-8 16-16 20-26 21v-6c12-4 21-14 21-28 0-13-9-24-21-28v-35c11-10 27-28 27-46-5 9-18 14-27 19v-38c114 4 202 95 202 209 0 85-57 170-130 194Z"/></svg>