<svg xmlns="http://www.w3.org/2000/svg" xmlns:xlink="http://www.w3.org/1999/xlink" width="1000" height="600"><defs><linearGradient id="e" x1="498.738" x2="500.626" y1="289.055" y2="283.42" gradientUnits="userSpaceOnUse"><stop offset="0" stop-color="#961538"/><stop offset=".3" stop-color="#961538"/><stop offset="1" stop-color="#c40f38"/></linearGradient><linearGradient id="f" x1="501.444" x2="502.927" y1="291.373" y2="287.449" gradientUnits="userSpaceOnUse"><stop offset="0" stop-color="#f42a41"/><stop offset="1" stop-color="#e30631"/></linearGradient><linearGradient id="j" x1="484.764" x2="484.764" y1="311.709" y2="317.647" gradientUnits="userSpaceOnUse"><stop offset="0" stop-color="#fcd80e"/><stop offset="1" stop-color="#24a34e"/></linearGradient><linearGradient id="a" gradientUnits="userSpaceOnUse"><stop offset="0" stop-color="#001f56"/><stop offset=".5" stop-color="#003396"/><stop offset="1" stop-color="#001f56"/></linearGradient><linearGradient xlink:href="#a" id="g" x1="444.509" x2="634.411" y1="317.486" y2="317.486"/><clipPath id="b"><path d="m500 226.4-63.7 110.3h127.4z"/></clipPath></defs><path fill="#0859b9" d="M0 0h1000v600H0z"/><path fill="#faf6f5" d="M0 200h1000v200H0z"/><path fill="#ffb81c" d="m410 299.3 10 .7v-1.5l-3.8-.2.3-4.8 4.1-3 .1-1.9-4.3 3.2c-.2-1-.8-2.1-1.8-2.5-1-.3-2-.4-2.8.3-1 .7-1.2 2-1.3 3.2l-.5 6.5zm1.5-1.3.4-5c0-.8.2-1.7 1-2.2.6-.4 1.5-.1 1.8.6.5 1.3.3 2.6.2 4l-.2 2.8-3.2-.2zm-.2-14 9.7 2.3 2.2-9.5-1.3-.3-2 8-2.9-.7 1.7-7.2-1.4-.3-1.7 7.2-2.6-.6 1.8-7.7-1.4-.4-2.1 9.2zm3.5-13 9.5 3.2.4-1.4-3.7-1.3 1.5-4.2c.3-1.2.5-2.6-.1-3.7a3 3 0 0 0-2.6-1.3c-1 0-2 .9-2.5 1.8-.7 1.3-1 2.8-1.6 4.2l-.9 2.6zm1.8-1 1.5-4.2c.4-.8.8-1.7 1.7-2 .7 0 1.4.5 1.5 1.2.1 1.3-.4 2.6-.8 3.8l-.8 2.3-3-1zm3.4-11.2 5.4 3.1c1 .6 2.3.9 3.3.3a8 8 0 0 0 3-3.7c.6-1.2 1-2.7.3-4-.8-1.2-2.1-1.8-3.3-2.5l-3.5-2-.7 1.2 5 3c.9.5 1.5 1.4 1.4 2.4a7.4 7.4 0 0 1-1.5 3.1c-.6.8-1.5 1.4-2.5 1.2-1-.2-1.8-.8-2.7-1.3l-3.4-2-.8 1.2zm7.2-11.7 8 6 3.7-4.8c.7-1 1.3-2.3.9-3.6a3 3 0 0 0-2.6-1.8c-.5 0-1.2.3-1.4.5.3-1.1-.6-2.1-1.6-2.4-1.2-.4-2.4.4-3.2 1.2l-2.5 3.2-1.3 1.7zm2-.3 2.8-3.6c.5-.5 1.2-1 2-.7.5.3.7 1 .4 1.6-.5 1-1.3 2-2 2.9l-1 1.4-2.2-1.6zm3.3 2.4 2.9-3.7c.5-.5 1.1-1.2 2-1 .7.1 1.2.9 1 1.6-.5 1.3-1.4 2.3-2.2 3.4l-1.3 1.6-2.4-1.9zm3.7-12.7 6.9 7.2 5.9-5.5-1-1-4.7 4.4h-.2l-5.8-6.1zm8.8-7.7 6.1 7.9 1.2-1-6-7.9zm9-6.1c-1 .6-1.8 1.3-2.4 2.1s-1 1.8-1 2.7.2 1.8.7 2.6a5.1 5.1 0 0 0 2 1.9c.8.4 1.7.6 2.7.5s2-.6 3.3-1.3c1.1-.8 2-1.6 2.5-2.6a4.3 4.3 0 0 0 .4-2.9l-1.4.5c.4 2-1 3-2.4 4-2.2 1.3-4.4 1.2-5.8-.9-1.4-2.3.1-4.2 2-5.5 1.4-.8 2.8-1.4 4-.6l1.1-1a4 4 0 0 0-2.5-.7c-1 .1-2 .5-3.2 1.2zm11.8-6-1 11.3 1.5-.6.3-3.5 5.1-2 2.6 2.2 1.6-.6-8.5-7.4-1.6.7zm1.4 1.2 3.3 2.9-3.7 1.5.4-4.4zm20.5-7.3.6 10 5.5-.4c1.4-.1 2.9-.5 3.9-1.6 1.2-1.4 1.4-3.5.9-5.2a4.4 4.4 0 0 0-3.4-3c-1.5-.3-3.1 0-4.6 0l-2.9.2zm1.6 1.3 4.3-.2a3.7 3.7 0 0 1 2.3.7c1 .7 1.6 2 1.4 3.1 0 1.4-1 2.7-2.4 3l-2.4.4-2.8.2-.4-7.2zm12.4-1.9-.6 10 9.7.5v-1.4l-8.2-.5.2-3 7.4.4.1-1.4-7.4-.4.1-2.7 8 .5v-1.5l-9.3-.5zm26 4.2-3.5 9.3 1.2.5 3-7.4v-.4l.2.4 3.5 10 1.7.6 3.6-9.3-1.3-.5-2.9 7.4-.1.4-.2-.5-3.4-9.9zm13.5 5.7-4.5 9-1.4-.7 4.6-9zm7.6 4.5c-1-.7-2-1.1-3-1.3s-2-.2-2.8.2-1.6 1-2.1 1.8a5.1 5.1 0 0 0-.9 2.5c0 1 .2 1.8.7 2.7s1.3 1.6 2.5 2.4c1.2.7 2.3 1.1 3.4 1.2 1 0 2-.2 2.8-.8l-1-1c-1.7 1-3.1.3-4.6-.6-2.2-1.5-3-3.5-1.7-5.6 1.6-2.3 4-1.7 5.9-.4 1.3.8 2.4 1.8 2.2 3.3l1.3.6a4 4 0 0 0-.4-2.6 6.8 6.8 0 0 0-2.3-2.4zm9.5 7.1-10.5 4.2 1.3 1.1 3.2-1.3 4.1 3.6-.8 3.4 1.3 1 2.6-10.9-1.2-1zm-.4 1.8-1 4.2-3.1-2.6 4-1.6zm8 5.2-7.8 6.3 1 1.2 3-2.5 3 3.7-.9 5 1.2 1.5 1-5.4c.8.7 2.1 1 3.1.5 1-.4 1.7-1.2 1.8-2.2 0-1.4-1-2.5-1.7-3.5l-3.8-4.6zm-.2 2 3.2 4c.5.7 1 1.7.5 2.5-.4.8-1.4.7-2 .2-1.2-.8-2-2-3-3.2l-1.2-1.4 2.5-2zm11.8 13.9-11.2.5.8 1.5 3.5-.2 2.7 4.7-1.9 3 .9 1.4 6-9.4-.8-1.5zm-1 1.5-2.3 3.7-2-3.5 4.4-.2zm7.4 11.7c-.6-1.7-1.6-3.4-3.2-4.2-1.9-1-4.4-.5-5.7 1.1-1.1 1.4-1.2 3.3-.9 5 .4 1.9 1.3 3.7 2.6 5.1l-.8.3.5 1.3 4.7-1.6-1.8-5-1.1.3 1.3 3.7-1.6.6a8.7 8.7 0 0 1-2.5-4.8c-.3-1.3-.4-2.9.7-4s3.2-1.5 4.5-.5c1.4 1 2.2 2.7 2.6 4.3.2 1 .2 2.3-.6 3.1-.2.2.1.4.2.6l.4.7a3.5 3.5 0 0 0 1.3-2.8c0-1.1-.2-2.2-.6-3.2zm3 7.8-5.7 1.1c-1 .2-1.8.6-2.3 1s-.9 1-1 1.9a8 8 0 0 0 0 3 8 8 0 0 0 1.1 2.8c.5.7 1 1.2 1.7 1.4s1.4.2 2.5 0l5.6-1-.3-1.5-5.5 1c-2.4.5-3.2-.7-3.7-3-.4-2.2-.1-3.7 2.3-4.2l5.5-1-.3-1.5zm3 17-10.4-4.4.2 1.7 3.2 1.4.4 5.4-3 1.8.1 1.7 9.6-5.9-.1-1.6zm-1.5 1-3.8 2.3-.3-4 4 1.7zm-170.6 25-1.5.3 1.6 6.1 1.5-.4zm164.5 0 1.4.3-1.6 6.1-1.4-.4zm-149 25.6-11.3 1.3 1 1.4 3.4-.4 3 4.5-1.6 3 1 1.4 5.4-9.8-1-1.4zm-1 1.6-2 3.8-2.3-3.3 4.4-.5zm5.2 4.5-7.1 6.7 1 1 6-5.6-3.2 8.6 1 1.2 8.7-2.6-6 5.5 1 1 7.2-6.6-1.5-1.6-8.7 2.6 3.2-8.4zm10.4 10.6-6 8 7.7 5.8.9-1.1-6.6-5 1.8-2.4 6 4.5.8-1.2-6-4.4 1.7-2.2 6.3 4.8 1-1.1-7.6-5.7zm9.8 7.2-4.7 8.8 1.2.7 1.9-3.5 4.3 2.2 1 5 1.6 1-1-5.4c1 .4 2.3.2 3-.7.7-.7 1.1-1.7.8-2.6-.4-1.3-1.6-2-2.7-2.7l-5.4-2.8zm.6 1.9 4.5 2.5c.7.4 1.6 1 1.5 2-.1.8-1 1.2-1.7 1-1.5-.2-2.7-1-4-1.7l-1.8-1 1.5-2.8zm10.7 4-3.8 9.2 1.4.6 3.7-9.3zm9 3a8.4 8.4 0 0 0-3.2-.4c-1 0-2 .4-2.7 1s-1.2 1.2-1.6 2.2a5.1 5.1 0 0 0-.1 2.7c.2.9.6 1.7 1.3 2.4s1.7 1.2 3.1 1.7c1.3.4 2.5.5 3.5.3s1.9-.8 2.6-1.6l-1.3-.7c-1.3 1.5-2.9 1.2-4.5.6-2.5-.8-3.9-2.6-3.1-5 .9-2.5 3.3-2.6 5.5-1.9 1.5.5 2.8 1.2 3 2.7l1.5.2a4 4 0 0 0-1.1-2.4 6.8 6.8 0 0 0-3-1.7zm10 2.3-6.5 9.2 1.7.2 2-2.8 5.4.8 1.1 3.3 1.7.2-3.7-10.6-1.7-.3zm.6 1.7 1.5 4.2-4-.6 2.5-3.6zm22.9-1.6c-1.2.2-2.2.6-3 1.2s-1.5 1.2-2 2-.4 1.8-.2 2.8a5.1 5.1 0 0 0 1.2 2.4 4.5 4.5 0 0 0 2.3 1.5 8 8 0 0 0 3.5 0c1.4-.3 2.5-.8 3.3-1.5.8-.7 1.2-1.6 1.4-2.6h-1.5c-.3 2-1.9 2.4-3.6 2.7-2.6.5-4.6-.4-5.1-2.8-.5-2.7 1.6-4 3.9-4.4 1.6-.3 3-.4 4 .9l1.3-.5a4 4 0 0 0-2.1-1.6c-1-.3-2.1-.4-3.4-.1zm6.6-1.2 2.9 9.6 9.3-2.8-.4-1.3-8 2.3-.8-2.9 7.2-2.1-.4-1.4-7.2 2.1-.8-2.5 7.7-2.3-.4-1.4-9 2.7zm10.9-3.4 4.2 9 1.2-.5-3.5-7.6 9.7 4.5c.2.2.4 0 .6 0l1.3-.6-4.2-9.1-1.2.6 3.4 7.5-9.9-4.5-1.6.7zm11-5.1.7 1.1 3.6-2.3.1-.1.1.1 4.7 7 1.2-.7-4.7-7v-.2l3.7-2.4-.8-1.2zm10-7 6.8 7.4 1-1-2.6-2.9 3.5-3.2 5.1.6 1.4-1.2-5.4-.7c.7-1 1-2.2.3-3.2-.4-.9-1.3-1.6-2.3-1.6-1.4 0-2.5 1-3.4 1.8l-4.4 4zm2 .1 3.9-3.4c.6-.6 1.6-1.2 2.5-.7.7.4.7 1.4.3 2-.8 1.3-2 2.2-3 3.2l-1.5 1.3-2.2-2.4zm9.6-11.7 4.5 10.3 1-1.3-1.3-3.2 3.4-4.2 3.5.8 1-1.3-11-2.4-1 1.3zm1.8.4 4.3.9-2.5 3.1-1.8-4zm2.6-6 8.4 5.4 4.4-6.8-1.2-.8-3.5 5.5-.1.1h-.1l-7.1-4.7z"/><g clip-path="url(#b)"><path fill="#faf6f5" d="M500 226.4 468.5 281l-15.4 26.7h93.8l-14.7-25.4-32.2-55.8z"/><g id="d"><g id="c"><path fill="#00b6d9" stroke="#00b6d9" stroke-width=".129" d="m500 226.4-2.4 4 2.4 55 2.4-55z" opacity=".62"/><path fill="#faf6f5" d="M500 277.5h-.1l.1 3 .1-3h-.1z"/></g><use xlink:href="#c" transform="rotate(72 500.001 285.467)"/><use xlink:href="#c" transform="rotate(144 500.001 285.467)"/><use xlink:href="#c" transform="rotate(216 500.001 285.467)"/><use xlink:href="#c" transform="rotate(288 500.001 285.467)"/></g><use xlink:href="#d" transform="rotate(8 500.001 285.467)"/><use xlink:href="#d" transform="rotate(16 500.001 285.467)"/><use xlink:href="#d" transform="rotate(24 500.001 285.467)"/><use xlink:href="#d" transform="rotate(32 500.001 285.467)"/><use xlink:href="#d" transform="rotate(40 500.001 285.467)"/><use xlink:href="#d" transform="rotate(48 500.001 285.467)"/><use xlink:href="#d" transform="rotate(56 500.001 285.467)"/><use xlink:href="#d" transform="rotate(64 500.001 285.467)"/><path fill="#e30631" d="M500 265.8a44.2 44.2 0 0 0-29 10.8L456.4 302a44.7 44.7 0 0 0-.8 8.3h5a39.3 39.3 0 0 1 78.7 0h5a44.9 44.9 0 0 0-.7-8.3L529 276.6a44.2 44.2 0 0 0-29-10.8z"/><path fill="#f76230" d="M500 266.7a43.5 43.5 0 0 0-30.3 12.2l-12 20.9a43.6 43.6 0 0 0-1.3 10.4h4.3a39.3 39.3 0 0 1 78.6 0h4.3c0-3.6-.5-7.1-1.3-10.5l-12-20.8a43.5 43.5 0 0 0-30.3-12.2z"/><path fill="#fcd80e" d="M500 267.5a42.6 42.6 0 0 0-32 14.3l-8.7 15a42.7 42.7 0 0 0-2 13.4h3.4a39.3 39.3 0 0 1 78.6 0h3.5c0-4.6-.8-9.1-2.1-13.3l-8.8-15.1a42.7 42.7 0 0 0-31.9-14.3z"/><path fill="#24a34e" d="M500 268.3a42 42 0 0 0-35 18.6l-2.7 4.9a41.8 41.8 0 0 0-4.3 18.5h2.7a39.3 39.3 0 0 1 78.6 0h2.7a41.8 41.8 0 0 0-4.3-18.5l-2.8-5a42 42 0 0 0-34.9-18.5z"/><path fill="#62c1f2" d="M500 269a41.2 41.2 0 0 0-41.2 41.3h1.9a39.3 39.3 0 0 1 78.6 0h1.9A41.2 41.2 0 0 0 500 269z"/><path fill="#003396" d="M500 269.8a40.4 40.4 0 0 0-40.4 40.4h1.4a39 39 0 1 1 78 0h1.4a40.4 40.4 0 0 0-40.4-40.4z"/><path fill="#961538" d="M500 270.7a39.6 39.6 0 0 0-39.6 39.5v.8h.8a35.8 35.8 0 0 1 0-.8 38.8 38.8 0 0 1 77.6 0v.8h.8v-.8a39.6 39.6 0 0 0-39.6-39.5z"/><path fill="#961538" d="M500.4 288.1c-.6 0-1.2-.5-1.8-.6-.7.7-.8 1.5-.7 2.1.3.1.3.4.9.9s.5.7.4 2c0 .4.1 1.5.6 1.6.6.1 1-.3 1.1-1.1.1-.8.4-1.3.7-1.8.3-1.8-.2-2.5-1.2-3z"/><path fill="#e30631" d="M497.2 283.5c-.6 0-1.6 1-2 .5-.2-.3-.3-.9 0-1.4a4.8 4.8 0 0 1 2.2-2.3c2.3-1.4 3.8-1 5 1a13 13 0 0 1 2.3 5.4c0 .5.3 1.4-.2 1.9-1.3 1.4-4.6-1.5-6.5-1-.6.1-1.4.6-2 .2-.4-.3 0-1 .3-1.3.6-.5 1.5-2.4 1.4-3.2 0-.4 0 .2-.5.2z"/><path fill="url(#e)" d="M497 282.5c-1.2.5-1 1.1-1.6 1.6.2.1.8.3 1.4-.3.2-.2.5-.3.7-.3l-.7.7c-.4.3-1 1-1.4 1.8s-.4 1.7-.3 1.8.4.8 1.5 1.2c2 .8 2.4 2.5 4.5 2.5 1.6 0 1.4-1.1 2.6-.9 1.2.2 1.8-.7.7-1.2a14 14 0 0 0-5.4 0c-.4-4 0-2.6-.1-4.4s-.7-1.8 0-3.3c-.5 1-1.2.8-2 .8z"/><path fill="#f42a41" d="m501 279.8-.1.6.3 1 .2 1c0 .3.4.4.7.6.4.3 0 1 .3 1.1.2 0 .5-1 .5-1.2a3.8 3.8 0 0 0 0-.7 15.3 15.3 0 0 0-.5-.9 3.7 3.7 0 0 0-.2-.3 4.2 4.2 0 0 0-.8-.9l-.3-.2-.2-.1z"/><path fill="url(#f)" d="m501.2 287.4-2-.7c-1.2-.4-2.5-1.2-3.4-.8-.3.1-.2.4-.3.9 0 .5-.6 1.3-.2 1 .7-.4 2.5.8 3.1 1.1.3.2 1 .6 1.1 1v2.4c0 .5.2 1.8.7 2 .6.1 1.1-.4 1.3-1.3.3-.9.4-1.4.8-1.9s.8-.8 1.3-.9 1.4.5 1.4-.2c0-.4-.4-.8-.2-1.4.1-.5-.4-.4-.9-.6l-2.7-.6z"/><path fill="#961538" d="M498.4 288.9c-.4-.2-2.4-1.5-3-1-.3 0-.4 0-.4-.3l.2-.9c0-.3.2-.8.5-1 .7-.6 2.3.5 3.1.8l-.4 2.4z"/><path fill="#f42a41" d="M501.8 291.4c.9-1.6 1.5-1.4 2.6-1.4.3 0 .5-.3.4-.7-.3.6-1.7 0-2.4.3-1.6.7-1.3 3.8-2 4 .7.7 1-1.7 1.4-2.2z"/><g fill="url(#g)"><path fill="#faf6f5" d="m453.1 307.6-10 17.3H557l-10-17.3h-93.8z"/><g id="i"><path id="h" d="M449.7 321.4c-1.7 0-3.2.1-4.7.3l-.5.9 7.1-.7c3.3 0 6.3.8 9.8.8h4.6c3.5 0 6.5-.8 9.7-.8 3.3 0 6.3.8 9.8.8h4.6c3.5 0 6.5-.8 9.7-.8 3.3 0 6.3.8 9.8.8h4.6c3.5 0 6.4-.8 9.7-.8 3.3 0 6.3.8 9.8.8h4.6c3.5 0 6.4-.8 9.7-.8 2.6 0 5 .5 7.5.7l-.5-1-4.4-.2h-4.5c-3.5 0-6.5.7-9.8.8-3.3 0-6.3-.8-9.8-.8H522c-3.5 0-6.5.7-9.8.8-3.3 0-6.3-.8-9.8-.8H498c-3.5 0-6.5.7-9.8.8-3.3 0-6.3-.8-9.8-.8h-4.5c-3.5 0-6.5.7-9.8.8-3.3 0-6.2-.8-9.7-.8h-4.6z"/><use xlink:href="#h" y="-1.113"/><use xlink:href="#h" y="-2.23"/></g><use xlink:href="#i" y="-3.344"/><use xlink:href="#i" y="-6.691"/><path d="M453.2 307.5v.2h93.7l-.1-.2h-93.6zm-.2.3-.1.3H547l-.1-.3h-94zm-.2.4-.2.3h94.8l-.2-.3h-94.4zm-.3.5-.3.5h95.6l-.3-.5h-95zm-.4.7-.3.5h96.4l-.3-.5h-95.8zm-.4.7-.3.4h97.2l-.3-.4h-96.6zm-.4.7-.3.4h98l-.3-.4h-97.4zm-.4.8-.3.5h98.8l-.3-.5H451zm6.5.7c3.4.6 3.7 0 3.7 0zm81.5 0s.3.6 3.7 0z"/></g><g fill="#fcd80e"><g id="k"><path fill="url(#j)" d="M530.6 297c-1.7 0-2.2 1-2.2 1-2.7 10.5-11.8 21.2-22.6 21.2h-8V330h61.4l-6.2-11c-9.7-1.4-17.6-11.3-20.1-21 0 0-.6-1-2.3-1z"/><path fill="#24a34e" d="M530.6 297.5c-.8 0-1.2.1-1.5.3l-.3.3a33.6 33.6 0 0 1-8.4 14.7c-4 4.1-9 6.9-14.6 6.9h-7.7v9.9H559l-5.7-10c-4.7-.7-9-3.2-12.4-6.8-4-4-7-9.4-8.4-14.7l-.3-.3c-.3-.1-.8-.3-1.6-.3z"/><path fill="#fcd80e" d="M530.6 297.5h.4v10.8c0 2.3-.8 4.2-2 6.4-.5 1.6-1 1-2.3 2.9a39.1 39.1 0 0 1-16 1.4c3.6-1.1 7-3.3 9.7-6.2a30.6 30.6 0 0 0 2.1-2.4 33.7 33.7 0 0 0 3-4.4 33.8 33.8 0 0 0 3.3-7.9s0-.1.3-.3a2.2 2.2 0 0 1 .6-.2l1-.1z"/><path fill="#fcd80e" d="M530 298.9c-.5 6-2.3 13.2-6.7 17.8-1.6 1.3-3.7 2.6-5.7 2.3 6.8-5.5 11-14 12.3-20.1z"/><path fill="#24a34e" d="M524.5 309.3a31 31 0 0 1-8.8 10h-2.9c2.5-.2 8.3-5 11.7-10z"/></g><use xlink:href="#k" x="-15.341"/><g fill="#fcd80e"><path fill="url(#j)" d="M502.2 298c2.8 10.5 11.8 21.2 22.6 21.2h8V330h-65.7v-10.8h8c10.8 0 19.9-10.7 22.6-21.3 0 0 .6-.9 2.3-.9s2.2 1 2.2 1z"/><path fill="#24a34e" d="M500 297.5c.8 0 1.2.2 1.5.3l.4.3a33.6 33.6 0 0 0 8.3 14.7c4 4.1 9 6.9 14.6 6.9h7.7v9.9h-65v-10h7.7c5.5 0 10.6-2.7 14.6-6.8 4-4 6.9-9.4 8.3-14.7l.3-.3c.3-.2.8-.3 1.6-.3z"/><path fill="#fcd80e" d="M499.3 297.5a3.4 3.4 0 0 0-.3 0 2.2 2.2 0 0 0-.6.3l-.3.3-.6 2-.4 1-1.2 3a34.2 34.2 0 0 1-1 1.9 33.6 33.6 0 0 1-3 4.4 30.7 30.7 0 0 1-2.1 2.4 23 23 0 0 1-9.8 6.1c2.8.7 4 0 6.5-.4 2-.3 4.2-.6 6-1.2 1.4-2 1-1.3 1.5-2.9 1.2-2.2 3-4.2 3.4-6.7 1.6-3 1.9-8.6 1.9-10.2z"/><path d="M499.3 298.9c-.4 6-2.3 13.2-6.7 17.8-1.6 1.3-3.6 2.6-5.6 2.3 6.8-5.5 10.9-14 12.3-20.1z"/><path fill="#24a34e" d="M493.8 309.3a31 31 0 0 1-8.8 10h-2.8c2.5-.2 8.2-5 11.6-10z"/><path fill="#fcd80e" d="M501 297.6a2.2 2.2 0 0 1 .5.2l.4.3.6 2 .3 1 1.3 3 1 1.9a33.6 33.6 0 0 0 3 4.4 30.7 30.7 0 0 0 2.1 2.4 24 24 0 0 0 9.8 6.5c-7.3 0-10.4-.6-13-4s-3.6-4.8-4.2-7-2-6.5-1.8-10.7z"/><path d="M501.5 298.9c.4 6 2.2 12 6.6 16.6 1.6 1.4 3.6 2.6 5.6 2.3a31 31 0 0 1-12.2-18.9z"/></g><g id="l"><path fill="url(#j)" d="M484.7 297c-1.7 0-2.2 1-2.2 1-2.5 9.7-11.8 22.2-21.5 23.7l-4.8 8.3h49v-11.3c-8.8-2.4-15.9-11.7-18.2-20.8 0 0-.5-.9-2.3-.9z"/><path fill="#24a34e" d="M484.7 297.5c-.7 0-1.2.2-1.5.3a1 1 0 0 0-.3.3c-1.4 5.3-4.7 10.7-8.1 15s-9.7 8.6-14 9l-4.3 7.5h48v-10.7c-3.5-1.1-6.8-3.3-9.5-6-4-4.1-7-9.5-8.4-14.8l-.3-.3c-.3-.2-.8-.3-1.6-.3z"/><path fill="#24a34e" d="M483.4 298.9c-.6 9-5.6 20.5-11.3 22.4-1.9.7-5 .9-6.2 1a36 36 0 0 0 17.5-23.4z"/><path fill="#fcd80e" d="M484.7 297.5h-.4v10.8c0 2.3.9 4.2 2 6.4l.3.5c.4 1.1.7 1.5 2.2 2.7 5 3.8 11.2 4.3 14.8 4-1.1-.9-2.3-1.7-3.4-2.4a26 26 0 0 0 4.5-.5 23 23 0 0 1-9.7-6.2 30.5 30.5 0 0 1-1.4-1.5l-.6-.8a35 35 0 0 1-3.2-4.5 34.2 34.2 0 0 1-1-2 34 34 0 0 1-1.6-3.9 31.7 31.7 0 0 1-.6-2s0-.1-.3-.3a2.2 2.2 0 0 0-.6-.2 3.6 3.6 0 0 0-1-.1z"/><path d="M485.4 298.9c.5 6 2.3 13.2 6.7 17.8 1.6 1.3 3.7 2.6 5.6 2.3a38.4 38.4 0 0 1-12.3-20.1z"/><path fill="#24a34e" d="M489.6 307.2a35 35 0 0 0 14.6 15h2.5c-4.4-2.4-11.5-5.8-17-15z"/></g><use xlink:href="#l" x="-15.43" fill="#fcd80e"/></g><path fill="#faf6f5" d="M556.5 324.7c-.6.2-4.4-.2-6.4 0l-1.3.3h-3.3c-3.6 0-6.7 1-10.1 1-3.5 0-6.5-1-10-1H522c-3.6 0-6.7 1-10.1 1s-6.5-1-10-1h-3.4c-3.6 0-6.7 1-10 1s-6.5-1-10.1-1H475c-3.6 0-6.6 1-10 1s-6.5-1-10.1-1H451.5c-2.8 0-6.2.6-8.9.8l-6.3 10.9h127.4z"/><path fill="url(#a)" d="M548 323.1h-.6c-3.2.1-5.6 1.1-11.2 1.1s-6.2-1-12.6-.8c-6 0-8.4 1.2-11.7 1.2s-8.4-.7-12.5-.3-8.8 1.3-12 1.3c-3.8 0-7.8-.7-11.8-.3s-6 1.5-11.1 1.4c-4.4 0-9-.6-12.8-.6-3.4 0-7.2 1-10 1.4l-.9 1.5c2.3-.3 8.6-1.3 10.8-1.3 2.4 0 10.7.5 15.4.3s5.1-1.2 10.6-1.2c3.8 0 6.6.4 10.5.4 2.5 0 4.7-1.2 8.4-1.2l2.8-.1c3-.5 8.4 0 12 .2 3.3.2 5.5-.6 9-.7l4.4-.1c3.5-.2 6.4.6 9.7.6 3.2-.2 6.4-1 9.9-1l4.4-.2c2.3 0 5.9 0 8.3.5l-.8-1.5c-2.4 0-5.3-.6-8.2-.6z"/><g id="n"><path id="m" fill="url(#a)" d="M450.3 334.7c-3.4 0-6.4.9-9.6 1-1.2 0-2.4-.2-3.6-.4l-.5.9h6c3.5 0 6.4-.8 9.6-.9 3.3.1 6.2 1 9.7 1h4.5c3.4 0 6.4-.9 9.6-1 3.3.1 6.3 1 9.7 1h4.5c3.5 0 6.4-.9 9.6-1 3.3.1 6.2 1 9.7 1h4.5c3.4 0 6.4-.9 9.7-1 3.2.1 6.2 1 9.6 1h4.5c3.4 0 6.4-.9 9.6-1 3.3.1 6.3 1 9.7 1h4.5l1.8-.1-.5-.8-3.2.3c-3.3-.1-6.2-1-9.7-1h-4.5c-3.4 0-6.4.9-9.6 1-3.3-.1-6.2-1-9.7-1h-4.5c-3.4 0-6.4.9-9.6 1-3.3-.1-6.2-1-9.7-1h-4.5c-3.4 0-6.4.9-9.6 1-3.3-.1-6.2-1-9.7-1h-4.5c-3.4 0-6.4.9-9.6 1-3.3-.1-6.2-1-9.7-1h-4.5z"/><use xlink:href="#m" y="-1.289"/><use xlink:href="#m" y="-2.575"/></g><use xlink:href="#n" y="-3.867"/><use xlink:href="#n" y="-7.729"/><path fill="#24a34e" d="m443.8 324.7-2.4 4.2c2.9-.5 7.1-1.7 10.7-1.7 3.6 0 8 .9 12.4 1 5 0 7-1.2 11-1.6s8 .5 12 .6c3.1 0 7.9-1.1 12-1.5s7.7.2 12.5.3 5.7-1.2 11.6-1.3c6.4-.1 7 .9 12.6.9 4.2.2 7.9-.9 11.7-1.1s5.5 0 8.3 0l-1.9-3.2-101.3 2.3z"/><path fill="#faf6f5" d="m550 324.6 4 .3a91.4 91.4 0 0 0 2.9.3l-.4-.5c-.6.2-4.4-.2-6.4 0z"/></g><path fill="#ffb81c" d="m500 224.9-32.1 55.7-32.9 56.9h130l-32.2-55.7-32.8-57zm0 3 31.6 54.6 30.8 53.5H437.6l31.6-54.7z"/></svg>