<svg xmlns="http://www.w3.org/2000/svg" width="591" height="720"><path fill="#003396" d="M0 720h568L217 370h374L0 0Z"/><path fill="#e30631" d="M21 699V38l497 311H166l351 350H21z"/><path fill="#faf6f5" d="m145 311 62-20-16-13 16-12-20-5 10-18-20 3 3-21-18 11-5-20-12 16-12-16-5 20-18-11 3 21-20-3 10 18-20 5 16 12-16 13 62 20zm-99-79a99 99 0 1 0 198 0 107 107 0 0 1-198 0zm99 398 17-41 36 27-6-45 45 6-27-36 41-17-41-17 27-36-45 6 6-45-36 27-17-41-17 41-36-27 6 45-45-6 27 36-41 17 41 17-27 36 45-6-6 45 36-27 17 41z"/></svg>