<svg xmlns="http://www.w3.org/2000/svg" width="1200" height="720"><path fill="#012778" d="M0 0h600v360H0Z"/><path fill="#faf6f5" d="m600 34-154 96h154v100H446l154 96v34h-67L350 243v117H250V243L62 360H0v-34l154-96H0V130h154L0 34V0h67l183 117V0h100v117L538 0h62Z"/><path fill="#c40f38" d="M174 130 0 22V0l212 130ZM330 0h-60v150H0v60h270v150h60V210h270v-60H330Zm270 0h-38L350 130h38L600 0ZM0 360h38l212-130h-38Zm388-130 212 130v-22L426 230Z"/><circle cx="300" cy="180" r="51" fill="#012778"/><path fill="#fcd80e" d="M1200 0v720H0V360h600V0ZM348 164h-96l78 57-30-92-30 92 78-57ZM329 59h-58l47 33-18-54-18 54Zm0 230h-58l47 33-18-54-18 54Zm175-115h-58l47 33-18-54-18 54Zm-350 0H96l47 33-18-54-18 54Z"/></svg>