<svg xmlns="http://www.w3.org/2000/svg" width="1200" height="600"><path fill="#0f7d3a" d="M0 0h1200v600H0z"/><path fill="#e30631" d="M0 0h1200v400H0z"/><path fill="#faf6f5" d="M0 0h1200v200H0z"/><path fill="#e30631" d="M0 0h400v600H0z"/><svg x="50"><g id="a" fill="#faf6f5" fill-rule="evenodd" stroke="#e30631" stroke-width=".352"><rect width="38.669" height="21.217" x="65.854" y="102.64" stroke-width=".378" rx="3.215" ry="3.015"/><rect width="36.686" height="19.449" x="66.846" y="103.52" rx="3.05" ry="2.764"/><path stroke-width=".222" d="M83.9 108.8h1.9v1l1.6.7 1.1-1 1.5.8-1.4.9.4 1.1h1.6v1.5h-1.3l-.7.9 1.5 1.1-1.1.9-1.3-1-1.9.4.1 1.4-2 .2-.2-1.4-1.7-.7-1 1-1.4-.7.9-1.1-1-.7H78v-2h1.4l1-1-1.2-1 1.5-1 1.1.8 1.9-.2z"/><ellipse cx="68.944" cy="426.78" stroke-width="1.333" rx="11.049" ry="9.944" transform="matrix(.18418 0 0 .1752 71.766 38.246)"/></g><use xmlns:xlink="http://www.w3.org/1999/xlink" xlink:href="#a" width="100%" height="100%" x="-300" transform="scale(-1 1)"/><g id="b" stroke="#e30631"><path fill="#faf6f5" fill-rule="evenodd" stroke-width=".565" d="M126.5 147.1c-48.1 47-68.6 53-59 56.8 9.6 3.8 40.6-20.5 72.9-52.7 32.2-32.3 52-61 42.3-64.8-9.6-3.8-5 10.7-56.2 60.7z"/><path fill="#faf6f5" fill-rule="evenodd" stroke-width=".33" d="m86 181.3 16.9 4.4c-15.9 15-33.7 21.3-38.7 18.6-5-2.7 9-8.8 21.8-23z"/><path fill="#faf6f5" fill-rule="evenodd" stroke-width=".33" d="m86 183 13.9 3.6c-15.5 14.5-30.7 18.6-34.7 16.8-4-1.7 8.3-6.7 20.8-20.3z"/><path fill="none" stroke-width=".33" d="m137.8 145-.3 1.7v1.4c-.2.4-.2.7-.7.9-.3.4-.5.6-1 .8l-1.2.6c-.5.2-1 .2-1.5.1l-1.1-.7-.3-1.2c.2.3.3.9.3 1.4 0 .5-.3.8-.5 1.2m1.7 1.2v-.1l-.6-.3a6 6 0 0 0-1.6-.4h-1.7l-1.6.2-1.2.8a2 2 0 0 0-.8.9l-.9 1c0 .4-.4.4-.6.8.6 0 1 .1 1.4.4l-.6-.4c-.4 0-.5-.2-1.1-.2-.6-.2-1 .1-1.5.2-.3.2-.4.2-.9.2m5 2.3c-.2 0-1.3.2-1.8 0-.5 0-.8-.3-1-.7-.2-.3 0 .5 0 .8-.1.7-.4.7-.7 1.1l-1.1.7a4 4 0 0 1-1.1.5c-.4.2-.8.3-1.1.6-.4.2-.4.5-.6 1 0 .5.1.8.5 1 .1.4.4.8.7 1 .3.5.6.8-.1.9-.5.2-.7 0-1.1 0m-.3.8-1.8-.6h-1.8c-.6 0-.8.2-1.3.4-.4.4-.6.6-1.1.8-.3.3-.8.8-1 1.2-.2.4-.3.9-.3 1.4 0 .7.2.8.3 1.3.1.5.4 1 .7 1.3 0 .2.1.2.3.3m.1 1.4-.3.5c-.4.4-.4.4-1 .4s-.5-.2-1-.3l-.5-.9-.5-.7-.5-.7-.4-.2c.5 0 .5.3.8.5l.5.8.1 1.1-.1 1.2-.6.6-.7.7-.7.5-1 .4c-.5 0-.7-.2-1-.4l-1-.6c-.2-.1-.4-.4-.5-.7-.5 0-.8 0-1 .2l-.7.6-.5.4m1 .2.9.5.4 1.2.1 1.5c0 .5-.3 1-.5 1.4l-1 .6-1.4.1c-.3.1-1 .2-1.3 0-.5 0-.9-.2-1.2-.4l-1-.6-1-1-.6-1 .5 1.3c.3.5.4.6.5 1.2v1.5l-.1 1.3v.3m-10.4 1.7v.2c0-.4 0-.2.2.6.3.4 1.1.5 1.8.3.5-.4.5-.7 1.5-1 1 .1 1.4.4 2 .7.6.3 1 .4 1.4 1.1.2.5.3.9-.4 1-.5.4-1.2.6-2 .7-.7 0-1.3 0-1.7.3-.5.5-.5.8-.5 1.7-.2.3-.2 1.1-.3 1.4-.5.2-.8.4-1.6.4l-.5-2c-.2-.5-.2-1.3-.6-1.6a4.5 4.5 0 0 0-1.2-1.1c-.2-.3-.6-.5-1-.6.7.3.8.6.8 1.4-.6.2-.7.4-1.7.4s-1.2-.3-1.6-.8c0 .8-.3 1-.5 1.8-.4.4-.5 1-.9 1.5.2.8.5.8.5 1.7.3.6.2 1.2.7 1.6.3.2.4.3 1 .3-1 0-1.7 0-2.4-.5-.5-.2-.9-.6-1.4-.9-.6-.4-1.3-.8-2-1-.9 0-1.4 0-1.8.4-.5.3-.8.8-1 1.5-.2.8-.3 1.4.1 2 .3.5.4.7 0 1.5-.4.5-1 .5-1.9.7a6.7 6.7 0 0 1-1.7-.3"/><path fill="#faf6f5" fill-rule="evenodd" stroke-width=".447" d="M181.4 104.7c21.4-36.9 35.5-68.3 31.6-70-3.9-1.8-24.3 26.6-45.7 63.5z"/><path fill="#faf6f5" fill-rule="evenodd" stroke-width=".393" d="M180 104c20.6-35.5 34.8-65.6 31.7-67-3.1-1.4-22.4 26.3-43 61.8"/><path fill="#faf6f5" fill-rule="evenodd" stroke-width=".446" d="m176.5 85.5-7.8 13.3L180 104c2.6-4.4 5.4-9.1 7.7-13.3z"/><path fill="#faf6f5" fill-rule="evenodd" stroke-width=".446" d="m177.4 86.9-6.8 11.8 8.4 3.9 6.9-11.8z"/><path fill="#faf6f5" stroke-width=".447" d="M-205.7 6.6h6.2v10h-6.2z" transform="matrix(-.90832 -.41827 -.50125 .8653 0 0)"/><circle cx="545.67" cy="92.126" r="3.543" fill="#e30631" stroke-width="1.333" transform="matrix(-.449 .1132 .10134 .39387 444.347 -55.798)"/></g><use xmlns:xlink="http://www.w3.org/1999/xlink" xlink:href="#b" width="100%" height="100%" x="-300" transform="scale(-1 1)"/><path fill="#faf6f5" fill-rule="evenodd" stroke="#e30631" stroke-width=".407" d="M135.3 85c0 30.9.1 42.6-2.1 44.2-2.2 1.7-62.4 0-62.4 8.8s49.6 17.7 64.5 17.7c19.8 0 29.7-8.9 29.7-26.5V85z"/><path fill="#faf6f5" fill-rule="evenodd" stroke="#e30631" stroke-width=".352" d="M135.3 93.8v4.4a100.6 100.6 0 0 0 29.7 0v-4.4a100.6 100.6 0 0 1-29.7 0zm0-8.8v4.4a100.7 100.7 0 0 0 29.7 0V85a100.7 100.7 0 0 1-29.7 0z"/><path fill="#faf6f5" fill-rule="evenodd" stroke="#e30631" stroke-width=".352" d="M135.3 89.4v4.4a100.6 100.6 0 0 0 29.7 0v-4.4a100.7 100.7 0 0 1-29.7 0zm0 8.8v4.4c9.9 1.5 19.8 1.5 29.7 0v-4.4a100.6 100.6 0 0 1-29.7 0z"/><ellipse cx="256.89" cy="210.83" fill="#faf6f5" stroke="#e30631" stroke-width="4.463" rx="8.858" ry="26.575" transform="matrix(.15263 0 0 .03588 97.403 84.326)"/><ellipse cx="292.32" cy="246.26" fill="#faf6f5" stroke="#e30631" stroke-width="4.463" rx="8.858" ry="26.575" transform="matrix(.15263 0 0 .03588 97.403 83.53)"/><ellipse cx="327.76" cy="263.98" fill="#faf6f5" stroke="#e30631" stroke-width="4.463" rx="8.858" ry="26.575" transform="matrix(.15263 0 0 .03588 97.403 83.372)"/><ellipse cx="363.19" cy="263.98" fill="#faf6f5" stroke="#e30631" stroke-width="4.463" rx="8.858" ry="26.575" transform="matrix(.15263 0 0 .03588 97.403 83.372)"/><ellipse cx="398.62" cy="246.26" fill="#faf6f5" stroke="#e30631" stroke-width="4.463" rx="8.858" ry="26.575" transform="matrix(.15263 0 0 .03588 97.403 83.53)"/><ellipse cx="434.06" cy="210.83" fill="#faf6f5" stroke="#e30631" stroke-width="4.463" rx="8.858" ry="26.575" transform="matrix(.15263 0 0 .03588 97.403 84.326)"/><path fill="#faf6f5" fill-rule="evenodd" stroke="#e30631" stroke-width=".352" d="m135.3 107 29.7 24m-26.8-24 26.8 21.3m-22.8-20.4 22.8 17.7M145.2 108l19.8 15m-16.9-15 17 12.4M151 108l14 9.8m-11-9.8 11 7.1m-8-7 8 5.2m-5-5.3 5 3.6m-2-3.6 2 1.8m-29.8 0 29.7 23.9m0-26.5-32.7 26.5M162 107l-28.7 23m24.8-22.2-22.8 17.7M155 108l-19.8 15m16.8-15-16.8 12.4M149 108l-13.8 9.8m10.9-9.8-11 7.1m8-7-8 5.2m5-5.3-5 3.6m2-3.6-2 1.8m29.8 0-32.7 26.5m32.7-23.8-32.7 26.5M165 115l-32.7 26.5m32.7-23.8-32.7 26.5m32.7-23.9-32.7 26.5M165 123l-32.7 26.5m32.7-23.9-32.7 26.5m32.7-23.8-32.7 26.5m32.7-23.9-30.7 24.8m30.7-22.1-27.8 22m26.8-18.5-21.8 17.7m20.8-14.2-17.8 14.2m15.8-9.7-8.9 7m-16.8-39.7 28.7 23M135.3 115l28.7 23m-28.7-20.3 27.7 22m-27.7-19.4 27.7 22.1M135.3 123l26.7 21.2m-27.7-19.5L161 146m-26.7-18.6 24.8 19.4m-25.8-17.6 24.8 19.4M132.3 131l23.8 18.6m-23.8-16 22.8 17.8m-22.8-15L152 152m-16.8-49.5v4.5c9.9 1.4 19.8 1.4 29.7 0v-4.5c-10 1.5-19.8 1.5-29.7 0zm-3 36.3L150 153m-17.8-11.5L148 154m-15.8-9.7 13.9 10.6m-14-8 10 8m-10-5.3 8 6.2m-8-3.6 5 3.6"/><ellipse cx="256.89" cy="210.83" fill="#faf6f5" stroke="#e30631" stroke-width="4.463" rx="8.858" ry="26.575" transform="matrix(.15263 0 0 .03588 97.403 97.586)"/><ellipse cx="292.32" cy="246.26" fill="#faf6f5" stroke="#e30631" stroke-width="4.463" rx="8.858" ry="26.575" transform="matrix(.15263 0 0 .03588 97.403 96.791)"/><ellipse cx="327.76" cy="263.98" fill="#faf6f5" stroke="#e30631" stroke-width="4.463" rx="8.858" ry="26.575" transform="matrix(.15263 0 0 .03588 97.403 96.632)"/><ellipse cx="363.19" cy="263.98" fill="#faf6f5" stroke="#e30631" stroke-width="4.463" rx="8.858" ry="26.575" transform="matrix(.15263 0 0 .03588 97.403 96.632)"/><ellipse cx="398.62" cy="246.26" fill="#faf6f5" stroke="#e30631" stroke-width="4.463" rx="8.858" ry="26.575" transform="matrix(.15263 0 0 .03588 97.403 96.791)"/><ellipse cx="434.06" cy="210.83" fill="#faf6f5" stroke="#e30631" stroke-width="4.463" rx="8.858" ry="26.575" transform="matrix(.15263 0 0 .03588 97.403 97.586)"/><path fill="#faf6f5" fill-rule="evenodd" stroke="#e30631" stroke-width=".352" d="m92.6 148.6 35.7-18.6m-37.7 17.7 33.8-17.7m-34.7 16 30.7-16m-31.7 14.2 26.7-14.2m-28.7 12.4 24.8-12.4m-23.8 9.8 16.8-8.9M86.7 138l12.9-7m-13 4.4 9-4.5m0 18.6 33.7-17.7m-30.7 18.6 31.7-16.8m-28.8 17.7 29.8-16m-26.8 16.8 24.8-13.2M108.5 152l21.8-11.5M111.5 153l18.8-9.7m-15.9 10.6 15-8m-11 8 11.9-6.2m-8 7.1 8-4.4m-4 4.4 5-2.7m2-23h-5a71.7 71.7 0 0 0 0 26.6h5a71.2 71.2 0 0 1 0-26.5zm-58.5 12.4 11.9-8.8m-12 2.6 12 10.7"/><path fill="#faf6f5" fill-rule="evenodd" stroke="#e30631" stroke-width=".251" d="m92.6 131-6 .8a32.4 32.4 0 0 0 0 16l6 1.7a44 44 0 0 1 0-18.6z"/><path fill="#faf6f5" fill-rule="evenodd" stroke="#e30631" stroke-width=".431" d="M165 86.7v-4.4c-4.5 0-7.5-2.6-7.5-5.3h-14.8c0 2.7-3 5.3-7.4 5.3v4.4z"/><path fill="#faf6f5" stroke="#e30631" stroke-width=".364" d="M143.8 71.7h12.7V77h-12.8zm1-5.3h10.6v5.3h-10.6zm0-5.3h10.6v5.3h-10.6z"/><path fill="#faf6f5" stroke="#e30631" stroke-width=".364" d="M145.9 54h8.5v7h-8.5z"/><path fill="#faf6f5" stroke="#e30631" stroke-width=".38" d="M145.5 47.8h9.2V54h-9.2z"/><ellipse cx="237.4" cy="161.22" fill="#faf6f5" stroke="#e30631" stroke-width="1.333" rx="42.52" ry="33.661" transform="matrix(.28916 0 0 .2495 81.983 1.86)"/><path fill="#faf6f5" fill-rule="evenodd" stroke="#e30631" stroke-width=".358" d="M156.8 41.6c0 2.4 3 6.2 3 6.2a17.5 17.5 0 0 1-9.2 2.7c-3.4 0-7.6-.6-9.2-2.7 0 0 3-3.8 3-6.2 0-2.3-3-5.3-3-5.3a17.5 17.5 0 0 1 18.4 0s-3 3-3 5.3z"/><path fill="#faf6f5" fill-rule="evenodd" stroke="#e30631" stroke-width=".358" d="M154.7 41.6c0 2.4 3.1 7.1 3.1 7.1-2.2 1.5-3.8 1.8-7.2 1.8s-5.5.2-7.1-1.8c0 0 3-4.7 3-7 0-2.4-3-6.2-3-6.2 2.2-1.6 3.7-1.8 7.1-1.8s5 .2 7.2 1.8c0 0-3 3.8-3 6.1z"/><circle cx="194.88" cy="166.54" r="10.63" fill="#faf6f5" stroke="#e30631" stroke-width="1.333" transform="matrix(.28916 0 0 .2495 81.983 .975)"/><circle cx="194.88" cy="166.54" r="10.63" fill="#faf6f5" stroke="#e30631" stroke-width="1.333" transform="matrix(.28916 0 0 .2495 106.572 .975)"/><circle cx="194.88" cy="166.54" r="10.63" fill="#faf6f5" stroke="#e30631" stroke-width="1.333" transform="matrix(.28916 0 0 .2495 94.278 .975)"/><circle cx="194.88" cy="166.54" r="10.63" fill="#faf6f5" stroke="#e30631" stroke-width="1.333" transform="matrix(.28916 0 0 .2495 94.278 -7.865)"/><circle cx="194.88" cy="166.54" r="10.63" fill="#faf6f5" stroke="#e30631" stroke-width="1.333" transform="matrix(.29948 0 0 .2495 83.264 42.524)"/><circle cx="194.88" cy="166.54" r="10.63" fill="#faf6f5" stroke="#e30631" stroke-width="1.333" transform="matrix(.29948 0 0 .2495 100.242 42.524)"/><path fill="#faf6f5" fill-rule="evenodd" stroke="#e30631" stroke-width=".364" d="M142.7 77h14.8l-7.4 8z"/><circle cx="194.88" cy="166.54" r="10.63" fill="#faf6f5" stroke="#e30631" stroke-width="1.333" transform="matrix(.39931 0 0 .33266 72.298 27.79)"/><rect width="22.805" height="5.304" x="133.77" y="109.72" fill="#faf6f5" stroke="#e30631" stroke-width=".33" rx="1.238" ry=".938"/><path fill="#faf6f5" fill-rule="evenodd" stroke="#e30631" stroke-width=".33" d="M163.5 105.3c-2.7 0-5 2-5 4.6v4c0 2.6 2.3 4.7 5 4.7s5-2.1 5-4.7v-4c0-2.5-2.2-4.6-5-4.6zm0 1.8c-1.6 0-3 1.6-3 3.7v2.3c0 2 1.4 3.7 3 3.7s3-1.7 3-3.7v-2.3c0-2-1.3-3.7-3-3.7zm-25.8-1c-1.6 0-3 1.7-3 3.8v4c0 2.1 1.4 3.8 3 3.8 1.7 0 3-1.7 3-3.7v-4.1c0-2-1.3-3.7-3-3.7zm0-1.7c-2.7 0-5 2-5 4.6v5.8c0 2.6 2.3 4.7 5 4.7s5-2.1 5-4.7V109c0-2.5-2.2-4.6-5-4.6z"/><path fill="#faf6f5" fill-rule="evenodd" stroke="#e30631" stroke-width=".33" d="M129.8 108c-1.6 0-3 1.6-3 3.7v1c0 2 1.4 3.6 3 3.6s3-1.6 3-3.7v-1c0-2-1.3-3.6-3-3.6zm0-1.8c-2.7 0-5 2-5 4.6v2.7c0 2.5 2.3 4.6 5 4.6s5-2 5-4.6v-2.7c0-2.5-2.3-4.6-5-4.6z"/><path fill="#faf6f5" fill-rule="evenodd" stroke="#e30631" stroke-width=".33" d="M118 105.5c-3 0-5.4 1.9-5.4 4.1v4.6c0 2.3 2.3 4.1 5.3 4.1s5.4-1.8 5.4-4v-4.7c0-2.2-2.4-4-5.4-4zm0-2c-5 0-9 2.3-9 5.2v6.5c0 2.8 4 5.1 9 5.1 4.8 0 8.8-2.3 8.8-5.1v-6.5c0-2.9-4-5.2-8.9-5.2zm64.4 2.9c-3 0-5.4 1.8-5.4 4.1v4.6c0 2.3 2.4 4.1 5.4 4.1 3 0 5.3-1.8 5.3-4v-4.7c0-2.3-2.4-4.1-5.3-4.1zm0-2c-5 0-9 2.3-9 5.2v6.5c0 2.8 4 5.1 9 5.1 4.9 0 8.9-2.3 8.9-5.2v-6.4c0-2.9-4-5.2-9-5.2z"/><rect width="11.898" height="5.304" x="165.5" y="109.72" fill="#faf6f5" stroke="#e30631" stroke-width=".33" rx=".646" ry=".938"/><rect width="6.941" height="7.072" x="154.6" y="108.84" fill="#faf6f5" stroke="#e30631" stroke-width=".33" rx=".377" ry="1.251"/><rect width="6.941" height="7.072" x="121.88" y="108.84" fill="#faf6f5" stroke="#e30631" stroke-width=".33" rx=".377" ry="1.251"/><rect width="13.881" height="8.84" x="100.06" y="107.95" fill="#faf6f5" stroke="#e30631" stroke-width=".33" rx=".753" ry="1.563"/><rect width="12.89" height="8.84" x="186.32" y="108.84" fill="#faf6f5" stroke="#e30631" stroke-width=".33" rx=".7" ry="1.563"/></svg></svg>