<svg xmlns="http://www.w3.org/2000/svg" xmlns:xlink="http://www.w3.org/1999/xlink" width="600" height="400"><clipPath id="a"><ellipse cx="300" cy="201" rx="85.849" ry="88.189"/></clipPath><path fill="#e30631" d="M0 0h600v400H0z"/><path fill="#faf6f5" d="M0 100h600v200H0z"/><g stroke-width=".998" clip-path="url(#a)" transform="translate(-.528 -.947) scale(1.00176)"><path fill="#fd8b32" stroke-width=".998" d="M262.7 190.6v-5.8l14.6 6.2zm0-8.6v-9.6s-1.7.2-1.4-1.7c0-4 10.6 7.3 16 11v7.6zM245 214.6v-19l-35-1.6 4.4 20.4zm.5-23.3-.3-13.4-31.8-12.5-.5 22.8zm-1-18 3.6-3.7s-2.3-1.5-2.2-3c0-1.4 2.3-1.7 2.3-3.2 0-1.5-2.5-1.7-2.6-3.1-.1-1.6 2-3.3 2-3.3l-22.5-19.4-5.6 23.7zm106.9 41.3-.3-18.5 35.5-2.6-3 21.1zm33-26.7c-.3-3-.8-6-1.5-9a91.6 91.6 0 0 0-3.5-11.5l-.4-.8-27.6 11.5.2 13.7zm-18.8-44.4L349 156c0 1.2 1.2 2 1.5 3.2.8 1.6-.7 3-1.7 4.2-.7 1 .9 1.6 1.4 2.2 1.2 1.2.2 3.2-1 3.9 1.5.9 2.2 2.6 2.6 4.3l24.7-12.9a85 85 0 0 0-11-17.4zm-32.2 47.3.2-5.5-14 6.1zm-14-8.6s13.2-11.7 16-13.9c0 2.4-1.5 4.3-1.5 4.3v9.1l-14.3 6.7zm-84.9-46.3 14.8 16.1c.4-1.5 3.7-1.7 7.1-1.5 3.4.3 6.1-.2 6.1 2.2 0 2.4-1.7 2-1.7 3.7s2.6 1.6 2.6 3.7c0 2.2-1.9 1.7-2 3.4 0 1.4 2 1.5 2 1.5l13.8 13.2V164L249 120zm22.8-16.7 19.2 38.9s.2-36 3.5-37.8l-5.4-9.9zm62.1-4.1-7.2 24.8a39 39 0 0 0 6.8.2c2 .2.4 2 .5 3.2v15.3l20.3-35.9a98.3 98.3 0 0 0-14.6-5.9 67.2 67.2 0 0 0-5.8-1.7zm25.3 10.3-25.1 38.7v14.8l16.7-16c1-1.4-3.3-2.2-1.1-4 2-.6 2.3-3.8.2-4.5-1.7-2.5 1.6-3.9 3.7-3.6 2.9.2 5.9-.6 8.7.2 1.5 1.5 3-2.3 4.5-3.1l9-9.2a80.6 80.6 0 0 0-16.6-13.3z"/><g fill="#003396" stroke="#003396" stroke-width="1.929"><path stroke-width="2.053" d="M279.9 275.4c-6.2.4-12.4 4.5-15.2 6.8 5.1 2.2 10.7 4 16.6 5.2 9.3 1.6 18.7 1.6 28 1.6l4.6-.7 19.8-6.6s-9.5-6.3-17-6c-7.6.2-12.7 7.6-18.8 7-6-.5-8.5-7.3-17.2-7.3h-.8z"/><path stroke-width="1.929" d="M356.2 270.8s-9.7-10.3-21-10.6c-11.5-.2-8.4 4.8-17.1 5.5-8.7.8-11-5.2-19-5-8 .2-12.6 5-18.6 5.3-6.1.2-13.9-6-18.5-5.8-4.6.3-21.1 7.2-21.1 7.2l3.1 3zM229.7 257l138.4.5c2.2-3.1-6.8-10.6-15-11.3-6.8.2-11.7 7-17.3 7.2-5.6.2-11.9-7-18.2-6.7-6.3.2-12.9 6.7-19.2 6.7-6.3 0-11-7-19-7s-11.6 7.7-17.7 7.2c-6-.4-11.4-7.6-17.2-7.6-5.8 0-15.5 8.6-17.5 8.1s2.7 2.9 2.7 2.9zm53.5-13.2h31s-7-10.6-15.5-9.9c-9.5.3-15.5 9.9-15.5 9.9zm98.6-.8h-42.3s5.5-3.2 7-6.1c2.7 1.4 2 3 7.4 3.2 5.5.2 10.7-6.2 16-6 5.2.3 11.9 9 11.9 9zm-166.7 0h42.3s-5.5-3.2-7-6.1c-2.7 1.4-2 3-7.4 3.2-5.5.2-10.7-6.2-16-6-5.2.3-11.9 9-11.9 9zm33.3-12.9s-2-4-2.2-9.1c-7.8-2.6-14 5.8-19.7 6-5.6.2-11.4-6-11.4-6l3.2 8.9zM379 230l-30.2.2s2-4 2.2-9.1c7.8-2.6 14.1 5.8 19.7 6 5.6.2 11.4-6 11.4-6zm-88.2.2h15.3s.2-5-7.8-5-7.5 5-7.5 5z"/></g><g stroke="#961538"><path fill="#e30631" stroke-linejoin="round" stroke-width="1.929" d="m282.9 181 31.8 8.4v-44.9c-14.6.7-26.7-27.4-1-29.3-25.2-3.6-28.2 2.9-31 9.9l.2 55.9zm7 40.6c-6.9 11.3-25.4 8-29.7 0-1.3-.3-.5-48.8-.5-48.8s-2.1-.9-2.2-2.4c-.1-1.5 2.8-1.6 2.8-3.5 0-2-3-1.2-3-3.2 0-1.8 3.1-1.5 3-3.3-.2-1.9-3.5-1.6-3.7-3.4 0-1.4 2.4-2.6 3.1-3.3h-2.3l-5.3.1c-3.8 0 0 .8 0 3 0 1.4-2 2.3-2 3.5-.1 1.3 2.6 2.2 2.6 3.7 0 1.3-2.7 1.4-2.6 2.6.2 2.1 2.5 2.6 2.4 3.9 0 1.3-3 1.8-3 2.8l.4 49.8c4.8 24.3 32.3 30.5 40-1.5zm18.2 0c6.9 11.3 25.4 8 29.7 0 1.3-.3.5-48.8.5-48.8s2.1-.9 2.2-2.4c0-1.5-2.6-1.6-2.6-3.5 0-2 2.8-1.2 2.8-3.2 0-1.8-3-1.7-2.8-3.4.2-2 2.5-1.7 2.6-3.5.1-1.5-1.4-2.4-2.1-3h7.5c3.8 0 0 .8 0 3 0 1.4 1.9 2.3 2 3.5.1 1.3-2.6 2.2-2.6 3.7 0 1.3 2.6 1.4 2.5 2.6-.1 2.1-2.4 2.6-2.3 3.9 0 1.3 3 1.8 3 2.8l-.4 49.8c-4.8 24.3-32.3 30.5-40-1.5z"/><g fill="#961538" stroke-linecap="round" stroke-width="2.787"><path d="M281.7 223.7a14 14 0 0 0 6.8-6.2l-10.5.2s-4.8 3-7.3 6zm33.7 0a14 14 0 0 1-6.8-6.2l10.5.2s4.8 3 7.2 6zm-52.7-10 72 .2"/><path id="b" d="m266.1 196.6 8.5 11.3m-8.5 0 9.2-11m-4.3-1-.3 7"/><use xlink:href="#b" width="100%" height="100%" x="13.604"/><use xlink:href="#b" width="100%" height="100%" x="27.45"/><use xlink:href="#b" width="100%" height="100%" x="41.782"/><use xlink:href="#b" width="100%" height="100%" x="55.628"/></g></g></g></svg>