<svg xmlns="http://www.w3.org/2000/svg" width="1200" height="600" viewBox="0 0 30 15"><clipPath id="a"><path d="M0 0v75h350v75h-50zm300 0H150v200H0v-50z"/></clipPath><path fill="#012778" d="M0 0h30v15H0z"/><path stroke="#faf6f5" stroke-width="1.5" d="m0 0 15 7.5M15 0 0 7.5"/><path stroke="#c40f38" stroke-width="20" d="m0 0 300 150m0-150L0 150" clip-path="url(#a)" transform="scale(.05)"/><path stroke="#faf6f5" stroke-width="2.5" d="M7.5 0v10M0 3.7h17.5"/><path stroke="#c40f38" stroke-width="1.5" d="M7.5 0v10M0 3.7h17.5"/><path fill="#012778" d="M15 0v7.5H0V15h30V0z"/><g fill="#fcd80e" stroke="#0a1a1d" stroke-width=".015"><path d="M20 8a2 2 0 0 0-.7 1c-.2 1-.5 1.2-.9 1 0 .5.5.6.7.3 0 .5.2 1 .6 1.3.2.1.2 0 .1-.1 0-.2 0-.8-.2-1.1.2.2.6 0 .6-.4-.4.2-.7.1-.7-.3 0-.6.1-1.4.5-1.7zm-.4-4c0-.3 0-.5-.2-.6-.2-.2-.5-.2-.7 0-.3-.1-.5.5-.8.4 0 .2.1.2.3.2-.2.1 0 .3-.2.5.4.2.6 0 .6-.4h.5c-.2-.1-.2-.3-.2-.5.2-.2.7-.2.7.3z"/><path fill="#0f7d3a" d="M20.5 6.8c-.4.3-1.2.2-1.3-.4 0-.6.5-.8.6-1 .3 0 .4.2.4.4a.4.4 0 0 0 .2-.5c.3 0 .6-.3.7-.6h-.7c.1-.1.1-.3 0-.4-.2.3-.6.2-1.1 1a37.7 37.7 0 0 0 .3-1.4c0-.5-.5-.5-.7-.3.2.2.1.4 0 .6l-.2 1.4c0-.4-.3-.4-.4-.6 0 0-.1.1 0 .2h-.6c-.1.2 0 .4.3.5l-.3.2.6.3c.2 0 .3 0 .5.3.2.4 1 .7 1.7.3z"/><path d="M21.6 6.3c-.2.7-1 1.2-1.2 1.3-.5.1-1.6.6-1.9.9a.3.3 0 0 1-.1 0c-.2-.1-.3-.5 0-.7.8-.8 1.6-.5 2.1-1-.4.3-1.2.2-1.3-.4a2 2 0 0 0 2-.6l.4.5z"/><path fill="#0f7d3a" d="M20 8c-.4.3-.6 1.1-.5 1.7v.3c.1-.3.3-1.1.9-1.5a4 4 0 0 0 1.5-1.8.6.6 0 0 0-.3-.3c-.3.7-1 1-1.6 1.6z"/><path fill="#036a4a" d="M21.4 6a1.9 1.9 0 0 1-.8.6.4.4 0 0 0 0-.2h-1.4a2 2 0 0 0 2-.6l.2.2z"/><path fill="#0f7d3a" d="M18.4 7.8c-.7.6-.2 1 0 1.2 0 .4.3.4.3.7.2 0 .2-.3.2-.5.2.2.7 0 .8.4 0-.5-.3-1-.7-.9.2-.1 0-.4 0-.5-.1.4-.5.4-.6.3-.2-.1-.3-.5 0-.7z"/><path d="M19.7 11.5v.2c.1.1 0 .4.2.5.1 0 .2 0 .2-.2.1-.2-.2-.3-.2-.4 0-.1-.1 0-.2 0z"/><path d="M20 12c-.1 0-.2.1-.2.4v.5h.2l.2-.1.2-.1s.2 0 .1-.2h.2l-.4-.4H20z"/><path fill="none" d="m18.5 3.6.2-.2M20 4.7h.3m-.4 8.2v-.4m.2.3a.5.5 0 0 1-.1-.3m.3.2-.2-.3m.3 0a.8.8 0 0 1-.3-.2"/><path d="M24.4 7.8c1 .8 1 1.5 1 1.9-.2-.4-.6-1-1-1.1v-.8z"/><path fill="#0f7d3a" d="M22.6 7.3h1.8v2.2c0 2-1 3-2.1 3.7a4 4 0 0 1-2.1-3.7V7.3h1.3a.7.7 0 0 0 .1.4 2 2 0 0 0 1-.4z"/><path fill="#0859b9" d="M24.4 7.3v2.2c0 .6 0 1.1-.2 1.6l-1.9-3.5-1.9 3.5a4.3 4.3 0 0 1-.2-1.6V7.3h4.2z"/><path stroke="none" d="M24.2 10.9a4.3 4.3 0 0 1-.1.4l-1.8-3.4-1.8 3.4a4 4 0 0 1-.1-.4l1.9-3.6 2 3.6z"/><path d="m23.2 12.1.1.1c.1-.2.2-.5.1-.7 0 .2-.4.2-.5.4l.1.1a2 2 0 0 1-.6.4V9.9l-.1-.2V10.3l-.1.3v1.8c-.1-.3-.5-.2-.6-.4a.5.5 0 0 1 .2 0c-.2-.5-.5-.5-.6-.6v.7a.4.4 0 0 1 .2 0c.1.2.8.2.9.7l.9-.7z"/><path d="M22.3 10.6h.8v-.2c0-.2 0 0 0 0l-.8-.1h-.7l-.1.1v.2h.8z"/><path d="M22.2 9.9a.2.2 0 0 0-.1 0l-.2.1.2.2s.2 0 .2-.2c0 .2 0 .3-.2.3-.1 0-.3-.1-.3-.3s.2-.2.3-.2h.1v.1zm-.6.7v-.2c0-.2 0 0 0 0"/><path d="M21.6 10.6v-.2c0-.2 0 0 0 0m.4.2.1-.2v-.1m0 .3.1-.2v-.1m.2.3.1-.2v-.1m0 .3.1-.2v-.1m.4.3V10.3M21.4 12a.6.6 0 0 1 .2 0m1.5.1c.2-.1.3-.2.3-.4"/><path fill="#faf6f5" d="M22 8.9v-.1h.7v.7h-.8V9"/><path fill="#faf6f5" d="M22.5 9.6h.1V8.8H22v.8h.5z"/><path fill="#faf6f5" d="M22.6 9.6H22V9h.5v.7z"/><path fill="#b5915f" d="M23.6 6.8a.4.4 0 0 1 .1.5h-.2c.1-.2 0-.4-.2-.4-.4 0-1 .7-1.7.8-.2-.2-.2-.7.1-1a3 3 0 0 0-.6-1 2 2 0 0 0-.4 0c0-.2.4-.5.6-.6l.2-.2c0-.3 1.5-.1 1.8 0l.3 2z"/><path fill="#0a1a1d" stroke="none" d="M21.8 7c0-.5-.3-1-.6-1.3h.7c.2-.2 1-.6 1.2-.4v.2c0-.2-.7 0-1 .2-.1 0-.2.2-.1.4-.1 0 0-.2-.2-.2l.1.4-.3-.5c.2.3.3 1 .2 1.3.1 0 .4 0 .5-.2-.1.2-.4.2-.5.3l-.1.4v-.5zm1.8-.2c-.1-.1-.4-.2-.7-.1h.3L23 6l.2.5h.1l-.1-.7h.1l.2 1z"/><path fill="#b5915f" d="M23.6 7.3c0-.2 0-.4-.3-.4l-.7.4h1zm-1.9-1.8a1.6 1.6 0 0 1-.5 0 .6.6 0 0 1 0-.2l-.3.3.8-.1z"/><path fill="none" d="M21.7 6.8V7m-.4-2-.1.3h.5"/><path fill="none" d="M21 5.7H22c.2-.2.7-.7 1.4-.7"/><path fill="none" d="m20.9 5.6.8-.1 1.4-.6"/><path fill="#0f7d3a" d="M24.4 7.8c.7.4 1.2 1 1.3 1.7.2.7.5 1 .8.7 0 .4-.5.5-.9.2 0 .5-.1 1-.6 1.3 0-.3.1-.6 0-.8 0-.1 0-.4.2-.5-.3.1-.7 0-.8-.5.3.2.8.2 1-.2 0-.4 0-1-1-2zm.9-4c.2-.5.7-.4 1-.2.5-.3.6.4 1 .3 0 .1-.1.2-.3.2.2.2 0 .4.3.6-.3.1-.8 0-.9-.5-.1.2-.5.2-.7 0 .4 0 .4-.4.2-.5-.2-.1-.6 0-.6.2zm-1.7 1.3c.1.5.5 1 .8 1.3.4.4 1 .3 1.3 0 0 .6-.7.7-1 .5-.3-.1-.4 0-.2 0 .2.3.8.5 1.5.6 1.1.3.7 1.2.4 1.2v-.3c-1-.9-3-.5-3-2.5-.2.5-1.1.3-.7-.3h.4c0-.2 0-.4-.2-.6l.1-.1s0 .1.2 0l.1.2V5l.3.1z"/><path d="M24.6 6.9c.5.3 1 .3 1.6-.3l.5-.4c.2 0 .2-.1.3-.2 0 0 0-.1-.2 0 .3-.2.2-.5.4-.6-.2 0-.4-.1-.5.1v-.3c0 .2-.3.2-.4.5 0 .2-.1.2-.1-.1 0-.2-.1-.8-.3-1 0-.3-.1-.7 0-.8-.2-.2-.6-.1-.6 0-.3.6.4 1 .3 1.6 0-.5-.8-.6-.8-1-.3 0-.2.3-.1.4-.2-.2-.5.2-.8-.1 0 .4.3.5.6.5-.1.3 0 .5.3.6 0-.5 1-.3 1 .5 0 .7-.8.8-1.2.6zm1.4.6c1.1.3.7 1.2.4 1.2-.2 0-.5-.2-.5-.4-.2.2-.1.4 0 .5-.5 0-.7.3-.7.7 0-.2.4-.2.5-.2h.5c-.1 0 0 .2 0 .4.3 0 .5-.4.5-.6.5-.5.4-1.4-.7-1.6zm-1 4c.2 0 .1.1 0 .2 0 .1.1.4-.2.5l-.2-.2c0-.3.3-.3.3-.5h.2z"/><path d="M24.8 12s.2.1.1.5l.1.4h-.3c0 .1-.2 0-.2 0l-.2-.2s-.2 0-.2-.2H24l.5-.4c0-.1.3-.2.4-.1z"/><path fill="none" d="M24.7 13v-.4m-.2.3a.5.5 0 0 0 .1-.3m-.3.1.3-.3m-.5 0c.1 0 .4 0 .5-.2"/><path d="M23.4 5.9c0 .8.3 1.3.8 1.5-.2 0-.1-.5-.3-.6h.3c-.1 0-.2-.3-.5-.4h.3c-.1-.2-.5 0-.6-.5zm-.1-.8V5l-.3-.1H23c.2.3.3.5.2.6 0 .2-.3.2-.4 0 0 .4.4.5.6 0l.1.3c.1-.2 0-.5-.1-.7z"/><path fill="#0f7d3a" d="M22.6 3.4a1 1 0 0 1-.3-.7c0-.2 0-.4.3-.3l-.1.2.2-.1.1.1v-.4l-.1.1-.1-.3v.3l-.3.1V2c-.1-.1-.3-.2-.4-.1h-.3c-.1.2-.4.2-.4.3v.3c-.1 0 0 .2 0 .2 0-.3.6-.9 1-.6v.4c0 .3 0 .7.2.9h.2z"/><path fill="#c40f38" d="M22.7 2.4c0-.1.1-.2.3-.2l.5.2h.1v.2H23c-.2 0-.3-.1-.3-.2z"/><path fill="#b5915f" d="m21.9 4.3-.6-.6v-.1l.4-.3c.6.3 1.4-.1 1.8-.6l.2.1-.1.1a4.8 4.8 0 0 1-.6.5h.4L24 3l.1.1v.1H24a4 4 0 0 0-1 1.4c-.1 0-1 0-1.2-.3z"/><path fill="none" d="M23 3.4a.6.6 0 0 1-.2 0l-.4.1"/><path fill="none" d="M21.9 4.3c0-.4 0-.7.2-.8.3.2 1 .2 1.3 0"/><path fill="none" d="M21.9 4a8.9 8.9 0 0 1 1 .1l.3.2M22 4v-.1.1z"/><path fill="#0f7d3a" d="M22.2 2.5c-.1-.1-.4-.2-.4 0 0 0 0 .2-.2.2v.2c0 .1 0 .2.2.3L22 3l.4-.3s0-.2-.2-.2z"/><path fill="#b5915f" d="M21.6 3.7v.2h.2-.1l.2.2h-.3v.2V4l-.2.1.2-.1-.2-.2.2.1v-.2z"/><path fill="#b5915f" d="M21.9 4.3a.4.4 0 1 1 0-.6.9.9 0 0 0 0 .2.3.3 0 1 0-.3.3.3.3 0 0 0 .3-.2v.3z"/><path fill="#0f7d3a" d="M21.4 4.6v-.1a.2.2 0 0 1 .1 0v-.2a.4.4 0 0 1 .2.2.6.6 0 0 1 0-.2l.1.1a.7.7 0 0 1 0-.2H22.2a.5.5 0 0 1 .1.2l.1-.1a.2.2 0 0 1 0 .1l.2-.1a.3.3 0 0 1 0 .1v-.2a.2.2 0 0 1 .2.2v-.2a.5.5 0 0 1 .1.2l.1-.1v.2a.4.4 0 0 1 .1-.1l.2-.1a.3.3 0 0 1 0 .2.5.5 0 0 0 .2-.2v.2-.1c.1 0 .1.1 0 .2a.2.2 0 0 1 .2 0v.2l-2.2-.2z"/><path stroke="none" d="M22.8 2.4H23.4c.1 0 0 0 0 0v.1H22.8z"/><path d="M21.6 4.9h-.3v-.2l.1-.1h.3V5h-.1zm.5-.3s.1-.1.2 0c0 0 .1-.1.2 0l.1.2c0 .1-.1.2-.2 0 0 .1-.2.2-.2 0l-.1-.1zm.9.1s0-.1.2 0h.1V5s0 .1 0 0l-.3-.1a.5.5 0 0 0 0-.2z"/><path fill="#0f7d3a" d="M21.6 4.6h.5V5H21.9l-.2-.3zm1 0h.2l.2.1V5h-.4v-.3zm.8.2s0-.1 0 0l.3.1v.2l-.3-.1a2.4 2.4 0 0 1 0-.2z"/><path fill="none" d="M21.6 4.9s-.1-.2-.2 0m.6 0a.5.5 0 0 1-.1-.2m.5.2a.3.3 0 0 1-.1-.1m0-.1h.2l.1.2m.2-.3a.5.5 0 0 1 0 .1m.4.3a.3.3 0 0 0-.1-.2m0 0s.3 0 .3.2m0-.2a.2.2 0 0 1 .1 0"/></g></svg>