<svg xmlns="http://www.w3.org/2000/svg" xmlns:xlink="http://www.w3.org/1999/xlink" width="1200" height="720" fill="#f42a41"><path d="M0 0h1200v720H0Z"/><path fill="#036a4a" d="M0 0h480v720H0Z"/><path fill="#6c401f" d="M480 539c99 0 180-81 180-180s-81-180-180-180-180 81-180 180 81 180 180 180Zm0-6a174 174 0 0 1 0-348 174 174 0 0 1 0 348Zm0-12c89 0 162-73 162-162s-73-162-162-162-162 73-162 162 73 162 162 162Zm0-6c-86 0-156-70-156-156s70-156 156-156 156 70 156 156-70 156-156 156Zm-11 28h4l2-4h10l2 4h4v-4c54-3 104-34 130-68 4-1 7-5 7-8l9-16c4-1 6-5 4-9 10-18 18-46 18-63 4-3 5-7 2-10v-6c4-4 2-11-2-14-1-22-9-46-16-60 2-6 0-8-4-9l-5-9c0-4 0-9-6-10-27-40-80-75-137-78v-4l-1-1h-3l-2 3h-10l-2-3h-3l-1 1v4c-57 3-112 39-138 79-3 0-6 4-5 8l-10 18c-3 2-4 5-3 9-7 15-12 41-13 55-4 2-4 8-2 9v8c-4 3-2 7 2 9 2 21 9 45 19 66-1 1-1 5 2 6l4 6c0 5 2 9 7 9 22 35 76 75 137 78Zm0-28c-43-4-74-22-94-41 25 8 61 12 94 14Zm-60-55c-16-3-36-7-56-13 14-5 27-7 37-8 5 7 11 14 19 21Zm-69-33c-6-13-12-29-14-45 14 5 28 8 47 10 1 9 3 18 7 25-20 3-31 7-40 10Zm33-57c-13-2-31-5-49-11 7-3 31-10 49-10Zm-47-35c2-9 3-14 6-23 7 7 10 11 18 17-11 2-15 3-24 6Zm165 180v-27c33-2 69-6 94-14-20 19-51 37-94 41ZM383 237c21-18 59-31 86-32v32Zm241 180c-9-7-20-15-36-25 20-2 34-5 46-8-2 10-5 21-10 33Zm-37-47v-23c18 1 42 8 49 11v1c-16 5-35 9-49 11Zm46-37c-14-4-30-8-46-11v-20c14-2 23-4 34-8 7 16 11 31 12 39Zm-142-96v-32c29 2 65 14 86 32Zm96 41v-8c5 0 12 1 22 3-8 3-14 4-22 5Zm-36 182 7-7 7 4c-3 1-7 2-14 3Z"/><path fill="#fcd80e" d="M469 537c-70-3-123-54-137-78-1-2 0-3 2-4 25 41 77 75 135 79Zm-149-99c-9-17-18-46-18-66 0-2 1-4 3-6 1 25 7 48 18 70Zm149 94c-56-2-111-40-134-78 3-2 6-3 9-4 26 38 72 70 125 72Zm-139-73c-1 0-3-2-3-4 0-9 40-20 60-22l2 4c-9 1-20 3-36 8-17 5-26 10-23 14Zm-3-7-4-6c-2-3 4-6 8-8 14-7 33-13 51-15l3 8c-24 4-54 13-58 21Zm-6-7c-5-5 3-9 12-13 12-6 34-12 47-14l1 4c-24 2-52 14-58 19-3 3-2 3-2 4Zm3-10c-11-22-17-48-18-69 3-2 7-4 10-5 1 21 7 51 16 68 0 3-5 4-8 6Zm145 85c-54-2-99-35-124-71l5-1c24 36 68 65 119 69Zm-53-54c-21-3-46-9-60-13l-4-5c20 6 44 11 60 14Zm21 12c-25-3-47-7-72-14l-8-9c14 4 40 10 61 13Zm-103-48c-7-15-15-40-16-69l4-2c0 25 8 51 17 69Zm128 56c-27-2-63-7-89-14l-6-6c23 7 47 11 76 14 3 2 12 4 19 6Zm9 55v-54h2v52Zm-98-150c-16-2-34-5-47-11l-1-4c15 6 35 10 48 11Zm101 146 1-50h10l1 50ZM373 386c-12-1-30-5-48-12l-1-8c13 4 29 9 49 11Zm116 155-2-2v-52h2ZM373 376c-20-2-36-8-49-11v-4c16 5 36 9 49 11Zm-75-5c-3-3 3-8 15-14-3 0-10 3-13 6v-6c0-7 33-21 73-25v9c-22 2-42 7-54 14 12-5 30-10 54-12v4c-31 1-68 14-73 21Zm1-15c-3-2-1-6 4-9 11-8 44-18 70-20v3c-21 2-75 16-74 26Zm3-10c1-19 7-40 12-51 2-4 4-6 7-6-7 13-14 36-16 55Zm5-3c2-18 8-39 15-53 4 0 8 1 10 2l-2 6 4-6 3 1c-6 13-10 28-13 43l-5 2c2-11 5-21 8-32-5 11-8 23-10 33Zm45-15c-8-6-13-11-20-18l1-4c7 7 15 15 23 21Zm21-23c-19-8-40-17-55-17-2 0-3 2-4 4-1-3 1-6 4-6 16 0 38 9 55 16Zm118 232v-3c54-4 102-34 128-70 1 2 1 3 0 6-24 32-73 64-128 67Zm0-5v-10c53-2 99-34 122-67 2 2 4 5 5 7-26 35-73 66-127 70ZM373 300c-23-10-43-16-55-16 5-8 10-22 16-22 8 0 24 6 39 13Zm118 220v-3c53-4 93-33 117-65l3 2c-23 33-67 63-120 66Zm7-34c7-2 16-4 19-6 29-3 53-7 76-14l-6 6c-26 7-62 12-89 14ZM373 273c-10-4-29-12-38-12-4 0-5 0-8 5 0-5 2-7 8-7 7 0 25 6 38 11Zm150 205 19-10c21-3 47-9 61-13l-8 9c-25 7-47 11-72 14ZM360 264l-15-5c8-4 18-7 28-9v10Zm-17-6-5-1c8-3 23-9 35-11v3c-9 1-23 6-30 9Zm225 199-9-5 4-4 12 7Zm-24 9 4-4c18-2 41-8 57-13l2 2-2 2c-15 3-35 9-61 13ZM363 247c4-4 6-6 10-9v6Zm258 222c6-9-26-32-44-43l2-4c18 11 47 33 47 41 0 3-3 6-5 6Zm7-9c-6-12-36-32-48-40 3-7 5-14 6-21 16 10 56 38 49 49ZM335 257c25-40 81-74 134-76v4c-51 3-98 30-128 69Zm9-4c26-36 79-64 125-66v10c-37 1-83 21-109 51Zm293 193c6-9-33-39-51-49l1-4c18 13 45 29 52 44 2 3 0 9-2 9ZM374 237c24-22 61-37 95-38v4c-33 2-73 18-88 34Zm213 153v-2c14-2 30-4 48-10l-1 4c-12 4-27 6-47 8Zm0-4v-9c20-3 37-7 49-10l-1 10c-18 6-32 7-48 9Zm0-11v-3c14-2 33-6 49-11v4c-12 3-28 7-49 10Zm42 47-4-4c8-19 13-42 13-59l5 2c-1 21-7 43-14 61Zm8 9c-2-3-4-5-7-8 7-15 13-42 14-62 5 2 8 4 9 5 0 21-7 45-16 65Zm3 6-2-4c8-18 16-44 16-67 10 5-3 51-14 71ZM471 237v-61l2 1v60Zm188 137c0-5-2-7-4-9-7-7-47-18-68-20v-4c23 4 49 11 61 16 13 6 16 13 11 17ZM475 237l-1-58h12l-1 58Zm184 126c-9-10-47-19-72-24v-9c18 2 72 15 72 26ZM487 237v-60l2-1v61Zm174 120c0-13-54-26-74-29v-4c21 4 45 9 64 18 11 5 12 9 10 15Zm-74-57v-4c14-1 23-3 32-7l1 3c-8 4-21 7-33 8Zm0-5v-9c9-1 19-3 27-6l4 8c-6 3-17 6-31 7Zm-8-58c-15-16-56-32-88-34v-4c33 2 71 16 95 38Zm61 99-5-2c-5-28-12-40-23-60l5 1c8 12 18 35 23 61Zm-53-52v-4c8-1 15-3 23-5l2 3c-8 3-16 5-25 6Zm64 56c-2-1-8-3-10-4-2-17-12-43-22-61 5 1 10 3 13 4 10 19 18 44 19 61Zm6 3-4-2c-1-18-9-43-19-61 2 0 5 2 7 5 7 14 15 39 16 58Zm-33-88-6-2c-29-38-76-65-127-68v-4c53 2 109 36 133 74Zm-9-3-15-4c-27-31-72-48-109-51v-10c46 2 99 30 124 65Zm27 32c-1-7-32-14-55-16v-4c17 2 44 8 52 13 4 1 4 3 3 7Zm-45-36-10-2v-8Zm39 26c-12-6-32-9-49-12v-9c18 2 32 6 41 9-5-4-25-9-41-11v-3c18 3 30 6 42 11 4 2 3 6 3 8Zm-277 53c-9-7-17-15-24-22l5-10c10 3 20 6 33 12v18Zm219 128-14-8c5-7 9-13 12-19 9 5 20 12 27 19-7 3-16 6-25 8ZM373 268l-10-3 10-3Z"/><path fill="#faf6f5" d="M480 485c-59 0-105-48-105-104V239h210v142c1 57-47 104-105 104Z"/><path d="M480 482c56 0 103-45 103-101V241H377v140c0 55 46 101 103 101Zm0-44c-34 0-59-24-59-58v-95h118v95c0 34-25 58-59 58Z"/><g id="b"><g id="a"><path fill="#6c401f" d="m396 280-10-1-1-1v-2l1-1 1-8-2-4v-1h1v-5l-1-1v-4h9v-6h12v6h9v4l-1 1v5h1v1l-2 4 1 8 1 1v2l-1 1-10 1Z"/><path fill="#fcd80e" d="M408 261v-2c0-2 2-2 2 0v2h-2Zm-3 1h8v-5l1-1v-3h-2v2h-2v-2h-2v2h-2v-2h-2v3l1 1v5Zm-6-4v-2c0-2 2-2 2 0v2h-2Zm-3 4h8v-5l-1-1v-3l2-2v-4h-2v2h-2v-2h-2v2h-2v-2h-2v4l2 2v3l-1 1v5Zm-9 3h26l1-2h-28l1 2Zm3-4v-2c0-2 2-2 2 0v2h-2Zm-3 1h8v-5l1-1v-3h-2v2h-2v-2h-2v2h-2v-2h-2v3l1 1v5Zm17 17 10-1v-2l-10 1v2Zm-8-3c0-10 8-10 8 0l9-1-1-9h-24l-1 9 9 1Zm0 3v-2l-10-1v2l10 1Z"/></g><use xlink:href="#a" y="84"/><use xlink:href="#a" transform="rotate(-45 624 320)"/></g><use xlink:href="#a" x="80"/><use xlink:href="#b" transform="matrix(-1 0 0 1 960 0)"/><path id="c" fill="#003396" d="M488 302c4 0 4 6 0 6s-4-6 0-6Zm0 16c4 0 4 6 0 6s-4-6 0-6Zm-15 0c4 0 4 6 0 6s-4-6 0-6Zm7-8c4 0 4 6 0 6s-4-6 0-6Zm-7-8c4 0 4 6 0 6s-4-6 0-6Zm-7-4v20c0 8 6 14 14 14s15-7 15-14v-20h-29Z"/><use xlink:href="#c" y="48"/><use xlink:href="#c" x="-36" y="48"/><use xlink:href="#c" x="36" y="48"/><use xlink:href="#c" y="96"/></svg>