<svg xmlns="http://www.w3.org/2000/svg" width="1200" height="660"><path fill="#003396" d="M0 0h1200v660H0z"/><path fill="#faf6f5" d="M0 0h1200v440H0z"/><path fill="#e30631" d="M0 0h1200v220H0z"/><path fill="#faf6f5" stroke="#0a1a1d" stroke-miterlimit="10" stroke-width="3.687" d="M683.7 330a83.7 83.7 0 1 1-167.4 0 83.7 83.7 0 0 1 167.4 0z"/><path fill="#24a34e" stroke="#0a1a1d" stroke-width=".985" d="M640.4 317c-2 0-2 2.2-2 2.2s0-.7 0 0c0 .8.3 2.6 1.8 2.8 1.6.1 2.2-1.7 2.2-2.6 0-.4-.1-2.3-2-2.4"/><path d="m547.5 363.5-.7-1.2c0-.2-.3-.4-.6-.7a.8.8 0 0 0-.5-.3 1 1 0 0 0-.7.2l-.5.6c0 .3.1.7.4 1.2l.8 1.3zm7.1-.4-9.1 5.4-2.8-4.7-1-2.1c0-.6 0-1.1.2-1.6.3-.5.7-1 1.3-1.3a3.2 3.2 0 0 1 1.4-.5c.5 0 1 .1 1.5.4l1 .7c-.2-.3-.2-.7-.2-.9a6 6 0 0 1 .2-.7l.3-.8 1.9-2.9 1.9 3.2-2 3.2-.3.9c0 .3 0 .5.2.8l.1.2 3.7-2.2zm-16-7.5-2.8-8.3 2.1-.7 1.8 5.2 1.6-.5-1.6-4.8 2-.7 1.6 4.8 2-.6-1.8-5.4 2.3-.8 2.8 8.5zm.3-16.9-.1-.7c-.1-.7-.3-1-.5-1.3a1.1 1.1 0 0 0-1-.3 1.3 1.3 0 0 0-.7.4c-.2.3-.3.7-.2 1.3l.1 1zm-4.1 3.8-.7-5.4c-.1-1.1 0-2 .5-2.7.5-.6 1.3-1 2.3-1.1 1.1-.2 2 0 2.6.6.7.6 1.1 1.5 1.3 2.8l.2 1.8 3.9-.4.4 3.2zm-.4-20.6.3-3.2 6.3.6a5.5 5.5 0 0 1 1.7.5 3.5 3.5 0 0 1 1.4 1c.3.6.6 1 .7 1.5.2.6.2 1.4.1 2.3a12 12 0 0 1-.3 1.6c-.1.6-.3 1.1-.6 1.5a3.9 3.9 0 0 1-1 1 3.3 3.3 0 0 1-1.3.6c-.7.1-1.3.2-1.8.1l-6.2-.7.3-3.2 6.4.7c.6 0 1 0 1.4-.4.4-.2.6-.7.6-1.2.1-.6 0-1-.3-1.4-.3-.3-.7-.5-1.3-.6zm10.5-8.9.6-1.6c.1-.5.2-.9 0-1.2a1 1 0 0 0-.6-.6 1 1 0 0 0-.8.1c-.3.2-.5.5-.7 1l-.5 1.6zm-4-1.4.6-1.3c.1-.5.2-.9 0-1.1 0-.2-.2-.4-.6-.5a1 1 0 0 0-.7 0c-.3.1-.5.4-.6 1l-.5 1.3zm-5 1.8 2.1-5.8c.4-1 .8-1.6 1.5-2a2.5 2.5 0 0 1 2-.1c.6.2 1 .6 1.4 1 .2.4.3.9.3 1.4.4-.7.9-1.1 1.4-1.3.5-.2 1.1-.2 1.8 0a3.1 3.1 0 0 1 1.9 2.2l-.1 1.3-.4 1.4-1.8 5.4zm5.5-13.6 1.7-2.8 6.8 4.2 2.7-4.4 2.2 1.4-4.3 7.1zm7-10.4 2-2.5 8.1 6.8-2 2.5zm14.6-5.7 2.8-1.1.6 2.1a4 4 0 0 1-.4 2c-.3.5-.9 1.1-1.6 1.7a7 7 0 0 1-2.5 1.4c-.7.2-1.6.2-2.6-.1-.9-.3-1.8-1-2.6-2-1.1-1.3-1.6-2.7-1.5-4 0-1.3.8-2.5 2.1-3.6 1-.8 2-1.3 3-1.4.9 0 1.8.2 2.8.9l-1.8 2.3-.7-.3a1.6 1.6 0 0 0-.9 0 1.9 1.9 0 0 0-.8.3 2 2 0 0 0-.7 1.8c0 .6.4 1.2 1 2 .7.8 1.4 1.3 2 1.4.5.1 1 0 1.5-.4s.8-.9.8-1.3c0-.5-.2-1-.5-1.7m10.7-6.3-2.7-2.9.7 4zm1.7 1.7-3.3 1.7.3 1.8-3 1.5-1.2-11.2 3.1-1.6 8.4 7.6-3 1.5zm12.8-11 .9 5.7.7-.1c.7 0 1.2-.2 1.5-.4.2-.2.4-.5.5-1v-1.8c-.1-1-.4-1.8-.9-2.2-.4-.3-1-.4-1.8-.3zm-3.5-2 4.8-.6h2.3a3.8 3.8 0 0 1 1.6 1 4.6 4.6 0 0 1 1.1 1.5 7.4 7.4 0 0 1 .5 2c.2 1.1.2 2 0 2.6a4.5 4.5 0 0 1-.8 1.8c-.4.4-.8.8-1.3 1a7.3 7.3 0 0 1-2 .6l-4.7.6zm14.4-2 8.7.7-.2 2.2-5.4-.4-.2 1.7 5.1.4-.2 2.1-5-.3-.2 2 5.7.4-.2 2.4-9-.6zm13.4 1.3 3.2.8-2.2 7.7 4.9 1.4-.7 2.5-8-2.3zm17.9 11.7.6.4c.6.4 1 .5 1.3.5a1 1 0 0 0 .8-.5 1.3 1.3 0 0 0 .2-.9c0-.3-.4-.6-.9-1l-.7-.5zm-.3-5.6 4.5 3c1 .7 1.6 1.4 1.8 2.2.2.8 0 1.6-.6 2.5-.6.9-1.3 1.4-2.2 1.5-.9.2-1.8 0-3-.8l-1.4-1-2.2 3.3-2.7-1.9zm11.5 16.2 1.8-3.6-3.5 2zm-1.1 2-2.7-2.6-1.6 1-2.4-2.4 5-2.3 5.3-2.5 2.5 2.5-4.6 10.4-2.4-2.4zm9.8 4.6.7 1.2.6.7a.9.9 0 0 0 .6.2 1 1 0 0 0 .6-.1c.3-.2.4-.4.5-.7 0-.3-.1-.7-.5-1.2l-.7-1.2zm-7.1.7 9-5.7 2.8 4.6a9 9 0 0 1 1.1 2 2.6 2.6 0 0 1-.1 1.7 3 3 0 0 1-1.2 1.3c-.5.3-1 .5-1.5.5s-1-.1-1.4-.3a5.5 5.5 0 0 1-1-.8l.1 1a5.8 5.8 0 0 1-.1.7 3.9 3.9 0 0 1-.4.8l-1.7 3-2-3.2 1.8-3.2c.2-.4.4-.7.4-1 0-.2 0-.5-.3-.7l-.1-.3-3.6 2.3zm12.5 14.2 3.2-2.4-4 .2zm-2 1.4-1.2-3.5-1.8.2-1.1-3.2 11.3.1 1.2 3.4-8.6 7.3-1.2-3.2zm5.1 11.3 2.2-.3.6 5-4.4.6a10 10 0 0 1-1.7-2.4c-.3-.7-.5-1.6-.7-2.6a6 6 0 0 1 .3-3.1c.3-.8.9-1.5 1.7-2 .8-.6 1.7-1 2.8-1a6 6 0 0 1 3 .3c1 .3 1.7 1 2.2 1.8.5.7.8 1.6.9 2.8.2 1.1.2 2 0 2.6a3.2 3.2 0 0 1-.8 1.6 4 4 0 0 1-1.5 1l-1-3c.4-.2.7-.4.8-.8.2-.3.2-.7.2-1.2-.1-.7-.4-1.2-1-1.6-.5-.4-1.3-.5-2.4-.3-1.1 0-1.9.4-2.3.9-.5.5-.6 1.1-.5 1.9l.2 1 .7 1h1zm6.7 15.8-.3 3.3-6.3-.7a5.3 5.3 0 0 1-1.7-.5 3.8 3.8 0 0 1-1.4-1.1l-.7-1.4c-.1-.7-.2-1.4 0-2.3 0-.5 0-1 .2-1.7l.6-1.4a4.1 4.1 0 0 1 1-1l1.3-.6c.7-.1 1.3-.2 1.9-.1l6.2.7-.4 3.2-6.4-.7c-.5 0-1 0-1.4.3-.3.3-.5.7-.6 1.3 0 .6 0 1 .3 1.4.3.3.7.5 1.3.6zm-9.7 12 4 .2-3.2-2.3zm-2.4 0 1.2-3.6-1.4-1 1-3.2 8.8 7.2-1.2 3.4-11.3.3 1.1-3.2zm5.9 9.7-1.9 3.1h-4.1l2 3.7-1.9 3-3.2-6.6-3.8-2.2 1.7-2.9 3.8 2.3z"/><path fill="none" stroke="#0a1a1d" stroke-miterlimit="10" stroke-width="1.475" d="M670 330a70 70 0 1 1-140 0 70 70 0 0 1 140 0z"/><path fill="none" stroke="#0a1a1d" stroke-miterlimit="10" stroke-width="1.475" d="M652 329.8a52.1 52.1 0 1 1-104.1 0 52.1 52.1 0 0 1 104.2 0z"/><path fill="#fcd80e" stroke="#0a1a1d" stroke-width=".602" d="m600 311 4.4 12.5 13.2.3-10.5 8 3.8 12.8-11-7.6-10.8 7.6 3.8-12.7-10.6-8 13.3-.4z"/><path fill="#24a34e" stroke="#0a1a1d" stroke-width=".754" d="M624 365.7c-.4.4-2.2.6-2.6.7h-3.2l-1.7.2c-3.8-.4 6.2-.3 7.6-.9m-10-3c.2-.4 1.4-3.2 1.9-4l2.1-3.7c.3-.5 1.6-1.8 1.9-1.2a21.1 21.1 0 0 0-4.8 7.4L614 363c-.3.3-.2.9-.6 1h-.1l.6-1.2zm14.4 2.2s-1.8-.3-2.9-.6a12 12 0 0 0-8.5.3c-1.2.5-2.8.5-2.8.5s-.9.2-.5 0l1.8-1.3 1-1.3c.2 0 4.8-6 4.3-7.7.7-1.2 1.5-3.3 1.2-3.6-.2-.2-3.6 1-4.3 1.7-1 .8-1.5 2.3-1.8 3.2-.2 1-1.5 1.7-1.5 1.7-1.1.7-1.9 3.2-2.3 5.2-.3 2-5.2 3-5.2 3s-1.3.5-.1.9c.2 0 .7 1 1.2 1s3.6-1.3 4-1.2a35.7 35.7 0 0 1 3 .9c1.2.4 2.1.6 3 .3a6 6 0 0 1 2.8 0c.8.1 1.8 0 2.4-.1l2.1-1 2.7-1.2c1-.5.4-.7.4-.7"/><path fill="#24a34e" stroke="#0a1a1d" stroke-width=".602" d="m615.3 370.7-7-3.5c-.2 0-3-1.6-4.3-2a9 9 0 0 0-2.7-.4 20 20 0 0 0-2.9.6l1.7.7 2.3 1.2c1 .5 1.1 1.2 1.1 1.2l6 2.7 1.3.9s1-1.6 4.5-1.4"/><path fill="#24a34e" stroke="#0a1a1d" stroke-width=".794" d="M622 356.9c2.1-1.9 3.1-4.5 4.8-6 .3.2.3.5 0 1.1-.3.6-.8.8-1 1.1-.3.5-1.4 1.4-1.7 1.9-.2.5-.5 1.2-1.4 1.7-1 .5-.7 1.4-.7 1.8-.1.4-1.5 1.4-2.2 2.6-.1 1.3-.2.8-1 1.2 1.5-2.1 2.2-3.5 3.2-5.4m-4.7 6c-.1.2-4.3 2.5-3 2.2 1.3-.3 5.1-1.7 6.2-2.2 1.3-.6 2.1-1.8 3.1-2.8 1-1 4.2-4 4.7-5.2.6-1.2 1-2.8-1-6.5 0 0-.4.7-1.2 1.4l-2 1.5-1.3 1.3-5.5 10.2"/><path fill="#24a34e" stroke="#0a1a1d" stroke-width=".754" d="m634 359.7-2.8-.2c-.2 0-1.7-.2-3.8-.2-2 0-2.9.7-3.4 1.3l-2.3 2.1h1c2-1.7 3.7-1.1 4.4-1.1.6 0 1.5 0 3.6-.7 2.1-.8 2-.1 1.8 0a11.2 11.2 0 0 1-3.2.6l-3.6.4c-.7 0-5.3 1.3-5.3 1.3s5 .3 5.5.5c.6.2 1.4 0 2.1-.3 2-.8 2.8-1 3.6-1.2.8-.1 1.8-.7 1.8-.7s.5-.3 1-1.2c.4-.8-.3-.6-.3-.6m2.5-13.8c.3-.8 1-2.7 2-3.4.4-.4 1.3-.6 1.8-.8.2-.1 1.6-.2-.2.3-.7.2-1.7.7-2.2 1.4-.6 1.8-1.2 3.3-2.3 4.4-1 1-1.5 2.1-1.5 2.1l-.9.3c1.7-1 2.5-3 3.3-4.3zm8.2-1c-1 .3-1.4.6-1.4.6-2.1.6-3 2-4 3-.4.7-1.1 1.1-3.4 2-2 1-3.7 2.4-3.7 2.4s-.7 0-.5.4c0 .2.6 0 .6 0s4.3-.6 6-1.7a7.8 7.8 0 0 0 3-2.9c.4-.7 1-2 1-1.2 0 2.4-3.6 4.7-5.2 5.4-.9.3-2 .5-3.5.7-1.5.3-2.4.2-2.3 0 .1-.6.3-.7.7-1.1.7-.9 2.4-1.2 3.7-1.8a11 11 0 0 0 3.6-2.4c.7-.9 1-1.2 1.1-1.9.6-1.9.6-3 1.1-3.6 1.8-2.2 2.1-3 2.2-4 0-.2-1 .6-1.5.9-1 .6-1.3.6-3.3 1-2 .6-2 1.9-2.3 2.5a5 5 0 0 1-1.3 1.5c-.4.2-1.4 1.6-1.7 2.4-.3.6-.7 1-1.1 1-.4-.1.7-4.4 1-5.1.3-.8.3-2.1.3-2.6s0-1.6-.7-1.8c-.8 0-.9-1.2-.9-1.2-1.8 1.7-.8 4.5-.6 6.2.2 1.7-.4 4.8-.4 4.8 1.8.8.4 3-.2 3.7-.5.7-1.7.9-2.2 1.5l-4.3 6 4.7-1.4s.5 0-.2-.5c-.8-.5.2-2.5.8-3 1.2-.9 2.7-.2 2.7-.2s2.2.3 4.9-.7c2.2-1 3.2-2.3 4.3-3.4.5-.6 1.6-2.6 2.3-3.7.4-.7 1-2 .7-1.8"/><path fill="#24a34e" stroke="#0a1a1d" stroke-width=".84" d="M631.4 357.6c.3-.2.4-.2 1-1 .7-.7.1-1.9-.9-1.8-.5 0-1-.1-2 1.2s.5 1.8 1 1.8c.2 0 .5 0 .9-.2"/><path fill="#24a34e" stroke="#0a1a1d" stroke-width=".858" d="M629 349.4c-.7 1-1 2.2-.5 2.6 0 0 .5.4.9.4.3 0 1.4-.5 2-1.4.5-.8 1-1.8-.2-2.4-1-.5-1.8 0-2.3.8"/><path fill="#24a34e" stroke="#0a1a1d" stroke-width=".754" d="M632.5 336.6s0-.2-.3-.6c-.7-.7-1.5-1.9-1.5-1.9a3.5 3.5 0 0 0-1.7 2.7c0 .6.2 2 0 3.2 0 .5-.1 1-.8 2.6-.6 1.6.1 3.1.3 3.6 0 .5.6 2.1.6 2.1l.7-.3h.9s.8-1.5.8-2.2c0-.6 0-1.6-.4-3.1a8.7 8.7 0 0 1 0-4c.2-1.3 1.4-2.1 1.4-2.1"/><path fill="#24a34e" stroke="#0a1a1d" stroke-width=".828" d="M634.4 338.8s.8-.2 1.1-.9c.5-.8.4-1.6.4-1.6-1.2-2.2-2.7-.5-2.7-.5-1.4 2.8 1.2 3 1.2 3"/><path fill="#24a34e" stroke="#0a1a1d" stroke-width=".984" d="M638.3 334.7c-1.7.1-2.5 3.2-2.5 3.2s-.3.7-1.2 1.3c-1 .6-.4 1.5-.4 3s-1 4.2-1 4.2l-.5 1s0 .6.7-.6c1-2.1 2.2-1.6 2.6-3.9.3-1.7 3.1-2.2 3.1-2.2l-.8-.1c-2.9-1.4.2-4.8.7-5.4.5-.6 1-.6-.7-.5"/><path fill="#24a34e" stroke="#0a1a1d" stroke-width=".838" d="M637.8 338.3c-.8 1.7 1.5 1.8 2 1.5l.7-.7c.9-1.3 0-2.1-.4-2.3-.5-.1-1.5-.2-2.3 1.5"/><path fill="#24a34e" stroke="#0a1a1d" stroke-width=".754" d="M633.6 331.9c.6 1 2.2 4 2.6 3.9.2-.1 0-.8 0-.8l-.3-1.8c-.2-1-.2-2.2-.7-3-.5-.9-1.7-1.8-2.2-3.1-.4-1.3 0-3.8 0-4 0-.4.2-.2 0-.5-.3-.3-2.4-1.4-2.4-1.4v2.3l-.1 1.3c0 .6.3 1.3 1.1 3l2 4m12.3-14.3-.8 1.2-3.7 3.2c-.2.1-2 .7-3.5 5-1.6 4.3-1 8.3-1 8.3h.8l.2-.5.4-2.5c.3-1 1.5-2.6 2.2-3.7.8-1 1.4-2.6 1.4-2.6 1-1.8 1.3-3.4 2.2-4.7 0 1.5-5.6 10.8-6.3 14l1.7-.3c1.4-1.3 3.2-3.9 4.4-5.5 1.2-1.7 1.7-4.3 1.9-5.5.2-1.2.1-6.4.1-6.4"/><path fill="#24a34e" stroke="#0a1a1d" stroke-width=".754" d="M634.6 318.4c-.9-.8-1.6-1-1.6-1l.2 2.5v3.4c0 .9-.4 2.3.2 3.7.6 1.4 1.3 2 1.8 3 .5.8 1.3 5.1 1.3 5.1s-.3-5.9 0-7.5c.2-1.7.3-4.3 0-5.5a9 9 0 0 0-2-3.7m4-5.7c.3-.5.9-1.6 1.1-3.2l.2-2.5c0-.5-.3-1.4 0-1.4.2-.1 0 .2.1 1l-.2 2c0 .7 0 1.3-.4 2.3-.3 1 0 2-.2 2.2l-.7 1.4s-.3.9-.3 1.7l.1 1.7s.4-.7 1.2-.8l.2-1.8c0-.5.6-3.3.9-4.1.3-1.3.6-3.5 0-6-.2-.7-.3-2.8-.3-2.8s-.8.6-1.3 3c-.1.8.2 2.8 0 5 0 1.1-1.1 5.9-1.3 6.2"/><path fill="#24a34e" stroke="#0a1a1d" stroke-width=".754" d="M638.5 312.7"/><path fill="#24a34e" stroke="#0a1a1d" stroke-width=".754" d="M635.3 300.3c.4 0 .4.5.4.9l-.1 1.2.3 1.7c.2.5.5.7.3 1.8 0 .7-.7 1.5-.5 2.6.1.6.6 1.3.8 1.8.2.4 0 1.3.1 2 0 .7.4 1.2.4 1.2s-.5.9-.6-.2l-.5-2.5c-.4-1-.8-2.7-.2-4 .2-.3.2-.8.2-1.4l-.4-2.1v-2m-2.3 5.5c.1.8.4 1.2 1.2 2.8l1 2.3.1 1 .1 1.2v.4l-3.3-2-2.9-2.4c-.8-.6-2.7-3-2.8-4.8l-.9-.8s-.7 4.1 2.6 6.8c1 .8 2 1.6 4.1 2.6 2.2 1 2 1.9 2.8 3.8 1 2 1.5 3.1 1.6 3.6l-.2 8.9v.8s2-7.7 3-8.6c0 0-2-.3-1.8-3.2l-.3-2s-.4-2.4.3-3.9c0 0 .9-2.7.6-5l-.4-3.2c-.3-2-1.1-5-1.2-5.4l-.7-2c-.1-.3-.3-1.3-.6-1.3-.2 0-.5 1.3-.5 1.3l-.4 1.7c-.3 1.1-1 2-1.2 4.5l-.1 1.8v1.1"/><path fill="#24a34e" stroke="#0a1a1d" stroke-width=".754" d="m635 317.3-.7-1.1c-.7-.8-1.6-1.5-4.2-2.8-2.6-1.3-3.3-3.4-4.6-4.3-.7-.4-1.8-.6-1.8-.6l1.4 2.1c.4.7.4 1.2 1.9 2.5 1.4 1.4 3.1 1.8 4.2 2.2 1.6.5 3.7 2 3.7 2m-8.2-12.3c.1.2.8 2.5 2.2 4.3 2.1 2.7 6.3 4.6 6.3 4.6-.4-1.7-1-3.6-1.6-4.5-1.9-3-6.9-4.5-6.9-4.5m6 1.4c1.1-2.5-2.2-4.8-3.2-6.5.4-.3.8.4 1.2 1l2 2.7.5-2.2-4-3.6c0 .5-1.2 1-1.2 1-.6 3.3 4.7 7.6 4.7 7.6"/><path fill="#24a34e" stroke="#0a1a1d" stroke-width=".754" d="m625.8 300.6-1.3.4.5 1.5.3.3s1.3 1.8 2 2l2.6.9c1.4.6 3.7 2.6 3.7 2.6s-3.8-4.4-5.3-7.7l-.5-1.8h-1.4s.3 1.4-.6 1.8"/><path fill="#24a34e" stroke="#0a1a1d" stroke-width=".754" d="M611.3 297.8a13.9 13.9 0 0 0 2 1.6c1 .5 3.4 2 5.2 2.3l2.8.4c0-1 1.2-1.2 1.2-1.2l-3.3-.3a8.9 8.9 0 0 1-6.2-3c2 1.2 5 3.2 7.5 3 10.1-.9-3-1.1-4.1-1.9-1.2-.7-2.3-2-2.3-2h-3s-1.4-.2.2 1.1"/><path fill="#24a34e" stroke="#0a1a1d" stroke-width=".754" d="M623.1 303.5c.7 0 1.1-.1 1.3-.8.1-.8-.2-1.4-1.2-1.6-.5-.2-1.4-.2-1.8.8-.4 1 1 1.6 1 1.6h.7m1.1-5.7c-.8 0-1.1.7-1 2 .3 1.4 2.4.8 2.4.8l.4-.2s.3-.2.1-1.3c-.1-1.1-1-1.3-1.9-1.3m3.5 1"/><path fill="#24a34e" stroke="#0a1a1d" stroke-width=".754" d="M627.6 298.7h.3c.5-.2 1-1.3 1-1.3.1-1.4-.9-1.7-.9-1.7-1.7-.4-1.7 1.1-1.7 1.1-.5 2 1 2 1.3 2M620 292c.1.7 1 1.6 1.2 1.8l1.7 1.9 1.8 3s.2 0 .3-.2c.2-.4-.9-3.4-1-3.6-.4-1-1-1.6-1.8-2.3L621 291c1.2 1.5 4.3 5.9 5.2 7.8l-.2-3.1c-.4-3.3-1.3-4.3-1.5-4.7a5.2 5.2 0 0 0-2.6-2c-.8-.4-1.9-.8-3-1.1-1-.4-.2.6.2 1.5.5 1 1 2 1 2.6"/><path fill="#24a34e" stroke="#0a1a1d" stroke-width=".754" d="M615.8 297.3c1.1 1 1.6 1.6 4 2 2.3.3 2.5.2 2.5.2s1.2-.6.6-1.1a23.4 23.4 0 0 1-8.3-5.3s.3-.3 1.4.9l1.6 1.4 3 1.8 2.3.7.5-.6c.2 0-.1-.8-1.6-2a11.5 11.5 0 0 1-2-2.2s-1.8-.4-3.6-.7c-1.4-.2-4-2.2-4-1.7.1.6.5 2.3 1.2 3.4s1.3 2.3 2.4 3.2"/><path fill="#24a34e" stroke="#0a1a1d" stroke-width=".602" d="M596.6 367c-1 .2-8.6 3-8.6 3l-2 .9c2.8-.7 5 .8 5 .8l8.5-3.9-.2-.3c-.3-.1-1.7-.9-2.7-.6"/><path fill="#24a34e" stroke="#0a1a1d" stroke-width=".644" d="M585.6 371.2v.3c.5.2.3.3 2.3.5 1.9.2 3.1-.1 3.5-.5.4-.4-4.8-1.2-5.8-.3"/><path fill="#24a34e" stroke="#0a1a1d" stroke-width=".836" d="m573.5 344-.3-2.4s-.5-6.4-1.2-7.7c-.2-.3 0-1-.5-1-1 0-1 2-1 4-1.5 9.4 6.1 16.7 6.1 16.7z"/><path fill="#24a34e" stroke="#0a1a1d" stroke-width=".77" d="M611 372s-.8 0-.3-.7c.5-.6 2-1 2.2-1l1.7.3c.6.2 1.4.7 1.2 1-.3.4-1 .9-2.2.9a7 7 0 0 1-1.9-.1l-.7-.3"/><path fill="#24a34e" stroke="#0a1a1d" stroke-width=".602" d="m602.8 367.6-5-2.4a23.8 23.8 0 0 1-10-7.9c-3.4-5-6.3-7.6-7-8.2-.8-.5-.9-.7-1.1-.3-.3.3-.1.6 0 1 .8 1 2.5 3.2 3.1 4.3 1 2.1 3.3 4.3 3.3 5.7 0 .2-.7-.2-.7-.2s-5.1-1.7-7.2-8c-1.5-4.5-.9-5.8-1.2-8-.6-4.1-.8-4.4-2.8-9 0 0-1.2-2-1.3-1.5-.2.5.2 2.6.2 2.6l.2 2.3-.2 5.4c0 .3-1.3 3.6 4.2 9 0 0 .1.9-.6 0-.6-.5-4.5-3.5-5.7-8.5-1.2-5-1.4-10-.5-12 .9-2 2.6-6.5 1.8-10.5 0-.4-.2-1.7-.4-1.3-.1.1-.6 2.1-1 2.8-.3 1-1 2-1.2 2.6-.4 1.1-2.3 2.9-2 6 .5 3.7.8 4.3 1.2 5.6.1.5.5 1.7.3 1.8-.2.1-1-1.4-1-1.4s-3.5-6.9-1.4-12.4c2.2-5.6 7.7-10.8 7.7-10.8l5.3-4.6c.4-.3.3-.6.2-.5-1.1.3-9.7 2-12.7 12.2 0 0-.1.4-.3.3-.3-.1 0-.6 0-.6s1.8-7.2 7-10.5l7-4.1c1.3-.8 2.3-1.8 3.7-4 .1-.2.7-1.5.6-1.8 0-.2-.3.1-.4.5 0 0-1.7 2.5-4.1 3.4-2.5.8-4.4-.4-6.9 2.3-2.5 2.7-4.4 6.5-4.4 6.5s-.7 1-.8 1c-.3-.1.1-1 .1-1s3.3-7 6-8.5c2.6-1.4 5-2.8 6.4-4 1.9-1.3 5-4.8 6.1-6 .3-.3 2-2 2.3-2.6.3-.3.8-.7.7-.8-.2-.2-1.8.6-1.8.6s-8.7 2.4-14.1 10.6l-1.2 1.5c-.6.5-.9 1.5-.9 1.5-.3-.2 3.1-4.5 3.1-4.5l.6-2.8s1-4.1 3.1-7l1.7-1.8c.4-.5-.8.4-.6.2 0 0-8 5.8-8 13.1 0 1.4-1 2.6-2 4.2a13 13 0 0 0-2.4 5.9 231.5 231.5 0 0 1-.7 3.6s0 1-.3 1c-.3-.1-.2-1-.2-1s.8-5.5 1.4-7.2l1-2.7s-.4-4.1.5-6.4c.8-2 2.8-4.5 3-5.2.2-.3 1.1-2.1 1.4-4.2 0-.3-.2 0-.6.8-.9 2-1.6 2.5-3.1 4.4 0 0-3.8 2.7-5.1 10.8 0 0 0 3-.5 7.8-.4 3.4 0 6.7.3 8.7.3 1.1.7 1.2.5 1.3-.2.1 0 0-.4-.9-.5-1-.9-2.7-.9-5 0-4.3.4-7.7.4-7.7s.3-6.8-2.6-9.9c-.1-.1.5 1.4.8 3 .4 1.9-.3 4.5-.5 5.5-.1 1-2 5.6-1.4 9.8 0 0 1.6 7.2 3.7 10.7 0 0 1.3 1.5.1 0-1-1.3-3.4-7-3.6-7.4a20 20 0 0 0-3.4-5.3c-.8-.8-3-2.1-3-2.1s-1.2-1-.3.3c.8 1 1.7 2.7 2.2 3.4a40.2 40.2 0 0 1 2.5 4.8c.8 1.7 2.5 6.4 2.5 6.4l1 3s2 1 3 2.2c.8 1 2.5 3 3.9 6.7.6 1.6 1.9 3.1 1.9 3.1s-.3.5-1.4-1.4c-1.1-2-2.2-5.7-5-8.6-2-2.3-7.5-4.5-7.5-4.5s3.6 6.2 4.5 7.3l4.1 4.8c.6.7 4 4.8 4.4 5.5l1.7 1.9c.9 1 3.5 2.6 3.7 2.9 0 .2 0 0-.1-.1l-4-2.7c-1.4-1-6.9-3.3-10.6-8.4-.8-1.5-1.2-2-1.5-2-.5.3 2.4 10 8.5 13 0 0 6.6 3 8.1 4 .8.4 2.4 1.1 3.2 1.8.4.3-.4.3-.5.3-3.5-.3-8.6-.8-11.7-2.6 0 0-1.3-1-.2.4.9 1 2.5 3.5 5.7 5 3.2 1.4 7.9 2.2 9.6 2.3 1.6 0 7.6 0 8.7.5 1.2.3 3 1.6 4.1 2 1 .2 4 1.4 4 1.4l1.4.6c.5.3 2.8.2 3-.2 0-.4-.7-1-.7-1"/><path fill="#24a34e" stroke="#0a1a1d" stroke-width=".754" d="M641.4 317c.7.3 1 2.3 1 2.3v-1.7l-.3-2.7-.6.4c-.8.6-1.2 1.6-1.2 1.6s.5 0 1.1.2"/></svg>