<svg xmlns="http://www.w3.org/2000/svg" width="1200" height="720"><path fill="#003396" d="M0 0h1200v720H0Z"/><path fill="#faf6f5" d="M0 0h1200v480H0Z"/><path fill="#e30631" d="M1200 0v240H0V0Z"/><path fill="#0a1a1d" d="M600 446c47 0 86-39 86-87 0-47-39-85-86-85s-86 38-86 85c0 48 39 87 86 87Zm-52.9-46 8.7-5.8-1.2-1.8-3.7 2.5 1.7-5.5-1.5-2.1-1.5 5.2c-2.6-2.1-6.8 1.1-4.6 4.4Zm.4-2.9-.7-1.1c-1.3-1.8 1.3-3.4 2.4-1.6l.7 1.1Zm-7.5-9 9.7-4-2.4-5.8-1.8.8 1.5 3.8-2.2.9-1.5-3.5-1.7.7 1.5 3.5-2.1.9-1.6-3.8-1.8.8Zm-4-11.6 10.2-2.1-.4-2.1-3.5.7-.3-1.4c-1-4.7-7.7-3.2-6.7 1.5Zm1.4-2.5-.2-1.2c-.4-2.4 2.4-2.8 2.9-.7l.3 1.3Zm2.9-10.5c5.4 0 5.5-8.4.1-8.4l-6.5-.1v2.2l6.6.1c2.7 0 2.6 4-.1 4l-6.6-.1v2.2Zm4.5-12.6.9-4.1c1-4.5-4.2-4.7-5-2.8-.2-2.6-4.4-2.7-5.3 1.2l-.8 3.4Zm-5.5-3.5-2.4-.5.3-1.3c.4-1.8 2.8-1.4 2.4.4Zm4.1 1-2.5-.6.4-1.8c.4-1.7 2.8-1.1 2.5.5Zm4.3-8.9 2.5-5.7-1.8-.8-1.6 3.7-7.8-3.4-.8 2Zm4.6-9.2 1.1-1.8-8.8-5.6-1.1 1.9Zm7.7-9.5c.8-.8 1.4-2.1 1.5-3.1l-1.7-1.5c0 1.2-.5 2.5-1.2 3.2-3.4 3.4-8.1-1.3-5.1-4.4.8-.8 2.1-1.5 3.1-1.7l-1.7-1.5c-1 .4-2.1 1.2-2.9 2-5.3 5.3 3.1 12.6 8 7ZM600 442c-46 0-82-37-82-83 0-45 36-81 82-81s82 36 82 81c0 46-36 83-82 83Zm0-10c40 0 72-33 72-73 0-39-32-71-72-71s-72 32-72 71c0 40 32 73 72 73Zm0-2c-38 0-70-32-70-71 0-38 32-69 70-69 39 0 70 31 70 69 0 39-31 71-70 71Zm0-18c29 0 52-24 52-53 0-28-23-51-52-51s-52 23-52 51c0 29 23 53 52 53Zm0-2c-27 0-50-23-50-51 0-27 23-49 50-49 28 0 50 22 50 49 0 28-22 51-50 51Zm12-5h2c1 0 2-1 2-1v-1h-1v-1c-1 0-3-1-5-2 1-1 2-1 2-1 1 0 2 1 3 1h8c1 0 2-1 3-1 0 0 1-1 2-1s1-1 1-1c-1 0-1-1-2-1h1c2-1 3-1 4-1 1-1 2-1 2-1s0-1 1-1v-1c0-1-1-1-1-1h-5c1 0 1-1 1-1h2l1-1v-2s2 0 5-1c2-1 3-2 3-3h1c1-1 1-2 2-3v-1l1-2h-2c-1 0-1 1-2 1v-1c1-1 1-2 1-2 2-2 2-3 2-4s-1 0-1 0h-1c-1 1-1 1-2 1 0 0 1 0 1-1v-2l-1-1s-1 0-2 1l1-1c0-1 1-1 1-1 1-1 2-3 4-6 1-2 2-5 2-6v-7l-1 1c0 1-1 1-2 2v-2c0-1-1-3-1-3v-1l-1 1c0 1-1 1-1 2v-2s1-3 1-4c0 0 1-3 0-6v-3h-1s-1 1-1 3c0 1-1 1 0 1-1 0-1 0-1-1s0-3-1-5v-2h-1v-2c-1 0-1 0-1 2l-1 1v2l-5-4c0-1 0-2-1-2s-1 0-1 1h-1c0-3-1-4-1-5-1-1-2-2-3-2 0-1-1-1-1-1h-2c0-1-1-1-1 0v1s1 0 1 1c0 0 1 1 1 2v1s-2-1-4-1c0 0-1-1-2-1-1-1-2-1-2-1v1s0 2 1 3v1l3 3c-1-1-2-1-2-1v-1h-3s-1 0-1 1l3 3c2 1 4 2 5 2h3v1l1 1h1c1 0 2 0 2-1 0 0 0 1 1 1h-1c0 1 0 3 1 5-1-1-2-1-2-1h-1v1c1 0 2 1 2 2s0 1 2 2c1 2 3 2 4 3 2 0 4 2 4 2-1-1-2-1-2-1v5c-1 0-2-1-2-1h-1v4s0 1 1 3c1 1 1 2 1 2 1 2 1 3 1 3 1 1 1 2 2 3-1 0-2 1-2 1h-1c0-1-1-2-1-2-2 1-2 2-2 3v3s-1 1-1 2c-1 2 0 3 0 4s1 2 1 2v1c-1 0-1 0-1 1v-2h-1s0 1-1 1l-2 2-1.7.9c.2-.5.3-.9-.3-.9 0-1-4 1-4 2-2 1-2 3-2 3-1 1-1 1-2 1-1 2-2 5-2 6s-4 2-5 3h-1s-1-1-2-1h-7c-4-2-7-4-10-8-3-5-6-7-7-8l-1-1s-1 0-1 1c0 0 0 1 1 1 0 0 0 1 1 2s1 2 2 2c0 1 1 2 1 3l2 2c-1 0-6-1-8-7-1-4-1-5-1-6v-3c0-3 0-4-2-8 0 0-1-2-2-2s0 1 0 1h-1v-1h-1s-1 0-1 1c0-1 1-2 1-2 0-1 2-7 2-12l-1-1s-1 0-1 1v2l-1 1c0 1 0 1-1 1v1c-1 1-2 3-2 7 1 3 1 4 2 5v1l-1-1s-3-6-1-13c2-5 8-10 8-11l5-4v-1c-3 1-7 2-10 7 1-2 2-4 4-5 4-3 5-3 6-4h1l4-4 1-2c0-1-1-1-1-1v1c-1 0-2 3-4 3-1 1-2 1-3 1s-3 0-4 2c-3 2-5 6-5 6s3-6 6-8c3-1 5-3 6-4 2-1 4-4 6-5 0-1 0-1 1-1l2-2v-1h1v-1h-1l-2 1s-7 2-12 8v-1c0-1 1-5 3-7 0-1 1-1 1-1l1-1v-1h-1v1s-8 6-8 13c0 1-1 2-2 4s-2 3-2 6l-.7.2c.7-1.7.7-3.2.7-3.2 1-2 1-3 1-3s0-4 1-7c0-1 1-2 2-4l1-1c1-1 1-3 1-4v-1s-1 1-1 2c-1 1-1 2-2 3 0 0-1 0-1 1 0 0-4 3-5 11v2c0-3-1-6-3-8v3c1 2 0 4 0 5v2c-1 2-2 5-1 9v3c0-1-2-4-3-6-1-1-3-2-3-2h-1v1c1 1 1 2 2 3l3 5c0 2 2 6 2 6l1 4c-2-2-4-2-4-2l-1-2v2l5 7 3 4 1 1c0 .9 3.2 4.2 3.9 5.6a20.2 20.2 0 0 1-8.9-6.6c0-2-1-2-2-2 0 2 3 10 9 13 0 0 7 3 8 4l1 1c1 0 1 0 2 1-3 0-8-1-12-3h-1s0 1 1 1v1c1 1 3 3 6 4 3 2 8 2 9 2s1 1 2 1h7s1 1 2 1 1 1 2 1l-7 3-2 1h-1v1h6l8-4 1 1h5l5 2 1 1h1s0 1 1 1Zm-25-28 34-25h-41l34 25-14-40Zm-22.9-60.4 1.9-1.3-.4-2.4 3.7-2.6 2.1 1.2 1.9-1.3-9.9-5.8-1.3.9Zm.9-5.5-.7-3.9 3.4 1.9Zm88.7 88 1.3-2.1-2.2-4.3 4.9.1 1.3-2.1-7.2.1-3.7-2.4-1.2 1.8 3.7 2.4Zm-3.4-14.7 11.4-.9.6-1.5-8.1-8.1-.8 2.1 1.7 1.7-1.5 4.3-2.5.2Zm5.2-2.3 1-3.1 2.9 2.7Zm9.4-9.1.3-2.1-6.5-1c-2.7-.4-2-4.3.5-4l6.5.9.3-2.2-6.5-.8c-5.6-.7-6.4 7.5-1 8.3Zm-78.2-67.3 3.9-.7c6.9-1.2 5-11.7-1.9-10.3l-3.8.7Zm1.8-2.3-1.1-6.5 1.8-.3c4.1-.7 5.2 5.8 1.1 6.5Zm16.7 1 .1-1.9-4.1-.1.1-2.5 3.8.1v-1.8l-3.8-.1.1-2.3 4.1.1.1-1.9-6.3-.2-.3 10.4Zm52.1 55.1 4.5-.4-.5-4.9-1.8.2.3 2.8-1.6.2c-.3-.4-.7-1-.8-2.2-.2-2 1.3-3.6 3.1-3.7 1.9-.1 3.4 1.3 3.6 3.3a6 6 0 0 1-.8 3.5l2.2-.2c.5-.9.8-2.4.6-3.6-.5-3.3-3-5.5-5.9-5.2a5.2 5.2 0 0 0-4.8 5.9c.1 1.5.9 3.3 1.9 4.3Zm-41.7-53.2.4-1.9-4-.9 1.8-8.3-2.1-.4-2.2 10.2Zm39.2 41.1 8.4-7.9-.5-1.5-11.5-1.2.8 2.2 2.4.2 1.5 4.3-1.8 1.7Zm2.6-5.1-1-3.1 3.8.5Zm-12.9-17.1 4-10.8-1.1-1.1-10.8 3.8 1.6 1.7 2.3-.8 3.2 3.2-.9 2.3Zm6 9.8 1.8-5.2c2.7 2.2 6.8-1.1 4.7-4.2l-2-3.3-8.9 5.5 1.2 1.8 3.9-2.3-2 5.5Zm-5.9-15.5-2.4-2.4 3.9-1.3Zm8.2 8.4-.7-1.1 2.4-1.6.7 1.2c1 1.7-1.4 3.2-2.4 1.5Zm-22-14.8 2-2.9 1.2.8c3.9 2.6 8.1-3 3.8-5.8l-2.9-2-5.9 8.7Zm4.2-3.8-1.1-.7 1.7-2.5 1 .7c2 1.4.5 3.8-1.6 2.5Z" todo="true"/><path fill="#24a34e" d="M588 403c1 0 2 0 2-1h-4s0 1 2 1Zm3-1 7-3-2-1-8 3c1 0 3 1 3 1Zm9-2c1 0 3 0 2-1l-5-3c-4-1-7-4-10-7-2-3-4-6-7-8l1 1 2 3 1 2c1 2 2 3 2 4h-1c-4-2-6-5-7-8s-1-5-1-6l-1-2c0-4 0-5-2-9l-1-1v11c0 1 1 2 1 3 1 1 1 2 2 3l1 1v1l-1-1c-1 0-2-1-3-3-1-1-1-2-2-3l-2-2-4-8c-2-2-5-4-7-4 1 1 3 5 4 6l3 4 1 1c2 2 4 4 6 7l3 2v2l-2-2-2-1-1-1c-2-1-6-3-9-8l-1-1c0 2 3 9 8 12l12 6-1 1c-3-1-8-1-12-3 2 2 3 4 6 5s7 2 11 2c3 0 6 0 7 1l4 2h1l3 1c1 0 1 0 1 1Zm-25-19c-2-2-3-4-2-6v-2c-1-3-1-7-2-9v4c-1 4 0 7 1 10 1 1 2 3 3 3Zm35 21c1-1 2-1 3-1l-4-2h-1l-2-2c-2 0-3-1-5-1-1 0-1 0-1 1l2 1 1 1Zm1 1h2c1 0 2 0 2-1h-2c-1 0-2 0-2 1Zm-41-28v-4c-1-3-1-6 0-8s3-6 2-11l-1 2-1 1v2s-1 0-1 1c-1 1-1 3-1 5 0 3 0 4 1 5v2s-1 0-1-1-4-7-2-13c2-4 5-8 8-11l5-4c-3 1-9 3-12 12l-1-1c1-1 2-7 8-11 4-2 5-3 5-3l2-1c1-1 2-2 3-4 0 1-2 2-3 3h-3c-1 0-3 0-4 2-3 3-4 7-5 7 0 1-1 1-1 0v-1s4-7 6-8c3-2 6-3 7-4s4-4 5-6l1-1c1 0 2-1 2-2h-1s-8 3-14 11c0 0-1 1-1 2l-1 1v-2l3-3v-3s1-4 3-7c-2 3-6 7-6 12 0 1-1 3-2 4-1 2-2 3-2 6 0 2-1 3-2 5v-1c0-1 1-6 1-8l1-2c0-1 0-5 1-7 1-1 2-3 2-4l1-1 1-2-2 2s0 1-1 1c0 0-4 3-5 11v8c-1 3-1 6 0 9-1-2-2-3-1-5v-8s0-5-1-8v1c0 2 0 4-1 6v1c-1 2-2 5-1 9 1 3 2 7 4 10v1l-1-1c-1-2-3-5-3-7-1 0-2-4-4-5l-2-2 1 3c1 2 2 3 3 5l3 6 1 3s2 1 2 2c2 2 3 4 4 7Zm48 24c1-1 2-1 3 0h2l5-3h-3c-1-1-3-1-4-1s-3 1-4 1-2 1-3 1c0 0-1 0-1-1l2-1 1-2c1 0 5-6 4-7 1-1 1-3 1-3l-3 1c-1 1-2 2-2 3s-1 2-2 2c-1 1-1 3-2 5 0 2-4 3-5 3 1 1 1 1 2 1h1s1 0 2-1l3 1c1 1 2 1 3 1Zm-3-1c0-1 0-1 4-1h5s-1 1-3 1Zm-2-3v-1l3-6c1 0 1-2 2-2 0 0 1-2 2-2v1c-3 2-4 6-5 7l-1 3Zm3 0c1 0 3-1 4-1 1-1 2-1 2-2l3-3 3-4v-2c-1 0-1-1 0-1l-1-2-4 4-6 10Zm3-1-1-1c1-2 2-3 3-5 1-1 2-2 3-4 1-1 1-2 3-2v1l-3 3c0 1 0 2-1 2s-1 1-1 2l-2 2c0 1 0 1-1 2Zm4 0h3c0 1 1 0 2 0 2-1 2-1 3-1l2-1 1-1h-7c-2 0-3 0-3 1l-1 1c2-1 3-1 4-1h3c2-1 2-1 2 0-1 1-2 1-3 1h-4Zm6-6h2l1-1-1-1s-1 0-2 2Zm0-5s1 0 2-1v-2c-1 0-1 0-2 1Zm3 2h1c2 0 3 0 4-1 1 0 2-1 3-2-1 1-2 2-3 2-2 1-4 1-5 1Zm-7 5 3-2c0-1 1-2 1-3 1 0 1 0 2-1l1-1s1-1 3-1l1-1c1-1 2-1 3-2s1-1 1-2v-1c1-1 1-2 1-2 1-1 2-2 1-3-1 1-1 1-2 1h-2c-1 1-1 1-1 2-1 1-1 2-2 2 0 1-1 1-1 2-1 1-1 2-2 1l1-5v-4c-1 0-1 0-1-1-1 1-1 3 0 5v1c0 1 0 3-1 4l1 1c1 1 0 3-1 3 0 1-1 1-1 1l-1 1-1 2Zm4-11h1c1-1 1-2 1-2v-3c-1-2-1-3-1-4 1-1 1-2 2-3l-2-1s-1 1-1 2v3l-1 3c0 1 0 2 1 3Zm4 5c1 0 4-1 5-2 1 0 2-1 3-3 1-1 1-1 1 0l1-1v-1c-1 0-2 1-4 3l-2 2h-2c-1 1-2 1-2 2Zm0-3c1-1 2-2 2-3l1-1c0-1 1-3 2-4 0 0 1 0 2-1 0 0 1 0 1 1h-1l-2 2c-1 1-1 3-2 4l-2 2Zm1-5c1-1 1-1 1-2s1-2 2-2c0-1 0-1-1-2 0-1 1-3 1-3l-1 2s0 1-1 2c-1 0-1 0-1 1Zm-1-7h2v-2h-2Zm5 1c0 1 1 1 2 0 0 0 0-1-1-2 0 0-1 1-1 2Zm-2-4-1-2v-3l-1-1c-1 0-1-1-2-2v-4l-1-1v3s0 1 1 3l2 4c0 1 1 2 2 3Zm0-4v-9c-1-1-1-2-3-4v9l2 2v1Zm2 4 1-1c1-1 3-3 4-5 1-1 2-4 2-5v-5l-4 3c-1 1-2 3-3 5-1 3-1 5-1 7l1-2c0-1 1-2 2-4 1-1 1-2 1-2l1-2c1-1 1-2 2-3 0 1-1 3-2 6-2 3-3 5-4 8Zm-20-34h1c-3 0-5-1-6-4l-2 1c2 1 5 3 7 3Zm-3-2c0-1-1-1-2-2Zm18 17c0-1-1-1-3-2s-3-2-4-3l-2-2 1 2c1 0 1 1 2 2s3 2 4 2 2 1 2 1Zm-13-16-4-1c1 1 2 1 4 1Zm17 28c0-2 1-4 2-5-1-1-2-2-2-4v-2l-1-3v-1c0-1 0-2-1-2 0-1-1-3 0-4v-6l1-1v9l1 1v3s1-2 1-5v-1l-1-2c0-2 0-3-1-5l-1-2v2s-1 0-1 1 0 2-1 4v2s1 1 1 2c1 2 2 3 2 4l-1 2-3-2-3-3c-1 0-3-2-3-5 0 2 0 4 2 6 1 1 2 2 4 3 2 0 2 1 3 2v2l1 1c0 1 1 2 1 2Zm-14-25h1c0-1 0-1-2-2 0 0 0 1-1 1 1 1 1 1 2 1Zm18 18s1-1 1-2c0 0 0-1-2-1h-1v1c0 1 0 2 2 2Zm-7-8c0-1-1-3-1-3-1-3-5-4-6-4 1 1 1 2 2 3 1 2 4 4 5 4Zm-14-14h2c-4-2-7-4-8-6 0-1 1 0 2 1l2 1 3 2h2s-1-1-2-1c0-1-1-2-2-3h-3c-1 0-2-1-4-2 1 1 1 2 2 3 0 1 1 2 2 3s2 2 4 2Zm3 1h2l-1-2c-1 0-1 1-1 2Zm8 6c-1-2-2-3-3-5l-1-2c0 1 0 2-1 2h-1v2c1 0 2 1 3 2h2Zm8 11v-2s1-3 1-4c0 0 1-2 0-5v3l-1 2v4c-1 0-1 1 0 2Zm-7-11c0-2-1-3-2-4v-3s0 1 1 2c0 0 1 1 1 2l1-2-4-3c0 1-1 1-1 2v1l2 2Zm-8-9v-1c-1-2-2-3-3-5l1 1c1 1 2 2 2 3v1l1 1v-1c0-3-1-4-1-5-1-1-2-1-3-2h-1l-2-1 1 1c1 1 1 2 1 3 0 0 0 1 1 2 0 0 2 1 2 2Zm2 1h2v-1c0-1 0-1-1-1l-1 1Zm13 9c0-1 0-2 1-2v-1l-1 2Z" todo="true"/><path fill="#fcd80e" d="m611 373-28-20h35l-28 20 10-32Z"/></svg>