<svg xmlns="http://www.w3.org/2000/svg" width="1200" height="720"><path fill="#faf6f5" d="M0 0h1200v720H0V0Z"/><path fill="#0859b9" d="M0 480h1200v240H0V480ZM0 0h1200v240H0V0Z"/><path fill="#24a34e" d="m578 457 5.6-.4c.7 0 2.4-3.3 3.1-3.9.7-.5 13.5-6.7 21.7-8 8-1.2 20.8-6.1 23.5-7.4a108.8 108.8 0 0 0 32.2-23.7 99.7 99.7 0 0 0 8.9-23.8c.7-3 4.9-15.3 4.9-23.7 0-9.8-1.2-17.7-2.7-24-1.5-6.4-12.3-25-19-33.2 0 0 15 23.1 17.5 32a98.3 98.3 0 0 1 3.2 26.6c-.2 5.2-4.5 24.3-10.8 38.3-5 11.2-9.5 12.5-17.3 18.7-3.7 3-10.8 7.7-16.7 10.7-6 3-18.7 6.7-22 7.2-3.5.6-20.4 5.6-22.6 6.7a57 57 0 0 0-9.5 7.8"/><path fill="none" stroke="#0a1a1d" stroke-miterlimit="1.18" stroke-width=".44" d="m578 457 5.6-.4c.7 0 2.4-3.3 3.1-3.9.7-.5 13.5-6.7 21.7-8 8-1.2 20.8-6.1 23.5-7.4a108.8 108.8 0 0 0 32.2-23.7 99.7 99.7 0 0 0 8.9-23.8c.7-3 4.9-15.3 4.9-23.7 0-9.8-1.2-17.7-2.7-24-1.5-6.4-12.3-25-19-33.2 0 0 15 23.1 17.5 32a98.3 98.3 0 0 1 3.2 26.6c-.2 5.2-4.5 24.3-10.8 38.3-5 11.2-9.5 12.5-17.3 18.7-3.7 3-10.8 7.7-16.7 10.7-6 3-18.7 6.7-22 7.2-3.5.6-20.4 5.6-22.6 6.7a57 57 0 0 0-9.5 7.8Z"/><path fill="#24a34e" d="M663 413.7c-.3-1.7-.5-3-1.1-3.5-.5-.6-2.4-2.8-2.8-4.3-.3-1.4 0-2.6 0-3.4s-.5-3.3-.5-3.3 1-3.1 1.6-3.8c.8-.4 2.7-3 3-3.8 0 0-.1 1.5.3 2.2.7.7.8 2.6.8 3.7s-.3 3.7 0 5c.4 1.5 1 2.7.6 4.3l-1.9 7"/><path fill="none" stroke="#0a1a1d" stroke-miterlimit="1.18" stroke-width=".44" d="M663 413.7c-.3-1.7-.5-3-1.1-3.5-.5-.6-2.4-2.8-2.8-4.3-.3-1.4 0-2.6 0-3.4s-.5-3.3-.5-3.3 1-3.1 1.6-3.8c.8-.4 2.7-3 3-3.8 0 0-.1 1.5.3 2.2.7.7.8 2.6.8 3.7s-.3 3.7 0 5c.4 1.5 1 2.7.6 4.3l-1.9 7"/><path fill="#24a34e" d="M663.5 412s4.3-5.5 4.3-7.8.4-3.5.8-4c.3-.6 2.8-3.5.6-7-1-1.4-1.2-1.3-1.7-2.9-.8-2-2.2-2-2.4-4 0 0-.5 2.3-.7 4.4-.2 2 .1 2.7.3 3.8.2 1.2-.5 2.5-.5 4.1l.2 3.3c0 .6.7 7.7-.9 10"/><path fill="none" stroke="#0a1a1d" stroke-miterlimit="1.18" stroke-width=".44" d="M663.5 412s4.3-5.5 4.3-7.8.4-3.5.8-4c.3-.6 2.8-3.5.6-7-1-1.4-1.2-1.3-1.7-2.9-.8-2-2.2-2-2.4-4 0 0-.5 2.3-.7 4.4-.2 2 .1 2.7.3 3.8.2 1.2-.5 2.5-.5 4.1l.2 3.3c0 .6.7 7.7-.9 10Z"/><path fill="#24a34e" d="m615.8 441 5-.6c.8-.1 3-.7 4.3-1.1 1-.4 3.1-1.5 5-3.4 3.4-3.7 3-5.6 3.7-5.8 1.2-.2-2-.5-3.4-.3a9.5 9.5 0 0 0-5 2.5c-1.3 1.3-3.4 2.7-4.1 3.3-.8.5-1.3.8-2.1 1.8-.9 1.1-.9 1.8-3.5 3.6"/><path fill="none" stroke="#0a1a1d" stroke-miterlimit="1.18" stroke-width=".44" d="m615.8 441 5-.6c.8-.1 3-.7 4.3-1.1 1-.4 3.1-1.5 5-3.4 3.4-3.7 3-5.6 3.7-5.8 1.2-.2-2-.5-3.4-.3a9.5 9.5 0 0 0-5 2.5c-1.3 1.3-3.4 2.7-4.1 3.3-.8.5-1.3.8-2.1 1.8-.9 1.1-.9 1.8-3.5 3.6Z"/><path fill="#24a34e" d="M610.9 443.6s9-4 9.9-4.8c1-.6 2.4-2 3.4-3.1 1-1 4.7-3 5.4-4.3.4-.8 2.7-4 4.1-6.6.7-1.3-6 .4-6 .4-5.5 2.2-3 .6-6 3-1.8 1.3-3 2.5-3.4 3.5-.8 1.5-1.6 4.4-2.4 5.8-.7 1.4-2.1 3.3-5 6"/><path fill="none" stroke="#0a1a1d" stroke-miterlimit="1.18" stroke-width=".44" d="M610.9 443.6s9-4 9.9-4.8c1-.6 2.4-2 3.4-3.1 1-1 4.7-3 5.4-4.3.4-.8 2.7-4 4.1-6.6.7-1.3-6 .4-6 .4-5.5 2.2-3 .6-6 3-1.8 1.3-3 2.5-3.4 3.5-.8 1.5-1.6 4.4-2.4 5.8-.7 1.4-2.1 3.3-5 6Z"/><path fill="#24a34e" d="M606 444.7s7.4-1.9 10.8-6.5c2.4-3.1 2.5-2.2 3.5-3.2 1.2-1.4 3.1-2.9 4.8-5.5-.2.2 2-7.4 2-8.2-.1-.5-2.9.3-5.2 1.3-1.9.8-3 2.3-4.6 3.3-2 1.3-2.2 4.6-3.2 6-1.2 2.2-1.4 3.3-1.4 4.4 0 1.7-1 2.2-1.5 3.6-.7 1.6-2.6 1.4-5.2 4.8"/><path fill="none" stroke="#0a1a1d" stroke-miterlimit="1.18" stroke-width=".44" d="M606 444.7s7.4-1.9 10.8-6.5c2.4-3.1 2.5-2.2 3.5-3.2 1.2-1.4 3.1-2.9 4.8-5.5-.2.2 2-7.4 2-8.2-.1-.5-2.9.3-5.2 1.3-1.9.8-3 2.3-4.6 3.3-2 1.3-2.2 4.6-3.2 6-1.2 2.2-1.4 3.3-1.4 4.4 0 1.7-1 2.2-1.5 3.6-.7 1.6-2.6 1.4-5.2 4.8Z"/><path fill="#24a34e" d="M617.9 442.3s6.3-2.9 7.3-3c.9-.2 1.2-.8 2.5-1.1 1.1-.3 2-1.1 4.7-.6 1 .3 5.7 1.3 6.9.8 1-.6-1.7 3-3 4-1.3.6-3.5 1-5.4.8h-5.4c-1 0-1.6.2-2.9-.1-1.2-.4-1.6-1-4.8-.7"/><path fill="none" stroke="#0a1a1d" stroke-miterlimit="1.18" stroke-width=".44" d="M617.9 442.3s6.3-2.9 7.3-3c.9-.2 1.2-.8 2.5-1.1 1.1-.3 2-1.1 4.7-.6 1 .3 5.7 1.3 6.9.8 1-.6-1.7 3-3 4-1.3.6-3.5 1-5.4.8h-5.4c-1 0-1.6.2-2.9-.1-1.2-.4-1.6-1-4.8-.7l.1-.1Z"/><path fill="#24a34e" d="M613.6 442.3s7-1.8 8.3-1.8 4.6.2 5.8.5c1.4.2 5.6-.3 7 .4 1.2.6 6.8 1.3 8.3 1 1.5-.3-3 4-4.8 4.5-5.7 1.6-4 1.3-7.6.4-2.3-.5-5.6-.7-6.7-.9-1-.2-.9-.8-2.3-1.5-1.6-.6-4-2.3-8-2.6"/><path fill="none" stroke="#0a1a1d" stroke-miterlimit="1.18" stroke-width=".44" d="M613.6 442.3s7-1.8 8.3-1.8 4.6.2 5.8.5c1.4.2 5.6-.3 7 .4 1.2.6 6.8 1.3 8.3 1 1.5-.3-3 4-4.8 4.5-5.7 1.6-4 1.3-7.6.4-2.3-.5-5.6-.7-6.7-.9-1-.2-.9-.8-2.3-1.5-1.6-.6-4-2.3-8-2.6Z"/><path fill="#24a34e" d="M607.8 445.3s7-3 12.6-1.5c3.8 1 3.7.9 5.2 1.2 1.7.2 3.2-.7 6.1.5 1.5.5 7.7 3 9.3 3 1.6-.1-4.8 4-6.6 3.8-5.7-.8-11.1 1-13.7 0-2.4-.8-3.8-1.5-5-1.8-1.1-.5-1.8-1.6-2.5-2-.7-.7-1.2-2-5.4-3.3"/><path fill="none" stroke="#0a1a1d" stroke-miterlimit="1.18" stroke-width=".44" d="M607.8 445.3s7-3 12.6-1.5c3.8 1 3.7.9 5.2 1.2 1.7.2 3.2-.7 6.1.5 1.5.5 7.7 3 9.3 3 1.6-.1-4.8 4-6.6 3.8-5.7-.8-11.1 1-13.7 0-2.4-.8-3.8-1.5-5-1.8-1.1-.5-1.8-1.6-2.5-2-.7-.7-1.2-2-5.4-3.3Z"/><path fill="#24a34e" d="M645.6 429s4.2-4.6 4.9-5.1c.8-.7 2.7-2 3.8-3 .7-.7 1.6-2.3 4.2-3 1.2-.2 4-.8 4.7-1.7.8-1-.1 3.5-1 4.8a9.6 9.6 0 0 1-4.4 3.2c-1.8.6-4 1.9-4.9 2.3-.8.3-1.2.8-2.6 1-1.3.2-1.9-.1-4.7 1.4"/><path fill="none" stroke="#0a1a1d" stroke-miterlimit="1.18" stroke-width=".44" d="M645.6 429s4.2-4.6 4.9-5.1c.8-.7 2.7-2 3.8-3 .7-.7 1.6-2.3 4.2-3 1.2-.2 4-.8 4.7-1.7.8-1-.1 3.5-1 4.8a9.6 9.6 0 0 1-4.4 3.2c-1.8.6-4 1.9-4.9 2.3-.8.3-1.2.8-2.6 1-1.3.2-1.9-.1-4.7 1.4Z"/><path fill="#24a34e" d="M641.8 430.8s7-4.9 8-5.4 3-1.1 4.3-1.6c1.4-.4 4.9-2.9 6.3-2.9s4-.1 5.2-1c1-1 0 3.4-1.2 4.7-4.5 3.9-1.4 2.7-5.1 3.4-2.2.5-5.3 1.8-6.3 2-1.2.4-1.3-.3-2.9-.2-1.6.1-4.6-.2-8.3 1"/><path fill="none" stroke="#0a1a1d" stroke-miterlimit="1.18" stroke-width=".44" d="M641.8 430.8s7-4.9 8-5.4 3-1.1 4.3-1.6c1.4-.4 4.9-2.9 6.3-2.9s4-.1 5.2-1c1-1 0 3.4-1.2 4.7-4.5 3.9-1.4 2.7-5.1 3.4-2.2.5-5.3 1.8-6.3 2-1.2.4-1.3-.3-2.9-.2-1.6.1-4.6-.2-8.3 1Z"/><path fill="#24a34e" d="M640.1 432s2.9-1.8 8.5-2.7c3.8-.7 3.7-.9 5.1-1.2 1.8-.6 2.1-.6 5.2-.7 1.6-.1 7.8 1.9 9.2 1 1.3-.7-1.5 1.8-3.2 2.5-2.4.9-2.2 2.5-4.8 3.4-2.9 1-5.8 2-7.6 1.6-1.2-.1-2.3-.8-4-1-1.8-.1-4.9-2.7-8.4-2.8"/><path fill="none" stroke="#0a1a1d" stroke-miterlimit="1.18" stroke-width=".44" d="M640.1 432s2.9-1.8 8.5-2.7c3.8-.7 3.7-.9 5.1-1.2 1.8-.6 2.1-.6 5.2-.7 1.6-.1 7.8 1.9 9.2 1 1.3-.7-1.5 1.8-3.2 2.5-2.4.9-2.2 2.5-4.8 3.4-2.9 1-5.8 2-7.6 1.6-1.2-.1-2.3-.8-4-1-1.8-.1-4.9-2.7-8.4-2.8Z"/><path fill="#24a34e" d="M639.5 430.7s-1.3-6.8-.1-8.4c.4-.7 1.3-1.8 1.5-3.5a14 14 0 0 1 2-5.4c.7-.9 2.3-5.2 1.8-6.3 0 0 4 3.9 3.8 6.3-.2 2.4-.2 1.9 0 3 .1 1-1 4.8-1.7 6-.8 1-.3 4.5-1.2 5-.7.9-5.1 3.9-6 3.3"/><path fill="none" stroke="#0a1a1d" stroke-miterlimit="1.18" stroke-width=".44" d="M639.5 430.7s-1.3-6.8-.1-8.4c.4-.7 1.3-1.8 1.5-3.5a14 14 0 0 1 2-5.4c.7-.9 2.3-5.2 1.8-6.3 0 0 4 3.9 3.8 6.3-.2 2.4-.2 1.9 0 3 .1 1-1 4.8-1.7 6-.8 1-.3 4.5-1.2 5-.7.9-5.1 3.9-6 3.3Z"/><path fill="#24a34e" d="M640.1 432c-.4.3 2.4-2 3.7-2.6 1.3-.5 6.5-2 6.9-3.3.3-1.3 4.7-5.8 4.8-7 .1-.7.9-2.5.8-3.4-.2-1-.5-3.2-1.1-4.4-.5-1.4-2-4.6-3.2-5.1l-1.5 4.8c-.4 1.3-.7 2.8-1.3 3.6-.5.7-2.4 4.2-2.6 5.6-.1 1.2-1 5.6-1.3 6.4 0 1-3.6 4.8-5.2 5.5"/><path fill="none" stroke="#0a1a1d" stroke-miterlimit="1.18" stroke-width=".44" d="M640.1 432c-.4.3 2.4-2 3.7-2.6 1.3-.5 6.5-2 6.9-3.3.3-1.3 4.7-5.8 4.8-7 .1-.7.9-2.5.8-3.4-.2-1-.5-3.2-1.1-4.4-.5-1.4-2-4.6-3.2-5.1l-1.5 4.8c-.4 1.3-.7 2.8-1.3 3.6-.5.7-2.4 4.2-2.6 5.6-.1 1.2-1 5.6-1.3 6.4 0 1-3.6 4.8-5.2 5.5Z"/><path fill="#24a34e" d="M663 413.7c-.2 1 2.8-.9 4.3-.9s6 .5 7-.5c1.2-1 2.8-3.2 3.4-3.6.6-.3 2.6-3.7 3.2-5.5.5-1.9 4.5-5.2 5-5.6 0 0-5.4-1-8.8 1-3.3 2.3-3.5 1.7-4.2 2.1-.8.4-6.6 5.2-7 7.1-.3 1.8-2.8 5-2.9 6"/><path fill="none" stroke="#0a1a1d" stroke-miterlimit="1.18" stroke-width=".44" d="M663 413.7c-.2 1 2.8-.9 4.3-.9s6 .5 7-.5c1.2-1 2.8-3.2 3.4-3.6.6-.3 2.6-3.7 3.2-5.5.5-1.9 4.5-5.2 5-5.6 0 0-5.4-1-8.8 1-3.3 2.3-3.5 1.7-4.2 2.1-.8.4-6.6 5.2-7 7.1-.3 1.8-2.8 5-2.9 6Z"/><path fill="#24a34e" d="M663 413.7s4.8-3.4 6-3.2c1.1.2 6.3-3.7 6.6-6 .2-1.3 2.7-3.2 3.2-4 1.3-2.2 2-7.2 3.9-8.5l-6.3 1.4c-2.4.4-4.4.7-5.5 2.9-.8 2-1.6 3.7-2.4 3.8-.7.2-1.8 2.8-2.1 5.5-.4 2.5-3.3 8.1-3.3 8.1"/><path fill="none" stroke="#0a1a1d" stroke-miterlimit="1.18" stroke-width=".44" d="M663 413.7s4.8-3.4 6-3.2c1.1.2 6.3-3.7 6.6-6 .2-1.3 2.7-3.2 3.2-4 1.3-2.2 2-7.2 3.9-8.5l-6.3 1.4c-2.4.4-4.4.7-5.5 2.9-.8 2-1.6 3.7-2.4 3.8-.7.2-1.8 2.8-2.2 5.5-.3 2.5-3.3 8.1-3.3 8.1Z"/><path fill="#24a34e" d="M672.2 388.3c-.8 1.3-.7-7.4-1.2-8.3-.4-.9-1.3-2.8-2-3.5-.8-.7-.8-3.3-1.1-4-.4-.8-.2-5.9.3-7.2 0 0 1.5 1.1 2.3 2 .7 1 2 1.3 2.4 2.4.4 1.1 1.1 1.1 1.6 2.3.6 1.1 1.1 3 .8 4.4-.4 1.5-.2 2-.2 3.4 0 1.3-1.8 6.8-3 8.5"/><path fill="none" stroke="#0a1a1d" stroke-miterlimit="1.18" stroke-width=".44" d="M672.2 388.3c-.8 1.3-.7-7.4-1.2-8.3-.4-.9-1.3-2.8-2-3.5-.8-.7-.8-3.3-1.1-4-.4-.8-.2-5.9.3-7.2 0 0 1.5 1.1 2.3 2 .7 1 2 1.3 2.4 2.4.4 1.1 1.1 1.1 1.6 2.3.6 1.1 1.1 3 .8 4.4-.4 1.5-.2 2-.2 3.4 0 1.3-1.8 6.8-3 8.5"/><path fill="#24a34e" d="M672 389.1s.4-2.4-.5-3.4c-1-.9-1.9-.9-2.2-1.4-.4-.6-.3-1.3-.7-2-.3-.8-1.1-2-1.2-2.7-.4-2-1.5-4.3-.6-6.4 0 0 2.1.6 2.6 1s2.3 1.9 2.5 3.3c.2 1.7.3 2 .9 2.9.5.9 1.3 3.7.4 5.3-.6 1-1 2.2-1.1 3.4"/><path fill="none" stroke="#0a1a1d" stroke-miterlimit="1.18" stroke-width=".44" d="M672 389.1s.4-2.4-.5-3.4c-1-.9-1.9-.9-2.2-1.4-.4-.6-.3-1.3-.7-2-.3-.8-1.1-2-1.2-2.7-.4-2-1.5-4.3-.6-6.4 0 0 2.1.6 2.6 1s2.3 1.9 2.5 3.3c.2 1.7.3 2 .9 2.9.5.9 1.3 3.7.4 5.3-.6 1-1 2.2-1.1 3.4h-.1Z"/><path fill="#24a34e" d="M677.3 360.6s.4-5.5-1-7.1c-1.5-1.6-1.9-4.8-5.3-6.5 0 0 .2 1.3 0 2.3-.1.8-.4 3.5 0 4.4.6.9 2.5 2.5 2.5 3.4 0 .7 1.2 2.5 2.1 2.9 1 .4 1.7.5 1.7.5"/><path fill="none" stroke="#0a1a1d" stroke-miterlimit="1.18" stroke-width=".44" d="M677.3 360.6s.4-5.5-1-7.1c-1.5-1.6-1.9-4.8-5.3-6.5 0 0 .2 1.3 0 2.3-.1.8-.4 3.5 0 4.4.6.9 2.5 2.5 2.5 3.4 0 .7 1.2 2.5 2.1 2.9 1 .4 1.7.5 1.7.5Z"/><path fill="#24a34e" d="M677.3 363.5s0-3.8-1-5c-1.2-1-1.7-1.7-2.2-2.3-.6-.7-1.1-2.7-2.4-3.4a12 12 0 0 1-3.8-3.3s-.5 4.6.7 7c1.3 2.4 1.3 3.7 2.9 4.3 1.5.5 1.6 1 2.2 1.3.5.4 1.5.9 2.2.9s1.5.5 1.5.5"/><path fill="none" stroke="#0a1a1d" stroke-miterlimit="1.18" stroke-width=".44" d="M677.3 363.5s0-3.8-1-5c-1.2-1-1.7-1.7-2.2-2.3-.6-.7-1.1-2.7-2.4-3.4a12 12 0 0 1-3.8-3.3s-.5 4.6.7 7c1.3 2.4 1.3 3.7 2.9 4.3 1.5.5 1.6 1 2.2 1.3.5.4 1.5.9 2.2.9s1.5.5 1.5.5Z"/><path fill="#24a34e" d="M673 389c0 1-.8-2.4 3-2.4s7.1-1.6 8.4-2.9l2.6-2.8c.6-.5 2-2.8 2.2-3.9.2-1 1.3-5.2 1.1-6 0 0-2 .4-3 1.1-.8.8-2.6.8-3.5 1.4-1 .5-1.7 2-2.2 2.5-.5.6-2.2.6-3 1.7-.6 1-2 3.5-2.2 4.7-.1 1-1.5 2.1-2.4 2.7-1 .5-.7 2.7-1 3.8"/><path fill="none" stroke="#0a1a1d" stroke-miterlimit="1.18" stroke-width=".44" d="M673 389c0 1-.8-2.4 3-2.4s7.1-1.6 8.4-2.9l2.6-2.8c.6-.5 2-2.8 2.2-3.9.2-1 1.3-5.2 1.1-6 0 0-2 .4-3 1.1-.8.8-2.6.8-3.5 1.4-1 .5-1.7 2-2.2 2.5-.5.6-2.2.6-3 1.7-.7 1-2 3.5-2.3 4.7 0 1-1.4 2.1-2.3 2.7-1 .5-.7 2.7-1 3.8Z"/><path fill="#24a34e" d="M673.5 387.5s2.5-3.2 3.8-3.2c1.4 0 4.7-3.4 4.9-4.8.2-1.6 1.3-4.3 2-4.9.8-.5 2.1-1.8 2-4.1-.3-2.2-.3-5.9-.3-5.9s-.8 2.2-1.9 2.8c-1 .5-3 1.2-3.5 2-.3.7-1.8.7-2.5 3-.4 2.2-.4 2-.9 2.7-.3.8-1.2 1.7-1.6 3.2-.4 1.5-2.4 5.4-2 9.2"/><path fill="none" stroke="#0a1a1d" stroke-miterlimit="1.18" stroke-width=".44" d="M673.5 387.5s2.5-3.2 3.8-3.2c1.4 0 4.7-3.4 4.9-4.8.2-1.6 1.3-4.3 2-4.9.8-.5 2.1-1.8 2-4.1-.3-2.2-.3-5.9-.3-5.9s-.8 2.2-1.9 2.8c-1 .5-3 1.2-3.5 2-.3.7-1.8.7-2.5 3-.4 2.2-.4 2-.9 2.7-.3.8-1.2 1.7-1.6 3.2-.4 1.5-2.4 5.4-2 9.2Z"/><path fill="#24a34e" d="M677.3 366.8c.1 1-1.4-1.9 2-3 3.6-1 6.1-3.3 7-4.9.8-1.4 1.1-2.5 1.5-3.2.4-.6 1-3 .9-4 0-1.2-.3-5.2-.6-5.9 0 0-1.8 1-2.4 1.8-.7 1-2.1 1.5-2.9 2.2-.6.8-.9 2.3-1.3 3-.3.7-1.8 1.1-2.1 2.4a15 15 0 0 0-.7 4.8c0 1-.8 2.4-1.5 3.2-.7.8.1 2.7.1 3.6"/><path fill="none" stroke="#0a1a1d" stroke-miterlimit="1.18" stroke-width=".44" d="M677.3 366.8c.1 1-1.4-1.9 2-3 3.6-1 6.1-3.3 7-4.9.8-1.4 1.1-2.5 1.5-3.2.4-.6 1-3 .9-4 0-1.2-.3-5.2-.6-5.9 0 0-1.8 1-2.4 1.8-.7 1-2.1 1.5-2.9 2.2-.6.8-.9 2.3-1.3 3-.3.7-1.8 1.1-2.1 2.4a15 15 0 0 0-.7 4.8c0 1-.8 2.4-1.5 3.2-.7.8.1 2.7.1 3.6Z"/><path fill="#24a34e" d="M677.3 365.4s1.5-3.6 2.7-4c1.2-.3 3.1-3.4 3.2-4.8 0-1.5.4-4.3 1-5 .3-.7 1.4-3 .6-4.9l-2-4.7s-1.2 1.8-1.6 2.8c-1 1.9-2 2-2.1 2.7-.1.8-1.4 1.3-1.8 2.8-.5 2.1.1 2 0 2.9-.1.7-.8 1.8-.7 3.3.1 1.4-.7 5.5.7 8.8"/><path fill="none" stroke="#0a1a1d" stroke-miterlimit="1.18" stroke-width=".44" d="M677.3 365.4s1.5-3.6 2.7-4c1.2-.3 3.1-3.4 3.2-4.8 0-1.5.4-4.3 1-5 .3-.7 1.4-3 .6-4.9l-2-4.7s-1.2 1.8-1.6 2.8c-1 1.9-2 2-2.1 2.7-.1.8-1.4 1.3-1.8 2.8-.5 2.1.1 2 0 2.9-.1.7-.8 1.8-.7 3.3.1 1.4-.7 5.5.7 8.8Z"/><path fill="#24a34e" d="M674.4 342.9c-.2-.5-1.3-1-2.6-1.6-1.3-.3-3.4-3.3-4.2-4-1-.8-1.4-2-2.5-2.6-1-.6-1.9-3-2.2-5.2l4 1c1 0 2.8 1.3 3.6 2 .7 1 1.5 2.6 2.2 3 .7.3 1.7 2.5 1.7 4v3.3"/><path fill="none" stroke="#0a1a1d" stroke-miterlimit="1.18" stroke-width=".44" d="M674.4 342.9c-.2-.5-1.3-1-2.6-1.6-1.3-.3-3.4-3.3-4.2-4-1-.8-1.4-2-2.5-2.6-1-.6-1.9-3-2.2-5.2l4 1c1 0 2.8 1.3 3.6 2 .7 1 1.5 2.6 2.2 3 .7.3 1.6 2.5 1.6 4v3.3l.1.1Z"/><path fill="#24a34e" d="m674.6 341.2.1-3.2c0-1 .7-4.1-.9-6.5-1-1.6-5.2-4.8-6.3-5 0 0-.8 3-.6 3.9.2 1 1.2 4.7 2 5 1 .4 3 4.8 5.7 5.8"/><path fill="none" stroke="#0a1a1d" stroke-miterlimit="1.18" stroke-width=".44" d="m674.6 341.2.1-3.2c0-1 .7-4.1-.9-6.5-1-1.6-5.2-4.8-6.3-5 0 0-.8 3-.6 3.9.2 1 1.2 4.7 2 5 1 .4 3 4.8 5.7 5.8Z"/><path fill="#24a34e" d="M675.5 342.9c.4.8.2-2.8 1.3-3.7 1.2-1 1.2-2.3 1.2-3.8s-.3-2.5-.4-3.5c-.3-1-3-4.8-2.9-5.9l-2 4.6c-.5 1.3.4 2.6.2 3.7s-1 3.2-.4 4.3l3 4.3"/><path fill="none" stroke="#0a1a1d" stroke-miterlimit="1.18" stroke-width=".44" d="M675.5 342.9c.4.8.2-2.8 1.3-3.7 1.2-1 1.2-2.3 1.2-3.8s-.3-2.5-.4-3.5c-.3-1-3-4.8-2.9-5.9l-2 4.6c-.5 1.3.4 2.6.2 3.7s-1 3.2-.4 4.3l3 4.3Z"/><path fill="#24a34e" d="M665.6 323.6s-.1-.5-1.8-.5-4.1-.1-4.9-1c-.7-.7-2-1.6-2.7-2-.7-.3-2.1-2-2.2-2.8-.3-.7-1.6-2.2-2.1-2.2 0 0 2.1-.2 4.3.4 2.2.5 5.4 1.7 6 3.2l3.5 5"/><path fill="none" stroke="#0a1a1d" stroke-miterlimit="1.18" stroke-width=".44" d="M665.6 323.6s-.1-.5-1.8-.5-4.1-.1-4.9-1c-.7-.7-2-1.6-2.7-2-.7-.3-2.1-2-2.2-2.8-.3-.7-1.6-2.2-2.1-2.2 0 0 2-.2 4.3.4 2.2.5 5.3 1.7 6 3.2.8 1.4 3.4 5 3.4 5Z"/><path fill="#24a34e" d="M665 323.3c-.4 1.2-3.5-1.3-4.2-2.2l-1.9-2.4s-1.8-2.1-2.2-3c-1-2-.8-5.7-.3-5.4.5.3 2.5 1.5 3.1 1.7.5.2 1.6.5 2 1.4.4 1 .7 2.2 1.4 2.9.5.6 3.8 2.4 2.2 7"/><path fill="none" stroke="#0a1a1d" stroke-miterlimit="1.18" stroke-width=".44" d="M665 323.3c-.4 1.2-3.5-1.3-4.2-2.2l-1.9-2.4s-1.8-2.1-2.2-3c-1-2-.8-5.7-.3-5.4.5.3 2.5 1.5 3.1 1.7.5.2 1.6.5 2 1.4.4 1 .7 2.2 1.4 2.9.5.6 3.8 2.4 2.2 7Z"/><path fill="#24a34e" d="M666.2 323.3s-2.7-1.9-3.5-2.8c-1.2-1-.5-2.5-1.2-3.3-.5-.7-1.8-2.4-1.5-3.5.4-1.1 1.1-4.3 1.1-4.3l2.3 2.2c1 1 1 1.6 1.5 2.8.3 1.2 1 1.9 1.4 2.8.4 1 0 2.8-.1 3.9-.2 1 0 2.2 0 2.2"/><path fill="none" stroke="#0a1a1d" stroke-miterlimit="1.18" stroke-width=".44" d="M666.2 323.3s-2.7-1.9-3.5-2.8c-1.2-1-.5-2.5-1.2-3.3-.5-.7-1.8-2.4-1.5-3.5.4-1.1 1.1-4.3 1.1-4.3l2.3 2.2c1 1 1 1.6 1.5 2.8.3 1.2 1 1.9 1.4 2.8.4 1 0 2.8-.1 3.9-.2 1 0 2.2 0 2.2"/><path fill="#e30631" d="M637 428.3c-.6 0-1-.4-1-1s.4-1.2 1-1.2 1.2.5 1.2 1.1-.5 1-1.1 1"/><path fill="none" stroke="#0a1a1d" stroke-miterlimit="1.18" stroke-width=".22" d="M637 428.3c-.6 0-1-.4-1-1s.4-1.2 1-1.2 1.2.5 1.2 1.1-.5 1-1.1 1"/><path fill="#e30631" d="M643.4 436.1a1 1 0 0 1-1-1c0-.6.4-1.1 1-1.1s1.1.5 1.1 1c0 .7-.5 1.1-1 1.1"/><path fill="none" stroke="#0a1a1d" stroke-miterlimit="1.18" stroke-width=".22" d="M643.4 436.1a1 1 0 0 1-1-1c0-.6.4-1.1 1-1.1s1.1.5 1.1 1c0 .7-.5 1.1-1 1.1"/><path fill="#e30631" d="M658.2 411.5c-.7 0-1.2-.5-1.2-1 0-.7.5-1.1 1.2-1.1.5 0 1 .4 1 1s-.5 1.1-1 1.1"/><path fill="none" stroke="#0a1a1d" stroke-miterlimit="1.18" stroke-width=".22" d="M658.2 411.5c-.7 0-1.2-.5-1.2-1 0-.7.5-1.1 1.2-1.1.5 0 1 .4 1 1s-.5 1.1-1 1.1"/><path fill="#e30631" d="M667.3 416.1c-.7 0-1.3-.5-1.3-1.2s.5-1.2 1.3-1.2c.6 0 1.2.5 1.2 1.2s-.6 1.2-1.2 1.2"/><path fill="none" stroke="#0a1a1d" stroke-miterlimit="1.18" stroke-width=".22" d="M667.3 416.1c-.7 0-1.3-.5-1.3-1.2s.5-1.2 1.3-1.2c.6 0 1.2.5 1.2 1.2s-.6 1.2-1.2 1.2"/><path fill="#e30631" d="M669 388.5c-.7 0-1.3-.5-1.3-1.2s.6-1.3 1.2-1.3 1.2.7 1.2 1.3c0 .7-.5 1.2-1.2 1.2"/><path fill="none" stroke="#0a1a1d" stroke-miterlimit="1.18" stroke-width=".22" d="M669 388.5c-.7 0-1.3-.5-1.3-1.2s.6-1.3 1.2-1.3 1.2.7 1.2 1.3c0 .7-.5 1.2-1.2 1.2"/><path fill="#e30631" d="M676.6 390.8c-.7 0-1.2-.5-1.2-1.3 0-.6.4-1.2 1.2-1.2.6 0 1.2.6 1.2 1.2 0 .8-.5 1.3-1.2 1.3"/><path fill="none" stroke="#0a1a1d" stroke-miterlimit="1.18" stroke-width=".22" d="M676.6 390.8c-.7 0-1.2-.5-1.2-1.3 0-.6.4-1.2 1.2-1.2.6 0 1.2.6 1.2 1.2 0 .8-.5 1.3-1.2 1.3"/><path fill="#e30631" d="M672.7 366.2c-.7 0-1.3-.6-1.3-1.3s.6-1.2 1.3-1.2c.6 0 1.2.6 1.2 1.2s-.5 1.3-1.2 1.3"/><path fill="none" stroke="#0a1a1d" stroke-miterlimit="1.18" stroke-width=".22" d="M672.7 366.2c-.7 0-1.3-.6-1.3-1.3s.6-1.2 1.3-1.2c.6 0 1.2.6 1.2 1.2s-.5 1.3-1.2 1.3"/><path fill="#e30631" d="M679.5 343.5c-.6 0-1.2-.4-1.2-1 0-.8.6-1.3 1.2-1.3.8 0 1.3.5 1.3 1.3 0 .6-.5 1-1.3 1"/><path fill="none" stroke="#0a1a1d" stroke-miterlimit="1.18" stroke-width=".22" d="M679.5 343.5c-.6 0-1.2-.4-1.2-1 0-.8.6-1.3 1.2-1.3.8 0 1.3.5 1.3 1.3 0 .6-.5 1-1.3 1"/><path fill="#e30631" d="M670.8 345.8c-.6 0-1.2-.5-1.2-1.2s.5-1.2 1.2-1.2 1.3.5 1.3 1.2-.6 1.2-1.3 1.2"/><path fill="none" stroke="#0a1a1d" stroke-miterlimit="1.18" stroke-width=".22" d="M670.8 345.8c-.6 0-1.2-.5-1.2-1.2s.5-1.2 1.2-1.2 1.3.5 1.3 1.2-.6 1.2-1.3 1.2"/><path fill="#e30631" d="M662.2 327c-.6 0-1.3-.6-1.3-1.3s.7-1.1 1.3-1.1 1.2.5 1.2 1.1c0 .7-.5 1.2-1.2 1.2"/><path fill="none" stroke="#0a1a1d" stroke-miterlimit="1.18" stroke-width=".22" d="M662.2 327c-.6 0-1.3-.6-1.3-1.3s.7-1.1 1.3-1.1 1.2.5 1.2 1.1c0 .7-.5 1.2-1.2 1.2"/><path fill="#e30631" d="M668.8 321.8c-.8 0-1.2-.5-1.2-1.3 0-.6.4-1.2 1.1-1.2.7 0 1.2.6 1.2 1.2 0 .7-.5 1.3-1.1 1.3"/><path fill="none" stroke="#0a1a1d" stroke-miterlimit="1.18" stroke-width=".22" d="M668.8 321.8c-.8 0-1.2-.5-1.2-1.3 0-.6.4-1.2 1.1-1.2.7 0 1.2.6 1.2 1.2 0 .7-.5 1.3-1.1 1.3"/><path fill="#e30631" d="M655.7 309c-.7 0-1.2-.5-1.2-1.1 0-.7.5-1.3 1.2-1.3s1.3.5 1.3 1.3c0 .6-.7 1.2-1.3 1.2"/><path fill="none" stroke="#0a1a1d" stroke-miterlimit="1.18" stroke-width=".22" d="M655.7 309c-.7 0-1.2-.5-1.2-1.1 0-.7.5-1.3 1.2-1.3s1.3.5 1.3 1.3c0 .6-.7 1.2-1.3 1.2"/><path fill="#e30631" d="M682.3 366.3c-.6 0-1.2-.5-1.2-1.1s.5-1.2 1.2-1.2 1.2.5 1.2 1.2c0 .6-.5 1-1.2 1"/><path fill="none" stroke="#0a1a1d" stroke-miterlimit="1.18" stroke-width=".22" d="M682.3 366.3c-.6 0-1.2-.5-1.2-1.1s.5-1.2 1.2-1.2 1.2.5 1.2 1.2c0 .6-.5 1-1.2 1"/><path fill="none" stroke="#0a1a1d" stroke-miterlimit="1.18" stroke-width=".44" d="M636 433s.9-4 .7-4.9c0 0-.4 0-1-.7m1.8 7s3.5.2 4.6.5c0 0 0 .3.4 1m16.6-19.2s.2-4.7-.7-5c0 0-1-.4-1.5-1.2m5.8 4.7s2.6-.3 3.3 0c0 0 .1.8.7 1m1-28.3.9.4c1 .5 2.8 4.9 2.8 4.9s3-2.2 4.2-2.4h1.3m6-25s-.7.8-1.4.4c0 0-3.8 2.4-3.9 3.3 0 0-4-3.8-4.6-3.5 0 0-.4.6-1.1-.1m7-23s-.5.6-1.2 1c0 0-1.6 2.3-1.6 4.2 0 0-3.2-2.8-4-2.6 0 0-1.2.4-1.9 0m-.5-24s-.7.9-1.3.1c0 0-2.2 2.8-.9 4.9 0 0-3.1-.7-4-.2 0 0-.4 1.3-1.6.5m-5.2-18.7s.5 1.3-1.6.8"/><path fill="none" stroke="#0a1a1d" stroke-miterlimit="1.18" stroke-width=".22" d="M625 440.7s12.2 0 13.4-1.6m-20.5 3.2s8 2.2 12.2 1.6c4.3-.5 6.4.4 7.3.4 1 0 5.6-2 5.6-2m-33.3 3s6.1 1 7.5 1.4c1.2.4 7.6 2.8 9.4 2.8h6.2c1.8.3 6.7 0 7.8-.6m-7.6-18.4s-4.7 2.7-5.4 3.7c-.7 1-4.9 4.3-5.6 4.3m11-13.8s-8 6.9-9.4 7.8a157 157 0 0 0-10 9.8m12.9-20.5s-6.4 5-7.1 7c-.7 2-2.6 4.4-2.6 4.4s-2.6 5.3-3.5 6c-1 .7-2.8 2.8-5 4.1m54.4-26.3s-6.7 5.7-8.6 6.7m11.4-3s-6.7 4.5-9.7 5.7c-3 1-5.4 2-12 3m-2.6 2.6s7.5-.4 8.8 0c1.2.3 7-1 8.5-1.3l8.2-1.7m-14-22.2s.3 4-.3 5.8c-.5 1.6-3.1 6.4-3 7.6.2 1.1-1.4 6.2-2.9 7.1m-1.6-19.8s1.4 4 .7 5.5c-.4 1.2-1.4 3.6-1.4 5.2 0 1.5-1 3.7-1.3 4.6-.4 1 .2 4.1-.7 5-1 1-2 2.6-2 2.6m44.6-32.3s-5.9 2.2-6.7 3.7c-.7 1.4-1.7 1.9-2.4 2.6m-12.8-12s-1.5 6-1.1 7.5c.3 1.5.3 4.5.3 5.6s1.7 5.6 1.4 6.4m1.8-24.4.7 5c.2 1.4 0 3.9.4 4.8.3 1 .9 5.9 0 8.2m15.3-13s-4.9 4-6 5.2c-1 1-6 6.4-6.3 7.8-.1 1.3-3.7 5.3-4.8 6.3m25.3-40.2s-4.8 4.8-5.2 5.9c-.4 1.2-2.4 3-3.3 3.6m-14.3-7.4s1.9 2.7 1.9 3.6.7 3.4 1.5 4.4c.4.6 2 3.3 1.8 5m-3.7-20.9 1 4.4c.5 1.8 1.4 3.8 1.8 4.9.4 1 1.8 6.5 1.3 9.8m12.8-19.3s-.4 2.6-1.8 3.9c-1.3 1.3-3.3 3.2-3.5 4.2-.2 1.2-1.8 6.7-3.7 8.7-1.9 1.8-2 3.7-2 3.7m13-39.5-1 4c-.3 1-1.9 5.2-3.3 6.4m-11.7-9.5s.9 2.5 1 3.7c.2 1.1 1.3 2.4 1.5 3l1 2.4m-7-6.6c.2 1.2 2.2 4.5 2.5 5.1.1.6 1.3 3.2 2.4 4 1.1.7 4.4 3.1 4.2 4.1m5.5-20.3s.2 4-.5 5.5l-2 4.9c-.4 1-.4 2.9-.6 4.2-.1 1.4-.7 3.8-1.4 4.7m-14.7-32 3.9 4.3c1.3 1.2 6 6.3 6.1 7.2m-5.5-14.3 3.2 6.6 1 2.5m2.5-9.3s-.2 4.5 0 5.6c.2 1 .2 3 0 3.5-.2.6.6 4.6.7 5.6M653 315.6s5.9 3.6 6.8 4.5m-3.3-9.1 4 5.9 1 1.7m-.3-8.2s1.3 3.2 1.5 4.4c.2 1.4 2 5.5 2.7 7"/><path fill="#e30631" d="M562.9 428.3c.6 0 1-.4 1-1s-.4-1.2-1-1.2c-.5 0-1 .5-1 1.1s.4 1 1 1"/><path fill="none" stroke="#0a1a1d" stroke-miterlimit="1.18" stroke-width=".22" d="M562.9 428.3c.6 0 1-.4 1-1s-.4-1.2-1-1.2c-.5 0-1 .5-1 1.1s.4 1 1 1"/><path fill="#e30631" d="M556.5 436.1c.7 0 1.2-.4 1.2-1s-.5-1.1-1.2-1.1c-.5 0-1 .5-1 1 0 .7.5 1.1 1 1.1"/><path fill="none" stroke="#0a1a1d" stroke-miterlimit="1.18" stroke-width=".22" d="M556.5 436.1c.7 0 1.2-.4 1.2-1s-.5-1.1-1.2-1.1c-.5 0-1 .5-1 1 0 .7.5 1.1 1 1.1"/><path fill="#e30631" d="M541.9 411.5c.5 0 1-.5 1-1 0-.7-.5-1.1-1-1.1-.7 0-1.2.4-1.2 1s.5 1.1 1.2 1.1"/><path fill="none" stroke="#0a1a1d" stroke-miterlimit="1.18" stroke-width=".22" d="M541.9 411.5c.5 0 1-.5 1-1 0-.7-.5-1.1-1-1.1-.7 0-1.2.4-1.2 1s.5 1.1 1.2 1.1"/><path fill="#e30631" d="M532.8 416.1c.6 0 1.2-.5 1.2-1.2s-.6-1.2-1.2-1.2c-.7 0-1.3.5-1.3 1.2s.6 1.2 1.3 1.2"/><path fill="none" stroke="#0a1a1d" stroke-miterlimit="1.18" stroke-width=".22" d="M532.8 416.1c.6 0 1.2-.5 1.2-1.2s-.6-1.2-1.2-1.2c-.7 0-1.3.5-1.3 1.2s.6 1.2 1.3 1.2"/><path fill="#e30631" d="M531.1 388.5c.7 0 1.2-.5 1.2-1.2 0-.6-.5-1.3-1.2-1.3s-1.3.7-1.3 1.3.6 1.2 1.3 1.2"/><path fill="none" stroke="#0a1a1d" stroke-miterlimit="1.18" stroke-width=".22" d="M531.1 388.5c.7 0 1.2-.5 1.2-1.2 0-.6-.5-1.3-1.2-1.3s-1.3.7-1.3 1.3.6 1.2 1.3 1.2"/><path fill="#e30631" d="M523.4 390.8c.7 0 1.3-.5 1.3-1.3 0-.6-.6-1.2-1.3-1.2-.7 0-1.2.6-1.2 1.2 0 .8.5 1.3 1.2 1.3"/><path fill="none" stroke="#0a1a1d" stroke-miterlimit="1.18" stroke-width=".22" d="M523.4 390.8c.7 0 1.3-.5 1.3-1.3 0-.6-.6-1.2-1.3-1.2-.7 0-1.2.6-1.2 1.2 0 .8.5 1.3 1.2 1.3"/><path fill="#e30631" d="M527.4 366.2c.6 0 1.1-.6 1.1-1.3a1.2 1.2 0 0 0-1.1-1.2c-.8 0-1.3.6-1.3 1.2s.5 1.3 1.3 1.3"/><path fill="none" stroke="#0a1a1d" stroke-miterlimit="1.18" stroke-width=".22" d="M527.4 366.2c.6 0 1.1-.6 1.1-1.3a1.2 1.2 0 0 0-1.1-1.2c-.8 0-1.3.6-1.3 1.2s.5 1.3 1.3 1.3"/><path fill="#e30631" d="M520.4 343.5c.7 0 1.3-.4 1.3-1 0-.8-.6-1.3-1.3-1.3s-1.2.5-1.2 1.3c0 .6.6 1 1.2 1"/><path fill="none" stroke="#0a1a1d" stroke-miterlimit="1.18" stroke-width=".22" d="M520.4 343.5c.7 0 1.3-.4 1.3-1 0-.8-.6-1.3-1.3-1.3s-1.2.5-1.2 1.3c0 .6.6 1 1.2 1"/><path fill="#e30631" d="M529.2 345.8c.7 0 1.2-.5 1.2-1.2s-.5-1.2-1.2-1.2a1.2 1.2 0 0 0-1.2 1.2c0 .7.5 1.2 1.2 1.2"/><path fill="none" stroke="#0a1a1d" stroke-miterlimit="1.18" stroke-width=".22" d="M529.2 345.8c.7 0 1.2-.5 1.2-1.2s-.5-1.2-1.2-1.2a1.2 1.2 0 0 0-1.2 1.2c0 .7.5 1.2 1.2 1.2"/><path fill="#e30631" d="M537.8 327c.6 0 1.2-.6 1.2-1.3s-.6-1.1-1.2-1.1a1.2 1.2 0 0 0-1.2 1.1c0 .7.5 1.2 1.2 1.2"/><path fill="none" stroke="#0a1a1d" stroke-miterlimit="1.18" stroke-width=".22" d="M537.8 327c.6 0 1.2-.6 1.2-1.3s-.6-1.1-1.2-1.1a1.2 1.2 0 0 0-1.2 1.1c0 .7.5 1.2 1.2 1.2"/><path fill="#e30631" d="M531.2 321.8c.7 0 1.3-.5 1.3-1.3 0-.6-.6-1.2-1.3-1.2-.7 0-1.2.6-1.2 1.2 0 .7.5 1.3 1.2 1.3"/><path fill="none" stroke="#0a1a1d" stroke-miterlimit="1.18" stroke-width=".22" d="M531.2 321.8c.7 0 1.3-.5 1.3-1.3 0-.6-.6-1.2-1.3-1.2-.7 0-1.2.6-1.2 1.2 0 .7.5 1.3 1.2 1.3"/><path fill="#e30631" d="M544.3 309c.7 0 1.2-.5 1.2-1.1 0-.7-.5-1.3-1.2-1.3s-1.2.5-1.2 1.3c0 .6.4 1.2 1.2 1.2"/><path fill="none" stroke="#0a1a1d" stroke-miterlimit="1.18" stroke-width=".22" d="M544.3 309c.7 0 1.2-.5 1.2-1.1 0-.7-.5-1.3-1.2-1.3s-1.2.5-1.2 1.3c0 .6.4 1.2 1.2 1.2"/><path fill="#e30631" d="M517.7 366.3c.6 0 1.1-.5 1.1-1.1 0-.7-.5-1.2-1.1-1.2-.7 0-1.2.5-1.2 1.2 0 .6.5 1 1.2 1"/><path fill="none" stroke="#0a1a1d" stroke-miterlimit="1.18" stroke-width=".22" d="M517.7 366.3c.6 0 1.1-.5 1.1-1.1 0-.7-.5-1.2-1.1-1.2-.7 0-1.2.5-1.2 1.2 0 .6.5 1 1.2 1"/><path fill="none" stroke="#0a1a1d" stroke-miterlimit="1.18" stroke-width=".44" d="M564 433s-1-4-.7-4.9c0 0 .3 0 .9-.7m-1.7 7s-3.5.2-4.7.5l-.3 1m-16.6-19.2s-.2-4.7.7-5c0 0 1-.4 1.5-1.2m-5.7 4.7s-2.7-.3-3.4 0c0 0-.2.8-.7 1m-1-28.3-.9.4c-1 .5-2.8 4.9-2.8 4.9s-3-2.2-4.3-2.4H523m-6-25s.8.8 1.5.4c0 0 3.7 2.4 4 3.3 0 0 3.8-3.8 4.6-3.5 0 0 .4.6 1.1-.1m-7-23s.3.6 1 1c0 0 1.7 2.3 1.7 4.2 0 0 3.1-2.8 4-2.6 0 0 1.3.4 2 0m.4-24s.7.9 1.3.1c0 0 2.2 2.8.9 4.9 0 0 3-.7 4.1-.2 0 0 .4 1.3 1.5.5m5.2-18.7s-.6 1.3 1.7.8"/><path fill="#24a34e" d="m622 457-5.5-.4c-.7 0-2.5-3.3-3.2-3.9-.8-.5-13.4-6.7-21.7-8-8.2-1.2-20.8-6.1-23.4-7.4a109.9 109.9 0 0 1-32.3-23.7 99.7 99.7 0 0 1-9-23.8c-.6-3-4.7-15.3-4.7-23.7 0-9.8 1-17.7 2.6-24 1.4-6.4 12.3-25 19-33.2 0 0-15 23.1-17.6 32a99.2 99.2 0 0 0-3.1 26.6 143 143 0 0 0 10.8 38.3c5 11.2 9.4 12.5 17.4 18.7 3.6 3 10.7 7.7 16.6 10.7 6 3 18.7 6.7 22 7.2a253 253 0 0 1 22.6 6.7c2.3 1.1 8 6.1 9.4 7.8"/><path fill="none" stroke="#0a1a1d" stroke-miterlimit="1.18" stroke-width=".44" d="m622 457-5.5-.4c-.7 0-2.5-3.3-3.2-3.9-.8-.5-13.4-6.7-21.7-8-8.2-1.2-20.8-6.1-23.4-7.4a109.9 109.9 0 0 1-32.3-23.7 99.7 99.7 0 0 1-9-23.8c-.6-3-4.7-15.3-4.7-23.7 0-9.8 1-17.7 2.6-24 1.4-6.4 12.3-25 19-33.2 0 0-15 23.1-17.6 32a99.2 99.2 0 0 0-3.1 26.6 143 143 0 0 0 10.8 38.3c5 11.2 9.4 12.5 17.4 18.7 3.6 3 10.7 7.7 16.6 10.7 6 3 18.7 6.7 22 7.2a253 253 0 0 1 22.6 6.7c2.3 1.1 8 6.1 9.4 7.8Z"/><path fill="#24a34e" d="M537 413.7c.4-1.7.4-3 1-3.5.6-.6 2.5-2.8 2.8-4.3.4-1.4 0-2.6 0-3.4s.6-3.3.6-3.3-1-3.1-1.7-3.8c-.7-.4-2.6-3-3-3.8 0 0 .3 1.5-.4 2.2-.5.7-.7 2.6-.7 3.7s.4 3.7 0 5c-.3 1.5-.9 2.7-.5 4.3l2 7"/><path fill="none" stroke="#0a1a1d" stroke-miterlimit="1.18" stroke-width=".44" d="M537 413.7c.4-1.7.4-3 1-3.5.6-.6 2.5-2.8 2.8-4.3.4-1.4 0-2.6 0-3.4s.6-3.3.6-3.3-1-3.1-1.7-3.8c-.7-.4-2.6-3-3-3.8 0 0 .3 1.5-.4 2.2-.5.7-.7 2.6-.7 3.7s.4 3.7 0 5c-.3 1.5-.9 2.7-.5 4.3l2 7"/><path fill="#24a34e" d="M536.4 412s-4.3-5.5-4.3-7.8-.3-3.5-.7-4c-.4-.6-2.8-3.5-.5-7 .9-1.4 1-1.3 1.6-2.9.7-2 2.2-2 2.5-4l.6 4.4c.2 2-.2 2.7-.2 3.8-.3 1.2.4 2.5.4 4.1l-.2 3.3c0 .6-.6 7.7.8 10"/><path fill="none" stroke="#0a1a1d" stroke-miterlimit="1.18" stroke-width=".44" d="M536.4 412s-4.3-5.5-4.3-7.8-.3-3.5-.7-4c-.4-.6-2.8-3.5-.5-7 .9-1.4 1-1.3 1.6-2.9.7-2 2.2-2 2.5-4l.6 4.4c.2 2-.2 2.7-.2 3.8-.3 1.2.4 2.5.4 4.1l-.2 3.3c0 .6-.6 7.7.8 10Z"/><path fill="#24a34e" d="m584.2 441-5-.6c-.9-.1-3.1-.7-4.3-1.1-1-.4-3.2-1.5-5-3.4-3.5-3.7-3-5.6-3.8-5.8-1.1-.2 2-.5 3.4-.3 1.5.2 3.5 1.2 4.9 2.5 1.4 1.3 3.5 2.7 4.3 3.3.7.5 1.3.8 2 1.8.8 1.1.8 1.8 3.4 3.6"/><path fill="none" stroke="#0a1a1d" stroke-miterlimit="1.18" stroke-width=".44" d="m584.2 441-5-.6c-.9-.1-3.1-.7-4.3-1.1-1-.4-3.2-1.5-5-3.4-3.5-3.7-3-5.6-3.8-5.8-1.1-.2 2-.5 3.4-.3 1.5.2 3.5 1.2 4.9 2.5 1.4 1.3 3.5 2.7 4.3 3.3.7.5 1.3.8 2 1.8.8 1.1.8 1.8 3.4 3.6Z"/><path fill="#24a34e" d="M589.2 443.6s-9-4-10-4.8c-1-.6-2.4-2-3.5-3.1-.8-1-4.7-3-5.3-4.3-.4-.8-2.8-4-4.2-6.6-.7-1.3 6 .4 6 .4 5.4 2.2 3 .6 6 3 1.8 1.3 3.1 2.5 3.6 3.5.6 1.5 1.4 4.4 2.3 5.8.7 1.4 2.2 3.3 5 6"/><path fill="none" stroke="#0a1a1d" stroke-miterlimit="1.18" stroke-width=".44" d="M589.2 443.6s-9-4-10-4.8c-1-.6-2.4-2-3.5-3.1-.8-1-4.7-3-5.3-4.3-.4-.8-2.8-4-4.2-6.6-.7-1.3 6 .4 6 .4 5.4 2.2 3 .6 6 3 1.8 1.3 3.1 2.5 3.6 3.5.6 1.5 1.4 4.4 2.3 5.8.7 1.4 2.2 3.3 5 6Z"/><path fill="#24a34e" d="M594 444.7s-7.4-1.9-10.8-6.5c-2.4-3.1-2.4-2.2-3.4-3.2-1.3-1.4-3.2-2.9-4.8-5.5 0 .2-2.2-7.4-2-8.2 0-.5 2.7.3 5 1.3 2 .8 3 2.3 4.7 3.3 2 1.3 2.3 4.6 3.2 6a7.7 7.7 0 0 1 1.4 4.4c0 1.7.9 2.2 1.5 3.6.6 1.6 2.6 1.4 5.2 4.8"/><path fill="none" stroke="#0a1a1d" stroke-miterlimit="1.18" stroke-width=".44" d="M594 444.7s-7.4-1.9-10.8-6.5c-2.4-3.1-2.4-2.2-3.4-3.2-1.3-1.4-3.2-2.9-4.8-5.5 0 .2-2.2-7.4-2-8.2 0-.5 2.7.3 5 1.3 2 .8 3 2.3 4.7 3.3 2 1.3 2.3 4.6 3.2 6a7.7 7.7 0 0 1 1.4 4.4c0 1.7.9 2.2 1.5 3.6.6 1.6 2.6 1.4 5.2 4.8Z"/><path fill="#24a34e" d="M582 442.3s-6.3-2.9-7-3c-1-.2-1.4-.8-2.7-1.1-1.1-.3-2-1.1-4.7-.6-1.1.3-5.7 1.3-6.8.8-1.2-.6 1.6 3 2.9 4 1.3.6 3.5 1 5.4.8h5.4c1 0 1.4.2 2.8-.1 1.3-.4 1.6-1 4.8-.7"/><path fill="none" stroke="#0a1a1d" stroke-miterlimit="1.18" stroke-width=".44" d="M582 442.3s-6.3-2.9-7-3c-1-.2-1.4-.8-2.7-1.1-1.1-.3-2-1.1-4.7-.6-1.1.3-5.7 1.3-6.8.8-1.2-.6 1.6 3 2.9 4 1.3.6 3.5 1 5.4.8h5.4c1 0 1.4.2 2.8-.1 1.3-.4 1.6-1 4.8-.7v-.1Z"/><path fill="#24a34e" d="M586.4 442.3s-7.1-1.8-8.3-1.8-4.5.2-6 .5c-1.2.2-5.5-.3-6.8.4-1.2.6-6.9 1.3-8.3 1-1.5-.3 3 4 4.8 4.5 5.7 1.6 4 1.3 7.7.4 2.2-.5 5.4-.7 6.5-.9 1.2-.2 1-.8 2.5-1.5 1.4-.6 4-2.3 7.9-2.6"/><path fill="none" stroke="#0a1a1d" stroke-miterlimit="1.18" stroke-width=".44" d="M586.4 442.3s-7.1-1.8-8.3-1.8-4.5.2-6 .5c-1.2.2-5.5-.3-6.8.4-1.2.6-6.9 1.3-8.3 1-1.5-.3 3 4 4.8 4.5 5.7 1.6 4 1.3 7.7.4 2.2-.5 5.4-.7 6.5-.9 1.2-.2 1-.8 2.5-1.5 1.4-.6 4-2.3 7.9-2.6Z"/><path fill="#24a34e" d="M592.2 445.3s-7-3-12.6-1.5c-3.8 1-3.7.9-5.2 1.2-1.7.2-3.2-.7-6.2.5-1.3.5-7.5 3-9.3 3-1.5-.1 5 4 6.7 3.8 5.7-.8 11 1 13.7 0 2.3-.8 3.7-1.5 5-1.8 1.1-.5 1.8-1.6 2.5-2 .7-.7 1.2-2 5.4-3.3"/><path fill="none" stroke="#0a1a1d" stroke-miterlimit="1.18" stroke-width=".44" d="M592.2 445.3s-7-3-12.6-1.5c-3.8 1-3.7.9-5.2 1.2-1.7.2-3.2-.7-6.2.5-1.3.5-7.5 3-9.3 3-1.5-.1 5 4 6.7 3.8 5.7-.8 11 1 13.7 0 2.3-.8 3.7-1.5 5-1.8 1.1-.5 1.8-1.6 2.5-2 .7-.7 1.2-2 5.4-3.3"/><path fill="#24a34e" d="M554.3 429s-4-4.6-4.8-5.1c-.7-.7-2.7-2-3.7-3-1-.7-1.7-2.3-4.4-3-1.1-.2-3.9-.8-4.6-1.7-.7-1 .2 3.5 1 4.8a9.4 9.4 0 0 0 4.4 3.2c1.7.6 4 1.9 4.9 2.3.8.3 1.2.8 2.5 1 1.4.2 2-.1 4.7 1.4"/><path fill="none" stroke="#0a1a1d" stroke-miterlimit="1.18" stroke-width=".44" d="M554.3 429s-4-4.6-4.8-5.1c-.7-.7-2.7-2-3.7-3-1-.7-1.7-2.3-4.4-3-1.1-.2-3.9-.8-4.6-1.7-.7-1 .2 3.5 1 4.8a9.4 9.4 0 0 0 4.4 3.2c1.7.6 4 1.9 4.9 2.3.8.3 1.2.8 2.5 1 1.4.2 2-.1 4.7 1.4Z"/><path fill="#24a34e" d="M558.2 430.8s-6.9-4.9-8-5.4c-1-.5-3-1.1-4.3-1.6-1.4-.4-4.9-2.9-6.3-2.9s-4-.1-5.1-1c-1.3-1-.2 3.4 1.2 4.7 4.4 3.9 1.3 2.7 5 3.4 2.2.5 5.3 1.8 6.4 2 1 .4 1.2-.3 2.8-.2 1.6.1 4.6-.2 8.3 1"/><path fill="none" stroke="#0a1a1d" stroke-miterlimit="1.18" stroke-width=".44" d="M558.2 430.8s-6.9-4.9-8-5.4c-1-.5-3-1.1-4.3-1.6-1.4-.4-4.9-2.9-6.3-2.9s-4-.1-5.1-1c-1.3-1-.2 3.4 1.2 4.7 4.4 3.9 1.3 2.7 5 3.4 2.2.5 5.3 1.8 6.4 2 1 .4 1.2-.3 2.8-.2 1.6.1 4.6-.2 8.3 1Z"/><path fill="#24a34e" d="M559.9 432s-2.9-1.8-8.5-2.7c-3.9-.7-3.7-.9-5.2-1.2-1.7-.6-2-.6-5.2-.7-1.6-.1-7.7 1.9-9.1 1-1.4-.7 1.5 1.8 3.2 2.5 2.4.9 2.1 2.5 4.8 3.4 2.8 1 5.9 2 7.5 1.6 1.3-.1 2.2-.8 4-1 1.8-.1 5-2.7 8.4-2.8"/><path fill="none" stroke="#0a1a1d" stroke-miterlimit="1.18" stroke-width=".44" d="M559.9 432s-2.9-1.8-8.5-2.7c-3.9-.7-3.7-.9-5.2-1.2-1.7-.6-2-.6-5.2-.7-1.6-.1-7.7 1.9-9.1 1-1.4-.7 1.5 1.8 3.2 2.5 2.4.9 2.1 2.5 4.8 3.4 2.8 1 5.9 2 7.5 1.6 1.3-.1 2.2-.8 4-1 1.8-.1 5-2.7 8.4-2.8Z"/><path fill="#24a34e" d="M560.4 430.7s1.5-6.8.3-8.4a6.2 6.2 0 0 1-1.6-3.5c0-1.7-1.2-4.4-2-5.4-.7-.9-2.2-5.2-1.8-6.3 0 0-4 3.9-3.7 6.3v3c-.3 1 1 4.8 1.6 6 .7 1 .4 4.5 1.1 5 .8.9 5.2 3.9 6.1 3.3"/><path fill="none" stroke="#0a1a1d" stroke-miterlimit="1.18" stroke-width=".44" d="M560.4 430.7s1.5-6.8.3-8.4a6.2 6.2 0 0 1-1.6-3.5c0-1.7-1.2-4.4-2-5.4-.7-.9-2.2-5.2-1.8-6.3 0 0-4 3.9-3.7 6.3v3c-.3 1 1 4.8 1.6 6 .7 1 .4 4.5 1.1 5 .8.9 5.2 3.9 6.1 3.3Z"/><path fill="#24a34e" d="M559.9 432c.4.3-2.4-2-3.7-2.6-1.3-.5-6.6-2-7-3.3-.3-1.3-4.6-5.8-4.7-7-.2-.7-1-2.5-.7-3.4 0-1 .4-3.2 1-4.4.6-1.4 1.9-4.6 3.2-5.1l1.4 4.8c.4 1.3.7 2.8 1.3 3.6.5.7 2.5 4.2 2.6 5.6l1.3 6.4c.2 1 3.7 4.8 5.2 5.5"/><path fill="none" stroke="#0a1a1d" stroke-miterlimit="1.18" stroke-width=".44" d="M559.9 432c.4.3-2.4-2-3.7-2.6-1.3-.5-6.6-2-7-3.3-.3-1.3-4.6-5.8-4.7-7-.2-.7-1-2.5-.7-3.4 0-1 .4-3.2 1-4.4.6-1.4 1.9-4.6 3.2-5.1l1.4 4.8c.4 1.3.7 2.8 1.3 3.6.5.7 2.5 4.2 2.6 5.6l1.3 6.4c.2 1 3.7 4.8 5.2 5.5Z"/><path fill="#24a34e" d="M537 413.7c0 1-2.8-.9-4.3-.9s-6 .5-7.1-.5c-1-1-2.7-3.2-3.4-3.6a21 21 0 0 1-3.1-5.5c-.6-1.9-4.4-5.2-5-5.6 0 0 5.3-1 8.8 1 3.2 2.3 3.4 1.7 4.2 2.1.8.4 6.5 5.2 6.9 7.1.3 1.8 2.7 5 3 6"/><path fill="none" stroke="#0a1a1d" stroke-miterlimit="1.18" stroke-width=".44" d="M537 413.7c0 1-2.8-.9-4.3-.9s-6 .5-7.1-.5c-1-1-2.7-3.2-3.4-3.6a21 21 0 0 1-3.1-5.5c-.6-1.9-4.4-5.2-5-5.6 0 0 5.3-1 8.8 1 3.2 2.3 3.4 1.7 4.2 2.1.8.4 6.5 5.2 6.9 7.1.3 1.8 2.7 5 3 6Z"/><path fill="#24a34e" d="M537 413.7s-4.9-3.4-6-3.2c-1 .2-6.3-3.7-6.7-6-.1-1.3-2.7-3.2-3.1-4-1.4-2.2-2.1-7.2-4-8.5l6.4 1.4c2.4.4 4.4.7 5.3 2.9 1 2 1.8 3.7 2.5 3.8.7.2 1.8 2.8 2.2 5.5.4 2.5 3.4 8.1 3.4 8.1"/><path fill="none" stroke="#0a1a1d" stroke-miterlimit="1.18" stroke-width=".44" d="M537 413.7s-4.9-3.4-6-3.2c-1 .2-6.3-3.7-6.7-6-.1-1.3-2.7-3.2-3.1-4-1.4-2.2-2.1-7.2-4-8.5l6.4 1.4c2.4.4 4.4.7 5.3 2.9 1 2 1.8 3.7 2.5 3.8.7.2 1.8 2.8 2.2 5.5.4 2.5 3.4 8.1 3.4 8.1Z"/><path fill="#24a34e" d="M527.9 388.3c.7 1.3.7-7.4 1-8.3.4-.9 1.4-2.8 2.1-3.5.7-.7.7-3.3 1-4 .4-.8.3-5.9-.3-7.2 0 0-1.5 1.1-2.2 2-.8 1-2 1.3-2.4 2.4-.4 1.1-1.1 1.1-1.7 2.3-.5 1.1-1 3-.7 4.4.4 1.5.2 2 .2 3.4 0 1.3 1.8 6.8 3 8.5"/><path fill="none" stroke="#0a1a1d" stroke-miterlimit="1.18" stroke-width=".44" d="M527.9 388.3c.7 1.3.7-7.4 1-8.3.4-.9 1.4-2.8 2.1-3.5.7-.7.7-3.3 1-4 .4-.8.3-5.9-.3-7.2 0 0-1.5 1.1-2.2 2-.8 1-2 1.3-2.4 2.4-.4 1.1-1.1 1.1-1.7 2.3-.5 1.1-1 3-.7 4.4.4 1.5.2 2 .2 3.4 0 1.3 1.8 6.8 3 8.5"/><path fill="#24a34e" d="M528 389.1s-.4-2.4.6-3.4c1-.9 1.8-.9 2.2-1.4.4-.6.2-1.3.6-2 .3-.8 1.2-2 1.2-2.7.4-2 1.5-4.3.6-6.4 0 0-2 .6-2.6 1-.7.4-2.3 1.9-2.4 3.3-.2 1.7-.4 2-1 2.9-.5.9-1.3 3.7-.4 5.3 1 1.8 1.1 3.4 1.1 3.4"/><path fill="none" stroke="#0a1a1d" stroke-miterlimit="1.18" stroke-width=".44" d="M528 389.1s-.4-2.4.6-3.4c1-.9 1.8-.9 2.2-1.4.4-.6.2-1.3.6-2 .3-.8 1.2-2 1.2-2.7.4-2 1.5-4.3.6-6.4 0 0-2 .6-2.6 1-.7.4-2.3 1.9-2.4 3.3-.2 1.7-.4 2-1 2.9-.5.9-1.3 3.7-.4 5.3 1 1.8 1.1 3.4 1.1 3.4Z"/><path fill="#24a34e" d="M522.6 360.6s-.4-5.5 1.1-7.1c1.5-1.6 1.9-4.8 5.2-6.5 0 0-.2 1.3 0 2.3.3.8.6 3.5 0 4.4-.5.9-2.4 2.5-2.4 3.4 0 .7-1.3 2.5-2.2 2.9-.9.4-1.7.5-1.7.5"/><path fill="none" stroke="#0a1a1d" stroke-miterlimit="1.18" stroke-width=".44" d="M522.6 360.6s-.4-5.5 1.1-7.1c1.5-1.6 1.9-4.8 5.2-6.5 0 0-.2 1.3 0 2.3.3.8.6 3.5 0 4.4-.5.9-2.4 2.5-2.4 3.4 0 .7-1.3 2.5-2.2 2.9-.9.4-1.7.5-1.7.5Z"/><path fill="#24a34e" d="M522.6 363.5s0-3.8 1.1-5c1.1-1 1.7-1.7 2.2-2.3.6-.7 1.1-2.7 2.4-3.4 1.3-.8 3.6-2.7 3.8-3.3 0 0 .5 4.6-.7 7-1.4 2.4-1.4 3.7-2.8 4.3-1.6.5-1.7 1-2.3 1.3-.5.4-1.5.9-2.2.9s-1.6.5-1.6.5"/><path fill="none" stroke="#0a1a1d" stroke-miterlimit="1.18" stroke-width=".44" d="M522.6 363.5s0-3.8 1.1-5c1.1-1 1.7-1.7 2.2-2.3.6-.7 1.1-2.7 2.4-3.4 1.3-.8 3.6-2.7 3.8-3.3 0 0 .5 4.6-.7 7-1.4 2.4-1.4 3.7-2.8 4.3-1.6.5-1.7 1-2.3 1.3-.5.4-1.5.9-2.2.9s-1.6.5-1.6.5Z"/><path fill="#24a34e" d="M526.9 389c.2 1 1-2.4-3-2.4s-7-1.6-8.3-2.9a23 23 0 0 1-2.6-2.8 9.4 9.4 0 0 1-2.3-3.9c-.2-1-1.3-5.2-1-6 0 0 2 .4 2.9 1.1.9.8 2.6.8 3.5 1.4 1 .5 1.7 2 2.2 2.5.6.6 2.2.6 3 1.7a17 17 0 0 1 2.3 4.7c.2 1 1.4 2.1 2.4 2.7.9.5.7 2.7.9 3.8"/><path fill="none" stroke="#0a1a1d" stroke-miterlimit="1.18" stroke-width=".44" d="M526.9 389c.2 1 1-2.4-3-2.4s-7-1.6-8.3-2.9a23 23 0 0 1-2.6-2.8 9.4 9.4 0 0 1-2.3-3.9c-.2-1-1.3-5.2-1-6 0 0 2 .4 2.9 1.1.9.8 2.6.8 3.5 1.4 1 .5 1.7 2 2.2 2.5.6.6 2.2.6 3 1.7a17 17 0 0 1 2.3 4.7c.2 1 1.4 2.1 2.4 2.7.9.5.7 2.7.9 3.8Z"/><path fill="#24a34e" d="M526.5 387.5s-2.6-3.2-4-3.2c-1.2 0-4.5-3.4-4.7-4.8-.2-1.6-1.3-4.3-2-4.9-.8-.5-2-1.8-2-4.1.3-2.2.3-5.9.3-5.9s.7 2.2 1.8 2.8c1.1.5 3.2 1.2 3.5 2 .4.7 1.9.7 2.5 3 .6 2.2.6 2 1 2.7.3.8 1.2 1.7 1.6 3.2.3 1.5 2.4 5.4 2 9.2"/><path fill="none" stroke="#0a1a1d" stroke-miterlimit="1.18" stroke-width=".44" d="M526.5 387.5s-2.6-3.2-4-3.2c-1.2 0-4.5-3.4-4.7-4.8-.2-1.6-1.3-4.3-2-4.9-.8-.5-2-1.8-2-4.1.3-2.2.3-5.9.3-5.9s.7 2.2 1.8 2.8c1.1.5 3.2 1.2 3.5 2 .4.7 1.9.7 2.5 3 .6 2.2.6 2 1 2.7.3.8 1.2 1.7 1.6 3.2.3 1.5 2.4 5.4 2 9.2Z"/><path fill="#24a34e" d="M522.6 366.8c0 1 1.5-1.9-2-3a12 12 0 0 1-6.9-4.9l-1.5-3.2c-.4-.6-1.1-3-1-4 .2-1.2.3-5.2.7-5.9 0 0 1.8 1 2.4 1.8.6 1 2 1.5 2.8 2.2.7.8 1 2.3 1.3 3 .4.7 1.8 1.1 2.2 2.4.4 1.1 1 3.7.7 4.8 0 1 .7 2.4 1.5 3.2.6.8 0 2.7-.2 3.6"/><path fill="none" stroke="#0a1a1d" stroke-miterlimit="1.18" stroke-width=".44" d="M522.6 366.8c0 1 1.5-1.9-2-3a12 12 0 0 1-6.9-4.9l-1.5-3.2c-.4-.6-1.1-3-1-4 .2-1.2.3-5.2.7-5.9 0 0 1.8 1 2.4 1.8.6 1 2 1.5 2.8 2.2.7.8 1 2.3 1.3 3 .4.7 1.8 1.1 2.2 2.4.4 1.1 1 3.7.7 4.8 0 1 .7 2.4 1.5 3.2.6.8 0 2.7-.2 3.6Z"/><path fill="#24a34e" d="M522.7 365.4s-1.5-3.6-2.8-4c-1-.3-3-3.4-3-4.8-.2-1.5-.5-4.3-1-5-.5-.7-1.5-3-.8-4.9.8-2 2.2-4.7 2.2-4.7l1.6 2.8c.9 1.9 1.9 2 2 2.7.2.8 1.3 1.3 1.7 2.8.6 2.1 0 2 .1 2.9.1.7.7 1.8.7 3.3-.1 1.4.7 5.5-.7 8.8"/><path fill="none" stroke="#0a1a1d" stroke-miterlimit="1.18" stroke-width=".44" d="M522.7 365.4s-1.5-3.6-2.8-4c-1-.3-3-3.4-3-4.8-.2-1.5-.5-4.3-1-5-.5-.7-1.5-3-.8-4.9.8-2 2.2-4.7 2.2-4.7l1.6 2.8c.9 1.9 1.9 2 2 2.7.2.8 1.3 1.3 1.7 2.8.6 2.1 0 2 .1 2.9.1.7.7 1.8.7 3.3-.1 1.4.7 5.5-.7 8.8Z"/><path fill="#24a34e" d="M525.6 342.9c.2-.5 1.3-1 2.6-1.6 1.3-.3 3.3-3.3 4.3-4 .8-.8 1.2-2 2.5-2.6 1-.6 1.7-3 2-5.2l-4 1c-.9 0-2.7 1.3-3.5 2-.8 1-1.5 2.6-2.3 3-.7.3-1.6 2.5-1.6 4v3.3"/><path fill="none" stroke="#0a1a1d" stroke-miterlimit="1.18" stroke-width=".44" d="M525.6 342.9c.2-.5 1.3-1 2.6-1.6 1.3-.3 3.3-3.3 4.3-4 .8-.8 1.2-2 2.5-2.6 1-.6 1.7-3 2-5.2l-4 1c-.9 0-2.7 1.3-3.5 2-.8 1-1.5 2.6-2.3 3-.7.3-1.6 2.5-1.6 4v3.4Z"/><path fill="#24a34e" d="m525.4 341.2-.2-3.2c0-1-.7-4.1 1-6.5 1-1.6 5.2-4.8 6.3-5 0 0 .7 3 .5 3.9-.1 1-1.2 4.7-2 5-.8.4-3 4.8-5.6 5.8"/><path fill="none" stroke="#0a1a1d" stroke-miterlimit="1.18" stroke-width=".44" d="m525.4 341.2-.2-3.2c0-1-.7-4.1 1-6.5 1-1.6 5.2-4.8 6.3-5 0 0 .7 3 .5 3.9-.1 1-1.2 4.7-2 5-.8.4-3 4.8-5.6 5.8"/><path fill="#24a34e" d="M524.5 342.9c-.5.8-.2-2.8-1.3-3.7-1-1-1.3-2.3-1.3-3.8s.3-2.5.6-3.5c0-1 2.9-4.8 2.7-5.9l2 4.6c.7 1.3-.3 2.6-.2 3.7.2 1.1 1.1 3.2.5 4.3-.6 1-2.3 3-3 4.3"/><path fill="none" stroke="#0a1a1d" stroke-miterlimit="1.18" stroke-width=".44" d="M524.5 342.9c-.5.8-.2-2.8-1.3-3.7-1-1-1.3-2.3-1.3-3.8s.3-2.5.6-3.5c0-1 2.9-4.8 2.7-5.9l2 4.6c.7 1.3-.3 2.6-.2 3.7.2 1.1 1.1 3.2.5 4.3-.6 1-2.3 3-3 4.3Z"/><path fill="#24a34e" d="M534.4 323.6s.1-.5 1.9-.5c1.6 0 4-.1 4.8-1 .7-.7 2-1.6 2.7-2 .7-.3 2-2 2.3-2.8.2-.7 1.5-2.2 2-2.2 0 0-2-.2-4.3.4-2.2.5-5.4 1.7-6 3.2-.8 1.4-3.5 5-3.5 5"/><path fill="none" stroke="#0a1a1d" stroke-miterlimit="1.18" stroke-width=".44" d="M534.4 323.6s.1-.5 1.9-.5c1.6 0 4-.1 4.8-1 .7-.7 2-1.6 2.7-2 .7-.3 2-2 2.3-2.8.2-.7 1.5-2.2 2-2.2 0 0-2-.2-4.3.4-2.2.5-5.4 1.7-6 3.2-.8 1.4-3.5 5-3.5 5Z"/><path fill="#24a34e" d="M535 323.3c.4 1.2 3.5-1.3 4.2-2.2l1.9-2.4s1.7-2.1 2.2-3c1.1-2 .9-5.7.4-5.4l-3.2 1.7c-.5.2-1.6.5-2 1.4-.4 1-.8 2.2-1.4 2.9-.4.6-3.8 2.4-2.1 7"/><path fill="none" stroke="#0a1a1d" stroke-miterlimit="1.18" stroke-width=".44" d="M535 323.3c.4 1.2 3.5-1.3 4.2-2.2l1.9-2.4s1.7-2.1 2.2-3c1.1-2 .9-5.7.4-5.4l-3.2 1.7c-.5.2-1.6.5-2 1.4-.4 1-.8 2.2-1.4 2.9-.4.6-3.8 2.4-2.1 7"/><path fill="#24a34e" d="M533.8 323.3s2.6-1.9 3.6-2.8c1-1 .5-2.5 1-3.3.5-.7 1.9-2.4 1.5-3.5l-1-4.3s-1.4 1.2-2.2 2.2c-1 1-1.2 1.6-1.6 2.8-.4 1.2-1 1.9-1.5 2.8-.3 1 0 2.8.2 3.9.2 1 0 2.2 0 2.2"/><path fill="none" stroke="#0a1a1d" stroke-miterlimit="1.18" stroke-width=".44" d="M533.8 323.3s2.6-1.9 3.6-2.8c1-1 .5-2.5 1-3.3.5-.7 1.9-2.4 1.5-3.5l-1-4.3s-1.4 1.2-2.3 2.2c-1 1-1.2 1.6-1.5 2.8-.4 1.2-1.1 1.9-1.5 2.8-.4 1 0 2.8.2 3.9.2 1 0 2.2 0 2.2Z"/><path fill="none" stroke="#0a1a1d" stroke-miterlimit="1.18" stroke-width=".22" d="M575 440.7s-12.3 0-13.4-1.6m20.5 3.2s-8 2.2-12.2 1.6c-4.4-.5-6.4.4-7.3.4s-5.6-2-5.6-2m33.3 3s-6.2 1-7.5 1.4c-1.2.4-7.5 2.8-9.4 2.8h-6.2c-1.8.3-6.7 0-7.8-.6m7.6-18.4s4.6 2.7 5.4 3.7c.7 1 4.8 4.3 5.6 4.3m-11-13.8s8 6.9 9.3 7.8c1.3 1 9.1 8.6 10 9.8m-12.8-20.5s6.3 5 7 7c.8 2 2.6 4.4 2.6 4.4s2.7 5.3 3.6 6c1 .7 2.8 2.8 5 4.1M537.5 417s6.6 5.7 8.5 6.7m-11.4-3s6.7 4.5 9.7 5.7c3 1 5.4 2 12 3m2.5 2.6s-7.4-.4-8.7 0c-1.3.3-7.1-1-8.6-1.3-1.4-.4-7.4-1.5-8.1-1.7m14.1-22.2s-.3 4 .2 5.8c.5 1.6 3 6.4 3 7.6-.3 1.1 1.4 6.2 3 7.1m1.5-19.8s-1.3 4-.8 5.5a17 17 0 0 1 1.5 5.2c0 1.5.9 3.7 1.2 4.6.4 1-.1 4.1.8 5 .9 1 2 2.6 2 2.6m-44.6-32.3s6 2.2 6.7 3.7c.6 1.4 1.8 1.9 2.4 2.6m12.8-12s1.5 6 1.2 7.5c-.4 1.5-.4 4.5-.4 5.6s-1.6 5.6-1.5 6.4m-1.7-24.4-.7 5c-.2 1.4 0 3.9-.4 4.8-.3 1-.9 5.9 0 8.2m-15.3-13s4.9 4 6 5.2c1 1 6.1 6.4 6.3 7.8a23 23 0 0 0 4.8 6.3m-25.3-40.2s4.9 4.8 5.2 5.9c.4 1.2 2.4 3 3.4 3.6m14.2-7.4s-1.9 2.7-1.9 3.6-.7 3.4-1.4 4.4c-.6.6-2 3.3-2 5m3.8-20.9-1 4.4c-.5 1.8-1.5 3.8-1.7 4.9-.4 1-2 6.5-1.4 9.8m-12.9-19.3s.6 2.6 1.9 3.9c1.2 1.3 3.3 3.2 3.5 4.2.1 1.2 1.9 6.7 3.7 8.7 1.9 1.8 2 3.7 2 3.7m-13-39.5s.6 3.2 1 4c.3 1 1.8 5.2 3.3 6.4m11.8-9.5s-1 2.5-1 3.7c-.3 1.1-1.4 2.4-1.6 3l-1 2.4m7-6.6c-.2 1.2-2.4 4.5-2.4 5.1-.3.6-1.3 3.2-2.5 4-1 .7-4.4 3.1-4.2 4.1m-5.5-20.3s-.2 4 .5 5.5c.9 1.5 1.7 3.8 2 4.9.5 1 .5 2.9.6 4.2.2 1.4.7 3.8 1.5 4.7m14.7-32-4 4.3c-1.2 1.2-6 6.3-6.1 7.2m5.5-14.3s-2.5 5.7-3.2 6.6l-1 2.5m-2.5-9.3s.2 4.5 0 5.6c-.2 1-.2 3 0 3.5.2.6-.5 4.6-.7 5.6m22.4-26.3s-6 3.6-7 4.5m3.4-9.1-4 5.9-1 1.7m.4-8.2s-1.4 3.2-1.5 4.4c-.2 1.4-2 5.5-2.8 7"/><path fill="none" stroke="#0a1a1d" stroke-miterlimit="1.18" stroke-width=".29" d="M599.3 446.7s-7.7 4.4-3.8 11.2c0 0-1.6 0-2.6-1.7 0 0-1.4 2.7-.1 4.2 0 0-5.2-4.7-1.2-10.3 4.1-5.6 7.4-5.2 7.4-5.2l.3 1.8"/><path fill="none" stroke="#0a1a1d" stroke-miterlimit="1.18" stroke-width=".29" d="M599.3 443s-3.4-2.2-8.2-1c0 0-2.2-6.8-1.3-9 .3-1 1-1.1 1-1.1s-2.3-1.5-1.6 5c.7 6.6 2 8.4 2 8.4s6.4.3 7.8-.4l.3-1.8Z"/><path fill="none" stroke="#0a1a1d" stroke-miterlimit="1.18" stroke-width=".29" d="M599.3 443s-6.7-11.2-8.5-11.2c0 0-1.9-.2 2.4-.7 1.5-.2 4 0 5 2.1 1.3 2 2 6.8 2.5 7.5 0 0-1.2.4-1.4 2.3Z"/><path fill="none" stroke="#0a1a1d" stroke-miterlimit="1.18" stroke-width=".29" d="M599.3 443s-4.5-2-5-2.6c-.6-.5-1.6-6.8-1-6.4 0 0-1.8-2.1-2.5-2.1-.3 0-1.6.9-1.2 3 .3 2.4.9 5.8 1.5 7.2 0 0 3.5-1.4 8.2 1Zm4 3.7s2.4 1.5 2.4 4.4 1.2 7.8 3.4 8.9c0 0 .5-2.1 1.3-2.5 0 0 2.2 2.7 3 2.7 0 0-1.4-2.5-1.4-3.6s-1-5.4-2.1-6.4c-1.1-1.2-3.5-3.8-6.6-4.7v1.3Zm1-13-2 8 .5 1.7s.7-.2 1-1.1c.4-1 1.5-7.8 2.2-8.1l-1.8-.5Z"/><path fill="#001f56" d="M602.3 441.7s2.3 5.1.5 5.4c-1.7.2.7.2-.4-3.3-.5-1.4-1.2-3-1.6-3 0 0 1.3.5 1.5.9"/><path fill="none" stroke="#0a1a1d" stroke-miterlimit="1.18" stroke-width=".29" d="M599.5 442s.8-2.4 2.7-.3c0 0 2.2 5.2.6 5.4-1.7.2-3.3.5-3.5-.4-.3-.9.1-4.7.1-4.7Zm2.4-.9s.5-8 1.6-8.4c1-.3 4.5-2.1 6.5-.5 2 1.7.2 10-.5 10.8-.7.7-1.8 3-6.2 2.5l-.5-2s2.2-.2 3.7-1c1.6-.8 2-1.4 2-2.2-.3-1.1-.2-5.3-1.4-5.7l-2.8-.9-2 8-.4-.5Z"/><path fill="#faf6f5" d="m600 294.9.6.6c1.6-1.8 1.7-5.5 1.7-5.5l-1-7.4s-.7 5-1.3 7.3c-.5 2.2-2 5.4-2.2 6-1.1 2.7-.3 3-.2 3.1l2.4-4.1"/><path fill="none" stroke="#0a1a1d" stroke-miterlimit="1.18" stroke-width=".44" d="M602.3 299c0-.7 0-.3.6-1.6s-.6-7.4-.6-7.4l-1-7.4c-.1-1.7-.8-3.8-1.6-5l-1 1.4c-.4.7 0 1-.9 2.2a80 80 0 0 0-4.6 13.9c0 1.1 0 9.1.4 10.4"/><path fill="#ffb81c" d="m600 278.5-.2-1.7c-.1-.1.6 1.1 1.2 1 1 .3 2.3 1.8 2.5 2.1-.4.7-1.5 2-2.4 1.8-.6-.2-.5-1.2-.7-1.8 0-.4-.4-.8-.4-1.4"/><path fill="none" stroke="#0a1a1d" stroke-miterlimit="1.18" stroke-width=".22" d="m600 278.5-.2-1.7c-.1-.1.6 1.1 1.2 1 1 .3 2.3 1.8 2.5 2.1-.4.7-1.5 2-2.4 1.8-.6-.2-.5-1.2-.7-1.8 0-.4-.4-.8-.4-1.4Z"/><path fill="none" stroke="#0a1a1d" stroke-miterlimit="1.18" stroke-width=".22" d="m600 277.5.5.5.8.2c.8.5 1 1 1.9 1.8m-2.5-1.7c1 .5 1.6 1.3 2.3 2.2v-.2"/><path fill="#ffb81c" d="m598.8 277.6 1.5-.8c.1 0-.8 1-.5 1.5a6 6 0 0 1-1.2 3.2c-.7-.3-1.5-.3-2.2-1.5-.2-.4.5-.9 1-1.3.2-.2.9-1 1.4-1"/><path fill="none" stroke="#0a1a1d" stroke-miterlimit="1.18" stroke-width=".22" d="m598.8 277.6 1.5-.8c.1 0-.8 1-.5 1.5a6 6 0 0 1-1.2 3.2c-.7-.3-1.5-.3-2.2-1.5-.2-.4.5-.9 1-1.3.2-.2.9-1 1.4-1Z"/><path fill="none" stroke="#0a1a1d" stroke-miterlimit="1.18" stroke-width=".22" d="M599.9 277.3c-.1 0-.4.4-.4.6 0 .3.2.5 0 .8-.1 1-.5 1.4-1 2.5m.8-2.9c0 1-.6 2-1.3 2.9h.2"/><path fill="#ffb81c" d="M600.5 276.8c.7-.8 2-1.6 2.7-1 0 0 .6.3.7.6.4.4.3.5.1 1-.4 1-1.7.4-2.5 0-.2 0-.7-.5-1-.4l-.3.1c0 .2.2.1.4.2.7.1 1.2.6 2.1 1 .7.2 1.9-.5 1.8-1.2 0-.7-1.1-2-1.6-2-1.2 0-2.1.9-3 1.8.2-.2.4.2.6 0"/><path fill="none" stroke="#0a1a1d" stroke-miterlimit="1.18" stroke-width=".22" d="M600.5 276.8c.7-.8 2-1.6 2.7-1 0 0 .6.3.7.6.4.4.3.5.1 1-.4 1-1.7.4-2.5 0-.2 0-.7-.5-1-.4l-.3.1c0 .2.2.1.4.2.7.1 1.2.6 2.1 1 .7.2 1.9-.5 1.8-1.2 0-.7-1.1-2-1.6-2-1.2 0-2.1.9-3 1.8.2-.2.4.2.6 0Z"/><path fill="#ffb81c" d="M599.9 276.8c-.8-.8-2.1-1.6-2.8-1l-.7.6c-.3.4-.3.5 0 1 .3 1 1.6.4 2.5 0 .2 0 .6-.5.9-.4l.4.1c-.1.2-.3.1-.5.2-.6.1-1.2.6-2.1 1-.6.2-1.8-.5-1.8-1.2s1.2-2 1.7-2c1.2 0 2.2.9 3 1.8-.1-.2-.4.2-.6 0"/><path fill="none" stroke="#0a1a1d" stroke-miterlimit="1.18" stroke-width=".22" d="M599.9 276.8c-.8-.8-2.1-1.6-2.8-1l-.7.6c-.3.4-.3.5 0 1 .3 1 1.6.4 2.5 0 .2 0 .6-.5.9-.4l.4.1c-.1.2-.3.1-.5.2-.6.1-1.2.6-2.1 1-.6.2-1.8-.5-1.8-1.2s1.2-2 1.7-2c1.2 0 2.2.9 3 1.8-.1-.2-.4.2-.6 0Z"/><path fill="#ffb81c" d="M600.1 276.4c-.3-.2-.7.1-.8.3 0 .3 0 .7.4.7.4.2 1 .1 1.1-.3.1-.5-.3-.5-.7-.7"/><path fill="none" stroke="#0a1a1d" stroke-miterlimit="1.18" stroke-width=".22" d="M600.1 276.4c-.3-.2-.7.1-.8.3 0 .3 0 .7.4.7.4.2 1 .1 1.1-.3.1-.5-.3-.5-.7-.7"/><path fill="#ffb81c" d="M600 268.9s.5 2.9 2 5c0 0-1.8 1.8-2 2.5 0 0-1-2-2-2.6 0 0 1.6-2.5 2-5"/><path fill="none" stroke="#0a1a1d" stroke-miterlimit="1.18" stroke-width=".22" d="M600 268.9s.5 2.9 2 5c0 0-1.8 1.8-2 2.5 0 0-1-2-2-2.6 0 0 1.6-2.5 2-5m0 3.1s.3 1.3.7 2.1l-.8.8s-.3-.8-.7-1c0 0 .7-1 .7-1.9"/><path fill="#faf6f5" d="M634.2 352a67.5 67.5 0 0 0 3.7-16c-.4-8.8-.3-11.4-1.1-20.5l-9 10.5c.1 3.4.2 4.5 0 6.7-.1.8-.7 4.7-1.3 6.3l7.7 13"/><path fill="#ffb81c" d="m621.3 331.3 26.4-29.3.5.6-26 29.5-.9-.8"/><path fill="none" stroke="#0a1a1d" stroke-miterlimit="1.18" stroke-width=".22" d="m621.3 331.3 26.4-29.3.5.6-26 29.5-.9-.8Z"/><path fill="none" stroke="#0a1a1d" stroke-miterlimit="1.18" stroke-width=".29" d="M649.6 347.5c.2-1.5.2-3 .2-4 0-6.3.8-11.1 0-17.8-.4-5.3-1.8-12.3-1.5-17.9l-.2-4.8-26 29.1"/><path fill="#ffb81c" d="M647.6 302c-.1-1.2-.7-2.6-1.6-2.6h-1c-.4.3-.5.5-.6.9-.2 1 1.2 1.4 2 1.5.3 0 1-.1 1 .1l.3.4-.4-.2-2.4-.3c-.7-.1-1.2-1.5-.8-2 .5-.5 2-1 2.5-.6 1 .7 1.4 1.9 1.5 3.2-.1-.3-.5-.1-.5-.4"/><path fill="none" stroke="#0a1a1d" stroke-miterlimit="1.18" stroke-width=".22" d="M647.6 302c-.1-1.2-.7-2.6-1.6-2.6h-1c-.4.3-.5.5-.6.9-.2 1 1.2 1.4 2 1.5.3 0 1-.1 1 .1l.3.4-.4-.2-2.4-.3c-.7-.1-1.2-1.5-.8-2 .5-.5 2-1 2.5-.6 1 .7 1.4 1.9 1.5 3.2-.1-.3-.5-.1-.5-.4Z"/><path fill="#ffb81c" d="M648.1 302.3c1.1-.3 2.7-.1 3 .6 0 0 .2.7.1 1 .1.4 0 .6-.4.9-1 .4-1.8-.7-2.1-1.5-.1-.3-.3-.7-.6-1h-.4l.4.4 1.2 2c.2.7 1.7.7 2 .2.4-.7.1-2.2-.2-2.6-1-.7-2.3-.7-3.5-.3.3 0 .3.4.6.3"/><path fill="none" stroke="#0a1a1d" stroke-miterlimit="1.18" stroke-width=".22" d="M648.1 302.3c1.1-.3 2.7-.1 3 .6 0 0 .2.7.1 1 .1.4 0 .6-.4.9-1 .4-1.8-.7-2.1-1.5-.1-.3-.3-.7-.6-1h-.4l.4.4 1.2 2c.2.7 1.7.7 2 .2.4-.7.1-2.2-.2-2.6-1-.7-2.3-.7-3.5-.3.3 0 .3.4.6.3Z"/><path fill="#ffb81c" d="M648.2 301.8c.4 0 .5.5.4.8 0 .3-.5.5-.7.4-.5-.2-.8-.5-.7-1 .1-.5.6-.3 1-.2"/><path fill="none" stroke="#0a1a1d" stroke-miterlimit="1.18" stroke-width=".22" d="M648.2 301.8c.4 0 .5.5.4.8 0 .3-.5.5-.7.4-.5-.2-.8-.5-.7-1 .1-.5.6-.3 1-.2"/><path fill="#ffb81c" d="M653.4 296.6s-2.7 1.9-5.2 2.5c0 0 .4 2.2 0 2.9 0 0 2.1-1 3.2-.7 0 0 .6-3.2 2-4.7"/><path fill="none" stroke="#0a1a1d" stroke-miterlimit="1.18" stroke-width=".22" d="M653.4 296.6s-2.7 1.9-5.2 2.5c0 0 .4 2.2 0 2.9 0 0 2.1-1 3.2-.7 0 0 .6-3.2 2-4.7Z"/><path fill="none" stroke="#0a1a1d" stroke-miterlimit="1.18" stroke-width=".22" d="M651.4 298.6s-1.1.8-2.1 1v1.1s.8-.2 1.2-.1c0 0 .3-1.3.8-2Z"/><path fill="#ffb81c" d="m648.6 304.2-1-1.2c-.2-.2.4 1.2-.2 1.6-.4 1 0 2.8 0 3.2.8.1 1.6.4 2.7-.4.4-.3-.2-1-.5-1.6-.1-.3-.4-1.2-1-1.6"/><path fill="none" stroke="#0a1a1d" stroke-miterlimit="1.18" stroke-width=".22" d="m648.6 304.2-1-1.2c-.2-.2.4 1.2-.2 1.6-.4 1 0 2.8 0 3.2.8.1 1.6.4 2.7-.4.4-.3-.2-1-.5-1.6-.1-.3-.4-1.2-1-1.6Z"/><path fill="none" stroke="#0a1a1d" stroke-miterlimit="1.18" stroke-width=".22" d="M647.9 303.6v.7c0 .2-.3.3-.3.7-.2 1 0 1.6 0 2.7m.4-3c-.3 1.2 0 2 .1 3h-.2m.3-1.1.1 1.2h.4"/><path fill="#faf6f5" d="m600 415.1-.4-.2c-.6-.3-1.4-.3-1.7-.6-1.2-1.4-.3-4.2.1-6 1.1-3.2 1.3-6 2-9.1.7 3 .8 6 1.8 9.2.7 1.7 1.5 4.5.2 6-.2.2-1 .2-1.5.5l-.6.2"/><path fill="none" stroke="#0a1a1d" stroke-miterlimit="1.18" stroke-width=".29" d="m595.5 403.5-.5.7c-.2.1-.3.3-.4.6l-.3.6-.7 1.5-.7 1.4-.3 1v1.5c.3.6 1 1 1.6 1.4l.2.1c.3.2.7.1 1 .3l.6.6c0 .2.2.2.4.3l1.3.2.2.4c.2.2 1 .2 1.6.5l.4.2.5-.2c.4-.3 1.3-.3 1.6-.5l.1-.4c.6 0 1 0 1.4-.2l.3-.3.6-.6c.4-.2.7-.1 1-.3l.2-.1c.7-.4 1.3-.8 1.6-1.4.2-.5.2-1 0-1.5 0-.4-.1-.7-.3-1-.1-.5-.4-1-.6-1.4l-.7-1.5-.4-.6c0-.3-.3-.5-.4-.6 0-.3-.3-.4-.5-.7"/><path fill="#faf6f5" d="m653.7 346.2-10.2 6.8c0 3.2 0 4.2-.3 6.1-.2.6-.8 4.2-1.5 5.4l8.4 14.2c2-3.6 3.8-11.5 3.8-13.6 0-8.1.3-10.5-.2-18.9Z"/><path fill="#ffb81c" d="m636.6 356 29.6-19.3.5.8-29.5 19.6-.6-1"/><path fill="none" stroke="#0a1a1d" stroke-miterlimit="1.18" stroke-width=".22" d="m636.6 356 29.6-19.3.5.8-29.5 19.6-.6-1"/><path fill="none" stroke="#0a1a1d" stroke-miterlimit="1.18" stroke-width=".29" d="M659.5 394.3c.7-.4 1.9-1.6 2.3-2.7.6-2.1.5-2 1-4.4.3-1.4.3-2.9.6-4.3.3-1.3 2.3-5.8 2.3-7.6.2-5.9 2.1-9.9 1.7-16.2-.4-5-1.5-11.7-1-16.9.2-1.3 0-2.9 0-4.4l-29.2 19.4"/><path fill="#ffb81c" d="M666.6 336.4c.3-1.1 0-2.6-.9-2.8 0 0-.6-.2-1 0-.4 0-.5 0-.7.5-.4 1 .7 1.6 1.6 1.9.2 0 .8.2.8.4l.2.5c-.2-.1-.2-.3-.3-.4-.7-.3-1.3-.4-2.3-.9-.6-.3-.7-1.7-.2-2.1.5-.4 2.2-.4 2.6 0 .7 1 .8 2.2.6 3.4 0-.2-.4-.2-.4-.5"/><path fill="none" stroke="#0a1a1d" stroke-miterlimit="1.18" stroke-width=".22" d="M666.6 336.4c.3-1.1 0-2.6-.9-2.8 0 0-.6-.2-1 0-.4 0-.5 0-.7.5-.4 1 .7 1.6 1.6 1.9.2 0 .8.2.8.4l.2.5c-.2-.1-.2-.3-.3-.4-.7-.3-1.3-.4-2.3-.9-.6-.3-.7-1.7-.2-2.1.5-.4 2.2-.4 2.6 0 .7 1 .8 2.2.6 3.4 0-.2-.4-.2-.4-.5Z"/><path fill="#ffb81c" d="M667.1 337c1.2 0 2.6.4 2.7 1.1v1c-.1.5-.2.7-.7.8-1 .3-1.5-1-1.7-2 0 0 0-.6-.3-.8l-.4-.2.3.4.6 2.3c.2.7 1.5 1 2 .5.5-.4.7-2 .4-2.4-.8-1-2-1.2-3.3-1.2.2 0 .1.5.4.4"/><path fill="none" stroke="#0a1a1d" stroke-miterlimit="1.18" stroke-width=".22" d="M667.1 337c1.2 0 2.6.4 2.7 1.1v1c-.1.5-.2.7-.7.8-1 .3-1.5-1-1.7-2 0 0 0-.6-.3-.8l-.4-.2.3.4.6 2.3c.2.7 1.5 1 2 .5.5-.4.7-2 .4-2.4-.8-1-2-1.2-3.3-1.2.2 0 .1.5.4.4"/><path fill="#ffb81c" d="M667.4 336.4c.2.2.2.6.1.8-.1.3-.6.4-.8.2-.4-.2-.7-.7-.4-1 .2-.4.7-.1 1 0"/><path fill="none" stroke="#0a1a1d" stroke-miterlimit="1.18" stroke-width=".22" d="M667.4 336.4c.2.2.2.6.1.8-.1.3-.6.4-.8.2-.4-.2-.7-.7-.4-1 .2-.4.7-.1 1 0Z"/><path fill="#ffb81c" d="M673.5 332.5s-3 1.3-5.6 1.3c0 0-.1 2.1-.6 2.8 0 0 2.3-.4 3.3 0 0 0 1.3-3 3-4.2"/><path fill="none" stroke="#0a1a1d" stroke-miterlimit="1.18" stroke-width=".22" d="M673.5 332.5s-3 1.3-5.6 1.3c0 0-.1 2.1-.6 2.8 0 0 2.3-.4 3.3 0 0 0 1.3-3 3-4.2v.1Z"/><path fill="none" stroke="#0a1a1d" stroke-miterlimit="1.18" stroke-width=".22" d="M671 334s-1.1.6-2.1.6c0 0-.1.8-.3 1l1.3.1s.4-1.3 1.2-1.7Z"/><path fill="#ffb81c" d="m667.1 338.8-.7-1.3c0-.2 0 1.1-.5 1.3-.7 1-.8 2.8-.8 3.3.8.3 1.5.7 2.7 0 .4-.2.2-1 0-1.5 0-.4-.2-1.3-.6-1.8"/><path fill="none" stroke="#0a1a1d" stroke-miterlimit="1.18" stroke-width=".22" d="m667.1 338.8-.7-1.3c0-.2 0 1.1-.5 1.3-.7 1-.8 2.8-.8 3.3.8.3 1.5.7 2.7 0 .4-.2.2-1 0-1.5 0-.4-.2-1.3-.6-1.8Z"/><path fill="none" stroke="#0a1a1d" stroke-miterlimit="1.18" stroke-width=".22" d="m666.6 338-.1.7c0-.2-.3.3-.4.4a7 7 0 0 0-.7 3m.9-2.7c-.3 1.2-.5 1.2-.5 2.8m.6-1.7c-.3.8-.3 1.3-.3 1.7l.4.2"/><path fill="#faf6f5" d="M621.4 399c-1.5.8-2.3 2.1-6.6 3.5-1.6 0-3.5.7-5 .6 1.9.5 1.9.7 3.4 1.1 3.2.7-.5.2 2.8.5 3 .4 4.3 1.2 7.2 1 3.8-.2 6.1-1.9 7.7-3 .7-.5 5.1-1.6 7.5-3.8h-17"/><path fill="none" stroke="#012778" stroke-miterlimit="1.18" stroke-width=".29" d="M653.7 399h-15.6m-33.5 0 3.4.2 12.8-.2m.1 0h-16.2"/><path fill="none" stroke="#0a1a1d" stroke-miterlimit="1.18" stroke-width=".29" d="M602 399c-.2.6.4 1.8.6 2.3 0 .2.4.6.5.8.4.7.3.5 1 1 0 .1.7.7 1 .8.4.4.7.8 1.2.8 2.2.4 3.2.8 5.2 1.5 2 .5 1 .4 2.5.8.6.2 2.2.7 3 .8 1.3.3 1.5.5 2.9.7 3.5.8 7 .7 10.5.4 1.5-.1 5.1-.8 6.3-1.7 2.2-1.5 7-2.1 9.2-3.6.3-.2 1.6-.8 1.9-1.1 2-1.8 3.8-2.2 6-3.6"/><path fill="#faf6f5" d="M565.8 352a67 67 0 0 1-3.7-16c.4-8.8.2-11.4 1-20.5l9.2 10.5a33.4 33.4 0 0 0 1.2 13l-7.7 13"/><path fill="#ffb81c" d="M578.6 331.3 552.2 302l-.5.6 26.1 29.5.8-.8"/><path fill="none" stroke="#0a1a1d" stroke-miterlimit="1.18" stroke-width=".22" d="M578.6 331.3 552.2 302l-.5.6 26.1 29.5.8-.8"/><path fill="none" stroke="#0a1a1d" stroke-miterlimit="1.18" stroke-width=".29" d="m550.4 347.5-.2-4c0-6.3-.8-11.1 0-17.8.5-5.3 1.8-12.3 1.5-17.9-.1-1.6.1-3.2.2-4.8l26 29.1"/><path fill="#ffb81c" d="M552.5 302c0-1.2.6-2.6 1.5-2.6h1c.4.3.5.5.6.9.2 1-1 1.4-2 1.5-.3 0-1-.1-1 .1l-.3.4.4-.2 2.4-.3c.7-.1 1.1-1.5.8-2-.4-.5-2-1-2.5-.6-1 .7-1.4 1.9-1.5 3.2 0-.3.4-.1.5-.4"/><path fill="none" stroke="#0a1a1d" stroke-miterlimit="1.18" stroke-width=".22" d="M552.5 302c0-1.2.6-2.6 1.5-2.6h1c.4.3.5.5.6.9.2 1-1 1.4-2 1.5-.3 0-1-.1-1 .1l-.3.4.4-.2 2.4-.3c.7-.1 1.1-1.5.8-2-.4-.5-2-1-2.5-.6-1 .7-1.4 1.9-1.5 3.2 0-.3.4-.1.5-.4Z"/><path fill="#ffb81c" d="M551.9 302.3c-1.1-.3-2.6-.1-2.9.6l-.2 1c0 .4 0 .6.5.9.8.4 1.7-.7 2-1.5l.5-1h.5c0 .2-.3.2-.4.4l-1.2 2c-.3.7-1.7.7-2 .2-.4-.7-.1-2.2.3-2.6 1-.7 2.2-.7 3.4-.3-.2 0-.3.4-.6.3"/><path fill="none" stroke="#0a1a1d" stroke-miterlimit="1.18" stroke-width=".22" d="M551.9 302.3c-1.1-.3-2.6-.1-2.9.6l-.2 1c0 .4 0 .6.5.9.8.4 1.7-.7 2-1.5l.5-1h.5c0 .2-.3.2-.4.4l-1.2 2c-.3.7-1.7.7-2 .2-.4-.7-.1-2.2.3-2.6 1-.7 2.2-.7 3.4-.3-.2 0-.3.4-.6.3Z"/><path fill="#ffb81c" d="M551.8 301.8c-.4 0-.5.5-.4.8 0 .3.4.5.7.4.5-.2.8-.5.7-1-.1-.5-.7-.3-1-.2"/><path fill="none" stroke="#0a1a1d" stroke-miterlimit="1.18" stroke-width=".22" d="M551.8 301.8c-.4 0-.5.5-.4.8 0 .3.4.5.7.4.5-.2.8-.5.7-1-.1-.5-.7-.3-1-.2"/><path fill="#ffb81c" d="M546.7 296.6s2.6 1.9 5 2.5c0 0-.3 2.2 0 2.9 0 0-2-1-3.2-.7 0 0-.5-3.2-1.8-4.7"/><path fill="none" stroke="#0a1a1d" stroke-miterlimit="1.18" stroke-width=".22" d="M546.7 296.6s2.6 1.9 5 2.5c0 0-.3 2.2 0 2.9 0 0-2-1-3.2-.7 0 0-.5-3.2-1.8-4.7Z"/><path fill="none" stroke="#0a1a1d" stroke-miterlimit="1.18" stroke-width=".22" d="M548.7 298.6s1 .8 2 1v1.1s-.8-.2-1.2-.1c0 0-.2-1.3-.7-2Z"/><path fill="#ffb81c" d="m551.4 304.2 1-1.2c.1-.2-.4 1.2.1 1.6.5 1 .1 2.8 0 3.2-.8.1-1.5.4-2.5-.4-.4-.3 0-1 .3-1.6.2-.3.6-1.2 1-1.6"/><path fill="none" stroke="#0a1a1d" stroke-miterlimit="1.18" stroke-width=".22" d="m551.4 304.2 1-1.2c.1-.2-.4 1.2.1 1.6.5 1 .1 2.8 0 3.2-.8.1-1.5.4-2.5-.4-.4-.3 0-1 .3-1.6.2-.3.6-1.2 1-1.6Z"/><path fill="none" stroke="#0a1a1d" stroke-miterlimit="1.18" stroke-width=".22" d="M552.1 303.6v.7c0 .2.3.3.4.7l-.2 2.7m-.3-3c.3 1.2 0 2 0 3m-.2-1.1-.1 1.2h-.4"/><path fill="#faf6f5" d="m600 415.1.4-.2c.5-.3 1.3-.3 1.6-.6 1.3-1.4.4-4.2-.2-6-1-3.2-1-6-1.8-9.1-.7 3-.9 6-2 9.2-.4 1.7-1.4 4.5 0 6 .2.2 1 .2 1.6.5l.3.2"/><path fill="none" stroke="#0a1a1d" stroke-miterlimit="1.18" stroke-width=".29" d="M604 403.1c.2.3.8 1 .8 1.3l.4.6.4.7.7 1.5.6 1.3.4 1v1.5c-.3.7-1 1-1.6 1.4l-.2.2c-.4.1-.7 0-1 .2l-.6.7-.4.2c-.4.2-.9.3-1.4.3l-.1.3c-.3.3-1.1.3-1.6.5-.1.1-.3.3-.5.3l-.4-.3c-.5-.2-1.3-.2-1.6-.5 0 0-.2-.1-.2-.3-.4 0-.9-.1-1.3-.3-.1 0-.3 0-.4-.2l-.6-.7c-.3-.1-.7 0-1-.2l-.2-.2c-.6-.3-1.3-.7-1.5-1.3-.1-.6-.2-1-.1-1.6 0-.4.2-.6.3-1l.7-1.3c.1-.6.4-1 .7-1.5 0-.3.2-.5.4-.7l.3-.6c0-.2.7-.8.8-1.1"/><path fill="#faf6f5" d="M546.3 346.2c-.4 8.4-.3 10.8-.3 19 0 2 1.8 9.9 3.9 13.5l8.4-14.2c-.7-1.1-1.3-4.7-1.5-5.4-.4-1.9-.4-3-.3-6.1l-10.2-6.8Z"/><path fill="#ffb81c" d="m563.4 356-29.6-19.3-.5.8 29.4 19.6.7-1"/><path fill="none" stroke="#0a1a1d" stroke-miterlimit="1.18" stroke-width=".22" d="m563.4 356-29.6-19.3-.5.8 29.4 19.6.7-1Z"/><path fill="none" stroke="#001f56" stroke-miterlimit="1.18" stroke-width=".29" d="M534 375.2c.2 1.8 2.1 6 2.4 7.5.3 1.3.3 2.8.7 4.2l1 4.4a7 7 0 0 0 2.3 2.7l9.3-15.3m-15.6-3.5c0 1.8 2 6 2.3 7.5.3 1.3.3 2.7.7 4.1l1 4.3c.4 1 1.6 2.2 2.3 2.6l9.3-15"/><path fill="none" stroke="#0a1a1d" stroke-miterlimit="1.18" stroke-width=".29" d="M540.5 394.3a6.6 6.6 0 0 1-2.2-2.7c-.8-2.1-.6-2-1.2-4.4-.2-1.4-.2-2.9-.6-4.3-.2-1.3-2.2-5.8-2.3-7.6-.2-5.9-2.1-9.9-1.6-16.2.3-5 1.4-11.7.9-16.9-.2-1.3 0-2.9 0-4.4l29.2 19.4"/><path fill="#ffb81c" d="M533.3 336.4c-.1-1.1.1-2.6 1-2.8 0 0 .6-.2 1 0 .4 0 .5 0 .7.5.4 1-.8 1.6-1.6 1.9-.2 0-.8.2-1 .4v.5c0-.1 0-.3.3-.4.6-.3 1.3-.4 2.2-.9.7-.3.8-1.7.3-2.1-.5-.4-2.2-.4-2.5 0-.8 1-1 2.2-.8 3.4 0-.2.5-.2.4-.5"/><path fill="none" stroke="#0a1a1d" stroke-miterlimit="1.18" stroke-width=".22" d="M533.3 336.4c-.1-1.1.1-2.6 1-2.8 0 0 .6-.2 1 0 .4 0 .5 0 .7.5.4 1-.8 1.6-1.6 1.9-.2 0-.8.2-1 .4v.5c0-.1 0-.3.3-.4.6-.3 1.3-.4 2.2-.9.7-.3.8-1.7.3-2.1-.5-.4-2.2-.4-2.5 0-.8 1-1 2.2-.8 3.4 0-.2.5-.2.4-.5Z"/><path fill="#ffb81c" d="M532.9 337c-1.1 0-2.6.4-2.7 1.1v1c0 .5.3.7.6.8 1.1.3 1.6-1 1.8-2 0 0 0-.6.2-.8l.5-.2a1 1 0 0 0-.3.4c-.2.6-.2 1.3-.6 2.3-.2.7-1.6 1-2 .5-.6-.4-.8-2-.4-2.4.8-1 2.1-1.2 3.3-1.2-.2 0-.2.5-.4.4"/><path fill="none" stroke="#0a1a1d" stroke-miterlimit="1.18" stroke-width=".22" d="M532.9 337c-1.1 0-2.6.4-2.7 1.1v1c0 .5.3.7.6.8 1.1.3 1.6-1 1.8-2 0 0 0-.6.2-.8l.5-.2a1 1 0 0 0-.3.4c-.2.6-.2 1.3-.6 2.3-.2.7-1.6 1-2 .5-.6-.4-.8-2-.4-2.4.8-1 2.1-1.2 3.3-1.2-.2 0-.2.5-.4.4"/><path fill="#ffb81c" d="M532.6 336.4c-.3.2-.3.6-.1.8 0 .3.6.4.7.2.5-.2.7-.7.5-1-.3-.4-.7-.1-1.1 0"/><path fill="none" stroke="#0a1a1d" stroke-miterlimit="1.18" stroke-width=".22" d="M532.6 336.4c-.3.2-.3.6-.1.8 0 .3.6.4.7.2.5-.2.7-.7.5-1-.3-.4-.7-.1-1.1 0Z"/><path fill="#ffb81c" d="M526.4 332.5s3.1 1.3 5.6 1.3c0 0 .1 2.1.7 2.8 0 0-2.2-.4-3.3 0 0 0-1.3-3-3-4.2"/><path fill="none" stroke="#0a1a1d" stroke-miterlimit="1.18" stroke-width=".22" d="M526.4 332.5s3.1 1.3 5.6 1.3c0 0 .1 2.1.7 2.8 0 0-2.2-.4-3.3 0 0 0-1.3-3-3-4.2v.1Z"/><path fill="none" stroke="#0a1a1d" stroke-miterlimit="1.18" stroke-width=".22" d="M528.9 334s1.3.6 2.3.6c0 0 0 .8.2 1l-1.2.1s-.6-1.3-1.3-1.7Z"/><path fill="#ffb81c" d="m532.9 338.8.7-1.3c0-.2-.1 1.1.4 1.3.7 1 1 2.8 1 3.3-.9.3-1.6.7-2.8 0-.5-.2-.1-1 0-1.5.1-.4.2-1.3.6-1.8"/><path fill="none" stroke="#0a1a1d" stroke-miterlimit="1.18" stroke-width=".22" d="m532.9 338.8.7-1.3c0-.2-.1 1.1.4 1.3.7 1 1 2.8 1 3.3-.9.3-1.6.7-2.8 0-.5-.2-.1-1 0-1.5.1-.4.2-1.3.6-1.8Z"/><path fill="none" stroke="#0a1a1d" stroke-miterlimit="1.18" stroke-width=".22" d="M533.4 338v.7c0-.2.3.3.5.4.4.8.5 1.4.7 3m-1-2.7c.3 1.2.5 1.2.5 2.8h.2m-.6-1.7c.2.8 0 1.3.2 1.7l-.4.2"/><path fill="#faf6f5" d="M578.6 399c1.5.8 2.3 2.1 6.6 3.5 1.6 0 3.5.7 5 .6-1.9.5-1.9.7-3.4 1.1-3.3.7.5.2-2.9.5-3 .4-4.2 1.2-7 1-4-.2-6.3-1.9-7.9-3-.7-.5-5-1.6-7.4-3.8h17"/><path fill="#0859b9" d="m593.6 305.5 4-6.5c-.5-.1-.6-1.5.2-3 .2-.7 1.7-3.9 2.1-6 .7-2.3 1.3-7.4 1.3-7.4-.1-1.7-.7-3.8-1.5-5l-1 1.4c-.4.7-.1 1-1 2.2a78.1 78.1 0 0 0-4.5 13.9c-.1 1.2 0 9.2.4 10.4Zm7-10 1.7 3.4c0-.6 0-.3.6-1.5.6-1.3-.6-7.4-.6-7.4s0 3.7-1.7 5.5Zm36 60.5 13-8.5.3-5.2c0-6.4.7-9.9 0-16.6-.5-5.3-1.9-12.3-1.6-17.9l-.2-4.8-11.3 12.5c.8 9 .7 11.7 1.1 20.5 0 2-1.8 11.5-3.7 16l2.4 4Zm-10.1-17a35 35 0 0 0 1.3-6.3c.2-2.2.1-3.3 0-6.7L622 332l4.4 7Zm15.1 25.5c.8-1.2 1.4-4.8 1.6-5.4.4-1.9.4-3 .3-6.1l-6.3 4 4.4 7.5Zm25.8-5.4c-.4-5-1.5-11.7-1-16.9.2-1.3 0-2.9 0-4.4l-12.7 8.3c.5 8.5.2 10.9.2 19 0 2-1.7 10-3.9 13.7l9.3 15.5h.1c.7-.4 2-1.6 2.3-2.7.7-2.1.6-2 1.1-4.4.3-1.4.3-2.9.5-4.3.4-1.3 2.3-5.8 2.4-7.6.2-5.9 2.1-9.9 1.6-16.2Zm-29 40c-2.3 2-6.7 3.1-7.4 3.7-1.6 1-3.9 2.7-7.7 3-3 .2-4.3-.6-7.2-1l-1.5-.2-1.3-.3c-1.7-.5-1.7-.8-3.9-1.2l-3-1 2.9 1c1.7.3 3.6-.6 5.4-.6 4.5-1.4 5.1-2.9 6.6-3.5h-19.1c-.3.7.3 1.9.5 2.4.1.1.5.5.6.8.3.6.2.4.9 1l1 .8c.4.4.8.7 1.3.8 2.1.3 3.2.8 5.2 1.5 2 .5.9.4 2.4.8.7.1 2.2.7 3 .8 1.3.2 1.5.4 3 .7 3.5.8 7 .6 10.5.4 1.5-.1 5-.9 6.3-1.7 2.1-1.5 7-2.2 9.1-3.7l2-1c2-1.8 3.7-2.2 6-3.6h-15.6Zm-65-60 4.4-7-5.5-6.1c-.2 3.4-.2 4.5 0 6.7.1.8.6 4.8 1.2 6.3Zm-23 8.4 13 8.6 2.4-4c-1.9-4.6-3.8-14-3.7-16.1.4-8.8.3-11.4 1-20.4L552 303c0 1.6-.3 3.2-.2 4.8.3 5.6-1 12.6-1.6 17.9-.7 6.7 0 10.2 0 16.6l.3 5.2Zm47.4 66.5h-.1Zm0 0Zm2.2-14.7c.7 3 .9 6 1.8 9.1.5 1.5 1.3 3.9.5 5.4h-.1v.2l.1-.2h.6l.2-.1.5-.1c.1-.1.2 0 .3-.2l.6-.6h.4l.7-.2.1-.2c.7-.4 1.3-.7 1.6-1.4v-1.5c0-.4-.1-.7-.3-1l-.7-1.4c-.1-.5-.4-.9-.7-1.4 0-.3-.1-.5-.3-.7l-.4-.6a.6.6 0 0 0 0-.2c-.2 0-.3-.2-.4-.3a.9.9 0 0 1-.1-.1c-.2-.5-.4-.4-.5-.6l-.3-.3a9 9 0 0 1-1.4-2.1c-.2-.4-.2-1-.2-1.5s-2 0-2 0v-.3.3Zm-.7 43.7Zm10.6 7.2c-1.1-1.2-3.4-3.8-6.5-4.7v-.2.2c4.3.5 5.4-1.8 6.1-2.5.7-.8 2.6-9 .5-10.8-2-1.6-5.4.2-6.5.5-1.1.5-1.6 8.4-1.6 8.4l.4.6 2-8 2.9 1c1.2.3 1 4.5 1.2 5.6.1.8-.3 1.4-1.9 2.1-1.4.8-3.5 1-3.6 1-.3-1-.7-1.7-.7-1.7-.8-.9-1.4-1-1.9-.8l.4-.2c-.4-.7-1.2-5.5-2.4-7.5-1.1-2.1-3.5-2.3-5-2.1-4.4.5-2.5.7-2.5.7 1.7 0 8 10.5 8.5 11.2l.1-.7-.2 3.7-.2-1 .3-1.9s-3.4-2.4-8.2-1c0 0-2.2-7-1.3-9.2.3-1 1-1 1-1s-2.3-1.5-1.6 5c.7 6.6 2 8.4 2 8.4s3.6.2 6 0c-1.4.5-3.4 1.8-5.6 4.8-4 5.6 1.2 10.3 1.2 10.3-1.3-1.5 0-4.2 0-4.2 1 1.7 2.7 1.7 2.7 1.7-3.8-6.5 3.3-10.8 3.8-11.1.2.9 1.8.5 3.5.3.3 0 .5-.2.5-.6v.2s2.4 1.5 2.4 4.4 1.2 7.8 3.4 8.9c0 0 .5-2.1 1.3-2.5 0 0 2.2 2.7 3 2.7 0 0-1.4-2.5-1.4-3.6s-1-5.4-2.1-6.4Zm-53.1-91c.1.6.8 4.2 1.5 5.4l4.4-7.6-6.2-4c-.1 3.2-.1 4.2.2 6.1Zm-10.8 6c0-8.2-.2-10.6.3-19l-12.7-8.4c0 1.5-.3 3 0 4.4.5 5.2-.7 12-1 16.9-.5 6.3 1.5 10.3 1.6 16.2.1 1.8 2.2 6.3 2.3 7.6.4 1.4.4 3 .7 4.3.5 2.3.4 2.3 1.2 4.4a6.4 6.4 0 0 0 2.1 2.7h.1l9.3-15.5c-2-3.6-4-11.6-3.8-13.6ZM595 404l.9-.6-.2.2c-.2.1.2 0 0 .1-.2.3-.5.4-.5.7l-.4.6-.4.7-.7 1.4-.6 1.4-.4 1v1.5c.4.7 1 1 1.6 1.4.1 0 .2 0 .3.2.3.1.7 0 .9.2l.6.6c.1.2.3.2.4.3.4.2.9.2 1.3.2-1-1.5-.1-4 .3-5.5 1.1-3.2 1.3-6.4 2-9.4l-.1.3h-2v-.2h-19.3c1.6.6 2.1 2 6.6 3.4 1.8 0 3.7.9 5.5.5 1.5-.4 2.9-.7 4-1.7-1.1 1-2.6 1.4-4 1.8-2.3.5-2.3.7-4 1.2-1.6.3-1.5.4-1.4.4l-1.4.1c-3 .4-4.3 1.2-7.1 1-4-.3-6.3-2-7.8-3-.8-.6-5.1-1.7-7.4-3.8h.2-15.6c2.1 1.4 3.9 1.8 5.9 3.6l1.9 1c2.2 1.5 7 2.2 9.2 3.7 1.2.9 4.8 1.6 6.2 1.7 3.5.2 7 .4 10.6-.4 1.4-.3 1.6-.5 3-.7.7-.1 2.2-.7 3-.8 1.4-.4.3-.3 2.3-.8 2.2-.7 3-1.1 5.2-1.5.5 0 .9-.4 1.4-.8Zm1.9-1.8.5-.8.7-1.6c0 .4-.1.7-.3 1l-.1.3-.9 1.2Zm-.3.5-.2.2.2-.2Z"/><path fill="none" stroke="#012778" stroke-miterlimit="1.18" stroke-width=".29" d="M546.2 399H562m17.1 0h16.3"/><path fill="none" stroke="#0a1a1d" stroke-miterlimit="1.18" stroke-width=".29" d="M598 399c.2.6-.4 1.8-.6 2.3l-.6.8c-.3.7-.2.5-.8 1l-1 .8c-.5.4-.9.8-1.4.8-2.1.4-3 .8-5.2 1.5-2 .5-1 .4-2.4.8-.8.2-2.2.7-3 .8-1.4.3-1.5.5-3 .7-3.5.8-7 .7-10.5.4-1.5-.1-5-.8-6.3-1.7-2.2-1.5-7-2.1-9.2-3.6-.2-.2-1.6-.8-1.9-1.1-2-1.8-3.7-2.2-5.8-3.6"/><path fill="#ffb81c" stroke="#0a1a1d" stroke-miterlimit="1.18" stroke-width=".75" d="M662.2 399 600 295l-62.2 104h124.4Z"/><path fill="#faf6f5" d="m656.2 395.6-56.2-94-56.1 94h112.3Z"/><g fill="none" stroke-miterlimit="1.18" stroke-width=".29"><path stroke="#47a3d8" d="M590.2 318.1c2.7-2.4 5.9-3.4 9.7-3.4h.2c3.6 0 7.3 1 9.7 3.4"/><path stroke="#47a3d8" d="M590.2 318.2c2.6-2.5 5.9-3.3 9.7-3.4h.2c3.7 0 7.5 1 9.7 3.4"/><path stroke="#2d86cf" d="M590 318.3c2.7-2.5 6-3.4 9.9-3.4h.2c3.8 0 7.5.9 9.9 3.5"/><path stroke="#2d86cf" d="M590 318.5c2.6-2.6 6-3.5 9.9-3.5h.3c3.8 0 7.5.9 10 3.6"/><path stroke="#2d86cf" d="M590 318.6c2.5-2.6 6-3.5 10-3.6h.2c3.8 0 7.6 1 10 3.8"/><path stroke="#2d86cf" d="M589.8 318.6c2.6-2.6 6.1-3.5 10.1-3.5h.3c4 0 7.7 1 10.1 3.8"/><path stroke="#2d86cf" d="M589.8 318.8c2.5-2.6 6.1-3.7 10.1-3.7h.3c4.1.1 7.8 1.1 10.3 4"/><path stroke="#003396" d="M589 320c3-3.2 6.7-4.1 11-4.1h.3c4.8 0 8.8 1.6 11.2 5"/><path stroke="#003396" d="M589.2 319.8c2.8-3 6.5-3.9 10.8-4h.3c4.6.1 8.6 1.7 11 4.9"/><path stroke="#003396" d="M589.2 319.7c2.9-3 6.5-4 10.7-4h.3c4.5.1 8.6 1.6 11 4.8"/><path stroke="#003396" d="M589.2 319.6c2.9-3 6.5-3.9 10.7-4h.3c4.5.1 8.4 1.5 11 4.7"/><path stroke="#0859b9" d="M589.4 319.4c2.7-2.9 6.3-3.8 10.5-3.8h.2c4.5 0 8.5 1.3 11 4.5"/><path stroke="#0859b9" d="M589.4 319.3c2.7-2.9 6.4-3.8 10.5-3.8h.2c4.4 0 8.4 1.2 10.8 4.4"/><path stroke="#0859b9" d="M589.5 319.2c2.6-2.8 6.3-3.7 10.3-3.7h.3c4.3 0 8.1 1 10.7 4.2"/><path stroke="#0859b9" d="M589.6 319c2.5-2.7 6.2-3.7 10.2-3.7h.2c4.3 0 8.2 1 10.7 4.2"/><path stroke="#e30631" d="M593.8 312c1.8-1.3 3.7-1.7 6.1-1.7s4.4.4 6.2 1.6"/><path stroke="#e30631" d="M593.8 312c1.8-1.3 3.7-1.6 6.1-1.6s4.4.4 6.2 1.5"/><path stroke="#f76230" d="M593.7 312.1c1.9-1.3 3.8-1.6 6.2-1.6s4.5.3 6.4 1.5"/><path stroke="#f76230" d="M593.7 312.3c1.8-1.3 3.8-1.7 6.2-1.7s4.5.4 6.4 1.5"/><path stroke="#f76230" d="M593.6 312.4c1.8-1.3 4-1.7 6.3-1.7s4.6.4 6.5 1.6"/><path stroke="#f76230" d="M593.5 312.5c1.9-1.3 4-1.8 6.4-1.8s4.6.5 6.4 1.7"/><path stroke="#f76230" d="M593.5 312.7c1.8-1.4 4-1.9 6.4-1.9s4.7.5 6.5 1.7"/><path stroke="#f76230" d="M593.4 312.7c2-1.3 4-1.8 6.5-1.8s4.8.5 6.6 1.8"/><path stroke="#f76230" d="M593.4 312.9c1.8-1.4 4-1.9 6.5-1.9s4.8.5 6.7 1.8"/><path stroke="#f76230" d="M593.3 313c2-1.4 4.1-1.9 6.6-1.9s4.9.5 6.7 1.7"/><path stroke="#f76230" d="M593.2 313c2-1.3 4.1-1.8 6.7-1.8s4.9.6 6.8 1.8"/><path stroke="#fcd80e" d="M591.8 315.5a14 14 0 0 1 8.2-2.5c3 0 6.2.8 8.3 2.5"/><path stroke="#fcd80e" d="M592 315.4c2-1.7 5.3-2.4 8-2.4s6 .7 8.2 2.4"/><path stroke="#fcd80e" d="M592 315.2c2-1.6 5.2-2.3 8-2.3s6 .7 8 2.3"/><path stroke="#fcd80e" d="M592.1 315c2-1.5 5.2-2.2 8-2.2s5.9.7 8 2.3"/><path stroke="#fcd80e" d="M592.1 315c2-1.6 5.2-2.3 8-2.3s5.7.7 7.8 2.3"/><path stroke="#ffb81c" d="M592.2 314.8c2.1-1.6 5-2.3 7.8-2.3s5.8.7 7.9 2.4"/><path stroke="#ffb81c" d="M592.3 314.7c2-1.5 5-2.3 7.7-2.3s5.7.7 7.7 2.3"/><path stroke="#ffb81c" d="M592.4 314.5c2-1.5 4.8-2.2 7.6-2.2s5.6.7 7.6 2.2"/><path stroke="#ffb81c" d="M592.5 314.4c2-1.5 4.8-2.1 7.6-2.1s5.6.7 7.5 2.1"/><path stroke="#fd8b32" d="M592.6 314.2c1.9-1.4 4.7-2 7.4-2 2.6 0 5.5.6 7.5 2"/><path stroke="#fd8b32" d="M592.6 314.2c2-1.5 4.8-2.1 7.4-2.1s5.5.6 7.4 2"/><path stroke="#fd8b32" d="M592.7 314c2-1.5 4.6-2.1 7.3-2.1s5.3.6 7.3 2"/><path stroke="#fd8b32" d="M592.7 313.9c2-1.5 4.6-2.1 7.3-2.1s5.2.6 7.3 2"/><path stroke="#fd8b32" d="M592.8 313.7c2-1.4 4.6-2 7.2-2 2.5 0 5.2.6 7.1 2"/><path stroke="#e17000" d="M593 313.6c2-1.5 4.3-2 7-2 2.5 0 5 .5 7 2"/><path stroke="#f76230" d="M593 313.4c2-1.3 4.3-1.9 7-1.9 2.5 0 5 .5 7 2"/><path stroke="#f76230" d="M593.1 313.3c2-1.4 4.3-1.9 7-1.9 2.3 0 4.9.6 6.8 1.8"/><path stroke="#fcd80e" d="M591.5 315.7c2.2-1.6 5.5-2.5 8.5-2.5s6.3.8 8.4 2.6"/><path stroke="#fcd80e" d="M591.5 315.9c2.3-1.8 5.6-2.6 8.5-2.6s6.3 1 8.6 2.7"/><path stroke="#fcd80e" d="M591.4 316c2.4-1.8 5.6-2.6 8.6-2.6s6.4 1 8.6 2.7"/><path stroke="#fcd80e" d="M591.3 316.3c2.6-2 5.6-2.8 8.7-2.8s6.5 1 8.7 2.8"/><path stroke="#fcd80e" d="M591.2 316.3a14 14 0 0 1 8.7-2.7c3.2 0 6.6 1 8.9 2.7"/><path stroke="#24a34e" d="M591.1 316.5c2.7-2.1 5.6-2.8 8.8-2.8s6.7.9 9 2.8"/><path stroke="#24a34e" d="M591.1 316.7c2.7-2.3 5.6-2.9 8.8-2.9s6.8 1 9 2.8"/><path stroke="#24a34e" d="M591 316.9c3-2.5 5.6-3.1 9-3.1s6.7 1 9 3"/><path stroke="#24a34e" d="M590.8 317c3.2-2.5 5.7-3 9.1-3s7 1 9.1 3"/><path stroke="#00b6d9" d="M590.4 317.8c2.7-2.3 5.8-3.2 9.6-3.2 3.5 0 7.3 1 9.6 3.2"/><path stroke="#00b6d9" d="M590.5 317.8c2.7-2.4 5.8-3.4 9.5-3.4 3.5 0 7.2 1 9.6 3.3"/><path stroke="#24a34e" d="M590.5 317.6c2.8-2.3 5.8-3.2 9.5-3.2 3.5 0 7.2 1 9.5 3.1"/><path stroke="#24a34e" d="M590.5 317.5c2.9-2.4 5.8-3.2 9.5-3.2 3.4 0 7.1 1 9.4 3.1"/><path stroke="#24a34e" d="M590.5 317.5c3-2.5 5.8-3.3 9.4-3.3s7.2 1 9.4 3.2"/><path stroke="#24a34e" d="M590.6 317.4c3-2.5 5.7-3.2 9.3-3.2s7.1 1 9.4 3"/><path stroke="#24a34e" d="M590.7 317.4c3-2.6 5.7-3.2 9.2-3.2s7.1 1 9.3 3"/><path stroke="#24a34e" d="M590.7 317.3c3.1-2.6 5.7-3.2 9.2-3.2 3.3 0 7.1 1 9.3 3"/><path stroke="#e30631" d="M606 311.8c-1.7-1.2-3.7-1.6-6-1.6s-4.3.4-6.1 1.6"/><path stroke="#003396" d="M611.6 321.1c-2.3-3.5-6.6-5.1-11.5-5.1-4.5 0-8 .9-11.1 4"/><path stroke="#47a3d8" d="M609.7 317.8c-2.4-2.3-6-3.2-9.7-3.2s-7 1-9.7 3.3"/><path stroke="#0859b9" d="M610.6 319.3c-2.6-3-6.4-4-10.7-4-4 0-7.7.9-10.3 3.6"/><path stroke="#fcd80e" d="M608.4 315.7c-2-1.7-5.4-2.6-8.3-2.6s-6.3.8-8.4 2.5"/><path stroke="#f76230" d="M606.8 313c-1.9-1.1-4.3-1.8-6.8-1.8s-4.8.6-6.7 2"/><path stroke="#24a34e" d="M609.1 317c-2.1-1.9-5.8-3-9.1-3-3.5 0-6 .6-9.2 3.2"/></g><path fill="#2d86cf" d="M640.2 368.8h-80.4l-16 26.8h112.4l-16-26.8z"/><g fill="#faf6f5"><path d="M601.3 392.7a6.5 6.5 0 0 1 6.2-.7c2 .7 4 1.3 6 .8 2-.4 4-1.3 6.1-1.8 4.3-1.2 8.6.8 12.8 1.1 5.2.7 10.5-1.4 15.8-.4 1 .2 2 .6 3 1.1a15 15 0 0 0-6.2-.5c-4.2.5-8.5 1.4-12.8 1-2.1-.3-4.2-.9-6.3-1.3-2-.4-4-.6-6-.1-2 .4-4 1.3-6.2 1.6-2.2.4-4.4-.3-6.4-1.1-2-.9-4.1-.8-6 .3Zm-52.5.1c4-2 8.4-.9 12.6-.5 2 .2 4.2.2 6.3 0 3-.3 6.2-1.6 9.4-1.7 3.2-.2 6.4 1.5 9.4 2 3.2.8 6-1.7 9.2-1.3 1.2.2 2.2.8 3 1.5a8 8 0 0 0-3-.8c-2.2 0-4 1.3-6 1.7-4.5.9-8.3-2.3-12.6-2.1-3.2 0-6.2 1.2-9.4 1.4-2.1.2-4.3.1-6.4-.1-4.2-.6-8.5-1.8-12.5 0Zm1.1-2.5c2-1.6 4.8-2 7.3-1.9 3.3.5 6.4 1.8 9.7 1.6.8 0 1.7-.2 2.5-.4l-2.4 1c-3.4.6-6.7-.7-10-1.3a13 13 0 0 0-7 1Z"/><path d="M630.6 389.6c4.1 1.2 8.1-.5 12.2-1.2 2.5-.2 5.3.3 7.3 1.9a13 13 0 0 0-7.2-1c-4 .8-8.4 2.5-12.3.3Zm11.5-1.7c-3 .5-5.8-1.3-8.8-1.1-3 0-5.6 2-8.7 2.2-3.1.2-5.8-1.6-8.8-1.6-3-.2-5.7 1.7-8.7 1.7 1.4-.2 2.8-.8 4.2-1.4 1.4-.5 2.9-1 4.5-1 3-.3 5.8 1.6 8.8 1.3 2.8-.1 5.5-2.1 8.7-2 3.1 0 5.7 2 8.8 1.9Zm-14.2-3c-4.7 1-9.4-1-14.1-1-4.8 0-9 3-13.8 3.1-5 .2-9.1-2.9-13.9-3-4.7-.3-9.3 1.6-14.1.9 2.4.2 4.7-.2 7-.7 4.7-1 9.7-1.2 14.1.8a19 19 0 0 0 6.8 1.3c4.7-.1 9-3.2 13.9-2.9 4.8 0 9.3 2.2 14 1.5Zm-35 4.2c-3 .3-5.7-1.7-8.7-1.7-3-.2-5.7 1.6-8.8 1.6-3.1 0-5.7-2-8.7-2.2-2.9-.4-5.8 1.3-8.8 1.1 1.5-.1 2.9-.6 4.3-1 1.4-.5 3-1 4.5-.9 3.1 0 5.7 2 8.7 2 2.8.1 5.7-1.7 8.9-1.3 3.1.1 5.6 2.2 8.7 2.4Z"/></g><path fill="#d3d3d5" d="m596.8 324.4-1-3 .3 3.1.7-.1Zm.5 9.9-2-3.6 1.3 3.9.7-.3Zm1.5-.5-1.2-3.9.4 4 .7-.1Zm9.5-11-1.6 2.7.7.3 1-3Zm-3.6 7.9-2 3.6.7.3 1.3-4Zm-.5-9.3-1 3 .7.1.3-3Zm-9 14 .6-.5-2.7-3 2.1 3.5Zm-1.9-10-1.6-2.7 1 3 .6-.3Zm-.9 17v-.7l-4 .8h4Zm1.2-5.3-3.8-1.7 3.4 2.4.4-.7Zm-1.3 3.8.1-.8h-4l4 .8Zm2.3-5-3.3-2.4 2.8 3 .5-.5Zm-2 3.4.2-.7-4-1 3.8 1.7Zm14.8 1 .1.7 4-.8h-4Zm7.7-12.6-2.6 2 .5.5 2.1-2.5Zm-3.2-2.8-2 2.4.6.4 1.4-2.8Zm-6.6 22-.6.4 6.7 7.2-6.1-7.7ZM615 333l2.6-1.9-3 1.2.4.7Zm2 6.8 3.2-.6-3.2-.1v.8Zm-.5-3.5 2.9-1.3-3.2.6.3.7Zm-9.8 1.5 3.4-2.4-3.7 1.7.3.7Zm.5 5.5-.2.7 4 .9-3.8-1.6Zm.3-1.6v.7h4l-4-.7Zm2.5 5.4-3.3-2.3-.4.6 3.7 1.7Zm-17.4-4-3.8 1.7 4-1-.2-.6Zm18.5-5.5-4 1 .1.7 3.9-1.7Zm-7-2.8.6.5 2.1-3.5-2.7 3Zm1.8 1.6 2.8-3-3.3 2.5.5.5Zm-1.2 16.7 3 5.4-2.4-5.7-.6.3Zm-2.5.8 1.7 5.3-1-5.5-.7.1Zm-.3-5.3 2.4 6-1.7-6.2-.7.2Zm.5-18.8-1.2 4h.7l.5-4ZM598 360l.9-6h-.8l-.1 6Zm1.5-26.2h.8l-.4-4.2-.4 4.2Zm0-9.7h.8l-.4-3.1-.4 3.1Zm17.5 19.4h3.1l-3-.7-.1.7Zm-2.4 6.8 3 1.2-2.6-1.9-.4.7Zm1.6-3.3 3 .7-2.8-1.4-.2.7Zm-12.8 1.2 5.4 8.5-4.8-9-.6.5Zm-5.5.5-1.1 7.4 1.8-7.2-.7-.2Zm11.1 1.6 6.1 4.8-5.6-5.4-.5.6Zm-2 1.6 4.7 5.3-4.1-5.8-.6.5Zm-16-1.4-4 5.2 4.5-4.7-.6-.5Zm-8.3-7.8-3 .7h3.1v-.7Zm-2.2 4.9 3.2-.6-.2-.7-3 1.3Zm4.8-15.2-3-1.3 2.6 2 .4-.7Zm-2.5 6.7-3.1.1 3 .7v-.8Zm4.6-9.6-2.6-1.8 2.1 2.4.5-.6Zm2.8-2.3-2.2-2.4 1.6 2.8.6-.4Zm3.8 32.2 2.2-5.7-.7-.3-1.5 6Zm-10.5-23 .2-.8-3.1-.6 2.9 1.3Zm13 11.7-3.1 8 3.7-7.7-.7-.3Zm-1.4-.9-5.6 8.2 6.2-7.8-.6-.4Zm-2 5.1-3.2 6.4 3.9-6-.7-.4Zm0-7.5-4.1 3 4.6-2.4-.4-.6Zm1 1.3-9.4 8.7 9.8-8.1-.5-.6Z"/><path fill="#e30631" stroke="#0a1a1d" stroke-miterlimit="1.18" stroke-width=".22" d="M604.4 344.8s-1.1-.5-1.8-.5-3.4-.2-4.6.2c-.6.1-1 .7-1 .7s.7.7 2.1.9c1.6 0 2.5 0 3.3-.2 1-.3 2-1 2-1Z"/><path fill="#e30631" stroke="#0a1a1d" stroke-miterlimit="1.18" stroke-width=".22" d="M597 343.7s.2-2 1.6-4.7l-.7 1.4s-.8.4-1.3-.2c-.5-.4-.2-.6.1-1.4.4-.6.3-1.1.7-1.5.4-.4.8-.5 1.8-.5s1.6.1 2.4 1.3c.8 1 1.2 2 1.6 2.5.8 1.3.8 3 .8 3l.2 1.2s-1-.6-1.7-.6-3.4-.1-4.6.2c-.6.2-1 .7-1 .7s-.5-1 .1-1.4Z"/><path fill="none" stroke="#0a1a1d" stroke-miterlimit="1.18" stroke-width=".22" d="M597 343.7s.9-.4 3.6-.4c3.2 0 3.3.2 3.5.5"/><path fill="#fcd80e" stroke="#0a1a1d" stroke-miterlimit="1.18" stroke-width=".22" d="M599.9 355.5v-11s.3-.4 1.1 0v11s.3 8.4-.6 8.3c-1 0-.5-2-.5-8.3Z"/><path fill="#24a34e" d="M556.3 374.7c.5 0 1.8-1 2.2-1.2.5-.3.8-1.1 1.2-1.6.4-.4 1.7-1 2.3-1.4 2.5-1.6 3.7-2.5 5.5-5 2.4-3.2 5.2-6 8.8-8 1-.6 2.9-.4 4 .2.4.1 1 .5 1.3.9 1.5 1.2 3.6 2 6 2.7 2.4.7 3 2.3 4.8 4 1 .8 2 1.5 3.1 2l.4.5 3.2 2.2 5 4.8c.2.3.3.8.6 1a16 16 0 0 0 3.8 3.1c1.6.8 2.9 1.8 4.3 2.6-14.3.5-27.4-.4-41.8 0h-18.9l4-6.9"/><path fill="#24a34e" d="m612.4 381.2-3.7-2.2c-1.5-.7-2.7-1.9-3.8-3-.3-.2-.4-.8-.7-1-1.6-1.7-3.2-3.3-5-4.9-.8-.7-2-1.3-3-2.2l-.5-.5c-1.1-.5-2.2-1.2-3.1-2l-2.9-3 2-1.2c.9-.5 2.3-.4 3.4.1l1 .7c1.2 1 3 1.7 5 2.4 2 .5 2.5 1.8 4 3.2.8.6 1.6 1.2 2.5 1.6l.4.5c.9.7 1.9 1.1 2.6 1.9 1.4 1.2 2.8 2.6 4.1 4 .2 0 .3.6.5.7 1 1 2 2 3.3 2.6 1.2.7 2.3 1.5 3.5 2.1-3.3.2-6.4.2-9.6.2h-.1"/><path fill="#24a34e" d="M599.6 363.8c.5 0 1 .2 1.4.4 2 .6 2.5 1.9 4 3.2.8.7 1.6 1.3 2.5 1.7l.4.5c.9.6 1.9 1 2.6 1.8a140 140 0 0 1 4.2 4l.4.8c1 1 2.1 2 3.3 2.6l3 1.8 8-.1c-1.2-.7-2.1-1.4-3.3-2-1-.5-2-1.4-3-2.3l-.4-.8a115 115 0 0 0-3.7-3.5l-2.4-1.8-.4-.3-2.3-1.6c-1.3-1.2-1.8-2.4-3.7-2.9a16.8 16.8 0 0 1-5.4-2.7c-1-.5-2.3-.7-3.1-.2-.7.4-1.5.9-2.1 1.5"/><path fill="#24a34e" d="M612.8 366.8c.3.5.7 1 1.2 1.4l2.3 1.6.4.3c.8.6 1.6 1 2.4 1.7l3.7 3.6c.2.2.3.7.5.7.9 1 1.8 1.9 2.9 2.4l2.1 1.2h9.3c-.8-.6-1.5-1.1-2.6-1.6-.9-.5-1.5-1.2-2.3-2-.2 0-.2-.3-.4-.6l-3-2.8c-.5-.5-1.3-1-2-1.4l-.2-.3c-.7-.3-1.3-.8-1.9-1.2-1-1-1.4-2-2.8-2.4a11 11 0 0 1-3.7-1.7c-.3-.2-.5-.5-.8-.6-.7-.2-1.8-.4-2.5 0-.9.5-1.7 1-2.5 1.8"/><path fill="#24a34e" d="M637 379.2c-.5-.4-1.1-.6-1.8-1-1-.4-1.6-1.2-2.4-2-.2 0-.2-.3-.4-.6l-3-2.8c-.5-.5-1.3-1-1.9-1.4l-.3-.3c-.7-.3-1.2-.8-1.9-1.2-.9-1-1.2-1.7-2.3-2.2h.1l1.6-1c.6-.4 1.4-.2 2.2 0l.6.5c.7.6 1.7 1 3.1 1.5 1.2.3 1.5 1.2 2.5 2 .4.4 1 .8 1.5 1l.3.3c.5.4 1.2.7 1.6 1.2 1 .8 1.8 1.6 2.6 2.5l.4.5c.6.5 1.2 1.2 2 1.6l2.2 1.3-6.7.1"/><path fill="#0f7d3a" d="M643.8 379a33 33 0 0 1-.8-.6l-1.4-.8c-.6-.3-1-.7-1.5-1.1l-.5-.4-.1-.2a1 1 0 0 0-.2-.4l-2.6-2.4-1.3-1-.4-.2v-.1l-.3-.2-1.5-1-.8-.9c-.4-.5-.9-1-1.7-1.2a7.8 7.8 0 0 1-3-1.5l-.4-.2-.3-.2c-.8-.3-1.7-.5-2.4-.1-.5 0-1.2.3-1.7.5l-.1.3-.4-.1c-1.5-.6-2.8-1-3.6-1.7l-.2-.2-.7-.4c-.4-.2-1.7-.5-2.6 0-1 .5-1.7 1-2.4 1.6h-.2v.1a5.1 5.1 0 0 0-2.4-1.5 16.4 16.4 0 0 1-5.4-2.8c-.9-.4-2.3-.7-3.3-.1-.7.4-1.4.8-2 1.4-1.5-.6-2.5-1.1-3.3-1.8-.4-.3-.8-.6-1.1-.6-1.1-.6-2.7-.7-3.6-.2a20.1 20.1 0 0 0-2 1.2c-.5-.5-1-.8-2-1.1a17.1 17.1 0 0 1-7.2-3.6c-1.2-.6-3-.8-4.2-.1a27.2 27.2 0 0 0-8.9 8 15.2 15.2 0 0 1-5.5 4.9l-.8.5-1.5 1-.4.6c-.2.4-.4.7-.7.9-1.5 1-2 1.2-2 1.1l-.1.5c-.3 0-4 6.4-4.2 6.4v.4h1.3l.3.2 1.6-.1 17.4.2 15.2.1h17.7l9.2-.4v-.2H616.7l5.3-.2v-.3c.8.1 1.6 0 2.4-.2h.2l4-.1h.7l.1-.4.9.2 1.1-.6a244.3 244.3 0 0 0 8 0l1.2-.5h3l.2-.5Zm-34.2 1.1h-5.8c-.5-.1-1.3.5-1.8-.5-.4-1-1.3-1.8-2.1-2.6l-1.4-.7c-.1.4-.3 1-.2 1.4l.6 1.8-.2.6H594c-.7 0-1.2 0-1-1l-.3-.3c-.5-.5-1.2-.9-1.6-1.5l-2-3-1.2-2.4c-.7-1-1.5-2.1-2.1-3.3-.7-1.2-1.2-2.6-1.8-3.8l-1-2.4c-.2-.4-.8-.7-1.2-1 0 0-.5.5-.5.7 0 .5 0 1.1.3 1.6.4.7.8 1.4.7 2.3 0 .7.5 1.4.7 2l1 3.8 1.1 3.2 1.3 4.5v.7H584c-1.3 0-2.7-.2-4-.4h-1.2c-.4-1.1-2.2-1.6-1.2-3.2v-6.9c0-.3-.5-.6-.9-.8l-.7.4-.4 1.1-1.1 4-1 3.7-.6 1.5c0 .1-.1.2-.2.1l-.2-.1.3-3.1c0-.3.4-.5.3-.7l-.2-2.2v-.2c1.5 0 .9-1.3 1.2-2 .4-.7.4-1.7.5-2.5v-1c-.4.1-1 0-1.1.2l-1.6 2.1-1.8 2.6c-.4.7-.6 1.5-1 2.1l-2 2.5c-.2.4-.4 1-.9 1.3-.7.4-1.7.6-2.5.9l-.3-.2 1.6-4.9 1.2-2.2c.3-.4.8-.6 1-1l2-3.2 1.1-1.4 1.4-2 1.2-1.7 1-1 1.2-1.2 1.5-1.6c.1-.2.4-.4.4-.6l-.4-.7-1 .3.7-.4c1-.6 2.7-.5 3.9 0l1.2 1c1.3 1 3.2 1.8 6 2.7 1.6.5 2.3 1.3 3.2 2.3a15.5 15.5 0 0 0 3.1 2.8l1.2.7.6.4.2.3 1.8 1.2a100.8 100.8 0 0 1 5.7 5.1l.6.6.3.5c0 .2.2.4.3.5 1 1 1.9 1.9 3 2.6l.5.3.4.3h.1l.1.1 1.3.7-.3.2Zm7.6.9v-.1c0-.9-1.3-2-2.2-2.2-.6 0-1.1-.5-1.7-.8l-1.8-1a.7.7 0 0 1-.2-.2c-.4-.4-.7-.9-1.1-1.1l-2.8-1.3-1.4-1.6c-.3-.3-.8-.4-1-.6l-1.6-1.4c-.4-.3-1-.4-1.3-.7l-2-1.8-1.9-1.3-1.7-1.6-3.2-3c-.3-.2-.7-.5-1-.5-.7.1-1.4.4-2 .6l.1.4-.3-.4 1-.5.7-.5a4 4 0 0 1 3.2.2c.3 0 .7.3 1 .6 1 .9 2.7 1.6 5 2.3l2 1.4.9.7 1.1 1.1c.5.5 1.1 1 1.9 1.4l.7.5v.1l.2.2a15.8 15.8 0 0 0 1.8 1.1l.2.2.7.5 1.8 1.7.7.8 1.7 2 .3.2v.1l.4.3 2.1 1.8.2.1 2 1.4 1.3.6.2.1-4 .1Zm8.5-.7h.1c-.5-.7-.9-1.5-1.5-2-.3-.4-1-.3-1.4-.6l-3.4-2.4-2.7-1.2-.1-.1c-.6-.6-1.2-1.3-1.9-1.8-.4-.5-1-.8-1.5-1.2l-1.9-1.6-3.2-2.2a21.6 21.6 0 0 1-3.3-2.9l-1.9-2-2.3 1.2-.2.3-.4-.1 1.7-1.1c.8-.5 2-.3 3 .1l.8.7a17 17 0 0 0 4.6 2c1.3.5 1.8 1.1 2.6 2l1 1c.6.5 1.2 1 2 1.4l.5.3a15 15 0 0 0 1 .8l.6.4a59 59 0 0 1 5.3 5.2l.6.6.2.1c.5.6 1.1 1 1.8 1.4l.8.7 1.3.5h.1l.6.4-3 .1Zm6.3-.8c-.4-.6-.7-1.3-1.2-1.7-.9-.6-2-.9-2.9-1.4l-4.2-3.1-5.2-4a46.1 46.1 0 0 1-2.3-1.9c-.5-.4-.9-1.2-1.4-1.3h-.6l1.3-.9c.8-.4 1.9 0 2.3.1.2 0 .3.2.5.3l.2.2a11.1 11.1 0 0 0 4.3 2v.1c.8.9 1.6 1.7 2.5 2.4 1.2 1 2.5 1.6 3.6 2.6 1.6 1.5 3 3.2 4.6 4.6.9.7 1.7 1.5 2.7 2H632Zm8.5-.5c0-.4-.2-.7-.4-.9l-1.7-1c-1.4-1-2.8-1.7-4.1-2.7-1.6-1-3-2.4-4.6-3.6l-2-1.5-2.7-2.5c.5-.2 1.2 0 1.8.2l.3.2.3.2a8 8 0 0 0 3.2 1.5c.7.2 1 .6 1.5 1l.8 1 1.7 1v.1l.2.2.4.3a51.4 51.4 0 0 1 3.9 3.5c0 .1 0 .3.2.4l.5.4c.5.4 1 .9 1.6 1.1l1.4.9.2.1h-2.5Z"/><path fill="none" stroke="#0a1a1d" stroke-miterlimit="1.18" stroke-width=".52" d="m656.2 395.6-56.2-94-56.1 94h112.3Z"/><g fill="#e30631"><path d="m585.9 347.6.1-.2.8.6-.6.2-1-.8v-.1l3-1.4.3.5-2.6 1.2Zm2-2.7-.2.6-.6.1.2-.6v-.5a.8.8 0 0 0-.1-.3.6.6 0 0 0-.6-.2.6.6 0 0 0-.3.1l-.1.3v.7l.2.3v.2l-1.8.3-.4-1.6.5-.2.3 1.2 1.1-.2-.2.1-.1-.2-.1-.2a1.1 1.1 0 0 1 .2-1.1l.5-.3h.6c.2 0 .4.2.5.4.2.1.3.3.3.5v.6Zm-.6-4c0 .3-.1.5-.3.6h-.6l.4-.6.1-.5v-.4l-.1-.2a.3.3 0 0 0-.3 0h-.2l-.2.2-.2.4-.3.5-.3.3-.5.1a.8.8 0 0 1-.8-.6v-.5a2 2 0 0 1 .3-1h.6l-.3.5-.1.5v.4a.3.3 0 0 0 .6 0l.2-.2s0-.2.2-.3l.2-.5.4-.4h1l.3.5V341Zm-3-3.3.6-2 .5.2-.4 1.3.9.3.4-1.3.5.2-.4 1.2 1 .3.3-1.4.5.2-.5 2-3.3-1Zm1.2-3.3.3-.5 3 1.7-.3.5-3-1.7Zm1.7.4.3-.6a.7.7 0 0 0 0-.3.5.5 0 0 0-.2-.5h-.4c-.2 0-.3.2-.4.3l-.3.6-.5-.3.3-.6.5-.5.5-.1.6.1.4.4a1.2 1.2 0 0 1 0 1.2l-.4.6-.4-.3Zm0-3.3 2-2 .3.3-1.9 2-.3-.3Zm1.1-.5.4-.4 2.2 2-.4.4-2.2-2Zm2.3-2.7 2 2.8-.4.3-2-2.7.4-.4Zm1.2-.8 1.8-1 .3.5-1.3.7.4.8 1.2-.6.2.4-1.2.6.5.9 1.3-.7.2.5-1.8 1-1.6-3.1Zm3.7-1.6 1.6 1.4 1-2h.4l.7 3.4h-.6l-.3-1.5-.2-.7-.8 1.6-1.4-1.2.2.7.3 1.6-.6.1-.7-3.3.4-.1Zm4.7-.7.6.1-.3 3.4h-.5l.2-3.5Zm.3 3H601.7l.2-.4-.1-.4-.5-.1h-.7v-.6h1l.2-.3a.4.4 0 0 0-.1-.4.8.8 0 0 0-.4-.1h-.6v-.6h.6l.6.2c.2 0 .3.2.4.3v.5l-.1.5c-.1.2-.3.2-.5.3v-.2a1 1 0 0 1 .7.6v.4a1 1 0 0 1-.6.8H600.5v-.5Zm3.7-2.4.5.2-1.1 3.2-.6-.2 1.2-3.2Zm-.2 1.6.6.2 1 2.3-.7-.2-1-2.3Zm.3.6-.2-.5.5.1h.6l.2-.2v-.5a.7.7 0 0 0-.4-.2l-.7-.3.2-.5.7.3c.3 0 .4.1.6.3l.2.5v.5c0 .2-.2.3-.3.4l-.5.3-.6-.1-.3-.1Zm3.5-.7 1.7 1-.3.5-1.2-.8-.5.8 1.1.7-.3.4-1-.7-.6.8 1.2.8-.3.5-1.7-1.1 1.9-3Zm5.1 4.9c.1.2 0 .5 0 .8s-.3.5-.6.8a2 2 0 0 1-.9.4c-.3 0-.6 0-.9-.2l-.6-.5-.8-1 2.7-2.1.7 1c.2.2.4.5.4.8Zm-2.2 1.3h.6c.2 0 .4 0 .6-.2.2-.2.4-.3.4-.5l.1-.6-.2-.5-.5-.5-1.8 1.4.4.6.4.3Zm3.6.5.8 1.8-.5.3-.6-1.3-.8.3.6 1.2-.5.2-.5-1.2-1 .4.6 1.3-.4.2-.9-1.8 3.2-1.4Zm1 5.1-.2.2-.5-.8h.6l.7 1v.1l-3.4.5v-.6l2.8-.4Zm-2.6 2.1.4-.4.5-.1.5.1c.1.2.3.3.3.5.1.2.2.4.1.6l-.1.7a1 1 0 0 1-.4.4l-.5.1c-.2 0-.4 0-.5-.2l-.3-.4-.2-.7.2-.6Zm.4 1 .2.3h.5l.2-.2.1-.4v-.3l-.2-.3h-.6l-.2.2a.7.7 0 0 0 0 .4v.3Zm1.2-.8.4-.4.5-.1c.2 0 .3 0 .5.2l.3.3v1.1l-.4.4-.5.1-.5-.1c-.2-.1-.2-.3-.3-.4l-.1-.6.1-.5Zm.4 1h.7l.2-.4-.1-.4a.4.4 0 0 0-.4-.2c-.1 0-.2 0-.3.2l-.2.3.1.4Zm-.8 2.7.3.3.3.1h.4l.2-.4v-.5c0-.2-.2-.3-.3-.5l.6.2.2.5v.5c0 .2-.2.4-.3.5 0 .2-.2.3-.4.3a1 1 0 0 1-.5 0l-.4-.2-.4-.3-.3-.4-.5-.7-.1.4-.3.8-.5-.1.6-2.3 1.1 1.4.3.4Zm.3 2.5h-.3v-.9l.5.2v1.4l-3.1-1.3.2-.6 2.7 1.2Z"/></g><g fill="#faf6f5" stroke="#0a1a1d" stroke-miterlimit="1.18" stroke-width=".52"><path d="M567 418.7c.9-.4-.2-2-.2-2l3.4-.7c-1.7-.7-4.2-.5-4.2-.5-.6.5-.5 1.1-.6 1.6 0 .5 0 1.3.3 1.6.3.3 1.3 0 1.3 0Z"/><path d="M566.8 416.7s1 1.5.1 2l6-1-2.7-1.7-3.4.7Zm66.2 2c-.9-.4.2-2 .2-2l-3.4-.7c1.6-.7 4.1-.5 4.1-.5.6.5.5 1.1.6 1.6.1.5.1 1.3-.2 1.6-.4.3-1.3 0-1.3 0Z"/><path d="M633.2 416.7s-1 1.5-.2 2l-6-1 2.8-1.7 3.4.7Z"/><path d="M600 426c1.8 0 3.9 0 12.4-2 8.6-2 15.7-7.3 17.3-8 1.7-.8 4.2-.6 4.2-.6-1-.9-3.6-3.4-7.3-3.4s-2.2 0-5.4 1.4c-3.2 1.3-9.8 5.3-21 5.3-11.3 0-18.2-4-21.5-5.3-3-1.4-1.7-1.4-5.4-1.4s-6.3 2.5-7.2 3.4c0 0 2.4-.1 4.1.6 1.6.7 8.8 6 17.3 8a46.6 46.6 0 0 0 12.4 2Z"/></g><path d="m577.4 414.6.2.8c0 .3 0 .6-.2 1a2 2 0 0 1-.7.7l-.8.2c-.3 0-.6 0-.9-.2l-1.1-.7 1.7-3 1 .6.7.6Zm-1.6 2.1.6-.1.5-.5c.2-.2.1-.5.1-.7l-.1-.5-.5-.4-.6-.3-1.1 2 .6.4.5.1Zm3.5-1.3-1.6 3-.5-.2 1.6-3 .5.2Zm0 3.6a1.8 1.8 0 0 1-.3-.8 1.8 1.8 0 0 1 .7-1.7c.2-.2.5-.3.8-.3l1 .1.7.6.3.9-.1 1-.6.6-.8.4a2 2 0 0 1-1.7-.8Zm1.6.2.6-.2.4-.5v-.7l-.1-.6a1.3 1.3 0 0 0-1.2-.4c-.2 0-.4 0-.5.2l-.4.5-.2.6.3.6.5.4h.6Zm1.9 1.4-.4-.4.2-.6.4.5c.1.1.3.3.5.3l.3.1h.3l.1-.2v-.3l-.1-.3-.3-.2-.4-.5a1 1 0 0 1-.2-.4.8.8 0 0 1 0-.5c0-.2.2-.3.3-.4l.5-.2.5.1c.2 0 .4.2.5.3l.4.4-.2.5a2.4 2.4 0 0 0-.8-.7.6.6 0 0 0-.4 0l-.3.2v.3l.2.2.3.3.4.4.2.4v.6c0 .2-.2.3-.3.4a1 1 0 0 1-.5.2l-.7-.1c-.2 0-.3-.2-.5-.3Zm4.5-2 .6.2-.7 2.1v.6c.2.2.3.3.5.3h.6c.2 0 .3-.3.4-.5l.6-2.1.6.2-.7 2c0 .3-.1.5-.3.7l-.6.3h-.7c-.2 0-.5-.2-.6-.4-.2-.1-.3-.3-.4-.6v-.7l.7-2Zm3.7 1 1.4 2.8.2-.8.3-1.5h.6l-.8 3.5-.4-.1-1.4-2.8-.2.8-.3 1.6-.6-.2.7-3.3h.5Zm3.9.8-.6 3.4h-.6l.6-3.5h.6Zm1.1 3.5-.6-.7a1.8 1.8 0 0 1 .9-2.4l1-.2.8.4c.3.2.5.4.6.7l.1.9a1.7 1.7 0 0 1-1 1.4 1.9 1.9 0 0 1-1.8-.1Zm1.6-.4c.2 0 .3-.2.4-.4l.2-.6v-.6l-.5-.5-.5-.2h-.7l-.4.5c-.2.2-.2.4-.2.6v.6l.4.5.6.2h.7Zm2.3-2.7 2 2.4V420.8h.6v3.5h-.4l-2-2.4V424.3h-.6v-3.5h.4Zm5-.2.3 2.9 1.4-.2.1.6-2 .2-.4-3.4.6-.1Zm2.4-.4.6 3.5h-.6l-.6-3.4h.6Zm.8-.1.6-.2.8 3.4-.6.2-.8-3.4Zm1.2 2.7.7-.1c.2 0 .3-.2.4-.3.1 0 .1-.2 0-.4a.4.4 0 0 0-.2-.3.7.7 0 0 0-.4 0l-.8.2v-.5l.5-.1c.2 0 .3-.2.4-.3v-.3a.4.4 0 0 0-.2-.3.7.7 0 0 0-.4 0h-.6l-.1-.4.6-.2h.6l.5.2.2.4v.6l-.4.4v-.1h.4a.9.9 0 0 1 .6.7 1 1 0 0 1-.4 1l-.6.2-.7.2-.1-.6Zm1.8-3.4 2-.6v.5l-1.3.4.2.9 1.3-.4.2.5-1.3.4.3 1 1.4-.5.1.5-2 .6-1-3.3Zm2.5-.8.6-.2 1.2 3.3-.6.2-1.2-3.3Zm1.5 1.6-.5-.2.5-.2.3-.2.2-.3v-.3a.5.5 0 0 0-.3-.3.7.7 0 0 0-.5 0l-.6.3-.2-.5.7-.3h.6a1 1 0 0 1 .8.6v.5a1 1 0 0 1-.2.5c-.1.2-.3.3-.5.3l-.3.1Zm-.6-.2.6-.2 2.2 1.2-.7.2-2.1-1.2Zm1.6-2.3 2.6-1.1.2.5-2.6 1-.2-.4Zm1.2 0 .6-.3 1.2 2.8-.6.3-1.2-2.8Zm3-2 3 2.5-.6.3-.8-.7-.1-.2-1.3-1v1.9l.1 1-.6.3-.1-3.8.4-.2Zm1.7 1.6.2.5-1.8.9-.3-.5 1.9-.9Zm2-3.3.8.1.7.7c.2.3.3.6.3 1a1.7 1.7 0 0 1-.9 1.4l-1.1.7-1.8-3 1-.6c.3-.2.6-.3 1-.3Zm1 2.3.2-.5-.2-.7-.5-.5a1 1 0 0 0-.6 0h-.5l-.6.4 1.2 2.1.6-.3.4-.5Z"/><path fill="#012778" d="M561.2 319.1c.5.2 1.1.3 1.5 0v-.4c-.5 0-3.5-2-5.7-6-2.5-4.9-3.8-7.1-3.8-7.1l-.3.1v.1l-.2.2c.2.5 4.7 11.6 8.5 13.1Zm1.6 38.1v-.2h-.2l-.1-.2h-.1c0-.1 0 0 0 0v-.2l-5.8-.4v1.3c.1.2 0 .2.2.2v.6l.1.3v.7l.2.2 5.3-1.7.1-.2h.1v-.3h.2Zm-.2-8.5c.2.3 1 2.4.9 3.3-3.1.2-11.4-4.4-12.3-5l-.2.1v.2h-.1l-.2.3.3.2c3.6 2.4 4.7 3.2 12.4 8h.2l2.4-3.8-1-2.2-.3-1h-.5c-.1-.1 0 0-.1 0l-.5-.1h-.3l-.6-.2-.1.2Zm.8 4.9c-.3-.1-.2-.1 0 0Zm-.2-1.3h.3-.3Zm1-2.4-.2.1v.1l.2-.2Zm-1-1.2v.1ZM546 362.3v-.2l.1-.2v-.1c-3-1.8-5.8-5-8-9.3-.7-1.2-1.9-3.7-3-8.2-.2-.3 0-.3-.3-.2l-.2-.1v.1h-.1s.3 3.7 1.9 7.7c1.4 3.7 4.3 8.5 9.6 10.5Zm8.5-43c1.8 5.9 4.2 8.8 7 8.8h.5v-.1c0-.1 0 0 0 0v-.4h.1v-.1l.1-.1v-.2c-3.3-1.8-5.8-6.7-6.7-9a52 52 0 0 1-2.6-8.7h-.2V309.9l-.1.1v.2c0 .1.5 4.8 1.9 9.3Zm-20 21c0 .2 3.7 11.8 11.1 14.1l.3.1v-.5h-.2c-1-.7-4-3.8-6.2-6.8a31.9 31.9 0 0 1-4.5-7.4l-.3.1v.2h-.2v.1Zm121.3 29.2c-.1.2-.3.2-.4.3v.2l.1.3h.1c4.7-1.2 8-7 8.6-8.4.6-1.4 2-11 2.2-11.5h-.1v-.1H665.9c-.1 0-2.2 9.4-3 10.8-.5 1.2-2.1 4.7-7.2 8.5Zm-104.2-31.4c1.2 2.4 5 6.1 9 8.5H561.5l.2-.2c-1.8-1.4-3.6-3.6-4.9-5.1-1.4-1.7-2-2.1-3.2-4.4-1.4-2.2-2.7-5.4-2.7-5.5l-.3.2V332.5h-.2c0 .2.3 4 1.2 5.6Zm96-28.6h-.3a50 50 0 0 1-2.6 8.6c-.9 2.4-3.4 7.3-6.7 9v.4l.1.1v.3h.1v.2h.5c2.8 0 5.2-3 7-8.8 1.5-4.5 2-9 2-9.1V309.9h-.1v-.4Zm-10.2 9.6c.4.3 1 .2 1.5 0 3.8-1.6 8.3-12.7 8.5-13.1-.2-.2-.2-.1-.1-.2l-.2-.1-.2-.2-3.8 7.1c-2.2 4-5.2 6-5.6 6l-.1.3v.1Zm6 22.2c-1.3 1.5-3 3.7-4.9 5l.2.3H639.6c4-2.3 7.8-6 9-8.5 1-1.6 1.2-5.4 1.2-5.5h-.1V332.2c-.1-.1-.2 0-.1-.2v-.5l-.3-.1s-1.3 3.2-2.6 5.4c-1.4 2.3-1.9 2.7-3.3 4.4Zm-6.7 14.6 12.4-8.1.3-.2-.1-.3h-.1l-.1-.2-.2-.2c-.9.7-9.2 5.3-12.3 5 0-.8.8-2.9 1-3.2l-.2-.2-.6.2h-.3c-.3.2-.4.2-.5 0h-.1v.1h-.5l-.4 1-.9 2.2 2.4 3.8h.2Zm0-2.3c.2-.1.3-.1 0 0Zm.2-1.3h-.3.3Zm0-3.5Zm-.8 1.2h-.2l.2.1Zm18 12 .2.3c5.2-2 8-6.8 9.5-10.5 1.6-4 2-7.6 2-7.6h-.1v-.2l-.2.1c-.3 0-.2 0-.3.2-1.2 4.5-2.3 7-3 8.3-2.3 4.2-5 7.4-8 9.2v.2Zm.2-7.6v.1h.3c7.4-2.4 11.2-14 11-14.3s0-.1 0-.1h-.1v-.2l-.3-.1s-1.4 3.5-4.5 7.4c-2.3 3-5.2 6-6.2 6.7l-.3.1v.1s0 .1 0 0V354.5Zm-10.8 1.8-5.7.4v.1h-.1v.1c-.2 0-.2 0-.2.2h-.2v.2s.1 0 0 .1c.2 0 .2 0 .2.2.2.1.2 0 .1.2l5.4 1.8v-.3l.2-.2h-.1v-.4l.1-.3v-.6c.2 0 .1 0 .2-.2V356.2Zm-5.8 48.7c-.3.1-6.8 1.4-8.4 1l-3.8-.4v.2h-.5l-.2-.1h-.3v.1h-.6v.1h-.2v.3l2.9.7 3.4.2 5.6-.8v-.1l.6-.1v-.2h.3v-.1l.4-.1c.3-.1.3 0 .2-.2l.7-.2v-.3Zm-24.9.3v-.2h-.3v-.2a93 93 0 0 1-6.6-2.6l-1.7-1.4c-.3-.5-.5-1.8-.5-1.8h-.3v.1h-.7c0 .1.4 1.8.9 2.5a7 7 0 0 0 2.5 1.9l6.2 2.3h1.1l.1-.2-.3-.1c0-.3 0-.2-.4-.3Zm-13.3-6.1h-.6v.1h-.2s-1.1 4.5-2 6c-1.3 2-3.5 3.8-1.7 7.4H595.2l.1.1c.3-.1.2 0 .3.2l.2.2.2.2.2-.1c-1.8-3.7.3-5.6 1.6-7.5.7-1.3 1.9-6.4 2-6.6h-.4Zm4.4 14 .3.2s0-.3.1-.2c0 0 .1-.3.2-.2.1-.2 0-.3.3-.2l.1-.1h.2c1.9-3.6-.3-5.3-1.6-7.3-.9-1.6-2-6.1-2-6.1h-.2v-.2H600.5l-.3.1c0 .2 1.2 5.3 2 6.6 1.2 1.9 3.3 3.8 1.5 7.5Zm17-14.3-13 .2-3.2-.2v.2l-.1.3v.1c.1 0 3.5 1 4.5 1 2.7 0 10.9-.8 11.2-.8l.2-.1h.1v-.2c.2 0 .2 0 .2-.2v-.3Zm45.1-23.8h-.3a1.9 1.9 0 0 1 0 .4c-.4 1-1.8 2.3-2.6 3.4-.7 1-1.4 1.8-2.3 2.7-.4.3-1.1.8-1.7 1-1 .4-3.5-1-5.5-2.4l-3.2-1.7v.3h-.2c0 .2 1.2 2 2.5 4 6.7 11 6.8 11 7 11 .7-.4 1.9-1.7 2.3-2.7.7-2.2.6-2.3 1-4.3.4-1.4.4-2.7.8-4 .2-1.2 1.3-3.6 1.7-5l.6-2.5v-.2Zm-12.3 23.8-12.4.2-3.2-.2v.6l3.6 1c2.6.1 10.8-.8 11.4-.8l.1-.1h.2c0-.2 0-.2.2-.2v-.4Zm-26.1-66v-1.5c.2 0 .1 0 .1-.2h.2v-.2l-.1-.3v-.4c.1 0 0 0 0-.2.1 0 0 0 0-.2h.2l-.1-.3-5.3 2v.1h-.1l-.1.2v.1h-.2v.4h.2l.1.1v.2l.1.1c0 .1 0 0 0 0h.7l4.3.4v-.3Zm-77.6 46-.1-.1-.1-.3c-1 .4-2 1-3.2 1.7-2 1.3-4.4 2.8-5.6 2.4a12 12 0 0 1-1.6-1l-2.4-2.7c-.7-1-2.1-2.5-2.4-3.4a1.9 1.9 0 0 1-.1-.4h-.3v.1h-.1c0 1 .3 1.6.6 2.5.4 1.4 1.4 3.8 1.7 5 .3 1.3.3 2.7.7 4 .5 2 .3 2.1 1 4.4.5 1 1.7 2.3 2.4 2.7.2 0 .2 0 7-11l2.5-4ZM562 399v-.2l-3.3.2-12.3-.2v.3h.1v.2l.2.1h.2c.1 0 0 0 0 .2.7 0 8.9.9 11.5.7l3.7-1v-.3Zm14.2 6.8v-.2l-.3.1h-.2v-.1h-1.1v-.1c-1 0-2.4.2-3.8.4-1.6.4-8.2-1-8.5-1v.3l.7.1c-.1.3 0 .2.2.2l.4.1v.2h.3v.1l.6.2v.1l5.6.7 3.4-.1 3-.7-.2-.3Zm14.8-5.4c1 0 4.3-1 4.5-1s0-.4 0-.4l-.1-.2-3.3.2-12.9-.2v.3c0 .2 0 .2.3.2h.1v.2h.1c.4.1 8.6.8 11.3.8Zm-13.3-68.5v-.1c-.1 0-.1 0 0-.1l-.3-.1-5.2-2.1V330.4c.1 0 0 0 0 .2v.4h.2v1.6c.2 0 .1 0 .1.1v.3l4.3-.3h.7l.1-.1v-.2c.1 0 0 0 0-.1h.2l.1-.3-.2-.1Zm18.8 69.7c.6-.8 1-2.4 1-2.4l-.3-.1h-.5l-.3-.1s-.2 1.3-.5 1.7l-1.7 1.5a93 93 0 0 1-6.7 2.6l-.2.2v.1c-.4.2-.4 0-.3.3l-.4.2.1.2h.7l.4-.1 6.3-2.2a7 7 0 0 0 2.4-2Zm-52-31.4.2-.2v-.1l-.4-.4c-5-3.7-6.7-7.2-7.3-8.4a122 122 0 0 1-2.8-11l-.1.1H533.8v.1h-.1c0 .6 1.6 10.1 2.2 11.6.5 1.4 3.9 7.2 8.6 8.3Zm54.8 72.8s-4.5-2.1-5-2.6c-.6-.6-1.6-6.9-1-6.5 0 0-1.8-2-2.5-2-.3 0-1.6.8-1.2 3 .3 2.4.9 5.8 1.5 7.1 0 0 3.5-1.3 8.2 1Zm6.7-8.8-1.7-.6-2 8 .5 1.7s.7-.1 1-1c.4-1 1.5-7.8 2.2-8.1Zm-1.8-.6Zm-5 10s-5.7 1-7 .7c0 0 1.7.4 7-.1v-.5Zm-.2 1.7c-5.3 2.6-4.9 4.4-4.9 4.4 1.4-2.8 5.1-4 5.1-4l-.2-.4Zm4.4.5v.6a35 35 0 0 1 3.2 1.9c-.6-1.5-3.2-2.5-3.2-2.5Zm5.8-12.2c-.8 0-1.2 1.9-1.1 2.7l.3 3.8s.7 3 1.1 2.8c.4-.2 1.4-4.8 1.5-7 0-2-1-2.5-1.7-2.3Zm-5.8 12.2Z"/><path fill="#ffb81c" d="m555.6 458.4.7 2.7-2.2-1a3 3 0 0 0-1.2-.4c-.4 0-.7 0-1 .2-.4.2-.6.4-.8.8-.3.5-.3 1 0 1.5.2.5.6 1 1.2 1.2l2.5 1.2-1 2.4-3-1.4c-.8-.4-1.5-1-2-1.6s-.7-1.3-.8-2c0-.8.1-1.5.4-2.2.4-.8.9-1.3 1.5-1.8a4.4 4.4 0 0 1 2.2-.7 5 5 0 0 1 2.5.6l1 .5Zm1 2.8-2.9-1.4-2.2-9.4 3 1.5 2.1 9.3Zm-1.2 6.6-2.6-1.3L559 454l2.6 1.3-6 12.5Zm-13-6.7-7-4.6 1.4-2.1 4.6 3 1.7-2.6-4.3-2.8 1.4-2 4.2 2.7 1.8-2.7-4.6-3 1.4-2.1 7 4.5-7.6 11.7Zm-7.9-13.6-1.8-1.5-1.2-.6a2 2 0 0 0-1 0 2 2 0 0 0-1 .6c-.4.5-.5 1-.4 1.6.1.5.5 1 1.1 1.6l1.8 1.4-1.7 2-1.9-1.6c-.8-.6-1.4-1.4-1.8-2.1s-.4-1.6-.3-2.4c0-.8.4-1.5 1-2.2.6-.7 1.3-1.2 2-1.5s1.6-.3 2.5-.1c.8.2 1.6.6 2.4 1.2l2 1.6-1.7 2Zm-2.4 6.6-2.3-1.9 9-10.7 2.1 1.9-8.8 10.7Zm-15.6-12.6 1.4 1.6-4 .5-1.9-2h4.5Zm5.3 3.8-2-2.1 6.5-6c.6-.6.9-1.2 1-2 0-.6-.3-1.3-.9-1.8-.5-.6-1.2-1-1.8-1-.7 0-1.4.3-2 .8l-6.4 6-2-2 6.3-6c.8-.7 1.7-1.2 2.6-1.4.9-.2 1.8-.2 2.7.1 1 .3 1.7.9 2.5 1.7a6 6 0 0 1 1.5 2.6c.2 1 .2 1.8 0 2.7s-.9 1.8-1.7 2.5l-6.3 5.9Zm-2.6-20.5-1.7-2.3c-.3-.5-.7-.8-1.2-1-.5 0-1 0-1.4.4-.4.3-.6.7-.6 1.2s.1 1 .5 1.5l1.6 2.3-1.8 1.3-1.4-2c-.3-.4-.7-.7-1.1-.8-.4 0-.9 0-1.2.3-.5.3-.7.7-.7 1.1s.2 1 .5 1.4l1.3 1.8-2 1.5-1.3-1.8c-.6-.8-1-1.6-1.1-2.3-.2-.8-.2-1.5 0-2.1a3 3 0 0 1 1.2-1.6c.6-.4 1.4-.6 2.2-.6.8 0 1.5.3 2.1.7l-.6.4a5 5 0 0 1-.4-1.8c0-.6 0-1.2.3-1.7s.6-1 1.1-1.3c.6-.4 1.3-.7 2-.7s1.5.2 2.2.6 1.3 1 1.8 1.7l1.7 2.4-2 1.4Zm-7.8 8.7-1.7-2.3 11.4-8 1.6 2.3-11.3 8M502 419l10-5.4-2.7-4.7 2.3-1.3 4 7.3-12.3 6.7-1.3-2.6Zm-5-10.2 12.7-5.6 1.2 2.6-12.8 5.6-1.1-2.6Zm9.7-11.2a7 7 0 0 1-4.8 5.5 7.1 7.1 0 0 1-6.9-1.5c-1-.9-1.6-2-2-3.4a9.2 9.2 0 0 1-.3-4.7l2.8-.9c-.2.7-.4 1.5-.4 2.4 0 .8 0 1.6.3 2.3a5 5 0 0 0 3.3 3.2 4 4 0 0 0 2.3 0c.8-.3 1.4-.8 2-1.4.5-.6.9-1.3 1-2.2a5 5 0 0 0-.1-2.5 6 6 0 0 0-1.2-2 6.8 6.8 0 0 0-1.8-1.6l3-1a9.4 9.4 0 0 1 2.5 3.9 8 8 0 0 1 .3 4Zm-17.3-15.3 12.7-8.5.5 3-3.3 2.2-1 .4-5 3.3v.2l5.9 1.5h1l3.8 1 .5 3.1-14.7-4-.4-2.2Zm8-4.4 2.3-.4 1.4 8.2-2.4.4-1.4-8.2Zm-8.2-21.9a6 6 0 0 1 2.4-2.5c1.1-.6 2.4-.8 3.8-.8 1.5.1 2.8.5 3.8 1.2s1.8 1.6 2.3 2.7c.5 1.1.7 2.3.6 3.5l-.3 5.3-13.9-.7.3-5c0-1.4.4-2.6 1-3.7Zm10 2c-.3-.7-.8-1.2-1.5-1.6-.6-.5-1.4-.7-2.4-.8s-1.8.1-2.5.5c-.6.3-1.1.8-1.5 1.4s-.5 1.3-.5 2l-.1 2.4 8.7.5.1-2.5a4 4 0 0 0-.3-2Zm-10-9.5 1.5-8.2 2.6.5-1 5.3 3 .6.9-5 2.4.4-1 5 3.3.6 1-5.3 2.5.4-1.5 8.2-13.7-2.5Zm4.8-19.6 3-7.8 2.3 1-1.9 5 2.8 1 1.8-4.7 2.3 1-1.8 4.6 3.1 1.2 2-5 2.3.9-3 7.7-13-5m6-14 10.2 5.1 2.4-4.8 2.3 1.2-3.8 7.4-12.4-6.3 1.4-2.6Zm20.5-7.4c-.7.5-1.4 1-2.2 1.3l-2.3-1.8c.9-.3 1.7-.7 2.4-1.2s1.3-1 1.7-1.4c.3-.4.5-.7.5-1 .1-.4.2-.8 0-1a1.1 1.1 0 0 0-1.2-1l-1 .3-1.3.8c-.8.5-1.6.8-2.1 1-.6.3-1.3.4-2 .4s-1.3-.2-1.9-.7c-.6-.4-1-1-1.2-1.7-.2-.6-.3-1.3-.1-2s.5-1.5 1-2.2a8.5 8.5 0 0 1 3.5-2.7l2.2 1.6-2 1.1a6 6 0 0 0-1.4 1.4c-.4.4-.6.9-.6 1.3s.1.8.4 1c.3.2.5.3.8.2l1-.3 1.3-.7 2.2-1.2c.5-.2 1.2-.3 1.9-.3a3.6 3.6 0 0 1 3.2 2.5c.2.6.3 1.4.1 2.2-.1.8-.5 1.6-1.1 2.4-.5.6-1 1.1-1.8 1.7Zm1-22 14.3 5.2-2.1 2.2-3.7-1.4-.9-.5-5.6-2.1h-.1l2 5.7.7.9 1.4 3.7-2.2 2.1L520 287l1.5-1.5Zm8.2 3.8 1.7 1.7-5.9 5.9-1.7-1.7 5.9-6m1.2-12 7 8.9 4.2-3.4 1.6 2-6.5 5.2-8.6-11 2.3-1.8Zm4.4-3.6 2.6-1.6 5.4 3.7 3.5 2.5-.5-4.3-1-6.5 2.7-1.7 2 15.2-2 1.2-12.7-8.5Zm21-11.5 11.4 10.2-2.8 1.2-2.9-2.6-.6-.9-4.5-4h-.1l-.1 6 .2 1.1v4l-2.8 1.2.3-15.4 2-.8Zm6.2 6.5 1 2.3-7.6 3.3-1-2.2 7.6-3.4Zm11.7-11.7c1.2.2 2.3.8 3.2 1.6s1.5 2 1.9 3.4c.4 1.4.4 2.7 0 4s-1 2.1-1.8 3c-1 .7-2 1.3-3.2 1.6l-5.1 1.4-3.6-13.5 4.9-1.3c1.3-.3 2.5-.4 3.7-.2Zm1.3 10.1c.5-.4.8-1 1-1.8.3-.8.3-1.6 0-2.6s-.7-1.6-1.2-2.2-1.2-.8-1.8-1a4.6 4.6 0 0 0-2 .2l-2.5.6 2.3 8.5 2.4-.7c.7-.2 1.2-.5 1.8-1Zm10.4.3a7.2 7.2 0 0 1-3-2.3 6.8 6.8 0 0 1-1.3-3.5c-.1-1.3 0-2.5.6-3.7a7.4 7.4 0 0 1 6-4.2 7.4 7.4 0 0 1 6.6 2.9c.8 1 1.2 2.2 1.4 3.5.1 1.3 0 2.5-.6 3.6a7.3 7.3 0 0 1-6 4.2c-1.3.1-2.5 0-3.7-.6Zm5.6-3c.7-.4 1.2-1 1.5-1.7.3-.7.4-1.5.3-2.3 0-.9-.3-1.6-.8-2.3-.5-.6-1-1-1.8-1.4s-1.5-.4-2.3-.3c-.8 0-1.5.3-2.1.8-.7.4-1.2 1-1.5 1.7a4.7 4.7 0 0 0 .5 4.6c.5.6 1 1.1 1.8 1.4s1.5.5 2.3.4c.8-.1 1.5-.4 2.2-.8Zm8-11.2h3l-.6 14-2.9-.1.6-14Zm1.6 6.5 3.2.1 6 7.7-3.5-.1-5.7-7.7Zm2.1 2.2-1.7-2.2h2.4c.5.1.9 0 1.3-.1l.9-.6c.2-.3.3-.7.3-1 0-.6-.1-1-.5-1.5s-1-.5-1.7-.6h-2.8l.1-2.7 3.1.2c1 0 1.8.2 2.5.6.7.4 1.3 1 1.6 1.6.4.6.6 1.3.5 2.1a4.2 4.2 0 0 1-2.3 3.7c-.7.4-1.6.5-2.5.5h-1.2Zm18.7-6.6 8 2-.5 2.4-5.3-1.2-.7 3 5 1.1-.6 2.4-5-1.1-.7 3.1 5.3 1.3-.6 2.5-8-2 3-13.5ZM636 259l3.8 11h.1l1.1-3 2-5.3 2.7 1-5 13-1.9-.7-3.7-11h-.1l-1.1 3-2 5.3-2.7-1 5-13 1.8.7m23.3 11.2-6 9.5 4.5 3-1.4 2.1-7-4.4 7.4-11.8 2.5 1.6Zm13.2 9.6-4 14.8-2.4-2 1-3.7.6-1 1.6-5.8h-.1l-5.5 2.5-.8.7-3.5 1.7-2.4-2 13.8-6.6 1.7 1.4Zm-3.1 8.5-1.6 1.9-6.3-5.4 1.5-1.8 6.4 5.3Zm20.1 9.6-7.2 13.5-1.8-2.4 1.8-3.4.7-.9 2.9-5.3h-.1l-5.9 1.2-1 .5-3.8 1-1.8-2.5 15-3.4 1.2 1.7Zm-4.9 7.6-2 1.5-5-6.6 2-1.5 5 6.6Zm11.7 2.4-3.2 7.6 8.1 1.6 1 1.7-12.3 6.6-1.3-2.6 5.1-2.7 2.6-1.3v-.1l-6.7-1.2v-.2l2.6-6.2-2.5 1.3-5.2 2.8-1.4-2.6 12.3-6.5 1 1.7ZM704 323l2.8 7.8-2.4.9-1.9-5.1-2.8 1 1.7 4.8-2.3.8-1.7-4.8-3.1 1.2 1.9 5-2.5 1-2.8-7.9 13-4.7Zm3 4.2-.8-2 4 1.1.9 2.6-4.1-1.7Zm1 7.4.6 2.8-13.5 3.1-.7-2.8 13.6-3.1Zm-5.9 3.2.7 3.1-5.8 7.7-.8-3.3 6-7.5Zm-1.6 2.6 1.7-2.3.5 2.4.5 1.1c.2.3.6.6.9.7.3.2.7.2 1 .1.6 0 1-.4 1.3-.9.2-.5.3-1 .1-1.8l-.6-2.7 2.5-.6.7 3c.2 1 .2 1.9 0 2.7a4 4 0 0 1-3 3c-.8.2-1.5.1-2.2 0-.8-.3-1.4-.7-2-1.3s-.9-1.4-1.1-2.3l-.3-1.1m10.7 11.3-13.8 1.8-.3-2.9 13.8-1.8.4 2.9Zm-12.5 8a6.8 6.8 0 0 1 6.1-4 7 7 0 0 1 6.3 3.4c.7 1.1 1 2.4 1 3.8a9.3 9.3 0 0 1-1 4.6h-3a7.2 7.2 0 0 0 1.4-4.4 5 5 0 0 0-.6-2.2c-.4-.8-1-1.3-1.6-1.7a4 4 0 0 0-2.3-.6c-.8 0-1.6.2-2.2.7-.7.4-1.3 1-1.7 1.8-.4.7-.6 1.6-.5 2.5a6.6 6.6 0 0 0 1.8 4.3h-3.1l-1-2-.4-2.4c0-1.4.3-2.7.8-3.8Zm12.4 19.4-14.5 4.7.3-3 3.7-1.2h1.1l5.7-1.9v-.1l-5-3.2-1.1-.3-3.4-2 .4-3 13 8-.2 2Zm-8.8 2-2.4-.2 1-8.2 2.4.2-1 8.3Zm-8 13.8a6.9 6.9 0 0 1 7-1.5 7.2 7.2 0 0 1 3.1 2c.8 1 1.4 2 1.6 3.4.2 1.2.1 2.6-.3 4a9.3 9.3 0 0 1-2.6 3.9l-3-1a7 7 0 0 0 1.9-1.7c.5-.7.9-1.3 1.1-2a4.9 4.9 0 0 0-.7-4.5 4.2 4.2 0 0 0-4.3-1.5c-.8.2-1.5.5-2.1 1a4.8 4.8 0 0 0-1.4 2.2 6 6 0 0 0-.3 2.3c0 .8.2 1.6.5 2.3l-3-1c-.1-.7-.2-1.4-.1-2.3s.2-1.6.5-2.3a8 8 0 0 1 2-3.3Zm8 16-3.7 7.4-2.3-1.1 2.4-4.9-2.8-1.3-2.2 4.5-2.2-1 2.2-4.6-2.9-1.5-2.4 5-2.3-1.2 3.7-7.5 12.5 6.2Zm-7 13-11.6 1.2 2.7 1.8 4.7 3.2-1.6 2.4-11.5-7.8 1.1-1.7 11.6-1.2-2.7-1.8-4.7-3.2 1.6-2.4 11.6 7.8-1.2 1.7m-12.7 13.4-2 2.2-8.7-8 2-2 8.7 7.8Zm4.5-1.7-7.7 8.5-2-1.7 7.8-8.6 1.9 1.8Zm-16 7.3-2.4 2.1-9.6-1.6 2.6-2.2 9.4 1.7Zm5.6 3.8-2.2 1.8-9-10.5 2.1-2 9 10.7Zm-8.6-4 2.8.5-1.9 1.6c-.3.2-.6.6-.8 1s-.2.7-.2 1c0 .4.1.7.4 1 .4.5.8.7 1.4.7.6 0 1.1-.3 1.6-.7l2.1-1.8 1.7 2-2.4 2c-.7.6-1.4 1-2.2 1.2a4 4 0 0 1-4-1.3 4.3 4.3 0 0 1-.9-4.3c.3-.8.8-1.5 1.5-2l.9-.9Zm-8.6 17-12.9-8.2 2.6-1.6 3.3 2 .7.8 5 3.3h.2l-.8-6-.4-1-.6-3.9 2.6-1.6 2.1 15.1-1.8 1.2Zm-7.2-5.4-1.3-2 7-4.6 1.3 2-7 4.6m-3.9 11.6-4.8-10.3-4.9 2.3-1-2.3 7.4-3.5 6 12.6-2.7 1.2Z"/></svg>