<svg xmlns="http://www.w3.org/2000/svg" xmlns:xlink="http://www.w3.org/1999/xlink" width="900" height="600"><path fill="#0859b9" d="M0 0h900v600H0z"/><path fill="#fcd80e" d="M0 112.5h900v375H0z"/><path fill="#c40f38" d="M0 150h900v300H0z"/><g fill="#fcd80e" stroke="#0a1a1d" stroke-width="1.008" transform="scale(1.5)"><g id="a"><path fill="#faf6f5" d="m492.9 154.3-24.3 8.6 24.2 8.5 24.3-8.5z"/><rect width="357.13" height="5.714" x="122.85" y="160" rx="3.106" ry="2.857"/><path d="M471.4 165.7c1.5 0 2.9-1.4 2.9-2.8s-1.4-2.9-2.9-2.9m-2.8 5.7c1.4 0 2.8-1.4 2.8-2.8s-1.4-2.9-2.8-2.9m-2.9 5.7c1.4 0 2.9-1.4 2.9-2.8s-1.5-2.9-2.9-2.9"/></g><use xlink:href="#a" width="100%" height="100%" x="-23.27" y="17.15"/><rect width="485.7" height="8.571" x="59.812" y="195.72" stroke-width="1.08" rx="4.224" ry="4.286"/></g><path fill="#faf6f5" stroke="#0a1a1d" stroke-width="1.512" d="M664.3 300c-42.9 42.9-100 128.6-214.3 128.6-100 0-171.4-85.7-214.3-128.6C278.6 257.1 350 171.4 450 171.4c114.3 0 171.4 85.7 214.3 128.6z"/><path d="M435 216.2c11.4 12.8 2 18 14 18.8 12.7 1 5.5 13.5 16.2 14 7.5.3-.7 30.2 6.5 40 7.3 10.4 13.4 3 13.6 10.5.1 7.7-20 7-20.4 30.6-.5 13.6-17 14.5-17.7 23.3-1 8.3 32.3 12.9 31.8 20.3-.4 7.3-35.9 6.2-37.4 14.6-.8 7.5 48.7 13.7 52.6 35.6-7.3 2.4-28.3 4.7-44.2 4.7-100 0-171.4-85.8-214.3-128.6C278.6 257 350 171.4 450 171.4c0 0-29.7 27.1-15 44.7z"/><g stroke="#faf6f5" transform="scale(1.5)"><g id="d" stroke-width="6.927"><g id="c"><path id="b" d="M214 192.4v-22.9m13.8 0v22.9m13.8-22.9v22.9"/><use xlink:href="#b" width="100%" height="100%" y="38.1"/></g><use xlink:href="#c" width="100%" height="100%" x="41.56"/></g></g><use xlink:href="#d" width="100%" height="100%" x="104.76" stroke="#0a1a1d" transform="scale(1.5)"/><path fill="#0a1a1d" stroke="#0a1a1d" stroke-width="1.282" d="M767 294.9c-6.5 11.2 5-3.7 33 15a27 27 0 0 1 9.7 19.2c-1.3-.9-2.3-2.8-3.7-4-2 2 2 11.3 2.5 15.7-4.4-2.5-4-3.6-5.4-6.6.3 3.6-.8 13.6 1 17.5-3.5-1-3.2-3.8-5-4.3 1.2 4.3-1.1 9-.5 14-2-2-4.2-3.6-5.1-4.4-.2 2.4-3.9 8.5-4 10.7a5.6 5.6 0 0 1-2.4-3.7 74 74 0 0 0-10.2 15.5c-5.8-5.1-20.7-17.6-22.7-24.3-1.7 3.8-4.2 5-9 7.8-2-10.5-9.3-22.3-5.4-31.4a94 94 0 0 0-7.7 5.3c2.6-15.3 15.8-33.1 35-42z"/><path fill="#d7ccbf" d="M742.8 350.6c2.7-5.4 5.2-7.1 7-10.6 3-6 3.5-11 6.1-10.2 2.7.7 2.7 3.2-.8 9.2-3.4 6-5 7.3-12.3 11.6zm18.2 12.8c-.3-4 .9-5.8.7-8.4-.4-4.7-2.3-7.9.2-8.1 2.4-.2 3.6 1.4 3.6 6 0 4.7-.7 6-4.5 10.5zm13.9 8c-1.1-5.7-.3-8.2-1-11.9-1.2-6.5-3.6-10.8-1.3-11.4s3.7 1.5 4.6 8.1c.8 6.6.4 8.4-2.3 15.3zm14.4-40c-3.4-2.6-5.4-2.8-7.6-4.4-3.8-3-5.7-6-7-4.5-1.2 1.5-.3 3.2 3.7 5.9s5.4 2.9 10.9 3zm-2.4 19c-1.8-3.8-3.7-4.7-4.8-7-2-4.3-2-7.9-4.3-7s-2.4 2.9 0 7c2.4 4 3.6 4.7 9 7z"/><path fill="#0a1a1d" stroke="#0a1a1d" stroke-width="1.601" d="M121.2 305.7c-.4-3.2.3-3.6-1.7-6.1 3 1.2 3 4.5 6.6 2.2 1.3-.7 1.9-.7.3-4.4 3.7.2 15.9 4.4 17.8 4.5 5.2.2 14.5-5.4 21 1.5 6.2 6.3 4.1 12.8 4.1 21.5-2.5-1.2-1.3-1.7-4-4.9 2 7.7 0 21.4 0 29.5-1-2-.9-1.1-1.9-3.1-2.6 7.3-5.8 8.8-5.8 17.6-1-3.5 0-2.7-1.1-4.5-2.6 5.6-20 10.4-13.2 16-6-3.5-8.7-3.2-11.4-6.3-1.2.7-2.1 2.2-3.2 4.1-10.6-4.8-6.8-15.3-15.1-22.4-1.5 3-.8 2.6-2.4 7.3-1.6-6.6-2.1-10.8-4-15.7-1.6 2.7-1.5 1.6-4.4 5.7-1.3-8-3.2-10-2.5-15.3-3.1 2.2-1 1.3-4.2 4 3-20.7 15.8-36 25-31.2z"/><path fill="#d7ccbf" d="M108.2 339.6c2.7-6.7 5.1-8.8 6.9-13 3.1-7.6 3.6-13.7 6.2-12.8 2.6 1 2.6 4-.9 11.5-3.5 7.4-5.1 9-12.2 14.3zm10.3 16.7c1-6 2.8-8.1 3.5-12 1.3-6.8.6-11.8 3-11.6 2.4.3 3 2.9 1.4 9.6-1.7 6.8-2.8 8.4-8 14zm12.3 11.7c.3-5.8 1.7-8.1 1.9-11.8.4-6.6-.9-11.3 1.4-11.4s3.2 2.4 2.5 9c-.8 6.5-1.6 8.2-5.8 14.2zm26.5-38c-5-5-8-6-11.4-9.3-5.7-5.7-8.5-11-10.6-9.1-2 1.9-.8 4.7 5.3 10.1 6 5.5 8.2 6.3 16.7 8.3zm-3 19.5c-3.3-5-5.8-6.4-7.9-9.6-3.8-5.8-5-10.7-7.2-9.5-2.1 1.2-1.6 3.8 2.4 9.4 4.1 5.5 5.7 6.5 12.7 9.7z"/><path fill="#0a1a1d" stroke="#0a1a1d" stroke-width="1.239" d="M380.7 194.3c-6 11.4 10.4-3.9 36 15.4a44.2 44.2 0 0 1 11.5 24.2c-5.4-1.2-15-6.6-15-6.6s11.3 11.4 11.3 24.5c-4-2.5-6-2.2-7.4-5.2 0 4.2 3.6 6.9 3.6 13.4a53 53 0 0 0-7.8-5.2c3.8 6.6-6.9 19.3-1.5 23.5a33.3 33.3 0 0 1-22.7-13.8c-2 1.3-2.2 3.4-2.3 5.7.3.2-14.2-10.8-12.8-15-2 2.7-2.3 4.2-2.7 7.3a39.6 39.6 0 0 1-12-17.3c-2.3 3-2.5 3-4.9 6.2-1.7-10.8-1.7-10.4 1.8-19.6a86.2 86.2 0 0 0-7 5.3 62.5 62.5 0 0 1 31.9-42.8z"/><path fill="#d7ccbf" d="M366 250.3c1-7.9 3-10.8 3.7-16 1.1-8.9-.2-15.5 3-15.3 3.1.2 4 3.5 2.5 12.4-1.6 9-3 11.1-9.1 19zm16.6 14.5c-.6-6.6.6-9.5.2-13.8-.7-7.5-3-12.7-.3-13.1 2.8-.5 4.2 2 4.5 9.7.3 7.6-.4 9.6-4.4 17.2zm26 11.9c-2.9-5.8-5.3-7.5-7.1-11.3-3.2-6.5-4-11.8-6.4-10.9-2.5 1-2.3 3.8 1.2 10.2 3.6 6.4 5.2 7.7 12.2 12zm8.9-51.8c-7.2-3.7-10.9-3.8-15.5-6.2-8.1-4.3-12.9-9-14.5-6.4-1.7 2.6.5 5.2 8.9 9.1s11 4 21 3.5zm2.6 21.6c-5.2-4.3-8.3-5-11.7-7.7-6-5-8.9-9.7-10.8-7.8-2 2-.7 4.5 5.5 9.1 6.2 4.7 8.4 5.2 17 6.4z"/></svg>