<svg xmlns="http://www.w3.org/2000/svg" width="1200" height="720"><path fill="#036a4a" d="M0 0h1200v720H0Z"/><path fill="#faf6f5" d="M0 0h1200v512H0Z"/><path fill="#e30631" d="M0 0h1200v208H0Z"/><path fill="#ffb81c" d="M446 380h44l-36 26 14-42 14 42Zm18-66h44l-36 26 14-42 14 42Zm228 0h44l-36 26 14-42 14 42Zm-180-49h44l-36 26 14-42 14 42Zm66-17h44l-36 26 14-42 14 42Zm66 17h44l-36 26 14-42 14 42Zm66 115h44l-36 26 14-42 14 42Zm-110-35c-2-6-12-10-20-7 2-23 38-23 40 0-9-3-18 1-20 7Zm72 105c-2-2-6-4-10-5 1-4 0-9-3-13-4 2-8 7-9 11-5-1-10 0-12 1 7 16 23 18 34 6Zm-90-7c10 14 26 14 36 0-3-2-8-3-12-3 0-6-3-11-6-13-3 2-6 7-6 13-4 0-9 1-12 3Zm-71 45c58-17 120-17 178 0l5-15c-62-18-126-18-188 0Zm17-38c11 12 27 10 34-6-2-1-7-2-12-1-1-4-5-9-9-11-3 4-4 9-3 13-4 1-8 3-10 5Zm-49-27c3 34 55 27 59-7 16 29 52 21 62-14 10 35 46 43 62 14 4 34 56 41 59 7-19 15-48 5-57-17-20 21-60 10-60-21v-29c0-12 15-16 22-6 5-15-3-36-26-36s-31 21-26 36c6-10 22-6 22 6v29c0 31-40 42-60 21-9 22-38 32-57 17Z"/></svg>