<svg xmlns="http://www.w3.org/2000/svg" xmlns:xlink="http://www.w3.org/1999/xlink" width="1200" height="720"><path fill="#0f7d3a" d="M0 0h1200v720H0z"/><path fill="#faf6f5" d="M600 76a96 96 0 1 1-100 160A96 96 0 0 0 600 76Zm-92 22 11-34-29 21h36l-29-21Zm0 48 11-34-29 21h36l-29-21Zm0 48 11-34-29 21h36l-29-21Zm-48-26 11-34-29 21h36l-29-21Zm96-48 11-34-29 21h36l-29-21Z"/><path fill="#e30631" d="M156 0h192v720H156z"/><g id="c"><g id="b"><g id="a"><path fill="#0f7d3a" d="m156 52 20-20-4-4 7-7-9-9v5l9-9h-5l11 11 19-19h-8l-11 11-3-3h4l-1-6h-8l-17 16v7h7v-6l1-1 3 3-7 7 4 4-12 12Zm0-38V0h14l-5 5h-4v4Zm33-10-2-4h6Z"/><path fill="#ffb81c" d="m156 51 19-19-4-4 7-7-7-7v1l6-6h-1l9 9 18-18h-6l-12 12-5-5h5l-1-4h-7l-16 15v6h5v-5l2-2 4 4-7 7 4 4-13 13Zm0-38 4-4V4h5l4-4h-13Zm33-11 3-2h-4Z"/></g><use xlink:href="#a" transform="matrix(-1 0 0 1 504 0)"/></g><use xlink:href="#b" transform="matrix(1 0 0 -1 0 138)"/></g><use xlink:href="#c" y="138"/><use xlink:href="#c" y="276"/><use xlink:href="#c" y="414"/><use xlink:href="#b" y="552"/><path fill="#0f7d3a" d="M202.1 210.2h18.3v1.7l15.9 10.9.3.2h30.8l.3-.2 16-10.8v-1.7h18.1v-7.1h-18.1v-1.7l-16-10.9-.3-.2h-30.8l-.3.2-16 10.9v1.7h-18.2v7Zm.6-6.5h18.2v-2l15.4-10.5.5-.3h30.4l.5.3 15.4 10.5v2h18.2v6h-18.2v2L267.7 222l-.5.4h-30.4l-.5-.4-15.4-10.5v-1.9h-18.2v-5.9ZM324.2 45.6V33.1L309.6 24h-11.7l-22-13h-47.6l-22.1 13h-11.7l-14.7 9v12.5l-15.4 9.8V79l15.4 9.8v12.5l14.6 9.2h11.7l22.1 13h47.6l22.2-13h11.6l14.6-9.2V89l15.4-9.8V55.5l-15.4-9.9Zm-15.8 4.6h-9.1l-6.6 6.5V52l4.1-4v-5.3l11.6 7.5Zm-3.6-2.9-2.9-1.9h.1l3.4-3.3 2.8 1.9-3.4 3.3Zm-.8-15.7 3 1.8-3.5 3.3-2.9-1.8 3.4-3.3Zm-8.5.4 11.6 7.4-.1.2h-9l-5.3 5.2v-.9h-3.9l6.7-6.5V32ZM280 38l-5.7 5.6-2.9-1.9 6.1-6v-5.2l11.6 7.5H280Zm8.9-6.2-3.4 3.3-2.9-1.8.1-.1 3.4-3.3 2.8 1.9Zm-27.5-14.9 5 5h10l6.6 3.7-1.3 3.3-6-3.3h-3.2l-9.2 11-9-5.8v-3.5l3.1-2.2h1l3.4 2.4.6 1.8 2.7-3.8-5.3-4.6h-.8l-5.2-4h7.6Zm-9.2 15.6 16.9 10.7.4.3 2.9 1.9.4.3 1.4.8h16v14l8 6.5h-23l-7.6-5.3 6-5.9h10.6l-4.8-3.1 3.8-3.7-3.8-2.4-3.8 3.7-4.5-3-.4-.2-.3-.2v6l-6.5 6.3-11.7-8.1V32.5ZM271 86.7h-.1v-5.2l-6.5-6.4 2.8-2 6.2 6.1h9L271 86.7Zm11.3-1.2-2.8 1.8L276 84l2.8-1.9h.1l3.4 3.4Zm-30.1-27.8h5.6v4.5h8.1V67h-13.7v-9.3ZM238 72.5v-4.8h13.7V77h-5.5v-4.5H238ZM233 48h.1v5l6.5 6.4-2.8 2-6.2-6.2h-9.1L233 48Zm-11.4 1.2 2.9-1.8 3.4 3.3-2.8 1.8-3.5-3.3ZM238 67.1v-4.8h8.2v-4.5h5.5v9.3H238ZM227.6 22h10l5-5h7.6l-5.2 4h-.9l-5.2 4.5 2.7 3.8.5-1.8 3.5-2.3h1l3.1 2.1v3.5l-9 5.8-9.2-11h-3.2l-6 3.4-1.4-3.3 6.7-3.7Zm-9.7 8 3.4 3.3-2.8 1.8-3.5-3.3 2.9-1.8Zm8.6.6v5.2l6 6-2.8 1.8L224 38h-9.1l11.6-7.4Zm-26.6 1 3.4 3.3-2.8 1.8-3.4-3.3 2.8-1.8Zm8.6.6v5.2l6.7 6.6h-4v.8l-5.2-5.2h-9l11.5-7.4Zm-9.9 10 3.4 3.3-2.9 1.8-3.4-3.3 2.9-1.8Zm8.5.7V48l4.2 4v4.7l-6.6-6.5h-9.1l11.5-7.3ZM194.2 84v.2l-1.3.5-5.6-4v-1.1l-9.2-12-.2-.3.2-.3 9.2-12v-1l5.6-4 1.3.4.5.2 1.6.6-2.2 1.5V57l1.3 1.7h4.7V65h-5l-4-4.2h2.8l-4.7-3.9-2.6 2.3v1.2l-5.3 6.7-.2.3.2.2 5.3 6.8v1.1l2.6 2.3 4.7-3.9h-2.7l4-4.1h5V76h-4.8l-1.3 1.7v4.1l2.2 1.5-1.6.6-.5.2Zm10.5.5 6.6-6.5v4.7l-4.1 4V92l-11.6-7.4h9.1Zm-5.5 2.9 2.8 1.8-3.4 3.3-2.9-1.8 3.5-3.3Zm.7 15.7-2.8-1.8 3.4-3.3 2.8 1.8-3.4 3.3Zm8.6-.6L196.9 95h9l5.4-5.1v.8h3.9l-6.7 6.6v5.3Zm15.5-5.8 5.7-5.6 2.8 1.8-6 6v5.2l-11.6-7.4h9.1Zm-9 6.2 3.4-3.3 2.9 1.8-3.4 3.3-2.9-1.8Zm27.7 14.7-.1.1-5-5h-10L221 109l1.3-3.3 6 3.4h3.3l9.1-11 9.1 5.8v3.5l-3.1 2.1h-1l-3.5-2.3-.5-1.8-2.7 3.8 5.2 4.5h.9l5.2 4h-7.6Zm9-15.5L235 91.3l-.5-.3-2.8-1.8-.5-.3-1.3-.9h-16V74.1l-8.1-6.6h23l7.6 5.3-6 5.9h-10.6l4.9 3.1-3.8 3.7 3.7 2.4 3.8-3.6 4.6 2.9.3.2.3.2v-6l6.5-6.3 11.7 8.2V102l-.1.2Zm.5-34.7h13.7v4.9h-8.1v4.5h-5.6v-9.4Zm24.1 45.3h-9.9l-5 5h-7.6l5.2-4h.8l5.3-4.5-2.7-3.9-.6 1.8-3.4 2.4h-1l-3.2-2.2V104l9.1-5.8 9.2 11h3.2l6-3.4 1.3 3.3-6.7 3.7Zm9.8-8-3.5-3.3 2.9-1.8 3.4 3.3-2.8 1.8Zm-8.6-.6V99l-6.1-6 2.9-1.8 5.7 5.6h9l-11.5 7.4Zm26.6-1-3.5-3.3 3-1.9 3.3 3.3-2.8 1.9Zm-8.6-.7v-5.2l-6.7-6.5h3.9v-.9L298 95h9l-11.5 7.5Zm9.9-9.9-3.4-3.3 2.8-1.8 3.4 3.3-2.8 1.8Zm-8.6-.7v-5.1l-4.1-4V78l6.6 6.5h9l-11.5 7.4Zm29.1-24.3-9 12v1h-.2l-5.6 4-1.3-.4-.6-.3-1.5-.6 2.2-1.5v-4.1l-1.4-1.7h-4.7v-6.3h5l4 4.2h-2.7l4.7 3.9 2.5-2.4v-1l5.4-6.8.2-.3-.2-.3-5.4-6.7V59l-2.5-2.3-4.7 4h2.7l-4 4.1h-5v-6.3h4.7L310 57v-4.1l-2.2-1.6 1.5-.5.6-.3 1.3-.5 5.6 4v1l9.1 12 .2.3-.2.3ZM252 169.4l-.1.2-3.7 2.8 3.8 3 3.8-3-3.8-3Zm-19.1 37.3h.1l-4.7-3.2-4.6 3.2 4.6 3.2 4.6-3.2Zm23.7 0-4.6-3.2-4.6 3.2 4.6 3.2 4.6-3.2Zm19.1 3.2 4.6-3.2-4.6-3.2-4.6 3.2 4.6 3.2Zm57.7 112.5-3.8-.4-3.7 3-8.6-5.8v-5h4.5v-5.8h-4.4v-4.6h-5.6v6.7h-9.4v-7.7h4.5V297h-4.5v-4.6h-5.6v6.7h-18l-3.7-3.8 3.3-3.3-3.8-3.7-3.9 3.9-3.8-4-3.8 3.8 3.3 3.3-3.8 3.8h-2.5l-3.8-3.8 3.3-3.3-3.7-3.7-3.9 3.9-3.9-4-3.8 3.8 3.3 3.3-3.7 3.8h-2.5l-3.8-3.8 3.3-3.3-3.8-3.7-3.8 3.9-3.9-4-3.8 3.8 3.3 3.3-3.7 3.8h-18v-6.7h-5.7v4.6h-4.4v5.8h4.5v7.7h-9.4v-6.7h-5.6v4.6h-4.4v5.8h4.5v5L178 325l-3.6-3-3.8.5-1.8 2.7 3.2 2.6-3.2 2.6 1.8 2.7 3.8.4 3.6-3 8.7 5.8v.4l-8.7 5.7-3.6-3-3.8.5-1.8 2.7 3.2 2.6-3.2 2.6 1.8 2.7 3.8.4 3.6-3 8.6 5.8v.4l-8.6 5.7-3.6-3-3.8.5-1.8 2.7 3.2 2.6-3.2 2.6 1.8 2.7 3.8.4 3.6-3 8.7 5.8v5h-4.5v5.8h4.4v4.6h5.6v-6.7h9.4v7.7H197v5.8h4.4v4.6h5.6v-6.7h18l3.8 3.8-3.3 3.4 3.8 3.6 3.9-3.9 3.8 4 3.8-3.7-3.3-3.4 3.8-3.8h2.5l3.7 3.8-3.3 3.4 3.8 3.6 3.9-3.9 3.8 4 3.8-3.7-3.3-3.4 3.8-3.8h2.5l3.8 3.8-3.4 3.4 3.8 3.6 4-3.9 3.8 4 3.8-3.7-3.4-3.4 3.8-3.8h18v6.7h5.6v-4.6h4.5v-5.8h-4.5v-7.7h9.3v6.7h5.7v-4.6h4.4V376h-4.5v-5l8.6-5.7 3.7 3 3.8-.5 1.8-2.7-3.3-2.6 3.3-2.6-1.8-2.7-3.8-.4-3.7 3-8.6-5.8v-.4l8.6-5.7 3.7 3 3.8-.5 1.8-2.7-3.3-2.6 3.3-2.6-1.8-2.7-3.8-.4-3.7 3-8.6-5.8v-.4l8.6-5.7h.2l3.6 3 3.8-.5 1.8-2.7-3.2-2.6 3.2-2.6-1.8-2.7Zm-146.7 8.8-5.3-3.5 5.3-3.5v7Zm0 34.8-5.3-3.5 5.3-3.5v7Zm0-17.4-5.3-3.5 5.3-3.5v7Zm108.2-44.1v10l-13-10h13Zm-24.2-7.2 1.8 1.8h-3.6l1.8-1.8ZM264 310l3.6-3.3 3.6 3.3v1.4H264V310Zm-12-12.7 1.8 1.8h-3.6l1.8-1.8Zm-3.7 12.7 3.7-3.3 3.6 3.3v1.3h-7.3V310Zm-8.3 0v1.4h-7.3V310h.1l3.6-3.3 3.6 3.3Zm-8.5-11 1.8-1.7 1.7 1.8h-3.5v-.1Zm-22.4 5.5h13l-13 10v-10Zm-17.2 13.8h12.4l-12.4 9.4v-9.4Zm.1 53.7v-9.5l12.4 9.5H192Zm15.6-15h-8l-3-3.8 3-3.8h8v7.6Zm0-16.2h-8l-3-3.8 3-3.8h8v7.6Zm1.6 44.9v-10l13 10h-13Zm7.9-7.3.1-.1v-5.8H208v-54.8h9V312h7.5L210 324.6l-.3.2v40.7l.2.2 14.6 12.7h-7.4Zm16.3 14.5-1.8-1.8h3.6l-1.8 1.8Zm6.8-12.6-3.7 3.3-3.6-3.3V379h7.3v1.3ZM252 393l-1.7-1.8h3.5L252 393Zm3.8-12.7-3.7 3.3v-.1l-3.6-3.3V379h7.3v1.3Zm8.3-.1V379h7.3v1.2l-3.7 3.3-3.6-3.3Zm8.5 11-1.8 1.7-1.7-1.8h3.5v.1Zm5.3-15.8v.1H275l-3.1-3.2-.5-.5-.6-.5.6-.5.5-.5 1.6-1.5-.4-3.2v-.2l-.7-.3-1-.4-1.3-.6-1.1 1-.7.5-1 .9-1-.9-.7-.5-1.1-1-.4.2-.5.2-1.4.6-.6.3v.2l-.5 3.2 2.5 2.3.2.2-.2.1-3.9 4-3.4-3.5-.6-.6.1-.2.5-.4 2-2-.4-3v-.3l-.6-.3-1.5-.6-.8-.4-1.2 1-.6.5-1 .9-1-.9-.7-.5-1.2-1-.8.3-.5.3-1 .4-.6.3v.2l-.5 3.2 2.1 1.8.5.5.2.1-4.1 4.1-3.9-3.8-.2-.3.2-.2 2.6-2.2-.5-3.2v-.2l-.7-.3-1.4-.6-.5-.2-.3-.2-1.2 1-.6.5-1 .9-1-.9-.7-.5-1.2-1-1.3.5-.5.3-.5.2-.6.3v.2l-.5 3.2 1.6 1.4.5.5.6.5-1.1 1.1-3 3.2h-3l-11.3-9.9-.6-.5-1.2-1 3.3-3 2.5 2.3 3.2-.4 1.2-2.4-2.2-2.4.6-.7 1.6-1.6-1.2-2.5-3.3-.4-2.4 2.3-3.5-3.1V351l1.9-1.7.6-.5 1-.9.9.9.6.5 1 .9 3.1-.4.6-1 .7-1.5-2.3-2.3 2.3-2.4-.7-1.4-.3-.5-.2-.5-3.3-.4-1 .9-.5.5-1 .8-.8-.8-.7-.5-2-1.8v-1l3.6-3.1 2.5 2.2 3.2-.4 1.2-2.4-1-1.1a34 34 0 0 1-1.2-1.2l2.2-2.4-1.2-2.4-3.2-.5-2.5 2.3-3.3-3 1.1-1 .6-.5 11.4-9.9h2.9l3.1 3.2 1.1 1.1-.6.5-.5.5-1.6 1.5.5 3.1v.3l.7.3.4.2.5.2 1.3.6 1.2-1 .6-.6 1-.8 1 .8.7.6 1.2 1 .3-.2.5-.2 1.4-.6.6-.4v-.2l.6-3.2-2.6-2.2-.2-.2.2-.3 4-3.8 3.3 3.4.7.7-.2.1-.5.5-2 1.8.4 3.2v.2l.7.4 1 .4.4.2.8.4 1.2-1 .7-.6 1-.8 1 .8.6.6 1.3 1 .7-.4.5-.2 1-.4.6-.3v-.3l.5-3.1-2-2-.6-.4-.1-.1.1-.2.5-.5 3.5-3.4 3.8 3.9.2.2-.2.1-2.5 2.3.5 3.2v.2l.7.3 1.3.6.5.3.4.1 1.2-1 .6-.5 1-.8 1 .8.7.5 1.2 1 1.2-.5.5-.3.5-.2.6-.3v-.2l.5-3.2-1.6-1.5-.5-.4-.6-.6.6-.5.5-.5 3.1-3.2h2.9l11.4 10 .6.5 1.2 1-3.4 2.9-2.4-2.3-3.2.5-1.3 2.4 2.3 2.4-1.2 1.2-1.1 1.1 1.3 2.4 3.2.4 2.4-2.2 3.5 3v1.2l-2 1.6-.5.6-1 .8-.9-.8-.5-.6-1-.8-3.2.4-.3.4-.2.6-.8 1.4 2.3 2.3-2.3 2.4.8 1.5.2.5.3.5 3.2.4 1-1 .5-.4 1-1 .9 1 .6.5 2 1.7v1l-3.6 3.2-2.4-2.3-3.2.4-1.3 2.4 1 1.2.6.5.6.7-2.2 2.4 1.3 2.4 3.2.4 2.4-2.2 3.3 2.8-1.2 1-.6.6-11.3 9.9Zm17.1 10.3h-13l13-10v10Zm1.1-13.2h-9v5.8h-7.4l14.5-12.7.2-.2v-40.6l-.2-.2-14.5-12.7h7.4v5.8h9v54.8Zm.4-39.3h8l3.1 3.8-3.1 3.8h-8v-7.6Zm.1 23.8v-7.6h8l3.1 3.8-3.1 3.8h-8Zm15.6 15h-12.4l12.4-9.6v9.6Zm0-44.3-12.4-9.5h12.4v9.5Zm5.2 31.3 5.3 3.5-5.3 3.5v-7Zm0-17.4 5.3 3.5-5.3 3.5v-7Zm-.1-10.4v-7l5.3 3.5-5.3 3.5Zm-80.5-124.5-.6.4-7.3 5.8 6.8 5.3.5-.3.6-.4 3.5-2.8-2.7-2-.8.6-.5.4-.5.4-1.7-1.2 2.2-1.7.5-.4 2.6-2 10 7.7-5.5 4.3h5.3l2.8-2.2 2.8 2.2h5.3l-5.5-4.3 10-7.7 2.6 2 .5.4 2.1 1.7-1.6 1.2-.5-.4-.5-.4-.9-.7-2.6 2.1 3.5 2.8.5.4.5.4 7-5.4-7.5-5.8-.5-.4.5-.4 7.4-5.8-6.9-5.4-1 .8-3.5 2.8 2.6 2 1-.7.4-.4.5-.3 1.6 1.2-2 1.7-.6.4-2.6 2-10-7.7 5.5-4.3h-5.3l-2.8 2.2-2.8-2.2h-5.3l5.4 4.3-9.9 7.7-2.6-2-.5-.4-2.2-1.7 1.7-1.2.5.3.5.4.8.7 2.7-2-3.5-2.8-.6-.4-.5-.3-6.8 5.3 7.3 5.8.6.4Zm15.2-7.8 10 7.8-10 7.8-10-7.8 10-7.8ZM265 336h-4.6v-5h-16.8v5.1H239v4.7h-6.3v8.8h6.3v4.7h4.6v5.1h16.8v-5.1h4.6v-4.7h6.3v-8.8H265V336Zm-13.3 16.9-3.3-2-.5-.3-2-1.2-.9-.4v-3.6h6.7v7.5Zm7.3-8.1h-6.7v-7.5l3.3 2 .6.3 2 1.2.8.5v3.5Zm-28.3-192.2v7.2h-19v7.2h-19v7.2h-19v65.2h19v7.2h19v7.2h19v7.2h42.6v-7.2h19v-7.2h19v-7.3h19V174h-19v-7h-19v-7.2h-19v-7.2h-42.6Zm30.5 6.2h6v1.6l-6 5.8v-7.4L252 165l-9.1-6v7.3l-6.1-5.8v-1.6l-.1-.1h24.5Zm-2.7 29.2h-13l1.7-2.5-5.1-4.9 3.6-3v2l3 2.7h.1v-6.8l-4.3-3.2 7.5-5.8 7.5 5.8-4.3 3.2v6.8l3-2.7v-2l3.7 3-5.2 5 1.8 2.4Zm9.4.6 17.7 12h25.3v3.6h8.2v4.9h-8.3v3.6h-25.3l-17.7 12.1h-31.6l-17.8-12.1h-25.2v-3.5H185v-5h8.3v-3.5h25.2l17.8-12.1h31.6Zm27.3 5.1v-7l-2.4-2.3 3.2-2.8 3.1 2.8-2.4 2.2v7.1l2.5-2.6v-2.2l2.3 2.2-5.5 5.7-5.5-5.7 2.2-2.2v2.2l2.5 2.6Zm1.5 25.9v7.1l2.4 2.2-3.1 2.8-3.2-2.8 2.5-2.2v-7l-2.6 2.6v2.1l-2.2-2.1 5.5-5.8 5.5 5.8-2.3 2.1v-2.1l-2.5-2.7ZM255.3 231h-.1v6.8l4.3 3.3-7.5 5.7-7.5-5.7 4.3-3.3V231l-3.1 2.8v2l-3.6-3 5.2-5-1.8-2.5h13l-1.7 2.5 5.1 5-3.6 3v-2l-3-2.8Zm-46.6-11.4v7.1l2.5 2.2-3.2 2.8-3.1-2.8 2.4-2.2v-7l-2.5 2.6v2.1l-2.3-2.1 5.5-5.8 5.5 5.8-2.2 2.1v-2.1l-2.6-2.7Zm-1.4-25.9v-7l-2.4-2.3 3.1-2.8 3.2 2.8-2.5 2.2v7.1l2.6-2.6v-2.2l2.2 2.2-5.5 5.7-5.5-5.7 2.3-2.2v2.2l2.5 2.6Zm10.5-27.7h18.5v1.9l-4.4 3.4v-5.2l-4.9 4.5-4.8-4.5v5.2l-4.4-3.4V166Zm-19 7.2h18.5v1.7l-4.7 3.1v-4.6l-4.6 4.2-4.5-4.2v4.6l-4.7-3.1v-1.7Zm-4.7 7.2h4.2v1l-4.2 3.2v-4.2Zm-.1.1-5 3.8-5-3.8h10Zm-14.2.1h4.2v4.1l-4.2-3.1v-1Zm18.4 52.4h-18.4v-1l4.2-3.2v4.2l5-3.7 5 3.7v-4.2l4.2 3.2v1Zm19.1 7.3h-18.5v-1.7l4.7-3.1v4.6l4.5-4.2 4.6 4.2v-4.6l4.7 3v1.8Zm19 7.2h-18.5v-1.9l4.4-3.5v5.2l4.8-4.5 4.9 4.5V242l4.4 3.5v2Zm.5 7.2V253l6-5.8v7.3l9.2-6 9.1 6v-7.3l6.1 5.8v1.6l.1.1h-30.5Zm30.9-7.2v-1.9l4.4-3.5v5.2l4.9-4.5 4.8 4.5V242l4.4 3.5v1.9l.1.1h-18.6Zm37.5-7.2h-18.5v-1.7l4.7-3.1v4.6l4.6-4.2 4.5 4.2v-4.6l4.7 3v1.8Zm4.8-7.3h-4.3v-.9l4.3-3.3v4.2Zm14.2.1H320v-.1h-9.9l4.9-3.7 5 3.7v-4.2l4.2 3.2v1.1Zm-18.5-52.7h4.3v.1h14.2v1.1l-4.2 3.1v-4.2l-5 3.8-5-3.8v4.1l-4.3-3.1v-1.1Zm-19-7.2h18.5v1.7l-4.7 3.1v-4.6l-4.5 4.2-4.5-4.2v4.6l-4.8-3.1v-1.7Zm-.5-7.2v1.9l-4.4 3.4v-5.2l-4.8 4.5-4.9-4.5v5.2l-4.4-3.4V166h18.5Zm-57.1 398.6-50 28v46l50 28h45.8l50-28v-46l-50-28h-45.8Zm22.6 23.4.3-.2.2.2 15.3 10h-13.8v9.9h6.1v-4h-2.4v-2h6.4v3.8l-11.6 7.4-.2.1-.3-.1-11.6-7.4V602h6.4v2h-2.3v3.9h6V598h-13.8l15.3-10Zm-40.6 43.9h-5v-5.2h-7v5.2h-4.9v-13.5h5v5.1h7v-5.1h4.9v13.5Zm0-19.2h-5v-5.2h-7v5.2h-4.9v-13.5h5v5.1h7v-5.1h4.9v13.5Zm4.4-32.8h5v5.1h7v-5h4.9v13.5h-5v-5.2h-7v5.2h-4.9v-13.6Zm16.9 71.3h-5V646h-7v5.2h-4.9v-13.5h5v5.1h7v-5.1h4.9v13.5Zm4-18.2-5-3.3h-6.3v-28.3h6.3l5-3.3v6.8h-6.8v10h7v-4h-3.2v-2.1h4.4l10.2 6.5.4.2-.4.3-10.2 6.5h-4.4V620h3.3v-4h-7v10h6.7v7Zm15.9 10.1-.3.2-.3-.2-15.2-10h13.8v-9.9h-6.1v4h2.4v1.9H240v-3.8l11.7-7.3.2-.2.3.2 11.6 7.3v3.8h-6.4v-2h2.3v-3.9h-6v9.8h13.7l-15.2 10.1h.1Zm15.1-27v4h3.2v2.2h-4.4l-10.2-6.5-.4-.3.4-.2 10.2-6.5h4.4v2.2h-3.3v3.9h7v-10h-6.7V598l5 3.3h6.3v28.3h-6.3l-5 3.3v-6.8h6.8v-10h-7Zm21.1 35h-5v-5h-7v5h-4.9v-13.4h5v5.1h7v-5.1h4.9v13.4Zm4.5-51.9h5v5.1h7v-5.1h4.9v13.5h-5.1v-5.2h-7v5.2H293v-13.5Zm0 19.2h5v5.1h7v-5.1h4.9v13.5h-5.1v-5.2h-7v5.2H293v-13.5Zm-9.4-33.4v-5h4.9v13.4h-5v-5.2h-7v5.2h-4.9v-13.5h5v5.1h7Zm-35.4-343.9 3.7 2.8.1.1 3.8-2.9-3.8-3-3.8 3Zm68.6 219.5h-13.2l-.1-.1V446h-38.2l-13.3-8.3-13.3 8.3h-38.2v14.5h-13.3v13.1h-13.4v17.6h13.4v13.2h13.3V519h38.2l13.3 8.2 13.3-8.2h38.2v-14.5h13.3v-13.2h13.4v-17.6h-13.4v-13.1Zm-41.7 10.9 10.3-6.7 10.3 6.7h-20.6Zm15.3 7.7v6.7h-12.8v-6.7h12.8Zm-38.1-26.9h12.8v6.7h-12.8v-6.7Zm6.2 7.3v6.6h-12.8v-6.6h12.8Zm-6.3 13.8.2-.1v-6.6H265v6.7h-12.8Zm12.8 18.3v6.6h-12.6v-6.6H265Zm-26-18.3v-6.7h12.8v6.7H239Zm12.7 18.2v6.6H239v-6.6h12.7ZM239 452.4h12.8v6.6H239v-6.6Zm-6.7 7.2h12.9v6.6h-12.9v-6.6Zm-26.2-7.4h18.8l-18.8 13v-13Zm0 60.7v-13l18.8 13h-18.8Zm12.7-12.7-10.3-6.7H229l-10.3 6.7Zm-5-14.3v-6.7h12.8v6.7h-12.8Zm-5.3-14.4 10.3-6.7 10.3 6.7h-20.6Zm23.8 34v-6.6h12.9v6.6h-12.9Zm19.5 7.2H239V506h12.8v6.7Zm-6.1-7.2v-6.6h12.8v6.6h-12.8Zm19.3 7.2h-12.6V506H265v6.7Zm6.9-7.2H259v-6.6h12.9v6.6Zm0-39.3H259v-6.6h12.9v6.6Zm23.8 27.3-10.3 6.7-10.3-6.7h20.6ZM298 513h-18.8l18.8-13v13Zm0-47.7-18.8-13H298v13Z"/><path fill="#faf6f5" d="M233.3 349h6.2v4.7h4.6v5h7.6v-5.2l-3.3-2-.5-.3-3-1.8-.4-.2v-3.8h-11.2v3.6Zm5.9-34.4h-4.4l2.2 2.2 2.2-2.2Zm-4.5 0h.1l-.1-.1v.1Zm2.3 58.7-2.2 2.1h4.3l-2.1-2.1Zm-15.6-188.4 5.5 5.8 5.5-5.8-2.2-2.1v2.1l-2.6 2.7v-7.1l2.5-2.2-3.2-2.8-3.1 2.8 2.4 2.2v7l-2.5-2.6v-2.1l-2.3 2.1ZM261 454.4h-4.7v2.6h4.7v-2.6Zm0 14.4h-4.7v2.5h4.7v-2.5Zm-20 32.1h-4.7v2.5h4.7v-2.5Zm0-39.3h-4.7v2.6h4.7v-2.6Zm6.7 7.2H243v2.5h4.7v-2.5Zm0 25H243v2.5h4.7v-2.5Zm0-39.4H243v2.6h4.7v-2.6Zm-4.7 56.2h4.7v-2.5H243v2.5Zm8.7-397.1v-3.6l-2.2 1.8 2.2 1.8Zm2.6 261.9-2.2-2.1-2.2 2.1h4.4ZM236.6 72.6l.1-.1.4.3 2.8 2 .4.3 11.3 7.8v-5.4h-6V73h-8.2v-5.4h-7.8l7 5Zm.9-11h.1-.1Zm0 0-.3.3-.4.2-7.1 5h7.8v-5.4Zm8.1-4.5h6.1v-5.4l-11.3 7.9-.4.3-2.4 1.7h8v-4.5Zm22.1 404.5H263v2.6h4.7v-2.6Zm-2.8-146.8h.2l-.1-.1-.1.1Zm4.5 0h-4.3l2 2.2 2.3-2.2Zm-13.1 195.8h4.7v-2.5h-4.7v2.5Zm15.1-325.7 5.5 5.8 5.5-5.8-2.3-2.1v2.1l-2.5 2.7v-7.1l2.4-2.2-3.1-2.8-3.2 2.8 2.4 2.2v7l-2.5-2.6v-2.1l-2.2 2.1ZM252.2 21v3.6l2.3-1.8-2.3-1.8Zm21.5 209.7v.1-.1Zm.5-163.7h-.1l.1.1V67Zm-10.3 7.8 2.8-2 .4-.3 7.1-4.9h-7.8V73h-8.2v4.5h-6v5.4l11.3-7.8.4-.3Zm-5.7-13h8.2V67h7.7l-6.9-4.8-.5-.3-2.8-2-.4-.2-11.3-7.9v5.5h6v4.5Zm1.7 269.8h-7.6v5.2l3.3 2 .5.3 3 1.8.4.2v3.9h11.2v-3.6h-6.3v-4.7H260v-5.2l-.1.1Zm3.1 171.8h4.7v-2.5H263v2.5Zm4.3-130.1-2.3 2.1h4.5l-2.2-2.1ZM261 493.8h-4.7v2.5h4.7v-2.5Zm-30-10h4.8v-2.6h-4.7l-.1 2.6Zm40.5-255.3 2.2 2.2v-2.2l2.5-2.6v7.1l-2.4 2.2 3.2 2.8 3.1-2.8-2.4-2.2v-7l2.5 2.6v2.1l2.3-2.2-5.5-5.7-5.5 5.7Zm14.7 255.3v-2.6h-4.6v2.6h4.6Zm-5.3-9.7h-4.6v2.5h4.6v-2.5Zm-4.6 16.9h4.6v-2.6h-4.7l.1 2.6Zm-8.1-7.2h4.7v-2.6h-4.7v2.6Zm45.2-267.9-.1.2c-1 1-1.6 3.2-1.7 6l2-2.3 1.4 2.4 1.3-2.4 2 2.3c0-2.8-.6-5-1.6-6a2.3 2.3 0 0 0-3.3-.1Zm-61.1 353.5-.1-.1v13.4l4 2.6V572h13l-8.8 6.7v9.5l13.4 8.8h9.3v18.4h37.2v-20l-46.5-26h-21.5Zm40.3 14.3 19.7 11h-19.7v-11Zm-.3 15h6.1v5h6v-5h5.9v14.5h-6v-5.1h-6v5.1h-6v-14.5Zm-9.2-14.2v-5.1h5.9v14.5h-6v-5.1h-6v5.1h-5.9v-14.5h6v5.1h6Zm8-238v-2.6l-1.5 1.3 1.5 1.3Zm1.9 300h.1l17.2-9.6H293v9.6Zm-2-313.2v-2.5l-1.4 1.3.8.7v-.1l.6.6ZM189 222.2l1.4-2.4 2 2.2c0-2.7-.7-5-1.7-6-.5-.5-1-.8-1.7-.8-.6 0-1.2.3-1.7.8-1 1-1.6 3.3-1.6 6l2-2.2 1.3 2.4Zm1.4-24.6.2-.2c1-1 1.6-3.2 1.7-6l-2 2.2v.1l-1.4-2.4-1.3 2.4-2-2.3c0 2.8.6 5 1.6 6 .9 1 2.3 1 3.2.1Zm89 432.6h-6.7l-20.4 13.4v4.1l4.4-3v14h11l-7.8-6v-10l13.7-9.1h9v-17.8h-3.2v14.4Zm11.7-270.5V357l-.1.1-.6.5-.8.7 1.5 1.4Zm-38.5 257.8h-.1l11.9 7.5v4.6h-7.5v-3h2.4v-2.9h-5.1v8.8h13v-6.8h6.7v-9h-6v2.9h3.2v3.2h-5l-11-7-.5-.3.5-.2 11-7h5v3.2h-3.3v2.9h6v-9h-6.7v-6.8h-13v8.7h5.2v-2.8H257v-3h7.5v4.5l-12 7.5-.1.2-.3.1-.3-.1-.2-.2-11.9-7.5v-4.6h7.5v3h-2.4v3h5.1v-8.8h-13v6.8h-6.7v9h6v-3H233v-3.1h5l11 7 .5.2-.5.3-11 7h-5v-3.2h3.3v-2.9h-6v9h6.7v6.8h12.9v-8.8h-5.1v2.9h2.4v3h-7.5V625l12-7.5.1-.1.3-.2.3.2.2.1Zm-4.7 41.7-.1-.1h-13l8.8-6.6v-9.6l-13.4-8.8H221v-18.3h-37.2v20l46.5 26h21.6v-13.5l-4-2.6v13.5Zm-36.4-11.9h-.1l-19.7-11h19.8v11Zm.2-14.9h-6.1v-5.1h-6v5.1h-5.9v-14.5h6v5h6v-5h6v14.5Zm21.2 19.3h-6v-5.1h-6v5.1H215v-14.5h6v5h6v-5h5.9v14.5Zm56.7-175.1h4.7v-2.5h-4.7v2.5ZM315 64l-2.5 3h5.1l-2.6-3Zm-15.3.9h3.6V58h5l1.1-1.4V53l-2.8-2 1.2-.4h-8.3l-6.8 6.7v1.8l7 5.8Zm18.6-16 .1-.1V36.5L308 29.8h-11.6l-22.1-13H262l4.5 4.6h9.9l7.2 3.9-1.7 4.3-6.4-3.6h-2.9l-8.9 10.8 7.2 4.6 6-6v-5.9l5.2 3.4 3.8-3.7 3.8 2.4-3.8 3.7 4.9 3.1h-10.7l-5.4 5.4H288l6.9-6.7v-6l5.2 3.4 3.8-3.7 3.8 2.4-3.9 3.7 5 3.2h-10.7l-1.8 1.7 5.1 3.3 3.8-3.7 3.8 2.4-3.8 3.7 4 2.6 1.9-.8h.1l6 4.4v1.1l9.2 12.2h7.3v-8.3l-15.4-9.8Zm-22-6.9-3.6 3.5v5.7l3.6-3.6V42ZM315 71.3l-3.2-3.8h-12.7l-8.4 6.9v14.2h-16.3l-1.2.7-.4.3-2.9 1.8-.4.3-17.2 11v6.6l3 2.4-3 2.5v3.5h.6l6-4.5h.8l4.7-4.1-1.8-2.6-.3 1-3.7 2.5h-1.3l-3.6-2.4v-4l9.3-6 .5-.2 7.1-4.6.5-.3 2.8-1.8.5-.3.4-.2h17.4v-15l7.4-6h9.5l4.3 4.5v.7h-2l3.4 2.6 2-1.8v-1l5.2-6.7h-3.8l-3.2 3.8ZM289.6 491h4.7v-2.6h-4.7v2.6Zm5.3-9.7v2.5h4.7v-2.5h-4.7Zm20-290-1.4 2.4-2-2.3c0 2.8.7 5 1.7 6 .5.6 1 .8 1.7.8.6 0 1.2-.2 1.7-.7 1-1.1 1.6-3.3 1.6-6l-2 2.2-1.3-2.4Zm-60.6 309.6h-4.6v2.5h4.6v-2.5Zm-43-425.5-7-5.7h-3.6v6.8h-5l-1.1 1.4v3.6l2.8 2-1.2.4h8.3l6.8-6.7v-1.8Zm43 386.2h-4.6v2.6h4.6v-2.6ZM189 63.3l3.2 3.7h12.7l8.4-6.8V46h16.3l1.2-.7.4-.3 2.9-1.8.4-.3 17.2-11v-6.6l-3-2.5 3-2.4v-3.5h-.7l-5.9 4.5h-.8l-4.7 4 1.8 2.7.3-1 3.7-2.6h1.3l3.5 2.4v4l-9.2 6-.5.3-7.1 4.5-.5.3-2.8 1.9-.5.2-.4.3h-17.4v15l-7.4 6h-9.5l-4.3-4.6v-.6h2l-3.4-2.7-2 1.9v1L182 67h3.7l3.3-3.7Zm32.5 165.2 2.3 2.2v-2.1l2.5-2.7v7.1l-2.4 2.2 3.1 2.8 3.2-2.8-2.5-2.2v-7l2.6 2.6v2.1l2.2-2.2-5.5-5.7-5.5 5.7Zm-8.6 102.2v2.7h.1l.6-.6.8-.7-1.5-1.4ZM224.6 601h6.7l20.4-13.5v-4l-4.4 3v-14h-11l7.8 6v10l-13.8 9h-9v17.9h3.3V601Zm3.1-126.9h-4.6v2.5h4.6v-2.5Zm-4.6 16.9h4.6v-2.6h-4.6v2.6Zm-5.3-7.2h4.6v-2.6h-4.6v2.6ZM252 317l2.2-2.2h-4.4l2.2 2.2Zm-38.4 40.6-.6-.5-.1-.1v2.7l1.5-1.3-.8-.8Zm.8 116.5h-4.7v2.5h4.7v-2.5Zm-1.5-130.2v2.7l1.5-1.4-1.5-1.3Zm1.5 144.5h-4.7v2.6h4.7v-2.6ZM189 70.5l2.5-3h-5l2.5 3Zm15.4 410.8v2.5h4.7v-2.5h-4.7Zm-18.8-383v-.1l10.4 6.5h11.6l22.2 13h12l-4.5-4.5h-9.8l-7.2-4 1.7-4.2 6.4 3.5h2.9l8.9-10.7-7.2-4.6-6 5.9v6l-5.2-3.4-3.8 3.7-3.8-2.4 3.8-3.7-4.9-3.2h10.7l5.4-5.3-.1-.1h-13.2l-6.9 6.8v6l-5.2-3.4-3.8 3.7-3.8-2.5 3.9-3.6-5-3.2h10.7l1.8-1.7-5.1-3.3-3.8 3.7-3.8-2.4 3.8-3.7-4-2.6-1.9.8-6-4.4v-1.1l-9.3-12.3h-7.3V76l15.4 9.8v12.5Zm25.7-9.2v-5.7l-3.6 3.5v5.8l3.6-3.6Zm-.4 505.1v-9.6l-17.2 9.6h17.2Z"/><g fill="#ffb81c"><path d="m189.1 64-2.6 3h5.1l-2.5-3Zm5.5-7.3 1.1 1.4h5v6.8h3.5l7.1-5.8v-1.8l-6.8-6.7h-8.3l1.2.5-2.8 2v3.6ZM182 67.5l5.2 6.6v1l2 2 3.3-2.7h-2v-.7l4.4-4.6h9.6l7.4 6v15h17.4l.4.3.5.3 2.8 1.8.5.3 7.1 4.6.5.3 9.2 5.9v4l-3.5 2.4h-1.3l-3.7-2.5-.3-1-1.8 2.6 4.7 4h.8l6 4.6h.6v-3.5l-3-2.5 3-2.4v-6.6l-17.2-11-.4-.3-2.9-1.8-.4-.3-1.1-.7h-16.4V74.4l-8.4-6.9h-12.7l-3.2 3.8-3.2-3.8H182Zm123.2 108L300 179v-4.4l-4 3.7-4-3.7v4.4l-5.3-3.5v24.7h18.5v-24.7Zm-9.2 22.2v-.2l-6.3-6.4 3.5-3.4v3.2l1.5 1.5V187l-2.6-2.4 3.9-3.5 3.9 3.5-2.7 2.4v5.5l1.5-1.5v-3.2l3.5 3.4-6.2 6.5Zm-5.2 288.1h12.9v-6.6h-12.9v6.6Zm3.6-5.1h5.7v3.7h-5.7v-3.7Zm1.6-245.6 4 3.7v-4.4l5.2 3.5v-24.7h-18.5v24.6l5.3-3.4v4.4l4-3.7Zm-6.3-12.7 6.3-6.5v-.1l6.2 6.5-3.5 3.4v-3.2l-1.5-1.6v5.6l2.7 2.4-4 3.5-3.8-3.5 2.6-2.4V221l-1.5 1.6v3.2l-3.5-3.4Zm40.2-11h-5v22h-19v7.3h-19v7.2h-19v7.2h-31.5v-7.2h-19v-7.2h-19v-7.2h-19v-22.1h-5v27.3h19v7.2h19v7.2h19v7.2h41.5v-7.2h19V246h19v-7.3h19v-27.3Zm-118.6-166-3.6-3.5v5.8l3.6 3.5v-5.8ZM267.2 206l.5-.4 6.6-5-6-4.8-.6.4-.5.4-2.7 2.1 1.8 1.4.9-.7 1-.8 2.5 2-3 2.3-.5.4-2.2 1.7-.4.3-.5-.3-10-7.8-.3-.3.4-.3 4.3-3.4H255l-2.6 2-.4.3-.4-.3-2.6-2h-3.6l4.4 3.4.4.3-.4.3-10 7.8-.4.3-.4-.3-2.2-1.7-.5-.4-3-2.4 2.5-1.9 1 .8.9.7 1.8-1.4-2.7-2-.5-.5-.5-.4-6 4.7 6.5 5.2.5.4.4.3.4.3-.4.4-.4.3-.5.4-6.6 5 6 4.8.6-.4.5-.4 2.6-2-1.7-1.5-1 .7-.4.4-.5.4-2.5-2 3-2.2.5-.4 2.2-1.8.4-.3.4.3 10 7.8.4.3-.4.4-4.4 3.4h3.6l2.6-2 .4-.4.4.4 2.6 2h3.5l-4.3-3.4-.4-.4.4-.3 10-7.8.4-.3.4.3 2.2 1.8.5.4 3 2.3-2.5 1.9-.5-.4-.5-.4-.9-.7-1.8 1.4 2.7 2 .5.5.5.4 6-4.7-6.5-5.1-.5-.4-.4-.4-.4-.3.4-.3.4-.4Zm-4.8 1-10 7.8-.4.3-.4-.3-10-7.8-.4-.3.4-.3 10-7.8.4-.3.4.3 10 7.8.4.3-.4.3Zm-88-5h5v-22h19v-7.3h19v-7.1h19v-7.2h31.4v7.2h19v7.2h19v7.2h19v22h5v-27.3h-19v-7.2h-18.9v-7.3h-19V153h-41.5v7.2h-19v7.2h-19v7.2h-19V202Zm151.4 262.4v-13.1h-13.2v-14.5h-48l-9.3-6 5-3h17.5l2.4 2.8h-15.5l3.4 3.6H289l-9.1-10h-20.6l-7.3 4.6-7.3-4.5h-20.6l-9 9.9h20.8l3.4-3.6h-15.5l2.3-2.8h17.7l5 3.1-9.4 5.9h-48v14.5h-13.2v13h-13.5v36.4h13.5v13.1h13.3v14.5h47.9l9.3 5.9-5 3h-17.5l-2.4-2.7h15.5l-3.4-3.6H215l9.1 10h20.6l7.3-4.7 7.3 4.6h20.6l9.1-9.9h-20.9l-3.4 3.6h15.5l-2.4 2.7h-17.6l-4.9-3 9.3-5.9h48v-14.5h13.2v-13.1h13.4v-36.3h-13.4Zm8.5 31.1h-13.5v13.2h-13.3V523h-41.2l-14.3 9-14.4-9h-41.1v-14.5h-13.3v-13.1h-13.4v-26h13.4v-13h13.3v-14.6h41.1l14.4-9 14.3 9h41.2v14.5h13.3v13.3h13.5v25.9Zm-82-382 2.3-1.8-2.3-1.8v3.6Zm49.6 277.1v-11.4h15V311h-15v-11.4h-99.8V311h-14.9v68.2h15v11.4h99.7Zm-110.6-18.1v-54.8H205l3.6-2.7v-11h87v11l3.6 2.7h13.4v54.8H299l-3.5 2.7v11h-87v-11l-3.6-2.7h-13.6Zm64.8 7.7 3.7 3.3 3.6-3.3V379h-7.3v1.2Zm-15.5.1v-.1.1Zm0-.1 3.6 3.3 3.6-3.3V379h-7.2v1.2Zm66.9-18.9-3-3.8h-8v7.6h8l3-3.8Zm0-16.2-3-3.8h-8v7.6h8l3-3.8Zm9.7-264.2-6 4.3-2-.7-4 2.6 3.9 3.7-3.8 2.4-3.8-3.7-5 3.3 1.7 1.7h10.6l-4.8 3.1 3.8 3.7-3.8 2.4-3.8-3.6-5.2 3.3v-6l-7-6.7h-13.2l5.4 5.4h10.7l-5 3.2 3.9 3.6-3.8 2.5-3.8-3.7-5.2 3.3v-6l-6-5.8-7.2 4.6 9 10.7h2.8l6.4-3.5 1.7 4.3-7.2 3.9h-9.9l-4.5 4.5h12.1l22.2-13H308l10.4-6.5V85.7l15.5-9.8v-8.4h-7.4l-9.3 12.3v1.1Zm-9.7 248-3-3.8h-8v7.6h8l3-3.8Zm-100 28.6h-8l-3.1 3.8 3.1 3.8h8v-7.6Zm55.9-47.5-3.6-3.3-3.6 3.3v1.4h7.2V310ZM252 247.8l8.6 5.7V246l6.6 6.2v-26.8h-8.1l-1.7 2.4 5.3 5-5 4.2v-3l-2-1.8v5.4l4.7 3.5-8.4 6.4-8.4-6.4 4.7-3.5v-5.4l-2 1.8v3l-5-4.2 5.3-5-1.7-2.4h-8.1v26.8l6.6-6.2v7.5l8.6-5.7Zm-44.5 84.9V325h-8l-3.1 3.8v.1l3.1 3.8h8Zm0 16.2v-7.6h-8l-3.1 3.8 3.1 3.8h8Zm37-8 .4-.1 3-1.8.5-.3 3.3-2v-5.3h-7.6v5.2h-4.5v4.6h-6.3v3.7h11.2v-4Zm15.4 12.8h4.6V349h6.2v-3.6h-11.2v3.8l-.4.2-3 1.8-.5.3-3.3 2v5.3h7.6v-5.1Zm-12-43.7-3.7-3.3-3.6 3.3v1.4h7.3V310Zm-16.1 162.1H219v6.6h12.8v-6.6Zm-3.5 5.1h-5.8v-3.7h5.8v3.7Zm70.1-5.1h-12.9v6.6h12.9v-6.6Zm-3.6 5.1h-5.7v-3.7h5.7v3.7Zm-63-5.2v.1-.1ZM219 493h12.8v-6.6H219v6.6Zm3.5-5.2h5.8v3.7h-5.8v-3.7Zm49.7 5.2H285v-6.6h-12.8v6.6Zm3.5-5.2h5.8v3.7h-5.8v-3.7ZM293 594.1h17.2l-17.2-9.6v9.6Zm-16-114.9h-13v6.6h13v-6.6Zm-3.6 5.2h-5.7v-3.7h5.7v3.7Zm9.7 149.7h-9.3l-13.4 8.8v9.6l8.8 6.7h-13v-13.5l-4 2.6v13.5h21.6l46.5-26v-20.1h-37.2v18.4Zm9.4 13.2v-11h19.8l-19.8 11Zm-.2-29.3.1-.1h6v5h6v-5h5.9v14.5h-6v-5.1h-6v5h-6V618Zm-3.4 33.6h-6v-5.1h-6v5H271v-14.4h6v5h6v-5h5.9v14.5Zm-47.2-199.7h20.6l-10.3-6.7-10.3 6.7Zm-36.1 26.8h12.9V472h-12.9v6.7Zm3.6-5.2h5.7v3.7h-5.7v-3.7Zm42.8 46.4 10.3-6.7h-20.6l10.3 6.7Zm-25-34.1h13v-6.6h-13v6.6Zm3.6-5.1h5.7v3.7h-5.7v-3.7Zm-25 12.3h12.9v-6.6h-12.9v6.6Zm3.6-5.2h5.7v3.7h-5.7v-3.7Zm4-8.6h-12.9v6.6h12.9v-6.6Zm-3.5 5.2H204v-3.7h5.7v3.7Zm42.3-3.8 10.3-6.7h-20.6l10.3 6.7Zm-10.3 10.6h20.6l-10.3-6.7-10.3 6.7Zm25.9 81.1h-11v14l-4.5-3v3.9l20.5 13.6h6.7v14.4h3.2v-17.9h-9l-13.7-9v-10l7.8-6Zm25.1-483.2 3.6 3.6v-5.8l-3.6-3.5v5.7Zm-40.4-63.8v6.6l17.1 11 .5.3 2.9 1.8.4.3 1.1.7h16.4v14l8.4 7h12.7l3.2-3.8 3.2 3.7h3.8l-5.2-6.6v-1l-2-1.9-3.3 2.7h1.9v.6l-4.3 4.6h-9.5l-7.4-6v-15h-17.4l-.4-.3-.5-.2L271 42l-.4-.3-7.1-4.5-.5-.3-9.3-6v-4l3.6-2.4h1.3l3.7 2.6.3 1 1.8-2.6-4.7-4.2h-.9l-5.9-4.5h-.7v3.6l3.1 2.4-3 2.5Zm40.4 50.1v1.8l6.8 6.7h8.3l-1.2-.4 2.8-2V78l-1.1-1.4h-5v-6.8h-3.5v-.1l-7.1 5.7Zm19.9-7.9 2.5 3 2.5-3h-5ZM208 235.1l4 3.7v-4.4l5.3 3.5v-24.7h-18.5v24.6l5.2-3.4v4.4l4-3.7Zm-6.2-12.7 6.2-6.5v-.1l6.3 6.5-3.5 3.4v-3.2l-1.5-1.6v5.6l2.6 2.4-3.9 3.5-3.9-3.5 2.7-2.4V221l-1.5 1.6v3.2l-3.5-3.4Zm15.5-46.9L212 179v-4.4l-4 3.7-4-3.7v4.4l-5.2-3.5v24.7h18.5v-24.7Zm-9.3 22.2v-.2l-6.2-6.4 3.5-3.4v3.2l1.5 1.5V187l-2.7-2.4 4-3.5 3.8 3.5-2.7 2.4v5.5l1.6-1.5v-3.2l3.5 3.4-6.3 6.5ZM285.5 493h12.9v-6.6h-12.9v6.6Zm3.5-5.2h5.9v3.7H289v-3.7Zm-45.6-328v7.6l-6.6-6.2V188h8.1l1.7-2.4-5.3-5 5-4.2v3l2 1.8v-5.4l-4.7-3.5 8.4-6.4 8.3 6.4-4.6 3.5v5.4l2-1.8v-3l5 4.2-5.3 5 1.7 2.4h8.1v-26.8l-6.6 6.2v-7.6l-8.6 5.8v-.1l-8.6-5.7Zm28.8 318.9H285V472h-12.8v6.7Zm3.5-5.2h5.8v3.7h-5.8v-3.7Zm-51.2 156.6v-14.4h-3.2v17.8h9l13.7 9v10.2l-7.7 5.9h11v-14l4.3 3v-4l-20.4-13.5h-6.7Zm5.6-61-46.5 26.1v20h37.2v-18.4h9.3l13.4-8.8v-9.5l-8.8-6.7h13v13.4l4-2.6v-13.4l-.1-.1h-21.5Zm-18.8 14.5v11h-19.7l19.7-11Zm.2 29.5h-6V608h-6v5.1h-5.9v-14.5h6v5h6v-5h5.9v14.5Zm21.3-19.3h-6v-5.1h-6v5.1h-6v-14.5h6v5h6v-5h6v14.5Zm-46-539v-1.1l5.9-4.3.1-.1 2 .8 4-2.6-3.9-3.7 3.8-2.4 3.8 3.7 5-3.3-1.7-1.7h-10.6l4.9-3.2-3.9-3.7 3.8-2.4 3.8 3.7L209 31v6l7 6.8h13l.2-.1-5.4-5.4h-10.7l5-3.1-3.9-3.7 3.8-2.4 3.8 3.7 5.2-3.4v6l6 5.9 7.2-4.6-9-10.8h-2.8l-6.4 3.6-1.7-4.3 7.2-4h9.9l4.4-4.4h-12l-22.2 13H196l-10.4 6.5v12.6l-15.4 9.8V67h7.3l9.3-12.2Zm65-33.8-2.2 1.8 2.2 1.8V21Zm-41 625.4v-9.7h-17.2l17.2 9.7Z"/><path id="d" d="M235 712c27-27 48 6 71-8-25 3-50-18-75 6Zm49-12c13 0 22 5 33-3-11-4-15 2-24 0 6-3 4-7 9-11-12-2-9 10-18 14Zm19-6c9-4 20 4 28-13-11 7-16 5-24 10 2-4 9-6 3-13-2 6-8 7-7 16Zm13-10c7-5 20-4 20-16-4 5-13 6-17 11 1-5-1-8-1-13-9 7 0 12-2 18Zm7-12c9-3 13-8 16-17-8 1-8 9-13 12 1-5-3-9-3-12-6 7 1 11 0 17Zm6-13c2-8 10-10 2-19 0 7-7 6-2 19Z"/><use xlink:href="#d" transform="matrix(-1 0 0 1 504 0)"/></g></svg>