<svg xmlns="http://www.w3.org/2000/svg" width="1200" height="720"><path fill="#0f7d3a" d="M0 0h1200v720H0Z"/><path fill="#fcd80e" d="M0 103h1200v514H0Z"/><path fill="#e30631" d="M0 206h1200v309H0Z"/><path fill="#0a1a1d" d="M28 0H0v720h28l411-309h761V309H439Z"/><path fill="#faf6f5" d="M480 360 0 720V0Z"/><path fill="#e30631" d="m89 471 94-290 94 290L31 292h304Z"/><path fill="#0a1a1d" d="M137 437v3h94v-3c-4-16-4-30 0-49v-3l3-13c2-2 5-3 10-3h15c8 0 14-6 5-12-24-16-60-36-82-47-4-2-8-3-10-3-3-16-2-35-3-44-2-18-26-20-35-10-15-6-26 13-13 22 9-9 19-1 19 9s-8 18-8 27c0 5 2 9 4 13-5 17 10 28 16 32-13 4-24 12-17 31h2c4 19 4 34 0 50Z"/><path fill="#fcd80e" d="M150 265c5 0 5-7 0-7s-5 7 0 7Zm-10 120h-3c-5-17 3-22 20-28v-1c-6-5-23-14-18-31l26-12-1-2-26 11c-2-2-3-7-3-11 0-9 8-17 8-27 0-13-13-21-22-12-8-8 2-23 14-16 8-10 29-8 31 7 1 9 0 28 3 45l2 2c3 0 7 1 11 3 22 11 56 30 80 46 6 4 1 7-4 7h-14c-6 0-10 2-12 3l-58-18-1 2 23 8 35 10-3 14h-85c0-11 4-14 12-16l20-4c3 10 19 14 31 3l-3-1c-11 8-22 6-26-4l-1-1-24 5c-8 2-12 6-12 18Zm67 15c-6 0-6-7 0-7s6 7 0 7Zm0 3c10 0 10-13 0-13s-10 13 0 13Zm18 3h-82l-3-18h88Zm-23 8-7 12 7-5 7 5Zm24 14h-84c1-7 1-12 1-19h5l-2 10 6-10h8l6 10-2-10h7l-2 10 6-10h8l6 10-2-10h7l-2 10 6-10h8l6 10-2-10h7l-2 10 6-10h5l-1 5-7 12 7-6 1 8Zm-65-28c-6 0-6-7 0-7s6 7 0 7Zm0 3c10 0 10-13 0-13s-10 13 0 13Zm18 11-7 12 7-5 7 5Zm49 23h-88l1-6h86Zm-72-23-7 12 7-5 7 5Z"/></svg>