<svg width="900" height="600" version="1.0" xmlns:xlink="http://www.w3.org/1999/xlink" xmlns="http://www.w3.org/2000/svg"><g stroke-width=".66667"><path fill="#002654" d="M0 0h900v600H0Z"/><path fill="#fff" d="M120 0h240v240H120Z"/><path fill="#ce1126" fill-rule="evenodd" d="M240 0h120v240H240z"/><path fill="none" stroke="#fff" stroke-width="6" d="M360 0v240H0"/><g transform="scale(1.5)"><path d="m354.997 182.976 12.875 20.5h36.625v71.5l-27.5-43-37 59h23l3.438-6.5h23.031l26.531 42.5 26.532-42.5h23.03l3.438 6.5h23l-37-59-27.5 43v-39.5h16.5l12.25-19.5h-28.75v-12.5h36.625l12.875-20.5zm22.178 73.7 8.974 13.952-15.973.089zm77.29 1.419 7.177 12.533-14.555-.089z" fill="#fff" fill-rule="evenodd"/><path id="a" d="m334.19855 200.81178 5.82504 17.92533 18.84804.00071-15.24797 11.07918 5.82369 17.92577-15.2488-11.07802-15.24881 11.07802 5.82369-17.92577-15.24796-11.07918 18.84803-.00071z" transform="matrix(.82875 0 0 .82875 57.23236 38.97209)" fill="#fff" stroke-width="0" stroke-linecap="round" stroke-linejoin="round" stroke-miterlimit="8"/><use xlink:href="#a" transform="translate(164.31899)"/><use xlink:href="#a" transform="translate(37.42099 101.44999)"/><use xlink:href="#a" transform="translate(126.41099 101.44999)"/><use xlink:href="#a" transform="translate(81.79899 135.58513)"/></g></g></svg>