<svg xmlns="http://www.w3.org/2000/svg" xmlns:xlink="http://www.w3.org/1999/xlink" width="600" height="300" viewBox="0 0 120 60">
  <path fill="#003188" d="M0 0h120v60H0z"/>
  <g stroke="#c40f38" stroke-width="6">
    <path stroke="#faf6f5" stroke-width="10" d="M30 0v40M0 15h70"/>
    <path d="M30 0v40M0 15h70"/>
  </g>
  <path fill="#ffdc0f" d="M60 0h60v60H0V30h60z"/>
  <g transform="translate(30 15)">
    <g transform="scale(5.1039)">
      <circle r="1" fill="#003188"/>
      <path id="a" fill="#ffdc0f" d="m0-513674 301930 929245-790463-574305h977066l-790463 574305" transform="scale(0)"/>
    </g>
    <use xlink:href="#a" transform="matrix(3 0 0 3 -17.5 .29)"/>
    <use xlink:href="#a" transform="matrix(3 0 0 3 17.5 .29)"/>
    <use xlink:href="#a" transform="matrix(3 0 0 3 0 10.29)"/>
    <use xlink:href="#a" transform="matrix(3 0 0 3 0 -9.71)"/>
  </g>
</svg>
