<svg xmlns="http://www.w3.org/2000/svg" width="1000" height="500">
  <path fill="#003188" d="M0 0h1000v500H0z"/>
  <path fill="#faf6f5" d="M1000 0H888.33l-305 152.5V0H416.67v152.5L111.67 0H0v55.83l221.5 110.84H0v166.66h221.5L0 444.17V500h111.67l305-152.33V500h166.66V347.67l305 152.33H1000v-55.83L778.5 333.33H1000V166.67H778.5L1000 55.83z"/>
  <g fill="#c40f38">
    <path d="M666.67 333.33 1000 500v-37.17l-258.83-129.5zM1000 0h-74.5L592 166.67h74.67z"/>
    <path d="M550 200V0H450v200H0v100h450v200h100V300h450V200z"/>
    <path d="M0 500h74.5L408 333.33h-74.67zm333.33-333.33L0 0v37.33l258.83 129.34z"/>
  </g>
</svg>
