<svg xmlns="http://www.w3.org/2000/svg" width="1200" height="600">
  <path fill="#f30932" fill-opacity="1" d="M0 0h1200v600H0z"/>
  <path fill="#18864e" fill-opacity="1" d="M0 225h1200v150H0z"/>
  <path fill="#ffdc0f" fill-opacity="1" d="m150 30-6.735 20.73h-21.797l17.634 12.81-6.736 20.73L150 71.46l17.634 12.812-6.736-20.73 17.633-12.812h-21.796zm0 10.8 4.31 13.267h13.95l-11.285 8.2 4.31 13.266-11.285-8.2-11.285 8.2 4.31-13.267-11.285-8.2h13.95z"/>
  <g fill="#ffdc0f" fill-opacity="1">
    <path d="m101.839 138.547 14.93 14.993 14.078-13.945c21.416 22.909 43.877 44.991 65.127 67.988a8.22 8.22 0 0 0 11.603.04 8.167 8.167 0 0 0 .04-11.573c-22.809-21.463-45.687-43.102-68.503-64.644l18.968-18.787-26.388-3.644z"/>
    <path d="M150 90c12.282 6.9 21.606 16.8 27.107 27.15 5.575 10.49 8.025 21.44 8.075 30.197.103 17.954-14.592 32.508-32.593 32.508-9.605 0-18.24-4.143-24.205-10.735l-3.3 2.77a4.926 4.913 0 0 0-5.52 1.413 6.185 6.17 0 0 0-5.068 4.176c-2.481 4.965-6.835 8.857-12.102 10.64-.051.017-.095.04-.14.061-2.436.89-4.877 2.499-6.957 4.581-4.107 4.133-6.116 9.422-4.986 13.134a3.111 3.103 0 0 0-.17 1.002A3.11 3.102 0 0 0 93.252 210a3.113 3.105 0 0 0 1.25-.265c3.714.835 8.76-1.22 12.705-5.178 2.237-2.25 3.913-4.913 4.736-7.523 1.833-5.228 5.775-9.488 10.782-11.883a2.137 2.131 0 0 0 .302-.177 6.185 6.17 0 0 0 3.344-4.115c7.679 9.034 19.195 14.803 32.07 15.105 23.61.555 41.26-16.78 42.076-41.709.411-12.545-4.456-28.722-15.545-41.987C176.497 102.128 164.07 93.71 150 90z"/>
  </g>
</svg>
