<svg xmlns="http://www.w3.org/2000/svg" xmlns:xlink="http://www.w3.org/1999/xlink" width="1200" height="600" viewBox="0 0 9600 4800">
  <defs>
    <path id="a" d="M0 0h12v6H0z"/>
  </defs>
  <defs>
    <clipPath id="b">
      <use xlink:href="#a"/>
    </clipPath>
    <clipPath id="c">
      <path d="M0 0v1.5h8V4zm6 0H3v4h-5z"/>
    </clipPath>
  </defs>
  <g fill="#003188" stroke-width=".6" clip-path="url(#b)" transform="scale(800)">
    <use xlink:href="#a"/>
    <path stroke="#faf6f5" d="m0 0 6 3M0 3l6-3"/>
    <path stroke="#c40f38" stroke-width=".4" d="m0 0 6 3M0 3l6-3" clip-path="url(#c)"/>
    <path stroke="#faf6f5" stroke-width="1" d="M3 0v4M0 1.5h7"/>
    <path stroke="#c40f38" d="M3 0v4M0 1.5h7"/>
    <path d="M0 3h6V0h6v6H0z"/>
  </g>
  <g transform="translate(7200 2400)">
    <g id="e">
      <path id="d" fill="#faf6f5" d="m0-1992 81 249h261l-211 153 81 249L0-1494l-212 153 81-249-211-153h261z"/>
      <use xlink:href="#d" transform="rotate(24)"/>
      <use xlink:href="#d" transform="rotate(48)"/>
    </g>
    <use xlink:href="#e" transform="rotate(72)"/>
    <use xlink:href="#e" transform="rotate(144)"/>
    <use xlink:href="#e" transform="rotate(216)"/>
    <use xlink:href="#e" transform="rotate(288)"/>
  </g>
</svg>
