<svg xmlns="http://www.w3.org/2000/svg" xmlns:xlink="http://www.w3.org/1999/xlink" width="1000" height="572.2" viewBox="-7.217 -4.129 1000 572.2">
  <path fill="#28ac4e" d="M-7.217-4.129h1000v572.2h-1000z"/>
  <path fill="#f30932" d="M-7.217 281.971h1000v286.1h-1000z"/>
  <path fill="#faf6f5" d="M-7.217 186.571h1000v190.75h-1000z"/>
  <g transform="translate(-7.217 155.471) scale(4.4445)">
    <g id="e">
      <g id="c" fill="none" stroke="#faf6f5">
        <path id="b" d="M3 .5h13M3.5 5V2.5h4v2h4v-2H9m-4 2h1m10 0h-2.5v-2h4m0-2.5v4.5h4V0m-2 0v4.5"/>
        <path id="a" stroke-width="2" d="M3 7h9m1 0h9"/>
        <use xlink:href="#a" width="100%" height="100%" y="42.913"/>
        <use xlink:href="#b" width="100%" height="100%" y="51.913"/>
      </g>
      <g id="d">
        <use xlink:href="#c" width="100%" height="100%" x="20"/>
        <use xlink:href="#c" width="100%" height="100%" x="40"/>
        <use xlink:href="#c" width="100%" height="100%" x="60"/>
      </g>
    </g>
    <use xlink:href="#d" width="100%" height="100%" x="60"/>
    <use xlink:href="#e" width="100%" height="100%" x="140"/>
  </g>
  <g fill="#f30932" transform="translate(492.783 281.971) scale(69.285)">
    <g id="f">
      <path d="M-.548.836A.912.912 0 0 0 .329-.722 1 1 0 0 1-.548.836"/>
      <path d="M.618.661A.764.764 0 0 0 .422-.74 1 1 0 0 1 .618.661M0 1l-.05-1L0-.787a.31.31 0 0 0 .118.099V-.1l-.04.993zM-.02-.85 0-.831a.144.144 0 0 0 .252-.137A.136.136 0 0 1 0-.925"/>
    </g>
    <use xlink:href="#f" width="100%" height="100%" transform="scale(-1 1)"/>
  </g>
</svg>
