<svg xmlns="http://www.w3.org/2000/svg" width="900" height="600" fill="none" viewBox="0 0 90 60">
  <defs>
    <clipPath id="a">
      <path d="M0 0h90v60H0z"/>
    </clipPath>
  </defs>
  <path fill="#003188" d="M0 60V0h90z"/>
  <path fill="#18864e" d="M90 0v60H0z"/>
  <g clip-path="url(#a)">
    <path stroke="#faf6f5" stroke-width="20" d="M0 60 90 0"/>
    <path stroke="#c40f38" stroke-width="15" d="M0 60 90 0"/>
  </g>
  <path fill="#ffdc0f" d="m18 6.341 1.553 4.205L23 7.681l-.757 4.418 4.417-.758-2.864 3.448L28 16.341l-4.204 1.553 2.864 3.447-4.417-.757.757 4.418-3.447-2.865L18 26.341l-1.553-4.204L13 25.002l.757-4.418-4.417.757 2.864-3.447L8 16.341l4.204-1.552-2.864-3.448 4.417.758L13 7.681l3.447 2.865z"/>
  <circle cx="18" cy="16.341" r="5.5" stroke="#003188"/>
</svg>
