<svg xmlns="http://www.w3.org/2000/svg" width="1090.625" height="308.125">
  <defs>
    <clipPath id="a">
      <path d="M0 246.5h872.5V0H0v246.5z"/>
    </clipPath>
  </defs>
  <path fill="#c40f38" fill-opacity="1" fill-rule="nonzero" d="M0 308.125h462.188V0H0v308.125z"/>
  <path fill="#faf6f5" fill-opacity="1" fill-rule="nonzero" d="M0 308.125h308.125V0H0v308.125z"/>
  <path fill="#003188" fill-opacity="1" fill-rule="nonzero" d="M0 308.125h154.063V0H0v308.125z"/>
  <path fill="#18864e" fill-opacity="1" fill-rule="nonzero" d="M474.688 307.969h615.937V0H474.687v307.969z"/>
  <path fill="#f30932" fill-opacity="1" fill-rule="nonzero" d="M474.688 205.313h615.937V0H474.687v205.313z"/>
  <path fill="#003188" fill-opacity="1" fill-rule="nonzero" d="M474.688 102.656h615.937V0H474.687v102.656z"/>
  <g clip-path="url(#a)" transform="matrix(1.25 0 0 -1.25 0 308.125)">
    <path fill="#ffdc0f" fill-opacity="1" fill-rule="nonzero" d="M544 204.057c44.594 0 80.745-36.15 80.745-80.745 0-44.594-36.151-80.746-80.745-80.746-44.595 0-80.746 36.152-80.746 80.746 0 44.595 36.151 80.745 80.746 80.745"/>
    <path fill="none" stroke="#0a1a1d" stroke-dasharray="none" stroke-linecap="butt" stroke-linejoin="miter" stroke-miterlimit="4" stroke-opacity="1" stroke-width="5" d="M544 204.057c44.594 0 80.745-36.15 80.745-80.745 0-44.594-36.151-80.746-80.745-80.746-44.595 0-80.746 36.152-80.746 80.746 0 44.595 36.151 80.745 80.746 80.745z"/>
    <path fill="#0a1a1d" fill-opacity="1" fill-rule="nonzero" stroke="#0a1a1d" stroke-dasharray="none" stroke-linecap="butt" stroke-linejoin="miter" stroke-miterlimit="4" stroke-opacity="1" stroke-width="6" d="M544 203.795V65.825m-13.688 65.699h27.376m-27.376-20.257h27.376"/>
    <path fill="#0a1a1d" fill-opacity="1" fill-rule="nonzero" d="M511.49 49.17c32.954-13.457 63.842-.826 63.842-.826s-11.659 12.618-17.638 17.546c-5.831 4.805-22.989 4.615-28.844 0-4.886-3.854-18.899-18.052-17.36-16.72M544 99.222c4.989 0 9.034-5.882 9.034-13.14 0-7.256-4.045-13.14-9.034-13.14-4.989 0-9.033 5.884-9.033 13.14 0 7.258 4.044 13.14 9.033 13.14M544 128.328c6.047 0 10.95-3.104 10.95-6.933 0-3.827-4.903-6.93-10.95-6.93-6.048 0-10.95 3.103-10.95 6.93 0 3.829 4.902 6.933 10.95 6.933M544 164.375c6.047 0 10.95-4.902 10.95-10.951 0-6.047-4.903-10.949-10.95-10.949-6.048 0-10.95 4.902-10.95 10.949 0 6.049 4.902 10.951 10.95 10.951M557.14 194.214c-.004.008.949-1.571-1.048-5.167-9.541-17.181-19.115-17.553-20.931-19.033-2.004-1.629-2.849-1.519-2.849-1.519.143 1.473.276 7.49.381 8.07 1.447 8.028 13.576 7.918 23.067 16.138 1.483 1.283 1.376 1.519 1.376 1.519l.004-.008z"/>
    <path fill="#0a1a1d" fill-opacity="1" fill-rule="nonzero" d="M525.111 157.257s2.143-6.148 2.463-12.319c.514-9.852 9.954-10.129 16.426-10.129v5.475c-4.851 0-9.063.721-12.592 7.939-1.741 3.561-6.297 9.034-6.297 9.034M524.838 77.87s3.446 4.253 7.479 14.223c2.105 5.2 7.091 8.225 11.683 8.225v7.664c-10.417 0-15.413-3.861-15.939-9.505-1.083-11.595-3.223-20.607-3.223-20.607M562.889 157.257s-2.144-6.148-2.464-12.319c-.512-9.852-9.953-10.129-16.425-10.129v5.475c4.85 0 9.063.721 12.593 7.939 1.741 3.561 6.296 9.034 6.296 9.034M563.162 77.87s-3.447 4.253-7.479 14.223c-2.105 5.2-7.09 8.225-11.683 8.225v7.664c10.418 0 15.412-3.861 15.939-9.505 1.082-11.595 3.223-20.607 3.223-20.607"/>
  </g>
</svg>
