<svg xmlns="http://www.w3.org/2000/svg" width="1200" height="720"><path fill="#24a34e" d="M0 0h1200v720H0z"/><path fill="#e30631" d="M0 0h500v308H0Z"/><path fill="#faf6f5" d="M500 103h892v103H500ZM0 308h1200v103H0Zm0 205h1200v103H0Zm226-245-4-17c-7-9-13-30-13-46 0-13 3-59 3-70 0-4 2-6 5-6s5 2 5 6l1 43 4-1v-60c0-4 2-7 6-7s6 3 6 7v56l4-1 1-61c0-5 2-8 6-8s6 3 6 8l1 60h4v-52c0-4 2-7 6-7s6 3 6 7l2 53 5 31h2l8-13c6-10 14-19 21-19 2 0 4 1 4 3s-1 4-3 6c-7 7-9 21-11 27-2 7-6 17-13 26-6 8-18 18-19 21l-2 14h-41Zm24-227 13 40-33-25h40l-33 25 13-40Zm-74 16 13 40-33-25h40l-33 25 13-40Zm-62 46 13 40-33-25h40l-33 25 13-40Zm-36 66 13 40-33-25h40l-33 25 13-40Zm344 0 13 40-33-25h40l-33 25 13-40Zm-36-66 13 40-33-25h40l-33 25 13-40Zm-62-46 13 40-33-25h40l-33 25 13-40Z"/></svg>