<svg xmlns="http://www.w3.org/2000/svg" xmlns:xlink="http://www.w3.org/1999/xlink" width="1200" height="720"><path fill="#012778" d="M0 0h1200v720H0Z"/><path fill="#ffb81c" d="M1032 195c-41 25-99 25-132 0-37 26-95 25-132 0 0 162 4 248 132 330 128-82 132-168 132-330Z"/><path fill="#faf6f5" d="m600 34-154 96h154v100H446l154 96v34h-67L350 243v117H250V243L62 360H0v-34l154-96H0V130h154L0 34V0h67l183 117V0h100v117L538 0h62Zm177 176c38 17 89 17 123-4 37 21 86 21 123 4 0 151-15 175-35 218H812c-20-43-35-67-35-218Z"/><path fill="#c40f38" d="M174 130 0 22V0l212 130ZM330 0h-60v150H0v60h270v150h60V210h270v-60H330Zm270 0h-38L350 130h38L600 0ZM0 360h38l212-130h-38Zm388-130 212 130v-22L426 230Z"/><path fill="#62c1f2" d="M988 428H812c20 34 53 63 88 86 35-23 67-50 88-86Z"/><path id="a" fill="#fd8b32" d="M931 347c-3-3-17 2-35 11-3-8-21-18-17-10 8 16-8 33-34 7-7-7-14-17-15-24 6-7 4-27 0-27-5 0-12 16-10 25-6-7-25-9-25-5s13 14 23 14c9 10 20 48 35 56 2 8-10 14-8 17s25-6 27-11c20-1 46-11 51-37 8-7 11-13 8-16Zm-23 27c0-4 6-4 6 0s-6 4-6 0Z"/><use xlink:href="#a" transform="rotate(120 900 326)"/><use xlink:href="#a" transform="rotate(240 900 326)"/></svg>