<svg xmlns="http://www.w3.org/2000/svg" width="1200" height="720"><path fill="#0a1a1d" d="M0 0h1200v720H0z"/><path fill="#c40f38" d="M0 0h1200v360H0Z"/><path fill="#fcd80e" d="m709 508-3 4-172-131v6l169 128-9 12-168-107c-45-29-48-54-28-94l2 1c0 22 30 43 57 64l152 117Zm40 44c-2 0-3-1-3-3s1-3 3-3 3 1 3 3-1 3-3 3Zm-10-8c-2 0-3-1-3-3s1-3 3-3 3 1 3 3-1 3-3 3Zm-10-8c-2 0-3-1-3-3s1-3 3-3 3 1 3 3-1 3-3 3Zm33 10-50-36-15 20 46 32c0 8 7 15 15 15s15-7 15-15c0-6-4-11-11-16Zm-89-72-34-27c35-29 57-72 57-121 0-74-53-137-122-151l7-25 27 8 9-15 29 15-6 17 27 22 13-11 22 25-12 13 17 30 17-4 10 33-16 6 4 35v2l17 2-3 33h-18l-9 34 14 9-15 29-16-7-21 26 10 14-8 8Zm-77-4 26 17-10 6 4 16-32 10-7-16-31 4-3 17-33-3v-17l-29-7-9 15-29-14 6-16-21-14 16-21c27 21 61 34 97 34 20 0 38-3 55-11Zm-48-197-36-26h44l14-42 13 42h45l-36 26 14 42-36-25-36 25 14-42Z"/></svg>