<svg xmlns="http://www.w3.org/2000/svg" xmlns:xlink="http://www.w3.org/1999/xlink" width="1200" height="720" fill="#6c401f"><path fill="#47a3d8" d="M0 0h1200v720H0z"/><path fill="#faf6f5" d="M0 240h1200v240H0V240Z"/><g id="b"><g id="a"><path fill="#6c401f" d="M622 268v-1l-4-4c-6 6-4 11-4 16 0 10-7 10-7 23 0 4-1 5-2 8l-1-30-1-19-5-1-3 53 20 2v-10c0-14 6-14 6-23 0-5-3-11 1-14Z"/><path fill="#ffb81c" d="m609 314 2-15 1 15 2 1c-1-4-1-7-1-10 0-14 6-15 6-24 0-5-3-9 1-13l-1-2c-5 5-3 9-3 14 0 10-7 11-7 22 0 5-1 8-2 11l2 1Zm-7-1v-33l-1-17-1 1-3 49 1 2 2-22 1 22 1-2Z"/></g><use xlink:href="#a" transform="rotate(22.5 600 360)"/><use xlink:href="#a" transform="rotate(45 600 360)"/><use xlink:href="#a" transform="rotate(67.5 600 360)"/></g><use xlink:href="#b" transform="rotate(90 600 360)"/><use xlink:href="#b" transform="rotate(180 600 360)"/><use xlink:href="#b" transform="rotate(270 600 360)"/><circle cx="600" cy="360" r="48" fill="#ffb81c"/><path d="M607 354c7-7 17-6 23 0l1-1c-7-8-18-8-25 0l1 1Zm10 4c-1 0-4-1-5-2 1-2 4-3 5-3-2 1-2 4 0 5Zm-8 1c5 5 15 4 20-2-5-7-15-7-19-1 2 2 6 3 8 3 5 0 5-5 2-6 2 0 5 2 6 4-3 5-12 5-16 1l-1 1Zm-4 10 2-1c-3-4-4-8-4-11 0-16 19-15 31-8l1-2c-14-8-33-8-33 10 0 4 0 7 3 12Zm-35-15c6-6 16-7 23 0l1-1c-7-8-18-8-25 0l1 1Zm13 4c2-1 2-4 0-5 1 0 4 1 5 3-1 1-4 2-5 2Zm17 18c2 0 4-1 5-2 1 2 6 2 6-2l-1-1c0 3-5 3-5 0 0 1-2 3-5 3s-5-2-5-3c0 3-5 3-5 0l-1 1c0 4 5 4 6 2 1 1 3 2 5 2Zm-29-19c5 6 15 7 20 2l-1-1c-4 4-13 4-16-1 1-2 4-4 6-4-3 1-3 6 2 6 2 0 6-1 8-3-4-6-14-6-19 1Zm24 12c3-5 3-8 3-12 0-18-19-18-33-10l1 2c12-7 31-8 31 8 0 3-1 7-4 11l2 1Zm-2 16c6 2 8 2 14 0l-4-1-3 1-3-1-4 1Zm7 5c-6 0-6-4-11-6 5-5 6-3 11-2 5-1 6-3 11 2-5 2-5 6-11 6Zm0 2c8 0 6-6 14-7-3-3-6-6-9-6-2 0-3 2-5 2s-3-2-5-2c-3 0-5 3-9 6 9 1 6 7 14 7Zm-8 5h1c0-3 3-5 7-5s7 2 7 5h1c0-4-3-7-8-7s-8 3-8 7Z"/></svg>