<svg xmlns="http://www.w3.org/2000/svg" xmlns:xlink="http://www.w3.org/1999/xlink" width="1200" height="720"><path fill="#fcd80e" d="M0 0h1200v720H0Z"/><path fill="#faf6f5" d="M0 40v180l1200 320V360L0 40Z"/><path d="M1200 680V520L0 200v160l1200 320Zm480 480 80 47h100Z"/><path fill="#c40f38" d="M597 204c2 1 5 1 7 0v-21l29 8-12-14 12-10-30-8c1 0 4-1 4-3s-3-3-7-3-7 1-7 3 3 3 4 3v45Zm-23 1c0 10 53 10 53 0 0-4-8-7-21-7v7c-3 2-8 2-11 0v-7c-12 0-21 3-21 7Zm26 34h1l9-9 9 6h1l5-8 9 4c-4-8-7-14-7-23-9 7-44 7-53 0 0 9-3 15-7 23l9-4 5 8h1l9-6 9 9Z"/><path id="a" fill="#c40f38" d="M600 242v75h1v-75h-1Zm0 78v60h1v-60h-1Zm0 63v51h1v-51h-1Zm0 55v33h1v-33h-1Zm0 35v50h1v-50h-1Zm0 53v46h1v-46h-1Zm-5-202c1-3 3-5 5-7v-75l-5-5v22c-7-9-20-16-31-16-37 0-40 24-89 24 0 10 10 17 23 17 14 0 26-15 39-15v2c-12 0-25 15-38 15 0 6 6 11 13 11 12 0 22-17 38-17v2c-12 0-18 9-28 14 0 3 4 8 11 8 13 0 21-16 33-16v2c-9 0-15 9-23 13 1 5 6 8 12 8 12 0 18-13 30-22l1 1c-1 1-3 3-3 6s3 8 10 6v2c-3 1-6 5-6 9 0 5 3 8 8 11Zm-2 65c1-4 4-7 7-9v-60c-2 2-4 6-4 8-3-3-9-6-13-3 6 4 9 11 9 20 0 7-7 20-7 28 0 6 3 14 8 16Zm-4 68c-2-8 5-17 11-23v-51c-3 2-5 5-6 11-3-3-10-8-13-5 3 3 6 7 6 16 0 10-8 17-8 32 0 7 2 13 10 20Zm11 14v-33c-4 4-9 11-9 16 0 3 1 4 2 5l-1 2c-3-1-9-6-11-9-5 0-11-2-15-5 2 14 17 24 34 24ZM391 323c1-2 3-3 4-3-1-8-4-21-9-18 2 4 2 12 2 14l3 7Zm8 18c-5-5-8-11-8-14l-5-10c0-6 0-18-6-18-1 0-2 1-2 2 1 3 2 10 2 16 6 6 9 14 9 19l10 5Zm4 14-3-12-13-6c0-5-3-13-9-19 0-6-1-22-6-22-2 0-3 2-3 4 1 3 2 10 2 16 6 6 10 15 10 22 6 3 16 10 22 17Zm-4 87c9 6 25 6 35 0v-76c0-7-7-17-17-22-11-11-16-22-20-22-3 0-4 2-4 4 0 4 4 10 9 15l3 15-1 3c-4-5-16-15-25-20 0-7-4-16-10-22 0-6-1-23-6-23-3 0-4 4-4 10 0 20 7 40 17 50 9 9 24 25 24 36l-1 52Zm201 130v-46c-39 0-78-17-100-39-9-9-22-11-30-3-7 7-7 18 1 26-11-11-34 0-28 18-9 4-15 14-13 23 4-4 15-8 24-8 21 0 34 24 50 24 8 0 15-6 17-15 19 12 53 20 79 20ZM397 451c11 7 27 7 38 0 2-2 2-5 0-7-10 7-28 7-37 0-2 2-3 5-1 7Zm-3 10c10 7 34 7 44 0 2-2 1-7-1-8-11 8-31 8-42 0-2 1-3 6-1 8Zm-2 10c10 8 38 8 48 0 2-1 3-6 0-8-9 8-39 8-48 0-3 2-2 7 0 8Zm208 52v-50c-67 0-119-53-119-120 0-16 4-38 9-52h-1c-16 15-29 52-29 83 0 78 61 139 140 139Z"/><use xlink:href="#a" transform="matrix(-1 0 0 1 1200 0)"/><g fill="#fcd80e"><path d="M591.2 562.4c4-1.3 6.2-3.7 7.8-8.3.8-2.2 1.3-4.6 1.2-5.2-.3-1.5-2-1.4-3.9.2-1.3 1-1.4 1.6-1 3.7.9 5.5-1 7-11.5 8-1 .1-4 0-6.6-.4-5-.6-6.8 0-5 1.4.6.5 2 1 3 1.4 2.9.7 13 .2 16-.8Zm21.6-1c.6-.5 2.6-1.4 4.5-2 2.5-.8 3.8-1.7 4.9-3.3 3-4.5 2.5-8.4-2-13.7-2.4-2.9-3.5-2.8-5.5.4-1.7 2.7-1.6 3 .8 3.6 1.3.3 2.5 1.2 3.2 2.4 2.6 4.5 1.8 7.3-2 7.4-3.6 0-4.6.5-5.5 2.8-.5 1.2-1 2.4-1 2.8 0 1 1.4.8 2.6-.3Zm-7-5c.6-1.9.8-5.1.8-11.7 0-5.1-.3-9.4-.5-9.6-.6-.6-3.5 1.3-3.9 2.5-.2.6.2 2 .8 3.2.9 1.8 1 3.4.7 10.3-.3 8.7.2 10.2 2 5.2Z"/><path d="M589.1 552.2c.4-1.6.8-5 1-7.4.2-2.4.7-5.5 1.1-6.8 1-3.4 0-4.3-2.7-2.4l-2 1.4.5 5a56 56 0 0 1-1.4 15.7c-.3.8.1.6 1.3-.7.8-1 1.9-3.2 2.2-4.8Zm-15.1 2.1c3.6-3 3.3-8 4.1-12.2 0-2.8 1.9-6 .7-8.5-3.3.5-5.4 3.7-3.8 6.8.1 3.7 0 7.7-2 11-1.6 2-6.5 1.4-6.2-1.6 1.3-4.5-4.2-2.4-6.3-1.2-1.6 1-5.1 1.1-3.8-1.7-.8-3.8-5.7-1.5-8.3-1.6-2.6 0-.2-5-3.8-4.3-6.7-.6-14-.1-19.8-4.3-3.3-1.6-2.8-5.7-1-8.3 2.2-3.6 2.9-8 6.3-10.8 3.3-3.1-3.1-1.9-4.6-.8-3.2 1.7-.3 6.3-3 8.7-1.6 2.6-3.7 6.2-7.2 5.7-5.1-1.1-8-6-11.7-9.2-3.1-.7-1.4 5.1.2 6.3 3.2 2.5 6.9 4.3 10.8 5.4 3.9-.5 4 4.6 7.2 5.4 6 3 12.8 3.9 19.4 4.3 2.6.3 1 5 4.5 4 2 .6 6.3-.6 6.4 1.7-3 3.4 2.8 3.4 4.9 2.8 2.7-.4 6.1-1.3 6.8 2.4 2.2 2.4 6.3 2 9 .8.5-.2.8-.5 1.2-.8Z"/><path d="M515.8 523.6c1-1.3 2.8-4.1 3.7-6.1 1-2 2.3-4.4 3-5.2 1.8-1.8.9-3-2-2.4-1.4.3-2 .8-2.3 2.1-.9 4.2-2.5 8.4-3.8 10.3-2.5 3.6-2.6 3.8-1.6 3.8.5 0 1.9-1.1 3-2.5ZM480.4 500c-2.8 0-3 1.7-.3 2.6 1.3.5 2.4 1.6 3.3 3.4 2.5 5.3 4 6.2 11 7l4.4.4.1 2.7c.1 1.5.5 2.7.8 2.7s2-.7 3.8-1.5c3.3-1.6 6.5-5.4 6.5-7.8 0-1.6-2.5-3.3-5-3.3-1 0-3 .7-4.6 1.9-5 3.5-10.3 2.7-13-2-2.4-4-4.8-6-7-6.1Zm23.8 10c1.3 0 1.6 1 .9 2.8-.5 1.3-2.1 1.3-2.6 0-.5-1.5.3-2.9 1.7-2.9Zm184.3-5.4c-1.8.2-2.3.6-3.4 2.4-1.7 2.8-1.6 8.8.3 10.8 1.1 1.3 1.3 1.3 3.5.3 3-1.5 3.6-1.5 3.7.2.2 4.3-5.6 13-11.9 17.8a14.7 14.7 0 0 0-3.3 3.1c-.4 1.3 2 1 4.9-.8 3.9-2.2 9-8 10.9-12.3 1.5-3.5 1.7-4.7 1.6-10.6 0-5.5-.3-7.1-1.4-8.9-1.1-2-1.4-2.2-4-2h-1Zm.4 3.8c1.4 0 1.6.3 1.9 2.2.2 1.6 0 2.6-.9 3.4-1.2 1.2-1.3 1.2-2.4-.4-1.6-2.2-.9-5 1.4-5.2ZM659.6 548a22 22 0 0 0 11.3-10.6c1-2.2 2-4.2 2-4.6 0-.8-2.9-2-4.6-2s-2-1.3-1.3-4.5c.7-3.1-.2-7-1.5-7-.5 0-1.4.6-2 1.5-1 1.4-1 2-.3 4 1 3 .2 5.2-2.5 7.1-1.2 1-2 2-2 3 0 .9.2 1.6.3 1.6l3.1-1.6 2.9-1.6 1.7 1.3c1 .7 1.7 2 1.7 2.6 0 3.5-10 9.4-16.8 10-3.7.2-4.3.1-5.6-1.1-1-1-1.3-2-1-3.2l.8-3.7c.6-3-.7-2.7-3 .9-1.8 3-2.4 6-1.3 7.7.8 1.4 6.5 2.6 10.5 2.4 2.5-.1 5-.8 7.7-2.1Zm38.9-19.5c3.4-3.8 4.7-8.3 4.4-15l-.3-5.1 3-1.6c3.7-2 7.2-6 7-8s-1-1.9-2.5.5c-1.2 1.7-2.7 2.8-8.6 5.9-1.5.7-1.5 1.1-1.5 7.5 0 7.3-1 10-4.7 15.3-2.4 3.2-2.4 3.6-.7 3.5.7 0 2.5-1.4 4-3Zm-39.5-4.9c.5-1.3-2.1-2.3-3.2-1.2-.5.5-.6 1.3-.3 1.8.7 1.2 3 .8 3.5-.6Zm53.5-14c.3-1-1.8-1.7-2.6-.8-.3.4-.4 1-.1 1.4.6.9 2.4.5 2.7-.6Zm-65-36.1c-1.3.7-2 2.2-3 3.3-.7.5-.2 1 .2 1.4 2.5 2.7 3.5 6.3 4.7 9.6 1.2 4 2.6 8.2 1.4 12.4-.5 1.6-1.7 3.2-3.6 2.7-3-.2-5.9-1-8.9-1-2.6.2-4.7 2.6-7.4 2.3-1.7.1-1.6-3.5-3.2-2.5-.8 1.9-.5 4-.5 6 .3.3 1 0 1.6.2h5.4c.3 1.8.3 4 1.6 5.4 1.9.6 4 0 5.7-.6 2-1 2.2-3.2 2.7-5 .6-1.9 3-1.4 4.5-2.1 3.6-1 6-4.8 5.8-8.5-.2-5.6-2.4-11-4-16.2-.8-2.4-1.4-4.8-2.3-7.1-.2-.2-.4-.4-.6-.3Zm-8.8 32.1c2-.1 2.8 2.3 2.4 4-.7 2.2-3.5.8-4-.8-1-1.5-.4-3.4 1.6-3.2Z"/><path d="M564.8 485.1c-.8 0-1.9.3-2.9 1-5.2 3.5-6.6 7.8-3.1 9.6 2.5 1.3 1.9 2.7-2.3 4.7-5.9 2.8-11 2.4-20.8-1.9-2.4-1-3-.6-2.5 1.6s2.4 3.4 7.3 4.6a28 28 0 0 0 15.9-.7c2-.8 4.5-2.6 6.5-4.7l3.3-3.5 3.7.5c4.5.7 4.6.7 4.6 3 0 1.7 0 1.7 4.2 2.2 2.4.2 5.5.5 7 .5 1.8 0 2.8.4 3.4 1.3.8 1.2 1.3 1.2 8.3.7 6.4-.4 7.7-.4 10.6.7 2 .7 4.3 1 6 .9 5-.5 12-4.4 13-7.4 0-.3 1.9-1 4-1.3 5-1 5.2-2 .6-2.7-2-.3-5-1-6.7-1.7-1.7-.7-4-1.3-5.2-1.4-2.5 0-4.9 1.5-5 3.1 0 1 .4 1.2 3.4 1 2.8-.3 3.6-.1 5 1 1 .9 1.7 1.8 1.5 2.1-.7 1-6.6 3.6-9.2 4a7 7 0 0 1-4.5-.7c-2.2-1.2-5.5-1.5-6.2-.5-.3.5-1 .2-2-.8l-1.5-1.4-3.5 1.4c-3.5 1.4-4.8 1.3-4.8-.4 0-.8-1-.9-6.2-.6-5.7.2-6.3.1-7.4-1-1-1.2-1-1.6-.2-2.7.6-1 .6-1.5 0-2.1s-1.4-.6-3.6 0c-5.8 1.3-7.4.5-7.3-4 0-2.7-1.4-4.3-3.4-4.4Zm-1.4 4c.3 0 .5.3.9.7.5.5.7 1.4.5 2-.5 1.2-3 1.1-3.4-.2-.3-.7 0-1.4.8-1.9.5-.4.8-.5 1.1-.5Z"/><path d="M553 493.1c3.6-2.1 3.5-2 4.1-8 .4-4.3.4-4.7-.8-4.7-1.7 0-2.6 1.8-2.7 5.4 0 2.3-.4 3.3-1.6 4.5-3 2.8-10.1 1.4-11-2.2-.2-1.3.2-2.4 1.7-4.5 3.2-4.4 2.5-5.5-1.4-2.2-2.6 2.3-3.1 2.3-2.6.4s-.4-2.6-2.6-2.1c-1.1.3-1.7 1-2 2.3-.3 1.3-.9 2-2 2.2-1.7.4-4.6-1.3-4.6-2.7 0-1 4.6-6.4 10.4-12.2 2.1-2.2 4-4.2 4-4.6s-1.2-.5-2.6-.6c-2 0-2.6.2-2.6 1.2 0 .6-3 4.3-6.5 8.2-7.5 8.1-8.1 9.8-4.5 12.1a8.8 8.8 0 0 0 9.6-.2l2.4-1.5v2.9c-.1 3.7.6 5.1 3.5 6.7 3.7 2 8.2 1.9 11.9-.4Zm155-47.5c-2.8 1.6-.7 5-.4 7.3-1.2 3-5.2 3.8-8 4.3-4.2.6-7.2 4-8.8 7.5-1 2.4-3 6-5.2 2.4-1.9-2-5.4-3.7-7.7-1.5-1.8 1.7-2.3 4-3 6.3-1-1.8-1.4-4.3-3.5-4.9-3.5.4-2.3 4.8-.7 6.7 1.4 2 2.7 4.9 1.2 7.4-1.3 3-5.8 4.8-8.3 2.2-2.4-1.3-.7-5.9-3-6.2-1.3.9-1.5 5.6-3.3 3-1.3-2.2-.5-5.3-2.2-7.3-2 .2-3.6 3.6-3 5.4 2.5 3.6 3.5 8 4.4 12.3.6 1.8-.2 5.2 1.4 5.9 1.2-2.7.2-5.8 1.1-8.6 2.6-.2 5.5 1 8.2.5 3.8-.5 6.9-3.6 8.3-7 .5-2.7 0-5.3 0-8 3.1.6 6.3.7 9.2 1.7 1.4 2.3-.6 5.4-1 7.8-1.7 5-5.7 8.4-9.6 11.7-1.6.9-1.8 3.3.5 2 5.2-2 9-6.5 11.4-11.4 1.6-3.8.5-8.1 1.6-12 1.6-3 5.3-2.2 8-2.1 2.8 0 5.3-3.3 4.5-6-.9-3.3 2.5-4.7 4.9-5.8 3-1.5 5.5-4.6 5.3-8.1 0-1.8.1-5.3-2.3-5.5Zm-11.3 18.2c3.3 1-.8 7-2.4 3-.5-1.5.8-3.1 2.4-3Zm-15.3 4c4.3 0 2.6 6.1-1 3.2-1.8-1-1.1-3.3 1-3.1Zm-154.5 21.8c.2-.8-.2-1.4-1-1.4-1.4 0-2.3 1.3-1.6 2.4.7 1.2 2.3.6 2.6-1Zm50-5.7c0-1.1-.4-1.5-1.3-1.4-2 .4-2.3 3-.3 3 1 0 1.6-.5 1.6-1.6Zm-61.5-31c-2-.5-3.3 1.2-4 2.8-1.5 2.4-3.4 5-6 6.2-2 .5-4-.2-5.7-1.2-2-1-1.5-3.4-2.3-5.1-1.4-1.2-4 .4-4 2.2-.2 2.3 2 3.7 3.8 4.6 1.5 1 3.8 1.6 4.3 3.5 0 1.6.6 3.5 2.6 3 2.2 0 2.7 2.6 1.8 4.2-1 1.8-1.6 4-1.2 6 1 1 2.2-1.4 3-2.1l1.6-2c3.9.2 7.8.8 11.7.7 2.8 0 5.2-1.7 7-3.7 2.6-2.6 4.7-5.6 7.7-7.8 2-.5 1-4.4-1.2-3.3-2 .7-2.6 2.9-4 4.2a46 46 0 0 1-7.5 7.6c-2.1.8-4.5.4-6.6-.1-1-.8 1.8-1.4 2.2-2.3 1.2-1.2 2.7-2.3 3.4-4-.6-1.4-2.7-1.6-4.2-1.6-3.6.3-6.4 3.3-10 3.6-2.9 0-1.4-3 0-4 2.4-2.8 5.1-5.5 7.7-8.3.8-.9 3.4-1.6 1.7-2.9-.5-.2-1.2-.2-1.8-.2Zm1.5 14.7c1.8 1-1.2 2.7-2.4 2.4-1.7.5-1.7-1.2-.2-1.5.8-.4 1.7-.9 2.6-1Zm-5.7 3.7c1 0 3.2 1 1.2 1.7-1.4 1-3-1.2-1.1-1.7Z"/><path d="M556 474.6c0-2-3.5-1.7-3.9.2-.3 1.3.1 1.6 1.8 1.4 1.1-.1 2-.9 2-1.6Zm109.7-7.3c.3-1.3-1.5-2.2-2.5-1.3s-.1 2.8 1.2 2.6c.6 0 1.2-.7 1.4-1.3Zm-171-17c1.7-1.4 1.7-1.5 1-4.8-1-4.6-.9-5 .8-5.5 2.3-.5 7.8 2.6 9 5 1 1.9.9 2-.8 3.5-1.8 1.6-1.8 3.5 0 3.5 1.4 0 5.5-3.7 5.5-5 0-2-4.3-6.5-7.8-8.2-2.2-1-4.3-1.6-6.9-1.6-4.5-.1-5.1.9-4 6.1 1.3 6.2-.6 7-5.5 2.3-3.6-3.5-5-7.1-4.9-12.8.1-6 2.5-9 7.7-9.6 3.5-.4 3.4-1.2-.1-1.8-5.2-.9-9.7 2.5-11.4 8.7-2 6.8 2 15.3 9.5 19.8 4 2.3 5.5 2.4 7.8.4Zm204.4-3.2c.4-.4.8-1.4.8-2s.8-2.4 1.7-3.6c.9-1.1 1.6-2.3 1.6-2.6 0-1.2-2-1.2-3.5 0-1.7 1.2-2.9 1.2-2.9 0 0-.3.8-1 1.8-1.4 2.3-1 2.6-2.2.6-3.1-2.5-1.2-5 .8-5.4 4.3-.2 2.3 0 2.7 1.7 3.8 1.6 1 1.9 1.5 1.6 2.9-.5 2.3.4 3.2 2 1.7Zm19.3-1.7c1.4-1.2 2.6-2.7 2.6-3.1s1.3-1.8 2.8-2.8c4.3-3 5.3-6 3.5-10.8a32 32 0 0 0-7.8-9.1 50.5 50.5 0 0 0-7.8-6.6c-1.3 0-1.2 5 .2 5.5 2.5 1 4 2 7.8 5.6 4.5 4.3 6.5 8.2 5.3 10.3-1.1 2.1-2.6 1.4-6.5-3-2.1-2.4-4.2-4.3-4.6-4.3-.5 0-.8.8-.9 2 0 1.4.8 2.8 2.8 5.2 3.3 4 3.6 6.2 1 8.2-1 .7-2 1.3-2.2 1.2s-.9-1.1-1.6-2.5c-1.3-3-9.9-12.4-11.2-12.5-.6 0-.9.8-1 2.2 0 1.8.4 2.5 1.8 3.2 1.7 1 5.9 5.4 10 10.7 1.3 1.5 2.5 2.8 2.7 2.8.3 0 1.7-1 3.1-2.2Zm11.2-24.4c-.5-1.9-12-14.3-13.2-14.3-.6 0-.8.7-.7 2.7 0 2.3.3 2.7 2 3.2 1 .3 4 2.8 6.7 5.5 2.7 2.8 5 5 5.3 4.7.2-.2.1-1 0-1.8Zm-73.1 132.6c0 .9-.8 1.6-1.8 1.6s-1.7-.7-1.7-1.6.8-1.6 1.8-1.6 1.7.7 1.7 1.6Zm6.2-2c0 .8-.8 1.5-1.8 1.5s-1.7-.7-1.7-1.6.7-1.6 1.7-1.6 1.8.7 1.8 1.6Z"/></g></svg>