<svg xmlns="http://www.w3.org/2000/svg" xmlns:xlink="http://www.w3.org/1999/xlink" width="1200" height="720"><defs><use xlink:href="#a" id="d" transform="scale(.8)"/><use xlink:href="#a" id="f" transform="scale(.7)"/><use xlink:href="#a" id="e" transform="scale(.6)"/><use xlink:href="#a" id="g" transform="scale(.5)"/><path id="a" d="M0-8 5 7-8-2H8L-5 7Z"/></defs><path fill="#24a34e" d="M0 0h1200v720H0z"/><path fill="#fcd80e" d="m120 360 480 288 480-288L600 72 120 360Z"/><circle id="b" cx="600" cy="360" r="196" fill="#012778"/><clipPath id="c"><use xlink:href="#b"/></clipPath><g fill="#faf6f5"><g clip-path="url(#c)"><path d="M400 284a476 476 0 0 1 414 122l-20 20a448 448 0 0 0-387-114Z"/></g><use xlink:href="#a" x="436" y="327"/><use xlink:href="#a" x="453" y="405"/><use xlink:href="#d" x="432" y="420"/><use xlink:href="#e" x="473" y="393"/><use xlink:href="#d" x="495" y="423"/><use xlink:href="#f" x="489" y="441"/><use xlink:href="#a" x="664" y="300"/><use xlink:href="#a" x="741" y="425"/><use xlink:href="#f" x="768" y="427"/><use xlink:href="#d" x="749" y="441"/><use xlink:href="#d" x="701" y="480"/><use xlink:href="#f" x="701" y="499"/><use xlink:href="#f" x="721" y="466"/><use xlink:href="#d" x="737" y="456"/><use xlink:href="#f" x="700" y="462"/><use xlink:href="#d" x="523" y="368"/><use xlink:href="#f" x="655" y="351"/><use xlink:href="#a" x="600" y="443"/><use xlink:href="#d" x="623" y="406"/><use xlink:href="#d" x="600" y="390"/><use xlink:href="#f" x="580" y="406"/><use xlink:href="#e" x="590" y="419"/><use xlink:href="#d" x="660" y="485"/><use xlink:href="#f" x="678" y="468"/><use xlink:href="#f" x="644" y="464"/><use xlink:href="#a" x="519" y="458"/><use xlink:href="#g" x="600" y="505"/></g><path fill="#24a34e" d="M771.4 395.5c2.6 1.6 5.9.9 8-1.8 1.7-2.9 1.1-6.3-1.7-8-2.9-1.9-6.3-1.2-8.1 1.7a5.9 5.9 0 0 0 1.8 8.1Zm11.1.2a9.2 9.2 0 0 1-12.9 2.6 9 9 0 0 1-3-12.9 9.3 9.3 0 0 1 12.9-2.6 9.2 9.2 0 0 1 3 12.9Zm-25-13.1c-1.9 2.4-5.7 2.5-9.2-.5-1.5-1.3-2.4-3-2.9-4l2.1-3c.7 1.6 2.1 3.9 3.3 4.9 1.6 1.1 3.1 1.3 3.7.4 1.6-2.2-5.9-8.1-2.2-12.3 1.8-2.1 5-2.1 7.6-.2 1.4 1 2.9 2.8 3.5 4.2l-2 2.9c-.7-1.5-2.1-3.3-3.3-4.3-1-.7-2-.6-2.6 0-2.1 2.5 5.5 7.4 2 11.9Zm-17.8-12.1c-1.8 2.5-5.6 2.7-9.2-.2a12 12 0 0 1-3-3.9l2-3.1c.7 1.6 2.2 3.9 3.5 4.8 1.6 1.1 3.1 1.2 3.7.3 1.5-2.3-6.2-7.9-2.7-12.2 1.8-2.2 5-2.3 7.6-.5 1.5 1 3 2.7 3.7 4.1l-1.9 3c-.8-1.5-2.2-3.3-3.5-4.2-1-.7-2-.6-2.6.1-2 2.5 5.8 7.2 2.4 11.8Zm-20.9-7.5-9.4-5.4 9.1-15.6 9.4 5.4-1.7 2.9-6.1-3.6-2 3.5 5.7 3.2-1.6 2.8-5.7-3.3-2.1 3.7 6.1 3.5Zm-20-22.1c1.5.8 3.2.6 4-.8.7-1.3 0-2.8-1.6-3.6l-2.1-1.1-2.3 4.5 2 1Zm3.2 12.6-3.9-2-2.1-10.1-3.6 7.1-3.4-1.7 8.3-16.1 5.9 3c3.1 1.6 4.5 4.5 3 7.7a5.8 5.8 0 0 1-6.2 2.9Zm-20.8-12.9c-2.3.4-5.7 0-8-1-4.8-2.2-6.9-7.3-4.8-12.3 2.2-5 7.6-6.8 12.9-4.4 1.8.8 3.9 2.5 4.9 3.9l-1.6 3.6a11 11 0 0 0-4.6-4.3c-3.4-1.4-6.9-.3-8.2 2.7a5.8 5.8 0 0 0 3.1 7.8c1.2.5 2.5.7 3.8.7l1.2-2.6-4.4-1.9 1.3-2.9 7.7 3.4ZM649.5 326c2.9 1.1 6-.3 7.4-3.4 1.1-3.2-.2-6.4-3.3-7.5-3.2-1.2-6.4.2-7.5 3.4a5.8 5.8 0 0 0 3.4 7.5Zm10.9-2.1a9.3 9.3 0 0 1-12.1 5.3 9 9 0 0 1-5.6-12 9.4 9.4 0 0 1 12.1-5.3c4.9 1.7 7.4 7 5.6 12Zm-32.7-12.4c1.4.5 3.4.1 3.8-1.4.4-1.6-.6-2.8-2.1-3.3l-2.2-.7-1.6 4.7Zm5.3 11.9-4.2-1.4-3.7-9.5-2.4 7.6-3.6-1.1 5.5-17.3 6.3 2c4 1.4 4.9 4.7 4.2 7.1a6.1 6.1 0 0 1-5.6 3.9Zm-26.6-17.9c1.4.5 3.4-.4 3.7-1.8.4-1.6-.9-2.8-2.5-3.3l-2.1-.6-1.3 5.1 2.2.6Zm-4.7 8.6-3.6-1 4.6-17.5 6 1.6c3.6 1 6.1 3.8 5 7.4-.9 3.7-4.2 5.1-8 4.2l-2.4-.7Zm-25.2-5.8-10-1.9 2.9-15.5 10 1.9-.6 3.2-6.4-1.2-.6 2.9 6 1.1-.6 3.1-6-1.2-.5 3.2 6.4 1.2Zm-32.9-5.4-3.7-.4 1.2-11.3-6.5 6.2-4.7-7.4-1.3 11.3-3.7-.4 1.9-18 2.6.3 5.8 9 7.6-7.6 2.6.3Zm-28.4-2.6-10.7-.5.8-18.1 10.8.5-.1 3.4-7.1-.4-.2 4 6.6.3-.2 3.2-6.5-.3-.2 4.2 7 .4Zm-32.1-4.2h3.2c4 0 5.3-3.1 5.3-5.8 0-3.4-1.9-5.6-5.3-5.6h-3.2Zm-3.8 3.4v-18.1h6.6c5.7 0 9.3 3.3 9.4 8.9a9 9 0 0 1-9.1 9.2Zm-19.8-8.9 2.2-.2c1.4 0 3.2-1.1 3-2.7-.2-1.7-1.5-2.4-3.1-2.3l-2.4.2Zm-3.3 9.9-.9-18.1 6.5-.3c4.2-.2 6.3 2.6 6.5 5 .2 2.2-1.5 5-3.9 5.7l6.4 6.9-4.4.2-6.8-7.6.4 8Zm-18.8-1.5c3.1-.3 5.3-3.1 5-6.5-.3-3.2-3-5.4-6.3-5.1a5.8 5.8 0 0 0-5.1 6.4 5.8 5.8 0 0 0 6.4 5.2Zm.5 3.4c-5.5.6-10.2-3-10.6-8.2a9.6 9.6 0 0 1 8.4-10.2c5.4-.4 10 3.1 10.5 8.1a9.4 9.4 0 0 1-8.3 10.3Z"/></svg>