<svg xmlns="http://www.w3.org/2000/svg" xmlns:xlink="http://www.w3.org/1999/xlink" width="1000" height="600"><path fill="#e30631" fill-rule="evenodd" d="M0 0h1000v600H0z"/><path fill="#012778" fill-rule="evenodd" d="M0 60h1000v480H0z"/><g transform="matrix(.8 0 0 .8 154.642 48.648)"><circle cx="414.43" cy="301.623" r="210" fill="#faf6f5"/><path fill="#9d7a51" stroke="#0a1a1d" stroke-width=".57" d="M305.1 382c-.3 1.4-.9 3.5-1.1 6.1 0 .6-.6 3.6 1.1 3.8 1.3 0 1.6-3.2 1.6-3.2s-1.1 3.6.4 4c2 .5 2.2-4 2.2-4-.2 1.3-1.6 4.5.4 4.9 2 .3 2.6-4.4 2.6-4.4s-1.7 4.7.3 4.8c2 .1 2-4.5 2-4.5s-1 5.6 1.7 5.1c1.5-.2 1.8-2.2 2.2-3.3.4-1.7 1.4-3.9.2-7.4-1-2.6-.6-3.3-.6-3.3s-3.2 2.4-5.7 4c-1.1.7-7.3-2.7-7.3-2.7zm33.3-5c-.6-.3-.5 2-.7 3.2-.1 1.2.2 3.7 4.1 3.5 3.8-.4 7.5-1.2 10-.6 2.3.7 5.9.8 7.8.8 2 0 3.2-.2 4.1-.6.8-.3 2.5.5 3.3.5.8 0 2-1.3 2-2-.2-1.6-1.5-1.6-3.5-1.7-1.8-.2-4.3-.6-5.6-1-1.2-.5-3.5-1.7-6.3-2.3l-6.6.2c-1.2 0-8 .4-8.6 0z"/><path fill="none" stroke="#0f7d3a" stroke-width=".57" d="m320 385.1-.2-5.2 2.2 1.8.6-4c.9-.2 2.4 1.6 2.4 1.6l-.3-4 3.3 3.7s-.2-3 1-5c0 0 2.4 2.3 2.4 4.8 0 2.1 2.2-3.1 2.2-3.1l1.8 5.8 1.5-2.2 1.3 4.6 2.7-4 2.2 4.7 4.9-.4.5 2.8 2.2-2.4 2.9 1.8s2.3-.7 3.6-.7c1.3 0 2.7 1.6 2.7 1.6s1-1.6 1.9-2.2c.9-.5 2.1 1 2.5 1.9l1.8-3.3s2.4 2.4 2.7 3.3c0 0 .4-2.8 1-3.7.5-.9 1.4.4 2.1 1.5l1.5-4.9s1.6.3 2.7 2.2c1.3 1.8 1.3-2.8 1.3-2.8s2.7 3.7 3.4 6.2m68.6-1s.9-2.4 2.1-3.7c0 0 2.4 2.9 2.4 3.8l2-1.3 1.8 1.8 2.2-1.4 2 1.8 3.8-1.6 1.5 1.6 5.8-.7 2.1 1 2-2.7 2 2 3.1-3s1.5 1.2 1.8 2.1c0 0 2.5-1.2 3.1-2.1 0 0 2.4-1 2.7.5 0 0 1.5-1.1 1.4-2.4-.1-1.2 1.7-.3 2.3 1.3 0 0 .7-2.5 2.5-2.7 0 0 1.2 1.4.9 4.2 0 0 2.7-2.2 4-2.4 0 0 .6 3-.4 5.8 0 0 2.9-4.7 3.5-3 .2.8.9 4 .2 6l2.5-1.5 1 3 2.6-.5m-128 9.3s2-3.4 3.3-4.4c0 0 2.7 2.2 3.7 5 0 0 .3-1.9 1.2-3.5 0 0 3.4 1.6 4 3.8 0 0 1.3-2.2 2.2-2.8.9-.6 1.8 2.4 1.8 4.3 0 0 2.2-2.3 3.4-2.4 0 0 2.4 1.1 3 5.1 0 0 2.4-2.2 3.2-1.8 0 0 2.7 1.8 2 4.3-.3 1.4 2.7-1.6 6.5-2.5l3.3 2.5 4-5.5s2.5 1 2.5 2.4c0 0 1.1-4.3 2-4.8 1-.5 2.2 1.4 2.2 2.7 0 0 .4-3.3 2.2-4 0 0 1.8 1.2 1.8 2.5 0 0 2-3.8 3.4-4.7"/><path fill="#24a34e" d="m320 385.1-.2-5.2 2.2 1.8.6-4c.9-.2 2.4 1.6 2.4 1.6l-.3-4 3.3 3.7s-.2-3 1-5c0 0 2.4 2.3 2.4 4.8 0 2.1 2.2-3.1 2.2-3.1l1.8 5.8 1.5-2.2 1.3 4.6 2.7-4 2.2 4.7 4.9-.4.5 2.8 2.2-2.4 2.8 1.8s2.4-.7 3.7-.7 2.7 1.6 2.7 1.6 1-1.6 1.9-2.2c.9-.5 2.1 1 2.5 1.9l1.8-3.3s2.4 2.3 2.7 3.3c0 0 .4-2.8 1-3.7.5-.9 1.4.4 2 1.5l1.6-5s1.6.4 2.7 2.3c1.3 1.8 1.3-2.8 1.3-2.8s2.7 3.7 3.4 6.2c0 0-18.9 6.5-32.2 4.7-15.7-2.1-28.6-5-28.6-5m129.4-.6s.9-2.5 2.2-3.8c0 0 2.3 2.9 2.3 3.8l2-1.3 1.8 1.8 2.2-1.4 2 1.8 3.8-1.6 1.5 1.6 5.8-.7 2.1 1 2-2.7 2 2 3.1-3s1.5 1.2 1.8 2.1c0 0 2.5-1.2 3.1-2.1 0 0 2.4-1 2.7.5 0 0 1.5-1.1 1.4-2.4-.1-1.2 1.7-.3 2.3 1.3 0 0 .7-2.5 2.5-2.7 0 0 1.2 1.4.9 4.2 0 0 2.7-2.2 4-2.4 0 0 .6 3-.4 5.8 0 0 2.9-4.7 3.5-3 .2.8.9 3.9.2 6l2.5-1.5 1 3 2.6-.5s-16.1 2.5-31.4 1a130.8 130.8 0 0 1-29.5-6.8M438 395.9c.8-.5-5 12-19.2 12.6-19.7 1-36.5-8.9-36.5-8.9s2-3.4 3.3-4.3c0 0 2.7 2.2 3.6 5 0 0 .4-2 1.3-3.5 0 0 3.4 1.6 4 3.8 0 0 1.2-2.2 2.2-2.8.9-.7 1.8 2.4 1.8 4.2 0 0 2.1-2.2 3.4-2.4 0 0 2.4 1.2 3 5.2 0 0 2.4-2.2 3.2-1.9 0 0 2.7 1.9 2 4.4-.3 1.3 2.7-1.6 6.5-2.5l3.3 2.5 4-5.5s2.5 1 2.5 2.4c0 0 1.1-4.3 2-4.8 1-.6 2.2 1.4 2.2 2.6 0 0 .4-3.3 2.2-4 0 0 1.8 1.3 1.8 2.6 0 0 2-3.8 3.4-4.7z"/></g><path fill="#24a34e" d="M531.6 183.3s-1.1-.1-2.2-.9l2.2.9"/><g fill="none"><path stroke="#0f7d3a" stroke-width=".475" d="M531.6 183.3s-1.1-.1-2.2-.9"/><path d="m507 202 1.2.8 1.4.2 3 2.6c1.2 1 1.2-.2 1.2-.2l.8 3h1l-.2 3 1.8-1.5 2 1.8s1.6-1.3 2.3-1.3c.8 0 1-.7 1-.7h.2c-5-2.4-7.3-4.9-5.7-7.4 2.4-4.3 6.5-1.6 7.8-1l18.5 9.9s1.2-.8.3-1.5c-.9-.8-1.3-2.7-1-3.5.3-.7 2.4 2.4 3.4 2.7l3.4.7v-1s3 2.1 3 3.2c0 0 2.2-1.2 1.4-1.9-.8-.6 3.3 1.7 3.6 2.9l.9-1c-.1 0 .3-3 1.3-4.4 1-1.4 2-1.8 2-1.8s1-1.6 1.9-1.6c0 0-1-.7-1.3-1.5-.5-.7-1.6-1.1-1.6-1.1s1.4-1 1.8-1.5c.3-.6.7-.7.7-.7s-2.2-1.8-3.7-2c0 0 0-2.5-2-2.7h.9s-1.4-2.7-2.8-2.8c0 0 .9-1 1.6-1 0 0-1.6-2.1-3.8-1.4l1.5-.5s-1-1.2-4.3-.6c0 0 .3-1.3-1.1-2.4 0 0-1.3.1-1.3 1 0 0-1.1-1-2.5-1-1.5 0 .4 1.5.4 1.5s-1.9-1.2-3-.8c0 0 .5-2.2-.8-3.3 0 0-1.4.7-1.8 1.7l-.4-1s-1.8 2.3-2.2 1.6c-.3-.3-.6-2-.6-2l-1.1 1.8.2-2.4s-1.4.7-2.4 3.2c0 0-1.4 1.2-1.4 2.4 0 0-1-1.2-2 0-.8 1.3 0 1 0 1s-.3.5-1.3.7l.2.8s-1.2-.7-2.2-.4l.5 1.1s-2.5.2-2.6-1.8c0 0-2-1-2.3.1 0 0-1.7 0-1.6 1 0 0-.4-1-1.3-1.2-1-.3-.2 1.2-.2 1.2s-.3-1-1.4-1.7c-1.1-.4-.2 1-.2 1s-1.5-1.1-.7-2.1c0 0-1.5 1.3-.8 2.6l-1 .6s-.4-.4-.3-.8c0-.4-1.6 1.1-1.6 1.1s-1-2.5 0-2.5c0 0-1.9 0-2.1 2.1-.3 2.1 0 0 0 0s-1.3.1-2.4.5c-1.2.4.8 1.2.8 1.2s-1.8-.3-2.8.2l.7.9s-.7-.7-2.3-.1c-1.7.5.4.8.4.8s-1.7-.4-2.6 0c-.9.3.3 1 .3 1s-3.1-1-3.6-.7c-.5.3 1 1.8 1 1.8s-1.9.5-2.3 2l1.8.6s-.8.4-1.2 1.1c-.4.8 1.2.4 1.2.4s-2.1 1.5-2.1 2.7c0 0 1.5.5 2.6-.7 1.2-1.1.4-.7.4-.7l.1.7s2.2-1 2.2-1.5-.4.8-.4.8l2.2-1.2 1.4 1"/><path d="m505.2 172.4-.5-2s2.6 0 4.9.5l.8-2s2.3 1 3 1.8c0 0 4.5-1.1 5.9-.6l-.6 2s4 .3 5.4.8c1.2.5-.6 1.5-.6 1.5s4.7.6 6.7 1.8c2 1.3 2 2.3 1 2.6l2.6 4s-4.1.6-4.9 1.6c-.7 1-1.5-1-1.5-1l-.7 2.8S524 185 523 184c0 0-1.3 1.5-.5 2.3 0 0-3.3 0-4.7-3 0 0-2-.3-2 1.5l-2.8-3.3-2.6.7s-.7-1-1.7-1.3c-1-.2-.3 1.3-.3 1.3l-1.5-1.8-1.5-1.8s-1.4 1.8-2.4 1.8-1-1.2-.8-2c.3-.8-3-1-3.3 0 0 0-1-3.9 2.6-5l3.6-.9"/></g><g stroke-width=".475"><g fill="#f76230" stroke="#0a1a1d"><path d="M528.8 184.5s.6-1.3 1.7-.6c1 .8 1.2 4.1 1.2 4.1l-1.5.8s.8-1.3-1.4-4.3zm-8.6 29.8s.8-1-.3-3.3l1.5-.5s.6 1.8-.1 3.8h-1m26.2-5.2-3.6 2.2 1.8.8 4.4-2.5-2.6-.5m-48.3 14.1c-1 .8-1 2.1-1.6 2.9-.5.7-2 1.8-2 3-.2 1-.3 1.8.2 3.4.5 1.5 2.9 8.2 2 13.3-1.1 5.2-.7 7.4-.3 8.1.3.8 1.5 2.9 2.1 2.9 1.6-.2.9-.7 1.5-1.7 1.4-2.4 0-21.5-.7-26.8-.5-4.1-2.4-7.8-2.6-8.2l-.8-2.5c-1.4-3.4-3.1-6.3-3.1-13.5 0 0-4.7 1-8.7-8-2-4.5-5.1-4-8.7-5.5l1.6-1s3 1.4 4.6 1.4c1.5 0 1-3 1-3l1.5-1.5v6.6c0 3 4.2 7.3 6.7 8.5 1.5.7 3.5-2.4 3-5.4-.5-3 0-7.1 0-7.1l2 1.2s-.7 1.3-.5 2c.3.8 1.3-.7 2.1-1.4l1 .1-2.3 4c-.8 1.2-.8 6-.8 7.8s.7 6 .7 7.3c0 1 1.8 4.9 3.2 7.3a202 202 0 0 1 1.6 3.4c1.2 1.8 1.3 3 2 4.5.3.8 1 3 1.5 6.8l.6 6.9c.3 2.3 2.2.5 4.5-1.1 2.3-1.7 2.3-5.8 2.3-5.8s1.8-1.6 1.5-.7c-.2 1 1 1.9 1 1.9-1.5 3.2-.6 2.9.8 2.8 1.4-.2 6.3-4 6.3-4 .7-.1 3.7-.1 3.2 0-.6.3-1.4 1.8-1.4 1.8l3.3-.4-6.4 3.9a88 88 0 0 1-8.3 4c-2.2 1-6.5 3-6.7 5.2 0 2.2.3 8 0 10l-1 10.3H494s2-7.4-.1-9.4c-2-2-6.6-8.1-9.7-10.2-3-2 2-.5 2-.5v-2.1l4.7 5.6s8-7.1 0-16.8c-2.6-3-5.2-7.7-7.2-8.2-2-.5-3-1-6.6 0-3.6 1-12.3 1-15.9-4.6l3-.5 2.6-1s-1 3.6 6.2 3.6c7.1 0 8.2 0 7.6-6.7l2.1-1 1.5 1.5s-1 3.6-.5 5.1c.5 1.5 3 2.6 5 4.1 1 .7 1.6.8 2.2.8.8-.1 1-.1 2.1-1.3 1.8-1.9 1.4-1.8 3-3.3l1.1-1.5 1 2.7z"/><path d="M499.7 218.2c.4-.4 1.1-1.8 1.8-3 1.1-2 2.5-3 4-5.4 1.4-2.2 2-5.5 1.4-7.7l1.3.7.1 3.6s1.8-1.5 2.6-1.9l.8.4s-5.7 5.9-11 15.4l-1-2zm-50-19.7c.8 1.3 1.6 3.9 3.9 5.8l1.5-.4s-3.5-4.1-3.5-6l-1.8.6m8.9-2.3s.4 4.8-.8 6.6l1.5-.7s1-3.4.8-5.2l-1.5-.7zm50-15.3s-.3 6.8 1 11l1.9-.6s-.3-1.2 1.2-1.8a25 25 0 0 0 7-3.5l-.6-1.5s-2.8 2.2-4.1 2.7c-1.3.5-2 1-3 .8-1.1-.3-2.3-2-1.6-5.9zm20.1 31.9s-.4 4.8-.1 7l1.6.3s-.4-5.8.6-6.3l-2-1m7.2 3.6s-1.8 3.1-4 3.4l3.4-.6s1-.5 2.4-2l-1.8-.8"/></g><g fill="#0f7d3a" stroke="#036a4a"><path d="m507 202 1.2.8 1.4.2 3 2.6c1.2 1 1.2-.2 1.2-.2l.8 3h1l-.2 3 1.8-1.5 2 1.8s1.6-1.3 2.3-1.3 1-.7 1-.7h.2c-5-2.4-7.2-4.9-5.7-7.4 2.4-4.3 6.5-1.6 7.9-1l18.4 9.9s1.2-.8.4-1.5c-1-.8-1.4-2.7-1-3.5.2-.7 2.3 2.4 3.3 2.7l3.4.7v-1s3 2.1 3 3.1c0 0 2.2-1 1.4-1.8-.7-.6 3.3 1.7 3.6 2.9l.9-1c-.1 0 .3-3 1.3-4.4 1-1.4 2-1.8 2-1.8s1-1.6 1.9-1.6c0 0-1-.7-1.3-1.5-.5-.7-1.6-1.1-1.6-1.1s1.4-1 1.8-1.5c.3-.6.7-.7.7-.7s-2.2-1.8-3.7-2c0 0 0-2.5-2-2.7h.9s-1.4-2.7-2.8-2.8c0 0 .9-1 1.6-1 0 0-1.6-2.1-3.8-1.4l1.5-.5s-1-1.2-4.3-.6c0 0 .3-1.3-1.1-2.4 0 0-1.3.1-1.3 1 0 0-1.1-1-2.5-1s.4 1.5.4 1.5-1.9-1.2-3-.8c0 0 .5-2.2-.8-3.3 0 0-1.4.7-1.8 1.7l-.3-1s-2 2.3-2.3 1.6c-.3-.3-.6-2-.6-2l-1.1 1.8.2-2.4s-1.4.7-2.4 3.2c0 0-1.3 1.2-1.3 2.4 0 0-1-1.2-2 0-.9 1.3 0 1 0 1s-.4.5-1.4.7l.2.8s-1.2-.7-2.2-.4l.5 1.1s-2.5.2-2.6-1.8c0 0-2-1-2.3.1l-1.5 1s-.5-1-1.4-1.2c-1-.3-.2 1.2-.2 1.2s-.2-1-1.4-1.7c-1.1-.4-.2 1-.2 1s-1.5-1.2-.7-2.1c0 0-1.5 1.3-.8 2.6l-1 .6s-.4-.4-.3-.8c0-.4-1.6 1.1-1.6 1.1s-1-2.5 0-2.5c0 0-1.8 0-2.1 2.1 0 0-1.3.1-2.4.5-1.2.4.9 1.2.9 1.2s-1.9-.3-2.9.2l.7.9s-.7-.7-2.3-.1c-1.7.5.4.8.4.8s-1.7-.4-2.6 0c-.8.3.3 1 .3 1s-3.1-1-3.6-.7c-.5.3 1 1.8 1 1.8s-1.9.5-2.3 2l1.8.6s-.8.4-1.2 1.1c-.4.8 1.2.4 1.2.4s-2.1 1.5-2.1 2.7c0 0 1.5.5 2.6-.7 1.2-1.1.4-.7.4-.7l.1.7s2.2-1 2.2-1.5-.4.8-.4.8l2.2-1.2 1.4 1z"/><path d="m505.2 172.4-.5-2 4.9.5.8-2s2.3 1 3 1.8c0 0 4.5-1.1 5.9-.6l-.6 2s4 .3 5.4.8c1.2.5-.6 1.5-.6 1.5s4.7.6 6.7 1.8c2 1.3 2 2.3 1 2.6l2.6 4s-4.1.6-4.9 1.6c-.7 1-1.5-1-1.5-1l-.7 2.8s-2.6-1.3-3.6-2.3c0 0-1.3 1.5-.5 2.3l-4.7-3s-2-.3-2 1.5l-2.8-3.3-2.6.7s-.7-1-1.7-1.3c-1-.2-.3 1.3-.3 1.3l-1.5-1.8-1.5-1.8s-1.3 1.8-2.4 1.8c-1 0-1-1.2-.7-2 .2-.8-3-1-3.4 0 0 0-1-3.9 2.6-5l3.6-.9zm-18.4 13-1.6 1.6-1-.5-1.9 2-.4-1-1 1.7-1.6-.6-.8 1.2-1.4-.3s-1.2 1.2-2 1.5c-.8.1 0-1.8 0-1.8s-1.1 2-2 2c-.7 0-.5-1-.5-1s-.4 1.3-1.4 1.5c-.8.1-.5-1-.5-1l-1.5 1.2v-1l-.6-.2s.3-1.7 1-2.1c.7-.4-.7-1.5-.7-1.5l.7-.8s-1.9-.5-1.9 0c0 0 1-2.6 2.3-3.1v-2.9s1.4-1.1 2.6-1.2c1.4-.2-.3-2.2-.3-2.2l3-1.8.4-2.2 4.6.4 1-2 3.7 1 3.1-1.7 2.3 2.7 3.4.3v3s4 1.3 4.5 1.6c0 0-.8 2.5-.8 3 0 0 2.9-.8 3.7-.6l.4 3.3s4.8 1.6 5.1 2.4c0 0-1 .7-1.6 1.5 0 0 .6 3 .6 4l-.4.5s-1.4-1.3-2.6-1.5l-1 2-1.6-1h-1s-1-1-1.6-1v-1l-1.4.9s-2.1-1-2.1-1.7v-1.6l-2 1.6s-.6-1.2-.5-1.7c.1-.4-.8 1.2-.8 1.2s-1.2-2-1-2.4l-.4 1.6s-2.2-.7-2.5-2.2z"/><path d="M456.4 194.8s4 2 4 2.9c0 0 1-2 .5-2.9l1.5 1s.5-1.8-.1-2.4c-.5-.4 3.4-2 4.3.5 0 0 2.3-2.5-2.2-4.6 0 0-.4-1.5 2.3-1.1 0 0-.1-1-.8-1.3h2.7s-1.7-1.4-4-1.7c-2.3-.4-.9-.7-1-1.2-.2-.5 0-2.2 0-2.2s-1.3-.4-2.4.1l.4-.4s-2.5-.7-3.4-.1c0 0-1.4-.6-1.2-2.1 0 0-1.5-.1-2.1 1.4 0 0-1.3 1.5-3.2 1.5-.3 0-1.7-.7-1.7-.7L449 184h-1.8l.6 1s-2.8-.8-3.6 0c0 0 1 1.6.7 2.7 0 0-2.2.4-2.6.8-.6.4.7.6.7.6s-2.5.8-3 1.6l1 .7-1.2 1.5 1 .2-2.5.8c-.9.3 1.5.5 1.5.5l-1.2 1 1.9.3s-1.5 3.8-1.6 5.6c0 0 2.2-2.7 2.8-2.8l-1.7 2.8s3.2-1 3.5-1.5l.6-1v1.5s1.3-1.7 1.5-2.3c0-.7 2 .6 2 .6v-1l2.3.8c.6 0 .7-.3.7-.3l1.6-.2-.3 1.3s1.2-.8 1.5-1.5c.2-.8.7 0 .7 0l.8-3h1.6zm-13 13.4 1.5 3.2c-1.2 0-3 1.5-3 1.5.3 5.2-1 5-1 5 .3.9-.3 2.6-.3 2.6l7.5-4.5.1-.4 9-4.2.2.4 2.6-1.4 1.8 4.8-1.8 1c.1 1.6 2 4.5 2 4.5l2.4-.6 2.5-1 .1 1c0-.4 2.8-1.3 2.8-1.3l1.2 1.2c1 0 2.7-2.4 2.7-2.4l2 .8s.6-1.1.6-2c0-.7 2.5-.7 2.5-.7l1.7 1.2 2.2-1.8s.7 1.3 1.5 1.5c1 0 3.3 1.9 3.3 1.5 0-.4 1-2.5 1-2.5l4 1.7c-.5-1.8-1.8-4-1.8-4s1.9-1.5 1.5-2c-.4-.3-1.5 0-1.5 0l1.1-2.2h-1.5l.5-.6-2.5-1 1.3-2.7c-.5-.6-7-2-7-2l1.4-1.4s-.7-1.1-1.5-1.1-4.7 0-5-.3c0-.4-1.6-1.8-1.6-1.8l-2.5 1.8-1.2-.4-2.2.9s0 1.2-.3.3c-.3-.7-2.3-2.7-2.3-2.7-.4.7-3 3.7-3 3.7s-.3 1.6-1.2.5c-1-1.2-3-2.4-3.2-1.5-.3 1-2 2-2.5 1.8-.3-.3-2.4-.1-2.6.4-.1.7-2.4 2.4-2.4 2.4-1.4-.7-3.7-.3-3.7-.3s-.7 1-.8 2l-4.6 1.1zm43 38.5v-2l2.2 1.5 1.3-1.5 1.7 1.7 1-1.7v2.8l2.6-2.3 1.6.6v-2.1s1.8-3 1-3.6l1.5-.5s-2.5-2.6-3.3-3c-.8-.6-1.8-.6-1.8-.6s-2-2-3.3-2.6c-1.3-.5-2 .6-2 .6s-.8-1.5-2.1-1.8c-1.2-.3-1.2 1-1.2 1s-1-1-2.2-1.4c-1.3-.6-.4 1.1-.4 1.1l-4.4-1.3.6 1.3-4-1 .4 1.5-2.9-.5-.2 1.3-4 .7.7 1.4-2.5-1v1.7l-2.9 1 1 1s-3.7 1.8-4.5 2.4c-.8.5 1.5 1.5 1.5 1.5l-4-.6 1.4 1.4-3.6 3.3 2.6 1.8-1.5 2.3 3.8.7 1.5 2.6 3.1-.6v2.9l4.6-3.6s3.3 3 3.6 2c.2-.7.2-3.3.2-3.3h1.6v-2.5l1.2 1 2.1-3 2.8 3.8 2-4.9 3.1.5zm18.5-11.5-.5-4.4-1.3 1.4.6-4.1-2.1-.4.8-4-1.6-.7.4-2 1.5-1 2.8-2.7h6.3l.8-2 4.6.7c.7.9 3.1-1.7 3.1-1.7h1l1 2s3.3-.5 4.8.6l-1.8 2.5 3.4.2 2.2.5 2.4-.7 3-.2.8 1.2h2.9l-1 1.1 3.7 1.7-.7.8s2 .8 3.6.8h.7s.8 1.8-.3 2.5c0 0 1 2.6 3.4 3 2.2.5 2.2.5 2.5 1.1.3.5 0 3-2.5 3v2.6s-2 1.8-2.3 2.6l-1.5-1s-1.4 1.5-1.4 2.5c0 0-3.3-4.4-4.5-4.6-1.4-.2-1 2.5-1 2.5l-3.7-3-.5 2-3-2.5-1.8 1.2-3.2-3.3-3.2.4 1.3-1.6h-3.8l-.8-3.4-.6 2.8-2.2-1.5-3 3.2s-.4-.4-.8-1.9c-.5-1.5-1.8 1.8-1.8 1.8l-1-2.4-1.3 2.4s-1-1.8-2.1-2.4c-1-.4-2 2.9-2.3 4.4zm.6 10 .2-1.5 5.4-2.1 4.6-1.7 2.2-1 1 1.7 1.4-2.5 2 2.6 1.2-1.4 1.8 1.3h1.6l.2 2s3.8.3 4.1-.5c.3-.7.8 2.6.8 2.6l3.6.5.7 4s1.8 3.9 1.3 5.4c-.5 1.6-2-2-2-2s-.3 2.8-.6 3.6c-.2.8-4.8-.8-4.8-.8l-2 3.8s-2.1-3-3-3c-1.1 0-1.1 3-1.1 3l-4.4-5c-1.2-1.6-1.5 1.4-1.5 1.4s-2-3.3-2-4.2c0-1-1.8-2.1-1.8-2.1s-3.1 3.6-5.4 4.5c0 0 .3-2.3-.5-3-.7-.8-3 1.5-3 1.5s-1.6-3.5 0-7.1z"/></g><g fill="none" stroke="#036a4a"><path d="m530.6 188.6.4 1.9s1.7-.4 2.9-.3c0 0-.3 1.5-.7 2.2 0 0 2.3-.4 3.3.3l-.4 1.1 2.6 1.1-2.4 2s4 1.5 4.7 2.6c0 0-2.6 1.8-3 1.7-.3-.2 0 .8.6 1.6h-2.2s.9 2 .8 2.7c0 .7-3.6.5-3.6.5m13.7-5s.6-3.9-.4-4.8c0 0 2.5 2 4 2.2 1.8 0 0-3.2 0-3.2s2.3 1.3 3.5 1.5c1.1.2-.9-2.3-.9-2.3s.7-1.3 2.6-.1m-44.2-15.1s.1-.9-.2-1.4c-2.3-3 2.3 2.4 3.3 2.6m4.4 0s1.5 1.1 2.2 1.1c.8 0-.4-3-.8-3.4-.4-.4 2.7 1.3 3.9 1.5 1.1.2 1.3-2 1.3-2s3.5.6 4.3 1.1m-24.4-.7-.4-2.8m-23.6 12.3c-.1-.3 1-2 .5-2.8 0 0 .7.6 1.3.7.6 0 .4-2.2.4-2.2l.8.3s2-1 1.6-1.8c-.4-.7 1.3 1.2 1.3 1.2s1.2-1.2 1.2-1.6c0-.5 1.3 1.1 1.3 1.1s1.4-.3 1.4-1.1c0-.9 1.8.2 1.8.2s.8-1 .7-1.7m-19.2 9.5s.9-2 0-3.3m-23 9.6c0-1 .5-3.5 0-3.9-.4-.4 1 .4 2.1.7m9-.4c-1.1-1.1-1.8-1.7-3.6-1.7m-15.6 8c.2-.6.7-2.2.4-3.2m24.3 50.4 1.3-2.6 1.5 3.6 1-2.3.4.8 2.3-2.5 2.5 3.7m39.6-16 1.6-3.3 2.2 1.2 1-3.1 2.3 1.4 1.3-3 2.6.7.2-2s1.8 1 2.2 1.7c.6.8 0-2.6 0-2.6l2.1 1s1.6-1.5-.5-2.4"/><path d="m523.5 226.1 2.3 3.3 2-2.2 1.6 3.7 2.2-1.3 3.1 1.8 1.5-1.1 3.4 2.4 1.4-2.9 3 1 2-3.5m-82-8.9s1.3-2.3.8-3.3 2.8 1.8 2.8 1.8.8-2.3.3-3.3c-.6-1 3.8 3 3.8 3s.7-3.5 0-4.3c-.8-.7 4.2 1 4.2 1s2-.5 1.2-1.5 3.3 1.5 3.3 1.5 1-2.6 0-3.5c-1-1 3 1.2 3 1.2l-1.5-2.8 3.4.2-.3-3m29.4 43.9 2.2-1 1.9 1.8 2-3.3 2.6 2.5.4-2.5 2.8 1.1.6-1.5 3 1.6.3-2.3 1.5.5.3-1.5"/></g></g><path fill="#62c1f2" d="M464.8 357.3a67.9 67.9 0 0 1-5.8-12.6l41-36.2 41.2 36.1a62.8 62.8 0 0 1-6 13l-.3.5a401 401 0 0 1-3.1-1.2s-1.3 1.2-2.4 1.3c-1.4.2-2.6-1.2-2.6-1.2s-1.8 1.5-3.6 1.2c-1.9-.2-2.6-1.3-2.6-1.3s-2 1.5-3.2 1.2c-1.3-.3-2.1-1.1-2.1-1.1s-1.2 1.4-2.8 1.1c-1.5-.3-3-1.1-3-1.1s-2.3 1-3.8 1.2c-1.5.3-2.9-1.3-2.9-1.3s-2 1.3-2.7 1.3-3.6-1.3-3.6-1.3-3 1-4 1-4-1.3-4-1.3-2.7.7-3.9.7c-1.3 0-3.2-.7-3.2-.7s-2.3 1-3.5.7a12.9 12.9 0 0 1-2.4-.7s-2.5 1-4.1.7c-1.5-.2-3.3-1.3-3.3-1.3s-.3.8-3.2 1.3h-.1"/><g stroke="#0a1a1d"><path fill="#faf6f5" stroke-width=".664" d="M500 267v41.5L459 345c-4-11.6-4.3-22-4.3-26.4v-51.6H500"/><path fill="#fcd80e" stroke-width=".664" d="M500 267v41.5l41.1 36.4c4-11.6 4.3-22 4.3-26.4v-51.6H500"/><g stroke-width=".475"><path fill="#f76230" d="M473.6 348.7c3 1.7 2 1.1 8.4 3.4a60.2 60.2 0 0 0 20.1 2.7c7.8 0 12.1-.6 14.6-1.3 2.5-.7 3-1.8 3-1.8l-6.3 6.5s-25.5 1.4-30.2-1.6c-1.8-1-5.7-4.1-9.6-7.9z"/><path fill="none" stroke-linecap="round" d="M511 336.6s8.2 4.7 0 13.6m-36.7-1 11.8-11.2-1.3 15m6.1 1.1v-24.9m20.2 25.1v-26.6m-10.2 27v-28.5"/><path fill="#e30631" stroke-linejoin="round" d="m491 330.6-5.4 1.7 5.3.5v-2.2m10-4-5.6 2.2 5.6.1zm10.2 1.6-5.6 2 5.6.4v-2.4zm3.3 12c-.3-1 3.3-1 3.3-1s1 3.8 0 6.2l-3-.6s.3-2.6-.3-4.5z"/><g fill="#faf6f5"><path stroke-linejoin="round" d="m476.1 347.7 10-9.7-.5 5.8s-5.1 3.3-5.1 5.7l-4.4-1.8m5.3 2s1-3 4-4.6l-.4 6-3.6-1.4zm14.4-16.9s4-.5 7.1 0c0 0-.5 4.1 0 4.9 0 0-5.6-1.3-7.9.7 0 0-.7-3.8.8-5.6zm-8.7 1s4.1-.5 7.2 0c0 0-.8 4.6-.3 5.4 0 0-4.6-2.6-6.9-.5 0 0-1.5-3.1 0-4.8z"/><path stroke-linecap="round" stroke-linejoin="round" d="M486.8 339.2s4.1-.5 7.2 0c0 0-.5 4 0 4.8 0 0-5.4-1.2-7.6.8 0 0-1-3.8.4-5.6zm8.2-.8s5.9-.7 9-.2c0 0-1.3 3.3.2 5.6 0 0-6.3-1.7-8.7.2 0 0-2-3.8-.5-5.6zm-8.6 6.4 7.9.6s-.8 5.8-.3 6.5c0 0-6.4-1.5-7.6.6 0 0-2.1-5.3 0-7.7h0zm8.9 0s6.8-.5 10 0c0 0-1.8 4.4.2 8.2 0 0-9-2.6-10.2-.5 0 0-2-5.3 0-7.7zm10.4-12s4.1-.5 7.2 0c0 0-.5 4.1 0 4.9 0 0-5.6-1.3-8 .7 0 0-.7-3.8.8-5.6zm0 5.6s4.1-.4 7.2 0c0 0-.5 4.1 0 4.9 0 0-5.6-1.2-8 .7 0 0-.7-3.8.8-5.6zm.5 6s4.1-.6 7.2 0c0 0-1 6.3-.5 7 0 0-4.7-2.1-6.9-.2 0 0-1.3-5 .2-6.9z"/><path d="M514.7 344.8s1.3 4.8 3 5.4l-2.3 2.8s-2.7-2-3-4.3c0 0 1.8-2 2.3-3.9z"/></g></g><g stroke-width=".61"><path fill="#0859b9" stroke="none" d="M535 358a64.5 64.5 0 0 1-35 27.5 65.4 65.4 0 0 1-35.2-28v-.2c3-.5 3.3-1.3 3.3-1.3s1.8 1 3.3 1.3c1.6.3 4-.7 4-.7s1.1.5 2.5.7c1.2.3 3.5-.7 3.5-.7s1.9.7 3.2.7c1.2 0 4-.7 4-.7s3 1.2 3.9 1.2c1 0 4-1 4-1s2.8 1.4 3.6 1.4c.7 0 2.7-1.3 2.7-1.3s1.4 1.6 2.9 1.3c1.5-.2 3.9-1.2 3.9-1.2s1.4.8 3 1.1c1.5.3 2.7-1.1 2.7-1.1s.8.8 2 1.1c1.4.3 3.3-1.2 3.3-1.2s.7 1.1 2.5 1.3c1.9.3 3.7-1.2 3.7-1.2s1.2 1.4 2.6 1.2c1-.1 2.4-1.3 2.4-1.3l3.2 1"/><path fill="none" stroke-width=".475" d="M533.4 360.4c-1.4 0-1.6-.9-1.6-.9s-1.9 1.6-3.7 1.4c-2-.3-2.8-1.6-2.8-1.6s-2 1.7-3.3 1.4c-1.3-.2-2.3-1.2-2.3-1.2s-1.2 1.5-2.8 1.2c-1.6-.2-3-1.2-3-1.2s-2.6 1-4.2 1.4c-1.6.2-3-1.6-3-1.6s-3.7 1.3-4.4 1.3c-.9 0-3.6-1.3-3.6-1.3s-1.8 1.2-2.8 1.2c-1.1 0-4.2-1.3-4.2-1.3s-2.8.7-4.2.7c-1.3 0-3.3-.7-3.3-.7s-2.4 1-3.8.7l-2.4-.7s-2.6 1-4.2.7c-1.6-.3-3.5-1.3-3.5-1.3s-.3.6-3.5 1.3"/><g fill="#0859b9" stroke-width=".569"><path d="M474.4 364.3s-.2.6-2.7 1.1l-.7.2.6-.1a11.5 11.5 0 0 1-.7.2c2.8 4 7 7.7 11.4 10.6 4.4 3 9.4 6.5 18 9 9-3.5 11.3-4.8 17.2-8.8 5.9-4.3 9-7 12.2-11.3-2.5 1.4-2.2 1.4-3.5 1.2-1.3-.2-2.3-1.2-2.3-1.2s-1.2 1.4-2.8 1.2c-1.6-.2-3-1.2-3-1.2s-2.2 1.4-4.3 1.3c-1.6 0-2.9-1.5-2.9-1.5s-3.7 1.2-4.5 1.2c-.8 0-3.5-1.2-3.5-1.2s-1.8 1.2-2.8 1.2c-1.2 0-4.2-1.4-4.2-1.4s-2.8.8-4.2.8c-1.3 0-3.3-.8-3.3-.8s-2.4 1-3.8.8c-1.3-.3-2.4-.8-2.4-.8s-2.6 1-4.2.8c-1.6-.3-3.6-1.3-3.6-1.3z"/><path d="M500.3 385.3c9.2-3.8 11-4.9 16.5-8.3-1 0-3.8-1-2.8-1.2 0 0-1.1 1-2.2 1-1 0-4.1-1.3-4.1-1.3s-2.9.7-4.2.7-3.3-.7-3.3-.7-2.5 1-3.8.7c-1.4-.2-2.4-.7-2.4-.7s-2.7 1-4.3.7c-1.6-.2-3.5-1.3-3.5-1.3s-2.3 1.3-3.8 1.4a52 52 0 0 0 17.9 9z"/></g></g><g stroke-width=".509"><path fill="#f76230" stroke-width=".475" d="M461.7 270.5c-.6 0-1.4.3-2.6 1.4-2 1.8-2.6 3.6-.1 5.7l12.5 11.3c1.8 1.8 4.3 2.1 5.4 3l12.7 13c1.6 1.4 2.3 2.4 1.4 3.5-1 2 0 2.2.3 2.3 1.8.4.8-.7 1-1.2.3-1.2 1.6-2.3 2.5-2.8.6-.2 1 0 1.1.3.6.2 1.1-.6.3-1.5-.7-1-1.7.6-3 .2 0 0-1.8-1.1-2.3-2-1-1.1-2.5-2.2-3.3-3.2-.8-1-4-5.2-8.8-10-1.4-1-1-4.4-2-5.4-.2-.8-9.8-10.3-13.2-13.7-.7-.5-1.2-1-1.9-1z"/><path fill="#faf6f5" stroke-width=".533" d="m480 281.5 1.1-2.5c.2-.4 3.7-6 5.4-6.2l11 8c0 .5-4.8 7.6-5.2 7 0 0-12.8-5.3-12.3-6.3z"/><path fill="#d7ccbf" stroke="none" d="M487 283.3c-1.6-1.1-4-2.3-6-3.6l-1 1.9c.8.8 9.9 5 11.4 5.8 0 0-1.8-2-4.5-4z"/><path fill="none" stroke-width=".373" d="m481 279.5 4.8 3c2.6 1.9 4.3 4 6.3 5"/><g stroke-width=".475"><path fill="#f76230" d="m458.9 313.4 24.8-30.7c.5-.4 2.8-.4 3 2l-23.4 32s-2.7-.3-4.4-3.3zm83.2.4c-.9.6-2.3.8-2.3.8-1.6-1.9-3-3.9-5.3-6.4l-24.7-30.4 2.5-2.5 22.3 26.1c.7.7 4.6 4.8 8.3 9.6 0 0 .3 1.9-.8 2.8z"/><path fill="#faf6f5" d="m518.2 281.6-4-4.7s-3 .4-3.6 2c0 0-2.2 3.6-8 4 0 0 1.7 6.7 8.4 10.3 0 0 2.5-6.9 4.8-8.1 0 0 2.5-1.8 2.4-3.4z"/><path fill="#f76230" d="M508.2 302.7c-.5-.2-1 0-2 .5-.7.5-1.7.3-1.6-.7.1-.8 0-.7 1-1.4a6 6 0 0 1 4.8-.5l-2.2 2.1m27.1-27c-.2-.6-.4-1.3.3-2.1s.7-2.1-1-1.4c-1.6.6-2.1 2.4-.8 5.2l1.5-1.6z"/><path fill="#faf6f5" d="m507.7 303.3 28-28 7 7.5s-1.4-.6-2-.2c-.5.4.6 1.8.6 1.8s-1.3-.5-2 0c-.6.3 0 1.9 0 1.9s-1-.9-1.6-.5c-.5.4 0 2.2 0 2.2s-1.5-.5-2 0c-.3.3 0 2 0 2s-1.4-.9-2.2 0c-.8.7.4 1.7.4 1.7s-2-.7-2.7.4c-.7 1.1.1 2.2.1 2.2s-1.5-.8-1.9-.4c-.4.4 0 2.2 0 2.2s-1.3-.8-2.2.2c-.8 1 .1 1.9.1 1.9s-1.2-.8-1.9-.4c-.6.4.2 2.2.2 2.2s-1.2-.9-2 0c-1 1 0 1.9 0 1.9s-1.1-1-2.2 0c-1 1 0 2 0 2s-1.5-.7-2 0c-.7.8.1 1.9.1 1.9s-1-.7-1.9-.3c-.7.4 0 2 0 2s-1-1.2-1.6-.5c-.5.7.1 2.3.1 2.3s-1-1.3-1.6-.6c-.6.6.4 2 .4 2s-1.9-.9-1.4-.9z"/></g><path fill="#6c401f" stroke="none" d="m534.2 277.7-2.2 2.1.5 7.6s.4-2.2 1-.7c0 0 .3-1.8.8-1.5-.4-.2-.1-7.5-.1-7.5m-4.1 4-1.6 1.6.5 7.5s.5-2.9 1.2-.6l-.1-2.6v-5.9m-17 16.9-1.5 1.6.3 4.5s.5-3 1.2-.6l-.2-2.6.2-3"/><g fill="none" stroke="#6c401f" stroke-width=".855"><path d="M511.2 279.8c1 1 4 4.8 4 4.8m-2.7-2.8c-.2.6-.5 2.2-1.4 3m1.9-2.6c-.1.4-.1 1.6-1.4 2.9m1.9-2.3c-.2.7-.3 1.1-.8 1.6m1-1c0 .4-.2.5-.3.8m-3.2-2.6a23 23 0 0 1-4.6 2.7m3.9-1.7c-.4.4-2.1 1.7-3 2m2.7-.9c-.6.4-1.5 1.4-2.3 1.7m1.7-.5c-.4.5-1 .8-1.4 1.1"/><path fill="none" stroke-linecap="square" d="M492.1 286c.4-.6.9-1.8 1.6-2.8.9-1.3 1.3-1.5 1.8-2"/></g></g></g><g stroke-width=".475"><path fill="#0f7d3a" stroke="#0f7d3a" d="M400.5 362.5c1.4.6 0-4.7.4-6.7.6-2 4.7 5.2 6.7 6.1 2 1 14.8-5 14.8-5l3-5.7 1.7 4.6s3.5-4 4.5-5.6 0 3-1 4.6c-1 1.5 3 2 2.5 5.1-.4 3 4.1-2 4.1-2l11.8 1s2-7.2 5.1-11.2l1 4.5 4.8-5a64 64 0 0 0 40.2 38.3c22-8 33.2-22.2 39-35.7l6.6 6.8s5.2-1.5 6.1-2.1a69.2 69.2 0 0 1 15.1 5.4c1 .8.3-3.3.3-3.3s5.6 1 5.1 4c0 0 1.3-2.8 2.3-3.2 1-.5 3.5 2.5 4.1 3.6.5 1 12.5 2.4 14.2 3.5 0 0 1.4 1.5 1.4 2.5l4.5-.2s-1.5.7-1.5 2.3c0 1.5-.8 2.8-2.3 3.5-1.5.8 0 1.4 2 1.6 2.1.2 0 2.8-4 4.3 0 0-1 2.3.7 3 0 0-3.5.4-4-.7 0 0-1.3 2.4-1.3 3.6 0 0-3.8-1.2-4.9-1.8 0 0-1.5 1.5-.4 2.3 0 0-7-.8-8.3-3.3 0 0-2.5.7-2 1.6 0 0-4.8-3.3-6.3-3.3l-1.1 1.7s-3.3-2-4.4-2c-1 0-.2 1.5-.2 1.5l-4.6-2.9-1.8 2.9s-3.8-1.8-4.9-2.6c-.9-.7-1.2 1.5-2 1.8 0 0-1.5-2-3.6-1.8 0 0-.7 2.6-.4 3.4l-7-1.6c-1-.3-.4 1.3 0 2.3 0 0-4.3-1.2-5.3-2l-.3 2s-3.6-.3-4.3-1l-2.3 3.1H521l-.8 2.8s-5.7-2.2-6.3-.7c-.4 1-.3 2.5-.3 2.5l-4.8-.4-1.4 2.6s-6.4-2.5-7.9-1.5c0 0-3 2-4.3 2.4-1.7-1.7-3-2.3-4.6-2.9-1.7-.2-5.3 2-6.7 1.3 0 0 0-1.8-1-2.3-1-.5-2.8-.5-3.5.8l-2.1-3c-1.2-2.2-3 .1-3 .1l-.3-2.5-3.5-.3c-2.1-.2-2.6-2-2.6-2s-5.4.5-6.2.2l1.4-1.2s-7.5 1.5-9 1c-1.6-.5 1.7-2.6 1.7-2.6l-8.1-2c-1.3-.3-8.7 1.2-9.7 1.2s-1.5-1.7-1.5-1.7-1.8 1.5-3.4 2c0 0-1.2-3-.4-3.3 0 0-4.9 1.3-5.2 2.6 0 0-1.2-2-1-2.9 0 0-2.3 3.6-3.3 4.4-1 .7-.2-1.8-.2-1.8s-2.9 3.6-4 3.9v-2.6s-8 4.4-10.4 3.8c0 0 0-1.8.8-2.3l-5.1-.3c-1.3-.1-2.8-.7-4.1-1-1.2-.2 1.8-1.5 3.9-1 0 0-5.7-2-7.4-1 0 0-.8-2 2.3-2.8 0 0-4-3.8-6.2-3.6 0 0 2.5-1.5 4.6-.7 0 0-2.3-6.5-3.9-7.2 0 0 5.5-1 7-.2z"/><g stroke="#0a1a1d"><path fill="#f76230" d="m392.6 251 69.1-35.7c.3-1.9-.7-3.3-1.8-4.8-19.8 9.7-37.8 21.5-59.7 28.6a51 51 0 0 0-17.8 11.8c-1.8 1.8-1.9 4.4-1.9 4.4s.2 3 .8 3.8c0 0 .2.9 1.2 1.5 0 0 .6.3 1 .2.6 0 1.4 0 2.5-2 1.2-1.8 4.9-6.2 6.6-7.7z"/><path fill="#faf6f5" d="m448.2 215.7 9-4.3s3 2.3 2.7 4.8c0 0 .7 6 8 10 0 0-6.2 7.7-17 8.3 0 0 1.2-10.1-1-13 0 0-.4.3-.3-.2.4-1-.2-4.4-1.6-5.1-.1-.1.1-.4.2-.5z"/></g></g><path fill="none" stroke="#6c401f" stroke-width=".76" d="M458.7 216.9c-2 .7-8.1 4-8.1 4m5.1-2.1c0 1-.6 3.2 0 4.8m-.8-4.5c0 .4-.8 2.2 0 4.4m-1-4c-.2 1-.3 1.6 0 2.6m-.7-2c-.2.6 0 .9 0 1.2m5.6-1.5c.3.8 2.8 4.8 4.3 6.4m-4-4.6c.3.8 1.8 3.5 2.8 4.6m-3-3c.4 1 1.2 2.7 2 3.6m-2-1.7c.3.8.6 1.8 1.2 2.4"/><g stroke="#0a1a1d" stroke-width=".509"><path fill="#f76230" stroke-width=".475" d="M520.9 199c-1.3 0-2.4 1-3.7 3.1-2.2 4.3-1.7 6.6 5 9.6l25.5 12.4c5 2.5 6.9.2 9.8 1.4l50 25.6c4.4 1.9 6.8 2.5 6.2 4.7-.1 2.8.9 3.2 1.6 3.4 1 .4 1.9.7 2.1-.6.2-.2-.1-.6-.4-1.1a3 3 0 0 1-.6-2c0-.7.1-1 .4-1.5l1.5-1.7c.4-.4.8-.6 1.2-.7.3 0 .7.1 1 .3l1.3.9c1.7-.1.2-2.5-1-3.4-2.5-1.2-2.8 1.5-5.4 1.2 0 0-4.8-1.8-6.5-3-3.1-1.8-7.5-3.8-8.5-4.9-3.2-.6-27.3-14.1-41-21-1.4-1.2-2.2-5.7-5.1-7.2-.9-1.2-19.3-9.7-29-14.5-1.8-.7-3.2-1.2-4.4-1z"/><g fill="#fd8b32" transform="translate(150.593 67.515) scale(.93334)"><path fill="#9d7a51" fill-opacity=".99" d="M309.7 165.1c-.2.6-.7.2-.7.4-.4 2.2-.3 3.3-.8 4.5-.7 1.4-3.2 2.7-3.1 2.6-2 .7-4.5 3.1-8.5.9l-.6-.5s1.1 4.1-3 6.2l-15.7 8.2s-1.5 2.7-.5 6.5c0 .6.3 1.1-.3 1.5-1 .7-2.7 2.8-3.7 6 0 0-3-1.3-3-3.2 0-2 1.2-3 1.5-4.4.3-1.3 1.1-4.7.7-5.7-.4-1.1-2.2-1.5-3-2-.6-.3-1.4.5-1.3 1.4.1 1 .8.8 1.6 1 0 0-.9 2-.8 3.4l-9.2 4.8 1.6 2.3c.4.7 1.3 10.2 4 14.6 2.8 4.5 3.7 3.3 4.3 4 .6.4 1.4 1.2 2 1.8.8.6 4 .9 4.6-.9a9 9 0 0 1 3.1-4.1c2-1.6 6-5.4 6-7.2 0 0 2.3 6.8 2 12.3 0 0 8.5 1.8 16.1 2 7.7 0 11.5-1.5 11.5-1.5s1-6.5.6-7.7c0 0 1.2 4.2 2.2 5.6 1 1.7 2.1 5.3 4.3 5.5 2.2.1 4-2.1 4.2-3v-6.8h8.7s3.8 1.5 5 1.3c1.3-.1 2-1.3.9-1.7l-.4-.3a7 7 0 0 1 2.5.7h4.3l-.1-.5c-.3-1.2-2.6-2.2-4.2-3-1.6-.5-3.5-1.2-4.7-1.3-2-.2-3.2-.1-6.2.4-.8 0-3.9.4-5.8 1.3-.5.3-1 .4-.8-1a23 23 0 0 0-1.3-10.5c-1.1-2-1-3.6-.8-5.2a85 85 0 0 0 0-8.8c-.3-1.7-2.6-4-6.7-4.4-3.8-.5-7-3.7-7.3-6.2-.3-2.6.4-7.3.8-9.3"/><g fill="none"><path fill="#9d7a51" d="M292.4 153.6c-.7 3.3-.7 6.1-.6 9.3.1 2.1 1.2 4.6 2 6.7.7 1.4 1.5 3 2.8 3.9 3.6 2.3 7-.2 8.9-1 .9-.4 2.3-1.7 2.7-2.5.5-1.2.3-2.1.8-4.5l.7-.4c1-1.5.8-2 1.3-3s-.6-2.2-1.9-2c.6-1.9 1-4 .4-5.9-.2-.6.5-2.2-.6-1.8-4.6 1.8-10 1.4-14.8 1.4-.4 0-.7-.8-1.3-.7-.2 0-.3.3-.4.5"/><path fill="#0a1a1d" d="M292 155.3c-.5-.4-.6-1.3 0-3.2.7-2 0-2 1.2-3.2 1-1 .8-1.6 1.5-1.9.7-.2 2.8-.2 3.5-.5a9 9 0 0 1 3-1 11 11 0 0 1 6 .7c1.5.8 2.5 2.8 3.4 3.6 1 .7 1.7 3.6 1.5 7.9-.3 4.3-1.1 3.4-1.1 3.4s-1.3-2-2.3-.3c0 0 0-1.6.2-2.8.1-1.2-.6-3.5.1-5 0 0-5.8 1.8-8.7 1.7-3-.2-7.3-.9-7.6-1.6l-.7 2.2"/><path fill="#faf6f5" stroke="#faf6f5" d="M295 151.8c-.3-.6-1.8-2.9-.6-3.6 1-.6.4 2.8 2 3.5 0 0-.6 1.5-1.4.1z"/><path d="m298.3 160.1-.9 3.2m10.6 1.6c.2.6.4.3 1 .4m.3-4c.5-.6 1.3-.2.8 1.3"/><path d="m292.4 157.7 2.8 1c1.5.6.6 2.9.2 4.3-.2.7-1 2-.6 2.5.5.8 1.1.3 2 .4 0-.3.6-.5.8-.5.7 0 1.2.5 1.7.3.6-.3.5-1.2.3-1.7m-.1-4.5c0-.4 1-.8 1.5-.9 2.1-.4 3.7-.7 5.4.5m-5.7 11.1c-1.7.4-3.6.7-5.2-.2m0-.8c.8-.4 1.1-.8 2.1-.3l1.2-.4c.8 0 1.3.3 2 .8m-5.4.3c1-.3 3.4-.3 5.4.1"/><g stroke-width=".305"><path fill="#faf6f5" stroke-linecap="round" stroke-linejoin="round" stroke-width=".304" d="M292.3 160.1c.8 0 1.6-.9 3.2.3 1.1.8-1.8 1.5-1.3 1.4-1.3.2-1.8-.5-1.9-1.2 0-.2-.2-.5 0-.5zm8.4.8c.7-1.4 1.8-1 2.8-.8 1 .3.7.1 1.7.6-1.2.2-.9.3-1.7.8-.9.4-1.7.6-2.3.2-.2-.2-.7-.5-.7-1 0 .1 0 .2.2.2z"/><path fill="#0a1a1d" d="M293.8 161.4c.4 0 .7-.4.7-.9s-.3-.9-.7-.9c-.5 0-.8.4-.8 1 0 .4.3.8.8.8zm8.6.2c.4 0 .7-.4.7-1 0-.5-.4-.8-.8-.8s-.7.3-.7.8c0 .6.4 1 .8 1z"/></g></g><g id="a"><g fill="none"><path d="M345.9 213.7c-.7-.8-1-1-1.9-1.4l-2-1c-.7-.4-1.7-.5-2.4-.9m.5 2.6-.9-.5c-.3 0-.7 0-1-.2 0 0 0-.2-.2-.2-.9 0-1.8-.5-2.4-1.3m-62.8-9.4c1 .8 3.2 2.3 3.4 5.2.2 1.6 1 3 1 3M264 202c.5 1.7.6 7.4 6 13.4m-5-21.4c-.4 1.1-1 2.2.2 3m14.4 10.7c1.1-2.6 4.6-2.4 4.6-4.8"/><path d="M284.8 207.2c-.3-2.8-.9-4.4-.4-8.6.2-1.2.4-5.9 0-8.1 0 0 1.6 7.8-3.7 9.3m34.4 12.5c0-4 1-6.2 1-6.2 1.2-5.6-1.2-7.7-.3-9.1.9-1.2 2-3.8.5-8.9 0 0 2.8 10.5-4.5 10.5-7.4 0-7.1-2.7-7.1-2.7"/><path d="M284.4 190.5c0 2 0 8.4 9 8.4 2.8 0 5.8-2 7.4-3.3m2.2-2.7c-.3-2-.3-4.4-.3-7m-13.6-3.4c2.4-.3 4.4-.6 9-.6m.2-6.3c.6 2.2-.3 5.8 4 6.3m4.3-7.1c-.6 1.6-.6 3.2-.8 4.4m.2 2.7c1.7 0 5-1.1 9-.3m1.5 22.8c.8 1.6 1 3.8 3.5 6.2m-31.7-11.4c.2 1.3-1.8 5.7-.3 9.3 1.3 3.5 1 7.6-1.2 11m6.7-19c-.8 1.7-2.3 3.3-2.6 4.7m6.6-1.6c0 1-2.7 8.7-4.7 10.9 0 0 3.6 1.4 3 6.6m7.4-21c0 1.3-.2 1.6 1 2.4m2.4 0c1.3 1.6 5.5 6.5 4.6 9.2m-7.4-6.5c.3 1 .3 6.3-.6 9m-2.1-.2c-1.1 0-2.8.8-3 2.7m8.7-3c1.1-.3 3.3 1.6 3.3 7m15.7-10.2c-2.1.6-3 1.7-2.4 1.1-1.1 1-2.2 1.6-2.2 1.6"/></g><path fill="#0a1a1d" stroke-width=".305" d="M289.8 198c.6 0 1.1-.4 1.1-1 0-.3-.5-.7-1.1-.7-.5 0-1 .4-1 .8 0 .5.5.9 1 .9zm23 .3c.6 0 1.1-.4 1.1-1 0-.4-.5-.7-1-.7-.6 0-1.1.3-1.1.8s.5.9 1 .9z"/><path fill="#faf6f5" d="M280.5 239.8c1.3-8 5-14.5 5.1-15.2 0 0 3.9.9 10.6 1.5 6.6.7 8.5.4 11.5.2l6.8-.8s1.2 2.4 1.3 4.8c.3 5.2 2.3 27.7 2.5 33.7 0 0 .8 3.6.8 12.3 0 9.6 2.6 29 2.6 39.4l-2.6.5s-14.4 1.1-14.4-.8c0-2.1-.9-27 1.3-42.1 0 0-.5-3-1.3-5.5-.9-2.5-4.4-10-4.4-11.7 0 0-5.7 16-6 18.8-.3 2.6-1.1 38.4-1.7 41.3 0 0-8.2 6.3-9.3 7-1.1.5-9-3.4-9.3-4.4-.3-1.1.8-13.3 4.6-33.2 1.4-7.1.6-8.4.6-10.4s.1-27.5 1.3-35.4z"/><path fill="none" d="M294.3 275c-.6 2.2-1.7 4.3-3.6 5.7m-2.7-53.6c-.3 1.3-2.3 7.3-7.2 10.9m14.3-9.8c-1.1 3.6-5.5 22.7-6.3 45.4m-.3 7.1c-.2 2.2-1.3 18-1.7 20.8m-.8 3a70.9 70.9 0 0 0-2.7 18.6m32.2-35.9c-.2 2-1 15.7 3.6 28m-18.5-86c-.3 2.3-.8 16.7-.8 17.8 0 1.1 1.6 2.8 2.4 3 0 0-1.6.6-2 6m-4-12.8c-.3 1.7-2 8.5-3 11.3m13-25.5s5 1 5.3 0c0 0 1.6 29.5 3.8 46m-11.2-42.2-.6 16.5m2.5 2.1s1.9 2.8 1.4 4m-17.8-28 3 .8m5.2 1.6c-.3.9-.6 4.6-.6 4.6m8.8 38.9c.6.8 1.4 2 .8 4.4"/><path fill="#f76230" d="M285 224.4s0-3.2 1.1-4.8c0 0 3.5.7 8.4 1.2 5 .5 9 .9 12.6.5 3.7-.4 7.4-1.3 7.4-1.3s1 4.8.5 5.5c0 0-4 .8-8.3 1a85 85 0 0 1-14.5-.8c-3.3-.4-6.3-1-7.3-1.2z"/><path fill="#faf6f5" d="m288 224.8.7-4.8h1l-.2 5.2zm22.1-4 .1 5.5 1.3-.2-.1-5.6zm-15.6 0-.4 5.3h.7l.7-5.3z"/><path fill="#6c401f" stroke="#0a1a1d" stroke-width=".509" d="M276.8 320.8c-.3 1.3-.8 3.2-1 5.5 0 .5-.6 3.3 1 3.4 1 0 1.4-2.9 1.4-2.9s-1 3.3.3 3.7c1.8.4 2-3.6 2-3.6-.2 1.1-1.4 4 .3 4.3 1.9.3 2.4-3.9 2.4-3.9s-1.5 4.2.3 4.3c1.7 0 1.7-4 1.7-4s-.9 5 1.5 4.5c1.4-.2 1.7-2 2-3 .4-1.5 1.3-3.4.2-6.6-.8-2.3-.5-3-.5-3s-2.9 2.2-5.1 3.6c-1 .7-6.5-2.3-6.5-2.3zm29.7-4.4c-.5-.3-.4 1.9-.6 2.9-.1 1 .2 3.2 3.6 3 3.4-.3 6.8-1 8.9-.5 2.1.6 5.3.7 7 .7 1.7 0 2.9-.2 3.7-.5.7-.3 2.2.4 3 .4.6 0 1.8-1 1.6-1.8 0-1.3-1.3-1.3-3-1.4-1.6-.2-3.9-.5-5-1-1.1-.4-3.1-1.5-5.7-2l-5.9.2c-1 0-7 .3-7.6 0z"/></g><g fill="#9d7a51" stroke-linecap="round"><path stroke-linejoin="round" d="M255.7 189.8c-.5.4-1.1-2 .4-2.9 0 0 .4-2 2-2.1 0 0 1.4-1.9 3.3-1.7 0 0 2.2-1.5 3-1.3.9.1 3 2.1 3 2.9.2.7 0 1.9-.5 2.4-.6.6-1-.1-1.1-1 0 0 .4 1.6-.8 2.2-1.2.7-1.1.2-1.2-.6 0 0-.4 1.6-1.2 1.8-.8.3-1.3-.4-1.9-.4 0 0 1 .9.3 1.5-.7.5-1.5.3-2-.1-.5-.5-1.2-1.9-3.3-.6z"/><path d="M265.7 186c-.5-1.5-2.2-3-4-2.8m2.2 4.4c-.4-.4-.5-.8-.8-1.2-.9-1.5-2.8-1.4-4.4-1.8m2.4 4.5c-.6-.4-.8-1.2-1.4-1.5-1-.4-2-.9-3.3-.7"/></g></g><g transform="translate(150.597 67.511) scale(.93334)"><path fill="#6c401f" d="M439.1 165.1c.8-.3.5.6.6 1 .4 1.3.4 2.7.9 3.9.6 1.1.8 1.5 1.8 2 1.6 1 6.4 3.6 9.8 1.5l.7-.5s-1.2 4.1 3 6.2l15.6 8.2s1.5 2.8.6 6.5c-.2.6-.4 1.1.2 1.5 1 .8 2.6 2.8 3.8 6 0 0 3-1.3 3-3.2 0-2-1.3-3-1.6-4.4-.2-1.3-1-4.7-.6-5.7.4-1.1 2.1-1.5 2.8-2 .7-.3 1.6.5 1.4 1.4-.2 1-.9.8-1.7 1 0 0 1 2 .8 3.4l9.4 4.8-1.6 2.3c-.5.7-1.5 10.2-4.2 14.7-2.8 4.4-3.7 3.2-4.2 3.8l-2.1 2c-.6.5-3.8.8-4.5-1a9 9 0 0 0-3.1-4.1c-2-1.6-6-5.4-6-7.2 0 0-2.3 6.8-2 12.4 0 0-8.4 1.7-16.2 1.9-7.6 0-11.4-1.5-11.4-1.5s-1-6.4-.7-7.7c0 0-1.2 4.2-2 5.6-1.1 1.8-2.2 5.3-4.4 5.5-2.2.1-4-2.1-4.2-3v-6.7h-8.7c0-.1-3.8 1.4-5 1.2-1.3-.1-1.9-1.2-.9-1.7l.4-.3c-1.1 0-2.5.8-2.5.8H402l.1-.6c.3-1.2 2.6-2.2 4.3-3 1.6-.5 3.3-1.2 4.6-1.3 1.9-.2 3.2-.1 6.2.4.8 0 4 .4 5.8 1.3.5.3 1 .4.8-1-.3-1.3-1.2-5.5.3-8.3 1-1.9.9-3.5.8-5.2-.2-1.7-1.1-5.5-1.1-7.3 0-5.7 4.4-8 8.2-9.2 4.3-1.4 7.1-2.8 7-5.3-.2-2.7.5-7 .1-9"/><g fill="none"><path fill="#6c401f" d="M456.3 153.6c1 3.4 1.2 4.2 1.2 5.3 0 1.2-.6 1.4-.1 2.8.7 2.4-.8 5-2.5 8-.8 1.2-1.4 3-2.7 3.8-3.4 2.1-7.5-.4-9.6-1.4a3.7 3.7 0 0 1-2-2c-.4-1.3-.5-2.4-.8-4 0-.4 0-1.3-.7-1-1.2-1.4-1-2-1.5-3s1-2.2 2-2c-.6-1.9-.9-4-.2-5.9.2-.6-.6-2.2.5-1.8 4.5 1.8 10 1.4 14.8 1.4.4 0 .7-.8 1.3-.7l.3.5"/><path fill="#0a1a1d" d="M456.8 155.3c.5-.4.2-2.3-.4-4.3-.2-1-1-1.4-2-2.6-1.2-1-1.6-1-2.3-1.4-.6-.2-2-.2-2.8-.5-.6-.3-2.2-.1-3.7.1-2 .3-3.2.2-4.7 1s-2.8 1.7-3.3 3.3c-.4 1-1.1 2.5-.8 6.8.2 4.3 1 3.5 1 3.5s1.2-1.7 1.9-.7l-.3-3.5a13 13 0 0 1 .5-4.6s4.6 1.7 9 1.7c3 0 7-.3 7.1-1l.8 2.2z"/><path d="M450.4 160.1c.7 1.8.1 1.3.4 2.4m-10.2 2c0 .8-.6.6-1 .6"/><path d="M456.9 158.8c-1-.7-2.7-.2-3.5.1-1.5.7-.7 2.3-.2 3.7.2.7 1 1.7.5 2.4-.4.8-.7.4-1.6.5 0-.3-.8 0-1.1 0-.7 0-1 .4-1.5.2-.6-.3-.5-1.2-.3-1.7m.1-4.5c0-.4-1.3-.8-2.7-.9-2.3 0-2.5.1-4.2 1.3m11.5 9c-.4-.6-1-1-2.1-.4 0-.2-1.6-.4-1.6-.4-.8 0-1.3.3-2.1.7m5.6.6c-1-.6-3.3-.2-5.6-.2m.2.8c1.7.5 3.5.8 5.2 0"/><g stroke-width=".305"><path fill="#faf6f5" stroke-linecap="round" stroke-linejoin="round" d="M456.4 160.1c-.7 0-1-.9-3.1.3-1.1.7 1.8 1.5 1.4 1.4 1.2.2 1.6-.5 1.7-1.2 0-.2.2-.5 0-.5zm-8.3.8c0-.8-1.8-1-2.8-.8-1 .3-.7.1-1.6.6 1 .2.7.3 1.6.8.9.4 1 .8 2.3.2.3-.1.7-.5.8-1l-.3.2z"/><path fill="#0a1a1d" d="M455.1 161.4a.8.8 0 0 1-.8-.9c0-.5.3-.9.8-.9.4 0 .7.4.7 1 0 .4-.3.8-.7.8zm-8.7.2c-.4 0-.7-.4-.7-1 0-.5.4-.8.8-.8s.7.3.7.8c0 .6-.3 1-.8 1z"/></g></g><use xlink:href="#a" width="100%" height="100%" fill="#f76230" transform="matrix(-1 0 0 1 748.816 0)"/><g fill="#6c401f"><path stroke-linecap="round" d="M491.6 193.5c.5.2 2-2 .5-3 0 0-.5-2-2-2 0 0-1.4-2-3.3-1.7 0 0-2.2-1.5-3-1.4-1 .2-3 2.2-3 3-.1.5 0 1.8.5 2.4.6.5 1-.1 1-1 0 0-.3 1.5.9 2.2 1.2.7 1.1 0 1.2-.7 0 0 .3 1.6 1.1 2 .8.2 1.4-.5 2-.5 0 0-1 .8-.3 1.3.7.6 1.5.3 2 0 .6-.5.3-1.8 2.4-.6z"/><path stroke-linecap="round" stroke-linejoin="round" d="M482.5 189.8c.5-1.8 2.2-3.2 4-2.9m-2 4.4c.1-.4.2-.8.5-1.2 1-1.6 3-1.6 4.6-1.9m-2.5 4.5c.6-.4.8-1.1 1.4-1.4 1-.5 2.1-1 3.2-.7"/><path stroke="none" d="M482.3 186.8c-.9.7-1.8 1.8-1.9 2.2-.1.7 0 1.9.5 2.5.6.5 1 0 1.1-.8 0 .5 0 1.5.8 2 1.3.7 1.2.1 1.3-.7 0 0 .3 1.6 1 2 .9.2 1.4-.5 2-.5 0 0-1 .8-.3 1.3.7.6 1.5.3 2 0 .7-.5.3-1.8 2.5-.6.2.1.8-.4 1-1.1l-7.7-5.5z"/><path d="M480.7 188.2c-1.5 2.6.5 4.1 1.1 2.6-.1 2.4 1.6 2.3 2.3 1.5.7 2.6 1.9 1.4 3 1.2-1.3 2.3 1.4 1.6 2 1 1-1.3 1.4-.2 2-.3l1.3-1.3m-8-5.7c-1.7 1-2.5 2.2-2.6 3.7m5-2.2c-1.8 1-2.6 2.2-2.6 3.7m5.4-1.7c-1.7.9-1.8 1.7-2.5 2.8"/></g></g></g><g fill="#fcd80e"><path d="M500 419.4c21.4.2 34-7.6 41-12.3 16.2-11 19.7-11.3 22.3-11.1 3 .3 7.5 1.3 7.7 4 .3 4-6.3 5.9-10.1 5.9-4 0-14.1-2.6-14.1-2.6l-2.7 1.8c1.8.9 22.6 7.8 26.6 1.3 4.1-6.7 8.2-17.4 8.2-17.4s-4.6-8.2-14.7-8.2c-10.3 0-20.3 6.5-26.9 11.3-6.6 4.8-15 11.5-37.2 11.5-22.2 0-30.7-6.7-37.3-11.5-6.7-4.8-16.7-11.3-26.8-11.3-10.3 0-14.8 8.2-14.8 8.2s4 10.7 8.1 17.4c4 6.5 24.8-.4 26.6-1.3l-2.5-1.8S443 406 439.3 406c-3.9 0-10.5-1.8-10.3-6 .2-2.6 4.7-3.6 7.7-3.9 2.7-.2 6.1.2 22.4 11.1a70 70 0 0 0 41 12.3"/><path d="M465.7 394.2s0-1.8-.3-4.5c-.4-3.4-2.4-4.2-4-3.8-1 .4-3.1 3-3.1 3a30.2 30.2 0 0 0-3-1.7c.8-.9 5.2-3.6 6.2-3.6s14 5.4 18.3 9c1 1 1.8 6.8 1.2 8.7-7-1.8-11.6-4.5-15.3-7v-.1m-6.3 13.3s-2.8 2.8-3 8c0 6.2 4.5 6.5 7.4 6.4 3.5 0 6.4-2 6.3-8.6 0 0-5.8-2.5-10.7-5.8m75-13.3.3-4.5c.4-3.4 2.3-4.2 4-3.8 1 .4 3 3 3 3a30 30 0 0 1 3-1.7c-.8-.9-5.1-3.6-6-3.6-1.1 0-14.2 5.4-18.4 9-1 1-1.7 6.8-1.2 8.7a44.2 44.2 0 0 0 15.3-7v-.1m6.2 13.3s2.9 2.8 3 8c.2 6.2-4.4 6.5-7.3 6.4-3.6 0-6.3-2-6.3-8.6 0 0 5.8-2.5 10.6-5.8"/></g><path fill="#012778" d="M453.3 403.3s-10.2 2.6-14 2.6c-3.9 0-10.5-1.8-10.3-6 .2-2.6 4.7-3.6 7.7-3.9 2.3-.2 5.3 0 16.6 7.3m93.5 0s10.2 2.6 14 2.6c3.9 0 10.5-1.8 10.2-6-.2-2.6-4.6-3.6-7.7-3.9-2.3-.2-5.2 0-16.5 7.3m-81.1-9a90 90 0 0 1-3-2.3l-4.4-3s2-2.7 3.1-3c1.6-.5 3.6.3 4 3.7.3 2.7.3 4.6.3 4.6m-7 26.8c1.9 1 3.9 1 5.1.8 3.5 0 6.4-2 6.3-8.6 0 0 4.3 2.2 11.5 3.9a8 8 0 0 0 1.3 4.3c.3 2.3-1.3 4.9-3.2 4.7l-16-2.8c-3.6-.7-5-2.3-5-2.3m75.7-26.8 3-2.3 4.4-3s-2.1-2.7-3.2-3c-1.6-.5-3.5.3-3.9 3.7l-.3 4.6m6.9 26.8c-1.8 1-3.8 1-5 .8-3.6 0-6.3-2-6.3-8.6 0 0-4.4 2.2-11.4 3.9 0 0-1.2 1.4-1.4 4.3-.2 2.3 1.4 4.9 3.2 4.7l16-2.8c3.6-.7 4.9-2.3 4.9-2.3"/><g fill="none" stroke="#0a1a1d" stroke-width=".664"><path d="M500 419.4c21.4.2 34-7.6 41-12.3 16.2-11 19.7-11.3 22.3-11.1 3 .3 7.5 1.3 7.7 4 .3 4-6.4 5.9-10.2 5.9-3.8 0-14-2.6-14-2.6l-2.7 1.8c1.8.9 22.6 7.8 26.6 1.3 4.1-6.7 8.2-17.4 8.2-17.4s-4.6-8.2-14.7-8.2c-10.3 0-20.3 6.5-26.9 11.3-6.6 4.9-15 11.5-37.2 11.5-22.2 0-30.7-6.7-37.3-11.5-6.7-4.8-16.7-11.3-26.8-11.3-10.3 0-14.8 8.2-14.8 8.2s4 10.7 8.1 17.4c4 6.5 24.8-.4 26.6-1.3l-2.5-1.8s-10.3 2.6-14 2.6c-4 0-10.6-1.8-10.3-6 .1-2.6 4.6-3.6 7.6-3.9 2.7-.2 6.1.2 22.4 11.1a70 70 0 0 0 41 12.3z"/><path d="M453.3 403.3s-10.2 2.6-14 2.6c-3.9 0-10.5-1.8-10.3-6 .2-2.6 4.7-3.6 7.7-3.9 2.3-.2 5.3 0 16.6 7.3zm93.5 0s10.2 2.6 14 2.6c3.8 0 10.5-1.8 10.2-6-.2-2.6-4.6-3.6-7.7-3.9-2.3-.2-5.2.1-16.5 7.3zm-81.1-9a90 90 0 0 1-3-2.3l-4.4-3s2-2.7 3.1-3c1.6-.5 3.6.3 4 3.7.3 2.7.3 4.6.3 4.6z"/><path d="M465.7 394.2s0-1.8-.3-4.5c-.4-3.4-2.4-4.2-4-3.8-1 .4-3.1 3-3.1 3a31 31 0 0 0-3-1.7c.8-.9 5.2-3.6 6.2-3.6s14 5.4 18.3 9c1 1 1.8 6.8 1.2 8.7-7-1.8-11.6-4.5-15.3-7m-6.3 13.2s-2.8 2.8-3 8c0 6.2 4.5 6.5 7.4 6.4 3.5 0 6.4-2 6.3-8.6 0 0-5.8-2.5-10.7-5.8z"/><path d="M461.8 409s-2.3 2.3-2.6 6.2c-.2 3 1.8 4.7 4.3 4.5 3.6-.2 5-5 3.3-7.8z"/><path d="M458.8 421c1.8 1.1 3.8 1 5 1 3.5-.2 6.4-2.2 6.3-8.7 0 0 4.3 2.2 11.5 3.9a8 8 0 0 0 1.3 4.3c.3 2.3-1.3 4.9-3.2 4.7l-16-2.8c-3.6-.7-5-2.3-5-2.3zm75.6-26.7 3-2.3 4.4-3s-2.1-2.7-3.2-3c-1.6-.5-3.5.3-3.9 3.7a87.3 87.3 0 0 0-.3 4.6z"/><path d="m534.4 394.2.3-4.5c.4-3.4 2.3-4.2 4-3.8 1 .4 3 3 3 3a31 31 0 0 1 3-1.7c-.8-.9-5.1-3.6-6-3.6-1.1 0-14.2 5.4-18.4 9-1 1-1.7 6.8-1.2 8.7a44.4 44.4 0 0 0 15.3-7m6.2 13.2s2.9 2.8 3 8c.2 6.2-4.4 6.5-7.3 6.4-3.6 0-6.3-2-6.3-8.6 0 0 5.8-2.5 10.6-5.8z"/><path d="M538.3 409s2.2 2.3 2.6 6.2c.3 3-1.8 4.7-4.4 4.5-3.6-.2-4.9-5-3.3-7.8z"/><path d="M541.3 421c-1.8 1.1-3.8 1-5 1-3.6-.2-6.3-2.2-6.3-8.7 0 0-4.4 2.2-11.4 3.9 0 0-1.2 1.4-1.4 4.3-.2 2.3 1.4 4.9 3.2 4.7l16-2.8c3.6-.7 4.9-2.3 4.9-2.3z"/></g><path fill="none" stroke="#faf6f5" stroke-width=".664" d="M480.8 418.9s3.1 2.3-.7 5.1m-8.7-6.6 9.6 4.1m-8-2 7 3m-4.5-4.8 5.3 2.4m38.6-1.2s-3.3 2.3.5 5.1m8.8-6.6-9.6 4.1m8-2-7 3m4.5-4.8-5.2 2.4"/><g stroke="#0a1a1d"><path stroke-width=".653" d="m443.3 389.7.2.7v.8a2.3 2.3 0 0 1-1.1 1.6 3 3 0 0 1-2.1.3 3.6 3.6 0 0 1-1-.4 4.2 4.2 0 0 1-1-.6l-.3.4-.4-.1.4-2.8.5.1.1 1 .4.9c.1.2.3.5.6.6.2.2.5.3.9.4h.7a1.2 1.2 0 0 0 .9-.5l.2-.6a1.7 1.7 0 0 0-.1-1l-.7-.7a49.4 49.4 0 0 0-.8-.5 11 11 0 0 1-.8-.5c-.4-.3-.7-.6-.9-1a2 2 0 0 1-.1-1.4 2 2 0 0 1 .3-.8 2.2 2.2 0 0 1 .7-.6 2.5 2.5 0 0 1 .9-.3h1c.3 0 .6.2.9.4l.7.5.3-.3h.5l-.5 2.7h-.4a11 11 0 0 0-.1-1 3.5 3.5 0 0 0-.3-.8 1.9 1.9 0 0 0-.5-.7c-.2-.1-.5-.3-.8-.3a1.3 1.3 0 0 0-1 .2c-.3.1-.5.4-.6.7l.1 1 .6.6.8.5a14.7 14.7 0 0 1 1.3 1l.5.5m11.6 1.6a3.5 3.5 0 0 0-.4-.2 1.4 1.4 0 0 0-.6 0c-.1 0-.3 0-.5.3a5.5 5.5 0 0 0-.5.8l-1.8 3.2c-.2.3-.4.6-.8.8a2.4 2.4 0 0 1-1 .4h-1.1a4 4 0 0 1-1-.4l-1-.8a3 3 0 0 1-.6-1 2.2 2.2 0 0 1-.1-1 2 2 0 0 1 .2-.8l2.3-4.2a.9.9 0 0 0 .1-.3v-.4a1.5 1.5 0 0 0-.3-.3c-.2 0-.2-.1-.3-.2l.2-.4 3 1.7-.2.4a3 3 0 0 0-.4-.2 1.9 1.9 0 0 0-.4 0h-.3a.9.9 0 0 0-.2.3l-2.2 3.9a3.2 3.2 0 0 0-.3.6 1.7 1.7 0 0 0 0 .8c0 .2 0 .5.2.7l.9.7 1 .3h.9a2 2 0 0 0 .6-.5 2.5 2.5 0 0 0 .4-.5l1.6-3c.2-.3.4-.7.4-1v-.5c0-.2-.1-.3-.3-.5a3.5 3.5 0 0 0-.5-.3l.2-.4 3 1.6-.2.4m4.2 7.3.2.8c0 .3 0 .6-.3 1l-.7.7a2.1 2.1 0 0 1-.9.2 2.9 2.9 0 0 1-1 0 4 4 0 0 1-.9-.4l-3.4-2 .2-.3a4.3 4.3 0 0 0 .8.2.5.5 0 0 0 .3 0 .7.7 0 0 0 .2-.3l3-5a1 1 0 0 0 0-.4.5.5 0 0 0 0-.3 1.6 1.6 0 0 0-.3-.3l-.3-.3.2-.3a1709 1709 0 0 1 4 2.4l.5.6c.2.3.2.5.2.8 0 .3 0 .5-.2.8a1.8 1.8 0 0 1-.5.6 1.6 1.6 0 0 1-.7.3 2.5 2.5 0 0 1-.7 0 3.2 3.2 0 0 1-.8-.2l.6.6.5.8zm-.6-1.8a1.4 1.4 0 0 0 .5-.3 2.7 2.7 0 0 0 .4-.6c.3-.4.3-.7.2-1 0-.4-.3-.7-.8-1a27 27 0 0 0-.8-.5l-1.6 2.8.7.3c.2.2.5.3.7.3h.7zm-.6 2.6a1.6 1.6 0 0 0 .2-1.2c-.2-.5-.5-.8-1-1.1a33.5 33.5 0 0 0-.6-.3l-.3-.2-1.4 2.5a.6.6 0 0 0 0 .6c0 .2.2.4.6.6.5.3 1 .3 1.4.2.4-.1.8-.5 1-1zm18.4 4.2a3.4 3.4 0 0 0-.5 0 1.4 1.4 0 0 0-.5-.1c-.2 0-.3.2-.5.4a5.7 5.7 0 0 0-.5.9L473 408c-.1.5-.4.8-.7 1a2.5 2.5 0 0 1-1 .5 3.1 3.1 0 0 1-1 0 4 4 0 0 1-1-.3 4.2 4.2 0 0 1-1.2-.7 3 3 0 0 1-.7-.8 2.2 2.2 0 0 1-.2-1 2 2 0 0 1 .2-.8l1.9-4.5a.9.9 0 0 0 0-.3.7.7 0 0 0-.1-.3 1.6 1.6 0 0 0-.3-.3l-.3-.2.1-.4 3.2 1.4-.2.4a3.4 3.4 0 0 0-.4-.2 2.2 2.2 0 0 0-.3 0h-.4a1 1 0 0 0-.2.4l-1.7 4.1a3.3 3.3 0 0 0-.2.7 1.7 1.7 0 0 0 0 .7c0 .3.1.5.3.7l1 .6a1.8 1.8 0 0 0 1.9 0c.2 0 .4-.2.5-.4l.4-.6 1.3-3 .3-1v-.7l-.5-.4a3.6 3.6 0 0 0-.4-.3l.1-.4 3.1 1.4a12 12 0 0 0-.1.3m9 10.5-3.6-1 .1-.4a9 9 0 0 0 1 .2.8.8 0 0 0 .3-.2.7.7 0 0 0 .2-.3l1.6-5.7-4.7 5.8h-.3l-.6-7.6-1.4 4.7c-.2.4-.2.8-.2 1v.6l.5.4.5.2-.1.4-3.2-.9v-.4h.6a1 1 0 0 0 .5 0c.2 0 .3-.2.4-.4l.4-1 1.2-4v-.6a1 1 0 0 0 0-.5 1.2 1.2 0 0 0-.4-.3 2 2 0 0 0-.5-.2v-.4l2.8.8.6 6.5 3.3-4.4.4-.5a2.8 2.8 0 0 0 .2-.3l2.6.7-.2.4a3.8 3.8 0 0 0-.4 0 2.3 2.3 0 0 0-.3 0 .4.4 0 0 0-.4 0 1 1 0 0 0-.1.4l-1.7 5.6a.8.8 0 0 0 0 .4.6.6 0 0 0 .2.3l.3.2.4.1v.4m8.4-2.5.5.7c.1.3.2.6.1 1a2 2 0 0 1-.3.9 2.2 2.2 0 0 1-.8.6 3 3 0 0 1-.9.3 4 4 0 0 1-1 0l-3.9-.5v-.4a4 4 0 0 0 .8 0 .5.5 0 0 0 .3-.2.7.7 0 0 0 .1-.4l.8-5.8a1 1 0 0 0 0-.3.6.6 0 0 0-.3-.3 1.6 1.6 0 0 0-.3-.2h-.4v-.5l3.8.5c.3 0 .6 0 .9.2l.7.4c.2.1.4.3.5.6l.1.9a1.7 1.7 0 0 1-.8 1.2l-.6.3a3.3 3.3 0 0 1-.8.2l.8.3.7.5zm-1.3-1.4.4-.5a2.7 2.7 0 0 0 .2-.7c0-.5 0-.8-.3-1.1-.2-.3-.5-.5-1-.5a26.5 26.5 0 0 0-.5 0l-.5-.1-.4 3 .7.2a2.5 2.5 0 0 0 .9 0c.2 0 .4-.2.5-.3zm.5 2.6a1.6 1.6 0 0 0-.3-1.2c-.3-.3-.7-.6-1.3-.6a23.9 23.9 0 0 0-.7-.1 14 14 0 0 0-.4 0c0 1-.2 1.9-.3 2.8a.6.6 0 0 0 .2.6l.8.3c.6 0 1 0 1.4-.3.3-.3.5-.8.6-1.4zm11.1 2.6h-2.2l-1.3-2-1.3-1.7h-.9v2.6l.1.4.3.2h.3l.5.1v.4H496v-.4h.4a1.5 1.5 0 0 0 .4-.1.5.5 0 0 0 .2-.2.7.7 0 0 0 .1-.4v-6.2l-.3-.3a2.2 2.2 0 0 0-.4 0 3 3 0 0 0-.4-.1v-.4h4.8l.8.4.6.6.2 1-.1.7a1.7 1.7 0 0 1-.5.7 2.4 2.4 0 0 1-.6.4 5 5 0 0 1-.8.3l1 1.3 1 1.4a2.5 2.5 0 0 0 .9.7l.4.2h.3v.4zm-3-6c0-.5-.2-1-.4-1.2-.3-.3-.7-.5-1.3-.5h-1v3.5h.8c.5 0 1-.1 1.3-.5.4-.3.6-.8.6-1.4zm12.6 5.4-3.5.3v-.4l.7-.2c.2 0 .3-.2.3-.2v-.2a.5.5 0 0 0 0-.1l-.9-1.8-2.9.2a10 10 0 0 0-.2.8l-.1.5a3.5 3.5 0 0 0 0 .4v.3c0 .1 0 .3.3.3l.8.1v.4l-3 .3v-.5a2 2 0 0 0 .3 0 1.2 1.2 0 0 0 .4-.2 1.4 1.4 0 0 0 .3-.4 1.8 1.8 0 0 0 .2-.5l1.1-3.5 1.1-3.5h.5l3.2 6.8.3.3a1.1 1.1 0 0 0 .7.4h.3v.4zm-3.6-3-1.5-3.1-1 3.2zm15.3-6.5-.4.1a3 3 0 0 0-.8-.8c-.3-.2-.6-.4-.9-.3a5.7 5.7 0 0 0-.4 0l-.5.2-1.4.3.9 3.2a137 137 0 0 1 1.5-.5 1 1 0 0 0 .3-.4 1.2 1.2 0 0 0 .2-.4 2.3 2.3 0 0 0 0-.6l.3-.1.9 3-.4.2a2.8 2.8 0 0 0-.3-.5l-.3-.4a.8.8 0 0 0-.5-.2 2.2 2.2 0 0 0-.7.1l-.9.3.7 2.7a.7.7 0 0 0 .2.3l.3.1h.4a2.6 2.6 0 0 0 .5 0v.4l-3.4.9v-.4l.4-.2.3-.1a.5.5 0 0 0 .2-.3.8.8 0 0 0 0-.4l-1.6-5.6a1 1 0 0 0-.1-.4l-.3-.1a2.4 2.4 0 0 0-.5 0 2.3 2.3 0 0 0-.4 0l-.1-.4 6.2-1.7.6 2m9.2-.7.9 2.3-5.8 2.8-.2-.4.3-.2a1.4 1.4 0 0 0 .3-.2.5.5 0 0 0 .2-.3.8.8 0 0 0-.1-.4l-2.6-5.3a1 1 0 0 0-.2-.2.5.5 0 0 0-.3-.1 1.6 1.6 0 0 0-.4 0 1.9 1.9 0 0 0-.4.1l-.2-.4 3.1-1.5.2.4a2.8 2.8 0 0 0-.3.2 2.1 2.1 0 0 0-.3.3.4.4 0 0 0-.2.3l.1.3 2.4 5 .3.5a.5.5 0 0 0 .3.2h.4l.7-.3.4-.2.4-.3.3-.2a.6.6 0 0 0 .1-.3l.2-1v-1h.4m4.3-8.2a4 4 0 0 1 1.4.8 5 5 0 0 1 1.2 1.3c.3.6.5 1.1.6 1.7.1.6 0 1.1 0 1.6a3.8 3.8 0 0 1-.7 1.4 3.8 3.8 0 0 1-1.1 1 3.8 3.8 0 0 1-3.1.4 4 4 0 0 1-1.4-.7 4.9 4.9 0 0 1-1.1-1.3 4.8 4.8 0 0 1-.7-1.7 4.2 4.2 0 0 1 .1-1.6 3.9 3.9 0 0 1 .7-1.4 3.9 3.9 0 0 1 2.6-1.6 3.7 3.7 0 0 1 1.5.1zm2.2 5.5a3.8 3.8 0 0 0-.2-1.3 6.7 6.7 0 0 0-.6-1.4 7 7 0 0 0-1-1.2 3.8 3.8 0 0 0-1-.8 2.3 2.3 0 0 0-1-.2c-.4 0-.8.1-1.1.3a2 2 0 0 0-.9.9 2.5 2.5 0 0 0-.2 1.1c0 .4 0 .8.2 1.3l.6 1.3a7.2 7.2 0 0 0 .9 1.2c.3.3.6.6 1 .7.3.2.7.3 1 .3.4 0 .8 0 1.2-.3a2.2 2.2 0 0 0 .8-.8 2.3 2.3 0 0 0 .3-1.1zm10.3-5.6-1.9 1.3-2.2-.9-2-.6-.7.5 1.5 2c0 .2.1.3.2.3.1.1.2.1.4 0a1.6 1.6 0 0 0 .3 0l.4-.3.2.3-2.8 2-.2-.3.3-.3a1.5 1.5 0 0 0 .2-.2.5.5 0 0 0 .1-.4.7.7 0 0 0-.1-.3l-3.5-4.8a1 1 0 0 0-.2-.3h-.4a3 3 0 0 0-.7.3l-.2-.3 3-2.2a4.4 4.4 0 0 1 1-.5 2.6 2.6 0 0 1 .8-.2 1.7 1.7 0 0 1 .8.2c.3 0 .5.3.7.6a2.1 2.1 0 0 1 .4.7v.8a2.5 2.5 0 0 1-.3.7 4.7 4.7 0 0 1-.4.7l1.6.5 1.5.5a2.4 2.4 0 0 0 1.2.2 1.3 1.3 0 0 0 .4-.2l.3-.1.3.3zm-6-3.2c-.3-.4-.7-.6-1-.7-.5 0-.9 0-1.3.4l-.8.5a5350.4 5350.4 0 0 0 2 2.9l.6-.5c.4-.3.7-.7.8-1.2 0-.4 0-1-.4-1.4zm12.8-2 .6 2.4-6.4 2.4-.1-.4a4.2 4.2 0 0 0 .7-.4.6.6 0 0 0 .2-.3.7.7 0 0 0 0-.4c-.8-1.8-1.4-3.7-2.1-5.5a1 1 0 0 0-.2-.3l-.3-.1a2 2 0 0 0-.5 0 2 2 0 0 0-.4 0l-.1-.3 6-2.2.7 1.8-.5.2c-.1-.3-.4-.5-.7-.7l-1-.3-.3.2-.6.1-1.2.5 1.1 3 .9-.3.6-.3a.9.9 0 0 0 .2-.4 1.5 1.5 0 0 0 0-.5 2.8 2.8 0 0 0 0-.5l.4-.2 1.1 3-.4.2a3 3 0 0 0-.3-.5l-.4-.4a.8.8 0 0 0-.4-.1 2 2 0 0 0-.6.1l-1 .4 1 2.3.2.5a.5.5 0 0 0 .3.2h.4l.7-.2.5-.2a3.4 3.4 0 0 0 .5-.2l.4-.2.3-.3.2-1v-.9l.5-.1m6.9-5.7a4 4 0 0 1 1 1.2c.3.5.4 1.1.5 1.7a4.7 4.7 0 0 1 0 1.8 4 4 0 0 1-.7 1.5c-.3.4-.7.7-1.2 1a3.9 3.9 0 0 1-1.4.5 3.8 3.8 0 0 1-3-.8 4 4 0 0 1-1-1.3 4.7 4.7 0 0 1-.5-1.6 4.8 4.8 0 0 1 0-1.8 4.2 4.2 0 0 1 .7-1.5 3.9 3.9 0 0 1 2.6-1.5 4 4 0 0 1 1.6.1 3.8 3.8 0 0 1 1.4.7zm-.1 5.8a3.8 3.8 0 0 0 .3-1.2 7 7 0 0 0 0-1.5 6.8 6.8 0 0 0-.4-1.5 3.8 3.8 0 0 0-.7-1 2.4 2.4 0 0 0-.9-.7 2.2 2.2 0 0 0-1.1-.2 2 2 0 0 0-1.1.5 2.5 2.5 0 0 0-.7 1 4 4 0 0 0-.3 1.2 6.8 6.8 0 0 0 0 1.4l.4 1.5c.1.4.4.8.6 1 .3.4.6.6 1 .7.3.2.6.2 1 .2a2.2 2.2 0 0 0 1.2-.4 2.3 2.3 0 0 0 .7-1z"/><path fill="none" stroke-width=".949" d="M468.7 267h62.7m5.2 0h8.8v51.5c0 10.3-1.4 51-45.3 67-44-16-45.4-56.7-45.4-67v-51.6h8.9"/></g><path fill="#0f7d3a" stroke="#036a4a" stroke-width=".497" d="M494 132.9c-3.3 0-7 1.6-11 5.8 9.3-2.8 13.4 3.4 17.3 7.3a154.3 154.3 0 0 0-33.5 3.8c-3.6-8-16.3-17.7-26.2-3 9-4.3 14.1 1.6 18.6 4.9a152.8 152.8 0 0 0-26.7 10.2v-.2c-3.8-7-23.1-15.7-27.7 3.9 9.6-10 19 1 24.7-2.1a154.1 154.1 0 0 0-24.5 15.8v-.1c-5.2-6.2-26-10.5-26.2 9.6 7-11.5 18.3-3.4 23.3-7.1a154.9 154.9 0 0 0-22.1 22.7l-.3-.4c-5.8-5.6-26.9-7.9-25 12.1 6-12.4 18.5-4.7 22.8-9.7-.7.8-1 1.7-1.2 2.8a153.8 153.8 0 0 0-15.6 26.6c-7.1-3.8-28-.2-20.7 18.5 2.4-13.6 16.6-9.6 19.3-15.5v.2a152.7 152.7 0 0 0-9.7 31.2c-8.7.2-23 8.5-12.6 23.1-.8-9.9 6.6-12.4 11.3-15.4a155 155 0 0 0-1.6 22c0 2.2 0 4.4.2 6.6-8 3.5-18.3 17.8-2 26.8-4.5-7.9-.3-13.1 2.6-17.6a153 153 0 0 0 5.6 28.3c-7.3 4.7-14.9 18 .7 25.8-5-7.7-.8-13.2 2-17.8a153.2 153.2 0 0 0 12.6 26.7c-6 6.4-9.8 22.1 7.8 25-7.2-6-4.5-12.6-3.3-17.9a154.7 154.7 0 0 0 20 24c-5.6 6.6-8.7 22.9 9.3 24.6-8.7-6.3-4.6-14.3-4.3-19.9a154.3 154.3 0 0 0 28.7 20.4c-1.5 8.6 3.1 23.2 19.5 17.2-8.8-1.6-10.2-8.1-11.6-13.2a152.7 152.7 0 0 0 32 11.1c-.1 8.7 5.8 21 20.8 14.3-9.1-1-10.8-7.6-12.7-12.7a154.8 154.8 0 0 0 26 2.2l5-.1c2 8.5 12 20.3 24.8 8.3-9.7 2.2-13.3-4.6-17-8.7a153.1 153.1 0 0 0 33.6-6.6c5.3 7 18 13.3 25.5-1.7-7.2 4.7-12.6 1.4-17-1.3a153.3 153.3 0 0 0 25.5-12.5c6.5 5.3 25 7.6 24.7-11.3-4.8 8.3-12 6.7-17.5 6.5a154.7 154.7 0 0 0 24.4-21c7.8 4 23.7 4.1 22.7-13.4-4.4 8.4-11.7 7.2-17.2 7.2a154.2 154.2 0 0 0 18.1-26.5c8.6 1.4 24.4-4 16.9-20.4-1 9.2-8 10.8-13 12.7a152.7 152.7 0 0 0 10.8-32c8.6-1.9 20.5-11.9 8.5-24.6 1.8 8-2.7 11.9-6.7 15a155 155 0 0 0 1.8-23.5v-3.3c8.3-2.6 19.2-13.8 6-25.3 2.9 8.8-2.6 13-6.5 16.9a153.5 153.5 0 0 0-4.1-25.7c7.4-4.4 15.8-20-1.6-26.8 6 7.7 1.6 13.7-.7 18.7a153 153 0 0 0-10.7-26c6.2-6 11-22-6.8-25.5 7 6.4 4.1 13 2.7 18.3a154.4 154.4 0 0 0-16.1-22.2c3.3-8.1 1.8-23.4-15.5-20.9 7.3 3 8.1 8.4 8.5 13.3a154.7 154.7 0 0 0-19.8-16.8c2.4-8.3-2-25.1-19.3-18.6 9.2 1.6 10.4 8.5 12 13.7A153.3 153.3 0 0 0 555 156c1.5-8.5-4.5-24.7-21-16.5 10.2.8 11.4 9 13.9 14a153.3 153.3 0 0 0-39.3-7.3c-1.4-5.8-7-13.4-14.5-13.3zm6.6 17h2.3c-5.2 3.1-9.6 13.3-20.7 10.5 12 13.5 25-2 26.5-10.3a149.6 149.6 0 0 1 38.6 7.2c-5.8 1.7-13.2 8.3-22 2.2 6.3 16.6 23.7 7.3 28.4 0a149.5 149.5 0 0 1 29.8 15.3c-6 .4-14.7 7.8-23.5.2 4.6 17 22.6 9.8 28.1 3a150.8 150.8 0 0 1 22.5 19.9 5 5 0 0 0 1.6 2.3c-5.2-4-17.4 4.9-25.4-5.8.7 18.7 22.3 13.9 27.8 8a150.4 150.4 0 0 1 16.5 23.3c-5.3-3-16.7-1.2-20.1-12.3-5.5 17.3 14.8 20.4 22.7 17.2a149 149 0 0 1 11 27.4c-5-3.5-15.7-4.1-17-15.2-8.2 15.5 9.9 22.2 18.6 21a150 150 0 0 1 4.2 29c-2-5.8-14.7-9.6-11.9-21.8-13.7 12.7 3.8 25.9 12 26.2v2.7c0 9.6-.9 19-2.6 28.1-.3.7-.6 1.3-.6 2 .3-6.5-14-11.4-9.7-24-15 11.2 1.1 26 9.2 27.2a149 149 0 0 1-11.9 33.5c-.3-6-9-14.3-1.7-23.7-17.3 5.7-8 23.9-.7 28.4a150.3 150.3 0 0 1-19.5 27.8c2-5.7-3.2-16.6 7-22.9-18.7-.8-15.9 20.5-10.5 26.7a150.7 150.7 0 0 1-26 21.9c1.4-5.9-2-16 7.7-21.3-17.2-1.6-17 16.7-12.7 24.5a149.3 149.3 0 0 1-28 13.3 5 5 0 0 0-2.7 0c6.3-2 5.9-17 19.3-17.4-16-10-24.4 10.7-22.4 18.4l.3.9a149.6 149.6 0 0 1-33.8 6.3c5.4-2.7 10.6-12.7 21.5-9.1-11.4-14.9-26.3 1.4-27.4 9.4h-4.8a151 151 0 0 1-28.2-2.6c-.5-.6-1-1-1.8-1.3 6.1 2.4 15.5-9.4 26.1-1.3-6-18-25.6-7.1-29.1 0a9 9 0 0 0-.5 1.5 149 149 0 0 1-36.3-13.4c5.9 2.8 16-8.4 26 .4-4.6-18.2-24.8-9-28.9-2a150.4 150.4 0 0 1-26.4-18.6c6 1.2 14.8.3 18.7 9.5 3.7-17.7-16.9-18.8-24.4-14.8a150.7 150.7 0 0 1-21.6-26.5c5.1 3.1 17 .6 20.8 11.9 5-17.7-16-20-23.5-16.3a149.2 149.2 0 0 1-13.9-30.8c2.2 6.1 17 6 17.4 19.1 10.3-15.8-10.5-24.2-18.4-22.3a149.6 149.6 0 0 1-5.6-31.1c4.1 4.3 15.5 6 15.4 17.6 10-14.4-7-23.3-15.7-23.2a152.4 152.4 0 0 1-.1-5.8c0-7.9.6-15.6 1.7-23.1 2.2 5.6 10.9 12 5.8 22 16-8.9 3.2-25.1-4.7-28a149 149 0 0 1 6.9-24.1c1.9 5.3 4.5 11.6-1.1 18 15.8-4.2 10.7-19.7 4.5-26.4a149.7 149.7 0 0 1 12.7-22.5c.3 5.2.4 11.3-6.1 15.5 16 .2 15.7-15.2 11.9-23.5a150.9 150.9 0 0 1 18.4-19.7c-.3 5.8.3 13.2-7.7 17.4 16.1 1.8 17.2-14.2 14-22.8a150.3 150.3 0 0 1 19.3-13.1c-1.5 5.6-2.6 12.9-11.3 15.2 15.4 5.2 20-10.1 18.6-19.1a149 149 0 0 1 28.4-10.8c-4.6 4-7.4 14.5-18.7 13.5 14.3 11.7 25-6.7 24.6-15a150.6 150.6 0 0 1 32.8-3.5z"/><path fill="#9d7a51" stroke="#0a1a1d" stroke-width=".475" d="M409 367c-.4 1.2-.8 2.9-1 5 0 .5-.5 3.1 1 3.2 1 .1 1.2-2.7 1.2-2.7s-.9 3 .3 3.5c1.7.3 2-3.4 2-3.4-.3 1-1.4 3.7.2 4 1.7.3 2.2-3.6 2.2-3.6s-1.4 4 .3 4c1.6.1 1.6-3.8 1.6-3.8s-.9 4.7 1.4 4.3c1.3-.2 1.5-1.8 1.8-2.8.4-1.4 1.3-3.2.2-6.1-.7-2.2-.5-2.8-.5-2.8s-2.6 2-4.7 3.3c-1 .6-6-2.2-6-2.2zm27.6-4.2c-.4-.2-.3 1.8-.5 2.7-.1 1 .2 3 3.4 2.9 3.1-.3 6.3-1 8.3-.5 2 .6 4.9.6 6.5.6 1.6 0 2.7-.1 3.4-.4.7-.3 2.1.4 2.8.4.6 0 1.7-1 1.6-1.8-.1-1.2-1.2-1.2-2.9-1.3-1.5-.2-3.6-.5-4.6-.8-1-.4-3-1.5-5.3-2l-5.5.3c-1 0-6.6.2-7.2 0z"/><path fill="none" stroke="#0f7d3a" stroke-width=".475" d="m421.4 369.6-.2-4.4 1.8 1.6.4-3.4c.8-.2 2 1.4 2 1.4l-.1-3.4 2.7 3s-.2-2.5.8-4c0 0 2 1.8 2 3.9 0 1.8 1.9-2.6 1.9-2.6l1.5 4.9 1.2-1.8 1 3.8 2.3-3.4 1.8 4 4.1-.4.5 2.3 1.8-2 2.4 1.5s2-.5 3-.5 2.3 1.3 2.3 1.3.7-1.3 1.5-1.8 1.8.8 2 1.5l1.6-2.7s2 2 2.3 2.7c0 0 .3-2.3.8-3 .4-.8 1.2.3 1.8 1.2l1.2-4s1.3.2 2.3 1.7c1 1.6 1-2.2 1-2.2s2.3 3 2.9 5m57.1-.7s.8-2 1.8-3.1c0 0 2 2.4 2 3.1l1.6-1 1.6 1.5 1.8-1.2 1.7 1.5 3.1-1.3 1.2 1.3 4.9-.6 1.8.8 1.7-2.2 1.6 1.7 2.6-2.6s1.2 1 1.5 1.8c0 0 2-1 2.6-1.8 0 0 2-.7 2.2.5 0 0 1.3-1 1.2-2-.1-1 1.4-.3 1.9 1 0 0 .5-2 2-2.2 0 0 1.1 1.2.8 3.5 0 0 2.3-1.8 3.3-2 0 0 .5 2.6-.2 4.8 0 0 2.3-3.8 2.8-2.5.2.7.8 3.3.2 5.1l2-1.3.9 2.5 2.2-.4m-106.7 7.7s1.7-2.8 2.8-3.6c0 0 2.3 1.8 3 4 0 0 .3-1.4 1-2.8 0 0 3 1.4 3.4 3.2 0 0 1-1.8 1.8-2.3.8-.6 1.5 2 1.5 3.5 0 0 1.8-1.9 2.9-2 0 0 2 1 2.5 4.3 0 0 2-1.8 2.6-1.5 0 0 2.3 1.5 1.7 3.6-.3 1.1 2.3-1.4 5.4-2.1l2.8 2 3.3-4.5s2 .8 2 2c0 0 1-3.6 1.8-4 .8-.5 1.8 1.2 1.8 2.2 0 0 .3-2.8 1.8-3.3 0 0 1.5 1 1.5 2 0 0 1.6-3 2.9-3.8"/><path fill="#24a34e" d="m421.4 369.6-.2-4.4 1.8 1.6.4-3.4c.8-.2 2 1.4 2 1.4l-.1-3.4 2.7 3s-.2-2.5.8-4c0 0 2 1.8 2 3.9 0 1.8 1.9-2.6 1.9-2.6l1.5 4.9 1.2-1.8 1 3.8 2.3-3.4 1.8 4 4.1-.4.5 2.3 1.8-2 2.4 1.5s2-.5 3-.5 2.3 1.3 2.3 1.3.7-1.3 1.5-1.8 1.8.8 2.1 1.5l1.5-2.7s2 2 2.3 2.7c0 0 .3-2.3.8-3 .4-.8 1.2.3 1.8 1.2l1.2-4s1.3.2 2.3 1.7c1 1.5 1-2.2 1-2.2s2.3 3 2.9 5c0 0-15.8 5.5-26.9 4-13-1.7-23.8-4.2-23.8-4.2m107.8-.5s.8-2 1.8-3.1c0 0 2 2.4 2 3.1l1.6-1 1.6 1.5 1.8-1.2 1.7 1.5 3.1-1.4 1.2 1.4 4.9-.6 1.8.8 1.7-2.2 1.6 1.7 2.6-2.6s1.2 1 1.5 1.8c0 0 2-1 2.6-1.8 0 0 2-.7 2.2.5 0 0 1.3-1 1.2-2-.1-1 1.4-.3 1.9 1 0 0 .6-2 2-2.2 0 0 1.1 1.2.8 3.5 0 0 2.3-1.8 3.3-2 0 0 .5 2.6-.2 4.8 0 0 2.3-3.9 2.8-2.5.2.7.8 3.3.2 5.1l2-1.3.9 2.5 2.2-.4s-13.5 2-26.2.8a109 109 0 0 1-24.6-5.7m-9.4 9.4c.7-.3-4.2 10-16 10.6-16.4.8-30.4-7.4-30.4-7.4s1.7-2.9 2.8-3.6c0 0 2.2 1.8 3 4 0 0 .3-1.5 1-2.8 0 0 2.9 1.3 3.4 3.1 0 0 1-1.8 1.8-2.2.7-.6 1.5 2 1.5 3.5 0 0 1.8-2 2.8-2 0 0 2 1 2.6 4.3 0 0 2-1.8 2.6-1.6 0 0 2.3 1.6 1.7 3.6-.3 1.2 2.3-1.3 5.4-2l2.7 2 3.4-4.5s2 .7 2 2c0 0 1-3.6 1.8-4 .7-.5 1.8 1.1 1.8 2.2 0 0 .3-2.8 1.8-3.3 0 0 1.5 1 1.5 2 0 0 1.6-3 2.8-3.9z"/></svg>