<svg xmlns="http://www.w3.org/2000/svg" width="1200" height="720" fill="#0f7d3a"><path d="M0 0h1200v720H0"/><path fill="#fcd80e" d="m891 101 9-28 9 28 28-11-17 25 26 15-30 3 4 29-20-21-20 21 4-29-30-3 26-15-17-25Zm142 118 9 29 28-11-16 25 25 15-29 2 4 30-21-22-20 22 4-30-30-2 26-15-17-25 28 11Zm-73 143 7 18 19 1-14 13 4 18-16-10-16 10 4-18-14-13 19-1Zm-69 219 9-28 9 28 28-11-17 25 26 15-30 3 4 29-20-21-20 21 4-29-30-3 26-15-17-25ZM741 300l9-29 9 29 28-11-16 25 25 15-29 2 4 30-21-22-20 22 4-30-30-2 26-15-17-25ZM206 67a143 143 0 1 1 0 286 143 143 0 1 1 0-286zm480 199a110 110 0 1 0 0 188 138 138 0 1 1 0-188z"/><path fill="#6c401f" d="M196 319h39c0-4-4-9-9-11 8-27 14-76 14-112h-7c0 38-16 92-37 123Z"/><path d="M213 248c0-11 7-15 8-22s-2-10 0-13c2-5 8-5 14-17 15 9 8 15 14 23 5 8 11 6 13 12s-1 10 5 16c6-2 10-10 10-17 0-11-6-14-7-20-2-6 3-10-2-17 10 0 11 12 21 11s8 7 22 9c0-25-22-40-47-41 4-8 10-2 16-5s5 6 16 3c0-11-4-19-14-19-5 0-13 3-16 6 0-4 8-10 12-10-2-3-6-6-11-6-16 0-19 25-25 20s16-16 9-23c-8-8 5-10 5-15 0-3-4-5-4-8s5-6 9-6c-4-7-9-10-13-10-12 0-15 15-19 13s8-11 0-14c-10 9-15 25-12 40l-6-5c-1 3 1 7 3 11 2 5 5 11 2 12-6 2-7-33-33-33-10 0-21 7-24 15 10 0 9-5 13-5 5 0 6 9 12 9 7 0 7 7 8 14-12-10-21-15-32-15-19 0-28 14-34 32 15 5 14-12 20-12 4 0 4 5 9 5s13-8 22 0c-25 1-51 23-58 48 17-1 18-10 23-15 2-2 6 2 9 0s2-6 4-7 5 1 10 1c6 0 9-7 19-4-14 6-24 28-24 49 7 0 7-5 11-9 3-3 8-1 10-4s0-6 2-8 4 0 7-3 3-10 13-10c-1 3-2 6-2 9 0 4 2 7 2 10s-3 6-3 12c0 7 6 13 13 13Z"/></svg>