<svg xmlns="http://www.w3.org/2000/svg" xmlns:xlink="http://www.w3.org/1999/xlink" width="1200" height="720"><path fill="#e30631" d="M0 0h1200v720H0Z"/><path fill="#2d86cf" d="M1200 360v360H0Z"/><path fill="#24a34e" d="M0 0h1200v360"/><path fill="#ffb81c" d="M307 536c1-35 0-71-2-85 9-5 17-15 19-19 22 12 47-4 50-22-6 6-17 12-23 11 11-8 23-18 22-32-10 12-23 1-34 16-1-3 0-11 3-16 2-4 8-6 7-8-33 7-29 34-26 41-7 15-17 17-21 20-7-23-12-48-10-64 13-1 18-11 26-11 6 0 11 7 23 5s18-13 18-17c-10 7-22 5-24 1 10 0 26-5 29-21-2 2-7 4-10 4-6 0-11-6-21 2 0-5 5-12 11-13-6-1-13-1-19 3-8 6-11 26-15 30-5 5-12 8-16 8 10-17 20-41 22-52 1-2 14-10 15-11 4 2 17 4 25-1 11-7 10-13 9-14-1 3-6 5-11 5-4 0-5-1-1-3 12-6 13-16 12-19-1 1-4 4-7 5s-7-2-13 1c-4 2-3 6-6 6-1-3 0-8 3-11s6-2 8-5c-10-3-16 1-19 6-4 6-3 19-5 24s-6 7-9 9c3-22 6-31-3-50 7-12 2-33-10-36 2 2 4 5 2 10s1 8 0 12c-6-11-12-13-14-21-14 14 5 24 3 26s-11-6-13-9c-5 7 12 27 27 21 8 12 4 33 2 43-2 9-6 28-8 28-4 0-19-14-19-16 0-3 1-7 1-11-1-13-20-27-22-25 6 7 8 17 7 20-7-16-21-1-27-18-1 18 9 25 17 30l-19-1c7 14 26 15 41 12 3 1 13 12 17 16-12 25-22 38-15 76-3-2-14-12-15-17-2-5 2-19-8-33-5-7-15-11-20-8 10 3 11 16 9 21-4-12-13-10-19-11s-10-7-15-9c-2 17 16 30 27 34-7 1-21-4-26-7 6 26 39 26 48 19 4 3 17 20 22 24 7 26 9 73 4 107 4 2 12 2 16 0Z"/><path id="a" fill="#ffb81c" d="m329 540 8-7c-8-8-27-23-43-29-17-6-27-17-36-31-7-13-31-49-44-50 9 11 4 41 11 49-4-3-13-11-14-13 2-6 1-61-13-80 2 28-14 31-14 44l-6-13c14-16 23-58 15-71-4 21-20 18-24 30-2-3-2-10-2-12 18-10 41-44 35-55-9 22-22 8-30 19-1-2 4-13 5-14 15 1 42-13 43-33-8 10-15-3-26 3 0-2 3-7 6-10 7 12 43 3 47-17-11 6-16-4-26 1 1-3 5-6 9-8 8-2 32 11 52-16-14 3-24 6-27 5 0-4 34-6 36-18-7-1-14-1-20 2-7 3-14 12-15 11-1-2 15-16 16-17h-4c-15 0-34 11-37 26-3 1-8 4-9 5 0-11 8-19 20-27-6-3-51 8-47 49l-3 3c-3-11 0-24 6-30-18-1-42 40-27 68l-2 5c-6-10-7-28-3-41-28 24-28 59-3 87l-1 4c-6-5-20-24-19-37-19 24-4 78 29 90l1 5c-10-5-25-12-36-33-6 34 24 80 68 80l5 6c-11 0-45-6-55-15 20 48 86 63 140 56l34 29Z"/><use xlink:href="#a" transform="matrix(-1 0 0 1 600 0)"/></svg>