<svg xmlns="http://www.w3.org/2000/svg" xmlns:xlink="http://www.w3.org/1999/xlink" width="1200" height="720"><path fill="#c40f38" d="M0 0h1200v720H0z"/><path fill="#ffb81c" d="M0 180h1200v360H0z"/><path d="m356 289 1-2-4-2 4-2-1-2 6 2v4zm11-7h-4l-3-4h3l2-5 2 5h3zm7 7-6-2v-4l6-2-1 2 4 2-4 2zm70 0-6-2v-4l6-2-1 2 4 2-4 2zm-11-7-3-4h3l2-5 2 5h3l-3 4zm-7 7 1-2-4-2 4-2-1-2 6 2v4zm100 25c-1-2-3-3-5-3 1-4 7-1 5 3m-9-1c1-1 2-3 1-5 4 1 2 5-1 5m0-1c-1-2-3-2-5-1 1-5 8-4 5 1m-7-4v-3h-1v-1h1v-1h1v1h1v1h-1v3zm12 12 1-2-2-1h2l1 1 1-1v1zm-5-2v-2l-1 1-1-1 1-1 1 1v-2h1v2l1-1 1 1-1 1-1-1v2zm-44-36-4-5c10-12 0-23-27-23 30-5 46 15 31 28m38 27c2 6-3 6-1 0zm-10 15h19c2-1 0-2 6-6v-2c3-5-1-9-5-7-3-3-7-3-9 0v-3l1-1v-1l-2-2h-1l-2 2v1l1 1v3c-2-3-6-3-9 0-4-2-8 2-5 7v2c6 4 4 5 6 6m3-12c-3-5 4-6 5-1-2-1-4-1-5 1m-34-38c-5-5-16-8-26-8 1-3 1-8-1-11 16 0 33 5 27 19m40 44v-2l-1 1-1-1 1-1 1 1v-2h1v2l1-1 1 1-1 1-1-1v2zm-6-5c-3 0-5-4-1-5-1 2 0 4 1 5m-3 9-2-4 2-1c2 3 3 3 5 0h2c2 3 3 3 5 0h2c2 3 3 3 5 0l2 1-2 4c-5-1-14-1-19 0m2-4v-2l-1 1-1-1 1-1 1 1v-2h1v2l1-1 1 1-1 1-1-1v2zm-8-4c-2-4 4-7 5-3-2 0-4 1-5 3m-26-23-2-1 1-5 2 2 4-2zm26 40v-6h31v6zm4-11-3-2v-1l1 1 1-1h2l-2 1zm-62-47-5-4c16-17-8-28-27-20 18-14 53 5 32 24m62 61c-2 0-2-2 0-2h23c2 0 2 2 0 2zm0 5c2-1 2-3 0-4h23c-2 1-2 3 0 4zM394 237c-1 0-1-2 0-2h5v-11h-4v-2h4v-3h2v3h4v2h-4v11h5c1 0 1 2 0 2zm65 56 1-1-3-4 5 1 1-2 2 3-3 3zm-25-28c-9 0-15-9-28-6l-1-9c16-7 38 0 29 15m65 77c-2 0-2-2 0-2h23c2 0 2 2 0 2zm-101-71-4-4c2-4 2-11 2-19 0-6 8-6 8 0 0 8 0 15 2 19l-4 4-2-4zm125 120v-3l5 2zM409 286l-6-2v-4l6-2-1 2 4 2-4 2zm-11-7-3-4h3l2-5 2 5h3l-3 4zm-32-14c-9-15 13-22 29-15l-1 9c-13-3-19 6-28 6m-3 8c-21-19 14-38 32-24-19-8-43 3-27 20zm28 13 1-2-4-2 4-2-1-2 6 2v4zm59 55-8-8 1-1h2v3h3v3h3v2zm-101-37-7-4c3 1 7-1 9-5 5 4 14 2 15-6 3 6 14 7 17 0 4 5 16 4 17-4 1 8 13 9 17 4 3 7 14 6 17 0 1 8 10 10 15 6 2 4 6 6 10 4l-8 5c-26.1-8.3-75.9-8.3-102 0m1 1c31-8 69-8 100 0l-5 11c-19.7-7-70.3-7-90 0zm6 14c0-9 88-8 88 0 0 6-88 6-88 0m-26-45c-6-14 11-19 27-19-2 3-2 8-1 11-10 0-21 3-26 8m-3 8c-15-13 1-33 31-28-27 0-37 11-27 23zm11 11-4-3 3-3 1 2 5-1-3 4 1 1zm160 169c-1 0-1-2 0-2h25c1 0 1 2 0 2zm-3 5 3-4h25l3 4zM331 292l-5-7 3 2 2-2 2 5zm163 183v-7h33v7zM368 344v-2h1v1h2v-1h3v1h2v-1h1v2zm-11-9v-2h1v1h2v-1h3v1h2v-1h1v2zm11 11v-1h9v1zm8 6 1-2h2v2zm-3-3v-2h2v2zm-11-9v-2h2v2zm-5-3v-1h9v1zm19 18v-2h3v2zm-6-6v-2h2v2zm7 9v-2h2v2zm-18-18v-2h2v2zm11 15v-3l-1-2h7l-1 2v3zm-8-9v-2h2v2zm-3-3v-2h5v2zm12 15v-2h5v2zm3 3v-2h5v2zm-9-9 1-2h2l1 2zm-6-6v-2h2v2zm0 3v-2h5v2zm6 6v-2h4v2zm43 46c-3-5-1-6 0-7 1 1 3 2 0 7m-37-37v-2h5v2zm-6-6v-2h5v2zm3 3v-2h5v2zm-9-6v-3l-1-2h7l-1 2v3zm15 12-1-2h3v2zm-28-23v-2h1v1h2v-1h3v1h2v-1h1v2zm28 26v-2h2v2zm34 35c-2-3-4-4-5-2-1-3 3-4 5-1 2-3 6-2 5 1-1-2-3-1-5 2m-62-59v-1h9v1zm8 6 1-2h2l1 2zm8 9v-2h5v2zm-3-3v-2h5v2zm6 6v-2h5v2zm-14-15v-2h2v2zm23 24v-2h2v2zm-20-18v-2h4v2zm52 55c0-3 4-3 4 0l-1-1-1 1-1-1zm1-3c-5-2 7-2 2 0zm-59-58v-2h2v2zm26 27v-2h2v2zm-15-12v-2h5v2zm3 3v-2h6l-1 2zm-6-6v-2h5v2zm-3-3v-2h5v2zm-5-3v-3l-1-2h7l-1 2v3zm32 30v-2h2v2zm-6-6v-2h2v2zm-9-9v-2h2v2zm27 31c-3-5-1-6 0-7 1 1 3 2 0 7m-48-49v-2h2l1 2zm9 12v-2h5v2zm3 3-1-2h6v2zm6 6v-2h5v2zm-3-3v-2h5v2zm-12-12v-2h5v2zm3 3v-2h5v2zm18 18v-2h5v2zm3 3v-2h5v2zm3 3v-2h5v2zm3 3v-2h5l-1 2zm-33-33v-2h3v2zm21 21v-2h2v2zm35 37c-3-5-1-6 0-7 1 1 3 2 0 7m-8-8c-2-3-4-4-5-2-1-3 3-4 5-1 2-3 6-2 5 1-1-2-3-1-5 2m-36-35v-2h2v2zm-12-12v-2h2v2zm12 15v-2h5v2zm14 12-1-2h4v2zm4 6v-2h6l-1 2zm-86-87v-2h-1v-1h1v-1h1v1h1v1h-1v2zm83 84v-2h5v2zm-12-12v-2h5v2zm3 3v-2h5v2zm-15-15v-2h5v2zm21 18-3-2h5v2zm-24-21v-2h5v2zm47 46c-5-2 7-2 2 0zm9 10c-2-3-4-4-5-2-1-3 3-4 5-1 2-3 6-2 5 1-1-2-3-1-5 2M292 315c5-5 3-8 7-6-2 1-5 6-7 6m98 95c0-3 4-3 4 0l-1-1-1 1-1-1zm-25-26-1-1 1-2 2 2zm2 3-1-2 2-2 2 3zm-67-67 1-2-2-1h2l1 1 1-1v1zm56 56v-2h2v2zm-9-9v-2h3l-1 2zm23 24v-2h3v2zm29 28c-5-2 7-2 2 0zm-29-25v-2h8l-1 2zm-14-15v-2h5v2zm-68-67v-6h-1v-1h3v1h-1v6zm72 71-1-3h5l-1 3zm-65-65v-2l-1 1-1-1 1-1 1 1v-2h1v2l1-1 1 1-1 1-1-1v2zm103 104c0-3 4-3 4 0l-1-1-1 1-1-1zm-51-52v-2h2v2zm20 24v-6l2-1v7zm-20-21v-2h2v2zm11 11-2-1 2-2 1 2zm-8-5v-2h5v2zm3 3v-2h5l-3 2zm-6-6v-2h2v2zm-59-58v-2l-1 1-1-1 1-1 1 1v-2h1v2l1-1 1 1-1 1-1-1v2zm-3-3c-2 0-5-5-7-6 4-2 2 1 7 6m62 64v-2h2v2zm9 8-3-1 2-3 2 2zm-77-65-2-4 2-1c2 3 3 3 5 0h2c2 3 3 3 5 0h2c2 3 3 3 5 0l2 1-2 4c-5-1-14-1-19 0m68 60v-2h5v2zm3 3v-2h4l-1 2zm-69-67v-2l-1 1-1-1 1-1 1 1v-2h1v2l1-1 1 1-1 1-1-1v2zm73 76v-7l2 1v6zm-10-9v-2h5v2zm6 6v-2h3v2zm-3-3v-2h5v2zm-74-57v-6h31v6zm68 54v-2h2v2zm-64-65-3-2v-1l1 1 1-1h2l-2 1zm64 68v-2h5v2zm3 3v-2h5v2zm3 3v-2h6v2zm-70-60c-2 0-2-2 0-2h23c2 0 2 2 0 2zm133 125h2v-4h-2zm-69-68v-2h2v2zm-64-52c2-1 2-3 0-4h23c-2 1-2 3 0 4zm64 55v-2h5v2zm-64-52c-2 0-2-2 0-2h23c2 0 2 2 0 2zm115 131v-40l7 1v22c-1 6-3 12-7 17m-17 13v-79c0 7 3 15 8 20v55zm25 1c4-3 4-8 0-11l-1 1c-3 3-2 7 1 10m0 2c-4-1-7-4-7-7 0-2 1-4 4-5v-2l1 1 2-2 2 2 1-1v2c3 1 4 3 4 5 0 3-3 6-7 7m-42-1v-81h8v81zm-9-2-8-4v-75h8zm-17-13c-3-4-6-10-6-20v-46h6zm-56-82-5-1 5-2zm0 71c-1 0-1-2 0-2h25c1 0 1 2 0 2zm-3 5 3-4h25l3 4zm-1 8v-7h33v7zm4-103c-6 2-8 3-12 6s-6 5-3 13c4 9 3 10 15 12v13c-12 5-15 8-15 12 0 17 8 8 8 19q7.5-6 3-15l4-2v29c-2 1-2 2-1 4l-4 5v7l-6 1v19l1 1c3-1 6-2 10-2s8 2 12 2 9-2 13-2 6 1 10 2l1-1v-19l-6-1v-7l-4-5c1-2 1-3-1-4v-40c5-3 9-5 10-10l1-8c1-5-1-7-11-8v-9c7 0 15 1 23 4v65c0 40 57 45 76 45s75-5 75-45v-65c8-3 16-4 23-4v9c-10 1-12 3-11 8l1 8c1 5 5 7 10 10v40c-2 1-2 2-1 4l-4 5v7l-6 1v19l1 1c3-1 6-2 10-2s8 2 12 2 9-2 13-2 6 1 10 2l1-1v-19l-6-1v-7l-4-5c1-2 1-3-1-4v-29l4 2q-4.5 9 3 15c0-11 8-2 8-19 0-4-3-7-15-12v-13c12-2 11-3 15-12 3-8 1-10-3-13s-6-4-12-6v-29c4-3-1-4-1-6s4-3 2-5h3v-8h-33v8h3c-2 2 2 3 2 5s-5 3-1 6v26c-8 0-16 1-23 3v-49h-35c5-1 6-3 8-9l3-2 1-7 12-9c3 2 7-1 6-4l6-8-2-1c16-14 0-35-32-30-7-9-24-14-37-5 0-3-2-5-3-5 7-3 8-11 0-14v-4h4v-4h-4v-3h-4v3h-4v4h4v4c-8 3-7 11 0 14-1 0-3 2-3 5-13-9-30-4-37 5-32-5-48 17-32 30l-2 1 6 9c0 4 3 5 6 5l12 7 1 7 3 2c2 6 3 8 8 9h-36v49c-9-2-16-3-23-3v-26c4-3-1-4-1-6s4-3 2-5h3v-8h-7c2-1 0-2 6-6v-2c4-8-6-9-14-9l1-1v-1l-1-1v-1l1-1v-1l-2-2h-1l-2 2v1l1 1v1l-1 1v1l1 1c-8 0-18 1-14 9v2c6 4 4 5 6 6h-7v8h3c-2 2 2 3 2 5s-5 3-1 6z"/><path fill="#c40f38" d="M267 377c-9 6-7 8-3 18 5-10 36-17 60-8v-14c-20-5-45-4-57 4m62-92 3-3 2 6 4-5 1 4 7-1-4 6 2 2-6 1c0 5 12 6 12-2 6 5 14 3 14-4l-1-1-9 3 1-4-5-2 5-2-1-4 7 2-3-4h4l1-2-7-8c-10 0-20 3-25 8l2 2-6 7zm39-8h4l-3 4 7-2-1 4 5 2-5 2 1 4-8-3c0 5 12 8 15-1 5 7 15 4 15-2l-9 3 1-4-5-2 5-2-1-4 7 2-4-4h5l1-2-6-5c1-2 2-5 2-7-13-3-18 6-27 6l3 3-4 4zm151 37c3 3 3 1 5 3 5-3-4-8-5-3m-7 0 2 2c5-4-1-8-2-2m-5 2 2-2c-1-6-7-2-2 2m13 7c-5-1-14-1-19 0 4 1 15 1 19 0m-23-6c2-2 2 0 5-3-1-5-10 0-5 3m-31-26c-3 0-3 4 0 4s3-4 0-4m3-16c-5-5-15-8-25-8l-7 8 1 2h4l-3 4 7-2-1 4 5 2-5 2 1 4-9-3-1 1c0 7 8 9 14 4 0 8 12 7 12 1h-6l2-2-4-6 7 2 2-4 3 5 1-6 3 3 3-2-6-7zm-34 12c3 0 3-4 0-4s-3 4 0 4m-32-13h5l-4 4 7-2-1 4 5 2-5 2 1 4-9-3c0 6 10 9 15 2 3 9 15 6 15 1l-8 3 1-4-5-2 5-2-1-4 7 2-3-4h4l2-4-4-4 3-3c-9 0-14-9-27-6 0 2 1 5 2 7l-6 5zm126 117-6 1v10c16-2 10-9 6-11m6 4c4-10 6-12-3-18-12-8-37-9-57-4v14c24-9 55-2 60 8M400 284c3 0 3-4 0-4s-3 4 0 4m131 137c-12-6-34-13-43-21 2 10-1 12 10 18s29 11 38 18c2-9 1-12-5-15m-3 11c-2 5-3 8 1 13 0-5 6-6 6-8 0-1-4-3-7-5M365 287c3 0 3-4 0-4s-3 4 0 4m-31 9c3 0 3-4 0-4s-3 4 0 4m19 16c3 0 3-4 0-4s-3 4 0 4m94-4c-3 0-3 4 0 4s3-4 0-4m-107 87v-13h6v-20h-3v-13h4v-2h-2v-6h11v6h-2v2h4v-11h-2v-6h11v6h-2v11h4v-2h-2v-6h11v6h-2v2h4v13h-3v20h6v3c4-4 10-7 16-7v-53h-73v80h49c0-4 1-8 2-10zm84 11c0-15-10-27-24-27s-24 12-24 27 10 27 24 27 24-12 24-27m-41 0c0-12 7-21 17-21s17 9 17 21-7 21-17 21-17-9-17-21m-81-89c6-6-2-11-6-4l3 3zm99 117v20c1 22 19 34 36 34 18 0 36-15 36-33v-48h-48c0 15-10 27-24 27M291 315c10-9-4-9-1-3l-1 1zm-5 0 2-2-1-1c3-6-11-6-1 3m12 8c-5-1-14-1-19 0 4 1 15 1 19 0m-20-7 3-3c-4-7-12-2-6 4zm106 165c3-2 6-4 7-7v-42c-3-1-5-2-7-4zm-17 7 7-2v-79h-7zm33-2c3-3 3-6 0-9-3 3-3 6 0 9m-99-92v11c12-6 14-9 0-11m49 92 7 2v-81h-7zm-17-12 7 7v-74h-7zm-57-82-6-1c-4 2-10 9 6 11zm-13 44c9-7 27-12 38-18s8-8 10-18c-9 8-31 15-43 21-6 3-7 6-5 15m1 1c0 2 6 3 6 8 4-6 3-8 1-13-3 2-7 4-7 5m178-118c0-6-84-6-84 0 0 4 84 4 84 0m4 76v3l2-2zm-20-17-3 1 2 1zm-13-39-3 1 2 1zm33 50-2 2h2zm6 9 3 2v-2zm-22-10h-2l2 2zm-6-3v-2l-2 2zm-5-15v-2h-2zm-5-6-2 2h2zm1-5-2 2h2zm-3-13v-2l-2 2zm5-9v2h2zm20 5c-7 0-6-4-12-4 0 2 6 5 12 4m-11-43 13 2-6-6zm-35-1h18l-9-6zm-30 3 13-2-7-4zm-12 3 12-3-9-2zm99-5-9 2 12 3zm-74 0 17-1-8-3zm35-1 17 1-9-4zm-9 5c-6 0-8 3 0 3s6-3 0-3m98 102v-11c-14 2-12 5 0 11"/><path fill="#0859b9" d="M402 230v4h4c0-1-1-3-4-4m-4 0c-3 1-4 3-4 4h4zm8 8h-12c2 5 10 5 12 0m122 238h-35l-5 1v2c3-1 6-2 10-2s9 2 13 2 8-2 12-2 7 1 10 2v-2zm-17 8c-4 0-9-2-13-2s-7 1-10 2v3c3-1 6-2 10-2s9 2 13 2 8-2 12-2 7 1 10 2v-3c-3-1-6-2-10-2s-8 2-12 2m0 8c-4 0-9-2-13-2s-7 1-10 2v3c3-1 6-2 10-2s9 2 13 2 8-2 12-2 7 1 10 2v-3c-3-1-6-2-10-2s-8 2-12 2M368 368v8h5v-8c0-4-5-4-5 0m32 18c-9 0-16 9-16 20s7 20 16 20 16-9 16-20-7-20-16-20m-8 25-1-1-2 1 1-3c-1-1-2-3 1-3-1-2-3-3-4-1-3-3 0-6 4-4-3-3-1-6 1-7 2 1 4 4 1 7 4-2 7 1 4 4-1-2-3-1-4 1 3 0 2 2 1 3l1 3-2-1zm13 5c-1-2-3-1-4 1 3 0 2 2 1 3l1 3-2-1-1 1-1-1-2 1 1-3c-1-1-2-3 1-3-1-2-3-3-4-1-3-3 0-6 4-4-3-3-1-6 1-7 2 1 4 4 1 7 4-2 7 1 4 4m8-12c-1-2-3-1-4 1 3 0 2 2 1 3l1 3-2-1-1 1-1-1-2 1 1-3c-1-1-2-3 1-3-1-2-3-3-4-1-3-3 0-6 4-4-3-3-1-6 1-7 2 1 4 4 1 7 4-2 7 1 4 4m-63-36v8h5v-8c0-4-5-4-5 0m7 21v5h9v-5c0-7-9-7-9 0m-86 87-5 1v2c3-1 6-2 10-2s8 2 12 2 9-2 13-2 7 1 10 2v-2l-5-1zm17 8c-4 0-8-2-12-2s-7 1-10 2v3c3-1 6-2 10-2s8 2 12 2 9-2 13-2 7 1 10 2v-3c-3-1-6-2-10-2s-9 2-13 2m0 8c-4 0-8-2-12-2s-7 1-10 2v3c3-1 6-2 10-2s8 2 12 2 9-2 13-2 7 1 10 2v-3c-3-1-6-2-10-2s-9 2-13 2"/><path fill="#028a66" d="M436 442q-3 0-3 3c0 3 1 3 3 3s3-1 3-3-1-3-3-3m-34 50h8l6-3-6-1zm-3 1 1 1 1-1-1-3zm-15-4 6 3h8l-8-4zm37-183c0 2 8 3 8 1s-8-3-8-1m-50 1c0 2 8 1 8-1s-8-1-8 1"/><path fill="#d3d3d5" d="M522 343h-3v28l3 1zm-4 0h-2v27l2 1zm-3 0h-16v26c5 0 10 0 16 1zm7 45-3-1v27l3 2zm-4-1-2-1v27l2 1zm-3-1c-6-1-11-1-16-1v21l16 7zm7 45-3-1v29h3zm-121-53c13 0 24 12 24 27h48v-80h-72zm8-38c3-3 5-2 7 0v-5c6 4 3 6 3 8 0 3 7 3 8 6 2-2 8 1 4-3v-3c-4-1-7-3-7-6 6 0 6 2 9 3-2-9 6-3 9-8v-5l1 1v1l1-1v2h-1v1h2v-1l1-1v1h1v1h1l-1 1h-1v2h2v-1l1-1v1h1v1h1l-1 1h-1v2h2v-1l1-1v1h1v1h1l-1 1h-1v2h1v-1h2l-1 1h1l1 1h-5l-1 1 1 4h-2l1 3h-2l1 5-3-2v5l-2-2c0 4 5 14 9 14 8 0 0-16 4-23 0-5 2-8 4-12l1 3 5-4-3 7h2c-1 4-2 5-6 7-3 12 10 23-5 28-4 4-1 7 3 8 1 5-5 5-1 18-4 0-6-2-7-5l-4 4c-2-2-2-5 0-8h-4c2-4 5-5 8-4l-2-4v3l-2-2v2c-3-2-5-4-4-9-6 0 0 7-4 9-2 1-5 0-7-1v5c-3 0-4-3-5-5h-5c0-2 2-4 4-4l-3-3c2-2 5-3 7 1 2 3 4 1 4 0l-2-2 1-2-3-2c3-3 6-4 11-4-4-1-6-4-8-7l-5 3v-3l-3 5v-4c-1 1-2 2-4 2v5c-3 0-4-2-4-4h-5c0-2 2-4 4-5h-4c4-8 9 0 14-5l-4-3-4-1 1-2-3-1c4-2 1-4-6-3 0-2 1-4 4-4zm109 89-2-1v31h2zm-3-1-16-7v38h16zm-215-85h-3v26h3zm-4 0h-2v26h2zm-3 0h-16v29c5-2 13-3 16-3zm107 115c0 16-20 36-46 31 32 10 60 10 92 0-26 5-46-15-46-31m10 35h-8l-2 2-2-2h-8l-9-4 9-2 8 4 1-1c-3-1-7-4-7-8 0-3 1-5 4-6v-3l2 2 2-3 2 3 2-2v3c3 1 4 3 4 6 0 4-4 7-7 8l1 1 8-4 9 2zM300 385h-3v22l3-1zm-4 0h-2v24l2-1zm-3 0c-3 0-11 1-16 4v27l16-7zm7 36-3 1v37h3zm-4 2-2 1v35h2zm-3 1-16 7v28h16zm144-81h-2v1zm-4 0v1l2-1zm1-5v2l1-1zm2 2-1-1v2zm87 138c-4 0-8 2-12 2s-9-2-13-2-7 1-10 2v3c3-1 6-2 10-2s9 2 13 2 8-2 12-2 7 1 10 2v-3c-3-1-6-2-10-2m-12 10c-4 0-9-2-13-2s-7 1-10 2v3c3-1 6-2 10-2s9 2 13 2 8-2 12-2 7 1 10 2v-3c-3-1-6-2-10-2s-8 2-12 2m-223-8c-4 0-8-2-12-2s-7 1-10 2v3c3-1 6-2 10-2s8 2 12 2 9-2 13-2 7 1 10 2v-3c-3-1-6-2-10-2s-9 2-13 2m0 8c-4 0-8-2-12-2s-7 1-10 2v3c3-1 6-2 10-2s8 2 12 2 9-2 13-2 7 1 10 2v-3c-3-1-6-2-10-2s-9 2-13 2"/><path fill="#ed72aa" d="m432 355 4-2v4l3-4 2 3 2-3 2 2v-5l3 2-1-4h2l-1-3h2l-1-4-7-7c-4 3-8 0-8 3h1v1c7 3 4 9-3 6v2c5 5-5 1-5 5h5zm9-19 2 2h-1l-3-1zm24 0-3 2-1-2c-2 3-3 6-3 10-5 5 5 24-5 24-4 0-9-8-10-15l-2 3-2-3-6 8c5 8 12 6 13 12-3 2-5 7-1 10l1-3 1 2 1-3c0 4 3 4 3 8-6-1-4 3-2 3-4 1-1 5 2 2-1 2 2 5 4 2-2-8 3-9 2-12-5-2-7-7-2-10 13-5 2-14 4-27 3-2 5-3 6-6h-2zm-48 14h2v2l3 1 3 3 4-4h-3v-3c-2-3-8-2-8-6 2-4-2-4-2-1-1-5-5 0-1 1-2 0-4 3 0 3 1 0 5 2 2 4m8 12v3l3-6v5c5-2 8-5 7-9l-5 2 1-2-1-2c-5 2-2 7-11 7-2-2-5 0-2 2-4 1-2 5 0 3-1 3 3 3 2 0 3 0 3-1 6-3m5 12 3 1-1 3 3-1-2 2 2 2c-1 1-4 2-6 0-2-4-5 0-2 1-3 0-3 4 0 3 0 3 3 2 3 0 5 2 9 2 9-1-1-3-2-8 4-7 5-7-8-8-13-3"/><path fill="#ffb81c" d="M462 441v-5l2-1v-6l-2-1v-7c1 0 3-2 3-4s-2-4-4-4-4 2-4 3h-5l-1-2h-6l-1 2h-4c0-5-8-5-8 0h-3l-1-2h-4v2h3v2h-4l-1 2h6l1-2h3c0 1 2 3 3 3v4l-2 1v6l2 1v10l-8-8 1-2-4-4-2 1-3-3-1 1 3 3-1 2 4 4 2-1 8 8h-6l-1-2h-6l-1 2h-5c0-1-2-3-3-3v-6l2-1v-4l-2 1v2h-2v-1l-2 1v1l2 1v6c-5 0-5 8 0 8v4l-2 1v6l2 1 1 4c-3 2 0 7 4 6l4 3v2l6 3 2-1 5 2c0 4 8 4 8 0l5-2 2 1 6-3v-2l4-3c4 2 7-4 4-6l1-4 2-1v-6l-2-1v-4c5 0 5-8 0-8m-37-6-3-3 1-1 3 3zm37-5v4h-2v-4zm-2-2-2 1v6l2 1v5c-1 0-3 2-3 3h-5l-1-2h-6l-1 2h-6l8-8 2 1 4-4-1-2 9-9zm-10 16v2h-4v-2zm-4-10 3-3 1 1-3 3zm0-18h4v2h-4zm-9 5c1 0 3-2 3-3h4l1 2h6l1-2h5l2 3-9 9-2-1-4 4 1 2-8 8v-10l2-1v-6l-2-1zm-2 6h2v4h-2zm-13 17h4v2h-4zm-14 1c0-3 5-3 5 0s-5 3-5 0m5 19-1-3 2-1v-6l-2-1v-4c1 0 3-2 3-3h5l1 2h6l1-2h6l-8 8-2-1-4 4 1 2-5 5zm13-8-3 3-1-1 3-3zm-1 21-4-2 1-1 4 2zm10-2c-1 0-3 1-3 3l-5-2v-2l-4-2-2 1-4-3v-5l5-5 2 1 4-4-1-2 8-8v12l-2 1v6l2 1zm0-10v-4h2v4zm12 12-1-1 4-2 1 1zm8-7-4 3-2-1-4 2v2l-5 2c0-2-2-3-3-3v-8l2-1v-6l-2-1v-12l8 8-1 2 4 4 2-1 5 5zm-9-14 1-1 3 3-1 1zm13 8h-3l-5-5 1-2-4-4-2 1-8-8h6l1 2h6l1-2h5c0 1 2 3 3 3v4l-2 1v6l2 1zm3-5h-2v-4h2zm-3-14c0-3 5-3 5 0s-5 3-5 0m-185.3-68.4c-1.4.5-2.7 1.2-2.7 1.2l3.2 7.7 1.6-.7-1-2.6 1-.5c1.2-.6 2.4-2.1 1.7-3.7s-2.4-2-3.8-1.4m1.4 3.7-1 .5-1-2.3 1-.5q1.4-.4 1.8.7.3 1-.8 1.6m210.5-1.2-3.4-5.5-1.9.2 5 7.8 1.4-.2 2.5-8.8-1.8.2zm9.6-6.9-1.8.1.2 8.3 4.9-.1V379h-3.2zM307.6 375q.2-.6 1.2-.6c1.1 0 2.3 1 2.3 1l.2-1.6a5 5 0 0 0-2.7-1q-2.4.2-2.7 2c-.2 2.9 3.7 2.8 3.7 4.2q0 .6-1.4.7c-1.3 0-2.6-1.2-2.6-1.2l-.3 1.7q1.3 1 3 1.1c1.5 0 3-.7 3.1-2.2.1-2.4-3.8-2.7-3.8-4Zm209-1.1-3-.6-1.6 8.2 1.7.3.7-3.6 2.2 4.2 2 .4-2-4q1.7.1 2.3-1.6.8-2.5-2.3-3.3m.5 2.9c-.2.9-1.2.9-1.6.8l-1-.2.4-2.2 1.2.2c.4.2 1.2.5 1 1.4m-15.6-3.1 2.6.2-.4 6.8 1.7.1.5-6.8 2.5.1.1-1.5-6.9-.4zm28.4 14v-9.2l-1.3-.8-6.9 6 1.7.8 1.5-1.3 3.3 1.5v2zm-4-5.6 2.6-2.1-.2 3.1zm-229.5-3.7h-.1l-2.7-6.1-1.8.1 3.9 8.3h1.4l3.7-8.4h-2zm-11.2 2-1.2-6.7-1.7.4 1.5 8.2 5-1-.2-1.5z"/><use xlink:href="#a" fill="#0a1a1d" transform="translate(0 -1)"/><use xlink:href="#b" transform="matrix(-1 0 0 1 800 0)"/><g fill="#faf6f5"><path id="a" d="M400 250c3 0 3-4 0-4s-3 4 0 4m0 5c3 0 3-4 0-4s-3 4 0 4m0 5c3 0 3-4 0-4s-3 4 0 4m0 6c4 0 4-5 0-5s-4 5 0 5"/><g id="b" fill="#faf6f5"><use xlink:href="#c" fill="#0a1a1d" transform="translate(-1 -1)"/><path id="c" d="M389 246c3 0 3-4 0-4s-3 4 0 4m-7-2c3 0 3-4 0-4s-3 4 0 4m-7 0c3 0 3-4 0-4s-3 4 0 4m-6 2c3 0 3-4 0-4s-3 4 0 4m-6 3c3 0 3-4 0-4s-3 4 0 4m-5 4c3 0 3-4 0-4s-3 4 0 4m-8 0c3 0 3-4 0-4s-3 4 0 4m-8 1c3 0 3-4 0-4s-3 4 0 4m-7 2c3 0 3-4 0-4s-3 4 0 4m-7 3c3 0 3-4 0-4s-3 4 0 4m-4 4c3 0 3-4 0-4s-3 4 0 4m-3 5c3 0 3-4 0-4s-3 4 0 4m-1 6c3 0 3-4 0-4s-3 4 0 4m1 6c3 0 3-4 0-4s-3 4 0 4m35-21c3 0 3-4 0-4s-3 4 0 4m0 6c3 0 3-4 0-4s-3 4 0 4m3 5c3 0 3-4 0-4s-3 4 0 4m23 17c3 0 3-4 0-4s-3 4 0 4m-33 6c3 0 3-4 0-4s-3 4 0 4m38 14c-3 0-3-4 0-4s3 4 0 4m-24 3c-3 0-3-4 0-4s3 4 0 4"/></g></g></svg>