<svg xmlns="http://www.w3.org/2000/svg" width="1200" height="600"><style>.B{stroke-miterlimit:4.8}.C{stroke:#0a1a1d}.D{fill:#961538}.E{stroke-width:.78}.F{fill:#24a34e}.G{stroke-width:.48}.H{stroke-miterlimit:3}</style><clipPath id="A"><path d="M0 0v150h700v150H600zm0 300v100h300V0h300z"/></clipPath><path fill="#012778" d="M0 0h1200v600H0z"/><path stroke="#faf6f5" stroke-width="60" d="m0 0 600 300M0 300 600 0"/><path stroke="#c40f38" stroke-width="40" d="m0 0 600 300M0 300 600 0" clip-path="url(#A)"/><path stroke="#faf6f5" stroke-width="100" d="M300 0v400M0 150h700"/><path stroke="#c40f38" stroke-width="60" d="M300 0v400M0 150h700"/><path fill="#62c1f2" d="M0 300h600V0h600v600H0z"/><path fill="#faf6f5" d="M778.8 144v205c0 67.1 121.2 107 121.2 107s121.2-39.9 121.2-107V144z"/><g fill="#c40f38"><path d="M883.2 216v92.3H778.8V342h104.4v107.6L900 456l16.8-6.4V342h104.4v-33.6H916.8V216z"/><path d="M778.8 144h242.4V223H778.8z"/></g><g class="C"><g fill="#faf6f5"><ellipse cx="798.23" cy="192.212" stroke-width=".803" rx="13.623" ry="10.962"/><g stroke-width=".805"><ellipse cx="798.23" cy="186.525" rx="12.114" ry="6.123"/><ellipse cx="798.23" cy="198.769" rx="12.114" ry="6.123"/><ellipse cx="798.23" cy="192.213" rx="12.114" ry="6.123"/></g></g><path fill="#fcd80e" stroke-width="1.2" d="m1015.2 207.4-2-5.4s-5.4-2.3-5.8-5.1c-1-7.7-3.7-10.6-7.9-11.7-4-1.1-6.8.7-6.8.7-1.3 1.7-7.5 1.7-10.9 1.9-3.4.1-3.5-1.5-3.5-1.5-2.7 0-3.8-2-3.8-2-1.7-3.4-3-4.7-3.9-5.2 4.5 0 7.8-2 12.9-7.3 5.5-5.7 9.4-3.5 9.4-3.5-2.7 5.4.9 5 .9 5 7.2-3.8 1-13.1-1.3-12.7s-2.8-1-2.8-1c0 1.6-2.4 2.3-2.4 2.3 1.8-10.7-4.5-13.5-4.5-13.5a8 8 0 0 0-1.5 2.8c-1.8 6.5-7.7 5.5-14.3 2.4-6.6-3.2-24.2 3.3-29.7 5.5s-15.5 5.6-24.6.5-11.3-4.1-14.8-3.1-10 2.4-12.3 1.2-5-1.3-5-1.3c.7-.4-.3-1.9-.3-1.9-2.8-3.7.3-6 .3-6s-5 1.5-3 10.2l.9 1.3s.7 2.8 2.2 3.6v.6s1.2-.6 1.6 1.2c.5 1.8 2.4.1 3.2-1.4 0 0-1.4 8 8.5 10 0 0-1-1.3-.7-2.2s-1.2-1.5-1-2.7-2.5-1.8-.5-2.8 3-2.8 7.4-.2 7.9 2 7.9 2-2.7-5.5-1.2-5.5 8 8.3 11.4 7.9 9.6-4.2 12.7-2.8c0 0 .3-1.6 12.4-3.7s27-8 32.6-2.8c0 0 .6 4.2 3 5.3 0 0-.5 8.6-15.4 3.8L957 169s-.8-2.6-29.3 4.7c0 0-1.6.6-2.7 1.4-1.1.8-2.6-.4-8.3 1.6-5.6 2.1-26.6 9-39.5 6.5-2.9-.8-5.6-.4-5.7-.8-.1-.6 1.5.1 1.5.1l-1.3-1.2c-10.9-1.2-9-6-9-6l.6 1.5c1.8-2.4-.7-7.9-.7-7.9h-.1a5.7 5.7 0 0 0-.1-.5l.9-.6c5.2-4.4 11.3-5.2 11.3-5.2-3.6-4.4-11.2-2-11.2-2 .2-5.4-2-11.6-2-11.6-7.5.8-11.7 7-11.7 7-.3-5.5-7.3-8.6-7.3-8.6 2.6 3.1 1 10.7 1 10.7l.2.1h-.7l-.1 1.6h-.3s-2.6.9-5.6 7.7c0 0-.3 1.7-1.5 3.1v-.5s-3.4 4.4-11.2 0c0 0-10.6-6.3-14.3-6s-6.2 1.9-6 3c0 0-8.4-.8-11.3 4.1 0 0-6.4 2.4-1 7.6 0 0 .8 2.3 2.4 3.5 0 0-.3-4.8.9-3.4 0 0 .3.5.9.8.1.7.6 2.6 1.8 3.5l.8-.2c.1-1.2.4-2.7.6-3.4h.3v.1l1.4 2.4 1.8-1c.8 0 1.8.7 1.8.7l2-1.6c2 .3 2.5-3.5 2.5-3.5 1.7.5 3.4 0 4.7-.9.9 3.1 7.8 6.5 7.8 6.5h.3l-.9.6c3.2 2.2 9 1.7 9 1.7-2.4 1-2 5.5-2 5.5-1.5.6-1.6 2-1.6 2 4.8 2 8 .4 8 .4.3 1.5 0 1.7 0 1.7-2 4.1-2.8 8.1-2.8 8.1h.1l-.2.4s-8.4 2.9-12 7c0 0-.4-1.2-1.5-1.2s-4.3-2.7-5.8-3.1-3.7.4-4.3-.3c-.5-.6-.3-5.4-1.3-6.1l-1-3c-.7 1.6-3.6 1.2-3.6 1.2-.2 0-.6.4-1.2.9l-1.3-.2c-.3 0-.6 1-.8 1.7l-.4.3v-.8c-.5.4-1.7-.3-2.2-.3-.2 0-.5.7-.7 1.4l-2.8.3c-.4.2 0 3.8 0 3.8-3.4 1.9-1.8 4.7-1.8 4.7 1.8 9 17.3 5 18.5 6.1s3.8 1.4 5.2 1.4 3.2 3.4 5.2 3.8 0-2.7 9.1-5 12.3-5.9 12.3-5.9c2.9-.5 3.7-4 3.9-5.4 0 .6 0 1.3.2 2.2.4 3.1-1.8 4.3-1.8 4.3l8-2.4c3.1-.8 2.7-3.6 2.7-3.6 3 8.7 8.5 9.2 8.5 9.2 1.1-3.3 1-4.2 1-4.2l2.5-.2c0-1.8-1.6-3.2-2.5-3.8l3.8 2.3 1.5-.3c0 1.4 2.1 2.6 2.1 2.6l.3-1.7c1.8 2.3 5 1.5 5 1.5a11 11 0 0 0-.2-1.3c7 4.3 18.3-1.2 18.3-1.2 3 .7 3.4-1.1 3.4-1.1 3.4.4 4.2-2 4.2-2 8.1-.6 13.8-6.4 13.8-6.4 4-.3 4.1-3.1 4.1-3.1s4 .8 7.8-4c9-12.8 22.3-6.1 22.3-6.1l-7.7.4c-20.2-.1-11.8 13.6-11.8 13.6h1.2c2 .3 8.5 5.5 6.1 9.4l-.1.2c-4.1 5.7-11.8.3-14-4.5-2.1-4.8-6.5-3.7-6.5-3.7s-11.4 2-6.8 11h.2c0 2.2 1.5 4.7 5.5 7.3 2.3 3.2 9.8 3.5 15.4 2.3 2.5-.5 16-6.4 16-6.4 1-3 4.4-2.2 7.4-6.5s-4.2-5.8-5.9-8c-1.6-2.4.5-2 .5-2 6.5 3.6 7.1-7.8 7.1-7.8a9.9 9.9 0 0 0 6.5 8.3c3.5-3.5 1-10.8 1-10.8 8.4 15.2 13.6 12.8 13.6 12.8-4.6-2.8-2.3-6.6-2.3-6.6 4.1 16.2 21 2 21 2-.8 2.4 0 3.7 1.6 5.2s3.3 2.2 2.4 5c-.8 2.7-8.6 2.2-8.6 2.2s-7.7-.4-7 6c.4 1.5 5.5 2.1 7.4 1.7 0 0-.8.2 2 .5 1 .2 2.1.2 3.3.1 3.3 0 6.8-.6 6.8-.6 4.4-1 3.7-2.5 3.7-2.5 6.7-1.2 7.4-5.8 7.4-5.8z" class="H"/></g><path d="M792 179.3s.3-.9 1-1c.5 0 1.2.4 1.8 1.2l.4-.3s-1.8-2.7-1.1-4.5c.3-.8 1.1-1.4 2.3-1.7v-.4c-1.5.3-2.4 1-2.7 2a3.1 3.1 0 0 0-.2 1c0 1 .3 1.9.6 2.6-.4-.3-.8-.4-1.2-.3-.7 0-1 .6-1.2 1zm212 36c-4.6.7-11.3 1.1-11.9-.3 0-.2 0-1.2 3.7-3.7l-.5-.6c-3 2-4.4 3.5-4 4.6 1 2.5 10.9 1 12.8.8zm-87.8 2.6c-1-1.6-.6-3.8 1.4-6.5l-.7-.5c-2.1 3-2.6 5.6-1.4 7.5z"/><path d="M910 211c.1 2.8 2 5.4 5.8 7.7l.4-.7c-3.5-2.2-5.3-4.5-5.4-7-.1-3.8 3.9-6.8 4-6.8l-.5-.6c-.2 0-4.5 3.2-4.3 7.4zm78.3 1c-1.3 2-.8 4.2-.8 4.3l.8-.2s-.4-2 .7-3.6c.6-1 1.6-1.6 3-1.8v-.8c-1.7.3-3 1-3.7 2.2zM808.9 177h-.2v.2s-.4 2.4-1.5 3.1c-.3.2-.7.2-1 0l-2-1c-.3-.4-.6-.6-1.2-.5a2.7 2.7 0 0 1-.5-2c.1-1 1-2.1 2.3-3.1l-.3-.4c-1.5 1-2.3 2.2-2.4 3.5a3.4 3.4 0 0 0 .7 2.4v.2l.2-.1c.4-.2.6 0 1 .3l2 1.2c.5.2 1 .2 1.4-.1 1.2-.7 1.6-2.7 1.7-3.2 4.8 1 8.8-5 9-5.2l-.5-.2s-4 6.1-8.7 4.9z"/><path d="M797.2 176c-.2 1 0 2 .5 2.9.6.8 1 1.3 1.6 1.4.7 0 1.3-.4 1.7-.9.4-.3.7-.6 1-.6l.4.3.4-.3-.8-.4c-.5 0-.9.3-1.3.7-.4.4-.8.8-1.3.7-.4 0-.8-.4-1.3-1.2-.5-.8-.6-1.6-.4-2.5.5-2.2 3.1-3.8 3.1-3.8l-.2-.4c-.1 0-2.8 1.7-3.4 4zm-6.7 31c.3-.8.9-1.5 2-2.1-.3 0 1 1 2 1l.7-.5c.3.3 2 2 2 4a3.4 3.4 0 0 1-.2 1.4l.4.2c1.4-3.2-2-6-2-6l-.1-.1-.2.1-.6.4c-.9 0-2-.9-2-.9-1.4.6-2.2 1.5-2.4 2.4zm15.5-8c-1 0-3.8.6-4.7 2-.3.6-.3 1.2-.1 1.8l.4 1c.8 2.3 1.7 4.7 2.7 5.3l.2-.4c-.8-.5-1.7-3-2.5-5l-.4-1c-.2-.5-.1-1 .1-1.4.8-1.2 3.3-1.7 4.4-1.8.6 0 .8 2.3 1 3.7h.4c-.2-2.1-.4-4.3-1.5-4.2z"/><path d="M798.4 201.3c-.6.5-.5 1.3-.5 1.4 0 .2.3 6 3 7.2l.2-.4c-2.5-1-2.7-6.8-2.7-6.9 0 0-.1-.6.3-1 .4-.3 1.2-.4 2.4 0l.1-.5c-1.3-.4-2.3-.3-2.8.2z"/><path d="M796.2 201.8c-1.2.8-1.2 3.3-1.2 3.4h.5s0-2.3 1-3c.3-.3.8-.3 1.4 0l.2-.5c-.8-.3-1.4-.3-2 0zm66.1-32.3s1.3 3 1.3 5.3c0 .4-.2.7-.3 1l-.5-1.3-.3 1s-.6 1.4.3 2.9c1.2 2 4.2 3.2 9 3.7v.1l-.4.1-.2.2v.4c.2.5.7.5 1.8.5l.7.1.6.2-.1-.1c1 0 2.3.3 3.6.8l-1 .2 1.1.5c.1 0 8.7 3.5 12.2 6.3-1 .9-5.3 4-12.7 2.2l-1.3-.3.9 1s4.9 5.6 5.9 9c-1.7 0-8.2 0-10.5-2l-.5.5s3 4.6 3.8 8.1c-1 .2-3 .2-4.3-1.4l-.6-.7-.3 2c-.6-.5-1.4-1.1-1.4-1.9v-.4l-1.8.3-3.8-2.3a8 8 0 0 0-.6-.4l-.4.7.6.4c.8.5 2.2 1.6 2.3 3.1l-2.5.2v.4c0 .3 0 1.4-.8 3.7-1.1-.2-5.3-1.7-7.8-8.8l-.8.2a2 2 0 0 1 0 .2c0 .7-.2 2.3-2.4 2.9l-6.5 2c.4-.7.8-1.5.8-2.8a7.2 7.2 0 0 0 0-.8c-.2-1-.2-1.9-.2-2.6 0-1.5.3-2.4 1.4-3l-.4-.8c-.1 0-9.6 3.9-14.3 2.3.2-1 1-4.2 2.6-7.6l-.2.2c.3-.2.6-.6.3-2.2v-.5l-.5.2s-3 1.4-7.4-.2c0-.4.3-1 1.2-1.4l.3-.1v-.8c0-1.2.1-4 1.8-4.6l-.2-.8s-5.1.4-8.2-1.3c.8-.6 2.5-1.6 4.5-1.9h.3v-.4a2 2 0 0 0 0-.2 6 6 0 0 0-.5-2c1.2.3 2.6.6 3.1.2l.2-.1-.2-3.1h-.8l.1 2.6c-.5 0-1.7-.3-3-.7l-1.2-.4.8 1c.6.9.7 2 .7 2.4-2.8.5-5 2.3-5 2.3l-.5.4.5.3c2.4 1.6 6.1 1.8 8 1.7-1 1.3-1.3 3.5-1.3 4.5v.4a3.1 3.1 0 0 0-1.5 2.2v.3l.2.1c4.1 1.7 7 .9 7.9.5v.9c-2 4.3-3 8.3-3 8.3v.4h.3c3.9 1.6 10.7-.5 13.8-1.5-.4.6-.7 1.4-.7 2.4l.3 2.7a5.3 5.3 0 0 1 0 .7c0 2.3-1.5 3.2-1.6 3.2l.3.8 8-2.4c1.8-.5 2.5-1.6 2.8-2.5 3.1 7.4 8 8.1 8.3 8.1h.3l.1-.3c.8-2.2 1-3.4 1-4h2.4v-.6c0-.7-.1-1.3-.4-1.8l1.4.8 1.3-.2c.3 1.3 1.9 2.4 2.1 2.5l.5.3.3-1.7c2 1.7 4.7 1.2 4.9 1.2l.3-.1v-.4a23 23 0 0 0-3.3-7.6c3.5 1.6 9.8 1.5 10.2 1.5h.4v-.5c-.6-2.8-4.2-7.3-5.6-9 8.2 1.5 12.6-2.8 12.8-3l.3-.3-.4-.2a54.3 54.3 0 0 0-11.6-6.3l.9-.2-1-.5a13 13 0 0 0-5.8-1.4c-1-1.1-1.5-1.3-1.6-1.4-5.6-.6-7.6-2.1-8.4-3.3v-.3l.2-.3c.5-.7.7-1.6.7-2.6 0-2.6-1.3-5.5-1.3-5.6l-.8.3z"/><path d="M836.8 167.9s-.6 3-3.2 4.5c-2 1-4.5 1-7.6-.3l-.4-.1v.4a5 5 0 0 0 2 3.1c1.3 1.1 3.4 1.5 5.9 1.2-.9 1-3.6 4.5-3.6 7.8v.6c.4.2 4.6 1.4 6.6-1.1 0 1 .4 4.5 1.7 5.8.8.8 1 1.8 1 2.7 0 .8-.2 1.4-.2 1.4l-.2.6.5-.4c.2-.1 4.1-3 5.3-6.7 0 0 .7-1 1.9-1.3v.5c0 1.5.6 4.1 4.8 5.7l.3.1v-.3a7 7 0 0 1 0-.8c0-1 0-3 1.1-4 .7-.6.9-1.4.9-2 0-.5-.2-1-.3-1.2.9.2 2.9.8 3.7 2.4 1.2 2.2 5.3.4 5.5.4l-.1-.5s-1.8.4-2.9-.3c-.4-.4-.7-.9-.8-1.6l-.2-2.3c0-1-.2-1.7-.7-2.2.5 0 1.6 0 2 1 .8 1.6 3.3 1.7 3.4 1.8h.9l-.7-.5s-2.2-1.4-1.8-3.3l.3-1.4c.6-2.5 1.6-6.6.7-9.2l-.4.2c.2.6.3 1.4.3 2.2 0 2.2-.7 5-1 6.7l-.4 1.4a2.6 2.6 0 0 0 0 .5c0 1.3.7 2.2 1.4 2.7-.8-.1-1.8-.5-2.2-1.3-.6-1.3-2.2-1.4-3-1.3l-.5.2.4.3c.7.5.8 1 .8 2.3l.2 2.3c.1.8.5 1.4 1 1.8.6.4 1.2.4 1.7.5-1.2.3-2.9.5-3.5-.6-1.1-2.2-4.3-2.7-4.4-2.8h-.5l.2.4a3.2 3.2 0 0 1 .4 1.4c0 .5-.2 1.2-.7 1.7-1.1 1.2-1.3 3.2-1.3 4.3v.4c-3.6-1.5-4.2-3.7-4.2-5v-1l.2-.3h-.4c-1.7.3-2.4 1.8-2.5 1.8-1 3-3.7 5.4-4.7 6.2a6.9 6.9 0 0 0 .1-1c0-.9-.2-2-1-2.9-1.5-1.4-1.7-6-1.7-6v-.8l-.4.7c-1.6 2.8-6.2 1.4-6.3 1.4-.1-3.5 4-8.1 4-8.2l.4-.4h-.6c-2.7.4-4.8 0-6.2-1a4.6 4.6 0 0 1-1.6-2.5c3 1.1 5.6 1.2 7.6.1a7.4 7.4 0 0 0 3.4-4.8c3-6.6 5.5-7.7 5.5-7.7l-.1-.4c-.2 0-2.8 1-5.8 8z"/><path d="M843.5 158h-.2l-2.4 3.3h.7c12.8 1.3 19.6 9 19.7 9.2l.3.3 2.3-2.5-.2-.3c-6.5-10.2-20.1-10-20.2-10zm.2.9c1.6 0 13.2.3 19.2 9.3l-1.3 1.4c-1.4-1.4-8-7.6-19.3-8.9l1.4-1.8z"/><path d="M841.6 164.8a11 11 0 0 0-2.1 4.8l.1.4a7.3 7.3 0 0 0-2 5.5c0 1.3.2 2.6.6 3.8l.3.7c1.2 3.4 2.3 6.4 7.8 4.6 5.2-1.6 5.4-2 6.7-4.2l.4-.5c.7-1.2 1.5-1.4 2.3-1.7 1-.3 2-.6 3-2.4l.8-1.3c1-1.3 2.2-3 2.3-5h-.4c-.2 1.9-1.3 3.5-2.2 4.7l-1 1.4a3.7 3.7 0 0 1-2.6 2.2c-.9.2-1.8.5-2.6 1.8l-.4.6c-1.2 2.1-1.4 2.4-6.5 4-5 1.6-6-1-7.2-4.4l-.3-.7c-1.4-3.8-.3-7.6 1.6-9l.6-.5-.8.1v-.1c0-.7.6-2.6 2-4.5 1.1-1.6 3.9-3.1 3.9-3.1l-.2-.4c-.2 0-2.9 1.6-4.1 3.2z"/><path d="M839.2 178.7c.9.6 2.1.5 3.7 0 0 .5 0 1.6 1 2.5 1.1 1 3 1.2 5.5.6v-.5c-2.5.6-4.2.4-5.2-.5s-.9-2.4-.9-2.4v-.4l-.3.1c-1.5.7-2.7.7-3.6.2-1.5-1-1.4-3.8-1.4-3.8h-.4s-.1 3 1.6 4.2z"/><path d="M842 175c-.6.1-.8.7-.8 1.1v.3c.2 1.2 1.5 2 2.6 2.3 1.2.3 2.6.4 3.1-.4.2-.2.4-.7 0-1.6-1.8-3-4.7-1.8-4.8-1.7zm2 3.3c-1-.3-2.2-1-2.3-2 0 0-.1-.7.5-.9.1 0 2.6-1.1 4.2 1.6.3.5.3.8.1 1-.3.5-1.4.6-2.5.3zm-2-3.3zm1.7 6c-.3 2.5-.2 2.6 0 2.6h.2l.2-.2 1.4-1.9-1.8-.8v.3zm.4.4.7.3-.8 1.1v-1.4zm-4.2-2.4-.1 2.3 2-2.4-2-.2v.3zm.4.2h.6l-.6.8v-.8z"/><path d="M838.5 178.2s1.5 2.9 1.8 4c.1.6 1 1.4 2 1.7s2 .4 2.7-.1l1.3-1.1c.4-.5.6-.6 1-.5v-.5c-.6 0-.9.2-1.3.6l-1.3 1c-.8.6-1.7.4-2.2.2-1-.3-1.7-1-1.8-1.5-.3-1-1.7-3.9-1.8-4l-.4.2zm2-8.6c-1.7.7-2.4 2.7-2.4 2.8l.4.1s.7-1.8 2.1-2.5a3 3 0 0 1 2.4 0l.1-.4c-1-.4-1.8-.4-2.7 0zm10.8 5.2c.2 0 3.2 2.4 1.5 5.2l.3.2c2-3.1-1.5-5.8-1.5-5.8l-.3.4zm-9.2.4s-.4 1.7 2 2.3c0 0-2.3 0-2.4-.6-.2-.6 0-1.9.4-1.7zm7.5 2c0 .2-.2.4-.3.4s-.3-.2-.3-.3.2-.3.3-.3.3.1.3.3zm.2 1.2c0 .1 0 .2-.2.2s-.3 0-.3-.2a.3.3 0 0 1 .3-.3c.1 0 .2.1.2.3z"/><circle cx="848.01" cy="177.825" r=".27"/><path d="M848.8 179.4a.3.3 0 0 1-.3.3.3.3 0 0 1-.3-.2c0-.2.1-.3.3-.3s.3.1.3.2zm-7.1-7.3c0 .2-.2.3-.3.3-.2 0-.3-.1-.3-.3s.1-.2.3-.2c.1 0 .3 0 .3.2z"/><circle cx="841.65" cy="173.22" r=".27"/><circle cx="840.09" cy="172.68" r=".27"/><path d="M840.8 174.3a.3.3 0 0 1-.2.3.3.3 0 0 1-.3-.3c0-.1.1-.3.3-.3a.3.3 0 0 1 .2.3zm4.8-9.6s3.5 2.2.1 6.3c0 0 1.7-1.3 1.8-3.4.2-2.1-1.2-3.8-2-2.8zm13.5 5.9c-1.2.6-2.8-.5-3.6-1.5s-2.5-1.3-3.6.6-2.5 2.5-2.5 2.5 1.5-.9 3-2.5 2.4-.3 3.8.5 1.8 1 2.8.5v-.1z"/><path d="M858.8 170.9c-.5.3-1.3.6-2.2-.1s-1.7-1.7-2.8-1.2-3.3 2.2-3.3 2.2 3.5-2.4 4.1-1.8 2.3 1.8 3.2 1.4l1-.5zm-2.7 1.4c-1.1-.8-2.2 1-3.1.8-1-.2-1.7-1.8-1.7-1.8s.8 1.7 2 1.3 2.1-1.2 2.9-.6-.1.3-.1.3z"/><path d="M854.4 172.6c-2.2.2-2.4-1.8-2.4-1.9 0 0 .7 1.8 2.6 1.5l-.2.4zm-.1-1.4c.1.5.1.8-.5.8s-1-.2-1-.8 1.4-.4 1.5 0zm-7.8-3c0 .3-.4.6-.7.6s-.5-.2-.5-.6 0-.7.5-.7.7.3.7.6z"/><path d="M844 165.7s3.8 0 2 4.7c0 0 1.4-2.3.5-4s-2.3-1.2-2.3-1.2-.4.3-.1.5z"/><path d="M844 167.6c0 1 .6 1.9 1.8 2.9l.3-.4c-1.1-.9-1.7-1.7-1.7-2.5s.6-1.3.6-1.3l-.3-.3s-.7.6-.8 1.6z"/><path d="M844.8 168.4c.1.5.5 1 1.2 1.2l.2-.4c-.5-.3-.9-.6-1-1-.2-.8.4-1.7.4-1.7l-.4-.3s-.7 1.2-.4 2.2zm5.1 2.6s.7 1.5-.3 3.1l-1 1.6s1.2-2.3.7-3.2.6-1.5.6-1.5zm14.6 15.8c3.8.7 12.5 7.5 12.5 7.5l.5-.6c-.3-.3-8.9-7-12.9-7.7l-.1.8zm3.4 9.5c.2 3.5 4 5.6 4 5.7l.5-.7s-3.5-2-3.7-5h-.8zm-9.3.8c0 3.8 3.6 8.4 3.8 8.6l.6-.5s-3.5-4.6-3.5-8.1h-.9zm-12.1.4c.6 1.3.6 1.9.4 2.2-.2.4-.6.4-.6.4l.1.8a1.6 1.6 0 0 0 1.2-.8c.4-.7.3-1.7-.4-3l-.7.4z"/><g fill="#faf6f5" class="C H"><g stroke-width=".36"><path d="M791.9 178.6s.2 2.6 2.2 4.1c0 0-.3-2.8.3-4 0 0-1-1.1-2.5 0zm4 1.7s.4 2.3 1.8 3.3l.8-.2s.3-3 .8-3.3-2 1-3.5.2z"/><path d="m799.3 180.1 1.5 2.4 1.8-1-.4-2.8s-1-.2-2.9 1.4z"/><path d="m806.4 180.6-2 1.6s-1-.8-1.8-.7l.3-2.5s1.4-1 3.5 1.6zm-14 24.1s-.4-3.6 0-3.8c0 0 1.4.4 2-.2 0 0 .8 3 .6 4.1s-1.6.7-2.7 0zm8.9-3.7s-.1-3 .5-3.4c0 0 2.9.4 3.6-1.2l1 3s-3.2-.4-5.1 1.6z"/></g><path stroke-width=".35" d="M798.1 201.6s.6-3.2 1.2-3.3c0 0 1.5.5 2-.1l-.1 3.8s0-1.6-3-.4zm-3.3.4s.7-2.8 1.1-2.8 1.7.7 2.2.3v2s-2.5-.5-2.9 3l-.4-2.5z"/></g><g class="C"><g class="F"><g class="B E"><path d="M840.2 260s7.9 7.3 5.8 13.8c0 0 5-11-.4-14.2-5.4-3.2-5.6-.7-5.4.4z"/><path d="M830.2 267.1s-2.1 2.9.2 5c0 0-2.5 3.5-.6 6.6 0 0-1.5 3.2-1.1 6.5 0 0-1.4 5.3 1.5 7.8 0 0 3 1.5 4.3.2 0 0 2.6-4 1-8.1 0 0 1.8-3.4-.2-7.8 0 0 .5-2.4-1.2-5.2 0 0 1.2-2 .2-3.4 0 0-3.8-4-4.1-1.6z" class="D"/><path d="M832.4 258s-9.4-18.2-16-19-7-7-7-7 .8 3 6 3 15.5 7.3 16.7 13 2.2 4.8 2.2 4.8l-1.9 5.1z"/><path d="M832.4 256.6s3.4-22.8 18.3-23.2c14.9-.4 10 1.1 13.6-1.3 0 0-10 5.3-16.2 6-6.2.8-11.3 12.8-11.1 15.1.1 2.3-3.4 6.6-5.1 5.1s.5-1.7.5-1.7z"/><path d="M835.8 265s3.4-9 9.3-6c0 0-4.6-8.6-12.7-1 0 0 3.6 4.8 3.4 7zm-11.3-9s5 20.2-2.6 26.4c0 0 .2-10.3-4.4-16.6s4.6-13 7-9.8z"/><path d="M825 259.6s9 8.5 9.5 11.3 2.6-8.4-1.5-11.7c-4.1-3.2-8.7-3.7-8.7-3.7l.8 4.1z"/><path d="M808.7 281.9s.8 3.5 3 4.2c0 0 .1 2.6 2.1 3.4 0 0-1 2.2.7 3.6 0 0-.4 4.4 1.2 5.3 0 0 4-.2 5.3-1.4 0 0 .8-2.9-1.3-5.7 0 0 .3-2.8-1.9-4.3 0 0 .7-3.7-2-5 0 0-.5-3-2.2-4.5 0 0-3.4 4.7-4.9 4.3z" class="D"/><path d="M813.1 277.5s-11.6-4.3-18 1.8c0 0 9.8 1.4 11.1 3.4s7.4-3.3 6.9-5.2z"/><path d="m809.5 284.7-2-1.6c-1.1-.8-11-3.4-12.3 6 0 0-3.6-9.3 1.6-10.6s9.3 1.7 12.7 6.2m-7.6-19.2s3.6 7.7 4.9 8c1.3.4 2.3-.9 2.3-.9s-4.8-7-7.2-7.1zm-2.6-12s-3-9.9-6.6-7.3-2.7 9.8-2.7 9.8-7.1-7.3-3-13.2c4.2-5.8 12.3.6 12.3 10.8z"/><path d="M807.4 274.1s0 2 1.3 2.5 3.8 1.5 3.8.4-2-5.5-2.7-5-2 .6-2.4 2.1z" class="D"/><path d="M805.1 262.4s-.4-8.6 5.3-11.8c0 0 1.1.2 1.7-1.5 0 0-4.5 10.9-3.2 16.4l-.2.7"/><path d="M806.2 251.9s10.2-21.1 22.7-13.8c0 0-13 2.7-17.8 11.9l-4.7 7-.2-5.1z"/><path d="M800.8 259.6s-3-14.1-5-16-5-4-8.8-.8c0 0 6.6-5.8 13.6-.9s5.4 12.6 5.4 12.6l-.7 9.8-4.7-4.3"/><path d="M811.7 276.4s-12.4-23.6-20.5-6.8c0 0-1.6 4.3.1 6 0 0-4.5-3.4-2.4-11.6s15.8-4.6 19.8 2.2 5 10.2 4.5 10.6c-.6.3-1.5-.4-1.5-.4zm35 6.8s9.1-18.7 14.4-10.2c0 0 1.5 4.1-.8 5.8 0 0-3.5-4.3-6.8 1s-1.8 4.9-1.8 4.9-3.4 1-5-1.5z"/><path d="M860.3 278.8s5 2.7 3.2 8c0 0 6.6-12.7-2.4-13.8 0 0 1.7 4-.8 5.8zm.6-12.8s11.9 3.4 12.2 8.5c0 0 2.1-9.8-4.7-12.8 0 0-8 1.3-7.5 4.3z"/><path d="M866.2 250.4c5-10 11.5 3.2 11.5 3.2s2.2-10.4-4.2-12.3c-6.4-1.9-10.5 22-10.5 22l-7.6 1.8s2.1-21 13.4-22.8l1.3.2"/><path d="M857.1 256.4s-7.1-14.7-12-16.2 2.6-3.8 5.6-1 8.7 6.5 8.1 14l-1.7 3.2zm-7.3 20.2s2-10 7.7-13 11-2 11-2-6.9 1.6-8 5c-1.1 3.4-3 3.6-3 3.6l-7.7 6.4z"/><path d="M846.8 283.2s-3.2 6-2.5 7c0 0-3.4 4.9-2 7.3 0 0 3.3 2.6 4.8 1.5 0 0 4-5.5 2.9-8.5 0 0 2.6-3.5 1.7-5.8 0 0-4 .2-5-1.5z" class="D"/></g><path fill="#0a1a1d" stroke="none" d="M830.2 272.4c.2.1 2.1 1 3.4.6l.9-.8-.7-.3c-.5 1-2.6.1-3.3-.2l-.3.7zm-.3 5.9-.2.8c.2 0 4 .7 5.8-.9l-.5-.6c-1.5 1.4-5 .7-5.1.7zm-1 6.6-.5.7s4.5 3.2 7.4-.3l-.7-.5c-2.3 2.9-6 .2-6.2.1zm-17.3 1 .2.4c.2 0 4-1.6 4.2-4.3h-.5c-.2 2.4-3.8 3.9-3.9 3.9zm2.2 3.4v.5c.1 0 3.6-.3 4.2-2.7l-.4-.1c-.5 2-3.8 2.3-3.8 2.3zm.7 3.6v.4c.1 0 4 .3 5.3-2l-.3-.1c-1.2 1.9-5 1.7-5 1.7zm29.5-2.5c0 .1 1.8 1.8 3.7 1.7 1 0 1.8-.5 2.6-1.3l-.6-.5c-.6.6-1.3 1-2 1-1.6 0-3.1-1.4-3.1-1.4l-.6.5z"/></g><g stroke-width=".42" class="B D"><path d="M961 304.2a1.7 1.7 0 0 0-.5.4l.6-.4zm14-3.4c-.2-.4-.3-.2-.5-.4l-.6-1.1c-.1-.2-.3 0-.4 0l-1-2.2a.6.6 0 0 0 0-.3 11.4 11.4 0 0 0-.2-.6c0-.2-.2-.1-.3-.3v-1l-.2-.7.2-.9-.3-.6c-.2-.6-.4-1-.4-1.7l.1-1.5c.1-.6-.2-1-.2-1.5l.2-1.4v-5.9l-.1-.6c0-.4.2-.5.1-1l-.1-.5-.1-1.6-.2-.6.1-.7c0-.3.1-.5 0-.8v-.9l-.2 3.8-.2-6.3-5-2.4s-.4 9.2-.3 10.5c0 1.3.5 10 .3 11.2l-.8 6.4s-2.4 1.7-3.4 3.6-.7 2.6-1 2.6l2.3-.4-1.7 1.2a1 1 0 0 1 1 .2l.4.2.3-.2c.4-.2.7.5 1 .5.3 0 .5-.2.7-.4.1-.2.1-.5.3-.6h1.5c.6 0 1-.7 1.4-1 .4-.4.7-.5 1-.5.6 0 1 .5 1.5.5.3 0 .6 0 .9-.3l.5-1 1.2-.1.7.2h.9s.3.3.4.2l.2-.5v-.7z"/><path d="M964.8 304c.3 0 .6 0 .8.2l.1.2a.3.3 0 0 0 .3 0c.1.2.2.3.4.3h.5c.2 0 .3 0 .5.2.4.1.6 0 1-.3.3-.2.4 0 .8.3.2.3.2.2.4 0l.1-.2h.4c.2-.2.4-.1.5-.2l.6-.3.5.3.4.2c.2-.5.7-.7 1-1 .4-.2.8.1 1.1.1l.5-.1h.5c.2-.1.2-.3.4-.3.3 0 .7.5 1 .6.2 0 1.1.3 1-.4-.2-.6-.7-.2-.8-.6v-.9l-.5-.6c-.3 0-.4.2-.6 0l-.3-.9c-.2.2-.3.3-.5.2-.2 0-.2-.1-.4-.4-.4-.5-.7.4-1 .2-.3 0-.6-.8-.8-1.1-.2-.2-.5-.7-.7-.6-.3.2 0 .8-.2 1 0 .2-.5 0-.6 0-.3.1-.3.2-.5.4-.3.6-.5 1-1 1-.2 0-.4-.3-.7-.2-.2 0-.4.3-.6.4h-.7l-.6-.6a.2.2 0 0 0-.2 0l-.3-.2c-.3-.1-.3-.1-.4.3l-.2.7c0 .3-.3.5-.4.6-.2.3-.3.2-.6.3-.2 0-.5.4-.6 0-.2-.7.5-1.7-.3-1.6a.5.5 0 0 0-.4.4c-.2.4 0 .6-.1 1s-1 1.2-.8 1.6c.1.3.5-.2.6 0 .2 0 .1.3.3.5.2.5 1-.6 1 0m-3.2-4.1v-.2l-.6-.2c-.2 0-.6.4-.7.6-.4.7-.3 1.5-1 1.5h-.6c-.2.2 0 .7 0 1l-.1.5-.3.3c-.1.5.4.4.6.4h1.6c.3 0 .5-.1.8-.3.1 0 .6 0 .7-.2l.3-.6v-.7c.1-.3.4-.2.4-.6.2-1-1-.3-.8-1.3"/></g><g class="B E"><path d="M974.2 271.3c0 1.3-1 2.4-2 2.4-1.2 0-2.1-1-2.1-2.4s.9-2.5 2-2.5c1.2 0 2.1 1.1 2.1 2.5zm-6.8-3c0 1.3-.9 2.4-2 2.4s-2.1-1-2.1-2.4 1-2.5 2-2.5 2.1 1.1 2.1 2.5z"/><path d="M971 269.2c0 1.4-1 2.4-2 2.4s-2.1-1-2.1-2.4.9-2.5 2-2.5 2.1 1.1 2.1 2.5z"/><path d="M967.5 271.4c0 1.4-.9 2.5-2 2.5s-2.1-1.1-2.1-2.5 1-2.4 2-2.4 2.1 1 2.1 2.4z"/><path d="M970.8 273.3c0 1.4-1 2.5-2.1 2.5s-2-1.1-2-2.5.8-2.4 2-2.4 2 1 2 2.4z"/></g><path d="M971.8 246.6s20.9-29.2 43.3 1.1c0 0 .2 3-1.9 6.2l-.5-2.4-1.4.4-.3-1.5-2.5-.2.8-3.2-2.7 2 .4-2.2-3 3 .4-6.4-3.2 5.4.3-3.7-1 1.7-.8-2.2-1 2.2-1.5-1.2v1.6l-2.6-2.3-1 3-1.3-3.2-.4 2.3-1.3-2.7-.2 2.8-4.3-1.8 1 2.6-2.1-1.5.3 1.5-2.8-.6.2 1.7-3-.5.5 1.5-4.1-.6 1.5 1.7-.4.7s22.6-7.5 24.1 20.8l-4.1 2 1.1-2.2-1.1-.7-3.4-2.7 1-3.6-1.2.4-.2-2-.5.3-1.4-2-.3.7-1-2.5-1 1.7-.5-4.1-1.5 2.6-.2-1.5-.5 1-2-2.3-.5 1.5-.7-1.1-.6 1.3-2-1.9v1.5l-1.4-1.1-.6.8-3.2-1.7-.2 1.5-1.7-1.5-.5 1.5s20.5 11.6 14.1 30.7l-1.1 2.4-.4-6.4-1.9 3.4 1.3-7.3-1.3 1.3-.2-2.8-1.7 2.8-.5-3.2-.8 1-1.1-5-1 2.1-1.5-5.5-1.1 2.3-.8-4.7-.7 2.8-2.3-4.1-.3 1.7-1.4-3.4-.7 1.1s-3.8-.2-5-1.1-4.3 5.6-4.3 5.6l.4-4-1.3 2.7v-2.6l-2.4 7.9-.6-5.7-1.3 5-.6-1.6-.4 2.1-.7-.8-.7 2.3-1.2-1v3l-1.1-1.4-1 4.5-.6-1.9v2l-.9-1-1 4.5-1.3-2-.1 3.3.5 2.4-1.5-.7.6 4s-5.9-11 1.1-21.5c7-10.6 16.4-13.4 16.4-13.4l-1-1-.1-.9-5.7 2.8.2-1.7-1.5 1.3-.4-1.8-1 1.7-.1-.8-1.3 2-.8-3-1 3.6-.8-2.5-2 5.4v-4l-1.5 4.2-.5-4.6-1.2 5.3v-4.7l-1.7 4.7-1-4.5-.8 4.3-1.2-3.4-1.1 5.1-1.7-4.5-1 6.8-1-2.7-.3 5-1.3-3 1.3 6.3-1.7-2.4.6 4-2.4-4.4.2 5.1-1.4-1.7-.5 1.9s-.6-19.6 12.8-23.4c13.4-3.8 22 1.1 22 1.1l-5-4.1.5-1.3h-1.9l.8-1.5-4 .2 1.2-1.5-3 .3v-1l-2 1.6.8-1.7-2.6 1.7-.2-2.5-1.3 2.1-.8-2.2-6 6 1.7-6.2-1.2 1.3-.1-1.3-1.7 2.6-.4-1.9-.8 2.3-.5-2.7-1.4 2.7-1.3-2.5-.5 3.2-1-1.7-1.1 2.5-1.5-1.5-.2 1.5-3-1.3.7 2.2-2.2-1.9-.6 3-1.3-1.4-1 3.7-.9-3.6-1 2.9s11.8-30.3 41.7-10.6c0 0 3.2 3.2 4 5.5s.2.4.2.4l-.6-21 1.1 9 .8-3.1-.2 4.7 3-6.6s-3.6 11-2.3 14.9c0 0 1.4-12.6 5.9-14.1l-4.2 9 1.4-.2-1 1.9h1.1l-1.3 3-.7 1.5.7 1.5 1.2-1.1z" class="B E F"/></g><path d="m968.7 258.9.6.5s1.9-2 5 .6l.5-.6c-3.7-3.2-6.1-.6-6.1-.5zm-1-10.3v.7l1.4-.6-1 1.8 2.1-.8-2.6 3.6.6.5 4.3-5.6-2.7.8 1.2-2-2.3 1 .4-2.9h-.8l-.5 3.5zm-4 .2 1 2-1.5-.5 4.4 7.7.5-.7-.9 2.2.8.3 1.9-4.8-.7-.4-1.5 2-2.7-4.7 1.2.5-1.2-2.7 1.7 1V248h-.8v1.4l-2.7-1.7.6 1.2zm-2.7 9.7.3.7c1.2-.5 2.2-.6 3-.2.8.4 1 1.3 1 1.3l.8-.2a3 3 0 0 0-1.5-1.8c-1-.5-2.2-.4-3.6.2zm3.4 8.1-.7-4.2h.8l.7 4.1zm5.8-.6-1-3.3.7-.2 1 3.2zm2.1 2.3-.8-3.2.8-.2.8 3.2z"/><path d="M811.4 365s-3.5-1.6-5.1-.4c-1.6 1.2-1.4 2.9-2.8 2.8 0 0 5.3 1.2 6.5-.2l1.4-1.8m.7 1.1s-2.4 3.1-1.6 5 2.6 2 2.2 3.3c0 0 2.3-5 1.1-6.5l-1.4-1.7m-4.3-8.7s-3.7 1.2-4 3.1c-.5 2 .8 3-.3 4 0 0 4.8-2.7 4.7-4.6l-.1-2.3m2 1s1.7-3.4.6-5c-1.1-1.7-2.9-1.5-2.7-3 0 0-1.4 5.4 0 6.6l1.7 1.5m-3.3-1.3s0-3.8-1.7-4.9-3.2-.1-3.6-1.4c0 0 1 5.4 2.8 5.9l2.2.6m6.6 6.3s4-1.4 4.4 3-.2 2.9-.2 2.9-2.1-4.7-4.5-5.5l.3-.4z" class="B C E F"/><path d="M812 366.6a340.3 340.3 0 0 0 .4 3.4h.6l-.4-3.4 1.3-7.3-.5-.1-1.4 7.4z"/><path d="m808.3 365.5-.2.6c2 .6 4.7-1.5 4.8-1.6l-.4-.4s-2.6 2-4.2 1.4zm5-4.3-9-4.6.3-.7 9.2 4.6z"/><path d="m806.8 360.2-.6-.6 1.8-1.8.6.6zm3.2-.9-2-4.2.8-.3 1.9 4.2zm2.7 5.1v.8c2.5-.1 3.1 1.5 3.1 1.5l.8-.2c-.1-.4-1-2.3-4-2z"/><g fill="#faf6f5" class="B C"><path d="M854.4 366.3c3-1.7 3.7-7.7 3.7-7.7-.8 2.2-6.3 4.4-6.3 4.4 4-2.6 9-14.1 9-14.1-1.3 4.1-12 7.5-19 11.4s-3.3 15-3.3 15a23 23 0 0 1-6.4-12.4c-.7-5.3-2.8-7.3-7.5-8s-7.6 4.8-7.6 4.8l-7 3.7 7.2.2s5 1.7 5 5.7-4.4 20 3 29c5.1 6.3 24.1 9.9 24.1 9.9"/><path d="M840.5 378.6s1.4-7.1 6.2-6.9 6-5.3 8.8-6.2 17.3-4.7 18.8-11.6c0 0-1.3 11.4-14.5 17.1 0 0 10.7-3.5 11.9-5.8 0 0-4.8 10.2-16.3 11.7 0 0 10.8-.8 12.4-3.7 0 0-4.9 6.4-12.9 7.3 0 0 7.4 3 9.4.5 0 0-4 4.7-9 5l1.3.4s-4.7 5.6-10 1.8-5.3 1-5.3 1"/><path d="M851.3 389.4s6 10.3 6.7 15.7c0 0 11.6 12.9 16 13.6 0 0-2 .9-5.8-2.3 0 0 3.1 3.3 3.7 3.4s-2.5-.2-3-1c0 0 1.3 1.9 2.2 2.1l-.9-.2s-1.6-.3-2.3-.9-.2 1.6-.2 1.6-1.9-.5-2.5-1.1.3 1.3.3 1.3l-1.6-.3-1 .7s-.2.7-1 .1c-.7-.6-2 0-2 0s-1 .9-1.5.3-2.3 2.3-2.3 2.3l-7.6-18.5"/></g><path d="m858.5 423-9.7-18.5 1-.5 9.7 18.4zm8.4-1.3-16.5-18.5.9-.8 16.5 18.5zm3.8-1.6L852 402.5l.7-.9 18.9 17.6zm-47.3-59.3s-1.2-2.2-2.3-1.3-1.6 1-1.8.9c0 0 1 0 1.7-.5s1.6-.3 2.4 1zm-6.6-1 .7 1.5-.8 2.2.6.2.7-2.5-.7-1.6-.5.2z"/><path d="M823.2 360.5s-1 1-2.2.8l-1.3-.3h1.8c.7 0 1.6-.3 1.7-.5z"/><path d="M822.9 360.7s-1.2-1.2-2-.8c0 0 1.4-.5 2.2.7l-.2.1z"/><path d="M822.7 360.5s-1.3.9-2.7 0l-.1-.2h.2s1.7.7 2.6.2z"/><circle cx="821.573" cy="360.284" r=".383"/><path d="M822.6 394.2s-1 1.8-.5 3c.6 1 3 1.6 3.2 3s1.1 1.6 2.2 1.4l1.4-.3s-4.7-2.5-5.9-6.5l-.4-.6z"/><g class="C B"><g class="D"><path d="M972 356.9s8.5-11.1 16-8.2 12.3 4.3 12.3 4.3.1 7.5-3.8 7.5c-4 0-7.8-7.5-11.4-5.3-3.6 2.2-6.6 5.3-6.8 6.3s-9.6 1.3-6.2-4.6z" class="G"/><g class="E"><path d="M940.1 410.4s-2.3 2.4-1.2 3c1 .6 3.1-.1 3.1-1 0-.8-1.4-2.3-1.9-2z"/><path d="M938.3 412.7s-4.3-2.5-7.7 3.4-6.2 15.3-8.2 16.5 19.3-9.3 19.5-13.7c0 0 1.4-5.7-.8-5.6-2.2.1-2.4.3-2.8-.6z"/></g><path d="M938.9 413.4s-4.5 1-5.4 7.3c-1 6.3-7.1 9.6-7.5 9.8m74.3-77.5s-6.7 2.3-5.6 7" class="G"/></g><path fill="#fcd80e" d="M948.5 366.6s.3-16 13.3-15.2c2.5.2 1.3 3.1 1.3 3.1s2.8-2 4.1 1.2c0 0 4.1-1.9 4.6 2.2 0 0 4.5-.6 3.9 3 0 0 3-.7 3 1.9 0 0 3.5-1.4 3.1 2.2 0 0 3.9-2.6 3.3 2.1 0 0 4-2.8 5.4 1.9 1.4 4.6-4 14.5-9.3 17.1" class="G"/></g><path d="M984.8 367.6c0 .1 1.8 12.5-5.2 17l.2.4c7.3-4.7 5.5-17.3 5.5-17.5l-.5.1zm-8.4 13.6.3.3c4.4-4.3 5.4-16 5.4-16.5h-.4c0 .1-1 12-5.3 16.2zm-4.2-2.8h.5c.5-7.2 6.2-15.4 6.2-15.5l-.4-.2s-5.7 8.4-6.3 15.7zm-3.3-2.1h.5c.8-8.6 6.5-15.2 6.6-15.2l-.3-.3c-.1 0-6 6.7-6.8 15.5zm-4.5-3 .5.1a20.8 20.8 0 0 1 7.2-15.3l-.3-.4s-7 5.2-7.4 15.7zm-4.2-2.5h.5c-.4-9.3 6.8-14.9 6.9-15l-.3-.3s-7.4 5.8-7.1 15.3zm-7.6-3.4h.5a15.3 15.3 0 0 1 10.3-12.7l-.1-.4c-.1 0-9.4 2.7-10.7 13.1z"/><path d="M940.8 386s-2.2-14.8 6.7-19.5c0 0 1.6-.3 2.6 1.8 0 0 4.6-2 4.7 2 0 0 2.4-2 3 .7 0 0 5-1 4 2.6 0 0 4.2-1.1 3.9 2.5 0 0 4.2-1.5 3.5 1.6 0 0 4.4-1 3.4 2.6 0 0 5.4-.6 3.8 3.2 0 0 4-1 3.2 2.1 0 0 5.3 1 2.9 4.4s-8.7 8.5-14.7 10.7m-31.7.2s-3.7-12.3 3.2-15.5c0 0 1.3-.3 1.5 1 0 0 1.6-2 2.7-.3 0 0 3.5-1.6 4.3 1 0 0 2.4-2 3.5.9 0 0 2.3-1 2.3 1.4 0 0 3-1.3 3 1.5 0 0 2.9-1.2 2.3 2 0 0 4.4.7 3.2 2.8 0 0 4 1 2.4 2.7 0 0 4.3-.5 2 2.4 0 0 3.3-1 1.4 2.6s-7.7 7.5-11.8 8m-15.7-.7s-7.7-7.5-4.1-9.7c0 0 1.6.5 2.2 2.1 0 0 1.9-2.7 3 .1 0 0 2.7-.9 2.7 1l2.2 1.6s2.6-.2 2.1 1.4c0 0 2.8-.3 2.7 1.2 0 0 2.5 0 2.2 1.7 0 0 4.2.7 2.4 2.8 0 0-7.4 1.5-12.5-.6 0 0-2.7-.9-3-1.6z" class="B C F G"/><path d="m966.8 398.4.1.4c4.6-1.7 12.5-12.6 12.8-13l-.3-.3a53 53 0 0 1-12.6 12.9zm-2.6-2 .2.4c4-2.2 11.9-12.7 12.2-13.1l-.4-.3c0 .1-8.1 10.8-12 13zm-2.3-1 .3.4c4.2-3.4 10.3-15 10.6-15.4l-.4-.2c-.1 0-6.4 11.9-10.5 15.3zm-2-2.6.4.1c.8-5.8 9-15 9-15l-.3-.3c-.3.3-8.3 9.3-9.1 15.2zm-16.4-7h.5c-.7-8.3 6.2-17.3 6.2-17.4l-.3-.3c-.1.1-7 9.3-6.4 17.7zm4.3.7h.5c-1.1-6.7 6.6-16 6.7-16.1l-.3-.3c-.4.4-8 9.6-6.9 16.4zm6.7 2.4h.5c-.3-7.5 7-15 7-15.1l-.3-.3c-.1 0-7.4 7.7-7.2 15.4zm-15.8 13.6.4-.1c-2.6-7 2-15.9 2-16l-.5-.2c0 .1-4.6 9.2-2 16.3zm3 .5.4-.2c-2.3-7 1.6-16.5 1.6-16.6l-.4-.2c0 .1-4 9.7-1.6 17zm12.5 7 .1.5c7.5-2.7 12.3-9.5 12.4-9.6l-.4-.2s-4.8 6.7-12.1 9.3zm-1.6-1.6.2.4c6-2.6 11.5-10.1 11.5-10.2l-.3-.3c0 .1-5.5 7.5-11.4 10.1zm-1.4-.5.3.3c4.6-3.3 10.6-12 10.6-12l-.3-.3c-.1 0-6 8.6-10.6 12zm-7.4-4.4h.4c-1-7.5 3.8-16.3 3.8-16.3l-.4-.3c0 .1-4.9 9-3.8 16.6zm3.2 2 .3.4c4.8-4.4 6.4-16 6.5-16.5h-.5s-1.6 12-6.3 16.1zm3.3 1.4.2.4a25.7 25.7 0 0 0 8.6-14.4h-.4s-1.8 9.2-8.4 14zm.7-20.2.1 1.3-5.1 16.6.4.1 5.2-16.7c-.8-8 6.3-16.8 6.3-16.9l-.3-.3c-.1 0-6.6 8.1-6.6 15.9zm5.4 4c0 .3-1.6 11.7-7.8 15.9l.3.3c6.3-4.3 7.8-15.5 8-16 2.6-3.2 9-14.6 9-14.7l-.4-.2s-6.3 11.4-9 14.7zm-18.1 12.5c0 .2 1 5.9 2.2 7.9l.4-.3a36 36 0 0 1-2.2-7.7h-.4zm2.9 0-.1 7.9.4.2c.3-.6.2-6.8.2-8h-.5z"/><path d="m941.5 411.3.4.2c2-4.3 2.5-7.2 2.6-7.3h-.5s-.6 2.9-2.5 7.1z"/><path d="m941.9 411.4.2.4a9.9 9.9 0 0 0 4.6-6h-.5s-.8 3.6-4.3 5.6z"/><path d="M942.6 411.8v.4c3.6-.3 6-4.7 6.1-4.9l-.4-.2s-2.4 4.3-5.7 4.7z"/><path d="M943 412v.5c5.7-.4 8.3-3.8 8.4-4l-.4-.3s-2.5 3.5-8 3.8z"/><path d="M943.3 412.1v.5c.3 0 7.6 1.6 10.1-2.2l-.4-.3c-2.3 3.6-9.6 2-9.7 2z"/><path fill="none" stroke-width="4.2" d="M778.8 144v205c0 67.1 121.2 107 121.2 107s121.2-39.9 121.2-107V144z" class="B C"/></svg>