<svg xmlns="http://www.w3.org/2000/svg" width="1200" height="720"><path fill="#24a34e" d="M0 0h1200v720H0V0Z"/><path fill="#faf6f5" d="M0 0h1200v360H0V0Z"/><path fill="#961538" d="M1030 186c6 9 28 21 46 25l3-5c-19-28-36-78-37-116l-8-4c-13 31-47 73-78 97l-1 4c16 5 38 4 51-2-3 12-11 31-17 42-15-7-29-9-45-9-36 0-71 20-71 51 0 25 23 45 55 45 24 0 43-11 55-26 0 30-49 53-110 53-40 0-78-14-110-31 16-15 46-15 69-12l7-6c-20-48 0-91 46-99l5-7c-23-39 9-80 54-93l2-12c-75 9-185 38-237 57-4-18 6-49 24-67l-3-11c-145 65-250 121-250 158 0 10 4 16 10 22-19 14-33 31-33 46 0 14 10 25 24 25 13 0 24-11 24-26l3-1c7 7 16 17 19 29-7 7-27 15-45 15-24 0-43-17-43-40 0-18 13-39 28-49l-13-13 13-13-13-13 13-13-13-13 13-13-17-14 15-6-7-11 40-25v-1l-18 1c4-10 13-28 13-42h-2c-4 7-19 19-38 25V61h-3c-16 18-51 10-65 40l-11-13-20 3-6-10c-24 11-39 12-51 12-15 0-21 4-28 20-11-4-21-1-29 10-16-1-36 5-49 22l4 3h36c2 7 7 17 13 19 0-15 3-18 13-4 9-20 50-10 69 2-8-4-21-7-30-7-36 0-59 21-95 21-10 0-26-3-34-5l17-8-1-6c-20-1-47-10-61-21l-2 1c0 26 13 51 43 63l3-1-2-14c7 4 24 7 34 7 36 0 62-23 98-23 12 0 24 2 31 4-19-2-33 10-49 10-5 0-14-2-16-3-1 11-4 12-12 4-3 8 0 17 5 21-2 10 4 18 13 24l2-5 7-18 5 4 3 3c7-14 25-16 39-16 20 0 30 11 30 29 0 47-73 95-73 169l-8 10c0-4-6-7-13-5-1-8-16-3-20-1-1-6-3-15-19-18l-13-52c9-14 29-13 23-36 9-13 4-27-9-32l-1 1c2 5 1 14-2 19-4 0-9 4-9 1s3-18-10-27c-2-12-16-22-30-15v3c9 3 11 5 13 17-4 4-5 9-3 15-2 3-6 14-3 21-6-5-6-26-19-26-8-11-24-12-37-3v1c8 0 20 2 20 10-4 8-1 14 2 17l2 2c-1 2-2 5-2 8 0 13 20 14 20 29 0 7-4 9-4 14 0 6 3 11 6 14-11 2-14 13-18 20s-14 10-14 20c0 5 2 9 3 11 0 6-7 14-16 15v1c3 3 8 5 12 5 9 0 18-5 21-12 15-5 10-18 15-24 4-5 11-3 16-9h1c2 62 74 32 79 142 16-16 25-30 23-47 12 0 25-6 31-11 0 6 2 14 6 21-10 5-12 12-12 19v3c-4 1-12 7-13 20-3 18-18 43-44 55h-7c-39 0-53-26-68-17-14-3-28 5-31 17l2 1c5-5 13-5 18-1-2 3-2 7 1 10h-1c-14-3-29 6-32 20l4 3c8-7 21-7 28 0-11 6-16 25-10 33h1c4-8 8-13 18-13 3 2 9 4 15 4 21 0 39-17 49-17 3 0 16 3 20 3 12 0 13-9 24-9 15 0 28 19 41 19 6 0 13-4 16-7 6-1 14 2 18 6l5-2c0-11-8-20-19-21-12-17-24-1-42-13 6-41 67-56 77-109l15 44 2 6c14-14 25-24 25-38 0-9-11-21-9-27 8 3 24 6 38 6 61 0 71-52 115-52 7 7 16 13 26 16-11 9-19 31-19 45 0 19 16 35 37 39 0 6 6 13 13 14-5 3-9 12-9 21-8 0-16 5-18 11-23-6-29 7-43 7-32 0-42-31-61-17-14-3-29 5-32 17l2 1c5-5 13-5 18-1-2 3-2 7 1 10l-1 1c-14-3-29 6-32 20l4 2c8-7 20-7 27 0-11 6-15 25-9 33h1c4-8 8-13 18-13 3 2 9 4 15 4 21 0 36-14 46-14 7 0 10 7 22 7s19-10 30-10c12 0 20 17 35 17 6 0 12-2 14-5 6-1 14 2 18 6l5-2c0-11-8-20-19-21-7-17-26-5-37-12 13-16 31-25 48-33 21-10 42-20 54-42l38 4 1-3c-5-50-86-22-86-46 0-13 41-30 37-52 17 15 56 23 87 20 11 15 33 22 52 17 9 9 26 13 40 10 0 7 5 15 12 18-5 11-3 23 5 29-5 5-4 14 1 21-7 8-3 19 3 25-8 16-18 19-27 19-21 0-39-33-53-24-14-6-30 0-32 10l3 4c4-4 12-3 18 1-3 3-3 7 0 10l-1 1c-14-4-29 4-32 18l3 2c15-7 23-5 30 2-12 5-15 23-11 32h1c5-7 9-12 19-12 3 2 9 6 15 6 21 1 30-14 40-14 7 0 16 5 27 5 12 0 12-10 26-10 15 0 21 18 42 18 6 0 12-2 13-5 6-1 14 2 19 6l5-1c-1-11-10-21-20-22-8-15-45-18-45-41 0-30 12-55 12-79 0-12-5-20-11-27l37 6 7 1-2-6c-9-28-28-31-49-34-42-6-58-18-76-38 97-2 167-57 167-117 0-19-11-40-26-54l1-2c8-16 16-39 18-53Z"/><path fill="#e30631" d="M149 422c0-5-5-7-8-7 0 6-8 15-14 17v1c11 3 22-4 22-11Zm79-128c2-3 4-7 4-12 0-6-2-10-6-13h-1c1 12-3 15-5 19 0 3 3 6 8 6Zm118 332c-3 0-7 3-5 9 7-2 15 1 18 4l1-1c-2-7-8-12-14-12Zm-177-17c-9-3-21 1-25 10l1 1c6-3 19-4 27 4 4-6 1-13-3-15Zm3 21c-8 2-11 14-11 21 3-5 12-9 18-9 0-7-3-10-7-12Zm20-363c3 0 5-3 5-7 0-7-10-15-18-15l-1 1c3 2 8 9 8 15 0 3 3 6 6 6Zm302-30c39-30 131-72 211-98-4-19 6-51 24-69l-2-5c-106 49-243 114-243 154 0 8 6 15 10 18Zm-333-39-3-17c8 5 26 10 40 10 36 0 61-23 98-23 8 0 30 1 40 9l-1-3c-8-6-25-12-39-12-37 0-59 21-95 21-13 0-33-4-43-10l23-9c-19-1-43-10-57-19 0 16 13 43 37 53Zm158 265c-23-11-38-33-38-60l-10 13c-1-9-4-12-14-9-2-9-13-2-20 0-1-14-7-18-20-20l-16-62c-2-7-3-12-1-19l3 1c-1 7 0 13 3 20 8-12 22-10 22-30-6 0-10-4-10-9-4 0-8 2-12 8h-2c4-11 3-25-4-34 0 9-12 11-15 4-3 4-1 12 0 14-4 5-6 17-4 21 5 5 9 16 5 23h-2c2-12-5-16-11-23s-6-22-15-24c4 9-7 16-14 9-1 7 4 12 6 14-2 2-3 3-3 7 0 11 21 15 21 30 0 7-4 9-4 14s4 12 10 15c-15 1-19 14-23 21s-14 9-14 18c0 2 1 5 3 8 7-2 13 2 13 8 8-5 5-17 11-23s19-5 20-15l5 4c0 64 74 38 78 139 11-11 18-25 15-43 23 0 32-8 36-12l1-8ZM158 587c6 0 10 0 14 4 6-1 9-5 9-9-5-4-18-1-23 4v1Zm-7-301c3 0 5-3 5-7 0-7-11-13-22-11v1c11 3 9 17 17 17Zm334 343c-8 2-11 14-11 21 3-5 12-9 18-9 0-7-3-10-7-12Zm510 4c-3 0-7 3-4 9 7-2 15 1 18 4l1-1c-3-7-9-12-15-12Zm-51-412c-39 0-67 22-67 48 0 24 24 41 52 41 23 0 42-13 53-27-2-5-7-12-12-15-7 10-23 19-35 19-13 0-23-7-23-15 0-7 8-16 28-16 26 0 47 15 47 34 0 32-50 56-114 56-46 0-91-22-114-32-12 16-8 43 0 72-23 7-56 10-90 10-66 0-101-38-119-91l4-1c22 60 57 88 118 88 25 0 58-3.4 82-9-27-87 23-95 77-90l3-3c-18-47 3-93 49-101l3-4c-22-38 6-79 52-94l1-5c-200 24-478 141-478 198 0 12 9 22 20 22s20-10 20-24l8-3c8 7 20 21 23 35-8 8-30 17-50 17-26 0-47-19-47-44 0-19 11-38 25-50l-12-12 13-13-13-13 13-13-13-13 13-13-17-13h-23l11 10-2 4c-16-3-19 9-11 25l-3 2c-25-7-39 7-34 24l-3 1c-6-21 11-36 35-29-7-13-4-28 11-28l-15-14 2-2c13 6 35 5 47-2-7-4-7-11-1-15l26-15h-11l14-33-2-1c-14 18-76 23-88 45l-2-1c2-10 25-21 54-30V67c-14 12-46 9-59 33h9l-1 2-15 3-12-13-19 3-5-10c-13 6-36 11-50 11s-17 3-24 16l4 4-2 2c-14-8-26-3-33 7-14-2-36 7-45 18h34l7-7c0 4 0 7-4 10 1 4 3 11 7 14-1-15 8-14 16-4 9-19 69-7 83 18l-1 8c-3-2-8-4-14-4-18 0-31 11-47 11-4 0-11-1-13-2-1 7-6 10-13 6 0 7 3 10 7 12-1 7 2 16 7 20l8-23 10 7c3-8 21-14 40-14 24 0 34 16 34 33 0 16-6 28-17 47-5 12-5 20 4 20 11 0 24-13 29-30l2 1c-5 19-18 33-31 33-9 0-12-7-9-17-9 12-20 30-23 36-3 14 2 22 11 22 11 0 30-13 38-28l2 1c-7 17-27 31-40 31-9 0-18-10-14-22-9 12-15 25-15 40s5 26 17 26c16 0 36-18 41-32l2 1c-5 17-25 35-42 35-15 0-23-15-20-36-5 10-8 29-8 43 0 25 9 46 34 59 1-8 6-28 12-34l-6-8v-2l12 8c-11 14-24 53-7 78h-6c-9 6-10 15-7 22h-4c-3 1-9 6-10 17-4 24-29 62-71 64l-1-3c6 0 14-1 17-3-40 0-53-24-64-18 1 7-4 14-12 15-1 2 0 5 1 7 2-2 7-4 11-4 11 0 14 5 30 7v2c-16 0-21-5-30-5-4 0-9 1-11 6 2 1 5 6 4 10 5-3 9-4 13-4 8 0 15 4 22 5v2c-6 0-13-3-22-3-7 0-14 4-16 9 4 2 9 7 7 15 3 4 7 4 13 4 18 0 35-17 48-17 5 0 16 4 20 4 12 0 13-10 24-10 17 0 28 19 40 19 8 0 12-4 12-6-2-8 3-13 5-13-12-11-19 3-42-10 6-49 68-60 80-119l3 3 17 47c15-14 19-24 19-31 0-9-14-21-8-32 10 4 28 7 41 7 62 0 67-52 117-52 36 34 92 24 125-14 18 28 64 44 105 37 11 15 32 23 52 18 9 10 26 14 42 9 0 11 8 20 18 20l-4 3c-6 12-4 24 8 28-10 3-8 19-1 23-9 9-5 19 2 23-9 19-19 24-31 24-24 0-38-29-51-25 1 7-3 12-11 13-2 2-1 6 0 8 12-8 34 8 49 12v2c-20-2-33-20-49-9 2 1 5 7 5 13 13-4 26 1 30 3v3c-8-3-23-8-33 1 4 2 8 6 7 14 3 5 7 7 13 7 19 1 25-15 38-15 9 0 17 5 28 5 12 0 12-9 26-9 17 0 22 18 41 18 6 0 9-3 9-5-3-8 3-13 5-13-2-7-45-15-45-41 0-31 11-52 12-79 0-13-7-22-15-30l2-2 44 7c-8-25-24-28-45-31-54-7-65-23-95-59l-1-7 18 20c92-2 165-53 165-111 0-42-39-75-89-75ZM441 111l-7-2v-1c11-3 30-10 37-15l1 1c-3 5-17 11-27 14l8 1v2c-13 4-34 13-34 18 0 3 5 6 12 6v3c-9 0-16-4-16-9 0-7 14-14 26-18Zm-174 23h-10l-1-2 15-4-4 6Zm64-16h-2c0 18-27 21-31 3h-3l-1-2c17-13 33 2 50-11l3 3c-4 5-9 7-16 7Zm192 150c69-78 243-104 341-87v2c-100-13-241 12-312 63 81-32 193-15 259 31l-1 2c-69-43-171-63-262-28l-6 3c61-23 149 11 176 80l-2 1c-29-65-113-101-178-75l-14 9-1-1Zm4 16-1-3c40-31 115 10 119 74l-2 1c-7-58-75-102-116-72Zm510-191-2-1c-14 32-48 72-76 92v1c12 3 33 2 48-5l4-14 3 1c-5 20-14 47-23 62l16 10c11-21 19-52 21-70l3-1v12c5 10 23 21 41 26l1-1c-19-28-35-76-36-112ZM822 630c-8 2-10 14-9 21 2-5 11-9 17-9-1-7-4-10-8-12Zm-329-49c-5-4-18-1-23 4v1c6 0 10 0 14 4 6-1 9-5 9-9Zm162 50c-3 0-7 3-5 9 7-2 15 1 18 4l1-1c-2-7-8-12-14-12Zm-174-23c-9-3-21 1-25 10l1 1c6-3 19-4 27 4 4-6 1-13-3-15Zm338 2c-9-3-21-1-24 8h1c5-3 18-2 26 6 4-6 1-12-3-14Zm12-27c-9-5-20-2-25 3v1c6 0 12 0 16 4 6-1 9-4 9-8Zm-162-86c0-19 42-32 38-55l-13-13c-33 30-61 35-96 28-11 8-20 28-20 44 0 17 16 33 39 36-3 8 5 15 20 15l-4 4c-9 0-15 9-14 20l2 3c-10-1-19 2-22 12-3-1-9-2-13-2-15 0-25 14-45 14l-2-2c7-1 14-2 17-4-38 0-42-27-60-18 1 7-4 14-12 15-1 2 0 5 1 7 2-2 7-4 11-4 11 0 14 6 27 7l1 2c-16 0-19-5-28-5-4 0-9 1-11 6 2 1 5 6 4 10 5-3 9-4 13-4 8 0 15 4 23 4l-1 3c-6 0-13-3-22-3-7 0-14 4-16 9 4 2 9 7 7 15 3 4 7 5 13 5 18 0 32-15 45-15 9 0 10 6 22 6s19-9 30-9c12 0 24 18 35 18 6 0 9-3 9-5-2-8 2-13 4-13-5-13-22-1-39-11 30-40 86-38 107-81h2l34 4c-5-43-86-16-86-43Z"/><path fill="#faf6f5" d="M935 283c-11 0-19-5-19-11 0-7 10-12 22-12 9 0 20 2 28 6-7 10-20 17-31 17ZM313 130c-6 0-10-5-11-9 0-3 3-3 6-3-2 2-1 9 5 9s8-7 5-10c6 0 7 1 7 3 0 6-6 10-12 10Z"/></svg>