<svg xmlns="http://www.w3.org/2000/svg" width="1200" height="720" fill="#e30631"><path d="M0 0h1200v720H0Z"/><path fill="#028a66" d="M100 100h1000v520H100Z"/><path fill="#fcd80e" d="M100 100h1000L100 620h1000Z"/><path d="M686 360a1 1 0 1 1-172 0 1 1 0 1 1 172 0Zm-489-17-34 17c10 21 31 43 49 51 1-20-6-46-15-68Z"/><path fill="#fcd80e" d="m647 424-47-143-47 143 122-88H525ZM388 89 360 5l-28 84 73-53h-90Zm240 0L600 5l-28 84 73-53h-90Zm240 0L840 5l-28 84 73-53h-90Zm0 619-28-84-28 84 73-53h-90Zm-240 0-28-84-28 84 73-53h-90Zm-240 0-28-84-28 84 73-53h-90ZM145 292c15 32-42 110 51 129-11-16-17-42-14-63 19 8 39 27 46 45 33-90-63-81-83-111Z"/></svg>