<svg xmlns="http://www.w3.org/2000/svg" xmlns:xlink="http://www.w3.org/1999/xlink" width="750" height="375"><defs><linearGradient id="b"><stop offset="0" stop-color="#d3d3d5"/><stop offset="1" stop-color="#faf6f5"/></linearGradient><linearGradient id="a"><stop offset="0" stop-color="#5a6365"/><stop offset="1" stop-color="#f76230"/></linearGradient><linearGradient xlink:href="#a" id="f" x1="215.83" x2="228.97" y1="102.99" y2="102.99" gradientTransform="matrix(.74087 0 0 1.3286 40.513 .006)" gradientUnits="userSpaceOnUse"/><linearGradient xlink:href="#a" id="c" x1="109.34" x2="110.94" y1="218.47" y2="173.45" gradientTransform="matrix(1.5101 0 0 .65184 40.513 .006)" gradientUnits="userSpaceOnUse"/><linearGradient id="d" x1="125.91" x2="126.02" y1="316.38" y2="337.23" gradientTransform="matrix(1.2315 0 0 .79928 40.513 .006)" gradientUnits="userSpaceOnUse"><stop offset="0" stop-color="#c40f38"/><stop offset="1" stop-color="#ffb81c"/></linearGradient><linearGradient xlink:href="#b" id="g" x1="117.6" x2="78.221" y1="1040.4" y2="1003.7" gradientTransform="matrix(2.5627 0 0 .38409 40.513 .006)" gradientUnits="userSpaceOnUse"/><linearGradient xlink:href="#b" id="h" x1="264.72" x2="255.03" y1="245.98" y2="226.38" gradientTransform="matrix(.88634 0 0 1.1105 40.513 .006)" gradientUnits="userSpaceOnUse"/><linearGradient xlink:href="#b" id="e" x1="407.87" x2="456.4" y1="149.38" y2="147.35" gradientTransform="matrix(.55904 0 0 1.7607 40.513 .006)" gradientUnits="userSpaceOnUse"/></defs><path fill="#012778" d="M0 0h750v375H0z"/><path fill="#faf6f5" d="M0 0v21l333 166.5h42v-21L42 0H0zm375 0v21L42 187.5H0v-21L333 0h42z"/><path fill="#faf6f5" d="M156.3 0v187.5h62.4V0h-62.5zM0 62.5V125h375V62.5H0z"/><path fill="#c40f38" d="M0 75v37.5h375V75H0zM168.8 0v187.5h37.4V0h-37.5zM0 187.5 125 125h28L28 187.5H0zM0 0l125 62.5H97L0 14V0zm222 62.5L347 0h28L250 62.5h-28zm153 125L250 125h28l97 48.5v14z"/><path fill="#6c401f" stroke="#0a1a1d" stroke-width=".828" d="M552.7 265.6s-2.1 5.4-3.3 5.4-5.5-2.3-5.5-2.3-3.1 5-4.7 5.3c-1.7.3-6-.7-6-.7s-4.1 0-4.3-.6c-.1-.6.2-1.8.2-1.8s-6 4.8-7.3 4.5c-1.3-.3-5.8-6-5.8-6l-.7 3-8.5-.3-7.4-4.8s-4.2 6.9-4.3 6.7-7.3 1.7-7.3 1.7l-.4-1.4-4.8-2.8 3.7-5.3-1.7-.8-2.7 2.2-5.5 3.6-5.5-2.5 2.4-4.5.3-3.2 4.3-6.6 52.7-51.2 26 48-4 14.4z"/><path fill="#faf6f5" stroke="#0a1a1d" stroke-width=".828" d="m590.1 268.7 13.7-.5-5.8-3 52.2-1.9-7.4-2.8-6.5-8.9-27-2s-2.1-1.5-5.4-.8c-.2-2-2.7-4.8-2.7-4.8l-16.7-1.3-10.4 7.1 7 18 9 .9z"/><path fill="url(#c)" stroke="#0a1a1d" stroke-width="1pt" d="m121.3 150.8 2.2-7.6s4-6.6 4-9.5c0-2.9 2.8-6.3 2.8-6.3s9-2.6 10.8 2.9c9.6-14.5 20.8-.7 20.8-.7l3.1-3.6 6.4-7.8s9 8.4 9 9.9c.2 1.4 1.6.4 1.6.4l9.8-.8s4.7 3.7 3.7 10.6c3.4 2 6.6 14 6.6 14l-80.8-1.5z" transform="matrix(.621 0 0 .621 461.4 21.482)"/><path fill="#5a6365" stroke="#0a1a1d" stroke-width=".828" d="M590.1 171c1-.7 4.4-1.7 4-6.6s-4.6-5.3-7-5.2c-2.3.2-4.4 2.2-4.4 2.2l-7.7-5s3.8-24.3 8-25.9c3.8-2.8 4.5-4 4.5-4.6 0-.7-1.4-2.3-1.4-2.3l-25.2-3-23.9 2.9s-1.8 2.8-1.6 3.9c.3 1.1.3 2.3 4.6 5.6 4.7 3.7 8 24.5 8 24.5s-6.7 3.3-7.1 3c-.4-.5-2.4-.9-3.5-.7-1 .1-4.5 2-4.5 6.5 0 4.6 3.5 7.3 3.5 7.3s22.8-2.7 26.2 3.6c3.3-7.6 25-5 27.5-6.2z"/><path stroke="#0a1a1d" stroke-linejoin="round" stroke-opacity=".979" stroke-width=".776" d="M614.7 145.6s.2-2.6 2.1-4c1.9-1.2 14.5-1.8 17.5 0 3 2 4.2 11.3 4.2 11.3s1.9 3.3 2 5.7.4 4 .4 4 10 13.2 10.2 25c1.1 8 .9 29.6-2.3 37.8 0 10.3-4.4 17-4.4 17s1 1.7 1 3.6c-.2 1.9-1.2 3.7-1.2 3.7l14.7 7.3-5.4-2 5.4 4.5-6.2-2.9 3.7 3.7c-.1-.2-9-4-9-4l4 3.7-6.7-3.1 3.9 4c-.1-.2-5.8-2.5-5.8-2.5l.2 2.1s-4.5-.2-4.5-3.6c-2.3-1.3-3.8-3-3.8-3l-10.5-1.8-11.8-35.5 2.8-59.9.7-3-1.2-8.1z"/><path fill="#ffb81c" stroke="#0a1a1d" stroke-width=".822" d="M606.7 337s-6-12.7-9-12.9c-2.8-5.2 9.4-47.8 33-50.2 13 1 1.2 15-7.4 10.7 1 3.8 5.3 9.1 5.3 9.1s-16.9 7.3-21.9 43.4z"/><path fill="#ffb81c" stroke="#0a1a1d" stroke-width=".828" d="M525.3 339s5-14.6 8-14.8c3.1-.2-8-48.5-32.2-48.8-13.1 1-1.1 15 7.5 10.8-1 3.7-5.4 9.1-5.4 9.1s17 7.4 22.1 43.6z"/><path fill="#036a4a" stroke="#0a1a1d" stroke-width=".828" d="M547.5 248.1c0-.1-6 1.9-2.1 8.4.3-2.6 3-4 3-4s-4.1 4.8.2 8.9c.5-3.9 3-5.1 3-5.1s-3 9 0 10.7c.4-3.5 2.7-5.1 2.7-5.1s-2.8 8-.3 9.8c.3-3 2.3-4.4 2.3-4.4s-1.2 8.3 2 8.9c0-3 2.4-5.8 2.4-5.8s-1 6.8 4 7c0-2.5 1-5.4 1-5.4s2.2 7.2 5.5 6v-6s2.1 6.8 6.1 5.5c-.6-2 .3-4.2.3-4.2s2 4.2 5.9 2.8c.6-1.2-.2-3.8-.2-3.8s5.5 5.8 7.2 2.3-4.4-4.6-4.4-4.6h4.1s-1.3-3.5-7-4.3c2-.8 4-.2 4-.2s-1.2-4.4-6.9-4.8c2.2-.8 4.7-.3 4.7-.3s-.8-4.1-7-5.3c.9-1.1 3.6-.7 3.6-.7s-2.5-4-5.4-3.7c-2.9.2-28.7-2.7-28.7-2.6z"/><path fill="none" stroke="#24a34e" stroke-linecap="round" stroke-width=".776" d="M573 269.2s2.3 1.1 2.3 2m-.9-3.8s3 2 2.9 3.5m-.3-4.6s2.3 1.5 2.4 3.8m1.5-2.8s1.2 2.5.7 3m1.6-1.7c.2 2-.2 2.2-.2 2.2M554.4 256s2.8 1.8 2.5 4.3m-2.6-2.1s1.2 1.2 1 2m2.3-4s1.9 2.4 1.3 4.2m1.8-2.7s.9 1.6.1 2.5m1.4-1.7s1 1.6.1 2.1m-1.2 3.1s2.6.6 3 2.5m-1.5-4.3s2.7.2 3 3m.6-4s1.8 3.2 1.5 4.1m2-3.8s.6 3 0 4m2.1-2.8v3.5m-3.4-8.2s1.7.7 1.6 2.3m0-3.8s2.2 1.3 2 3.6m.5-4.6s1.9 2.3 1.2 4.7m2.1-4.1s-.7 2.7-.4 3.8m2.4-2s-1.2 1-.6 2.1m-10 8.6s.4 2.1 0 2.5m-2.7-3.7s1.3 2.3.8 3.5m-3.7-3.6s1.5 1.7 1.5 3.1m-3.8-2.8s1.4 1.4 1.3 2.1m-2.5 0s1.3 1.4 1.2 1.7"/><path fill="#faf6f5" stroke="#0a1a1d" stroke-width=".828" d="m529 173.5 19.3-.4s12.8 0 14.2 4.2c2.4-5.5 13.4-5.2 13.4-5.2l20-.7.4 48.3c-4 18.7-17.5 32-32.5 37.6a49.6 49.6 0 0 1-32.7-38l-2.1-45.8z"/><path fill="#0f7d3a" stroke="#0a1a1d" stroke-width=".828" d="m535.9 173.3 28.1 75 25.4-76.6c-7.8.5-24.8-1.3-26.9 6-3.2-6.5-21-4-26.6-4.4z"/><path fill="#fcd80e" stroke="#0f7d3a" stroke-linecap="round" stroke-width=".428" d="M555 214c1.1.5 1-20.4 2.5-21l1.1-4.4c-1.2-2.2-6.7-2-8.7-.2l1.3 3.9c2.8 4.4 2.2 22 3.8 21.6z"/><path fill="#b5915f" stroke="#0a1a1d" stroke-linejoin="round" stroke-width=".776" d="M547.5 52.3s2-2.3 2-2.8c.2-.6 9.1-1 14.4-10.9 3-5.2 0-2.2 0-2.2l-.1-2.5s3.7-3.5 2.3-5.4c-1.3-2-.9 2.4-3 2.3s-1-4.7-1-4.7-.2-.5-.9-.8c-.9.1-.6 1.7-1.4 2-.8.1-1.5-3.9-1.5-3.9s-1.4-1.8-2.6 4c.7 6 4.5 4.8 4.5 8.8 0 4-3.4 7-4.4 7.1-1 .1-.6-3.3-.6-3.3s-.6-1.7-1-1.7 2-.3 1.7-4.8c-.8-5.5-1.4 1.2-2.9 1-1.4-.3-.4-5 .2-5.6s-.6-2.8-3.8 3c-.3 2.8-.6-.7-1.3-.5-1 2.2-.9 3.9.7 6 2.2 2 3.7 4.1 3.6 5.2-.1 1-1.3 3.5-3 3.5-1.5 0 .2-3 0-4 0-1-2.7-4.6-2.7-4.6s-2-3-1.7-3.1c.1-.1-.2-.6-1.1 2.6-1 3.1-2-2-2-2s-1.3 3.8 1.4 6.1c-2-.2-2.2.6-2.2.6 0 1 2.8 1.5 3.1 3.4.4 2-2.8 3-2.8 3s1.3 1.9 5.1-1.8a6 6 0 0 1-1.4 4c1.2.5 2.2.5 2.4 2z"/><path fill="#b5915f" stroke="#0a1a1d" stroke-linejoin="round" stroke-width=".682" d="M535.1 52.3s-1.7-2.6-1.8-3c0-.5-8.3.6-12.2-9.5-2.5-4.7 0-2 0-2l.2-2.2s-2.7-3.3-1.6-5 .7 2.2 2.2 2.2c1.8-.1.8-4.3.8-4.3s.2-.5.7-.7c.8 0 1.1 2.5 1.8 2.7s2.1-3 2.6-3.6c.6 0 .6-2.5 1.6 2.7-.6 5.5-5.1 4.4-5.1 8s2.9 6.4 3.7 6.5c.9 0 .6-3 .6-3s.4-1.5.7-1.5c.4 0-2.6.6-2.3-3.5.7-3.9 2.2.2 3.4 0 1.2-.3-.1-4.1.2-4.7.1-.6 2-3 2.6 2.4.2 2.6 1.6-2.1 2.2-2 .9 2-.4 4.8-1.7 6.7-2 1.9-2.8 4-2.7 5 0 1 .5 2.2 1.9 2.2s.4-1.8.5-2.7 2.4-3.8 2.4-3.8c.4-.7 0-2 .5-2.7.8 0 1.1-1 1.9 1.9.7 2.8 1.7-2 1.7-2s1 3.6-1.3 5.7c1.8-.2 2 .5 2 .5 0 1-.9 1.4-1.2 3.2s1 2.7 1 2.7-1.2 1.7-4.5-1.7c0 2.2 1.3 3.6 1.3 3.6-1.1.6-2 .5-2.1 1.9z"/><path fill="#fcd80e" d="M584.7 184.5c-1.6-1.5-1.8-.2-2.7-.5-.4-.2-.7-.6-1-1-.3-.3-.7-.4-1.1-.5l-.5 1.3c-.2.4.5 1.2.4 1.9 0 1-.5 1.8-1.8 2.2.4-.7.6-.8.5-1.6 0-.5-1.3-1.3-1.1-1.7.2-.6.6-1.4.3-2-.5.3-1.2.1-1.7.3-.5.2-.5 1-1 1.4-.7.3-2 .1-3.2-.5.7-.6 1.2-.2 2-.7.3-.3.3-1.4.6-1.7l1.6-.8c-.3-.4-.3-1-.6-1.3-.4-.4-1.8-.3-2-.6-.7-.8-.6-1.7-1.2-2.4 1.6.6 1.4 1.4 1.8 1.3.8-.4 1.5-.5 2-.3.3.2 1.1 1.2 1.5 1.4l.5-1.5c.2-.5-.6-1.2-.5-1.7.3-.9 1-1.7 1.4-2.6l.4 2.5c0 .4.9.6 1 1 0 .5-.5 1.5-.5 2 .5-.1 1.2 0 1.6-.2.5 0 .8-1.2 1.3-1.2a6 6 0 0 1 2.6 0c-.7.7-1.3.6-1.7 1.2-.4.3.1 1.2-1 1.8-.3.2-1.3 0-1.6.2l1 1c.2.4 1.6.6 2 1 .6.7 1 1.5.7 2.3zm-43.2.7c1.7-1.5 1.9-.2 2.7-.5.4-.2.7-.6 1-.9l1.1-.6.5 1.3c.2.5-.4 1.2-.4 2 .1 1 .5 1.8 1.8 2.1-.4-.7-.6-.7-.5-1.6 0-.4 1.3-1.2 1.1-1.6-.2-.7-.6-1.5-.3-2.1.5.3 1.2.1 1.7.4.5.2.5 1 1.1 1.3.6.3 2 .2 3.2-.5-.7-.5-1.3-.2-2-.7-.4-.3-.4-1.4-.7-1.7-.4-.2-1.2-.5-1.5-.8.3-.3.3-1 .6-1.3.3-.3 1.7-.3 2-.6.6-.7.5-1.7 1.1-2.4-1.6.6-1.4 1.4-1.8 1.3-.7-.3-1.5-.4-2-.2-.3.1-1.1 1.1-1.5 1.3l-.5-1.5c-.1-.5.7-1.2.5-1.7-.3-.9-1-1.7-1.4-2.6 0 .9-.2 1.6-.3 2.5 0 .4-1 .7-1 1.1 0 .4.5 1.5.4 1.9l-1.6-.1c-.5-.1-.8-1.2-1.3-1.3a6 6 0 0 0-2.5 0c.7.7 1.2.6 1.7 1.2.3.3-.2 1.2.8 1.8.4.2 1.4 0 1.8.2a74 74 0 0 0-1 1.1c-.3.4-1.7.5-2 .9-.7.7-1 1.6-.8 2.3z"/><path fill="#fcd80e" stroke="#0f7d3a" stroke-linecap="round" stroke-linejoin="round" stroke-width=".428" d="M583.2 189.3c-1.5 1.2-11.3 3.7-11.4 12.3-.1 8.5 1.7 10.5-.1 10.7-3.6 0-4.1-9.6-4-13.8.1-4.2.2-3.5.2-3.5s2.4.6 2.2 2.7c-.2 2 2.5-5.1 1.6-7 1.6 1.5 3.7.9 3.7.8 0-.1-1.2-1.4-1.7-2.4s1.8.5 1.8.5.1-1.6-2-1.5c-2.6 0 .5-.8.5-.8s1.5 1.4 2.5-.1c-1-1.2-2.7-1.9-2.7-1.9s-1.4-2.7-3.4-3.2c-2.2-.6-1.9 1-4.4.7-.5 1-.5 1.1.5 1.4-1.7 1.2-.8 3.6-.8 3.6s2.7-1.2 2.6.8c0 2-1.6 1.6-2.6.4-1-.5-1.3.5-1.3.5l1.5 1.6s-2.8-.2-3.5 1.7c1.5-.1 2.4.3 2.4.3s-3.2 1.4-3.5 2.2-.4-.9-.5-.9l-3-1-1 4.6s2 2 3 1.4c1.2-.7 3.2-2.6 4.4-2-3.5 2.6-7 6.5-9 7-.5-.4-2.2-2-3-1.2-.6.8-.1 2 .8 1.8.9 0-3 .9-2.2 2.5.9 1.6.8 1.5 1.5 1 .7-.3-.6-.5 2-1.2s2.5-1.5 2.5-1.5-.5 1.2-1.9 1.5c-1.4.3-2.5.3-2.2.7.3.5.9 1.2.7 1.7s3-2.3 3.7-.1c2.2-.1 3.6-2.7 2.6-4.3 0 1.7 1.1 2.2.5 3-.6.7 4.8-2.5 2.1-4.5.7 1.6.8 3 .8 3s1.2-.2 1.6-.6c.3-.4-.7 1.2-.3 1.5.5.3 2.4 2.2 1.6 3.5-.5-.8-.6-2-1.2-1.9-.7.2-3.2 2-4.7 2.1s1.8 5.6 1.8 5.6-2.3-.3-2.6 0-1.9-2-2.2-.7c-.5 1.6.5 1 .5 1s-1.3-.7-2 0c-.7.8-1.4 1.6-.9 1.9.5.3 2.7.3 3 .2s-2.5.2-2.7.6c-.2.3-.6 1.5 0 1.9s2.1-.2 2.2-.5c.1-.4.2 1.1.2 1.1s2.7.3 2.7-2.4c0-2.7.2 2 .2 2s2.6.3 2.7-2.4c.1-2.7.3 1.9.3 1.9s1.8-.6 1.8-1-.1 5.4-1.4 7c-1.9-1.3-3.1 1-3.1 1s0 3-.1 3.8c-.2.8 1.3-.4 1.4-.8.1-.3 2-1.1 2-1.4l.6-1.3s-.4 1.6-1 1.8c-.8.2-1.5 1-1.2 1.6s1.4 1 1.8 1.7c.4.7 1.9-3.8 1.9-3.8v1s1.9-.4 2.1-1.3c.2-.9-2-1.6-.2-3 1.7-1.4 0 1.3 0 1.3s.6 2 1 2 1.4-3.9.4-4.8c-1-1 1.5 1.2 1.5 1.2s1.5-4 0-4.6l-2.3-.7s.8-1.1.4-1.2c-.4-.1 2.1 2.3 2.6 1.7.4-.7 1-2.6-2-3.7-3-1 0-4.1 0-4.1s1.8 2.2 3 1c1.4-1.2 0-1.2 0-1.2s3.7-2.4 3.8-3.6l-1.9.1s2.1-1.4 1.6-3.7c-.8 1.2-2 1.2-2 1.2s2-1.8 1.6-3.5c-1.1.8-1 1.5-1.7 1.3-.7-.3-2-7 1-7.5 2.7-.4 1.2 3.3 1.3 3.3.1 0 4.3-1.7 0-4.5 1-.3 3.2 1.6 3.2 1.6s-1-4.7-5.5-1.8c1.1-1.2 1.8-2 2.7-1.7s4.2-.2 4.2-1.1c-.8-.7-2.5.3-3.5 0-.9-.4 6.5-.9 6-4.6z"/><path fill="none" stroke="#0f7d3a" stroke-linecap="round" stroke-width="1.25" d="M481.3 118.5s12.3-6.4 18.4 1.6m4.9 12.2c-.3 0-4.3 4-5.2 4m13.4 8.9s11.4.9 18.7-10.4" transform="matrix(.3316 0 0 .35352 391.45 150.228)"/><path fill="none" stroke="#0f7d3a" stroke-linecap="round" stroke-width="1.25" d="M525 141.8s1 6.1 2.8 6.1c1.9 0-3 1.6-4.9.3 2.2 2.8 3.4 7.7 0 9.5" transform="matrix(.3316 0 0 .35352 391.45 150.228)"/><path fill="#e30631" stroke="#0f7d3a" stroke-linecap="round" stroke-width="1.25" d="M519.3 219s-4 4.2-9 4.6" transform="matrix(.3316 0 0 .35352 391.45 150.228)"/><path fill="none" stroke="#0f7d3a" stroke-linecap="round" stroke-width="1.25" d="M523.9 199.4s-2.5-12.3-1-15.3c1-4 5-5.5 8-10.7" transform="matrix(.3316 0 0 .35352 391.45 150.228)"/><path fill="none" stroke="#0f7d3a" stroke-linecap="round" stroke-width="1.25" d="M522.6 190.5s-3 7.3-16.5 4.9m20.2-23.3s1 9.8-11.3 6.2m-3.7-50.3s-4.9 4.3-3 10.1" transform="matrix(.3316 0 0 .35352 391.45 150.228)"/><path fill="#0f7d3a" d="M567 191.7s2.2-.9 2.6-1.3c.4-.4 1.1-1.3 1.3-2 .2-.6-1.4-1.6-.6-3 .5-.6 1.3-.7 2.5 0 1.2.8-1.1-2.4-2.4-2.5-1.2 0-2 .9-2.3.7-.3-.2.1.9-.4.9s1 .8 1 1.4c-.2.5 1.5 2.3 1.4 2.8 0 .4-2.5 2.9-3 3z"/><path fill="#fcd80e" stroke="#fcd80e" stroke-linecap="round" stroke-linejoin="round" stroke-width="1.25" d="M534.3 97.1c2.8-.6 3.2 0 2.7 2.5a7 7 0 0 1-2.7-2.5z" transform="matrix(.3316 0 0 .35352 391.45 150.228)"/><path fill="#e30631" stroke="#0f7d3a" stroke-linejoin="round" stroke-width="1.25" d="M514.7 233.5s-1 6.4 1.5 7c-.1-2.5.5-4.2 1.2-4.9-.6-.2-2.6-2-2.7-2zm-5.7-7.9c-2.3-.3-6.2 1.6-5 4 1.8-1.7 3.6 0 4.9-1.6.4-.4.3-1.8.1-2.4zm0-4.5s-3.6-.6-4.1 1.9c2.5-.3 3.2-.6 4 0 .3-.6 0-1.8.1-2z" transform="matrix(.3316 0 0 .35352 391.45 150.228)"/><path fill="#e30631" stroke="#0f7d3a" stroke-linejoin="round" stroke-width="1pt" d="M493.5 185s2.2.8 2.9 3c1.7-1 2.5-5.8-2.9-3zm-5.4 5.4c.1 0 4.6-2.8 5-.2-.9 1-1.3 1.6-2 1.8-.6 0-1.8-1.8-3-1.6zm-.4 8.8s2.9-2.5 4-.8c1 1.6-1 1.5-1 1.5s-1-.4-3-.7zm-4-49.2s-3.6-1.4-5 1c2.3.4 3.1 1.2 4.2 2-.3-1-.8-2.6.8-3zm-6.9 18.5s.2-4.2 2.1-5.9c1.2.7 1.5 1.7 2.2 2.9-1.5.3-3.4.4-4.3 3zm9.5-3s-4 1.9-2.6 3.8c1.2-1.3 2.7-.9 2.7-1l-.1-2.8z" transform="matrix(.3316 0 0 .35352 391.45 150.228)"/><path fill="#fcd80e" stroke="#0f7d3a" stroke-linejoin="round" stroke-width="1pt" d="M480.6 125.6c-1.4 1.6 1.8 5 5 4.5 1-3.7-4.1-5.7-5-4.5z" transform="matrix(.3316 0 0 .35352 391.45 150.228)"/><path fill="none" d="M550.8 192c-.2.7.7 1.6 1.2 1.3.2-.6-1-1.7-1.2-1.2z"/><path fill="#e30631" stroke="#0f7d3a" stroke-linejoin="round" stroke-width="1pt" d="M484.3 122.8s.6 2.9 3.4 2.1c-.4-2.3-2.4-4-2.4-4-.1.7.4 1.7-1 1.9zm1.9 8.5s1.5 1.7 4.6-1.8c-1.4.4-3.8-.8-3.8-.8s0 2.4-.8 2.6z" transform="matrix(.3316 0 0 .35352 391.45 150.228)"/><path fill="#fcd80e" stroke="#0f7d3a" stroke-linejoin="round" stroke-width="1pt" d="M480.5 118.9c-1.4 1.5.5 3.7 3.8 3.2.9-3.7-3-4.4-3.8-3.2z" transform="matrix(.3316 0 0 .35352 391.45 150.228)"/><path fill="url(#d)" d="M144.6 266.6s7-2 10.8 1c3.7 3 3.7.3 3.7.3s5.5 2 7 1.6-1 .1 1-1.2c2.2-1.3-4.2.3-4.8-2.4-1-1.7.1-3.9-2.2-3.2-1.5-2 1-3.4.5-5.6-1.6 1.2-2.5-.4-3.8 2.5-3-.6-.4-4.8-3.7-5.2 0 3-2.4 3.2-2.6 4.9-1.4 1-7.7 4.7-5.9 7.3z" transform="matrix(.621 0 0 .621 461.4 21.482)"/><path fill="#c40f38" stroke="#0a1a1d" stroke-width=".828" d="M501 329.2a42 42 0 0 1 24 9.8c-1.2-11.3-4.4-20-4.4-20s-9.1-2.6-10.4-1.3c-1.8 1.9-7.4 7.7-9.3 11.5zm-4.8-52.2c-1 .2-2.1.9-3.2 2.7-1.3 3-2.2 10.8-4 12.6s-3.4 2-3.4 3.6.2 5.3 5 6.8c5 .2 12.6-7.7 12.6-7.7s4-4.4 5.6-9c-9.3 3.2-16-5.4-12.6-9z"/><path fill="#c40f38" stroke="#0a1a1d" stroke-width=".822" d="M631.2 327.4a42.5 42.5 0 0 0-24.2 9.7c1.3-11.2 4.4-19.8 4.4-19.8 1-.3 9-2.6 10.2-1.4 1.8 2 7.7 7.7 9.6 11.5zm4.4-51.9c1 .2 1.4 1.6 2.3 3.4 1.3 3 2.5 7.4 4.3 9.2 1.8 1.8 3.4 4.4 3.4 6s-.4 3.8-5.2 5.2c-4.8.2-11.8-6-11.8-6s-3.9-4.2-5.5-8.9c9.3 3.2 15.3-5 12.5-8.9z"/><path fill="#ffb81c" stroke="#0a1a1d" stroke-width=".828" d="M490.8 319.4s9.7 6.6 10 9.7c26-38.6 92.4-50.7 130.2-2.7 5-6.7 10.3-8.8 10.3-8.8-39.9-52-119.2-45.6-150.5 1.8z"/><g fill="#0859b9" stroke="#0a1a1d" stroke-width="1pt"><path stroke-width=".828" d="m589.6 171.7 3.8-.1-6.8 8.6 8.1 9.5-16 20.1 15.1 18.2c-1.6 4-3.5 7.7-6.1 11l-8.7-9.5 15.7-19.6-12.9-14.6 7.8-23.6zm-54.2 1.7-4 .1 7.5 8.2-8 10 16.7 18.2-13.8 18.5c1.6 4 4 8.6 6.6 12l8.2-10.4-17-18.8 12.5-15.8-8.7-22z"/><path stroke-width=".828" d="m554.2 222.2-6 8 21.3 24.6c3.8-1.9 6.8-4 10-6.7l-11.1-12.8 4.5-13.3 6.5 7.5-20.3 26a44.7 44.7 0 0 1-10.6-6.6l10.7-13.6-5-13.1zm-6.6-12.4 3.9 4.9-2.6-6.6-1.3 1.7z"/><path stroke-width=".802" d="m575.4 214.1 3.2-4.1-1.2-1.7-2 5.8z"/></g><g fill="none" stroke="#fcd80e" stroke-linecap="round" stroke-width=".828"><path d="M620.3 146.3s3.8-3.2 6.5-3.3"/><path d="M620.9 145.8s22.4-3.2 23-4m-23 4.2 25-2.1m-25 2.2s26.5-1.3 28 0"/><path d="M620.8 146s26 .2 26.4.8m-26.3-.8 25 2m-25.3-1.8c.1 0 25.4 2.2 28 5.4"/><path d="M649.9 156.2c-.1-.1-8.7-10.3-29.4-10.1"/><path d="M620.6 146.3s14.4 1 19 6"/><path d="M620.9 146s9.3-1.7 19 10"/></g><path fill="url(#e)" stroke="#0a1a1d" stroke-width="1pt" d="M247.4 217.7s20.7.9 20.7 2.9-15.4 5.9-15.6 14.4 11.8 9.1 12.6 20c.8 10.7-9.4 12.3-11.4 15.1-2 1.5-7 16.7-6.3 25.6s3.2 39.2 8 45.3c3.6 2.9 9 12 15 9.2 5.8-2.9 1.8-13.2 1.2-16-.6-3 2.4-7.6 2.4-11.9s-2.2-7.7-2-8.7c.2-1 16.4 3.9 15.4 20-1 16-7.5 11-7.5 11s2 19.8-3 22.4c-9.2 5-15.9-1-15.9-1l.9 4-7-3.6s-9-12.8-11-18.5c-2-5.6-4.4-31-3.6-36.5.8-5.5 1.4-37.6 1-39.2-.4-1.7-2-28.5-1-32.5s7.3-22 7.1-22z" transform="matrix(.621 0 0 .621 461.4 21.482)"/><path fill="#e17000" stroke="#0a1a1d" stroke-width=".828" d="M601.2 153.4s9-8.7 14-7.7c2.7 0 .2 2 .2 2s4.6.3 5.2 2.3c.1.9-2.2 1.2-2.2 1.2s2 .3 2 2c.2 1.6-19.1.3-19.2.2z"/><path fill="none" stroke="#0a1a1d" stroke-width=".828" d="M601.7 153s9.6-1.2 13.6-5.3"/><path fill="none" stroke="#0a1a1d" stroke-width=".828" d="M611.4 150.4s7-.3 7 .8"/><path fill="#faf6f5" stroke="#0a1a1d" stroke-linejoin="round" stroke-width=".776" d="M636.5 253.6s6-1.4 7.7-3.6c1-.7 6.3 8-7.7 3.6z"/><path fill="none" stroke="#faf6f5" stroke-linecap="round" stroke-width=".776" d="M634.8 203.5s.8 4.7-1.3 7.8c-1.2 1.3-4.6 3.4-4.6 5 0 1.5 1.3 3.5 1 5.2-.2 1.8-2.1 3.6-2 5 0 1.6 2.1 9.7 1.9 9.8m-6-48s-4.9 1.7-5.9 6.5"/><path fill="#e17000" stroke="#0a1a1d" stroke-width=".828" d="M621.7 150.4s1.7 4.5 7 .2c-3.5-4.6-7 0-7-.2z"/><path d="M625.6 150.2c0 .2-.2.4-.5.4s-.6-.2-.6-.4.3-.4.6-.4.5.2.5.4z"/><path fill="#faf6f5" stroke="#0a1a1d" stroke-width=".828" d="M578.4 139.9s10 10.8 16.6 10.7c1.1 3.2-3 6.2-4.7 7.6-3.3-1-6.3.2-14-9.3.5-6 2.2-8.8 2.1-9zm13.6-25.3c1.3-4 3.9-7.2 6.1-7.6-.6-3 4.8-16.7 20.3-21.9.9 7-6.7 13.9-6.7 13.9s22.8-4 27.4-9.7c-.4 2.6-5 18.8-29.4 18.6 9.2 8.8-3 15.8-8.1 13.6 9.5-7.3-2.7-11.7-9.6-7z"/><path fill="#d3d3d5" stroke="#d3d3d5" stroke-width=".828" d="M599.8 108.9c4.6-3 6.3-3 10-2.4l-2.7.5s-.2.4 1.4 1.9c-1.8-.5-3.5-1.5-8.7 0z"/><path fill="none" stroke="#0a1a1d" stroke-width=".828" d="M598 107s9.1-4.8 14.2-8.2"/><path fill="#003396" stroke="#0a1a1d" stroke-width=".828" d="M590.2 158.2s12.6 3.4 14-14.6c-2.8-7.8-6.5-24.5-.7-29.4-5.4-3.7-11.1.1-11.1.1-.4.9-5.1 7.6 1.2 19.4-15-4-9 10.3-9 10.3.7-2.3 8.7-4.4 10.7 7 .8 3-5.4 7.3-5 7.2z"/><path fill="#003396" stroke="#0a1a1d" stroke-width=".828" d="M604.3 143.8s13.2-7.1 12.9-23.8c-11.3.2-15.3 14.8-15.3 14.8l2.4 9z"/><path fill="#faf6f5" stroke="#0a1a1d" stroke-width=".828" d="M545 143s-9.8 8.4-15.4 5.7c-4.1 2.5-9-1.9-9-1.9s5.7 21 26 5.8c-.3-4.6-1.4-9.3-1.6-9.7z"/><path fill="#003396" stroke="#0a1a1d" stroke-width=".828" d="M529.5 148.4c.8-4.4 4.2-6.5 7-2.4 3.6.7 7.3-14.3-5.7-11.8 3.6-19.6-7.4-27-7.4-27s-3.9 21.8-2 25.8c1.7 4-2.7-7.4-16.7-10.6-.3 16.4 15.7 24 15.7 24s4.5 4.2 9 2z"/><path fill="none" stroke="#0a1a1d" stroke-width=".828" d="M530.8 134s-6.2 5.3-4.8 12.4m-4.6-13s-1.4 5 1.7 12.2"/><path fill="none" stroke="#0a1a1d" stroke-width=".828" d="M520.5 147.3s2.8-4.6 9 1.3"/><path fill="#faf6f5" stroke="#0a1a1d" stroke-width=".828" d="M521.7 115.4c0-.1-9.4 0-3.8 9.4-4.1 1.3-13.4-4.7-7-12.7-20.9-.5-29.4-10.5-29.4-19.8 6.1 6.4 20.8 3.8 26 7.7-6.4-5.9-5-14-5-14s17.8 5.3 21 21.1c-1.1 3-1.6 8.5-1.8 8.3z"/><path fill="none" stroke="#0a1a1d" stroke-width=".828" d="M507.3 99.6c3.5 3.5 12.3 4.6 16.8 8.5"/><path fill="#d3d3d5" stroke="#d3d3d5" stroke-width=".589" d="M511.4 110s7.3-1 9.4 1.6c-2.8 0-3.8-.7-8 .8 1.2-.6 1-1.6 1.6-1.6s-2.7-.8-3-.8z"/><path fill="#6c401f" stroke="#0a1a1d" stroke-width=".828" d="M548 52.6s4-3.5 8.3-.3c-2 5.9-9.1 3.6-9.1 3.6s.2 3-.5 4.4c1.5 1 2.6 4.6 2.6 4.6s7.4-1.7 8.9 1.4c2.8-.3 4.8 0 4.8 0s5.7-1.4 7.7-1.4 8.4 1.7 9 2.9c.6 1.1 2.7 9 4.1 9 1.5-.2-3.4 1.8-4.7-.2-1.3-2-1 2.6-1 2.6s4 4.3 4.6 5.2c.4 1-2.5 8.7-.3 14-2 .2-2.1 2.2-2.1 2.2-.1 2.4-3 3-3 3l-.8-3.2-2 1.2.8-2.5s2.7-6.6 3-8.8c.2-2-2.5-5.9-4.6-5.9-2.2 0-3.7 6.8-3.7 6.8s-1 5-.7 5.5l-1.4-1.6s-1 3-1.7 4-2.2 1.3-2.2 1.3-1-3-.7-4.3 5.8-5.8 5.3-9c-.5-3.4 0-2.6-.1-2.7-.1 0-2.9-2.5-3-3.8 0-1.3-3.5 1.7-8 .8-1.4 2.4-1.6 8.3-1.6 8.3s-.4 7.3.5 8c1 1-2.3 2.7-2.3 2.7l-2.4 3.2-.8-2-1.7 1.3 1-2.4c-.1-1.8 2.3-6.7 2.3-10.8s.3-8.6.3-8.6-4.4-.2-4.3 4.3c.1 4.5-1 4.7-.8 6s1.4 5 1 6c-.3 1-1.7 1.4-1.7 1.4l-.4.6s-4.4 2-4.2 2.9-.2-2.4-.2-2.4l-.2-3.4s2.6-1.7 2.6-5.8-.6-4.7-.5-5.7c.1-1 .7-4.4.6-4.7-.1-.4-2.5 1-3.2 1-.7 0 1.3-2.5 1.6-4.3s-2.4 1.6-4.5-.4c1-2.2 2.5-2.8 2.7-4.5s-1.7 1.5-3.3.3c.1-1.6 1.8-3 1.8-3s-1.4-.1-2 0c-1-.3 1.2-2 1.4-4.4s-1.3-3.3-1.3-3.4-2.4-2.1-2.8-3-.3-1.7-.3-1.7-4 2.8-8.5-3.2c4.2-3.6 8.7-1 8.7-1s1.2-3.3 6.6-3c5.5.2 6.5 3.3 6.3 3z"/><path fill="#003396" stroke="#0a1a1d" stroke-width=".828" d="M577.6 113.8c.1 0 10 .3 10.2 5.6 0 5.3-3 4-3.2 4l-7.3-1 .3-8.6z"/><path fill="#faf6f5" stroke="#0a1a1d" stroke-width=".828" d="M568 112.3s12.4-.1 11.7 5.3c-.7 5.4-3.8 4.3-3.8 4.3l-6-.5-2-9.1z"/><path fill="#003396" stroke="#0a1a1d" stroke-width=".828" d="m561 111.7 7.2.6s4.3.6 4.1 4.7c-.2 4.2-4.4 4.3-4.4 4.3l-7-.4.1-9.2z"/><path fill="#faf6f5" stroke="#0a1a1d" stroke-width=".828" d="M544.2 113.8c-.1 0-10 .3-10.2 5.6 0 5.3 3 4 3.2 4l7.3-1-.3-8.6z"/><path fill="#003396" stroke="#0a1a1d" stroke-width=".828" d="M553.8 112.3s-12.4-.1-11.7 5.3c.7 5.4 3.8 4.3 3.8 4.3l6-.5 2-9.1z"/><path fill="#faf6f5" stroke="#0a1a1d" stroke-width=".828" d="m560.8 111.7-7.2.6s-4.3.6-4.1 4.7 4.4 4.3 4.4 4.3l7-.4v-9.2z"/><path fill="#961538" stroke="#0a1a1d" stroke-width=".828" d="M580 171.5s5.2-7.7 7.4-6.8c1.9.6.5 6.5-.5 7l-6.8-.2zm-35.4 1.3c-1.6-2.2-4-8.5-6.1-6.8-2 .7-.5 6.5.4 7l5.7-.2z"/><path fill="none" stroke="#0a1a1d" stroke-width=".828" d="M548 157.8s10.1 6.2 13.4 6.3 13.8-8 13.8-8"/><path fill="#961538" stroke="#0a1a1d" stroke-width=".828" d="m549 133.4 2-2.4 9.6 5 9.9-4.4 1.9 2-11 7.7-12.4-7.9z"/><path fill="#5a6365" stroke="#5a6365" stroke-linejoin="round" stroke-width=".776" d="M541.4 133.3c.7 1 7 8.6 8.1 14.9 1.1 6.3-.6-8.6-.6-8.6s7.7 3.7 8 6.2 3.6-.2 3.8-.6l-22.4-14.6 3 2.7zm38.2-.4s-8.2 10.7-7.2 22.4c-1.7-5.6-.3-14.9-.3-14.9l-1.8 1.2s-1.9 7.9-4.2 9c-.4-.9-.3-1.2-.3-1.2s-2.5 3.2-3 3.5.2 10.9.2 10.9.8 7.7 1.8 7.6l-2.5 1.3-1-20.4 2.3-2.3s3-3.7 3.3-7.3c-1.3 1.1-2.8 1.5-2.8 1.5s-.4 5.1-1.6 5.8c-1.2.8-1.3 2.1-1.3 2.1l-.2-6.7 18.6-12.5z"/><path fill="none" stroke="#0a1a1d" stroke-width=".828" d="M541.1 160.7s3.7 2.1 5.1 8.7c12-.8 15.9 3.4 15.9 3.4s9.9-4.7 14.5-3.8c1.6-3.4 6.2-7.8 6.2-7.8"/><path fill="#d3d3d5" stroke="#0a1a1d" stroke-width=".828" d="m536 129 25 16.4 22.3-15.1s4.7-2.6 4.3-4.4c-.4-1.9-2-1.2-2.8-.8-.8.3-23.5 16.3-23.5 16.3l-24-15.2s-1.8-.6-2.1.6c-.3 1 .6 1.7.9 2.3z"/><path fill="#5a6365" stroke="#5a6365" stroke-linejoin="round" stroke-width=".776" d="M580.6 124.9s-6.4-2.7-6.4-.4c0 2.3.2 2.6 1.2 4 1 1.6-.8 2.5-.8 2.5l-.6-1.6c-.4-1-3.8-1.8-4-3-.4-1.2.6-3.1-1.4-3.3-2-.3-4 .8-4.4 3.1S561 134 561 134l.4-12.4c4.4.3 12.8 1.3 19.2 2-2-.2.7.2.6.8-.1.6-.8.6-.7.5zm-22.6-3.2c-1.1 0-6.8.7-8.2 1.5-1.5.9 2.3 2.2 1.8 3.3s-.5 3.5-2.3 3c-1.8-.5-7.9-3.5-8-4.5s-1.5-1.1-1.5-1.1 17.4-2.3 18.2-2.2z"/><path fill="none" stroke="#0a1a1d" stroke-width=".828" d="M560.8 120.3v15.3M549 102.3l-7 11.7"/><path fill="url(#f)" stroke="#0a1a1d" stroke-width="1pt" d="M161.8 129.7s4.9 6.7 4.3 8.6a25 25 0 0 1 4.3 7.8" transform="matrix(.621 0 0 .621 461.4 21.482)"/><path fill="none" stroke="#0a1a1d" stroke-width=".828" d="M573.6 101.4s-6.5 9.2-6.3 9.9"/><path d="M540 57.4c-.1.5-1 .7-1.9.4s-1.4-.9-1.3-1.4c.2-.5 1-.7 1.9-.5s1.5 1 1.3 1.5zm2.7-.2c.1.5 1 .7 1.8.4s1.5-.9 1.4-1.4c-.2-.5-1-.7-2-.4s-1.4.9-1.2 1.4z"/><path fill="#e17000" stroke="#0a1a1d" stroke-linejoin="round" stroke-width=".828" d="M619.4 248.8s-2.4.5-2.3.7c0 .3-7 .5-7.2.3-.2-.3-1.1 1.2-1.1 1.2l1.1-.7s1.8 1.8 2.3 1.7-.2.6 0 .8c0 .2.6-.3.6-.3l11.8-.2-5.2-3.5z"/><path fill="#e17000" stroke="#0a1a1d" stroke-linejoin="round" stroke-width=".776" d="m623.8 252.5-9.6.3s-2.4 2.2-2.6 2.7c-.1.6 1.6.7 1.6.7l.5 1.8 1.3-.4s8.2 1.2 15.7-.5c3.8-1.3 4.5-2.9 1.8-3.9s-8.6-.6-8.7-.7z"/><path fill="url(#g)" stroke="#0a1a1d" stroke-width="1pt" d="m208.4 404 28-1.3-5.3-4.4 75.7-3-2.6-6.1-84.7 3.4 10.2 4.8-23 .6.8 2.4-6-.2s6.6 2.6 6.9 3.7z" transform="matrix(.621 0 0 .621 461.4 21.482)"/><path fill="url(#h)" stroke="#0a1a1d" stroke-width="1pt" d="M239.7 249.4c-2.2-1-12-2.4-22.9 4.7l.5 25.1s16-8.7 23.8-6.7c-.5-7.8-.5-17.7-1.4-23z" transform="matrix(.621 0 0 .621 461.4 21.482)"/><path fill="none" stroke="#0a1a1d" stroke-width=".828" d="m514.2 223.7-41 40.7m59.3-40.4-33.3 43.8m31.8-55.2-44.4 53.7m-1.3-.7 4.3-5m49.9-21-17.3 23.7m-.7 3.2.4 9m25.4-27.6-18.2 22.9m15-1.8 7.4-12.2m-4.6-2.4-9 10.1m6.3-19.6-6 7.5m-1.9-18.3s-18.5 27.2-18.2 29.4m16.3-33c-.4.3-16 21-16 21m-.9 6.5-2.8 3.4m-3.6 5.2-4.3 5.6"/><path fill="#47a3d8" stroke="#0a1a1d" stroke-width=".828" d="M512.2 161.2s-1.3 4 0 6 9.2 17.9 9.2 17.9 5.3-6.7 7.3-6.8c2-.2 1.1 17.2 1.1 17.2s-3.2 3-5.2 2.9c-2-.2 4.8 6.8 4.7 12.7s-9 35.4-12.2 36c-3.3.5 1.4-5.5 1.2-7s-1-.6-1.8-2.4 1-4.5.7-6.3c-.3-1.8-2-1.4-2.1-2.7-.2-1.3 1-1.6.9-3-.2-1.5-2.2-1.1-2-2.4.2-1.2.4-.7.2-3s-.6 1.6-2.5 1.8-3.6 4.6-3.6 4.6-4 5.6-8 3c2.4 5.1.6 7.3-.3 7.4-.9.2.7 4-1.4 4.2s1.6 8.4-1 9.1c2.8 1.3.6 2.9.6 2.9s-6.2.5-4.8 8.6c-18.3-6.4-27.3-17.6-27.1-28.9.1-11.3 3.7-21.5 12.5-25.3 2.5-9.3 6.9-19.4 6.9-19.4s-.8-4.1-.2-6.8c.5-2.7 3-5.4 3-5.4s-.3-6.5-.2-9.7c.2-3.2 1.5-4.7 1.7-6.4s-.6-11 1.2-12.6 5.2-1.5 7-2.5c1.8-1.1 4.2-3 6.5-2.9s4.3 1.8 4.3 1.8 8.8 0 9.3 3.4c.6 3.4-1.8 4.7-1.8 4.7s1.3 4.8-4.1 9.3z"/><path fill="#d3d3d5" stroke="#0a1a1d" stroke-width=".828" d="M504.4 148.8c.3.5-.4 1.4-1.4 2s-2.2.6-2.5 0c-.3-.4.4-1.3 1.4-2s2.2-.6 2.5 0z"/><path d="M502.9 149.7c0 .3-.3.6-.7.6-.3 0-.6-.3-.6-.6 0-.4.3-.6.6-.6.4 0 .7.2.7.6z"/><path fill="none" stroke="#0a1a1d" stroke-width=".388" d="M516 155.6s2.2 9.8-.4 16.5m1.1-20.7s4.3 5.6 3.7 12.6m-3.3-13.9c.1 0 3.6 3 3.4 5.1m-2.6-6.3s2.4 1.6 3 3.3"/><path fill="none" stroke="#0a1a1d" stroke-width=".828" d="M516.8 148s-8.3 13.5-7.2 22"/><path fill="none" stroke="#0a1a1d" stroke-width=".388" d="M517.4 147.5s-11.1 6.6-13.2 28.1"/><path fill="none" stroke="#0a1a1d" stroke-width=".388" d="M500.1 176.9s6.2-25.7 17.1-29.4"/><path fill="#0a1a1d" stroke="#0a1a1d" stroke-width=".828" d="M521.5 185.5s6-7.4 7.3-7.1 1 17.1 1 17.1-4.5 3.3-5.4 3.2c-1-.1 5 8 4.8 11l-.3 3s0-1.8-1.4-4.7-.5-6.1-9.4-13.4c-2.2-4.5 4.4 2.7 5.7 1.6 1.4-1-2.4-10.5-2.3-10.7z"/><path fill="none" stroke="#0a1a1d" stroke-width=".828" d="M511 143.8s-2.5.7-2.8 1.7c-.3 1-1.8 2-2.6 1.7-.8-.4-2.3-1.6-2.3-1.6"/><path fill="#0a1a1d" stroke="#0a1a1d" stroke-linejoin="round" stroke-width=".776" d="M497 152.5s-3.8 3.7-2 4.1c1.8.5 3.7-2.9 3.7-2.9s0 5.8 1.6 4.9l6.2-4.2h2c.3.1 4.2 3.5 6.8 2.2-1.5 3.9-3.2 4.3-3.2 4.3s-2.7 3.5-6.2 2.7c-3.5-.8-4.4-2.2-4.4-2.2s-2.9.2-3.8-1.1c-.9-1.4-1.2-2.2-1.2-2.2s-1.7 1.7-2.2 1c-.4-.9 0-5.5 2.6-6.6z"/><path fill="none" stroke="#0a1a1d" stroke-width=".828" d="M518 147.3s-6.9-2-9.2 1.3c-2.4 3.4-1.8 5.3-.6 5.7"/><path d="M519 147.1c0 .8-.5 1.5-1.2 1.5s-1.3-.7-1.3-1.5.6-1.5 1.3-1.5 1.3.7 1.3 1.5z"/><path fill="#0a1a1d" stroke="#0a1a1d" stroke-width=".828" d="M499 164.6s2.9 4.4 6.2 5.5-2.3 2.3-5.7 0c-2.4-3.3-1.7-5.7-1.7-5.7s.6-.6 1.2.2zm24 25.5s-7.8-11-10-11.5c-2.4-.6 1.6-1.1 4 1.2 2.5 2.3-.6-3.8-.6-3.8l6.6 14.1z"/><path fill="#0a1a1d" stroke="#0a1a1d" stroke-linejoin="round" stroke-width=".776" d="M498.3 253.4c3-.8 16.2 7.5 19.1 9.6 3 2.1 9.2.8 9.2.8s-2.9 1.7-4.6 2.1c-1.8.5 5.3.5 5.3.5s-16.9 4.6-34-4.4c-1.5-7 3.7-8.6 5-8.6z"/><path fill="#0a1a1d" stroke="#0a1a1d" stroke-width=".828" d="M517.5 192.8s-2.2-.4-3.3-1.7c-1.1-1.3-2.7-4.5-4.4-5.8-1.7-1.4-10-6-13-5.7s-4-.3-4.4-.7-1.6.2-1.4 1.8c.2 1.5-2.3 5-1.4 6.6a46 46 0 0 0 6.1 8.4c.9.2.3 3.8.3 3.8s3.9 4 4.8 4.1c1 .3 2 1 1.9 1.9-.1.9-4.2 6-4.2 6s-4.5 2.2-4.5 3.5c0 1.3 1 4 4.6 4.9 3.5.8 13 .1 13.4-.7.5-.8 1.2-5.6 1-6.1s-2.7-2-4-1.7c-1.1.2-2.2 1.1-2 1.4 0 .2-1.7 1-1.7.2s3.5-4.7 3.8-4.4c.3.3 5.3.8 6.2 3.3.9 2.5.9 4.3 3.5 4 2.6-.3 6.2-2.7 6.5-7.6s-2.9-8.3-3.7-8.8-3.5-2.1-3.7-2.9c-.2-.7-.8-3.2-.4-3.8z"/><path fill="#0a1a1d" stroke="#0a1a1d" stroke-width=".828" d="M470.9 214.7s8.4-2.2 10.5-2.1c2.2 0 10.3 3.8 12.7 6.1 2.4 2.4 7.2 7.9 10.4 7.4s4-1.1 4-1.1l-1.1 2.3s-2.6.7-4 .4c-1.2-.3-3.8-1.1-6.3-3.6s-10.4-9.2-17-8.7-10.4 7-10.4 7 0-3.2.3-3.9-1.4 1.5-1.4 1.5l2.3-5.3z"/><path fill="#0a1a1d" stroke="#0a1a1d" stroke-width=".828" d="M501.7 221.2s2 .6 5.5.6 5.3-1.5 5.3-1.5l-.2-1.4.6-1.9s2.6 2.7 2.5 3.3-1 .7-1 .7l-.4-1.3-1 1.2s-5 4-7.7 3.4c-2.7-.6-5.3-2.4-4.6-2.9.7-.4 1.1-.2 1-.2zm-12.2 7s-3 0-4.4.6-1.8 1.5-2.7 1.4c-1-.1-1.6-1.3-1.4-1.8.4-.8 2.2-1.7 5.6-1.5 3.4.3 2.9 1.3 2.9 1.3zm10.6 8.2c0-.1-.2-4.4-2-6.1a5 5 0 0 0-4.6-1.5c-.9.2 3.4 2 3.9 3.3s1.8 4.7 1.4 5.6c-.3.8-1-2.4-3.7-3.4s-6.3-.4-5.5.8 3.7.1 5.2 2.6 2.6 5.3 2.6 5.3l.5-1.9 1.4-.3.1-3.6.7-.8z"/><path fill="#0a1a1d" stroke="#0a1a1d" stroke-linejoin="round" stroke-width=".776" d="m498 250.2-2.8-5.5s-.9-3.5-3.2-4.4c-2.3-1-5.4-.8-5.5.3s5 2.7 5.3 3.4c.3.6.2 1.7-.2 1.8-.5 0-2.7-.8-3.8-.6-1.2.3-1.8 1.8-3.5 1.3-1.6-.4-3-5.7-2.4-6.3.6-.5-1.2 1-1.6-.4s.5-5.8-.1-6.3c-.7-.6-3.8-2.5-3.9-2.8 0-.4.2-21.5 17.8-4-7.5-9-10.5-8-11.9-8-1 0-7.9.5-9.6 9.3-1.7 8.7-3.8 3.3-3.8 3.3s-.3 3.7 1.5 4.8c1.8 1-.9 4.2-.9 4.2s-3.3-8-2.8-11.5c-.6 2.8-.6 9.7 3.6 17.3 4.8 5.2 9.4 10 21.6 15.3 6.4-9.9 6.1-11 6.1-11.2z"/><path fill="#47a3d8" stroke="#0a1a1d" stroke-linejoin="round" stroke-width=".776" d="M486.4 250.3s3.5.4 4.5 2.3c1 1.8 1.4 4.6 1.4 4.6.6-1.2.9-2.2 2-3s2.1-1 2-1.7-3.7-4.6-5.6-4.8-5.2 2-5.2 2-.6 1 .9.6z"/><g fill="none" stroke-linecap="round" stroke-width="1.25"><path stroke="#47a3d8" stroke-width=".776" d="M494.5 259.6s9.2 4.2 24.4 4.5"/><path stroke="#0a1a1d" stroke-width=".776" d="M525.3 216.8s-.8 7.7-6.7 23"/><path stroke="#0a1a1d" stroke-linecap="butt" stroke-width=".828" d="M524.1 221.5s-1.8 5.6-6.7 9.7"/></g><path d="m497.1 317.6 1.6-1.8.6.5-.2.1-.1.2v.2l.1.2 2.1 1.8.2.2h.1l.1-.2q.4-.3.4-.6.2-.3.1-.7 0-.3-.3-.8l.6-.3 1 1.7-2.6 2.8-.5-.5.2-.1.1-.2q.1-.1 0-.2l-.2-.1-2-1.9-.3-.1H497.8l-.1.3-.6-.5zm3.5-3.9 3-2.9 1.5.7-.3.7-.7-.2-.6.1-.5.4-.5.5.9.9.1-.2.3-.3v-.2l-.2-.2-.2-.2.5-.4 1.5 1.5-.5.4-.1-.1-.3-.2h-.2l-.3.2-.2.2.8.8.2.1.3-.1.3-.3q.3-.3.4-.7.2-.3.1-.7l-.2-.7.6-.3.8 1.7-3 3-.5-.5h.1l.2-.3v-.2l-.2-.2-1.9-2-.2-.1h-.1l-.2.2-.2.1-.5-.5zm6.2-5.9q1-.8 2-.7 1 0 1.7 1 .5.5.6 1.2t-.1 1.3q-.3.6-.9 1.1-.8.7-1.7.7-1.2 0-2-1-.7-.8-.6-1.8.1-1 1-1.8zm.5.6q-.4.4-.4.9 0 .7.6 1.3.6.6 1.2.8.5 0 1-.3.3-.4.3-.9 0-.6-.6-1.3-.3-.4-.7-.6l-.8-.2q-.3 0-.6.3zm4.9-5 .4-.2h.1l2.3-1.5v-.2l.3-.2 1.5 1-.4.6-.6-.3H515l-.1.1v.2l1.7 2.3.2.3h.2l.4-.2.4.6-2 1.3-.4-.5.1-.1.2-.2v-.4l-1.7-2.4-.2-.1q-.2.1-.3.4t-.1.5v.6l-.6.2-.5-1.7zm4.5-2.8 3.5-2.2 1.3 1-.5.6-.6-.3h-.6l-.5.2-.7.4.7 1h.2l.3-.3v-.2l-.1-.3-.1-.1.5-.4 1.1 1.8-.5.3-.1-.1-.2-.3h-.2l-.4.1-.2.2.6 1 .1.1H520.6l.4-.3q.4-.2.6-.5.2-.3.2-.7.1-.4 0-.8l.7-.1.4 1.9-3.7 2.2-.3-.6.3-.3v-.4l-1.5-2.3-.1-.2h-.4l-.2.2-.3-.6zm5-3 2.7-1.4.5-.3h.7l.6.2.4.4q.3.5.1 1-.2.5-.6.9l1.4.6h.7l.2-.1.3.6-1.4.7-2.4-1.1-.3.1.4 1 .2.2h.4l.2-.1.3.6-2.2 1-.3-.5.2-.1.2-.2v-.4l-1.3-2.4-.2-.2h-.3l-.2.1-.3-.6zm2-.1.5 1.1.7-.3.5-.4.2-.4v-.3l-.3-.3h-.4l-.5.2-.8.4zm3.5-2.8 2.8-1.2.6-.2h.7l.6.2.4.5q.2.5 0 1-.3.5-.7.8l1.4.7.3.1h.4l.2-.1.3.6-1.5.6-2.3-1.3-.4.2.4.9.2.3H530.9l.2-.1.3.6-2.2 1-.3-.7h.2l.3-.2v-.4l-1.2-2.5-.1-.2H527.5l-.3-.6zm2 0 .5 1.2.7-.3.6-.3.2-.3v-.4l-.3-.3h-.4l-.5.1-.8.4zm5.5-3 1-.4 2.7 3 .3.3h.4l.2.6-2.2.8-.2-.6h.1l.2-.2q.1-.1 0-.2v-.2l-.4-.4-1.4.5v.8h.1l.2.1.3-.1.2.6-1.8.7-.2-.7h.2l.1-.2v-.3l.2-4.1zm.7 2.5 1-.3-1-1.2v1.5zm3.1-4 2.1-.6 1.7 2.7v-3.1l2.2-.7.2.7h-.2l-.3.2v.3l.8 2.7v.2l.2.1h.5l.2.6-2.3.6-.2-.6h.2l.2-.2.1-.1v-.2l-.9-3v4.3l-.6.2-2.3-3.5.9 2.9v.1h.2q0 .1.2 0h.2l.2.6-2 .6-.1-.7h.2l.2-.1v-.4l-.7-2.7-.1-.2H538.7l-.2-.6zm9.9-2.5 2.5-.5h.9l.6.1.4.5q.2.2.2.5.2.6-.2 1.1-.4.6-1.3.7l-.8.2.2.9v.2H551.5l.1.7-2.3.4-.2-.6h.2l.3-.2v-.4l-.5-2.6v-.3l-.1-.1h-.5l-.1-.6zm1.9.4.2 1.4h.5l.5-.2.2-.3q.1-.2 0-.4 0-.4-.3-.5h-1.1zm3.3-1.4 3-.4h.7l.6.2q.3.1.5.4t.2.6q.1.5-.3 1l-.8.5 1.1 1 .3.2.1.1h.5v.6l-1.5.2-1.8-1.9h-.4v1l.1.4H556.5l.1.7-2.4.3v-.7h.4v-.4l-.3-2.8v-.2l-.1-.1h-.5l-.1-.7zm1.9.6.2 1.3.7-.1q.4 0 .6-.2.2 0 .3-.3v-.6l-.4-.2h-.6l-.8.1zm7-1.6q1.1 0 2 .6.7.7.7 1.8 0 .8-.2 1.4-.3.6-.9 1-.5.3-1.4.3-1 .1-1.8-.5-.9-.6-1-1.8 0-1.2.7-2 .7-.7 1.9-.8zm0 .8q-.5 0-.8.5-.4.5-.4 1.4 0 .8.5 1.3.4.4.9.4.6 0 .9-.5.3-.5.3-1.4 0-.6-.2-1l-.5-.5q-.3-.2-.7-.2zm3.7-.8h3.5l.5.4q.3.2.4.5l.1.6q0 .6-.5 1-.5.5-1.3.5h-.9v1.1h.1l.3.1h.2v.7h-2.4v-.7h.5v-.1l.1-.3v-3l-.1-.1h-.5v-.7zm1.8.8v1.4h1l.3-.3.1-.4q0-.4-.2-.6l-.6-.1h-.6zm3.6-.8 3 .2.6.1.7.3.4.5q.2.3 0 .6 0 .6-.4.9-.4.3-1 .4l1 1.2.2.3h.1l.3.1h.2v.7l-1.7-.1-1.4-2.2h-.4v1.3l.3.1h.2v.7l-2.5-.2v-.6h.6v-.2l.1-.2.2-2.8V286.5h-.6v-.8zm1.7 1v1.2H574.5l.4-.2.1-.3v-.4l-.4-.2h-.6l-.8-.2zm4.4-.5 2.4.3-.1.7h-.6v.3l-.4 2.7v.4h.3l.3.1-.1.7-2.4-.3v-.7h.6l.1-.3.3-2.7v-.4l-.3-.1h-.2v-.7zm5.1.7 1.1.2.8 4q0 .3.2.4l.3.1-.1.7-2.3-.4v-.7h.6v-.8l-1.6-.3-.2.5-.1.2v.1l.1.1h.3v.7l-2-.3.2-.7h.4l.1-.2 2.2-3.6zm-.6 2.6 1 .2-.3-1.5-.7 1.3zm4.7-1.9 2.2.6v3l1.6-2.6 2.2.5-.1.7h-.3q-.1-.1-.2 0l-.2.2-.7 2.8V293l.2.1h.3l-.2.7-2.3-.5.2-.7h.5l.2-.2.7-3-2.1 3.7-.7-.2-.2-4-.7 2.8V292.1h.3l.2.1-.2.7-2-.5.3-.7.1.1h.4l.1-.3.7-2.7v-.4h-.2l-.3-.1.2-.7zm9.9 2.8 2.4.9q.5.1.8.4l.4.4.2.6-.1.6q-.2.6-.8.9-.6.2-1.4-.1l-.8-.3-.4.9V295l.2.1.3.1-.2.6-2.3-.8.2-.6h.2l.3.1h.1l.1-.3 1-2.6v-.4h-.2l-.2-.2.2-.6zm1.4 1.4-.5 1.3.4.1q.4.2.6.1h.3l.3-.4v-.6l-.6-.3-.5-.2zm3.6.5 2.8 1.2.6.3.5.5.2.6-.1.6q-.3.5-.8.7h-1l.4 1.5.1.3.1.1.2.1.2.1-.2.6-1.5-.6-.6-2.6-.3-.1-.4.9-.2.3.3.2.2.1-.3.6-2.2-1 .3-.6.2.1q.2.1.2 0h.2l.1-.2 1.1-2.5.1-.3-.2-.2-.3-.1.3-.7zm1.4 1.4-.6 1.2.7.3.6.2.4-.1q.2 0 .3-.3v-.3q0-.2-.2-.3-.1-.2-.5-.3l-.7-.4zm6.8 2.3q1 .6 1.3 1.5.3 1-.2 2-.4.7-1 1-.5.4-1.2.4-.6 0-1.4-.4-1-.5-1.2-1.4-.5-1 .1-2 .5-1 1.5-1.4 1-.2 2 .3zm-.4.7q-.5-.2-1 0-.6.2-1 1-.4.7-.3 1.3.1.6.6.8.5.3 1 0 .6-.2 1-1 .3-.4.3-.9l-.1-.7-.5-.5zm4 1.3.4.2v.2l2.4 1.5.1-.2.4.3-.4 1.8-.7-.2v-.6l-.1-.6-.3-.3-.2.1-1.5 2.4-.1.3v.2l.4.3-.4.5-2-1.2.3-.6h.1l.3.2h.2l.2-.3 1.5-2.4v-.2q-.2-.2-.5-.2l-.5.1-.6.3-.4-.5 1.4-1.1zm4.5 3 3.3 2.4-.4 1.5-.7-.1v-.8q0-.3-.2-.5l-.4-.4-.6-.4-.7 1 .2.1.3.2h.2l.2-.3.1-.1.5.3-1.2 1.7-.5-.4.1-.1.2-.3v-.2l-.4-.3h-.1l-.7.8-.1.2v.1l.2.2.3.2q.4.3.7.3h.7q.4 0 .8-.3l.3.5-1.5 1.2-3.5-2.5.4-.6.4.3h.1l.2-.3 1.6-2.2.1-.3q0-.2-.2-.3h-.1l.4-.6zm5.5 7 1.8 1.5-.4.6-.1-.2h-.3q0-.1 0 0l-.3.1-1 1.2-.5-.4v-.4l-.7-.2-.6-.4q-.5-.4-.8-1-.2-.7 0-1.3 0-.7.5-1.2.5-.6 1-.8.7-.3 1.4-.2.6.1 1.1.6l.5.4.3.6.2-.1.4.3-.7 1.5-.6-.2v-1l-.1-.4-.3-.4-.6-.3-.8.2-.7.6-.5.9v.8q.1.3.4.5l.4.3h.4q.2 0 .3-.2l.1-.2.1-.2v-.1l-.1-.2-.3-.2.5-.5zm5.3 1.6.8.7-1.5 3.8-.1.5.2.2-.5.5-1.7-1.5.5-.5.3.2h.2l.1-.3.2-.4-1.1-1-.5.2-.2.1V312.4l.3.2-.5.5-1.4-1.3.5-.5.2.2h.2l.2-.1 3.8-1.8zm-2 1.8.8.7.6-1.3-1.3.6zm5.2 1 .4.4-.1.2 1.9 2h.2l.3.2-.8 1.7-.7-.3.2-.7v-.5q0-.3-.2-.4h-.2l-2 2-.3.2v.2l.3.4-.5.4-1.7-1.7.5-.5.1.1.3.2h.1l.3-.2 2-2h.2l-.1-.2-.4-.2h-.5l-.7.2-.2-.7 1.6-.7z"/></svg>