<svg xmlns="http://www.w3.org/2000/svg" width="82in" height="44in" fill-rule="evenodd" clip-rule="evenodd" image-rendering="optimizeQuality" shape-rendering="geometricPrecision" text-rendering="geometricPrecision" viewBox="0 0 82 44"><path fill="#c40f38" d="M0 0h82v44H0z"/><path fill="#012778" d="M2 2h78v40H2z"/><path fill="#62c1f2" d="M41 10.7s-7.6 5.5-7.6 11.2c0 5.8 7.6 11.4 7.6 11.4s7.6-5.2 7.6-11.4c0-6.1-7.6-11.2-7.6-11.2z"/><path fill="#2d86cf" d="M34.3 25.4c2 4.4 6.7 8 6.7 8s4.9-3.5 6.8-8"/><path fill="#d3d3d5" d="M47.8 24.2c-1.1.7-7.7.4-7.7.4l-.4.8h7.8l.2-.3z"/><path fill="#fcd80e" d="m36 27.7 1 .2c.5.3.9.3 1.4.3.6 0 1.1.4 1.8.4 1.1 0 1.7.6.7.6-.4 0-1.4-.3-1.8-.2-.7 0-1.1.1-1.6.5a19.5 19.5 0 0 1-1.4-1.8zm2.4 2.8c.3-.2.5-.4.8-.4.6 0 .8-.3 1.4-.3a7 7 0 0 0 2.3-.2c1-.2.6-.9 0-1.1-.6-.2-1.5 0-2.1-.2-.5-.2 0-.5.2-.5h.8a8.4 8.4 0 0 0 1.6 0c1-.1 1-.4 1.4-.4.4 0 .6-.1.9-.3.3-.1.5-.5.9-.5h.2c-2 3.7-5.8 6-5.8 6s-1.2-.8-2.6-2.1z"/><path fill="#6c401f" d="m38.9 23.9.1 2.8h-.2z"/><path fill="#6c401f" d="M36.5 26.6s2.5.2 4-.2c0 0 .2.1 0 .3-.2.2-.7.3-1 .3v.2H39.8s0 .3-1 .3c-.3 0-1.3 0-1.5-.2h.2V27s-.7 0-1-.3l-.2-.2h.1zm1.3.5h1.5v.1h-1.5v-.1z"/><path fill="#faf6f5" d="M37 26.4s.7-1 .5-2.8c1.2.7 2.2 1.8 2.5 2.7-1.1-.2-2 0-3 0z"/><path fill="#c40f38" d="M41 10s-8 5.5-8 12c0 6.4 8 12 8 12s8-5.2 8-12c0-7-8-12-8-12zm0 1.3S34 16.2 34 22c0 5.8 7.1 10.8 7.1 10.8s7.1-4.6 7.1-10.8-7-10.6-7-10.6z"/><path fill="#6c401f" stroke="#0a1a1d" stroke-width=".016" d="M43.1 27.8c.2.4.3.6.8.7.5.1 1.3-.3.8-.8-.4-.4-1-.5-1.3-.9a8.4 8.4 0 0 1-2-2.9c-.4-1.2-.3-4.7-.3-6.5v-.5c0-.1-.5.1-.6.3l.1.3c0 1.7-.2 5 .3 6.6.3.9.9 1.6 1.4 2.3.3.4.7.9.8 1.4z"/><path fill="#24a34e" stroke="#0a1a1d" stroke-width=".016" d="M36.3 16.9v.2l.5-.3v.2s.4-.4.5-.3v.2l.3-.3v.2l.6-.4v.3l.5-.2v.2l.6-.1c-.9.4-1.5.8-2 1.5v.5l.3-.4v.2l.3-.4v.1l.3-.3v.2l.4-.5v.3l.4-.5v.2l.4-.4v.3l.5-.3v.2l-.4.4h.2l-.3.3h.1l-.4.4h.2l-.3.5h.2c0 .1-.3.4-.2.5h.2l.1.5a4.8 4.8 0 0 1 .2-.6c0-.1.2.1.2 0v-.7c.1 0 .2.1.2 0v-.3.1l.1-.3.1.1v-.5l.3.2v-.4h.1v-.2h.6v.2h.2v.3h.2v.2h.1a.4.4 0 0 1 0 .3h.1v.4s.2-.1.2 0v.4s.2-.1.2 0v.3h.2c.2.1.1.4.1.4v-.6h.2l-.3-.4c0-.1.2 0 .2 0 0-.2-.1-.2-.2-.3h.2c0-.2-.2-.2-.3-.3h.2c0-.2-.3-.2-.4-.3l.2-.2-.5-.2.2-.1s-.4-.3-.2-.3l.3.1V17l.4.3.1-.2.3.3v-.2l.3.3v-.1l.2.3.2-.2.1.3.1-.2.1.4.2-.2v.4l.2-.1.2.3.1-.1.2.4s0-.9-.3-1.2c-.5-.6-1.5-.9-2.3-.9l.4-.1c0-.2.2-.1.3-.1v-.2l.4.1v-.2l.4.2v-.2l.3.2v-.2s.3 0 .3.2V16c.2 0 .3.2.3.2v-.1l.5.1c-.2-.2-.6-.5-1.4-.6a4.7 4.7 0 0 0-1.2 0l-.6.2c.3-.3.7-.3.8-.4l-.2-.1h.4l-.2-.3c0-.2.6 0 .7 0l-.2-.3h.5l-.3-.1.5-.2a.7.7 0 0 0-.2 0l.4-.2c-.6-.3-2.2.5-2.5 1.2-.1.2-.1 0-.1-.1v-.5s-.1.1-.1 0v-.4c0-.1-.2.1-.2 0V14c0-.1-.2.1-.2 0v-.4l-.3.1c-.1-.6.1-.7-.3-.3V13c-.2.3-.5-.2-.5-.2l.1.3h-.2c0 .2.4.4.4.4 0 .1-.2 0-.2 0 0 .2.3.3.3.4h-.1c0 .2.3.3.3.4l-.2.1.4.4h-.2c-.1.1.3.3.3.4h-.2c0 .2.3.3.3.4v.1l-1-.9a2 2 0 0 0-1.2-.5l.3.3h-.2c.1.2.4.2.4.2v.2h.3l-.2.2.3.1h-.2l.5.3-.1.1.3.1-.2.1.4.2v.1c-.5-.1-1-.4-2.3-.3-1.2.2-2 1.1-2 1.2l.4-.2z"/><circle cx="40.631" cy="16.881" r=".286" fill="#6c401f" stroke="#0a1a1d" stroke-linecap="round" stroke-linejoin="round" stroke-miterlimit="33" stroke-width=".016" paint-order="markers fill stroke"/><circle cx="40.605" cy="17.35" r=".286" fill="#6c401f" stroke="#0a1a1d" stroke-linecap="round" stroke-linejoin="round" stroke-miterlimit="33" stroke-width=".016" paint-order="markers fill stroke"/><circle cx="40.998" cy="16.774" r=".286" fill="#6c401f" stroke="#0a1a1d" stroke-linecap="round" stroke-linejoin="round" stroke-miterlimit="33" stroke-width=".016" paint-order="markers fill stroke"/><circle cx="41.041" cy="17.172" r=".286" fill="#6c401f" stroke="#0a1a1d" stroke-linecap="round" stroke-linejoin="round" stroke-miterlimit="33" stroke-width=".016" paint-order="markers fill stroke"/><path fill="#c40f38" d="M37.6 22.2v-.4h.7v.7q-.3.2-.8.2h-.3l-.2-.2-.2-.2v-.7l.2-.2.2-.2H38l.1.1v.4H38v-.1H37.6l-.2-.1h-.1l-.2.1v.2l-.1.2v.2l.1.1h.2l.2.1H37.9v-.2zm2.3-1h.4v.9l-.1.3-.2.2-.2.1h-.5l-.2-.1-.1-.2v-1.1h-.1v-.1h.5-.1v1.1h.5q.1 0 0-.2zm1.8 1.5h-.4l.1-.1v-.2l.1-.2.1-.3.1-.2v-.2l.1-.2v-.1h.7V21.5l.1.3.1.3.1.3.1.2.1.1h-.5V22.3h-.7v.2zm.7-.5-.3-.8-.2.8zm2.4.5h.1v-1.1l-.5 1.1-.4-1.2v1.2h-.4v-1.5h.7v.5l.1.1v.1l.1-.2.1-.2v-.2h.1v-.1h.6v1.5h-.5z" paint-order="markers fill stroke"/></svg>