<svg xmlns="http://www.w3.org/2000/svg" width="1200" height="720"><path fill="#012778" d="M0 0h1200v720H0z"/><path fill="#62c1f2" d="M482 417h236V304L600 166 482 304Z"/><path fill="#2d86cf" d="m600 552 118-135H482Z"/><path fill="#b5915f" d="m584 417 6-12c40 1 100 6 130-6v18Z"/><path fill="#fcd80e" d="M538 482c10-4 28-7 40-7 14 0 31 2 31-1s-20-8-43-13c-18-4-35-6-52-7Zm62 70 103-118c-19 7-34 13-55 17s-48 5-48 9c0 5 41 6 41 16 0 8-26 7-47 11s-33 11-37 16Z"/><path fill="#c40f38" d="M0 720h1200V0H0Zm29-33V33h1142v654Zm571-131c56-38 132-117 132-197s-76-158-132-195c-56 37-132 115-132 195s76 159 132 197Zm0-21c-50-34-116-105-116-176 0-72 66-141 116-174 50 33 116 102 116 174 0 71-66 142-116 176Zm-72-162c5 0 8-2 11-4v-12h-13v4h8v5c-1 1-3 2-6 2-6 0-10-4-10-9 0-6 5-10 10-10 4 0 8 2 10 3v-5c-3-2-6-3-10-3-9 0-15 7-15 15 0 7 6 14 15 14Zm31-11c0 15 23 15 23 0v-17h-5v17c0 8-13 8-13 0v-17h-5Zm51 10h6l3-6h12l3 6h5l-12-27h-4Zm10-10 5-11 5 11Zm38 10h5v-18l9 11 9-11v18h5v-27h-4l-10 13-10-13h-4Z"/><path fill="#0f7d3a" d="M589 292c6 6 8-4 14 0-1 2-1 6 4 5 0 1 0 2-1 3h2c0 1 0 3-1 4 1 1 2 1 3 1 2 0-1 5 2 7l2-2c0 2-2 9 2 7-2 10 8 2 8 10 2-2 2-4 1-6 8-5-6-9 2-10 0-2-2-2-3-3-2-2 6-1-3-6 1-1 3-1 4-1-2-3-11-4-6-6 2-4-11-3-4-6l-5-4c3 2 7 2 6-1 2 0 5 6 7 5 0-1 0-3 1-4 2 3 4 9 6 3 2 4 4 6 5 2 1 1 2 5 4 5 0 0 0-1 1-2 1-4 2 6 4 5 1 0 3-4 3 0s4 7 5 3c1 2 2 8 4 5s3 8 4 4c5-21-21-34-42-35 6-7 12 3 12-5 2 2 4 1 6 2v-3c5 2 8 5 6 0 2 0 3 2 4 4 1-2 1-3 1-4 3 1 4 2 5 5 0-8 1-3 6-1l-1-3c3 1 7 1 9 1-3-6-16-12-30-12-10 0-16 4-20 4 3-1 12-2 7-7 5 1 8 1 5-2-4-4 5-2 9-4l-3-2c4 0 8 1 8-1-7-4 0-4 4-4-4-3 0-4 4-4-19-6-36 3-44 18 0-3 2-8-3-8 0-3 6-11-1-8-1-2 2-9-1-11l-2 3c-1-1 0-7-1-8s-3 1-4 1 0-4-2-7-4 3-5 0-2-6-3-3-4-2-8-2c4 6 4 6-1 6 1 4 12 6 1 7 0 2 5 3 7 4-7 1-3 3 0 5 6 4-1 4-2 4 2 3 5 4 10 6-9 1 4 6 1 8-6 4 5 5 2 12-6-18-36-29-50-21 3-1 10 0 8 2s-1 3 4 3c1 2 3 3 6 3-7 6 10 0 3 5 3 1 5 1 10 2-4 6 5 3 4 5-2 4 6 1 6 5-31-12-60-5-71 16l8-5 1 4 7-5v4c6-5 8-7 7-1 4-2 7-7 7-3 6 1 9-10 9-1l7-4 1 2c-10 3-24 19-24 33 1-1 3-5 6-6v3c3-1 3-6 5-7 0 2 1 2 2 2 0-1 1-3 3-5 0 6 5-4 6-4 0 2 0 3 1 3 2 0 8-13 5-3 4-2 7-5 8-7 0 1 2 1 3 0-3 3-4 5-5 8l4 1c-2 0-5 2-5 4 5 0-1 1-2 7 5-1-1 7-2 8 5 0-2 6 0 8 4 0 5 3 5 9 4-3 2-10 4-11 1 1 3 4 3 1v-7c3 1 0-3 2-4l1 1c4-3-2-10 4-8 1 0 1-6 1-8 4 5 3 1 3-3Z"/><path fill="#6c401f" d="M647 466c-18 0-12-13-26-27-33-33-30-72-29-143 0-1 1-2 0-3 5 1 9-7 9 1-2 62-4 107 29 140 16 16 32 17 32 27 0 4-7 5-15 5Zm-50-176c-6 7-13-6-3-5 0 2 1 4 3 5Zm-4-6c-3 0-4-1-4-3 0-4 5-5 5-2s2 5-1 5Zm7 5c-5 0-6-7 0-7 4 0 5 7 0 7Zm-4-7c-1-1-1-4-1-5 4-4 10 0 7 4-2-1-5 0-6 1Zm-53 163v-2h24v2Zm-10 0c0 5 44 5 44 0h-6v-2c6-1 18-4 18-9-7 1-16 1-25 1l-1-44c0-2-2-2-2 0l-1 44h-40c0 5 13 7 19 8v2Z"/><path fill="#faf6f5" d="M529 432c17-2 33-5 51-1-5-16-22-33-42-44 4 28-9 45-9 45Z"/></svg>