<svg xmlns="http://www.w3.org/2000/svg" xmlns:xlink="http://www.w3.org/1999/xlink" width="1000" height="600"><defs><path id="reuse-0" d="M491.6 178.4h.6v2.2h-.6z" class="e"/></defs><style>.e{stroke-width:.15}.f{fill:none}.g{stroke-width:.3}.h{fill:#faf6f5}.i{fill:#ffb81c}.j{stroke-width:.265}.k{stroke:#0a1a1d}.l{fill:#c40f38}.m{stroke-width:.325}.n,.o{fill:#003396}.p{stroke-width:.163}.q{stroke-width:.287}.r{stroke-linecap:round}.s{fill:#0f7d3a}.t{stroke-width:.125}.u{stroke-width:.157}</style><path d="M0 0h1000v600H0z" class="l"/><path d="M0 0h1000v300H0z" class="o"/><path d="M405.2 222.4h189.6v155.2H405.2z" class="h"/><path d="M499.6 332.3v.1c-4 .5-47.9 5.2-59.8 14.1-12.4 9.3-34.6 19.1-34.6 19.1v12h189.6v-12s-22.2-9.8-34.6-19c-12-9-55.7-13.7-59.8-14.2h-.8z" class="s"/><g stroke="#0a1a1d" transform="matrix(.864 0 0 .84 74.462 264.55)"><use xlink:href="#A" class="i m"/><use xlink:href="#B" class="e h"/><g class="f"><use xlink:href="#C" class="j"/><use xlink:href="#A" class="m"/></g><g transform="rotate(5.7 529.3 67.882)"><use xlink:href="#A" class="i m"/><use xlink:href="#D" class="e h"/><g class="f"><use xlink:href="#C" class="j"/><use xlink:href="#A" class="m"/></g></g><use xlink:href="#E" class="e h"/><use xlink:href="#F" class="f j"/><use xlink:href="#G" class="e h"/><use xlink:href="#H" class="f m"/><g transform="rotate(4.2 502.69 103.39)"><g transform="rotate(5.7 529.3 67.882)"><use xlink:href="#A" class="i m"/><use xlink:href="#D" class="e h"/><g class="f"><use xlink:href="#C" class="j"/><use xlink:href="#A" class="m"/></g></g><use xlink:href="#E" class="e h"/><use xlink:href="#F" class="f j"/><use xlink:href="#G" class="e h"/><use xlink:href="#H" class="f m"/></g></g><path d="m474.3 323.8 1.4 13.2 17.3-1.1z" class="l"/><g class="o" transform="matrix(-.864 0 0 .84 925.67 265.06)"><path d="M561.1 52.4s-1.4 25.2-9 37.8l-31.3-4.6.9-15.3L561 43.5z"/><use xlink:href="#I" class="j k"/></g><g class="k" transform="matrix(-.864 0 0 .84 925.67 265.06)"><use xlink:href="#J" class="g l"/><use xlink:href="#K" class="e n"/></g><path d="M497.6 327.7 477 309.4c-4.6 2-4.2 5.5-1 10l-.1 4.5 16.8 11.5 4.6-1.2.2-4.1zm-.6-11.8L484.4 300l-3.2 7 1 6.5 15 13.8z" class="l"/><g transform="matrix(-.864 0 0 .84 925.67 265.06)"><g class="o"><use xlink:href="#L"/><use xlink:href="#M" class="j k"/></g><use xlink:href="#N" class="e k l"/><use xlink:href="#O" class="i"/><g class="k"><g class="f"><use xlink:href="#P" class="g"/><use xlink:href="#Q" class="e"/></g><g class="i"><g class="e"><use xlink:href="#R"/><use xlink:href="#S"/></g><use xlink:href="#T" class="t"/><circle cx="551.15" cy="100.3" r="2.391" class="e"/></g></g><use xlink:href="#U" class="l"/></g><path d="M448.4 305.4c-.6-9.1 1-19.8 1-19.8l.2-1.6 28.2 26.2s-2 2.8-1.7 13.9l-2.1-1.5z" class="o"/><g class="k"><g transform="matrix(-.864 0 0 .84 925.67 265.06)"><path d="M552.6 48c.7-10.9-1.2-23.6-1.2-23.6l-.2-2" class="f j"/><g class="i"><use xlink:href="#V" class="g"/><g transform="rotate(36.2 196.43 -35.139)"><use xlink:href="#W" class="g"/><use xlink:href="#X" class="e"/></g><g transform="rotate(9.1 474.55 126.57)"><use xlink:href="#V" class="g"/><g transform="rotate(36.2 196.43 -35.139)"><use xlink:href="#W" class="g"/><use xlink:href="#X" class="e"/></g></g><g transform="rotate(19 458.58 111.38)"><use xlink:href="#V" class="g"/><g transform="rotate(36.2 196.43 -35.139)"><use xlink:href="#W" class="g"/><use xlink:href="#X" class="e"/></g></g><path d="m534 11.5-37.8 48 .2.8L534.7 12zm16.4 11.7L495.7 74l.5.6 54.7-50.8zm8.8 20.4L501 83.5l.5.6 58.3-40z" class="g"/></g><use xlink:href="#Y" class="j n"/><g class="e"><use xlink:href="#Z" class="l"/><use xlink:href="#AE" class="f"/></g><use xlink:href="#Y" class="f g"/><use xlink:href="#a" class="e n"/><use xlink:href="#b" class="j l"/><g class="f"><use xlink:href="#c" class="g"/><path d="M553.9 36.1s.7-3-.9-5.8c-1.6-2.7-2-7-1.2-6.7" class="e"/></g><use xlink:href="#d" class="i u"/><g class="g"><use xlink:href="#AF" class="i"/><use xlink:href="#e" class="h"/></g></g><g transform="matrix(.898 .118 -.12 .874 251.92 243.36)"><use xlink:href="#f" class="e i"/><use xlink:href="#g" fill="#fcd80e" stroke-width=".13" class="r"/><use xlink:href="#AG" class="f j"/><g class="e i"><use xlink:href="#h"/><use xlink:href="#h" x="32.942"/><use xlink:href="#i"/></g></g></g><use xlink:href="#j" transform="matrix(.898 .118 -.12 .874 251.92 243.36)"/><use xlink:href="#k" class="e i k" transform="matrix(.898 .118 -.12 .874 251.92 243.36)"/><g transform="matrix(.864 0 0 .84 74.978 265.68)"><g class="e i k"><use xlink:href="#l"/><circle cx="445.45" cy="86.476" r="2.282"/><use xlink:href="#m"/></g><circle cx="445.45" cy="73.138" r=".482"/><circle cx="445.45" cy="99.458" r=".482"/><g transform="rotate(45 445.45 86.298)"><circle cx="445.45" cy="73.138" r=".482"/><circle cx="445.45" cy="99.458" r=".482"/></g><g transform="scale(-1 1) rotate(45 0 -989.12)"><circle cx="445.45" cy="73.138" r=".482"/><circle cx="445.45" cy="99.458" r=".482"/></g><g transform="rotate(90 359.15 0)"><circle cx="445.45" cy="73.138" r=".482"/><circle cx="445.45" cy="99.458" r=".482"/></g><g transform="scale(1 -1) rotate(-67.935 317.35 0)"><circle cx="445.45" cy="73.138" r=".482"/><circle cx="445.45" cy="99.458" r=".482"/></g><g transform="rotate(113.4 445.45 86.298)"><circle cx="445.45" cy="73.138" r=".482"/><circle cx="445.45" cy="99.458" r=".482"/></g><g transform="rotate(23 445.45 86.298)"><circle cx="445.45" cy="73.138" r=".482"/><circle cx="445.45" cy="99.458" r=".482"/></g><g transform="scale(-1 1) rotate(23.078 0 -2095.6)"><circle cx="445.45" cy="73.138" r=".482"/><circle cx="445.45" cy="99.458" r=".482"/></g></g><ellipse cx="-444.64" cy="349.39" class="e i k" rx="2.065" ry="2.01" transform="scale(-1 1)"/><g transform="matrix(.864 0 0 .84 75.483 265.06)"><use xlink:href="#n" class="e h k"/><use xlink:href="#o"/><g class="e h k"><use xlink:href="#AH"/><use xlink:href="#AI"/></g></g><g transform="matrix(-.864 0 0 .84 925.67 265.06)"><g class="k"><g class="e" transform="matrix(-1 0 0 1 984.54 0)"><ellipse cx="472.44" cy="104.75" class="h" rx="3.569" ry="1.681"/><g class="i"><use xlink:href="#p"/><use xlink:href="#q" class="f"/></g><use xlink:href="#AJ" class="f"/></g><g class="h"><use xlink:href="#r" class="j"/><use xlink:href="#reuse-0" class="e" transform="matrix(.987 -.158 .219 .976 0 0)"/><g class="g"><use xlink:href="#AK"/><use xlink:href="#AL"/></g></g></g><use xlink:href="#s"/><g class="k"><use xlink:href="#t" class="g h"/><g class="e i"><circle cx="523.95" cy="109.88" r="2.391"/><circle cx="529.65" cy="105.09" r="2.391"/><circle cx="538.43" cy="105.66" r="2.391"/><circle cx="545.1" cy="109.31" r="2.391"/><circle cx="550.92" cy="109.31" r="2.391"/><circle cx="556.74" cy="109.31" r="2.391"/><circle cx="562.55" cy="109.31" r="2.391"/><circle cx="548.07" cy="104.87" r="2.391"/><circle cx="553.88" cy="104.87" r="2.391"/><circle cx="559.7" cy="104.87" r="2.391"/></g><use xlink:href="#u" class="g l"/><g class="e"><use xlink:href="#v" class="n"/><use xlink:href="#AM" class="f"/><g class="h"><use xlink:href="#w"/><use xlink:href="#x"/></g></g></g><use xlink:href="#y" class="i"/><use xlink:href="#z"/><use xlink:href="#AA"/><g class="k"><use xlink:href="#AB" class="g n"/><g class="e"><use xlink:href="#AC" class="l"/><use xlink:href="#AN" class="f"/></g><g class="f"><use xlink:href="#AB" class="g"/><path d="M561.6 43.8s.5 2 .6 6-.8 7-1.1 6.9" class="e"/><use xlink:href="#AD" class="j"/><path d="M537.9 25s1.4 5.7 1.6 8.3" class="g"/><path d="M527.2 13.2s1.4-2 5.5-.3" class="e"/></g></g></g><g class="k"><path d="m499.1-5.2.9-27 3.8-2.1L505-5.2z" class="q s" transform="matrix(.796 0 0 .775 100.07 273.8)"/><path d="M500.7-57s-.4 0-1-.6-1-.6-.5-1.5 1.1-2 3.3-1.9 3.7.3 4.4 2.5 1 8.2.4 10.7c-3.2-.2-8-2.8-8.8-4.5s2.2-4.7 2.2-4.7z" class="m n" transform="matrix(.796 0 0 .775 100.07 273.8)"/><g transform="matrix(-.863 0 0 .84 924.885 264.554)"><use xlink:href="#A" class="i m"/><use xlink:href="#B" class="e h"/><g class="f"><use xlink:href="#C" class="j"/><use xlink:href="#A" class="m"/></g><g transform="rotate(5.7 529.3 67.882)"><use xlink:href="#A" class="i m"/><use xlink:href="#D" class="e h"/><g class="f"><use xlink:href="#C" class="j"/><use xlink:href="#A" class="m"/></g></g><use xlink:href="#E" class="e h"/><use xlink:href="#F" class="f j"/><use xlink:href="#G" class="e h"/><use xlink:href="#H" class="f m"/><g transform="rotate(4.2 502.69 103.39)"><g transform="rotate(5.7 529.3 67.882)"><use xlink:href="#A" class="i m"/><use xlink:href="#D" class="e h"/><g class="f"><use xlink:href="#C" class="j"/><use xlink:href="#A" class="m"/></g></g><use xlink:href="#E" class="e h"/><use xlink:href="#F" class="f j"/><use xlink:href="#G" class="e h"/><use xlink:href="#H" class="f m"/></g></g><g class="f q"><path d="M505-56s-2.5.4-2.4 1.7" class="r" transform="matrix(.796 0 0 .775 100.07 273.8)"/><path d="M503.8-58.9s-3 .8-4 3.4" transform="matrix(.796 0 0 .775 100.07 273.8)"/><path d="M502.5-58.5s-1.8 1.5-2.5 1" transform="matrix(.796 0 0 .775 100.07 273.8)"/></g><g class="q"><path d="M499.5-54.9h-.1l-.4.1c-.5.9-.8 1.8-.5 2.5l.2.4.3-.1s5.7-.5 8.2 3.8l.1.3c.2-1 .3-2.6.3-4.2a14 14 0 0 0-8-2.8z" class="l" transform="matrix(.796 0 0 .775 100.07 273.8)"/><path d="M506.2-54.7s-1.4.6-1.4 1.2" class="f r" transform="matrix(.796 0 0 .775 100.07 273.8)"/></g></g><path d="m524.7 324.1-.4 12.9-17.2-1.1z" class="l"/><path d="M559 309.1s-1.3 21.2-8 31.8l-26.9-3.9.8-12.9 34-22.5z" class="o"/><g class="k" transform="matrix(.864 0 0 .84 74.329 265.06)"><use xlink:href="#I" class="j n"/><use xlink:href="#J" class="g l"/><use xlink:href="#K" class="e n"/></g><path d="m502.4 327.7 20.6-18.3 3 6.8-1.9 7.7-16.8 11.5-4.7-1.2-.1-4.1zm.6-11.8 12.6-15.9 3.2 7-1 6.5-15 13.8z" class="l"/><g transform="matrix(.864 0 0 .84 74.329 265.06)"><use xlink:href="#L" class="o"/><g class="k"><use xlink:href="#M" class="j n"/><use xlink:href="#N" class="e l"/></g><use xlink:href="#O" class="i"/><g class="k"><g class="f"><use xlink:href="#P" class="g"/><use xlink:href="#Q" class="e"/></g><g class="i"><g class="e"><use xlink:href="#R"/><use xlink:href="#S"/></g><use xlink:href="#T" class="t"/><circle cx="551.15" cy="100.3" r="2.391" class="e"/></g></g><use xlink:href="#U" class="l"/></g><path d="M551.6 305.4c.6-9.1-1-19.8-1-19.8l-.2-1.6-28.2 26.2s2-2.1 1.4 8.7l2.4 3.7z" class="o"/><g class="k"><path d="M551.6 305.4c.6-9.1-1-19.8-1-19.8l-.2-1.6" class="f j"/><g transform="matrix(.864 0 0 .84 74.329 265.06)"><g class="i"><use xlink:href="#V" class="g"/><g transform="rotate(36.2 196.43 -35.139)"><use xlink:href="#W" class="g"/><use xlink:href="#X" class="e"/></g><g transform="rotate(9.1 474.55 126.57)"><use xlink:href="#V" class="g"/><g transform="rotate(36.2 196.43 -35.139)"><use xlink:href="#W" class="g"/><use xlink:href="#X" class="e"/></g></g><g transform="rotate(19 458.58 111.38)"><use xlink:href="#V" class="g"/><g transform="rotate(36.2 196.43 -35.139)"><use xlink:href="#W" class="g"/><use xlink:href="#X" class="e"/></g></g><path d="m534 11.5-37.8 48 .2.9 38.3-48.5zm16.4 11.7L495.7 74l.5.6 54.7-50.8zm8.8 20.4L501 83.5l.5.6 58.3-40z" class="g"/></g><use xlink:href="#Y" class="j n"/><g class="e"><use xlink:href="#Z" class="l"/><use xlink:href="#AE" class="f"/></g><use xlink:href="#Y" class="f g"/><use xlink:href="#a" class="e n"/><use xlink:href="#b" class="j l"/><use xlink:href="#c" class="f g"/></g><path d="M552.7 295.4s.6-2.6-.8-4.8c-1.3-2.4-1.7-6-1-5.7" class="e f"/><g transform="matrix(.864 0 0 .84 74.329 265.06)"><use xlink:href="#d" class="i u"/><g class="g"><use xlink:href="#AF" class="i"/><use xlink:href="#e" class="h"/></g></g><g transform="matrix(-.898 .118 .12 .874 748.08 243.36)"><use xlink:href="#f" class="e i"/><use xlink:href="#g" fill="#fcd80e" stroke-width=".13" class="r"/><use xlink:href="#AG" class="f j"/><g class="e i"><use xlink:href="#h"/><use xlink:href="#h" x="32.942"/><use xlink:href="#i"/></g></g></g><use xlink:href="#j" transform="matrix(-.898 .118 .12 .874 748.08 243.36)"/><g class="i k e"><use xlink:href="#k" transform="matrix(-.898 .118 .12 .874 748.08 243.36)"/><g transform="matrix(-.864 0 0 .84 925.02 265.68)"><use xlink:href="#l"/><circle cx="445.45" cy="86.476" r="2.282"/><use xlink:href="#m"/></g></g><g transform="scale(-1 1)"><ellipse cx="-540.3" cy="327.17" rx=".416" ry=".405"/><ellipse cx="-540.3" cy="349.3" rx=".416" ry=".405"/></g><g transform="matrix(-.61 .594 .61 .594 759.64 22.119)"><circle cx="445.45" cy="73.138" r=".482"/><circle cx="445.45" cy="99.458" r=".482"/></g><g transform="matrix(.61 .594 -.61 .594 320.97 22.119)"><circle cx="445.45" cy="73.138" r=".482"/><circle cx="445.45" cy="99.458" r=".482"/></g><g transform="matrix(0 .84 -.864 0 614.84 -36.268)"><circle cx="445.45" cy="73.138" r=".482"/><circle cx="445.45" cy="99.458" r=".482"/></g><g transform="matrix(-.324 .78 -.8 -.316 753.9 18.418)"><circle cx="445.45" cy="73.138" r=".482"/><circle cx="445.45" cy="99.458" r=".482"/></g><g transform="matrix(.343 .772 .793 -.334 319.16 23.314)"><circle cx="445.45" cy="73.138" r=".482"/><circle cx="445.45" cy="99.458" r=".482"/></g><g transform="matrix(-.795 .33 .339 .773 865.02 124.69)"><circle cx="445.45" cy="73.138" r=".482"/><circle cx="445.45" cy="99.458" r=".482"/></g><g transform="matrix(.795 .33 -.339 .773 215.59 124.69)"><circle cx="445.45" cy="73.138" r=".482"/><circle cx="445.45" cy="99.458" r=".482"/></g><g class="e k"><ellipse cx="555.36" cy="349.39" class="i" rx="2.065" ry="2.01"/><use xlink:href="#n" class="h" transform="matrix(-.864 0 0 .84 924.52 265.06)"/></g><use xlink:href="#o" transform="matrix(-.864 0 0 .84 924.52 265.06)"/><g class="k"><g class="e h" transform="matrix(-.864 0 0 .84 924.52 265.06)"><use xlink:href="#AH"/><use xlink:href="#AI"/></g><g class="e" transform="matrix(-.864 0 0 .84 924.64 265.06)"><ellipse cx="472.44" cy="104.75" class="h" rx="3.569" ry="1.681"/><g class="i"><use xlink:href="#p"/><use xlink:href="#q" class="f"/></g><use xlink:href="#AJ" class="f"/></g><g class="h" transform="matrix(.864 0 0 .84 74.329 265.06)"><use xlink:href="#r" class="j"/><use xlink:href="#reuse-0" class="e" transform="matrix(.987 -.158 .219 .976 0 0)"/><g class="g"><use xlink:href="#AK"/><use xlink:href="#AL"/></g></g></g><use xlink:href="#s" transform="matrix(.864 0 0 .84 74.329 265.06)"/><g class="k"><use xlink:href="#t" class="g h" transform="matrix(.864 0 0 .84 74.329 265.06)"/><g class="e i" transform="matrix(.864 0 0 .84 74.329 265.06)"><circle cx="523.95" cy="109.88" r="2.391"/><circle cx="529.65" cy="105.09" r="2.391"/><circle cx="538.43" cy="105.66" r="2.391"/><circle cx="545.1" cy="109.31" r="2.391"/><circle cx="550.92" cy="109.31" r="2.391"/><circle cx="556.74" cy="109.31" r="2.391"/><circle cx="562.55" cy="109.31" r="2.391"/><circle cx="548.07" cy="104.87" r="2.391"/><circle cx="553.88" cy="104.87" r="2.391"/><circle cx="559.7" cy="104.87" r="2.391"/></g><use xlink:href="#u" class="g l" transform="matrix(.864 0 0 .84 74.329 265.06)"/><g class="e" transform="matrix(.864 0 0 .84 74.329 265.06)"><use xlink:href="#v" class="n"/><use xlink:href="#AM" class="f"/><g class="h"><use xlink:href="#w"/><use xlink:href="#x"/></g></g></g><use xlink:href="#y" class="i" transform="matrix(.864 0 0 .84 74.329 265.06)"/><use xlink:href="#z" transform="matrix(.864 0 0 .84 74.329 265.06)"/><use xlink:href="#AA" transform="matrix(.864 0 0 .84 74.329 265.06)"/><g class="k"><use xlink:href="#AB" class="g n" transform="matrix(.864 0 0 .84 74.329 265.06)"/><g class="e" transform="matrix(.864 0 0 .84 74.329 265.06)"><use xlink:href="#AC" class="l"/><use xlink:href="#AN" class="f"/></g><g class="f"><use xlink:href="#AB" class="g" transform="matrix(.864 0 0 .84 74.329 265.06)"/><path d="M559.4 301.9s.4 1.6.5 5-.7 5.9-1 5.8" class="e"/><use xlink:href="#AD" class="j" transform="matrix(.864 0 0 .84 74.329 265.06)"/><path d="M538.9 286s1.2 4.9 1.3 7" class="g"/></g><g stroke-width=".124"><path d="M522.3 69.2s1.6-1.7 1.7-2.5 0-1.9-1-2-5.6-.7-7 .4-1.6 1.7-1.3 2.3 1.4 1.5 2.3 1.4 2 .4 2.3.2 2-2.2 2.4-.4v.5z" class="l" transform="matrix(.864 0 0 .84 74.329 265.06)"/><path fill="#ffb81c" d="M517.8 75.6s1-4.5 2.5-6.5c0 0 2-.5 2.8 0s-.1-.6.7.4.9 5 .9 5l1 1c-2.7 1.3-7.9.1-7.9.1z" transform="matrix(.864 0 0 .84 74.329 265.06)"/><path d="M525.5 75.4c-2.5 1.4-7.7.3-7.7.3s-.8 2 0 1.7.4.7 1.3 0 .8-1 .8-1 4.9 0 5.8-.3z" transform="matrix(.864 0 0 .84 74.329 265.06)"/><path d="M520.9 69.8a5.4 5.4 0 0 0 .7 0m-.7.5.7.1m-.8.5a5 5 0 0 0 .8.1m-.8.5h.8m-.8.5a4.8 4.8 0 0 0 .8.1m-.8.5h.7m-.8.6h.8m-.8.5a4.6 4.6 0 0 0 .8 0m-.8.6h.8m-.8.6h.7m-.7.5h.7m1-5.4c.4 0 .7-.2.8-.4m-.8 1 1-.5m-1 1c.4 0 .8-.2 1.1-.5m-1.2 1c.5 0 1-.2 1.3-.5m-1.3 1a3.6 3.6 0 0 0 1.5-.5m-1.6 1.1a4.3 4.3 0 0 0 1.7-.6m-1.7 1.2a5.2 5.2 0 0 0 1.8-.7m-1.9 1.2a6 6 0 0 0 2-.7m-2 1.3a7 7 0 0 0 2.2-.8m-2.2 1.3a7.9 7.9 0 0 0 2.3-.8m-2.4 1.4a8.9 8.9 0 0 0 2.6-1" class="f" transform="matrix(.864 0 0 .84 74.329 265.06)"/><path fill="#e30631" d="m520.6 67.4-1.7 1.6m.6-1.7-1.1 1.6m0-1.6-.5 1.6m-.6-1.6v1.5m-1-1.6.5 1.5m-1.7-1.5 1.2 1.5m-.5-1.4.7 1.4" transform="matrix(.864 0 0 .84 74.329 265.06)"/></g><path d="M529.6 276.1s1.2-1.6 4.8-.2" class="e f"/><path stroke-width=".258" d="M502.3 269.7s1.5 46.2.3 63.6m-.3-63.6c-1.7-.3-4.7 0-4.7 0s-1.4 46.2-.2 63.6c0 0 3.2-.4 5.2 0" class="i"/></g><path d="M499.8 271.8h-2.2v.3h4.8v-.3h-2.6zm0 1.6h-2.3v.3h5v-.2h-2.7zm0 1.6h-2.3v.3h5v-.2zm0 1.7h-2.4v.2h5.1v-.2zm-1 1.6h-1.4v.2h5.2v-.2zm0 1.6h-1.4v.3h5.2v-.2zm0 1.6h-1.5v.3h5.3v-.2h-3.8zm0 1.6h-1.5v.3h5.4v-.2zm0 1.7h-1.5v.2h5.4v-.2h-4zm-.1 1.6h-1.5v.2h5.5v-.2zm0 1.6a177.4 177.4 0 0 0-1.5 0v.2h5.6v-.1l-4.1-.1zm0 1.6h-1.5v.2h5.6v-.1zm-1.6 1.6v.3h5.7v-.2h-5.7zm0 1.6v.3h5.8v-.2zm0 1.7v.2h5.8v-.2H497zm0 1.6v.2h5.8v-.2zm0 1.6v.2h5.8v-.1zm-.1 1.6v.2h6v-.1zm0 1.6v.2l6 .1v-.2h-6zm0 1.6v.3h6v-.2a164.6 160.3 0 0 1-6 0zm0 1.6v.3h6v-.2a140.8 140.8 0 0 1-6 0zm0 1.7v.2h6v-.2h-6zm0 1.6v.2h6v-.2a103.3 103.3 0 0 1-6 0zm0 1.6v.2h6v-.1a90.1 90.1 0 0 1-6-.1zm0 1.6v.2l6 .1v-.2a81.6 81.6 0 0 1-6-.1zm0 1.6v.2l6 .1v-.2a71.7 69.8 0 0 1-6 0zm0 1.6v.3h6v-.2a67 67 0 0 1-6 0zm0 1.6v.3a61.7 61.7 0 0 0 6 0v-.2h-6zm0 1.7v.2a57.3 57.3 0 0 0 6 0v-.2a57 57 0 0 1-6 0zm0 1.6v.2a53.2 53.2 0 0 0 6 0v-.2a53 53 0 0 1-6 0zm0 1.6v.2a48.4 47 0 0 0 6 0v-.1l-6-.1zm0 1.6v.2c1.4.1 3.5.2 6 .1v-.2a46.3 46.3 0 0 1-6 0zm0 1.6v.3h6v-.2a43.5 43.5 0 0 1-6 0zm0 1.7v.2a41.4 41.4 0 0 0 6 0v-.2a41 41 0 0 1-6 0zm0 1.6v.2c1.5.1 3.5.2 5.9 0v-.2c-2.4.2-4.4 0-5.8 0zm.1 1.6v.2a37.1 37.1 0 0 0 5.7 0v-.2a36.8 36.8 0 0 1-5.7 0zm.1 1.6v.2c1.4.2 3.3.2 5.5 0v-.2c-2.2.2-4.1.1-5.5 0zm0 1.6v.3a33 32.2 0 0 0 5.5 0v-.2h-5.4z"/><g stroke="#0a1a1d"><path d="M492.3 336.6h15.3v13.9h-15.3z" class="i p"/><g class="p r"><path fill="#e30631" d="M502 98.2c1.3 0 2.5 0 3.6-.2m-3.6-.7 3.6-.2m-3.6-.8c1.3 0 2.5 0 3.6-.2m-3.6-.8 3.6-.1m-3.6-.8c1.3 0 2.5 0 3.6-.2m-3.6-.8c1.3 0 2.5 0 3.6-.2m-3.6-.7 3.6-.2m-3.6-.8c1.3 0 2.5 0 3.6-.2m-3.6-.8 3.6-.1m-3.6-.8c1.3 0 2.5 0 3.6-.2m-3.6-.8c1.3 0 2.5 0 3.6-.2m-3.6-.7 3.6-.2m-3.6-.8c1.3 0 2.5 0 3.6-.2m-3.6-.8 3.6-.1m-3.6-.8c1.3 0 2.5 0 3.6-.2" transform="matrix(.796 0 0 .775 100.07 273.8)"/><path d="M511.6 96.5c-.8.5-1.8.8-3 1.1m3-2c-.8.4-1.8.8-3 1m3-2c-.8.4-1.8.8-3 1m3-2c-.8.5-1.8.8-3 1.1m3-2c-.8.4-1.8.7-3 1m3-2c-.8.4-1.8.8-3 1m3-2c-.8.4-1.8.8-3 1m3-2c-.8.5-1.8.8-3 1.1m3-2c-.8.4-1.8.8-3 1m3-2c-.8.4-1.8.8-3 1m3-2c-.8.5-1.8.8-3 1.1m3-2c-.8.4-1.8.8-3 1m3-2c-.8.4-1.8.8-3 1m3-2c-.8.5-1.8.8-3 1.1m3-2c-.8.4-1.8.7-3 1" class="h" transform="matrix(.796 0 0 .775 100.07 273.8)"/><path d="M497.6 84.5c-1.8-.2-3.4-.6-4.5-1.1m4.5 2c-1.8-.2-3.4-.6-4.5-1m4.5 2c-1.8-.2-3.4-.6-4.5-1m4.5 2c-1.8-.2-3.4-.6-4.5-1.1m4.5 2c-1.8-.2-3.4-.6-4.5-1m4.5 2c-1.8-.2-3.4-.6-4.5-1m4.5 2c-1.8-.2-3.4-.6-4.5-1.1m4.5 2c-1.8-.2-3.4-.6-4.5-1m4.5 2c-1.8-.2-3.4-.6-4.5-1.1m4.5 2.1c-1.8-.2-3.4-.6-4.5-1.1m4.5 2c-1.8-.2-3.4-.6-4.5-1m4.5 2c-1.8-.2-3.4-.6-4.5-1.1m4.5 2c-1.8-.2-3.4-.5-4.5-1m4.5 2c-1.8-.2-3.4-.6-4.5-1m4.5 2c-1.8-.2-3.4-.6-4.5-1.1" class="f" opacity=".98" transform="matrix(.796 0 0 .775 100.07 273.8)"/></g><path d="M499.9 332.5c-2 0-4 .2-5.6.6-1.4.3-2.2.8-2.2 1.4a.6.6 0 0 0 0 .3v1.9a.6.6 0 0 0 0 .3v.7h.5c1.1.8 4 1.3 7.3 1.3a16 16 0 0 0 7.3-1.3h.5v-.5a.6.6 0 0 0 0-.2.6.6 0 0 0 0-.2v-2.2a.6.6 0 0 0 0-.1c0-.6-.8-1-2.3-1.4-1.4-.4-3.4-.6-5.5-.6zm0 1.3h2l.4.1h.7l.4.1h.3l.4.1h.3l.3.1h.2c1 .3 1.9.6 2.4 1-1.2.7-4.1 1.2-7.4 1.2-3.3 0-6.3-.5-7.4-1.3 1-.6 3.2-1.1 5.9-1.2h1.5z" class="l p"/><g class="h p"><path d="M502 77.4c-4.1 0-7.8.7-9.2 1.7 1.4 1 5 1.7 9.2 1.7s7.8-.7 9.2-1.7c-1.4-1-5-1.7-9.2-1.7z" transform="matrix(.796 0 0 .775 100.07 273.8)"/><path d="M501.8 75.7h-.8v1.7h.8zm5.4.4v1.7l.8.1v-1.7l-.8-.1zm-11 0-.7.2v1.8l.8-.2zm12 4.1-.9.2v3.3l1-.2zm-9 .5V84h.9v-3.2z" transform="matrix(.796 0 0 .775 100.07 273.8)"/></g><g class="l p"><path d="m511.8 97.2-1.5.6c-1.8.7-5 1.2-8.3 1.2a24.3 24.3 0 0 1-9.7-1.8v2.1a.8.8 0 0 0-.1.5.8.8 0 0 0 .1.4v.5h.5c1.5 1 5.1 1.6 9.2 1.6 4 0 7.7-.6 9.2-1.6h.6v-.7a.7.7 0 0 0 0-.2.7.7 0 0 0 0-.3z" transform="matrix(.796 0 0 .775 100.07 273.8)"/><path d="M492.5 82.7v2.9l3.5 12.9.9.1z" transform="matrix(.796 0 0 .775 100.07 273.8)"/><path d="M499.2 84 496 98.5l.7.1 3.2-14.5h-.8zm8.7-.4-.8.1-3.8 15.3h.8z" transform="matrix(.796 0 0 .775 100.07 273.8)"/><path d="m499.2 84 3.9 15h.7L500 84h-.8zm9-.4-.8.1 3.8 13.5.5-.2v-1z" transform="matrix(.796 0 0 .775 100.07 273.8)"/></g><path d="M507.7 349.1a4.5 4.3 0 0 1-.7.4v2.5l.2-.1h.5zm-12.6 1v2.6l.6.1v-2.6zm6.3.4h-.7v2.6h.7z" class="h p"/><path d="M500.9 269h1.3m-1.4-.8h1.4m-1.4-.8h1.3m-1.4-.7h1.4m-1.4-.8h1.4m-1.4-.7h1.3m-1.4-.8h1.4m-1.4-.7h1.4m-1.4-.8h1.3m-1.4-.7h1.4m-1.4-.8h1.4m-1.4-.7h1.3m-1.4-.8h1.4m-1.4-.7h1.4m-1.4-.8h1.3m-1.4-.7h1.4m-1.4-.8h1.4m-1.4-.7h1.3m-1.4-.8h1.4m-1.4-.7h1.4m-1.4-.8h1.3m-1.4-.7h1.4m-1.4-.8h1.4m-1.4-.7h1.3" class="f g"/><g class="s"><path d="M499-36.6c-16-2-21-.5-21.8-.2-.7.2-11 3-15 9.9-4.1 6.8-1 9.4-1 9.4-.7-1.6 2-7.4 2-7.4-1.3 2.4.3 6.5.3 6.5-.5-1.2.7-4.8.7-4.8l.9 2.8c0-1.6.8-5.6.8-5.6.1 5.2 1.1 6.1 1.1 6.1-1-1.3.7-9.2.7-9.2-1 4.7.5 5.7.5 5.7 0-5.5 2.7-8.4 2.7-8.4-2.9 3.2-.8 8-.8 8 .2-5.5 4.4-9.8 4.4-9.8-3.9 4.1-1.6 6.9-1.6 6.9.1-3.5 6-8.6 6-8.6-2.5 2.5-2.4 5.5-2.4 5.5 1-1.9 4.9-5.7 4.9-5.7-1 1.3-1.8 4.7-1.8 4.7l1.2-.7 3.3-4-2 3 2-.8 2.4-2.2-1 1.4 1.6-.4 1.7-2-1 1.4h2.3l1-1-.4 1.1h1.7l.6-1-.1 1h.8l.8-1.4-.3 1.5s2 0 2.3.5c.4.4-11.8 3.7-11.8 3.7s2.7 0 2.9.8c.1.7-6.1 1.7-6.1 1.7l3 1.3-6 .8 4.4.6-7.7 1.8h7l-7.4 1.5 4.7.6-6.1 1 5.9.5-6.4 2.7 3.4-.6c-6.7 6.5-4.3 11.1-4.3 11.1a35 35 0 0 1 3.5-6.7c-.8 6 1 8 1 8 0-1.6 2.2-10 2.2-10 .4 1.9.6 7.4.6 7.4 1.5-1.3.9-7.7.9-7.7l2.5 2.4c-1.2-2-1-6.8-1-6.8.8.9 1.7 4 1.7 4l.8-6c0 1.9 1.5 5.6 1.5 5.6l.6-6.4c0 1.5 1.8 4.7 1.8 4.7v-7l1.2 3.1.2-4.9.5 5.7 1-1.2h-.8l.4-.2 1-5.7 1.6 2.6.5-1.6-.3-2.7c.5.2 1.3 1.8 1.3 1.8v-3.4l1.5.7 2.2-3.2L497-32l2.2-1.3-2.5 2 1.5.6-3.5.4v1l3.2.2c-4.4.7-4.5 2-4.5 2l4.2-.2c-3.3 0-5.7 2.3-5.7 2.3l5-.2c-4.6.4-6.6 2.3-6.6 2.3l6 .3c-3-.2-6.3 3-6.3 3h4c-3.7.4-4.5 2.5-4.5 2.5h3.1c-3.2 1.9-3.4 5-3.4 5l3.6-2.8c-3.8 3.3-2.5 6-2.5 6l2.3-2.6c-3.2 3.1-2.5 5.3-2.5 5.3l2.4-2.6c-1.2 7.9.5 8 .5 8l.5-7.9c2 1 3.4 5.7 3.4 5.7l-1.8-7.3c2 1.4 2.5 4.2 2.5 4.2.7-3.3-2.3-7.6-2.3-7.6l3.8 4.8-2.9-7.3 3.3 5c.1-4.7-2.5-7.7-2.5-7.7l4 3.5c-.2-1.5-2.3-5.3-2.3-5.3.8.6 2.4 2.5 2.4 2.5-.6-2.3-2.9-5-2.9-5 1.1.4 3 2.7 3 2.7 0-1.3-1.3-6.1-1.3-6.1l1.4 3-.6-4.9 1.2 1.9-.3-3.3.9.1.5-4-.2 4.1-1-.3.3 3.2 2.9-3.1-1.7 5.6 2.9-2.7-2.3 4.9 3.3-3.9-2.5 6.4 2.7-2.3-2.5 4.6c1.4 0 4.1-3 4.1-3-1.4.8-3.4 5.8-3.4 5.8 1.8 0 3-3.1 3-3.1l-2.9 5.3c1.8-.6 3.7-4 3.7-4 .4 2-3 8-3 8 1 0 2.8-1.6 2.8-1.6s.3-1.2-1 1-3.9 5-3.9 5c2.4 0 4.7-3.2 4.7-3.2.4 1.5-2.8 7.3-2.8 7.3 2.3-.2 4.2-6.7 4.2-6.7.7.9 1.2 8.3 1.4 7.4.2-.9 0-10.1 0-10.1.5.6 2.4 4.8 2.4 4.8.2-2-2-10-2-10l2.6 4.8-3.2-9.2 3.9 4.7-4.8-9.3 2.4 3.7c-.8-6.3-5-6.3-5-6.3 5-.7 5.4 5.4 5.4 5.4 1.1-.2 1-3.4 1-3.4l.3 1.5.8 5.2.5-4.5v5.6c0 .6 1.7-3.3 1.7-3.3.4.7.4 5.4.4 5.4l1.4-3.7c.8 2.2.3 5.9.3 5.9 1.3 0 1.7-3.3 1.7-3.3l1.7 4.8-.2-3.6c0-3.5-4.9-10.5-6.1-11.2-1.3-.7-6-2.2-6-2.2l-4.6-4.3 4.5 4.3c.6-.7-.5-4.1-.5-4.1l3.5 4.6c.9-1.6-.8-4.4-.8-4.4 1.1 1.3 4.3 5.8 4.3 5.8.4-1.6-.8-5.4-.8-5.4 1 1 4.4 6.6 4.4 6.6l-2.1-6.1c2.3 2 4.7 8.6 4.7 8.6.6-2.2-1-8-1-8l4 9.5c.4-2-.3-5.8-.3-5.8 1.2 1.1 3.3 6 3.3 6-.3-2.8-1.1-6.4-1.1-6.4l3.6 6.6-.7-4.4 2.2 4.8-1.1-4.2 3 4.2-2.5-4.5 3.6 3.6s-5.2-6.5-6.3-7.4c-1.1-1-10.9-4.6-13-5.7-2.3-1-11.9-.5-11.9-.5l3-.2-.6-1.2.5 1.1h2l-1.2-1 .9 1.1h3.3L511-36c1 .6 2.2 1.8 2.2 1.8l1.6.1-1-2.3 1.6 2.6 2.7.6c-.4-1.3-2-3.2-2-3.2 1 1.1 2.4 3.3 2.4 3.3l2.3.8c0-1.2-1.9-4-1.9-4 1.7 1.4 3 4.3 3 4.3.2-1-.8-4.4-.8-4.4 1.1.7 3 5 3 5 0-1.3-.2-5-.5-4.8.8 1 2.6 5.9 2.6 5.9v-4.8c.6 0 2 5.2 2 5.2.9-2 0-6 0-6l2.1 5.8.3-1.9.4 3.6.4-3 1.3 3.3c-.2-2-1.7-7.2-1.7-7.2a52 52 0 0 1 4 7.6v-2.4l.8 3.7c1.3-3.7-1.4-7.8-1.4-7.8 2 2.8 2.7 6.3 2.7 6.3l.8-1.9c.8 1.4.8 5 .8 5 1.1-3.9-1.1-7.3-1.1-7.3 2.3 1.8 3.7 9 3.7 9l.4-5.6c.7 1.4 2 5.7 2 5.7.3-2.4-.7-6.4-2-8.2-1.3-1.8-2.4-3.6-10.7-5.3s-28.2-.3-28.2-.3l3.2-.7c2-1.6 6.8-.2 6.8-.2h1.2l-.3-1.8c0-.5 2.3 1.6 2.3 1.6h.8v-2.3l3.4 2.5 1.3.2-2.2-3c1.2 1.3 5 2.8 5 2.8-.3-1-3.1-3.3-3.1-3.3 1 0 4.8 3.5 4.8 3.5l-2.3-2.7 5.6 2.6c-.4-.7-2.3-2.6-2.3-2.6 2.2 2 6.7 3.2 6.7 3.2l-5.3-4.3 6.7 5.2a17 17 0 0 0-4.4-6.1c1.7.2 7.9 6.4 7.9 6.4 0-2.5-2.3-5.4-2.3-5.4 1.6.6 5.7 6.2 5.7 6.2.2-1.5-2.2-5.4-2.2-5.4 1.3.6 4.7 5.5 4.7 5.5.7-2.8-2.5-5.3-2.5-5.3l6.4 3.5c-3.3-5-10-6.7-10.9-7-.8-.3-6.7-.3-11.9-.1s-11.7 3.1-12 3.2l-5.6 1.7-1.4-.6 1.8.4 2.5-.6-2.5-1.6 3.2 1.3 1.7-.7L511-42l2.6 1.2 3.8-1.4L513-44h7l-5.3-1.8 8.6 1.4c-.8-1-3.2-1.7-3.2-1.7 1.7 0 5.7 1 5.7 1-.8-1-4.2-2.5-4.2-2.5 1.9.4 6.9 1.9 6.9 1.9l-3.7-2.6 3.5 1.4c-.6-1.1-2.6-2-2.6-2 .8 0 6.8 2.8 6.8 2.8-1.3-2-4.2-5-4.2-5l3.7 2.3-2.1-2.5 5.4 2.6c-1.8-2.6-6-4.1-7.2-4.3-1.3-.2-10 .8-16.9 5.7-6.9 4.9-7.7 9.4-7.7 9.4s-7-15.3-19.4-16.2c0 0 2 1.9 5.8 2.7 0 0-4.2 1-5.2 2.4 0 0 4.6-.4 7.6.5 0 0-5 1-5.7 2.3 0 0 5.3-.6 8-.1 0 0-4.7.6-4.8 1.7 0 0 7.2 0 7.5 1.4 0 0-5-.2-6.2.6 0 0 6.5 1 7.8 1.9l-4 .6s5.2 1.1 5.8 2.6c0 0-11.6-5-21-6-9.6-1-12.4 1.4-14 2.8-1.7 1.4-5.5 5-4.9 8 0 0 2-4 7-7.2l-4.5 5.4 5-4.1s-3 4.2-3 5.5c0 0 4.7-7.6 6.7-9 0 0-3.4 4.3-3.3 6 0 0 6.5-6.5 7.2-6.4 0 0-5 4.6-5 7.5 0 0 5.8-6 7.5-6.6 0 0-4.3 2.5-3.5 4.6l4.7-4.4-2.8 4.6 1.4-.4s2-3.9 4.8-3.8l-3.7 3.6 1.9-.2s2.2-2.7 4.9-3.7c0 0-3.9 3.2-4 3.7l1.1.1s2.3-2.4 4-2.8l-1.6 2.6h.9l2.2-2-1.6 2 2 .1 1.5-1.3-1.2 1.5h1.5l.9-.7-.1.9h2.4l.6-1.2v1.1z" class="m" transform="matrix(.796 0 0 .775 100.07 273.8)"/><path d="m488.8-36.5-1.7 2h-.2v.2s-6.4 2.4-11.2 6.6a27.5 27.5 0 0 0-8.3 11c-.6 2.1-.7 8.3-.7 8.3s1-5.1 1.5-5.9c0 0 0 3.3.5 4l.5-6.5s.2 4.6 1.2 5.1c0 0-.3-5.8.5-7.6 0 0-.3 3 .3 4 0 0 .8-7.4 2.7-9.3 0 0-2.3 3.8-.8 9.1l.4-2h-.6l.7-.2.6-2.8 1 2.2.3-.2.2-2-2.3-.1 2.8-.5v-1l-1.4-.1 1.4-.3v-1.2h-1l1-.2.1-1 .1 1 1.6-.4.2-1 .2.9.3-1.6h-.3l.4-.1.2-1.4.2 1.3h.7l.4-2 .4 1.8s1.2-4 2.2-4.5v2.5l.5-.1 2-3.5v1.2l.7-.3.8-1.9.6 1.5.9-1.1.4.8 7.7-2.7c-.4-.4-2.3-.4-2.3-.4l.3-1.5-.8 1.5h-.8l.1-1-.6 1-1.7-.1.5-1.1-1 1h-2.5zm-3.5 5.8v1.6l.6-1.5a11 11 0 0 0-.6 0zm-6.1 4.7.2 1.3h.2l.2-1.2zm-2.7 2.3.1 1.1 1-.2.2-.9zm.2 1.8v.8l.6-.1.1-.6zm-.9 1.5.3 1.2v-1.2zm1 .1.2.7.1-.7zm-1.4 2.5v.1z" class="q" transform="matrix(.796 0 0 .775 100.07 273.8)"/></g><path d="m500.7 233.9-.7 8.6 1.1 2s.1-.7.7-1.8l-.3-8.5a7 6.9 0 0 0-.8-.3zm1.2 11.1h-.3l.3.2z" class="i m"/><path stroke-width=".228" d="M472.8 323.2s3-1.7 4.8-.1l-.6 1.2-3 .2z" class="h"/><g fill="#0f7d3a"><path stroke-width=".164" d="M470.7 58.9v6h.7v-6z" transform="matrix(.796 0 0 .775 100.07 273.8)"/><path d="M468 65.6s.9.3.7 1.5-.5 5.3 2.5 5.3 2.5-4 2.5-4.7l.3-1.8v-2.3s-3 2.1-6-.1z" class="j" transform="matrix(.796 0 0 .775 100.07 273.8)"/></g></g><g class="h"><path d="m474.9 325.4-.2 2.2c0 .6 0 1.1.2 1.6 0 .2.2.4.3.5a1 1 0 0 0 .2.1h.5v-.2a.3.3 0 0 1-.3-.1 1 1 0 0 1-.2-.4l-.2-1.5.2-2.2z"/><path stroke-width=".119" d="M477.5 324.4a7 7 0 0 1-4.6.1v.2a.9.9 0 0 0 .4.4c2 1 3.5.2 4.2-.3z" class="k"/></g><g stroke="#0a1a1d"><g class="h"><path d="M461.9 110.6c-.7-1.7-6-1.6-10.3-.3s-6.6 1-15.7 1.1-14.2 2.2-15 2.5-14.4 7-19.7 8.7-10.3 0-10.3 0 6 6 14.6 1.2c0 0-7 4-11.7 4.4 0 0 6.9 1.5 12.7-1a14 14 0 0 0 1.5-.8c3.7-1.8 7-3.2 9.8-4.3 16.7-6.2 23.2-2.2 34.6-5.2" class="m" transform="matrix(.796 0 0 .775 100.07 273.8)"/><path stroke-width=".338" d="M461.8 110.4c-.7 1.5-5.2.6-8.1 1.6.7.6 2.7 1.6 8.2 2.7 1-3.5 0-4.3 0-4.3z" transform="matrix(.796 0 0 .775 100.07 273.8)"/></g><g class="f"><path d="M417.2 121.8c-5.3 1.8-8 3.5-10.8 4.6m10.2-5.6c-4.7 1.6-7.4 3.2-10.2 4.3m9.5-5.3c-4 1.5-6.7 3-9.5 4m8.8-5-8.7 3.8m8-4.8-8 3.6" class="m" transform="matrix(.796 0 0 .775 100.07 273.8)"/><path d="M423.5 119.1s7.5-2.2 13.3-1.5m-12.5.1s7-2 13.2-1.4m-12.3 0s6.5-1.7 13.1-1.3m-12.3-.1s6.1-1.4 13.1-1.2m-12.2-.2s5.6-1.1 13-1.1" class="q" transform="matrix(.796 0 0 .775 100.07 273.8)"/><path d="m446.8 112.2 6.8-1.3c2.9-.4 5.8-.6 6.6.2m-14 2.3s4-.4 7.1-1.2m-7.8 2.4s4.5 0 7.5-1.1m-8.1 2.3s5 .3 7.8-1m-8.4 2.1s5.6.6 8.2-.9" class="m" transform="matrix(.796 0 0 .775 100.07 273.8)"/></g></g><path stroke="#0a1a1d" d="m461.4 360.4-1.5 6.2c9.6 4.3 36.5 4.5 39 4.5h.4c2.5 0 30.2-.2 39.8-4.5l-1.4-6.2s-1.2 4-38.6 4.7c-37.4-.7-37.7-4.7-37.7-4.7z" class="h m"/><g stroke="#0a1a1d"><g class="g"><path d="M455.7 112.4c-.6-1.6-5.5-1.5-9.4-.2s-6 .8-14.5 1-13 2-13.8 2.2-13.4 6.5-18.2 8-9.5 0-9.5 0 5.6 5.5 13.5 1.1c0 0-6.6 3.7-10.8 4.2 0 0 6.3 1.3 11.7-1l1.4-.7a94 94 0 0 1 9-4c15.4-5.7 21.4-2 31.9-4.8" class="h" transform="matrix(-.864 0 0 .84 924.56 265.06)"/><path d="M414.6 122.7c-5 1.7-7.4 3.2-10 4.2m9.3-5.1c-4.2 1.5-6.7 3-9.3 4m8.7-5c-3.6 1.4-6.1 2.8-8.7 3.8m8.1-4.7-8 3.6m7.4-4.5-7.4 3.4" class="f" transform="matrix(-.864 0 0 .84 924.56 265.06)"/></g><g class="f"><path d="M420.3 120.3s7-2.1 12.3-1.5m-11.5.2s6.5-1.9 12.2-1.4m-11.4 0s6-1.5 12.1-1.2m-11.3 0s5.6-1.3 12-1.2m-11.2-.1s5.2-1 12-1" class="j" transform="matrix(-.864 0 0 .84 924.56 265.06)"/><path d="m441.8 113.9 6.3-1.2c2.7-.4 5.3-.6 6.1.1m-13 2.2s3.7-.4 6.6-1.2m-7.1 2.3s4.1 0 6.9-1m-7.5 2.1s4.7.3 7.2-1m-7.8 2s5.2.6 7.6-.8" class="g" transform="matrix(-.864 0 0 .84 924.56 265.06)"/></g><path stroke-width=".312" d="M455.7 112.2c-.7 1.4-4.8.6-7.5 1.4.6.6 2.5 1.6 7.6 2.6.8-3.2 0-4 0-4z" class="h" transform="matrix(-.864 0 0 .84 924.56 265.06)"/></g><path d="M467.7 363.8h-.5l-.8 4 2.6.4.1-.5-2-.3zm2.2 1.9h.4l.2-1.4h-.4zm4-.9-.3 2.6q0 .3-.2.5l-.3.3q-.4.2-.8.1h-.3l-.3-.3-.2-.4v-.5l.3-2.6h-.6l-.3 2.6q-.1.6.2 1 .3.6 1.1.7.9.1 1.4-.3.4-.4.5-1l.4-2.6zm3.7 3.7L476 365h-.7l-.4 4h.6l.3-3.2 1.8 3.5h.6l.4-4h-.5zm2.4-3-.6-.1-.3 4h.5zm4 2.3q0 .7-.5 1.1-.4.4-1 .4-.7 0-1-.5-.4-.5-.4-1.2 0-.8.5-1.2.4-.4 1-.4.8 0 1.1.5.4.5.3 1.3zm.6 0v-.7l-.3-.7q-.2-.4-.6-.6l-1-.3h-.5q-.3 0-.5.2-.4.1-.6.4-.3.3-.4.7l-.2.7v.7l.4.7q.2.4.6.6.3.2 1 .3h.4q.3 0 .5-.2.4-.1.7-.4l.3-.7.2-.7zm3.3 1.4-1.9-3.4h-.7l-.2 4h.6l.1-3.2 2 3.4h.6l.2-4h-.5zm3.7-.9h2v-.4h-2v-1.3h2.4v-.4l-2.9-.1-.1 4h.5zm4.8.8.4 1.2h.6l-1.4-4.1h-.7l-1.6 4h.6l.4-1.2zm-1.5-.5.7-1.8.6 1.8zm3.7-2.4h-.5v4h.5zm.4.5h1.4v3.6h.7v-3.6h1.3v-.5H499zm6-.6h-.5l.1 4.1h2.7v-.6l-2.1.1zm5.2 2.7.4 1.2h.6l-1.7-4h-.6l-1.4 4.1h.6l.4-1.2zm-1.6-.4.6-1.8.7 1.7zm5.3-.4 2-.2v-.5l-2 .2-.1-1.3 2.3-.1v-.5l-3 .2.3 4h.6zm6.1-.7q0 .8-.3 1.2-.3.5-1 .6-.7 0-1.1-.4-.4-.4-.5-1.1 0-.8.3-1.3.3-.4 1-.5.7 0 1.1.4.4.4.5 1.1zm.6 0q0-.4-.2-.7-.1-.4-.4-.7-.2-.3-.6-.5h-1.5q-.3 0-.5.2l-.6.6q-.2.3-.2.7v.7l.1.7q.1.4.4.7.2.3.7.4.4.2 1 .2l.5-.1.4-.2q.4-.2.6-.6l.3-.7v-.7zm1.3.1 1.3-.1h.4q.2 0 .3.2v.2l.1.2.1.5v.3l.1.2h.7v-.1l-.2-.2v-.2l-.1-.7-.1-.4-.2-.2h-.1l-.2-.1.2-.2.1-.2.1-.3v-.4q0-.6-.5-.8-.4-.2-1-.1l-1.9.2.5 4h.5zm-.2-1.8 1.3-.1h.5q.2 0 .3.2v.7l-.1.2-.3.2h-.3l-1.3.2zm7-.1q-.2-.5-.7-.8-.5-.4-1.3-.3-.9.2-1.3.8-.4.6-.3 1.6.2 1.1.8 1.6.7.4 1.4.3l.4-.1.5-.3.5-.5.2-1-.6.1-.1.6-.3.4-.3.2h-.3q-.8.2-1.1-.3-.4-.4-.5-1.1-.1-.8.2-1.3.3-.4.9-.5h.7l.3.3q.2.1.3.4zm4 1.7-2.4.4-.3-1.3 2.3-.4-.1-.5-2.3.4-.2-1.2 2.4-.5v-.5l-3 .6.7 4 3-.6z" letter-spacing="0" word-spacing="0"/><defs><path id="A" d="m466.6 21.7 7.5 16 1.7-1 13.5 25.5.1-4.3-12.7-22.5.6-.5-1-1-.3.3s-.9-.1-1 .2z"/><path id="B" d="m466.6 21.7 7.5 16 1.7-1-.9-2.4zm15.3 22.9c-.5.1-1.1.4-1.5.7l1.8 3.5c.3-.3 1-.6 1.5-.7a.2.2 0 0 0 .1 0z"/><path id="C" d="m476.4 34-.4.2.7 1.2.6-.5z"/><path id="D" d="m466.6 21.7 7.5 16 1.7-1-.9-2.4z"/><path id="E" d="m471.5 15.6 6 16.7 1.7-.7-.6-2.5z"/><path id="F" d="m480 28.9-.4.1.6 1.3.6-.4z"/><path id="G" d="m482.8 36.2-1.4.8 1.5 3.5a9 9 0 0 1 1.5-.7z"/><path id="H" d="m471.5 15.6 6 16.7 1.7-.7 10.9 26.6.5-4.2-10.4-23.7.6-.4-.8-1-.4.1s-.9-.2-1 .1z"/><path id="I" d="M532 13.8c-2 .9-3.6.2-3.6.2s-.9 1 1.4 1.2c0 0 .8 0 .2 1"/><path id="J" d="M534.5 12s-3.3-2.8-5.4-2.6-2.2.1-2.4.5-.6 2 .4 3.3 1.3 1 1.5.7 1.5-1 4-.5"/><path id="K" d="M529.3 9.4a2.4 2.4 0 0 0-.2 0c-2.1.1-2.2.1-2.4.5-.1.2-.4 1.1-.2 2 .3-.3 1-.5 2.3-.5 2.7.2 4.3 1.3 4.3 1.3l.2.1 1.2-.9s-3.1-2.5-5.2-2.5z"/><path id="L" d="M511 42s3 6.7 2.5 15.5l17.8-16.6 8.5-7.7h-.2l-1-5.2-.6-3-1.4.3v-1.7l-.2-1.5-1.2-2.4-1-2.5-.2-2.2.4-2.5-.6.3z"/><path id="M" d="M563.7 43.2s1.8 1.8 2 5.7l.2 6.6s-2.8 1.7-5.5 1c0 0 .5-1.1.5-2.8v-10z"/><path id="N" d="m562.1 43.7-1.2.1v10c0 1.6-.5 2.7-.5 2.7 1 .3 2 .2 2.8 0l.3-7.6c0-2.6-1.4-5.2-1.4-5.2z"/><path id="O" d="M584.6 114.8c.6-1.4 2-1.7 2-1.7s.1-.1-.3-1.1-.2-1.8-.2-1.8c.1-5.3-.4-6.8-.4-6.8.4 0 2 2 2 2 0-5-7.5-7.5-7.5-7.5 2.7 7 1.7 7.9 1.7 7.9 1.7-.8 2-2 2-2 .2 2 0 5.7 0 5.7s0 1.7-1.6.9l-8.3-4-.7 1.3 9.2 4.3s1.3.6 1 1.6-.6 1.2-.6 1.2z"/><path id="P" d="M583.9 109.5s.3-3.7 0-5.7c0 0-.3 1.2-2 2 0 0 1-.8-1.7-7.9 0 0 7.5 2.4 7.6 7.5 0 0-1.7-2-2.1-2 0 0 .5 1.5.4 6.8"/><path id="Q" d="M584.6 114.8c.6-1.4 2-1.7 2-1.7s.1-.1-.3-1.1-.2-1.8-.2-1.8c.1-5.3-.4-6.8-.4-6.8.4 0 2 2 2 2 0-5-7.5-7.5-7.5-7.5 2.7 7 1.7 7.9 1.7 7.9 1.7-.8 2-2 2-2 .2 2 0 5.7 0 5.7s0 1.7-1.6.9l-8.3-4-.7 1.3 9.2 4.3s1.3.6 1 1.6-.6 1.2-.6 1.2"/><path id="R" d="M570.7 104.5a1.6 1.6 0 0 0-1 .3c-.2.1-.3.3-.4.6s0 .6.2 1c.4.7 1.1 1 1.7 1h1v-.4h-1c-.5 0-1-.3-1.3-.9l-.1-.6c0-.1 0-.3.2-.4l.7-.2.6.1c.3.1.8.5 1.3 1.3l.4-.2c-.6-.9-1-1.3-1.5-1.5l-.8-.1z"/><path id="S" d="M571.4 109.3s.2-3.5 2.4-4.8c0 0 .6 0 .6.5s-2 4.2-2 4.2z"/><path id="T" d="M571.6 108.9s.2-3 2-4c0 0 .5 0 .6.4s-1.8 3.5-1.8 3.5z"/><path id="U" d="M581.9 75.4s4 .3 4 2.2-.7 4 .7 4.4 4 .3 4.8 1 .7 1.6.7 1.6-3.5-1.2-5-.3-3.2-.5-3.4-1c-.6-1-.3-3-1.3-3.4s-4.5-.4-4.5-.4z"/><path id="V" d="M544-1.2 539.4 9s-1.2-1.3-2.2 0l-1 1.4m7.6-11.6L535.5 6s1.6.8.6 2.2l-1 1.4 1.1.8"/><path id="Y" d="M553 23.9s-5.5-1-6.8-.2 2.3.8 3 .6l-1.4 1.4s-3.1-.8-3.7-3.8 1.6-3 2.1-2.9 3.3.5 6.8 4.9z"/><path id="Z" d="M545.1 20.8c-.6.2-1 .6-.9 1.4 0 0 .2.9.5 1.4a.3.3 0 0 1 0-.1l.7.7.5-.1c0-.2 0-.3.3-.4a1.9 1.9 0 0 1 .5-.2c1-.4 2.5 0 2.9 0h1.6s-5-3-6.1-2.7z"/><path id="a" d="M552.3 23.9a7 7 0 0 0-.2 2c1.7 4.5 4.2 4.6 3.2 10.2h2c.1-2.6-.3-5-.8-6.2-.2-.5-.7-1.2-1.3-1.8l-1.7-1.7c-.8-1-.2-2.2-.2-2.2z"/><path id="b" d="M551.1 23.4s-.3.9-.3 2.1c0 .6 0 1.3.3 2l.6 2.3c.4 1.6.6 3.5.6 6.4l3-.1c1-5.6-1.5-5.7-3.2-10.2-.1-.5 0-1.4.2-2z"/><path id="c" d="M553.3 24.2s-.6 1.2.2 2.2l1.7 1.7c.6.6 1 1.3 1.3 1.8.5 1.1 1 3.6.7 6.1m0 0-4.9.2c0-3-.2-4.8-.6-6.4a19.6 19.6 0 0 0-.6-2.2 6.3 6.3 0 0 1-.3-2c0-1.3.3-2.2.3-2.2l2.2.8"/><path id="d" d="m548.4 80.4-4.2 7.4-16.7 1.2-1.5.2s-2.5 5.8-5.2 6.5-20.7 6.4-20.7 6.4l-.6-4.1 11.7-3.8s3.4-1.2 4.5-2.6 9.5-9.5 9.5-9.5z"/><path id="e" d="M540.5 63.2s.7.7 1.5-.4l3.8-6c.5-.8 1.1-1.5.3-2s-2 .1-2.9 2-4 5.4-2.7 6.4z"/><path id="f" d="M218.2 61.6c-.9 0-2.1 1.9-2.1 4.8s.7 5.4 1.6 5.4c.3 0 .6-.3.8-1h46.6l-.2-8.7-46.1.7c-.3-1-.2-1.2-.6-1.2z"/><path id="g" d="m263 62.2-.3.7m-.7-.7-.3.7m-.7-.7-.3.7m-.7-.7-.3.8m-.7-.8-.3.8m-.7-.8-.3.8m-.7-.7-.3.7m-.7-.7-.3.7m-.7-.7-.3.8m-.7-.8-.3.8m-.7-.8-.3.8m-.7-.8-.3.8m-.7-.7-.3.7m-.7-.7-.3.7m-.7-.7-.3.8m-.7-.8-.3.8m-.7-.8-.3.8m-.7-.8-.3.8m-.7-.7-.3.7m-.8-.7-.2.7m-.8-.7-.2.8m-.8-.8-.2.8m-.8-.8-.2.8m-.8-.8-.2.8m-.8-.7-.2.7m-.8-.7-.3.7m-.7-.7-.3.8m-.7-.8-.3.8m-.7-.8-.3.8m-.7-.8-.3.8m-.7-.7-.3.7m-.7-.7-.3.7m-.7-.7-.3.8m-.7-.8-.3.8m-.7-.8-.3.8m-.7-.7-.3.7m-.7-.7-.3.7m-.7-.7-.3.7m-.7-.7-.3.8m-.7-.8-.3.8m-.7-.8-.3.8m-.7-.7-.3.7m-.7-.7-.3.7m-.7-.7-.3.7m-.8-.7-.2.8"/><path id="h" d="M225.2 62a4.9 1.5 86.3 0 0-1.1 5 4.9 1.5 86.3 0 0 1.8 4.6 4.9 1.5 86.3 0 0 .4-.2 4.9 1.5 86.3 0 1-1.3-4.5 4.9 1.5 86.3 0 1 .8-4.7 4.9 1.5 86.3 0 0-.6-.2z"/><path id="i" d="m265.5 65 2.5-.6s1.7.3 1.9 1 .4 1.6.3 2-3 1.2-4.3.3z"/><path id="j" d="M269.9 65.4c-1 .4-2.9.5-4.3.6l.3 1.8c1.2.8 4.2-.2 4.3-.5s-.1-1.3-.3-2z"/><path id="k" d="M264.6 61.9c-.1 0-.2 0-.3.2.3 1 .6 2.5.7 4.1.1 2 0 3.7-.3 4.6.2.3.3.5.5.4.3 0 .5-.5.6-1.4s.2-2 .1-3.3-.3-2.4-.5-3.3-.6-1.3-.8-1.3z"/><path id="l" d="M443.7 74.9c.6.1 1 .6 1 1.2v8.3l-5.9-5.9a1.2 1.2 0 0 1-.1-1.5l-2.6 2.5a1.2 1.2 0 0 1 1.7.1l6 6h-8.5a1.2 1.2 0 0 1-1.3-1v3.6a1.2 1.2 0 0 1 1.3-1.1h8.4l-6 6a1.2 1.2 0 0 1-1.6.1l2.5 2.6a1.2 1.2 0 0 1 .1-1.7l6-6v8.5c0 .6-.4 1.1-1 1.2h3.6a1.2 1.2 0 0 1-1-1.2V88l6 6.1c.4.5.5 1.2 0 1.7l2.6-2.6a1.2 1.2 0 0 1-1.5-.2l-6-6h8.4c.6 0 1.1.5 1.2 1.2v-3.6a1.2 1.2 0 0 1-1.2 1h-8.5l6-6a1.2 1.2 0 0 1 1.6 0v-.1l-2.5-2.5a1.2 1.2 0 0 1-.2 1.5l-6 6v-8.4c0-.6.5-1.2 1.1-1.2z"/><path id="m" d="M445.4 71.3a15 15 0 1 0 0 30.2 15 15 0 1 0 0-30.2zm0 3.8a11.3 11.3 0 1 1 0 22.5 11.3 11.3 0 0 1 0-22.5z"/><path id="n" d="M486.2 68.6s-5.9 2.5-6.4-1.8c0 0-3.6 4.4 1.3 7.3 0 0-2.2-3.6 5-4 0 0 1 .1 1-.7s-1-.8-1-.8z"/><path id="o" d="M487.1 69.6c-.8 0-2.7.2-5.7.8-1.3.3-2.2.1-2.9-.2 0 1.3.6 2.7 2.6 3.9 0 0-2.2-3.6 5-4 0 0 1 .1 1-.5z"/><path id="p" d="M472.8 84.8c-.4 0-.7 0-.8.3-.2.3.4.4.4.4v2.3c0 .7-.6 11.3-.9 13.3a7.6 7.6 0 0 1-.4 1.9s-2.5.3-2.4 1.4 1.5 2 3.8 1.9c2.8-.1 3.6-.7 3.7-1.4s-.7-1.4-1.8-1.6l-.7-3.5s.2.5 1.8.2 1.6-2.8 1.6-2.8v-8.8c-.2-1.3-.9-2-2-2.4-.8-.1-1.4 0-1.5.5s-.3.7-.4.5 0-1.5 0-1.5.6-.3.4-.5a2 2 0 0 0-.8-.2zm2 2.5.7.3.1 1.6v8.5l-.8.7-.8-.2-.5-.5-.3-7.2v-2.3l1-.7z"/><path id="q" d="M474.6 104.2s-1-2.5-1.2-9V88c.3-.4 1.2-.9 1.7-.6s.4.4.5 1.5v8.2s-.2 1.2-.9 1.2-1-.3-1.2-.8"/><path id="r" d="M524.8 96.6s-3.2.1-4.3 2.1-.4 3.9.8 4.7 3.9 1.3 5.1.5 2.1-3.2.7-3.5-3.8-.7-3.5-1.7 1.5-1 1.5-1z"/><path id="s" d="M583.6 73.4a.4.4 0 0 0-.2 0l-13 13a.4.4 0 1 0 .6.4l12.7-12.6v-.8z"/><path id="t" d="M572.6 84.4a.4.4 0 0 0-.3.1l-12.8 12.7h1L572.9 85a.4.4 0 0 0-.2-.6z"/><path id="u" d="M535.7 13s-.2 2 1.4 3 3.5 2.4 4.3 5.6.2 2.8.2 2.8l-5 .9s.5-2.3-.7-4-3-7-1.3-9z"/><path id="v" d="M535.6 13c-.3.7-.8 2.4.3 3.7 1.5 1.5 3 2.3 3.5 4.5a34.6 34.6 0 0 1 .7 3.5l1.5-.3s.5.4-.2-2.8-2.7-4.4-4.3-5.5-1.4-3-1.4-3z"/><path id="w" d="M573.9 107a.2.2 0 1 0 0 .4s3.5-.6 6 2a.2.2 0 1 0 .3-.3c-2.7-2.7-6.3-2.1-6.3-2.1z"/><path id="x" d="M579.8 110.8s0 .5.5 1 1.3 1 3 1.1v-.4c-1.7 0-2.4-.5-2.7-1l-.4-.7z"/><path id="y" d="M584.6 114.8c.6-1.4 2-1.7 2-1.7s.1-.1-.3-1.1-.2-1.8-.2-1.8c.1-5.3-.4-6.8-.4-6.8.4 0 2 2 2 2 0-5-7.5-7.5-7.5-7.5 2.7 7 1.7 7.9 1.7 7.9 1.7-.8 2-2 2-2 .2 2 0 5.7 0 5.7s0 1.7-1.6.9l-5.1-2.5-.4 1.4 5.7 2.7s1.3.6 1 1.6-.6 1.2-.6 1.2z"/><path id="z" d="m574.8 107 .2.3h.3l-.2-.4h-.3zm1 0 .2.4h.3l-.2-.4h-.2zm1.1.2.1.5h.3v-.4h-.4zm1.1.4v.5h.3v-.4h-.3zm1 .6v.4l.2.2v-.5l-.2-.1z"/><path id="AA" d="m580.5 111.5-.2.4a2.1 2.1 0 0 0 .2.2l.2-.4-.1-.1a1.6 1.6 0 0 1-.1-.1zm.5.5v.4a3.3 3.3 0 0 0 .2.1v-.4a2.5 2.5 0 0 1-.2-.1zm.7.3v.4h.3v-.4h-.3zm.5.1.2.4h.3l-.2-.4h-.3z"/><path id="AB" d="M560.7 38.9s-3-1.5-3.7-.2-1 3.6 0 5c0 0 4.3.6 6.5-.2l.3-.2z"/><path id="AC" d="M557.8 40.2a3 3 0 0 0-1.3.3c-.2 1.1 0 2.4.5 3.2 0 0 3.8.5 6.1 0-1-.4-3-2.2-4.3-3.1a1.9 1.9 0 0 0-1-.4z"/><path id="AD" d="M563.7 43.2s1.8 1.8 2 5.7l.2 6.6s-2.8 1.7-5.5 1c0 0 .5-1.1.5-2.8v-10"/><path id="AE" d="M550.8 23.3s-6.1-1.8-6.1 0"/><path id="AF" d="m541 61.6-24.3 40.3.5.4 24.3-40.4z"/><path id="AG" d="M217.6 65.8h47.1m-47 1.1h47m-47 1h47m-47 .6h47m-47 .5h47m-47 .6h47m-47 .5h47m-47 .5h47"/><path id="AH" d="M483.6 68.6h-.5l2 13.6h.5z"/><path id="AI" d="m483.8 68.5-.9.2.4 2.7.9-.1z"/><path id="AJ" d="M470.4 104.3s.9-1.1 1.1-3.2l.9-13.3v-2.3"/><path id="AK" d="m570.1 86.3-13.6 7v.2l1 .1 13-6.7z"/><path id="AL" d="m570.5 86.6-7.7 13.6 1.3-.7 7-12.5z"/><path id="AM" d="M535 12.2s-1 2.1 0 4.3 2.1 3.2 2.7 4.6 0 2.7.7 3.7"/><path id="AN" d="M556.5 42.6s1.4-1 3.7.1 2.3.9 2.3.9"/></defs></svg>