<svg xmlns="http://www.w3.org/2000/svg" xmlns:xlink="http://www.w3.org/1999/xlink" width="1200" height="720"><path fill="#c40f38" d="M0 0h1200v720H0Z"/><g id="a"><path fill="#0a1a1d" d="M575 571c-2 12 12 16 17 3 11-6 16-21 19-33l13-19c7-1 11-9 9-15l4-3 12 11-1-17 13-8-15-4-4-18-9 15-16-2 9 13-1 5c-3-2-7-3-10-3-2-5-8-10-12-12-2-6-6-15-13-23-6-13-17-28-31-37-7-7-16-11-25-13v-2c24-13 41-24 62-39h8v-4h-9l-6-38-40-18c-10 5-40 43-44 48-4 9-13 22-19 27-7 6-18 15-10 32-1 7 9 23 22 23 3 0 6 0 10 5 14 18 34 31 49 42 9 6 24 13 27 18 3 4 4 16 3 21-1 7-11 39-12 45Z"/><path fill="#fcd80e" d="M595 366h7l-8-43-45-13 40 18Zm61 125-12-3-3-13-7 11-12-2 7 9-2 7c2 1 4 3 5 5l5-4 9 8-1-12Zm-133-92c-5 0 1 12-19 12-6 0-14-1-16-1-8 0-7 11 0 11 6 0 11-6 20-6 10 0 13 8 17 8 3 0 7-6 7-11 0-8-6-13-9-13Zm60 155c7-3 14-5 23-7 0-1 2-7 3-9-7 1-15 3-23 6Z"/><path fill="#faf6f5" d="M488 387c7-7 15-17 19-27 6-7 34-41 42-47l37 17 3 18c-21 7-45 26-63 50-2-1-5-1-7 1-12 0-15-9-31-12Zm45 20c0-2-4-7-6-8 19-23 43-43 62-48l3 17c-16 13-36 26-59 39Zm41 60c-5-10-14-23-20-29 2-2 4-6 5-11 12 8 23 23 29 35-2 4-9 5-14 5Zm-22-30c-7-5-18-11-26-12 5-2 8-7 8-12 9 2 19 8 23 13 0 3-2 8-5 11Zm70 82c-5 0-12-2-12-5s3-3 3-7c0-9-21-20-31-25l-7-13c5 0 12-1 14-5 5 7 10 15 12 22 4 2 10 7 13 12 10 1 17 7 17 12s-4 9-9 9Zm-32-4c-1-4-2-8-4-12s-15-9-23-15c-12-9-23-15-36-28 3-8 17-24 25-20s27 41 28 43c5 3 31 16 31 24 0 7-15 9-21 8ZM478 415c-5-8-1-18 8-26 20 4 19 12 32 12 0 5-5 8-14 8-12 0-24-4-24 6Zm138 114c-8-2-16-4-26-3 0-4 0-5 1-8 3 0 12-1 16-3 2 3 9 7 14 7Zm-92-72c-5 0-14-17-21-19 8-3 17-6 20-12 8 2 17 6 25 11-15 5-21 20-24 20Zm-27-20c-11 0-19-14-19-20h2c1 3 5 6 9 6 5 0 11-6 19-6 7 0 13 5 13 8 0 5-17 12-24 12Zm90 104 3-12c8-1 16 0 24 2l-3 4c-8 1-17 3-24 6Zm-7 23 2-6c6-4 18-7 23-8l-3 7c-7 1-15 4-22 7Zm10 8c-4 10-15 10-11-4 4-3 19-8 22-8-2 6-8 10-11 12Z"/></g><use xlink:href="#a" transform="rotate(120 592 324)"/><use xlink:href="#a" transform="rotate(240 592 324)"/></svg>