<svg xmlns="http://www.w3.org/2000/svg" xmlns:xlink="http://www.w3.org/1999/xlink" width="1200" height="720"><path fill="#e30631" d="M0 0h1200v720H0V0Z"/><g fill="#fcd80e"><g transform="translate(600 360)"><g id="d"><g id="c"><g id="b"><path id="a" d="M-12-216c14 30-12 32-9 71H3c-15-28 14-44-15-71Z"/><use xlink:href="#a" transform="rotate(9.2)"/><use xlink:href="#a" transform="rotate(18.5)"/></g><use xlink:href="#b" transform="rotate(27.7)"/></g><use xlink:href="#c" transform="rotate(55.4)"/></g><use xlink:href="#d" transform="rotate(110.8)"/><use xlink:href="#d" transform="rotate(221.5)"/><use xlink:href="#b" transform="rotate(-27.7)"/></g><path d="M600 212a148 148 0 1 1 0 296 148 148 0 1 1 0-296zm0 18a130 130 0 1 0 0 260 130 130 0 1 0 0-260zm0 10a116 116 0 1 1 0 232 116 116 0 1 1 0-232z"/></g><g fill="#e30631"><path id="e" d="M697 290c-76 28-134 90-156 168l-14-11c25-78 86-140 164-166l6 9Zm-13-16c-79 23-143 83-170 160l-10-12c29-77 94-135 174-156l6 8Zm-16-13c-79 17-143 72-173 147l-6-16c32-72 96-123 173-138l6 7Z"/><use xlink:href="#e" transform="matrix(-1 0 0 1 1200 0)"/></g></svg>