<svg xmlns="http://www.w3.org/2000/svg" xmlns:xlink="http://www.w3.org/1999/xlink" width="1200" height="720"><path fill="#003396" d="M0 0h1200v720H0Z"/><path fill="#e30631" d="M0 180h1200v360H0Z"/><path id="a" fill="#961538" d="M364 512h240V212l-2-4c-6-1-7 4-8 8h-4v4h-4v5h-4l2 6h-3l2 8-4-2c-1 3-1 6 2 10l-4-4c-4 4-4 8-3 10-5 5-5 9-5 14-8 8-4 15-1 20-5 9-3 12 0 14l-2 2c-3-3-6-4-9-4v13c6-2 8 6 1 8v-4l-8-11v30h-42v-3h-8v3h-6v-27l-3-1c-4 6-6 6-6 4 0-3 7-6-1-13 1-4 1-7-3-11 1-2 1-4-2-8l-2 1c0-5-1-11-8-14-1-7-9-7-10 0-7 3-8 9-8 14l-2-1c-3 4-3 6-2 8-4 4-4 7-3 11-8 7-1 10-1 13 0 2-2 2-6-4l-3 1v15h-5v-4h-8v10c-2-1-4-1-7-1v37c3 1 7 4 7 9v37l-7 7h-8v11h-7v15h-11v19h-12v23h-12Z"/><use xlink:href="#a" transform="matrix(-1 0 0 1 1200 0)"/><path id="b" fill="#faf6f5" d="M437 360h8v-8c2 0 5 1 6 2l1-2c-7-5-8-11-7-19h2c-2-2-2-5-2-15 4 0 7 2 9 5l1-3c-4-4-5-11-5-16 2 0 4 1 5 2-3-3-3-7-2-11l5 3c-3-4-3-7-2-11l4 2c-3-2-5-7-4-10l4 2c1-2 2-4 4-5 2 1 3 3 4 5l4-2c1 3-1 8-4 10l4-2c1 4 1 7-2 11l5-3c1 4 1 8-2 11 1-1 3-2 5-2 0 5-1 12-5 16l1 3c2-3 5-5 9-5 0 10 0 13-2 15h2c1 8 0 14-7 19l1 2c1-1 4-2 6-2v8h8v-49c-2 6-9 6-9 2 0-5 5-6 3-11-2 4-6 4-6 1s4-7 2-10c-1 3-5 3-5 0s4-7 2-10c-1 3-4 3-4 0 0-6 0-12-8-15 0-6-4-6-4 0-8 3-8 9-8 15 0 3-3 3-4 0-2 3 2 7 2 10s-4 3-5 0c-2 3 2 7 2 10s-4 3-6-1c-2 5 3 6 3 11 0 4-7 4-9-2Zm-70 149h82v-20h-82Zm12-22h70v-21h-70Zm78 22h14v-9h-14Zm-66-45h58v-17h-58Zm66 34h14v-10h-14Zm0-12h14v-9h-14Zm-55-41h47v-13h-47Zm49 64h4v-88h-4Zm6-34h14v-9h-14Zm-48-45h40v-9h-40Zm48 34h14v-9h-14Zm-40-45h3c3-1 6-4 6-7h-2Zm56 90h5v-88h-5Zm-16-56h14v-10h-14Zm-34-34h14c3-1 6-4 6-7h-15c0 3-2 6-5 7Zm34 22h14v-9h-14Zm-17-22h4c3-1 6-4 6-7h-5c0 3-3 6-5 7Zm40 90h104v-20H480Zm-33-90h8v-7h-3c0 3-3 6-5 7Zm10 11h14v-9h-14Zm-29-20h4v-30h8v30h3v-41l-6-6h-12l3 2Zm6 0h4v-28h-4Zm23 9h14v-7h-14Zm-33-9h2v-44l-4-3v-28c0-2-2-4-5-4v33c3 1 7 5 7 10Zm56 77h104v-21H480Zm-35-77h5v-40l-3-3h-2v-5h-6l6 6Zm28 9h8c-3-1-5-4-5-7h-3Zm-21-9h3v-43h-5l2 2Zm32 9h4c-3-1-5-4-5-7h-5c0 3 3 6 6 7Zm-60-58h11c0-6-6-9-11-12Zm33 49h14v-43h-14Zm23 54h104v-17H480Zm11-45h14c-3-1-5-4-5-7h-15c0 3 3 6 6 7Zm-18-9h3v-41l2-2h-5Zm-38-55v-23h-7v17c3 2 6 4 7 6Zm-9-7v-26h-2v25Zm167 161h8v-9h-8Zm-113-64h104v-13H480Zm-2-35h5v-42l6-6h-6v5h-2l-3 3Zm-50-80h7v-4h-7Zm165 168h8v-10h-8Zm-113-68h104v-9H480Zm5-20h3v-30h8v30h4v-45l2-2h-11l-6 6Zm5 0h4v-28h-4Zm-43-45h34v-10c-3 0-7 4-8 7h-2c0-6-2-11-7-14-5 3-7 8-7 14h-2c-1-3-5-7-8-7Zm55 45h3v-28h-3Zm6 9h43c4-1 5-5 5-7h-54c0 3 3 6 6 7Zm-53-61c1-5 5-11 9-12 4 1 8 7 9 12l2-2c-1-5-6-12-11-15-5 3-10 10-11 15Zm138 128h8v-9h-8Zm-79-76h4v-28h-4Zm72 99h5v-88h-5ZM453 350c2-4 5-8 11-12 6 4 9 8 11 12 5-4 7-7 6-15-3 1-6 4-8 8-1-10-5-14-9-16-4 2-8 6-9 16-2-4-5-7-8-8-1 8 1 11 6 15Zm140 125h8v-9h-8Zm-86-65h5v-30h8v30h5v-30h8v30h5v-30h8v30h5v-30h5v-4h-54v4h5Zm20 0h4v-28h-4Zm66 54h8v-9h-8ZM454 338c1-5 4-10 10-13 6 3 9 8 10 13 2-3 7-6 7-11v-7c-3 1-6 4-8 8-1-6-4-14-9-17-5 3-8 11-9 17-2-4-5-7-8-8v7c0 5 5 8 7 11Zm39 23h12v-12c-5 3-12 6-12 12Zm47 49h4v-28h-4Zm14 9h13c1 0 7-5 7-7h-16c0 2-1 6-4 7Zm39 34h8v-10h-8Zm-100-98c1-2 5-4 8-6v-11h-8Zm-37-37c1-2 4-7 8-9 4 2 7 7 8 9 3-3 4-7 4-12-2 1-4 2-6 4 0-3-2-7-6-9-4 2-6 6-6 9-2-2-4-3-6-4 0 5 1 9 4 12Zm97 92h3v-28h-3Zm-51-36h54v-7h-54Zm91 67h8v-9h-8Zm-90-93 2-1v-12h-2Zm67 71h10c3-1 6-5 6-7h-10c0 2-5 7-6 7ZM457 306c1-3 4-6 7-7 3 1 6 4 7 7 3-2 4-6 3-9l-5 3c0-2-2-6-5-7-3 1-5 5-5 7-2-1-4-2-5-3-1 3 0 7 3 9Zm46 59h52l-2-2h-48Zm4-4h44v-6h-44Zm86 69h8v-9h-8Zm-10-11h8v-7h-3c0 2-2 6-5 7ZM459 296c1-2 3-4 5-5 2 1 4 3 5 5 1-1 3-3 2-7l-4 2c0-1-1-4-3-5-2 1-3 4-3 5l-4-2c-1 4 1 6 2 7Zm112 114h3v-28h-3Zm-64-57h44v-3h-44Zm51 57h11v-30h5v-17h-18l2 2Zm-97-122c1-4 5-4 6 0 2-2 4-3 4-7l-4 2c0-1-1-4-3-5-2 1-3 4-3 5l-4-2c0 4 2 5 4 7Zm132 131h8v-7h-8Zm-86-71h44v-5h-44Zm0-7h44v-3h-44Zm69 69h10v-40l-3-3h-1v-9h-11c2 0 3 1 4 3v1h1Zm12 0h3v-43h-5l2 2Zm5 0h8v-43h-8Zm-36-54h25v-3c-3-2-13-5-19-5h-6Zm-4 5h19c-1-1-2-2-4-3h-13v-41l-2-4Zm4-15h3v-23h-3Zm25 5v-3h-9c5 1 7 2 9 3Zm-13-5h10v-2c-2-5-7-10-10-11Zm15 19h17v-23l-1-2c-5 4-9 10-10 21h-1c-1-3-3-6-5-7Zm5-8c0-3 1-6 2-9h-7v4c2 1 4 3 5 5Zm-27-11h5v-34c0-7-5-10-7-10v7c6 1 8 9 2 13Zm17-5v-7l4 2c0-5-1-10-4-14h-2v-5h-5c0-8 0-12-3-13v27c4 1 10 8 10 10Zm8-1c1-7 2-13 5-18h-11c3 4 4 10 4 16Zm-6 6h11c2-3 5-6 8-8h1v-21l-1-2c-5 3-11 14-11 28h-2c-1-2-3-4-6-6Zm-7-31h3v-8c4 1 7 3 9 6l2-4-4-8h-3v-6h-6c-2 0-5 0-6-3-4 8 5 8 5 14Zm5 5h14c1-2 4-5 7-7h1v-13l-1-2c-6 2-11 12-13 18h-1c-2-3-4-5-7-6Zm10-13c1-2 2-4 4-6h-7Zm-14-14h6v-4c3 0 7 2 8 4 0-1 1-3 2-4l-3-5h-6v-5h-7c-3 0-5-3-6-6-5 8 6 13 6 20Zm8 6h12c1-1 3-2 5-3h1v-13l-1-2c-4 2-9 9-10 15h-1c-1-2-3-4-6-5Zm9-12 2-3h-4Zm-16-10h6v-5c4 0 7 2 8 4l2-5c-2-2-5-3-5-7h-7c-4 0-5-3-6-6-5 7 5 13 2 19Zm8 5h12l4-3h1v-13l-1-2c-5 3-8 10-9 14h-1c-1-1-3-4-6-4Zm-4-20h7v-5c3 0 6 1 7 3l1-3-6-4h-6c-2 0-4-2-5-4-4 6 4 7 2 13Zm13 7c1-2 5-6 7-7h1v-8l-1-2c-2 2-4 6-5 11h-1c-1-3-3-4-5-4 0 6 0 8 4 10Zm-9-18h4v-4c3-2 6 0 7 2v-2l-3-3v-1h-7c-1 0-2 0-4-2 0 1 0 3 1 4 2 2 3 4 2 6Zm12 5c1-2 2-4 4-6h1v-6l-1-1c-3 2-4 6-4 8h-2c0-2-2-3-4-3v4Zm-9-15h5v-4c1 0 4 1 5 2l4-4v-1h-16Zm9 5 4-5h1v-2l-1-1c-1 1-2 2-2 4h-1c0-1-1-2-3-3v5Zm-9-14h14v-4h-15Zm2-6h12v-3h-12Zm4-5h8v-2h-8Zm4-4h4v-4l-1-2c-3 0-3 4-3 6Z"/><use xlink:href="#b" transform="matrix(-1 0 0 1 1200 0)"/></svg>