<svg xmlns="http://www.w3.org/2000/svg" width="1200" height="720"><path fill="#faf6f5" d="M0 0h1200v720H0Z"/><path fill="#fcd80e" d="M0 0h1200v180H0Z"/><path fill="#f42a41" d="M0 360h1200v360H0Z"/><path fill="#003396" d="M0 540h1200v180H0Z"/><path fill="#24a34e" d="M600 360 0 720V0Z"/><path fill="#faf6f5" d="m230 503 20-63 21 63-54-39h67l-54 39Zm0-75 20-63 21 63-54-39h67l-54 39Zm0-75 20-63 21 63-54-39h67l-54 39Zm0-75 20-63 21 63-54-39h67l-54 39Zm20-82a165 165 0 0 0 0 328 170 170 0 1 1 0-328Z"/></svg>