<svg xmlns="http://www.w3.org/2000/svg" xmlns:xlink="http://www.w3.org/1999/xlink" width="1200" height="720" fill="#fcd80e"><path fill="#00b6d9" d="M0 0h1200v720H0z"/><g transform="translate(644 300)"><circle r="96"/><g id="c"><g id="b"><path id="a" d="M0-150c6 14 8 25 8 31 0 13-16 13-16 0 0-6 2-17 8-31z"/><use xlink:href="#a" transform="rotate(90)"/><use xlink:href="#a" transform="scale(-1)"/><use xlink:href="#a" transform="rotate(270)"/></g><use xlink:href="#b" transform="rotate(22.5)"/><use xlink:href="#b" transform="rotate(45)"/><use xlink:href="#b" transform="rotate(67.5)"/></g><use xlink:href="#c" transform="rotate(11.25)"/></g><path d="M584 528c5 0 4-6 11-4 13-4 53-28 62-38l7 9c19-18 33-9 52-14 12-22 36-24 55-37 16-10 20-46 56-42-1 8-6 15-11 20 4 0 8-3 13-3 1 8-8 13-12 18 2 0 12 0 7 3-7 4-16 8-20 17 18 7-21 6-11 17-2 3-11 3-17 1 4 9 5 15-7 12 16 10-16 15-30 17 40 2 57-10 54-15-2-3-8-3-8-5 0-4 27 1 27-4 0-4-10-5-10-8 0-4 27-3 27-9 0-4-13-1-13-9s42-20 42-34c0-6-13 5-23 2 31-16 48-54 35-48-6 3-21 27-35 30 22-14 44-56 29-58-7-1-12 28-30 37 17-18 25-58 10-65-10-5-1 28-16 51 9-46-6-42-7-35-15 79-77 139-165 144-41 37-76 34-76 47 0 2 2 3 4 3Zm-15 16c3-3 8-5 10-5v5c23-16 49 3 87-9-11-2-26 1-35-4-3 3-10 3-15-2 10-3 10-11 26-11-21-6-34 11-45 8 0 6-6 7-9 4-4 1-8 0-9-2-8 2-11 9-10 16Zm21-17c0 2 3 2 3 0s-3-2-3 0Zm-22-20c-24-3-44-12-62-23l11-7c-29-5-15-6-15-12 0-3-16-7-11-14 4-6-23-18-25-22h13c-28-20-9-15-5-18 5-3-12-10-12-16 0-4 9-4 20 4s12 36 64 50c16 18 28 34 54 34 14 0 24-6 34 4l11-9c-104-6-157-76-170-144-1-5-16-11-6 35-16-23-7-56-17-51-15 7-6 47 10 65-17-9-23-38-30-37-15 2 7 44 29 58-13-2-29-27-35-30-13-6 4 32 35 48-10 0-17-6-22-7-4-1-2 4 0 6 11 12 25 18 40 23-5 4-21-5-23 0-3 7 17 7 29 13-3 1-16-1-16 3 0 5 21 5 21 7 0 3-10 1-11 5-1 5 16 3 24 6l-12 5c21 14 52 24 77 24Zm88 61c6 0 13-8 18-13 2 5-2 13 2 13 5 0 14-12 19-12 3 0 3 9 10 9 6 0 6-16 10-16s9 11 16-6c4 2 9 8 13 4 2-2 0-11 2-14 2-2 5 3 18 3 9 0 11-8-7-14-16-4-45-10-45-2 0 10-8 6-5 12 4 12-26 13-37 13-16 0-38-1-43 21 7 2 18-5 26-10 3 2-4 12 3 12Z"/><g id="f"><g id="e"><path d="m55 119 6-5c13-2 21-12 21-22 0-16-13-23-13-31 0-6 8-5 11 0l3-6c-7-9-21-5-21 6 0 9 13 16 13 31 0 9-8 13-14 13s-11-5-11-11 4-10 9-10c8 0 8 9 3 9-4 0-4-4-2-5-3 0-5 2-4 5-2 0-3 1-4 2 1 1 2 2 4 2-1 3 1 5 4 5-1-1-1-3 0-4 4 1 11-1 11-9 0-7-7-12-15-10 2-2 4-5 4-8l-5 1c2-2 4-5 3-7l-4 2c2-8-3-18-13-19 3 3 5 10 5 17 0 12-4 17-4 29 0 7 4 12 9 14-4 1-8 3-9 5 1 3 8 5 13 6Z"/><path id="d" d="M61 113c-9 0-19 9-19 19 0 12 4 17 4 29 0 7-2 14-5 17 10-1 15-11 13-19l4 2c1-2-1-5-3-7l5 1c0-3-2-6-4-8 8 2 15-3 15-10 0-8-7-10-11-9-1-1-1-3 0-4-3 0-5 2-4 5-2 0-3 1-4 2 1 1 2 2 4 2-1 3 1 5 4 5-2-1-2-5 2-5 5 0 5 9-3 9-5 0-9-4-9-10s5-11 11-11 14 4 14 13c0 2-1 5-2 7l-32 64c-8 17-2 35 18 35 12 0 23-9 23-22l-2-57c-7 4-8 17-3 20-9 0-13 3-15 10 12-6 18 8 13 26-5-9-18 2-15-13-3 1-6 4-5 8-3 0-6 2-7 4 1 2 4 4 7 4-1 4 2 7 5 8-3-11 10-11 10-5 0 5-4 9-11 9-14 0-16-14-12-22l33-68c8-15-6-29-19-29Z"/><use xlink:href="#d" transform="matrix(1 0 0 -1 0 475)"/></g><use xlink:href="#e" transform="matrix(-1 0 0 1 160 0)"/></g><use xlink:href="#f" transform="matrix(1 0 0 -1 0 720)"/></svg>