<svg xmlns="http://www.w3.org/2000/svg" width="1200" height="720" data-name="Layer 1"><path fill="#ffb81c" d="M0 0h1200v720H0V0Z"/><path fill="#961538" d="M430 60h725v600H430V60Z"/><path fill="#0a1a1d" d="M1026.5 223.1a11.6 11.6 0 0 0-10.3-1.8l-.3.1c-3.9 1.5-6.5 3.7-7.6 6.5a9.5 9.5 0 0 0-.6 4.7c-3.6-1.4-8.6-4-12.4-6.8a375 375 0 0 1-19.5-17.3c-23.2-21.8-31-27.5-46.2-33.6a100.7 100.7 0 0 0-70.4-3.5c-18.6 6-29.5 16.6-34.4 33.3-1.1 4-1.4 7.6-1.1 13.3.4 7 2 12.2 5.3 16.9-1.8-1.5-3.4-4-5.4-8.3A31.6 31.6 0 0 0 813 213l1-1c8.3-7.3 13.4-20 12.6-26.2l-1-7.2-4 6c-1 1-11.6 9.5-21.9 9-.8-7.7-10-17.2-15.2-19l-5.2-2 1.7 5.4c.9 3 .1 6.7-2 9.7-2 2.6-4.5 4.2-6.8 4.3-3.3 0-6.2-1.8-9.6-6-5.5-7-11.7-10.2-19-10.1h-6.4l-10.3.1 9 5c1.4.9 2.7 2.7 2.7 4s-2.6 4.3-3.8 4.5c-3.1-.7-6.4-2.2-10-3.8-7-3.2-15-6.8-22.4-3.6l-8 3.5 8.2 1.7c.5.7 1.1 3.1.4 5.7a7 7 0 0 1-5.2 5.3 242.6 242.6 0 0 1-34.3 7.8c2-3.8 1.8-7.4.3-10-2.2-3.6-6.8-4.9-11.4-3a19 19 0 0 0-12.8 15.4 41 41 0 0 0 6 24.5 65.4 65.4 0 0 0 16.3 19.6l5.3 4.1-.9-6.6-.1-.7c3.8 2.4 7.9 4.6 11 6.3l4.7 2.6v-4.7l.1-.7c2.9 4 6.1 7.5 8.6 10.1a64.7 64.7 0 0 0-22.6-3.8c-2.6-.5-5.3-.7-8-.8a31 31 0 0 1-15.3-3.7l-4.4-3 .1 5.3c0 4.2 2.3 8 4.8 11l.1 2.2c.4 9.5-3.3 20.8-10.2 23.3l-3.8 1.5 2.8 3c4.4 4.8 8.6 5.2 11.4 4.8 2.4-.4 4.7-1.7 6.8-3.6 0 1.7.2 3.2.4 4.7l.5 4.9 3.9-3c2.5-2 5-4.1 7.4-6.7.6 3.9 1.8 7.6 5 9.6l4.3 3v-5.3c0-.5 0-3.2 1-6 .1 1.5.6 2.7 1.3 3.8a6.9 6.9 0 0 0 5.7 2.6l2.8.1v-2.8c.1-3.2.6-4.1 1.5-5.2 2.1-1 4-1 5.5-.2 1.3.8 2 2.3 2 4.1-.3 5.8-4.8 12.3-12.7 18.2-20.5 15.5-33 32.2-39.4 52.5-2.2 6.8-3.2 17-3 26.3a1321.5 1321.5 0 0 0-31.2-33 6.9 6.9 0 0 0-.9-.7c3.1-2 5.9-4.3 7.3-6.3l.2-.3c3-5.2 2.9-13.9-1.6-17.3-4.7-3.5-8.9-3-11.7-1.2.6-17.7.2-36.2-.2-54.2-1-44.7-2-91 12.1-132l1.5-4.4-4.5.7c-41.4 6.4-46.1 110.1-45.8 189.2-1.6-.6-3.4-.7-5.6-.7-2.9 0-9.6 1.2-9.6 11.8 0 6.7 5.2 13.4 13.1 17.3l-.5.5c-2.2 2.2-3.2 6-1 10.1-4.4 4-4.2 7.5-3.3 9.8a9.6 9.6 0 0 0 2.3 3.3c-1.2 1.3-1.2 3.7-1.2 5 0 3.1 1.4 5.8 3.8 8-1.1 2.3.6 6.2 2.1 8.2 2.7 3.3 6 5.5 9.7 6.2-.7 1-1.9 2.2-3 3.2a9.1 9.1 0 0 0-.3-.8c-.6-1.8-1.7-3-3.1-3.5-2.8-1-5.4-.4-7.3 1.4-2.3 2.3-3 6-1.7 10h.1a8.9 8.9 0 0 0 7 6c2.4.3 5-.2 7.1-1.1a25 25 0 0 1-5.8 9.8l-1.6 1.7 1.5 1.9c5.1 6.5 7.2 13.5 5.3 18.4a10 10 0 0 1-6.2 5.8c-.2-3.5-1.7-6.6-7.2-7.6h-.4c-2.7-.2-5 .7-6.6 2.3a10 10 0 0 0-2.8 7.4c0 7 5.8 12.3 13.4 12.3h.4c1.7-.3 3.3-.6 4.6-1a19.7 19.7 0 0 1-9.5 6.5l-4.5 1.2 3.2 3.4c6.3 6.6 12.2 5.6 16.6 3.2.2 4.5 2.5 7.7 6.6 12.4l2.4 2.5 2-2.8c3.9-5.4 5.6-7.9 6.2-12.3 1.9 1.2 4 2 6.5 2h.1c3.4 0 6.5-1.7 9.7-5l3-3.1-4.1-1.4c-5.4-1.9-9-4.3-11.5-8a18 18 0 0 0 13.5 1c7-2.9 7.5-7.6 7.4-12.2 0-6-5.6-9.1-9.5-9.1-2.5 0-5 1.2-6.5 3.2-.8 1-1.5 2.4-1.8 4.4-4-1.6-6.4-4-7.1-7.1-1.3-5.6 2.8-12.5 7.3-16.2l2.6-2.1-2.6-2.2c-3.4-2.7-5.8-5-7.4-9.2 1.6.7 3.6 1.3 6.1 1.4h.4c2.7-.3 5-1.5 6.5-3-1.2 3.8-.7 8 1.4 13l1.8 4.2 2.9-3.6c3.7-4.6 5.3-5 5.7-5 1.2.2 3.3 3.4 5 6.3l2 3c3.4 5.7 18 27.9 24 27.9.8 0 2.3 0 8.7-6.1 5-4.8 9-10 12.9-15.5a76.2 76.2 0 0 0 16.9 10c7 3.2 8.7 3.7 9.6 3.6 5 20.3 6.6 34.4 5 45.8-1 7.8-2.5 12-4.8 13.7-1.5 1.2-3 1.8-8.9-.9-7-3.2-13.5-2.8-17.7 1.2a59.3 59.3 0 0 0-11 14.4l-.1 1.3.8 1c2.1 2.4 6 2.4 8.8 1.4.7-.2 1.3-.6 1.9-1 0 .2.2.4.3.5 2.1 2.6 5.7 2.8 8.6 2.7 4-.2 6.4-1.1 7.9-2.5l.6.6c2 2.1 5.7 3 12.4 3 6.3 0 8.5-.6 12.9-2.8l3.6-2 3.7 1.2c5.5 1.8 14.7 2.2 18.6.2 4.2-2.2 6.5-4.7 7-7.7 1-4.5-2.3-8.9-4.8-11.7-1.7-2-1.7-2.7-1.7-2.7 0-.2.8-1.3 7.1-3.2h.2c13.3-5.1 18.4-11.8 18.1-24l-.1-7.2-4.7 5.5c-3 3.4-6 2.5-7.6 1.6a8.5 8.5 0 0 1-3.8-9.8v-.4c1-4.4 4.3-13.2 10-22.8l2-.5c1-.2 22.2-5.3 33-9.4a1228 1228 0 0 0 25.4-10.1c21-8.7 37-14.2 46.4-16l.3 1.7c0 9 5.5 21.8 15.5 35.8a114 114 0 0 1 13.9 23c.7 2.4.4 13 0 22-.7 18-.8 18.6-2 20-1.8 1.8-5.5 1.8-11-.2-6-2-13-3.8-18.5-.8-4.5 2.4-7.6 7.5-10 16.6l-.4 1.4.9 1.1c2.3 2.8 8.6 3.6 12.1 2.3 1-.3 1.9-.8 2.5-1.4 1 1.5 2.3 2.8 3.8 3.6 5.8 3.1 10.6-.9 13.7-4.3.5 2 1.5 4 3.3 5.1 4.3 2.8 10.2.5 19-3.3a29.5 29.5 0 0 0 20.1 1.4l2-1-1.1 2-2.7 3.1 4 1.3a15.3 15.3 0 0 0 13.4-2.2v1l.3 2.5h3c9.5 0 13.1-.8 14.7-4.5.4.5 1 .9 1.5 1.2 4.2 2.6 10.6 1.7 20-3h.3l.2-.2 1-.7 1.5.6a32 32 0 0 0 10.2 1.5c3.8 0 15.6 0 15.6-11.2 0-4.3-3.6-7.9-9-12a8.1 8.1 0 0 1-3-4c-1.3-4.7-.9-13.5.1-15.4.8-1.6 3.9-3.3 5.8-3.7 12.1-2.3 12.6-16.6 12.8-23.4l.2-5.3-4.4 2.9c-3.3 2-6.3 2.3-9.1.5-5.8-3.5-9.5-13.7-8.9-20.4.9-9.4 2-17.7 8.9-39.8 8.9-28.9 11.6-38.7 11-52.6-.8-22-7.5-33.7-20.3-47.2a45.8 45.8 0 0 0 19-30.8c1.5-17.4-6.5-30.5-23.8-39-14.6-7.3-33.5-9.1-59.5-6h-.1c-15.9 2.7-35.4 2.8-42.4-5-2.9-3.1-3.5-7.5-2-13.4l1.1-4-4.2.6c-5.3.8-7.9 3.8-9 6.2a17.1 17.1 0 0 0-1.1 10.5c-4.8-6-4.2-12.6-3.5-15.8 1.3-3.7 6.3-7.5 8.8-7.2l3.2.2 8.9 3.8c9.6 4 15.1 1 18-2.2 6.5-7.2 5.9-22.6 3-32.6a20.2 20.2 0 0 1 11.8 15.2c.9 5.5-.5 11.3-3.4 14.2l-4.2 4 5.7.7c3 .4 12.4-1.3 15.7-4 4.9-3.8 7.2-8.9 6.9-14.6 1.9 2.7 3.8 6 6 11.1l.7 1.4c2.8 6.7 9.5 22.3 28.2 24.7l7.7 1-5.3-5.7c-3.7-3.9-4.8-8.4-6-13.3h-.1l2.9 2.9c14.5 14.7 20.9 19.2 29.8 21.2 7.1 1.6 14.3.2 19.2-3.7 3.6-2.9 5.6-6.9 5.6-11.3s-1.8-8.3-5-10.7Zm-75.3 309.7c-11.4-.3-15.6.6-18.4 6-.5-2.7-1.4-5.5-2.5-7.7a40.8 40.8 0 0 1-2.9-7.7c-.7-3.4-.6-4.2 2.8-7 8.5-7 11.6-10.3 12.8-16.4.7-3 .2-7.2.1-7.6l-.7-5.5-4 3.8c-2.7 2.7-9.2 3.3-11.9 1.3-2-2-.5-4.5 4.8-11.1 3.6-4.5 7.6-9.4 9-15l5.5 4a71 71 0 0 1 18.7 17.6c1.3 2.8 1.4 6.3.7 23.6-.7 16.1-1.3 18-3.9 20.2-1.7 1.5-2 1.7-10.1 1.5ZM817.4 317.4l.1.2-.1-.2Zm15-74.4a27.1 27.1 0 0 0-2.8 20.8c0 .1 3.9 10.9 9.1 11.7l2.5.4.6-2.5c1.4-5.6 3.8-9.3 7-10.9 5.2-2.6 12.7 0 18.6 2.4a65 65 0 0 0 33.9 6c11.6-.3 14.7-.7 27.4-4 17-4.2 23.5-4.8 34.7-3 13.8 2 25.5 9 29.9 17.5 1.5 2.8 1.8 4.3 1.8 9.8 0 5.6-.2 6.7-2.2 10.7a21.2 21.2 0 0 1-5.5 6.9c-5.3 4-8.2 4.8-29.2 4.8-19.4 0-30.3.9-68 5.2-28.7 3.2-50.2 2.8-65.7-1.2l-8.3-2.2a21 21 0 0 1-2.7-11.7c0-2.5-.2-4.6-.7-6.3 2.2.9 4.5 1.4 6.7 1.3l6.4-.2-4.5-4.5A73.6 73.6 0 0 1 812 274c1.3.9 2.7 1.6 3.9 2l9.2 3.6-6-7.8c-1.4-1.9-2.6-7.3-2-13.7.5-6.3-.4-10.8-1-14.1l-.3-1.8a23.5 23.5 0 0 0 16-.1l1.5-.7-1 1.5Zm-234 175h-.1a6.3 6.3 0 0 0-6.5 5c-.8-.7-1.5-1.6-2.1-2.6 8.5-6 10.6-6.3 10.8-6.2l.6.1c1.5 1 5.2 7.1 7 10.1l.5.8a23 23 0 0 0-3.3 3.4c.2-.8.3-1.5.3-2.3 0-4.8-3-8.2-7.2-8.3Zm287.2-198.4-6.8-4c-8-4.6-15-5.5-21-2.7a21 21 0 0 0-10.1 13c-5.6-5-6-10.9-5.6-14.2.7-6.6 5-12.5 11-14.7l.3-.2a19.4 19.4 0 0 1 16.8-.2c1.6.8 3.8 4 4.4 7 .3 1.2.2 2.3-.2 2.7l-4.8 5.3 7.1-.6c6.2-.7 10.1-4.3 10.4-9.8.3-5.5-3-11.8-7.6-16 1.7.4 3.3 1 4.8 2 6.1 4.3 9.5 14 9.6 21.5v.1c.3 3.2-2.4 9.9-3.9 10.7l-4.4.2Zm222.8 425.9-1.9-.1c-22.5-1.5-23.6-20.3-24.6-37l-.3-4.6c-.7-4-2-9-3.2-13.7a101.1 101.1 0 0 1-3.8-24c0-.7.4-1.3 1.1-1.5.7-.2 1.4.2 1.7.8 0 .1 6.7 13.6 13.9 19 5 3.7 12.6 5.6 20 7.5 9 2.2 18.3 4.6 23.7 10 10.6 10.6 2.9 24 .3 28.3l-.6 1.1c-.2 1.6 0 3.2.3 4.9l.3 2.7c0 .4 0 .9-.4 1.2a1.5 1.5 0 0 1-1 .5c-.1 0-7.8 0-11 .5-1.5.3-2.8 1-4.2 1.7a20.2 20.2 0 0 1-10.3 2.6Zm-631.8 0c-5 0-8-1.5-10.3-2.7-1.4-.7-2.7-1.4-4.2-1.6-3.2-.5-10.9-.6-11-.6-.4 0-.7-.2-1-.5a1.5 1.5 0 0 1-.4-1.1c0-1 .2-1.9.3-2.8.2-1.7.5-3.3.3-4.8l-.6-1.2c-2.6-4.4-10.3-17.7.3-28.2 5.4-5.5 14.7-7.8 23.6-10.1a59.5 59.5 0 0 0 20.1-7.5c7.2-5.4 13.8-18.8 14-19a1.5 1.5 0 0 1 2.8.7 101.2 101.2 0 0 1-3.8 24c-1.3 4.7-2.5 9.6-3.2 13.7l-.3 4.7c-1 16.6-2.2 35.4-24.7 36.9h-1.8Zm599.5-490h-.4c-.7-.3-1.2-.9-1.1-1.6a101.2 101.2 0 0 1 3.7-24c1.3-4.7 2.5-9.6 3.3-13.7l.3-4.7c1-16.6 2.1-35.4 24.6-36.9 6.3-.4 9.5 1.3 12.2 2.6 1.4.8 2.7 1.4 4.2 1.7 3.2.5 10.9.6 11 .6.3 0 .7.1 1 .4s.4.8.4 1.2c0 1-.2 1.8-.3 2.7-.3 1.7-.5 3.3-.4 4.9l.7 1c2.5 4.5 10.3 17.8-.3 28.3-5.4 5.5-14.7 7.9-23.6 10.1a59.5 59.5 0 0 0-20.1 7.6c-7.2 5.3-13.8 18.8-14 18.9-.2.5-.7.8-1.3.8Zm-567.2 0c-.5 0-1-.4-1.3-.9 0-.1-6.8-13.6-13.9-19-5-3.6-12.6-5.6-20-7.5-9-2.2-18.3-4.6-23.8-10-10.5-10.6-2.8-24-.2-28.3l.6-1.1c.2-1.6 0-3.2-.3-4.9l-.3-2.7c0-.4 0-.8.4-1.1a1.5 1.5 0 0 1 1-.5c.1 0 7.8-.1 11-.6 1.5-.3 2.8-1 4.2-1.6 2.6-1.4 6-3 12.2-2.6C500.9 76 502 94.9 503 111.6l.3 4.6c.7 4.1 2 9 3.2 13.7l2.2 8.6c1.3 6 1.6 15 1.6 15.4a1.5 1.5 0 0 1-1.5 1.6Z"/><path fill="#e17000" d="M215 60h165v600H215V60Z"/><path fill="#036a4a" d="M50 60h165v600H50V60Z"/><path fill="#ffb81c" d="M564.4 356c11.7 4.8 23.6 5 35.4 1-3.6-4.2-4.3-8-2.3-12.4.9-18.6.5-37.6 0-57.8-1-44.8-2-91.1 12.2-132.7-18.5 3.3-31.2 29.6-37.7 78.2a851 851 0 0 0-5.2 111.1c2.8 7.6 0 11.4-2.3 12.7Zm35.2 18.4-.9-4.9-2 .5a63.7 63.7 0 0 1-18.7 2.3 9 9 0 0 0 3.7 2c3.1.9 14.4.5 18 .2Zm-13.8 36.3c4.8-4 8.6-7.3 8.6-14l-2.6 2.3c-2.8 2.3-6.5 5.3-8.3 8.5l2.1 3.4.2-.2Zm4.2-33.4c1.2 1.4 1.7 3.1 1.5 4.5 3.5-1 5.5-2.4 8.4-5.2-3.6-.2-7 0-9.9.7Zm337.6 155.1a43.5 43.5 0 0 1-3.1-8.3c-1-4.7-.3-6.7 3.8-10 8.5-7 10.7-9.8 11.8-14.7.4-2.1.2-5 0-6.2-4 3.4-12 4-15.6 1-4.5-4.2-.3-9.3 4.5-15.2a36 36 0 0 0 8.5-14.5c-4.4-4.2-9.1-8.4-14.2-13-4-3.4-8-7-11.9-10.6a52.6 52.6 0 0 0-41-11.7l-4.9.4.4 2.7c0 8.4 5.3 20.5 14.9 34.2a111.7 111.7 0 0 1 14.3 23.8c.7 2.4.8 8.8.2 23-.7 19.1-.8 19.7-2.9 22-2.6 2.8-7.3 3-14.2.6-7.6-2.6-12.4-3-16-1-3.7 2-6.4 6.4-8.5 14.6 1.4 1.5 6 2.3 8.7 1.3 1-.3 2-1 2.1-2.4 0-3.4.7-4.7 3.5-6.6l.8-.6-.4.9c-2.3 4.8-.4 9.4 2.7 11 4.8 2.6 8.7-2 11.6-5.4 1.1-1.3 2-2.3 2.7-2.7l.4-.2v.4c-.1 4.9.7 7.7 2.5 9 3.1 2 9-.6 17.3-4.1l.2-.1a27 27 0 0 0 19 1.8c2.4-.8 4-2.2 4.9-4.1 1.3-3.4.3-10.4-2.1-15.3ZM567.3 367.7c8.7 2.8 26 .6 30-.6 5-1.5 11.7-5.8 14.1-9 2.2-4.1 2.3-11.1-.8-13.5-4.2-3.2-7.7-2-9.5 0a7.3 7.3 0 0 0 .2 9.8l2 2.1-.2.2c-12.8 8.6-32.3 5.3-41.5-.4l-.3-.2.3-.2c3.4-2 5.2-6.2 4-10-1.5-2.7-3.1-3.3-7-3.3h-.4c-4.4 0-6.6 3-6.6 8.8 0 6.6 6.5 13.4 15.7 16.3Zm457.3-142.1a8.6 8.6 0 0 0-7.7-1.4c-3 1.2-5 2.8-5.8 4.8-1.2 2.9.1 5.9.8 7.5l.3.4h-.4c-3 0-12.3-4.2-18.3-8.7-2.9-2-11.7-10-19.8-17.5-22.9-21.5-30.5-27-45.3-33-23-9.4-46-10.5-68.3-3.4-17.8 5.7-27.8 15.4-32.4 31.2-1 3.8-1.3 7-1 12.4.5 8.3 2.6 13.6 7.8 18.8l3.2 3.3-2.8 4.6c-3.1 5-4.2 13-2.4 18.3 1.1 3.4 4.3 8.9 6.4 9.5 1.7-6.4 4.5-10.6 8.5-12.6 6.4-3.2 14.6-.4 21.1 2.3 15 5.8 18.1 6.3 32.6 5.9 11.4-.4 14.4-.8 26.8-4 17.4-4.3 24.4-5 36-3.2 14.7 2.3 27.3 9.8 32 19.2 1.8 3.5 2.2 5.4 2.2 11.2 0 6-.3 7.6-2.6 12-1.6 3.2-4 6.2-6.3 8-6.2 4.7-10.3 5.4-31 5.4-19.3 0-30 .9-67.7 5.1-28.5 3.3-50 3-66-1 1.5 1.4 2.7 1.8 4.4 2.4 1.2.4 2.7.9 4.6 1.9h.1v.2c.1.6-.2 1.2-1 2-3 3-12.6 6.6-17.5 6-4.1-.9-7.9-2.4-12.1-4.4.7 3.7 2 5.7 3.9 8.6l.8 1.3.4.6-.7-.3c-3.5-1.4-7-3.5-10.3-5.6l-3.4-2c.6 3.5 7.8 12 13.7 15l-.1.4a40.2 40.2 0 0 1-27-10.5c-1.5 7-6.5 13-10.7 17.5l-.4.5v-.7c.2-4.7-3.4-9.6-6.8-14.3-3-4-5.7-7.7-6-11.1v-.7l.5.5c4.7 5.2 8.5 11.4 11.5 16.5l2.4 3.8a24 24 0 0 0 7.5-18.2v-.8l.4.6c4.2 5.9 11.5 12.5 18.5 12.6a33.8 33.8 0 0 1-7.8-17.6v-.7l.4.5c2.9 2.7 6 4.8 9.3 7l1.8 1.3-.3-3c-.3-2.2-.6-4.6-.5-7.2v-.8l.4.7c2.6 4.2 7.6 7 13.7 7.8a21 21 0 0 0 16.5-4.5 44 44 0 0 1-6.3-2.7c-3.9-2-7.6-3-12.8-3.5a43.4 43.4 0 0 1-15.4-3.7c-4-2-7.2-5.3-10.3-10.4-2.4 4-4.1 6.6-6.8 10.1l-.3.4-2.3-5.5-4.2 17.2-3.8-2c-3.8-2.1-11.1-7.6-12.9-12.1-.9 1.7-1.2 3.4-1.9 9.5v.3h-.2c-11.6-.6-22.3-16.2-24.4-20.4-.6 2.3-1.6 6.2-2.9 9.1-2.2 5-2.4 6.3-1.7 8.8l1 3.7-3.9-3c-1.8-1.6-4.2-4-5.2-5.8-1-1.6-2-2.5-2.2-2.4-.3.2-1.2 1.8-2 4.2a12 12 0 0 1-1.6 2.8l-.6 1-.2.3-.2-.2c-1.9-1.3-4.7-4.7-5-7.5l-.3-2.5.5-.1 1.2 2.5c.6 1.4 2.1 3.7 2.8 4.4.8-.7 1.8-4.4 2.6-7.4.9-3.2 1.7-6.3 2.6-7.3l.4-.5v.7c0 3.3 2 8.6 4.7 12l2 2.6 3.1-7.4c1.8-4.2 3.3-9.1 3.4-10.9v-4l.5.7c7 11.7 14 20.2 24 24.1l2.3-15.1.4.7c3.9 8 10.2 15 15.9 18l.3-.3c1.5-2 3-12.6 2-16.3-.8-2.7-4.6-7.5-5.8-8a59 59 0 0 0-.6 2.3c-.8 3.2-1.6 6.6-4.3 9l-.2.2-.2-.2-9.7-12.2c-2.7-3.5-5.1-6.6-6.8-8.5l-2.5 17-.3-.4c-1.7-2.1-4-4.3-6.6-6.7-5.5-5-11.7-10.8-13-18.5l.5-.2 1.7 2.4c3.7 5.3 8.1 11.7 15.9 17.5l1.5-8.7c.8-4.8 1.8-10.2 1.8-11.6h.5a81 81 0 0 0 17.2 26.5c2-2.2 3.1-7.4 2.7-11.7l-.6-7 .6.8c1.3 1.9 2.9 4.6 4.6 7.4 3.1 5.1 6.7 11 9 12.9.5 0 1-.2 1.5-.7 2.7-2.5 4.2-11.6 4.3-14.3h.4l1.2 3.5a26.4 26.4 0 0 0 14 16.2c2.6 1 9 1.7 12.4 2l1.6.2c-2.8-5-3.3-8.2-3.3-13.6 0-6.4-1.6-7.8-2-8-5-3.1-8.9-7-13.3-13.1-2.1-3-4.3-7-5-8.5-1.5 2.5-2 5.3-2.5 7.5-.4 2-.8 3.7-1.7 4.6v.1h-.2c-.6-.1-3.5-3.7-9-10.7l-2.2-2.9c-1 2.6-4.9 13.3-5.2 13.8h-.1l-.2.1c-.5 0-1.8-1.6-2.2-2-1.8-1.6-3.3-3-4.7-4-4-3.5-6.7-5.8-10-11.3-.6.9-.7 1.6-1 2.6 0 .5-.2 1.2-.5 2l-.1.5-.3-.5c-.6-1-11.7-9.5-14-10.9l-1.6 13.1-.4-.2c-10.8-7-20.5-18.4-19.7-22.9l.2-.7.3.6a134 134 0 0 0 17.6 17.8l.8-17 .5 1c1.5 3 8 9.7 12.4 12.7l3.2 2.2v-5.1c.1-6.5.2-13.2-1.6-19.3l.5-.2a61.6 61.6 0 0 0 13.1 12.5c.6-3 .6-5.6.6-8.5l.1-5.4v-.6l.5.4c2 2 2.8 3.1 3.4 4 .7 1 1.2 1.7 3.2 3.3l2-10.6 2 3.1 5.4 5.6a66 66 0 0 0 10.6 9.8c4.8-7 5-14.1 5.1-22.3v-2l.6-.1c1 4 1.2 7.7 1.4 11.3.3 5.4.6 10.6 4 15.2a59.4 59.4 0 0 0 15.7 12.3c-1.8-3-2.6-9-2.1-15 .5-5.9-.3-10-1-13.4l-.5-3a29.9 29.9 0 0 1-10-11.1l.5-.3c5.7 7.5 18.4 13 27 9.4l-2.8-2.2a24 24 0 0 1-6.5-9.5 28.6 28.6 0 0 0-12.1-14.2c-.1-.2-.2-.5 3.5-3.9 7.5-6.8 11.8-18 11.5-23-2.6 2.5-15.2 11.7-26.8 9.4h-.3l.1-.3c1.4-5.4-7.3-16-12.6-18.3 1 3.8 0 8.2-2.6 11.9a12.4 12.4 0 0 1-9.2 5.6c-4.3 0-8-2.3-12-7.3-4.8-6-10.1-8.9-16.3-8.9h-.3a84.3 84.3 0 0 1-5.5 0c1.8 1.3 3.5 3.7 3.5 6.1 0 1.8-1.6 4.4-3.7 6.1-1.3 1.1-2.6 1.6-3.7 1.4-3.4-.7-7-2.4-10.6-4-6.6-3-13.4-6-19.4-3.8 1.2.8 2 2.9 2.1 5.5.2 4.2-1.7 9.3-7.7 11-9.3 2.7-31.8 8.8-41.1 8.2h-.6l.4-.4c4.9-4.2 5.5-8.7 3.9-11.3-1.4-2.4-4.5-3.1-7.7-1.9a16 16 0 0 0-11 13.2c-1.8 13.1 9.3 32 20.7 40.9l-.5-3c-.3-1.2-.5-2.2-.6-3.4v-.6l.4.3c4.7 3.6 11.8 7.5 16 9.8l.5.2a22 22 0 0 1 1.7-7.1l.2-.5.3.5c3.3 6.1 8.6 11.7 12.1 15.4l2.9 3.4c5.4 6.3 10.5 12.4 11 20v.7l-.4-.5c-9.7-9-20.4-11-31.8-5.8l-.3-.5c3.3-2.9 5-5.2 4.4-6.2-.3-.5-1.6-1.2-7 .4a28 28 0 0 1-20.5-.8l-3.3-1.7c.3 10.2-3.7 22.4-11.8 25.7 2.8 2.9 5.6 4 8.5 3.6 4.7-.8 8.5-6 10.5-10.5l.5.2c-1 5.3-.8 9.6-.4 13.6 4-3 8.2-6.8 10.8-11.9l.4-.8.1.9.1 1.8c.3 4.6.7 10.3 3.8 12.8 0-2.7.9-11.7 7.7-13.9l.4-.1v.4c-1.5 5-1.6 8.3-.3 10 .7 1 1.7 1.4 3 1.5.2-4 1-5.5 2.6-7.3 3.3-1.7 6.6-1.9 9-.4 2.2 1.4 3.5 4 3.4 6.9-.3 6.7-5.2 14-13.8 20.4-20 15.1-32.2 31.3-38.4 51-3.2 10-4 28-1.6 38.4a72.3 72.3 0 0 0 30.6 45.8c5.3 3.6 17.2 9 19.4 9.6a127.8 127.8 0 0 1-2.6-40h.5c.5 2.4 1 8.3 1.7 15 1 10.4 2.4 23.2 3.8 26.8 5.3 21 6.9 35.6 5.2 47.5-1.2 8.7-3 13.4-5.8 15.7-3 2.3-6.1 2.2-12-.5-6-2.7-11.2-2.5-14.5.6-3.3 3-9.4 11-10 12.6 1.2 1.1 3.6 1.2 5.4.5 1.4-.5 2.2-1.3 2.2-2.2 0-1 1.9-4.3 2.8-5.1l.6-.6-.2.8c-1 3.7-1 6.1.2 7.5 1 1.2 2.9 1.7 6.1 1.6 6-.2 6.8-2.4 7.6-4.4.4-1.4 1-2.8 2.9-3.5l.6-.3-.3.6c-.5 1-1 3-1 4.2 0 1 .3 1.8 1 2.4 1.3 1.4 4.4 2 10 2h.3c5.9 0 7.5-.3 11.4-2.4l4.8-2.5 4.9 1.5c5.3 1.7 13.4 2 16.3.4 3.3-1.7 5-3.5 5.5-5.6.4-2.4-.9-5.3-4.2-9.2-2-2.3-2.8-4-2.4-5.5.6-2 3.3-3.5 9.2-5.2 12-4.5 16.2-9.9 16.2-20.4-3.1 3.3-7.2 4-11 1.8-3.9-2.3-7-7.7-5.1-13.4a95.2 95.2 0 0 1 16.9-33.3c7.4-9.6 18.8-44.4 20.6-50.7h.5c-.7 15.7-7.3 33.7-18.7 50.8a92.2 92.2 0 0 0-4.6 7.5c3.4-.9 22.4-5.6 32-9.2a1215 1215 0 0 0 25.4-10.1 286.5 286.5 0 0 1 47-16.1c13.4-2.6 30.9-.5 41.5 4.9 3 1.5 5.1 3.2 25.7 20.5 5.4 4.5 13.6 11 18.3 14.3a72 72 0 0 1 19.7 18.7c1.6 3.4 1.7 6.9 1 25-.7 16.6-1.3 19.3-5 22.4-2.4 2-3.2 2.5-12.1 2.2-15-.4-15.3 1-18.5 13.6l-.2.6c-.6 2.2-2 5.6-3.2 7.3 3.2.9 6.6.5 9.3-1.1a8.4 8.4 0 0 0 4.2-5.4c.7-3 2.6-5.6 4.4-6l.5-.2-.2.5c-2.2 4.6-3.6 7.6-3 13.3 12 0 12.2-1.2 12.8-5.4.2-1.5.5-3.4 1.3-5.7l.5.1c.1 4 1.3 6.8 3.4 8.1 3.2 2 8.9 1 17.2-3 2-1.6 2.5-1.7 5.4-.5 1.7.7 5.7 1.3 9 1.3 8.8 0 12.6-2.4 12.6-8.2 0-2.6-2.3-5.4-7.8-9.6a11 11 0 0 1-4.1-5.7 35.2 35.2 0 0 1 .4-17.5c1.4-2.7 5.5-4.8 7.9-5.2 8.4-1.7 10-10.6 10.4-20.1-4.1 2.5-8.2 2.6-12 .3-6.9-4.1-11-15.6-10.2-23.3.9-9.5 2-18 9-40.4 8.7-28.5 11.5-38.1 11-51.6-1-22.4-7.8-33.2-21.8-47.5l-.2-.2.3-.2c12-8.5 19.4-19.7 20.3-30.5 1.3-16-6.1-28-22.2-36-14-7-32.4-8.7-57.8-5.6-8 1.3-35.2 4.9-45-6-3.6-3.9-4.5-9.2-2.8-15.9-3.1.6-5.3 2.1-6.5 4.6-2.3 4.8-.5 12.1 2.4 17.2l.4.8-.8-.4a22 22 0 0 1-12.1-25c1.4-4.6 6.9-9.2 11-9.5-6.7-3.7-12.5-4.5-17.2-2.2-6 2.9-8.8 9.7-9.6 15.2v.4l-.3-.2c-7.4-4.7-11.1-11.8-10.3-19.6.9-7.8 6-14.7 13-17.2a21.5 21.5 0 0 1 19.5-.3c2.6 1.3 5.4 5.4 6 9 .5 2.1.3 3.8-.5 5 5.6-.8 7-4.1 7-6.9.4-6.9-6.6-15.9-13.3-17.3l-.8-.1.8-.3c5.8-2 11-1.6 15.3 1.4a30.6 30.6 0 0 1 11 23.9c.2 3.1-1.8 9.6-4.3 12.5-.5.6-1 1-1.6 1.2 6 2.4 10.7 1.8 13.9-1.7 6.9-7.7 4.2-28 .2-35.2l-.4-.7.7.4c2 1 2.9 1.2 3.7 1.4a23.2 23.2 0 0 1 15.8 18.2c1 6.3-.6 12.9-4 16.5 3 0 10.6-1.5 13-3.3 6.3-5.1 7.4-13 2.9-21l-2.2-4.1.4-.3 5.1 5.5a53.4 53.4 0 0 1 12 18.8c2.5 6.1 8.6 20.4 25.1 22.8-3.8-4.3-5-9.3-6.3-14-1-3.7-2-7.4-4-10.8l.4-.3h.1q3.5 2.8 6.2 5.7l5.2 5.3c14 14.2 20 18.6 28.3 20.4 6.3 1.4 12.5.3 16.6-3 3-2.4 4.5-5.6 4.5-9s-1.3-6.6-3.7-8.4Zm-319.1 5c-4-.9-5.2-3.6-5-5.8.3-3 3.4-6.3 8.4-6.3 1.4 0 5.2 1.5 8.4 3.2 13.5 7.2 15.4 8 22.6 8.7 3.3.4 6 .5 7 .6a32.6 32.6 0 0 0-10.2-8.8l-.5-.3.5-.2c3-1 12.7.7 22.7 4.2 8 2.8 9.6 3 15.4 2.7 3.5-.2 8-1 10.1-2l3.4-1.3c-2.9-2.6-6.3-4.3-9.6-5.9-1.9-.9-3.9-1.8-5.7-3l-.5-.3.6-.1c1.2-.3 7.3-1.9 12-1.7 5.3.2 14.6-4.7 20.2-7.6 2.1-1 3.6-1.9 4.3-2l.9-.3-.6.7c-1.3 1.3-6 5.7-9.5 7.4a30.2 30.2 0 0 1-14 3.7l-6.7.5 12 7.8 1 .6-.5.2c-17.2 8.4-23.5 6.4-37.3 2l-10.6-3.2 8.1 9.5h-.5c-4.8 0-9.7-.2-14.5-1-4.6-.7-11-3.4-20.8-8.8-5.4-3-9-3.7-11.8-2.2-2.3 1.2-2.8 3.5-2.2 5.1.6 1.3 2.1 2.5 4.6 1.7 1.4-.5 2.2-1 2.3-1.6.1-.8-1-1.7-1.8-2.2l-.5-.4-.5-.4h.6a7 7 0 0 1 4.5 1.7c.6.5.8 1 .8 1.6 0 .7-.4 1.4-1.2 2-1.3 1.1-3.8 2-5.9 1.5Zm46.6 98c-1.7 6.5-4.5 11.4-7.4 16.5l-3.3 6-.2.5-.3-.4a61.2 61.2 0 0 1-5.3-18.6l-1.9 2c-6.4 6.9-6.5 7-6.2 17.7v.7l-.5-.5c-3.7-4.2-6.4-9-8-14.4a85.7 85.7 0 0 1-5.5 4.7c-5 4.1-10.2 8.4-10.7 14l-.1.7-2.1-3.5c-3-6-2.7-10.5-2.4-16.6v-1c-4.8 1.4-6 2.3-10.5 6l-.7.5v-.4c-2.3-11.4 4.6-16.5 9.1-19.8l2-1.5.3-.3v.5c0 1-1.2 2.3-2.8 4-2.8 3.1-6.7 7.3-6.5 12.8a87 87 0 0 1 12.9-7.4l.7-.1-.5.5c-1 1.2-3 14.6-.3 19.4 1.2-1.6 5.4-6.2 8.7-8.6 3.5-2.6 7.4-6.7 8-7.6l.2-.5.2.5c.9 2.4 3.6 7.4 5.4 10.1 2.5-5.2 5.2-8.5 8.1-11.9l4.3-5.3.4-.4.1.5.4 2.3c.8 4.4 2.5 14.3 3.8 15.4 2.4-2.6 4.8-7.3 6.7-11 1.6-3.1 2.7-5.4 3.5-5.8l.5-.4-.1.6Zm-176 78.2c3.7 0 5 0 6.4-2 1.3-1.8 1.7-3.2 1.2-4.2-.8-1.4-3.4-2-7.8-2h-.3c-4.5 0-7.6-1.4-11-2.7-1-.5-2-1-3.2-1.3-.2.3-.3 1.2-.3 2.8 0 5.4 6 9.2 15 9.4Zm29 60.5c-1.2 0-3 .5-4.1 2-.8 1.1-1.7 3.1-.8 6.3v.4h-.4c-9.3-2.2-12.2-7-13-10.6-1.6-6.7 2.8-14.5 8-19-4.8-4-8.3-7.6-9.8-17.2v-.5l.4.2 1.9 1.2c1.9 1.4 4.4 3.2 8.5 3.3 4.6-.4 6.7-4 6.7-7 0-3.3-1.6-5.3-4.2-5.4-1.1 0-2 .4-2.6 1-1 1-1.4 3-1.2 5.7v.4l-.3-.2c-5-2-8-5.7-9.4-11.6-2.4 1.8-4.9 2.4-6.4 2.8l-1.5.5c-.3 2-3.3 5.1-5.8 6.7-1 .6-2.4 1.4-3.5 1h-.3l.2-.3c.4-.7.4-2.4 0-3.8-.4-.9-.8-1.4-1.3-1.6-1.6-.6-3.1-.3-4.1.7-1.5 1.4-1.9 4-1 6.8 1 2.3 2.5 3.6 4.6 4 4 .6 9-2.3 10.5-4l.5-.7v.8c-.9 8.9-4.6 14-7.7 17.5 5.8 7.3 8 15.2 5.7 21.2-1.7 4.5-5.8 7.5-12 8.6h-.3v-.3c.6-5.7-.4-7.5-4.5-8.3-1.8 0-3.3.5-4.4 1.5-1.2 1.2-1.8 3-1.8 5.3 0 5.3 4.3 9.2 10.3 9.2 6.3-.7 8.5-2.7 12.4-6.4l1-1 .5.3c-2.3 5.6-7.6 15.5-17.2 18.5 6.2 6.2 11.4 4 17.4-1.3l.6-.5-.1.8c-1.8 7.3-.6 9.8 5 16 4.9-6.9 5.8-8.2 5.6-16v-.6l.4.4c3.4 3.4 6.2 5 8.9 5h.1c2.4 0 4.8-1.3 7.2-3.8-9.5-3.4-14.2-8.8-16.7-19.2l.5-.2c3.6 5.1 12.5 9.2 18.5 6.8 5.2-2.1 5.6-5.2 5.5-9.3 0-4-3.9-6.1-6.5-6.1ZM559.7 388c2 5.1 13.7 8.4 17.4 8.4h.1c3.2 0 5.5-.7 7-2.3 1.4-1.6 2-3.8 1.7-6.6-9.6 0-15.5-.3-23.7-5.8-2.5 2.1-3.3 4.3-2.5 6.3Zm128.1-113.8c5.5 0 10.3 1.8 15.4 4.4-5.9-14.8-25-15.8-33.1-16.2l-2.4-.2c-2.5-.4-5-.6-7.8-.8-5.6-.4-11.5-.8-16.4-4 .4 5 4.8 10 8.8 12.7 4.1 2.5 13.7 2.7 20.5.4 3.8-1.3 6.3-1.5 7.8-.6 1 .5 1.5 1.4 1.7 2.8a4 4 0 0 1-.3 2.1c2-.4 4-.6 5.8-.6ZM592.5 384c-1.6.7-2.5 1-4.9 3v.1c.2 2.5.3 3.4.7 5.2 2.7-1.5 5-5.3 5.4-8.8l-1.2.5Zm181.3-119.7c1.1 4.3 3.6 8.2 8.8 14.2l3 3.4 4-14.6 4 8c4.2 8.3 16 20.1 25.2 20.4-4-4.7-9-18.4-10.7-23.6-8.3-6.3-9.1-8-14-17.7-.8 1.6-3.4 5.9-4.3 6.7H789.5c-2.6-1.3-5.6-4.3-8.9-7.5-2.5-2.5-5.2-5.1-8-7.3v.2l-.5 3a30 30 0 0 1-2.4 6l-.2.3-.2-.3a44 44 0 0 0-2.1-2.4c-1-1-2-2-2.8-3.3 0 1.7-.3 3.1-.5 4.6-.3 2-.6 4-.7 6.7v.4l-.4-.2c-1.8-1.1-3-2-4.3-3-1.5-1-3-2.2-5.7-3.8-.4 6.8 1 15.4 5.7 19.7 3.4 3 9 7.3 9.9 7.7a18.7 18.7 0 0 0 4-14.3l-.2-7.3h.5l1 4Zm-135 140.4c-9.7-11.2-30-32-33.6-35.7-1.7-1.8-3.2-1.3-3.6-1-.9.4-1 1.7-.8 2.7.3 1.6 2 3.9 3.2 5.6l1.4 2.1.1.3-.2.1c-5 1.7-8 4.4-8.8 7.8-.9 3.8 1 8.4 5 12.7l.5.4h-4.1l-1.4-.1c-1.6 5.9-6 9.8-8.5 12l-.9.8v1.7c0 1.3 0 2.3.9 3.8 10.5-7.5 12.4-7 13.4-6.6h.3c2.2.3 6 6.5 9 11.5.6 1.1 1.2 2.2 1.8 3v.2l-.1.1c-7.5 5.3-9.2 10.6-5.8 18.8 3.2-4 5.7-5.7 7.8-5.7h.2c2.7.1 4.7 3.2 7.4 7.6l2 3c8.1 13.6 19 26.4 21.4 26.4.5 0 3.2-2 6.6-5.2 5-4.8 9-10 12.9-15.6a72.8 72.8 0 0 1-26-50.6Zm-54.7-7.5c.3 1 1 2.2 1.6 3.4l.4.7c5-2.6 7.7-7.8 7.3-10.4-1.8.8-3.5 2-5.3 3.4l-4 2.9Zm-16.4-27.6a6 6 0 0 0-4.3 1.7c-1.5 1.5-2.3 4.6.7 8.2 4.1 4.9 17.6 7.7 23.2 4.9 1.3-.7 1.6-3.2 1.2-5.2-.3-1.1-.7-1.9-1.2-2a22 22 0 0 1-13.6-5.1 9.5 9.5 0 0 0-6-2.5Zm13.6 46.3c1.6-.8 2.4-1.9 2.4-3 0-1.7-.3-2.6-.8-3.1-.9-.8-2.5-1-6-.9-3.8.4-6.8-.6-10-1.7a77.5 77.5 0 0 0-2.3-.6c-.4.7.3 3.2 1.7 5 4.1 5.2 10 6.9 15 4.3Zm-77.5-285.3c-1.3-4.8-2.6-9.7-3.3-14v-.1l-.3-4.8c-1-16.9-2-32.8-21.9-34.1-5.4-.3-8 1-10.6 2.3-1.5.8-3.1 1.6-5.1 1.9-2.5.4-7.2.5-9.7.6l.1 1c.3 1.8.5 3.7.3 5.7 0 .5-.3 1-1 2.2-2.5 4.3-9.1 15.7-.2 24.6 4.9 4.9 13.7 7.1 22.3 9.3 7.7 2 15.8 4 21.2 8 4.5 3.5 8.7 9.6 11.5 14.2-.3-2.7-.6-5.8-1.2-8.2l-2.1-8.6Zm585.7 2.7c5.4-4.1 13.4-6.1 21.2-8.1 8.5-2.2 17.4-4.4 22.2-9.3 9-8.9 2.3-20.3-.2-24.6-.7-1.2-1-1.7-1-2.2-.2-2 0-3.9.3-5.7l.2-1c-2.5 0-7.3-.2-9.7-.6-2-.3-3.6-1.1-5.2-2a17.2 17.2 0 0 0-10.6-2.2C1087 79 1086 94.8 1085 111.7l-.3 4.8v.1c-.8 4.3-2 9.2-3.3 14l-2.2 8.6c-.5 2.4-.9 5.5-1.1 8.2 2.7-4.6 7-10.7 11.5-14.1Zm43.2 495.4c2.5-4.3 9.2-15.7.2-24.6-4.9-5-13.7-7.2-22.3-9.3-7.7-2-15.7-4-21.1-8a52.3 52.3 0 0 1-11.5-14.2 66.2 66.2 0 0 0 3.3 16.8c1.2 4.8 2.5 9.7 3.2 14v.1l.4 4.8c1 16.9 2 32.8 21.8 34 5.4.4 8-.9 10.6-2.2 1.6-.8 3.1-1.6 5.2-2 2.4-.3 7.2-.4 9.7-.5l-.2-1c-.2-1.8-.5-3.7-.3-5.7 0-.5.3-1 1-2.2Zm-637.1-42c-5.5 4.1-13.5 6.1-21.2 8-8.6 2.2-17.4 4.5-22.3 9.4-9 8.9-2.3 20.3.2 24.6.7 1.2 1 1.7 1 2.2.2 2 0 3.9-.3 5.7l-.1 1c2.5 0 7.2.2 9.6.6 2 .3 3.7 1.1 5.2 1.9 2.6 1.3 5.2 2.6 10.6 2.3 19.8-1.3 20.8-17.2 21.9-34.1l.3-4.8v-.1c.7-4.3 2-9.2 3.3-14l2.1-8.6c.5-2.4 1-5.5 1.2-8.2-2.8 4.6-7 10.7-11.5 14.1Z"/></svg>