<svg xmlns="http://www.w3.org/2000/svg" width="1200" height="720"><path fill="#ffb81c" d="M0 0h1200v720H0V0Z"/><path fill="#961538" d="M430 54h725v612H430V54Z"/><path fill="#e17000" d="M215 54h161v612H215V54Z"/><path fill="#036a4a" d="M54 54h161v612H54V54Z"/><path fill="#0a1a1d" d="M1077 150c3-17 19-22 34-26 10-3 30-8 30-24 0-6-3-12-6-16V74h-11c-3-3-9-6-15-6-20 0-27 24-28 37-1 15-9 25-4 45Zm32 502c6 0 12-3 15-6h11v-10c3-4 6-10 6-16 0-16-20-21-30-24-15-4-31-9-34-26-5 20 3 30 4 45 1 13 8 37 28 37ZM508 150c5-20-3-30-4-45-1-13-8-37-28-37-6 0-12 3-15 6h-11v10c-3 4-6 10-6 16 0 16 20 21 30 24 15 4 31 9 34 26Zm87 283c1-7-3-11-9-11-4 0-6 3-6 5l-3-3c2-3 7-6 10-6 7 0 10 7 11 12l-3 3ZM476 652c20 0 27-24 28-37 1-15 9-25 4-45-3 17-19 22-34 26-10 3-30 8-30 24 0 6 3 12 6 16v10h11c3 3 9 6 15 6Zm472-85c3 5 13 4 16-1 6 6 19 3 25-1 12 3 30 3 30-8 0-12-15-17-15-26 0-16 28-9 21-42-12 10-23-2-23-19 0-21 21-69 21-96 0-24-7-35-20-50 14-9 22-25 22-38 0-21-21-40-48-41-23 0-39 9-60 9-17 0-27-12-22-30-10-1-17 8-17 17-7-10-4-21 11-26-9-8-33-11-38 7-7-9-6-33 14-33 11 0 20 7 15 18 13-8 16-19 9-27 15 7 17 26 3 38 26 2 34-19 28-34 11 7 15 19 5 35 18 4 28-8 26-23 11 14 8 40 40 45l-5-17c14 17 26 25 37 25 23 0 22-29 5-29-8 0-11 6-10 11-25-11-53-73-124-73-42 0-66 24-66 52 0 11 4 22 13 31-11 10-7 29 5 38 3-12 5-19 14-19 14 0 27 20 54 20s43-18 63-18c17 0 29 10 29 24 0 15-14 26-34 26-41 0-73 13-109 13-19 0-39-5-49-12l2-2c-4-3-8-10-9-14 3 0 6 0 8-3-3-3-9-11-9-21l7 2c-9-13-1-23-5-38 6 2 14 2 16-3-11-7-7-18-18-26 8-8 16-25 10-37-4 9-16 15-26 15-2-12-16-21-20-22 2 7 1 21-9 21s-16-22-42-15c9 4 8 11 3 11-6 0-23-14-39-6 3 1 7 7 7 10 0 10-26 15-44 15 3-8-2-15-9-15-10 0-15 9-15 18 0 17 13 41 27 49v-7c6 4 14 8 17 8v-4l11 11c-20-7-39 2-52-12h-1c-2 5 0 12 3 17 2 12-3 23-13 25 2 9 13 11 21 6 0 4 1 8 2 10 4-1 8-5 10-8 2 6 5 10 11 14 0 0 0-7 1-13 1 3 5 7 10 8 0-7 1-11 5-11 3 0 5 2 5 5 0 18-50 49-48 102-12-11-32-33-36-35 6-5 9-10 9-15 0-6-5-12-10-12h-3c-4-99-5-155 12-210-53 12-53 138-54 210h-4c-5 0-10 6-10 12 0 7 5 14 14 17-4 3-5 7-2 11-4 2-5 9-2 13-3 6 0 11 5 15-3 7 4 13 12 14 0 1-1 3-3 3-1-2-3-4-6-4-4 0-9 4-9 9 0 4 4 10 11 10 2 0 4-1 6-2-2 5-6 8-9 13 7 6 9 12 9 16 0 5-3 10-8 11-1-3-4-7-9-7-6 0-10 4-10 10s6 13 14 13c2 0 5 0 7-1-2 2-6 5-13 7 2 7 9 9 12 9s5-1 7-2c1 7 4 12 9 15 4-3 7-8 8-15 2 1 4 2 7 2 4 0 10-2 12-9-6-2-11-5-13-7 2 1 6 1 8 1 7 0 13-7 13-13s-4-10-10-10c-4 0-8 4-9 7-5-1-8-6-8-11 0-4 2-10 9-16-3-5-7-8-9-13 5 3 9 3 14-1-1 5 0 11 4 17 2-4 4-8 7-8 10 0 17 39 37 39 8 0 22-6 27-20l12 7c5 10 10 18 10 33 0 17-6 31-13 31-6 0-13-2-19-2-15 0-20 12-22 22 1 3 9 6 12 2 5 4 12 4 18 0 4 8 23 4 32-2 10 5 31 7 31-6 0-8-5-13-5-18 0-7 34-5 26-36-1 6-17 12-17-4 0-7 5-12 9-19 58-9 84-28 114-35 0 43 32 47 32 85 0 16-3 19-10 19-6 0-14-3-21-3-14 0-20 11-22 21 1 3 10 6 13 2 4 4 11 5 18 1 4 6 20 3 27-3 12 5 36 6 36-12 0-10-8-14-8-19 0-7 23-5 19-39-1 7-7 10-12 10-4 0-6-1-6-3 0-5 16-18 18-30 15 10 31 21 34 30 3 13 1 45-9 45-4 0-8-1-13-1-17 0-15 20-21 24 9 4 14 2 18 1Z"/><path fill="#ffb81c" d="M1078 141c-1-14 5-23 6-36s7-34 25-34c6 0 11 3 14 6h9v8c3 3 6 9 6 15 0 14-17 18-28 21-12 3-26 7-32 20Zm-337 87-12-10c15-2 34 17 53 3l-13-10c12-1 21-5 27-11l-2-1c-6 6-15 10-29 10l-1 1 12 11c-15 10-31-9-53-5l11 10c-21 3-28-14-39-14-12 0-11 14-1 14 7 0 8-9 0-9v1c3 0 3 5 0 5-6 0-7-9 1-9 10 0 17 19 46 14Zm70 66c-17 1-27-16-31-30l-6 15c-7-8-10-12-12-23h-1c1 11-1 20-4 23-11-5-17-16-16-29 2 2 8 6 11 7v-11l7 6 3-10c3 5 12 14 18 15 1-1 3-4 4-7 5 10 9 14 18 21-1 7 5 19 9 23Zm298 355c-18 0-24-21-25-34s-7-22-6-36c6 13 20 17 32 20 11 3 28 7 28 21 0 6-3 12-6 15v8h-9c-3 3-8 6-14 6ZM689 276c-6-5-16-7-23-4 2-3 1-6-3-6s-8 3-18 3c-11 0-19-7-19-17 12 15 51-3 63 24Zm183 288c-4 0-7-3-4-10-5 2-4 9-13 9-6 0-7-3-5-10-4 1-3 9-7 9-2 0-5-1-6-2 2-9 8-17 19-17 7 0 15 3 21 3 8 0 13-5 13-22 0-41-32-43-32-86 31-8 57 5 77 28-1 12-17 24-17 32 0 4 4 6 9 6 3 0 7-1 9-3 0 23-19 19-19 29 0 7 8 11 8 19 0 15-24 14-33 9-6 4-15 6-20 6ZM691 354c3-8 12-19 17-20 2 5 4 10 9 15 0-8 4-16 9-20 0 5 1 11 5 18 5-7 10-16 12-22l-1-2-11 18c-2-3-3-9-3-16-5 3-11 9-13 16-3-2-5-7-6-10-7 3-15 8-19 16-3-5-3-14 0-19-6 2-10 4-13 6 2-6 6-12 15-14-11-1-18 9-17 19 3-3 8-6 11-7-2 7 0 17 5 22Zm264 214c-7 0-5-8-1-12-7 2-4 12-19 9 4-8 4-20 16-20 5 0 9 1 13 1 13 0 15-35 12-48-3-14-34-29-48-43-15-15-35-22-49-22-45 0-67 27-134 36 15-18 26-35 26-60h-2c-1 38-40 63-40 84 0 14 13 16 17 11 0 23-26 19-26 29 0 6 5 11 5 18 0 10-19 8-28 2-7 5-14 7-21 7-9 0-11-3-8-10-5 1-4 9-12 9-7 0-8-3-6-10-4 1-3 9-7 9-2 0-4-1-5-2 2-9 7-18 19-18 6 0 13 2 19 2 9 0 16-16 16-34 0-26-14-33-21-72h-2c1 11 4 24 9 34-25-10-44-34-44-69 0-47 48-79 48-98 0-4-3-8-8-8-6 0-8 4-8 9-5-2-6-6-3-12-7 2-8 11-8 15-5-5-6-10-5-16-3 5-6 10-11 12-1-4-1-8 0-14-2 5-7 9-13 9-3 0-6-1-8-4 9-3 14-14 13-25 7 6 16 5 25 3 8-2 9 0 3 6 12-5 23-3 33 7 0-17-19-28-27-41-1 1-2 4-2 7-5-2-13-6-17-11v8c-11-10-21-30-21-43 0-8 4-15 12-15 6 0 10 8 3 15 17 1 54-3 54-18 0-3-3-6-5-9 13-3 27 8 33 8 4 0 7-2 7-6s-2-6-4-7c22-2 24 17 36 17 9 0 14-10 12-19 6 2 15 13 14 20 8 1 21-3 28-10 0 11-7 24-15 29 14 7 10 18 20 26-7 4-20-2-27-9 2 5 7 9 11 11 4 11-2 22 3 34-18-12-21-18-21-39h-1c0 8-1 16-6 23-8-4-15-13-18-19l-3 12-8-8v14c-4-2-11-8-14-12 2 7 1 15 1 25-7-3-12-10-16-16l-1 17c-7-2-16-13-19-18 1 5 9 17 21 24l2-14c3 5 9 9 15 12l1-5c3 7 10 13 18 17 3-4 5-9 6-14 2 5 8 12 11 15 3-4 4-8 5-13 2 8 12 23 24 25 1 6 4 11 8 15-3 2-8 4-12 4-9 0-22-4-27-22 0 6-2 14-5 17-3-8-11-17-18-21 1 6 1 15-2 20-8-4-19-14-25-25l-1 2 4 7c-7 5-8 11-9 20-6-5-8-8-9-16l-5 15-4-7h-1l5 12 5-11c1 4 8 11 13 13-2-9 0-19 7-24 5 7 12 13 20 17 4-4 5-11 5-17 6 4 11 13 14 20 3-3 5-6 7-13 8 14 25 20 37 13 2 10-4 17-17 7-1 5-1 7 0 11l-15-10c0 8 4 13 9 19-7 0-16-7-21-13 1 8-3 17-8 21-1-8-8-16-12-20l-1 1c4 4 11 15 12 24 6-5 11-14 11-19 5 5 15 11 28 11-5-4-13-13-14-17 4 3 11 7 18 8-2-3-5-6-5-10 12 5 19 0 18-12 4 3 25 12 49 12 36 0 68-13 109-13 21 0 37-13 37-29 0-15-14-27-32-27-21 0-36 18-63 18-25 0-38-20-54-20-9 0-13 7-16 16-9-9-10-25 2-32-11-9-15-20-15-31 0-27 22-49 63-49 77 0 101 73 129 75-5-4-3-13 5-13 13 0 14 23-5 23-13 0-25-12-44-36l7 26c-29-6-18-36-42-49 9 15 2 31-14 30 10-18 0-35-17-39 12 14 5 36-15 37 14-15 3-38-16-39 9 6 11 17 2 25 0-9-9-15-19-15-14 0-21 10-21 22 0 8 3 16 10 20 0-15 14-21 29-14-16 8-15 27 2 37-7-7-4-22 6-24-3 18 9 30 26 30 22 0 38-9 60-9 26 1 45 18 45 38 0 13-8 29-24 37 15 16 22 27 22 51 0 27-21 75-21 96 0 19 13 30 23 25 3 25-21 16-21 36 0 11 15 16 15 26 0 8-16 8-27 5-7 3-13 5-17 5s-8-3-7-9c-5 4 0 10-10 10ZM507 141c-6-13-20-17-32-20-11-3-28-7-28-21 0-6 3-12 6-15v-8h9c3-3 8-6 14-6 18 0 24 21 25 34s7 22 6 36Zm46 216c3-4 3-9-1-14 1-69 1-189 47-208-16 55-15 111-12 208-4 5-4 10-1 14-8 6-25 6-33 0Zm17 14c-19 0-32-8-32-18 0-5 3-9 7-9 9 0 9 10 4 13 8 10 33 10 42 0-6-3-6-13 3-13 4 0 7 4 7 9 0 10-12 18-31 18Zm9 13c1-2 0-4-1-5 3 1 7 1 11-1-3 4-6 6-10 6Zm8-7c-4 2-17 0-22-4 9 1 16 0 22-2-1 2-1 5 0 6Zm-11 18c-1-2-1-3 0-5l6-5c0 5-3 9-6 10Zm64 88c-18 0-27-39-37-39-2 0-4 2-7 7-4-10-2-15 5-20-2-6-6-16-12-16-5 0-10 3-13 7-1-2-1-4-1-6 5-2 9-10 10-14h5c-8-8-7-17 4-22-3-2-5-4-5-6 0-3 3-4 5-3 4 2 26 26 37 38 1 19 15 46 33 56-3 12-17 18-24 18Zm-65-97c-7 3-26-2-26-9 0-4 3-6 6-6 6 0 10 8 19 8 4 0 4 6 1 7Zm-1 18c-1-1-2-3-2-4 2-1 3-2 4-3 2-1 4-2 5-3 0 3-2 7-7 10Zm1 10c-2 0-3-2-3-4 3-3 8-7 10-11 0 7-3 12-7 15Zm-11-15c-5 0-17-3-17-10 0-3 1-5 2-6 7 6 12 7 19 7 3 0 5 2 5 4 0 3-2 5-9 5Zm-1 12c-9 0-18-8-15-15 4 4 9 5 15 5 5 0 8 1 8 4 0 4-2 6-8 6Zm9 6c-8 8-22 0-19-7 4 3 9 4 16 2 2 1 3 3 3 5Zm-2 102c-5-4-7-11-6-18-2 4-6 6-10 6-2 0-5-1-7-4 10-5 14-12 16-20h-1c-3 5-9 8-14 8-7 0-11-4-11-9 0-4 3-7 7-7 5 0 7 4 5 8 9-1 15-7 15-15 0-6-3-11-8-16 4-5 9-9 9-19-3 3-7 5-10 5-5 0-7-4-7-7 0-4 2-6 5-6s5 5 3 8c5-2 8-6 9-10l8-3c1 6 4 11 10 13-2-3 0-8 3-8 4 0 6 2 6 6 0 3-2 7-8 7-3 0-7-2-10-5 0 10 5 14 9 19-5 5-8 10-8 16 0 8 6 14 16 15-2-4 0-8 4-8s7 3 7 7c0 5-4 9-10 9s-12-3-15-8h-1c2 8 6 15 17 20-2 3-6 4-8 4-4 0-8-2-10-6 1 7-1 14-5 18Zm-94 130c-6 0-11-3-14-6h-9v-8c-3-3-6-9-6-15 0-14 17-18 28-21 12-3 26-7 32-20 1 14-5 23-6 36s-7 34-25 34Z"/></svg>