<svg xmlns="http://www.w3.org/2000/svg" width="1200" height="720"><path fill="#ffb81c" d="M0 0h1200v720H0Z"/><path fill="#961538" d="M430 54h725v612H430Z"/><path fill="#e17000" d="M215 54h161v612H215Z"/><path fill="#036a4a" d="M54 54h161v612H54Z"/><path fill="#ffb81c" d="M1078 141c6-13 20-17 32-20 11-3 28-7 28-21 0-6-3-12-6-15v-8h-9c-3-3-8-6-14-6-18 0-24 21-25 34s-7 22-6 36Zm-337 87c-29 5-36-14-46-14-8 0-7 9-1 9 3 0 3-5 0-5v-1c8 0 7 9 0 9-10 0-11-14 1-14 11 0 18 17 39 14l-11-10c22-4 39 15 54 5l-13-11 1-1c14 0 23-4 29-10l2 1c-6 6-15 10-27 11l13 10c-19 14-38-5-53-3l12 10Zm25 59c-6-5-9-12-9-21 2 7 5 13 9 16l8-15c4 14 21 25 38 24-5-5-9-14-8-20-9-6-15-12-19-22-1 3-5 8-6 9l-17-16-3 10-7-6v11c-3-1-9-5-11-7 0 7 0 14-2 21-6-3-12-7-15-12l-2 14c-12-7-20-19-21-24 3 5 12 16 19 18l1-17c4 6 9 13 16 16 2-9 1-18-1-25 3 4 10 10 14 12v-14l8 8 3-10 18 17c5-7 6-15 6-23h1c0 21 4 27 22 39-5-12 2-22-4-32-2-4-9-8-11-13 7 7 20 13 27 9-10-8-6-19-20-26 8-5 15-18 15-29-7 7-20 11-28 10 1-7-8-18-14-20 2 9-3 19-12 19-12 0-14-19-36-17 2 1 4 3 4 7s-3 6-7 6c-6 0-20-11-33-8 4 3 5 6 5 9 0 15-37 19-54 18 7-7 3-15-3-15-8 0-12 7-12 15 0 13 10 33 21 43v-8c4 5 12 9 17 11 0-3 1-6 2-7 8 13 27 24 27 41-10-10-21-12-33-7 6-6 5-8-3-6-9 2-18 3-25-3 1 11-4 22-13 25 2 3 5 4 8 4 6 0 11-4 13-9-1 6-1 10 0 14 5-2 8-7 11-12-1 6 0 11 5 16 0-4 1-13 8-15-3 6-2 10 3 12 0-5 2-9 8-9 5 0 8 4 8 8 0 19-48 51-48 98 0 35 19 59 43 69-4-10-7-23-8-34h2c7 39 21 46 21 72 0 18-7 34-16 34-6 0-13-2-19-2-12 0-17 9-19 18 1 1 3 2 5 2 4 0 3-8 7-9-2 7-1 10 6 10 8 0 7-8 12-9-3 7-1 10 8 10 7 0 14-2 21-7 9 6 28 8 28-2 0-7-5-12-5-18 0-10 26-6 26-29-4 5-17 3-17-11 0-21 39-46 40-84h2c0 25-12 42-27 60 67-9 90-36 135-36 14 0 34 7 49 22 14 14 45 29 48 43 3 13 1 48-12 48-4 0-8-1-13-1-12 0-12 12-16 20 15 3 12-7 19-9-4 4-6 12 1 12 10 0 5-6 10-10-1 6 3 9 7 9s10-2 17-5c11 3 27 3 27-5 0-10-15-15-15-26 0-20 24-11 21-36-10 5-23-6-23-25 0-21 21-69 21-96 0-24-7-35-22-51 16-8 24-24 24-37 0-20-19-37-45-38-22 0-38 9-60 9-17 0-26-13-23-31-12 4-16 15-9 25-17-10-18-29-2-37-15-7-29-1-29 14-7-4-10-12-10-20 0-12 7-22 21-22 10 0 18 6 18 15 9-8 7-19-2-25 20 0 31 24 17 39 20-1 27-23 15-37 17 4 27 21 17 39 16 1 23-15 14-30 24 13 13 43 42 49l-7-26c19 24 31 36 44 36 19 0 18-23 5-23-8 0-10 9-5 13-28-2-52-75-129-75-41 0-63 22-63 49 0 11 4 22 15 31-12 7-11 23-2 32 3-9 7-16 16-16 16 0 29 20 54 20 27 0 42-18 63-18 18 0 32 12 32 27 0 16-16 27-37 27-59 0-77 14-113 14-16 0-30-2-40-7-3 7-9 11-18 8v11l-18-10c1 4 9 14 14 18-13 0-23-6-28-11 0 5-5 14-11 19-1-9-8-20-12-24l1-1c4 3 11 12 12 20 5-4 9-13 8-21 5 6 15 14 22 14-5-6-8-10-10-19l19 10v-10c11 5 20 0 20-12-17 9-36 4-44-10-2 7-4 10-7 13-3-7-8-16-14-20 0 6-1 13-5 17-8-4-15-10-20-17-7 5-9 15-7 24-5-2-11-7-13-13l-5 11-5-10 1-2 4 7 5-15c1 5 5 12 9 16 0-9 2-15 9-20l-4-7 1-2c6 11 17 21 25 25 3-5 3-14 2-20 7 4 15 13 18 21 3-3 5-11 5-17 5 19 26 25 44 16-4-3-8-9-9-15-15 0-29-9-34-20l-8 13Zm343 362c6 0 11-3 14-6h9v-8c3-3 6-9 6-15 0-14-17-18-28-21-12-3-26-7-32-20-1 14 5 23 6 36s7 34 25 34ZM689 276c-12-27-51-9-63-24 0 10 8 17 19 17 10 0 14-3 18-3s5 3 3 6c7-3 17-1 23 4Zm183 288c5 0 14-2 20-6 9 5 33 6 33-9 0-8-8-12-8-19 0-10 19-6 19-29-2 2-6 3-9 3-5 0-9-2-9-6 0-8 16-20 17-32-20-23-46-36-77-28 0 43 32 45 32 86 0 17-5 22-13 22-6 0-14-3-21-3-11 0-17 8-19 17 1 1 4 2 6 2 4 0 3-8 7-9-2 7-1 10 5 10 9 0 8-7 13-9-3 7 0 10 4 10ZM691 354c-5-5-7-15-5-22-3 1-8 4-11 7-1-10 6-20 17-19-9 2-13 8-15 14 3-2 7-4 13-6-3 5-3 14 0 19 4-8 12-13 19-16 1 3 3 8 6 10 2-7 8-13 13-16 0 7 1 13 3 16l11-18 1 2-12 22c-4-7-5-13-5-18-5 4-9 12-9 20-5-5-7-10-9-15-5 1-14 12-17 20ZM507 141c1-14-5-23-6-36s-7-34-25-34c-6 0-11 3-14 6h-9v8c-3 3-6 9-6 15 0 14 17 18 28 21 12 3 26 7 32 20Zm46 216c8 6 26 6 34 0-3-4-3-9 1-14-3-97-5-153 11-208-46 19-46 112-47 208 4 5 4 10 1 14Zm17 16c9-5 33-8 33-20 0-5-3-9-8-9-8 0-10 10-4 13-9 10-33 10-42 0 5-3 4-13-4-13-5 0-8 4-8 9 0 12 24 15 33 20Zm9 11c4 0 6-2 8-5-3 1-6 1-9 0 1 1 2 3 1 5Zm7-8c-1-2-1-5 2-7-6 1-10 4-14 7h12Zm-10 19c3-1 6-5 6-10l-6 5c-1 2-1 3 0 5Zm64 88c7 0 21-6 24-18-18-10-32-37-33-56-16-12-31-39-39-39-6 0-6 9 2 10-11 5-12 14-4 22-5 1-6 12-15 15 0 2 0 4 1 6 10-7 21-5 25 8-7 5-9 10-5 20 2-3 5-6 9-6 10 0 17 38 35 38Zm-65-97c3-1 3-7-1-7-9 0-13-8-19-8-3 0-6 2-6 6 0 7 19 12 26 9Zm-1 18c5-3 7-7 7-10-1 1-3 2-5 3-1 1-2 2-4 3 0 1 1 3 2 4Zm1 10c4-3 8-8 7-15-2 4-7 8-10 11 0 2 1 4 3 4Zm-11-15c7 0 9-2 9-5 0-2-2-4-5-4-7 0-12-1-19-7-1 1-2 3-2 6 0 7 12 10 17 10Zm-1 12c6 0 8-2 8-6 0-3-3-4-8-4-6 0-11-1-15-5-3 7 6 15 15 15Zm9 6c0-2-1-4-3-5-7 2-12 1-16-2-3 7 11 15 19 7Zm-2 99c5-4 7-11 6-18 2 4 6 5 10 5 2 0 5-1 7-4-10-5-14-12-16-20h1c3 5 9 9 15 9s10-4 10-9c0-4-3-7-7-7-5 0-7 4-6 10-13-5-18-17-6-30-5-4-9-12-9-19 3 3 7 5 10 5 5 0 8-4 8-7 0-4-2-6-5-6-4 0-6 5-4 8-6-2-10-7-11-13l-7 3c-1 4-4 8-10 10 2-3 0-8-4-8-3 0-5 2-5 6 0 3 3 7 8 7 3 0 7-2 10-5 0 7-4 15-9 19 12 13 7 25-6 30 1-6-1-10-6-10-4 0-7 3-7 7 0 5 4 9 10 9s12-4 15-9h1c-2 8-6 15-16 20 2 3 5 4 7 4 4 0 8-1 10-5-1 7 1 14 6 18Zm-94 133c18 0 24-21 25-34s7-22 6-36c-6 13-20 17-32 20-11 3-28 7-28 21 0 6 3 12 6 15v8h9c3 3 8 6 14 6Z"/></svg>