<svg xmlns="http://www.w3.org/2000/svg" width="1200" height="720"><path fill="#faf6f5" d="M0 0h1200v720H0z"/><path fill="#012778" d="M0 0h1200v216H0Z"/><path fill="#24a34e" d="M0 504h1200v216H0Z"/><path fill="#0a1a1d" d="M483 464c73 38 161 38 234 0l-21-44-9 4-57-75c23-46 27-110-21-116-4-7-14-7-18 0-48 6-44 70-21 116l-57 75-9-4Zm37-1-14-6 11-3Zm-15-12 6-13 4 10Zm46 21-18-5-3-7 14-4Zm-23-18-6-17 16 6 3 7Zm55 22-20-2-3-7 15-6Zm-25-15-7-15 18 4 3 5Zm37 16-3-6 19-10 8 15Zm-6-12-7-14c7 1 17 1 24 1l2 3Zm42 10-3-6 15-9 7 11Zm-6-12-7-12c5 0 11-1 18-2l3 5Zm31-4-8-12 15-4 5 6Zm7 9-3-4 12-10 8 9Zm28-9-4-4 7-8 4 9Zm-8-9-9-11 14-5 3 7ZM577 338c-15-35-22-89 14-93v37l-18 18h14v25Zm46 0-10-13v-25h14l-18-18v-37c36 4 29 58 14 93Z"/></svg>