<svg xmlns="http://www.w3.org/2000/svg" xmlns:xlink="http://www.w3.org/1999/xlink" width="1200" height="720"><path fill="#faf6f5" d="M0 0h1200v720H0Z"/><path fill="#e30631" d="M600 0h600v720H600Z"/><g id="b"><g id="a"><path fill="#e30631" d="M40 160v-48h56a20 20 0 0 1 16-16V40h48v4h-44v56a16 16 0 0 0-16 16H44v44Z"/><path fill="#0a1a1d" d="M44 160h1v-43h65l1-1H44Zm3 0h1v-40h60v-1H47Zm72-57h1V48h40v-1h-41Zm-3-2h1V45h43v-1h-44Zm-15 43a43 43 0 0 1 43-43v-1a44 44 0 0 0-44 44zm12 0a31 31 0 0 1 31-31v-1a32 32 0 0 0-32 32zm-14-27c10 0 20-4 21-14l-4-4c-9 0-17 8-17 18Zm5-5c-2-2 5-9 10-9l2 2c-1 5-10 9-12 7Zm-4 4c0-8 8-16 15-16v2c-7 0-14 9-12 11s13-2 14-8l-2-2 2-2 2 2c-1 9-11 13-19 13Zm8-3 1-1-5-3v1Zm0-3-2-3-1 1Zm3 1h1l-4-6-1 1Zm3-2-4-5h-1l4 6Zm1-1 1-1-4-4h-1Z"/></g><use xlink:href="#a" transform="rotate(90 144 144)"/></g><use xlink:href="#b" transform="rotate(180 144 144)"/><g id="c"><path d="M144 186c-1 0-1.9.1-1.9-1-.2.4-.5.5-.8.5-.2-.2-.1-.7.2-.9-1.3.2-1.4-1-1.5-1.5-.2-.9-.8-1.7.3-2.1-.4 0-.7-.3-.7-.6.1-.2.6-.3 1 0-.7-.8 0-1.4.9-1.9.8-.6 1.3-1.3 2.1-.4-.1-.3.2-.8.4-.8l.2.2v2.3l-.2.1c-.3 0-.7-.1-.8.3-.1.3.2.6 0 .7s-.2-.3-.6-.3-.4.3-.5.6-.3.6 0 .8.7 0 .7.2l-.4.5c-.2.4.2.5.4.7s.5.4.8.2.2-.6.4-.6l.2.4v.8l-.2.3c-.2-.1-.3-.3-.2-.5-.3.6-1 .1-1.2-.1v.9c.2.8 1.1.5 1.4.5l.2.1v.6Zm-2.4-1.9c.4 0 .6-.2.8-.4-.2-.1-.8-.5-.5-1-.2.1-.5 0-.6-.1.1-.1.3-.3.5-.3-.5-.3-.4-.8-.3-1.1-.3 0-.6 0-.9.2-.6.5-.1 1.1 0 1.5s.1 1.2 1 1.2Zm0-3.3c.1-.2.1-.8.9-.6-.2-.2-.3-.5-.2-.6.1 0 .4.1.5.3.1-.7.8-.6 1-.6 0-.3-.2-.5-.5-.7-.6-.4-1 .1-1.4.4-.4.2-1 .5-.9 1.2.1.4.4.5.6.6Zm2.4 1.6c-.9 0-.9-1.3 0-1.3Z"/><circle cx="124" cy="176" r="2"/></g><use xlink:href="#c" transform="matrix(-1 0 0 1 288 0)"/><path fill="#0a1a1d" d="m173.9 128.6 6.5-4.2-.7-1.1-3 1.9-1.5 1 2.1-6.5-.5-.8-6.4 4.2.7 1.1 4.4-2.9h.1l-2.2 6.5Zm-64.5 37.8 6.6-3.9-.6-1.1-2.7 1.6-1.5-2.5-1 .6 1.4 2.5-1.8 1-1.6-2.6-1 .6Zm-2.2-12.2c2.2 0 3.9-1.7 3.9-3.8 0-2.2-1.7-3.9-3.9-3.9s-3.9 1.7-3.9 3.9c0 2.1 1.7 3.8 3.9 3.8Zm0-1.2c-1.5 0-2.6-1.1-2.6-2.6s1.1-2.7 2.6-2.7 2.6 1.2 2.6 2.7-1.1 2.6-2.6 2.6Zm3.5-13.3.3-1.4-4-.8-.1.5 4.7-2.6.3-1.5-3.6 2c0-2.8-4-2.9-4.6-.2l-.5 2.4Zm-3.8-2.2-2.2-.5.2-1c.3-1.6 2.6-1.4 2.2.5Zm8.4-17.6c1.5 1.4 4 1.6 5.5 0 .6-.6 1.4-2.1 1.6-2.9l-2.3-2.4-2.5 2.5.8.8 1.6-1.5 1 1c-.2.6-.6 1.3-.9 1.6a3 3 0 0 1-3.9 0c-1.1-1.1-.9-2.9.2-4 .5-.5 1.7-1.1 2.4-1.1l-1-1c-.8.2-1.7.7-2.3 1.3-1.6 1.3-1.6 4.3-.2 5.7Zm63.4 46.5.7-1.3-1.8-3.2v-.1l3.7-.3.7-1.3-5.2.5-2.9-1.6-.6 1.2 2.9 1.5Zm-51.3-51.8 1.3-.5.1-2 3.2-1.4 1.5 1.4 1.3-.6-6.2-5.7-.9.4Zm1.3-3.8.1-3.1 2.3 2.1Zm48 41.2 3.5-2.2c0 .7.3 2.1 2 2.2 1.3.1 2.3-.9 2.5-2.2l.4-2.6-7.6-1-.2 1.3 3.6.5-4 2.4Zm6.9-2.5c-.2 1.9-2.5 1.5-2.3-.4l.1-1 2.3.3Zm-43.1-38.9 4.4-.2v-1.2l-3.2.2-.3-6.5-1.3.1Zm43.3 28.2 1.1-.2-1.2-6-1.2.2.5 2.3-6.3 1.4.2 1.3 6.4-1.4Zm-28.7-26.5.3-1.2-3-.8 1.6-6.2-1.3-.4-1.9 7.4Zm11.4 6.5 1.5-8.2-.8-.6-7.3 4.3 1.2.8 1.7-1 2.9 2-.4 1.9Zm-.5-4-2.1-1.5 2.6-1.6Zm1.9 35.7c.5-.4-.2-1.3-.8-1.4-.6.5.5.8.8 1.4Zm3-11.1c-.4-.3-1.7.3-2.1-.4-.3-.7-5.2-3.6-6.6-1.4-1.4 2.1-2.4 1.2-2.4 3.5l-1.2-.2-.2-3.4c2.1-1.2 5.2-3.5 7.3-2.3l5.3 3c1.9 1.1 2.9 2.7 2.7 4.6l-2.9-.7c-.2-1 1.1-1.9.1-2.7Zm-16.4.9c2.2.3 3.4 1.4 8.2 1.4 4.2 0 6.5 5.2 9.5 7.5.6.4.8.8.8 1.2l-2.6.3c.2-.9-.2-2.1-2-2.8-1.3-.5-2.7-4-5.4-4.3-2-.2-3.1.8-5.5 1-2.7.2-2.5-1.3-3.9-1.5l-.1.3c1 .2.9 1.1 1.9 1.5l-1.5.5c-3.9-5-3.3-7.6-5.1-8.6-1.3-.7-2.6-1.1-4.4-1.4 1.6-.7 2.1-1.2 1.8-2.2 3.1-.4 6.1-3 7.1-3.8a10 10 0 0 1 3.1 5.2c-.8-.5-1.8-1-3.4-1.1v.3c2.4.1 4.9 2.3 4.9 3.9.5 4.7 0 2.6-3.4 2.3Zm13.9 8.1c1.2-.1 1.6 1.1 1.4 2-.2-1-.5-1.5-1.4-2Zm-.3.5c1.9 0-.1 2.6 4.9 4.1l-.3.6-1-.5-.1.3 1.5 1.3-1.5.8c-1.6-.9-2.4-.6-3.6.4-.6.5-1.8 2-4.3 1.9l-.4-.8c-.5.9 1.6 1.9.4 3l1.6.4-2.1 1.3c4.7-.8 5.4-6.5 7.8-5.2-.5.1-1.1.6-1.5 1.2 1.3-1.1 2.7-1.6 2.7 0-.7-.3-1.8.2-2.8 1.2-4 4-4.3 4.9-5.1 4.8-1.1 3.4-3.6 3-3.8 1.8-.3-2-3.1-2-4.8-1.9v.3c6.6.6 3.7 2.6.7 2.6-4.6 0-5.9-.7-4.7-1.3l-.2-.6-1.3.2c1.4-1 .7-2.4-.8-2.9v.2c1.2.6 2.7 3-3 3v.5c1 .1 3.9-.2 4.3-.3-.2.5-.4 1.2.8 1.5-.6.4-.6 1.3.2 1.7-.7.3-2.1.3-2.7-.5-1.7.8-3.2 0-4.5-.2-.9-.2-1.5.3-2-.3-.5-.5-.2-1.7.6-1.8-.3-.9.6-1.7 1.8-2.7l-.1-.1c-1.5.8-2.4 1.4-2.4 2.6l-.5.5c-.4-.3-1.1-.8-1.3-1.7l-1.5-1 1.4-.4c-.6-.1-1.3-.2-1.9-.1l-1.9-2.2c1.5-1.5 7.9-4 10-1.4l4.1-.1c1.8.4 4 1.1 3.4 2.7 1.4-.4 2.7-.3 3 1.1 1.2-3 4.9-2.3 3.4-5l-.3.1c1.2 2.3-2.5 2.1-3.1 4-.9-1.6-4.2.6.6-3.3l-.2-.2-3 2.6c0-1.1-1-1.7-2-2l4-1.4v-.2l-4.5 1.3-2.1-1.9 6-.5v-.2l-6.6.5-.8-1.6a13 13 0 0 1 7.1-.1v-.2c-2.5-.7-5.6-.7-7.5 0 0-.9-1.5-1.8-2.5-1.8a12 12 0 0 1 8.9.6l.1-.2a11.9 11.9 0 0 0-9.2-.7c.1-1.2-.8-2.8-2.3-2.5 3.5-2 7-1.6 8.8 0 1.4 1.2 5.5 1.3 5.3 3.5-.1 1.1-.4 2.8 1.3 2.8l-.6-.5c1.9-5 7.3-.6 8.2-2.2l-1.2-.1c.1-1-2-2.2-2.4-3.4l.2-.5 1.9 1.7c1.4.1 2-.5 1-1.4-1-1-.9-2.9.3-3.6v1.3l.4-.5Zm.1 14.7c0 .4-1.5 2.1-2 2.2-.6 0-1-.8-.9-1.2l2.2-2.8c.2.4.1.8.1 1.2.3 0 1 0 .6.6Zm-26.8 2.7-3.3.2c-.2-1.1-.4-2.2-1.5-2.2-1 0-.9-1.2-1.7-2.1a20.4 20.4 0 0 0-4.6-4.7c-1.5-.8 1-4 1.5-5.3 1-2.7-4.1-2.1-5.3-7.3-.8.9-2.4.9-3.9.2-2.4-1.2-4.3 1.3-2.3 2.8 2.9 2 4.3 3.7 1.6 6 1.5 2.6-1 2.5-2.1 5.4l.1-1.3c.5-1.9-2.6-2.7-1.1-5 2-2.4-2.4-4-2-7.1.1-2.4 2.2-3.6 4.5-2.8 1.8.6 3.9 1.2 5.2.7.8-1.4 1.2-2.5 2.3-3.2l4.1 4.2 2 .3-.4-1.9-3.9-3.7c1.4-.8 3.2-.9 4.7-1.3 1.4 1.8 1.9 4 1.2 6.4 3.7 1 4.4 4.3-.9 8.4-2.1 1.7-4.1 2.8-2.2 4.7 2.7 2.7 3.7 4.7 6.7 6.8a5 5 0 0 0 1.3 1.8Zm-4.6-1.5c-.2 2.6-1.4 1-3 1.8l-2.6-.8c.8-1.2 2.2-1.4 3.4-1.3-.1-.6-.2-1.1.1-1.8.6 1.2.8 2.2 2.1 2.1Zm13.6 7.2c.6.2.4.8-.1.7l-27.1-8c-.6-.2-.3-1.1.3-.9Zm.3-.5-14.9-4.5c.8 0 1.3-.2 1.5-1l.3 1.2 4.1-.2c.3 1.7 1.4 1.1 2.7 1.4 1.5.3 2.8 1 4.6.4.9.8 2.6.7 3.5.1l-.2-.7c-.6-.3-.7-.8-.2-1.1l13.2.3-2.3-.9c.6-.3 1-.7 1.7-1.7.1.9.7 1.7 1.5 1.7.7 0 2.5-2 2.7-2.6.3-.7-.1-1.5-.7-1.4.1-.3.1-.7-.1-1 2.1-2.1 2.9-3.8 4.5-3.1.3-.4.4-1.8-1.1-2.3l2.2-1.2-.6-.9.9-1.3c-1.3-.5-2.8-.7-3.7-1.5l3.2-.2c.4-1.1-.2-1.8-.9-2.3-5.8-4.3-4.9-7.7-12.1-7.6l2.3-3.1c.9-1.1 5 .3 5.4 1.3.5 1.1 2.8-.1 2.4 1.2l-.7 2.1 4.2 1c.5-.8.2-2.6-.3-3.6-.9-1.7-5.9-4.5-7.7-5.4-2.7-1.4-5.6 1-7.9 2.1-.1-.6-.6-1.2-1-1.7-.2-2.3-1.7-4.6-3.3-6.1 1-.8 1.9-1.8 2.4-2.5 2 .7 3.2.5 3.2-.4 0-.4-.6-.8-1-1 .5.1 1.1.3 1.5.2 1.3-.8.8-3-.6-3.2s-5.8-2.4-7.7-2.7c0-1.3-.9-1.7-1.1-2.3-1.5.6-1.3 2.1-1.5 2.7-3 1.9-4 4.8-4 7.9l-1.5.6-.2-.4.1-2.1-.1-1.9.2-.9c1.2.7 1.6.9 1.9-.4l.2-.2.1-.4.1-.1c.4.2.8.3.8-1.3.4 0 .8-.5.8-.5.7-.3.9-1.1.6-1.8.1-.3 1-.4 1.5-1.1-3.1-3.5-7.2-4-9.7-.5-1 1.3-5.3-1.3-4.6.9-1 0-1 .9-.5 1.3 1.1 1.1 5.6-.4 6 2.2l-2.4-.8c-2.1 0-4.8-.1-6.3-.4-.5-.1-1 .5-1.8 1.2l-5.5.2c-1 0-1.1 1.2-1 2.3-3.2.8-3.5.9-2.9 3.6-2.9.9-3.1.8-2.9 4l-3.2 3.3c-1.1 1.1 4.1 3.7 5.1 3.7l1.1-.8 3.5.4c.5.5.9.8 1.4 0l2.5 2.5c-1 .7-1.7 1.8-2.2 3.1-1.6.2-2.9-.3-4.6-.9-2.7-1-5.2.5-5.5 3.4-.3 3.2 3.5 4.8 2.1 6.9-2 2.4 1.4 3.7 1 5.1-.3 1.1-.2 2.4.9 2.4 1.5-3.3 4-3.7 2.5-6.1 3.2-2.9.4-5-1.9-6.8-1.2-.9 0-2.5 1.6-1.7a6 6 0 0 0 3.8.5c.3 3.8 5.6 4.4 5 5.9-.4 1.2-3.2 5-1.3 5.9a15 15 0 0 1 4.3 4.4c-.2.6-.3 1.2-.2 1.7-1.4-.2-2.9.4-3.4 1.4l-6.8-2.1c-1.5-.5-1.9 1.6-.7 1.9l4.7 1.3-3.7.9 5.9-.2c-.1 1.7 3 2.5 4.1 2.8l-3.7 1.1v.7c2.1-.6 4.8-1 4.8-1.8 0-1.2-4.3-1.1-4.2-2.5l5.5 1.7c.7.6.5 1.8-.1 2.1-1.1.6-2.4 0-4.2 1.1l.2.6c1.8-1.2 3-.2 4.5-1.1.9-.6 1.1-1.7.5-2.5l12.9 3.9c1.1.3 1.9-1.4.5-1.8Zm-24.4-34.1.7-.8 7.1 6.9.2 1.1-1.2-.2Zm-1 .3-.3-.2 2.3-2.2.2.2Zm2.5-2.6c2-2.4 4.3-5.1 6.9-6.2 0 2.8 2 4.3 1.4 6.5-.1.4-.3 1-.2 2.2-1.4.2-3.9.5-5.7 1.6l-2.9-2.9c.2-.3.9-.7.5-1.2Zm-.3-.2c0-.9.3-2 .5-2.3 1.1-1.4 3.1-2.2 3.5-4.1.1-.6 2.5-1.6 3.2-2.1l-.1 2.2c-2.7 1-5 3.8-7.1 6.3Zm22.9 11.6c-1.3.3-6 .9-10.3.7a4 4 0 0 0-3.1-3.1c.3-2.1.2-4.1-1.5-6l.6-.1c.8 1.9 2.6 1.5 3.7 1.4 1.3-.1 2.6.5 3.9.5 2 0 3.4.3 3.7 1.5 1 4.2 4.5 4.7 3 5.1Zm-14.2 6.6c1.1-.9 3.9-3 3.9-4.6l2.5-.4c-.4 4.3-4.9 4.9-3.2 6.8 2.2 2.5 7.7-2.3 10.7 3.7h-3c-.1-.8-.5-1.9-1.4-1.9-.5.4-1.2.7-1.9.6-3.1-.5-5 .7-6.8.3s-.1-2.3-.8-4.5Zm-.8 4.2c.4 1.8 4.3.7 5.8.7-2.4.6-4 1.4-4.8 2.2-.9-1.4-3.7-3.4-2.8-4.6.7-.9 1.7-1.6 2.1-2 .2 1.3-.6 2.3-.3 3.7Zm7.5-6.6c1.2-.2 2.3.8 1.6 2.6 1.8.1 3.3 1 3.2 2.2-1.4-1.4-6.6.4-7.8-.8s1.7-2.1 2.6-4.2Zm23.1-4.8c-1.9.7-1.7 2.7-1.3 3.6l-2.2-1.3c-1.5 3.4 1.8 4.1 1.9 5.4-2.5-.7-5.1-.9-6.7 1 .2-2.7-.8-2.7-2.8-3.4-2.2-.8-1.4-1.1-.2-.7 1.1.4 2.3.9 4 .9 1 0 1.4-1.7.6-1.8a13 13 0 0 1-2.7-.7c1.7-.1 2.7-2 3.7-3.2.4-.3 2.1-.2 2.9-.1-1.2.3-2.8 1.6-1.7 2.5-1.4.8-1.9 3.1-.4 4-.9-1.4-.2-3 .9-3.7l.1-.4c-1.7-1.8 2.3-1.8 1.8-2.8-.3-.3-3.4-.6-4 .1-1.2 1.2-1.8 2.9-3.8 3.1l-1.8-2.4 2-.8c4.3.3 6.6-3.3 9.7.7Zm-22.5-10.7h-1.4l-.1.2c2.2.2 5 1 6.7 1.8 1 .5 1.6 3.2 2.9 5.3.5.8 3.8 6.7 5.6 7.1l1.6.4c.4.1.3.8 0 .8-3.1 0-3.5-1.1-5.5-1.1-1 0-1.4-.6-1.3-1.2.4-2.7-1.9-2.8-3.2-4.7-1-1.4-.9-3.4-2.3-4-1.9-2-4.5-1.3-6.3-2.7l-.1.2c1.8 1.5 4.1.7 5.9 2.4-.9-.4-1.7-.3-2.8-.3-.9 0-2.4-.6-3.4-.4-2.5.5-4.1-1.1-3.3-3.5s-1-3.3-1.3-5.4c-.2-1.3-.1-2.6.2-4.1l1.2-.5a5 5 0 0 0 1.8 2.6l.1-.2c-.9-.7-1.1-1.9-1.6-3-2 1-5.7 2.6-5.8 3.4-.3 1.9-2.3 2.7-3.4 4.1-.5.6-.6 1.6-.7 2.6l-2 2.1-.2-.3.3-.6-.6.3-.2-.1.3-.6-.5.3-.3-.2.3-.4-.4.2-.2-.2c.6-.9 1.3-1.3 2-1.6 1.4-3.6 8.1-12.1 12.9-13.1.8 2.4 2 4.7 4.5 5l-.2 2.6-.8 3.3c-.4 1.2.3 2.8-1 2.8-.8 0-1.5-1.3-3.1-1.3v.2c1.9 0 2.8 2.9 4.5.5 1 0 1.8.2 2.6.6Zm-22.2 1.7c.4-.8 1-1.7 1.7-2.5l.5.4c-.9 1.1.2 1.4 1.1 2.5Zm-.3-.1-1.2.8c-1.1-.1-4.7-2.3-4.5-2.7.3-.5 3 1.2 3.4.7 2.2-2.4 7.1-6 9.6-7l-1.2 1.6c-.9 1-2.2 1.9-3.1 2.9l-.4-.4-1.2 1.1.4.4c-.7.8-1.4 1.8-1.8 2.6Zm3.4-2.7-.6.5-.9-.8.7-.6Zm-.2-.8 2.4-2.2c-.5.7-1 1.5-1.4 2.5-.6.5-.6.1-1-.3Zm-5.7-4.7c.4-.4 2.4 1.9 3 1.5 2.8-1.9 6-3.3 9.1-4.5l-2 2.5c-2.7 1.1-6.1 4-9.9 6.9.2-1.7-.7-5.9-.2-6.4Zm2.9-3.6c.6-.3 1.9 1.2 2.6.8 2-1.2 5.5-1.4 8.2-1.7l-1 .9a51.4 51.4 0 0 0-9.5 4.5c.3-.9-.9-4.2-.3-4.5Zm5-2.5c1 .8 1.2 1.1 2.5.9l4.8-.7c-.7.7-1.2 1-2.2 1.1-2.6.2-5.2.6-7.3 1.5.1-2.2-.6-5.2 2.2-2.8Zm2.6.5c1.5-1.2 2.7-2.8 3-2.7 1.2.3 3.4.5 5.1.5-.6.3-1.9.8-3 1.6Zm12.3 1.9c-1-.6-1.7-1.9-2.4-4l1 .4c.1 1.1 1 3 1.4 3.6Zm0-4.3c.4.1 1.1-.6 1.5-.2.1.2.2.4.1.6-.3.6-.2 1.3.6 1.3-.5.3-1 .7-.6 3.2-1.6-.7-2.2-2.3-2.5-4 .7.1 1 .1.9-.9Zm0-1.6c-.4 0-.6.2-.6.7-1.1-1.3-4.5-.3-5.5-1.3-.7-.7 1.4-.1 1.6-.5s-1.6-.3-1.1-.8c1.1-.9 3.4 1.4 4.6-.2 2.1-2.8 5.7-2.7 8.5.1-.5.4-1.1.5-1.2 1.2-.4 0-.8-.6-.9-.9-1.1-2.2-4.6-1.5-5.4.6Zm6.1.3c-.4-.1-.4.5-.6.5-.5-.4-1.5-.1-1.6.7-.2.3-.7.3-.8.7-.1.5-.7.8-1.1.5-.1 0-.1-.2.1-.5.3-1.4-1.2-1.8-2-1l-.3-.2v-.6h.7v-1.3c.6-1.7 3.7-2.1 4.4-.7.3.6.9 1.3 1.5 1.2.1.2 0 .8-.3.7Zm-1.1 2.1-.2.1c-.4-.2-.7 0-.7.3 0 .4-.4.3-.5.8l-.2.3-.7-.4-.1-.2c.7-.1.8-.7 1-1 .2-.2.5-.2.8-.6 0-.5.4-.8.8-.4Zm-3.4 7.9.3-1 .2.2-.3.8Zm.5 0c.1-1.6 3.6-1.8 3.6-.6s-2.1-.3-3.1.6Zm3.1-.7c0-.7-2.6-.4-2.7.4 1.2-.8 2.7.4 2.7-.4Zm5.8-2.5-.2 1.4a5.2 5.2 0 0 1-1.9-2.7Zm2.3-.8c-2.2.6-5.1-.1-4.7-3.1h-.5c-.1 3.2 1.1 4.8 3.2 6.4-1.9 1.5-4.1 3-6.6 3.3-.2-.9-.3-1.6-.3-2.5 2.1.6 2.2-1.7 0-1.7.1-3 1.1-5.8 3.8-7.5 0-1.7 1.3-3.7 1.7-.4l.9.3c-.3.3-.2.7-.5 1.4l.2.1.3-.5c-.2-1.8 2.8-.7 1.4.5l-.4.7.2.1c.5-.8 1-1.1.9-1.5l.4.1c-.5 1.9 2.9 2.2 3.5 3.4-.1.4-.3 1.2.7 1.5-.2.6-.9.4-2.2-.1l.7-1.3-.2-.1c-1.3 3.2-8.1 8.4-11 8.4-1.4 0-2.1-.4-2.6-1l.6-.1c.2.2 1 .4 1.6.4 4-.1 9.2-4.5 11-7.9l-.2-.1-.9 1.4-1.1-.8Zm-1.9.7 2.3-.3.3.2c-1.4 1.6-3.3 3.6-2.6.1Zm-8.6 3.4c.3-.2.8-.2 1.1-.1 0 .9.1 1.7.3 2.6-.5 0-1-.2-1.2-.4.1-.4.4-1.4-.2-2.1Zm-.8.6-.2-.3.7-.2c.8 1 .4 2.1-.6 1.9l.1-.3-.1-.3.1-.2-.2-.3Zm16.2-6.8c-.2.5.1.6.5.6.2 1.2-1 .6-1.7.6-.4-1.3-3.9-1.6-3.5-3.3 1 .4 3.4 1.4 5.1 1.8v.7c-.2-.1-.4-.2-.4-.4Zm-6.7 21.9.2.3-.8.4-.2-.3.4-.2.2.4c.7 1.3 1.2 1.9 1 2.4l-1.4-2.3-.4.3-.2-.3.4-.3-.7-1.2.4-.2.7 1.2Zm-10.6-11.6c-.1-.9.2-2 .5-2.8l.3 1.1c1 1.7 3.8.9 2.4 2.4-1-.4-2.1-.7-3.2-.7Zm22.6 25.2c3.1-.9 2.8-2.3 4.9-3-2.1 1.4-2.4 3.7-4.9 4Zm-13-9.2c-3.2-1.7-5.6-1.3-9.1.3l.5-1.7c3-.1 6-.5 8.1-1.3 1 1.1-.4 1.8.5 2.7Z"/></svg>