<svg xmlns="http://www.w3.org/2000/svg" xmlns:xlink="http://www.w3.org/1999/xlink" width="980" height="560"><style>.AO{fill:#6c401f}.AP{fill:#9d7a51}.AQ{stroke-width:.35}.AR{fill:#0a1a1d}.AS{fill:#faf6f5}.AT{stroke-width:.3}.AU{fill:#036a4a}.AV{fill:#00b6d9}.AW,.AX,.AY{fill:#cca76d}.AZ{fill:#6c401f}.Aa{fill:#fcd80e}.Ab{stroke:#036a4a}.Ac{stroke-width:.701}.Ad{fill:#009aaf}.Ae{fill:#0a1a1d}.Af{fill:#6c401f}.Ag{fill:#0a1a1d}.Ah{stroke:none}.Ai{fill:#9d7a51}.Aj{fill:#6c401f}.Ak{fill:#fcd80e}.Al{stroke:#cb8500}.Am{fill:#cb8500}.An{stroke-linejoin:round}.Ao{stroke-linecap:round}.Ap{stroke-width:.409}.Aq,.Ar{fill:#9d7a51}.As{fill:#fcd80e}.At{fill:#6c401f}.Au{fill:#9d7a51}</style><defs><path id="D" d="M400.9 266c-.9.7-1 2-.2 3 .7.8 2 1 2.8.3s1-2 .2-3-2-1-2.8-.3z"/><path id="E" d="M401.6 265.6s.7-.2 0 .2-1.2 2.2-.3 3 1.9.6 2.5 0-.1.3-.1.3l-1 .6-.9-.1-1-.4-.5-1-.1-1 .4-.9.4-.4z"/><path id="F" d="M404.1 270.4s-.4.3-.2 1l.4 2.4-1.8-4.2 1-.3z"/><path id="G" d="M402 281.9s1.4.3 2.2-.1 1-1 1.1-1.2c.2-.2.4-1 .4-1.4s-1.1-2.1-1.5-2.2-1.4 0-1.6-.3.1-.6-.3-.7c-.4 0-2.7 2.4-2.3 2.8s.7-.2.8.2v1.7c0 .4 1.2 1.2 1.2 1.2z"/><path id="H" d="M404.1 277.1c.2.4 1 1.5 1.4 1.6s1.3.2 1.6 0 1.4-1 1.4-1.5a2.3 2.3 0 0 0-.2-1.2c-.2-.5 0-1.6-.4-1.7s-.6-.1-.8-.4c-.2-.2.1-.6-.2-1s-3.8 1.6-3.6 2 .7 0 .8.2-.2 1.6 0 2z"/><path id="I" d="M412 276.3c.2-.5.1-2.3-.2-2.6s-1-.4-1-.7.4-.3.4-.7-4 .1-3.7.6c.3.4 1 .2 1 .4s-.7.6-.8 1 .2 1.4.4 1.7c.1.3-.1.6.3.8l.9.3c.5.2 2 0 2.2-.1.2-.2.3-.1.5-.7z"/><path id="J" d="M404.4 278.6c.3.5-.1 1.7-.4 2s-2-.2-2-.5-.2-.9 0-1.2.9-1 1.3-1c.5.2 1 .5 1 .7zm.5-2.2c-.2.5 0 1 .3 1.2s1.5.6 1.8.3.9-2.1.7-2.4-1-.4-1.2-.4c-.2 0-1.5 1-1.6 1.3zm4.2-2c-.2.4-.1 1 0 1.1s1 .8 1.5.8.7-1.4.7-1.7-.1-.4-.5-.5c-.3-.2-1.7.3-1.7.3z"/><radialGradient id="A" cx="846.8" cy="88.605" r="25.859" fx="846.8" fy="88.605" gradientTransform="matrix(.16281 .0221 -.01992 .15265 355.694 196.138)" gradientUnits="userSpaceOnUse"><stop offset="0" stop-color="#faf6f5"/><stop offset="1" stop-color="#f42a41"/></radialGradient><radialGradient id="B" cx="658.36" cy="538.924" r="25.859" fx="658.36" fy="538.924" gradientTransform="matrix(.02438 -.15857 .14817 .02257 339.958 -141.351)" gradientUnits="userSpaceOnUse"><stop offset="0" stop-color="#faf6f5"/><stop offset="1" stop-color="#f42a41"/></radialGradient><radialGradient id="C" cx="680.128" cy="560.573" r="25.859" fx="680.128" fy="560.573" gradientTransform="matrix(.00795 -.16394 .17063 .008 419.804 -238.947)" gradientUnits="userSpaceOnUse"><stop offset="0" stop-color="#faf6f5"/><stop offset="1" stop-color="#f42a41"/></radialGradient></defs><path fill="#e30631" d="M0 0h980v560H0z"/><path d="M0 0h653.3v560H0z" class="AS"/><path fill="#036a4a" d="M0 0h326.7v560H0z"/><g class="Ak Al" transform="translate(-.699 1.184) scale(1.16833)"><path d="m467 303.5.3 6 2.2-1.6-1.7-4.8z" class="AQ"/><circle cx="466.703" cy="301.93" r="1.892" class="AT"/><path d="m474 312.7-4.3-4.1-2 1.5 6 3.4z" class="AQ"/><path d="M473.6 315c-.6-.8-.4-2 .5-2.6s2-.6 2.6.2c.6.9.4 2-.4 2.7s-2 .5-2.7-.3z" class="AT"/><path d="m507 251.2 4.4 4.4.6-2.2-4-2.7z" class="AQ"/><circle cx="506.451" cy="250.09" r="1.845" class="AT"/><path d="m518.6 253.8-6.7 2 .6-2.3 5.8-.5z" class="AQ"/><circle cx="519.742" cy="252.89" r="1.803" class="AT"/><path d="m496 287-4-6.4.6-.3 4.6 5.5z" class="AQ"/><circle cx="491.518" cy="279.115" r="1.909" class="AT"/><path d="m496.3 287.2 5.2 1 .2-.8-4.4-1.7z" class="AQ"/><g class="AT"><circle cx="503.102" cy="288.18" r="1.889"/><path d="M373.6 301.7c0 1-.7 1.6-1.4 1.6s-1.2-.8-1.2-1.7.5-1.6 1.2-1.6 1.4.8 1.4 1.7z"/></g><path d="m373.6 304.6 1.2 6.6-1.6-.6-.6-5.7z" class="AQ"/><g class="AT"><path d="M375 302.4c.8 1-.5 2.5-1.9 3s-3.1-.4-3-1.6c0-1.4 2-.7 2.5-.9.8-.2 1.6-1.5 2.4-.5z"/><ellipse cx="363.566" cy="312.49" rx="2.045" ry="1.483"/></g><path d="m367 312.1 6.3-.3-1-1.2-5.2.5z" class="AQ"/><g class="AT"><path d="M367.6 311.4c.5 1.6.5 3.8-1.3 3.6s-1.4-1.9-1.5-2.5c-.3-1.1-1.4-2.1-.3-3.2s2.5.5 3 2.1z"/><ellipse cx="347.006" cy="276.955" rx="1.236" ry="1.881"/></g><path d="m347 281.1.2 6.1-1.6-1.4.1-4.9z" class="AQ"/><g class="AT"><path d="M349.4 279.3c.3 1.4-1.8 2.2-3.2 1.9s-2.4-1-2.2-2.3 2-1 2.5-.6 2.4-1 2.9 1z"/><ellipse cx="336.229" cy="286.5" rx="2.13" ry=".973"/></g><path d="m340 286.5 4.9-.3 2 1.6-7-.3z" class="AQ"/><path d="M338.3 284c1.3 0 2.2 1.4 2 3s-1.3 2.6-2.5 2.5c-1.2-.2-1.1-1.2-1.1-1.5s.7-.9.8-1.4-.4-1.5-.2-2 .4-.7 1-.7zm-3.9-37.3c-.5.9-1.5 1.5-2 1.2s-.4-1.5.2-2.4 1.3-1.2 1.9-1 .5 1.4 0 2.2z" class="AT"/><path d="m329 256.4 2.8-6.4-.4-.3-3 4.4z" class="AQ"/><path d="M331.3 250c-1.4-1-1.6-2-1.2-2.9s1.4-.3 1.4-.3.6.7 1.1 1c.5.2 1.3-.1 1.9.7s.2 1.6-.3 1.8-1.8.6-3-.2zm-11.2-.8c1 .6 1.5 1.5 1.2 2-.4.7-1.4.7-2.4.2-.9-.6-1.4-1.5-1-2s1.3-.7 2.2-.2z" class="AT"/><path d="m323 252 4.9 3-.2 2.3-5.3-4.6z" class="AQ"/><path d="M322.9 252.6c-1.1 1.2-2.1 1.4-3 .8s-.2-1.5-.2-1.5.8-.5 1-1 .1-1.3 1-1.7 1.6 0 1.7.4.4 2-.5 3z" class="AT"/></g><g class="Am"><path d="M546.1 356.3s-.4.3-.6.8c-.3.4-.5 1.3-.5 1.3v-2.2l.8-.4.3.5z"/><path d="M546.4 355s-.5.8-1.7.7c-1.2 0-1.8-.6-2-1.2-.1-.6-.1-1.1.3-1.8s-.6.7-.6.7v1.3l.9 1.1.7.2h.8l1-.2.6-.5zm6.5 11.2s-.6.3-1 .2c-3-1-5.4-2.8-5.4-2.8l5.8 3.7zm3.6 1.7s0 1-1.2 1.5-1.9.3-2.3-.2-.6-1-.6-1.7c0-.9-.2.8-.2.8l.6 1.3 1.3.5.8-.1.7-.3.7-.8.4-.7zm37.2-73-.1.6v1l-1.3-1.3.6-.9zm-.6-1.8c0 1-1.4 2.4-2.5 2s-2-1.6-1.3-2.8-.3.5-.3.5l.1 1.6 1 1h1.4l1-.5.6-1.2zm15.3 2.7s-.2-.7 0 .1c0 .8-1 2.5-2.1 2.3-1.2-.1-1.7-1.2-1.6-2.1s-.2.3-.2.3l.2 1.3.6.6.9.5 1-.2 1-.6.4-.9v-.6z"/><path d="M603.2 297s0 .5-.7.9l-2 1.2 4.3-1.3-.3-1-1.3.2zM577 331.3s-.3.3-.3.8a6.5 6.5 0 0 0 .1 1.2l-2.4-3.8.7-.5 1.9 2.3zm-1.4-3.6c-.4 1-2.2 1.7-3 1.2s-1.6-2.4-.6-3.2l-.5.5-.3 1 .4 1.1.9 1 .8.2 1.2-.2.9-.7s.7-1.9.2-.9zm8.6 8.8s0 .5-.8.5H581l4 .8.3-.8z"/><path d="M589.1 337.4c.4 1.4-.8 2.7-2.3 2.2-1.6-.4-2-2-1.5-2.8l-.4 1 .3 1.3 1 .8.9.2 1-.2 1-1 .2-1.1zm-151.8 17.2c.4.4-.2 2.2-2 2.9s-2.5 0-3-.6-.4-1.2-.4-1.2l-.3.3.2 1 1 .7 1.5.3 1.1-.2 1.1-.6.6-.6.5-.7v-1l-.2-.4h-.1z"/><path d="M435.8 358.4s-.3 0-.6.5l-.4 1.2v-2l.8-.5zm-5.8 6.1s-.2.5.3.7c.4.3 1.5.5 1.5.5l-2.8.1-.3-1zm-1 1.8v.3c0 .2 0 .5-.2.8-.3.7-.5 1.5-1.5 1.3-1-.2-1.5-1-1.6-1.6s-.3-1-.3-1v1l.6 1.5 1 .4h1l.7-.2.3-1 .2-.7z"/><path d="M421.8 366.1s.3 1.3 1.8 1.4 1.8-.4 1.8-.4l.2.5-.5.2-1.3.2-1.1-.2-.5-.4-.4-.7zm-14.5-39v.7c0 .5-1 1.6-2.7 1.6s-2.3-.5-2.8-1-.5-1.4-.5-1.4v.8l.6 1 1.6.9h1.6l1.6-.5.7-.8.1-.8-.2-.4zm-2.6 3.6s-.6 0-1 .3l-.5.6v-2l1.5.1zm-7.2 5.2s-.1.2.8.5 4.8.9 4.8.9l-6.3-.2.2-1zm-.7.2-.3.8c-.3.6-1.1 2.4-2.5 2.1s-1.1-1.1-1.1-1.3v-.4l-.3 1 .3.6.6.3 1 .2.8-.4.8-.7.4-.8.3-.9zm-3.4.1s0 .3-1 .4c-1.1 0-2.6-.5-2.6-.5l.5.7.8.2h2zm-3.2-44.3s.2.7-.4 1.1-1.9.7-2.7.3-2.3-2-2.3-2l.7 1.2 1 1 1.6.4 1.5-.2.6-.6.2-.5z"/><path d="M385.7 294v.8c0 .7-.3 1.8-.3 1.8l1.4-3-.6-.5zm-8.2 2.3s-.2-.2.2.7 3.7 4 3.7 4l-5.2-4.4.6-.9.7.6zm-1.7.5s-.7.4-1.3.4c-.6 0-1.6 0-1.7-.7-.1-.7.2-1 .2-1l-.4 1 .1.5.8.4 1 .1 1-.4.3-.3zm-2.1-2.2s0 .2-1 0-2-1.2-2-1.2l.7 1.2 1.7.7z"/></g><g fill="#cca76d"><path d="M612.5 280.2c-.5 6-6.3 9-9.4 11.1s-4.5 5-4.5 5l-1 3.4-.5 2.2v.7c.1.6.4 1.7.4 3.3.1 2.7-.2 6.5-.2 6.5l4.1-3 3-1 .9-.2s-3.3 3.3-4.6 6.8-3.7 11-8.2 13.4c-4.4 2.5-7.2 1.5-8.7 2.8s-1.6 1.6-1.6 1.6l-1.9 2.7-1.5 2-1.4.9-.9.7c0 .7-.1 1.7-.3 2.5l-1.1 3.7s.9-.6 2-.7l2-.1s-.8 1-1 2 .1 7.1-5.7 10.7-20.4 3-20.4 3l-2.8 1.2-2.6 2-2.4 2.6-.2.7s-1.8 2.2-3.1 3l-4.3 2.9s2.5-.1 3.4.2l5.4 2.3s-3.4 0-5.6.8-12.6 6.7-17.5 6.5-12.1-7.4-12.1-7.4l-3.2-2.3-5.4-1-6.6-.4.1-.8.1-1.1s2.3-.3 5.9.2c3 .3 4.1 1.4 6.7 1.7s4.5-.1 5.4-.5c1-.5 9-7.2 9-7.2l9-3.2 3.4.5 1.5.4 1.4.4s-.5.8-1.5 1.7-2.2 1.6-2.2 1.6l1 .8 5.8-.9 1.8.5.5.3c.1-.4.4-1.3.9-2 .7-.8 3.9-3.4 5.2-4.3 1.4-1 1.7-1 2.1-1.6s2.3-5.2 2.3-5.2l.3-2.4 6.2-6 4.3-4.5 1.8-5.2-.2-1s1.5 1.6 1.3 4.7-1 4.3-1 4.3 4.3-3 6.6-4c1.8-.7 3.2-.7 3.6-.6.6-.4 2.3-1.4 3.3-2.9 1.2-1.8 1.5-2.3 1.5-3l.2-4.3-.4-10.8 3.7-8.2 5.4-4.8 1-.6s-.4 1.1-.5 2v2.1s2.6-3.7 4-4.4l.9-.4a10.7 10.7 0 0 0 1-3c.5-2 .6-4.8.6-4.8v-4.5l-.8-3.5-2.5-6.7v-8.8l-2-2.5s1.8-.1 4 3 2.8 7.6 2.8 7.6l5.1-15.6s1.4 1.9 2.4 5c1 3 1.2 5.1 1.2 5.1l2-4.3.3 1.5c.3 1.5 3.4 3.3 3 9.1zM509.3 380s-1-2.3-5.9-4.8-8.5-2.9-8.5-2.9v1.8l7.6 3.4 3.8 3.1 3-.6z"/><path fill="#0f7d3a" d="M544.2 365.3c.5-.6 4.6-4.3 6.8-5.4s4.9-1.3 4.9-1.3c2.9-.5 3.4-.1 10-3.8s8.3-8 9.6-9 3.6-1.3 3.6-1.3l-5.2 6c-2.5 2.7-5.1 4.4-9 7s-11.6 2.6-11.6 2.6c-3.3.8-4.4 1.6-6.2 3.2a22.3 22.3 0 0 0-3.1 3.4s-.2-.8.2-1.4zm18.6-19.5c-6.2 5.7-8.3 11-8.3 11s5.5-4.8 8.4-7.5 6.8-4 8.6-5.7 1.9-3 3-4.1l2-1.6s-2.7-2.1-13.7 8zM549.7 359s2.6-1.2 3.6-3.6c.8-1.7.4-2.2 1.5-4.2 0 0 6.5-6.3 8.8-9 4-4.8 2.2-8.7 2.2-8.7s.5 2-1.2 4.1-10 7.9-11 11.2-.5 3.4-1 5.1c-1 4-3 5-3 5zm-4.3 16.1s-3.3-2.2-7-2c-7.4.5-13.7 5.1-18.6 5.2-4.9.2-6.8-2.3-10.6-4.9-4-2.7-14-2.3-14-2.3l-.1.2-.1.3s6.9 0 9.8.9c5.6 1.5 8.7 7.4 15 7 8.3-.5 15-5.5 18.5-5.5 5.8 0 7 1.1 7 1.1zm-37-3.7s5.9 1 10.3-2.3 9.8-7.7 12.8-8 6 .6 6 .6-3.7-1.6-6.7-1.6-6 .5-8.8 2.1-4.2 4.7-7.2 6.7-6.3 2.5-6.3 2.5zm-1 7.7c-.7 0-1.6.5-2 .5s-2-2-4.4-3.2-6.2-2.1-6.2-2.1-.4 0 .4.4 3.8 1.3 5.8 2.2 3.9 3 4 3.3c.2.3 1 1.2 2.4 1.2s2-.9 1.8-1.4c-.1-.6-1-.9-1.7-.9zm4.1-5.6s2.3 1.3 6 1.2c8.1-.2 13.2-5.7 18.5-7.7 5.3-2 8-.3 8-.3s.1-.3 0-.4c-.8-.6-3.2-1.9-6-1.9-8.8.2-17.1 5.8-20.7 7.3a28 28 0 0 1-5.8 1.8zm85.8-61c-2.8 2.7-6.8 11.7-8.6 14.1s-4 3.2-5 4.2c-.9.9-4.1 5.3-4.9 6.3s-1 .8-1.4 1.2-.8.5 0 .3c.9-.2 1.2-.8 2.5-2.3s1.3-2.2 3.4-4.1 6-4.1 8-6.5 5.8-11.4 7.9-13.7c2.2-2.4 6-3.8 6-3.8s-3-.9-8 4.2zm-13.8 17s-.1-1.7 1.9-4 2.7-2.1 4.2-5.6 2.3-6.9 3.6-10.6 3.6-7.3 3.6-7.3-2.1.2-4.3 3-5.5 8.2-7.2 13.4-1.8 11-1.8 11zm-2.6 3.3s.8-.4.9-4.9c0-4.5-.3-10.8 1-14s8.2-10.6 8.2-10.6-2.9.7-6.8 4-5.7 7-5.5 10.1c.2 3 1.9 6.5 2 9.4a225.8 225.8 0 0 1 .2 6zm16.2-31s1.7-6 2.4-7.5.7-2.4 4.2-6.2c2-2.2 3.9-3.7 4.7-6.8.9-3 .8-11.7.8-11.7s-.9.8-1.6 2.3-.2 7.1-1.5 9.7-4.2 8.7-5.7 10c0 0-.3-4.3.3-8.7s2-5.8 2.6-8.7c.7-2.9.3-10.4.3-10.4s-2.3 2.5-3.5 5.3c-1.2 2.7-1.9 7.8-1.9 11.5s.9 6.9 1 9c.1 2.2.3 3.2-.6 5.5s-.4.8-1 3l-1 4zm-5.4-33s2 2.6 1.8 5.6-1.5 6.8-.3 10 2.8 3.3 3.3 5.1.5 5.3.5 5.3 1-6.6.3-8.4-1-1-2-3 .1-7.1-.6-10.2-3-4.4-3-4.4z"/><path d="M469.6 379.4s.6-1.7 4.8-3.8 10.5-4.8 11-4.4-.2 2.6-.2 2.6l-4 1.3-3.3 1.9-3.8 2.4z"/><path d="M480.3 368.4c-5.4.2-8.3 1.6-9.3 1.8-.4 0-1.1.6-1.8.2-1.2-.6-2.3-2.3-2.3-2.3l-1.2-1-.2 3.9-7.8-6.8-.9 4.5-1 2-7.7-7.2.4 5.6-2.1.2-5.6-3.8-1.6.5 1.8 3.3-7 .6s-.5.3-1.5 1.2-1.4 1.7-1.4 1.7-.2.3 0 .5 2.2.1 2.8-.1 1-1 1.1-.8.4 2 1.3 1.8 4.2-2.6 6.5-1.6c2.6 1.2-3.3 3-2.7 4.8.6 1.8 4.8 1 6 .5 1-.6 4.2-4.6 5.6-3.1 1.8 2.1-4 3.8-2.9 6 1 2 4.3 1.5 5.8.6s5.1-6.4 6-5.2c1.3 2-3.1 4-2 5.7s3.5-.1 5.2-1.2 2.2-3.9 4.5-5.1 2-.8 2.7-.8c.6 0 2.3-1.7 2.3-1.7l5.3-2.3 2.6.2 1.3.6 2.6.4.3-2.2s-3-1.4-5.1-1.4zm-42.2 0 1.2-1.9-.7-1s-1.8-1-3.5-2.7c-1.7-1.7-2.3-2.1-3.1-2.5l-3.4-2.1-1.2-4.3-.7-1.3-2 .8-2.6-9.3-.5-1.7h-1.1l-2.2 5.6-2.4-3.6-.6-7.7-1.6 1.7-2 2-3.4-7s-.3-.2-.4.4c-.2.6-.5 2.8-.3 4a38.6 38.6 0 0 1-9-8L397 326l1.5-3.3.8-3.9-3.4 1.4-.6-8.8-.5-2.7-4.1 5.8-1.6-2.5v-5.6l-1-.3-1.7 3.1s-1.6-3.2-2.3-3.9c.1-1.2.3-4.4-.5-6.8-1-3.2-2-4.8-1.6-7.4s1.4-2.7 1.3-3.9-1.8.8-1.3-.7 6-5 4.8-6.7-6.2 2.8-5-.3 6.1-3 6.4-7.4c.1-2.6-4.7 1.7-5.1.4s3-4.1 3-5.9.6-1.9-.4-2.8-3.9 3.6-3.9 3.6l-3.2-1.2-1.1 4.6-1 4-4-2.4 1 4.7 1 4.7-4.1-1 2.2 3.9 2.8 2.9 1.8 2.4 1.3.7 1.7 1.7.6 2.5 1 3a364.7 364.7 0 0 0 .1 2.7v3.7l-.2.6v1.7c-.8 0-2-1.2-2.5-.4-.5.8 2.4 3 1.8 3.6s-4.7-.8-5 .5.4 3.3 2.8 4 8.2 1.8 7.2 3c-1 1-7.1-3.4-6.9-.2s2.4 4.7 4 5.3 7.8-.1 7.5 1.4-5-.5-5.5 1.6 3.2 2.4 4 2.4 3.4 0 4.4.7 4.5 4.4 6.7 6.3c1.9 1.6 5.9 4.4 7 5.2-1.2-.1-3.6-.4-4 .5-.5 1.1 9.3 4.6 6.5 5.7s-5.9-3-6.7-.5 1.9 4.6 3.4 5.6 10.3.1 8.6 2.1c-1.7 2-8-1.3-8.1 1s4.2 6 6.4 6c2.2-.1 4.6-3.6 5.6-1.7s-1.7 2.6.4 3.1 3.6-2.1 6-1.6 6.3 2 8.5 4a121.1 121.1 0 0 1 4.3 4.2z"/><path fill="#0f7d3a" d="M472.2 378.3c1.5 0 1.7.9 1.9.9s2.7-2.2 5-3.5 6-2.1 6-2.1l.3.3s-4.3 1-6.4 2.5l-4.8 3.3c0 .4-1 1-2.5 1s-2-.8-2-1.3c0-.4 1-1 2.5-1zm13-6.6s-1.3.2-2-.5-2.4-1.2-4-1.2-4 .9-6 2.8c-.1.1-.5.9-2.2 2 .6.1 1.7-.7 3-1.7 1.8-1.4 4-1.8 5.6-2 1.6-.3 2.6.6 3.3 1.1.8.5 2.2.4 2.2.4zm-77.4-31.6c.2 0 .1-.4 0-1-.2-.1-1.2-.5-3.3-1.8-2.6-1.5-7.8-5.7-7.8-5.7l4.3 4c2.2 2 6.2 4.5 6.2 4.5h.6zm54.7 38.7 2.2-3.3c1.5-2.3 2.7-3 2.9-3.3s-.6-1.4-1-2.3-.3-1.7-.3-1.8.5 1.3 1.5 2.1a14.6 14.6 0 0 1 1.7 1.5s2-.3 2.1-.7 0-.7-.4-.8-.7.3-1.7-.2c-2-.8-2.7-3.8-3.9-3.9s-.3 3.2-.8 3.2c-1.9.2-3.3-6.6-7.6-6.9-3-.2-3.6.4-3.8 1s3.7 4.8 2.4 5.4c-1.3.6-5.4-6.4-8.4-6.5s-3.2 1.1-3 1.8 3.3 1.2 2.6 3.4c-.7 2-3.7-3.3-6.4-3s-3.1.5-3.2 1.3 1 2 .5 2.2-2.1.2-3.5 1.2-3.3 3.6-3.3 3.6 1.8-2.6 4.2-2.9 8.5 0 8.5 0l-1.7-1.3c-.9-.8-1.7-2.4-1.7-2.4l2.7 2.3c1.3 1 2.9 1.9 2.9 1.9s2.6.2 2.7.5 0 1-1.1 2l-2.6 2.6 3-2.4 2.4-1.8s1.8.3 2 .2.2-.7-1.1-2.6l-2.5-3.8s1.6 1.4 3.1 3.5 1.4 3 2 3.1l2.2.2c.6 0 .5 1-.6 2.6s-1.8 3.8-1.8 3.8 1.2-1.8 2.4-3 1.8-2.7 2.2-2.8 2.1.1 2.3 0c.3 0-.3-.7-1.2-2.5-.8-1.7-1.1-4-1.1-4s.8 2.2 2.1 3.8 1.8 3 2 3l2-.2c.5 0 .5 0 .5.2.2.7-.1 1.1-1 2.8s-1.4 3.2-1.4 3.2zm-33-19.2c1.8.7 2.5.7 2.5.7s-2.6-1.5-3.2-3.7-.1-6.6-1.2-6.6-1.7 3.3-2.8 2.7.3-6.7-.8-9.3c-1.2-2.6-4-4.3-4.7-3.4-.6 1-.5 6.5-2.2 5.3s.1-6-.4-8.2-1.9-3.7-2.8-3.2.3 4.6-1.2 4.7-1.4-2.9-2-3.2-1 .6-1.3 0-.2-2.6-1-2.4-.7 1.8-.4 2.7c.2.9.7 2.2 1 2.7s1.6 1.4 1.5 1.8-.7 1-1.6 1l-2.7-.1 2.8.7c.8.1 2.2-.3 2.6.4l2.2 3s.4-1.2.6-3.4c.2-2.2.1-4.2.1-4.2s.6 2.6.6 4.1-.7 4.6-.7 4.6 1.7 1.4 1.2 1.8-2.2.3-4.3.3-5-.8-5-.8 2.6 1.3 4.5 1.6c1.8.3 5.8.4 5.8.4l2.7 3.1s1.4-2.2 1.5-4.5 0-4.8 0-4.8.6 2.3.7 4.3-.7 5.5-1 5.8-1.6 1.2-2.8 1.5c-1.8.5-5.4 1-5.4 1s3.3.4 5.7-.2c2.4-.6 2.7-1.2 3.4-.8s1.2 1.1 1.2 1.1 1.5 1.1 2.1 1.4c.1.3-1 .8-1.7 1.1l-2.2 1.2 3.4-1.2 1.8-.6.7.4-.2-1.9a41.8 41.8 0 0 0-.5-2.8s.8 1.3 1 2.5l.3 2.5s.2.3 2.1 1zM381.6 305s.6-2.5.6-5.5-2.1-7.5-2.4-8a7.5 7.5 0 0 1-.6-.9l1.4-2.1-1.8 1.4s-1-.2-1.8-.8-1.3-1.3-1.3-1.3.9.7 1.8 1 1 .3 1 .3l-.6-3-3-1.5c-2-1.1-3.8-3-3.8-3s2.7 1.7 4.3 2.4c1.5.6 2.4.7 2.4.7s1.6-.5 2.5-1 2.5-1.8 2.5-1.8-1.6 1-2.7 1.2l-2.4.4-.5-3.6-1.7-1.8c-1.4-1.8-2.4-4.3-2.4-4.3s1.4 1.7 2.5 2.6c1.1.8 2.2 2.2 2.2 2.2l2.5-1.5c1.3-.8 4.3-3.1 4.3-3.1l-4.2 2-2.5 1s-.2-1.5.1-2.2 1.2-1.8 1-2.5-.6-.4-.8-1 .6-4 .6-4l.3 1.9c0 .7-.3 1.5.5 1.5s5-4.1 5.5-4.9 1.3-2.9-.8-2c-2.2.8-1.7 2.7-3.5 2.5-.5 0-1-2.3-1.8-1.7-.6.5-2.2 2-2.4 3.5s.3 4.1-.6 4.9-1.7-2.8-3.5-2.3-2.2 2.9-1.9 3.9 4.2 5.5 3 6-4.3-3.8-6-.8 5.2 6 6 6.8.1.9 1.3 2.4 2.8 1.8 3.6 2.9 3.3 5.8 3.3 8.9-.2 4.2-.2 4.2zm18 26.2s-1.7-1.9-1.1-5 2.7-8.9 2-9.6-3 3.5-3.7 2.5 1.4-6.6.4-8.9-1.1-3.8-3.1-3.6-2.9 6.8-3.8 5.6.5-4-.1-5.6-1-2.1-2-1.9-1.4 3.3-2.1 3.3c-.7-.1-1.9-3.7-3.3-3.2-1.5.5 3.4 6.9 3.4 6.9s.9-.8 1.3-1.9l1-2.2s.3 2 0 2.9l-.7 2.7s-1.1.3-3.1 0-3.6-1-3.6-1 1.3.8 3.3 1.3a125.6 125.6 0 0 1 4.2 1.2s.5.7 1.4 1.9a436.9 436.9 0 0 0 1.7 2.2s.6-1.3 1.1-3.3 2-5.2 2-5.2-.5 4-1 5.9-.9 4.7-.9 4.7l-4-.6c-2.4-.4-5.6-1.3-5.6-1.3s2.8 1.1 5.5 1.9l4.4 1.2 2.1 2.8 1.5-2.2c.8-1.2 1.5-2.8 1.5-2.8s-.4 2.2-1 3.5l-1.2 2s-1.3.4-2.6.4h-3.9s2.2.7 4 1l2.9.4s.1.8 1 2c1 1.4 2.1 2 2.1 2z"/></g><path d="M481.5 388.6s-1-1-2.3-1.7-1.7-.5-1.7-.5l-.6-.2 1.1-3 8.5-8 1.4-8.3h5.2V378l1.5.7 9.5 5.7v2.5l-1.4.6c-1 .3-1.1.6-1.1.6l-3.6.3-6.3-4.5-2.6-2.7-4.7 6-3 1.4z" class="AS"/><path fill="#036a4a" d="m488.2 367-.2 1.6-.3 8.8c-.3.9-4.9 2.8-7.5 5-2.6 2.3-2.7 4-2.7 4s-.9 0-2.5.7-2.4 1.5-2.4 1.5 1-4 5.2-7.8c4.3-3.8 6.4-4.1 6.8-4.8s0-7.8.1-8.4c.1-.6.6-.6 1-.7h2.5zm10.8 24s.7-1.3 1.1-1.7l1.5-1.2s.1-.2-2.2-1.2-3.5-.6-5.2-1.8-3.3-3.2-3.3-3.2l-2.2 2s1.3 1.8 2.6 3 4 1.7 5.4 2.4 2.3 1.7 2.3 1.7z"/><g fill="#e30631"><path d="M492.3 366.9s2.5-.2 2.9.2.3.8.3 1c0 0 .1 6-.3 8-.5 2-1.5 4.1-2.1 4.7l-6.2 5.7a40 40 0 0 0-3.6 4.2l-1.2-1.4c-.6-.7-1.2-1-1-1.4s2-3.3 5-5.3 5.5-4.3 6.1-7.5c.6-3.2.1-8.2.1-8.2z"/><path d="M509.1 387.3s-.6-.6-2.7-.7c-2.1 0-2.3.3-2.3.3s-1.2-1.4-3-2.7-3.4-1-5.4-2.3-3-3.3-3-3.3l1.5-3.2s1.7 2.5 3.5 3.8 5.9 2.6 7.1 3.7l4.3 4.4z"/></g><g stroke="#2d86cf"><path fill="#00b6d9" stroke-width=".818" d="M528.2 351s-5.4-2-5-4 12.6-5.1 12.6-5.1l.2-3.2s-1.8-.1-4.9.9-8 2.3-13.2 2.3c-3.2 0-5-.3-5.8-.6a2840.1 2840.1 0 0 0-46.9-2.7c-5.7-.5-9.3-9.1-9.3-9.1l-2.7.4s.8 4.3-.6 4.7c-2.8.7-21.3-9.2-21.3-9.2l-1 4s11.3 6.1 11 8.3-3.7 2.1-3.7 2.1l1.4 2.7c.5 0 18.6 1 19 6.4 0 2.2-4.5 3.5-4.5 3.5l1.5 1.8v1s10 0 12.9 1.6 4.2 3.8 7.6 5.8 26.6 1.4 30.2.4c4-1.1 6.6-5.8 13.2-7.8s8.9-2.1 8.9-2.1z"/><g stroke-width="1.37" class="AS" transform="translate(-.699 1.184) scale(1.16833)"><circle cx="373.416" cy="292.05" r="2.745"/><circle cx="389.095" cy="279.26" r="2.746"/><circle cx="454.822" cy="299.74" r="2.817"/></g></g><path d="M421.2 322.6c-1 2.5 3 7 6 7.6s4.4-.2 5-1.6 0-3-.6-3.9c-1.8-2.5-9.4-4.5-10.4-2z" class="Aa"/><path d="M430.3 326.3c0-1.4-2.5-2.8-4-2.8s-3.1 0-2.9.7 4.3 1.9 4.4 2.3-1.2 1-.6 1.7 1.5.1 2.1-.3 1-.6 1-1.6z" class="AS"/><path d="M455.8 354c.6 2.1-1 3.2-3.2 4.1s-6.5.4-7.5-1.3 1.6-4.5 4.3-5.1 5.8.4 6.4 2.3z" class="Aa"/><path d="M451.4 355.3c.8-.2.8 1.2 1.5 1.1.8 0 1.4-1.3 1.2-2s-1.6-2-2.7-2-4.8 3.2-4.4 4 1.2.7 1.9.4 1.6-1.4 2.5-1.5z" class="AS"/><path d="M534.8 343c2 2.5 5.4.2 6.4-.8s3.8-2.7 2.6-4.4-3.2-1.5-4.5-1.5-4 2-4.5 3c-.5.9-.9 2.5 0 3.7z" class="Aa"/><path d="M535.4 341.3s.2-2.9 2.8-3c1.5 0 1.6.4 2.7 1 1.1.7 1.6-.8 1.6-.8s0 2-1.8 2c-1.8.1-1.1-.7-3-1-1.5-.2-2.3 1.8-2.3 1.8z" class="AS"/><g fill="#ffb81c" stroke="#961538"><g stroke-width=".7" class="An"><path d="m492.8 335.8-1.3-.8-4.3-.1-5.2.2 5.2 15 6.2 9 2.4 1 4.8-.4.9-2.4-1.9-14.5-6.8-7z"/><path d="m475.6 336.7.3-1.7 2.8-.2c1.6 0 3 .1 3.3.3.1 0 3.6 4.3 4.8 7 1.2 2.9 2.6 7.5 4.1 10.3 1.6 2.9 4.9 7.6 4.9 7.6l-3.1.1h-3.1l-2.8-1-8.8-13.7-2.4-8.7z"/><path d="M472 334.9s3.6 0 3.9.1 4.3 3.8 5.9 8.1.8 5 2.8 9.5c2.1 4.5 5 7.6 5 7.6s-6 .3-9.4-.3-4.6-.5-5.4-1.5c-.8-1-2.6-2-2.6-2h-3.4l.8-4.8-1-10.6.3-5.4 3-.7zm35.8 2.8-5.7-2.4-10.6-.5.8 5.4c.4 2.7 2.2 8.8 4 11.9s3.4 6.7 4.3 7.6 7-1.7 7-1.7l4-.6-.5-4.3-.5-1.4.9-12.3-.9-2z"/><path d="M470.2 337.7c0 1.4 1.5 1.5 1.8 1.4s1.6-.5 1.6-2.4-1.1-3.2-3.3-3.3-4 2.6-4 4.5 2 2.9 2 3.6c0 0-2 1.7-1.8 4.8s2.5 5.4 2.5 5.4-2.6 2.1-2.6 4.3 2 3.5 4 3.5 4.2-1.2 4.2-2.8c0-1.7-1.4-2.6-2.6-2.6s-1.7.7-1.7 1.2m39.3-16.7c0 1.3-.8 1.4-1.6 1.4s-1.7-.4-1.7-2.1 2.2-2.6 3.6-2.6 3.8 2 3.8 4.3-1.7 3.8-1.7 3.8 1 .5 1 3.5-1.9 5-1.9 5 2.5 1 2.5 4-2.1 4-3.6 4-4-.8-4-2.9 1.4-2.8 2.4-2.8 2 1.2 2 2.3" class="Ao"/></g><path fill="#961538" d="M473.9 354.6s.4.2.6.8c.3.6.5 1.6 1.2 2.2 1.3 1.1 11.1 1.5 14.1 1.5s12 .4 13.7-.6 1.9-2.7 2.9-3.4 1.3-.7 1.3-.7l-1.3 1v2.2l.7 1.1s-.2.6-1.2 1.3-2 .9-3.4 1-20.3.1-23.4-.4c-3-.5-2.8-.4-3.7-1.1a6.6 6.6 0 0 1-1.4-1.4l.4-1.3-.5-2.2zm30.6-18.1 1.7.7s-1.5.5-2.5 3.5c-1.1 3-.2 4-1 4.2-.7.3-8.9 0-8.9 0l-1.4-3.3z" class="Ah"/></g><g fill="#0a1a1d"><path d="M530.5 335.3s-1.4-.5-2-1.6-1.2-2.7-.7-3c.5-.3 1.5.7 1.4 1.6 0 1 1.3 3 1.3 3zm16-4.4s1 1.8 1.3 2l2 1s-2.3 0-3-.7-1.7-2.2-1.7-2.2zm4.8 1.5s-1.4.8-2.5.3-2-1-1.6-1.6c.5-.5.8-.3 1.3.4.6.6 2.8.9 2.8.9zm8.1-6.9s-1.1 1-1.9 1-2.4-.3-2.4-.7 2.1-.5 2.5-.5l1.8.2zm-12.2-16s-1.7.5-2.3 1.4-.5 1.9.3 1.9c.7-.1.9-1.1.9-1.4 0-.3 1.1-2 1.1-2zm-8 4.3s-1.3.9-1.7 1.6c-.3.8-.6 2.4.2 2.5s1-1.3 1-2l.5-2z"/><path d="m525 323.5-4.5 4.7s10.1 5.6 17.9 5.4c7.8-.3 16.6-6.4 17.2-7.6.6-1.3.1-6.7-.9-8.4s-6.4-6-8.4-5.7-5.6 3-9 6.2-3 6-7.6 5.7l-4.8-.3z" class="AV Ab Ac"/><path d="M523.8 325.4s10.8 1.6 14-1.2c3-2.7 6.4-8.1 8.6-9.3s3.2-1.3 3.2-1.3l2.4 1.7 2.7 2.3.9 5.1v2.9l-3.3 2.7-6.2 2.9-6 1.8-5-.1-10.2-3-2.6-1.8-.7-.6z" class="Ad"/><path d="M540.3 319.1c0-.9.6-.8 1.4-.8s1.7.1 1.7 1-.9 2.3-1.7 2.3-1.4-1.5-1.4-2.5zm4.3 2.8c0-.9.7-1.3 1.7-1.3s1.8 1 1.8 2-.8 1.4-1.7 1.4-1.8-1.3-1.8-2.1zm-1.5 6.4c0-1 .7-1.2 1.7-1.2s1.6.4 1.6 1.5-.9 1.8-1.8 1.8-1.5-1-1.5-2zm-5.7-2c0-1 1-1.4 2-1.4s1.6.9 1.6 2-.7 2-1.6 2-2-1.5-2-2.6zm-9 1.1a2.2 2.2 0 1 1 4.4 0 2.2 2.2 0 1 1-4.4 0z" class="AU"/><path d="M544.6 321.9c0-.8 1-1.3 1.7-1.3.6 0 1 .6 1 1.3 0 .8-.4 1.4-1 1.4s-1.7-.7-1.7-1.4zm-1.4 6.2c0-.9.8-1.3 1.7-1.3s1.6.4 1.6 1.3c0 .8-.8 1.5-1.7 1.5s-1.6-.7-1.6-1.5zm-5.7-2c0-.9 1.5-1.3 2.2-1.3s.5.6.5 1.6-.5 1.7-1.2 1.7-1.5-1-1.5-2zm2.7-7c0-1 .6-1 1.2-1 .5 0 1 .3 1 1.1s-.5 1.6-1 1.6-1.2-1-1.2-1.8zm-11.8 7.7c0-1 .9-2 2.1-2s2.6.5 2.6 1.5-1.5 2.7-2.8 2.7-2-1.2-2-2.2z" class="AV"/><path d="M532.5 325s-1.5.3-2.3 1-.9 1.6-.4 1.9 1-.6 1.1-1 1.6-1.9 1.6-1.9zm7.2-1.5s-1.5 1-1.6 2 0 1.5.4 1.5.6-1.3.5-1.8.7-1.7.7-1.7z"/><path d="M540.9 325s-1 0-1.6.6-1.3 1.4-.8 1.4 1.1-.3 1.2-.7c0-.4 1.2-1.3 1.2-1.3zm1.5-8.4-1.1 1c-.4.4-1 1.4-.4 1.6.5.3.8-.2 1.2-.9.3-.7.3-1.7.3-1.7zm5.5 3.5s-1.4.2-1.9.8-.7 1.3-.1 1.3.7-.3 1-.8l1-1.3zm-.9 6.4s-.3 1-1.1 1.5c-.9.4-1.1.8-1.5.2s.1-1 .6-1l2-.7z"/><path d="M555.7 322.2s.6 3-2 4.4c-2.6 1.5-9.9 6.6-16.7 6s-14.7-4.5-14.7-4.5l-1.1.5 1.7.8 5.3 2.2 6.1 1.8 3.8.2 3.3-.4 6-2 5.2-2.6 2.7-2.2.7-.8v-3z" class="AU"/><path d="M420.8 283.4s1.6 1.3 1.5 2.5-.6 1.6-1 1.4-.5-1.4-.4-1.9v-2zm11.8 11s-.5 2-1.3 2.1-1.4-.6-1.2-1 .8 0 1.1-.3l1.4-.9zm-25.6 1.5s.5 1.2 1.5 1.4 1.6-.6 1.4-.9-.6-.3-1.1-.3l-1.8-.2zm4.5 9s1 1 2.3 1.2a2 2 0 0 0 2-1.1c.1-.3-1.5-.3-2 .1s-2.3-.2-2.3-.2zm8.1 6.9s2.1-.4 2.5-1 .9-1.5.4-2-.8.8-1 1.4c-.3.5-1.9 1.6-1.9 1.6z"/><path d="M432.7 306.3s1.4-9.4-6.2-16-12.5-5-15-2.5c-2.6 2.4-4.9 10.4 3.1 17.3s18 4.8 18 4.8v-3.6z" class="AV Ab Ac"/><path d="M409.6 296.4s-.1-5.1 2.3-6.7a10.5 10.5 0 0 1 14.4 4.8c4 7.5 4 11.3 3 15.2h-4.2l-6.6-2.7-5.4-4-3.5-6.6z" class="Ad"/><path d="M431.7 307.6s-1.3 1.5-4 1.4-15.5-3.4-18.6-14.8l.2 2.5v.8l1 2.3 2.6 3.8 3.3 3 4.3 2.1 3 .9 4 .7h2.2l2-2.7zm-6.6-3.2c0-1 .5-1 1.3-1s1.4-.4 1.4.6-.5 2.4-1.3 2.4-1.4-1-1.4-2zm.5-6c0-.8.7-1.3 1.5-1.3s1.4.5 1.4 1.2-.7 1.3-1.4 1.3-1.5-.6-1.5-1.3zM420 305c0-.6.7-1 1.6-1s1.6.4 1.6 1-1.6 1.3-2.5 1.3-.7-.8-.7-1.3zm-.5-7.1c0-.9.4-.6 1.2-.6s1.7.2 1.7 1.1-1 2.1-1.7 2.1-1.2-1.7-1.2-2.6zM414 299c0-.8.5-1.8 1.5-1.8s2 1 2 1.8-.8 1.3-1.8 1.3-1.7-.6-1.7-1.3zm1-6.3c0-.8.5-.7 1.5-.7s1.8.4 1.8 1.2c0 .7-1.2 1.7-2.2 1.7s-1.1-1.4-1.1-2.2zm5.8-.6c0-.8.6-.5 1.5-.5s1.7.6 1.7 1.4-1.2 1.6-2.1 1.6-1.1-1.7-1.1-2.5z" class="AU"/><path d="M415 292.6c.1-.5.5-.9 1.2-.9s1.3.2 1.3 1-.6 1.4-1.3 1.4-1.4-.7-1.2-1.5zm-1 6.2c0-.8.3-1.5 1-1.5s1.5.1 1.5.9-.7 1.6-1.5 1.6-1-.2-1-1zm6.7-6.5c0-.6.5-.7 1.3-.7s1.2.2 1.2.8c0 .6-.6 1-1.4 1s-1.1-.5-1.1-1zm-1.3 6c0 .7.6 1.4 1.3 1.4s1.6-.7 1.6-1.5-.8-1.6-1.6-1.6-1.3.8-1.3 1.6zm6.5-1c0 .8.6 1.4 1.4 1.4s1.5-.6 1.5-1.4c0-.7-.7-1.3-1.5-1.3s-1.4.6-1.4 1.3zm-6.3 7.6c0-.6.7-1.3 1.4-1.3s1.3.4 1.3 1-1.2 1.6-1.9 1.6-.8-.6-.8-1.3zm5.5-1c0-.8.6-.8 1.5-.8s1.2 0 1.2.9-.6 1.4-1.5 1.4-1.2-.6-1.2-1.5z" class="AV"/><path d="M426.6 294.5s.9 1 1 1.8.2 1.8-.1 1.9-.8-.5-1-1.3.1-2.4.1-2.4zm-4.8-5.2s.5.9.5 1.6 0 1.6-.5 1.6-.4-.7-.4-1.3.4-1.9.4-1.9zm-5.7.8s.6.8.6 1.6-.1 1.6-.5 1.6-.4-.8-.4-1.3l.3-2z"/><path d="M414.1 291.1a4.5 4.5 0 0 0 1.4.8c.7.5 1 1 .7 1.4s-.9-.2-1-.5l-1-1.7zm4.3 6s1.1 0 1.7.6 1.1 1 .8 1.4-1.2-.3-1.6-.7-.9-1.3-.9-1.3zm-5.2-.2s1 .2 1.5.6.6 1 .4 1.2-.6 0-1-.5l-1-1.3zm12.7 4s.4 1.2.4 2c0 1 0 1.7-.3 1.7s-.6-1-.6-1.7.5-2 .5-2zm-1.4 2s.9.3 1.3.7.5.9.2 1-.5-.6-.8-.8-.7-1-.7-1zm-5.7.3s1 .1 1.4.4.4 1.6.4 1.8-.7 0-1-.6a12 12 0 0 0-.8-1.6z"/><path d="M416.6 285.9s-5 1-6 4.3-.9 6.8-.9 6.8l-.7-4 1-2.7 1.5-2.5 2.2-1.4 2-.7zm15.6 19.2s.6-1.3-1-5.2-4.4-9.2-4.4-9.2l2.3 2.7 2 3 .8 2.8.7 2.6v2.5z" class="AU"/><path d="M437.3 298.7s1.8 1.1 2 1.7c.1.7.2.9-.3 1-.4.2-1.1-.5-1.3-1l-.4-1.7zm-7.3 19.7s.8-1.5 1.9-2.1 1.9-.5 2.2-.2-.7 1.2-1.5 1.5l-2.6.8zm12.3 4.7s1.2-.6 2-1.4 1-1.5.6-1.8-1.3.2-1.7 1l-.9 2.2zM441 322s.4-1.6.8-2.1 1-.8 1.5-.5.2 1-.2 1.3c-.3.4-2.1 1.3-2.1 1.3z"/><path d="M461.6 312.6s-7.7-11.2-19.6-11.7c-9.6-.5-12.6 8-12.2 10.6.3 2.5 3.9 8 16.6 9 12.8 1 14.8-6 15.4-6.3s-.2-1.6-.2-1.6z" class="AV Ab Ac"/><path d="M452.5 305s3.2 2.4 4.6 4.3 1.6 3.3.8 3.6c-.8.2-7.7-6.2-13.4-7.6s-10.6 0-11.7 2.7-.7 6.8 2 8.4a75.1 75.1 0 0 0 14.7 3.7l5.7-.9 3.5-2 .8-1.9.9-2.5.4-1-3-3.2-5.3-3.7z" class="Ad"/><path d="M442.8 306.5c0 .7-.8 1-1.5 1s-1.4-.3-1.4-1 .6-1.3 1.4-1.3 1.5.6 1.5 1.3zm-7 2.5c0-.7.8-.7 1.6-.7s1.4.6 1.4 1.3-1.2 1.7-2 1.4c-.8-.5-1-1.3-1-2zm7.5 4.1c0-.9.8-1.6 1.7-1.6s1.7.7 1.7 1.6-1.2 2-2.2 2-1.2-1-1.2-2z" class="AU"/><path d="M437.6 314.8c0-.8.8-1 1.5-1s1.6.8 1.6 1.6-.9 1.3-1.6 1.3-1.5-1-1.5-1.9z" class="AV"/><path d="M447.8 317.6c0-.7.4-1.2 1-1.2s1.5.4 1.5 1-.6 1.4-1.3 1.4-1.2-.6-1.2-1.2zm4.6-3.5c0-.8.5-.7 1.3-.7s1.6.4 1.6 1.2-1 1.3-1.8 1.3-1.1-1-1.1-1.8z" class="AU"/><path d="M442.3 305.8c0 .7-.2 1-.9 1s-1.3-.3-1.3-1c0-.6.2-.8.9-.8s1.3.2 1.3.8zm-3.6 3c0 .7-1 1.2-1.7 1.2s-1.1-.5-1.1-1.2.5-.9 1.1-.9 1.7.2 1.7 1zm1.6 5.9c0 .6-.2 1-1 1s-1.6-.4-1.6-1 .3-1 1-1 1.6.4 1.6 1zm6.1-2c0 .6-1.3 1.4-2 1.4s-.9-1.2-.9-1.8c0-.7.6-1.2 1.2-1.2s1.7 1 1.7 1.6zm8.8 1.9c0 .7-1 .6-1.6.6s-1.2-.7-1.2-1.4.2-1.3 1.7-1.1c.6 0 1.1 1.2 1.1 1.9zm-5.2 2.7c0 .7-.5 1.2-1.1 1.2s-1.2-.5-1.2-1.2.5-1 1.2-1 1.1.3 1.1 1z" class="AV"/><path d="M450.8 313.6s1.2-.4 2.2-.3c1 .1 1 .5 1 .6s-.8.5-1.1.4l-2.1-.7zm-5.2 4.4s1-.6 1.8-.8 1.3.1 1.3.6-.3.6-1 .6-2-.4-2-.4zm-3.3-7.7s2.1 1 2.6 1.8.6 1 .2 1.3-1-.3-1.3-.7l-1.5-2.4z"/><path d="M441.7 313s1.7-.4 2.4-.4 1 0 1 .4 0 .5-.7.5-2.7-.4-2.7-.4zm-5.2.2s1.8.2 2.2.7.5.9.3 1.1c-.2.3-1 .1-1.3-.1s-1.2-1.7-1.2-1.7z"/><path d="M436.2 315.7c.1 0 .7-1 1.4-1.2s1.4-.2 1.5.2-.6.8-1 1-1.9 0-1.9 0zM435 308l1.8.5c.6.5.8.9.6 1s-.8.3-1.3 0a3.3 3.3 0 0 1-1.1-1.5zm3.9-4.5s1.8.5 2.4 1.3.5 1.3.2 1.5-1-.3-1.4-.6-1.2-2.2-1.2-2.2z"/><path d="M459.5 316.4s-3.7 3.1-12 2.8-15.9-3.8-17.8-7.7l.8 2 1.8 2.4 5.9 3 6.5 1.4 5.2.3 4.8-.8 3.8-1.8c.2-.1.6-1 .6-1zm1-4s-1.3-1.7-3.3-3.5-9.5-6.7-9.5-6.7l6.1 2.8 4 3.4 3 3.1-.2 1z" class="AU"/><path d="M461 305s2 .9 2.3 1.4l.8 1s-.5 1.3-1 .8l-1.1-1.4-1-1.7zm6.1-3.3s2 .9 2.7 1.8.5 1.8.2 1.9-1.6-1-1.8-1.5l-1-2.2z"/><path d="M469 301.4s2 1.3 2.2 2 1 1.3.3 1.5-1.4-.7-1.7-1.2l-.7-2.3zm10.6 2.4s1.4.5 1.6 1.7-.2 2.1-.2 2.1-1-.9-1-1.1c0-.3.2-.5 0-1a561.7 561.7 0 0 0-.4-1.7zm2.8 1s1.1 1.1 1.3 1.9.2 1.3-.4 1.4c-.6 0-1-.7-1-1.3v-2zm-18.9 23s1 .3 1.8 0 1.5-1 1.4-1.6-.6-1-1.3-.3-.3 1-.8 1.2l-1 .6zm10.4 2.7s1.4-.2 2.3-1.2c1-1 1.4-1.7.7-2s-1.5 0-1.6.8-1.4 2.4-1.4 2.4zm8.5.3s1-.6 1.8-1.3c.8-.8 1.3-1.2.7-1.8s-.9-.2-1.1.1 0 .3-.3 1l-1.1 2z"/><path d="M485 330.8s1.1-1.4 1.4-2.1c.2-.8.4-1.7-.1-1.6s-1.2.7-1.2 1.3l-.1 2.4z"/><path d="M459.1 317c0-3.7 5.4-12.4 11.5-12.3 2.5 0 7.5 1.4 11.6 3.2 3.4 1.5 4.5 3.2 6.7 3.7s5.6.2 5.6.2l7.7-.9-6 8.8-2.2 1.9s-1.8 3.7-7.3 5.8-14.6.5-18.7-.5-9-5-8.9-10z" class="AV Ab Ac"/><path d="M459.1 317h.4c0-.8.3-2 1-3.3.8-2 2.2-4.1 4-5.8s3.9-2.8 6-2.8h.1c1.2 0 3 .4 5.1 1a45.1 45.1 0 0 1 6.3 2.2c1.7.7 2.8 1.5 3.8 2.2a9 9 0 0 0 3 1.5c1 .3 2.1.3 3.1.3l2.7-.1 6.7-.8-5.4 8-2.2 2c-.1.2-2 3.6-7.1 5.6-2 .8-4.3 1-6.9 1-4.3 0-9-.8-11.6-1.5-2-.4-4.1-1.6-5.8-3.3s-2.8-3.7-2.8-6v-.2h-.8v.1c0 2.6 1.3 5 3 6.7 1.8 1.8 4.1 3 6.2 3.5 2.7.7 7.4 1.6 11.8 1.6 2.6 0 5.1-.3 7.2-1.1 5.5-2.2 7.5-6 7.5-6l-.4-.2.3.3 2.2-2 6.5-9.5-8.5 1h-.2a25 25 0 0 1-5.3-.2c-1-.2-1.8-.7-2.8-1.4s-2.1-1.5-3.8-2.3a44.5 44.5 0 0 0-11.8-3.2h-.1c-1.6 0-3.2.6-4.5 1.5a17.2 17.2 0 0 0-7.3 11.2h.4z" class="AU"/><path d="M496 318.2c-.6.5-1.3.5-2 .5s-17.8-10.4-23.1-10-10.3 2.8-10.4 8.2c-.2 5.4 1.1 5.5 2.2 7s11.5 3.8 11.5 3.8l6.3-.2 5-.5 4.6-2.4 2.4-2 1.6-2 2-2.4z" class="Ad"/><path d="M469.3 315.4c0 1-.4 1.8-1.5 1.8s-1.8-.5-1.8-1.5.6-1.5 1.6-1.5 1.7.1 1.7 1.2zm1.7-4.7c0-.9.9-1.3 1.9-1.3s1.7.4 1.7 1.3-.8 1.5-1.7 1.5-1.9-.6-1.9-1.5zm10.2 2.7c0-.7.7-1.3 1.5-1.3s1.4.6 1.4 1.3-.6 1.4-1.4 1.4-1.5-.6-1.5-1.4zm2 6.3c0-1 .8-1.8 1.6-1.8s1.7.4 1.7 1.4-.3 2-1.1 2-2.1-.7-2.1-1.6zm-4.9 4c0-.9.8-1.6 1.7-1.6s1.7.7 1.7 1.6-.7 1.3-1.6 1.3-1.8-.5-1.8-1.3zM469 322c0-.8.7-1.4 1.5-1.4a1.5 1.5 0 1 1 0 2.9 1.5 1.5 0 0 1-1.5-1.5z" class="AU"/><path d="M469.2 315.2c0 .8-.7 1.5-1.6 1.5s-1.6-.7-1.6-1.5c0-.9.7-1.2 1.6-1.2s1.6.3 1.6 1.2zm5-4.8c0 .8-.3 1.3-1.2 1.3s-2-.5-2-1.3.8-1.5 1.6-1.5 1.5.7 1.5 1.5zm9.8 2.6c0 .7-.7 1.3-1.4 1.3s-1.5-.6-1.5-1.3.7-1.3 1.4-1.3 1.5.6 1.5 1.3z" class="AV"/><path d="M478.8 317.2c0 1-.4 1.8-1.5 1.8s-1.8-.5-1.8-1.6.6-1.4 1.6-1.4 1.7.1 1.7 1.2z" class="AU"/><path d="M471.7 321.7c0 .8-.8 1.5-1.6 1.5s-1.6-.7-1.6-1.5 1-1.3 1.9-1.3 1.3.5 1.3 1.3zm6.8-4.7c0 .8-.7 1.5-1.6 1.5s-1.5-.7-1.5-1.5.7-1.5 1.5-1.5 1.6.7 1.6 1.5zm8 2c0 1-.5 1.7-1.5 1.7s-1.7-.7-1.7-1.6c0-1 .2-1.3 1.2-1.3s2 .4 2 1.3zm-5.1 4.3c0 .9-.6 1.4-1.5 1.4s-1.7-.5-1.7-1.4.7-1.2 1.6-1.2 1.6.3 1.6 1.2z" class="AV"/><path d="M482 318.3s2.5-.3 3 .2.3 1 .1 1.3-1.2.2-1.4-.1c-.2-.4-1.7-1.4-1.7-1.4zm-2.5-8.2s2 .5 2.7 1.3.7 1.6.5 1.8-.8.3-1.4-.3-1.8-2.8-1.8-2.8zm-5.8 4s2.3 1.1 2.8 1.9.6 1.2.4 1.5-1.4 0-1.6-.4l-1.6-3zm-1 1.7s2.5.3 3.2.8 1 .5 1 .8-.3.7-.7.7-1.5-.6-1.8-.8l-1.7-1.5zm-3-7.5s2.7.4 3.2.8.7 1.6 0 2c-.5.3-1.2-.4-1.4-.9s-1.7-1.9-1.7-1.9zm-5.5 4s2.4 1 3.1 2.1c.4.6.8 1 0 1.3-.7.3-1.4-1-1.4-1.3s-1.7-2.2-1.7-2.2z"/><path d="M463.7 315.3s1.5-.3 2.2-.3 1.8-.3 1.8.3-.9.7-1.4.6l-2.6-.6zm13.2 8.5s1.6-1 2.4-.8 1.1 0 1.1.6-1 .4-1.2.4l-2.3-.2zm-9.3-1.3s.7-1 1.4-1c.7-.2 1-.1 1 .2.2.3-.5.8-.8.8h-1.6z"/><path d="M494 320.8s-2.5 3-6 4.6-6.3 2-11.2 1.7a23.1 23.1 0 0 1-17.1-8c-.5-1 .5 1.7.5 1.7l3 4 3.7 1.6 5.3 1.4 5 .6 3.9-.1 4.5-.7 3-1.1 2-1.2 1.5-1.3zm-4.7-9s-1.4.5-4.5-1.4c-3-1.9-6.6-4.3-13.5-4.4s-9 4.7-9.5 5l3-4 3.2-1.7 2.5-.4h2.3l3 .9 2.8.8 3.2 1.1 2.7 1.5 3.4 1.8 1.4.8zm9.2 2h-5.2c-1.2 0-1.2.4-1.3.7l-.5.7-1.2-2.7 5.4-.8 3 1.2z" class="AU"/><path d="M491 342c.3.7 1 1.4 1.8 1.4h2.5l5.4-.4 2-2.2 1.1-4.9 1.5-1.8 5-2.8 4.4-1.3 2.8-.3 4-1.3 2.8-1.5 1.2-1.8 1.2-2.8-1.2-3.8-3-4-5.2-2.2h-4.2l-4.8 1.8-8.4 2s-4.6 2-6.5 5.6c-2 3.6-2 4.5-2.3 9.3-.3 4.8 0 11 0 11z" class="Ab Ac Ad"/><g class="AV"><path d="M493.3 340.1c1.6 0 .4-2.7 2.2-5.8 1.9-3.2 4-7 4.6-7s.7.5 1.4.3 1.8-1.2 1.8-1.4 0-2 1.5-3.2c1.4-1.2 3.3-2.8 4.3-3s1.3-.4 1.5 0-.5 1.1 0 1.3 2.2.2 2.5-.8.3-1.4.3-1.4 1-1 2.8-.6 2 .3 2.2 1-.8.8-.6 1.3-.1.5 0 .9.5 1.4 1.7 1.4 1.8-.7 1.8-.7l.4-.7s.3-.8-.2-1-.3-.7.2-.5 2.3 2.8 3 1.7.7-2.6.3-3-3-4.3-3-4.3l-4.6-1.6-6.2.5-6 3.5-5.5 3s-.3 4.4-1.3 3.6-2.4-3-2.9-2.3c-.4.8-1.4 4-2 5.7s-2.1 6.7-2 8.6 1.2 4.5 1.8 4.5z"/><path d="M498.9 332.8c-.5 0-1 .5-1.3.7s-.5.8-.3 1.4 1 1.2 1.1 1.2h.7l1.5-.4s.5-.5.5-1.3c0-.7-.4-.8-.6-1l-1.6-.6zm9.5-7.8c-.9-.3-1.3.2-1.4.5v.9s.1 1.1.5 1.4c.5.2 1.7.6 2 .2.4-.4.8-.7.8-1.5 0-.7-1.1-1-1.1-1zm7.6 1.8c0-.3-.8-.5-1.3-.4s-1.1.7-.9 1.7c.2 1 1.1 1 1.9.8s.5-1.2.5-1.3l-.2-.8zm-22 1.5c0 .5.7 1.4 1.8 1.3a2 2 0 0 0 1.8-1.5c.1-.6-.5.6-1.3.8s-1.3.4-1.7 0-.7-.6-.7-.6z"/></g><path d="M501.1 334.4s.1 1-.6 1.5-1.1.5-1.5.5-.9-.1-1.2-.5l-.5-1s.8 1.3 2 1 1.8-1.5 1.8-1.5zm20.6-12.7s0 1-.8 1.4-1.1.5-1.5.5-1-.2-1.2-.7c-1-1.4-.4-2.3-.4-2.3s.6 2.4 1.9 2.3 2-1.2 2-1.2zm-18.3 4.4s-.7 2-2 2-1-.5-1-.7c.1-.2.6.2 1.1 0a8 8 0 0 0 1.9-1.3zm3.5-.3s-.1 1.3.3 1.8c.5.5 1 .7 1.6.7s.9-.1 1.3-.6c.4-.6.2-1.2.2-1.2s0 .3-.4.7a1.4 1.4 0 0 1-1.2.5c-.4 0-1 0-1.2-.5l-.6-1.4zm6.5-6.7s.4 1-.4 1.9c-.8.8-2.3.3-2.3.3s1.2.3 1.8-.3 1-2 1-2zm-20.8 24s8.1-.2 8.8-1.3-.7-5.5 4.1-9 8.7-3.3 11.3-3.5 8.2-2 9.1-7c.6-3-3.4-3.1-5-6s-5.5-1.7-5.7-1.7-4.6-.2-6.7 1.9c-1.3 1.2-1.1 2.7-1.7 3.4s-6 0-6.5.9.1 2.6-.3 3c-.4.5-1.7-1.1-1.7-1.1l.5-4.3 6.8-4 7.8-4.3s5 .3 5.2.2c.2-.1 5.3 2.6 5.4 2.6l2.6 3s.5 1.3.7 3.7c.1 1 0 2-.2 3-1.3 4.4-5.6 7.4-10.2 7.6s-8.8 2.3-10.9 3.9-3.2 8.2-3.2 9-10 .3-10 .3l-.2-.4z" class="AU"/><path d="M496 327.3c-.4.3-1 .3-1.1-.2-.4-1.3.4-3.2.4-3.2s0 2 .1 2.4.6.2.8.5c0 0 .2.2-.2.5zm5.1-1c-.4-.2-.3-1.4 0-2s2.6-2.1 2.6-2.1l-1 2.2c-.3.6-1 2-1.6 1.9zm-2 8.2c-.3 0-.4-.7-.4-1.6s1.5-2.5 1.5-2.5l-.5 2c0 .4.3.8.2 1.3s-.4.7-.8.8z"/><path d="M502.9 332.2s-.7.8-1.6 1.3c-.8.4-1.7 1.1-2.2 1-.5-.2.3-1.3.6-1.4l3.2-1zm6.9-9.9s-1 .8-1.4 1.9-.6 2-.2 2.1 1.2-1.2 1.2-1.7l.4-2.3z"/><path d="M512.3 325.8s-.6-.6-1.8-.9c-1.1-.3-1.6 0-1.7.3s-1 .8-.6 1.1 1-.4 1.3-.5.7-.3 1.3-.2l1.5.2zM511 319c.4.4 1-.3 1.5-1 .6-.6 1-1.8 1-1.8l-1.6 1c-.5.5-1.2 1.6-1 1.8zm10.5-.2s-1.4.6-1.8 1.2-1 1.3-.6 1.6.9-.3 1.2-.8l1.2-2zm-3 7s-.5 1-1.3 1.5-2 .9-2 .6c-.3-.3 0-1 .4-1.1.3-.2.5-.2 1.3-.4l1.6-.6z"/></g><g class="Ak Al"><path d="m452.2 290.6-2.6 6.6 2.1-.3 1.3-5.8z" class="Ap"/><path d="M453.4 287.8c-.9 0-1.8.6-1.9 1.6s.6 2 1.5 2 1.8-.6 1.9-1.6-.5-1.8-1.5-2z" class="AQ"/><path d="m402.2 269.3 3.4 7.5 1.5-2.1-3.8-5.7z" class="Ap"/><use xlink:href="#D" class="AQ"/></g><ellipse cx="490.187" cy="231.185" fill="url(#A)" rx="4.403" ry="6.579" transform="rotate(8.667)"/><g class="Am"><path d="M454 288s.6.4 0 .2-2 .5-2 1.5.7 1.6 1.5 1.6-.3.1-.3.1l-1-.2-.4-.6-.3-.9.2-.8.6-.8.7-.3h.5z"/><path d="M452.6 292.5s-.4-.1-.8.5l-1.1 1.6 1.4-3.6.8.4z"/><use xlink:href="#E"/><use xlink:href="#F"/></g><ellipse cx="439.055" cy="-235.853" fill="url(#B)" rx="7.08" ry="4.766" transform="rotate(62.907)"/><g fill="#f42a41"><path d="M455.1 299.1c.5-.2 1.5-1.2 1.5-1.7s-.3-.8-.2-1 .5 0 .7-.2-2.4-2.4-2.5-2 .4.8.2.9-.7 0-1 0l-.8 1.3c-.1.3-.4.3-.2.7l.3.7c.3.3 1 1.3 1.3 1.3s.3.2.7 0z"/><path d="M449.9 294.6c-.1.3-.3 1.4-.2 1.7.1.3.7 1 1 1 .2.2 1.5.3 1.7 0a1.8 1.8 0 0 0 .7-.8c.1-.3 1-1 .7-1.3s-.2-.4-.2-.6c0-.3.5-.3.6-.8s-3.3-1.5-3.4-1 .4.3.3.6-1 .8-1.2 1.2z"/><path d="M445.6 296s.6 1.2 1.3 1.4 1.2 0 1.4 0 .8-.3 1-.6.7-2 .6-2.2-.8-1-.8-1.2c0-.2.4-.2.3-.6s-3-.2-3.1.3.5.2.4.5-.8.8-1 1-.1 1.5-.1 1.5z"/><use xlink:href="#G"/><use xlink:href="#H"/><use xlink:href="#I"/></g><g fill="#fcd80e"><path d="M449 295.6c0 .4-1 .9-1.4.9s-1.1-1.4-1-1.6.5-.6.9-.6 1-.1 1.3.2c.2.3.3.9.2 1zm1.7-1c-.4.1-.6.6-.6.9s.6 1.3.9 1.3 1.8-.7 1.9-1-.3-.8-.5-1c-.1 0-1.5-.3-1.7-.2zm3.7 1.5c-.4.1-.7.5-.7.7 0 .2.1 1 .4 1.3s1.3-.4 1.4-.5.2-.3 0-.6-1.1-1-1.1-1z"/><use xlink:href="#J"/></g><g transform="scale(-1 1) rotate(-14.419 26.418 4664.836)"><g class="Ak Al"><path d="m537.6 292.2 3.4 7.5 1.5-2.1-3.9-5.7z" class="Ap"/><use xlink:href="#D" x="135.398" y="22.9" class="AQ"/></g><ellipse cx="521.107" cy="-345.965" fill="url(#C)" rx="7.08" ry="4.766" transform="rotate(62.907)"/><g fill="#f42a41"><use xlink:href="#G" x="135.399" y="22.9"/><use xlink:href="#H" x="135.399" y="22.9"/><use xlink:href="#I" x="135.399" y="22.9"/></g><use xlink:href="#J" x="135.399" y="22.9" fill="#fcd80e"/><g class="Am"><use xlink:href="#E" x="135.399" y="22.9"/><use xlink:href="#F" x="135.398" y="22.9"/></g></g><g class="Ai" transform="translate(-.699 1.184) scale(1.16833)"><path d="M375.1 185.2s-5 .5-8.5-.2-2.7-9.5-2.8-9.7-2.1-2.4-1.8-4.4 6.8-7.3 7.7-7.5c.6-.2 1.8.3 1.8.3s1.7-1.6 2.2-1.6c.5 0 1.1 1 1 1.3s-2.5 1.7-2.6 2.7 0 2-.6 3-2 2.2-2 3-.6 1.6 0 2 2.8 0 4.6-.9 2.5-1.9 2.8-1.8-1 2.3-3 3.1-3.4 1.8-4.4 1.7c0 0-1 2.6 2.3 2.8s5.4-.8 5.4-.8zm-19.6 21s2.6 1 2.6 4c0 2.9-2.9 5.4-2.8 10.5s.9 5.3 7.8 10.8c.2.2 1.6 1.7 2 3.4s1.6 11.6 8.2 11.6 7.5-4.3 7.5-4.3l-2.8-4.1s-2.3.7-3.5.4-2.4-1.2-3-2.8-1-5.4-2.1-7c-2.8-4.2-7.7-4.9-7.8-9.3s3-4.8 2.2-10-7-7.7-7-7.7l-2.6-1-.8 5.2z" class="AY"/><path fill="#ffb81c" d="M373.7 169.9c2.2-.5 1-6.3 1-6.3l-1.6 1.3s1 1.2 1 2.5-.4 2.5-.4 2.5z"/><path d="m377.7 227.5-1.1-1c-.8-.5-4.3-3.3-3.7-11.6.6-9.4 14.3-14.4 15.2-18.1 1-4.2 4-6-6.8-14.5l-2.6 3 4.5 3.3s1-.5 1 .8-1.1 2.3-1.5 3.3c-.2 1-7 5.6-7.5 6.1l-4 3.1s-1.7 1.7-3.4 5.4-.8 8.4-.8 8.4 0 10 10.7 11.8z" class="AY"/><path d="m371 232.7.8 3.6-2.2.8h-1l-.6.2-1.7 1.7-.4-.2s-.3.1-.3-1l-.3-1.9 2 .9h.8l.5-.1.9-2zm-6.3.7-1-1.3c-.3-.5-.5-.5-1.2-1.2l1.5-.8h1.6l-.3 2zm3.6-5.7s1 .5 1.3 1.3l.8 1.6-2.5-.2-2-.6 1.3-1.7zm-1 15.7s-.5-.4-.8-1.2c-.3-.8-.5-2.1-.5-2.1l1.7-.3 2 .8h.5l-.5 1-2 1.7zm6.7-5.5s-1.4-.4-1.7-1.1c-.2-.8-.4-.6-.4-.6l-.5 2-.6 1.9.2.3 1.5-.4 1.2-1.2.3-.9zm-6.2 6.3 1.8 1c1 .7 1.6.7 1.6.7l.8-.9.8-1.6.1-.2-4 .4zm5.8-1.5 3.4-2 .3-2-.7-.4h-2l-.6 2.3zm-2.5 3.2s2.4 1 6.6-.4c1.9-.7 2.2-1.6 2.2-1.6l-1.6-.7-1.6 1.4-5.6 1.3zm-3.2-26.6-.5-1.8c-.3-1-.2-1.4-.2-1.4l1.2.6 1.8 1.3-1.3 1zm2.9 4.9-1.2-1.4c-.6-.8-.8-1.5-.8-1.5l1.3.3 1.5.7-.7 2z"/><path fill="#d7ccbf" d="M363 169.2c-.2.8-.5 2.3.6 2.6.7.2 3.2 0 6-3.3 1.4-1.5 1.4-3 1.4-3l.5-1.8s-1-.8-2.9.3c-1.6 1-5.6 5.2-5.6 5.2z"/><ellipse cx="370.771" cy="164.639" fill="#0a1a1d" rx=".502" ry=".531"/><path d="M367.2 165.2c-1.3 1-2.4 2.1-2.4 2.1s2-.5 3.5-1.9c.8-.8 2.5-1 3.4-.9.5.1.3-.5 0-.6-.4-.4-1.8-.6-2.1-.4 0 0-1.2.7-2.4 1.7z" class="AY"/><path d="m373 218.3-.2-1.4v-1.5l-1 1-1.2 1.5 1.7.6zm-6-3.4s-.1-1.5 0-3 .7-4.1.7-4.1l.7 1.8 2 3.2.7.5-1.8 1.3-1.7.6zm6-.8.2-1.4.7-1.7v.1l-1.9 1.5a6 6 0 0 0-.8.8l1.1.8h.7m-4.8-7.7s.3-1 1.2-2.2l1.8-2.3.8 3.1.4 2.7.1.6-.9.2c-.3 0-2.1-.1-2.4-.4l-1-1.7zm6.2 3.6 1-1 1.4-1.5-4.2.8.6 1.4zm-2.5-8.7s.3-.1 1.5-1.3c1.1-1.1 1.7-1 1.7-1l.5 4.6-2.3-.7z"/><path d="m377.1 207.4 2.5-2.6-4.2-1.2.8 3zm1.8-6.8.2-4.4s-.8.4-2 1.3l-1.5 1.2.5.8 1.5 1zm3.7-4.3V193h-.1s-.6 1-1.3 1.6l-1 1 1 .7 1.4.1zm1.6 4.6 2-1.6c1.3-1 2-2.2 2-2.2l-5.5-.4.3 2.2zm-12.7-18-.2 2.4h4.6l-1.1-1.6-1.4-.8-1.3-1.4zm8.8 21.3 2-1.6c.6-.7 1.6-1.3 1.6-1.3l-4.4-.5.1 2.9zm8.2-7.8s.5-1.7.4-3.4-.3-2.4-.3-2.4l-3.2 2.2.5 1.6 1.2 1.4z"/><path d="M383 192.4s1-1.2 1-1.8v-.5h2.6l1.5.2.2.1-1.1 1.4-1.6.9-2 .2zm5.2-2.5-1.6-2.7c-.6-1-1.1-1.4-1.1-1.4l-1.3 3.7-.1.4z"/><path d="m356.5 215.3-.5 1s1.7-.9 3-.8 2.9 1.7 2.9 1.7l.3-1.2s-1.8-1.7-3-1.8c-1-.1-2.7 1-2.7 1zm.9-7.6.4.5c.1.1.2-1.3 1.9-2s2.6-.1 2.6-.1-.3-1-1-1.3-1.6 0-2.5.6-1.4 2.3-1.4 2.3zm5.8 5.7s-.8-1.7-2.2-2-3.2.7-3.2.7l-.3.9s2-1.1 3.4-.6 2 2.2 2 2.2zm-6.5-6.7c0 .3.4.7.4.7s-.2-1.9.6-2.8 1.5-1.3 1.5-1.3l-.8-.4s-1 .7-1.5 1.6-.3 1.9-.2 2.2zm-.8-3c.4-1 1.6-1.4 1.6-1.4l-.4-.3h-.6s-.7.4-1.2 1.4-.4 2.6-.4 2.6l.7.4s-.1-1.8.3-2.7zm10.3-25.1c1.1-.6 2-.5 2-.5s-1.7 1.7-1 3.8c-.8 1.8-1.1 3-1.1 3h.8l.7-2.4a8 8 0 0 0 2.4 2.8h1.3s0-1.8.7-3.3l.1.2c1.5 1.5 2.7 1.8 2.7 1.8v-.4s-1.5-1-2.4-2v-.2c1-1.6 2.4-2.2 2.4-2.2l.9.8.2-.3-.7-.9h-.8s-1.4 1.2-2.3 2.3a12 12 0 0 1-1-2.1l-.6-.2s-1.4.2-2.7 2.2c-.2-1.5 1.6-3.1 1.6-3.1l-.1-.7-3.1.8a4.5 4.5 0 0 0-2.2 1.7v.9s1.2-1.4 2.2-2zm2 2.8c.7-1.2 2.5-2 2.5-2s0 1 1 2.2c-.7 1.2-1 3-1 3s-1.3-.9-2.5-2.6a2.1 2.1 0 0 1-.2-.4l.1-.2zm-10 27.7v1s1-1.1 2.7-1.2 2.9 1.2 2.9 1.2 0-1.3-.2-1.5c-.2 0-1.5-.8-2.7-.8s-2.7 1.3-2.7 1.3zm28-14.7a13.3 13.3 0 0 1-.5-1.4l.7-.3a16.4 16.4 0 0 0 2.2-2.1l-.4-.8H386l-1.8-.1.7-2.2.7-1.8-.7-.8s.2.7-1.1.9-3.6-1-3.6-1v.5s2 .6 3.2.8a2.3 2.3 0 0 0 1.6-.4l-.7 1.8-.4 1.2c0 .2.3.3.3.3l-.1 1.1 1.8.2 2.3.1s-1.2 1.4-2.3 1.9a3 3 0 0 1-.5.1l-1.3-2-.1.7 1 1.5-2-.2-.5.6v3.2a35.2 35.2 0 0 1-2.3-.7l-.5.3-.6.4s-.5 2-.4 4.2a6.4 6.4 0 0 1-3.1-1.7l-.5.4s-.4 2 .1 4.2c-1.8-.3-3.3-1.9-3.3-1.9l-.7.6.8 5.7.1.5a6.4 6.4 0 0 1-1 0c-1.8 0-2.9-1.7-2.9-1.7l-.5 1.3s.7 3.6 2.7 5.2l.4.3c-1.7 1.4-3.8 1.6-3.8 1.6l.2 1.2 2.4 1.8.4.2c-1 .8-2.2 1.2-2.2 1.2l.4.7 2.3-1.7c1 .4 2.4.6 2.4.6v-.6s-1 0-2-.4l.2-.1c.6-.6 1.7-2.4 1.7-2.4l.2-1.3s-.8 0-1.6-.7c2.5-1.7 2.5-2.4 2.5-2.4l.5-.9s-.8-.3-1.4-1.5l3.8-1 .3-.2s-1-1.5-1.3-3.4l3.8.8.6-.5s-.4-1.6-.6-3.2l4.2.3.4-.5s-1.3-2.4-1.2-3.8v-.1a6.2 6.2 0 0 0 1.2.1h4l.3-.7s-1.8-1.2-2.2-2zm-13.7 20.3s-.6 1.3-1.8 2.7l-.3.3a6 6 0 0 1-.7-.3c-1.4-.8-1.8-1.8-1.8-1.8l3.2-2 1.4 1.1zm1.1-4.1s-.7.9-2.5 2.5a5.4 5.4 0 0 1-.5-.6c-1.2-1.5-2.6-2.8-2.5-5a3 3 0 0 0 2.9 1.4l1.3-.2a4.4 4.4 0 0 0 1.3 1.9zm2.7-3.3s-1.8.6-3.5.8a7 7 0 0 1-.2-.5c-.7-2.1-.7-5.3-.7-5.3s1.4 1 3.4 1.6l1 3.4zm-.6-3.9c-.3-2 0-3.8 0-3.8s1.1 1 3 1.4l.4 2.6s-1.5.1-3.4-.2zm7.6-3s-1.3.6-3.7.2a19.8 19.8 0 0 1 0-.7v-4c.4.2 1.7.7 3 1v.1c.1 2 .7 3.5.7 3.5zm-.2-4h-.1v-3.5s1.3.3 2.2.2c.2.6 0 .7.7 1.6a8.5 8.5 0 0 0 1.5 1.7s-3 .2-4.3 0zm-9.8 24.4-.2-.7s-1.2.9-1.5 1.8a2.2 2.2 0 0 1-.4 0 181.8 181.8 0 0 1-2.7-1.1l.3.5 2.4 1h.2a72.1 72.1 0 0 1-.6 1.9l.3.4s.1-1.3.6-2.2l1.6.1-.3 1.1-.5 2 .6.3h2.7l-.4-.5s-.1-.1-1-.2-1.4.2-1.4.2l.4-1.7.4-1-.3-1s-1 .3-1.5.3a4 4 0 0 1 1.3-1.2zm-14.9-1.7c1.7 0 3 1.1 3 1.1v-.8s-1.3-1.7-2.8-1.7-3.2 1.5-3.2 1.5v1.7s1.4-1.8 3-1.8zm17.5 25.5c-1.7.7-3.6.7-3.6.7s.5-.7 1-2c3.4-1 4-3.2 4-3.2l-.2-.8s-.8 2-3.5 3.2c.5-1.6 1-4.3 1-4.3l-.9-.2s-1.3 1.7-2.5 2c.8-1.6 1-3.4 1-3.4l-.5-.8s-.9.8-2.3 1.1a2.3 2.3 0 0 1-.7 0c.8-1 2.3-4.2 2.3-4.2l-.3-.6s-1.1 2.8-2.3 4.2l-.4.5c-1.2-.4-2.9-1.4-2.9-1.4l.2.5s1 .8 2.4 1.2l-1.8 1.7v1.3l4 .6c-1.4 2-2.6 2.7-2.6 2.7l.6.8s1.8 0 5-.8c-1 1.7-1.7 2.5-1.7 2.5s2.9.2 4.9-.8 2.5-2 2.5-2l-.5-.7s-.5 1.5-2.2 2.2zm-9-5.4 1.5-1.9h.1c2 .5 2.6-.1 2.6-.1s.4 1-.9 3c-1.4 0-3.3-1-3.3-1zm1.7 4 1.8-2a5.3 5.3 0 0 0 .4-.5c2 0 3-1.7 3-1.7s.3 1.6-.6 3.6c-2.5 1-4.6.6-4.6.6zm-2.4-12.9c1.9.2 4.3 1 4.3 1l-.3-1-3.7-.7c.6-1.4 2-2.1 2-2.1l-.6-.4s-.8.2-1.8 2a5.4 5.4 0 0 0-.3.4 5.5 5.5 0 0 0-.4 0c-1.7 0-3.1 1-3.1 1l.2.5s1.5-.7 3-.7l-1 3.2.4.9 1.3-4zm-4-8-.3-1s-2-.8-3.6 0-2.6 2.5-2.6 2.5l.6 1.2s1-2 2.5-2.4 3.5-.3 3.5-.3zm4 3-1.3-.7s-2.2.7-3 1.5-1.4 2.7-1.2 3.3 1 1 1 1 .3-2.2 1.4-3.2 3-1.9 3-1.9zm-5-.6c.8-.8 2.4-1.2 2.4-1.2l-.8-.7s-2 .2-3 1.1-2.3 2.8-2.3 2.8l1.1 1.1s1.6-2.2 2.5-3zm6.7-58.7c1-1.4 2-1.4 2.5-1.3H371.2c-.3.5-.8 2-1 3.1-.3 1.5-1 1.7-1.4 2.6s-1.5 2.4-1.5 3.7.3 2 .6 2.2 1-.6 1-.9c0-.4-.4 0-.7 0s-.2-.4-.3-1.2 1-3 1.3-3.6 1.2-1.5 1.4-2.7c.1-1 .9-3.3.9-3.3 0-.1-.6-.3-1.7-.3-.9-.1-2 .6-2.5 1.5s-2.2 1.4-2.2 1.4 1.8 0 2.8-1.2z" class="AS"/><path d="M374.3 179h-3.2l.9 2.4zm-3.8-.2-.7-.6c-.2-.3-.4-.3-.4-.3l-1.2.7-.7 2.4.4.4zm-.5 6.5-2.3-3.5-1.4 3 .6.2 1.7.2 1.4.1zm9.7 58.8c-.6.4-3.1 2-6.2 2a8.8 8.8 0 0 1-4.6-1.3c-.9-.5-1.5-1.4-2-2.3-.7-1.5-1-3.4-1.3-5.2-.3-1.8-.6-3.5-1.4-4.8-1-1.7-3.1-2.8-5-4.3s-3.3-3.5-3.7-6.9v-1c0-2.3.7-4.3 1.4-6s1.5-3.2 1.5-4.5a2.8 2.8 0 0 0 0-.6c-.3-1-1.2-2-2-2.6l-1.6-1-1.2-.3-.1.3 1.2.4v-.2.2l1.8 1.2c.8.6 1.3 1.3 1.5 2v.6c0 1.2-.7 2.6-1.4 4.4s-1.5 3.7-1.5 6v1.1c.4 3.6 2 5.7 4 7.2s3.8 2.6 4.7 4.2c1 1.6 1.3 4 1.8 6.5.2 1.2.5 2.4 1 3.4s1.1 2 2.1 2.6a9.2 9.2 0 0 0 4.8 1.3c3.6 0 6.5-2 6.5-2.1zm-2.8-6.5c-.2.1-.8.5-1.7.5-.6 0-1.4-.3-2.2-1-1-1-1.3-2-1.6-3s-.4-2.6-1.2-4.4c-.8-1.9-2.8-3.4-4.6-4.8-1.9-1.5-3.5-3-3.9-4.5a4.3 4.3 0 0 1 0-.9c0-1.3.5-2.6 1.1-4.1s1.2-3.2 1.2-5.2a10.3 10.3 0 0 0 0-1c-.3-2.7-2.3-4.6-4.2-6a18.5 18.5 0 0 0-3.7-1.9l-.2.4.3.1c.7.3 2.4 1 4 2.3s3.1 3 3.3 5v1c0 2-.5 3.6-1 5.1s-1.2 3-1.2 4.3v1c.4 1.8 2.2 3.2 4 4.7 1.9 1.5 3.8 3 4.5 4.7.8 1.7 1 3 1.2 4.2s.6 2.2 1.7 3.2c.9 1 1.8 1.2 2.5 1.2a3.7 3.7 0 0 0 2-.6z"/><path d="M389 227.6s2.3.5 2.2 2.4-1.1 4.4-1.1 4.4l-3.2-2.8 1.8-1.6.6-1z" class="AY"/><g stroke="#9d7a51" class="AQ Aa"><path d="M349.6 205.2s-2.2.8-2.7-.2-.3-1.8-.3-2-1.4-.3-1.2-1.6 1.7-1.2 2-1.2.5-2 1.7-1.9 1.7 1.4 1.7 1.4z"/><path d="M352.1 205.8s-1.9 1-2.5 0 0-2-.2-2.3-1.4-.6-1.2-1.7 1.4-.8 1.9-1 .7-2 1.9-1.6 1.4 1.2 1.4 1.2l-1.3 5.4z"/><path d="M355.4 206.3s-.6 1.2-2 1c-1.3-.3-.9-2.3-1.1-2.7-.2-.3-1.2-.6-1-1.8s1.4-1.1 1.8-1.3 1-2.1 2-1.8 1.7 1.4 1.5 2c0 0-2 .5-2.2 1.8s1 2.8 1 2.8z"/></g><path d="m385.5 227.1-2.9-3.5c-1.2-1.6-3-3.5-3-3.5l-3-1.5-1.8-3-.2-3.7.8-2 1-1.7s-6 2.2-2.9 13.8c1.3 5 4.7 5.6 4.7 5.6l5.5-.3z" class="Aq"/><path d="M382.7 188.4c.6 0 .9.2 1 .4l.3.9v.5h.1-.2c-2 4.4-6.2 6.5-10 9.3-2 1.4-3.7 3-5 5s-2.2 4.9-2.2 8.5v.6c.2 6.6 2.7 10.2 5.5 12.1 2.7 1.9 5.7 2 6.9 2h.4l2-.1a47.6 47.6 0 0 1 6.1 0c.7 0 1.1.2 1.3.4a1 1 0 0 1 .2.7c0 .5-.3 1-.8 1.5a5 5 0 0 1-1.1 1l.1.3c.3-.1.8-.5 1.3-1s1-1.1 1-1.8a1.5 1.5 0 0 0-.4-1c-.3-.3-.8-.5-1.5-.6l-2.4-.1c-2.7 0-5.8.4-5.8.4v.2-.2h-.1a8.3 8.3 0 0 1-.3 0c-1.1 0-4-.2-6.7-2s-5.1-5.3-5.3-11.8v-.6c0-3.6.8-6.2 2-8.2 2-3.1 5-5 7.9-7s5.7-4 7.3-7.4v-.7c0-.3 0-.7-.2-1.1s-.7-.6-1.4-.6v.4z" class="Ar"/><path d="M390.9 229s-1.5 2.7-1.8 2.7 1.2.4 1.6 1l-.4.7s-1.5-1.2-2.5-1.2l-.1-1s.8-.2 1.5-.9c.5-.5 1-1.9 1.1-2.2z" class="AS"/><path d="m396.5 230.8-3.6 1-1.8-1.2s.1-1.5-.7-2.1c-.8-.7-1.3-.9-2-1.2s-3.3-.3-3.3-.3l-6.5-7 2.4.2 3.9-.4 3.5-.4 1.9.3 2 .6 1 1 1.1.9 1.1 1.8.7 2 .3 2.2z" class="As"/><path d="M396.6 230.5s-1.3.4-2.9.4c-1.6 0-2.6-.3-2.6-.3s0 .1-.3 1.2a15 15 0 0 1-.6 1.7v4.2l3.4.7 1.8-.7 1-4.6z" class="Aq"/><path d="m395.7 228.8.1 1.6.7.2V229zm-3.2-39.3-.4-2.9-1.2-1.9-1.4-2-1.5-1.6-.8-.8-.4-.5-3.7.1-2 2.4s5.1 3.6 7 7.5c1.7.5 3 1.5 3.7 2.3l.2-.4z" class="As"/><path d="M388.8 192.6c0 3-.5 4.3-.9 5l2.3-2.6 1.6-3c-.7-.7-2-1.7-3.7-2.2.5 1 .8 1.9.7 2.8z" class="Aq"/><path d="m394.1 235.9-1.8-2.1c-.8-.8-1.7-1.2-1.8-1.2l-.1.4h.1l1.5 1a21.8 21.8 0 0 1 1.2 1.4l.6.7z" class="Ar"/><path fill="#6c401f" d="M396.3 232.7s-.3 1.3-1.6 2.4-3 2-3 2l3.8 1.3 2.4-2.2z"/><path fill="#6c401f" d="m396.9 235.8-.3.4-.7.7-.5.5 1-3.8.6 1.2v.6z"/><path fill="none" stroke="#9d7a51" d="M375.1 185.2s-5 .5-8.5-.2-2.7-9.5-2.8-9.7-2.1-2.4-1.8-4.4 6.8-7.3 7.7-7.5c.6-.2 1.8.3 1.8.3s1.7-1.6 2.2-1.6c.5 0 1.1 1 1 1.3s-2.5 1.7-2.6 2.7 0 2-.6 3-2 2.2-2 3-.6 1.6 0 2 2.8 0 4.6-.9 2.5-1.9 2.8-1.8-1 2.3-3 3.1-3.4 1.8-4.4 1.7c0 0-1 2.6 2.3 2.8s5.4-.8 5.4-.8z" class="AT"/></g><g class="AW"><path stroke="#6c401f" stroke-width=".511" d="M488 173.6s-10.8-2-10.6 6.9c0 2.8.6 3.8 3 4.4s6.8 1 10.6 4.4 4.2 6 4.2 8-1 4-1 4l2.4 11.9 2.5 8.7 7.3-4.2 4.2-13-5.4-23.3z" class="AP"/><path d="M498.6 218.6s3.8-1.4 4.7-4.4c.3-.9-3.8-4.5-3.9-4.5s2.1 1 3.1 2 1.8 1.2 2 1 2-4 1.4-5-1.7-2.9-3.2-4-3.6-.8-3.6-.8 2.8-1 4.2-.1 1.6 1.7 1.8 1.4-.3-4.4-1-5.7-1.3-2-3-2.3c-1.7-.4-3.6-.2-3.6-.2s2.5-1.4 4.4-1 1.8 1.5 2 1.3c.2-.2-1-3.7-1.4-4.6-.4-.8-2.7-2.6-3.3-2.8s-2.7-.3-2.7-.3h-1s1.4-1 3.3-.8 1.9.8 2.1.7-.2-.3-1.3-1.1c-1-.8-6.5-3-6.5-3l-4.9-.1s0-1.3 1.4-1.5 1.9.2 1.8-.2-4.2-1.3-4.2-1.3l-3.3.1c-1 0-4.6.5-4.6.5s.3-.8 1-1.4c.5-.5 1.4-.8 2-1 1.7-.4-.8-1.7-.8-1.7l1.3-2 6 .5 12.6 7.4 5.9 5 3.7 9.6-1.1 16.5-8.4 7-3.7.3.8-3.5z" class="Aj"/><path d="M487.6 177.8s-.4-1.2-.4-2.6.3-1.4.3-1.4-4-.6-7 1.7-1.2 6.4-1.2 6.4 1.2-1.3 2.9-1.9c1.6-.6 4.6-.5 4.6-.5.2-.2-.7-1.4-1.8-1.7s-3.2-.2-3.2-.2 1.2-.9 3.4-.7c2.1.2 2.4.9 2.4.9z"/><path d="m500.2 220-2.7 1 1.7 11.4L510 251l5.7-1 1.9-3.4 1.5.7c.7.6 2.8 4.3 4.6 5s2.7.5 4.3 1.8c1.6 1.3 7.4 10 7.7 10.3.3.3-.3-3.8-.3-3.8l-1.8-5.1-2.2-3.7-.3-1h3l1.9 1.2 2.8 2.4 1.5 1.8.8 1.8.3 1.6.8 2.5 1.6 3.4 1.9 3.3.6-1.3-1-3.9-2.8-9.3-1.8-3.1s2.3 1.7 3 2 2.7 3.3 2.7 3.3l1.4 3.3 1 3 .6 2.8 1 2.8 1.7-1-.3-2-1.4-6.4-.7-7s.8 0 1.8 1.2c1 1 2 3.5 2 3.5l.7 6.3 1 5.7 1.8 5.9 2 3.7 1.2 2v-3l-2.3-24.5.3-1s.3-.2 1.1 1 1.6 3 1.6 3l.7 3.8.4 2.6.5 5 .7 5.4 2.4 5.8 1.4 3.1.7-3.7-1.1-26.2.5-.8s1.4 1.2 1.9 2c.4.8 1.3 1.6 1.3 1.6l.8 5.7.7 16.6.6 4.2 4.9-43.3 3-.6.3-.8-2.2-1.7-4.9-7.7-3.3-7.3-5.8-10.8-10.1-12.3-7.9-6.6c-1.6-1.2-3-2-3-2l.6-1.5 1.7-2.7h-1.6l-3.4.5-3.4-1-6.7-4.7-7.2-3.4-4.2-1.5-10.1-2.6-10.1-1.4h-4.6l-4 .8s-2.2.8-2.8 2.1-.8 2.2-.5 4.1 1.3 2.9 4.1 4 9.5 5.7 9.5 5.7l3.2 3.2 1.2 1.5.2 1.2 2.2 17-4.3 9.3-3 1.6z" class="AO"/><path d="M511.2 246.6s1.8 3 4.4.7-1.2-9.2-1.1-9.6c0-.4 1.2-.6 1.2-.6l1.9 3.5s1 2 .7 5c-.5 3-3.4 5.5-3.4 5.5l-3.2-.7z" class="AP"/><path d="m574.7 286.5-2.3-7-.7-5.3-.7-14.3c-.2-2.2 0-4.5-.3-4.8a962.6 962.6 0 0 0-2.5-3.4l-1-1 .7-.5s.8 1 1 .4c.3-.5 0-3-1-6.8-.9-3.8-5.8-12.8-5.8-12.8l.5.4 1.4 1.4 2.9 2.4 6.2 2.2 3.4.6 2.2 4.4s1.6 7.5 1.5 11.3c-.1 3.8-.4 6.9-1.8 10.7s-1.9 15.9-2 17.8c-.3 1.9-1 3.8-1 3.8z" class="Aj"/><path d="M574.7 266.5s1.3-1.6 2-3.7c.5-2.1.7-19-1.3-21s-6-3.7-6.2-3.6 1.6 5.5 1.6 5.5.6.8 1.2 2.2c.4.7.8 2.1 1 2.6.1 1.5 1.3 4.9 1.5 9.3l.2 8.7z" class="AO"/><g class="Aj"><path d="M565.6 277s.8-8 .4-13.7-.9-6.6-1.4-7.6a49.5 49.5 0 0 1-4-9.7c-1.3-4.9-2.1-8.6-3-9.6s-2.6-3-3-2.5-.4 1.8-.4 1.8l-2.4-.6-.6-1.6.8-2.4-.2-1.1-.3-1.7 3.1 2.4 6.4 4.4 3.2 13.1 3 8.2.3 13.8-.3 12.2zm3.7-37.9s1.7 1.6 2.6 2.1 2.8 1.7 2.5 1.8c-.4.1-2.1-.5-3.2-1.1a9 9 0 0 1-1.8-1.4z"/><path d="M557 273.9s1.2-2.8 1-6.3-1.9-12-2.4-13.2-3-2.6-5.3-7.4-2-5.8-3.5-7.5a140 140 0 0 1-3-3.8l.4-5 5.5 2.7 2.3 1.2 2.8 13.4 2.5 3.7 1 5.4 1.4 12.5.7 9.9-.4.9zm-6.4-5.7s.1-4-.9-7.4-1.7-6.2-2.8-7.3-3.8-4-6.3-7.7-6-7.7-6-7.7l.1-5s1.7 1.5 3.1 2.2l3.5 1.9 1.5 5.7 1.9 4.2 2.8 3.7 1.8 1.6 1.1 6.2.6 3.5 1.5 5-.5 2.4-1.4-1.3zm-4.6 0-1.5-1.4s.8-1 .4-3-1-3.8-1.8-5.7-1.2-3-1.7-3.5-5.2-5-6.8-6.3l-5.7-4.9c-1.5-1-2.7-1.2-2.7-1.2l-.8-6.2s2 2.7 3.2 3.2a88.5 88.5 0 0 0 3.3 1l4.3 7.7 1.4 2 4 3.2 1.7 3.3 1.2 3.8 1.5 5.2.3 3.2zm-8.5-1.6s-2.6-3-3-4.9c-.3-1.8.3-1.8-.5-4s-3.4-5.3-5.6-7-5.3-4.4-5.1-5.8.6-1.5.6-1.5l1.3 1.2 6.8 7.2 2.1 3.9 1.6 4.7 1 2.2 1.1 2.8zm24.7-35.7s4.7 5.8 5.9.4c.5-2.3-1.7-6.9-1.7-6.9s-4.4-7.7-5.8-9.5l-8.8-11.2-5.4-2.5 1.9 3.1s4 4 9 12.8 4 13.6 4 13.6l.9.2zm-27.4-35.2s9.4 8 15.4 16.6c6 8.6 8.4 14.4 7 15.5s-5-.6-6.6-3c-1.6-2.5-2.9-6.7-8.5-13.2s-8.4-7.4-8.4-7.4l-4.1-6.6zm-4.9 19.1s5.6 4.6 9 8.3 5.3 6.4 5.3 6.4l2.3 2.3s-1.4-2.4-.6-3.2 1.6-.4 1.6-.4l-17.6-18.5zm-1.1.5s1.8 3.4 4.7 6.3a742 742 0 0 0 6.2 6l1.2 4.5s-8-6.2-8-4.7 2 4.7 2 4.7l-2.5-1.3-3.4-5-2-4.2-2.3-5.8 4-.5zm-24.2 19s4.1 3.7 6.4.1.5-7.8.5-7.8 6 8.7 7.6.5c.3-1.4-3.6-7-3.6-7l1.4-1.4 3 5s2.8-1.2 2.8-4.7-3-8-3-8l2.8 3s5.5.2 5.6-3.1-4.6-6.8-4.6-6.8 3.7.2 3.7-2c0-2.1-5-3.6-5.2-5s1.5-3.7 3.8-2.4 5.5 2.2 6.8-.2-.1-3-.1-3l-3.3-.7-5.2-2.8-4.1-1.6-4.3-.5 1.6 3.2 1 8.7.1 4 .8 8.8-2 7.3-1.1 1.4-.8 1-1.8 3.8-2.6 2.8-3.3 4.2-3 3.2z"/></g><path d="M534.2 250.7s-1-2.6-3.3-4.4-5.9-1.9-5.9-1.9l6.2 6.5zm8.6 1.5s-2-4-4.3-6.4-3.9-5.6-4.5-5.6c-.6 0-1.1.2-1.1.2l.6 5 4.2 4.1s4 3 5 2.7zm7-.3s-1-4.6-3.3-9a19.2 19.2 0 0 0-4.9-6.3l.6 4.7 2 4.6 3 4.5zm5.8-2.6s1.7-9.5.2-12.1-4.3-3.2-4.3-3.2l-1 1.4 1 6.8 2.2 5.2zm5.7-15.8s1.4.7 3 3.9 4.2 12.6 4.1 13.1c0 .5-.9.4-1.1.3-.2-.1-6-9-6-9l-.9-8.5z" class="AP"/><path d="M521.2 244.5s3-.7 3-1.7-3.6-3.2-3.3-5c.2-.8 3.1.2 3.3-.4s-3-5.6-2-6.8 3.7 5.5 3.7 5.5 1.6 3 1 4.9c-1.8 5.5-5.7 3.5-5.7 3.5zm7.1-6.9c.2-.4 4.8.6 4.9.3.1-1-4.2-4.4-4.2-4.4s-1-2-.7-2.2c.3-.3 3 .3 3.2-.1.2-.4-3.2-4.8-3.2-5.6s1-.1 1-.1 2.6 2.7 4 5c1.4 2.1 2.7 4 2.2 7.5-.5 3.8-7.6.8-7.2-.4zm21-7s-.8-3-.4-3.5 1.7-.7 1.7-.7-2.5-1.6-3.6-1.6-1.4-.4-1.7.1 2.1 3.6 2.1 3.6zm-14.1 2.5s7 1.8 7.4 1.2-5.7-6-5.7-6-.4-1-.3-1.4 2.6-.4 3.3.2 0 1.8.3 2.2 2.5 4 2.9 3.4-.5-4.8-.3-5c.2-.4 2.8 2.3 3.4 2.8.7.4 4.7 3.5 5.1 2s.7-1.6.5-2.5 1.4 4-.5 4.6c-1.9.7-4-.6-4-.6l-1.6-1.3-1-1s1 3.8-.2 4.2-2.7.2-2.7.2l-3-.3-3.6-2.7zm16.3-4.9s7.6 4.6 8.3 3.8-2-11.5-1.5-12.6c.4-1 6.2 12.1 3.3 13.9-2.1 1.3-3.2.4-3.2.4l-3.7-2-3.2-3.5zm21.1 19.2s.7.5 1.7.8c.3 0 1.2.4 1 .4l-2.2.3c-.2 0-.5-1.5-.5-1.5zm-7.3-25 1.1.5 1 .4s-.5.3-.9.3a2.4 2.4 0 0 1-.6-.2l-.6-1zm-2.2-3.8s.8.3 1.8-.4 1-1.2 1-1.5-1.7-.4-2.2-.8-.5-1-.5-1h-1.7l-.7.3zm6.7 22s2.3 1.4 3 1.5c.6.1 1.7.7 1.5 1-.1.1-1.8.3-2.7-.2s-1.1-.2-1.1-.2l-.7-2zM557.3 206c.1 0 .6.2 1 .1.4 0 .7-.3.9-.1.3.3 0 2-.6 2.4l-1.5.8-2.4-3.4zm-11-9.7 2.4-.1c.8 0 1.6.5 2.3 1s1.4 5 1 5.9-5.5-3-5.6-3.4L544 196zm-4.7-2.1s3.7.2 3.4-2.1a5 5 0 0 0-2-3.4l-4.5 3.1 3 2.4zm-10-4.4s1 .6 2.1.1 4-4.2 6.2-4.7 2.5-.4 3 .1c.3.5.1 2.7-.4 3.3-.4.6-6.6 3.2-6.6 3.2l-2.3-.3a14.7 14.7 0 0 1-2-.7v-1zm-1.2-6.8c-1-2.2-2.6-3.1-3.2-3s2.1 2.4 2.5 5.4.4 5 .3 5.2 1.3.2 1.3.2l.3-1.1.1-.9v-.7l-.2-1.6-.3-1.2-.3-1-.5-1.3zm-8.8-3.2c-2.8-3.3-8-5.7-8.4-5.7s6 3.9 7.5 6.3 1.5 5.9 2.1 6.3 1.3-.2 1.3-.3.6-.8.5-1l-.4-1.5-1-1.7-.6-1zm-8.4-3.4c-3.7-3.2-10.2-4.7-15.5-4.8s-8 .4-7.2 3.3c.7 2.9 3.1 4.2 7.6 4.2s5.5-.5 8 .2 4.6 2.2 5.5 3-1.7-2.2-4-3.9l-3.8-2.6s-.4-1 2.7-.5c3 .4 7.2 2.4 8.3 5s1 4 1 4.5 1-.3 1-.3l.4-1.2s.2-1-.4-2.2-.7-1.5-2-3.1c-1.5-1.7-1.6-1.6-1.6-1.6zM498.4 220c2.3-.1 7.3-4.4 8-10.4s-3-18.2-3.8-19.5 1.4-.6 2.6.7 3.8 10 3.8 16.3-1.3 8.2-4.6 11.4-6.2 2.9-6.2 2.9l.2-1.4zm7.9 17.8s1.1 1.4 2.4.9c2.3-.9 5.9-2.6 5.9-6 0-2-2.8-4-3-4.8s0-1.5 0-1.5l2.5.6.7 3.4s1 1 2 .6 3.8-2.5 3.4-4.5-3.1-4.5-3.4-5.5.1-1.9.1-1.9l2.3.4.7 3s.6 1 2 .7 3.6-2.7 3.1-3.8-2.3-3.9-2.4-4.1V214l.9.5s.9.4 2.7-.2 3.5-1.7 3.5-3c0-1.2-1.4-2.4-1.5-3v-1l1.2.2 1.4 1.8.4 2.1-.6 1.8-2.2 2.4-2.1 1-.6-.1 1.3 2.3-.4 3-2 1.8-2.5 1.5-.2 2.9-1.4 3-3.3 2h-1l-.3 1.9-2.1 3-3.6 2.3-2.6.5-1.4-2.2z"/><path d="M526 205.5s5.9 1.7 5.7-2c-.1-2.2-5.9-7-6.2-7.9s-.3-2-.3-2l3 2.8s3.8 1 4.9-1.3.2-3.5 0-3.6.8-.2.8-.2l1.8.4-.2 3.3-2 8.5s.6 3.4-2 3.6-5.6-1.6-5.6-1.6zm5.6 45.2s0-1.7-1.3-3-3.9-2.3-4.3-2.5 4.3 5.3 4.3 5.3zm8.6.3-3.6-5c-.7-1.2-2.2-4-3.5-4.2s1.2 4.6 1.2 4.6l4.8 4.5zm8.2-.1-3.2-6.3c-.6-1.4-2-5.3-3.5-6.3s.2 1.7.2 1.7l1.6 5 2.9 4.4zm6-3.5s-.2-4.2-.7-7c-.5-3-2.7-5.3-2.9-5.2s.2 5.1.2 5.1zm12.4 3-2.9-7.2c-.8-2.4-3-6.3-3.2-6.4s.7 4.5.7 4.5l2.5 7.3zm10.8-13s-1.9-2-6-3.5c-4.1-1.6-8.3-1.8-8.3-1.8l.5.5 1.9 1.6 4.3 2.2 5.7 1.4z"/><g class="AR"><path d="M533.3 239.9s0 3.6 1.9 5.8 6.2 6.2 7 7 1.7 5.2 3 9c1.3 3.6 1.6 6.7 2.1 7.7s1.7 2.7.9 2.6c-.9-.2-1.7-1.2-2.2-2.6s-.4-1.3-.3-3.1c0-1.9-2.8-11.4-4.2-12.4s-7.4-6.2-9.7-9.7-1.9-4.3-1.9-4.3h3.4z"/><path d="M543.1 263.6c-1.3-2.6-1.5-5-1.9-6.6s-5.5-5.9-6.8-6.4c-.9-.5-2.8 0-3.6-.5s-5.6-6.1-5.6-6.1-.8.7-.5.9l7 7.4c1.9 1.7 2.9 5.6 4.2 8.7s.8 2.4 1 3.9c0 1.5 1 2.3 2 2.3s1-.4.7-.7c-.3-.3-2.2-2.5-3.3-5.4-1-2.6-2.3-7.4-3.9-9.2l-.3-.4 2-.3c1.2 0 6.2 4.6 6.7 6 .4 1.4 0 2 2 6.6s3.2 5.6 3.2 5.6h.4s-2-3.1-3.3-5.8zm-8-30.5s3.7 2.3 4.8 2.6a15 15 0 0 0 2 .4s.5 6.7 3.2 10.5c2.6 3.8 4.8 5.2 4.8 5.2s.1 7.3 2.1 12.3 2.4 11.2 2 12.2-2.2-3-3.3-6.5l-2.9-9.6c-.7-2.3-2.7-5.8-3.9-6.8-1.1-1-.2-.8.5-.2s2.6 3 3.8 6.8 1.8 7.8 2.4 7.8 1.2-.6 1.2-1.4c0-.7-.9-2.8-1.5-6.4s-1.2-6-1.8-7-1.5-1.3-3.8-5.3-3.4-6.3-3.8-8.2.1-1.6-.3-2-.7.1-2.4-.9c-1.8-1-3-3.5-3-3.5z"/><path d="M544.7 231.7s2.3 1.8 3.5 2.3 3.1.6 3.1.6-.5 6.4 2 10.5 5.1 6.6 5.1 6.6.4 1.6 1.2 10.4l1 12.7c.3 3.5.4 16.2-.1 15.8-2-1.5-.3-8.4-1.3-11.2-1-2.8-2.5-3.3-4.3-11.3-2-8-.7-9.8-2-12.8s-3.1-3.3-3.1-3.3a5 5 0 0 0 3.5 3c1 2.5 1.1 9.2 2 12.6 1.9 7.5 4.5 11.3 4.5 11.3s-.6-9.5-1.3-14.8c-.8-5.4-.7-9.8-1.7-11.9s-3.2-3.7-4.5-6.4-1.7-8-2.4-9.5c-.6-1.4-1-1-1.8-1.3-3-1.2-3.4-3.3-3.4-3.3z"/><path d="M551.5 228.2s2 2.2 4.8 3.9c2.8 1.6 4.2 1.1 4.6 1.5s-.6 6 2.3 11.2 4 5.3 4 6c.2.7.7 16.1 1 21.3.4 5.2.8 22.7-1.3 22.7s-.2-12.9-1.3-16c-1-3-1-2-2-4.5-1-2.4-1-12-2.7-17.7-1.2-4.2-2.5-4.9-2.5-4.9s2 1.1 3 4.6c1 3.5 1.3 15.3 2.4 17.2 1.1 1.8 2.8 4.2 3.1 6 .4 1.7-.2-22.4-.7-23.8-.5-1.5-5.3-10.2-5.7-15-.4-4.8-.5-5.3-1-5.7-.4-.4-1.8 0-4-2.2s-4-4.6-4-4.6z"/><path d="M562.4 231c.2-.5 1.6 2.6 5.9 4.3s8.5 1.4 9 1.9 3.3 7 3.4 15.6c0 8.7-1.5 7.9-2.8 15.4s-1.4 22.6-2.3 25c-.4.8-.8 1.2-1.3 2.6-.4 1.5.4 4.3-1 4.3s-1.5-2.1-1.5-3.3 1.4-5.3 1.4-9.4-.9-4.6-1.5-9.6-.6-20.7-1.2-22.2-3.2-4.8-3.2-4.8 2.9 1.9 3.6 4c.7 2.1.7 19.6 1.5 23.1.8 3.6.6-.8.9-2.8s1.3-10.6 1.2-15.2-2.1-14.6-3.7-16.2c0 0 .8 1 1.7 3.1 0 0 .6.7 1.3 1 .6.4 1.4.6 1.5.7 0 0-1 0-1.6-.4l-1-.6c1 2.6 2 6.6 2.2 12.4.1 7.8-1.2 25 0 25.2s1-9.4 2.4-17.1 3-9 2.4-15.3-2.2-13.2-3.5-14-5.2-.6-8.6-2.8c-3.4-2.2-5.3-4.4-5.2-5zm-54.8 8.8s1.2.5 2.7-.2c1.4-.7 5.2-3.7 5.2-5l.1-2.5s0 .5 1.1.7c1.1.1 4.3-2.2 4.5-3.7.3-1.6.3-4.2 0-4.8s.9.6 1.5 0 3.7-2.6 3.6-4.6c0-2-1.6-4-1.6-4s1.4.3 2.3 0c1-.1 4-1.9 3.8-3.7s-1.1-4.6-3.5-4.8c0 0 1.8.4 3.5-.2s2.3-1.6 2.3-3.5-3.5-6-4-6.4 3.6 1.2 4.7-.5 1.3-3 1-3.9-1.2-1.2-1.2-1.2 1.8.5 4.3-.8 4.7-2.9 5.8-2.8-3.6 2.5-3.9 4c0 .5 1.3 1.5 3.5 3.1l.4.3c1 .5 4.7.7 5 .9.3.2-3.6.1-3.3.4 2.6 2 5.8 4.7 8.7 8.2.2.2.8.7 1.5 1 .9.2 1.9 0 2 .2 0 .2-2.5 0-2.4.1a100 100 0 0 1 5 7.2c0 .2.7.9 1.4 1.2.7.3 1.6.2 1.7.4.2.3-2.1 0-2 .3a125.6 125.6 0 0 1 5.1 9.2s-4.7-8.2-10.4-14.6-7-7.3-7.4-6.7 4.3 6.3 6.8 10.3 4.6 8.9 4.6 8.9-5.7-12-13.8-19.2-8.9-8.6-9.8-8.3-1.6 5.7-1 6.8 6.4 5.6 11.4 11.5 11.4 16 11.4 16-4.5-7.3-12.2-15.4-10.6-10-11.2-10-.6 1.6-1.5 2.8-2.8 1-2.8 1.6c0 .6 6.4 6.6 7.7 7.3s2 .3 3 .9l2.1 1.5-2.4-.9c-1-.3-2-.3-2 0s5.3 6.7 6.2 7.2 1.4.2 2.6.6 2.9 1.7 2.9 1.7-1.9-1-3.2-1.3-1.8 0-1.7.3c0 .4 4 5.5 3.8 5.6s-6.2-7.1-11.3-11.6-7.3-5.4-7.6-5.3 0 1.5-1.3 2-2.4.5-2.4 1 4.6 4.7 7.8 8.3a229 229 0 0 1 6 7s-3.3-3.3-6.8-6.7-5.5-4.7-5.8-4.5-.4 2 0 2.4 7 8.3 6.7 8.5-7.8-9.4-8.3-9.4-.8 1.2-1.3 1.8-2.6.5-2.6 1.3 10.7 11.3 10.4 11.5c0 0-8.9-7.6-9.2-7.2s3.7 7.8 3.5 8-5.2-7.7-5.7-7.7c-.4 0-.4 1-1.7 2s-3 .7-3 1.2 7.5 8.8 7.3 9-7.6-7.9-7.8-7.4c0 0-.5.4-.3 1.1.6 2 2.3 5.5 2 5.8 0 0-2.4-5-3-4.7s-.6 1.1-1.7 1.9c-1.1.7-2 .5-2.1 1-.1.5 1.3 1.4 1.9 2.5.6 1.2 1 3.7 1 3.7s-.7-2.1-1.7-3.5-2-2.2-2.8-2.2-1.4.7-1.4.7l-.7-1.7z"/><path d="M577.3 237.2s2.5-.2 2.8-.7-1-.1-3.1-2.5-7.8-18.6-14-26.7c-10-13.3-19.3-19.5-19.3-19.5s11.2 6.5 19.8 19c8.7 12.9 10.9 22.9 13.3 25.5 2.5 2.7 4.9 3.1 4.7 3.9s-.5 1.2-1.4 1.4-3.2.3-3.2.3l.4-.7zm-73.6-3.6s.1.2.6.3c.4 0 3.4-3 3.3-3.8 0 0-1.4-.5-2.5-1.7s-1.3-2.8-1.3-2.8 1 2 1.8 2.5 2.2.8 2.7.4 5-3.7 4.7-5c0 0-1.4.1-2.7-.9s-1.5-2.9-1.5-2.9.8 1.6 2.2 2.2c1.3.7 2.6.4 3 0s3.2-4.5 2.9-5.7c0 0-1.5.1-2.8-.8s-2-3.3-2-3.3 1 2 2.6 2.3 3-.6 3.3-1.9 1.2-5.7-.2-6.8c0 0-2.2.7-3.7-.1s-2.2-2.8-2.2-2.8 1.4 1.8 3.1 2c1.8.3 2.6-.7 2.9-1.4.3-.7.3-3.2-.2-4.7s-1.6-1.3-1.9-3.4c0 0-.6.8-2.8.8s-3.5-2.5-3.5-2.5 1.8 1.6 3.6 1.5 2.5-1.6 2.5-2.8c0-1.1-.9-2.1-1.4-3.3s-.5-2.6-.9-2.4-.7 1.2-3 .9c-2.4-.4-2.9-2-2.9-2s1.7 1.2 3 1c1.3 0 2.1-.6 2.1-1.5s-.5-2.5-3.4-5a89.1 89.1 0 0 0-5.3-4.2s3.8 2.1 6.3 4.2c2.4 2 3.8 4 3.8 4s2.7.9 3 0 .2-2-.6-3.7c-.8-1.6-3.1-4-3.1-4s2.4 2 3.5 4.1.6 3.5.7 4c.1.5 5.2 2.5 6.3 1.8s.6-2.1-.4-3.6l-1.7-2.8s1.2 1.3 2 2.8 1.6 2.6 1.3 3.3-1 1-1 1.3 1.7 1.1 3.4 2 3.7 1.7 4 1.2.4-1.6.2-3.3c-.1-1.6-1-4.1-1-4.1s1 2.4 1.2 4.1-.2 3 .2 3.6 1.7.8 1.7.8-1 .7-3.2 0-11.8-5.4-12.2-5 4.4 3.4 6.7 5.6 3.3 4.3 3.3 4.3-1.8-1.5-3.4-2.4-6.8-3.5-7.1-3.2c-.4.4 1.9.8 2 1.2s-1.5 2-1.5 2.7 7.2 5.7 7 6.2-1.9 1.9-2.2 1.8-3.8-2.8-3.8-2.4 2 2.2 2 2.6-1.4 1.3-1.1 2.1c.2.9 4 4 4 5s-2.2 2-1.8 2.7c.4.7 2.4 3 2.4 3s-2.1-1.3-2.8-2-2-2.4-2.3-2.1c-.2.2-1.6 3.2-1.4 3.8s1.8 1.7 2.1 3.5-.2 3.7-.4 3.7-2.5-3.1-3-3.2c-.4 0-1 .2-1.4 1s-1.8 3.2-1.6 3.7c.1.4 2.5 1 2.5 2.8s-1.5 3.6-1.6 3.6-3-3.7-3.2-3.7-3.4 3.5-3.5 4 2.2 2 1.8 2.5-2-.2-2.8.3c-.8.4-2.3 1-2.6 1-.3 0-.7-1-.7-1z"/><path d="M543.6 188s.3-1 .8-1.5 2.4-2.6 1.6-3c-.7-.5-3.1.3-4.7.2-1.5-.1-2.5.2-7-3.5 0 0-14.2-10-36.2-11.2-7-.4-10.1 2.1-10.4 3.4 0 .3 1.8-2.8 8.8-2.7 3 0 25.2 1.8 36.7 10.8.6.5 4.4 4.1 8 3.7s4.3-.8 4.2-.3-1.2 1.9-1.4 2.5l-.5 1.7zm-38.3 3-.1-.2c-.2-.7-1.6-2.6-4-4.9-3-2.6-11.9-6.4-12.3-6.5s9.2 4.4 11.9 7c4.3 4.1 4.5 4.5 4.5 4.5z"/></g><path d="M505.2 206.7s-.6-1-2.4-2.1a15.1 15.1 0 0 0-3.8-1.8l4.3 1.1a7.3 7.3 0 0 1 2 2.8zm-1.1-8.2s-.6-.9-3.3-1.7-3.3-.8-3.3-.8 2.5-1 4.4-.1c1.9 1 2.2 2.6 2.2 2.6zm-1.6-6.8s-.5-1.2-3-2-4-1-4-1 2.5-.7 4.9.2 2.1 2.8 2.1 2.8zm-2.9-4.3s-.7-1-5.1-2c-4.5-1-6.3-1.1-6.3-1.1s6.4-.5 8 .2 3.4 2.9 3.4 2.9zm-8.2-4.7s-2.7-.8-5.4-1-6.7.2-6.7.2 7.6-1.2 9.7-.8 2.4 1.6 2.4 1.6z"/></g><g stroke="#9d7a51" class="Aa"><g class="AQ"><path d="M466.2 277.6s1.4 2.4 4 2.5 4.8 3.9 4.8 3.9l-3 2.9-7 .3-2.3-3.6 3.5-6zm.2-2.5c.2-.5-2.1-5-3.8-5.8s.6 1.5.2 2.4-.6 2.1-.5 2.3 1.4 2 .7 3 3.4-1.9 3.4-1.9z"/><path d="M465 282.1s1.4.6 2.3.3 2-1.3 2-1.3m-5.5-.8s4-2.9 3.7-4.4-1.2-1.5-1.7-1.4-3 2.2-3.1 2.7 1.1 3.1 1.1 3.1z"/><path d="M461 282.3s.7 2 2 2 3.2-1.1 3.2-1.9c0-.8-1.3-2.2-2.2-2.6s-2.8.7-2.8.7z"/><path d="M464.6 279.7c-.2.6-2.7 1.8-3.5 1.8s-2.6-2-1.9-2.3c.7-.3 1.6-.3 2.2-.6.7-.4.8-1.2 1.2-1.2s1.4.2 1.6.8c.3.7.6.9.4 1.5z"/><path d="M462 281.4s-3.9 5.2-5.5 5 .6-7.5.6-7.5.7.4 2 .8 2.6.9 3 1.7z"/><path d="M455 277.6s5.1.9 5.3 1.7-2.4 1.9-3.8 1.9-1.4-3.6-1.4-3.6z"/></g><g class="Ah"><path d="M442.5 285.2s.7 2.5 2.9 2.6 4.2-2.3 4.2-2.3l-5.2-2z" class="Ae"/><path d="M442.5 285.2h-.1s.2.7.6 1.3a3 3 0 0 0 2.4 1.4h.1c2.2 0 4.2-2.3 4.2-2.3l.1-.1-5.4-2.1-2 1.8h.1v.1l2-1.7 5 2h.1v-.2l-.4.4c-.6.6-2.1 1.9-3.7 1.9h-.1c-1 0-1.8-.7-2.2-1.3a4.3 4.3 0 0 1-.4-.8l-.1-.3h-.2z" class="Af"/><path d="M444 284.6s.8 1.8 3.7 1.8 5-2.2 5-2.2l-4.4-3.6z" class="Ae"/><g class="Af"><path d="M444 284.6h-.1s.9 1.9 3.8 2h.1c2.9 0 5-2.3 5-2.4h.2l-4.7-3.8-4.5 4.1v.1h.2l4.3-3.8 4.4 3.5v-.2c-.5.5-2.5 2.2-4.9 2.2h-.1c-1.4 0-2.3-.5-2.9-1a3.4 3.4 0 0 1-.6-.5 1.7 1.7 0 0 1 0-.2h-.2z"/><path d="M444.4 285s1.2 1 2.7 1.1 3.4-.4 3.4-.4l-1.8.6-1.2.2-1.1-.2-1-.4-.9-.6z"/></g><path d="M447.7 282.5s1.2 3 3.9 2.7 2.7-1.9 2.7-1.9l-3-4.3-3.6 3.5z" class="Ae"/><g class="Af"><path d="M447.7 282.5h-.1a5.8 5.8 0 0 0 .9 1.4c.5.8 1.5 1.5 2.7 1.5h.4c1.4-.2 2-.7 2.4-1.2s.4-.8.4-.8l-3-4.5-3.9 3.5v.1h.2l3.6-3.3 3 4.2h-.1c0 .3-.3 1.4-2.6 1.7a2.7 2.7 0 0 1-.4 0c-1.1 0-2-.6-2.6-1.3a6.1 6.1 0 0 1-.6-1l-.2-.3h-.1z"/><path d="M448 283s1.6 2 3 2 2.3-.6 2.3-.6v.2l-.7.4-1.2.3-1.3-.2-1-.6-1-1.4zm-5 3.2s1.2 1.2 2.4 1.3c1.1 0 2.8-1 2.8-1h.2l-.3.3-1.1.6-1.4.4-1.1-.2-.9-.5-.5-.6z"/></g></g><g class="AQ"><path d="M454.8 277.3c1.1-.1 3.6 3.3 3.6 5s-.7 4.2-2 4-4-2.5-4.6-3.8-1.2-2.1-.8-2.8 3.7-2.4 3.7-2.4zm-12.4.3s-2-1.5-2.8-.7-.5 3.5 0 4 3-1.2 3-1.2z"/><path d="M442.1 279.5s-2.6.3-2.6 1.5 1.2 2.5 1.5 2.8 2.6-1.1 2.6-1.1z"/><path d="M443.2 281.7s-2.8.8-2.8 1.8 1.2 2.7 2.1 2.7c.9 0 1.5-1.7 1.9-2 .3-.4-1.2-2.5-1.2-2.5zm1.3-7.8s-.5-.8-1.7-.3-2.3 1.6-2.1 3.4.8 3 .8 3l4.1-1.4z"/><path d="M444.8 277s-3.5 1.2-3.6 2.5.8 2.7 1.7 3c1 .2 4-2.6 4-2.6z"/><path d="M447.9 282.6s-3.5 2.3-4 2.3-1.7-1.8-1.4-3 2.6-2.1 3.5-2.4 1.9 3.1 1.9 3.1zm3-12.5s-1-1-3.2-.8c-2 .2-3.6 3-3.9 4.3s0 4 .8 4.3 5.1-3 5.1-3z"/><path d="M446.7 280.4c-1.5-.1-2.8-2.2-2.5-3.4.2-1.3 3-3.5 4.6-3.2s1.2 4 1.2 4-1.9 2.8-3.3 2.6z"/><path d="M451.3 280.1s-.8 1.7-2.2 2.4-2.3.2-3.2-1 .4-1.8 1-2.4c.7-.6 2.6-1 2.6-1z"/><path d="M449 275.7s-1.7 1.3-.8 2.8 1.7 2 2.9 2.3 1.9-.3 2.8-1.4 2.3-1.6 2.2-3-.7-2.5-1.5-2.9-3.4 0-5.7 2.2z"/></g><g class="Ah"><path d="M453.6 269.2s-1.7-.7-3 .1-2.2 2.3-2.2 3.7l.2 3.4s1.8-.5 3-1.5 1.5-1.2 1.3-1.7c-.1-.3-.6-.6-.6-1.8 0-2 1.3-2.2 1.3-2.2z" class="Ae"/><path d="M453.6 269.2s-2-.3-3 .3-1.7 1.6-2 2.8-.2 1.6-.2 1.6-.2-1 .2-2.1c.4-1.2 1.4-2.4 2.3-2.7 1.2-.4 2.7 0 2.7 0z" class="Af"/></g><g class="AQ"><path d="m503.5 306 2.4-1.1 3-2 .7 3.5-2.7 2.1h-2.3l-1.4-1z"/><path d="m499.8 306.3 1.6.1c1.7 0 1.8-.6 2.1-.4s.8 1.9.8 1.9l-.6 1-2.4 1.4-2-1.1-.1-2.8zm18.6-1.1s-.5-.8-1.4-1.6l-3.3-2.9v7.6l3.5-.1 1.6-2.3z"/><path d="M499.8 306.3s-.5-.7-2-.6c-1.5.2-3 1.4-3.2 2.4-.2 1 0 4 .8 4.5s1.8.9 3.4.5c1.6-.4 9.7-5.4 9.7-5.4l-2 .4c-1.2.2-2.2-.2-2.2-.2s-1.1 1.2-2.4 1.4c-1.3.2-1.6-.6-1.9-1.2s-.2-1.8-.2-1.8z"/><path d="M505.2 309s-1.2.4-1.6.7-2.1 1-2.1 1l.6 2.4 3.5.9 2.1-1.8v-2.5zm16-1.8-1.1-1.2c-.7-.8-1.5-1-1.7-.8l-1.8 2.3-.2 1.5 2 1 1.3.3 1.7-1.1z"/><path d="M509.4 306s-1.5.7-2.3 1.3-1.9 1.4-1.9 1.6 1.7 2.1 1.7 2.1l1.8.2 3.8-2.7-.2-2.5h-2.9zm14.6 3.2s-.3-.6-1-1.2-1.3-.9-1.7-.8c-.5 0-2 2.3-2 2.3l-.2.6 1.4 1.6 2.5.6 1.7-1.7z"/><path d="m517.6 311.8 1.8.3s0 .5.4.9c.5.4.6.1.6.1s.2 1.7 2 3c0 0 2.2.8 3.3.2 1.1-.6 1 .2 1 .2l3-3.8s0-.8-.7-.9c0 0 .5-2.3-1.5-2.8s-3.5.2-3.5.2-1.6 2.8-2.5 2.4c-.2-.1-.7-.4-1-.8-1-.9-1.2-1.3-1.2-1.3s-.6.2-1.4-.3-1.3-1.8-1.3-1.8-1.2-.2-1.6-.6-.8-1.2-.8-1.2l-2.9 2s0 1-1.7 2.2-2.7 1.2-2.7 1.2-.4 2.5-2.3 2.1c-1.8-.4-3.1-2.5-3.1-2.5s-1.3-.2-2.2 1c-.8 1.1-1.3 1.5-1.3 2.6s.8 2.8 1.4 3.3 2.4 2 4.6 1c2.2-1.2 1.5-3.1 1.5-3.1l1.2-.7c1.2-.8 2.8-2.3 3.8-2.7" class="An Ao"/><path d="M514.2 296.6v4.9s.7 4.3-.3 5.7c-1 1.4-4.4 1-4.9-.1-.5-1.2-.2-5-.2-5z"/><path d="M510.4 311.4s-.7 1.3 1.5 1.5c.7 0 1-.2 1.4-.5.6-.7.4-1.2.4-1.2s-.2 1.8 1.9 1.8c2.2.1 2-2 2-2" class="An Ao"/></g><g class="Ah"><path d="M491.8 315.4s-1.2-2.1.2-2.9 2.3 0 3.2.1.6-2.3.4-2.8-.6-1.4-1-1.7c-.4-.3-5.3.2-5.3 3.5 0 3.2 2.5 3.8 2.5 3.8zm7.7 8s-1.5-2.3-.7-3.7 1.5-.5 2-.5c.4 0 .6-1-.1-2.5s-1.7-2.3-2.2-2.3-3.5 2.1-2.9 4.9c.7 3.4 4 4 4 4zm27.9-2.8s5.4 2.3 5.7-3.1c.2-3-2.4-5-3.2-5-.6 0-1 .4-2 1.6s-1.6 2-1.2 2.4c.3.4 2-.5 2.6 1.2 1.2 3-2 3-2 3z" class="Ae"/><path d="M499.5 323.3s-4.1-.9-4.1-5c0-2.7 3-4 3-4s-2.8 1.6-2.8 4c0 4.1 4 5 4 5zm-7.6-7.9s-2.4-.5-2.7-4 5.5-3.3 5.5-3.3-5.5.3-5.2 3.6c.3 3.4 2.4 3.7 2.4 3.7zm35.5 5.2s1 .5 2.3.5 2.7-.4 3.2-2.4.3-3-1-4.9c-1-1.2-1.9-1.2-1.9-1.2s1 .2 1.7 1.3 1.8 2.4 1 4.7-2.9 2.4-3.7 2.3a8.4 8.4 0 0 1-1.6-.3z" class="Af"/></g></g><g class="Aj"><path d="m463.4 207-1-.3.7-1.6 2.8-1 2.8-.2 3-.1 1.4 1 1.5 3.4-5.6 3.4-1 .3-.3-1.4-.9-2.3z" class="AZ"/><path d="m516 288.4-.4-8.4-22.7 7 9 8.4z" class="AR"/><g class="AW"><path d="m473.8 273.7-1.9-1.5s-1.4-1-2.1-1.2-1.8 0-1.8 0l-.3.4.3.8 2.1 2.4 3.5 1.8 1.2 1.2.8.3zm-.5 3.6 1.3.2 1.3 1.5.8 1.5 1 2.1.4 1.3-2.6-.6-7.3-2.3.6-1.7 1.3-1.2 1-.5 1.6-.2z"/><path d="m478 283.4 1.3-.1.8-.7-.4-2.8.5-8.8-6-7.1-1.2 4 1.7 7.2 1.3 4.3z"/></g><g class="AP"><path d="M473.8 267.2s-.4.7 0 3 1.5 7.6 3.5 11.1-2-2.8-2-2.8-3.2-7.2-2.7-12.6 1.2 1.3 1.2 1.3z"/><path d="M478.1 271.7s-1.3 1.7-1.5 2.9.1 3.4.1 3.4-.2-1.6 1.2-2c1.3-.4 1.1 3.6 1.2 4l.8-7.2zm.7 14.8-6.7-1.6c-3.5-1.5-5.4-2.7-5.3-3.6s6.2.2 7 .4 3.7 1.6 3.7 1.6h1.6l2.9-1.3.4 3.1-3.6 1.4zm-11.2-1.3s1.6 1.2.8 1.7-2.9.6-3.6.4a1718 1718 0 0 1 6.5 1.6s1.4-1.2 1.3-1.3l-5-2.4z"/></g><path d="M465.8 283.4c.2-.4.4 1 2.7 1.3s3.4-.4 3.4-.4l1 .6 1.3.3-1.1 1.7-4.3-1.3-2.3-1.2z" class="AW"/><path d="m481 280.4 1.1 1.7.7-3.7v-4l-2.4-1.5z" class="AP"/><path d="m474.2 274-2-3.3-2.6-4.7 1.6-2.7 2 2.8s-.6 2-.3 3.7 1.3 4.3 1.3 4.3z"/><path d="M460.6 286.2s.8-1.4 2.8-1.6c2-.2 3.7.3 3.7.3l4.1 2.1.8 1.4-7.7-1-3.7-1.2z" class="AW"/><path d="m480.8 272.5.3 6c.1 1.5 1 3 .9 3.6s-.5.9-1.5 1.2-3 0-3 0 2-.2 2-.6-.5-2.2-.6-3.8 0-3.4-.5-3.4-1.1.7-1.2 1 .5-5.9 1.2-6.5 2.4 2.5 2.4 2.5z" class="AO"/><path d="M466.6 284.7s-.8-.8-.8-1.3 1 2.5 5.2 2.3l4-.2h2s-.5 1.8-.8 2l-3.4 2.2-1 .6v-.3h-.2l-.3-3.3-3.7-1.4z" class="AP"/><path d="M474.2 274s-5-5-6.6-8.4c-1.6-3.4-.6-8-.6-8l4.6 6s-.6 1.2-.4 3.1 3 7.4 3 7.4z" class="AO"/><path d="M471 292.7c-.1-.4-.3-1.5.6-2.7 3-3.7 10.4-6.3 10.4-6.3v4.5l-9.5 4.6z" class="AP"/><path d="M471.6 289.3c.4-.3 2-1.5 2.1-2 0-.7-1.1-.8-3.3-1.2a15.4 15.4 0 0 1-3.9-1.4s2.7 2 3.7 2.4 1 .8.8 1.1.5 1.1.6 1zm12.7 1s-1.4-2-1.8-3.3c-.4-1.2-.4-3.2-.5-3.3s-1 .7-1.6 1l-2.9 1c-.1.1 3 0 3 1s-4.5 1.6-4.5 1.7 3.6-.8 3.4 0c-.2 1-1.8 1-3.8 1.9l-3.5 1.6-1 .7s.8.5 2.2.5c1.3 0 4.4-.8 4.4-.8l5.9-2.3.7.3z" class="AO"/><path d="M484.3 290.3s-1.6-.6-2.8-7.4c-1.2-6.8-.8-8.7-.8-8.7l2.8 2 2.4 4.5z" class="AP"/><path d="M485.2 279s-1.3 3.8-1.3 6-.2 3.7.4 5.3c.7 1.6 2.8 3.5 2.8 3.5l1-1 .5-3.1.2-5.1-3.6-5.7z" class="AO"/><path d="M489.1 284.2s.6 9.6-1.8 9.9c-1.2.1-3-3.7-3-3.8s2.2 3.5 3 3.2c1.5-.6 1-10 1-10l.8.7zm-4.8 6.1s-.4-.2-1-1.3-.2 1-5.3 2.8c-5.2 1.9-7 .8-7 .8s1.7 1.4 7-.1 4.7-1.9 5.3-2l1-.2z" class="AR"/><path d="M474.7 278s.9.7 1.8 2.6l1.6 3.2.2-.2s-.6-1.9-1.5-3.3l-3.3-4.8z" class="AP"/><path d="M471.6 290s.5-1.8 0-2.1-1 0-4.5-.4a52.2 52.2 0 0 1-6.5-1.3s2.3 1.5 4.6 2l5.3 1.3.8.2z" class="AO"/><path d="M471.6 290s0-.4-.3-.9-1.1.2-5.4-1c-4.2-1.1-5.3-2-5.3-2s1.5 1.4 5.2 2.4l5.8 1.5z" class="AR"/><path d="M473.5 277.3s-3.2.2-4.2 1-2.5 3-2.5 3l2.1.3s-.3-2 .7-3 2.5-1 4-1.3z" class="AP"/><g class="AO"><path d="M467.4 271.2s1.3 1.7 2.7 2.3 2.7 1 3.3 1.7 1.3 2.8 1.3 2.8-4.6-2-5.5-3-1.8-3.8-1.8-3.8z"/><path d="M472 272.2s-.5-.7-1.8-1.2-2.2-.5-2.5-.3-.3.5-.3.5l1.7 2.5 1-.2s-2.6-1.6-2-2.1c1.3-1 3.8.8 3.8.8z"/></g><path d="m484.4 266.4 25.9-13.4 12.3 17-22.4 6-11.9 1-5.8-4z" class="AR"/><path d="m519.1 273.7 32.3 28-3.6 2.4-7.5-2.1-15.8-15.6-5.8-5.8z"/><path d="M560.5 296.1s-8-6.3-18.5-14l-23.3-17.5.6 8.3 26.7 24.5 8.8 4.3 4.4-1.4 2.3-2.3-1-1.9z"/><path fill="#6c401f" d="M519 276.4s9.3 10.5 16.4 15.8c7 5.4 13.8 11.2 15.2 10.4s1-1.7 1-1.7l-32.8-26.7.2 2.2z"/><path d="m541.9 303.2-3.3 2.6-3.8-1.6L515 284l1-3.7 2.8.4z"/><path d="M560.5 296.1s-2.5 5.8-7.6 4.4c-5.2-1.3-33.7-28.4-33.7-28.4v2.8s28.8 26.5 34.4 27.6 10.1-3.8 9.5-4.3c-.3-.4-2.6-2-2.6-2z" class="AR"/><path fill="#6c401f" d="M515.8 280.6s9.3 11.8 14.1 16.2 9 7.7 11 7.3c2-.4-1.1-2.6-1.1-2.6l-14-13.7-7-7.2s-2.9-1.1-3 0z"/><path d="M518.1 280.6s23.4 23.8 25.3 24.4c3.9 1.1 9.5-3 9.5-3l-2.1-1.1-.3.7s-1 2.4-6 1.3c-5-1-25.6-23.1-25.6-23.1l-.8.8z" class="AR"/><path d="m527 303.4-8.6-9.8-1.9-3.2-.5-4.2 17 17.1-2.4 1.6-2-.7z"/><g class="AR"><path d="M542.3 303.7s-2 3-4.8 2.5c-2.8-.6-4.4-2.7-4.4-2.7l-16.3-15.9-.4-2.4s17.9 18.9 21 19.7c2.4.6 4.1-2.2 4.1-2.2l.8 1z"/><path d="M533.3 303.2s-.8 2.4-3.2 2c-2.4-.3-3.1-1.3-3.1-1.3l-10-11.8-.2-3.2s10.4 14.4 12.8 15.2 3-1.6 3-1.6l.7.7z"/></g><path fill="#9d7a51" d="M522.6 272.1s9.7 8.3 10.5 8.7 4.2.5 4.4 1c.2.5-2.2 0-2.4.5-.2.5 4.8 4.7 5.6 4.8.8 0 5 0 4.8.6 0 .5-2.8 0-2.9.6s4.4 4.1 5.2 4.2c.8.1 6 .1 6 .6 0 .6-4.2 0-4 .9 0 .9 7 5.2 6.7 5.8-.3.6-8.4-5.4-8.6-5.1s-.5 2.2-1 2.5c-.5.3 0-2.5-.4-3.8s-5-4.7-5.6-4.3 0 2.5-.6 2.5.2-2.6-.4-3.5-4.8-4.5-5.4-4.5-.2 1.9-.6 2.2-.3-2.2-1-3-10.7-10-10.3-10.7z"/><path d="M506 299s.2 3.6-1.5 4.1c-1.6.6-4.7-6.7-4.7-6.7l-.8-6.7 4.9 4.4 2.2 4.8zm13-2v-1.9l-.4-2.2-.4-3.8-.9-2.5-.7-1.6-1 .1-2.6 1.8-.8 2.5 1.3 4.5 1.3 4.2 1.8.6 2.4-1.6z"/><path d="M515.7 303.5c.6-.2-.5-5.2-.5-5.2l-3-7.4-.8-2.6-2.4-1-1.6 1.9.3 2.9 3.5 6.6c1.1 1.7 3.5 5 4.5 4.8z"/><g class="AR"><path d="M513 287.8c.9.6 1.9 2.6 2.1 3.9 0 0 2 5.4 1.7 6s-1.4.6-1.4.6 2.6 2.8 3.4 2.4.5-3 .2-3.6-1.1-.2-1.4-.8-1.4-4.3-1.4-6.4c-.1-2.2-.2-3.7.1-4.2s2.3 4.5 2.3 7.2l.8 1-.8-4.8-1.1-3.5c0-.4.4-1.4.4-2.3v-1.6s1 .8 1.4.7c.4 0 1-.6 1.2-3a81 81 0 0 0-.2-9.2L509.9 284l3.1 3.9z"/><path d="M513 286.6s-.4 3.7 1 7.4c1.3 3.8 1.7 4 2 4.5s.2 4.5-.3 5c0 0-2.6-6.8-3.5-10.1s-1.2-4.6-1.6-4.9-1.3-.3-1.3-.3z"/></g><path d="M512 306.1c.3 0 .1-1.5.1-1.5l-.4-3.6-3.6-7.4-4-3.6-2-3.3-.4 6.2s2.9 6.2 4.8 8 5 5.3 5.5 5.2z"/><path d="M497.2 289.3s.6 1.7.6 2.7v2.1l2.8 5.3c1.3 2.4 2.6 4.8 3.7 4.3s1.5-2.3 1.6-2.5c0-.2-1.3 2-2 1.7-.6-.4-3.6-10-3.5-10.2s-.8-.6-1.5-1.3l-1.7-2.1zm10.8 8.4s-2-3.4-2.7-4.9-1.8-2.6-2.1-2.6-.8-3-.8-3 1 2 2.5 2.7 2.2 1.2 2.9 1c0 0 .4 1.5.4 3l-.2 3.8z" class="AR"/><path fill="#6c401f" d="M501.4 292.7s.7 2.2 2 4.2c1.4 2 3.6 4.4 3.6 4.4s-2.5-2.4-3.7-4.3c-1.3-1.9-2.2-4.3-2.2-4.3z"/><path d="M508.5 290.2s.6-1.8 1.2-1.9l1.8-.4s-1-.3-1.9-1.3l-2-2 .7 3c.2 1 .2 2.6.2 2.6zm-.7.6 3.7 8.5c.8 2 .6 5.3.6 5.3s-.3-2.3-1-4.2-3.3-7-3.6-7.6c-.2-.6.3-2 .3-2z" class="AR"/><path d="m511.8 286.7.7-9.3-.7-3.3-4.2-9.3s-.2 1.4-1.2 1.4-3.8-1.6-4.8-2.8c0 0 .6 2.2.4 4.2s-.6 3.2-.6 3.2l8 15.1z"/><g class="At"><path d="M495.8 292.8s1.3 1.5 2 1.3.4-3-.5-4.7a143 143 0 0 0-12.2-15.5 180 180 0 0 0 10.7 19z"/><path stroke="#6c401f" stroke-width=".07" d="M502.5 287.4c.2.6.9 4.8-.8 5.2-2.3.5-13.1-14.4-14.8-16.4 0 0-6.8-4.3-6.9-5.4s7.3 1.5 7.3 1.5l14.5 13.8s.5.7.7 1.3z"/></g><path d="M495.8 292.8s-1.2-2.1-1.3-3.6c-.1-1.5-.6-2.3-.7-2.9s-8-11.9-8.8-12.6c-.8-.7-3.4-2.2-3.4-2.2l.3 2.6v1c0 .9 2.5 4.8 6.1 9a703 703 0 0 0 7.8 8.7z" class="AR"/><path d="M507.8 290.8c1-.6.6-4.2.2-5.4-.4-1.1-6.8-14.5-6.8-14.5l-2 .7-3.6-2.8-2-2.2s.7 3.2.6 4.7l-.1 2.5 5 9 8.7 8zm7.2-8 1.6-2-.8-6.7-4.3-14.6s-1 .3-2.1-.4-2.2-2-2.2-2l1 8.8 4.5 12.1.2 3.7 2.1 1z"/><path d="M501.8 286.1s-4.3-4.6-5.7-7l-2.6-4.5s-1.2.5-2.7 0c-1.5-.7-3.5-2.8-3.5-2.8s-1.2 2.3 5 8.6c7 7.2 9.5 5.7 9.5 5.7z" class="AR"/><path d="M512 287.7c1.9-.7 1.8-8.3.1-13.4-1.7-5-4.5-9.5-4.5-9.5s3.5 8.2 4.3 11.6 0 5.7-.6 5.5-.6-2-2-5.2c-1.4-3.3-2.4-4-2.4-4s5 13.4 3.6 13.1-8.3-15.2-8.6-15.6c-.3-.4-.5.6-.5.6s6.1 18.7 10.7 17z" class="At"/><path d="m516 251.3 3 6.4 1 6.8.3 5.7s.2 11.3-1.2 11.6-2-1-2.1-1.3l-2.6-12.8-2.7-13 1-.9.3-1.9 2-.1z"/><path d="M507.8 290.8c1.2-.1 0-3.2 0-3.2s-1 1.5-1.8.5-2-4.8-2-4.8l-.8-2.2s-1 2.5-2 2.5c-1.2 0-7-10-7-10l-.7 1s8.2 17 14.3 16.2z" class="At"/><path d="M504 283.3s1-2.4.5-4.6c-.4-2.2-3.3-7.8-3.3-7.8s-1 .2-2.1-.2-3.5-2-3.5-2 1.6 4.2 3.4 7.3c1.8 3 5 7.3 5 7.3zm4.7-3.4s-.7-5.3-3.1-10.1c-2.4-4.9-4-6.4-4-6.4s.2 1 .2 3v2.4s2.1.8 3.8 3.7a53 53 0 0 1 3.1 7.4zm6.5-9s-.3-5.7-1.2-8.9l-1.8-7.5s0-.4.5-.7c.2-.1.5-.2 1 0 1.2.4 1.7 3.4 1.7 3.4l-.3-4.8-.4-.8s-.4.2-1 .2a25.2 25.2 0 0 1-1.1-.2s.3 1.4-.3 2c-.4.6-.8-.3-1-.5l-.3.7s.5 1.6.6 3a10.4 10.4 0 0 1-.2 2.6s.9 3.4 1.8 5.4c1 2.1 2 6.1 2 6.1zm5-.7s1-8-.8-13.3c-1.8-5.2-3.3-6.5-3.3-6.5l-.9 1s2.8 4.4 3.6 8.5c.8 4.3 1.5 10.3 1.5 10.3zm-8 4.1s-1-6.3-2.1-10.4l-1.5-5.6-1.7-1.6s1 4.4.9 5.6l-.2 2.1s.8 2.2 2 4c1.1 1.8 2.5 6 2.5 6z" class="AR"/><g class="AZ"><path d="M516.4 284.4c1.6 0 .2-9.1-.5-11.5l-4.4-13.4s4.5 15.7 4.1 16.5c-.5 1.2-2.3-4.8-2.6-4.7s3.4 10.6 2 10.8c-1.3.1-2-2.2-2-2.2l.2 2.3s.8 2.2 3.2 2.2z"/><path d="M518.4 279.8c1 0-.4-8.7-1.2-12.5s-3-11.5-3-11.5a68.8 68.8 0 0 0 3.6 11.4c1.2 6.1 2 14 .9 14.1s-1.8-1.1-1.8-1.1l-.2-1.4s.5 1 1.7 1z"/></g><path fill="#6c401f" d="M503.4 290c.2.6.1 3.6-1.4 3.4s-4.5-3-5-4.7c0 0 3.3 3.8 4.5 3.8s1.2-4 1-5 1 2.5 1 2.5z"/><path d="M511.7 248.6s2 1.3 3.7.4 2.7-3.3 2.6-4.6 0-2.3-1-3.6 1.5 1 1.5 3.5.1 6.6-3.7 7.5-2.2-.2-2.2-.2z" class="AW"/><path d="M508.6 241.2s2.4 4 3.4 7.6.8 5 .2 5.1c-.6 0-.9-.4-1-1.3s-2.6-11.4-2.6-11.4z" class="AO"/><path d="m465.6 246.1 16.2 23.6 20.4-23-12.9-13.2z" class="Ag"/><path d="m486.1 231.7-1 3.7 2 6.3 3.5 3.4 3.9 2.7.9-3 1-3.4 1-.4 2.4 1 1.7-2.4 2.6-4.7-.6-1.9-.6-1.3-4-7.1-1.5 2.7-1.3.8-2.4-1.4-2.8 3.8-3.6-1.6z"/><g fill="#6c401f"><path d="M494.5 247.8s.7-.5 1-2.4.3-7.6-.2-9.8-2-6.8-2.2-6.5 2.3 5 1.9 10.6-.2 7.2-1.4 7.7.9.4.9.4z"/><path d="M495.4 238.3s2.7 3.9 4 2.5c1.3-1.4.7-6.3-.2-8.2-.8-1.9-1.7-4.7-1.7-4.7l.8-.8 1.4 5.3c.5 2 2 8 .2 9s-4.4-2.2-4.4-2.2v-.9z"/></g><path d="M486.8 241s.9-1.3 2-1.5 1.5.4 1.5.4l1.1 3.2 1.9 3.3 1.6 1.6-1 .9-1.3.2-3.9-2.1c0-.2-1-1.5-1-1.5l-1-4.5z" class="AO"/><path d="M493.1 274.4c-1.2.6-4.1-.8-5.8-2.3S477 262 477 262l-1.2-5 3.4 1 5.8-2.6 1.1-2 7.1-3.7 4-2.1 8.5-.2 2-4.2s2.9 5 3.4 7 .4 8.3-.4 8.7-3.5-1.8-4-2 2.2 8.8 0 9.1-5.5-3.3-5.5-3.3 1.4 8-.2 8-6-2-7.7-4c0 0 2 6.7-.2 7.8z" class="AW"/><g class="AO"><path d="m491.5 264 1.8 2.7c.4.6-.1 4.4-.4 5.1-.5 1.5-2.5-1.7-3.5-4.5l-3.3-5.9c-.2-.6 5.4 2.6 5.4 2.6zm16.6-19.7s3 12.4 1.6 12.9-5.6-4-6-4.6l-6.3-9.8-1.2-1.3.3-.6 2.5 1 9.1 2.4z"/><path d="M486.8 268.2c-.7.4-2-1.6-2.6-2.1s-2.6-3-4.6-5.1-3.5-3.5-3.5-3.9-1.1-1.7-1.1-1.7l1-1.3 1.4-.2s8.2 6.5 8.8 7.6c.6 1 1 6.5.6 6.7zm12.3.1c-.3.3-5.8-3.6-8-6.9s-4.8-6.1-5.3-7.6a112.5 112.5 0 0 1-1-3l1.6.4s13.4 16.6 12.7 17.1zm2-5.8c-.3.4-2.7-1.4-4.2-3.3s-.6-4.3-.6-4.3 5 7.3 4.8 7.7zm3-.7c-.7.4-3.8-3.4-6.4-7.7-2-3.1-2.4-3.6-2.8-3.8-.8-.5-2.1-.7-2.1-.7l-.3-.4 1.4-.3 1-1.2 1.7-2.1 6.5 13s1.5 3 1 3.2z"/></g><path d="M487.3 272.1c0 .5 0 1-1.8.8s-11-5-15.1-11.9a3345.2 3345.2 0 0 1-4.7-7.7l1.8-2 14.7 16.6 5.1 4.2z" class="AP"/><path d="M487.3 272.1c.2.8-.7 1-1.6.8s-4.6-1.6-10.5-8.1-8.2-11.2-8.2-11.3l-.3-2.8 1.8-.7 10 15.3 8.8 6.8z" class="AO"/><path d="M497.1 265.5s-3-2.1-5-4.5-5.8-7.7-5.7-8.7c0-1.1 1.7-1.1 1.7-1.1v-2.7l.4-1 2.9 1.2 3.5 4.4 1.4 1.8s2.3 5.6 1.8 6.1c-.4.5-3.7-3.1-4.1-2.7s3.7 6.8 3.1 7.2zm-5.6-1.5s1 1.5.5 2.6c-.4 1-.8 1.6-2.3-.6a23.4 23.4 0 0 0-3.5-4.5c-.2.2.2 3.4-.6 3.4-.7 0-3-2.8-4.5-5l-3.8-6s.2-.7 0-3.2l-.2-3.8s.2.8.5 1.3l.6 1 5.5 6.5 1.5-1 3.3 6.3 3 3zm-20.8-9.4s4.2 7.5 8.2 11.6c3.9 4.1 8.4 6 8.4 6L474.5 257l-3.8-2.4zm32.5 4.4c-.3.2-2.9-2.6-4.5-5.2s-3-6-2.9-7.6l.6-5.3s4.4 4.5 5.2 6.6c.9 2.1 2.7 5 2.3 5.4s-3.4-2-3.7-1.4 3.4 7.2 3 7.5zm5-4.7c-.6.3-2.8-2.3-3.4-4s-.8-4.7-.8-4.7l-2-4.6.3-5.1 1.9-.3 3 4s1 2.4 1 5.8.5 8.6 0 8.9zm-34.6 12.5c-3.9-4.9-6.3-9.4-6.3-9.4L466 253l.7.6s1.2 5 7.2 11c6.1 5.9 7.5 6.4 7.5 6.4s1.1 3.3.6 4.5c0 0-4.4-3.9-8.4-8.7z"/><g class="AR"><path d="M480.2 273.7s-5.2-4.6-9.3-9.7-6.7-10.2-6.7-10.2l1.8-1.7s3.4 8 5.9 11.2l8.3 10.4zm7.1-1.6s-6-6-9-9.3-4.8-6.7-4.8-6.7l2.6 1s1 2.6 3.1 5.3 8.1 9.7 8.1 9.7zm-1.1-10.6s-3.3-4-4.8-6.6l-3.2-5.7s4.4 5 5.7 5.4c1.3.3 1.3 0 1.3 0s-.6 1.7-.1 3.3a101.6 101.6 0 0 0 1.1 3.6zm1.3-16.3s.6 2.8.2 4.5c-.4 1.6-1.2 1.6-1.2 1.6s1.7 2.4 2.7 3.4c1 1 3.4 2.8 3.4 2.8s-2-2.8-2.7-4.2-2-3-1.5-4.3c.5-1.4 3.2.9 4 1.5l3.9 4.4s-1.2-3.9-2.8-5.3-6-4.4-6-4.4z"/><path d="M500.8 253.7 498 247c-1-2.5-2.5-7.9-2.5-7.9s.2 2.5 0 4.3-.8 4.6-1.5 5-1 .5-2.5.1 1 .7 1 .7 1.5 0 2.2-.8c.6-.7.8-2.3 1.5-2 .7.2 1.4 2.5 2 3.6.5 1 2.5 3.6 2.5 3.6z"/><path d="M495.6 239.2s3.2 3.5 4.5 2 .6-6.1.6-6.1 2 .7 2.5.2.3-2.2.3-2.2l5.1 8.1c1.6 3.2 2.5 9 2.5 9s-2.8-4.6-4.3-9c-1.3-4-3.2-5.7-3.5-5.4s-.9 3.2-.5 4.6 1.6 3.3 2.4 5.4 1.7 5.2 1.7 5.2l-2.6-3.8c-.9-1.3-1.9-1.8-2.5-2.4-.7-.7-1.7-1.8-2.6-2.2-1-.4-2.8-1.3-2.8-.6s-.4-1.4-.4-1.4z"/></g><path fill="#0a1a1d" d="M485 254.3s1.8 3.5 3.2 5.3a327.9 327.9 0 0 1 3.3 4.4s-3-2.7-4.2-4.4-2.3-5.3-2.3-5.3z"/><path d="M505.6 255.2c-.5.2-1.9-.3-2 .2s.8 2.6 1.8 3.7c1.1 1.1 1.6 1.1 1.8 1s-.1-1-.3-2.2 0-2.3-.1-2.6c-.2-.4-1.2 0-1.2 0z" class="AO"/><path d="m468.4 233-1.8 1.2-2.2 4.5.6 8.1 3.3 4.7c1.2 1.8 5.3 6.4 6.4 6.1s2.2-3.5 2.3-5.2l.3-5s1 1.8 2.7 3.6c1.7 2 3.2 3.7 4 3.5s3.2-4.9 3.2-5.5-6-15.4-6-15.4l-2.6-1.4-10.2.8z" class="AW"/><path d="m482 245.4 1.6 5.6c.7 1.9 0 3.5.4 3.5s3.5-4.2 3.5-6 0-4-.8-9.8.3-7.6.3-7.6l-1.8-1.5-3.1 6.4-.1 9.4zm-10.6-3.4 1 7.6c.4 1.9 1.5 5 2.1 5 .6 0 2.5-5 2.6-6.8 0 0-1.3-2.4-1.3-8.5s-.6-6.7-.6-6.7l-3.8 9.4z" class="AP"/><path fill="#6c401f" d="M463.2 230.2s-4.8 7-4.7 10.8.7 3 1.8 6.4c1.1 3.4 1.7 8.5 1.8 9s.7-.3.8-.8l.3-25.4z"/><path d="M463.1 231s-4.1 6.5-3.8 10c.3 3.6.8 3.5 2 6.7s1.3 8.5 1.3 8.5 1.3-.4 2.8-1.5 2.9-3.2 2.9-3.2l-1.5-3.3c-1-2-1-2.9-1-2.9l-1.3-1.7.4-6.2 1-4.5v-1.7z" class="AP"/><path d="M485.7 242.2s-2-.5-2.9-1-1.2-1.7-1.2-1.7l.5-1.2z" class="AX"/><path d="M464 231.8s-3 6.5-2.7 11c.4 4.4 2.9 10.1 3.1 10.2s.1-.4.2-1.5-.1-13.3-.1-13.3l1.4-4.4.1-2.2-2 .2z" class="AW"/><path d="M471.3 233.2s.4 2 .1 2.8-1.8 1.8-2.5 3-1.6 4.3-1.6 4.3.8-1.7 1.8-2.8 1.3-1.8 1.5-1.2.6 3.2.4 3.7c-.2.4-1 1.2-1.5 3-.6 1.9 0 3.6 0 3.6l.7-3.3c.3-1 1.1-1.5 1.1-1.5l1.7 3.6s0-1.7.2-3 1.7-3 2.1-3 1.2-.3-.5-1.1c-.6-.4-.2-6.6.2-6.9s2.8-.3 2.6-1.1-2.3-3.2-2.5-3.4-3.8 3.3-3.8 3.3z" class="AO"/><path d="m485.4 246.4-2.2-.4c-.8-.1-1-.9-1-.9l.3-1 1.8 1z" class="AX"/><path d="M466.2 247.2c0 .6-.6 1.3-.9 2.2-.4 1.2-.6 2.5-.6 2.5l-.6-5c-.2-2.2-.3-3.5-.6-3.7s-1 1-1 1 0-2.3.5-3.5.8-2.7.4-3-1.2.5-1.6 1l-1 2s.4-2 .9-2.8 2.7-3.4 3.1-4.4.5-2.1.5-2.1h1.5s1.7 1.2 1.7 2.3c0 .6-1.6 1.3-1.6 1.4-.1.2-1.3 0-1.6 5.1s1 4.8.9 7zm14.3-13.4s.3 2.9 0 3.7-1.1 1.6-1.7 2.7-.6 3.8-.6 3.8.3-1.3.8-2.1l1.1-1.5c.1 0 .8 1 1.2 2.4l1.2 4s-.3-2 .2-2 .6-.1 1.3.4a22.7 22.7 0 0 1 1.4 1.2s0-.7-1-1.7-1.5-1-1.8-2.3c-.3-1.4-.4-2.8-.3-3.3s.8.3 1.3 1 2.3 2.2 2.3 2.2l-1-1.5v-4.6c0-1.6 0-3 .6-3.3.5-.4.6-2.4.4-2.7-.3-.4-5.4 3.6-5.4 3.6z" class="AO"/><path d="M497.1 228s.1 3.2.6 5l1.6 6s-1.6-3-2.4-5.6-1.3-5.4-2-5.6-1.4 1.2-1.4 2.3.7 5.1 1.6 6.5-1.5-1.8-2-3.6l-1.2-3.3s-.5 1.5-.3 3.2 1.6 4 1.6 4l-1.4-1.5a8.7 8.7 0 0 0-1-1s0 2.2.6 3.2l1.8 2.5-2-1.6c-.6-.6-.7-1-.7-1s.3 3.1 1 4.9 2.3 4.5 2.3 4.5-1.9-1.4-3-4.3a40 40 0 0 1-1.6-12.5l1.8-2.8c.8-1.2 2-7.2 2-7.2s1.3 5.5 2.2 6.5 2 1.4 2 1.4zm-13.2-1.6 1.2 2.1.9 1.5s-1.7 1.8-3.5 3.2c-1.8 1.4-4.3 3-4.8 2.2s-.5-1.5-.5-1.5 2-1.3 3.6-2.9 2.1-2.4 2.5-3.3l.6-1.3zm-16.7 5.4s.3 3.5 1.7 3.4 5.7-4.4 6-4.6.6-1.3.6-1.6l-.2-1.2s-4.6 4.8-6.3 5c-1.2 0-1.8-1-1.8-1zm.1-4.5s-.5 2.4-.4 3.1a5 5 0 0 0 .3 1.2s-3.4 1.2-3.9.2-.2-2.5-.2-2.5 1.5 0 2.4-.2 1.8-1.8 1.8-1.8zm31.2-4.8s1.3 3.5 2.2 5 2.2 4.3 2.2 4.3-2.2-2.6-2.9-3.2l-1.8-1.5s.3-1 .3-1.7v-3z" class="Ag"/><path d="m462.6 229.3 2 .2c.8 0 1.2-.4 1.2-.4l1.3-1.9s-.6 2.3-.2 3.8 1.3 1.8 1.7 1.8 2.1-.3 3.5-1.7 3.2-3 3.2-3-.4 2.1.3 4.1 1.8 2 3.4.8 3.1-3.4 4-4.4c.5-.5 1-1.6 1-1.6l1.8-1.3 1.4-8.4-.8-1-2.1 1-2.6-1-.8-1.1-1.4 2.5-1.6 1-.8.1-1.8.4-.8-1.6-.4-1.3-1-.4-3.6 3.8-2.1-.1-2.1 3.3-1.6 2-1.5 3.7z" class="AX"/><path d="M480.6 221s.3 2-.7 5.5-2.5 6-2.5 6 3.7-2.3 5.5-6.4c1.8-4.1 1.4-8.8 1.4-8.8l-3.7 3.6zm4.5-3.9s.5.6 0 3.8l-1 6.1.9 1.8c.5 1 1.7 2.8 2.6 2.5s2.3-1.4 3.3-3.5l2.1-4.4c.3-.3.5.2.7.4s.4 2 1.3 2.7 2 2 2.6 1.6 1-1.4 1-2l-2-6.1-2.4-6.1-1.5-2.4-4.4.4-3.2 5.2z" class="AO"/><path d="M492.7 211.5s1.2 2.6 1.3 5.5c0 2.8-.6 5.8-.6 5.8s.3-3.6-.1-5.7-1-3.5-1-4.1.4-1.5.4-1.5z" class="AP"/><path d="M498.6 222.6s.2 2.4 0 3.6-2-.8-3-4.6c-1-3.9-.9-4.7-1.7-6.6l-1.2-3.5 2.1-.3 3.8 11.4zm-10.7 7.1s4.2-2.4 4.7-9.4c.3-3.4-1.9-8.8-1.9-8.8s0 5.8-1.5 9.5-2.8 6.2-2.8 6.2 1-.5 1.5-1 1.1-1.7 1.1-1.7.3 1-.1 2.4l-1 2.8zm-3.6-12.4s-.2 1.5-1.9 3-4.9 3-4.9 3 2.3-2.2 3.2-4 .2-3.1.2-3.1-.3 1-1.3 1.7-2.5 1-2.5 1 .1-1 1-2c.2-.2.2-.7.3-1.1.5-1.5 1.8-3.6 1.8-3.6s1 2.2 2 3.2l2 1.9z"/><path d="M497.3 208.9s1 2.6 1.3 6c.4 3.6 0 7.7 0 7.7s-2.1-3.3-2.7-4.7-.5-3.3-1-4.4a5 5 0 0 0-1.6-1.6c-.3-.2-1.5-.2-1.5-.2s1.2-.5 1.3-1.6v-1.7s.8.4 2.1.6c1.3.2 2-.1 2-.1zm-9.3 15s2.2-3.2 2.8-7.1c.6-4 0-5.3 0-5.3s-1-.1-1.8-.9-2-2.6-2-2.6.4 2 0 4.5c-.5 2.4-2.7 4.8-2.7 4.8s1.2.4 2.2-.2c2.3-1.3 2.1-3.8 2.1-3.8s.5.3.5 3.4-1.1 7.1-1.1 7.1z" class="Ag"/><path d="M461.2 229.2c-.5 0 1.4-3 2.8-5.2l3.2-5.1s.4.3 1.2.3 2.8-1 3.7-2.5 1.4-3.3 1.5-3.8-.2 2.7 1.4 4.5 1.5 1.6 2.1 1.4c0 0 0 2.3-.6 4.3l-1.2 5s.2-3.8-.4-5-1 .2-1.6 1.6-1.7 2.4-1.7 2.4.9-1.7 1.5-3.5.3-1.9.1-2-.4 0-1 .7-1.3 1-1.3 1 .8-.7 1-1.6 1-2.2 1.4-2.7.8-1.1.8-1.5-.1-1-.4-1-.7.4-2.1 1.7-1.7 1.5-2 2-.4 1.2-1.3 4c-1 2.8-1.5 4-1.7 4.2l-.8.7 1.3-3.6c.7-2.1 1.7-4.8 1.5-5.3a.6.6 0 0 0-1.1 0l-3.1 4.3c-1.4 2-1.5 4.7-1.8 4.8h-1.4z" class="AO"/><path fill="#6c401f" d="M498.7 206.6c0 .3.1 1.8-1.4 2.3s-3.5-.1-3.7-.3-.2-2.1-.2-2.1z"/><path d="M468.5 211.6s-.3 1.4-1.1 3.2-2.3 3.3-2.1 3.5 1 1 2.2 1 1.7-7.4 1.7-7.4l-.3-.3z" class="Au"/><path d="M487.6 207.5s-.6 9.8-3.3 9.8c-2.8 0-4-5-4-5s-.3 6.6-3.8 6.6c-1.6 0-3.3-5-2.9-6 0 0-.7 3.5-2.3 4.8-3.3 2.6-5.4 1.4-5.5 1s2.8-3.2 3.1-7c0 0 .6 0 1.4-1s1.2-2.5 2-2.3 4.8-1.6 4.8-1.6l2-2.6s.3.8 1.8-.2 2.1-2.6 2.1-2.6l4 3.5.6 2.6z" class="AX"/><path d="m476.8 198.1 4.2 5.8c0 .2.9-.7.9-.7.5.7.8 1.4.7 1.8-.7 1.5-2 3.5-1 5.7 0 0-.3-1.2.3-2.8s1-2 1.4-2 1 9 1.5 8.9 1.4-4 1.4-6.9.6-.5.9 0 2.7 4.6 4.8 4 1.8-4.3 1.7-5a71 71 0 0 0-1.5-5.8l-9.3-5.9-.8 2.4c-.5 1.7-5.2.5-5.2.5z" class="Au"/><path d="M490.1 197.2s.6.5 1.5 2.9c.9 2.3 1 9.8-.2 9.8s-3.6-1.4-4-2.5.1-4.7-.7-5.7-1.7-3.6-1.8-4.3.2-3 .2-3l2-.7z" class="AO"/><path d="m489.4 194.9 4 6 3.6 5s1.7.6 1.7.7-2 2.3-4.8.8c-1.4-.8-.7-3.2-2.4-7-1.8-3.9-5-5.5-5-5.5l1.2-1z"/><path d="M487.3 191.7s3.5 2.3 4.8 4.9l3.5 6.6c1.5 2.5 3.1 3.2 3 3.4 0 .2-1 .4-1.8-.2s-1.5-1.2-2.2-2.4l-3.7-6.3c-.8-1.1-3.4-3.1-3.5-3s.8.9 2.4 3.3 1.8 4.7 1.7 4.7l-1.7-3c-1.3-2.2-4.2-5.2-4.4-4.8s1.4 3 2.2 4.6 2.2 5 2 5-1-2-2.6-4.4-2-2.2-2.6-3l-2-2.7s1.3.5 2.7-.4c1.4-1 2.2-2.3 2.2-2.3z" class="Ag"/><path d="M478.2 198.2s2.3.5 3.5.4c1.3-.2 1.7-.1 1.7-.1s.7 1 .7 2.2-.8 3.3-1.1 3.4-.3-2-.8-2.7c-.6-.7-4-3.2-4-3.2z" class="AO"/><path d="M479.4 204.2s.8 2.5.2 6-2.6 7-3 7-.4-4-.7-6a59.6 59.6 0 0 0 0-.6l-.8 2.3.6-3.9-.2-1.3 2.6-3z" class="Au"/><path d="M475 206.8c-.6.9-1.7.6-2.7 1-1 .2-1.3 1.6-1.3 1.6s.8-.5 1.1-.4.8.2.1 1.9c-.7 1.7-3.4 4.6-3.3 4.6s3-2.4 4-3.8.9-2.3 1-2.8 1.4-1.1 1.6-1.2.8 0 1 1.1l1 4 1.1-4c.3-1.4.3-4.4.3-4.4l-.9-.2c-.7-.2-2.3-1.3-2.3-1.3s.3 2.8-.6 4z" class="AO"/><path d="M487.3 189.2s1 2.4-1 4c-.5.5-1 .8-2.1.9s-2.7-.9-2.7-.9l-6-2.4-3-1-1.6-.5.2-1.7 4.7.2 4.6 1.8 2 .6 1.7.4h1.3l1-.4s.6-.2.7-.4l.2-.6z" class="AX"/><path d="M487.3 189.2c.2.4-.3 1.7-.8 2s-1.2.5-3 0-3.6-1.5-5.6-2-3.5-1.1-5-1-.8-.7-.8-.7 3.5-.4 6.6.8 4.4 1.9 6 1.9c2.3 0 2.6-1 2.6-1z" class="AP"/><path d="M471 187.3s.8.2 1.4 0l1-.4s.1.8-.3 1.1-1.6.2-1.8.2-.2-.9-.2-.9z"/><path d="M482.8 194.7s2 2 1.5 3.8l-4-1.8-6.6-2.8-3.5-1-.5-.6s.7-.6 1-1.2.3-1.2.3-1.2l4.3.6 4.5 1.4zm-4.5 3s3.7 4.7 2.9 6.3l-8.7-5.5-3.1 5-7.2-3.5 6.5-5.2.7-1.2 3.2.7 5.1 1.6z" class="AX"/><path d="M476.3 190.5s3 .7 5 1.7 4.7 1.3 4.7 1.3-1.1 1.1-3.2 1.2c-.7 0-2.2-1.2-3.2-2-1-.6-3.9-1.5-3.9-1.5z" class="AP"/><path d="M471 188.9s2.1.4 3.4 1 1.5.5 1.8.3l.4-.3s.3 1.3-.7 1.3-1.5-.3-2.8-1-2.3 0-2.3 0z"/><path d="M483 197.3s1.6 1 1.3 1.2c-.3.2-1.1.6-2.5.7s-2-.1-3-.6-1.5-2-3.8-3l-4.3-1.4-2-.4 1.5-.6 5 1 4.3 1.2 2.5 1.3 1 .6zm-8.4 3 1 3.9-.6 2.4-1.3.8-1.2-.5-.4-.7s.6-.9 0-1.7-3-1.8-3-1.8 1-2 2-2.4.7-1.9.7-1.9z" class="AP"/><path d="M469.7 192.2s.8.7 2.4.9c.7 0 2 .3 3.4.7.4.1 1.5-.5 1.6-.4l-1 .5c1.5.4 3.3 1 4 1.4 1.7.8 3 2 3 2l-3-1.4c-1.5-.6-3.4-1.1-4.7-1.4-3-.6-6-.4-6.6-.6s.3-.2.6-.6.3-1 .3-1z"/><path d="M480.9 203s1 1 0 1.4-3.8.3-5-1c0 0-.4-1.4-1-2s-2.4-1.8-3.5-2.5.4-.9.4-.9l5.5 2.4c1.5.8 3.6 2.6 3.6 2.6z" class="AP"/><path d="M481 203.1s-2-2.7-7.7-5l1.8-.3h-3l-1.3-.5c-3-1-3.1-.8-3.3-1.2s-.6 0-1 .5l-1 1.5s2.2-.5 3.8-.1 1.6 1 1.5 1.6-2.2 3.1-2 3.2 1.5-2.4 3-2 2 1.2 2 1.2 0-1-.3-1.3c-.3-.4-2-2-1.5-2s2.3.5 5 1.9c2.7 1.3 3.1 1.7 4 2.5z"/><path d="M471.8 198.8s4.3 1.2 4 5.7-3.4 3.7-3.7 2 .4.9 1.6.7c1.3-.3 1.5-1.6 1.5-3.3-.1-1.7-.5-2.6-1.5-3.5l-1.9-1.6z" class="AX"/><path fill="#6c401f" d="M453.3 187.8s.4.4-.8 3.6-1.9 4.3-3.7 6.4c-3.5 3.8-5 3.8-4.6 5.4s1.7 1.2 2 1.3 6.5-9.2 6.5-9.2l1.4-5.5-.3-1.5z"/><path d="M468.7 181.3s1.8 2.7 1.2 7.7-7.2 9.6-7.2 9.6l-9.8 6.7-4-.2s-.7 0-1.3 0c-.7-.2-1.3-1-1.4-1-.3 0-.8-1.6-.8-1.6l1.3-1.6 3.6-3.5 2.2-3.2s1-1.9 1.1-3.7-.3-2.7-.3-2.7l.8 1.3.5 2.7-.4 3 2.6-1.7 3.4-1.5s.9-.2 1.6-2 1.2-4.7 1.2-6l-.1-2.7.4.1c.2.1 1 1.7 1 2.6s.7 4.2.7 4.2l1.5-1.6s1.2-1.4 1.5-2.2.7-2 .7-2.7z" class="AX"/><path d="M469.8 206.7s.7.6.4 2.4-1.7 2.9-2.5 2.9v-2.6l-2-1.7-2.4-.7.4-.4c.2-.3 2.7-1.3 2.7-1.3z" class="AZ"/><path d="M468.1 206.7s.7.7 1.8.4 1.5-2 .9-2.7-.3 1.7-1 2-1.5-1.8-2.4-2-2.4.4-2.8 1c-.4.7 1.5.2 1.5.2l1 .3.8.1z" class="AP"/><path d="M454 199.7s1.2.4 2.6.2 4.8-1.6 4.8-1.6 1.5-1 2.7-2 4.8-3.4 5.2-7.9-.6-7.1-.6-7.1 5.4 5.8.7 12.5c-3 4.4-5.7 5.7-5.7 5.7s5.2-1.5 5.6-.3-.2 3.2-.4 3.5c0 0 3 .7 3.4 2.2.3.9-3.3-1-6-.4s-4 2.3-4 2.3-.4-.8-2.9-.8-3.5 1-4.8 1-5.7-1-6.5-2.1l2.8-3.4c1.3-2.4 3-1.8 3-1.8z" class="AZ"/><path d="M465.1 187.6s2-2 2.8-3.6.8-2.7.8-2.7.3 1.6-1 3.5a19.8 19.8 0 0 1-2.6 3.1z" class="AP"/><path d="M464.5 183s1.7 6.6 0 9.3-9.9 6.3-9.9 6.3 6-3.3 8-7 1.7-6.9 1.7-6.9l.2-1.7z" class="AZ"/><path d="M456.6 199.9s2.6-.1 4-1 3.5-2.6 3.5-2.6-1.9 1.6-2.4 1.6-1-.8-.8-1.5c0 0-.4 1.3-1.6 2.1s-2.7 1.4-2.7 1.4zm6-8.3s2-2.2 2-6.9-1.8-3.8-1.8-3.8 1.5 1 1.2 4.6-1.5 6-1.5 6zm2.5.4s2.4-.5 3.3-2 .8-4 .8-4-.2 2.4-1 3.3-3 2.7-3 2.7zm-1.4 14.6s1.2-2.3 2.8-1.7 1.6 1.8 1.6 1.8-.6-1-1.8-1-2.6.9-2.6.9zm-4.5-4.2 5.6-1.5 4.5-1.7s-1.7 2.2-4.3 3.6-4.7 1.6-4.7 1.6 4.8-2.1 5.2-3c0 0-4.6 1.3-6.3 1z" class="Ag"/><path d="M453.6 197a4 4.1 67.8 0 1-4.7 6.6" class="AS"/><path fill="#e17000" d="M453.3 197.4a3.6 3.6 67.8 0 1-4.1 5.8"/><path fill="#0a1a1d" d="M451.8 199.4a1.4 1.4 0 1 1-1.4 2.1"/><path fill="#d7ccbf" d="M452 201.2a.5.5 0 1 1-1-.2.5.5 0 0 1 .6-.4c.2 0 .4.3.4.6z"/><path d="M454.5 194.4s2.3-2.3 2.8-5.4.3-4.8.3-4.8l1.2 1.4.5 2.3-.8 3.9 2.6-1.2c.9-1.2 2.2-6.4 1.8-9.7 0 0 .7 1.4-.3 5.9s-1.7 4.9-5 6.7c-1.7 1-3.9 2.7-5.8 6.5a29 29 0 0 1-3.6 4.6c0 .1 1.7-2.3 2.5-4.1 1.3-2.7 2.7-4.2 2.7-4.2l1-1.9z" class="AP"/><path d="M453.4 196.3s1-3.1 1-4.8-1.1-3.7-1.1-3.7 1.5-.2 1.6 3.5c.2 3.7-.6 3.9-1.5 5z" class="AZ"/><path d="M458 192.3s1.2-2.7 1.1-4.5-1.6-3.6-1.6-3.6 1.9.4 2 3.7-.4 3.3-1.4 4.4z"/><path d="M447.2 204.8s-.8-1.1-.7-2 0-1 2.1-3.3 3.3-3.5 3.8-4.7 2.3-4.5.9-7c0 0 1 3.7-1.2 6.6s-3.3 4.4-5 5.7-2 1.9-2 2.6.3 1.5.6 1.7c.5.3 1.5.4 1.5.4z" class="AP"/><g fill="#6c401f"><path d="M467.7 212s.5 0 .8-.5.3-1.5-.4-2.5-1.6-1.4-2.7-1.7-3-.6-3-.6.6 1.2 2 2c.7.4 1.8-.1 2.5.6s.8 2.7.8 2.7z"/><path d="M467.7 212s2.4-.8 2.5-3c.1-1.5-.2-2-.2-2s.4.8 1.3 1l.9-.3s-1.4 4.4-4.5 4.3z"/></g></g><g fill="#fcd80e"><path fill="#cb8500" d="M451.3 211.5s.5.2 1.4 1.2l1.2 1.4 5.7-1.5 1.9-1.8-1.6-2.4h-4z"/><path stroke="#6c401f" stroke-width=".481" d="m465.1 209.6-1-1.5s-.3-.6-1.1-1-4.3-.4-4.3-.4l-2.5.5s-.7.7-2 .4-4-1.4-4-1.4l-2.8-1.2s-2.5-.9-3-.7-1 1-1 1-1 2-.4 2-1 .4-1 .4-4.3 2.4-5 6.6 7.1 10.5 10 7.3c0 0-4.2-3.1-3.4-5.7s2.8-4.3 6.2-4.5 3.5-.6 5-1.6 4-1.6 6 .5-7.5 4-7.5 4l1 1.5s11.8-4 10.8-6.2z"/><path fill="#faf6f5" d="M443 219.7s-4.7-1.2-4.3-5.6 4.4-6 5-6.2.7-2.6 1.5-2.8 2.3.1 3 .8 2.1 1.3 2.1 1.3-8.4 3.7-8.5 8.6c0 3.2 1.3 3.9 1.3 3.9z"/><path fill="#edcfb7" d="M465.1 209.1s-.6.4-.7.1c-1-1.7-3-2.1-4.7-2-2.2 0-3.6.8-5 .8s-1.1-.3-2.9-.4-5.4-2.7-6.2-2.5-1.2 1.3-1 1.8-1.6.6-1.8.2 1.3-2.8 2.8-2.8c4 0 7 2.7 8.9 2.7s2.6-1 5.2-1 5.3 1 5.4 3.1z"/><path fill="#6c401f" d="M452 212.3s1.9-.4 3.3-1 3.4-1.2 3.4-1.2-1.8 1.2-3 1.8c-1.2.5-3.2.9-3.2.9z"/><path d="M445.2 222.2c-.3.1-2 0-4.7-1.7s-3.4-4.8-3.4-4.8-.6-3 2.2-5.9 3.2-2 3.4-2c.1.2-.2.3-.2.3l-2.4 2-1.2 2-1 1.9v2.1l1.2 2.2 3.9 2.4 2.2 1.5z"/><path d="M444.7 204.6c-1.3.8-1.3 1.3 0 0l-1.6.6-.6.7c-.2.3-.4.6-.4 1v.1a1 1 0 0 0 .6.9l1 .1 1.2-.1c.2-.1.3-.3.2-.6s-.3-.3-.5-.2a4 4 0 0 1-1 .1h-.5l-.2-.3.1-.3.6-.8 1-1.1.2-.2v-.1l.1-.2c-1.4.3-2.2 1.4-.3.5z" class="AO"/><path d="m451.9 209.7-5.9 1.7c-.4.3 1.8 0 3.6-.1a6.7 6.7 0 0 1 2 .2s.7 0 1.4-.3c2.2-.8 6.8-2.5 7.3-.5.3 1.7-6.4 3.1-6.4 3.1v.7l5.3-1.3 2.8-1.5 1-1.4-2.8-2h-3.9l-1.8.5z"/><path d="M443.5 218c.4 1.1 1.4 2.8 2.5 3.4 0 0 .1 0 0 .1s-.8.6-2.6.2-4.6-1.3-6.3-6.4v1.2l1 2 1.8 1.8 2.8 1.8 2 .4 1.6-.4.7-.5-1.7-1.5-2-3.5s-.1.4.2 1.3z" class="AO"/></g><g class="Ar"><path d="M462.5 268.7v1.9l-1-.1.1-2.4zm-7.1-52.8-2-2.1-1.1.2 1.8 2.6z" class="As"/><path d="M462.4 273s-1-.7-2.6-1.4c-1.5-.7-3.6-1-3.6-1v.5h.3c.6.2 2 .5 3.1 1a21.9 21.9 0 0 1 2.6 1.4zm-.1-4.7H460l-2 .1c-1.4.3-2.2 1-2.2 1l.3.4a5.8 5.8 0 0 1 2-1h2a26.5 26.5 0 0 1 2 0zm-.6-4s-2.6 1.2-3.8 2l-2.5 1.9.3.3.8-.6a28.1 28.1 0 0 1 1.6-1.2l2.4-1.3a57 57 0 0 1 1.4-.7zm-2.5-4.2s0 1-.5 1.8l-1 1.2-2.4 2.6-1.4 1.5.4.3a271.8 271.8 0 0 0 2.2-2.3 135.9 135.9 0 0 0 1.6-1.8l1-1.2c.6-1 .6-2 .6-2.1h-.5zm-3.3-1.9a6.1 6.1 0 0 1 .1 1.3 6.5 6.5 0 0 1-.3 2.1l-1.5 3.4-.7 1.3-.3.6.4.2s1.8-3.4 2.5-5.3a7 7 0 0 0 .4-2.3 6 6 0 0 0-.1-1.4zm-3.2-.4v1.8c0 .9 0 2-.3 2.7l-1 2.7-.5 1.5.4.2 1.6-4.3c.3-.8.4-2 .4-2.8l-.1-1.8zm-2.5 0v1.8l-.3 3-.8 3.9h.5l.2-1.3.5-2.5c.4-1.6.4-4.9.4-4.9zm-2.6.4v.8l.1 1.7c0 .7 0 1.4-.2 2-.4 1.4-.6 3.7-.6 3.7h.5a34.2 34.2 0 0 1 .1-1.3l.5-2.3.2-2.1a25 25 0 0 0-.2-2.5zm-2.1.3v.3c0 .6 0 2-.5 3.4l-.8 3-.4 1.4.4.2 1.3-4.5c.4-1.5.5-3 .5-3.5v-.3h-.5zm-2.4 0v1.1a7 7 0 0 1-.6 3.2c-.5.8-1.3 1.7-2.1 2.3a15 15 0 0 1-1 .7l-.3.2h-.1l.2.5s2.7-1.6 3.7-3.5c.7-1.1.8-2.5.8-3.4v-1.1zm-1.4-.4-.1.3c-.2.6-.7 2-1.5 2.9-.5.6-1.3 1.2-2 1.7l-.8.6-.3.2.2.4s2.2-1.3 3.3-2.6c1-1.3 1.7-3.4 1.7-3.4zm-2.3-1.2-.1.3-.6 1-.7 1-1.5.9-1 .6.3.4 1-.6 1.5-1c.4-.3.8-1 1-1.4l.5-1zm-1-1.4-.5.4-1.4 1.6-.8.7-.6.3.2.5 1-.7 2.4-2.5zm-.6-1-.4.3-1.3 1c-.5.3-1 .5-1.3.5v.5l1-.3 2.3-1.6zm-.5-1-1.1.6-1 .5a3 3 0 0 1-.6.2v.5l.9-.3c.9-.3 2-1 2-1l-.2-.5zm-.5-2.1a5.2 5.2 0 0 1-.8.8c-.4.3-1 .5-1.4.5v.5c.7 0 1.4-.4 1.8-.8a5.5 5.5 0 0 0 .8-.7zm.2-3.3-.9.8c-.5.5-1 1-1.2 1.4a.9.9 0 0 1-.1.2l-.1.1v.5l.4-.2.3-.4c0-.3.6-.9 1-1.3l.6-.5.3-.3-.3-.3zm16.4-19.7H456v-.4h-.1l-.1.4v-.1.1-.1.1-.2.2-.2.2-.2.2-.2.2-.2l-.1.2.1-.2-.1.2.1-.2h-.2v.1l.2-.1h-.2v-.1l.1-.1.1.2v-.2.2-.2.1-.1.1-.1h-2.3v.4zm0-1.4h.2c.4 0 .7-.1 1-.3l1.6-1 .6-.4.5-.2v-.5a2 2 0 0 0-.9.4l-1.5 1c-.5.3-1 .5-1.3.5zm-.1-2.3c.3 0 .7-.2 1.1-.4l1.8-1.2a3 3 0 0 1 1.5-.7v-.4c-.4 0-.7.1-1.1.3l-1.8 1.2c-.6.4-1.2.7-1.6.7v.5zm-.9-2.1c.6-.3 1.5-1 2.4-1.7l2.4-1.8-.2-.4-2.5 1.8-2.3 1.6.2.5zm-1.6-2.5 5-3.5-.2-.4-5 3.5zm-2.1-2.3c.7-.7 1.8-1.4 2.8-2l2.3-1.5-.3-.4-2.3 1.5-2.8 2zm-1.7-1.5a205.2 205.2 0 0 1 2.3-1.7l1.8-1.2 1.2-.7-.2-.4c-.3 0-.7.3-1.2.7l-4.2 3z"/><path d="m450.8 211.6.3.2c.7.6 2.3 2 3.8 3.8s2.8 4.1 2.8 6.4a5.4 5.4 0 0 1 0 .6c-.4 2.9-1.9 5.4-3.9 7.8-3 3.5-7.3 6.6-10.8 9.7-1.8 1.6-3.4 3.2-4.5 4.8s-1.9 3.4-1.9 5.3v.3c0 1.8.7 3.7 1.7 5.2s2.8 2.7 5 3a10.8 10.8 0 0 0 1 0c2.8 0 5.8-.9 8.6-.9 2.4 0 4.7.6 6.8 2.8 2 2.2 2.5 5.6 2.5 8.9 0 2.3-.3 4.6-.6 6.3a38.4 38.4 0 0 1-.6 2.8l.5.2s1.2-4.5 1.2-9.3c0-3.4-.6-6.9-2.7-9.2a9 9 0 0 0-7-3c-3 0-6 1-8.7 1l-1-.1c-2-.2-3.5-1.3-4.6-2.8s-1.5-3.3-1.6-5v-.2c0-2.3 1.2-4.5 3-6.6 2.8-3.1 7-6.1 10.7-9.4s6.8-7 7.3-11.5a6.2 6.2 0 0 0 0-.7c0-2.8-1.7-5.5-3.5-7.5a26.4 26.4 0 0 0-3.5-3.3l-.3.4z" class="Ai"/><path d="m447.2 216.3-.6-.5-.5.2 1 .7zm1.6 1.4-.5-.4-.2.1.4.5z" class="AY"/><path d="m451 220.1-.5-.5-.2.3.4.5zm1.5 2.4-.2-.5-.5.1.6.6zm1 2.3-.3-.7v.6zm0 2.3v-.7l-.2-.1v.8zm0 1.4v-.7l-.2-.1v1zm-18.7 22.7.2-1.1c.2-.5-.4.2-.4.2l-.1.7.3.2z" class="Ai"/><path d="m434.7 252.6-.3.1v.7l.2-.2v-.6z" class="AS"/><path d="M434.7 255.3v-.7h-.2v1z" class="Ai"/><path d="M434.9 256.8v-.6h-.3v.6zm.4 2.2-.1-.6-.2.1.1.6zm.6 2.2-.3-.8-.1.1.2.8z" class="AS"/><path d="m437.3 264.2-.3-.5h-.3l.4.6zm2.2 2.2-.7-.5c-.4-.3-.2.3-.2.3l.6.3zm15 1.1-.6-.3c-.3-.1.2 0 .4.5s.2-.2.2-.2z" class="AY"/><path d="m455.8 268.6-.5-.5c-.2-.1-.1.3-.1.3l.4.2z" class="AS"/><path d="M456 269.1c-.1-.2-.3.4-.3.4l.5.4s0-.5-.1-.8zm.1 2.1.1-.7c0-.3-.2.1-.2.1v.6z" class="AY"/><path d="m455.4 273.4.2-.5h-.2l-.2.5zm-22.8-79.9s.8-.1.2.8.4-.8.4-.8l-.3-.1z" class="AS"/></g><path fill="#fcd80e" d="m451 211 .6.5-.7-.1c-.2 0 .2-.4.2-.4z"/><path d="m451.6 211.5-1 .2c-.3 0 .3-.3.3-.3z" class="AO"/><path fill="#9d7a51" d="M460.8 278.6s.6 0 .9-.4-.2.6-.2.6l-.4.1-.3-.3z"/><path fill="#edcfb7" d="m444.6 204.7.2-.3h1l-.5.3z"/></svg>