<svg xmlns="http://www.w3.org/2000/svg" width="1200" height="720"><path fill="#c40f38" d="M0 0h1200v720H0Z"/><path fill="#faf6f5" d="M0 0h800v720H0Z"/><path fill="#036a4a" d="M0 0h400v720H0Z"/><g fill="#ffb81c" stroke="#b5915f" stroke-miterlimit="4.67"><path stroke-width=".51" d="m668.9 455.1.4 8.7 3.3-2.2-2.6-7-1.1.5Z"/><circle cx="668.48" cy="452.8" r="2.77" stroke-width=".44"/><path stroke-width=".51" d="m679.2 468.6-6.3-6-2.9 2.2 8.6 5 .6-1.2Z"/><path stroke-width=".44" d="M678.6 472c-.9-1.2-.6-3 .7-4s3-.7 3.9.5c.8 1.2.6 3-.7 3.9s-3 .8-3.9-.4Z"/><path stroke-width=".51" d="m727.6 378.4 6.5 6.5.7-3.3-5.9-4-1.3.8Z"/><circle cx="726.77" cy="376.78" r="2.71" stroke-width=".44"/><path stroke-width=".51" d="m744.7 382.3-10 2.8.9-3.3 8.5-.8.6 1.3Z"/><circle cx="746.26" cy="380.89" r="2.64" stroke-width=".44"/><path stroke-width=".51" d="m711.5 431-6-9.5 1-.4 6.8 8-1.8 1.8Z"/><circle cx="704.87" cy="419.34" r="2.8" stroke-width=".44"/><path stroke-width=".51" d="m711.9 431.2 7.6 1.4.3-1-6.4-2.6-1.5 2.2Z"/><g stroke-width=".44"><circle cx="721.86" cy="432.64" r="2.77"/><path d="M532 452.5c0 1.3-1.1 2.3-2 2.3s-1.9-1.1-1.9-2.4.8-2.4 1.8-2.4 2 1.2 2 2.5Z"/></g><path stroke-width=".51" d="m531.9 456.8 1.8 9.6-2.4-.9-.8-8.4 1.4-.3Z"/><g stroke-width=".44"><path d="M534 453.5c1.1 1.5-.8 3.7-2.8 4.3s-4.5-.4-4.5-2.3c0-2 3-1 3.7-1.2 1.3-.4 2.4-2.3 3.6-.8Z"/><ellipse cx="517.25" cy="468.28" rx="3" ry="2.17"/></g><path stroke-width=".51" d="m522.3 467.8 9.3-.5-1.6-1.8-7.6.8v1.5Z"/><g stroke-width=".44"><path d="M523.1 466.7c.8 2.3.8 5.5-1.8 5.2s-2.1-2.7-2.3-3.6c-.4-1.6-2-3.1-.3-4.7s3.6.7 4.4 3.1Z"/><ellipse cx="492.96" cy="416.18" rx="1.81" ry="2.76"/></g><path stroke-width=".51" d="m493 422.3.2 9-2.3-2.2.1-7.1 2 .3Z"/><g stroke-width=".44"><path d="M496.5 419.6c.4 2-2.6 3.2-4.7 2.8s-3.6-1.4-3.3-3.3 2.9-1.5 3.8-1 3.5-1.4 4.2 1.5Z"/><ellipse cx="477.16" cy="430.17" rx="3.12" ry="1.43"/></g><path stroke-width=".51" d="m482.8 430.2 7-.5 3 2.3-10.1-.4v-1.4Z"/><path stroke-width=".44" d="M480.2 426.4c1.9 0 3.2 2.1 3 4.4s-2 4-3.8 3.7c-1.7-.3-1.6-1.8-1.6-2.2s1-1.2 1.2-2-.5-2.3-.3-3 .7-1 1.5-1Zm-5.7-54.5c-.8 1.2-2.3 2.2-3 1.7s-.5-2.3.3-3.5 2-1.9 2.8-1.4.7 2 0 3.2Z"/><path stroke-width=".51" d="m466.7 386 4-9.3-.7-.5-4.4 6.5 1 3.3Z"/><path stroke-width=".44" d="M469.9 376.7c-2-1.4-2.4-2.9-1.8-4.3s2.1-.5 2.1-.5 1 1 1.7 1.4c.7.4 1.8 0 2.7 1s.3 2.5-.4 2.8-2.7.8-4.3-.4Zm-16.3-1.2c1.4.8 2.1 2.1 1.6 3-.4.9-2 1-3.4.1-1.4-.8-2.1-2.1-1.6-3s2-.9 3.4-.1Z"/><path stroke-width=".51" d="m457.6 379.6 7.3 4.3-.2 3.4-7.9-6.7.8-1Z"/><path stroke-width=".44" d="M457.6 380.4c-1.6 1.8-3.1 2-4.4 1.3s-.3-2.2-.3-2.2 1.1-.8 1.6-1.5.1-1.9 1.3-2.6 2.4 0 2.6.7.5 2.8-.8 4.3Z"/></g><path fill="#24a34e" d="M753.7 360.3c-.6 7.4-7.9 11.2-11.7 14-3.8 2.7-5.6 6-5.6 6-.7 2.3-1.9 5.9-2 8.1 1 1.9.4 12 .3 12.2l5.2-3.6 3.7-1.4 1-.2s-4 4-5.7 8.5-4.6 13.9-10.2 17c-5.6 3-9.1 1.7-11 3.4s-2 2-2 2l-2.3 3.3-2 2.5c-.7.5-2.2 1.5-2.8 2.1.1 2-1.3 5.8-1.8 7.8 0 0 1.1-.7 2.5-.9l2.6-.2s-1 1.3-1.4 2.6c-.4 1.3.2 8.9-7 13.4s-25.7 3.9-25.7 3.9l-3.5 1.4-3.3 2.4-3 3.3-.2 1s-2.3 2.7-4 3.8l-5.3 3.5s3.2-.1 4.3.3c1 .3 6.7 2.9 6.7 2.9s-4.2-.1-7 1-15.7 8.4-22 8.2c-6.2-.2-15.1-9.4-15.1-9.4l-4-2.8-6.8-1.3-8.3-.5.1-1 .2-1.4s2.8-.3 7.3.2c4 .5 5.2 1.8 8.4 2.1s5.7 0 6.9-.6c1.2-.5 11.2-9 11.2-9l11.3-4 4.3.7 1.9.5 1.7.5s-.6.9-1.8 2-2.8 2-2.8 2l1.4 1.1 7-1.1 2.4.6.7.4c0-.6.4-1.6 1-2.5.9-1 4.9-4.4 6.6-5.5 1.7-1.1 2.1-1.3 2.7-1.9s2.8-6.6 2.8-6.6l.3-3 8-7.6 5.2-5.6 2.3-6.4-.2-1.3s1.9 2 1.5 6-1.2 5.3-1.2 5.3 5.4-3.7 8.3-5c2.3-1 4-1 4.6-.9.7-.4 2.8-1.7 4-3.5 1.6-2.3 2-3 2-3.9l.3-5.3-.5-13.6 4.6-10.3 6.7-6 1.3-.7s-.5 1.4-.6 2.4l-.1 2.7s3.4-4.7 5.1-5.5l1-.5c2.7-5.2 2-11 2.2-15.5l-1-4.3-3.2-8.4-.1-11-2.4-3.2s2.2-.2 5 3.7 3.5 9.6 3.5 9.6l6.4-19.6s1.7 2.3 3 6.2c1.1 3.9 1.5 6.5 1.5 6.5l2.5-5.4c-.2 4 4.7 4.5 4 13.3ZM624.2 485.4s-1.2-3-7.4-6-10.7-3.6-10.7-3.6v2.2l9.6 4.2 4.8 4 3.7-.8Z"/><path fill="#036a4a" d="M668 467c.7-.7 5.9-5.4 8.5-6.7s6.2-1.6 6.2-1.6c3.6-.7 4.2-.2 12.7-4.8s10.3-10 11.9-11.3 4.6-1.7 4.6-1.7l-6.6 7.6c-3.1 3.4-6.5 5.5-11.2 8.7s-14.6 3.4-14.6 3.4c-4.2 1-5.6 2-7.9 4a27.8 27.8 0 0 0-3.9 4.2s-.2-1 .4-1.7Zm23.3-24.4c-7.8 7.1-10.3 13.8-10.3 13.8s7-6 10.5-9.4 8.5-5 10.8-7.2 2.4-3.8 3.8-5.2c1.4-1.3 2.5-2 2.5-2s-3.5-2.6-17.3 10ZM675 459.1s3.3-1.4 4.6-4.4c1-2.3.4-2.8 1.9-5.4 0 0 8-7.8 11-11.2 5-6 2.8-11 2.8-11s.5 2.6-1.6 5.3-12.6 9.8-13.9 13.9-.5 4.3-1.1 6.5c-1.3 5-3.7 6.3-3.7 6.3Zm-5.4 20.3c-10-7.1-24 3.7-32 4-6.2.2-8.7-2.9-13.4-6.1-5.1-3.5-17.7-3-17.7-3l-.1.7s8.6 0 12.3 1c7 2 10.8 9.4 18.8 8.9 10.4-.6 19-7 23.2-7 7.3.1 8.9 1.5 8.9 1.5Zm-46.3-4.7s7.2 1.2 12.9-2.9c5.6-4 12.3-9.7 16-10s7.5.8 7.5.8-4.7-2.1-8.4-2c-3.8 0-7.6.5-11 2.6-3.6 2.1-5.3 5.9-9 8.3-3.9 2.4-8 3.2-8 3.2Zm-1.3 9.7c-1 0-2 .6-2.5.6s-2.5-2.4-5.6-4-7.7-2.7-7.7-2.7-.6.2.4.5 4.9 1.6 7.3 2.8 4.9 3.7 5.1 4.2c.2.4 1.1 1.5 3 1.5s2.4-1.1 2.3-1.8c-.2-.7-1.3-1.1-2.3-1.1Zm5.1-7s2.9 1.6 7.6 1.5c12.9 0 23-14.9 33.2-10v-.6c-9.3-7.2-29 4.7-33.5 6.8a35 35 0 0 1-7.3 2.2Zm107.6-76.7c-3.4 3.5-8.5 14.8-10.7 17.8-2.3 3.1-5 4-6.3 5.3-1 1-5.1 6.6-6 7.9s-1.3 1-2 1.5-1 .6.1.3 1.5-1 3.2-2.8 1.5-2.8 4.2-5.2 7.6-5.1 10-8.1 7.3-14.4 10-17.2c2.7-3 7.6-4.8 7.6-4.8s-3.9-1.1-10 5.3ZM717.3 422s-.1-2 2.4-5 3.4-2.6 5.4-7c2-4.3 2.8-8.6 4.5-13.2s4.4-9.2 4.4-9.2-2.6.3-5.3 3.9-7 10.2-9.1 16.7c-2.2 6.4-2.3 13.8-2.3 13.8Zm-3.2 4.3s1-.5 1-6.2c.2-5.6-.2-13.5 1.4-17.5s10.3-13.3 10.3-13.3c-5.7 1.6-16.2 9.3-15.5 17.7.3 3.8 2.4 8 2.6 11.8l.2 7.5Zm20.3-38.8s2.2-7.7 3-9.6c1-1.8 1-3 5.3-7.8 2.5-2.8 4.9-4.5 6-8.4 1-4 1-14.8 1-14.8s-1.2 1-2.1 3-.2 8.9-1.9 12.2-5.3 10.9-7.1 12.5c0 0-.4-5.5.3-11s2.5-7.2 3.4-10.9c.8-3.6.3-13 .3-13s-3 3-4.4 6.6a45.7 45.7 0 0 0-2.4 14.5c-.1 8 2.8 11.4.5 18.2-1 3-.5 1-1.2 3.8l-1.3 5 .6-.4Zm-6.7-41.5s2.6 3.2 2.2 7-1.9 8.6-.4 12.4 3.6 4.3 4.2 6.5.6 6.7.6 6.7 1.2-8.3.4-10.6-1.2-1.3-2.4-3.7c-1.8-5.1 1.9-14-4.6-18.3Z"/><path fill="#24a34e" d="M574.4 484.8s.8-2.2 6-4.8 13.2-6 14-5.5-.5 3.3-.5 3.3l-5 1.5-4.1 2.4-4.8 3h-5.6Z"/><path fill="#24a34e" d="M587.8 471c-6.7.2-10.4 1.9-11.7 2.2-.4 0-1.4.7-2.2.3-1.6-.8-3-3-3-3l-1.4-1.1-.3 4.8-9.8-8.5-1 5.6-1.3 2.6-9.7-9.2.5 7.1-2.7.3-6.9-4.8-2 .6 2.2 4.2-8.7.7c-.5.1-4.7 3.8-3.7 4.3.3.2 2.7.1 3.4-.2s1.3-1.3 1.5-.9.5 2.4 1.7 2.2 5.2-3.3 8-2c3.3 1.6-4.1 3.8-3.3 6 .7 2.3 6 1.4 7.4.6 1.4-.7 5.4-5.8 7-3.8 2.4 2.7-4.8 4.7-3.4 7.4 1.2 2.6 5.2 2 7.2.9s6.4-8 7.4-6.5c1.7 2.5-3.8 5-2.4 7s4.4 0 6.5-1.5 2.8-4.8 5.6-6.4 2.6-.9 3.4-1c.8 0 3-2.1 3-2.1l6.6-2.8 3.2.2 1.7.8 3.3.5.4-2.8s-3.9-1.8-6.5-1.7Zm-52.9 0 1.4-2.4-.8-1.2s-2.3-1.3-4.4-3.5c-2.2-2.2-3-2.6-4-3.1S523 458 523 458l-1.4-5.4-.9-1.6-2.5 1c-.5-1.6-3.5-12.5-4-13.8h-1.4l-2.7 7-3-4.4-.8-9.7c-1 1.2-3.2 3.5-4.4 4.6l-4.3-8.8s-.4-.2-.6.5a16 16 0 0 0-.3 5.2c-1.2-.8-3.2-2.1-5.8-4.4-4.5-3.8-5.5-5.8-5.5-5.8l-2-4.6 1.9-4.1 1-5-4.3 1.8-.8-11-.6-3.5-5.2 7.3-2-3.1.1-7-1.3-.4-2.1 4s-2-4.1-3-5a25 25 0 0 0-.5-8.6c-1.2-3.9-2.6-6-2.1-9.2s1.8-3.5 1.6-4.9-2.2 1-1.5-1 7.4-6 6-8.3-7.8 3.5-6.4-.3 7.7-4 8.1-9.3c.2-3.4-5.9 2-6.4.4s3.7-5.1 3.7-7.3.8-2.5-.4-3.6-4.9 4.5-4.9 4.5l-4-1.5-2.7 10.7-5-3 2.6 11.9-5.2-1.3 2.7 5 3.6 3.6 2.2 3 1.6.8 2.1 2.2.8 3.2 1.2 3.6c.2 2.6.5 5.6.1 8.2l-.1 2.8c-1 .1-2.6-1.5-3.2-.5-.6 1.1 3 3.9 2.3 4.6s-6-1.1-6.3.6.5 4.1 3.6 4.9 10.2 2.4 9 3.8c-1.2 1.4-9-4.2-8.7-.1s3 5.8 5 6.6 9.8-.2 9.4 1.7-6.4-.6-7 2 4.2 3.1 5.2 3.1 4.3-.1 5.5.8 5.6 5.6 8.4 8c2.3 2 7.3 5.4 8.8 6.4-1.5-.1-4.6-.4-5 .7-.7 1.4 11.7 5.8 8.1 7.2s-7.4-3.8-8.4-.7 2.4 5.8 4.3 7 12.9.2 10.7 2.7c-2.1 2.5-10-1.7-10.1 1.3s5.3 7.5 8 7.4c2.8-.1 5.8-4.5 7-2.1s-2 3.3.5 4 4.6-2.8 7.6-2.2 8 2.6 10.6 5c2 1.8 3.7 3.6 5.5 5.4Z"/><path fill="#036a4a" d="M577.6 483.4c1.9 0 2.1 1 2.4 1s3.4-2.7 6.4-4.3 7.6-2.7 7.6-2.7l.2.5s-5.4 1.3-8 3.2l-6 4c-.2.5-1.3 1.3-3.2 1.3-1.8 0-2.6-1-2.6-1.6 0-.5 1.3-1.4 3.2-1.4Zm16.4-8.3s-1.6.2-2.5-.6c-3.6-2.6-8.5-1.8-12.5 2-.2.1-.7 1-2.9 2.5.8.1 2.2-.9 3.8-2.1a14 14 0 0 1 7-2.6c2-.3 3.3.8 4.2 1.4 1 .7 2.8.5 2.8.5l.1-1Zm-97.1-39.7c.2 0 .1-.5 0-1.3-.3 0-1.5-.6-4.2-2.2-3.2-1.9-9.8-7.2-9.8-7.2l5.5 5.2c2.7 2.4 7.6 5.5 7.6 5.5h.8Zm68.5 48.6s1-1.3 2.8-4.2 3.4-3.7 3.7-4-.7-1.8-1.3-2.9-.4-2.2-.4-2.3.6 1.7 2 2.6l2 1.9s2.7-.4 2.7-.9 0-.9-.5-1-.9.3-2-.2c-2.5-1-3.5-4.8-5-5s-.4 4-1 4.1c-2.4.2-4.1-8.3-9.6-8.6-3.9-.3-4.5.4-4.7 1.3s4.6 6 3 6.7c-1.6.7-6.8-8-10.5-8.1s-4 1.3-3.8 2.1 4.2 1.6 3.3 4.3c-1 2.6-4.7-4-8.2-3.7-3.4.4-3.8.6-4 1.6s1.2 2.4.7 2.8-2.6.2-4.4 1.4-4.2 4.5-4.2 4.5 2.3-3.2 5.3-3.6 10.7 0 10.7 0-1-.6-2.1-1.6-2.1-3-2.1-3l3.3 2.9c1.6 1.3 3.6 2.3 3.6 2.3s3.3.3 3.5.7c.9 1-4.8 5.9-4.7 5.8l6.7-5.3 2.6.3c.2 0 .2-1-1.4-3.2s-3.1-5-3.1-5 2 1.9 4 4.5 1.6 3.8 2.4 4 2.1.2 2.7.2c.8 0 .6 1.1-.7 3.2s-2.2 4.8-2.2 4.8 1.4-2.3 2.9-3.8 2.3-3.4 2.8-3.5 2.6.2 3 0c.2 0-.5-.9-1.6-3-1-2.2-1.4-5.2-1.4-5.2s1 2.8 2.6 4.8 2.3 3.7 2.6 3.7l2.6-.1c.4 0 .5-.1.5.2.2.9-.2 1.4-1.3 3.5s-1.8 4-1.8 4ZM524 460c2.3.8 3.2.8 3.2.8s-3.2-2-4-4.6-.1-8.4-1.5-8.3-2.2 4.1-3.5 3.3.4-8.4-1-11.6c-1.6-3.2-5.1-5.5-6-4.3-.7 1.2-.5 8.1-2.7 6.6s.2-7.5-.5-10.2-2.3-4.7-3.6-4 .5 5.8-1.4 5.8-1.7-3.6-2.6-4-1 .8-1.5.1-.3-3.3-1.3-3c-2 .9 0 5.5.8 6.7.4.8 2 1.7 1.9 2.3s-1 1.1-2 1.1h-3.5s2.6.8 3.5.9 2.9-.5 3.3.4 2.8 3.9 2.8 3.9.5-1.6.8-4.4c.2-2.8.1-5.2.1-5.2s.8 3.2.7 5.2-.8 5.7-.8 5.7 2 1.7 1.5 2.2-2.9.4-5.5.4-6.2-1-6.2-1 3.3 1.7 5.6 2c2.3.4 7.3.5 7.3.5l3.5 4s1.6-2.9 1.8-5.7 0-6 0-6 .7 2.9.8 5.4-.8 7-1.1 7.3-2 1.5-3.6 1.8c-2.3.6-6.8 1.2-6.8 1.2s4.2.6 7.2-.2c3-.7 3.4-1.5 4.2-1s1.6 1.4 1.6 1.4 1.8 1.4 2.6 1.8c.1.3-1.4 1-2.2 1.4l-2.8 1.4 4.3-1.4a44 44 0 0 0 2.3-.8l.8.5a33 33 0 0 0-.8-5.9s1 1.6 1.4 3.2.3 3 .3 3 .2.5 2.6 1.3ZM464 391.4s.7-3.2.7-7c-.3-4.9-2.5-9.2-3.7-11l1.8-2.8-2.3 1.8s-1.2-.3-2.3-1-1.6-1.6-1.6-1.6 1.1.8 2.2 1.3 1.4.3 1.4.3l-.9-3.8s-1.1-.4-3.7-1.9-4.8-3.6-4.8-3.6 3.4 2 5.4 2.9c2 .8 3 .8 3 .8s2-.6 3.1-1.2 3.2-2.2 3.2-2.2-2 1.2-3.4 1.5l-3 .5-.6-4.6-2.2-2.2c-1.7-2.3-3-5.4-3-5.4s1.8 2.2 3.2 3.2a17 17 0 0 1 2.7 2.8c1-.3 8.2-5.5 8.5-5.7l-5.2 2.5c-3 1.4-3.2 1.3-3.2 1.3s-.2-2 .2-2.8 1.4-2.3 1.3-3.2-.8-.5-1-1.2.7-5.1.7-5.1l.3 2.4c0 .8-.4 2 .7 2s6.3-5.3 6.9-6.2 1.6-3.6-1.1-2.5c-2.7 1-2 3.3-4.3 3.1-.6 0-1.4-2.9-2.2-2.2-.9.7-2.8 2.5-3.1 4.5s.4 5.1-.7 6-2.2-3.5-4.4-2.8-2.8 3.7-2.4 4.9 5.2 6.9 3.7 7.6-5.4-4.8-7.4-1 6.4 7.5 7.4 8.4.2 1.2 1.7 3 3.5 2.4 4.5 3.7 4.2 7.3 4.2 11.2c0 3.9-.3 5.3-.3 5.3Zm22.6 33s-2-2.5-1.4-6.5 3.4-11 2.5-12-3.9 4.4-4.6 3.2 1.7-8.3.4-11.2-1.4-4.7-3.9-4.5-3.5 8.5-4.7 7 .7-5-.1-7-1.3-2.7-2.5-2.4-1.8 4.1-2.7 4c-.9 0-2.3-4.5-4.1-3.9-1.9.7 4.3 8.6 4.3 8.6s1-.9 1.6-2.3l1.2-2.8s.5 2.6 0 3.6-.8 3.4-.8 3.4-1.5.5-4 0-4.4-1.3-4.4-1.3c.8 1 7.2 2.6 9.4 3.2l3.8 5.1s.8-1.5 1.5-4 2.4-6.6 2.4-6.6-.5 5-1.1 7.4-1.2 5.9-1.2 5.9-2.2-.3-5.2-.8-7-1.5-7-1.5 3.6 1.3 7 2.3l5.5 1.5 2.7 3.5 1.8-2.8c1-1.5 1.9-3.5 1.9-3.5s-.5 2.8-1.3 4.4l-1.4 2.6s-1.7.4-3.3.4h-4.8s2.7.9 4.8 1.2l3.8.6s.1 1 1.3 2.6a8.8 8.8 0 0 0 2.6 2.5Z"/><path fill="#036a4a" d="M597.7 469s-.2.6-.2 2.2l-.3 11c-.4 1.1-6.2 3.5-9.5 6.4-3.3 2.8-3.4 5-3.4 5s-1 0-3.1.8-3 1.9-3 1.9 1.2-5.1 6.5-9.8c5.4-4.8 8-5.2 8.5-6s0-9.8.2-10.6c.1-.7.7-.7 1.2-.8s3.1 0 3.1 0Zm13.6 30.4s.8-1.7 1.4-2.2l1.8-1.5s.2-.2-2.7-1.5-4.4-.8-6.5-2.3-4.2-4-4.2-4l-2.8 2.4s1.7 2.4 3.3 4 5.2 2 6.7 2.8 3 2.2 3 2.2Z"/><path fill="#e30631" d="M618.6 489.2c-1.6-1.4-6.6-3-8.9-4.7-1.2-1-2.5-2.3-3.3-3.3l.1-.5c.6-2.5.4-10 .4-10.2 0-.1 0-.7-.4-1.2s-3.6-.3-3.6-.3.6 6.3-.1 10.4c-.7 4-3.9 6.9-7.7 9.4-3.8 2.5-6.2 6-6.3 6.6-.2.6.5.9 1.2 1.8l1.6 1.8s2.3-3.1 4.5-5.3l7.7-7.1.8-1c.6.7 1.5 1.5 2.6 2.2 2.5 1.7 4.3 1.5 6.7 3s3.8 3.4 3.8 3.4.2-.4 2.9-.3c2.7 0 3.4.8 3.4.8s-3.8-4-5.4-5.5Z"/><g stroke="#2d86cf" stroke-miterlimit="4.67"><path fill="#00b6d9" stroke-width="1.03" d="M648 449.2s-6.9-2.7-6.4-5 15.9-6.5 15.9-6.5l.2-4s-2.2-.2-6 1-10 3-16.7 3c-4 0-6.2-.4-7.3-.8a3469.4 3469.4 0 0 0-58.8-3.4c-7.2-.5-11.7-11.4-11.7-11.4l-3.4.6s1 5.3-.8 5.8c-3.5 1-26.7-11.5-26.7-11.5l-1.3 5s14.2 7.7 13.8 10.5-4.6 2.6-4.6 2.6l1.8 3.4c.6 0 23.4 1.1 23.8 8 .1 2.7-5.6 4.4-5.6 4.4l1.9 2.3v1.2s12.6 0 16.1 2 5.3 4.8 9.6 7.2 33.4 1.9 37.9.6c5.1-1.4 8.3-7.3 16.6-9.8s11-2.6 11-2.6l.7-2.6Z"/><g fill="#faf6f5" stroke-width="2.01"><circle cx="531.69" cy="438.31" r="4.03"/><circle cx="554.68" cy="419.56" r="4.03"/><circle cx="651.06" cy="449.59" r="4.13"/></g></g><path fill="#ffb81c" d="M513.6 413.5c-1.3 3 4 8.8 7.5 9.5s5.6-.3 6.3-2 .1-3.8-.7-4.9c-2.3-3-11.8-5.6-13-2.6Z"/><path fill="#faf6f5" d="M525 418.2c0-1.9-3-3.7-5-3.7s-3.9 0-3.5 1 5.3 2.4 5.4 3-1.5 1.2-.7 2 1.8.1 2.6-.4 1.3-.8 1.3-2Z"/><path fill="#ffb81c" d="M557 452.9c.9 2.7-1.2 4-3.9 5.2s-8.2.5-9.4-1.7 2-5.6 5.3-6.4 7.3.5 8 2.9Z"/><path fill="#faf6f5" d="M551.5 454.5c1-.2 1 1.6 2 1.4 1-.1 1.7-1.6 1.5-2.6s-2-2.5-3.5-2.3-6 3.8-5.4 4.9 1.4.9 2.3.5 2-1.7 3-2Z"/><path fill="#ffb81c" d="M656.2 439c2.5 3.3 6.9.3 8-1s4.8-3.3 3.3-5.4-4-2-5.6-1.9-5 2.5-5.7 3.7c-.6 1.1-1 3.2 0 4.6Z"/><path fill="#faf6f5" d="M657 436.9s.2-3.6 3.5-3.7c1.9 0 2 .5 3.4 1.3s2-1 2-1 0 2.4-2.2 2.5c-2.3 0-1.5-1-3.8-1.3-2-.3-2.9 2.2-2.9 2.2Z"/><path fill="#009aaf" d="M627.2 450.1c.7-.9 2.1-3.2 2.1-6.2 0-2.6-.6-3.8-1.1-4.3.6-.7 2-2.5 2-4.8 0-3.2-3.3-5.8-5.3-5.8-1.5 0-3.5.7-4.4 2.1l-5.1-2-.2-.1-13.3-.7a.4.4 0 0 0-.4.2h-5l-6.5.2a17 17 0 0 0-4.2-.3c-1.8 0-3.1.2-3.5.2a18 18 0 0 0-3.3-.2c-.8-1-2-1.8-3.7-1.9-1.1 0-2.2.4-3.2 1.3-1.3 1.2-2.2 3.2-2.2 4.9s1 2.7 1.7 3.5l.6.8c-.6.6-2.3 2.8-2.2 6.2.1 3.3 2.2 5.9 3 6.8-.9.8-3 3-3 5.3 0 3 2.7 4.9 5.3 4.9 1.7 0 3.7-.8 4.8-1.9l1.6 1.5c1 .8.8.7 4.6 1.4 3.9.6 27.5.7 29.3.5s3-.5 4.3-1.3c.6-.4 1-.7 1.2-1 1.2 1 2.8 1.3 4 1.3 2.4 0 5-1.7 5-5.4 0-3.1-2-4.6-3-5.2Z"/><g fill="#fd8b32"><path d="m602.5 429.8.8 5.7.3 1.5 4.4-1.8.4-.2.5-.2 9-3.8-2.8-1.1-12-.6h-.7v.5Z"/><path d="m601.5 429.4-5-.1-5.7.2a44 44 0 0 1 5.6 8.4c1.6 3.8 3.3 9.4 5.1 12.8 1.5 2.7 4.4 7 5.6 8.7l5.1-.1c-1.4-2.1-3.2-6-4.7-8.6a61 61 0 0 1-6-21.3Zm-11.9 0c-.5-.2-5-.2-6.2 0a27.2 27.2 0 0 1 8.2 15c.4 1.9.7 3.4 2.1 6.6 1.7 3.8 4 6.8 5.2 8.3h7.1a59.7 59.7 0 0 1-8.7-16.5 37 37 0 0 0-7.7-13.4Zm1.1 15.2c-.3-1.4-.5-2.8-1.4-5.2a26.5 26.5 0 0 0-6.7-9.5c-.3-.3-.4-.5-.8-.5l-2.2-.1c1 2.4-.3 5-2 5.3-1.1.2-3-.6-2.8-2.1 0-.6.9-.6.9 0-.1 1 1.1 1.3 1.7 1.2 3-.9 1.8-6.3-2.2-6.3-2.7 0-4.3 3-4.4 5.3 0 1.6 1.2 2.5 2 3.6.2.3.5.8.2 1.2-3.5 3.6-2.2 9.1.9 12 .4.3.3.7 0 1-.7.5-3.1 2.7-3.1 4.8 0 2.4 2.3 4 4.5 4 2 0 4.7-1 5-3.1.1-2.6-4.1-3.9-4.6-1.7 0 .6-.9.6-.9 0 0-.4.2-.8.5-1.1 1.8-2 5.7-.4 5.8 2.5.2.5.5 1 1 1.5a49.8 49.8 0 0 0 15 1.8h.6a39.4 39.4 0 0 1-4.8-7.9c-1.5-3.2-1.8-4.9-2.2-6.7Zm35.9 6.2c-.5-.2-.7-.5-.3-1a10 10 0 0 0 2.1-5.9c0-3.8-1-3.5-1.3-4.2 0-.7 2-1.7 2.1-5 0-2.7-2.8-4.8-4.3-4.8-1.3 0-3.2.6-3.8 2-.7 1.7.5 3 1.5 3s1.6-.2 1.6-1.4c0-.5.9-.6.9 0 0 1.7-1.3 2.3-2.5 2.2-1.5.1-3-1.6-2.5-3.8-.5.3-1.9 1.3-3 4.2-1.4 3.8-.2 5-1.2 5.4-1.9.4-10.7 0-11.1 0a76 76 0 0 0 8.4 17.6c1 .2 3.2-.3 3.7-.6 1.9-1.1 2.3-3 3.3-4 1.1-2.3 4-2.5 5.3-.2.2.5 1 2 0 2.1a.4.4 0 0 1-.4-.4c0-1.2-1-2.4-2-2.4-2-.2-3.7 3.2-1.5 5 2.8 2.1 7.4 2 7.5-3.3a5 5 0 0 0-2.5-4.5Z"/></g><path fill="#009aaf" d="M683 417c.4-2.5-.3-8.1-1.4-10-1.3-2.2-8.2-7.7-11-7.4-.3 0-.2 0-.2-.2 0-.4 1.4-2.5 1.4-2.5s-2.2.7-3 1.9c-.3.5-.4 1-.4 1.5a34.4 34.4 0 0 0-7.2 5.2v-.3l.6-2.8s-1.7 1.1-2.1 2c-.4.8-.7 2.2-.3 2.8a23.3 23.3 0 0 0-3.3 4c-1.6 2.1-2.5 3.5-6.2 3.3l-3.6-.2c.5-1.5.7-2.8.6-4.6-.3-3-1-4.5-1-4.5s-3-3.8-3.2-3.8c-.2-.1-6.5-3.5-6.8-3.4-.2.1-6.6-.2-6.6-.2l-9.5 5.3-7.6 1.7-.7.4 4.8-7-10.7 1.2c-1.6.2-5 .3-6.9-.2-2.7-.8-4.2-2.7-7-4 .7-.2.5-.8.3-1.7-.2-1-1.6-2.4-1.6-2.4 0 .8-.3 2.8.2 3.5l-1.7-.7V392c-.2-1.5-2-2.1-2-2.1.2 1 .8 2.5.6 3.3v.2a56.4 56.4 0 0 0-10.4-2.8l-.7-1.3c-.4-.8-2.7-2.5-2.7-2.5l.9 2.7a9.7 9.7 0 0 0-3.3-2.2c.3.5 1.2 2.9 2 3.5-2.2.5-4.2 1.9-5.9 3.4l-.9-1c-.4-.7-3-1.7-3-1.7s.6 1.2 1.3 2.2c.7 1 .8 1 1.5 1.7a24 24 0 0 0-2.8 3.6c-3.1-3.7-11.8-12.7-23.7-13.3-1.3 0-2.4 0-3.4.2-.1-1-2.4-2.4-2.5-2.5l.4 2.2c0 .2.2.4.4.6a14 14 0 0 0-6.1 3.3c-.2-3-.8-6-2-8.8.8-.5 1.4-2.7 1.4-2.7l-1.7 1c-.2.2-.3.2-.5.2a22.7 22.7 0 0 0-5.2-6.5 30 30 0 0 0-5.9-4.2l.3-1c.2-1.5-1.8-3.3-1.8-3.3a13.7 13.7 0 0 0 0 3.6c-9.1-3.6-15.3 2.1-15.2 10.5-.1.5.2 1.4 0 2l-2.2-.3s.7 1.4 2 1.7h.6c.8 2.9 2.5 6.3 6.3 9.7-.7.7-3-.1-3.2-.2a5 5 0 0 0 2.8 1.6c.6 0 1.2 0 1.6-.3 2.8 2.2 5.7 3.6 8.5 4.5l-.4.9c-.3.7-2.3 2-2.3 2s2.6-.5 3-1.2l.8-1.4c3 .8 5.7 1 7.8 1 1-.2.5.7.7 1.3 0 .2.4 3 3.5 5.7l-.4.2a7.4 7.4 0 0 0-2.4 2.7l3.3-1 1.1-.6c2.3 1.5 5.5 3 10.2 4-.5.7-.8 2-.8 2s2.3-1 2.7-1.5c.4-.5.3-.2 0 .1-.5.9-1 3-1 3s1.5-.8 2.5-1.9c.4-.4.7-.8.8-1.2a77.6 77.6 0 0 0 4.7.3c6.3 0 10.2-1.6 12.6-3.5.5 3.6 2.8 6.5 5.5 8.6l2.5 1.6c-.3.5-.1.8-.6 1l-1.4.8s1.1.5 2.2.1c.7-.2 1.2-.7 1.5-1.2l1.8.6c2.2.5 5.5 1.2 9 1.6-.4 1-1.5 2.4-1.5 2.4s1.7-.2 3-1.5l.6-.7a52.8 52.8 0 0 0 8.5-.2c-.2 1-1.4 2.8-1.4 2.8s1.3-.8 2.3-1.7c.5-.5.9-.9 1-1.2v2.8s1.3-1.7 1.7-2.6c.2-.5 0-1 .6-1.1 2.5-1 4.4-2.2 5.8-3.4a108 108 0 0 0-1 21.2h.4-.4c.3 1 1.2 2.2 2.6 2.2 1.6 0 4.8 0 6.4-.2 3 0 6.2 0 6.2-.6 0-1 1.3-9.4 4-11.3 1.2-.8 3-1.7 4.6-2.6 2.8-1.3 5.9-2 9-2.2 2-.1 4-.7 5.8-1.5a71 71 0 0 0 7.8 3.4l1 2.4c.8 1.4 2.6 2 2.6 2s-1.8-2.6-1.7-3.7c3.5 1 7.3 2 10.9 2 3.4 0 6.8-.9 10.1-2.2l1.1 1.3c.9.8 3.7.8 3.7.8l-2.4-1.2a6 6 0 0 1-1-1.4l.2-.1c.3.5 1 1 2 1.3 1.4.6 3.1-.4 3.1-.4s-2.7-.4-3.4-1.2l-.3-.3a30 30 0 0 0 9.5-6.3 9 9 0 0 0 2 .3c1 0 2.4-1.2 2.4-1.2-1.6-.1-2.4-.4-4.1 0Z"/><path fill="none" d="m575 390.3.1.2h.1l-.2-.2Z"/><path fill="#00b6d9" d="M535.6 402.3c-.4 0 0 0 0 .2.8.9.7 1.6-.4 2-.3.2-.4.2-.7.2.4.8 1 1.4 1.6 1.4 3.2-.3 2.2-3.8-.5-3.9Zm6.1-1.3c.4 0 .2-.2 0-.5v.5Zm13.2 0c-1.3-.1-1.8.3-2 .8.7 0 2 .2 1.9.8 0 .2-1 .5-1.4.4l-.5-.2c.2.7.7 1.4 1.4 1.4s2 0 2-.8c0-.9-.6-2.3-1.3-2.4Zm-5.7 4.8c-.8-.3-2.2-.2-2.3.9.6 0 1.3.3 1.2.7 0 .4-.2.6-.5.7 1.4 1 3.2-1.4 1.6-2.3ZM539 391.4c.4.6.4 1.3 0 1.5-.3.2-1-.2-1.5-.6-.2-.2-.2 0-.2.2 0 .8 1 1.2 1.8 1.2 1.5 0 1.5-2.2-.1-2.3Zm4.2 7.6c-1.6.2-.1.6.2 1.3.7 1.2.8 1.6-.1 1.7H542c.2.4.5.8.9.8.8 0 2.4-1 2.4-1.7 0-.9-1.3-2-2.1-2Zm-7.6-2.6c.3-1.4-2.6-1.7-3.3-1l.8.3c.8.6 1 1 .8 1.3-.2.2-1 .3-1.7 0 .6 1.2 3 .5 3.3-.6Zm-20-21.6c-.1 0-.5-.3-.6-.1 0 .6-.2 1-.5 1-.4 0-.5-.5-.5-1-.4 0-.7 0-.9.4-.3.8.3 1.8 1.4 1.8 1.2.1 2.4-1.5 1.1-2.1Zm-9 .1s.3.4.2.1c0-.2 0-.2-.2 0Zm1.3-.1c0 .7 0 2-.6 1.9-.3.3-1-.2-1.2-.7 0 0-.2-.5-.3-.1-.2.9.7 1.8 1.6 1.8 1.4.1 2.4-2.7.5-3Zm3.5 8.4c.3 2.2 3.4 1.9 3.6-.2.1-1-1-2.1-2-2.1-.6 0-1 .4-1.4.9l.7.4c2.2 1.8.7 2.8-1 1Zm-5.3-1.4c-.3 0-1 0-.6.2.6.5.8 1.3.5 1.5-.3.2-1-.3-1.4-.7-.4 1-.1 2.2 1.3 2 1.8 0 2.9-3.3.2-3Zm50.8 13c-3-2.3-7.6-5.3-9.3-6.5-9.3-3.8-20.1-1.4-22.6 9.1-1 3.2 1.4 5 4 6.8a10 10 0 0 1-.6-9.5c1.2-2 4.2-3.4 8.2-3.6l-.9-1.7s2.3.6 3 1.6c1.2.5 2.8.4 4.2.8 7.1 1.7 15.8 9.8 16.8 9.5 1.8-.5-1.2-5.2-2.8-6.6Zm-36.5-5.8c-.3 0-.5 0-.4.3 0 .9 0 1.6-.4 1.6-.3.2-1-1.9-1-.8-.2 2.6 3.3 2.2 3.4 0 0-1-.5-1.1-1.6-1.1Zm-7 .7c-.7 0-1 0-.6.7v1.5c0 .3-1-.3-1-.8-.1-.2-.1 0-.1.2 0 .8.2 1.6 1 1.7.8 0 2.3-1.2 2.3-2s-.8-1.3-1.6-1.3Zm13-4.8a85 85 0 0 0-5.2-10.4l-1.2-1.2c-4-3.4-8.2-6-13-5.6-3.3 1-6.7 2.9-7.1 7.6.4-1.3 1-2.4 2-3 2.2-1.4 7.6-2.6 12.4-.1v-.5l.5.8a13.7 13.7 0 0 1 5.6 6.4v-.7s.8 1 1.2 2c.2.7.5 2.2 0 2.6-.4.2-1-.4-1.2-1.2l-.1-1.2c-.5.3-.8.8-.8 1.4 0 1.4 1.8 2.2 2.9 1.4l.4-.3c0 .3 0 .6-.2.9 2.1 5.4 2.2 9 1.5 12.4l.3-.1c.6-1.8 1.6-3.8 3.2-5.6 0-1-.2-2.7-1.3-5.5Zm66 17.1v-.8c.2.3.3.6.2 1 6.3 3.1 11.9 6.4 12.4 6.4 2 .3 3-1.4 4.5-2.2l4.7-7-6.1.8 2.9 1-.3 1.3s-5.1-.1-6.5 0c-1.5.1-1.5.4-1.7.8l-.6.9-1.5-3.4 1.5-.2c-3.4-.2-5-.6-8.3-2.5-3.9-2.3-8.4-5.3-17-5.4-8.4.3-10.7 4-13.7 9.6-1.2 3-2 6 .3 8.4-.3-1.2-.4-3.7-.2-5.5.9-5.9 6.5-8.3 12.3-9l-.6-.6 3.7.7a1.4 1.4 0 0 0-.4 0l.6.3c.6.5.8 2 0 2.3-1 .6-1.6-.8-2.2-1.5-.7 1.4 1 2.4 2.3 2.4 2 0 1.8-3 .1-3.4 2.6.6 6 2 9.4 3.6l-1.4-2.2s2.4.6 3.4 1.6c.6.5 1 1.6.7 2.2-.2.2-1 .4-1.8-.3-.2-.4-.2-.2-.3.1 0 1.8 3 2.2 3.6.6Zm46.4 3.6c-2-3.7-7-2.2-7.2-2.2s-5.8-.1-8.4 2.4c-1.6 1.5-1.4 3.4-2.1 4.3-.8 1-7.5 0-8.2 1.1-1 1.4 1 5.6-1.6 3.3-.2.4-.5.5-.8.3-1.2-1-3-3.8-3.5-3-.6 1-1.8 5.2-2.5 7.2-.7 2.1-2.7 8.5-2.5 10.8.2 2.4 1.5 5.7 2.2 5.7 2 0 .5-3.4 2.8-7.4s5-8.7 5.8-8.7c.5 0 1 .4 1.7.2s2.2-1.6 2.3-1.7c0-.5.1-2.6 1.8-4s4.2-3.4 5.4-3.7 1.7-.4 1.9.1c.2.6-.7 1.3.1 1.6.6.1 1.6.2 2.3-.5.8-.8 1.1-2.4 1.1-2.3 0 0 1.2-1.2 3.5-.7s2.6.4 2.8 1.3c.2.7-.6 1-.8 1.3 0 .1.9 3 2.4 2.8 1.5-.2 2.4-1.3 2.5-1.4 0 0 .4-1-.2-1.4-.6-.3-.3-.8.2-.5.6.2 3 3.5 3.7 2.1.5-.7.7-1.6.7-2.3-1.4-1.4-4-2.4-5.3-4.7Zm-31.2 13.8c-2.9 1.6-1-4.6-1-4.3 0 0 0 2.5.2 3 .2.4.7.3 1 .7 0 0 .2.3-.2.6Zm8.3-3.6c-.3.8-1.3 2.5-2 2.3-.4-.2-.3-1.7 0-2.4.4-.7 3.3-2.8 3.3-2.8l-1.3 2.9Zm12.3-8c-2.2 2.6-2.9 1-.9-1l2.1-1.3s-.5 1.5-1.2 2.3Zm9.7 3.5c-.4.6-1 1.4-1.5 1-.6-.5.1-1.3.7-2 .6-.8 2.3-1.6 2.3-1.6l-1.4 2.5Zm24.4 6.9c0 .5-.9 1-1.4.9-.6 0-.8-1.3-.4-2.3-.5.2-1 .6-1 1.2 0 1.2 1.2 2.4 2 2.4 1.2 0 1.6-2 1.5-3.1-.3.3-.6.7-.6.9Zm-31 2c-.2-.7.5-1.6 1.2-1.6-1.2-.8-3-.2-2.6 1.8.2 1.2 1.4 1.3 2.3 1 .7-.1.7-1 .7-1.4-.7.3-1.4.4-1.5.1Zm30.5-2.9a3 3 0 0 1 1.1-.6c-.1-.6-1-.5-1.4-.3v1.2l.3-.3Zm-37 0c-.7.1-1.2 1-1.8.9-.6 0-.5-.9-.2-1.8-1-.1-1.5.5-1.6 1l.7 1.9c.3.5 1.1.6 1.6.6.8.2 2-1 2-1.5 0-.4-.4-.8-.7-1Zm46.6-5.3c-.4.7-.5 1-1.3 1s-.4-.8.2-1.6c0-.2.8-.5.3-.4-.8 0-2 .6-2 1.6s1.2 1.7 2 1.7 1.4-.7 1.4-1.6c0-.6-.3-1.6-.6-.7Zm-1 8c-.9.5-1.7 1.4-2.1.5-.5-.8.2-1.2.9-1.4l.6-.2c-1.1-.3-3 0-3 1.2-.3 2.3 3.2 3 4 .9 0-.3.2-1.6-.3-1Zm-4-11.7c1.6-2 3.2-3.8 4.4-4.5 2.8-1.5 4-1.5 4-1.5s-2.1-1.9-4-1.8c-4 1-6.5 3.5-11 7.6-1.4 1.3-2.2 2.5-3 3.5-2.7 4.6-5.6 3.9-10.9 3.6-.3.7-.7 1.4-1.2 2 1 .2 2.4.3 3.8.3-.3.5-.4 1.2-.3 1.8.7 3.3 4 2.5 5.5 0 .4-.7.6-1.3.2-1.9 5-.2 7-2.5 9.9-6l-.5-1c.3.4.6.8 1.1.8 1 .2 1.7-2.2 1-3-.5.8-1 1.4-1.6 1-.4-.1-.2-.8 0-1.3.3-.6 1.5-1.4 2-1.9 0 0 0 1.2-.4 2 .3 0 .7.1 1 .3Zm-15 10.7c-1 2.3-3 .8-1-1.2.8-.7 2-1.1 3-1.3-.5.6-1.8 2-2 2.5Zm-64.2-6.2c-1 0-2 .4-2 1.4.4-.1 1-.3 1.4-.2 1 .2 1.4.1 1.4.7s-1.2.5-1.6.5h-1c.9 1.4 3.9 1.2 3.8-.8 0-1.1-1-1.5-2-1.6Zm-14.2-.5c.5-.4 1.9-.5 2 0 .1.5-.8 1.2-1.2 1.1-1.2-.1.7 1 1.2.9 1.5 0 2.5-1.8 1.7-3-.8-1-3.7-.4-3.7 1Zm12.2-7a2 2 0 0 0-2.5-.5c.6.5 1.2 1.9.8 2.3 0 .7-.8.8-1.4.5 1.5 2 4.5-.2 3-2.2Zm-11.3-1.1c0-1-1-1.5-2-1.5-.3 0-1 0-.5.3.4.5.9 1.2.6 1.6-.2.5-1.2.6-1.8.4.2.6 1 1 1.7 1a2 2 0 0 0 2-1.8Zm-3.8-.3-.1-.1v.1Zm41.4 24.5c-.5 0-.6-.8-.6-2-.5.1-1.1.6-1.3.8-.3.3-.6 1.4-.4 1.8 0 0 1 1.6 2.5 1.1 1.5-.4 2.2-1.7 2.3-1.7 0-.5-.1-.7-.3-1-.9.6-1.7 1.1-2.2 1Zm5.2-10.4Zm-23.6-10.5c-.7 0-1 .1-1.3.5.6 0 1.6 0 1.9.3.5.6.5 1.4.2 1.7s-1.5.3-1.8-.2l-.5-.5c0 1 1 2 2.1 1.9 1.3 0 2.1-1.2 2-2.4-.3-1-1.5-1.3-2.6-1.3Z"/><path fill="#0a1a1d" d="m520.5 378.2-.1.6c-.1.8-.2 2 0 2.7.3.8.8 1.4 1.1 1.3.6-.5.3-2 0-2.7-.3-1-1-2-1-2Zm6.6 27.3a7.4 7.4 0 0 0-2.4 2.7c.3-.1 3.5-.9 4.4-1.6-.8-.4-1.3-1.6-2-1Zm-14.8-23.3c-.3-.4-2-.8-2.1-.7l1.2 1.7c1.6 1.8 3 .8 1-1ZM554 402c-.7-.3-3 .2-3.1.3l2 .6.6.2c.5.1 1.4-.2 1.4-.4s0-.6-.9-.7Zm-41-10c0-.2 0-1.6-.3-2-.3-.6-2-.7-2-.8l1.4 2.4c.3.5.8.5.9.4Zm1.1 6c-.3.7-2.3 2-2.3 2s2.6-.5 3-1.2l.7-1.4-1-.4-.4 1Zm19.9-1c.2-.1-.3-1-1-1.3l-2-.6c-.1 0 .6 1.5 1.3 1.9.7.4 1.5.3 1.7 0Zm7.4 14.3c-.6.9-1.1 3-1.1 3s1.5-.8 2.5-1.9c.4-.4.7-.8.8-1.2-.7.1-1.8-.6-2.2.1Zm1.5-11.5c-.6-.7-2.7-1.7-2.7-1.6l1.9 2.9c-.7 0-2.6.5-2.6.5.5 0 3.3.8 4.2.5.6-.4.3-.6-.2-1.7l-.6-.6Zm4.3 7h-.6c-1 .2-2.2 1-2.2 1s2.5.7 3.3.4c.9-.3.6-1.4-.5-1.4Zm-11.7-4.4c-.8-.4-2.5-.7-2.5-.7l1.2 1.8c-.8.3-1.5 1.4-1.6 1.5 0 0 1.7 0 2.3-.2.6-.1 1.5-.8 1.3-1.2 0-.3-.3-1-.7-1.2Zm3.6-9.4c.6-.2.2-1.4-.3-1.9-.7-1-3-1.6-3-1.6s1.1 2.3 1.6 2.7c.4.4 1.3 1 1.7.8Zm2.4 18-2.1-.4c-.5.8-.8 2.2-.8 2.2 0-.1 2.6-1.1 2.9-1.8Zm-21.8-24.7s-.7 1.7-.7 2.5v.5a9.7 9.7 0 0 0-1.1-.5l.8 1c.4.3.6 1.2 1 1.2.5 0 .4-1.2.4-2 0-1-.4-2.7-.4-2.7Zm16.7-.5c-.2-.8-2.4-2.3-2.4-2.3 0 .2.2 2.3.8 2.8.3-.2 1.8 0 1.6-.5Zm55.4 9.5c.7-.2.5-.8.3-1.7-.1-1-1.6-2.4-1.6-2.4v2.5c-.1 1 .6 1.3 1.3 1.6Zm-20.4-7.9c.3.5 1.3 3 2 3.5.4-.3 2 0 1.7-.5.2.3.4.3.7.2 1.6.1 1.6.4.7-1.2-.3-.8-2.6-2.5-2.6-2.5l.8 2.7a9.7 9.7 0 0 0-3.3-2.2Zm16.2 6c.2.4 1 .4 1.4.6v-1.8c-.2-1.6-2-2.2-2-2.2l.6 2c.2.8 0 1 0 1.3Zm83 6.1c0-.4 1.4-2.5 1.4-2.5s-2.3.7-3 1.9c-.4.5-.5 1-.5 1.5.7-.3 1.4-.6 2-.7v-.2ZM670 413c.8 0 1-.4 1.3-1 .1-.5 1.2-1.6 1.2-1.6s-1 .1-1.8.5c-.7.4-1.6 2.2-.7 2.1Zm-174.3-33s.7 1.4 2 1.7h.7c-.2-.5-.2-1.2-.4-1.4l-2.3-.3Zm5.7 11.2s1.2 1.4 2.8 1.6c.6 0 1.2 0 1.6-.3l-1.2-1.1c-.7.7-3-.1-3.2-.2Zm2.1-10s.7 1.3 1.3 1.8c1.1 1.3 1.8 0 .6-1-.5-.4-2-.8-1.9-.8Zm3.2-6.2c0 .3-.1 0-.2 0-.6-.3-1.3-.6-1.8-1l1.3 2c.7 1.3 1.9.9 1.9-.8.2-.8-.7-2.6-.7-2.5 0 0-.5 1.6-.5 2.3Zm6.5-8.2v1l1.4.7.3-1c.2-1.5-1.8-3.3-1.8-3.3s.2 2 0 2.6Zm1 5.4c-.2.8-.4 1.7-.3 2.4 0 1.4 1 1.5 1 0 .3-.8-.1-2.3-.6-2.9l-.1.5ZM528 378l-1.7 1c-.2.2-.3.2-.5.2l.7 1.5c1-.5 1.5-2.7 1.5-2.7Zm133.3 27.2c0-.9.5-2.8.5-2.8s-1.7 1.1-2.1 2c-.3.8-.6 2.2-.3 2.8.4-.6 1.7-1.1 1.9-2Zm-24.2 5c-.5.8-1.3 1.6-.7 2 .6.5 1.1-.3 1.6-1l1.4-2.5s-1.7.8-2.3 1.5Zm-5.7 9.9c.3.5 2-.3 2.6-.7 1-.7 1.6-1.9 1.6-1.9 0 .1-2.5 1-3.1 1-.7 0-1.4 1-1.1 1.6Zm-64.8-27c-.5-.6-3.1-1.6-3.1-1.6s.6 1.2 1.3 2.2c.7 1 .8 1 1.5 1.7l1.2-1.2-1-1Zm83.9 24.7c-1 1-1.1 2-.6 2.3.6.3 1.3-.7 1.5-1.1.2-.5 1.5-2 2-2.5l-.5.1a6 6 0 0 0-2.4 1.2Zm-24.3-8.8c.5.4 1.3-.4 2-1.2.7-.8 1.2-2.3 1.2-2.3s-1.4.8-2 1.3c-.7.5-1.5 2-1.2 2.2Zm-1.9 7.2.6-3s-1.2.9-1.7 2.2l-.4 1c-.3.9-.4 1.7.2 1.8.5 0 1-.7 1.5-.7.5-.2 1-.4 1.7-.3l1.9.3s-.9-.8-2.3-1.2h-1.5ZM664 408c-.3.4-.4 1.1 0 1.3.6.4 1.1-.3 1.5-1.2.4-.9.4-2 .4-2-.5.4-1.7 1.3-2 1.9Zm-2.3 9.7c0-.5-.2-.8 0-1.3 0-.7.8-1.8.8-1.8s-1.4 1-1.9 2.2c-.3 1-.2 2.4.4 2.3.5.1 1.4-.3 1.5-.8 0-.3.3-.6.6-1l.9-.8s-.5 0-1 .3c-.5.1-1 .5-1.4.9Zm21.4-.6c0 .5-.1.7-.3 1a9 9 0 0 0 2 .3c1 0 2.4-1.2 2.4-1.2-1.3-.1-2.6-.4-4 0Zm-11.5 8c-1.8.6-1.1.7-.2 1.8 1 .8 3.7.8 3.7.8l-2.4-1.2a6 6 0 0 1-1-1.4Zm1.7-.7-1.4.6c.3.5 1.1 1 2 1.3 1.4.6 3.1-.4 3.1-.4s-3.1-.5-3.7-1.5Zm-1.6-5.9-2.4.7c-.6.2-1.4.5-.9 1.4.5.7.8.2 1.8-.3l.7-.5c.5-.6.8-1.3.8-1.3Zm-57.7-2.7c-.3.6-.4 2.2 0 2.3.7.2 1.7-1.5 2-2.2l1.3-2.9s-2.9 2.1-3.3 2.8Zm35.4 10c-2.7-1.3-2-.6-1 1.6.8 1.5 2.6 2.1 2.6 2.1s-1.8-2.6-1.6-3.7ZM573.9 412c-.7-.2-2 1.2-2 1.3h1.4c1.3.4 2.8-1.6.6-1.3Zm4.8-13c.7-.5.5-1.9-.1-2.4-.9-.6-3.9-1-4-1l.7.6c.5.5 1.2 1.1 1.5 1.7.3.6 1 1.4 1.8 1Zm4.8 8c.3-.3.1-1-.4-1.8-.6-1-3.5-2.5-3.5-2.5l1.4 2.7-2.7-.5c1 .8 2.2 2.2 3.6 2.6.7.3 1.5.4 1.6-.5Zm28.7 18.6.7-2.3s-1.8 1.9-2 3c-.1 2.8 1 2.3 2.8 1.1a10 10 0 0 0 2.5-1.9s-2.1.5-3.8 1.1l-.2-1Zm-40.6-22.4c-.9-1.2-4-2.8-4-2.7 0 0 2.2 2.3 2.2 2.7l.3.7h-.3c-1 0-2.8.4-2.8.4s2.4.4 3.3.7c1.4.4 2.5-.4 1.3-1.8Zm8.2 20.2s1.8-.3 3-1.5l.6-.7-2-.2c-.5 1-1.6 2.4-1.6 2.4Zm-11.6-4.2-1.4.7s1.1.5 2.2 0c.7-.2 1.2-.6 1.5-1a15 15 0 0 1-1.7-.8c-.3.5-.1.8-.6 1Zm18.4-5.3c-.7-.2-3 1-3 1.1a144.3 144.3 0 0 0 2.8.2c.4 0 1.6.1 1.6-.5s-.3-.6-1.4-.8Zm20.2 4.1-.1-3s-1 2.5-.5 4.1c.2 1 2 .3 1.6-.4-.2-.3-.8-.2-1-.7Zm-12.9 2.6c-.6.3-1.9 0-2.1.7-.4 1-1.3 2.5-1.3 2.5s1.3-.8 2.3-1.7c.5-.5.9-.9 1-1.3v3s1.4-1.8 1.7-2.8c.7-1.6-.6-.5-1.6-.4Zm-3-19c.4-.6-.1-1.7-.7-2.2-1-1-3.4-1.7-3.4-1.7 0 .2 1.7 2.9 2.3 3.5.7.8 1.6.6 1.8.4Zm1.2 8.2c.3.4 1.6.4 1.8.1s.3-1-.2-1.6c-.2-.2-.7-.3-1.3-.4l-2.5.1a29.3 29.3 0 0 0 2.2 1.8Z"/><path fill="#b5915f" d="M700 384.7c-2.2-2.9-6.6.4-4.8 3.3l-4 3.6.3.3 1.4 1.3.3.4 3.6-4.5c2.4.7 4.6-2.4 3.1-4.4Zm-208.3-38.1c1-1 1.2-2.7.2-3.9-2.5-2.9-6.5.5-4.2 3.5.6.7 1.4 1 2.2 1l2.4 5.3.4-.3 1.6-.9.5-.2-3-4.5Zm61.6 29.9.5.1.4-2.1c3 .2 3.4-4.6.4-5-2.1-.3-3.5 2.7-2 4.2l-.8 2.5h.3l.7.1"/><g fill="#f42a41"><path d="M499.5 356.4c.8 0 1.8 0 2-.2.2-.2.3-.1.6-.8.3-.7.2-2.9-.3-3.3-.5-.5-1.2-.6-1.2-.9s.5-.4.5-.9-5 .2-4.6.7c.3.6 1.2.3 1.1.6 0 .3-.8.8-.9 1.2-.3 0-.5-.2-.8-.4-.3-.5.5-2-1.1-1.3-1 .4-3.4 1.6-3.6 2.5.4.5.8 0 1 .3v2.2c-.6 0-1.7 0-2-.2-.2-.2.3-.8-.3-1-.5 0-3.3 3.1-2.8 3.6.5.6.8-.2 1 .2v2.1c0 .5 1.4 1.6 1.4 1.5 0 0 1.8.5 2.8 0l.5-.4c0 1.7.5 3.5 1.4 5.2 2.2 4.3 6.4 6.7 9.4 5.2 5.4-3 1.6-14-4-15.9Zm-1.7-.4Zm57.8 21.9c-.2.5.5.9.3 1-.3.2-1 0-1.3.2-.2 0-.4-.7-.3-.8 0-.4.6-.4.7-1 .4-.4-5.8-2.5-4.3-1 .4.3 0 .6-.3 1-.4.3-.7.7-.8 1-.2-.4-1-1.1-1-1.4 0-.3.6-.4.4-.8-.2-.4-3.8-.3-3.8.3s.6.4.4.7c-.2.4-1 1-1.3 1.3-.3.3 0 1.8 0 1.8s.7 1.4 1.6 1.7l.4.1c-1.1 1.3-2 3.2-2.3 5.3-.7 4.5 1.2 8.5 4.2 9 5.2.8 8.4-8.3 6.2-13 .3.4.8.7 1 .7.2 0 .2.2.8 0 .6-.2 1.9-1.6 1.9-2.1 0-.6-.4-1.1-.3-1.3s.6 0 1-.2-3-3-3.2-2.5Zm139.3 18.7c-.6 0-.3.6-.6.8-.3.1-1.3-.2-1.9-.3.3-.6.3-2 .6-2.2.2-.3.5.4 1 0 .2-.2-.7-1.3-1.1-1.7-.7-.6-1.8-2-2.7-2-.5.5-.2 1.1-.5 1.3-.3.2-.5.2-.9.2 0-.4-.6-1-.5-1.3 0-.3.7.2 1.2-.3s-4.2-2.3-4.3-1.9c-.1.5.4.8.3 1s-.9.2-1.4.5-1.2 2.5-1.1 3.2c0 .7.2.7.4 1 .1.1 1 .5 1.8.6-2.1.3-4.5 1.6-6.4 3.8-7.6 9 1 16.5 9 7.9a12 12 0 0 0 2.5-4.6l.4.4c.8.7 2.7.8 2.7.8s1.7-.6 1.8-1.1c.1-.5.3-1.7.5-2 .3-.4.4.4 1 0s-1.3-4.1-1.8-4.1Zm-7.9-1Z"/></g><path fill="none" d="M687 395.6ZM497.7 356Z"/><path fill="#ed72aa" d="M550.6 383.3c-2.9-.4-3.9 6-1 6.5 2.9.4 3.9-6 1-6.5Zm-55-24c-2.8 1.5.4 7.7 3.2 6.4 2.8-1.5-.3-7.7-3.2-6.4Z"/><g fill="#ffb81c"><path d="M691.5 392c.5.3 1 .7 1.4 1.2l.6-.8.9-1.8c.3-.6.2-1 0-1.3l-2.9 2.6Zm7.4-7.6c-2-1.4-5 1.6-3.1 3.4.7.7 1.7.8 2.6.3 1.3-.7 1.2-3 .5-3.7Z"/></g><path fill="#ed72aa" d="M681.5 400.6c-3 3.6.4 6.7 3.6 3.2 3-3.5-.5-6.6-3.6-3.2Z"/><g fill="#ffb81c"><path d="M555.3 380.2c-.4.2-.8.6-.9.9 0 .2.2 1.3.5 1.6.4.4 1.6-.4 1.8-.6s.2-.4 0-.8c0-.4-1.4-1.1-1.4-1.1Zm-2.5-1.5c-.6-.3-1.7-.5-2.2-.4-.5.3-.7 1-.6 1.4.2.6.6 1.2 1 1.5.6 0 2.3-1 2.4-1.4 0-.4-.4-1-.6-1.1Zm-6.2-.8c-.4 0-.7.5-1 .8s.7 2 1.2 2c.4 0 1.6-.6 1.8-1.2 0-.2 0-.9-.3-1.3s-1.3-.4-1.7-.3Zm-54-19.6c-.2-.3-.9-.7-1.4-.8-.6-.1-1.3.8-1.6 1.2-.3.3-.1 1-.1 1.5 0 .4 2.3 1 2.6.6.3-.5.8-2 .4-2.5Zm3.2-4.4c-.8-.2-1.3.4-2.1 1-.9.6-.7 1.5-.2 2 .5.5 2 .8 2.4.5.4-.3 1-2.7.8-3.1-.2-.2-.5-.3-.9-.4Zm4.8-1.3c-.4-.2-2.1.4-2.1.4-.2.5-.2 1.2 0 1.4s1.2 1 1.8.9c.6 0 1-1.8 1-2s-.2-.5-.7-.7Zm193.7 47.6c-.2-.5-.7-1.5-1.3-1.6-.6 0-1.3.3-1.5.5-.5.4-.4 2-.2 2.5.3.5 2.6.4 2.7 0 .1-.3.5-1 .3-1.4Zm-2.7-4a6.8 6.8 0 0 0-1.6-2c-.4-.2-1.1-.3-1.5 0-.4.3-.4 2.8 0 3.2.3.4 1.9.4 2.4.2.3-.3.8-.8.7-1.4Zm-6.5-4.7c-.4.1-.7.2-.7.5-.1.3-.3 2 .3 2.3.6.1 1.8-.3 2-.5.2-.1.5-.8.4-1.3 0 0-1.5-1-2-1Z"/></g><path fill="#ffb81c" d="m552.8 376.3.5.2.1-.6c-.1 0-.4 0-.6.4ZM489 342.2c-.8.6-1.4 2.7-.4 3.7 1 1 2.3.8 3 .1l.4-.7.1-.3v-1l-.1-.2a2.6 2.6 0 0 0-.3-.6v-.1a1.7 1.7 0 0 0-.2-.2l-.1-.1-.2-.2h-.1c-.6-.5-1.3-.7-2.1-.4Zm67 28.6h-.1a1.8 1.8 0 0 0-.8-.6c-.8-.1-2.4.7-2.4 1.9 0 1 .7 1.7 1.4 2 .4 0 1-.1 1.3-.4l.1-.1h.1c.7-.8.8-2 .3-2.8Zm-64-21.5.3 2 .4.9 1.6-.9-2.2-3.2c-.1.1-.4.5-.2 1.2Z"/><path fill="#b5915f" d="M554.2 288.7a36.5 36.5 0 0 0-11-11.3l-3.7 4.3 6.5 5s1.5-.9 1.6 1c0 1.9-1.8 3.5-2.2 5-.4 1.3-10.4 8.2-11.2 8.9l-5.7 4.5s-2.6 2.6-5 8c-2.4 5.3-1.2 12.2-1.2 12.2s.1 14.6 15.6 17.3l.7.2 8.2-.4 2.6-.3-4.2-5.1a55 55 0 0 0-4.5-5.2l-4.3-2.1-2.7-4.5-.3-5.4 1.1-3 1.7-2.4s-1.4.5-2.9 2.2a53.3 53.3 0 0 1 19.6-17.8l3.3-3.8 2.4-4.3a14 14 0 0 0-4.4-3Z"/><path fill="#b5915f" d="M534.2 281.7s-7.4.6-12.5-.3-4-14-4.1-14.3-3.1-3.6-2.6-6.5 10-10.6 11.2-11c.9-.3 2.8.5 2.8.5s2.3-2.3 3-2.3 1.8 1.3 1.5 1.9-3.5 2.5-3.8 4 0 2.9-.9 4.3-2.7 3.3-3 4.5-.7 2.3.2 2.7 4 0 6.7-1.1 3.7-2.8 4-2.7-1.4 3.3-4.4 4.6-4.9 2.6-6.3 2.4c0 0-1.6 4 3.4 4.1s7.8-1 7.8-1l-3 10.2Zm-28.8 30.7s3.9 1.5 3.9 5.8-4.3 8-4.2 15.6c.2 7.5 1.4 7.6 11.4 15.8.3.2 2.4 2.4 3 4.9s2.4 17 12 17 11-6.3 11-6.3l-4-6s-3.4 1-5.3.5-3.4-1.6-4.5-4-1.3-7.9-3-10.3c-4-6.1-11.3-7.1-11.3-13.5s4.4-7.1 3.2-14.7-10.4-11.3-10.4-11.3l-3.6-1.5-1.3 7.6 3 .4Z"/><path fill="#ffb81c" d="M532 259.2c3.3-.8 1.4-9.2 1.4-9.2l-2.2 1.8s1.4 1.8 1.4 3.8-.6 3.6-.6 3.6Z"/><path fill="#b5915f" d="M538 343.6z"/><path fill="#6c401f" d="m528.2 351.3 1.1 5.2-3.2 1.2h-1.3l-1 .4-2.5 2.4-.6-.2s-.4.1-.5-1.4l-.4-2.9 3 1.3h1l.8-.2 1.3-2.9 2.3-2.9Zm-9.3 1-1.5-2c-.4-.6-.7-.7-1.8-1.6l2.2-1.2h2.4l-.4 2.8-1 2Zm5.3-8.4s1.5.8 2 1.9l1.1 2.5-3.7-.3-2.9-1 1.9-2.5 1.6-.5Zm-1.4 23s-.8-.4-1.2-1.6c-.5-1.3-.8-3.2-.8-3.2l2.5-.5 2.9 1.2h.8l-.8 1.6-2.8 2.4-.6.1Zm9.8-8s-2.2-.6-2.5-1.6c-.4-1.1-.7-1-.7-1l-.7 3-.8 2.8.2.5 2.3-.6c.2 0 1.6-1.7 1.6-1.8l.6-1.2Zm-9.2 9.3 2.6 1.5c1.6.9 2.5.9 2.5.9l1.1-1.2 1.2-2.4.2-.3-6 .6-1.6 1Zm8.5-2.2 5-3 .4-2.8-1-.7s.2 0-1.2 0h-1.7l-1 3.4-.5 3Zm-3.5 4.7s3.5 1.5 9.6-.7c2.7-1 3.3-2.3 3.3-2.3l-2.5-1-2.3 2-8.2 2Zm-4.9-39-.7-2.7-.3-2 1.8.8 2.6 2-1.8 1.4-1.6.5Zm4.3 7.1s-.9-.9-1.6-2l-1.3-2.2 1.9.4 2.2 1-1 3-.2-.2Z"/><path fill="#b5915f" d="M516.5 258.1c-.4 1.3-.8 3.5.9 4 .9.2 4.6-.1 8.7-4.9 2-2.3 2-4.5 2-4.5l.8-2.6s-1.6-1.2-4.2.5c-2.4 1.4-8.3 7.5-8.3 7.5Z"/><ellipse cx="526.78" cy="253.04" fill="#0a1a1d" rx=".74" ry=".78"/><path fill="#6c401f" d="M522.5 252.3c-1.8 1.3-3.4 3.1-3.4 3.1s2.8-.8 5-2.8a6.6 6.6 0 0 1 5-1.3c.7.2.5-.7.2-1-.7-.5-2.8-.8-3.2-.5 0 0-1.8 1-3.6 2.5Zm8.5 77.9-.2-2v-2.3l-1.6 1.5-1.6 2.2 2.5.9.9-.3Zm-8.7-5s-.2-2.2 0-4.4 1-6 1-6l1 2.6 3 4.8 1 .7-2.6 1.8-2.6.9-.8-.4Zm8.7-1.2.4-2 1-2.6s.1.2 0 .2l-2.7 2.2-1.2 1.1 1.6 1.2h1m-7-11.3s.3-1.4 1.7-3.1l2.6-3.5 1.2 4.6.7 4v.8s-.9.4-1.2.4-3.2-.2-3.6-.7l-1.5-2.5Zm9 5.4 1.6-1.6 2-2-6.2 1 .9 2.2 1.7.4Zm-3.7-12.8s.6-.2 2.2-1.9c1.7-1.6 2.5-1.4 2.5-1.4l.7 6.6-3.2-1-2.2-2.3Z"/><path fill="#6c401f" d="m537 314.1 3.8-3.8-6.2-1.7 1.2 4.3 1.3 1.2Zm2.7-10 .4-6.4s-1.3.6-2.9 2-2.3 1.7-2.3 1.7l.7 1.2 2.2 1.4 1.9.1Zm5.5-6.2v-5l-.2.1s-1 1.4-2 2.2-1.4 1.5-1.4 1.5l1.6 1 2 .3Zm2.3 6.8 3-2.5c2-1.5 2.9-3.1 2.9-3.1l-8-.6.3 3.2 1.8 3Zm-18.6-26.5-.3 3.5h6.7l-1.6-2.2-2-1.3-2-2-.8 2Zm12.9 31.3 2.9-2.4c.9-1 2.3-1.8 2.3-1.8l-6.3-.7v4.1l1 .8Zm12-11.4s.7-2.6.7-5-.5-3.6-.5-3.6l-4.8 3.3.7 2.4 1.8 2 2.1.9Z"/><path fill="#6c401f" d="M545.7 292.2s1.4-1.7 1.5-2.7v-.7h3.8l2.3.3.3.2-1.7 2-2.3 1.3-3 .4-.9-.8Zm7.6-3.7-2.3-4c-.8-1.4-1.6-2-1.6-2l-1.9 5.4-.1.5h6Z"/><path fill="#faf6f5" d="m507 325.7-.8 1.6s2.5-1.3 4.4-1.3 4.1 2.5 4.1 2.5l.5-1.8s-2.6-2.4-4.2-2.6c-1.7-.1-4 1.6-4 1.6Zm1.2-11.1.6.8c.2.2.2-1.9 2.8-3s3.9-.2 3.9-.2-.5-1.5-1.6-1.8-2.3 0-3.6 1-2.1 3.2-2.1 3.2Zm8.6 8.4s-1.2-2.5-3.3-3-4.7 1-4.7 1l-.4 1.3s2.8-1.6 4.9-.7 2.8 3.1 2.8 3.1l.7-1.7Zm-9.7-9.8c.1.4.6 1 .6 1s-.2-2.7 1-4.1 2.2-2 2.2-2l-1.2-.6s-1.6 1.2-2.2 2.4-.5 2.8-.4 3.3Zm-1-4.5c.5-1.3 2.2-2 2.2-2s-.2-.2-.6-.4-.7 0-.7 0-1.2.5-1.8 2-.6 3.8-.6 3.8l1 .6s-.2-2.6.4-4Zm15-36.7c1.6-.9 2.8-.7 2.8-.7s-2.3 2.4-1.2 5.5a19.8 19.8 0 0 0-1.7 4.5h1.2l1-3.6c.8 1.7 2 3 3.6 4.1h1.9s0-2.6 1-4.8l.1.2c2.1 2.2 3.9 2.7 3.9 2.7v-.7s-2.2-1.2-3.4-3l-.2-.1c1.6-2.4 3.6-3.2 3.6-3.2l1.3 1.1.3-.4-1-1.3h-1.1s-2 1.8-3.4 3.3l-1.5-3-1-.4s-2 .3-3.8 3.3c-.3-2.2 2.3-4.6 2.3-4.6l-.1-1-4.6 1.1c-2 .6-3.2 2.5-3.2 2.5l-.1 1.4s1.8-2 3.4-3Zm2.8 4c1.2-1.7 3.8-2.8 3.8-2.8s0 1.4 1.5 3.2c-1 1.7-1.4 4.3-1.4 4.3s-2-1.2-3.8-3.8l-.3-.5.2-.4Zm-14.6 40.7.1 1.5s1.6-1.7 3.9-1.7 4.3 1.7 4.3 1.7 0-2-.3-2.2c-.3-.2-2.2-1.3-4-1.3s-4 2-4 2Zm41.3-21.6-1-2a4 4 0 0 0 1-.5c1.3-1 2.4-2 3.4-3l-.7-1.2h-3.1l-2.7-.2 1-3.2 1-2.7-1-1s.3 1-1.6 1.2-5.3-1.6-5.3-1.6v.8s3 1 4.8 1.2c.8.2 1.6 0 2.3-.5-.3.6-.8 1.7-1 2.6-.3.9-.6 1.4-.6 1.8 0 .2.4.4.4.4l-.2 1.6 2.8.3 3.2.2s-1.7 2-3.3 2.7l-.7.3c0-.3-2-3.1-2-3.1l-.1 1 1.5 2.3c-1.2.1-3-.3-3-.3l-.7.8v4.8l-3.4-1.1-.7.5v-.1l-.8.7s-.8 2.8-.6 6v.2c-3-.7-4.6-2.6-4.6-2.6l-.7.7s-.6 2.8.1 6.1c-2.6-.5-4.9-2.8-4.9-2.8l-1 .9 1.3 8.4.1.7h-1.4c-2.7 0-4.3-2.5-4.3-2.5l-.8 1.9s1 5.2 4 7.6l.6.5c-2.5 2-5.5 2.4-5.5 2.4l.2 1.6 3.5 2.6.6.3c-1.4 1.3-3.1 1.8-3.1 1.8l.4 1 3.4-2.4c1.6.6 3.6.9 3.6.9v-1s-1.5 0-2.9-.5l.2-.2c.9-.8 2.6-3.5 2.6-3.5l.2-1.8s-1.1-.2-2.3-1.1c3.6-2.4 3.7-3.6 3.7-3.6l.7-1.2s-1.2-.5-2.1-2.3l5.6-1.4.4-.4s-1.3-2.2-2-5l5.8 1.3.8-.8s-.6-2.3-.9-4.7l6.2.4.5-.6s-1.8-3.6-1.8-5.6v-.2a9 9 0 0 0 1.9.2h5.8l.5-1s-2.7-1.9-3.3-3Zm-20.3 29.8s-.8 1.8-2.7 4l-.4.4-1-.5c-2-1.2-2.6-2.6-2.6-2.6s1.2-.5 4.8-3l2 1.7Zm1.7-6s-1 1.3-3.7 3.6a7.4 7.4 0 0 1-.8-.9c-1.7-2.1-3.8-4-3.5-7.2 0 0 1.2 2.3 4.1 2l2-.3c.8 2 2 2.8 2 2.8Zm3.9-5s-2.7 1-5.1 1.4l-.3-.9c-1-3-1-7.6-1-7.6s2.1 1.4 5 2.2l1.4 5Zm-.9-5.5c-.4-2.9.1-5.7.1-5.7s1.6 1.6 4.5 2c.2 2.7.5 4 .5 4s-2.2 0-5.1-.3Zm11.2-4.4s-1.9.8-5.4.3l-.1-1c-.1-3.3.2-6 .2-6 .5.2 2.4 1 4.2 1.5v.2c.2 2.9 1.1 5 1.1 5Zm-.3-6h-.1v-5.1s1.8.4 3.1.3c.4.8.2 1 1 2.4.7.9 1.4 1.7 2.2 2.4 0 0-4.4.4-6.2 0ZM531.5 334l-.3-1s-1.7 1.2-2.2 2.5a262.7 262.7 0 0 1-4.5-1.6l.4.8 3.6 1.5h.2l-1 2.7.5.6s.3-1.9 1-3.2l2.4.1-.4 1.6-.8 2.9.9.5h4l-.7-.7s-.1-.2-1.4-.3-2.1.2-2.1.2l.6-2.4.6-1.5-.5-1.4s-1.3.3-2.2.3c.5-.7 1.1-1.2 1.9-1.7Zm-21.8-2.6c2.5 0 4.5 1.7 4.5 1.7v-1.2s-2-2.6-4.2-2.6-4.7 2.3-4.7 2.3v2.4s2-2.6 4.4-2.6Zm25.7 37.4c-2.5 1.1-5.3 1.1-5.3 1.1s.7-1 1.5-3c4.9-1.3 5.8-4.6 5.8-4.6l-.3-1.2s-1.1 3-5 4.6a70 70 0 0 0 1.4-6.2l-1.3-.3s-2 2.4-3.8 3c1.2-2.4 1.4-5.2 1.4-5.2l-.6-1s-1.3 1.2-3.4 1.5h-1c1.2-1.5 3.3-6.1 3.3-6.1l-.4-.9s-1.6 4-3.3 6l-.6.8c-1.8-.5-4.2-2-4.2-2l.2.8s1.4 1 3.5 1.7l-2.6 2.5.1 1.9 5.8.8c-2.1 3-3.8 4-3.8 4l.8 1.3s2.6 0 7.2-1.2c-1.3 2.5-2.3 3.6-2.3 3.6s4.2.3 7-1.2 3.8-3 3.8-3l-.8-.9s-.6 2.1-3.1 3.2Zm-13.3-7.9 2.3-2.8h.1c3 .7 3.8-.2 3.8-.2s.5 1.6-1.3 4.5c-2-.1-5-1.5-5-1.5Zm2.6 5.9 2.6-3 .5-.7c3-.1 4.5-2.5 4.5-2.5s.4 2.4-1 5.4c-3.6 1.3-6.6.8-6.6.8Zm-3.6-18.9c2.8.2 6.4 1.5 6.4 1.5l-.5-1.5-5.5-1c1-2.2 3-3.2 3-3.2l-.9-.5s-1.1.2-2.7 2.9a6 6 0 0 0-.4.6h-.6a8.5 8.5 0 0 0-4.5 1.4l.3.8s2.2-1 4.4-1c-.8 2.1-1.4 4.6-1.4 4.6l.6 1.3 1.8-5.9Zm-5.7-11.8-.6-1.5s-3-1-5.2 0-4 3.7-4 3.7l1 1.8s1.6-3 3.6-3.6 5.2-.4 5.2-.4Zm5.7 4.5-2-1s-3.1.9-4.3 2-2 4-1.7 4.9 1.3 1.4 1.3 1.4.6-3.1 2.1-4.6 4.6-2.7 4.6-2.7Zm-7.4-1c1.3-1.2 3.6-1.7 3.6-1.7l-1.1-1s-3 .3-4.4 1.6-3.5 4.1-3.5 4.1l1.7 1.6s2.3-3.3 3.6-4.5Zm9.9-86v-.2c1.6-2 3-2 3.6-1.8h1.3a18 18 0 0 0-1.5 4.7c-.5 2.1-1.4 2.4-2.1 3.7s-2.1 3.6-2.2 5.5.5 2.9 1 3.1 1.4-.8 1.3-1.2c0-.7-.5 0-1 0s-.2-.7-.4-1.8 1.4-4.3 2-5.3 1.7-2.2 2-4c.2-1.5 1.3-4.8 1.3-4.8 0-.1-.9-.4-2.5-.5-1.3 0-3 1-3.7 2.2s-3.2 2.2-3.2 2.2 2.6 0 4-1.8Z"/><path fill="#6c401f" d="m533 272.4-4.8.1 1.4 3.6 3.4-3.7Zm-5.6-.2-1-.8c-.3-.4-.6-.5-.6-.5l-1.8 1-1 3.6.5.5 3.9-3.8Zm-.7 9.6-3.5-5.1-2 4.3 1 .3 2.4.3 2.1.2ZM541 368h-.1c-.9.6-4.5 2.9-9 2.9a13 13 0 0 1-6.7-1.9c-1.3-.8-2.2-2-3-3.4-1-2.2-1.4-4.9-1.8-7.5-.5-2.7-1-5.3-2.2-7.1-1.5-2.5-4.5-4.1-7.1-6.3s-5-5.1-5.6-10.1V333c0-3.3 1-6.2 2.1-8.7s2.2-4.7 2.2-6.7l-.1-1c-.4-1.4-1.7-2.7-2.8-3.6-1.2-1-2.3-1.5-2.4-1.5l-1.8-.6-.2.6 1.8.5.1-.3-.1.3.2.1 2.4 1.7c1 .8 2 2 2.2 3l.1.8c0 1.7-1 3.9-2.1 6.4a22.3 22.3 0 0 0-2.1 10.5c.5 5.2 3 8.3 5.7 10.5s5.6 3.9 7 6.2c1.5 2.3 1.9 6 2.6 9.5.3 1.8.7 3.5 1.5 5s1.7 2.9 3.1 3.7c2.1 1.3 4.5 2 7 2 5.4 0 9.5-3 9.5-3l-.3-.6Zm-4.1-9.5a5 5 0 0 1-2.4.7c-1 0-2.2-.4-3.4-1.5-1.4-1.5-1.9-2.8-2.2-4.5s-.7-3.7-1.8-6.3c-1.2-2.8-4-5-6.8-7-2.7-2.2-5.2-4.3-5.6-6.6l-.2-1.3c0-2 .9-3.9 1.7-6a21.2 21.2 0 0 0 1.7-9.3c-.4-3.8-3.3-6.7-6.1-8.6a27 27 0 0 0-5.5-2.8l-.2.6.5.1c1 .4 3.5 1.6 5.9 3.4s4.5 4.3 4.8 7.4v1.5c0 2.8-.8 5.2-1.6 7.4s-1.8 4.2-1.8 6.3c0 .5 0 1 .2 1.4.5 2.6 3.1 4.7 5.8 6.9 2.7 2.1 5.6 4.3 6.6 6.8 1.2 2.6 1.4 4.5 1.8 6.2s.8 3.3 2.4 4.8a5.2 5.2 0 0 0 6.5.9l-.3-.5Zm17.7-14.7s3.4.8 3.2 3.5-1.6 6.5-1.6 6.5l-4.6-4.2 2.6-2.3 1-1.3-.6-2.2Z"/><g fill="#ffb81c" stroke="#b5915f" stroke-miterlimit="4.67" stroke-width=".51"><path d="M496.8 311s-3.3 1.1-4-.3-.4-2.6-.5-3-2-.4-1.8-2.3 2.6-1.8 3.1-1.8.7-2.9 2.4-2.7 2.5 2 2.5 2l-1.7 8.1Z"/><path d="M500.5 311.9s-2.9 1.5-3.7 0 0-3.1-.3-3.4-2-1-1.7-2.6 2-1.1 2.7-1.4 1-2.8 2.8-2.4 2 1.9 2 1.9l-1.8 7.9Z"/><path d="M505.2 312.5s-.8 1.8-2.8 1.4c-2-.4-1.4-3.3-1.7-3.8-.3-.5-1.7-.9-1.5-2.7s2-1.6 2.8-1.8 1.4-3.2 2.7-2.7 2.6 2 2.3 2.8c0 0-2.8 1-3.2 2.8s1.4 4 1.4 4Z"/></g><path fill="#6c401f" d="M545.3 286.3c.9 0 1.3.3 1.5.7a2.9 2.9 0 0 1 .3 1.8v.2h.3-.3c-3 6.5-9.2 9.5-14.8 13.6-2.8 2-5.4 4.3-7.3 7.4s-3.2 7.1-3.2 12.4v.9c.3 9.7 4 15 8 17.8 4.1 2.7 8.5 3 10.2 3h.7l2.7-.3c1.6-.1 3.8-.3 5.8-.3 1.2 0 2.4 0 3.3.2 1 .2 1.7.4 1.9.7.2.3.3.6.3 1 0 .7-.5 1.6-1.2 2.3-.6.7-1.4 1.2-1.7 1.3l.3.6 1.9-1.5c.7-.7 1.3-1.7 1.3-2.7 0-.5-.2-1-.5-1.4-.4-.5-1.2-.7-2.2-1l-3.4-.1c-4 0-8.6.6-8.6.6v.3-.3H540a18 18 0 0 1-9.8-3c-4-2.6-7.5-7.6-7.8-17.3v-.8c0-5.2 1.2-9 3-12 2.9-4.6 7.2-7.4 11.5-10.2s8.4-6 10.7-11l.1-1c0-.5 0-1-.4-1.6s-1-.9-2-.9v.6Z"/><path fill="#faf6f5" d="M557.3 346s-2.1 3.8-2.6 3.8 1.8.6 2.3 1.5l-.5 1s-2.3-1.7-3.8-1.8l-.1-1.4s1.2-.4 2.2-1.3c.8-.7 1.6-2.8 1.7-3.3l.8 1.4Z"/><path fill="#ffb81c" d="m565.5 348.4-5.2 1.5-2.7-1.7s.2-2.2-1-3.1c-1.2-1-2-1.3-3-1.7s-4.8-.5-4.8-.5l-9.5-10.3 3.6.4 5.6-.7 5.2-.4 2.7.4 3 .9 1.5 1.3 1.6 1.4 1.6 2.6 1 3 .4 3.2v3.8Z"/><path fill="#b5915f" d="M565.7 348.1s-1.9.6-4.2.5c-2.4 0-4-.4-4-.4s.2.2-.3 1.8l-1 2.5.1 6.1 5 1 2.7-1 1.3-6.7.4-3.8Z"/><path fill="#ffb81c" d="m564.3 345.5.3 2.4 1 .3V346l-1.3-.5Zm-4.7-57.6-.6-4.2-1.6-2.8-2.1-2.8-2.2-2.5-1.3-1.1-.5-.8-5.5.2-2.9 3.4s7.5 5.3 10.3 11c2.5.8 4.3 2.3 5.4 3.4l.3-.5.7-3.3Z"/><path fill="#6c401f" d="M562 356s-1.5-2-2.7-3.1c-1.1-1.2-2.5-1.8-2.5-1.8l-.2.6h.2c.4.3 1.3.8 2.1 1.6a35 35 0 0 1 1.8 2l.9 1 .4-.4Z"/><path fill="#6c401f" d="M565.3 351.3s-.5 1.9-2.4 3.6-4.3 2.8-4.3 2.8l5.4 2 3.6-3.3-2.3-5Z"/><path fill="#5a6365" d="m566 355.8-.3.6-1 1-.8.8 1.4-5.5 1 1.6v.9l-.3.6Z"/><path fill="none" stroke="#6c401f" stroke-miterlimit="4.67" stroke-width=".44" d="M534.2 281.7s-7.4.6-12.5-.3-4-14-4.1-14.3-3.1-3.6-2.6-6.5 10-10.6 11.2-11c.9-.3 2.8.5 2.8.5s2.3-2.3 3-2.3 1.8 1.3 1.5 1.9-3.5 2.5-3.8 4 0 2.9-.9 4.3-2.7 3.3-3 4.5-.7 2.3.2 2.7 4 0 6.7-1.1 3.7-2.8 4-2.7-1.4 3.3-4.4 4.6-4.9 2.6-6.3 2.4c0 0-1.6 4 3.4 4.1s7.8-1 7.8-1l-3 10.2Z"/><path fill="#ffb81c" d="M565.5 345.8v2.4l-1.4-.2.3-2.9 1.2.7Zm-9-66.3-2.3-2.6-1.6.2 2.4 3.3 1.6-.9Z"/><path fill="#6c401f" d="M565.4 351.3s-1.4-1-3.3-1.8c-1.9-.9-4.5-1.3-4.5-1.3l-.1.6h.4a18 18 0 0 1 7.2 3l.3-.5Zm-.2-6h-2.7l-2.7.1c-1.6.5-2.6 1.3-2.6 1.3l.3.5c.8-.6 1.6-1 2.5-1.2l2.5-.2 2.7.1v-.6Zm-.7-5s-3.3 1.5-4.8 2.5a41 41 0 0 0-3.1 2.3l.3.5 1-.8a34.7 34.7 0 0 1 6.9-4l-.3-.5Zm-3.2-5.3c0 .1 0 1.3-.6 2.3l-1.2 1.4-3 3.4-1.8 1.8.4.5 2.8-3 2-2.2 1.3-1.6c.7-1.1.7-2.4.7-2.6s-.6 0-.6 0Zm-4.1-2.4v.1a8.3 8.3 0 0 1-.3 4.2c-.4 1.2-1.2 2.8-1.9 4.2l-.9 1.7-.3.7.5.3s2.3-4.2 3.2-6.7c.3-.9.5-1.9.5-2.9s-.2-1.7-.2-1.7l-.6.1Zm-4-.4v2.1c0 1.2 0 2.5-.4 3.4l-1.2 3.5-.7 1.9.5.2 2-5.4c.4-1 .5-2.4.5-3.6l-.1-2.2h-.6Zm-3.1 0-.1 2.2a24 24 0 0 1-.4 3.7l-1 4.9h.6l.3-1.6.7-3.1c.5-2 .5-6.2.5-6.2h-.6Zm-3.4.5.1 1v2l-.1 2.5c-.5 1.8-.8 4.8-.8 4.8h.6l.2-1.6.6-3 .2-2.6-.2-3.2h-.6Zm-2.6.3v.4c0 .7 0 2.4-.5 4.2l-1 3.7-.6 2h.6l1.5-5.5c.6-1.9.6-3.7.6-4.4v-.4h-.6Zm-3 0 .1.4v1c0 1.1-.1 2.7-.8 4-.6 1-1.7 2.1-2.6 2.9l-1.3.9-.4.2-.1.1.3.5s3.3-2 4.6-4.3c.8-1.4 1-3.1 1-4.3l-.1-1.4h-.6Zm-1.7-.5-.1.4c-.3.8-1 2.4-1.9 3.6-.6.8-1.6 1.6-2.4 2.1l-1.1.8-.5.2.3.6s2.8-1.6 4.2-3.3c1.3-1.7 2-4.2 2-4.2l-.5-.2Zm-2.9-1.5-.2.4-.7 1.2a6 6 0 0 1-.9 1.2L533 335l-1.2.7.2.5 1.3-.7 1.9-1.2c.5-.5 1-1.2 1.3-1.8l.6-1.2-.5-.3Zm-1.4-1.7-.4.5-1.8 1.9-1 .9-.7.4.1.6a4 4 0 0 0 1.3-.8c1.3-1.2 3-3.2 3-3.2l-.5-.4Zm-.7-1.2-.4.3-1.7 1.2c-.6.3-1.3.6-1.6.6v.6a3 3 0 0 0 1.3-.3c1.3-.7 2.8-2 2.8-2l-.4-.4Zm-.5-1.3-1.4.7-1.2.6-.8.3v.6a4 4 0 0 0 1-.3c1.2-.5 2.7-1.4 2.7-1.4l-.3-.5Zm-.6-2.7-1.1 1a3 3 0 0 1-1.7.6v.6a4 4 0 0 0 2.3-.9l1-.9-.5-.4Zm.2-4.2-1.1 1c-.6.6-1.3 1.2-1.5 1.9l-.2.2-.1.1v.6c.2 0 .4-.1.5-.3.2-.1.3-.3.3-.4l1.4-1.7.7-.6.4-.3-.4-.5Zm20.6-24.6h3l.1-.1v-.4h-.1v-.1h-.1v.6-.2.2-.2.2-.3l-.1.3v-.3.3-.3.2-.2.2-.2l-.1.2.1-.2-.1.2h-.1l.2-.2h-.3v.1l.3-.1h-.3v-.2l.2-.1.1.3v-.3.2-.3.2-.2.2-.2h-2.8v.6Zm0-1.8h.3c.4 0 .8-.2 1.2-.4l2-1.3.8-.5.6-.2v-.6c-.4 0-.8.2-1.2.4l-1.8 1.3c-.6.4-1.2.7-1.6.7h-.1l-.1.6Zm-.2-2.9c.5 0 1-.3 1.4-.6l2.3-1.4c.7-.4 1.5-.9 1.8-.9v-.6c-.4 0-.8.2-1.3.5l-2.3 1.4c-.7.4-1.5 1-2 1l.1.6Zm-1-2.7 2.9-2 3-2.3-.2-.6c-.9.5-2 1.5-3.2 2.3l-2.8 2 .2.6Zm-2-3 6.2-4.4-.3-.5-6.3 4.4.3.5Zm-2.8-3 3.6-2.5 2.9-1.9-.3-.5-3 1.9-3.5 2.5.3.5Zm-2-1.8 2.9-2.1 2.2-1.6 1.4-.9-.2-.5-1.5 1-5.2 3.6.3.5Z"/><path fill="#6c401f" d="m550.9 274.1.3.3c.8.7 2.9 2.5 4.7 4.8s3.5 5.2 3.5 8v.8c-.4 3.6-2.3 6.8-4.8 9.8-3.8 4.4-9.2 8.3-13.6 12.2-2.2 2-4.2 3.9-5.6 6s-2.4 4.3-2.4 6.7v.3c.1 2.2.8 4.6 2.2 6.5a8.6 8.6 0 0 0 7.5 3.8c3.4 0 7.2-1.2 10.8-1.1 3 0 5.9.7 8.5 3.5 2.4 2.7 3.1 7 3.1 11.1a47.6 47.6 0 0 1-1.5 11.5l.6.1s1.5-5.6 1.5-11.6c0-4.2-.7-8.6-3.3-11.5-2.7-3-5.8-3.8-9-3.7-3.6 0-7.4 1-10.7 1h-1.3c-2.6-.3-4.4-1.6-5.7-3.4s-2-4.1-2-6.2v-.3c0-3 1.4-5.7 3.7-8.4 3.5-4 8.8-7.7 13.4-11.8s8.5-8.8 9.2-14.5v-.8c0-3.5-2.2-6.8-4.4-9.4-1.3-1.5-2.8-2.9-4.4-4.1l-.3.5Z"/><path fill="#6c401f" d="m551 284.8-.5-.6-.3.4.5.5.2-.3Zm2 3-.4-.5h-.5l.7.8.1-.2Zm1 2.9-.2-.8v.1l-.1.6.4.1Zm.2 2.9v-.8l-.3-.3v1.1h.3Zm-.1 1.8v-.9l-.2-.2v1.2l.2-.1Zm-23.4 28.4.3-1.4c.2-.6-.6.3-.6.3v.9l.3.2Z"/><path fill="#faf6f5" d="m530.5 325.6-.3.2.1.8.2-.2v-.8Z"/><path fill="#6c401f" d="M530.6 329v-.8l-.3-.1v1.4l.3-.5Z"/><path fill="#faf6f5" d="M530.8 330.9v-.8h-.3v.8h.3Zm.5 2.7-.1-.7-.2.2.2.7.1-.2Zm.8 2.8-.3-1-.3.1.3 1h.3Zm25 9.2-.6-.6c-.2-.2-.2.5-.2.5l.5.2h.3Zm-.5 6.1.2-.7h-.3l-.1.8h.2Z"/><path fill="#ffb81c" d="m551.1 273.4.7.6-.9-.1c-.2 0 .2-.5.2-.5Z"/><path fill="#6c401f" d="m551.8 274-1.3.2c-.3 0 .4-.3.4-.3l.9.2Z"/><path fill="#b5915f" d="M563.3 358.3s.8-.1 1.1-.6-.2.8-.2.8l-.5.1-.4-.3Z"/><path fill="#edcfb7" d="m543 265.5.3-.3.4-.2h.8l-.5.5h-1Z"/><path fill="none" d="M628.4 326v-1 1Zm3.4-1.6a6 6 0 0 1-.6.2h.2l.4-.2Zm-33-51.4Zm89.7 107.3zM628 327.5l.4-.3-.3.3Zm-67.3-60.4c-2.4.2-3.6 1.3-5.2 1.3 2 0 3-1 5.2-1.3Zm17.5-20h-1 1Zm1.7 119.8h.6l-.5-.1-.1.1zm9.3-102.7.6-.6-.6.6Zm7 10.9-.1.7v-.6l.1-.1Zm-20.6 7.4Zm92-38Zm-87 36Zm2.9 87.1Zm28.5 46.8h-.1Zm-41-119.7V294.4v.3ZM647 411zm-83.6-43-.3-.2.3.2Zm21.4-85h.1l-.6.2.5-.1Zm22.5 93zm-12.4-78.5Zm-11.6-14.2Zm11.5 14.1zm32 86.5.2.2-.1-.2Zm50.6-57.6a4.2 4.2 0 0 0-1.8-1.2c.7.3 2 1.1 3 3.3h.1c-.4-.8-.9-1.6-1.3-2Zm-70.2-32.7.3.3-.3-.2Zm-2.7-23.2z"/><g fill="#6c401f"><path d="M714.9 305c.1-.8-2.2-1.4-4.8-3.8l-3.8-5.7c-8-21.6-22.1-41.2-38.7-51l-.2-.1c0-.4.4-1.2.8-1.7.6-.7 3-3.3 2.1-3.9-.9-.5-4 .5-5.9.3-2-.1-3.2.3-8.8-4.3 0 0-17.8-12.5-45.5-14-9.5-.4-12.5 2.2-13.5 5.2-5.1-.7-13.2.9-12.8 9.1-.1 4.8 2.3 5.8 6 6.4 9.3 1.2 19.5 9.2 15.5 18.9l-2.7-5.1a19.9 19.9 0 0 0-6-6c.7-1.7 0-3.2 0-3.2s-.4 1.1-3.3 1.2c-2 0-3.7-1-7.5-2.4-2.4-1-5-1-6.7-1v-.7s-.5.5-1.3.6h-1.3c-.3-4.6-3.2-7.7-3.2-7.7s-.2 1.5-1 3.4c-.8 1.6-2.9 3.8-3.4 4.3-.2-2.9-.9-5.5-.9-5.5-.5-3.4-2.1-2.6-2.1-2.6a24 24 0 0 1-2.2 12l-3 1.4c.8-.8 1.2-1.6 1-4.7-.2-4.1-2.5-4.6-2.5-4.6s.4 2.2-.2 6c-.5 3-2.5 5.5-3.3 6.4.2-.8.3-1.8.2-3.5-.1-4.5-1.9-4.4-2-4.4.2 1 0 1.8-1 4.5-1.5 4-2.3 5.4-4.6 8-4.7 5.3-7.1 4.8-5.3 7.9h-.3c-1.3.7-1.6 1.5-2.3 2.4-.3.3-.5.7-.5 1.2v.1l.2.5h-.4c-.3.2-5.5 3.1-6.5 8.6-.6 3.5 3.2 8 7 9.8 2.2 1 4.7 1.3 6.3-.6-1-.8-1.6-1-3.5-3.5-.7-1-1.3-2.4-.9-3.6 1.3-4.3 5.2-5.5 9.4-5.5 0 0 .3.1 1 .8h-.2l.7.7h.1l1.5 1.5c-.5 0 .3 0 0 0l2 2.4c1.3-.2 10.4-3.8 12.3-6.7.3-.5.4-.9.2-1.3l-.4-.4v-.4c.8 0 1.7 0 2.3.5.8 1 1 2.9 1 3.4h.9c-.2.6-.6 2-1.3 3.5-1.1 2.3-2.9 4.1-2.7 4.4l1 .8c.2.2.6.4 1.2.5l-3.8 5.9c-1.6 2.7-4.1 6.5-3.5 6.6l1.8.1h.6v1.5c-1.1 1.5-5.9 8.9-5.8 13.1.2 4.8 1 3.7 2.3 8 1.4 4.4 2.2 10.7 2.2 11.3 0 .3.4.1.7-.2.2 0 1.4-.5 2.9-1.4l2.4 4a17 17 0 0 0 1 9.2c1.6 3.5 5.9 7.9 7.5 10l-2.1-1.7c-.5-1-4.2-2.8-5.4-1.9-.4.4-.3.6-.2.6 0 0 1 3.5 2.2 4.7.7.8 3.2 2.1 5 3-1.9.1-5 .5-6.2 2.5a7 7 0 0 1-2-1.7c.8-1 1.4-1.9 1.2-2.6-.3-1.2-.6-1.9-1.6-2-.6-1.7-2.8-5.6-4.6-6.5-2.6-1 .4 2.4 0 3.2-.3.7-1 2.7-.6 3 .2.3 1.2 1.9 1 3-.3.4-.6.6-.6 1-.6.2-.8 1.2-1.5 1.5l-1.6.4a21 21 0 0 0-5.1-1.5c1-1.6-.4-4.7-1.7-5.3-.4-.2-1.2-.2-2.1 0v-.1c-.2-.4-.8-.8-.8-2.3 0-2.6 1.5-2.8 1.6-2.8s-1-.4-2.1-.3a4 4 0 0 0-1.2.2 3 3 0 0 0-.4.1h-.1l-.5.4c-4-1.6-7 1.2-8 4.7-2 0-4 1.8-4.2 4.1-2.5-.4-2 4-1.4 5.4-.2 1 .4 2 1.2 3v.3c0 1.4 1.7 4.1 3.2 3.6l.2.3a3.8 3.8 0 0 0 3 1.7h.2a5 5 0 0 0 2-.4c.7-.3 1.4-.8 2-1.4a9 9 0 0 0 3.5-1.4h.5l.3-.1.4-.1a3.5 3.5 0 0 0 .7-.3c.3 0 .4-.2.5-.3 1.4 1.3 2.9 2.3 4 2.3 1.5 0 4-2.7 5.6-4.6.4.7 1.2 2 2.4 2l.2.2c-2.3.4-3.3 2-3.3 2 .1 0 2 1.7 6.7 2.9l7.2 1.9v-.1a3.6 3.6 0 0 0-.7 3.4s2.2 1.6 8.6-.3c6.6-1.9 6-2.3 6.9-2.5l1.2-.2c0 .2 2.2 5 3.7 4.8 2.4-.3 2.4-7.8 2.3-11a826 826 0 0 0 8.4 9.4s1.6 1.9 2.5 1.6l3.5 6.7c1.6 3 3.2 6 4.6 5.3 1.4-.7 2-2.9 2-3.1l.2-1.1c1 1.2 2.2 2 3.2 3.4-2 1.2-4.6 2.8-6.9 3.6-.3.2-.8.4-2 .4h-2c-1.7-2-6.5 0-6.8 2.3-1.2 0-3 .2-4.5 1-1 .4-1.7 1-2 2a14.4 14.4 0 0 0-.1.5v.7c0 .7.1 1.3.3 1.9l.3.6c.2.6.5 1 .8 1.3.5.5 1 1 1.5 1.1a2.4 2.4 0 0 0 .4.2l-.3-.1h.2c-.1-.2-1.4-2.7.3-3.6 1.8-.9 2.8 0 3.9.1a4 4 0 0 0 2.9 1h.7a4 4 0 0 0-.1 1.6c-.2 0-.3.2-.5.3-.4.3-1 .7-1.5 1.3l-.2.2-.1.2-.3.5v.1l-.3.5-.1.5v.2l-.2.8c0 1 .2 1.8.5 2.4a5.7 5.7 0 0 0 1.8 2.4c.7.6 1.4 1 2 1.2h.2l.1.1.3.1h.2l.1.1h-.3.3s-2-2.8-.9-4.5c1.1-1.7 2-.7 2.5-.7.2 0 .3-.2.4-.5 1.2.4 2.5.4 3.8-.3 2.4-1.2 2.1-3.2 2-3.8l1.4-1c1.4-.8 3-2.3 4.3-3 .5 1 3.2 1.4 4 .2l.3-.5c.4.9 1.2 1.4 2.3 1.4 1.2 0 2.3-.5 2.6-1.5l2 .3c0 .4.8 1.5 1.4 1.4.2.7.8 2.4 2.7 3.7 0 0 2.8 1 4.2.1.6-.3.8-.2.8-.2v.2c0 .2.4.4.5.2.7.2 2.4-.5 3.2 1.4 1.5 3.7-2.5 3.7-2.5 3.7l1.2.4 1.7.2h.3l1.4-.3.2-.1a2.8 2.8 0 0 0 1.6-1.5 4.7 4.7 0 0 0 .5-1.2l.3-1.8c0-.8 0-1.5-.4-2.3l-.1-.3-.4-.5v-.2l-.3-.3-.4-.7-.7-.8c-.8-.6-1.3-.7-1.5-.7a1.1 1.1 0 0 0-.3 0c0-.4-.2-1-.8-1.1.6-4.3-4.2-4.3-6.5-3.5-.4-1-2.3-2.5-3.4-2.4-.2-.2-.8-.7-1.4-1.5-.7-.8-1.7-1.1-2.2-1-.2-.3-.7-1.1-1.7-2l-1.4-1.2c.2-1.3.2-3.3 0-4.4 1.2 1 2.9 2.5 3.5 2.2 1-.4.6-3.8.3-4.6V379l-.3-1.2 10.3 12.2s.9 1.2 3.9 1.7c2.2.3 3.4-1.3 3.8-2.1 2.6 3 7.6 5.3 11.2.6 3.8 4 12.2-1.6 13.4-2.4 6.3 2.7 14-4.2 13-5-4.9-4-42.1-32-53.4-40.5a29.2 29.2 0 0 0-5-18.8c1.5-1.2 2-3.1 2.3-5l1 .4c.8.9 3.5 5.4 5.8 6.3 2.2 1 3.4.6 5.4 2.2 2 1.6 9.3 12.5 9.7 13l2 2.7c.5.5 1.1.8 1.7.8 1.2 0 1.5-.5 1-.9-.4-.3-2.8-3-4.2-6.7-1.2-3.3-2.8-9.4-4.8-11.6l-.5-.6 2.5-.2c1.6-.1 8 5.8 8.5 7.5.5 1.7 0 2.4 2.6 8.2 2.7 5.8 3.9 7.1 3.9 7.1.7 1.7.3 4 1.3 4.3 1.1.2.2-4.9-.5-6.2-.7-1.3-.2-3.2-1.8-7.9-1.7-4.6-2.6-10.2-3.7-11.2l-1.2-1.2 1 .4c3.4 1.8 5.6 5.8 7.2 10.2l3.7 12c1.3 4.4 1.8 3.6 2.3 2.4.6-1.2 1.8-3.1-.7-9.4-2.1-5.3-2.5-12.5-2.6-14.8.7 1.4 1.9 2.5 3.4 3l.2.6c1.7 3.8.2 6 2.5 16.1 2.4 10.1 3.5 10.2 4.7 13.7 1.2 3.6 0 12.7 2.4 14.6.7.5.5-15.4.2-19.9l-1.3-15.8c-1-10.2-1.4-12.7-1.5-13 .7.3 1.7 1.6 3.1 6 2 7.2 2 19.2 3.3 22.2 1.3 3 1.3 2 2.6 5.8 1.4 3.8-1 20 1.6 20 4.7-3.2.2-48.8.6-55.1 1.1 1.2 3.5 4.3 4 6.1.9 5.4.7 21.5 1.5 27.6.8 6.2 1.9 6.9 1.9 12s-1.8 10.5-1.8 12 .2 4.1 2 4c1.6 0 .6-3.5 1.2-5.3.5-1.9 1.1-2.3 1.6-3.4 1-3 1.1-22 2.8-31.4s3.7-8.3 3.6-19.2A48.8 48.8 0 0 0 710 307c1.9-.3 4.6 0 4.8-2.1Z"/><path d="M602.3 404.5ZM568 238.2z"/></g><path fill="#6c401f" d="m616.8 381.2-1.2-2.2-.3.1a21.1 21.1 0 0 0 4.6 6.2l-.8-1.2-2.3-2.9Zm-2.3-4.6h-.3l1.1 2.5.3-.1-1.1-2.4Zm6.9 10.2-1.3-1.5v.1l1.3 1.4Z"/><path fill="#6c401f" d="M620 385.3v.1a44 44 0 0 1 0-.1ZM608.6 371l1.5 1.5-1.9-2 .2.4.2.1ZM596 355.2l.6.8 1.3 1.7 8 10.3h.1c-4.3-5.3-8.9-11.4-10-12.8Z"/><path fill="#6c401f" d="m606.1 368 2.5 2.9-.3-.4-2.2-2.5Zm5.4 5.8Z"/><path fill="#6c401f" d="m611.5 373.8.4.3-.4-.3Zm-5.4-5.8c-3-3.7-6.1-7.8-8-10.4l-2-2.4v-.1c1.1 1.5 5.7 7.6 10 12.9Z"/><path fill="#6c401f" d="M606.2 368a89 89 0 0 0 2.1 2.5l-.2-.3a163 163 0 0 1-2-2.2ZM606 319c.5-1 .8-2.6 1-4l-.2.7-1.1 3.6.3-.3Zm-1.6-22.2v1.3c.6 1.6 1.4 4.1 1.8 7l.1.4c.5.7.3.5-.1-.2.1 1.2.2 2.4 0 3.7l1 .8-.1-.8-.2-.2v-1.2l.2.4c0-1.5-.2-3-.4-3.9-.4-2-1.6-5.7-2.3-7.3Z"/><path fill="#6c401f" d="m605 318.7.7.7 1-3.5.3-.8v-.9c.2-1.4.2-3.2.1-4.3l-.8-.9v.4c-.4 6-.3 8.4-1.2 9.3Zm4.5-23.9c.2.8 1.1 3.6 2 5.7 1.1 2.4 2 8.6.3 10.3-1.3 1.4-3.8-1.6-4.7-2.7v.8c.6.6 4 4.1 5.6 2.3l.4-.7c.8-1.9 0-5.8-.5-8.4l-1-1.9-.9-5.3-.3-1.2a3 3 0 0 1-.9 1Z"/><path fill="#6c401f" d="m612.6 302.1-.5-1.9-1.4-5.3.8 5.4 1.1 1.8Zm-5.8 5.6zm0 1.1.3.3v-1l-.2-.4v1.1Z"/><path fill="#b5915f" d="M566.7 307c-.8-.3-1.6.6-2 1.3-.8 1.4-.7 3.5-.7 5 .3 3.6 2.4 10.4 3.9 12.8.3 0 .1-.6.2-1.8l-.6-6c-.2-2.6-.4-4.3-.7-4.5-.3-.1-1.2 1.3-1.2 1.3s0-3.4.6-4.7c.5-1.4 1-3.2.5-3.5Zm6.4-22c-.3-.6-1-.6-1.4 0-.2.5-2 2.7-3.8 5.3-1.8 2.7-1.8 6-2.3 6.1.6 0 1.8.2 2.5.1 1 0 1.6-.4 1.6-.4.7-2.5 3.7-9.7 3.4-11.2Zm-6 15c-.8 1.8-1.6 4.2-2.3 6.6 1.5-2 4-4.4 4-6.7-.5 0-1.2.1-1.6 0Zm5.5 49.2c-.8.6 2.4 2.6 2.4 2.6 1.7.8 3.3 1.4 4.2 2.2.6.8 1.1 2 1.9 2.9a49 49 0 0 1-1.7-5l-2-1.7s-3.3-2.3-4.8-1Zm10.7-21.9c.6-2 .5-6 .7-8.2.3.7 6.2 8.6 8.3 9h.2c-.5-.1.3-2.2-.5-4.5l-2-7v-.6c-.4-1.2-1.8-5.8-2.4-5.8-.3 0-.8 1-1.4 2-.6 1-1 2.6-1 2.6s0-3.4.7-4.8c.7-1.3 1.7-2 2.2-3.3.3-.7.1-2.6 0-3.7-3 1.9-3.9 1.6-4.2-1-.5.3-1.3.5-2 .6.3 1.2.3 5.4.4 8 .1 6.4 1.5 9 1.5 9 0 2.1-2.4 8.4-3.2 8.5-.7 0-2.1-4-2.6-6.3l-.6-4.2-.8-1.7s-1.1.6-1.5 1.8l-.8 4.2s-.8-2.2 0-4.6c.5-2 1.2-2.6 1.8-3.8.3-.6-.1-3.8-.4-4.6-.2-.7-.7.2-2 1.5s-2.2 3.5-2.2 3.5 1.2-3.7 2-5.3c2-3.2 4-2.8 3.2-6.7-1.9 1.4-3.2 2.9-4.4 1l-1.3.7c-.1.3-1.7-.1-2 6.4-.3 5 .6 5.9 1 7.2 0 1 .4 1.9.9 2.9l1.8 4c1 1.6 3.8 4.7 5.6 6.3 1 .8 1.7 1.5 2.5 1.5 1.6-.8 2-3 2.6-4.6Zm-9.7-64.3h.3-.2c0-.1 0 0 0 0Zm6.4 5.4c-1 .6-2-.5-2.4-1.1-.2-.3-.2-.3 0 .6.1 1.2 1.6 2 2.8 1.5 1.5-.4 2.3-4 1.7-6.1-.4-2.6-3-4.7-4.9-5.2l2.5 2c1.2 1.2 1.6 2.3 1.7 4.3 0 2-.2 3.5-1.4 4Zm-13-9.5s6.5-1.9 7-.3c.5 1.2 0 3-.2 3.9 1.2-2 4.2-4.5.3-5.5-1.9-.4-4.2 0-4.7.2-1.5 1.3-2.4 1.7-2.4 1.7Zm21.2 4.2-1-.8 1 .8Zm.8 1.2c.4-1.4-1.2-4.1-2.4-5.9-.2-.5-.9-.6-1.2-1-1-.8-1.9-2.4-4.2-3.3l-5.4-1.8-1.8-.3c-.7 1.1-1.5 2-2.2 2.8.3.4.9.4 4.1 1.4l1.7.5c.3.2 3.4 0 3.7 0 .2.2-2.4.5-2.2.6 4.6 1.9 7.2 3.6 9.5 6.1 0 0 .4.5.4 1Zm27.8.3-5.3-1.4h-.2.1c1.6.5 3.2 1.2 4.6 2.1 2.4 1.5 3.1 2.7 3.1 2.7s-.7-2-2.3-3.4Zm-4.7-20.8s-2-2.8-4.2-3.7a40 40 0 0 0-10.1-.3h.1c.1-.2 13 2.1 14.2 4Zm11.4 30.1a48.6 48.6 0 0 0-4.4-25.8c-1.6-1.5-4.3-2.3-3.2-.7 1 1.6 5.7 16.9 4.8 24.4-.9 7.1-6.6 12.3-9.6 13-.2.4-.1 1.2-.2 1.8h.4c5.3-.8 11.5-7.2 12.2-12.7Zm-8.2-25.3.4.6c.2-4.3-6.9-4.5-8.8-3.8s2.1.2 5.1 1.2c1.8.7 2.8 1.5 3.3 2Zm-2-15.3c3.2-.2 4.5-.4 6.9.4 2.5.8 4.9 2.1 6.2 3.2-2.5-2.8-6-5.4-9-7.7 0 0-.6-1.1 3.3-.6 6.7 1.1 11.7 5 11.6 11.4 2.4.3 1.8-3 .7-5.1-1-2-4-5-4-5l.8.7-.7-.7c-4.6-4-12.8-5.9-19.4-6-6.5 0-10 .5-9.2 4 1 5.2 7 5.7 12.8 5.4Zm-26.7 3.6a65 65 0 0 1 8.4-.2c3.2.2 6.2 1 6.8 1.2 0 0-.5-1.4-3-2-2.6-.5-12.1 1-12.2 1Zm7 90-1.1 1.2c.3-.1.6-.6 1-1.2Zm-1.1 1.2Zm-9.8-80.8c.5-.2.5-.4.5-.4v.9c1.1.3 4 1 5.9 2a18 18 0 0 0 5.7 1.6c.8 0 1.7-1.5 1.9-2.2a5 5 0 0 0 0-3.1c.2.5-.5 2.1-1 2.4-.6.2-1.6.7-3.9.2-2.2-.5-4.5-2-7-2.7-3.2-1-5.5-1.4-8.2-1.3l-.1 1c.9.2 2.7.7 4 1.3 1.7.7 1.8.5 2.2.3Zm7.5-12.8c2-.7 5.8-.6 5.8-.6.3-.3-.8-1.8-2.2-2.1-1.4-.3-4-.3-4-.3s1.5-1.1 4.2-.8c1.6.1 2.4.5 2.8.8-.6-1.4-.6-3.6-.3-4.9-6.9-.4-12.6 3.6-10 10.3.2-.2 1.7-1.6 3.7-2.4Zm27.5 23.2c0-.2-.6-2.1-2.8-3.3-2.2-1.1-5 0-5.4.1-.2 0 .7 0 4.1 1 3.4 1.1 4.2 2.3 4.1 2.2Zm-.4 72.7c-1-2.4 1-1.2 2.3-1.4 0 0 .3-.2.7-.2a39.4 39.4 0 0 1-2.9-2.8c-.5.4-4.2-2.5-4.6-1.8-.5.6 3.3 7.2 3.8 9.3.4 1 1.7 3.5 1.2 3.7-1.8.1-6.5-7-8.1-9.6-1-1.6-3.3-5-3.6-4.9a6 6 0 0 0-1.4-.5 19 19 0 0 1 3.2 6.3c0 .1 6.3 9 6 9.6-.2.4-2-.8-3.6-2.4 0 1.2-1 .2-2-.6-3.4-2.9-4.4-3.5-2 1 1 1.8 2.3 4 2.6 5.1 1.7 2.3 2.8 4 2.6 4.2-.8.4-9.3-6.5-11.3-10.2-2.4-3.4-4.8-6.3-5.4-8l-.7 1.2 1 1.9c2.6 4.8 6.2 8.6 9 13 2.2 2.4 7.5 5 9.7 5 1 0 1-3 1-4.2-.2-2.8-.7-5.9-.7-5.9s4.3 4.6 7 4.2c1.8-.6.8-5.9.5-7.3-1.2.5-4-3.3-4.3-4.7Zm-13.6 19.3c-.7 1.9-3.1-2.1-4.5-5.6l-2.6-4.7-1.1-2c.4 1.6 1 7 .4 7.8-.6.5-1.8-1.1-2.6-2-1.4-1.5-3.3-4-6.3-7a23.2 23.2 0 0 1-4.4-5h-.1s1.3 3.3 4 6.7l5.9 7.1c3.4 3.9 3.4 4.8 6.3 6.6 2 1.2 4.1 2 5.3 1.4 2.2-1.2.8-7.2.3-9 .2 1.4-.3 5-.6 5.7Zm22.8-27.2a69.1 69.1 0 0 1-3.6-6.7c.5 2 1.7 7.7 2 10.6.8 5.5.2 6.3-3.8 3.2l.1 1.4c.2 0 .3.2.6.4 1.2.8 3.5 2.5 4.2 2 .8-.3.9-5.2.8-7 0-1.5 0-2.6-.3-3.8ZM586 356.2c-.2-.8-.6-1.4-1.2-1.2-1.7.4-1.4 2.5-1.4 2.5s-.4-2.7-.1-4.2c.1-1.4 1.4-2.6 1.5-4a114 114 0 0 1-5.2-5.2c0 .3-.3 1.4.2 3.7a48.3 48.3 0 0 0 5.4 16.3c.7-.2 1.6-.4 1.7-.7.1-.5-.7-2.8-.9-4.8v-2.4Zm10.7-6Zm54-112 .2.4c-.9-2.6-3.4-4.4-4.2-4-.8.1 2.7 2.9 3.2 6.7.4 3.2.4 5.5.4 6.3.8.2 1.4.2 1.5 0 .3-.6.5-2 .4-4.1-.2-2.1-1.4-5.2-1.4-5.2ZM581 357.6l-1.9-.8c-2.9.4-5.7 1.2-5.5 4.6 1.7.1 3.7.4 5 .7 1.5 0 5.5 2 5.9 2.2h.3l-1.7-3.4c-1.1-2.4-2.1-3.2-2.1-3.3Zm53-46.7c1.2 1.6 1.3 3 1.3 4.6s-1.3 4.5-3.4 5.7c-1.5 1-3.4.2-4.2-.2l.9 4.2c.8 0 2.2-.3 3.4-.7 2.5-.8 3.6-3.4 3.8-5.9 0-1.9.3-3.4-.2-5-.8-2.3-2.7-4-1.7-2.7Zm53.2-25 .5 1.2-.5-1.2Zm-58-58.6c-.4 0 7.6 4.8 9.5 7.9 1.5 2.6 1.8 6 2.3 7.4.6 0 1.1 0 1.4-.2 2.5-1.5-1.7-6.2-2.6-8-3.6-4.2-10-7.1-10.5-7.1ZM564.6 257c.6 0 3-2 3-2l-1.3 1 1.3-1c1.5-1.4 6-4.3 6.5-10 .5-5.6-.7-8.9-.7-8.9 0 .2.3 2.1-1.2 4.4-1 1.4-2 2.7-3.1 3.8 0 2.1-.1 4.3-1 5.7a41.1 41.1 0 0 1-12.3 7.9l.3 1.5c.4.1 1.8.2 2.2 0 0 0 1.9-.5 3.3-1.6s2-2.7 2-2.7c-.3.9.3 2 1 2Zm8.3-10.8c.8-1.1 1.1-4.2 1.1-4.2s0 3.4-1 5.1c-1 1.8-4 2.5-4 2.5s3-2.3 3.9-3.4Zm-17.5 2.8a8 8 0 0 0-.4-2.5c-.3-1-.7-1.8-.9-2 1.6 3-.5 7-1.1 8.6-.7 1.4-2.2 3.2-4.8 6s-2.6 3-2.7 4c0 .7.3 1.6.7 2.1l1.5.3.3-.3c-1 1 .5-.7.8-1.1 1.2-2.7 2.2-2.3 3.5-4 2.3-3 1.8-5.1 1.8-5.1s1.3-4 1.3-6Zm27.3 3c1.8.5 4.1 1.3 5 1.7 1.3.6 3.1 1.8 3.7 2.6 0 0 1.5.9 1.6 1.3.3-1.1-.3-2.4-.9-3.3-.9-1.2-1-1.3-1.4-1.4-1-.3-2.5-1.6-3.6-2.4-1.3-.8-4.9-2-4.9-2-1.5.2-3.9-2-5.8-1.3-.2 1-.6 2-1.1 3 1.8 1 4 .7 6.6 1.6l.8.2Zm10.3 5.6v.1ZM594 312c-.6-.6-1.5-1.3-2-2-.7-.8-1.5-2-1.7-1.2-.4 2.5.4 2.8 2.9 3.5l1.4.3-.6-.6Zm2.8-41.3-.5-1c-.4-.7-1-3.6-1 0s-1 8.5-1.8 8.6-1.5-11.1-2-11.2c-.4 0-1 .6-1.7 2.6-.8 2-.3 3.5-.3 3.5-1.4-2.8.3-5.3 1-7.3.3-.4 0-1.2-.8-2.2l-.6.6-.1.2c0 1-1.3 1-2.3 1 .3 1 .7 3.6.2 7-.8 4.3-3.3 8.8-3.9 8.8s-.4-4.9-.7-7.5l-.1-.8c0-.4-1 3.3-1 3l.8-5-.2-1.6c-.3.1-1.8.9-2 1.5s-.2 1.7-1.3 3.5-4.9 4.9-5 4.8c-.2 0 3.2-3.7 4-5.8.5-1.3 1-2 0-2.3h-.7c-.7 1.4-1.8 2.9-3.3 3.4-.6 4.8-4.1 8.1-4 8.6 1.8 2 5 .3 7-1.1 1.9-1.5 2.7-5.4 2.8-6-.2 1.9 1.6 7.2 3.7 7.5h.8c.2 1.3-1.7 9.1-2.3 11.4v.2-.3c0-1 .1-4.8-.6-6-.8-1.4-1.2.2-1.9 2-.7 1.7-2.2 3-2.2 3s1.1-2.2 1.9-4.5c.7-2.3.4-2.3.2-2.4-.2 0-.6-.1-1.4.8s-1.6 1.2-1.6 1.2 1-.8 1.3-2c.3-1 1.2-2.7 1.8-3.4.6-.6 1-1.4 1-1.8-.3-2.5-.9-1.3-3.2.9-1.9 1.7-2.2 1.8-2.5 2.5l-1.7 5c-1.2 4.1-2.4 4.8-1.7 8.6.3 1 1.1 2.2 2.1 2.2.5 0 2.7-.4 4.4-2.2 1.7-1.8 4-3.6 4-3.6-.2.7-.2 4.1.5 5.3 2.1 5.4 7.8-3.4 9.2-4.8.6-.6 1.3-2 1.3-2 .4-1.4 1-4.2 1.5-7.7.3-2.6.2-3.8 0-4.3l-1.2-.2c.6 0 1.2-.4 1.5-1 1-1.3 1.4-2.7 1.8-4.5l.8-5.3Zm-5.8 21.7c-2 4.7-5.6 7.1-6.9 8 .5-.9 2-3.5 3.1-7.5 1-3 1-5.2 1-6.2a55.9 55.9 0 0 1-4 2.2s3-2.7 4-5c1-2.4.3-4 .3-4s-.4 1.4-1.7 2.3c-.8.6-1.7 1-2.6 1 3-1.2 3.5-7.3 3.5-8 0 0 1 3.7 3 5.4.6.5 1.3.8 2 .8 0 0 .6 5.9-1.7 11Zm-.3 23.6c-.2 0-.3.4-.3.8.1.3.4.6 1 .7l2.8.5c-1-.8-2.2-2.3-3.5-2Zm-25.2-66.8c.6-1.3 3.5-10.8.4-13.4 0 .2.8 2.1-.3 7.3-1.2 5.5-2.1 6.2-6.3 8.5-1.5.8-3.3 2.3-5.2 5.3-.4.6 1.2.3 1.5 1 .3-.1 7.6-4.1 9.9-8.7Zm13 117.1-1.2-.8a7 7 0 0 1-4.3.5c-2.7-.4-3.1-1.9-3.4-1.6 2.6 3.5 6 3 10.2 2.6l.3-.3-.4-.1-1.1-.3Zm-3.3 2.8c-1.4-.6-3.6-2.3-4.5-3-.8-.1-2.2-.3-4-.2h-.4c-2.3.4-3.3 2-3.3 2 3.2 1 10.5 2 13.1 1.9 0-.2-.3-.5-1-.7ZM566 237l-.1-1.2v1.2Z"/><g fill="#faf6f5"><path d="M555.4 262.6c.9-1 1.3-2.3 1.3-3.6s-1-2.4-1.9-3l-.6.7c1.5 4.4-.2 5.3-4.4 6.3l-.4.5c2.2 1.1 4.5.8 6-1ZM541 284.3zm27.6-13.6c-.1-.8-.6-1.5-1.3-2l-.6-.4a7.2 7.2 0 0 0-1.2-.6h-.1a10.8 10.8 0 0 0-4.7-.6c-2.4.3-3.3 1.3-5.4 1.3l-1-.1c-1.4-.4-3.1-1.5-5.3-2.3a17.9 17.9 0 0 0-3-.8l-.7-.1h-1.7l-.4.2h-.1l-.1.2-1.4 1.4a6 6 0 0 0-.5.8l-.1.2a1 1 0 0 0-.2.4c0 .2 0 .2.2.3h1.7l.2-.1c.3-.1.6 0 .7.3s-.1.6-.4.7c0 0-.7.2-1.5.2h-.3a9.3 9.3 0 0 0-5.9 7.6c-.5 5.5 5.4 7 5.5 7 0 0-1.7-1-1.6-4.9 0-5.8 9.6-10.3 10.6-10.8.7.4 1.4.6 2 .6 2.1 0 1.6.4 3.5.4s3.6-1 6.3-1c2.2-.1 4.8.5 6 2.5 0 .2 0 .2.2.2h.3l.3-.2v-.4Z"/></g><path fill="#6c401f" d="m552.3 275 .7.6h.1l-.6-.7h-.2Z"/><path fill="#6c401f" d="M560.7 272.3s-2.4.6-4.2 1.4c-1.5.7-3.3 1-4 1.2l.6.7c.6-.1 2.6-.5 3.9-1.1a40 40 0 0 0 3.7-2.2Z"/><g fill="#ffb81c"><path d="m572.3 366.5-.8-.5.8.5Zm-.7-3.2a3 3 0 0 1-1.3 0c-.4 1-2.2 2-3.7 2.2l.2.3c1.7-.2 3.2 0 4 .2-.4-.2-.2 0 0 0l-.2-.1s-1-1-1-1.6c0 0 0-.1 0 0 .4-.3.7 1.2 3.5 1.6 1.6.2 2.7 0 3.4-.2a24 24 0 0 1-4.6-2.6l-.3.1Zm-.6-1.8 1.4-2c-2.2-1.2-1.3-2.6-3.3-.5l-.6 1.2c.7.6 1.3 1.4 1.7 2.1l.1.6h1.3c-.4-.5-1-1-.6-1.4Zm-5.5-14.8c-.8-.4-.2.2 0 .7.3.8.8 1.7.6 2.3a7.6 7.6 0 0 0-.7 2.6s1 1.5 1.2 2.8c1-1 2.5-2 3-2.2h.3c-.8-1.8-2.8-5.4-4.4-6.1Z"/><path d="M566.6 355.7a3 3 0 0 0-.7.8c.8.1 1.7.5 2 1.2.2.5.5.9.5 1.4l.4-.4c1-.9 2.9-2.6 2.7-3.8-.7-3.3-3.1-.8-5 .8Zm3.2 7.5c.1-.1.1-.2 0-.4-.2-1-1-1.9-2-2.5-.6.6-1.9 1-2.7 1.5l-1.1 1.4c.3.7 1 1.8 2.1 1.9 1.4 0 3.4-1 3.7-1.9Z"/><path d="M562.7 359.9c.8.3 1.7.7 2.2 1.5l2-1c.4-.3.9-.5 1-1 .1-.4 0-.6-.2-1-.3-.8-.9-1.3-1.7-1.5h-.5c-.4.5-.6 1.2-1.3 1.5-.4.3-1.6.2-1.3.6.1.2 0 .6-.2.9Zm2 1.8c-.6-.8-1.5-1.1-2.4-1.5-.6.5-1.3.8-2 1 .7 2 .1 4.3-.8 6 1.7-1.3 3.7-3.6 5.1-5.5Z"/><path d="M562 358.8a22 22 0 0 0-4.2-1.3c.9 1 1.7 2.2 2.3 3.3.7-.2 1.3-.5 2-1 .5-.3.7-.7 0-1Zm-23.5.6c0-.8-.6-1.8-.7-3.1.1-.3 0-.3-.3-.3-1.6.2-1.3 3.3-.9 4.5.4-.6 1.4-.8 2-1.1Zm21.3 2c-.6-1.5-1.7-3-2.9-4-.6.7-1.4 1.2-2 2-1 1.2-2 2-3.6 1.8a11 11 0 0 0 3 4.3c1.1 1 3.2 3 4.4 2 1.1-1.3 2-4.2 1.1-6.1Zm-21.1-.5-.2-1c-.7.2-1.4.6-1.7 1-.2 1 .4 1.8 1 2.8a5 5 0 0 1 1.8-1.2 4.2 4.2 0 0 1-.9-1.6Zm3-9a4 4 0 0 0-3.4 3.8c0 1 .3 2.2.5 3a8 8 0 0 1 3.3-2.2c-.4-1.3-.5-3.3-.3-4.5Zm-.4 13.8c-.4-.5-.8-1.1-1-1.8-.2-.3 0-.8-.3-1-1 .4-1.8.7-2 1.5 0 1.2 1.4 3.1 2.4 3.1.7 0 1-.7 1.4-1.3l-.5-.5Zm-2.3-5.4c.1.8.6 1.6 1.2 2.1.4-1.5 2.1-2.2 3.3-2.8a5 5 0 0 1-1.2-2.7l-2 1c-1 .6-1.6 1.3-1.3 2.4Zm10.6-13.2c-3.6-1.3-6.3 1.4-7.3 4.6-.2 1.2-.2 2.8 0 4.1.3-.5.8-1.2 1.3-1.6a8 8 0 0 1 4.1-2.2c0-1.8.6-3.7 1.9-4.9Z"/><path d="M545.3 363c-.5-.6-1-1.2-1.2-2-.1-.5.4-.8-.2-1-1.7.7-3.1 1.2-3.3 2.7 0 1.2.6 2.6 1.6 3.2l1.8-.9 2.2-1.4-1-.7Zm2.7-8.2-.2-2.4c-1.7.2-5.1 2.2-5.1 4.3.1 1.2.8 2.3 1.6 3 .3.3.7-.4 1-.5a6 6 0 0 1 2-1.3c-.6-1.3 0-2.3.7-3.1Z"/><path d="M549.5 360.6a7 7 0 0 1-2-2.3l-1.4.7c-.6.6-1.9 1.2-1.5 2.2.5 1.1 1.5 2.3 2.8 2.2 1.3-.2 2.5-1.3 3.2-2.3l-1-.5Z"/><path d="M552.6 360.7c.7-.3 1.2-.8 2-1.6.7-.9 1.6-1.4 2.3-2.3 1-1.5-.3-4.3-1.4-4.7-.6-.3-1.4-.2-2.1 0-.7 1.2-4 3.1-5.3 3.4v-.1c-1 1-.7 2.4.3 3.5 1 1.4 2.6 2.2 4.2 1.8ZM620 395c1.1-.8 2.2-1.7 3.4-2.3l-.1-3.4a39.8 39.8 0 0 1-6 3.3c.3.5.6 1.4.8 2.1.3.1 1 .4 2 .3Zm11.5-1.6c.4.4 1.3.6 1.7.7l2.2-2.6-1.6-1.8-1.3-1c0 .2 0 .5-.3.7-.3 0-.8-.2-1.4-.7v3.7l.7 1Zm-16.6 3c1.2-.1 2-.9 2.7-1.5.2-.4-.5-1.6-.5-1.9-.2-.2-.1-.4-.4-.2a4 4 0 0 1-2.3.5l-1.9-.1c0 1.4.3 3.6 2.4 3.3Z"/><path d="M611.5 399.5c1-1.3 2-1.3 3-1.3l2.4-1c.5-.5 1.8-.8 2-1.2l.5-.4c-.6 0-1.1-.3-1.4-.4-.9.7-1.8 1.6-3 1.8-2.7.3-2.9-2.2-3-3.7 0-.7-1.4-.9-2.2-.8-1.7.2-3.6 1.6-3.8 2.8v.1c.4.5.8 1.5 1 2 .3.5.6 2.8 0 3.4.9.6 1.9.8 3.2.7.2-.6.8-1.4 1.3-2ZM634 395c.3.5.7 1 1.2 1.3a2 2 0 0 0 1.5.4c.5-.8 1.5-2.2 2.2-2.7-.6-.5-2.1-2.6-3.1-2.3l-2.2 2.7.4.6Z"/><path d="m619.3 397-.3-.4-1.9.9c-.4.3-1.8.8-2.3 1 1 1.4 3 3.6 5 2.6.8-.6 1.1-1.7 1.2-2.1a29.1 29.1 0 0 1-1.7-2Zm1.7-2c-.6.4-1.3.8-1.7 1.3.6.9 1.3 1.6 2 2.4 1.6-.1 4.2-2 5-3.2-1.1-.2-2.3-.6-2.7-1.5l-.1-.7c-1 .5-1.8 1-2.5 1.7Zm16 2c.6.8 1.8 2.2 2.7 2.4.6.3 1.9-1.4 2.7-2.8-.3-.8-2.1-2.4-3.1-2.3-.7.5-1.4 1.5-2.2 2.7Z"/><path d="M649 400.2c-.2 0-.3-.2-.3-.3.8-3.9-3.3-4-5.8-3.2-.2 0-.2.2-.3.4-.5.9-1.8 2.9-2.9 2.8-.5-.1-1-.5-1.7-1l-1.3-1.7c-.5 0-1 0-1.8-.4a6.8 6.8 0 0 1-1.7-2.2c-.5 0-1.5-.3-2-.8l-.6-.7c-.1.6-.3 1-.7 1.5-.8.7-2 1-3.2.9a9.2 9.2 0 0 1-5.3 3.6c-.1 1-1.4 3.2-3 2.7-2-.5-3.1-2-4.1-3.2-.5 0-1.6 0-2.4 1.1-.8 1.1-1.6 1.9-1.6 3.3 0 .4.2.1.4.1 1-.1 3.5 3.6 3.3 5.2 1 .3 2.2.4 3.5-.3 2.6-1.4 1.7-3.2 1.7-3.7.6-.3 2.8-1.7 3.6-2.4 1-.7 1.7-1.3 2.5-1.7-.1-.4.1-.8.1-.9.2-.2.5 0 .4.2-.4 1 .5 1.5 1.7 1.6 1.2.1 2.1-1 2-2 0-.3.5-.3.5 0 0 1.2.7 2.2 2 2.1 1.7.2 2.6-1.2 2.4-2.3 0-.3.5-.4.5 0v.9l2 .3c.4.2 0 .5.7 1.2l.3.2c.1-.2.4-.2.5 0 0 0 .3 2 2.5 3.7.3.1 2.6.8 3.8.2.6-.4 1-.4 1.2-.3.3-.8 2.8-4 3.7-4.1.2-.2-.1-.8-.7-.8Z"/><path d="m623.8 392.9.3 1c.7 1.4 4.1 1.5 5.4.5.7-.6.8-1.5.9-2.4 0-1.7.5-3.5-.9-4.5l-2.3-3c.7 2.7.6 6.2.6 6.3 0 0 .3 1.7-.1 2-1.3-.5-2.3-2-3.8-3.4-.2-.3-.2 0-.2.2l.1 3.3Zm-69-130.6c1.8-1.8 1.2-3.9-.6-5.6-.3.5-.3 2-1.6 3.5s-2.6 2.6-2.8 2.8c1.7.7 3.7.7 5-.7Zm-11.6 3Zm-5.2 20c1.7 1.2 5.3 2.4 6.9 1.3l-.2-.2c-2-1-4-5-3.2-7 1.2-4.4 6-6.6 10.4-5.3 0 0 2.5.2 3.4-.2 2.8-1 6-2.6 6-2.6.5 2.1-8.2 4.3-8.2 4.3l1.6 1.8c0 .3 0 .3-.3.3l1 1.4c1.7-.7 16.3-5.8 12.4-8-1-2-3.7-2.6-5.8-2.6-2.7 0-4.6 1-6.4 1s-1.3-.2-3.5-.3a6 6 0 0 1-2-.6c-1 .5-10.5 5-10.6 10.8 0 4 1.6 4.8 1.6 4.9-7.9-2-6.8-11.7.4-14.6-.3 0-.6 0-1-.3l-.4-.2c-1-.4-5.5 4.2-6 6.1a8 8 0 0 0-.5 3.6c1.2 3.5 2.8 5.4 4.4 6.5Z"/></g><path fill="#0a1a1d" d="M560 250c1.5-1.7 1.9-1.6 1.8-5.6-.2-4.2-2.5-4.6-2.5-4.6s1.8 2.2 2 4.5c0 2.2-1.3 5.6-1.3 5.7Zm-8.4 12.6c.9.3 1.8-.2 2-1 .2-.5 0-1-.2-1.4l-.5-.5-1 1.2h.2c.3.2.4.4.3.7a.5.5 0 0 1-.6.4.5.5 0 0 1-.4-.5l-.7.5.9.6Zm17.3-1c.5-.2.5-.3.2 0-1 1.2-6.4 3.5-6.4 3.5s2.7 0 6-2c1.7-.7 5.6-4.6 5.3-4.5 0 0-3 1.3-5.6 2.1 0 0-6.7 1.8-7 2a27 27 0 0 0 7.5-1.2Zm-.8-20c.2-2.3-.3-6.7-2.2-6 0 .1 0 0 0 0 3.1 2.5.4 12.2-.4 13.4.4-.3 2.3-2.7 2.6-7.4Zm-20.3 109.2v-.3.3Zm43.4-94.5c-2-2.3-5-3.2-8.6-4.3l-.9-.2c-2.6-1-4.8-.6-6.6-1.6a17 17 0 0 1-1.1 1.8l3 .2c4.6 0 10.2 2 14.2 4Zm-25-.2 1.3-1.2s-2.4 2.1-3 2.1-1.3-1-1-1.9c0 0-.6 1.6-2 2.7s-3.4 1.6-3.4 1.6c.6 0 3.3-.1 5-1.1 1-.6 2.2-1.5 3-2.2Zm-18.4 94.7v.4-.4Zm3.1 10.6c-.5.8-1.3 1.6-2.2 2-.6.5-1.7.2-1 .9s2.1 2 3.4 2c.8 0 2.1-.3 2.7-.6a17 17 0 0 1-.8-1c-1-1-1.5-2-2-3.3Zm1.3-15.2 2 .2s-.9-.3-2-.2Zm-5.3 22c-2.6 0-3.9-1.2-4.5-1.9-.5.2-.8 1.2-1.3 1.5.4.6 1.6 1.5 2.9 1.6a9 9 0 0 0 3.6-1.1h-.7Zm1-3.2c-.5-.4-.5-1.2-1.1-1.2l-4 2.4c.7.8 1.8 1.3 3.4 1.5 1.6 0 3.5 0 4.9-1-1.5 0-2.5-.9-3.2-1.7Zm2.7-18.2c-1.7 1.1-3.1 3.2-2.8 5.4 0 .2 0 .2 0 0v.2l.2 3.1c.7-.2 3-1 3.7-1.8 1.1-1 1.8-1.2 1.7-2.2-1.2-1.7-.7-4.8.9-5-.2 0-2.5-.4-3.7.3Zm46.3-76.3c-.4 2.5-.9 10.3-4 10.8 3.8 1.1 5.6-3.6 5.4-5 0 0 .6.3.5 4.2 0 3.6-1.2 8.3-1.4 9a101.8 101.8 0 0 1-2 4.2s1.3-.5 2-1.3l1.4-2s.3 1.3-.2 3l-1.2 3.5.6-.5c1.4-1 4.7-4.3 5.3-11.4.2-3.5-1.6-9-2.2-10.5-1.8-.5-3.4-2.6-4.2-4Zm-18.7-23.3c1.6.5 4.4 2.6 5 .6v-.9s0 .2-.5.4-.5.4-2.2-.4c-1.3-.5-3.2-1-4-1.2-.5 2.5-.1 1 1.7 1.5Zm28.5 57 .4 3.9c.8 1.1 3.4 4.1 4.7 2.7 1.6-1.7.8-7.8-.2-10.2-1-2.1-2-5-2.2-5.8-1.2.2-2.2-1.3-3.2-2-1-1-1.4-3.1-1.6-3.3s-.4-.9-.8-.5c-1.5 2.5-4 10.5-7.6 9.7-.1.3-.8 1.7-.7 5 0 1.7.5 4.9.7 7 .5-.5 1.3-1.4 2.4-1.5l1.3.1c.2 1.6.6 3 1 3.8 1.4 3.5 4.1 5.8 3.7 5.2 1.2 1.6 1.3-3.5 1.7-8.9l-.1-4c.4.7.6.9.1.2-.7-2.8-1.2-5.8-2-7.4-.4-4 2.2 4.9 2.4 6Zm-19-63.2c4.4 1.1 8.7 1.3 13.4 5.4 5.8 5.3 5.8 9.3 4.2 14l-2.7-5.1a19.9 19.9 0 0 0-6-6c-.1.6-.5 1.2-1.2 1.8-.8.4-1.1 1.6-4.5 1.8.2.1 1.6 2 1.8 2.7 1.4 1.8 1.5 1 3.5 4.1 2 3 3.1 5.6 3.3 5.6s-1.5-4.5-2.5-6.4c-.6-1.2-3-5-2.8-5.7.2-.5 3.8 3.1 5.5 6 1.7 2.7 2.1 3.9 2.2 3.8.2-1.4-2.1-6.1-3.5-7.7 1.4 1.3 3.2 3.8 4 6.2 1.8 4.8.3 7.8 4.9 8 2.1 0 3.6-1.5 3.6-1.6 0-.2-2-1.2-3.9-4.3l-1.3-2.5c.3-.7 1-2.7 1-4.8 0-2.7-.3-6-5.2-10.4-5-4.2-9.3-4.4-13.6-5.5-2.7-.8-3.4-1.8-3.5-5.3 0-2.8.8-5 2.5-6.4 2.9-2.4 7.4-2.3 9.4-2 .3 0 .2-.5.3-.7-2-.2-7-.5-10 2.2-2 1.6-2.8 3.9-2.8 7 0 3.7 1 5 4 5.8Zm-1.2-4.1h.3-.3Zm-9.8 65c1.1-.8 4.1-3.7 4.4-3.9.2-.1.3-.5.3-.8l.1-2.2s-2.3 1.8-4 3.6a7.5 7.5 0 0 1-4.4 2.2c-.7 0-1.3-.5-1.7-1.3 0 0 .3 2.7.9 3.4 1.1 1.9 2.5.4 4.4-1Zm24.3 37c-2.5-3.4-5.1-6.7-6.9-10.5l.6-1.2-.4-1.3c-.5.7-1.4 2-1.9 2.2-1.4 0-3.6-3-5-4.4-2.2-2.3-3.5-5-3.4-4.5l-.3 6.2-.4 2 .7-.1c1.2 2.2 8 13.2 10.5 13.8.8 0 .6-3.3.7-4.1 0-.7.8.6 1.8 1.9.9 1 1.7 2.4 2.6 3.6 1.8 2.8 2.3 2 2.9.7.6-1.3-.7-3.2-.7-3.2l-.9-1.2Zm-4.4 11.2L586.5 338c-2.8-3.4-4-6.7-4-6.7h.1l-.4-.8-.3.5c-.4.6-.8 1.2-1.4 1-1.6-.4-3.2-2.7-4.7-3.7 4.2 7.3 11.2 18.2 20.9 22Zm-17.8-105.6c.4-.1.4-1 .4-1.3 0 0-.6.5-1.3.6-1.2.2-1.5-.5-1.4 1 .3 0 1.8 0 2.3-.3Zm5.1 57.6c.1 6.1 9.3-3.1 10.9-4.6-.8-1.1-1.7-2.8-2.3-4 0 0-.7 1.4-1.3 2-1.5 1.5-4.5 6.2-7.3 6.6Zm3.9-27s-.3 7-3.8 8.1c1-.1 2-.4 2.9-1 1.3-1 1.6-2.3 1.6-2.3 1.6 3.1-3 7.8-4.2 8.9.2-.1 5-2.7 6.2-3.8a6 6 0 0 0 2.3-3.7c-3 .1-5-5.9-5-6.3Zm-14-12.6-.2.5c.5-.5 1.4-2 2.6-2.4h1c1.9.4 2.5 1.5 2.5 1.5s0-1.1-.4-1.6c-.4-.4-1.7-1.7-2.1-2.4h.2a27 27 0 0 1 11 5.3 23.9 23.9 0 0 0-9.3-6.1c-.2 0 2.4-.4 2.2-.5h-3.7l-1.7-.6c-3.3-1-3.8-1-4.1-1.4l-2.4 2.4c.8-.4 7.5-1 6.5 2-.1.5-1.5 2.3-2.1 3.3Zm-1.3 5.5c0-.8-.7-1.9-2-2.3-1.5-.7-3.2 1.5-3.5 2.2l.4-.3c1.8-1.1 4-1.3 5.1.4Zm.4-20.9c1-1.8 1-5.2 1-5.2s-.3 3.1-1.2 4.3c-.9 1.1-3.9 3.4-3.9 3.4s3-.7 4-2.5Zm38.5 16.1Zm74.2 33-.2-.3.2.3Zm-76.4-53.9Zm37.7 26.3.5.1h-.5Zm7.1 139.2Zm34.5-27.5c-2.5-2.2-41.4-31.4-50.1-38a29.2 29.2 0 0 0-5-18.8c-1.3 1.1-3.7 1.5-5 1.6.1.6 0 2.2-.6 2.2-.5 0-.8-.2-1-.8 0 1.8 0 6.6-.8 7-1 .4-3.6-1.8-4.9-2.5.4 3.3 1 6 1 9 .2 6.3-8-1.7-8-1.8 0 0 .8 5.5.7 7.6-.1 1.4-.4 2.5-1 2.5-2.1 0-7.5-2.6-9.7-5 1.4 5 2.9 13.4-5.4 8.3l-2-1.4v.2c-.2 1.4.4 2.8 2.5 5.9 2.3 3.2 8.8 9.3 11.2 10.4 1.4.8 2.4 1 3.1 1.2a93.8 93.8 0 0 1-9-14.6c0-.2.7-1 .8-1.2a62 62 0 0 0 8.7 12.4c1 0 1.7-1.3 2.2-2.2 1 1.5 1.2 1.6 1.4 2.2a29 29 0 0 0 2.5 5.7c1 1.2 2.3-.6 2.3-.6.2.4.7 2.1.6 2.9.1 2.7-4.7.2-6-1-.8-.5-1-1.4-1.3-2.1 0 1.5.6 5.8-1.2 6.3-1.5 0-5-3.8-5.8-4.7 0-.1-.2-.1 0 .1 1 1.5 2.5 5.5 1.1 6.6l3.5 6.7c1.7 3 3.3 6 4.7 5.4 1.4-.7 1.9-3 2-3.2l-.1.1c.3-1 0-1.5.8-.5 1.8 1.6 4.6 4.9 6.3 6.3 1.3 1.1.8-1.2.8-1.7 0 0 .1-4.4-.8-6.7.5.5 4.2 6.4 5.4 5.2.5-1.6.5-4 .4-5.5 1 1 2.7 2.5 3.4 2.2 1-.4.6-3.8.3-4.5l-.1-2.5-.2-1.1 10.2 12.2c.8 1 6.1 3.2 7.7-.5.3.3 2.3 2.6 5.5 3.3 2.8.6 5-1.7 5.8-2.7 3.8 4 12.2-1.6 13.3-2.3 6.4 2.6 14.1-4.2 13.1-5l-3.3-2.6Zm-60-53.1-.4.4c0-.2.2-.3.4-.4Zm5.5 33.7c0 1.3.2 4.7-.9 4.7-1.5 0-3.3-1.4-3.7-2.3-.1 2.9 0 7.7-3.6 6.3-1.8-.8-3.9-3.9-5-6-1.7-2.7-2.4-5-3.5-8-.7-2-2.6-5.7-3-7.1.1-.2.3-1.2.7-.7 1.3 2.5 5.6 11.7 7.6 15.1 1.4 2.5 2.6 4.4 3.1 4.5 1.4-1.7-4-14.7-4.4-16.6.8.6 2.1 3.2 3 5 1.4 2.8 2 9 3.2 5.6.4-1.2.5-3.3 0-6-.8-3.4-5-13.4-5.3-14.4a47.3 47.3 0 0 1 7 18.5c0 1.3.7 3.2 2.2 3.1.5 0 .5-1 .2-2.5-.5-3.3-2.3-8.2-2.7-11 .8 1 2.6 7.4 3.3 6-.6-5.4-4-16-5.3-20.8 2.5 7.8 6.3 16.1 7 24.6.3.4.9.9 1.7.9.9 0 .5-4.3-.1-8.6-1-7.6-3.3-14.3-5-21.6l1.5 5.6c.7 3 1.7 6 2.8 8.8.6 2.8 1.1 6 1.5 8.9.3 2.2.5 5.5.4 7.2-.1.7-.2 1.2-.5 1.6-1 .3-2-.6-2.2-1v.3Zm29 29.4c-2.7-.5-7.4-4.4-12.9-9.3a179.9 179.9 0 0 1-15-17l-.2-1.8c.3.1 1.8 1.4 2.4.5 5.4 5.5 20.5 20.7 26.9 26.5l-1.1 1Zm13-3.2s-.3.6-1.1 1.2c-3.1-1.1-10.4-7.2-17.9-13-6.6-5-14.8-13.6-18.6-17.7v-2.3c6.5 5.9 28.1 25.2 37.8 31.2l-.2.6Zm-3.3-8.7c-.3.4-.5 2.5-1.3 3.2 0 0-.2 0-.2-.3-.1-1.2.1-3.2-.3-4.4-.4-1.5-6.3-6-7-5.5-.5.5-.2 2.4-.4 3l-.3.2c-.2 0-.2-.2-.2-.6 0-1 .2-3-.3-3.8a28 28 0 0 0-6.9-5.7c-.6 0-.3 2-.6 2.6-.2.4-.3.1-.4-.3-.2-.9-.3-2.6-.8-3.3-.8-1-13.5-12.6-13-13.4 0 0 12.1 10.4 13.1 11 1 .4 5.2.6 5.5 1.2.2.6-2.7 0-3 .6-.2.7 6.1 5.9 7.1 6 1 .1 6.1.1 6 .8-.1.6-3.5 0-3.6.7-.1.8 5.5 5.2 6.5 5.3 1 .2 7.5.2 7.5.8s-5.3-.1-5.1 1c0 1.1 8.8 6.6 8.5 7.4-.4.7-10.5-6.9-10.8-6.5ZM715 305c.1-.8-2.2-1.4-4.8-3.8-1.8-1.5-2.4-2.8-3.7-5.7-8-21.3-22-41.1-38.6-50.8a110 110 0 0 1 24 24c7.6 10.3 14.6 30.6 17.4 33.6 2.7 3 4.2 2.5 3.8 3.2-.3.6-3.2.8-3.4.8-.7-.6-5.8-.2-11.3-2.4a15.8 15.8 0 0 1-6-4c.8 0 2.7.2 5 .7 2.2-2.7-1.2-10-1.4-10.3-2-4-4-7.8-6.3-11.6-.2-.3 1.6-.1 2.2-.2.2 0 .3-.1.2-.2a13 13 0 0 0-2.6-1.4 5 5 0 0 1-1.8-1.4c-1.1-1.8-1.8-2.7-3-4.4l-2.8-3.8c-.1-.2 2.5 0 3 0 .2-.3-2.7-1-4.5-2.4-4-2.9-7.4-7-10.8-9.6-.4-.3 4.5-.2 4.1-.5-.4-.2-6.3-1.5-7.6-2.1-1.4-1-3.7-2.5-3.4-3.3.2-1.5 4-3.4 5-4.9l-.2-.1c.1-.4.4-1.2.9-1.7.6-.6 3-3.3 2-3.8-.9-.6-4 .4-5.9.2-1.9-.1-3.2.4-8.8-4.3 0 0-17.8-12.5-45.4-14-8.7-.5-12.6 2.4-13.1 4.2 0 .4 2.3-3.5 11-3.4 4 0 31.7 2.3 46.2 13.6.7.6 5.5 5.1 10 4.6 4.4-.5 5.4-1 5.3-.3-.1.6-1.5 2.2-1.8 3a15 15 0 0 0-.6 2c-3.4.6-8.3 5.6-12.5 4.4 0 0 1.1.4 1.5 1.6.5 1-.1 3.3-1.2 4.8-.8 1.3-2.8 1.2-4.3 1-1.2-.2-2-.5-1.7-.3 1.8 1.5 4.5 5.2 5 7.6.2 2.5-.6 4-2.8 4.8-1.3.5-3 .5-3.8.3l.5.2c2.2.9 3.2 3.6 3.3 5.8 0 2.2-2.9 4.1-4.7 4.7-1.1.3-3 0-3 0 3.8 4.9 2.2 7.2-2.4 10.7-.8.7-2.5-.7-2 0s.4 4.1 0 6c-.2 2-4.2 4.9-5.5 4.7-1.4-.2-1.5-.9-1.5-.9v3.2c0 1.6-4.8 5.4-6.7 6.3-1.4.7-2.7.4-3.2.2l-4-6.5h.5c6 4.7 9.9-1 9-7.4-.7-.7-.6-1.8-.6-2.4.7.4 3.6 4.3 4 4.6l.5-.4c2 1.1 4 .8 5-3.8.3-1.7-3.7-7.7-4.5-8.8.5-.7 1.1-1 1.7-.9.2 0 .6.4 1 .8 1 1.1 2.7 3.2 2.8 3.1 0 0 .3.6 1 .9 4.4-3.3 1.7-10.4-.5-14 1 1 1.7 1.9 2.7 2.7l2.7 2-1-1.4-.7-.8c1.9-.2 6-.8 6-4 .2-4.2-5.7-8.6-5.7-8.6s4.7.3 4.6-2.4c0-2.7-6.4-4.6-6.5-6.3-.1-1.6 1.5-4.1 4-3.4 0-.4.6.4.9.4 1.5 1 2.9 2.2 2.8 2.1l-.6-1c2.4.8 5 1 6.1-1.4 1-2 .7-3 .4-3.4l.9-.3c-3.4-.4-1.9-2.8-2.3-5.5-.3-2-1.2-4-1.7-5.2 0 0 1.2 3.1 1.4 5.2.2 2 0 3.5-.3 4.1-.2.3-.7.2-1.5 0-1-.3-2.3-.9-3.4-1.5a19.6 19.6 0 0 1-4.3-2.6c-.1-.3.7-.7 1.1-1.6 1-1.2-3.4-7-4-7.5l2.1 3.4c1.6 2.2 2 5-.9 4.7-2.3-.2-6.4-1.9-6.5-2.4 0-.6.6-2.4-.9-5a19.4 19.4 0 0 0-4.4-5.1c1.3 1.3 6 6.3 4.7 9.5-.3 1.1-3.7.1-3.8 0 0 0-1.7-2.4-4.8-5-3.1-2.6-7.9-5.2-7.8-5.2 3.4 2.9 10.4 7 10.9 11.5 0 1.1-1 1.9-2.7 2-1.6.1-3.7-1.3-3.7-1.3s.6 2 3.5 2.4c3 .5 3.5-.9 3.9-1 .4-.3.5 1.5 1 3 .7 1.4 1.9 2.7 1.8 4.1 0 1.5-.8 3.3-3 3.5s-4.6-1.9-4.6-1.9 1.5 3.2 4.3 3.2 3.6-1 3.6-1c.3 2.6 1.7 2.5 2.4 4.3.8 3.3 1.2 8.1-3.4 7.6-2.2-.3-3.8-2.6-3.8-2.6 1.1 3.7 4 4.7 7.3 3.7 1.8 1.4.6 7 .3 8.6s-2 2.8-4.2 2.3c-2.1-.4-3.3-2.9-3.3-2.9.7 2.6 2.6 5.4 6 5.1.5 1.5-3.2 6.5-3.6 7.1s-2.1 1-3.8.2c-1.7-.8-2.7-2.8-2.7-2.8a5.3 5.3 0 0 0 5.3 4.8c.3 1.6-5.3 5.8-5.9 6.3-.6.5-2.3.1-3.4-.6s-2.3-3.2-2.3-3.2.4 2.2 1.7 3.6c1.4 1.4 3 2 3 2 .3 1.2-3.5 5-4 4.9h-.4c-1.5-2.6-2.2-4.9-4.2-8.2-.9-1.6-2.3-4.9-2.6-6 .1-.7 0-2.5.3-3.2 3-.6 8.7-5.9 9.6-13 1-7.5-3.8-22.8-4.8-24.4-1.1-1.6 1.6-.8 3.2.8l-.4-.4.4.4c-.3-1-1.9-3.2-5-6.2-3.4-3.1-13.2-7.3-15.2-8.1a5 5 0 0 1-2.2-2.4c-.3-.3-1-.7-2.7-.8-2.7-.3-4.3.8-4.3.8s2.7 0 4 .3c1.4.3 2.6 1.8 2.3 2.1 0 0-3.8-.1-5.8.6-2 .8-3.5 2.2-3.7 2.4.2 0 9.7-1.5 12.2-1 2.5.6 3.2 2.1 3 2 0 .2-.6-.2-2.2.1-1.8.3-1.7 1.8-1.7 1.9 0 0 8-.7 10 .2 2.2 1 4.2 3.7 4.3 3.7 1.3 1 2 1.3 1.6 1.4-.3.1-.4-.6-2.7-.9-2.3-.2-4 1-4.1 1 2-.6 9-.4 8.8 4 .6 1 2 5.4 1.7 5.6-.2.3-.1-.9-2.5-1.5-2.3-.5-5.2 1-5.5 1.1 3-1.3 7.1-.5 8.3 3.2.8 1.7 1.4 6.7 1.2 7.2-.2.4-.4-.8-2.2-1.8-1.6-1-4.9 0-5.3.1.5 0 2.7 0 4.4 1.1l1 .3c1.5 1.3 2.3 3.4 2.3 3.5l.9 1.3c.8 1-1.4 6.1-1.7 6.3-.4.1-1.4-.3-2.6-1.5-1-1-3.2-2-3.7-2.3.7.5 5 4.5 4.7 5.5-1 3.3-4.7 5-5.7 5.5a37.6 37.6 0 0 0-1.9-12c-1.1.4-4 0-4.6-.4 0 1.3-.4 2.8-1.3 3.6-.4.4-.3.2.2.3.2.7 1 3 1.5 4 1 2.4.8 3.5 2.1 8.3.7 2.8 3 7.6 3.8 5.8l-.4 1.3 2.2 8.4c1.6 6.2 1.6 13.8-5.5 6.7-.1-.2 0 0 0 .2 0 3 .3 7.5-1.3 10.4-.5 1.2-1.4 1.6-2.6 1.4-2.2-1.7-5.6-4-6.2-4.4l-.2-1.3c.1 4.1.7 5.4-1.3 8.8s.2.2.4.5c-.5.4-.5 1-.2 1.7a42.7 42.7 0 0 0 13.2 15.7c.2 0 .1-.3 0-.7-.1-1.3-4-7-3.9-8.4.3-.3 1.9 1.2 3.2 2.3 1.1.8 2.2 1.8 2 .6-.1-2-2.3-7-2.3-7.2-.7-2-2-5.6-4-7 .6-.2 1.6-.4 2.1-1 .6-.6.8-1.8 1.2-2.3l.1-.2a27 27 0 0 0 7.2 13.8c2.5 2.8 2.5 2.3 1.2-.6-1.2-2.6-3.2-6.5-3-7 .5-.7 4.2 2.2 4.7 1.8.5-.5-1.8-4-2.8-6.7-.9-2-3.8-5.3-5.4-7.2l2.3 1c1.2.4 2.4 1.9 3.2 2.7.8.7 2 1.3 3 2.7.2 1.4.4 3.1.9 4.3a12 12 0 0 0 3.8 5c1.5.9.1-10.3.5-12 1.2 2.7 2.5 5 3.5 6.7 0 0-1-7.1-3-11.1.2-.3.7-.6 1.3-.6 1 0 2.2 1.1 3.5 2.8 1.3 1.7 2.2 4.4 2.2 4.4s-.6-3.2-1.3-4.6c-.8-1.5-2.5-2.6-2.4-3.2.1-.6 1.2-.4 2.6-1.3 1.3-.8 1.2-1.8 2.2-2.4.7-.2 3.2 4.7 3.7 5.7l.1.2c.3-.3-1.8-4.8-2.5-7.2-.2-.9.3-1.3.3-1.4.3-.6 9.5 9.5 9.8 9.3-1.5-2.3-8.9-10.2-9.1-11.2 0-.7 2.1 0 3.7-1.5s1.6-2.5 2.2-2.6c1.9 1.7 5 7.4 7 9.6.4-.2-4.7-9.4-4.3-10 .4-.5 10.3 8 11.4 9h.2c-.3-1-13.5-14-13.2-14.4 0-1 2.7-1 3.4-1.7s1-2.2 1.6-2.2c.2 0 1.1 1 2.4 2.5l.3.6c2.2 2 5.2 5.8 6.7 8.1l.9.5s.1.1.1 0l-.4-.6c-.7-1.2-2-3.7-2-5.2 0-1.2 4.5 1.8 7.5 4l2.3 2.3c-.5-.8-2-2.2-.4-1-1.7-1.6-3.1-3.2-4.6-5a2 2 0 0 1-.1-.9c0-.3 1.5-.4 2.7-.2-3.7-3.6-10-9.5-12-13.4a2 2 0 0 0 1.3-1.3 117 117 0 0 1 15.8 15.8c.2-.4 2.4 2 3.7 3-.5-1.3.1-2.3 1.2-2.4l3.5 3.6-.4-.7-4.5-6.3c0-.4.7-.8 2.3-.4 1.6.2 4.2 1.8 3.9 1.6-.4-.3-2.2-1.6-3.6-2-1.5-.6-2.1-.4-3.2-.9s-7.8-8.6-7.8-9c.2-1 5.4 1 5.5 1.1 0 0-1.4-1.2-2.6-1.9-1.3-.7-2.1-.2-3.8-1.1-1.6-.9-9.8-8.4-9.7-9.1 0-.7 2.4-.5 3.5-2 .6-1 1-1.9 1.2-2.6 1.3.8 4.6 3 9.8 9 7.2 8.1 8.8 13.4 10.7 16.5 2 3 6.7 5.3 8.4 3.8 1.6-1.7-1.5-8.8-8.9-19.5a127.9 127.9 0 0 0-18.2-20c1-4.5 2.4-1 13.2 8.4 9.7 9.4 20 24.9 20.4 35.8 1.3 2.5 6 11.3 7 15.4a25 25 0 0 1 1.2 8.6c-.1.3-.4.1-.7 0-.2.4-1.1.3-1.4.2 0-.5-.3-.7-1-1.4-.7-.8-2.8-3.6-4.3-6.6a23.2 23.2 0 0 1-2.4-8.9c-.2-1.5 0-3.7-.3-4.8l-.6-.1c-1 0-3.8-.7-5.2-1.7-3.2-1.9-5.8-4.7-6-4.8l.4 2.1c0-.5 1.1 3.6 0 5.3a9 9 0 0 1 3 1.4c0-.5.1-1.2.4-1.7.5-.7 2.7 2 3.8 3.1s2.2 6 4 12a62 62 0 0 0 4.8 12.2c.7 1.3 1.3 2.2 1.8 9.5.4 6.1-.3 14.1-.5 16.5l-2.3-3.7c-1.4-2.4-1.8-17.1-3-21.5-1.1-4.3-3.7-5.7-3.7-5.8-6.3-6.3-9.5-12.3-9-21.4-.8-.1-2.4-.2-3.8-.8-1.6-.7-4.4-2.9-4.4-2.9 2.3 9.6-4.5 1.4 2.5 9.7 2 2.2 1.6 3.4 4.5 9.4s6 8 6.6 9.4c.7 1.4 2.8 12 3 16.5a19 19 0 0 1-1 7.4c-.8-2-1.6-4.5-2.4-7.4-1-4.2-1.2-12.6-2.5-15.8l-.8-.2c2.2 4.4.3 6.1 2.8 16.7 2.3 10 4.3 10.6 5.5 14.2 1.2 3.5-1.3 13.2 1.6 14s.5-15.4.2-19.9c-.3-4.3-2.5-29-2.8-28.8 5.2 4.1 4.8 25 6.4 28.3 1.3 3 1.2 1.9 2.6 5.7 1.3 3.8-1.8 22.8 2.7 20 4.5-2.9-.9-48.8-.6-55.1 0-.3.2.1.3.3 1.1 1.5 4 4.5 4 6.8.5 4.8.6 21.1 1.3 26.7.7 6.2 1.9 6.8 1.9 12s-1.8 10.4-1.8 11.8.2 4.2 1.9 4.2 2.2-5.8 2.8-7.6c.5-1.9 1.8-6.2 2.3-7.3 1-2.9-1.1-15.9.6-25.2s3.7-8.4 3.5-19.3a48.8 48.8 0 0 0-3.7-18.8c1.8-.3 4.5 0 4.8-2.1Zm-27.8-19.2.5 1.2-.5-1.2Zm21.6 52.6c-.6 2.5-2 4.3-2.3 4.6.1-3.1.2-5.9.1-8.2-.2-7.2-1-11.2-2.6-15.5 0 0 .5.5 1.1.7.9.4 1.8.5 2 .5 0 0-1-1-2-1.6a6.3 6.3 0 0 1-1.5-1.2c-1-2.2-1.4-2.4-1.9-3l-.1-.2-1.1-3.2a25 25 0 0 0 5.5 2.3c.5-.1-1.8-1.6-3-2.2-1.1-.6-3-2.3-3.3-2.6l-.2-1.2c.2-.2 5.3 1.9 7.9 4.5.6.6 1 2.3 1.3 4.5 1 7.1.7 19.8.1 21.8Zm-67-22.4c-.2 1.8 3.7 5 6.5 7.2s6 6.1 7 8.8c1 2.7.2 2.7.7 5.1.2 1 1 2.2 1.6 3.3 1 1.5 2.1 2.8 2.1 2.8.5.5 1.1.8 1.7.8 1.1 0 1.5-1.4 1-2.2-1.8-2-2.8-1.8-4.2-5.4-1.2-3.3-2.8-9.4-4.8-11.7l-.5-.5 2.5-.3c1.5 0 8 5.8 8.5 7.5.5 1.8 0 2.5 2.6 8.2 2.6 5.8 3.2 6.8 3.2 6.8.6 1.7 1 4.4 2 4.6 1.1.2.3-4.5-.4-5.8-.7-1.4-.3-3.6-2-8.2-1.6-4.7-2.5-10.2-3.6-11.3-2.7-2.5-6.7-6.2-8.9-8.7-1.7-2.1-2.3-5-2.4-7.3h-3c-2.3-.6-4-1.2-5.5-3.3.8 2 1 4.4 0 6.2.4.1 1.5.5 3 1.5l7.1 6.1c2 1.7 8 7.2 8.6 7.9.7.7 1 2.1 2.1 4.5 1.3 2.9 3.3 7.7 2 10.5l-1.9-3.6c-1.6-3.4-2-6.3-2.4-8.3-.5-2-7-7.4-8.5-8.1-1.4-.6-3.3.2-4.6-.6-1-.7-5.3-5.7-7-7.7l-.4.4h-.1c-.6.5-1.9.5-2 .8Zm10.6 86.6c-.9-1.4-2-1.7-2-1.7h-.7c-.6.2-4.8 4.4-3.4 5 .7.3 2.4-.5 3.2 1.5 1.5 3.7-2.5 3.6-2.5 3.6 6.1 2 9.2-3.7 5.4-8.4ZM612 271.8h-.1Zm55.6-27.3.2.2-.2-.2Zm-25.1 69.6-.2.2.2-.2Zm33.1 11-.4-.1v-.4l-.1-.1a25.9 25.9 0 0 1-10-19.5l-2.4-.6a46 46 0 0 1-6-3.3l.5.9-.9-.8c.8 1.7 1.5 4.7.5 7 1.4 1.7 4.4 5.3 6.7 8.9 3.1 4.6 6.6 8.3 8 9.6 1.4 1.4 2.3 4.8 3.5 9.2 1 3.6 1.1 7.5 1.1 8.9-.8-.2-1.4-5-3-9.8-1.6-4.9-4-7.9-4.8-8.6-1.4-1-1.7-.5-.6.3a25 25 0 0 1 5 8.5c.9 2.6 4 24.8 7.4 24.3 2.6-.4.3-13-2.2-19.4-2-5.3-2.5-12.5-2.6-14.8.7 1.5 1.9 2.6 3.4 3.1-1.1-2.1-2.4-3-3-3.3Zm-68.3 51s-1.5-2.7-1.6-4.6c-.1-1.3-.6-2.6-1-3.5-.1-.7-7.8-12-10.6-15.5-.7-1-3.8-2.6-4.7-3.1v.3c-.3-1.2 0-.7-1-1.5a69.4 69.4 0 0 1-14.7-15.2c-1.1-2.2-2.3-4.3-2.9-6.1-.7.5-1.4 1.4-2.3 1.8 2 3.5 4.6 7.4 7.6 11.2 1 .9 0 1.8.3 3.4.1 1.7 3 7.6 3.8 9.3 0 0-1.1-3-1.6-5.3-.3-1.7 0-3.4.2-4.2 3.7 4.1 7.4 7.8 11.1 11.2.1-.5.6.8 1.1 1.6a65 65 0 0 0 7 9.7c0 3 .1 10.7-1.4 11.4-1 .4-3.7-4-3.7-4 5 10.7 6.4.7 6-6.3a826 826 0 0 0 8.4 9.4Zm-41.6-46c-.1 0-.1-6.5-1.7-10.6-1.5-4-2.2-3.8-2.6-8.3-.3-4.2 4.2-11.5 4.8-12.5.3 2.3 3.8 1 5.1.6-.7-1.4-.5-3.5-.2-4.7-.3.7-1 1.3-1.4 1.6 0 0-.6.3-1.6.4h-1.9v1.3c-1.1 1.6-5.8 8.9-5.7 13.2 0 4.7.9 3.7 2.3 8 1.3 4.3 2 10.7 2.2 11.2 0 .4.4.2.7-.2Zm40 65.2c-.5-.2-1.4 0-2.7.3 1.3-.3 2.1-.3 2.8-.3Zm45.9 16Zm-60-40c-1-1.3-.2 1.3-6.6 3.6-6 2.1-8.5 1.2-8.8 1 0 0 2.2 1.7 8.7-.2 7.7-2.3 5-2.4 8-2.7-.2 0-1-1.1-1.4-1.6Zm-15 .2c-.6-.5-1.5.3-6.8-1.2-4-1.1-5.7-2-6.4-2.3l-.3-.2s2 1.7 6.6 2.9l7.2 1.9s.1-.5-.4-1Zm25.7 33-.4-.2.4.2Zm-2.7-2.5a4.8 4.8 0 0 1 0 0Zm11 1.2Zm-3.5-5.7c-.2-.5-.7-1.5-1.1-2-.1-.2-.2-.2-.4-.2-1.3.1-6.6.8-6.3 4.5.4 3 1.3 4 3 4.7-.2-.3-1.5-2.7.3-3.6 1.8-1 2.8 0 3.8 0h.5c.7-.6.4-3 .2-3.4Zm3.6 5.7c-1.6 1-3.5 2.3-3.7 4.9 0 4.9 4.3 6.1 5 6.3 0 0-2-2.8-1-4.5 1.2-1.7 2-.7 2.6-.7 1.8-1.1-1.9-6.3-2.9-6Zm-.1 0c-.4 0-.8.4-1.1.6l1.1-.6Zm1.3 11.2-.4-.1h.4Z"/><g fill="#b5915f"><path d="m672.8 466.2-2-1.2 2 1.2Zm9.2 6c-1.4.6-2.4.3-3-.3-.4-.6-.7-1.1-.7-2.1s-.2 1-.2 1l.8 1.6 1.6.7 1-.2.8-.4 1-.9.4-.9-.2-.4s0 1.3-1.5 1.9ZM668.6 455c-1.5-.1-2.2-.8-2.4-1.6-.2-.8-.2-1.4.3-2.3.5-.9-.7.9-.7.9v1.7l1 1.4 1 .2 1 .1 1.1-.4-.9.5v2.8l.6-1.7c.3-.5.8-.9.8-.9l-.4-.7.8-.6v-.4s-.6 1-2.2 1Zm10.4 13.1s-.8.4-1.4.2c-1.9-.7-3.6-1.5-4.8-2.2l5.4 3.3.8-1.3Zm50.4-91v-.8c0 1.3-1.8 3-3.2 2.5-1.4-.6-2.4-2-1.6-3.4.7-1.5-.4.5-.4.5l.2 2.1 1.3 1.2 1.6.1 1.3-.7.8-1.4Zm19.3 2.7s-.4-1-.2 0-1.1 3.2-2.6 3c-1.4-.2-2.1-1.5-2-2.7.1-1.2-.2.4-.2.4v.7-.3l-1.7.3s.1.7-.8 1.2l-2.5 1.4 5.4-1.5.6.6 1.1.6 1.3-.2 1.2-.8.5-1v-.9l-.1-.9Zm-20.3-.9 1.6 1.8v-1.3c0-.5.2-.8.2-.8l-1-.7-.8 1Zm-21.2 42s.8-2.4.3-1.1c-.6 1.2-2.8 2-3.8 1.4-1.1-.6-2-2.9-.7-3.9l-.7.6-.3 1.3.4 1.4 1.1 1.2 1 .3 1.6-.3 1-1Zm-1.3 1 3 4.9v-1.5c0-.7.2-1 .2-1l-2.3-2.9-.9.6Zm-172 31.5c.5.7-.3 2.9-2.5 3.7-2.2 1-3.3 0-3.8-.6-.6-.8-.6-1.6-.6-1.6l-.3.4.3 1.2 1.1 1 2 .3 1-.1-.5.2.2 2.6s.1-1 .4-1.6c.4-.5.8-.6.8-.6l-.2-.9 1.1-.6.7-.8.7-.9v-1.1l-.3-.6Zm185.5-21.7.2-.5-.2.5Z"/><path d="M721.4 434.9c-1.6-.5-2.2-2-2-3.1v.2-.5l-1.2-.6s0 .6-1 .6h-3l5 1h-.1l.3 1.6 1.2 1 1.3.3 1.2-.3 1.3-1.2.3-1.4-.3-.4c.5 1.7-1 3.3-3 2.7Zm-198 33.5Zm0 .3c0 .2 0 .6-.2 1-.4 1-.6 2-1.9 1.7a2.4 2.4 0 0 1-2-2.1c0-.8-.4-1.2-.4-1.2v1.2s-.4.5-2.2.5c-1.9 0-2.3-1.7-2.3-1.7v.7l.4.8.7.5 1.4.3 1.6-.2.7-.3-.2-.6.7 1.8 1.3.6h1.1l1-.3.3-1.1.2-1-.2-.9v.3Zm1.3-2.6-1.7.2.4 1.4 3.6-.1s-1.4-.4-2-.7c-.6-.2-.4-.8-.4-.8ZM483 430.4l-.4 1c-.4.9-1.4 3-3 2.7-1.7-.3-1.5-1.5-1.5-1.6v-.6l-.3 1.2.4.8.7.4 1.3.2 1-.4 1-1 .5-1 .4-1v-.7Zm-4.3.2c0 .1-.3.4-1.3.4-1.3 0-3.2-.5-3.2-.5l.6.7 1.1.3h2.4l.4-.9Zm-3.7-54.8-.3-.8s.3.8-.4 1.4c-.8.5-2.4.8-3.5.3-1-.6-2.9-2.5-2.9-2.5l1 1.5.8.8-.6 1v1c0 .9-.3 2.3-.3 2.3l1.6-3.7-.2-.2 1.9.5 1.8-.3.9-.7.2-.6Zm3.7 54.8Zm5.2-.4-.6.1-.3 1.4 7.9.2s-5-.6-6-1c-1.1-.5-1-.7-1-.7Zm12.3-11zm-5.1 5.6.7-.7a3 3 0 0 1 1.1-.5v-1.1l-1.8-.2v2.5Zm5-4.8c0 .6-1.2 2-3.3 2-2 0-3-.6-3.5-1.3-.6-.7-.7-1.7-.7-1.7v1l.8 1.4 2 1h2l2-.6.9-1 .2-1-.3-.6v.8ZM453 380l.3-.6-.3.6Zm2.2 1.6c-.8 0-2 0-2.2-1v-.6l-.3.6.2.7 1 .6h1.3l1.2-.5.3-.3s-.8.5-1.6.5Zm-1-3.3h-.2.1Zm-.2 0c0 .1-.3.2-1 0-1.2-.1-2.7-1.5-2.7-1.5l1 1.5 2 .9.7-.8Zm5 2.1h-.1Zm.2.9c-.4-.8-.4-1-.3-.9l-1-.6-.7 1 6.5 5.5s-4-4-4.5-5Z"/></g></svg>