<svg xmlns="http://www.w3.org/2000/svg" width="1200" height="720"><path fill="#036a4a" d="M0 0h1200v360H0Z"/><path fill="#fcd80e" d="M0 360h1200v360H0Z"/><path fill="#faf6f5" d="M0 224h1200v272H0Z"/><path fill="#0a1a1d" d="M0 248h1200v224H0Z"/><path fill="#c40f38" d="M0 0v720l520-360Z"/><path fill="#fcd80e" d="m234 393 36 109-93-68-92 68 36-109-93-66h115l34-109 35 109h115l-93 66Z"/><path fill="#0a1a1d" d="m196 323-2-2 10-9 2 2ZM69 452c4 4 8 3 11-1l18-24h61c11 7 25 7 36 0h58l22 25c5-1 7-3 8-8l-27-31-14-57-7-9c-12-6-27-7-41-6l-2-2 7-6 2-6h13l33-28c2 2 7 1 9-1l36-42-1-1-44 35-2-2 2-2c1-2-1-4-3-4l-4 3-9-5-2 2 3 10-13 11-12-2-15 14-1 4-3-3-10 8-23-27c2-2 3-4 3-7l-17-19c-11-1-17 4-20 13l-4 2h-12l-40 50v1l21 24h1l41-51 3-13 7 8c3 1 5 1 8 0l23 26-2 2v1l5 5h1l2-2 1 1-4 4-8-8h-2l-7 7c-12-1-25 1-36 6l-7 9-7 27-2 9c-13 6-13 23-25 21l-20 16c-5 4-6 6-3 9Z"/><path fill="#faf6f5" d="m234 349 6 8 13 53-12-15Zm-54 67c21-8 39-9 57-6l14 15h-58c-2-2-5-5-13-9Zm-2-2v-17h14l1-17h-15v-29l5-4 52 60c-17-2-37-1-57 7Zm-47-14 7-7c2-2 2-3 2-4h3l-6-6 2-2c7 7 22 14 37 16v17c-15-6-29-9-43-9Zm-12-25 4-27c7-4 19-5 30-5l-3 3v1Zm-11 7 6-25 6-8-4 28-6 5Zm53 43h-61l9-14c4-2 9-2 13-3l2 14 3 1 9-5-2-11c13 0 26 3 40 9-8 4-11 7-13 9Zm-51-37 20-17 5-1 16-14 1 1-17 15-5 1-19 17h-1Zm54 38c2-2 5-6 13-9 8 3 11 7 13 9-8 5-18 5-26 0Zm-54-18 17-17c2 1 3 1 5 1v-1c-2 0-3-1-3-2l5-5 3 3c2 2 2 3 0 5l-6 6-6-3-7 7 3 4c-4 1-8 1-11 2Zm43-38 12-10-5-6v-2l7 8h4l5-7v27c-10-2-19-7-23-10Zm42-27c14-1 27 1 36 5l7 44Z"/></svg>