<svg xmlns="http://www.w3.org/2000/svg" width="1200" height="720"><path fill="#faf6f5" d="M0 0h1200v720H0Z"/><path fill="#003396" d="M0 572 954 0H0"/><path fill="#24a34e" d="M246 720h954V148L246 720"/><path fill="#c40f38" d="M0 720h184l1016-609V0h-184L0 609v111"/><path fill="#fcd80e" d="m256 268-20 54-20-54-43 37 9-55-55 9 36-43-53-20 53-20-36-43 55 9-9-55 43 37 20-54 20 54 43-37-9 55 55-9-35 43 52 20-52 20 35 43-55-9 9 55-43-37"/><circle cx="236" cy="196" r="76" fill="#003396"/><circle cx="236" cy="196" r="64" fill="#fcd80e"/></svg>