<svg xmlns="http://www.w3.org/2000/svg" xmlns:xlink="http://www.w3.org/1999/xlink" width="1200" height="720" fill="#faf6f5"><path fill="#e30631" d="M0 0h1200v720H0z"/><path d="M400 0h800v240H400z"/><path fill="#0f7d3a" d="M400 480h800v240H400z"/><path id="a" d="M291 245c9 0-9-11-28-28l-14 7 14-6c18 16 34 26 28 26-4 0-25-6-41-18 14 12 37 19 41 19Zm-44-22c-35-28-63-61-83-91l-2 1c-21-35-42-79-37-82s30 36 52 74l-11 6 10-4c22 31 54 66 85 89Zm-83-93 10-5-8-13-10 5Zm0-1-7-11 8 3-8-4 8-4v8l1-8 7 11-8-3 7 4-7 4v-8Zm127 117c-4 0-28-7-45-22l17-8c20 18 40 30 28 30ZM163 131c-14-25-22-40-32-62 2 0 5-1 6-4 8 11 18 26 29 45l-11 6 11-5 8 12c-16-28-43-73-48-70-4 2 17 46 37 78Zm-32-63c-2-4-5-12-4-13s6 3 9 9c0 2-3 4-5 4Zm1-3c3 0 3-4 0-4s-3 4 0 4Zm-4 79v2l-1 1v1l-2 2h-2l-1 1h-2l-1-1h-2l-2-2v-1l-1-1v-2l1-1v-1l2-2h2l1-1h2l1 1h2l2 2v1Zm10 6v-10h3v-4c0-2-1-3-3-3h-34c-2 0-3 1-3 3v18c0 2 1 3 3 3h34c2 0 3-1 3-3v-4Zm-20-5c0-3 6-3 6 0s-6 3-6 0Zm7 0c0-4-8-4-8 0s8 4 8 0Zm28 4v-8h-1c2-5 11-5 13 0h3c-2-8-17-8-19 0h-10v8h10c2 8 17 8 19 0h-3c-2 5-11 5-13 0Zm-37-7 1-1h2l1-1h2l1 1h2l1 1v1l1 1v2l-1 1v1l-1 1h-2l-1 1h-2l-1-1h-2l-1-1v-1l-1-1v-2l1-1Zm-13-7 2-1 2 1 2-1 2 1 2-1 2 1 2-1 2 1 2-1 2 1 2-1 2 1 2-1 2 1 2-1 2 1 2-1 2 1v1l-2 1-2-1-2 1-2-1-2 1-2-1-2 1-2-1-2 1-2-1-2 1-2-1-2 1-2-1-2 1-2-1-2 1-2-1Zm1 0v1h2v-1Zm4 0v1h2v-1Zm4 0v1h2v-1Zm4 0v1h2v-1Zm4 0v1h2v-1Zm4 0v1h2v-1Zm4 0v1h2v-1Zm4 0v1h2v-1Zm4 0v1h2v-1Zm-33 19 2-1 2 1 2-1 2 1 2-1 2 1 2-1 2 1 2-1 2 1 2-1 2 1 2-1 2 1 2-1 2 1 2-1 2 1v1l-2 1-2-1-2 1-2-1-2 1-2-1-2 1-2-1-2 1-2-1-2 1-2-1-2 1-2-1-2 1-2-1-2 1-2-1Zm1 0v1h2v-1Zm4 0v1h2v-1Zm4 0v1h2v-1Zm4 0v1h2v-1Zm4 0v1h2v-1Zm4 0v1h2v-1Zm4 0v1h2v-1Zm4 0v1h2v-1Zm4 0v1h2v-1Z"/><use xlink:href="#a" transform="matrix(-1 0 0 1 400 0)"/><path fill="#e30631" d="m139 159-1 33h55c19 0 25-17 25-29v-58h-36v53l-1 1Zm24-18v8h6c2 4 8 4 9 2 1 2 2 4 6 4h33c4 0 6-2 6-6h14v-8h-14c0-8-12-8-13-1h-20c-1-7-10-7-12-1-1-2-7-2-9 2Z"/><path d="m175 191-1-5-4 4 4-5v-6l-9 10 9-11v-7l-15 17 15-18 2-9-23 26 22-26h-5l-23 25 22-25h-5l-23 24 22-24h-5l-23 23 22-23-7 1-16 16 15-16-7 1-8 8 7-8-7 1c-2 7-2 15 0 22 14 3 27 5 41 5Zm-48-7-1-4-7-6-4 2 3-3-3-3 4 2 7-4 1-3c-23 3-23 11 0 19Zm-1-5c-1-4-1-6 0-10l-7 4Zm7 7c-2-7-2-15 0-22l-5 1c-2 8-2 12 0 19Zm48 5 1-1-1-1Zm1 0h2l-1-1Zm2-1 1-1-2-2-1 1Zm-3-2 1-1-2-2v2Zm4 3h2l-1-1Zm-4-6 1-1-2-2-1 1Zm3 2 1-1-2-2-1 1Zm3 3 1-1-2-2-1 1Zm1 1h2l-1-1Zm-7-9 1-1-2-2-1 1Zm-5 9h4c-3-12-2-19 0-30h-3c-3 11-4 18-1 30Zm8-7 1-1-2-2-1 1Zm3 3 1-1-2-2-1 1Zm3 3 1-1-2-2-1 1Zm1 1h2l-1-1Zm-10-12 1-1-2-2-1 1Zm3 2 1-1-2-2-1 1Zm3 3 1-1-2-2-1 1Zm3 3 1-1-2-2-1 1Zm3 3 1-1-2-2-1 1Zm1 1h2l-1-1Zm-13-15 1-1-2-2-1 1Zm3 2 1-1-2-2-1 1Zm3 3 1-1-2-2-1 1Zm3 3 1-1-2-2-1 1Zm3 3 1-1-2-2-1 1Zm3 3 1-1-2-2-1 1Zm1 1h2l-1-1Zm-16-18 1-1-2-2-1 1Zm3 2 1-1-2-2-1 1Zm3 3 1-1-2-2-1 1Zm3 3 1-1-2-2-1 1Zm3 3 1-1-2-2-1 1Zm3 3 1-1-2-2-1 1Zm3 3 1-1-2-2-1 1Zm-15-18 1-1-2-2-1 1Zm-3-2 1-1-2-2v2Zm6 5 1-1-2-2-1 1Zm3 3 1-1-2-2-1 1Zm3 3 1-1-2-2-1 1Zm3 3 1-1-2-2-1 1Zm3 3 1-1-2-2-1 1Zm3 3 1-1-2-2-1 1Zm-18-21 1-1-2-2-1 1Zm-3-2 1-1-1-1-1 1Zm6 5 1-1-2-2-1 1Zm3 3 1-1-2-2-1 1Zm3 3 1-1-2-2-1 1Zm3 3 1-1-2-2-1 1Zm3 3 1-1-2-2-1 1Zm3 3 1-1-2-2-1 1Zm2 2 1-1-1-1-1 1Zm-20-23 1-1-2-2-1 1Zm3 3 1-1-2-2-1 1Zm3 3 1-1-2-2-1 1Zm3 3 1-1-2-2-1 1Zm12 12 1-1-2-2-1 1Zm-9-9 1-1-2-2-1 1Zm3 3 1-1-2-2-1 1Zm3 3 1-1-2-2-1 1Zm-21-21 1-1-1-1Zm3 0 1-1-2-2-1 1Zm3 3 1-1-2-2-1 1Zm3 3 1-1-2-2-1 1Zm3 3 1-1-2-2-1 1Zm12 12 1-1-2-2-1 1Zm2 2 1-1-1-1-1 1Zm-11-11 1-1-2-2-1 1Zm3 3 1-1-2-2-1 1Zm3 3 1-1-2-2-1 1Zm-15-18 1-1-2-2-1 1Zm3 3 1-1-2-2-1 1Zm3 3 1-1-2-2-1 1Zm12 12 1-1-2-2-1 1Zm3 3 1-1-2-2-1 1Zm-12-12 1-1-2-2-1 1Zm3 3 1-1-2-2-1 1Zm3 3 1-1-2-2-1 1Zm-18-18 1-1-2-2v2Zm3 0 1-1-2-2-1 1Zm3 3 1-1-2-2-1 1Zm3 3 1-1-2-2-1 1Zm12 12 1-1-2-2-1 1Zm3 3 1-1-2-2-1 1Zm2 2 1-1-1-1-1 1Zm-14-14 1-1-2-2-1 1Zm3 3 1-1-2-2-1 1Zm3 3 1-1-2-2-1 1Zm-27-24c3 0 5-2 5-6s-2-6-5-6c-2 0-4 1-5 3h-6v6h6c1 2 3 3 5 3Zm9 6 1-1-2-2v2Zm-9-8c-2 0-3-1-3-4s1-4 3-4 3 1 3 4-1 4-3 4Zm1-1c1-1 1-2 1-4 0-3-4-3-4 0Zm11 9 1-1-2-2-1 1Zm3 3 1-1-2-2-1 1Zm3 3 1-1-2-2-1 1Zm12 12 1-1-2-2-1 1Zm3 3 1-1-2-2-1 1Zm3 3 1-1-2-2-1 1Zm-15-15 1-1-2-2-1 1Zm3 3 1-1-2-2-1 1Zm3 3 1-1-2-2-1 1Zm-12-15 1-1-2-2-1 1Zm3 3 1-1-2-2-1 1Zm12 12 1-1-2-2-1 1Zm3 3 1-1-2-2-1 1Zm3 3 1-1-2-2-1 1Zm-15-15 1-1-2-2-1 1Zm3 3 1-1-2-2-1 1Zm3 3 1-1-2-2-1 1Zm10 10h1v-1Zm-19-22 1-1-2-2-1 1Zm-3-3 1-1-1-1-1 1Zm15 15 1-1-2-2-1 1Zm3 3 1-1-2-2-1 1Zm3 3 1-1-2-2-1 1Zm-15-15 1-1-2-2-1 1Zm3 3 1-1-2-2-1 1Zm3 3 1-1-2-2-1 1Zm11 11 1-1-1-1-1 1Zm-34-26c0 3 10 5 10-2v-8c0-7-10-5-10-2l1 2c0-4 7-4 7 0v8c0 4-7 4-7 0Zm2-3h5v-6h-5Zm12 6 1-1-2-2-1 1Zm12 12 1-1-2-2-1 1Zm3 3 1-1-2-2-1 1Zm3 3 1-1-2-2-1 1Zm-15-15 1-1-2-2-1 1Zm3 3 1-1-2-2-1 1Zm3 3 1-1-2-2-1 1Zm12 12 1-1-2-2-1 1Zm-24-24 1-1-1-1Zm3 0 1-1-1-1h-2Zm12 12 1-1-2-2-1 1Zm3 3 1-1-2-2-1 1Zm3 3 1-1-2-2-1 1Zm-15-15 1-1-2-2-1 1Zm3 3 1-1-2-2-1 1Zm3 3 1-1-2-2-1 1Zm12 12 1-1-2-2-1 1Zm1 1h1v-1Zm-19-22 1-1-1-1h-2Zm20 20v-2l-1 1Zm-11-11 1-1-2-2-1 1Zm3 3 1-1-2-2-1 1Zm3 3 1-1-2-2-1 1Zm-12-12 1-1-2-2-1 1Zm3 3 1-1-2-2-1 1Zm12 12 1-1-2-2-1 1Zm-15-18 1-1-1-1h-2Zm6 6 1-1-2-2-1 1Zm3 3 1-1-2-2-1 1Zm3 3 1-1-2-2-1 1Zm-9-9 1-1-2-2-1 1Zm12 12 1-1-2-2-1 1Zm2 2 1-1-1-1-1 1Zm-26-27h1l-1-1Zm0-2 1-1h-2Zm0 9h13v-6h-13Zm15 6 1-1-2-2-1 1Zm-3-3 1-1-1-1h-2Zm6 6 1-1-2-2-1 1Zm3 3 1-1-2-2-1 1Zm3 3 1-1-2-2-1 1Zm2 2 1-1-1-1-1 1Zm-24-24h2l-2-2-1 1Zm-6-6c-2 0-2-3 0-3s2 3 0 3Zm7 4 1-1h-2Zm24 24v-2l-1-1-1 1Zm-9-9 1-1-2-2-1 1Zm-3-3 1-1h-2Zm6 6 1-1-2-2-1 1Zm3 3 1-1-2-2-1 1Zm-19-19h2l-2-2-1 1Zm16 13 1-1-2-2-1 1Zm-3-3 1-1h-2Zm6 6 1-1-2-2-1 1Zm3 3v-2l-1-1-1 1Zm-27-26c0-2 3-2 3 0s-3 2-3 0Zm8 7h2l-2-2-1 1Zm-2-2 1-1h-2Zm21 18v-2h-2Zm-16-16h2l-2-2-1 1Zm-2-2 1-1h-2Zm-16-3c11 2 23 2 34 0v-6c-11 2-23 2-34 0Zm14 0c-2 0-2-3 0-3s2 3 0 3Zm7 13h9v-8h-9Zm-2-10 1-1h-2Zm9 10c0 7 11 7 11 0h-2c0 4-7 4-7 0Zm-8-9h2l-1-1Zm2-1 1-1h-2Zm12 12v-2l-1-1-1 1Zm-11-11h2l-1-1Zm-20-20c-2 0-2-3 0-3s2 3 0 3Zm28 28 1-1-1-1Zm-11-12c-2 0-2-3 0-3s2 3 0 3Zm-21 15v-2h-1c0 1 0 1 1 2Zm35-3v-2l-1-1-1 1Zm-9-9 1-1h-2Zm1 1h1v-1Zm5 5 1-1-1-1Zm-31-15c11 1 23 1 34 0v-4c-11 2-23 2-34 0Zm34 15v-2l-1-1-1 1Zm-27-26c0-2 3-2 3 0s-3 2-3 0Zm24 23 1-1-1-1Zm-7-8c0-2 3-2 3 0s-3 2-3 0Zm10 8v-2l-1-1-1 1Zm-34-16c11 1 23 1 34 0v-4c-11 2-23 2-34 0Zm14-5c-2 0-2-3 0-3s2 3 0 3Zm14 20h2c0-4 7-4 7 0h2c0-7-11-7-11 0Zm-29 0v-2c-1 1-1 1-1 2Zm32-6c-2 0-2-3 0-3s2 3 0 3Zm-24-23c4 0 4-5 0-5s-4 5 0 5Zm28 36h18v-6h-18Zm-35-26c11 1 23 1 34 0v-7c-11 2-23 2-34 0Zm4-10c-2-1-2-6 3-6s5 5 3 6h3c-2-1-1-5 1-6-3-1-4-2-5-4-2 2-5 4-9 5v4Zm16 9c-2 0-2-3 0-3s2 3 0 3Zm-20-7c11 2 23 2 34 0v-3c-11 3-23 3-34 0Zm24 5c0-2 3-2 3 0s-3 2-3 0Zm-7-6c5 0 5-7 0-7s-5 7 0 7Zm14 7c-2 0-2-3 0-3s2 3 0 3Zm-21-19c1 6 13 6 14 0Zm0-1h14v-5h-14Zm11 12h3c-2-1-2-6 3-6s5 5 3 6l4-1v-4c-4-1-7-3-9-5-1 2-2 3-5 4 2 1 3 5 1 6Zm6 0c4 0 4-5 0-5s-4 5 0 5Zm-16-18h12v-5h-12Zm0-6h12v-5h-12Zm1-6h10v-7h-10Zm-11-19c4 0 4-5 0-5s-4 5 0 5Zm11 11h10v-3c-3 1-7 1-10 0Zm-7-8c3-2 3-9 0-11l-2 2c3 1 3 6 0 7Zm3 2c3-4 3-11 0-15l-3 2c4 2 4 9 0 11Zm0 0c4 3 14 3 18 0-4-3-4-12 0-15-2-1-4-2-5-2-1 4-7 4-8 0-1 0-3 1-5 2 4 3 4 12 0 15Zm9-4c-6 0-6-7 0-7s6 7 0 7Zm0-1c4 0 4-5 0-5s-4 5 0 5Zm9 5 3-2c-4-2-4-9 0-11l-3-2c-3 4-3 11 0 15Zm-9-15c4 0 4-5 0-5s-4 5 0 5Zm12 13 2-2c-3-1-3-6 0-7l-2-2c-3 2-3 9 0 11Zm4-3c4 0 4-5 0-5s-4 5 0 5Zm-32 88 1-1-1-1-1 1Zm0-10 1-1-1-1-1 1Z"/></svg>