<svg xmlns="http://www.w3.org/2000/svg" xmlns:xlink="http://www.w3.org/1999/xlink" width="1200" height="720" fill="#961538"><path fill="#e30631" d="M0 0h1200v720H0z"/><path fill="#faf6f5" d="M0 180h1200v360H0Z"/><path fill="#fd8b32" d="M562 325v-19l-49-80c-11 7-20 15-29 24l16 17h38v9c0 3-1 5-3 6 4 2 4 10 0 12 2 1 3 3 3 6Zm-120 59h58v-31l-60-4c-1 9 0 26 2 35Zm58-39v-24l-49-20c-4 11-8 23-9 36Zm0-33c0-3 1-5 3-6-4-2-4-10 0-12-4-2-4-10 0-12l-27-23c-8 9-14 20-20 31Zm38 31h18l-18-8Zm24-1v-11l-24-22v19Zm0-47v-67l-4-22c-12 3-24 8-35 14Zm82 48h18v-8Zm-6-1 24-14v-19l-24 22Zm62 42h58c2-9 3-26 2-35l-60 4Zm-62-59 24-25c0-3 1-5 3-6-4-2-4-10 0-12-2-1-3-3-3-6v-9h38l16-17c-9-9-18-17-29-24l-49 80Zm0-30 39-75c-11-6-23-11-35-14l-14 46h10Zm62 50 58-8c-1-13-5-25-9-36l-49 20Zm0-33 44-22c-6-11-12-22-20-31l-27 23c4 2 4 10 0 12 4 2 4 10 0 12 2 1 3 3 3 6Z"/><path d="M534 385h132v-4H534Zm97-42v-84c-35 0-35-52 0-52v-3c-28-9-54 1-62 19v106Z"/><path fill="#e30631" d="M627 338v-75c-32-4-36-50-5-58-24-4-42 4-49 19v102Z"/><path id="a" d="m593 375 7-8 7 8 3-3-7-8 8-7-3-3-6 6v-10h-4v10l-6-6-3 3 8 7-7 8Z"/><g id="b"><path fill="#003396" d="M476 462h126l-2-8c-11 0-22-13-33-13s-22 13-33 13-22-13-33-13-23 13-31 13Zm-17-26h60c-7-3-20-21-34-21-12 0-20 12-30 12Zm-11-26h54c-1-4-2-11-2-20-9 2-17 12-28 12-10 0-20-10-29-12 1 6 3 14 5 20Zm152 110 2-14h-2c-11 0-22-13-33-13s-23 13-33 13c16 8 42 14 66 14Zm-96-32h98l-2-21c-11 0-22 13-33 13s-22-13-34-13c-13 0-21 13-38 13Zm71-52h27l-2-20c-14 0-15 14-25 20Zm17-26h10l-2-8c-3 0-7 3-8 8Z"/><use xlink:href="#a" x="-25"/><use xlink:href="#a" x="-50"/><path d="M546 439c24 0 40-17 40-42h-2c-6 8-17 13-29 13-15 0-24-5-24-18v-80c0-3-5-3-5-6s5-3 5-6-5-3-5-6 5-3 5-6-5-3-5-6 5-3 5-6v-3h-24v3c0 3 5 3 5 6s-5 3-5 6 5 3 5 6-5 3-5 6 5 3 5 6-5 3-5 6v86c0 24 16 41 39 41Zm15-49-20 12c13 7 33 4 44-12Z"/><path fill="#e30631" d="M546 435c20 0 35-12 37-32-3 4-15 11-28 11-16 0-28-7-28-22v-80c-6-3-6-9 0-12-6-3-6-9 0-12-6-3-6-9 0-12h-16c6 3 6 9 0 12 6 3 6 9 0 12 6 3 6 9 0 12v86c0 22 14 37 35 37Z"/></g><use xlink:href="#b" transform="matrix(-1 0 0 1 1200 0)"/></svg>