<svg xmlns="http://www.w3.org/2000/svg" width="1200" height="720"><path fill="#47a3d8" d="M327.2 0H1200v720H327.2V0Z"/><path fill="#0a1a1d" d="M729 565c16 0 16-38 38-38 26 0 56 29 81 29 24 0 6-32 34-32 22 0 59 28 81 28 19 0 10-31 32-31 13 0 48 30 71 30 16 0 11-29 27-29 26 0 44 24 78 24 10 0 18-3 21-7-2 1-6 2-16 2-36 0-58-27-85-27-21 0-13 30-28 30-7 0-18-4-27-11-1-29-19-48-40-59-8-4-9-6-7-9 20-25 39-54 53-82l18-2-5-24 13-1v-33c17-37 49-93 59-103 8-8 2-17-9-17-5 0-9 4-9 10 0 4 1 14-8 14-17 0-54-12-79-12l-35 59c0 1 3 1 6 1l73 5c5 0 0 12-21 41-32-1-73-1-78 3-5-19-10-49-13-74l8-19c19-37 55-79 69-82 9-1 16-6 16-11s-2-7-7-7c-23-7-44-15-66-24-1-2 6-26 10-31 3-4 3-9-2-12-4-4-11-4-15 0-4 3-5 10-2 12 4 2 1 3-4 2-17-3-33-2-50 2-14 4-29 4-44 0-3-1-6-2-9-2l2 5c3 7 10 13 19 15l8 2-12 3c-5 2-11 3-16 4l-5 2c10 4 15 5 22 5 28 0 49-8 78-8-21 32-117 78-117 90 0 6 8 7 8 11 0 7-13 38-21 38s-9-21-10-37c14-24 24-43 41-55 8-6 8-10 2-13-6-2-44-25-61-39 1-10 5-19 10-28 6-10 1-17-8-17s-12 8-10 14c-48-7-73 12-96 3-6-2-11-8-11-3 0 9 14 18 28 23-12 7-30 3-30 8 0 3 12 6 24 6 21 0 50-10 63-10 7 0 14 1 14 3 0 7-24 17-39 19v17c-49 55-87 65-87 75 0 6 6 8 3 12-21 27-25 40-35 63-9-27-16-55-3-74 21-31 85-59 85-70s-34-11-90-20l4-14c2-6 4-12 8-18 5-5 5-10 0-14-8-7-20-1-18 9l1 5c-32 1-74 18-91 9-4-2-8-2-8 3 0 7 8 13 18 18l-33 2c9 24 51 15 76 7 11-3 26-6 26-1s-72 51-78 55-6 9-2 12c2 2 1 4-1 6-13 13-24 50-24 65 0 6-1 7-14 21-29 29-50 52-73 86-6-6-14-9-19-4-7 7-2 17 9 17 10 0 30 11 47 19l-5 5c-11 12-6 24 10 21 14-2 36 10 59 33 37 37 56 53 106 82-12 11-52-21-75-21-29 0-28 25-43 25-16 0-38-28-69-28-22 0-34 18-54 18-15 0-23-3-36-13 5 11 24 18 36 18 22 0 36-16 55-16 36 1 47 28 68 28 20 0 18-24 43-24 21 0 47 22 70 22 15 0 24-25 40-25 28 0 58 34 82 35Z"/><path fill="#faf6f5" d="M0 240h327.2v240H0V240Z"/><path d="M301.1 379.5c-2.7 1.8-5.7 2.1-8 1-1.7-.8-1.8-.2-.5 1.4 1.1 1 2.5 1.7 4 2l5.3 1.7c3.8 1.5 7.1 1.5 9.6 0 5-2.8 1.8-7.8-5-7.8-1.8 0-3.3.5-5.3 1.7Zm14.9 6.1c-.4.6-.7 2.3-.7 3.8a39 39 0 0 1-12.6 27.6 24.1 24.1 0 0 0-3.4 3.5c0 .5 9.2.4 10.5-.2 1.1-.5 1.1-.4 1.6 1.5a10 10 0 0 0 4.2 6.5c1.2.8 1.7 1 3.1.2 2.5-1 4.1-3.4 4.5-6.2.2-2.2.4-2.6 1.2-2.2.6.2 3.5.5 6.2.6l5.1.2-2.7-2.9c-3.4-3.3-6.3-7-8.7-11a32.2 32.2 0 0 1-4.6-14.9c0-2.8-.5-5.5-.7-6.3-.6-1.5-2.2-1.6-3-.2ZM107.5 361c-.8.8-1.7 2.5-1.8 3.6l-1.6 4.3c-1.6 3.2-1.6 6 0 8.3 2.2 3 5.8 3 7.6 0 1.6-2.7 1.1-6.6-1-9.5a6.6 6.6 0 0 1-1-7.4c.9-1.5-.5-1-2.2.7Zm7.6 17.6a9 9 0 0 0-3 1.9c-3.4 4 4.5 8.5 10.1 5.7 6-3 6.3-3 9.2-2.1 2.4.7 2.5.7 2-.3-1-1.6-2.5-2.3-8.4-4.2-6.9-2-7.1-2-9.9-1Zm-23.4 1.3c-2.8 1.8-5.8 2.2-8 1-1.8-.6-2-.1-.6 1.5 1 1 2.4 1.7 4 2l5.4 1.7c3.7 1.5 6.9 1.5 9.5 0 5-2.8 1.8-7.8-5-7.8-1.8 0-3.3.5-5.3 1.7Zm14.8 6.2a10 10 0 0 0-.6 3.7c-.1 10.1-4.6 19.6-12.7 27.6a23.4 23.4 0 0 0-3.3 3.6c0 .5 9.1.3 10.4-.3 1.1-.4 1.3-.3 1.6 1.6a10 10 0 0 0 4.2 6.5c1.3.8 1.7.8 3.2.2 2.4-1 4-3.4 4.4-6.3.2-2.1.5-2.5 1.3-2.1.5.2 3.3.5 6 .6l5.2.2-2.6-2.9a51.3 51.3 0 0 1-8.8-11.2 32.3 32.3 0 0 1-4.6-14.7c0-2.9-.5-5.6-.8-6.4-.5-1.4-2-1.6-3 0Zm104.7-25.4c-.8 1-1.7 2.6-2 3.7-.2 1-.9 3.1-1.6 4.3-1.5 3.2-1.5 6 .3 8.3 2.1 3 5.7 3 7.5 0a8.8 8.8 0 0 0-1.1-9.5c-1.8-2.1-2.1-5-.8-7.4.8-1.6-.6-1.1-2.3.6Zm7.6 17.7a9 9 0 0 0-3 1.8c-3.4 4.2 4.4 8.6 10.1 5.8 6-3 6.3-3 9.2-2.2 2.4.8 2.5.8 2-.2-1-1.6-2.5-2.4-8.4-4.3-7-2-7.1-2-9.9-1Zm-23.4 1.3c-2.9 1.8-5.8 2.1-8 1-1.8-.8-2-.2-.6 1.5 1 1 2.4 1.7 4 2l5.4 1.7c3.7 1.4 6.9 1.4 9.5 0 5-2.8 1.8-7.8-5-7.8a9 9 0 0 0-5.3 1.6Zm14.7 6.2c-.3.5-.5 2.3-.5 3.7-.3 10-4.6 19.4-12.7 27.6a23.3 23.3 0 0 0-3.3 3.5c0 .6 9.1.4 10.4-.2 1.1-.5 1.2-.3 1.6 1.6a10 10 0 0 0 4.2 6.5c1.3.7 1.7.8 3.2.2 2.4-1 4-3.4 4.3-6.3.3-2.1.6-2.5 1.3-2.1.6.2 3.4.5 6.2.6l5.1.2-2.6-2.9a51.6 51.6 0 0 1-8.8-11.2 32.2 32.2 0 0 1-4.6-14.8c0-2.8-.6-5.5-.8-6.3-.6-1.5-2.2-1.6-3-.2v.1ZM6 360.4c-.8.8-1.7 2.6-2 3.6s-.9 3.1-1.6 4.3c-1.6 3.3-1.5 6 .3 8.4 2.1 3 5.7 2.8 7.4 0 1.6-2.8 1.1-6.6-1-9.6a6.6 6.6 0 0 1-.8-7.4c.8-1.5-.7-1-2.3.7Zm7.5 17.7a8.3 8.3 0 0 0-2.9 1.8c-3.4 4 4.4 8.5 10.1 5.8 6-3 6.2-3 9.2-2.2 2.2.7 2.5.7 2-.1-1-1.8-2.5-2.5-8.4-4.4-7-2-7.1-2-10-1v.1Zm301-149.1c-.4.6-.6 2.2-.6 3.8-.1 10-4.6 19.3-12.7 27.5a23.3 23.3 0 0 0-3.3 3.5c0 .6 9.1.4 10.4-.3 1.1-.4 1.3-.3 1.6 1.7a10 10 0 0 0 4.2 6.5c1.3.8 1.7.8 3.2.2 2.4-1 4-3.4 4.4-6.3.2-2.2.5-2.6 1.3-2.2.5.3 3.3.6 6.1.7l5.1.2-2.6-3a51.3 51.3 0 0 1-8.8-11.1 32.3 32.3 0 0 1-4.6-14.7c0-3-.5-5.7-.8-6.4-.5-1.5-2-1.6-3-.1Zm-209.6.3a14 14 0 0 0-.5 3.8c-.1 10-4.6 19.4-12.7 27.6a23.3 23.3 0 0 0-3.3 3.5c0 .6 9.1.4 10.5-.3 1.1-.5 1.1-.3 1.6 1.7a10 10 0 0 0 4.1 6.5c1.3.7 1.8.8 3.2 0 2.4-1 4-3.2 4.3-6.1.4-2.2.6-2.6 1.4-2.2.6.3 3.3.5 6 .7l5.3.2-2.7-3a51.6 51.6 0 0 1-8.8-11.1 32.3 32.3 0 0 1-4.5-14.8c-.2-2.8-.5-5.6-.8-6.3-.7-1.5-2.3-1.7-3-.2Zm103.7-.2c-.3.6-.6 2.2-.6 3.8 0 10-4.5 19.4-12.6 27.5a23.3 23.3 0 0 0-3.4 3.5c0 .7 9.2.5 10.6-.2 1.1-.5 1.1-.3 1.5 1.7a10 10 0 0 0 4.2 6.5c1.2.7 1.7.8 3.2 0 2.4-1 4-3.2 4.3-6.1.4-2.3.6-2.6 1.4-2.3.6.3 3.3.5 6 .7l5.2.3-2.6-3a51.6 51.6 0 0 1-8.8-11.1 32.2 32.2 0 0 1-4.4-14.8c-.2-2.8-.5-5.6-.9-6.3-.6-1.5-2-1.7-3-.2Zm-204 0c-.4.6-.7 2.2-.7 3.8A38 38 0 0 1 .1 248v17.3a10 10 0 0 0 4 6.5c1.4.8 1.9.8 3.2.2 2.5-1 4.1-3.4 4.4-6.3.3-2.2.5-2.6 1.3-2.2.6.2 3.5.5 6.2.6l5.1.3-2.7-3a51.6 51.6 0 0 1-8.7-11.1 32.3 32.3 0 0 1-4.6-14.7c0-3-.5-5.7-.8-6.4-.5-1.5-2.1-1.6-3-.1v-.1Zm260.1 212.2c-.7 1-1.7 2.5-1.9 3.7-.2 1-.9 3-1.6 4.3-1.6 3.3-1.5 6 .2 8.2 2.2 3.1 5.8 3.1 7.5 0 1.6-2.7 1.1-6.6-1-9.5a6.6 6.6 0 0 1-.8-7.4c.7-1.5-.7-1-2.3.8v-.1Zm7.6 17.6a8.4 8.4 0 0 0-2.9 1.9c-3.4 4.1 4.4 8.5 10 5.8 6.2-3.1 6.3-3.1 9.2-2.1 2.4.6 2.5.6 2-.3-1-1.7-2.4-2.4-8.4-4.2-6.8-2-7-2-10-1Zm-23.3 1.4c-2.9 1.7-5.9 2.1-8 1-1.9-.7-2-.2-.6 1.5 1 1 2.4 1.7 3.9 2 1.4.3 3.9 1 5.5 1.7 3.6 1.4 6.8 1.4 9.5 0 5-2.8 1.8-7.9-5-7.9-1.9 0-3.4.6-5.3 1.7Zm15.9 5.7c-.4.7-.7 2.3-.7 3.7 0 10-4.5 19.3-12.6 27.4a24.1 24.1 0 0 0-3.4 3.5c0 .5 9.2.3 10.5-.2 1.1-.5 1.1-.4 1.6 1.5a9.9 9.9 0 0 0 4.1 6.4c1.4.8 1.8 1 3.2.2a7 7 0 0 0 4.3-6.1c.4-2.2.6-2.6 1.4-2.2.6.2 3.4.5 6.2.6l5.1.2-2.7-2.9c-3.4-3.3-6.4-7-8.7-11a31.7 31.7 0 0 1-4.6-14.7c0-2.8-.6-5.5-.8-6.1-.6-1.6-2.2-1.7-3-.3ZM55.2 441.8c-.8 1-1.7 2.5-1.8 3.6l-1.6 4.4c-1.6 3.2-1.6 6 .1 8.2 2.2 3.1 5.7 3 7.5 0 1.6-2.7 1.2-6.5-1-9.4a6.6 6.6 0 0 1-.9-7.4c.8-1.6-.6-1.2-2.3.6Zm7.7 17.7c-1.2.4-2.5 1.2-2.9 1.8-3.4 4.1 4.4 8.4 10 5.8 6-3.1 6.2-3.1 9.1-2.2 2.4.7 2.5.7 2-.2-.8-1.6-2.4-2.5-8.4-4.3-6.9-2-7-2-9.8-1Zm-23.5 1.3c-2.8 1.8-5.8 2-8 1-1.7-.8-1.9-.3-.5 1.4 1 1 2.4 1.7 3.9 2l5.5 1.8c3.6 1.3 6.8 1.3 9.5 0 5-2.8 1.9-7.8-5-7.8a9 9 0 0 0-5.3 1.6Zm16 5.8c-.3.5-.6 2.2-.6 3.7A39.3 39.3 0 0 1 42 497.6c-1.2 1-2.3 2.1-3.2 3.3 0 .6 9.1.4 10.3-.2 1.1-.5 1.2-.3 1.7 1.7.4 2.6 2 5.1 4 6.3 1.3.9 2 .9 3.3.2 2.4-1 4-3.2 4.3-6.1.4-2.2.6-2.6 1.4-2.2.6.2 3.3.4 6.2.6l5.1.2-2.7-2.8a51 51 0 0 1-8.8-11.1 31.7 31.7 0 0 1-4.5-14.7c-.1-2.7-.6-5.5-.8-6.1-.7-1.6-2.3-1.7-3-.2Zm103.5-25c-.8 1-1.7 2.5-2 3.6-.2 1.1-.8 3-1.4 4.4-1.6 3.2-1.6 6 0 8.2 2.3 3.1 5.8 3 7.6 0 1.6-2.8 1.2-6.6-1-9.4a6.6 6.6 0 0 1-1-7.4c.9-1.6-.5-1.2-2.2.6Zm7.7 17.7a9 9 0 0 0-3 1.7c-3.4 4.1 4.3 8.6 10 5.9 6.1-3.1 6.3-3.1 9.2-2.2 2.4.7 2.5.7 2-.2-1-1.6-2.5-2.5-8.4-4.3-6.9-2-7.1-2-9.8-1Zm-23.5 1.3c-2.8 1.8-5.8 2-8 1-1.8-.8-2-.3-.5 1.4 1 1 2.4 1.7 3.9 2l5.4 1.8c3.7 1.3 6.9 1.3 9.5 0 5-2.8 1.9-7.8-4.9-7.8a9 9 0 0 0-5.4 1.6Zm16 5.7c-.4.6-.7 2.2-.7 3.8a39 39 0 0 1-12.6 27.2 23.3 23.3 0 0 0-3.4 3.5c0 .7 9.2.4 10.4-.2 1.2-.5 1.3-.3 1.6 1.7.6 2.5 2.3 5.1 4.3 6.4 1.2.8 1.7.8 3.2.2 2.4-1 4-3.4 4.3-6.2.2-2.3.6-2.6 1.4-2.3.4.3 3.2.5 6 .7l5.2.3-2.6-3a51 51 0 0 1-8.8-11 31.8 31.8 0 0 1-4.6-14.6c0-2.8-.6-5.6-.8-6.3-.6-1.5-2.2-1.7-3-.2Zm105.3-183.4c-.8.8-1.7 2.4-2 3.6-.2 1-.8 3-1.5 4.3-1.5 3.3-1.5 6 .2 8.2 2.2 3.1 5.7 3.1 7.5 0a8.8 8.8 0 0 0-1.1-9.4c-1.8-2.2-2-5-.8-7.5.8-1.5-.6-1-2.3.8Zm7.7 17.5a9 9 0 0 0-3 1.8c-3.4 4.1 4.3 8.5 10 5.8 6.1-3.1 6.3-3.1 9.2-2 2.4.5 2.5.5 2-.4-1-1.7-2.5-2.4-8.4-4.2-6.9-2-7-2-9.8-1Zm-23.5 1.3c-2.8 1.7-5.8 2.2-8 1-1.8-.7-1.9-.2-.5 1.5 1 1 2.4 1.7 3.9 2 1.3.3 3.8 1 5.4 1.7 3.7 1.4 7 1.4 9.5 0 5-2.8 1.9-7.8-4.9-7.8-2 0-3.4.5-5.3 1.6Zm14.8 6.2c-.3.6-.6 2.2-.6 3.8-.2 10-4.6 19.3-12.7 27.4a23 23 0 0 0-3.3 3.6c0 .5 9.2.3 10.4-.3 1.2-.4 1.3-.3 1.6 1.7a10 10 0 0 0 4.2 6.5c1.3.8 1.8.8 3.3.2 2.3-1 4-3.4 4.3-6.3.2-2.2.6-2.6 1.4-2.2.4.2 3.2.5 6 .7l5.2.2-2.7-3a51.3 51.3 0 0 1-8.8-11.1 32.3 32.3 0 0 1-4.5-14.7c0-3-.6-5.7-.8-6.4-.6-1.5-2.2-1.6-3-.1ZM54.9 283.3c-.8.8-1.7 2.5-1.8 3.5l-1.6 4.4c-1.6 3.2-1.6 6 0 8.2 2.4 3.1 5.8 3 7.6 0 1.6-2.6 1.2-6.5-1-9.4a6.6 6.6 0 0 1-1-7.4c.9-1.6-.5-1.2-2.2.6Zm7.7 17.6c-1.2.4-2.5 1.2-2.9 1.8-3.4 4.1 4.3 8.5 10 5.8 6-3.1 6.2-3.1 9-2.2 2.5.7 2.7.7 2.1-.2-.9-1.6-2.5-2.5-8.4-4.3-6.9-2-7.1-2-9.9-1ZM39 302.2c-2.8 1.8-5.8 2-8 1-1.7-.8-2-.3-.5 1.4 1 1 2.4 1.7 3.9 2l5.4 1.8c3.7 1.3 7 1.3 9.5 0 5.2-2.8 2-7.8-4.9-7.8a9 9 0 0 0-5.4 1.6Zm14.9 6.2c-.3.5-.7 2.3-.7 3.7-.1 10-4.6 19.4-12.7 27.6a23.3 23.3 0 0 0-3.3 3.5c0 .6 9.1.4 10.5-.3 1.2-.5 1.2-.3 1.5 1.7a10 10 0 0 0 4.2 6.5c1.3.7 1.9.8 3.2 0 2.4-1 4-3.2 4.4-6 .3-2.3.6-2.7 1.4-2.3.5.3 3.3.5 6 .6l5.2.3-2.7-3a51.6 51.6 0 0 1-8.8-11.1 32.3 32.3 0 0 1-4.4-14.8c-.3-2.8-.6-5.6-1-6.3-.5-1.5-2-1.7-3-.2h.2ZM158.6 283c-.8 1-1.7 2.5-1.8 3.6L155 291c-1.5 3.2-1.5 6 .2 8.2 2.1 3.1 5.7 3 7.5 0 1.6-2.7 1.1-6.5-1-9.4a6.6 6.6 0 0 1-1-7.4c.9-1.6-.5-1.2-2.2.6Zm7.6 17.7a9 9 0 0 0-3 1.7c-3.4 4.1 4.5 8.6 10.1 5.9 6-3.1 6.3-3.1 9.2-2.2 2.4.7 2.5.7 2-.2-.9-1.6-2.5-2.5-8.4-4.3-6.9-2-7.1-2-9.9-1Zm-23.4 1.3c-2.9 1.8-5.8 2-8 1-1.8-.8-2-.3-.6 1.4 1 1 2.4 1.7 4 2l5.4 1.8c3.7 1.3 6.9 1.3 9.5 0 5-2.8 2-7.8-5-7.8a9 9 0 0 0-5.3 1.6Zm14.9 6.2c-.5.5-.7 2.1-.7 3.7-.1 10-4.6 19.4-12.7 27.5a23.3 23.3 0 0 0-3.3 3.5c0 .7 9.1.5 10.4-.2 1.1-.5 1.2-.3 1.6 1.7a10 10 0 0 0 4.2 6.5c1.3.7 1.7.8 3.2 0 2.4-1 4-3.2 4.3-6.1.4-2.3.6-2.6 1.4-2.3.5.3 3.3.5 6 .7l5.2.2-2.6-3a51.6 51.6 0 0 1-8.8-11 32.2 32.2 0 0 1-4.6-14.8c0-2.8-.4-5.6-.8-6.3-.6-1.5-2-1.7-3-.2h.2ZM4.6 385.8c-.3.6-.6 2.4-.6 3.8A41 41 0 0 1 .3 405L0 422.2a10 10 0 0 0 4.3 6.5c1.2.8 1.7.8 3.2.2 2.4-1 4-3.4 4.3-6.3.3-2.1.6-2.5 1.4-2.1.4.2 3.3.5 6 .6l5.2.2-2.7-2.9a51.6 51.6 0 0 1-8.8-11.2 32.2 32.2 0 0 1-4.5-14.8c0-2.8-.5-5.5-.8-6.2-.6-1.6-2-1.7-3-.3Z"/><path fill="#e30631" d="M0 0h327.1v240H.1z"/><path fill="#036a4a" d="M327.1 31.2V0h-40L0 208.8V240h40L327.3 31.2Z"/><path fill="#036a4a" d="M0 31.2V0h40l287.1 208.8V240h-40.8L0 31.2Z"/><path fill="#faf6f5" d="m0 96.3 327.1-.3v47.8l-327 .3L0 96.3Z"/><path fill="#faf6f5" d="M136.7 0h53.2l.2 242.4h-53L136.7 0Z"/><path fill="#e30631" d="M0 720h327.2V480H0v240Z"/><g data-name="k"><g stroke="#961538"><path fill="#0859b9" d="M169 683.1c-1 1.5 1.6 7.7 5.6 7.5-2.6-3.8-2.2-8.3-2.2-8.3l-3.4.9Zm-9.7-6.7c-1.4.2-4.9 8.3.6 11.3 0-2.9 1-5.7 2.7-8l-2.9-2.3-.4-1Z"/><path fill="#0859b9" d="M158.5 671.6c-1.3-1.4-7.3 2.6-7 8.4 3.7-3.9 8-3.6 8-3.6l-1-4.8Zm7-4.8c-.1-1.8-5.3-3.9-8-.3 4 .4 6.1 4 6.1 4l2-3.7Zm104.5 17c-.1 1.8.3 2.3 1.2 3.4 1 .9 1.9 3.7 1.9 3.7s2.9-7.5 2.2-8.4c-.8-1-5.2 1.4-5.3 1.4Zm-15-3c-1.4-.2-4 5.9-1.8 10 1-4.8 4-6.8 4-6.8l-2.3-3.2Zm-7-1.8c-1-1.1-5.8 2.3-5.5 7.2 2.8-3.3 6.3-3 6.3-3l-.7-4.2Zm3.7-7.8c-.8-1.6-6-.4-7.2 4.6 3.7-2 6.9-.4 6.9-.4l.3-4.2Zm-177.6-3.5c.4-1.7-3.5-6.5-7.2-4.6 3.3 2.5 4.3 6.8 4.3 6.8l2.9-2.2Zm-15.4 10.8c-1.3-1.6-6.9 2.8-6.7 9.5 3.6-4.5 7.7-4 7.7-4l-1-5.5Zm.5-9.5c-.5-2-7.2-1.9-9.4 4.1 2.8-1 5.9-.4 8.1 1.3l1.3-5.4Zm6.7 17.8c-.3 1.6 0 2.3.8 3.5s1 4 1 4 4.2-6.3 3.6-7.5-5.2 0-5.4 0Zm-16.3-74.5c0-2.4-6.2-4.8-10 0 5 .3 7.5 4.5 7.5 4.5l2.5-4.5Zm-6.5 9.3c-1.4-1.7-6.9 2.8-6.7 9.4 3.6-4.4 7.7-4 7.7-4l-1-5.4Zm22.8-10.2c.7-2-4.7-7.2-9.3-4.2 4.4 2.4 5.7 7.5 5.7 7.5l3.6-3.2Zm7.5 8c1-1.2-1-7.7-4.9-8.3 2.3 4.3 1.6 8.7 1.6 8.7l3.3-.4Z"/><path fill="#fcd80e" d="M94.4 627c-4-4 0-12 3.4-8.6-1.9-3.2 1.1-5.8 2.6-4.1-.7-2.6 2.2-4.4 3.6-2-.4-2.9 3.9-4.5 5-1.4 0-2.8 4.2-5.1 5.2-1 .8-3 5.5-3.6 5.9 1 1.3-2.6 4.9-2.4 5 1.4 1.6-1.9 5.6 1 4.8 4.1 2.5-.5 5.5 4.1 2.5 7.5 5.3-2.6 6.5 5.9 3.3 9.7 1.7.9 1.8 0 3.3.8s4 1.9 6.4 2.4c2.3 0 10.2-.3 12-.5s3.8-1 6.4-1.9c2.8-.8 7-1 10.6-1.8 3-.3 85.2 1.3 87.5 1 2.5-.1 5.9-2.3 5.7-4.9s-3-4.4-5.6-4.6a174.2 174.2 0 0 0-19.4.2c-2.5.5-6.2 1.6-8 3.3-.8.5-2.3 2.5-3.5 3.8-1.1 1-4.4 1-4.4-.1 0-.8-.2 0-1.1.4-1 .6-5.6.7-5.5 0 .4-.8 0-1.1-1.2-.2-.9.7-7.3 1-8.5.2q.6-1-1.2-.1c-1.3.5-6.4 1-6.7 0 0-.8-.6-.4-1.3-.2-5.8 1.3-6.3-.2-5.4-1 .8-.7 2.2-4.7.8-4.5l-13.7 2.4c-3 .4-25.5 0-28.5-.2a7.5 7.5 0 0 1-6.7-6.8c-.4-6.2 5-7.8 8.3-8.7 3.3-1 11.5-2.4 14.7-2.4s12.6 1 15.2.1c2.5-1 10.3-3.5 12.5-3.7 3.2-.3 12.4.7 16.9 5.7-2.3 1-3.4 1.5-.8.6l14.8-2.9c8.2-.4 6.1.8 2.1 1.8-1.3 3.9-13.3 9.5-17.1 10.2-4.6.5-9.2.4-13.8-.1-1.9-.2-10.4-.6-13.6-2.5-5-3-14.4-5.3-18.5-5.2-3.9 0-14.7 1-14.7 4.7 0 6.2 10.1 6.6 14.5 6.3 4.4-.2 15.3-.7 18.4-1.9 3-1.1 9.8-1.4 13.4-1.4s9 .7 10.6.5 5.6-.3 7.3-1.4c1.8-1.3 5.8-2.4 9.8-2.4s33.7-1 37.7-.9c5.8 0 10 5.8 10 10.9 0 2.4-1.2 5.8-2.3 6.4l7.8.8c2.7.5 7.3 3.4 7.7 6-2-1.1-5.4-3-8.5-3-.6 0-65.4-.3-70.6-.2a37 37 0 0 1 27.2 17.1c2.3 3.6 8.2 2.1 10.4 1.7 2.2-.5 4.6-2.6 6.5-4.2 1.8-1.7 4.7-2.1 5.9-1.7 2.9-.2 3.3 2.6 2.2 4-1.1 1.4.2.9 3.2.9s5.5 1 7.1 3c-1.5 1.5-2.4.4 0 .6 2.2.2 5.2 4.2 3.3 5.4-1.4.7-1.9.5 0 .7 3.1.2 4 2 4.3 5.1-2.5.6-1.3-.2 0 1 1.3 1.1 3.1 6.4-1.5 6.6-1.6-.7-1.6-.8-1.1.7.2 1.7-.7 5.6-3.2 5.6-3.6.6-6.7-1.2-7.1-3.3-.3-2-.3 4.1-5.3 5.1-4.8 1-7.2-1.6-7.7-2.7-.3-1.2 0-.3-2-.6-1.7-.2-4-.2-5-3 0-1.6.3-3.8 3.6-4 1.4-.3 1.9-2.2.8-2.4s-.3-3.7 2.2-2.8c2.2 1 7.7 1.3 9 2.4 1.3 1.2 1.6-1-.4-2.8-2-2-14.1-5.6-17.4-4.2-7.7 3.5-20.4 3.1-22.6 2.6s-8.5.8-11.5-7.8c-2.2-6.8-8.2-12-15.7-13.5-20.6-1.8-19.5-.4-6.1.1-.1 1.7-.7 5 1.6 5.5 3.6-.4 11.1-2 13-.5 1.8 1.4 3.7 2.5 3.3 5.9-.4 3.3 0 2.2-1.5 3.7-1.7 1.4-.9 4.2 1.6 5.1 2.6 1 3.7 2.1 5.4 3.5 1.5 1.5-.8 4.3-2.3 3.3q-1.4-1-1.6 1c-.2 1.8-2 5.4-5.1 5.7-.6-.3-.5-1.2-.3-1.9 0-1.7-.7 2-1.6 3.1-.7.6-5.8 2-7.2 1.2.6-1.4.2-.8-1.1 0-1.1.3-7.9 1.2-4.9-1.7.8-1.2-1 1.3-2 1.7-1 .6-5 .9-5-.6-1.2 1-4.2 1-4.6.2-1-.9-1.1.8-2.7 1-1.6.3-5.2-.2-5.4-2.1-.1-1.9.4-.7-1.6-.5-4.8 3-7.3-1.2-7.3-2.6 0-1.3-.2-3.1.4-4 .5-1-3.4-1.2-2.3-3 1.5-2.3 3-4 5.6-3.5 1.2.2 1-.6.5-1.5s1.5-1.3 3.8-.4c2.4 1 4 3.3 4.8 5.4.6 2 6.3.5 8.7.7 2.3.2 2.6-3.5 1.1-4.8-1.5-1-5.5-5.3-7-6.8-1.7-1.3-.6-6.2.8-7.4 8.4-5.4 3.8-7.1.7-6.6s-11.1 3.4-13.5 6c-2.6 2.5-22.4 15.2-24.2 16.7-1.9 1.3-4.4 1.6-5.5 0-1.2-1.6-2-.4-1.7 2 1.2 5.2-2.5 10.3-8 11.4l-.6.1a7.7 7.7 0 0 1-3.7-1.4c-1.1 5-5.8 5.3-10 5 0-.7.8-1.8.4-1.4-1.5 1.7-5.7 1.5-9.5 1.3-.2-1 1.4-2.2.6-1.6-1.2 2.2-3.3 1.8-6.9 1.5 0-.4 1.7-2 1-1-1.6 1.6-4.7 1-7.2 1-.3-.3 1.2-2.7-.2-1-1.3 1.3-4.2 1.6-7 1.1-.4-1 .6-1.1 1-1.8.6-1.2-.4 0-1.4 0-1 0-2.2.2-2.7-1-.5-1-.2 1.2-.8 1.8s-1 1.9-3 2.4c-1.7.4-6.5 1-7.2-1.1-1-1-1.5-3.1-.7-4.3s-3.5 2.3-5.4 2.6c-5.3 1-6-6.8-3.5-7.5 2.2-.8 2-1.9.7-2.8-1.3-1-2-4.8-.4-6 1.7-1.2 5.5-1.8 7.8-.4 1.4.9 4.4 4 3.9 1.6-.5-1.4.6-3.3 1.7-4.1s4.1-1 5 .8c2 4.4 3.3 6.2 5.6 6.2 4.5-1.3 9.2-2.2 14-2.8 2.5-.6 16.1-1.8 16.1-3-8.2 2.6-11.5-.8-12.4-.5-.9.2-3.1-.8-3.1-1.4 0-1.5 2-1.3-.9-.8-1.8-.2-3.3-.2-4.8-2-.2-.7 2-3.7 2.7-6.2-1.9-.5-6 2.7-7.3 5.5-1-1-1.4-.1-4.8.6-1.6.6-4.2.4-5.7-.3-1.5-.8-7.1-4.8-4.5-5.2-.6-.4-1.4-.6-2-.7-2-.8-3.8-2.4-3.3-2.8-.5-.7.6-.7-.2-.8-1-.2-3.8-2.1-3-2.8-.7-.4-2.4-1-3-1.4-1.4-.7-2.6-3-2.8-4.3-1.2 0-3.7-2-2.6-2.6-1.9-1.3-3.5-3.5-2.2-4.2-1.1-.8-2-2.3-1.1-1.8-1.2-1.3-1-2.7 0-2.7s.5-3.8-1.1-3.8-4.2 1.3-6.1 0c-1.6-1-3-6-1.5-8.2 1.5-2.1 4.4-4.5 5.8-4.2 1.4.2.8.8.3-1.4-.3-2 2.1-3.7 3.7-4.1 2-1 5.6-.4 6.7.6 1.2 1 1.5 1 1.5-.7 0-1.2 1.4-1.8 2.6-2.1 2.2-.4 3.8 0 4.5 1 1 1.4 1.9 3.2.4 4.6-1.5 1.4-.2.2 2.2-.2 1.5-.6 4.2 0 4.7 1.6.6 1.6 1.1 4.4-.6 5.9-1.6 1.3-4 4.8-2.7 6 1.3 1.2 5.3 6.4 6.2 7.1.9.7 2 2.4 3.4 2l4.4-.5c5-1 7.3-1.5.8-1.3 1.6-2 4.6-2.5 5.9-2.9-1.1-1.6 3.2-5 3.2-5.6Z"/><path fill="none" stroke-width="1.08" d="M94.4 646.2c-3.6-.6-12.3 6.6-9.6 15.5"/><path fill="none" stroke-width=".99" d="M117.6 649.9c.4 3.6.6 13.8-3.4 16.5-3.9 2.4-8.7 3-13 1.6"/><path fill="none" d="M108.7 655.6c-.5 3.5-4.4 12.3-11.9 11.3m-49-49.8c4 .4 5.9 3.2 6.7 5.8l1.6 4m-4.8 10.9c1.6.7 4.7 0 4.7 0"/><path fill="none" stroke-width=".91" d="M52.8 641.6c3.8 1 7.4-.7 7.4-.7"/><path fill="none" d="M70.3 657.3c4-1 6.5-3.2 6.5-3.2M66 615.5c-2.2 2.6-2 7.2-2 7.2m48.3-7c.6 4.7-1.6 7.2-3 7.2s-3 1.8-2.2 4.6m11.1-12.5a11 11 0 0 0-2.2 9.7c.8 3 0 3.8 0 3.8"/><path fill="none" stroke-width="1.24" d="M88.3 641.7c-4.4 1.2-6.3 8.8-4 13"/><path fill="none" d="M129.5 630.9h-3s-2 4-5.4 2.9c-3.3-1-.2 0-.2 0m-8-6.2c4.9 0 4 3.7.3 3.3.3 4.3-5.2 3.8-4.7.5-3.4 0-4.8-4.4 0-3.7m118.3 3.2c1-2.8 5.5-5.4 5.5-5.4m-12.2 5.2c2-3.2 5.6-5.3 5.6-5.3m-15.2 5.7c3-1.8 3.9-2.4 4.9-3.3l3-2.8"/><path fill="none" stroke-width=".95" d="M202 631c2.3-1 4-1.8 5.5-2.8 1.8-1.1 3.1-2.8 3.1-2.8"/><path fill="none" d="M203.8 622.1c-7-2.3-10-6.6-10-6.6m21.8-2.8c-4.7 1.8-14 1-14.4 1m-69.5 56c1.4-4.6 4-5.7 7.2-7.2 3.3-1.3 8.6-5.2 5.3-2.3-3.2 2.8-7.7 4.7-9.3 5.7s-2.5 3.2-1.7 4.3"/><path fill="none" stroke-linecap="round" d="M125 652.3c3 4.6 1.2 11-2.6 12.8"/><path fill="none" d="M135 636.5c4.8 1.8 5 6.2 5.6 8.8-1.7-.7-2.9-.4-4.2-1"/><path fill="none" stroke-width=".91" d="M133 639c3.4 4.2 4.5 6.7 4.7 8.2.3 2.5.3 8.8-7.3 8.7.6-1.9 1.5-6.9.3-8.8"/><path fill="none" d="M131.3 651.5c0 4.2-3.1 5.8-4.5 6.3m-7.3-24.4c.1 4.8-9.3 8.4-9 1"/><path fill="none" stroke-width="1.01" d="M110.4 634.7c-.3 3.5-5.5 4.3-7.3 1.2-1.4-2-2.2-3-3.3-3.3-.9-.3-.8-3.2-1-3.7l-1.1-2.7"/><path fill="#0859b9" stroke-width="1.05" d="M102.8 635.7c2.4 4 8.2 1.6 9.7 3.1 1.5 1.7-1.4 7.2-2.4 10.4-2.2 2.7-7 2.5-8.7.5 1-3.8 1-11.9 1.2-12l.2-2Z"/><path fill="none" d="M59.3 612.6c.4 2.4-.3 2.9-.8 4.9s.2 5.6.2 5.6m-.5 53.7c2-.6 6.1 0 6.1 0m1.3 6c1-2 4-3.8 4-3.8m18.2 6.5c1-1.2 1-5.4 1-5.4m6.2 5.4c1.6-1.7 1.7-5.3 1.7-5.3m4.1 5.2c1.5-2.8 1.3-6 1.3-6m7.7 6.3c1-1.5 1-5.1 1-5.1m63.1-3c-3.5-.8-5.7 3.8-5.7 3.8m10.4-4.5c-.3 3.3-3.1 6.4-3.1 6.4m8.8-6.8c-.3 3-3.4 6.7-3.4 6.7m10.3-7.7c-.5 3.7-3.3 6.5-3.3 6.5m8.5-7.8c.2 3.3-1.6 8.3-2.8 9.4m8.8-8c.7 1.8 0 4.4 0 4.4m-38.6-11.4c2.4.5 3.7 3.1 3.7 3.1m-7.7 3.3c1.2-4 6.6-2 7.3-1m94.2-17.6c-2-.2-5 .8-5 .8m14.2 2.8c-2.7 1-6 1.3-6 1.3m9.6 4.6c-2.3-.3-4.1-.3-4.1-.3m8.7 5.9c-2.4-.3-6.2 0-6.2 0m4.5 7.2c-1-2-3.4-2.7-3.4-2.7m-20 7.4c.5-3.1 4.4-5.5 6.6-5.5h2.3m-12.2-1.2c2.4-.9 6.2-1 6.2-1M96.3 664.5c2.4-1.8 4.2-5.5 4.2-5.5m24.8-39.2a54 54 0 0 0-2.7 2.6m5 1.7c-3.2.3-3.3.2-3.3.2"/><path fill="none" stroke-width="1.13" d="M116.3 622.5c2.3-.8 7.8-.2 7.8 1.7 0 2.3-2.2 2.4-7.8.3v-2Z"/><path fill="none" stroke-width=".92" d="M109 622.7c.2-2.7-5.5-5.3-6.9-3.9-1.6 2.6 3.1 4.8 4.5 4.8 1 0 .4.2.4.2"/><path fill="none" d="M124.4 632.9c-2.2 5.5-.3 10.7-.3 10.7m-25.2-9.3c-1.7 1.3-3.3 1-3.3 1"/></g><path fill="none" stroke="#961538" d="M90 635.6c-6.7 3.3-7.8 6.2-6.7 13"/><path fill="none" stroke="#961538" stroke-width="1.2" d="M134.8 626.3c-1.9.9-1.5 5-1.5 5"/><path fill="none" stroke="#961538" stroke-width="1.05" d="M94.6 620.6c2 1.2 1.1 5.2 1.1 5.2"/><path fill="none" stroke="rgba(150 21 56 .1)" stroke-width="2.12" d="m237.8 637.5-18.9-.5c-5 0-13.3-.3-18.7-.4"/><path fill="none" stroke="#961538" stroke-width="1.05" d="M102.5 634.5c-.3 5.2-3.4 7.8-3.4 7.8"/><path fill="none" stroke="#961538" stroke-width="1.16" d="M99.4 632.1a17 17 0 0 0 .4 10"/><path fill="none" stroke="#961538" stroke-width="1.05" d="M114.4 638.6c-.3 5 2.3 8.2 2.3 8.2"/><path fill="none" stroke="#961538" stroke-width="1.16" d="M117.6 636.8c1 5.7-1.5 9.7-1.5 9.7"/><path fill="none" stroke="#961538" d="M135.7 633.6c.6.3 2.1 0 4.9 1-1.1 1.6-4.1 2.6-5.3 2"/><path fill="none" stroke="#961538" stroke-linecap="round" d="M142.6 667.3c-3.4 1-5 1.3-6.1.3"/><path fill="none" stroke="#961538" stroke-linecap="round" stroke-width=".96" d="M146.3 664.6c-3 1.2-4.6 1.6-6.2.7"/><path fill="none" stroke="#961538" stroke-linecap="round" stroke-width=".79" d="M151.4 661.5c-2 1-3 1.4-4 .5"/><path fill="none" stroke="#961538" stroke-linecap="round" stroke-width=".87" d="M154.9 659c-2.5 1-3.8 1.4-5 .5"/><path fill="none" stroke="#961538" d="M59 612.6c.3 2.4-.2 2.9-.9 4.9s.2 5.6.2 5.6m8.1-7.6c-2.2 2.6-1.8 7.2-1.8 7.2"/><path fill="none" stroke="#961538" stroke-width="1.01" d="M48.2 616.6c4 .3 6 3.3 6.8 5.8l1.5 4"/></g><g stroke="#961538" data-name="k"><path fill="#0859b9" d="M169 581.3c-1 1.5 1.6 7.7 5.6 7.5-2.6-3.9-2.2-8.3-2.2-8.3l-3.4.8Zm-9.7-6.7c-1.4.2-4.9 8.3.6 11.3 0-3 1-5.7 2.7-8l-2.9-2.3-.4-1Z"/><path fill="#0859b9" d="M158.5 569.8c-1.3-1.4-7.3 2.5-7 8.4 3.7-3.9 8-3.6 8-3.6l-1-4.8Zm7-4.8c-.1-1.9-5.3-4-8-.3 4 .4 6.1 4 6.1 4l2-3.7ZM270 582c-.1 1.8.3 2.3 1.2 3.3 1 1 1.9 3.8 1.9 3.8s2.9-7.5 2.2-8.4c-.8-1-5.2 1.3-5.3 1.3Zm-15-3c-1.4-.3-4 5.8-1.8 10 1-4.8 4-6.9 4-6.9L255 579Zm-7-1.8c-1-1.2-5.8 2.3-5.5 7.2 2.8-3.3 6.3-3 6.3-3l-.7-4.2Zm3.7-7.9c-.8-1.5-6-.3-7.2 4.7 3.7-2 6.9-.4 6.9-.4l.3-4.3ZM74.1 566c.4-1.7-3.5-6.5-7.2-4.6 3.3 2.5 4.3 6.8 4.3 6.8l2.9-2.2Zm-15.4 10.8c-1.3-1.6-6.9 2.8-6.7 9.5 3.6-4.5 7.7-4 7.7-4l-1-5.5Zm.5-9.5c-.5-2.1-7.2-1.9-9.4 4.1 2.8-1 5.9-.4 8.1 1.3l1.3-5.4ZM66 585c-.3 1.6 0 2.3.8 3.4s1 4.2 1 4.2 4.2-6.4 3.6-7.6-5.2 0-5.4 0Zm-16.3-74.5c0-2.4-6.2-4.8-10 0 5 .3 7.5 4.5 7.5 4.5l2.5-4.5Zm-6.5 9.3c-1.4-1.7-6.9 2.8-6.7 9.4 3.6-4.4 7.7-4 7.7-4l-1-5.4Zm22.8-10.2c.7-2-4.7-7.2-9.3-4.2 4.4 2.4 5.7 7.4 5.7 7.4l3.6-3.1Zm7.5 8c1-1.2-1-7.7-4.9-8.3 2.3 4.3 1.6 8.7 1.6 8.7l3.3-.4Z"/><path fill="#fcd80e" d="M94.4 525.3c-4-4.2 0-12.1 3.4-8.7-1.9-3.2 1.1-5.8 2.6-4.1-.7-2.6 2.2-4.4 3.6-2-.4-2.9 3.9-4.5 5-1.5 0-2.7 4.2-5 5.2-.9.8-3 5.5-3.6 5.9 1 1.3-2.6 4.9-2.4 5 1.4 1.6-1.9 5.6 1 4.8 4.1 2.5-.5 5.5 4.1 2.5 7.4 5.3-2.5 6.5 6 3.3 9.8 1.7.9 1.8 0 3.3.8s4 1.9 6.4 2.4c2.3 0 10.2-.3 12-.5s3.8-1 6.4-2c2.8-.7 7-.8 10.6-1.7 3-.3 85.2 1.3 87.5 1 2.5-.1 5.9-2.3 5.7-4.9s-3-4.4-5.6-4.6a174.2 174.2 0 0 0-19.4.2c-2.5.5-6.2 1.6-8 3.3-.8.5-2.3 2.4-3.5 3.8-1.1 1-4.4 1-4.4-.1 0-.8-.2 0-1.1.4-1 .6-5.6.7-5.5 0 .4-.8 0-1.1-1.2-.2-.9.7-7.3 1-8.5.2q.6-1-1.2-.1c-1.3.5-6.4 1-6.7 0 0-.8-.6-.4-1.3-.2-5.8 1.3-6.3-.2-5.4-1 .8-.7 2.2-4.7.8-4.5l-13.7 2.4c-3 .4-25.5 0-28.5-.2a7.5 7.5 0 0 1-6.7-6.8c-.4-6.2 5-7.8 8.3-8.7 3.3-1 11.5-2.4 14.7-2.4s12.6 1 15.2.1 10.3-3.5 12.5-3.7c3.2-.3 12.4.7 16.9 5.7-2.3 1-3.4 1.5-.8.6l14.8-2.9c8.2-.4 6.1.8 2.1 1.8-1.3 3.9-13.3 9.5-17.1 10.2-4.6.5-9.2.4-13.8-.1-1.9-.2-10.4-.6-13.6-2.5-5-3.1-14.4-5.3-18.5-5.2-3.9 0-14.7 1-14.7 4.7 0 6.2 10.1 6.6 14.5 6.3 4.4-.2 15.3-.7 18.4-1.9s9.8-1.4 13.4-1.4 9 .7 10.6.5 5.6-.3 7.3-1.5c1.8-1.2 5.8-2.3 9.8-2.3s33.7-1 37.7-.9c5.8 0 10 5.8 10 10.9 0 2.4-1.2 5.8-2.3 6.4l7.8.8c2.7.5 7.3 3.4 7.7 6-2-1.1-5.4-3-8.5-3.1-.6 0-65.4-.2-70.6-.1a37 37 0 0 1 27.2 17.1c2.3 3.5 8.2 2.1 10.4 1.7 2.2-.5 4.6-2.6 6.5-4.2 1.8-1.7 4.7-2.1 5.9-1.7 2.9-.2 3.3 2.6 2.2 4-1.1 1.4.2.9 3.2.9s5.5 1 7.1 3c-1.5 1.5-2.4.4 0 .6 2.2.2 5.2 4.2 3.3 5.4-1.4.7-1.9.5 0 .7 3.1.2 4 2 4.3 5.1-2.5.6-1.3-.2 0 1 1.3 1.1 3.1 6.4-1.5 6.6-1.6-.7-1.6-.9-1.1.7.2 1.6-.7 5.6-3.2 5.6-3.6.6-6.7-1.2-7.1-3.3-.3-2-.3 4.1-5.3 5.1-4.8 1-7.2-1.6-7.7-2.8-.3-1 0-.2-2-.5-1.7-.2-4-.2-5-3 0-1.6.3-3.8 3.6-4.1 1.4-.2 1.9-2 .8-2.3s-.3-3.7 2.2-2.8c2.2 1 7.7 1.3 9 2.4 1.3 1.2 1.6-1-.4-2.8-2-2-14.1-5.7-17.4-4.2-7.7 3.5-20.4 3.1-22.6 2.6s-8.5.8-11.5-7.8c-2.2-6.8-8.2-12-15.7-13.5-20.6-1.9-19.5-.4-6.1.1-.1 1.7-.7 5 1.6 5.5 3.6-.4 11.1-2 13-.5 1.8 1.4 3.7 2.5 3.3 5.9-.4 3.3 0 2.2-1.5 3.7-1.7 1.4-.9 4.2 1.6 5.1 2.6 1 3.7 2.1 5.4 3.5 1.5 1.5-.8 4.3-2.3 3.3q-1.4-1-1.6 1c-.2 1.8-2 5.4-5.1 5.6-.6-.2-.5-1-.3-1.8 0-1.7-.7 2-1.6 3-.7.7-5.8 2-7.2 1.3.6-1.4.2-.8-1.1 0-1.1.3-7.9 1.2-4.9-1.7.8-1.2-1 1.3-2 1.7-1 .6-5 .9-5-.6-1.2 1-4.2 1-4.6.2-1-.9-1.1.7-2.7 1-1.6.3-5.2-.3-5.4-2.1-.1-1.9.4-.7-1.6-.5-4.8 3-7.3-1.2-7.3-2.6 0-1.3-.2-3.1.4-4 .5-1-3.4-1.2-2.3-3 1.5-2.3 3-4 5.6-3.5 1.2.2 1-.6.5-1.5s1.5-1.3 3.8-.4c2.4 1 4 3.3 4.8 5.4.6 2 6.3.5 8.7.7 2.3.2 2.6-3.5 1.1-4.8-1.5-1.1-5.5-5.3-7-6.8-1.7-1.3-.6-6.2.8-7.4 8.4-5.4 3.8-7.2.7-6.6-3.1.5-11.1 3.4-13.5 6-2.6 2.5-22.4 15.2-24.2 16.7-1.9 1.3-4.4 1.6-5.5 0-1.2-1.6-2-.4-1.7 2 1.2 5.2-2.5 10.3-8 11.4l-.6.1a7.7 7.7 0 0 1-3.7-1.4c-1.1 5-5.8 5.3-10 5 0-.7.8-1.8.4-1.4-1.5 1.7-5.7 1.5-9.5 1.3-.2-1 1.4-2.3.6-1.6-1.2 2.1-3.3 1.8-6.9 1.5 0-.4 1.7-2 1-1-1.6 1.5-4.7 1-7.2 1-.3-.3 1.2-2.7-.2-1-1.3 1.3-4.2 1.5-7 1.1-.4-1 .6-1.1 1-1.8.6-1.2-.4 0-1.4 0-1 0-2.2.2-2.7-1-.5-1-.2 1.2-.8 1.8s-1 1.9-3 2.4c-1.7.4-6.5 1-7.2-1.2-1-1-1.5-3-.7-4.2s-3.5 2.3-5.4 2.6c-5.3 1-6-6.8-3.5-7.5 2.2-.8 2-2 .7-2.8-1.3-1-2-4.8-.4-6 1.7-1.2 5.5-1.8 7.8-.4 1.4.9 4.4 4 3.9 1.6-.5-1.4.6-3.3 1.7-4.1 1.1-.9 4.1-1 5 .8 2 4.3 3.3 6.2 5.6 6.2 4.5-1.3 9.2-2.2 14-2.8 2.5-.6 16.1-1.8 16.1-3-8.2 2.6-11.5-.8-12.4-.5-.9.2-3.1-.8-3.1-1.4 0-1.5 2-1.3-.9-.8-1.8-.2-3.3-.2-4.8-2-.2-.8 2-3.7 2.7-6.2-1.9-.5-6 2.7-7.3 5.4-1-1-1.4 0-4.8.7-1.6.6-4.2.4-5.7-.3-1.5-.8-7.1-4.8-4.5-5.2-.6-.4-1.4-.6-2-.7-2-.9-3.8-2.4-3.3-2.8-.5-.7.6-.7-.2-.8-1-.3-3.8-2.1-3-2.8-.7-.4-2.4-1-3-1.4-1.4-.7-2.6-3-2.8-4.3-1.2 0-3.7-2-2.6-2.6-1.9-1.3-3.5-3.5-2.2-4.2-1.1-.9-2-2.3-1.1-1.8-1.2-1.3-1-2.7 0-2.7s.5-3.8-1.1-3.8-4.2 1.3-6.1 0c-1.6-1-3-6-1.5-8.2 1.5-2.1 4.4-4.5 5.8-4.2 1.4.2.8.7.3-1.4-.3-2.1 2.1-3.7 3.7-4.2 2-.9 5.6-.3 6.7.7 1.2 1 1.5 1 1.5-.8 0-1.1 1.4-1.7 2.6-2 2.2-.4 3.8 0 4.5.9 1 1.5 1.9 3.3.4 4.7-1.5 1.4-.2.2 2.2-.3 1.5-.5 4.2.1 4.7 1.7.6 1.6 1.1 4.4-.6 5.9-1.6 1.3-4 4.8-2.7 6 1.3 1.2 5.3 6.4 6.2 7 .9.8 2 2.5 3.4 2.2l4.4-.7c5-1 7.3-1.4.8-1.2 1.6-2 4.6-2.5 5.9-2.9-1.1-1.6 3.2-5 3.2-5.6Z"/><path fill="none" stroke-width="1.08" d="M94.4 544.4c-3.6-.6-12.3 6.6-9.6 15.4"/><path fill="none" stroke-width=".99" d="M117.6 548c.4 3.7.6 14-3.4 16.6-3.9 2.4-8.7 3-13 1.5"/><path fill="none" d="M108.7 553.8c-.5 3.5-4.4 12.3-11.9 11.3m-49-49.8c4 .4 5.9 3.2 6.7 5.8l1.6 4M51.3 536c1.6.7 4.7 0 4.7 0"/><path fill="none" stroke-width=".91" d="M52.8 539.8c3.8 1 7.4-.7 7.4-.7"/><path fill="none" d="M70.3 555.5c4-1 6.5-3.2 6.5-3.2M66 513.7c-2.2 2.6-2 7.2-2 7.2m48.3-7c.6 4.6-1.6 7.2-3 7.2s-3 1.8-2.2 4.6m11.1-12.5a11 11 0 0 0-2.2 9.7c.8 3 0 3.8 0 3.8"/><path fill="none" stroke-width="1.24" d="M88.3 540c-4.4 1-6.3 8.7-4 12.8"/><path fill="none" d="M129.5 529h-3s-2 4.1-5.4 3c-3.3-1-.2 0-.2 0m-8-6.2c4.9 0 4 3.7.3 3.3.3 4.3-5.2 3.8-4.7.5-3.4 0-4.8-4.4 0-3.7m118.3 3.2c1-2.8 5.5-5.4 5.5-5.4m-12.2 5.1c2-3.2 5.6-5.2 5.6-5.2m-15.2 5.7c3-1.8 3.9-2.4 4.9-3.3l3-2.8"/><path fill="none" stroke-width=".95" d="M202 529.2c2.3-1 4-1.8 5.5-2.8 1.8-1.2 3.1-2.8 3.1-2.8"/><path fill="none" d="M203.8 520.3c-7-2.3-10-6.6-10-6.6m21.8-2.8c-4.7 1.7-14 1-14.4 1m-69.5 56c1.4-4.7 4-5.7 7.2-7.2 3.3-1.3 8.6-5.2 5.3-2.3-3.2 2.8-7.7 4.6-9.3 5.7s-2.5 3.2-1.7 4.3"/><path fill="none" stroke-linecap="round" d="M125 550.4c3 4.7 1.2 11-2.6 12.8"/><path fill="none" d="M135 534.6c4.8 2 5 6.2 5.6 9-1.7-.8-2.9-.5-4.2-1.1"/><path fill="none" stroke-width=".91" d="M133 537.2c3.4 4.2 4.5 6.7 4.7 8.2.3 2.5.3 8.8-7.3 8.7.6-1.9 1.5-6.9.3-8.8"/><path fill="none" d="M131.3 549.7c0 4.1-3.1 5.8-4.5 6.3m-7.3-24.5c.1 4.9-9.3 8.5-9 1"/><path fill="none" stroke-width="1.01" d="M110.4 532.9c-.3 3.5-5.5 4.3-7.3 1.2-1.4-2-2.2-3-3.3-3.3-.9-.3-.8-3.2-1-3.7l-1.1-2.7"/><path fill="#0859b9" stroke-width="1.05" d="M102.8 534c2.4 3.8 8.2 1.5 9.7 3 1.5 1.7-1.4 7.1-2.4 10.3-2.2 2.7-7 2.5-8.7.6 1-3.8 1-12 1.2-12.1l.2-1.9Z"/><path fill="none" d="M59.3 510.8c.4 2.4-.3 2.9-.8 4.8s.2 5.7.2 5.7m-.5 53.7c2-.6 6.1 0 6.1 0m1.3 6c1-2 4-3.8 4-3.8m18.2 6.5c1-1.2 1-5.4 1-5.4m6.2 5.4c1.6-1.8 1.7-5.3 1.7-5.3m4.1 5.2c1.5-2.8 1.3-6.1 1.3-6.1m7.7 6.4c1-1.6 1-5.2 1-5.2m63.1-3c-3.5-.7-5.7 3.9-5.7 3.9m10.4-4.6c-.3 3.3-3.1 6.4-3.1 6.4m8.8-6.7c-.3 3-3.4 6.7-3.4 6.7m10.3-7.7c-.5 3.7-3.3 6.5-3.3 6.5m8.5-7.9c.2 3.3-1.6 8.4-2.8 9.4m8.8-7.9c.7 1.8 0 4.3 0 4.3m-38.6-11.3c2.4.5 3.7 3 3.7 3m-7.7 3.4c1.2-4 6.6-2 7.3-1m94.2-17.6c-2-.2-5 .8-5 .8m14.2 2.8c-2.7 1-6 1.2-6 1.2m9.6 4.7c-2.3-.3-4.1-.3-4.1-.3m8.7 5.9c-2.4-.3-6.2 0-6.2 0m4.5 7.2c-1-2-3.4-2.7-3.4-2.7m-20 7.4c.5-3.1 4.4-5.5 6.6-5.5h2.3m-12.2-1.2c2.4-.9 6.2-1 6.2-1M96.3 562.7c2.4-1.8 4.2-5.5 4.2-5.5m24.8-39.2a54 54 0 0 0-2.7 2.5m5 1.8c-3.2.3-3.3.2-3.3.2"/><path fill="none" stroke-width="1.13" d="M116.3 520.7c2.3-.8 7.8-.2 7.8 1.6 0 2.4-2.2 2.5-7.8.4v-2Z"/><path fill="none" stroke-width=".92" d="M109 521c.2-2.8-5.5-5.5-6.9-4-1.6 2.6 3.1 4.7 4.5 4.7 1 0 .4.2.4.2"/><path fill="none" d="M124.4 531c-2.2 5.6-.3 10.8-.3 10.8m-25.2-9.3c-1.7 1.3-3.3 1-3.3 1"/><path fill="none" d="M90 533.8c-6.7 3.3-7.8 6.2-6.7 13"/><path fill="none" stroke-width="1.2" d="M134.8 524.5c-1.9.9-1.5 5-1.5 5"/><path fill="none" stroke-width="1.05" d="M94.6 518.7c2 1.3 1.1 5.3 1.1 5.3m6.8 8.7c-.3 5.1-3.4 7.8-3.4 7.8"/><path fill="none" stroke-width="1.16" d="M99.4 530.3a17 17 0 0 0 .4 10"/><path fill="none" stroke-width="1.05" d="M114.4 536.8c-.3 5 2.3 8.2 2.3 8.2"/><path fill="none" stroke-width="1.16" d="M117.6 535c1 5.6-1.5 9.7-1.5 9.7"/><path fill="none" d="M135.7 531.8c.6.3 2.1 0 4.9 1-1.1 1.6-4.1 2.6-5.3 2"/><path fill="none" stroke-linecap="round" d="M142.6 565.5c-3.4 1-5 1.3-6.1.2"/><path fill="none" stroke-linecap="round" stroke-width=".96" d="M146.3 562.8c-3 1.2-4.6 1.6-6.2.7"/><path fill="none" stroke-linecap="round" stroke-width=".79" d="M151.4 559.6c-2 1-3 1.5-4 .6"/><path fill="none" stroke-linecap="round" stroke-width=".87" d="M154.9 557.2c-2.5 1-3.8 1.4-5 .5"/><path fill="none" d="M59 510.8c.3 2.4-.2 2.9-.9 4.8s.2 5.7.2 5.7m8.1-7.6c-2.2 2.6-1.8 7.2-1.8 7.2"/><path fill="none" stroke-width="1.01" d="M48.2 514.8c4 .3 6 3.3 6.8 5.8l1.5 4"/></g><path d="M317 360.5c-.8.8-1.7 2.6-2 3.6s-.9 3.1-1.5 4.3c-1.7 3.3-1.5 6 .2 8.4 2.2 3 5.7 2.8 7.4 0 1.6-2.8 1.1-6.6-.9-9.6a6.6 6.6 0 0 1-1-7.4c.9-1.5-.6-1-2.2.7Zm7.5 17.7a8.3 8.3 0 0 0-2.8 1.8c-3.5 4 4.3 8.5 10 5.8 6-3 6.2-3 9.2-2.3 2.4.8 2.5.8 2 0-1-1.8-2.5-2.5-8.4-4.4-6.9-2-7.1-2-10-1v.1Z"/><path fill="#fcd80e" d="M762 501c112 0 240-16 274-118h-61c-40 49-130 85-214 85-92 0-169-43-183-101h-54c0 30 7 37 7 55 0 4-3 7-7 7-13 0-47-24-63-24-9 0-18 5-23 12-3 4-1 6 2 5s7-3 12-3c19 0 67 24 83 33 74 40 151 49 227 49ZM392 381c7 0 7-10 0-10s-7 10 0 10Zm58 21c4-2 4-2 1-3-2 0-13-5-25-10-17-8-22-10-23-8-1 1 5 5 21 12 20 10 23 11 26 9Zm181 72v-18h14v18ZM521 355v-14h15v14Zm-8 6h83v-27h-83Zm36-6v-14h14v14Zm177 203c19 0 11-38 43-38 28 0 58 30 77 30 15 0 7-17 18-28l-10 1c15-5 25-9 34-6 38-7 60-10 69-26-24 9-48 15-73 16 27-4 79-18 91-33l3-9c-62 32-132 41-216 41-78 0-162-11-229-50-22-11-61-32-81-32-6 0-9 1-9 2 0 2 4 1 9 1 23 0 50 33 96 52 37 15 87 27 86 29s-29-4-54-13c-31-11-59-25-60-24-4 4 24 22 49 32s36 11 35 12c-2 2-28-5-59-19l10 9c16 13 38 26 63 38 10-12 18-19 30-19 27 0 61 34 78 34ZM576 355v-14h14v14Zm-30-26c5 0 5-2 11-22 0-3 0-4-3-6-4-1-3-3-12 26 0 2 0 2 4 2Zm208 165v-18h14v18ZM507 319c3 0-2-10 3-10 4 0-1-14 4-14 3 0 2 7 4 7 3 0 0-19 3-19 2 0 1 14 3 14 4 0 3-23 6-23 2 0 1 19 5 19 2 0 1-20 3-20s2 21 5 21c4 0 1-22 4-22s1 24 7 24c3 0 1-25 3-25s0 29 5 29c4 0 2-18 4-18 4 0 0 23 5 23 2 0 2-15 4-15 3 0 1 23 4 23 2 0 2-6 2-14 0-54 38-98 63-118 12-9 19-16 16-16-9 0-29 19-49 39 24-29 35-38 32-39s-23 18-41 36c18-20 27-31 25-32s-5 2-39 34c24-26 25-29 23-30s-9 5-33 29c14-16 20-24 18-25s-16 13-25 21c9-10 14-16 13-17-2-2-15 9-21 15 3-5 7-11 6-12-2-2-14 13-16 11-1-1 4-4 4-6s-7 1-11 5c-2 2-4 2-2 0 3-3-2-3-7 2-3 3-5 4-4 1 2-5-6 0-10 4-17 14-26 50-26 78 0 18 6 40 10 40Zm253 145c84 0 172-34 209-81h-5c-39 43-125 74-204 74-84 0-157-38-172-90h-6c13 56 88 97 178 97Zm-84-26 7-21c4-12 8-24 4-26s-6 0-14 24l-6 18c0 3 4 4 9 5Zm237 88c7-2 18-9 25-16-13 4-30 7-45 9 5 1 12 3 20 7Zm-39-47v-18h14v18Zm-67-39c-16-33-27-74-27-110 0-59 12-112 56-163 9-11 9-12-1-8-4 1-9 8-28 33l-24 31c-1 0 3-5 26-39l13-20-6 2c-4 1-8 6-23 28-11 15-19 26-20 26l19-30c6-10 11-18 11-19-2-1-8 5-22 25-15 20-24 31-18 22l26-42c-3-2-10 5-21 22-7 11-14 19-14 19l9-17 10-17c0-4-5 1-15 17l-13 17c-1 0 3-7 8-15 8-15 9-19 2-13l-11 15c-5 8-9 13-9 13s2-5 6-12c7-15 7-14 4-13-4 4-8 8-11 13-4 7-8 12-9 12 0 0 2-4 4-10 6-12 6-12 2-10-2 0-5 5-8 9-6 10-8 10-3 0 3-6 3-6 0-5-2 1-5 4-7 8-3 6-6 7-3 0 4-8 0-6-8 4l-3 4 2-5c1-2 1-4 1-4-1-1-8 2-8 3 0 3-1 5-2 0-4 1-9 3-13 5-40 16-58 82-58 125 0 48 14 67 22 67 7 0 8-24 15-24 4 0 4 7 7 7s3-8 6-8c2 0 4 3 7 3 5 0-1-11 3-11 5 0 5 12 12 12 4 0-1-14 2-14 4 0 15 19 18 19 5 0-6-29-4-29 3 0 11 35 19 35 7 0-11-47-6-47 4 0 16 54 24 54 7 0-15-56-10-57s18 62 24 61-16-63-11-64 13 67 31 76c12 6-29-81-18-81 6 0 16 85 45 100ZM522 193c2 1 20-4 123-32 49-14 54-16 54-18 0-1 0-2-1-2-2-1 0-1-65 15l-73 19c-36 9-37 9-39 13-1 3-1 4 1 5Zm-18-67c5 5 14 8 21 8 21 0 44-12 65-12 6 0 11 2 16 1s9-16 9-24c0-4-3-5-7-5-14 0-54 13-72 13-14 0-17-5-20-3s13 14 29 16c-12 4-27 6-41 6Zm346 315c0 1 3 1 6 0l6-2 10-31c6-17 10-32 10-32-1 0-3 1-7 3-5 2-5 3-15 32-6 16-10 30-10 30Zm71 88c13 7 29 15 41 15s10-30 28-30 34 13 42 18c1-24-21-49-29-49-2 0-4 1-8 7 2-4 5-11 4-12s-6 1-18 16c7-12 9-17 7-18s-4 6-18 21c9-14 14-20 12-21s-11 11-27 25c-9 9-21 19-34 28ZM618 88c8 0 8-11 0-11s-8 11 0 11Zm356 319c-7 0-7 0-7-5 0-6 0-6 7-6 8 0 8 0 8 6 0 5 0 5-8 5ZM670 215l53-19 89-32 44-17c4-4-13 1-54 15l-87 29c-50 16-56 19-56 21 0 3 5 4 11 3Zm338 192c-7 0-7 0-7-5 0-6 0-6 7-6s7 0 7 6c0 5 0 5-7 5ZM764 170c4 0 11-23 9-24-3-2-14 24-9 24Zm210 205v-13h14v13ZM747 141c3 0 3-19-1-18s-1 18 1 18Zm87 287 3-9c1-4 1-11 1-14-1-4-1-4 1-3 3 4 5-1 4-10-1-8-1-8 1-3 2 7 3 7 6 2 2-3 2-5 0-13-2-12-1-13 2-1 3 8 3 9 6 7 4-1 4-3 1-20-2-7-2-13-2-13 2 4 3 7 4 12 5 16 5 16 9 13l4-3-4-19-4-20c1 0 3 7 6 17 7 20 7 21 11 19 3-2 4-3 3-5-2-9-9-42-8-43 3 7 5 15 7 22 7 22 7 23 11 22 3-1 5-1 5-1l-5-21-4-23c2 4 4 9 5 14 10 33 9 30 15 30 4 0 5 0 5-3l-9-41 8 22 7 23 7 3 8 3c-4-10-7-20-8-31-7-50 28-131 76-179l9-9-11 4-10 3-24 30c-13 17-24 30-25 30l20-27c11-16 20-28 19-29 0 0-2 0-5 1s-9 8-22 24c-9 13-17 23-18 23-2 1 0-1 15-23 7-10 13-19 12-19-2-2-9 5-23 24-24 31-25 32-4 0 8-10 13-19 13-19 0-1-2 0-4 0-2 1-9 9-18 21l-15 20c6-11 12-21 19-31 2-4 2-5 1-5-6 5-11 11-15 17-17 24-18 23-3-1 4-7 8-13 7-13-3 0-9 5-16 16l-9 12c-1 0 2-5 5-11 6-10 6-12 4-11-5 3-9 7-12 12l-8 12c-1 0 1-5 4-10 6-10 6-11 2-10-1 1-5 5-8 9-7 9-8 10-4 1 5-10-1-8-7 3-2 2-3 4-4 3l2-5c3-4 3-4-1-3-2 0-4 3-6 5-3 4-3 4-2 1 0-2 0-3-6-3-13 0-47 79-47 144 0 28 6 48 23 80Zm-79-287c2 0 1-16 3-16 3 0 0 15 4 15 1 0 2-5 2-15 0-4-12-5-12 0 0 2 1 16 3 16Zm198 238c41 1 92 1 102-1l-5-22h-83ZM769 141c2 0 5-19 1-19-2 0-3 3-3 10 0 5 0 9 2 9Zm210 206v-13h14v13ZM776 142c2 0 4-11 5-14s1-5-2-5c-2 0-2 1-3 5s-3 14 0 14Zm-80-40c0 3 20-1 29-3 31-7 42-7 62-2 8 2 9-12 9-17s-19-6-30-6c-19 0-32 6-55 6-10 0-15-1-18-2s-3 0-1 2c10 10 27 8 27 11 0 6-23 8-23 11Zm101 47c3 1 10-9 10-13 0-7-16-13-20-11s-6 17-4 17 5-14 9-14c5 0-4 16-2 17s8-16 11-14-6 17-4 18Zm223 226v-13h15v13ZM782 119c3 0 8-15 6-16-4-2-10 16-6 16Zm183 233h99c-1-6-2-14-2-21v-5c-23-2-73-3-88 2Zm42-5v-13h15v13Zm29 0v-13h15v13Zm19-25c5 2 8-1 18-19 9-17 10-21 7-22s-7 4-16 19c-6 10-14 20-9 22ZM849 202c5 0 15-2 40-11l82-27c27-9 52-17 58-18 10-3 13-5 13-9h1c0-1-2-2-5-2-4 0-94 26-171 49-19 5-26 10-25 15 1 2 3 3 7 3Zm239 74c8-14 16-27 23-42l-43-7c-23-4-43-6-43-6s-3 3-17 26c-12 21-13 23-10 24ZM949 155c3 0 4-3 7-11 2-6 5-15 6-20 2-6 3-11 3-12 0-2-2-3-3-1-1 1-4 10-8 21l-7 22c-1 1 0 2 2 1Zm-76-45h7c9-1 19-2 28-4 24-5 39-6 50-3 5 2 9 3 9 3 2 0 7-19 5-20 0 0-5-2-10-3-14-2-36-1-50 2-13 3-26 4-37 2-5-1-7 0-7 1 2 3 12 6 20 7 7 1 9 2 10 3 0 3 0 3-15 8Zm240 119c3 0 6-4 4-6s-5 0-6 2-1 4 2 4Zm6-12c7 0 7-9 0-9s-7 9 0 9ZM798 71c8 0 8-11 0-11s-8 11 0 11Zm177 6c8 0 8-11 0-11s-8 11 0 11Zm-383 86c7-1 15-33 13-34-3-2-20 35-13 34Z"/><path d="M978.5 340.1v6.7H993v-13.3h-14.5v6.6Zm28.9 0v6.7h14.4v-13.3h-14.4v6.6Zm28.8 0v6.7h14.4v-13.3h-14.4v6.6Zm-62.5 28.3v6.7H988v-13.4h-14.4v6.7Zm46.6 0v6.7h14.4v-13.4h-14.4v6.7Zm-53 33q0 5 7.2 5t7.3-5q0-5.4-7.3-5.4-7.2 0-7.2 5.2v.1Zm33.7 0q0 5 7.2 5t7.2-5q0-5.4-7.2-5.4t-7.2 5.2v.1Zm-370.7 64v9.7h14.4v-19.4h-14.4v9.7Zm244 6v9.7h14.3v-19.5h-14.4v9.8Zm-120.4 13.4v9.7h14.4v-19.4H754v9.7ZM521.2 347.6v6.7h14.4V341h-14.4v6.7Zm27.8 0v6.7h14.4V341H549v6.7Zm27 0v6.7h14.4V341H576v6.7Z"/><path fill="#faf6f5" d="M732.3 569c-7.4 0-18.5-4.5-37.3-14.8-40.2-21.7-48.5-22.6-63.5-6.5-6.4 6.7-16.4 14-21.3 14h-.4a126.3 126.3 0 0 1-32.4-11.8c-30.8-14.8-48.8-15.1-56.6-1-5 8.5-9.5 12.7-15.2 14.2-10.1 2.7-24-3.8-45.9-16.6-24.5-14.4-37.2-14.8-58.8-1.6-16.6 10.2-18.2 10.4-35.6 4.8-2.8-1-6.7-2-10.8-3.2-15.7-4.3-20.8-6.1-21.6-8.8-.3-1 .3-2 1.3-2.4 1-.2 1.9.2 2.2 1.1a89.8 89.8 0 0 0 19.1 6.5l11 3.2c16 5.2 16.5 5.4 32.4-4.4 22.6-13.7 37.3-13.4 62.7 1.5 24 14 35.3 18.3 43 16.3 4.7-1.2 8.6-5 13-12.5 8.9-16.1 28.5-16.3 61.5-.5 9.8 5.2 20.4 9 31.3 11.5 3-.2 11.6-5.8 18.4-13 17.4-18.6 28.5-15.5 68 5.9 22.4 12.2 33.8 16.2 39.5 13.6 2.5-1.2 4.2-3.8 5.1-8.2 4.8-19.7 9.5-23.4 29.4-23.4a149 149 0 0 1 47.6 12.9c15.8 7 31 12.2 33.4 12.2 2 0 5.3-4.3 6.9-10.5 1.3-6.7 6.7-15 12-18.5h.1c11.8-7 23.8-4.3 61.2 13.3 22.3 10.4 34.1 13.3 39.5 9.9 3.2-2 4.7-7 4.7-15.4s8.8-13.5 21.9-13.5c4.8 0 21.8 8.1 35.4 16 17.7 9.8 30.8 15.8 36.9 12.8 2.9-1.4 4.6-5 5.6-11.8 1.2-7.4 4-12.3 8.5-14.7 8.1-4.3 21.6-1.1 46.6 11 23.9 12 55.3 16.3 61.6 12.4.6-.4.6-.7.6-.8a1.9 1.9 0 0 1 3.8 0c0 1.1-.4 2.7-2.5 4-8 5-41.2-.1-65.2-12.3-23-11.1-36.4-14.5-43.2-11-3.5 1.9-5.5 5.7-6.5 12-1.2 8-3.6 12.6-7.7 14.6-6.7 3.3-17.3-.1-40.4-13a138.2 138.2 0 0 0-33.5-15.4c-10.9 0-18.1 3.9-18.1 9.7 0 10-2 15.7-6.5 18.6-6.7 4.3-18.8 1.6-43-9.7-36-17-47.3-19.6-57.7-13.6-4 2.7-9.2 9.8-10.5 16.2-1.7 6.5-5.6 13.4-10.5 13.4-3.6 0-20.3-6-34.9-12.5a145.5 145.5 0 0 0-46.2-12.6c-18.1 0-21.3 2.5-25.6 20.5-1.2 5.6-3.6 9.1-7.2 10.8-1.6.7-3.4 1-5.5 1Zm-395.8-32.4Zm85.1 51c-7.3 3.9-6.5 4.3 6.7 2.7 11.1-1.3 18.5.3 33.3 7.5 28.4 14.1 40.4 15 59.2 5 22.7-11.5 31.7-13.8 49.4-10.6 13.5 2.1 14.8 2.1 9.5-2-11.6-9-34.1-9-54.3 0-23 10.2-34.1 10.5-60 .4-23.6-9-32.2-9.7-43.8-3Zm424.6 9.3c-15.7 7.8-33 16-38.6 16s-23.6-7.9-39.2-15.1c-26.7-12.1-29.2-12.8-41.5-9-34.1 10.6-56.4 14-72.8 10.6-19-3.8-20.6-1.3-4.1 6.2 16 7.2 30 7 61.3-1.5 25.8-6.9 26.3-6.9 39-1 51.5 23.5 66.3 24.7 93 8.5 30.9-18.7 43.6-20.3 87.6-9.4 26.3 6.5 28.4 6.5 41.2 2l13.6-5.4h-17a222 222 0 0 1-44.4-8.2 203.4 203.4 0 0 0-38.7-7.8c-6.6 0-23.4 6-39.4 14.1Zm241.8-1.6a32 32 0 0 0-11.9 6c-3.3 4.3-24.7 4.3-36.1 0-7-2.5-6.7-1.6 2.4 4.7 14 9.7 24.2 10.3 42.4 1.9 12.7-6.4 14.3-6.4 28.8-1.6 24.2 7.5 28.8 5.3 9.4-4.8-19.3-10-21.8-10.2-35-6.2ZM959 636c-12 7-26.5 12.5-31.8 12.5-5 0-20.6-4.4-33.8-9.7l-24.6-10-15.6 7c-8.6 3.7-20.6 8.3-26.7 10.2-6.6 2.1-11.5 5-11.5 6.3 0 4.6 13 2.5 31-5.6 20.4-9.1 31.9-8.5 51.6 1.8 27 15 35.7 14.4 65.7-3.7 19-11.7 32.3-11.8 64.3-1.3 23.8 7.5 26.7 8 39.1 3.8l13.5-4.4-14.4-.4c-7.7-.3-26.3-4.6-40.4-9.6-14.3-5.4-30.3-9.4-35.2-9.4s-19.4 5.6-31.3 12.5Zm-337 1.6c-19.3 13.4-31.7 13.8-51.9 1.6-18.4-11.4-30.8-11.7-55.4-1.6-14 5.6-16.9 7.8-11.6 9.4 3.7 1.2 12.4-.3 19.4-2.9 18.1-7.2 27-6.2 50.1 6 11.6 5.8 22.6 10.9 24.2 10.9 7.1-2.5 13.9-5.7 20.2-9.4 28.8-15.9 34.6-16.6 62.6-7.8 25.5 8.5 32.9 7.9 45.2-3.4 5.4-5 5-5-3.2-2-13.2 5.4-22.7 4.8-47.3-3.9-28.5-10-33.4-10-52.3 3Zm-224.6 20.6c-5.4 2-10 5.3-13.6 9.4-5 5.6-4.6 6 3 3.2 10.3-4.5 28-4.5 31.1 0 1.8 1.8 10.4 7.5 19.4 12.4a59 59 0 0 0 60.9 1c16.5-8.1 27.6-8.8 51.4-2.9 5.8 1.6 5-.3-4-5.9-15.7-10.3-31.7-10.3-55.6 0-21.9 9.4-29.3 8.5-56.4-8-22.6-13.5-23.4-14-36.2-9.2Zm294 14.1c-7.8 4.4-17.2 9-20.4 10.6-3.4 1.6-5 3.4-3.7 4.4 1.1 1.2 11-1.5 21.8-5.9 10.7-4.4 22.5-7.9 26.2-7.9 4.2 0 16.2 5.6 27.7 12.8 22.6 14.2 29.5 14.5 55 1 19-9.7 23-9.3 45.7 2 23.4 11.8 32.9 11.8 60.9-.4 25-10.6 34.1-10.3 59.1 2.2 8.7 4 18.6 7.5 22 7.5 9.4 0 27.5-8 36.8-15.7l8.3-7-14.4 6.7c-19.4 8.8-31.2 8.2-55.6-2.8-25.8-11.6-33.3-11.6-55.9 0-23 11.6-34.9 11.9-57.6 0-23-11.6-35-11.8-55.4 0-20.2 11.6-25.2 11.6-42.8.6-16.8-10.6-30.4-16.3-37.8-16.3-7 1.9-13.8 4.6-19.8 8.2Z"/><path fill="#47a3d8" d="M561.8 306.8c-1 2.9-5.6 20.2-5.6 21.2 0 .4 6.6 1 14.4 1s14.4-.7 14.4-1.3a28.3 28.3 0 0 0-4.6-7.3c-6.1-8-17.5-16.2-18.6-13.6Zm-22.9-9.3c-15.5 1.2-27.4 13.3-27.5 27.7 0 3.3.2 3.7 12.1 3.3l12.3-.4 4-10.8c1.8-6.2 3.9-13 4.3-15.4v-.1c1-4.1.7-4.3-5.2-4.3ZM594 137.8c-.7 0-50.6 34-52.9 36-.6.6 1.4.6 5-.3C572 167 585.8 163 586.7 162a78.8 78.8 0 0 0 4.5-12.7c1.6-6.2 3-11.5 2.7-11.5Zm-75.2 239.9v-11.5H508v-16c0-13.9-.7-17.1-4-24h.1c-2.2-4.2-4-7.8-4.4-7.8a974.2 974.2 0 0 0-12.6 41.5l-12.2 41.3 5.7 2.4c3.1 1.3 12.7 6.3 20.9 11a88 88 0 0 0 18.1 8.2c5.8 0 6.6-5 3-19.7-2.1-8.3-3.4-16.9-3.8-25.4Zm99-9.7c-3.7-20.3-3.7-41 .2-61.3 2.5-12 2.5-12.2-1.6-22.4-4.8-12.7-8.8-32-8.8-42.8 0-4.5-.7-8.1-1.5-8.1-2.4 0-13 23.7-16.4 37-2.5 10.7-1.9 17-2.5 30.2.3 9.3 1.5 19.6 2.5 22.7 1.6 5 2.6 5.6 6.6 5.6h4.8v18.7c0 17.5-.3 17.9-3.2 18.6-2 .5-2.8.2.1 7.7a131 131 0 0 0 20.3 32.9c8 9 20.2 18.3 21 16.1a61.2 61.2 0 0 0-6.6-15.4 130.7 130.7 0 0 1-15-39.5Zm112.7-188.5a69 69 0 0 0 12.6-3.6l12-4 4.8-13.3 4.9-13.3h-4.4c-3.7.1-6.5 3-17.3 16.9-7.3 9.3-12.9 17-12.6 17.3Zm-234 130.7-2.1-11.1c-1.3-6.2-2.6-13-2.8-15.2-.5-3.7-.9-3.5-10 6-32 32.4-71.4 80.2-71.4 86 0 2.4 47.7 23 54.3 23.4l5.5.5 13.3-44.7 13.3-44.9ZM810.8 226l-2-9.7-5.1 11.3a229 229 0 0 0-19 81.2c-1 18.5.6 47 2.5 47 .6 0 2.7-3.1 4.7-7.2 2-4 6-10 8.2-13.7 4-6.2 6.2-13.3 6.5-20.5 1.8-16.5 5.4-32.8 10.7-48.6l4.3-13-4.4-8.6a65.5 65.5 0 0 1-6.4-18.2Zm-36.8-61.4a60.1 60.1 0 0 0 13-3.3l13.4-4.5-4.5-2.6c-8.6-5.2-16.5-7.6-17-5.6-.6 1-2 5.2-3.4 9.3-1.4 4-1.9 6.5-1.5 6.7Zm-1.5-47c0-.4 1.5-.6 2.6-1.4 1.5-3.5.3-4.2-2-1.5-1.1 1.2-1.3 2.5-.6 3ZM674 139.4c-1.2-.7-14.3-3.6-30.3-6.6v-.1l-30-5.2c-.6 0-2 3-2.8 6.3l-4.3 15a28.8 28.8 0 0 0-2 9.2c12.3-2.6 24.6-5.5 36.8-8.9 19.8-5.1 34-9.3 32.6-9.7Zm125-15.7A52.4 52.4 0 0 1 810 129l3.7 2.8-6 11.4a58.2 58.2 0 0 0-5.5 12c1 1 43-13.2 42.6-14.4a1078.8 1078.8 0 0 0-51.7-34.2c-1.3 0-4.2 12.6-3.1 13.4.7.5 4.7 2.3 8.9 3.6ZM892.2 385c-4-7.4-5.5-9.9-5.5-7.6 0 .4-4 13.3-9 28.7-4.9 15.3-8.6 28.3-8.4 28.9.6 1.6 20.8-8.3 36.2-15.1l11.7-6.3-10.4-10a94.4 94.4 0 0 1-14.6-18.6Zm48.7-.7c-3.5-.4-5-1.8-3.5-3.4-2-1.2 0-3.3-6.2-6.6a43.5 43.5 0 0 0-20.5-4.5c-11.9-.3-19.3.3-19.3 2 0 3.2 11 20.5 16.9 26.9 11.2 11.8 12.4 12.1 22.2 5 13.6-9.8 18-14.8 16.1-17.8-1-1.3-3.3-1.3-5.7-1.6Zm-1.7-227.7c3.4-6.7 6.2-13.7 8.3-20.8 3.6-10.7 6.5-19.6 6.1-19.6-.3-.3-83.3 59-85.5 61 4.8-.8 9.5-1.9 14.1-3.4 37.6-10.5 55.2-15.6 57-17.2Zm13.9 127.6a264.4 264.4 0 0 0-4.7-23.6c-.3-.3-2.1 3.8-3.9 9.4-12.2 37-11.5 74.9-3 96l3.4 6 7.7-6.9c4.5-4.3 7.7-8.4 7.2-9.2-.5-.7.5-5 2.3-9.7l2.3-8.7-3.1-15a558.8 558.8 0 0 1-8.2-38.3Zm71.6-152c0-.7-12-5.4-26.6-11-18-6.8-26.6-9.3-27.3-8.2-2.3 6.1-11.7 37.5-11.2 38 .8.8 65-18 65-18.8ZM854.2 394.6c-7.7 8-12.3 18-13.4 28.5-1 7.3.4 17.2 2.4 17.2 4-8.5 7.4-17.4 10-26.4 5-14.7 8.7-26.9 8.7-26.9a80 80 0 0 0-7.7 7.5ZM734 404.1a185 185 0 0 0-18.9-6.7c-1 0-1.7 1.4-1.7 3.1 2.6 12.1 7.1 23.8 13.5 34.6 5.5 9.2 7 10.4 8.6 6.9 2-4 6.6-14.2 13.5-21.4 7.8-8 11.6-4-15-16.5Zm-25.5-2.1c0-2.1-1.2-4.3-1.8-5.2h-.1c-.6-1-2.8-2.7-5.5-3.3l-4.5.6-8 21.3c-4 12.6-8 23.7-8.5 24.7-.4 1.2 3.1 2.7 11 4.1 14.7 3.1 36.6 6.2 37.5 5.2.5-.5-1.7-5-5-10.1-6.2-9.8-15.1-31.5-15.1-37.3Zm98.1-39.2h-.1c-.8-6.6-1.6-13.2-2.2-19.8l-.4-6-5.7 10.4c-9 16.2-9.9 20.2-7.9 30.2 5 22.4 25.2 70 29.6 70 1.1 0 6.1-.2 10.5-1.1 9.7-2 9.7-2-.3-17.5a157.2 157.2 0 0 1-23.5-66.2ZM717.4 184l18-19.9c12-15.2 14.5-19 11.7-18.5-2.3.6-5.6 1.9-5.6-.5-1.3-1.1-10.6 6.2-32.5 25.1a677.5 677.5 0 0 0-30.2 26.8c7-2 14-4.2 20.8-6.6l17.8-6.4Zm-52 208.2a33.7 33.7 0 0 0-19.7 16.2c-2.8 5-2.9 6.6-1.3 13 1.8 6.4 3 7.8 8.3 10.5 3.7 1.6 7.1 2.6 7.8 1.7 3-6.7 5.7-13.5 8-20.5l7.7-21.3c.8-2.3-1.8-2.2-10.8.4ZM774.3 424c-6.7-4-12.5-7-13-7s-4.6 3.7-9 8.2c-5 4.6-8.7 10.3-10.8 16.5-1.4 4.6-2.1 8.8-1.4 9.2 22.4 1.3 44.8 1 67.2-.7l3.7-1-11.7-9.3c-7.2-5-18.2-12.1-25-16Z"/></svg>