<svg xmlns="http://www.w3.org/2000/svg" xmlns:xlink="http://www.w3.org/1999/xlink" width="450" height="300" viewBox="0 0 1050 700"><defs><linearGradient xlink:href="#a" id="f" x1="91.962" x2="92.129" y1="207.731" y2="185.55" gradientTransform="matrix(1.0629 0 0 .8398 -3.221 474.303)" gradientUnits="userSpaceOnUse"/><linearGradient xlink:href="#b" id="g" x1="49.019" x2="62.98" y1="178.056" y2="164.967" gradientTransform="matrix(.9378 0 0 .9518 3.91 470.176)" gradientUnits="userSpaceOnUse"/><linearGradient xlink:href="#c" id="h" x1="104.852" x2="103.966" y1="159.461" y2="166.263" gradientTransform="matrix(.7891 0 0 1.1312 12.387 448.251)" gradientUnits="userSpaceOnUse"/><linearGradient xlink:href="#d" id="i" x1="52.271" x2="64.6" y1="179.008" y2="167.447" gradientTransform="matrix(.9239 0 0 .9662 4.705 469.63)" gradientUnits="userSpaceOnUse"/><linearGradient xlink:href="#e" id="j" x1="44.325" x2="55.467" y1="221.729" y2="211.282" gradientTransform="matrix(1.1431 0 0 .7809 -7.79 461.207)" gradientUnits="userSpaceOnUse"/></defs><linearGradient id="a" x1="91.962" x2="92.129" y1="207.731" y2="185.55" gradientTransform="matrix(1.0629 0 0 .8398 -3.221 474.303)" gradientUnits="userSpaceOnUse"><stop offset="0" stop-color="#961538"/><stop offset="1" stop-color="#fcd80e"/></linearGradient><linearGradient id="b" x1="49.019" x2="62.98" y1="178.056" y2="164.967" gradientTransform="matrix(.9378 0 0 .9518 3.91 470.176)" gradientUnits="userSpaceOnUse"><stop offset="0" stop-color="#961538"/><stop offset="1" stop-color="#fcd80e"/></linearGradient><linearGradient id="c" x1="104.852" x2="103.966" y1="159.461" y2="166.263" gradientTransform="matrix(.7891 0 0 1.1312 12.387 448.251)" gradientUnits="userSpaceOnUse"><stop offset="0"/><stop offset="1" stop-color="#0859b9"/></linearGradient><linearGradient id="d" x1="52.271" x2="64.6" y1="179.008" y2="167.447" gradientTransform="matrix(.9239 0 0 .9662 4.705 469.63)" gradientUnits="userSpaceOnUse"><stop offset="0" stop-color="#961538"/><stop offset="1" stop-color="#fcd80e"/></linearGradient><linearGradient id="e" x1="44.325" x2="55.467" y1="221.729" y2="211.282" gradientTransform="matrix(1.1431 0 0 .7809 -7.79 461.207)" gradientUnits="userSpaceOnUse"><stop offset="0" stop-color="#961538"/><stop offset="1" stop-color="#fcd80e"/></linearGradient><path fill="#faf6f5" d="M0 233.3h286.2v233.4H0z"/><path d="M263.4 369c-2.4 1.7-5 2-7 1-1.5-.8-1.6-.3-.4 1.3a7 7 0 0 0 3.4 2c1.2.3 3.4 1.1 4.7 1.6 3.3 1.4 6.2 1.4 8.4 0 4.4-2.7 1.6-7.6-4.3-7.6-1.7 0-3 .5-4.7 1.7zm13 5.9c-.3.6-.6 2.2-.6 3.7 0 9.7-3.9 18.9-11 26.8a22.2 22.2 0 0 0-3 3.4c0 .5 8.1.4 9.2-.2 1-.5 1-.4 1.4 1.5a9.8 9.8 0 0 0 3.7 6.3c1 .8 1.5.9 2.7.2 2.2-1 3.6-3.3 3.9-6 .2-2.2.4-2.6 1.1-2.2.5.2 3 .5 5.4.6l4.5.2-2.4-2.8a49.6 49.6 0 0 1-7.6-10.8 33.9 33.9 0 0 1-4-14.4c-.1-2.7-.5-5.4-.7-6.1-.5-1.5-1.9-1.6-2.6-.2zM94 350.9c-.7.8-1.5 2.4-1.6 3.5l-1.4 4.2c-1.4 3.1-1.4 5.8.1 8 1.9 3 5 3 6.6 0 1.4-2.6 1-6.4-.9-9.2a7 7 0 0 1-.8-7.2c.7-1.5-.5-1-2 .7zm6.7 17.1c-1 .5-2.2 1.2-2.6 1.8-3 4 3.9 8.3 8.8 5.6 5.3-3 5.5-3 8-2.1 2.1.7 2.2.7 1.8-.2-.9-1.6-2.2-2.3-7.4-4.1-6-2-6.2-2-8.6-1zm-20.5 1.3c-2.5 1.7-5.1 2.1-7 1-1.6-.7-1.7-.2-.5 1.4a7 7 0 0 0 3.4 2c1.2.3 3.4 1 4.8 1.6 3.2 1.4 6 1.4 8.3 0 4.4-2.7 1.6-7.6-4.3-7.6-1.7 0-3 .5-4.7 1.6zm12.9 6c-.3.6-.5 2.2-.5 3.6-.1 9.8-4 19-11.1 26.8a22.3 22.3 0 0 0-2.9 3.5c0 .5 8 .3 9.1-.3 1-.4 1.1-.3 1.4 1.6a9.8 9.8 0 0 0 3.7 6.3c1.1.8 1.5.8 2.8.2 2.1-1 3.5-3.3 3.8-6.1.2-2.1.5-2.5 1.2-2.1.4.2 2.9.5 5.3.6l4.5.2-2.3-2.8a49.6 49.6 0 0 1-7.7-10.9 33.9 33.9 0 0 1-4-14.3c0-2.8-.5-5.5-.7-6.2-.5-1.4-1.8-1.6-2.6-.1zm91.6-24.7c-.7.9-1.5 2.5-1.7 3.6-.2 1-.8 3-1.4 4.2-1.3 3.1-1.3 5.8.2 8 1.9 3 5 2.9 6.6 0 1.3-2.6 1-6.4-1-9.2a7 7 0 0 1-.7-7.2c.7-1.5-.5-1.1-2 .6zm6.7 17.2c-1 .5-2.2 1.2-2.6 1.8-3 4 3.8 8.3 8.8 5.6 5.3-3 5.5-3 8-2.1 2.1.7 2.2.7 1.8-.2-.9-1.6-2.2-2.4-7.4-4.2-6-2-6.2-2-8.6-.9zm-20.5 1.3c-2.5 1.7-5.1 2-7 1-1.6-.8-1.7-.3-.5 1.4a7 7 0 0 0 3.4 2c1.2.3 3.4 1 4.8 1.6 3.2 1.3 6 1.3 8.3 0 4.4-2.7 1.6-7.6-4.3-7.6-1.7 0-3 .4-4.7 1.6zm12.9 6c-.3.5-.5 2.2-.5 3.6-.2 9.7-4 18.9-11.1 26.8a22.2 22.2 0 0 0-2.9 3.4c0 .6 8 .4 9.1-.2 1-.5 1.1-.3 1.4 1.6a9.8 9.8 0 0 0 3.7 6.3c1.1.7 1.5.8 2.8.2 2.1-1 3.5-3.3 3.8-6.1.2-2.1.5-2.5 1.1-2.1.5.2 3 .5 5.4.6l4.5.2-2.3-2.8a49.7 49.7 0 0 1-7.7-10.9 34 34 0 0 1-4-14.4c0-2.7-.5-5.4-.7-6.1-.5-1.5-1.9-1.6-2.6-.2zM5.2 350.4c-.7.8-1.5 2.5-1.7 3.5-.2 1-.8 3-1.4 4.2-1.4 3.2-1.3 5.8.2 8.1 1.9 2.9 5 2.8 6.5 0 1.4-2.7 1-6.4-.8-9.3a7 7 0 0 1-.8-7.2c.7-1.4-.6-1-2 .7zm6.6 17.2c-1 .4-2.1 1.2-2.5 1.7-3 4 3.8 8.3 8.8 5.7 5.3-3 5.4-3 8-2.2 2 .7 2.2.7 1.8-.1-.9-1.7-2.2-2.4-7.4-4.2-6-2-6.2-2-8.7-1zm263.3-145c-.3.6-.5 2.2-.5 3.7-.1 9.7-4 18.8-11.1 26.8a22.2 22.2 0 0 0-2.9 3.4c0 .5 8 .3 9.1-.3 1-.4 1.1-.3 1.4 1.6a9.8 9.8 0 0 0 3.7 6.3c1.1.8 1.5.8 2.8.2 2.1-1 3.5-3.3 3.8-6.1.2-2.1.5-2.5 1.2-2.1.4.2 2.9.5 5.3.6l4.5.2-2.3-2.8a49.6 49.6 0 0 1-7.7-10.9 33.9 33.9 0 0 1-4-14.3c0-2.8-.5-5.5-.7-6.2-.5-1.4-1.8-1.5-2.6-.1zm-183.3.3c-.2.6-.5 2.3-.5 3.7-.1 9.7-4 18.9-11.1 26.8a22.2 22.2 0 0 0-2.9 3.4c0 .6 8 .4 9.2-.2 1-.5 1-.3 1.4 1.6a9.8 9.8 0 0 0 3.6 6.3c1.1.7 1.6.8 2.8.1 2.1-1 3.5-3.2 3.8-6 .3-2.1.5-2.5 1.2-2.1.5.2 2.9.4 5.3.6l4.6.2-2.4-2.9a49.7 49.7 0 0 1-7.7-10.8 34 34 0 0 1-3.9-14.4c-.2-2.7-.5-5.4-.7-6.1-.6-1.5-2-1.6-2.7-.2zm90.7-.2c-.3.6-.5 2.2-.5 3.7-.1 9.7-4 18.9-11.1 26.8a22.3 22.3 0 0 0-2.9 3.4c0 .6 8 .4 9.2-.2 1-.5 1-.3 1.3 1.6a9.8 9.8 0 0 0 3.7 6.3c1.1.7 1.5.8 2.8.1 2.1-1 3.5-3.2 3.8-6 .3-2.2.5-2.5 1.2-2.2.5.3 2.9.5 5.3.6l4.5.3-2.3-2.9a49.6 49.6 0 0 1-7.7-10.8A33.9 33.9 0 0 1 186 229c-.2-2.7-.5-5.4-.8-6.1-.5-1.5-1.8-1.6-2.6-.2zM4 222.7c-.3.6-.6 2.2-.6 3.7 0 4.8-1.4 10.3-3.3 14.8L0 258a9.8 9.8 0 0 0 3.6 6.3c1.2.8 1.6.8 2.8.2 2.2-1 3.6-3.3 3.8-6.1.3-2.1.5-2.5 1.2-2.1.5.2 3 .5 5.4.6l4.5.2-2.4-2.8a49.6 49.6 0 0 1-7.6-10.9 33.9 33.9 0 0 1-4-14.3c-.1-2.8-.5-5.5-.7-6.2-.5-1.4-1.9-1.5-2.6-.1zM231.6 429c-.7 1-1.5 2.5-1.7 3.6-.2 1-.8 3-1.4 4.2-1.4 3.2-1.3 5.8.2 8 1.9 3 5 3 6.5 0 1.4-2.6 1-6.4-.8-9.2a7 7 0 0 1-.8-7.2c.7-1.5-.6-1-2 .7zm6.6 17.2c-1 .5-2.1 1.2-2.5 1.8-3 4 3.8 8.3 8.8 5.6 5.3-3 5.4-3 8-2 2.1.6 2.2.6 1.8-.3-.9-1.6-2.2-2.3-7.4-4.1-6-2-6.2-2-8.7-1zm-20.4 1.3c-2.5 1.7-5.1 2.1-7 1-1.6-.7-1.7-.2-.5 1.4a7 7 0 0 0 3.4 2c1.2.3 3.4 1 4.8 1.6 3.2 1.4 6 1.4 8.3 0 4.4-2.7 1.6-7.6-4.3-7.6-1.7 0-3 .5-4.7 1.6zm13.9 5.6c-.3.6-.6 2.2-.6 3.6 0 9.7-3.9 18.7-11 26.6a22 22 0 0 0-3 3.4c0 .5 8.1.3 9.2-.2 1-.5 1-.4 1.4 1.5.4 2.6 1.9 5 3.6 6.2 1.2.8 1.6.9 2.8.2 2.2-1 3.6-3.2 3.8-6 .3-2.1.5-2.5 1.2-2.1.5.2 3 .5 5.4.6l4.5.2-2.4-2.8a49.1 49.1 0 0 1-7.6-10.7 33.3 33.3 0 0 1-4-14.3c-.1-2.7-.5-5.4-.7-6-.5-1.5-1.9-1.6-2.6-.2zM48.3 429.5c-.7.9-1.5 2.5-1.6 3.5l-1.4 4.3c-1.4 3.1-1.4 5.8.1 8 1.9 3 5 2.9 6.6 0 1.4-2.7 1-6.4-.9-9.2a7 7 0 0 1-.8-7.2c.7-1.5-.5-1.1-2 .6zm6.7 17.2c-1 .4-2.2 1.2-2.5 1.8-3 4 3.8 8.2 8.7 5.6 5.3-3 5.5-3 8-2.1 2.1.7 2.2.7 1.8-.2-.8-1.6-2.2-2.4-7.4-4.2-6-2-6.2-2-8.6-.9zM34.5 448c-2.5 1.7-5.1 2-7 1-1.5-.8-1.7-.3-.5 1.3a7 7 0 0 0 3.4 2l4.8 1.7c3.2 1.3 6 1.3 8.3 0 4.4-2.7 1.7-7.6-4.3-7.6-1.7 0-3 .4-4.7 1.6zm14 5.6c-.3.5-.6 2.2-.6 3.6-.1 9.6-4 18.7-11.1 26.6A22 22 0 0 0 34 487c0 .6 8 .4 9-.2 1-.5 1.1-.3 1.5 1.6.4 2.6 1.8 5 3.6 6.2 1.1.8 1.6.8 2.8.2 2.1-1 3.5-3.2 3.8-6 .3-2.1.5-2.5 1.2-2.1.5.2 2.9.4 5.4.6l4.5.2-2.4-2.8a49.2 49.2 0 0 1-7.7-10.8 33.3 33.3 0 0 1-3.9-14.2c-.1-2.7-.5-5.4-.7-6-.6-1.5-2-1.6-2.7-.2zm90.5-24.3c-.7.9-1.5 2.5-1.7 3.5-.2 1.1-.8 3-1.3 4.3-1.4 3.1-1.4 5.8.1 8 1.9 3 5 2.9 6.6 0 1.4-2.7 1-6.4-.9-9.2a7 7 0 0 1-.8-7.2c.7-1.5-.5-1.1-2 .6zm6.7 17.2c-1 .4-2.2 1.2-2.6 1.7-3 4 3.8 8.3 8.8 5.7 5.3-3 5.5-3 8-2.1 2.1.7 2.2.7 1.8-.2-.9-1.6-2.2-2.4-7.4-4.2-6-2-6.2-2-8.6-.9zm-20.5 1.3c-2.5 1.7-5.1 2-7 1-1.6-.8-1.7-.3-.5 1.3a7 7 0 0 0 3.4 2l4.8 1.7c3.2 1.3 6 1.3 8.3 0 4.4-2.7 1.6-7.6-4.3-7.6-1.7 0-3 .4-4.7 1.6zm13.9 5.5c-.3.6-.5 2.2-.5 3.7-.1 9.6-4 18.7-11.1 26.5a22 22 0 0 0-2.9 3.4c0 .6 8 .4 9.1-.2 1-.5 1.1-.3 1.4 1.6.5 2.5 2 5 3.7 6.2 1.1.8 1.5.8 2.8.2 2.1-1 3.5-3.3 3.8-6 .2-2.2.5-2.5 1.2-2.2.4.3 2.8.5 5.3.6l4.5.3-2.3-2.8a49.2 49.2 0 0 1-7.7-10.8 33.4 33.4 0 0 1-4-14.2c0-2.7-.5-5.4-.7-6.1-.5-1.5-1.9-1.6-2.6-.2zM231.3 275c-.7.8-1.5 2.4-1.7 3.5-.2 1-.8 3-1.4 4.2-1.3 3.2-1.3 5.8.2 8 1.9 3 5 3 6.6 0 1.3-2.6 1-6.4-1-9.2a7 7 0 0 1-.7-7.2c.7-1.5-.5-1-2 .7zM238 292c-1 .5-2.2 1.2-2.6 1.8-3 4 3.8 8.3 8.8 5.6 5.3-3 5.5-3 8-2 2.1.6 2.2.6 1.8-.3-.9-1.6-2.2-2.3-7.4-4.1-6-2-6.2-2-8.6-1zm-20.5 1.3c-2.5 1.7-5.1 2.1-7 1-1.6-.7-1.7-.2-.5 1.4a7 7 0 0 0 3.4 2c1.2.3 3.4 1 4.8 1.6 3.2 1.4 6 1.4 8.3 0 4.4-2.7 1.6-7.6-4.3-7.6-1.7 0-3 .5-4.7 1.6zm12.9 6c-.3.6-.5 2.2-.5 3.7-.2 9.7-4 18.8-11.1 26.7a22.2 22.2 0 0 0-2.9 3.5c0 .5 8 .3 9.1-.3 1-.4 1.1-.3 1.4 1.6a9.8 9.8 0 0 0 3.7 6.3c1.1.8 1.5.8 2.8.2 2.1-1 3.5-3.3 3.8-6.1.2-2.1.5-2.5 1.2-2.1.4.2 2.8.5 5.3.6l4.5.2-2.3-2.8a49.6 49.6 0 0 1-7.7-10.9 33.9 33.9 0 0 1-4-14.3c0-2.8-.5-5.5-.7-6.2-.5-1.4-1.9-1.5-2.6-.1zM48 275.4c-.7.8-1.5 2.4-1.6 3.4-.2 1.1-.9 3-1.4 4.3-1.4 3.1-1.4 5.8.1 8 2 3 5 2.9 6.6 0 1.4-2.6 1-6.4-.9-9.2a7 7 0 0 1-.8-7.2c.7-1.5-.5-1.1-2 .6zm6.7 17.1c-1 .4-2.2 1.2-2.5 1.8-3 4 3.8 8.2 8.7 5.6 5.3-3 5.5-3 8-2.1 2.1.7 2.3.7 1.8-.2-.8-1.6-2.2-2.4-7.4-4.2-6-2-6.2-2-8.6-.9zm-20.5 1.3c-2.5 1.7-5.1 2-7 1-1.5-.8-1.7-.3-.5 1.3a7 7 0 0 0 3.4 2l4.8 1.7c3.2 1.3 6.1 1.3 8.3 0 4.5-2.7 1.7-7.6-4.3-7.6-1.7 0-3 .4-4.7 1.6zm13 6c-.3.5-.6 2.2-.6 3.6-.1 9.7-4 18.9-11.1 26.8a22.2 22.2 0 0 0-2.9 3.4c0 .6 8 .4 9.2-.2 1-.5 1-.3 1.3 1.6a9.8 9.8 0 0 0 3.7 6.3c1.1.7 1.6.8 2.8.1 2.1-1 3.5-3.2 3.8-6 .3-2.1.5-2.5 1.2-2.1.5.2 2.9.4 5.3.5l4.5.3-2.3-2.9a49.6 49.6 0 0 1-7.7-10.8 33.9 33.9 0 0 1-3.9-14.4c-.2-2.7-.5-5.4-.8-6.1-.5-1.5-1.8-1.6-2.6-.2zm91.5-24.7c-.7.9-1.5 2.5-1.6 3.5l-1.4 4.3c-1.4 3.1-1.4 5.8.1 8 1.9 3 5 2.9 6.6 0 1.4-2.7 1-6.4-.9-9.2a7 7 0 0 1-.8-7.2c.7-1.5-.5-1.1-2 .6zm6.7 17.2c-1 .4-2.2 1.2-2.6 1.7-3 4 3.9 8.3 8.8 5.7 5.3-3 5.5-3 8-2.1 2.1.7 2.2.7 1.8-.2-.8-1.6-2.2-2.4-7.4-4.2-6-2-6.2-2-8.6-.9zm-20.5 1.3c-2.5 1.7-5.1 2-7 1-1.6-.8-1.7-.3-.5 1.3a7 7 0 0 0 3.4 2l4.8 1.7c3.2 1.3 6 1.3 8.3 0 4.4-2.7 1.7-7.6-4.3-7.6-1.7 0-3 .4-4.7 1.6zm13 6c-.4.5-.6 2.1-.6 3.6-.1 9.7-4 18.9-11.1 26.8a22.1 22.1 0 0 0-2.9 3.4c0 .6 8 .4 9.1-.2 1-.5 1.1-.3 1.4 1.6a9.8 9.8 0 0 0 3.7 6.3c1.1.7 1.5.8 2.8.1 2.1-1 3.5-3.2 3.8-6 .3-2.2.5-2.5 1.2-2.2.4.3 2.9.5 5.3.6l4.5.2-2.3-2.8a49.6 49.6 0 0 1-7.7-10.8 33.9 33.9 0 0 1-4-14.4c0-2.7-.4-5.4-.7-6.1-.5-1.5-1.8-1.6-2.6-.2zM4 375.1c-.3.6-.5 2.3-.5 3.7 0 4.9-1.5 10.4-3.3 15L0 410.4a9.8 9.8 0 0 0 3.7 6.3c1.1.8 1.5.8 2.8.2 2.1-1 3.5-3.3 3.8-6.1.3-2.1.5-2.5 1.2-2.1.4.2 2.9.5 5.3.6l4.5.2-2.3-2.8a49.7 49.7 0 0 1-7.7-10.9 34 34 0 0 1-4-14.4c0-2.7-.4-5.4-.7-6-.5-1.6-1.8-1.7-2.6-.3z"/><g transform="matrix(.9955 0 0 .99382 .872 -1.284)"><rect width="287.478" height="234.784" x="-.876" y="1.292" fill="#e30631" ry="0"/><path fill="#036a4a" d="M286.6 31.8V1.3h-35.2L-.9 205.6V236h35.2z"/><path fill="#036a4a" d="M-.9 31.8V1.3h35.2l252.3 204.3V236h-35.9z"/><path fill="#faf6f5" d="m-.9 95.5 287.5-.3V142l-287.4.3z"/><path fill="#faf6f5" d="M119.2-1H166l.2 239.4h-46.6z"/></g><path fill="#e30631" d="M0 700h286.2V466.7H0z"/><g id="k"><g fill="none" stroke="#961538"><path fill="#0859b9" d="M150.9 666.4c-.9 1.4 1.4 7.4 5 7.2-2.3-3.7-2-8-2-8zm-8.8-6.5c-1.3.2-4.4 8 .5 10.9a14 14 0 0 1 2.5-7.8l-2.6-2.2z" transform="matrix(.99936 0 0 1.00396 -2.753 -4.878)"/><path fill="#0859b9" d="M141.4 655.2c-1.2-1.3-6.6 2.5-6.4 8.2 3.4-3.8 7.3-3.5 7.3-3.5zm6.3-4.6c-.1-1.8-4.8-3.8-7.3-.3 3.6.4 5.6 3.8 5.6 3.8zm94.3 16.5c-.1 1.7.3 2.2 1.1 3.2.8.9 1.7 3.6 1.7 3.6s2.6-7.2 2-8.1c-.7-1-4.7 1.3-4.8 1.3zm-13.6-3c-1.2-.2-3.6 5.7-1.6 9.8 1-4.7 3.7-6.7 3.7-6.7zm-6.2-1.7c-1-1.1-5.3 2.2-5 7 2.5-3.2 5.7-3 5.7-3zm3.3-7.6c-.7-1.5-5.5-.3-6.5 4.5 3.3-2 6.2-.4 6.2-.4zm-160.3-3.3c.4-1.7-3.2-6.3-6.5-4.5 3 2.4 3.9 6.6 3.9 6.6zm-13.9 10.4c-1.2-1.5-6.2 2.7-6 9.2 3.2-4.3 6.9-3.9 6.9-3.9zm.5-9.2c-.5-2-6.5-1.8-8.5 4a7.3 7.3 0 0 1 7.3 1.3zm6 17.3c-.3 1.5 0 2.2.7 3.3s1 4 1 4 3.7-6.2 3.2-7.3c-.5-1.1-4.7 0-4.9 0zm-14.7-72.2c0-2.3-5.6-4.6-9 0 4.4.3 6.7 4.4 6.7 4.4zm-5.9 9c-1.2-1.6-6.2 2.7-6 9.1 3.2-4.2 6.9-3.9 6.9-3.9zm20.6-9.8c.6-2-4.2-7-8.4-4.1 4 2.3 5.2 7.2 5.2 7.2zm6.8 7.7c.9-1.2-.9-7.5-4.4-8 2 4.1 1.4 8.4 1.4 8.4z" transform="matrix(.99936 0 0 1.00396 -2.753 -4.878)"/><path fill="#fcd80e" d="M83.5 612.1c-3.6-4 0-11.7 3.1-8.4-1.7-3.1 1-5.6 2.3-4-.6-2.5 2-4.2 3.3-1.9-.4-2.8 3.5-4.4 4.5-1.4 0-2.7 3.8-4.9 4.7-.9.7-3 5-3.5 5.3 1 1.2-2.6 4.4-2.4 4.6 1.3 1.4-1.8 5 .9 4.3 4 2.2-.5 4.9 4 2.2 7.2 4.8-2.5 5.9 5.7 3 9.4 1.5.9 1.6.1 3 .8s3.6 1.8 5.8 2.3c2 0 9.2-.3 10.7-.5s3.5-1 5.9-1.8c2.5-.8 6.2-.9 9.5-1.7 2.7-.3 76.9 1.2 79 1 2.2-.2 5.3-2.3 5.1-4.8-.2-2.5-2.6-4.3-5-4.5a148 148 0 0 0-17.5.2c-2.3.5-5.6 1.6-7.2 3.2-.8.5-2.1 2.4-3.2 3.7-1 .9-4 1-4-.1 0-.8-.2.1-1 .4-.9.6-5 .7-4.9 0 .3-.8 0-1.1-1.1-.2-.8.7-6.6.9-7.7.2.6-1 .6-1-1.1-.1-1.1.5-5.7.9-6 0 0-.8-.6-.4-1.2-.2-5.2 1.3-5.7-.2-4.9-1 .8-.6 2-4.5.8-4.3l-12.4 2.3c-2.7.4-23 0-25.7-.2a7 7 0 0 1-6.1-6.6c-.3-6 4.6-7.5 7.5-8.4 3-1 10.4-2.3 13.3-2.3 3 0 11.4 1 13.7.1 2.3-.9 9.3-3.4 11.3-3.6 2.9-.3 11.2.7 15.2 5.5-2 1-3 1.5-.7.6l13.4-2.8c7.4-.4 5.5.8 1.9 1.7-1.2 3.8-12 9.2-15.5 9.9a51 51 0 0 1-12.4-.1c-1.7-.2-9.4-.6-12.3-2.4-4.5-3-13-5.1-16.7-5-3.5 0-13.3 1-13.3 4.5 0 6 9.2 6.4 13.1 6.1 4-.2 13.8-.7 16.6-1.8 2.8-1.1 8.9-1.4 12.1-1.4s8.1.7 9.6.5c1.5-.2 5-.3 6.6-1.4 1.6-1.2 5.2-2.3 8.8-2.3 3.6 0 30.4-1 34-.8 5.3 0 9 5.6 9 10.5 0 2.3-1 5.6-2 6.2l7 .8c2.5.5 6.6 3.3 7 5.8-1.8-1.1-4.9-2.9-7.7-3-.5 0-59-.2-63.7-.1a33.3 33.3 0 0 1 24.5 16.6c2.1 3.4 7.4 2 9.4 1.6 2-.5 4.2-2.5 5.9-4.1 1.6-1.6 4.2-2 5.3-1.6 2.6-.2 3 2.5 2 3.9-1 1.3.2.8 2.9.8 2.6 0 4.9 1 6.4 3-1.4 1.4-2.2.3 0 .5 2 .2 4.7 4.1 3 5.2-1.3.7-1.7.5 0 .7 2.8.2 3.5 2 3.9 5-2.3.5-1.2-.2 0 .9 1.1 1.1 2.8 6.2-1.4 6.4-1.4-.7-1.4-.8-1 .7.2 1.6-.6 5.4-2.9 5.4-3.2.6-6-1.1-6.4-3.2-.3-2-.3 4-4.8 5-4.3.9-6.5-1.6-6.9-2.7-.3-1.1-.1-.2-1.8-.5-1.6-.2-3.7-.2-4.6-3 0-1.5.3-3.6 3.3-3.9 1.3-.2 1.7-2 .7-2.2-1-.2-.2-3.6 2-2.7 2 1 7 1.2 8.2 2.3 1.1 1.1 1.4-1-.4-2.7-1.8-1.9-12.8-5.5-15.7-4.1-7 3.4-18.4 3-20.4 2.5s-7.7.8-10.4-7.5a18.8 18.8 0 0 0-14.2-13.1c-18.6-1.8-17.6-.4-5.5.1-.1 1.6-.6 4.9 1.4 5.3 3.3-.4 10.1-1.9 11.8-.5 1.6 1.4 3.3 2.5 3 5.7-.4 3.2 0 2.2-1.4 3.6-1.5 1.4-.8 4.1 1.5 5 2.3 1 3.3 2 4.8 3.4 1.4 1.4-.7 4.1-2 3.2-1.3-1-1.3-1-1.5 1-.2 1.7-1.8 5.2-4.6 5.4-.5-.2-.4-1.1-.3-1.8.1-1.6-.6 2-1.4 3-.6.6-5.2 1.9-6.5 1.2.5-1.4.2-.8-1-.1-1 .4-7.1 1.2-4.4-1.6.7-1.1-1 1.3-1.9 1.7-.8.5-4.4.8-4.4-.6-1.1 1-3.8 1-4.2.2-.9-.9-1 .7-2.4 1-1.5.2-4.7-.3-4.9-2.1-.1-1.8.4-.7-1.4-.5-4.4 3-6.6-1.1-6.6-2.5 0-1.3-.2-3 .3-3.8.5-1-3-1.2-2-3 1.3-2.2 2.6-3.8 5-3.4 1.1.2 1-.5.5-1.4-.5-.9 1.3-1.3 3.4-.4 2.2.9 3.6 3.2 4.3 5.2.6 2 5.7.5 7.9.7 2.1.2 2.3-3.4 1-4.6-1.4-1.1-5-5.2-6.4-6.6-1.5-1.3-.5-6 .8-7.2 7.6-5.2 3.4-6.9.6-6.4s-10 3.3-12.2 5.8c-2.3 2.5-20.2 14.8-21.8 16.2-1.7 1.3-4 1.6-5 0-1-1.5-1.7-.4-1.5 1.9a9.4 9.4 0 0 1-7.8 11.2c-1-.1-2.3-.6-3.3-1.4-1 4.8-5.2 5.2-9 4.8 0-.6.7-1.7.3-1.3-1.3 1.7-5.1 1.5-8.5 1.3-.2-1 1.2-2.2.5-1.6-1.1 2.1-3 1.8-6.2 1.5 0-.4 1.5-1.9.8-1-1.4 1.5-4.2 1-6.4 1-.3-.3 1.1-2.6-.2-1-1.2 1.3-3.8 1.5-6.3 1.1-.4-1 .5-1.1.8-1.8.6-1.1-.3 0-1.2 0-.8 0-2 .2-2.4-1-.5-1-.2 1.2-.7 1.8-.5.6-1 1.8-2.7 2.3-1.6.4-5.9.9-6.5-1.1-1-1-1.4-3-.7-4.1s-3.1 2.2-4.8 2.5c-4.8.9-5.4-6.6-3.2-7.3 2-.7 1.8-1.8.6-2.7-1.1-1-1.8-4.6-.3-5.7 1.5-1.2 4.9-1.8 7-.5 1.3.9 4 3.9 3.5 1.6-.4-1.4.6-3.2 1.6-4 1-.8 3.7-1 4.5.8 1.7 4.2 3 6 5 6a81.7 81.7 0 0 1 12.6-2.7c2.3-.6 14.6-1.8 14.6-2.9-7.4 2.5-10.4-.8-11.2-.5-.8.2-2.8-.8-2.8-1.4 0-1.4 1.8-1.2-.8-.7-1.6-.2-3-.2-4.3-1.9-.2-.8 1.7-3.7 2.4-6.1-1.7-.5-5.4 2.6-6.6 5.3-.9-1-1.3-.1-4.3.6-1.5.6-3.8.4-5.2-.3-1.3-.7-6.4-4.6-4-5-.6-.4-1.3-.6-1.8-.7-1.8-.8-3.5-2.3-3-2.7-.5-.7.5-.7-.2-.8-1-.2-3.4-2-2.8-2.7-.6-.4-2.1-1-2.7-1.3-1.2-.7-2.3-3-2.5-4.2-1 0-3.3-2-2.3-2.5-1.7-1.3-3.2-3.4-2-4.1-1-.8-1.8-2.2-1-1.7-1.1-1.3-.8-2.6 0-2.6.9 0 .5-3.7-1-3.7s-3.8 1.2-5.5 0c-1.4-1-2.7-5.9-1.3-8 1.3-2 3.9-4.3 5.2-4 1.3.2.7.7.3-1.4-.3-2 1.9-3.6 3.3-4 1.8-.9 5.1-.3 6.1.6 1 1 1.3 1 1.3-.7 0-1.1 1.3-1.7 2.4-2 1.9-.4 3.4.1 4 .9 1 1.4 1.7 3.2.4 4.5-1.4 1.4-.2.2 2-.2 1.3-.5 3.8.1 4.2 1.6.6 1.6 1 4.3-.5 5.7-1.5 1.3-3.6 4.7-2.5 5.9 1.2 1.1 4.8 6.1 5.6 6.8.8.7 1.8 2.3 3.1 2l4-.6c4.5-1 6.6-1.4.7-1.2 1.4-1.9 4.1-2.4 5.3-2.8-1-1.6 2.9-4.9 2.9-5.4z" transform="matrix(.99936 0 0 1.00396 -2.753 -4.878)"/><path stroke-width="1.081" d="M83.5 630.6c-3.2-.5-11.1 6.4-8.6 15" transform="matrix(.99936 0 0 1.00396 -2.753 -4.878)"/><path stroke="url(#f)" stroke-width="1.067" d="M84 623c-4.3 26.8 21.8 16.4 22 7.3" transform="matrix(.99936 0 0 1.00396 -2.753 -4.878)"/><path stroke-width=".992" d="M104.5 634.2c.3 3.5.5 13.4-3.1 16a13.5 13.5 0 0 1-11.8 1.5" transform="matrix(.99936 0 0 1.00396 -2.753 -4.878)"/><path d="M96.4 639.7c-.4 3.4-3.9 12-10.7 11m-44.2-48.2c3.6.3 5.3 3.1 6 5.6A97 97 0 0 0 49 612m-4.4 10.5c1.5.7 4.3 0 4.3 0" transform="matrix(.99936 0 0 1.00396 -2.753 -4.878)"/><path stroke-width=".909" d="M46 626.2c3.4 1 6.7-.7 6.7-.7" transform="matrix(.99936 0 0 1.00396 -2.753 -4.878)"/><path stroke="url(#g)" stroke-opacity=".261" stroke-width="1.017" d="M53.5 634.5c9.2 0 13-13 13-13" transform="matrix(.99936 0 0 1.00396 -2.753 -4.878)"/><path stroke-opacity=".089" stroke-width="1.232" d="M72.2 628.4c-2.6 6.7-2.3 6.7-5.6 8.1l-3.3 1.4" transform="matrix(.99936 0 0 1.00396 -2.753 -4.878)"/><path d="M61.8 641.4c3.5-1 5.8-3.1 5.8-3.1M58 600.9c-2 2.5-1.8 7-1.8 7m43.6-6.8c.5 4.5-1.5 7-2.8 7-1.3 0-2.7 1.7-1.9 4.4m10-12.1a11.3 11.3 0 0 0-2 9.4c.7 2.9 0 3.7 0 3.7" transform="matrix(.99936 0 0 1.00396 -2.753 -4.878)"/><path stroke-width="1.244" d="M78 626.3c-4 1.1-5.7 8.5-3.6 12.5" transform="matrix(.99936 0 0 1.00396 -2.753 -4.878)"/><path d="M115.2 615.8h-2.7s-1.8 3.9-4.9 2.8c-3-1-.2 0-.2 0m-7.1-6c4.3.1 3.5 3.6.2 3.2.3 4.2-4.7 3.7-4.3.5-3 0-4.3-4.2.1-3.6m106.7 3.1c.9-2.7 5-5.2 5-5.2m-11 5c1.8-3.1 5-5.1 5-5.1m-13.7 5.5c2.7-1.7 3.5-2.3 4.4-3.2l2.8-2.7" transform="matrix(.99936 0 0 1.00396 -2.753 -4.878)"/><path stroke-width=".951" d="M180.7 615.9c2-1 3.5-1.7 4.9-2.7 1.6-1.1 2.8-2.7 2.8-2.7" transform="matrix(.99936 0 0 1.00396 -2.753 -4.878)"/><path d="M182.3 607.3c-6.3-2.2-9.1-6.4-9.1-6.4m19.7-2.7c-4.2 1.7-12.7 1-13 1m-62.7 54.2c1.2-4.5 3.6-5.5 6.5-7 3-1.2 7.7-5 4.8-2.2-2.9 2.7-7 4.5-8.4 5.5-1.4 1-2.3 3.1-1.6 4.2" transform="matrix(.99936 0 0 1.00396 -2.753 -4.878)"/><path stroke-linecap="round" d="M111.2 636.5c2.7 4.5 1 10.7-2.4 12.4" transform="matrix(.99936 0 0 1.00396 -2.753 -4.878)"/><path d="M120.1 621.2c4.4 1.8 4.5 6 5.1 8.6-1.5-.7-2.6-.4-3.8-1" transform="matrix(.99936 0 0 1.00396 -2.753 -4.878)"/><path stroke-width=".913" d="M118.4 623.7c3 4 4 6.5 4.2 7.9.3 2.4.3 8.5-6.6 8.4.6-1.8 1.4-6.6.3-8.5" transform="matrix(.99936 0 0 1.00396 -2.753 -4.878)"/><path d="M116.8 635.8c0 4-2.8 5.6-4 6.1m-6.6-23.7c.1 4.7-8.4 8.2-8.2 1" transform="matrix(.99936 0 0 1.00396 -2.753 -4.878)"/><path stroke-width="1.007" d="M98 619.5c-.3 3.4-5 4.2-6.6 1.2-1.3-2-2-3-3-3.2-.8-.3-.7-3.1-.9-3.6l-1-2.6" transform="matrix(.99936 0 0 1.00396 -2.753 -4.878)"/><path fill="url(#h)" stroke-width="1.052" d="M91.1 620.5c2.2 3.8 7.4 1.5 8.8 3 1.3 1.6-1.3 6.9-2.2 10-2 2.6-6.3 2.4-7.9.5.9-3.7 1-11.5 1.1-11.7z" transform="matrix(.99936 0 0 1.00396 -2.753 -4.878)"/><path d="M51.8 598.1c.4 2.3-.2 2.8-.7 4.7s.2 5.5.2 5.5m-.4 52c1.7-.6 5.5 0 5.5 0m1.1 5.8c1-2 3.6-3.7 3.6-3.7m16.5 6.3c.9-1.2.9-5.2.9-5.2m5.6 5.2c1.4-1.7 1.5-5.1 1.5-5.1m3.7 5c1.4-2.7 1.2-5.9 1.2-5.9m6.9 6.2c.9-1.5.9-5 .9-5m57-2.9c-3.2-.7-5.2 3.7-5.2 3.7m9.4-4.4c-.3 3.2-2.8 6.2-2.8 6.2m7.9-6.5c-.2 2.8-3 6.5-3 6.5m9.3-7.5c-.5 3.6-3 6.3-3 6.3m7.7-7.6c.1 3.2-1.5 8.1-2.6 9.1m8-7.7c.6 1.7 0 4.2 0 4.2m-34.9-11c2.2.5 3.4 3 3.4 3m-7 3.2c1.1-3.9 6-2 6.6-1m85-17c-1.7-.2-4.4.8-4.4.8m12.8 2.7c-2.5 1-5.4 1.2-5.4 1.2m8.6 4.5c-2.1-.3-3.7-.3-3.7-.3m7.9 5.7c-2.2-.3-5.6 0-5.6 0m4 7c-.8-2-3-2.6-3-2.6m-18.1 7.1c.5-3 4-5.3 6-5.3h2m-11-1.2c2.2-.8 5.6-1 5.6-1M85.2 648.4c2.2-1.7 3.8-5.3 3.8-5.3m22.4-38a52.2 52.2 0 0 0-2.4 2.5m4.5 1.7c-2.9.3-3 .2-3 .2" transform="matrix(.99936 0 0 1.00396 -2.753 -4.878)"/><path stroke-width="1.132" d="M103.3 607.7c2.1-.8 7-.2 7 1.6 0 2.3-2 2.4-7 .3V608z" transform="matrix(.99936 0 0 1.00396 -2.753 -4.878)"/><path stroke-width=".92" d="M96.7 607.9c.2-2.6-5-5.2-6.2-3.8-1.5 2.5 2.8 4.6 4 4.6 1 0 .4.2.4.2" transform="matrix(.99936 0 0 1.00396 -2.753 -4.878)"/><path stroke-opacity=".3" d="M111.9 627.6c1.6 3.1 2 8.5.3 11" transform="matrix(.99936 0 0 1.00396 -2.753 -4.878)"/><path d="M110.6 617.7c-2 5.4-.3 10.4-.3 10.4m-22.7-9c-1.6 1.3-3 .9-3 .9" transform="matrix(.99936 0 0 1.00396 -2.753 -4.878)"/><path stroke-opacity=".3" d="M106 634.8c1.7.9 4 6.3 3.6 8l-.3 1.8m-3.9-7.6a24 24 0 0 1 2 8l-.4 1.4m-7.4-6.7c.6 2.7.3 7.2-.7 8l-1 1m0-8.5c-.9 3.1-1.9 7.6-1.9 7.6" transform="matrix(.99936 0 0 1.00396 -2.753 -4.878)"/><path stroke-linecap="round" stroke-opacity=".102" stroke-width="2.161" d="M83.7 620.9c-2 2.7-4.5 5.4-4.5 5.4" transform="matrix(.99936 0 0 1.00396 -2.753 -4.878)"/><path stroke-opacity=".299" d="M82.4 631.6a32 32 0 0 0-3.9 4.5m5.9 0c-2.6-1.8-5.5 1.4-5.5 1.4" transform="matrix(.99936 0 0 1.00396 -2.753 -4.878)"/><path stroke-opacity=".095" stroke-width="1.232" d="M68.2 641c-.6 1.7-5.5 3-5.5 3" transform="matrix(.99936 0 0 1.00396 -2.753 -4.878)"/><path stroke-linecap="round" stroke-width="1.94" d="m108 608.3-.3 2" transform="matrix(.99936 0 0 1.00396 -2.753 -4.878)"/><path stroke-linecap="round" stroke-width="1.574" d="m94.7 604.6-1 3.1" transform="matrix(.99936 0 0 1.00396 -2.753 -4.878)"/></g><path fill="none" stroke="#961538" d="M79.5 620.4c-6 3.2-7 6-6 12.6" transform="matrix(.99936 0 0 1.00396 -2.753 -4.878)"/><path fill="none" stroke="#961538" stroke-width="1.197" d="M120 611.4c-1.7.8-1.4 4.8-1.4 4.8" transform="matrix(.99936 0 0 1.00396 -2.753 -4.878)"/><path fill="none" stroke="#961538" stroke-width="1.05" d="M83.7 605.8c1.8 1.2 1 5.1 1 5.1" transform="matrix(.99936 0 0 1.00396 -2.753 -4.878)"/><path fill="#961538" fill-opacity=".599" d="M68.9 665.7c-.1 3.9-3.8 2.9-5.3 2.9l1.3-2.5c.2 0 .7.2 1.2-.2z"/><path fill="#961538" fill-opacity=".1" d="M100.7 632.5c.5 1.8.4 3 .3 5-.5 3.3-.6 3.4-2 6-.4.8-.2 0-1.4 2.5l-4.3-3c.2 1 0-.6.2-1 .7-1.2.6-1.4.9-3 0-1.5 1.2-3.9 1.8-1.5zm-15.1 12.1c1 .3 3.4-.5 4.4-.8 1.7-.5.2-.8 1.5-2.1.4-.5.8-2 1-2.5l-1.7-.1c-.3 1.5-1.7.3-1.9.5-.6.6-.6.2-1.4.5-.8.1-1.6-.1-.3.3zM180 635c-.6 3-1.4 4.7-2.7 7.2a19.8 19.8 0 0 1-8 7.1 17 17 0 0 1-3.1.6l-.5-10.4a7 7 0 0 0 1.3-.2 8.7 8.7 0 0 0 3.8-3.5c1-1.8 1.4-4.4.9-.3z"/><path fill="none" stroke="url(#i)" stroke-opacity=".261" stroke-width="1.405" d="M57 637.6c7.1-1.7 11-11 11-11" transform="matrix(.99936 0 0 1.00396 -2.753 -4.878)"/><path fill="none" stroke="url(#j)" stroke-opacity=".261" stroke-width="1.405" d="M48.9 629.2c7.1.4 12.4-7.6 12.4-7.6" transform="matrix(.99936 0 0 1.00396 -2.753 -4.878)"/><path fill="none" stroke="#961538" stroke-opacity=".102" stroke-width="2.556" d="m218.6 650 .4-1c-.8 2-.6 1.1 2-1h5.3c2.2 0 3.3.5 5.2 1 1.2.6 2.3 1.6 3.5 2.4" transform="matrix(.99936 0 0 1.00396 -2.753 -4.878)"/><path fill="#961538" fill-opacity=".1" d="M79.2 640.3c-.2 1 2.6 2.5 4.2 2.6 1.7-1 1.7-1.5 2.9-3.2.3-.6 0-.2.2-.9l-3.6-3.4c-.5.3-.8.5-.9.8-.5.9-.5 1.4-1.4 1.9-.7.3-.8.1-.2.4l-.6 1zm31.5-.2c1-1.1 1.4-2 2-3.7.7-2.8.9-5.2.7-8.2a31.9 31.9 0 0 0-.5-2.7l-4 1.8.3 1.2c.1 1.5 0 2.5-.4 3.9-.4 1.2-1.3 2 .1.8z"/><path fill-opacity=".1" d="M113.3 621.8c1.3.2 2 .7 3.2 1.6a17.7 17.7 0 0 1 4.3 9.2l-4 1.6a13.5 13.5 0 0 0-.3-1.2c-.5-1.4-1-2.2-1.8-3-.8-.7-2-.8-.3-.8z"/><path fill="#961538" fill-opacity=".1" d="M107 645.4c1.1-1.7 2-.7 2.4-3 .1-3.6-.3-6.4-1.5-9.8a30 30 0 0 0-1.5-2.9l-5 4 .7 1.3c.6 1.6.7 3 .6 4.7-.2 1.6 0 2 1.3 2.6z"/><path fill="none" stroke="#961538" stroke-opacity=".102" stroke-width="2.556" d="M243.4 656.5c2.2 0 3.2.5 5.2 1 1.2.7 2.3 1.7 3.5 2.4m-19-17.3c2.2-.5 3.3-.4 5.3-.4 1.3.3 2.5 1 3.8 1.4" transform="matrix(.99936 0 0 1.00396 -2.753 -4.878)"/><path fill="none" stroke="#961538" stroke-opacity=".102" stroke-width="1.926" d="M199.2 648.4c-1.4 0-2-.3-3.4-.6l-2.3-2" transform="matrix(.99936 0 0 1.00396 -2.753 -4.878)"/><path fill="none" stroke="#961538" stroke-opacity=".102" stroke-width="2.119" d="m212.9 622.2-17-.5c-4.5 0-12-.3-16.9-.4" transform="matrix(.99936 0 0 1.00396 -2.753 -4.878)"/><path fill="none" stroke="#961538" stroke-opacity=".102" stroke-width="1.926" d="M156.5 628c1.3-.8 2.1-.8 3.4-1.1.9 0 1.8.5 2.7.6" transform="matrix(.99936 0 0 1.00396 -2.753 -4.878)"/><path fill="#961538" fill-opacity=".1" d="M45.8 616.1c-.6 1.3-1 1.8-1.8 2.5-1.2 1-1.8 1-3 .8-.3-.1-.3-2.8-.6-3l.6-2c.2.2.3.3.5.3.5.1 1 0 1.5-.5.6-.6 1-1.7.3 0z"/><path fill="none" stroke="#961538" stroke-width="1.052" d="M90.8 619.3c-.2 5-3 7.6-3 7.6" transform="matrix(.99936 0 0 1.00396 -2.753 -4.878)"/><path fill="none" stroke="#961538" stroke-width="1.161" d="M88 617c-1.3 5.4.4 9.7.4 9.7" transform="matrix(.99936 0 0 1.00396 -2.753 -4.878)"/><path fill="none" stroke="#961538" stroke-width="1.047" d="M101.6 623.3c-.3 4.9 2 7.9 2 7.9" transform="matrix(.99936 0 0 1.00396 -2.753 -4.878)"/><path fill="none" stroke="#961538" stroke-width="1.156" d="M104.5 621.5c.8 5.5-1.4 9.4-1.4 9.4" transform="matrix(.99936 0 0 1.00396 -2.753 -4.878)"/><path fill="#961538" fill-opacity=".1" d="M82.5 663.1c-.2 4-5.3 3-7.4 3l.6-1.1c.3 0 2.1-1.3 2.9-1.7z"/><path fill="#961538" fill-opacity=".1" d="M87.4 661.3c-.2 5.6-4.5 4.1-6.3 4.1l.5-1.4c.2 0 1.8-1.9 2.4-2.4zm7.8.3c-.2 8.3-6 6-8.6 6l.7-2c.3 0 2.5-2.8 3.4-3.6z"/><path fill="#961538" fill-opacity=".1" d="M103 661.4c-.2 8.3-6.1 6.1-8.6 6.2l.7-2.2c.3 0 2.5-2.7 3.3-3.6zm-28.2 0c-.1 8.3-5.2 6.1-7.3 6.2l.6-2.2c.2 0 2-2.7 2.8-3.6z"/><path fill="#961538" fill-opacity=".599" d="M78.6 638.8c-.7 2-1.8 3.7-1.6 5l-1.1-.5c.8.3-1-3.4-1.4-2.7l1-.7.2-.4.5-.3z"/><path fill="none" stroke="#961538" d="M120.8 618.4c.5.3 1.9 0 4.4 1-1 1.6-3.7 2.5-4.8 2" transform="matrix(.99936 0 0 1.00396 -2.753 -4.878)"/><path fill="none" stroke="#961538" stroke-opacity=".102" stroke-width="2.066" d="M182.8 653.6c-1.6.4-2.4.2-4 .2-1-.3-1.9-1-2.8-1.4" transform="matrix(.99936 0 0 1.00396 -2.753 -4.878)"/><path fill="none" stroke="#961538" stroke-opacity=".102" stroke-width="3.17" d="M167.2 659.2c3 .8 4.7.8 7.6 1 2-.2 4-.7 6-1" transform="matrix(.99936 0 0 1.00396 -2.753 -4.878)"/><path fill="none" stroke="#961538" stroke-linecap="round" d="M127 651.1c-3 1-4.5 1.2-5.5.2" transform="matrix(.99936 0 0 1.00396 -2.753 -4.878)"/><path fill="none" stroke="#961538" stroke-linecap="round" stroke-width=".965" d="M130.4 648.5c-2.7 1.1-4.2 1.5-5.6.6" transform="matrix(.99936 0 0 1.00396 -2.753 -4.878)"/><path fill="none" stroke="#961538" stroke-linecap="round" stroke-width=".787" d="M135 645.4c-1.8 1-2.8 1.4-3.7.5" transform="matrix(.99936 0 0 1.00396 -2.753 -4.878)"/><path fill="none" stroke="#961538" stroke-linecap="round" stroke-width=".871" d="M138.1 643c-2.2 1-3.4 1.4-4.5.5" transform="matrix(.99936 0 0 1.00396 -2.753 -4.878)"/><path fill="none" stroke="#961538" d="M51.5 598.1c.4 2.3-.1 2.8-.7 4.7s.2 5.5.2 5.5m7.3-7.4c-2 2.5-1.7 7-1.7 7" transform="matrix(.99936 0 0 1.00396 -2.753 -4.878)"/><path fill="none" stroke="#961538" stroke-width="1.011" d="M41.8 602c3.6.3 5.4 3.2 6.2 5.6a95.4 95.4 0 0 0 1.3 3.9" transform="matrix(.99936 0 0 1.00396 -2.753 -4.878)"/></g><use xlink:href="#k" width="100%" height="100%" transform="translate(0 -98.986)"/><path d="M277.3 350.5c-.7.8-1.5 2.5-1.7 3.5-.2 1-.8 3-1.4 4.2-1.4 3.2-1.3 5.8.2 8.1 1.9 2.9 5 2.8 6.5 0 1.4-2.7 1-6.4-.8-9.3a7 7 0 0 1-.8-7.2c.7-1.4-.6-1-2 .7zm6.6 17.2c-1 .4-2.1 1.2-2.5 1.7-3 4 3.8 8.3 8.8 5.7 5.3-3 5.4-3 8-2.2 2.1.7 2.2.7 1.8-.1-.9-1.7-2.2-2.4-7.4-4.2-6-2-6.2-2-8.7-1z"/><path fill="#47a3d8" d="M286.2 0h763.6v700H286.2z"/><path fill="#fcd80e" stroke="#0a1a1d" stroke-width="1.148" d="M692.5 57.4a7.7 7.7 0 0 0-2.4 7.3c.5 4.2.5 4.2-5.2 3-11-1.9-31.6-.8-44.3 2.3-17.2 4.4-25.5 4.1-45.5-2-2.3-.7-2.1 0 1.5 6.7 4.3 8 6.3 9.6 16.5 13.2l6.5 2.3-11.7 3c-6.4 1.8-12.8 3.2-14 3.2-4.8 0-2.5 2.6 4.3 5 9.8 3.3 20.2 2.9 41.5-2.2a100 100 0 0 1 30.8-4c6.5.2 12.3 1 13 1.7.6.5-2.8 4.6-7.5 9-7 6.3-9.7 7.8-13.9 8a69 69 0 0 0-9.8.8c-4.3.9-4.5 1.2-4.5 9.3v8.4L614.2 164a667.8 667.8 0 0 1-38.5 34.4 20 20 0 0 0-5.9 5.2c-1.6 3 .3 8.1 3.3 9.3 2 .7.8 3.2-5.8 12.2-9.4 13-16.6 27-22.2 42.5l-4 10.8-2.4-8A178.4 178.4 0 0 1 532 227c0-11.2 0-11.2 7.6-22 9-13 30.5-35.3 42.4-44.3 4.7-3.6 12.8-8.6 18-11 11.6-5.4 14.5-7.9 14.5-12 0-4.7-3.4-7-9-5.9-3.1.6-16-1.4-38-6l-33.6-6.7 3.5-14c2.3-8.8 4.8-15 7-17.5 4.4-4.7 4.6-10 .2-14-7.2-6.9-18-1-16.5 9l.8 4.8-9.6 1c-5.2.6-17.7 3.2-27.5 6-20 5.5-35.6 6.4-45.9 2.8l-6-2.2c-.3 0-.5 1.6-.5 3.6 0 6.2 4 11.8 10.3 15l6 3-4 1c-2.2.6-8.7.6-14.6.2-6-.5-10.7-.5-10.7 0 0 3 7 11.1 11.7 13.4 10.1 5.3 31.3 3.4 54.7-4.9 11.7-4 27-5.2 26-2-.7 1.7-21 17-56 42.2-17.7 12.6-20.5 16-17.7 22.2 1.4 3.3 1 4.6-3.4 11.9-9.4 16-18.2 43.3-18.2 57.2 0 7-.4 7.6-10 17.7-19.5 20.6-57.7 68.6-66 83L345 363l-2.7-3.5c-5.5-7-17.1-3-17.1 5.8 0 6.1 3.8 9.6 10.6 9.6 3.7 0 11.2 2.9 24.3 9.5l19 9.5-3.7 3.9c-7 7.5-8.4 13.5-4.8 18.6 1.8 2.3 4 2.7 12 2.7 8.7 0 11.6.7 21.6 5.7 9.8 4.9 13.6 8 28 23 44.8 46.9 55.8 56.6 82.6 73.1a415 415 0 0 0 57.6 28.6 255.8 255.8 0 0 0 200.4-12.3c11.6-6 17.2-8 17.5-6.9l3 9.3c2.5 8 9.7 20.2 12.8 21.3 1 .3 24.2-2.9 51.7-7l50.9-7.9c2.7-.1 6-16 6-28.3 0-12.6-.2-13.5-6.3-25.4a73.7 73.7 0 0 0-31.1-32.7l-8.1-3.8 3.5-4.5c16-21.3 35-52 42.4-68.3l4.2-11 7.5-.1c4 0 7.8-.6 8.2-1.4.5-.5-.1-5-1.3-11.7l-2.1-12.6c0-.2 2.6-.3 5.7-.3h5.8v-33l25-47.7a623.7 623.7 0 0 1 28.3-51c4.5-4.5 3.9-11.3-1.5-15.2-3.3-2.5-4.4-2.6-8-1.2-4.5 1.9-8 7.5-6.7 10.7.4 1.2-.7 4.4-2.3 7.3-2.6 4.5-3.8 5-7 4.5-2.1-.5-18.6-3.2-36.7-6.3l-32.7-5.5-16.1 29c-8.8 16-16 29.2-15.8 29.5.3.1 17 1.4 37.4 2.7s37.1 2.8 37.4 3c.3.2-4.6 9.4-10.8 20.2l-11.3 19.6h-33.3c-29 0-33.3.3-34.9 2.3-1.4 2-2.1-.1-4.9-12.6-4.5-21-8.8-48.7-8.8-56 0-7 6.4-21.7 18-41.4 17.2-29.3 41.8-57.8 51.6-59.6 8.4-1.6 14.3-6.1 14.3-11 0-4.8-2.3-7.2-8-7.9-4-.4-55-20.6-57.4-22.6-1.4-1.2 5.8-26.1 8.4-29.2 7.7-8.7-7-21.1-15.3-12.9-3.2 3.2-3.8 10-1 13 1.9 2.2 0 1.7-7.7.5-14.6-1.7-28.5-1-41.6 2.3a68.2 68.2 0 0 1-38.4.3c-5.5-1.4-9.7-2-9.7-1.3 0 3.4 6.2 12.3 10.5 15.2a33 33 0 0 0 10.4 4.4l5.7 1.3-8.7 2.5c-4.6 1.3-11.4 3.2-15 4l-6.6 1.8 5.8 2.6c8.7 3.9 23.9 3.5 42.4-1.2 10.6-2.6 19.7-3.8 28.8-3.9 11.5-.1 17 .9 14.8 2.5-19.4 15.3-86.1 66-93.6 71-11.6 7.9-13.4 10.2-13.4 17 0 3.8.8 5 4.2 6.2l4.2 1.5-5 8c-3 4.3-7.4 12.9-10.2 19l-5 11-2.6-5.1c-2.5-5-5-14.6-6.4-25.5-.7-5.1 0-7.4 6-17.9a213.5 213.5 0 0 1 37.3-48c1.1-2-3.2-7.2-6.1-7.2-2.2 0-54-36-54-37.4 0-4 7.8-25 10.1-27.1 1.6-1.5 3-4.5 3-6.9 0-8.7-11.2-13.2-17.6-6.8zm29.7 65.1c10.7 7.6 19.5 14.1 19.7 14.5 0 1-38 14.7-38.7 14-.3-.3 1.8-5.3 4.5-11a59.8 59.8 0 0 0 5.2-12.2c0-2.2-13.6-8.8-18-9.6-3.3-.7-4-2.5-2-8.7l1.7-5.8 4 2.6c2.2 1.3 12.7 8.7 23.6 16.2zm181.8 5.8c0 1-58.2 19-59 18.5-.2-.3 8.2-30 10.5-36.9.4-1.1 8.5 1.6 24.4 8 13.2 5.4 24 10 24 10.4zm-225-16c-.5.8-1.7 1.5-2.5 1.5-.9 0-.9-.8.3-2.1 2-2.5 3.7-2 2.1.5zm155.2 20a165 165 0 0 1-7 19.7c-.8 1-20.8 7.5-53.5 17.5-10.7 3.3-13 3.9-8.7 1l38.4-29.7c19-14.6 36-27.7 36.4-27.7.6-.1-2.4 9-5.6 19.2zm-274.7-3c30.4 6.1 31 6.3 25.4 7.9l-32.3 9.1-28 7.9 1-4c3.1-13.3 6.9-26.2 7.6-26.2.6 0 12.3 2.3 26.3 5.2zm-44.1 6.6a759 759 0 0 1-3.6 12.2l-3 10.4-11.2 3c-6 1.6-15.6 4.4-21.1 6a38.6 38.6 0 0 1-9.3 2c1.2-1 48-35.4 48.5-35.4.1 0 .1 1-.3 1.8zm136.6 6.5c1.7-.4 3-.4 3-.1 0 2.3-26.7 36.2-29.3 37.2-1.8.8-10.3 3.8-18.8 7L591 192l12-11.3 28-26c10.3-10 16.1-14.4 16.9-13.3.5 1 2.3 1.3 4 1zm13 11.9-4.3 13-11 3.7c-6 2-11.2 3.6-11.3 3.3-.3-.1 5-7.7 11.7-16.7 9.7-12.9 13-16.2 15.7-16.2h3.6zm32.4-4.4 4.1 2.7-12.4 4.3c-6.8 2.5-12.2 3.6-12 2.8l3.1-9.2 2.5-7.7 5.3 2.4c3 1.1 7.1 3.3 9.4 4.7zm19.2 88.2 3.7 7.7-3.6 11.9a297.6 297.6 0 0 0-9.7 47.4 45.4 45.4 0 0 1-7.5 23c-3 5.3-6.4 11.4-7.1 13.7-3.9 8.9-4.3 2.6-5-17.7-1-21.7 1-43.8 5.4-64.5 3-13.8 10.3-36.3 14-43.5l2.2-4.4 2 9.3c1 5.2 3.5 13 5.6 17.1zm-189 .2c0 8.4 3.7 25 8 38 3 8.5 3.4 11.6 2.2 16.5-.7 3.2-2 13-2.9 21.6-2.7 27.7 1.8 54.1 13.6 78.6 3.7 7.1 6.8 14.7 7.4 16.5l1 3.5-4-3c-12-8.6-24.6-25.4-31.6-42-4.3-10.4-4.6-12-1.6-12 2 0 2.2-3 2.2-18.1v-18.1h-4.3c-3.8 0-4.5-.8-6.1-6.3-1.2-3.6-1.9-13.9-1.9-25.6 0-21.5 2-30.5 11.3-51.2 5.4-13.8 7-12.9 6.6 1.6zm309.8 26.6a678 678 0 0 0 10.7 54.3c1.9 7.4 1.9 8.7-.7 16.2-1.6 4.5-2.5 9-2.2 9.9.4 1-2.5 5.2-6.2 9.4-6.8 7.6-7 7.7-8.7 4.5-7-13.2-9.6-46.7-5.2-69.5 1.9-10 9.3-36.6 10.1-36.6.3 0 1.2 5.3 2.2 11.9zm-411.7 26.9 2 8.8-12 44.1-12.2 44-4.6-.5c-6-.7-49.2-20.6-49.2-22.7 0-5.6 41.2-58.8 64.4-83.3l8.7-9.1.4 4.8c.3 2.7 1.5 9 2.5 13.9zm45.6-1.5c0 .8-2 7.4-4.1 15l-4 13.7-9.9.5c-5.5.3-10.6-.2-11.4-1-2-2 .1-12.5 3.7-17.9a30.7 30.7 0 0 1 20.9-11.3c2.6 0 4.8.4 4.8 1zm31.2 20.5c2.8 3.6 5 7 5 7.7 0 .7-6 1.3-13.2 1.3H481l.9-4c.5-2.3 2-7.5 3.1-11.7l2.2-7.5 5 3.9c3 2.2 7.5 6.8 10.2 10.3zm-67.7 8c2.6 6 3.2 10.4 3.2 22.4V356h9.4l.3 12.8c.1 7 1.6 17.8 3.1 24 3 12.4 2.4 18.3-2.3 18.3-1.3 0-9-3.9-17-8.7-8-4.8-16.5-9.3-19-10.1l-4.3-1.6 10.8-39.8c6-21.8 10.7-41.4 11.2-41.4.6 0 2.8 5 4.6 9.3zM709.5 368c3.3 16.8 9.4 32.6 18.8 49.1a101 101 0 0 1 7.6 14.8 53.4 53.4 0 0 1-17.5 3c-2-1.4-10.1-19-15.6-34-6.2-17-11.9-40.5-10.8-44.8.4-2 3.6-9.3 6.9-16.1l6-12.4 1 14.3c.7 7.8 2.1 19.5 3.6 26zm108.4-4.8c5.6 2.9 7.2 4.3 6.9 6.8-.3 2.6.4 3.2 4.3 3.6 7.7.7 6.4 4.2-5.6 14.7a74 74 0 0 1-12.7 9.7c-3.4 0-17.5-17.3-22.2-26.9l-4.8-10.1 4-1c8.3-2 22.5-.6 30 3.2zm-19.6 30 8.4 8.4-3.8 2.6c-5 3.5-38.3 19.9-39 19.3-.3-.3 3.3-13.3 7.8-29L780 366l4.9 9.5a89.4 89.4 0 0 0 13.3 17.8zm-49.2 9.4c-4.2 13-8 24.2-8.7 25-1.9 1.8-3.3-8.6-2.3-16.3a50 50 0 0 1 11.3-27.1c3.2-3.6 7.5-8.6 8-8.2.3.3-4.2 13.6-8.3 26.6zM589.6 381l-7 20.7a184.2 184.2 0 0 1-7.1 20c-.6.7-3.7 0-6.9-1.6-4.7-2.4-5.9-3.9-7.5-10.3-1.7-7-1.7-7.7 2-13.9a31.3 31.3 0 0 1 19-15c7.8-2 8.3-2 7.5 0zm24.5 2c2.6.7 3.6 2.9 5.6 12.8a125 125 0 0 0 10.3 26.8l7.5 15-7.5-1c-4.2-.4-14.2-2.3-22.1-3.9l-14.8-3 3.5-11.2 7.4-23.8c3.7-12.6 4.3-13.3 10-11.7zm32 12.2 15 7.2-6.6 7.6a54 54 0 0 0-9.2 14.2 39.7 39.7 0 0 1-3.3 7.7c-2.6 2.9-18.8-34.8-18.8-43.7 0-3 5.4-1.3 22.9 7zm30.4 16c15.9 9.8 37.2 25.9 34.3 26.2l-18.1 1.3c-9.1.6-23.3.9-31.4.4l-14.8-.9.9-4.4c1.3-7 5.8-15.1 12.3-22 3.2-3.6 6-6.5 6.3-6.5.5 0 5.1 2.6 10.5 6z"/><path d="M692.3 57.1a8.5 8.5 0 0 0-2.4 7.4l.6 4-7.4-1a112 112 0 0 0-41.7 2.7 64.8 64.8 0 0 1-37.5.3c-5.3-1.5-9.8-3-9.8-2.2 0 2.5 4.2 10 7.8 13.4 1.9 1.8 6.7 4.4 10.4 5.9l7.1 2.8-8.7 2.4a165 165 0 0 1-13.3 3.2c-8.7.2-7.4 2.3 1.3 5.4 10.4 3.3 17.7 2.9 40.7-2.2a108 108 0 0 1 31.5-4c6.3.2 11.9 1.1 12.6 1.8.6.6-2.7 4.7-7.5 9-6.4 5.8-9.8 7.8-13 7.8-2.3 0-6.8.5-9.7 1l-5 1.3-.5 7.9v8.4l-33 31c-18.1 17.2-35.6 33-39 35-5 3.2-6.2 4.8-6.2 8.3 0 2.7 1 4.7 3 5.8 2.5 1.4 2.2 2.1-5.4 12.7a152.9 152.9 0 0 0-20.9 39.5l-5.3 13.7-3-10.1c-4.1-13.8-6-26.5-6-41.2 0-12 0-12.2 6.4-21 19.4-27 47-50.5 64.8-58.3 7.7-2.6 11.3-6 11.3-10.2 0-4-4.5-6.8-9.3-5.5-2.6.6-69.9-11.6-71.3-13-.3-.2 1.3-6.6 3.3-14.1a50 50 0 0 1 7.3-17.4c4.3-4.6 4.4-10 .1-14-7.2-6.9-18-.6-16.4 9.2l1 4.5L517 89c-6.5 1-18.8 3.7-27 6.1-18.6 4.3-34.8 6.3-44 2.4-7.1-3-6.7-3.2-6.7 1.7 0 5.5 5 11.5 12.1 14.8l4.3 2.6-2.5 1c-2.2.5-9.1.6-15.5.3-6.2-.4-11.4-.1-11.4.4 0 2.7 9.5 12 14 13.8 9.7 4 31.4 1.5 54.6-6.5 9.7-3.5 24.6-4.2 23.7-1.3-.4 1-15.6 12.8-33.9 26a1058.7 1058.7 0 0 0-37 27.8c-4.5 4-5.2 8.5-2 11.4.2 2 .7 2.7-1 5.9-9.3 13.3-21.3 48.7-21.3 63 0 6.1-.8 7.3-12.8 20.5-24.1 26.5-53.2 63-61.6 77.4l-4 6.7-3.4-3.5c-4.2-4.2-9.8-4.5-13.7-.6-6.4 6.4-1.5 16 8 16 3.2 0 11.3 3.2 24 9.4l18.7 9.6-4.3 5c-10.4 11.8-5.8 22.7 8.5 20.2 13-2.2 32.8 9.9 53.2 32.4 32.4 35.5 50.3 51.4 76.4 67.5 7.2 4.5 13.7 8.6 14.4 9.3 3 2.5 35.4 17.6 45.3 21.2a255.9 255.9 0 0 0 200.5-12.3c11.5-6 17.2-8 17.5-6.9l3 9.3c2.5 8 9.7 20.2 12.8 21.3 1 .3 24.1-2.9 51.6-7 27.5-4.3 50.4-7.7 51-7.9 2.7-.1 6-16 6-28.3 0-12.6-.3-13.5-6.3-25.2a75.5 75.5 0 0 0-30.9-32.8c-7.5-3.6-8-4.2-6.5-6.6l11.2-15.4c11-15.4 27.6-43 33.4-56.1l4.3-9.6h8c7.5 0 8-.2 7.2-3.3a352 352 0 0 1-3.6-21.7c0-.5 2.8-1.1 6.1-1.1h6l-1-15.4.3-16.8 24.4-47.4c14-26.9 26.9-50.4 28.8-52.5 5.9-6.3 3.7-13.8-4.7-16.4-4.6-1.5-11.4 3.8-11.4 9.3 0 2.5-.7 7-2.3 9.7-2.6 4-3.8 4.8-7 4.2-14.9-3.2-67.8-12.6-69.2-12-1 1-31.2 55-31.5 57.7 0 .9 3 1.3 5.5 1.3s17.7 1 33.6 2.1c16 1.2 31 2.7 33.2 2.7 3.7 0 3.4-.3-8.2 19.8l-11.7 20.3h-33.6c-33.5 0-33.5 0-34.8 2.8-2 0-1-.1-1.5-.6a484 484 0 0 1-11.3-56.6l-.8-15.4 7.2-18c17.4-36 49.8-77.2 62.2-79.5 8.4-1.5 14.5-6 14.5-10.8 0-4.9-2.3-7.5-6.8-7.5a555 555 0 0 1-58.8-23c-1.4-1.5 5.4-25.3 8.4-29.6 3-4.5 2.8-8.7-1.1-12.4-4.4-4-9.9-4-13.8.2-3.3 3.5-4.3 10.3-1.7 11.9 3.3 2 1 3.2-4 2a103.3 103.3 0 0 0-44.5 1.6 75 75 0 0 1-39.7.1 44 44 0 0 0-8.8-2.1c0 .4.9 2.7 2 5.3 3 6.8 9.3 12 17.4 14.4l7 2-10.6 3a221 221 0 0 1-15 4.1l-4.4 1.2 5 2.2c9.6 4.2 22.6 3.9 44.6-1 19.3-4.2 33.1-4.2 40.6-3.4 2.9.9-3 5.8-41.3 35.2a2404.7 2404.7 0 0 1-51.8 39c-9 6-12.1 10-12.3 14.7-1 4.4 3.4 8.8 7.1 8.6 1.2-.1.7 1.4-1.2 4a227.9 227.9 0 0 0-16.5 31.9c0 .9-.6 1.6-1.3 1.6-2.3 0-6.6-13.5-8.4-24.8l-.4-11.1 6.2-12.7c8-13.6 22.8-33.2 31-41 7.9-5.3 7.5-9.7 1.4-12.3-5.5-2.4-54.2-36-55-37.9A84.3 84.3 0 0 1 707 71c3.7-5 3.9-9.8.1-13.6-3.9-4-11-4.2-14.8-.2zm12 3.8c2.7 3.3.4 8.3-4 7.7-5-.6-7.4-4.5-5-7.5 2.6-3 6.6-3 9-.2zm159.1 4.4c2 2.4.7 7.4-2.3 8.5-3.2 1.2-7.8-1.6-7.8-4.6 0-5.5 6.6-8.1 10.1-4zM688 73.5c5 .9 9.3 2 9.7 2.6.3.6-.7 5.1-2.3 10-2.5 7.3-3.5 8.9-5.5 8a88 88 0 0 0-11-2.9c-10-2.3-19.7-1.3-44.9 4.5-8.7 1.9-18.5 3.6-21.7 3.5l-5.8-.1 4.4-1.5c14.3-4.8 19.5-7.4 19.5-10 0-2.3-1.1-2.8-6.8-2.8-7.7 0-17.2-3.7-20.7-8-2-2.4-1.9-2.5.7-1.5 6.4 2.6 26 2.7 35.5.1a101 101 0 0 1 49-1.9zM542.7 78c1.9 3-.3 7.4-3.8 8.1-2.3.4-6.9-3.3-6.9-5.5s4.6-6 7-5.5c1.1.3 2.8 1.6 3.7 2.9zM847 80.6c4.6 1 9.1 2.2 9.7 2.8 1.3 1.2-3 18.8-4.6 18.8-.5 0-4-1-8-2.1-10.7-3.4-23.7-2.6-45.3 2.1a169 169 0 0 1-25.5 4.3h-6l8.7-3.4c13.6-5.2 13.8-5.5 13.4-8-.3-1.6-2.7-2.6-8.4-3.2-8-.8-16.3-4.2-18-7.2-.8-1 1-1.2 5.9-.3 10.2 1.6 21.5.9 33.8-2.3 12.5-3.2 31.6-4 44.3-1.5zM535 94.3c0 .4-1.3 6.2-3 12.9l-3 12-12.5-.7a55.5 55.5 0 0 0-26.4 3.8c-26.3 8.4-43 9.7-51.6 3.7l-4-2.7 11.5-.9a96 96 0 0 0 19.4-3.3l8-2.8-12-3.8c-10.5-3.4-17.9-7.6-16-9.2.3-.3 5.2.1 10.7.8 11 1.6 14.8 1 43.4-6.8 12-3.3 35.5-5.2 35.5-3zm155.9 7c-.5 1.2-1.6 4.7-2.6 8s-2.6 6-3.7 6c-1.8 0-1.4-1.6 3-14.2.4-.9 1.4-1.8 2.4-1.8.9 0 1.3 1 .9 2zm27.5 18.5a324 324 0 0 1 23.3 17.1c.4 1.2-37.4 15-38.4 14a59 59 0 0 1 5-11.7l5.4-11.1-3.3-2.7a46.1 46.1 0 0 0-10.1-5.2c-3.8-1.3-7.4-3-8-3.5-1-.8 1.6-13 2.8-13 .2 0 10.7 7.2 23.3 16zm132-11.2c0 1.2-1.2 6.1-2.7 11.2-1.6 5-4.2 14-5.8 19.6-2.3 7.8-3.7 10.6-6 11.1-2 .6-2.8.2-2.3-1l6.8-21.3c3.3-10.7 6.3-19.9 6.8-20.6 1-1.7 3.3-1.1 3.3 1zm53.6 19.9c0 .9-58 19.1-58.7 18.3-.5-.5 8-31 10.1-36.9.6-1.1 8.4 1.3 24.6 8 13.2 5.4 24 10 24 10.6zM678.7 113c-1 .8-2.4 1-2.3 1.4-.7-.4-.5-1.7.5-2.9 2.1-2.6 3.2-1.9 1.8 1.5zM834.4 132a125.9 125.9 0 0 1-7.5 20.3c-1.6 1.5-17.5 6.5-51.4 16.7a74.6 74.6 0 0 1-12.7 3.2c1.9-1.9 76.8-59.5 77.1-59.2.3 0-2.3 8.6-5.5 19zm-166.3-6c-1.1 10.8-2.9 11.8-2.9 1.8 0-6.4-.4-8.3-2.1-8.3-1.6 0-1.4 1.8-1.7 8l-1 8.7-1.8-4.9c-.4-3.9 0-10.3-.9-11.3-1.1-1.5-.1-1.9 5-1.9h6.3zm7.7-6.9c.3.7-.3 5-1.1 9.9l-1.8 8.7-.6-9.9c-.4-6.8-.1-9.7 1.2-9.7.9 0 1.9.4 2.3 1zm-20.7 9.1c0 4.8-.6 8.8-1.4 8.8-.9 0-1.5-4-1.5-8.8 0-4.7.6-8.7 1.5-8.7.8 0 1.4 4 1.4 8.7zm29.2-6.2a34 34 0 0 0-2.4 8.7c-.6 3.5-1.6 6.3-2.5 6.3s-1.1-1.8-.6-4.5c.5-2.5 1-6.4 1-8.7 0-3.2.6-4.3 2.8-4.3 2.5 0 2.8.6 1.7 2.5zm16.8 3.3c3.4 1.5 6.1 3.5 6.1 4.4 0 .9-1.7 5-3.7 9-2.5 5-4.2 6.8-5.3 5.8-.8-.9-.4-3.3 1.6-7.3 1.8-3.3 3-7 3-8.2 0-4.4-3-2-6 4.6-4 8.6-4 8.3-4.8 7.4-.4-.4.3-3.5 1.5-7 2.6-7.5 2.7-10.1.3-10.1-1 0-3.2 3.8-4.7 8.3-3 9.2-4.6 7.5-2.3-2.5.7-3.5 1-7 .6-7.7-1.2-1.9 5.8-.1 13.7 3.3zm-174.8 1.2c0 4.8-7 28.3-9 29.4-2.9 2-3 .6-.5-8l4.6-16c2.2-7.7 5-10.8 5-5.4zm34 2.5c14.4 2.9 26.2 5.8 27.3 6.4 1.2.4-11.5 4.5-29.4 9.5a509 509 0 0 1-33.2 8.6c-.3-.3.4-4.2 1.8-8.9l3.9-14.6c.8-3.3 2-6.1 2.6-6.1l27 5zm359.6 4.2c0 3-3.3 5.2-12.5 8-4.7 1.4-28 9.5-51.9 18l-73.6 26.5c-22.7 8.1-31.7 10.7-36.2 10.4-4.3-.3-6-1.1-6.4-3-1-5.2 5.5-9.6 22-14.8 69.5-22 151.4-47 154.7-47 2.4-.2 4 .6 4 1.9zm-406.9 12a82 82 0 0 1-4 12.3c-.8 1-13.4 4.8-36.8 11.2-3.2.9-5 .9-4.4.3 2-1.9 47-35 47.7-35 .3 0-1 5.1-2.5 11.2zm97.3-6.8c0 2.3-4.8 4-48.7 17.3-93.5 28-109 32.3-111.3 31.6-1.7-.8-1.8-1.6-.4-4.5 1.7-4 2.5-4.4 35.2-13a6736 6736 0 0 0 65.8-18.2c58.5-16.2 56.9-15.8 58.3-15 .6.2 1 1 1 1.8zm43.2 3.3c2.6-.5.3 3.2-10.5 18l-16.2 19.3-16.1 6.2a271 271 0 0 1-18.8 6.4c-.2-.3 12.1-11.9 27.3-26 19.7-18.4 28.1-25.5 29.3-24.4 0 2.3 3 1 5 .5zm11.6 12.5-4.3 13-10.9 3.8c-6 2.2-11.1 3.8-11.3 3.5-.3-.3 4.8-7.8 11.3-16.8 9.8-13.6 12.3-16.3 15.6-16.4h4zm12.4-11.2c-5.5 18-6.9 21.5-9 21.5-1 0-1.8-.9-1.5-1.9.4-.9 2.2-6 3.9-11.6 2-5.8 4-9.7 5.3-9.7 1 0 1.8.9 1.3 1.7zm73.9-.4c-1 .7-18.4 8-39.1 16.1l-80.3 31.5c-23.5 9.3-45 17.4-47.8 18-6 1.4-10.1.4-10.1-2.2 0-2.5 5.6-4.8 50.6-21l78.2-28.3c37-13.7 52.5-18 48.5-14zm-53.9 7.3 4 2.6-12 4.3a51 51 0 0 1-11.8 3.2c-.3-.2.1-2.6 1.4-6.5 1.3-4 2.5-8 3-9 .5-2 7.6.4 15.4 5.4zm189.7 7.6c-43.8 46.2-75 125-68.7 173.8a128.8 128.8 0 0 0 7.4 29.9c0 .1-3.2-1-7-2.8l-7-3.2-6.4-22c-3.5-12-6.5-21.8-6.8-21.5-.5.4 6 33.5 7.8 40.2.6 2.1-.2 2.6-4.4 2.6-5.6 0-4.3 2.9-13.4-29.6a59 59 0 0 0-4.4-13c-.2.8 1.5 10.5 3.8 21.7 2.3 11 4.2 20.2 4 20.4 0 .2-2 .6-4 1.2-3.8.9-3.8.7-10-21a230.9 230.9 0 0 0-6.6-21.3c-.5.4 5.3 32.7 7.3 41.1.6 2.4-.1 3.7-2.3 5-4 2.2-4.3 1.7-10-18.6-2.6-9-5-16-5.3-15.8-.4.3 1 9 3 19.3l4 18.6-3.4 2.6c-3.8 3.2-3.9 3-8.4-13a53.4 53.4 0 0 0-3.9-11.5c-.3.3.4 6.3 1.6 13.3 2.9 16.4 2.9 17.6-.4 19.4-2.6 1.3-3 .8-5.4-7.2-3-11.2-4.2-10.3-1.9 1.4 1.3 7.1 1.3 9.6-.1 12.5-2.6 4.8-3.8 4.4-5.5-2-1.5-5.1-1.5-4.8-.9 2.6.7 8.8-1.1 14-3.9 10.1-1.1-1.6-1.3-1-.7 3 .4 2.7 0 9-1 13.7l-2 8.6-5.1-10.8c-12-24.6-16-43.5-16.2-75.4 0-18.7.7-27.7 3.2-40.9 8.5-46 30-91 43.4-91 1.3 0 1.6 1 1 3.1-.7 2.8-.4 2.5 2-1 1.6-2.3 4.2-4.8 6-5.3 2.8-1 2.8-1 .5 3.3-1.1 2.5-1.9 4.8-1.4 5.2.3.5 1.7-1.3 2.9-3.6 5.3-10.3 10.7-12 6.5-2.2-3.3 8-2.8 7.6 3.6-1.9 2.5-3.7 6-7.4 7.7-8 3.2-1.1 3-.7-1.8 9-2.7 5.6-4.9 10-4.4 10 .2 0 3.9-5.2 8-11.4a47.6 47.6 0 0 1 10.2-12.2c2.3-.6 1.9 1-3 10.8-3 6.2-5.4 11.4-5.1 11.4.3 0 3.9-5.2 8-11.7 7-10.6 12-15.8 14.8-15.8.6 0-2.3 5.6-6.2 12.6-13.6 23.6-13.1 23.9 2.3 1.1a81.2 81.2 0 0 1 13.4-16.6c1.7 0 1.4 1-.8 4.6a365.7 365.7 0 0 0-16.9 30.2c.3 0 6.5-8.7 13.7-19.5 8.1-11.7 14.5-19.7 16.4-20.3 1.7-.4 3.2-.6 3.5-.4.1.3-5 8.8-11.6 19.3-19.4 30.3-18.7 30.1 3.3-.6 12.9-18 19.3-25 21-23.2.3.3-4.8 8.6-11 18.6-13.5 21-15 23.7-13.3 22.7.6-.4 8-10.6 16.3-22.6 11.2-16 16.4-22.2 19.4-23.3 2.4-.8 4.5-1.2 5-1 .3.5-7.7 12.8-17.7 27.6a386 386 0 0 0-17.7 27c.3 0 10.5-13.2 22.5-29.4l21.7-29.5 9.1-3c5-1.8 9.4-3.2 9.7-3.2.3-.1-3.3 4-8 8.8zM733.6 162c-23.3 29.4-40 67-47.8 107.5-3.6 19.4-3.6 67.4.2 87.3a317.5 317.5 0 0 0 17.4 58.3c2.7 6.6 4.7 12 4.4 12a78.6 78.6 0 0 1-15.3-12.2c-.6-.9-6.4-20.3-13-43.2-6.7-23-12.3-41.5-12.6-41.2-.2.3 4 18.6 9.5 40.6s9.7 40 9.4 40c-.4 0-2.4-1-4.6-2.3-3.5-2-5-6-14.6-38.4-6-19.7-10.9-35.8-11.2-35.5-.2.1 3.2 15.2 7.6 33.2l8 33.6c0 .4-2-.1-4.3-1.4-4.6-2.4-4.6-2.2-16.9-44.6-3-10.3-5.6-18.2-6-18-.2.4 2.4 12.8 6 27.9 3.5 15 6.2 27.6 6 27.8-.2.2-2.5-.5-5.3-1.7-4.9-2-5-2.3-12-27.5-3.9-14.1-7.4-25.3-7.7-25-.2.2 1.8 11 4.5 23.8 5.1 24.2 5 25.2-1.7 21.5-2.6-1.5-4.8-5.8-9-18.5-6.2-18.5-7-18.4-2.9.8a76 76 0 0 1 2.3 13.5c-.2.2-2.7 0-5.3-.6-4.5-1.2-5.4-2.3-9-12.2-2.2-6.1-3.6-8.6-3.2-5.7l1.8 9.8c.7 4.3.4 4.7-2.6 4.7-5 0-6.3-1.3-9.9-8.7-2.9-6.2-3-5.8-1 3.2.9 3.8.6 4-4 4-3.5 0-5.3-.6-5.7-2.5-.6-2-.7-2-.9.6-.1 3.6-7.3 5.8-9 3-.8-1.2-1.2-1-1.2.4 0 1.2-2.2 3.7-4.8 5.4a36 36 0 0 0-8.3 9.1c-2 3.2-4.1 5.8-4.7 5.8-1.8 0-9.4-18-12.8-30.3-4.3-16-5.3-46-2-65.4a178.4 178.4 0 0 1 32.1-76.7c7.6-9.7 9.4-11.2 18.6-15a37.5 37.5 0 0 1 11.8-3.4c1 .4 2 .1 2-.7 0-1.3 5.8-4.4 6.9-3.5.1.1-.3 2.2-1.2 4.5l-1.4 4.2 2.6-3.5c7-10.1 10.5-11.9 7.5-3.8-2.5 6.4-.6 6 2.7-.5 1.8-3.2 4.4-6.6 6-7.4 2.7-1.5 2.7-1.5-.2 5.2-4 9.6-2.4 9.4 3 0 2.4-4.4 5.7-8.7 7.3-9.6 3.8-2 3.8-1.7-1.5 10.3-2.3 5.5-3.9 10-3.6 10 .3 0 3.8-5.5 7.8-12.2a63 63 0 0 1 9.6-13c2.9-1 2.9-1.2-3.5 12.9-3.2 6.8-5.5 12.3-5.3 12.3.3 0 3.9-5.6 8.2-12.6 4.2-7 8.8-13.8 10.3-15.2 6-6.1 5.2-1.6-2.3 12.6-4.5 8.4-7.8 15.2-7.5 15.2.2 0 5.6-7.8 11.7-17.4 9.7-15 13.7-19.9 13.7-16.5 0 .6-3.9 8.4-8.8 17.4-4.8 9.1-8.4 16.5-8.1 16.5.4 0 6-8.5 12.6-19 10.1-16 16.2-22.9 18.5-20.9.4.5-12.7 23.7-22.6 40-5.8 9.3 2.2-1.5 15.5-21.4 12.7-18.9 18-25.1 19.8-23.4.2.3-4.2 8.3-9.8 17.9-16.6 28.7-17.2 29.7-16.5 29.7.3 0 8.1-11.6 17.2-25.8 13.6-20.9 17.7-26.1 21.4-27.4 2.6-1 5-1.8 5.1-1.5.2.2-5 8.9-11.6 19.2-20.8 33.2-24 38.4-23.4 38.4.3 0 10-13.6 21.4-30.4 17-24.8 21.6-30.8 25.8-32.5 9-3.8 9-2.6.4 8zm-157.5-3a228.5 228.5 0 0 0-58 73c-10 20.8-14 37.2-14 57.8 0 12.9-.3 15.2-2 13.9-1-.9-2-4.7-2-8.4s-.7-10-1.4-14c-1-7-1-7-1.3 4 0 6.2-.4 11.3-.7 11.3-4.5 0-5.2-2.2-5.4-15.8-.1-11.8-.4-13-1.4-7.4-.6 3.6-1.2 9.3-1.2 12.6-.1 4.6-.5 6-2.1 5.4-1.3-.6-2.4-5.3-3.2-15.6L482 261l-.5 13.4c-.1 7.4-.5 13.5-1 13.5-3.9 0-5-2.5-5.2-10.8-.1-12.6-2.4-18.8-2.6-7.4-.3 11-1.3 15.3-3.9 15.3-1.4 0-2-2-2.2-6.3 0-3.3-.5-8.7-1.1-11.9-1.2-4.9-1.3-4-1.5 6.1-.1 9.3-.5 12-2.1 12-2.5 0-3.7-4.3-4-14.4-.2-7.9-.2-7.9-1.4 2.9-1.4 12.3-2 14.5-4.2 14.5-.7 0-1.4-3.4-1.4-7.7 0-5.4-.5-7-1.5-5.4-.7 1.2-1.4 5.5-1.4 9.7 0 4.1-.6 8-1.5 8.4-.8.6-1.4-1-1.4-3.9 0-3.6-.5-4.2-1.5-2.6a14 14 0 0 0-1.4 6.1c0 5.8-1.6 9.1-3 6.7-1-1.2-1.4.3-1.4 4.2 0 3.5-.5 6.2-1.1 6.2-3.2 0-7.8-21.3-8.6-38.4a81.2 81.2 0 0 1 3-31.6c3.8-15 14.3-38.3 20-44.8 1.8-2 5-4.2 6.9-4.8 3-.9 3.3-.7 2.4 1.6-.7 2 0 1.7 3-1.3 5-4.5 9.3-5.7 6.1-1.5-1.1 1.6-.4 1.3 1.6-.6 4.2-3.6 11.6-6.8 11.6-4.7 0 .7-.6 1.7-1.4 2.1-.8.5-2.2 2.4-3 4-1.1 2 1.4.4 5.6-3.7 10.8-10.1 12.8-9.4 4.7 2-2.7 3.8-1.7 3.2 5.1-3.1 7.7-7.4 13.6-11.3 13.6-9.2 0 .6-2.5 4-5.5 7.7-10.1 12.3-9.4 12.5 2.3.4a83.7 83.7 0 0 1 13.3-11.8c2 0 1.3 1.3-8.4 13.7l-7.6 10.2 12.7-13.4c10.9-11.3 19.3-17.5 19.3-14.2 0 .5-5.3 7-11.6 14.4-6.4 7.5-11.6 14-11.6 14.3 0 .5 5.4-4.9 11.9-11.7 18.2-19.4 19-20.3 22.7-21.3 2.7-.9 1.6 1.3-6 10.3-17.3 21.3-20.8 26.4-9.6 14.3 21-22.9 26.6-28.1 31-29.1 4-1 4.1-1 2.1 1.9a672 672 0 0 1-18 21.7c-27 32-26.3 31.5 4.8-2.4 20.1-22 26.2-27.2 32.7-27.5.9-.1-1.7 2.7-5.8 6zm418.3 46.4c2 6-6.5 9.5-8.9 3.4-1.4-3.6.6-6.5 4.4-6.5 2.3 0 3.9 1 4.5 3zm-277.7 32 4 8.3-3.9 12.7a247 247 0 0 0-9.7 47.3 41.5 41.5 0 0 1-5.8 19.9c-2.1 3.6-5.6 9.5-7.4 13.3-1.8 4-3.7 7-4.3 7-1.7 0-3.2-27.7-2.3-45.7a237 237 0 0 1 17.2-78.9l4.6-11 1.8 9.4c.8 5.2 3.4 13.2 5.8 17.7zm226.2-17a891 891 0 0 1 38.7 7 431 431 0 0 1-20.8 40.3c-.9.7-68.6-3.2-81-4.8-2.8-.4-2-2.3 9.4-22.9 12.7-22.6 14.7-26 15.2-26 .1 0 17.5 2.8 38.5 6.4zm44-4.2c1.4 1.5-1.8 6.4-4.1 6.4-2.6 0-2.6-.7-.7-4.5 1.6-2.7 3.2-3.5 4.8-1.9zm-459.2 18.6c0 10.4 3.6 29.3 8 41.6 3.7 9.9 3.7 10.2 1.4 21.8a174.5 174.5 0 0 0-.2 59.6c2.8 14.2 5.7 22.5 13.5 38.4a62 62 0 0 1 6 15c-.8 2.1-11.8-7-19-15.7-6.4-7.6-14-21-18.3-32-2.6-7.3-1.9-7-.1-7.5 2.6-.7 2.9-1 2.9-18.1v-18.1h-4.4c-3.6 0-4.5-.7-5.9-5.5-.9-3-2-13-2.3-22 .6-12.9 0-19 2.3-29.4 3-12.9 12.6-36 14.8-36 .7 0 1.3 3.5 1.3 7.9zm311.7 41.5a585 585 0 0 0 7.4 37.2l2.8 14.6-2.1 8.5c-1.6 4.5-2.5 8.7-2 9.4.4.8-2.5 4.8-6.5 9l-7 6.7-3-5.8c-7.7-20.6-8.3-57.5 2.7-93.4 1.6-5.4 3.2-9.4 3.5-9.1.3.1 2.2 10.5 4.2 22.9zm-413.8 14.5 2 10.8-12 43.6-12 43.5-4.9-.5c-6-.4-49-20.4-49-22.7 0-5.7 35.6-52.1 64.4-83.7 8.2-9.2 8.6-9.4 9-5.8.2 2.2 1.4 8.8 2.5 14.8zm531.9-16.3c0 .3-4.4 9.2-9.7 19.3-9.6 18.1-10 18.7-14.5 18.7-2.6 0-4.8-.4-4.8-.8 0-.6 5-9.6 11-20 10-17.3 11.5-19.2 14.5-18.6 1.9.3 3.5 1 3.5 1.4zm-487 19c-.4 2.3-2.3 9-4 15L463 319l-11.1.4c-10.7.4-10.9 0-10.9-3.2a27.2 27.2 0 0 1 24.8-27c5.3 0 5.5.2 4.6 4.2zm11.3 4.4c-5 20-5.4 21.2-9.7 21.6-3.5.4-4 0-3.5-2.2 7.8-28.3 7.1-26.4 10.7-24.8 2.8 1.3 3.2 2.3 2.5 5.4zm21.4 13.6a28 28 0 0 1 4.2 7.1c0 .6-5.8 1.2-13 1.2-7.1 0-13-.5-13-.9 0-1 4.2-17.8 5-20.6 1-2.6 11.3 5.5 16.8 13.2zm-68.9 5.7c3 6.6 3.6 9.8 3.6 23.2V356h9.7v11.2a145 145 0 0 0 3.4 24.7c3.3 14.2 2.6 19.2-2.6 19.2-1.5 0-8.9-3.6-16.4-8-7.4-4.6-16-9.4-18.8-10.7l-5.2-2.3 11-40.2a1003 1003 0 0 1 11.4-40.3c.3 0 2 3.5 4 7.6zm503 4.3c0 2.6.3 8.3.8 12.3l1 7.7h-88.6l3.6-10.6 4.2-12.3c.5-1.3 9.9-1.7 39.8-1.7h39.1zm-419.8 15.7v13h-75.2v-26h75.2zm189.8 15.6a160.5 160.5 0 0 0 21.2 64.4c9 15 9 15.1.3 17-4 .9-8.5 1-9.5 1-4 0-22.2-46.2-26.7-68-1.8-9.7-1-13.6 7.1-29.3l5.2-10.1.3 5.8a889.4 889.4 0 0 0 2 19.2zm221 3.4c1 5.8 1.5 10.6 1.2 10.9-.2.4-21.8.4-47.7.2l-47.3-.4 9-10.4 9-10.5h37.1l37-.1zm-423.2 11.7c12.4 38.3 44.6 66 89.9 78 28.8 7.6 59.7 10 95.5 7.4 73.2-5 107-19.1 149.3-62L859 372h27.5c18 0 27.7.6 27.7 1.4 0 4.2-19 37.6-32.7 57.5C870.8 446 868 448 843 458c-30.8 12.4-75.4 22-121.4 26.4-30 3-100.4 2-125.2-1.4-32.4-4.8-57-10.5-82-19.2-20.2-7-28.8-11.1-52.6-24.8a354.7 354.7 0 0 0-54.3-27.2c-13.1-4.8-25.3-5.4-30.8-1.8-4.3 3-4.9 1.5-1.7-4.8a23 23 0 0 1 20.4-11.6c9.8 0 16.3 2.5 34 13 16.6 9.8 21.3 10.7 25.8 5 3.7-4.8 3.7-6 .1-21.2-1.6-6.6-2.9-17-2.9-23.3V356h48.8zm10.1-2a111 111 0 0 0 43.1 53.7c24.5 14.5 58 22.3 104.2 24.3 69 3 135-20.3 173.8-61.6 5.8-6.1 10.9-10.3 12.6-10.3 1.6 0 3 .6 3 1.4 0 2.6-29.7 31.5-41.3 40-35.6 26.3-78.7 37.3-146.9 37.3-27.8 0-42.4-1.6-64.4-7-49-12.3-80.3-39.5-92.5-80.1l-2.1-7.6h3.4c3 0 4 1.6 7.1 9.9zm304.5-2c5.6 3.2 3.8 5.2 5.6 6.4-1.3 1.6 0 2.9 3.1 3.3 2.2.3 4.3.3 5.2 1.6 1.7 2.9-2.3 7.8-14.6 17.2-8.8 7-9.9 6.7-20-4.8-5.3-6.2-15.2-23-15.2-26.2 0-1.6 6.7-2.2 17.4-1.9 8.4.3 12.6 1.3 18.5 4.4zm-482-1.8c2.8 2.8 2.1 6.7-1 7.7-3.2 1-7.3-1.3-7.3-4.2 0-2.2 2.9-5.2 5-5.2 1 0 2.4.7 3.4 1.7zm428.6 34.2-9 30.5-5.5 1.5c-3.2.7-5.6 1-5.6.4 0-.4 4-13.8 9-29.6 8.8-28.1 9-28.9 14.1-31.5 2.8-1.4 5.3-2.4 5.5-2.1.3.1-3.6 14-8.5 30.8zm18.2-22a90.7 90.7 0 0 0 13.2 18l9.3 9.8-10.5 6.1c-13.9 6.7-32.1 16.3-32.7 14.7-.1-.6 3.2-13.2 7.7-28.1 4.4-15 8-27.5 8-27.9 0-2.2 1.4.2 5 7.4zm-398 13.3c2.4.8 2.4 1-.8 2.5-3 1.8-5.4.9-23.3-8.1-14.3-7.3-19.7-10.6-19.1-12 .6-1.6 5.2 0 20.5 7.4 10.9 5.2 21 9.8 22.6 10.2zm362.7 14.8a163.9 163.9 0 0 1-9 25.7c-1.8 0-3.1-9.6-2.1-16.7a48.2 48.2 0 0 1 12-27.8c3.6-4 6.7-7.3 7-7.3 0 0-3.4 11.8-7.9 26.1zM589.6 381l-7 20.7a184 184 0 0 1-7.2 20c-.6.8-3.7-.1-7-1.7-4.8-2.6-5.9-4-7.5-10.2-1.4-6.2-1.3-7.7 1.2-12.6a31 31 0 0 1 17.8-15.8c8.1-2.5 10.4-2.6 9.7-.4zm13 .4c.3.3-2.7 10.9-7 23.7l-7.2 23.3-4.3-1.5c-2.3-.8-3.9-2.3-3.6-3.1l6.6-20.6c7.6-23.7 7.9-24.4 12-23a20.8 20.8 0 0 1 3.5 1.2zm14.6 4.5c.5.9 1.6 3 1.6 5 0 5.7 8 26.8 13.6 36.3 3 5 5 9.3 4.5 9.8-.8 1-20.5-2-33.8-5-7.1-1.4-10.3-2.9-9.9-4 .5-1 4-11.8 7.7-24l7.2-20.7 4-.6c2.5.6 4.5 2.2 5 3.2zm24.6 7.1c24 12.1 20.6 8.2 13.5 16-6.2 7-10.4 17-12.1 20.8-1.5 3.4-2.8 2.3-7.8-6.7a118.7 118.7 0 0 1-12.2-33.6c0-1.7.7-3 1.6-3 .8 0 8.5 2.9 17 6.5zm36.2 19.2c6.1 3.7 16 10.7 22.5 15.5l10.6 9-3.4 1a408 408 0 0 1-60.6.7c-.6-.4 0-4.5 1.3-9a39.5 39.5 0 0 1 9.7-16c4-4.4 7.8-8 8.2-8 .4 0 5.6 3 11.7 6.8zm-271.6 4.2a346.1 346.1 0 0 1 53.8 27 291 291 0 0 0 84.7 34.5c39 9.7 73.6 13.4 122.4 13.4 75.8 0 137.4-11.4 194.7-36.2 1.1-.6-.2 1.9-3 5.5-3.1 3.8-8.5 8-13.1 10.3-11.6 5.8-37 13.8-59.2 18.6-17.2 3.7-18.4 4.2-9.4 3.4a250 250 0 0 0 65.1-15.8c1.8-.7.6 1.3-3.4 5.5-5.5 5.7-8.4 7.3-20.3 11.2-7.7 2.5-27 6.7-42.8 9.3-16 2.7-27.5 5-26 5 7 .4 47.5-5.9 60.7-9.2 7.8-2 14.5-3.4 14.7-3 .5.2-3 3.4-7.3 7-8.4 6.9-15.7 9.3-39.4 13.4-7 1.1-9.4 1.9-6.4 2 2.8 0 11-1.1 18.1-2.6 7.3-1.4 13.2-2.5 13.5-2.3.9.7-18.5 12.3-33 19.6a289 289 0 0 1-63.7 22 319.5 319.5 0 0 1-95.5 0c-45.2-9.9-100.6-37.3-131-64.8l-7.2-6.5 9.4 4.3a200.3 200.3 0 0 0 40.5 12.2c4 .6 1-.7-8-3.5-21.8-6.7-47.8-20-58.4-29.9-5-4.5-8.8-8.7-8.8-9.3 0-.5 7.3 2.7 16.3 7.3a288.6 288.6 0 0 0 64.1 24c23.6 6 31.6 6.5 11.5.7-48.2-14.1-91.8-35.1-114.2-55-14.8-13-27.7-19.6-38.8-19.7-4.5 0-7.8-.5-7.4-1.2 1.5-2.5 16.7-.9 26.8 2.8zm458.9 45.8c-.7 1-4 5-7 9.1l-5.6 7.3 9-8.6c10-9.7 13.1-10 5.9-.6l-4.8 6.3 6.5-6c7.1-6.8 11.5-7.2 7.6-.8-2.5 3.9-2.5 3.9.4 1.3 1.6-1.3 3.5-2.5 4-2.5a71.5 71.5 0 0 1 28.2 43.2 50.8 50.8 0 0 1-1.4 23.7l-1.4 6.5-47.8 7.5c-35 5.5-48.6 7.1-50.5 6.1-3.7-2-9.4-12-12-21.3l-2.2-7.4 13.2-9.7c7.8-5.7 22.7-19.3 35.7-32.6 20.9-21.5 25.7-26 22.2-21.5z"/><path d="M863.2 330.7v6.5h13v-13h-13zm26 0v6.5h13v-13h-13zm26 0v6.5h13v-13h-13zm-56.4 27.5v6.5h13v-13h-13zm42 0v6.5h13v-13h-13zm-47.8 32c0 5 0 5 6.5 5 6.6 0 6.6 0 6.6-5 0-5.2 0-5.2-6.6-5.2-6.5 0-6.5 0-6.5 5.1zm30.4 0c0 5 0 5 6.5 5s6.5 0 6.5-5c0-5.2 0-5.2-6.5-5.2s-6.5 0-6.5 5.1zm-334.3 62.3v9.4h13V443h-13zm220 5.8v9.4h13v-18.9h-13zm-108.5 13v9.5h13v-18.9h-13zM450.7 338v6.5h13v-13h-13zm26 0v6.5h13v-13h-13zm26.1 0v6.5h13v-13h-13zm276.4 184.6c1 .3 3 .3 4 0 1-.5.2-.9-2-.9-2.3 0-3.1.4-2 .9z"/><path fill="#47a3d8" d="M1049.7 523.3V700h-763V512.5c.8 3 12.4 6.7 20.7 9.7 15 5.2 16.2 5.2 30.8-4.5 20-13.1 32.4-12.7 55 1.5 33.7 21.3 42.8 21.7 53 3 7.4-14.6 24.3-14.6 53.3.3a108 108 0 0 0 29 11.3c3.3 0 11.6-6 18-13.1 14.3-16.5 22.5-15.4 59.4 6 29.7 17.5 39.8 18.7 42.8 4 4.2-18.3 7.5-21.2 24.8-21.2 10.5.3 26.3 4.8 42.5 12.3 14 6.7 28.2 12 30.8 12 3 0 6.4-5.3 8-11.6 1-6.4 6-13.9 10-16.9 10.2-6.3 20.7-3.7 53.8 13.1 33 16.5 42.5 15 42.5-7 0-6.8 7.1-11.3 18-11.3 3.4 0 17.3 6.7 31.2 15.3 30.1 18 38.4 18 41-.3 2.6-18.7 15-19.1 47.4-2.3 24 13.1 51 18.4 51 10.5z"/><path fill="none" stroke="#0a1a1d" stroke-linecap="round" stroke-linejoin="round" stroke-width="8.739" d="M291.2 513c.8 3 7.1 7.4 15.4 10.4 15 5.2 16 5.2 30.7-4.5 19.9-13.1 32.2-12.7 54.7 1.5 33.8 21.3 42.8 21.7 52.9 3 7.5-14.6 24.4-14.6 53.2.4A107.5 107.5 0 0 0 527 535c3.4 0 11.6-6 18-13.1 14.2-16.5 22.5-15.3 59.2 6 29.6 17.6 39.8 18.7 42.8 4 4-18.2 7.5-21.2 24.7-21.2 10.5.3 26.3 4.8 42.4 12.3 13.8 6.7 28 12 30.7 12 3 0 6.4-5.3 7.9-11.6 1.1-6.4 6-13.9 10.1-16.8 10.1-6.4 20.6-3.8 53.6 13 33 16.5 42.4 15 42.4-7 0-6.8 7.1-11.3 18-11.3 3.4 0 17.2 6.7 31.1 15.4 30 18 38.2 18 40.9-.4 2.6-18.7 15-19.1 47.2-2.3 24 13.1 49 17.6 49 9.8"/><path fill="none" stroke="#faf6f5" stroke-linecap="round" stroke-linejoin="round" stroke-width="8.739" d="M292.8 522.2c.8 3 8.7 7.5 16.9 10.5 15 5.2 16.1 5.2 30.7-4.5 20-13.1 32.3-12.7 54.8 1.5 33.7 21.3 42.7 21.7 52.8 3 7.5-14.6 24.4-14.6 53.3.3a107.5 107.5 0 0 0 28.8 11.3c3.4 0 11.7-6 18-13.1 14.3-16.5 22.5-15.4 59.3 6 29.6 17.5 39.7 18.7 42.7 4 4.1-18.3 7.5-21.3 24.8-21.3 10.5.4 26.2 5 42.3 12.4 13.9 6.7 28.1 12 30.8 12 3 0 6.3-5.3 7.8-11.6 1.2-6.4 6-13.9 10.2-16.9 10-6.3 20.6-3.7 53.6 13.1 33 16.5 42.3 15 42.3-7 0-6.8 7.2-11.3 18-11.3 3.4 0 17.3 6.7 31.1 15.3 30 18 38.3 18 40.9-.3 2.6-18.7 15-19.1 47.2-2.3 24 13.1 46.5 17.6 46.5 9.7"/><path fill="#faf6f5" d="M358.6 573.9c-6.4 4-5.7 4.4 5.8 2.8 9.6-1.3 16 .3 28.9 7.6 24.6 14.3 35 15.2 51.3 5 19.7-11.6 27.5-13.9 42.9-10.7 11.7 2.2 12.8 2.2 8.2-1.9-10-9.2-29.6-9.2-47.1 0-20 10.2-29.6 10.5-52.1.3-20.4-9.2-27.9-9.8-37.9-3.1zm368.3 9.5c-13.6 7.9-28.6 14.2-33.5 14.2-5 0-20.4-6-34-13.3-23.1-12.3-25.3-13-36-9.2-29.6 10.8-48.9 14.3-63.1 10.8-16.5-3.8-17.9-1.3-3.6 6.3 13.9 7.3 26 7 53.2-1.5 22.4-7 22.8-7 33.9-1 44.6 23.8 57.4 25 80.6 8.6 26.8-19 37.8-20.6 76-9.5 22.8 6.6 24.6 6.6 35.7 1.9l11.8-5.4h-14.7a168 168 0 0 1-38.5-8.3c-13.2-4.4-28.2-7.9-33.6-7.9-5.7 0-20.3 6-34.2 14.3zm209.8-1.6c-4.3 1.6-9 4.1-10.3 6-2.9 4.4-21.5 4.4-31.4 0-6.1-2.5-5.8-1.6 2.1 4.8 12.1 9.8 21 10.4 36.8 1.9 11-6.4 12.4-6.4 25-1.6 21 7.6 25 5.4 8.1-4.8-16.7-10.1-18.9-10.4-30.3-6.3zm-112 41.2c-10.4 7-22.9 12.7-27.5 12.7-4.3 0-17.9-4.5-29.3-9.9l-21.4-10.1-13.5 7c-7.5 3.8-17.9 8.5-23.2 10.4-5.7 2.2-10 5.1-10 6.4 0 4.7 11.4 2.5 27-5.7 17.6-9.2 27.6-8.6 44.7 1.9 23.5 15.2 31 14.5 57-3.8 16.5-11.8 28-12 55.8-1.3 20.6 7.6 23.1 8 33.9 3.8l11.7-4.4-12.5-.4c-6.7-.3-22.8-4.7-35-9.8-12.4-5.4-26.3-9.5-30.6-9.5S835 616 824.7 623zm-292.3 1.6c-16.7 13.6-27.5 14-45 1.6-16-11.5-26.7-11.8-48.1-1.6-12.1 5.7-14.6 7.9-10 9.5 3.2 1.3 10.7-.3 16.8-2.9 15.7-7.3 23.5-6.3 43.5 6 10 6 19.6 11.1 21 11.1a98 98 0 0 0 17.5-9.5c25-16.1 30-16.8 54.3-7.9 22.1 8.6 28.5 8 39.2-3.5 4.7-5 4.3-5-2.8-1.9-11.4 5.4-19.7 4.8-41-4-24.7-10.2-29-10.2-45.4 3zm-194.8 20.9a30 30 0 0 0-11.8 9.5c-4.3 5.7-4 6 2.5 3.2 9-4.5 24.3-4.5 27.1 0 1.5 1.9 9 7.6 16.8 12.6 18.6 11.8 34 12 52.8 1 14.3-8.2 24-8.9 44.6-2.9 5 1.6 4.3-.3-3.5-6-13.6-10.4-27.5-10.4-48.2 0-19 9.5-25.4 8.6-48.9-8.2-19.6-13.6-20.3-14-31.4-9.2zm255.1 14.3c-6.8 4.4-15 9.1-17.8 10.7-2.9 1.6-4.3 3.5-3.2 4.5 1 1.2 9.6-1.6 18.9-6 9.3-4.5 19.6-8 22.8-8 3.6 0 14 5.7 24 13 19.6 14.3 25.6 14.6 47.7 1 16.5-9.9 20-9.5 39.7 1.9 20.3 12 28.5 12 52.8-.3 21.7-10.8 29.6-10.5 51.3 2.2 7.5 4 16.1 7.6 19 7.6 8.2 0 23.9-8 32-15.9l7.2-7-12.5 6.7c-16.8 8.9-27.1 8.3-48.2-2.8-22.4-11.8-28.9-11.8-48.5 0-20 11.7-30.3 12-50 0-20-11.8-30.3-12-48.1 0-17.5 11.7-21.8 11.7-37.1.6-14.6-10.8-26.4-16.5-32.8-16.5a62 62 0 0 0-17.2 8.3z"/></svg>