<svg xmlns="http://www.w3.org/2000/svg" width="1200" height="720"><path fill="#036a4a" d="M0 0h1200v720H0Z"/><path fill="#faf6f5" d="M426 353c64-8 104-24 125-45 4-5 5-9 5-16 0-13-13-25-11-27 1-1 4 2 5 1 2-2-8-10-13-14-2 3-3 8-3 12 4 2 7 16 18 33-19 18-95 47-126 54v2Zm207-123c-3-2-7-4-7-6s3-3 5-3c12 0-14 25-24 31-3 2-2 3 0 2 12-6 29-20 29-31 0-4-1-6-4-6-2 0-5 3-7 6-2 4-2 5 1 8 4 4 9 5 12 9 1-1 2-3 2-6 0-1-3-1-7-4Zm-29 26c-1-3-1-6-2-5-2 2-2 7 3 16-10 4-8-12-12-15l-1 5c1 2 2 6 2 8-1 3-2 5-5 5-6 0-3-9-6-15l-1 4c2 6-1 16 6 16 4 0 7-3 7-7 1 3 4 5 7 5s6-4 6-7c0-5-3-7-4-10Zm101 48c-3 0-5 15-1 31 2 8 9 22 20 22 15 0 22-44 39-44 12 0 7 20 25 20s28-13 28-39c0-7-4-46-6-62l24 27c3 38 3 77 4 77 2 0 6-22 6-36 0-10-1-21-2-32 10 11 25 31 28 41 1 3 2 9 3 9s2-4 2-9c0-17-27-48-34-55-2-23-7-57-6-59s6 5 7 4c2-2-5-17-12-26-2 2-4 7-5 10 5 9 6 42 8 62l-25-27c-1-5-3-22-2-23 2-2 5 5 6 4 2-2-7-20-12-26-2 3-4 8-4 11 3 4 3 12 4 24-7-8-14-16-13-17s8 2 8 0-21-16-24-17c-2 4-2 8-1 12 7 2 17 20 31 36 4 31 8 71 9 91-6 5-15 8-22 8-15 0-12-18-25-18-20 0-24 43-40 43-7 0-12-6-14-14-4-16-2-28-4-28Zm-13-89c2 0 4-2 4-4 1 3 5 4 7 2 4-5 0-10-1-13-3 3 0 7 1 10-5 3-6-8-7-10l-2 3 2 6c-1 2-2 3-3 3-3 0-3-5-4-10l-1 3c0 4 0 10 4 10Zm52 82c6 0 8-12 7-13s-2 6-4 6-5-2-5-6c0-6 7-17 5-19s-8 13-8 23c0 4 1 9 5 9Zm-293 36c8 0 12-15 11-17s-4 7-6 7-6-2-6-9c0-10 12-26 10-28s-17 23-17 35c0 7 3 12 8 12Zm66-149-4-1c1-1 1-3 1-4 2 1 3 3 3 5Zm-7-2c-7-2-3-5-1-5 3 0 3 3 1 5Zm333 6c1 1 9-2 13-5s5-8 4-9c-2-2-10-2-15 0-2 2-4 5-5 8 4-2 10-2 13-1-5 4-11 6-10 7Zm-116-2c1 1 10-2 13-5 4-4 5-7 4-8-2-2-10-2-15 0-2 2-4 5-5 8 5-2 11-2 14-1-5 4-12 5-11 6Zm-41 1c1 1 10-2 13-5 4-4 5-7 4-8-2-2-11-2-15-1-1 1-4 6-5 8 4-2 11-1 14 0-5 4-12 5-11 6Zm-50 3c1 1 11-2 16-7 4-4 8-9 6-11s-14-2-19 0c-1 1-4 6-5 9 4-2 12-1 16 0-5 5-16 7-14 9Zm116 169c6-4 17-8 21-12 2-2 4-6 2-6s-6 5-11 5c-3 0-8-1-9-4 2-2 5-4 7-4s1 3 2 4 3-4 3-6 0-4-2-4c-5 0-13 10-14 12s3 6 7 7c-3 1-6 5-6 8Zm106-96c1 1 4-6 4-13 0-12-7-24-16-28l-1 8c8 4 14 13 14 23 0 5-2 9-1 10Zm-190 22c4 0 7-9 6-10s-2 3-3 4c-2 0-4-1-4-5 0-8 5-14 4-15s-8 12-8 20c0 4 3 6 5 6Zm71-43c6 0 8-12 7-13s-1 3-3 5c-2 0-5-1-5-5 0-6 5-18 4-19s-8 13-8 23c0 4 1 9 5 9Zm-39 10c6 0 7-12 6-13s-1 3-3 5c-2 0-5-1-5-5 0-8 5-18 4-19s-8 13-8 23c0 4 2 9 6 9ZM567 355c5 0 10-9 9-10s-3 3-4 4c-2 0-4-2-4-5s2-7 5-11 4-6 3-6-13 12-13 21c0 4 2 7 4 7Zm-147 4c6 0 9-11 7-13-1-1-2 5-3 6-3 0-5-2-5-6 0-3 1-7 3-12s3-7 2-7-10 14-10 24c0 4 2 8 6 8Zm400-7c5-1 23-4 39-11s26-29 26-55c0-18-6-58-7-66-1-7-3-24-2-25s5 5 6 4c3-3-7-19-11-26-2 2-7 9-5 12s3 19 6 47 6 55 6 68c0 9-1 13-1 16-10 15-47 28-59 34-4 2-3 3 2 2Zm-59-47c0 11 0 25 1 25s5-19 5-30c0-42-9-103-8-104 2-2 6 5 7 4s-8-19-13-27c-2 3-4 8-5 11 3 3 4 16 5 26s8 77 8 95Zm28-2c1 1 4-6 4-13 0-4-1-18-14-24l-1 7c7 3 12 12 12 20 0 5-2 9-1 10Zm20 45c6-4 17-8 21-12 2-2 4-6 2-6s-6 5-11 5c-3 0-8-2-9-5 2-2 5-4 7-4s1 3 2 4 3-4 3-6 0-4-2-4c-5 0-13 11-14 13s3 6 7 7c-3 1-6 5-6 8Zm-123-17c0 3 2 1 3-3 1-5 2-17 2-26 0-10-2-26-4-39 9 7 25 25 30 37 3 6 3 11 4 11s1-5 1-8c0-21-25-42-37-54-3-22-8-52-7-53s5 5 6 4c2-2-8-23-11-27-2 2-5 9-5 11 4 6 5 36 9 57-24-22-42-39-42-41 0-1 2 0 4 0s4 2 4 0-1-2-4-4c-2-1-8-5-13-8-4-2-7-4-7-5-1 0-1 1-1 1v11c2 0 4 1 5 3 15 18 39 43 56 57 3 27 7 52 7 76ZM586 193c2 0 3-2 3-4 1 2 4 4 6 2 4-4 0-9-1-12-2 3 0 6 1 9-4 2-5-6-6-8l-1 2 1 5c-1 2-2 3-3 3-2 0-2-5-3-9l-1 2c0 4 0 10 4 10Zm-33 18c0 2 1 1 2-2s2-6 2-10c0-3-1-7-2-11-2-8-9-13-13-15l-1 7c3 2 7 6 11 11 1 3 2 7 2 11 0 3 0 6-1 9Zm-52 35h3c10-2 20-48 26-51 1 4-5 17-5 30 0 11 4 20 20 20 19 0 27-18 27-29 1 10 10 26 26 26 13 0 20-12 20-24 0-5-3-15-6-23-1-3-2-3-2-8-1-1 5 4 5 1 0-1 0-2-1-3-2-2-10-15-11-14 0 1-4 10-4 11 5 7 4 19 14 43-3 2-9 4-15 4-10 0-19-7-19-19 0-13 0-31-9-40-1 1-3 8-4 12 1 4 4 14 4 23 0 17-9 26-24 26-9 0-16-5-16-14 0-10 6-24 6-32 0-2-1-4-3-4-5 0-10 8-15 23s-8 31-17 31c-7 0-11-12-11-23 0-9 2-8 0-10s-4 7-4 14c0 10 5 30 15 30Zm166 87c-2 0-6-1-7-2 1-1 2-3 4-2s2 3 3 4ZM507 185c-5 5-16 13-23 17l-2 2c12-5 23-13 28-18 5 1 8 2 8-3 0-6-4-10-8-11-3-1-3 3-3 4-4 4-5 7 0 9Zm116 175c9-3 33-12 35-25 3 1 7 3 11 2l1-4c-1-1-2-7-5-8s-5 2-6 5c-1 1-2 2-2 4-5 10-24 20-35 25-2 1-2 2 1 1Zm-118-28c0-13 13-26 10-33-1-2-1 3-3 5-3 0-5-2-5-5 0-8 8-20 6-20s-11 16-11 25c0 5 3 8 7 8-4 8-8 15-8 24 0 12 5 18 13 18 18 0 53-27 59-35 3-4 3-13 3-15 4 34 23 48 56 49 0-2 0-9-1-13-5-1-18-3-21-10 15-10 51-18 64-26h3c1-2 4-9 4-11-25 2-45 3-81 3 13-6 39-21 55-22 1-2 3-7 3-12 0-4-14-14-23-14-6 0-10 7-10 15 0 9 13 10 13 23 11-13-9-18-9-25 4-4 12-1 18 4-13 4-52 19-61 32h-1c0 1-2 8-2 11 8 0 50-1 58-1-19 7-35 8-35 29-4-2-12-6-19-15s-4-11-9-34-15-38-19-43c-2 3-3 10-3 13 6 11 14 32 18 49-5 11-41 36-58 36-6 0-11-5-11-10Zm237 204c0-2 0-4 1-6h41l4 6h-17c-1-2-3-3-5-3s-4 1-5 3h-19ZM389 213c-1 3 1 1 2-1 2-4 4-9 4-15 0-3-1-15-13-23l-2 8c6 4 15 13 9 31Zm-35-27-6-1c1-1 1-3 1-4 2 1 5 3 5 5Zm-9-2c-7-2-3-5-1-5 3 0 3 3 1 5Zm-13 19c8 0 16-4 18-8 1-2 0-2-1-1-3 3-14 7-16 5s8-8 12-11c5 1 10 2 10-3 0-6-6-10-10-11-3-1-3 3-3 4-4 4-5 7 0 9-5 3-10 7-12 10s-2 6 2 6Zm448 46c7 0 10-13 9-15s-4 6-5 6c-2 0-6-2-6-8 0-9 8-20 6-22-1-1-10 16-10 28 0 7 3 11 6 11ZM361 351c25 0 66-26 75-41 6-10 5-21 5-32l22-9c-3 10 6 16 15 15 1 5 4 37 2 45-1 4 2 3 4-3 4-12 2-33 1-44 7-3 8-10 11-12 2 6 11 8 17 8h3c6-2 9-11 9-19 0-7-2-11-4-12 0 1-2 7-4 12 1 2 3 5 3 6-2 2-9 2-12 1s-6-4-6-7c0-2 2-2 2-6 0-2-1-1-3 1s-3 4-6 8c-2 3-3 7-11 9-2-20-5-47-8-65-1-6-2-10-1-11 2-2 6 5 7 4 2-2-6-20-11-27-1 1-5 8-5 10 2 3 2 9 3 19l7 70c-6-1-8-5-8-8s2-5 1-6c-2-2-17 7-29 11l-3-21c15-2 21-14 21-24 0-11-9-32-8-33s4 3 5 2-8-15-12-18c-1 2-3 7-4 11 4 4 4 15 6 21s8 18 8 22c-3 2-10 6-17 6-3-21-5-37-4-38s5 5 6 4c2-2-9-24-12-27-1 0-4 8-4 10 3 5 5 37 6 49-7-4-9-9-10-18-1-6-1-17-3-26-1-5-3-10-6-13-1 2-3 8-4 12 1 3 4 13 4 23 0 16-8 26-23 26-9 0-18-4-18-15 0-9 6-26 6-34 0-10-10 1-15 12s-5 17-8 26c-2 7-6 15-12 15-8 0-11-15-11-23 0-7 2-14 0-14-1 0-4 5-4 18 0 12 5 30 17 30 13 0 16-44 27-53 1 3-5 14-5 28 0 13 8 24 21 24 18 0 27-21 27-30 2 14 5 22 18 26l3 25-6 2c-3-10-10-16-18-16s-16 11-16 19c0 12 21 11 28 9 1 2 2 4 2 6-4 4-33 27-56 27-13 0-22-7-22-20 0-8 4-16 8-22 5-4 9-8 12-12l5 5c1-2 2-5 2-6-1-1-3-2-5-3 1-3 2-6 2-8 0-3-1-5-4-5s-10 6-10 9 4 4 8 7c-4 6-42 27-45 30-1 1 0 1 4-1s10-5 14-6c-6 7-11 22-11 33 0 18 17 32 37 32Zm54-76c-9 0-15-1-15-4 0-5 12-4 15 4Zm-51-16-4-2c-4-2-1-5 3-5 2 0 2 3 1 7Zm5 49c5 0 2-24 9-24 2 0 4 2 4 4 1-2 2-4 2-6s-3-5-6-5c-6 0-6 20-8 23-2-10-8-18-13-18-2 0-3 5-3 8 1 0 7 2 8 3v-2c6 8 5 17 7 17Zm367 238c4 0 7-4 6-8h19c1 2 3 3 5 3s4-1 5-3h19c6 6 24 7 24-7 0-7-7-13-17-13h-48c8-5 7-16-1-16-4 0-7 3-7 7 0 3 0 7-1 9H386c5 7 15 12 25 12h324c-8 5-7 16 1 16ZM331 275c1 1 11-3 15-7s7-8 5-10-14-2-19 0c-1 1-4 6-5 9 4-2 12-1 16 0-1 1-14 6-12 8Zm30 64c-17 0-30-10-30-28 0-8 3-19 7-27 3-2 6-3 9-5-5 7-8 18-8 27 0 14 12 23 26 23 22 0 45-17 54-25 4-6 7-13 8-16v-5l6-2c1 8 2 15 2 22-15 18-52 36-74 36Zm301 14c44-11 69-24 69-71 0-21-14-85-12-86s6 5 7 4c2-2-10-25-13-28-2 4-4 10-4 11 3 4 4 22 7 45s9 53 9 67c0 8-1 12-2 15-12 16-30 25-62 41-4 2-3 3 1 2Z"/></svg>