<svg xmlns="http://www.w3.org/2000/svg" width="1200" height="720"><path fill="#003396" d="M0 0h1200v480H0Z"/><path fill="#faf6f5" d="M257 286c7 0 13-6 22-6s11 5 21 5 12-5 21-5 15 6 22 6c11 0 21-10 22-22l-33-43-13 17-19-39-19 39-13-17-33 43c1 12 11 22 22 22Zm0 12c7 0 13-6 22-6s11 6 21 6 12-6 21-6 15 6 22 6c3 0 6-1 9-2 2-3 3-6 5-9-1 1-2 1-3 2-4 2-7 3-11 3-7 0-13-6-22-6s-11 6-21 6-12-6-21-6-15 6-22 6c-4 0-8-1-11-3-1-1-2-1-3-2 2 3 3 6 5 9 2 1 6 2 9 2Zm43 39c16-5 36-19 46-33-8 2-16-6-25-6s-11 6-21 6-12-6-21-6-17 8-25 6c10 14 30 28 46 33ZM0 240h222l-2-93c51-23 109-23 160 0l-2 93h822V0H0Z"/><path fill="#fcd80e" d="m323 160 3-6 6 1-4-5 4-5-6 1-3-6-3 6-6-1 4 5-4 5 6-1Zm-23 29 3-6 6 1-4-5 4-5-6 1-3-6-3 6-6-1 4 5-4 5 6-1Zm-23-29 3-6 6 1-4-5 4-5-6 1-3-6-3 6-6-1 4 5-4 5 6-1Z"/><path fill="#e30631" d="M0 480h1200v240H0Zm300-126c86-31 82-102 88-204l-8-3c-6 96 2 169-80 198-82-29-74-102-80-198l-8 3c6 102 2 173 88 204Z"/></svg>