<svg xmlns="http://www.w3.org/2000/svg" width="1200" height="720"><path fill="#e30631" d="M0 0h1200v720H0Z"/><path fill="#0859b9" d="M1200 480V240H532l1 135-31 75c-19-37-50-45-72-14-24-56-68-56-92 0-24-31-54-23-72 14l-31-75 1-135H0v240h287l97 68 97-68Z"/><path fill="#faf6f5" d="M1200 240V0H0v240h231c-1 26-2 61-2 103 0 100 65 165 155 209 90-44 155-109 155-209 0-42-1-77-2-103ZM384 540c-84-42-144-103-144-197 0-85 3-139 5-163h278c2 24 5 80 5 163 0 92-60 155-144 197Zm13-226v-39c15 0 35 0 59 8-2-14-2-29 0-43-24 8-44 9-59 9 0-14 3-38 8-56-14 2-28 2-42 0 5 18 8 42 8 56-15 0-35-1-59-9 2 14 2 29 0 43 24-8 44-8 59-8v39c-47 0-61-5-75-9 2 14 2 29 0 43 14-4 28-8 75-8v57c9-4 17-4 26 0v-57c47 0 61 4 75 8-2-14-2-29 0-43-14 4-28 9-75 9Z"/></svg>