<svg xmlns="http://www.w3.org/2000/svg" xmlns:xlink="http://www.w3.org/1999/xlink" width="800" height="600"><path fill="#62c1f2" d="M0 0h800v600H0z"/><path fill="#faf6f5" d="M0 0h800v300H0z"/><g fill="none" stroke="#0a1a1d" stroke-width=".933"><g fill="#faf6f5"><circle cx="459.439" cy="171.232" r="4.044"/><circle cx="461.689" cy="157.024" r="5.081"/><circle cx="376.388" cy="141.721" r="3.909"/><circle cx="338.47" cy="157.024" r="5.081"/><circle cx="361.666" cy="143.366" r="4.218"/><circle cx="340.72" cy="171.232" r="4.044"/><circle cx="346.87" cy="147.119" r="4.885"/><circle cx="423.77" cy="141.721" r="3.909"/><circle cx="438.492" cy="143.366" r="4.218"/><circle cx="453.288" cy="147.119" r="4.886"/></g><g stroke-width="1.09"><circle cx="459.439" cy="171.231" r="4.458"/><circle cx="461.69" cy="157.025" r="5.602"/><circle cx="376.389" cy="141.721" r="4.31"/><circle cx="338.47" cy="157.025" r="5.602"/><circle cx="361.666" cy="143.367" r="4.65"/><circle cx="340.718" cy="171.231" r="4.458"/><circle cx="346.871" cy="147.119" r="5.386"/><circle cx="423.769" cy="141.721" r="4.309"/><circle cx="438.492" cy="143.365" r="4.65"/><circle cx="453.287" cy="147.119" r="5.387"/></g><g fill="#0a1a1d" stroke-linecap="round" stroke-linejoin="round"><path d="M392.5 132c-13.5 15.6-37.2 8-48 14-18.7 10.5 1.7 35.5 5.5 40.3l20.5-5.4c-7.5-6-22.6-16.2-18-24.5 4.6-8.5 29.3.1 40.1-18 2.3-3.9.6-7.2-.1-6.4z"/><path fill="#ffb81c" d="M392.5 132.5c-13.5 15.5-36.4 8-47.2 14.1-18.8 10.6 2.4 34.9 6.3 39.7l17.7-5.4c-7.6-6-21.8-16.5-17.3-24.8 4.7-8.5 29.8 0 40.6-18.2 2.3-3.8.6-6.2-.1-5.4z"/><path stroke-width=".633" d="M393.7 133.7c-14.6 19.7-36.5 9.7-46 17.4-10.6 8.7 5 25.8 12.4 32.6l1.2-.4c-6-5.8-24-22.9-12.6-32.1 8.2-6.6 31.3 2 45-17z"/><path fill="#cb8500" stroke="none" d="M357.8 171.3a14.7 14.7 0 0 0-1.2 3.3c-6.3-7.4-11-15.1-6-21.5 4.5-5.8 15.4-3.1 26.9-7.2a29.7 29.7 0 0 0 14.7-9.4l-1.3 3.8c-11.6 14.8-34.8 7.7-39.2 15.8-2.6 4.8 1 10.3 6.1 15.2z"/><path stroke="none" d="M352.1 170c1.3-.4 2-1.1 2.7-2l1 1.1c-.6.7-1.1 1.3-2 1.8-1 .5-2.2.6-3.2.6l-1-1.4c.8 0 1.8.1 2.5-.1zm-2.8-5.8a6 6 0 0 0 2.5-.8l.5 1c-.7.5-1.4.7-2.4 1-1 .2-2.2.1-3.1 0a23 23 0 0 1-.6-1.4c1 .2 2.2.4 3.1.2zm1.5-4.8c-2-.2-4-1.3-5.5-2.8l.4-1.3c.8 1 2.6 2.8 5.2 3a7 7 0 0 0 0 1.1zm1.8-4.6a9 9 0 0 1-3.4-3.7 9 9 0 0 1 .9-.6 7.6 7.6 0 0 0 3.3 3.7 6.5 6.5 0 0 0-.8.6zm4-6.1c.3 1.4 1 2.6 2.2 3.4l-1.1.3a6.3 6.3 0 0 1-2-3.6l1-.1zm7.1-.6a6 6 0 0 0 2.1 2.7l.2.3-1.1.1c-1-.8-1.8-1.9-2.1-3l1-.1zm7-.7a8.1 8.1 0 0 0 2.6 2.5 66.8 66.8 0 0 1-1.2.3 8.9 8.9 0 0 1-2.4-2.7l1-.1zm6.1-1.3c1 .9 2 1.5 3.3 2l-1.3.4a9 9 0 0 1-3-2.1c.4 0 .7-.2 1-.3zm6.3-2.4c.8.6 1.9 1 2.9 1.3l-1 .6a8 8 0 0 1-2.8-1.4l.9-.5zm4.6-2.9c.6.4 1.4.6 2.1.8l-.7.7c-.8-.2-1.6-.5-2.2-.9l.8-.6z"/><path fill="none" stroke-width=".604" d="M393.8 134.5c0 1-.3 1.7-1.2 3.2-10.8 18.2-36.3 9.9-41 18.4-4.4 8.2 9.7 18.5 17.3 24.6a40.3 40.3 0 0 1-4.2 1.2l-1.3.7-2 .7c-6-5.8-24-22.7-12.6-32 8.2-6.6 31.2 2.2 45-16.8z"/><path d="M407.5 132c13.5 15.6 37.2 8 48 14 18.8 10.5-1.7 35.5-5.5 40.3l-20.5-5.4c7.5-6 22.6-16.2 18-24.5-4.6-8.5-29.3.1-40.1-18-2.3-3.9-.6-7.2.1-6.4z"/><path fill="#ffb81c" d="M407.7 132.5c13.5 15.5 36.4 8 47.2 14.1 18.7 10.6-2.5 34.9-6.3 39.7l-17.7-5.4c7.5-6 21.8-16.5 17.3-24.8-4.7-8.5-29.9 0-40.7-18.2-2.2-3.8-.5-6.2.2-5.4z"/><path stroke-width=".633" d="M438.9 183.3c6-5.8 24-22.9 12.6-32.1-8.2-6.6-31.3 2-45.1-17v-.5c14.7 19.7 36.6 9.7 46 17.4 10.6 8.7-5 25.8-12.5 32.6z"/><path fill="#cb8500" stroke="none" d="M442.3 171.3c.4.7 1 1.9 1.3 3.3 6.2-7.4 10.9-15.1 6-21.5-4.5-5.8-15.5-3.1-26.9-7.2a29.7 29.7 0 0 1-14.7-9.4l1.3 3.8c11.6 14.8 34.8 7.7 39.2 15.8 2.6 4.8-1.1 10.3-6.2 15.2z"/><path stroke="none" d="M448 170.6c-1.5-.4-2.2-1-3.2-2l-.9 1c.7.8 1.4 1.4 2.5 1.9.9.4 1.9.5 2.8.6a53.4 53.4 0 0 0 1-1.4l-2.2-.1zm2.9-6.4a6 6 0 0 1-2.5-.8l-.5 1c.7.5 1.3.7 2.4 1 1 .2 2.1.1 3.1 0l.6-1.4c-1 .2-2.2.4-3.1.2zm-1.6-4.8c2.1-.2 4.1-1.3 5.5-2.8a8.6 8.6 0 0 0-.4-1.3c-.8 1-2.5 2.8-5.2 3l.1 1zm-1.8-4.6a9 9 0 0 0 3.5-3.7 8.8 8.8 0 0 0-.9-.6 7.6 7.6 0 0 1-3.4 3.7l.8.6zm-4-6.1c-.2 1.4-1 2.6-2.1 3.4l1.1.3a6.3 6.3 0 0 0 2-3.6 41.7 41.7 0 0 0-1-.1zm-7-.6a6 6 0 0 1-2.2 2.7.4.4 0 0 0-.1.3l1 .1c1-.8 1.8-1.9 2.2-3l-1-.1zm-7-.7a8.1 8.1 0 0 1-2.7 2.5l1.3.3a8.9 8.9 0 0 0 2.4-2.7 59 59 0 0 1-1-.1zm-6.2-1.3c-.9.9-2 1.5-3.2 2l1.3.4a9 9 0 0 0 3-2.1 39.2 39.2 0 0 1-1-.3zm-6.2-2.4c-.8.6-2 1-2.9 1.3l1 .6c1-.3 2-.8 2.8-1.4a30.2 30.2 0 0 1-1-.5zm-4.6-2.9c-.7.4-1.4.6-2.2.7l.7.8c.8-.2 1.6-.5 2.3-.9a29.5 29.5 0 0 1-.8-.6z"/><path fill="none" stroke-width=".604" d="M406.4 134.5c0 1 .2 1.7 1.1 3.2 10.8 18.2 36.3 9.9 41 18.4 4.4 8.2-9.7 18.5-17.3 24.6a40.2 40.2 0 0 0 4.2 1.2l1.4.7 2 .7c6-5.8 24-22.7 12.6-32-8.3-6.6-31.2 2.2-45-16.8z"/></g><path fill="#0a1a1d" d="M400 166.7h-6.8s.8-6.5 0-11c-.8-3.5-3.7-7.6-3.7-10.6s3.3-11.5 3.3-11.5h14.6s3 8.5 3 11.5-2.6 7-3.4 10.7c-.9 4.4 0 10.9 0 10.9h-7z"/><path fill="#ffb81c" stroke="none" d="M400 166.7h-6.8s1-6.5.2-11c-.6-3.5-3-6.3-3.4-10-.5-5.2 4-12 4-12h12.1s4.4 6.8 4 12c-.4 3.7-2.7 6.5-3.4 10-.8 4.5.2 11 .2 11h-6.8z"/><path fill="#cb8500" stroke="none" d="m390 144.4 1.3-.2c1.5 0 2 1 2 1s4-1 6.8-1c2.7 0 6.7 1 6.7 1s.6-1 2-1c.4 0 .8 0 1.2.2v1.3c-.3 3.7-2.6 6.5-3.3 10-.4 2.2-.4 5-.2 7.1l-6.4 3-6.4-3c.1-2.2.2-4.9-.3-7-.6-3.6-3-6.4-3.4-10.1a9.1 9.1 0 0 1 0-1.3z"/><path fill="#0a1a1d" stroke="none" d="m407 146.8-1.1 4a22 22 0 0 0-.8 4c-.2 3.9.5 8.1 1.2 11.9h-.3a43 43 0 0 1-2.3-11.9c0-2 1.4-6.1 2-8a9 9 0 0 0 .2-6.6c-.7-2-1.9-3.8-2.9-6.5h1.3c1 2.6 2.1 4.5 2.8 6.4.7 2 .9 4 0 6.7zm-13.2 19.9a50 50 0 0 0 1.3-11.9c0-1-.4-2.5-.8-4l-1.2-4c-1-2.8-.2-6.1.7-8.7a28.8 28.8 0 0 1 2-4.5h1.4c-.4.7-4.7 7.9-2.8 13.1.7 2 2 6 2 8.1 0 3.5-1.2 8.6-2.3 11.9h-.3z"/><path d="M400 166.7h-6.8s1-6.5.2-11c-.6-3.5-3-6.3-3.4-10-.5-5.2 4-12 4-12h12.1s4.4 6.8 4 12c-.4 3.7-2.7 6.5-3.4 10-.8 4.5.2 11 .2 11h-6.8z"/><ellipse cx="400" cy="140.644" fill="#faf6f5" stroke-width=".915" rx="3.409" ry="2.507"/><ellipse cx="400" cy="140.492" stroke-width="1.029" rx="3.835" ry="2.735"/><circle cx="400" cy="148.23" r="3.683" fill="#faf6f5" stroke-width=".915"/><circle cx="400" cy="148.23" r="4.143" stroke-width="1.029"/><path stroke-width=".904" d="M360.4 204.3s-1-1-1.4-2c-.2-.6-.2-1.8-.2-1.8l-3.8-6 8.5-8.2 16.2-4.6 20.3-1.5 20.5 1.5 16.2 4.6 8.5 8.1-3.8 6s0 1.3-.3 2c-.3.8-1.4 1.9-1.4 1.9l-19-6.4-20.6-1-20.7 1-19 6.4z"/><path fill="#ffb81c" d="M360.9 203.6s-.8-1-1-1.7c-.5-1-.4-2.8-.4-2.8l-4.5-4.7 8.5-8 16.2-4.7 20.4-1.5 20.4 1.5 16.2 4.6 8.5 8.1-4.5 4.7s0 1.8-.4 2.8c-.3.8-1 1.7-1 1.7l-18.5-5.7-20.7-1-20.7 1-18.5 5.7z"/><path fill="#0a1a1d" d="M358.8 207.3a41.2 12.8 0 1 1 82.4 0 41.2 10.8 0 1 1-82.4 0z"/><path fill="#ffb81c" d="M360.2 207.3a39.8 12.3 0 1 1 79.6 0 39.8 10.5 0 1 1-79.6 0z"/><ellipse cx="400" cy="208.415" fill="#cb8500" rx="36.785" ry="9.395"/><path stroke-width="1.09" d="M436.5 209.7c-6.9 3-20.4 4.5-36.5 4.5-16 0-29.5-1.6-36.4-4.5"/><path stroke-width="1.01" d="M436 206.3c-7.1 2.6-20.4 4-36 4a117 117 0 0 1-35.8-4"/><path d="M432.5 203.9c-7.5 2.2-19.1 3.4-32.4 3.4-13.4 0-25-1.2-32.5-3.4"/><path d="M427.5 202c-7.3 1.5-16.8 2.3-27.4 2.3s-20.2-.8-27.5-2.2m46.5-1.8a176.2 176.2 0 0 1-38 0"/><ellipse cx="400" cy="208.415" rx="36.475" ry="9.093"/><path fill="#0a1a1d" stroke-linejoin="round" d="M354.8 192.8c-3.7-4.8-6.9-8.1-14.7-10.9 1-.8 3-1.6 4.8-2 3-.8 6-.4 8 .6-1.6-5.5 1.4-11 1.4-11s4.8-.4 9.7 3.6c.2-6.8 2.1-10 2.1-10s5.1.3 10.3 5.4c1-7 4.7-10.7 4.7-10.7s6.3 2 9.8 8.5c2.4-9.5 9.2-13.2 9.2-13.2s6.8 3.7 9.1 13.2c3.6-6.5 9.8-8.5 9.8-8.5s3.8 3.7 4.8 10.7c5.2-5.1 10.2-5.3 10.2-5.3s2 3.1 2.2 9.9c4.8-4 10.1-2.5 10.1-2.5s2.5 4.4 1 10c2-1.1 5-1.5 8-.8 1.8.5 3.7 1.3 4.8 2.1a30 30 0 0 0-14.9 10.9c-3.3-7-21.4-14.5-45.1-14.5-23.7 0-42 7.6-45.3 14.5z"/><path fill="#ffb81c" stroke-linejoin="round" d="M354.8 192c-3.1-4.9-7.6-8.4-12.2-10.2 1-.9 3-1.2 5-1.3 2.3-.2 4.2.1 5.9 1-1.6-5.6 1-11.3 1-11.3s5 0 9.8 4c.2-6.8 2.3-10.1 2.3-10.1s4.8.5 10 5.7c1-7 4.7-10.9 4.7-10.9s6.2 2 9.8 8.5c2.4-9.5 9-13 9-13s6.6 3.5 9 13c3.5-6.6 9.8-8.5 9.8-8.5s3.7 3.5 4.7 10.9c5.2-5.2 10-5.7 10-5.7s2 3.3 2.3 10c4.8-3.9 10.4-2.8 10.4-2.8s2 4.6.4 10.1c1.6-.8 3.6-1 6-1 2 .2 3.8.6 4.9 1.4-4.7 1.8-9.1 5.3-12.2 10.2-3.4-7-21.6-13.9-45.3-13.9-23.7 0-42 7-45.3 13.9z"/><path fill="#0a1a1d" d="M353 194.2c0-8.8 20.9-16.2 47-16.2 26.2 0 46.3 7.7 46.3 15.4 0 1.8-1.6 3.4-3.7 4.8a5.2 5.2 0 0 0 .3-1.8c0-7.7-16.7-14-42.9-14-26.1 0-42.8 6.3-42.8 14l.3 1.8c-2.1-1.4-4.5-2.2-4.5-4z"/><path fill="#ffb81c" stroke-width=".904" d="M354.2 193.4c0-6.7 19.7-15 45.8-15 26.2 0 45.9 8.3 45.9 15 0 1.8-2 2-2.3 1.4-2.2-6.7-17.4-12.6-43.6-12.6-26.1 0-41.3 6-43.5 12.6-.2.6-2.3.4-2.3-1.4z"/><path fill="#0a1a1d" stroke-linejoin="round" stroke-width=".45" d="m399.6 172 .4-7.5.1-.7a1168.4 1168.4 0 0 0 .7 14.3h-1.5l.3-6zm38.4 13.6a84.6 84.6 0 0 0 1.3-2.6l2.1-4.3-2.7 3.8a93 93 0 0 1-1.7 2.6zm-12.8-4.6a77 77 0 0 1 5-9v.1l-2 4.5a131 131 0 0 0-1.7 4.5h-.7zm-11.6-2 1.3-5a103.3 103.3 0 0 1 1.8-5.7h.1a300 300 0 0 0-1 5.8 475.7 475.7 0 0 0-.8 5zm-39.3 2.2h-.6l-1.7-4.6-2-4.5a79.2 79.2 0 0 0 5 8.9zm10.9-2.1-.8-5a293.7 293.7 0 0 0-1-5.8 102.8 102.8 0 0 1 1.8 5.7c.5 1.5 1 3.8 1.3 5zm-23.2 6.6a85 85 0 0 1-1.3-2.7 140 140 0 0 0-2-4.3l2.6 3.8a95.7 95.7 0 0 0 1.8 2.7z"/><g stroke-linecap="round" stroke-linejoin="round" stroke-width=".777"><path fill="#cb8500" stroke-width=".719" d="M361.6 197.4c-.3-1.9-2-3.4-3.3-3.2-1.2.2-3 2.1-2.7 4 .3 2 2.7 3.3 4 3.1 1.3-.2 2.3-2 2-3.9z"/><path fill="#ffb81c" stroke="none" d="M359.5 195a2.4 2.4 0 0 1-3 3.7 2.9 2.9 0 0 1-.2-.5c-.3-1.7 1-3.2 2-3.4h.3l.9.3z"/><path d="M360.9 197.5c-.3-1.7-1.4-2.9-2.5-2.7-1.1.2-2.4 1.7-2 3.4.2 1.6 2 2.8 3 2.6 1.2-.2 1.8-1.7 1.5-3.3z"/><path fill="#cb8500" d="m375.4 192.8-.6-3.5-2.4-1.3-4.2 1.3c-1.7.6-4.2 1.8-4.2 1.8l-.6 1 .7 4 1.4 1.3 9-2.7.9-1.9z"/><path fill="#ffb81c" stroke="none" d="m365.5 195.4 7.2-2.2.4-.8-.6-3.7-.2-.3-8 3 .5 3.3z"/><path stroke-width="1.09" d="m365.5 195.4 7.2-2.2.4-.8-.4-3m2.5 3.4-2-.4"/><path fill="#ffb81c" stroke="none" d="M385.7 189a1.5 1.5 0 0 1 1.4-1.6 1.5 1.5 0 1 1 .3 3 1.5 1.5 0 0 1-1.7-1.4zm-3.5 3.3a1.5 1.5 0 1 1 3-.2 1.5 1.5 0 0 1-3 .2zm-3.5-2.6a1.5 1.5 0 0 1 1.4-1.7c.8 0 1.4.6 1.4 1.4.1.8-.4 1.6-1.2 1.6a1.5 1.5 0 0 1-1.6-1.3zm3-3.4a1.5 1.5 0 1 1 3-.2 1.5 1.5 0 0 1-3 .2z"/><path fill="#cb8500" stroke="none" d="M385.8 189.4a1.5 1.5 0 0 1 2.8 0 1.5 1.5 0 0 1-2.8 0zm-4-2.7a1.5 1.5 0 0 0 2.8 0 1.5 1.5 0 0 0-2.8 0zm-3 3.4c.2.6.8 1 1.5 1 .6-.1 1-.5 1.2-1-.2-.7-.7-1-1.4-1a1.5 1.5 0 0 0-1.3 1zm3.5 2.6a1.5 1.5 0 0 0 2.8 0 1.5 1.5 0 0 0-2.8 0z"/><path stroke-width=".933" d="M385.7 189a1.5 1.5 0 0 1 1.4-1.6 1.5 1.5 0 1 1 .3 3 1.5 1.5 0 0 1-1.7-1.4zm-3.5 3.3a1.5 1.5 0 1 1 3-.2 1.5 1.5 0 0 1-3 .2zm-3.5-2.6a1.5 1.5 0 0 1 1.4-1.7c.8 0 1.4.6 1.4 1.4.1.8-.4 1.6-1.2 1.6a1.5 1.5 0 0 1-1.6-1.3zm3-3.4a1.5 1.5 0 1 1 3-.2 1.5 1.5 0 0 1-3 .2z"/><path fill="#cb8500" stroke="none" d="M392.9 190.4v-3.9l2.2-2.1h10l2.2 2.1v3.9l-2.3 2h-9.9z"/><path fill="#ffb81c" stroke="none" d="m405.2 184.8-.8.9v3.7l-.6.6h-7.5l-.6-.7v-3.5l-.7-1z"/><path d="M392.9 190.4v-3.9l2.2-2.1h10l2.2 2.1v3.9l-2.3 2h-9.9z"/><path stroke-width="1.09" d="m393.5 190.2 2.2-.8m11 .9-2.3-1m-9 2.8.9-2.1m8.4 2.1-.9-2.1m.6-4.3v3.7l-.6.6h-7.5l-.6-.7v-3.7"/><path fill="#ffb81c" stroke="none" d="M414.4 189a1.5 1.5 0 0 0-1.4-1.6 1.5 1.5 0 1 0-.3 3 1.5 1.5 0 0 0 1.7-1.4zm3.5 3.3a1.5 1.5 0 1 0-3-.2 1.5 1.5 0 0 0 3 .2zm3.5-2.6a1.5 1.5 0 0 0-1.4-1.7c-.8 0-1.4.6-1.4 1.4-.1.8.4 1.6 1.2 1.6.8.1 1.5-.5 1.6-1.3zm-3-3.4a1.5 1.5 0 1 0-3-.2 1.5 1.5 0 0 0 3 .2z"/><path fill="#cb8500" stroke="none" d="M414.3 189.4a1.5 1.5 0 0 0-2.8 0 1.5 1.5 0 0 0 2.8 0zm1.2-2.7a1.5 1.5 0 0 0 2.8 0 1.5 1.5 0 0 0-2.8 0zm3.1 3.4c.2.5.6.9 1.2 1a1.5 1.5 0 0 0 1.5-1 1.5 1.5 0 0 0-1.3-1c-.7 0-1.2.3-1.4 1zm-3.7 2.6a1.5 1.5 0 0 0 2.9 0 1.5 1.5 0 0 0-2.9 0z"/><path stroke-width=".933" d="M414.4 189a1.5 1.5 0 0 0-1.4-1.6 1.5 1.5 0 1 0-.3 3 1.5 1.5 0 0 0 1.7-1.4zm3.5 3.3a1.5 1.5 0 1 0-3-.2 1.5 1.5 0 0 0 3 .2zm3.5-2.6a1.5 1.5 0 0 0-1.4-1.7c-.8 0-1.4.6-1.4 1.4-.1.8.4 1.6 1.2 1.6.8.1 1.5-.5 1.6-1.3zm-3-3.4a1.5 1.5 0 1 0-3-.2 1.5 1.5 0 0 0 3 .2z"/><path fill="#cb8500" d="m424.7 192.8.6-3.5 2.4-1.3 4.2 1.3c1.7.6 4.2 1.8 4.2 1.8l.6 1-.7 4-1.4 1.3-9-2.7-.9-1.9z"/><path fill="#ffb81c" stroke="none" d="m434.6 195.4-7.2-2.2-.4-.8.6-3.7.2-.3 8 3-.5 3.3z"/><path stroke-width="1.09" d="m434.6 195.4-7.2-2.2-.4-.8.4-3m-1.8 5 1.8-1.2"/><path fill="#cb8500" stroke-width=".719" d="M438.4 197.4c.3-1.9 2-3.4 3.3-3.2 1.2.2 3 2.1 2.7 4-.3 2-2.7 3.3-4 3.1-1.3-.2-2.3-2-2-3.9z"/><path fill="#ffb81c" stroke="none" d="M440 196.6c0-.6.2-1.1.5-1.5a1.6 1.6 0 0 1 1.1-.3c1.1.2 2.4 1.7 2 3.4v.5a2.4 2.4 0 0 1-3.6-2z"/><path d="M439.1 197.5c.3-1.7 1.4-2.9 2.5-2.7 1.1.2 2.4 1.7 2 3.4-.2 1.6-2 2.8-3 2.6-1.2-.2-1.8-1.7-1.5-3.3z"/><path stroke-width=".833" d="m424.3 192.9.6-4 2.6-1.2 4.5 1.4c1.8.6 4.5 1.8 4.5 1.8l.7 1.2-.9 4.3-1.4 1.3-9.7-2.9-1-2zm-32-6.6 2.5-2.2h10.6l2.4 2.2v4.3l-2.4 2h-10.6l-2.4-2v-4.3zm-16.5 6.6-.6-4-2.6-1.2-4.5 1.4c-1.8.6-4.5 1.8-4.5 1.8l-.7 1.2.9 4.3 1.4 1.3 9.7-2.9 1-2z"/></g><g stroke-linecap="round" stroke-linejoin="round"><path fill="#cb8500" stroke-width=".952" d="M408.1 95.8c1.8 0 3.1 1.6 3.1 3.4 0 1.8-1.3 3.5-3 3.5-2.4 0-5.8-2.7-5.6-.5v1l1.2 10.2c3 .7-10.5.7-7.5 0l1.2-10.2.1-1c.1-2.2-3.3.5-5.6.5-1.7 0-3-1.7-3-3.5s1.3-3.4 3-3.4c1.8 0 3.7 1.7 5 1 1.9-1.3-.4-4-.4-5.8 0-1.8 1.7-3.2 3.5-3.2s3.5 1.4 3.5 3.2c0 1.8-2.4 4.4-.4 5.7 1.2.8 3.1-.9 5-.9z"/><path fill="#ffb81c" stroke="none" d="M397.5 91.5a2.6 2.6 0 0 1-.5-.8 3.3 3.3 0 0 1 3-2.4 3 3 0 0 1 1.8.6c-.1.3-1 .4-1.7 1-1.1 1-1.7 2.7-2.6 1.6zm.5 5.1.2.6c0 1.1-1.9 2-4.2 2-2 0-3.6-.6-4.1-1.5a3.3 3.3 0 0 1 2.7-1.4c1.6 0 3.8 1.4 5 .7l.4-.4zm3.3.2c0-.5.2-1 .6-1.4 0 .6 0 1.2.7 1.6 1 .7 3.3-.7 5-.7 1 0 2 .5 2.7 1.4-.7 1-2.4 1.8-4.4 1.8-2.6 0-4.6-1.2-4.6-2.7z"/><path d="M407.6 96.3c1.7 0 3.2 1.3 3.2 3s-1.5 3-3.2 3-5.7-2.9-5.6-.7v1.2l.7 9.8c2.8.6-8 .6-5.3 0l.7-9.8.1-1.2c.1-2.2-4.1.7-5.6.7-1.7 0-3.2-1.3-3.2-3s1.5-3 3.2-3c1.6 0 3.8 1.4 5 .7 1.8-1.2-.7-3.8-.7-5.5 0-1.7 1.5-3.2 3.2-3.2 1.6 0 3.1 1.5 3.1 3.2 0 1.7-2.5 4.3-.6 5.5 1 .7 3.3-.7 5-.7z"/><circle cx="400" cy="116.288" r="7.901" fill="#faf6f5" stroke-width="1.703"/><path fill="#0a1a1d" stroke="none" d="M401.5 121.3c.5-.7 1-1.5 1.3-2.3.2-.6.8-.3.7.2a8 8 0 0 1-1.3 2.4zm-8.7-4.7.4-.4a4.9 4.9 0 0 1 .7-.4c.3-.3.1-.8-.3-.6l-1 .6zm0 1.2.3.7 1.7-1.6c.4-.3 0-.7-.4-.5l-1.2 1a30.4 30.4 0 0 0-.5.4zm.5 1.8.5.6 2.5-2.3c.3-.4 0-.9-.5-.5l-2.5 2.2zm10.8 1.3c.4-.4.8-1 1-1.7 0-.3.2-.4.3-.4.2 0 .3.2.3.5-.2.8-.6 1.5-1 2zm-6 .8a24 24 0 0 0 2.6-3.6c0-.2.3-.2.4-.2.2.1.3.3.2.5a15.2 15.2 0 0 1-1.7 2.6l-1 1.2zm-2.3-1.4 2-2.1c.3-.4 1-.1.6.4a12.7 12.7 0 0 1-1.8 2z"/><path fill="#cb8500" d="M406.1 133.6h-12c-1 1.8-4.3 3-7 1.5-1.8-1-2.2-3.2-2.2-3.2s5 .2 5-4.3 2.7-7.5 6.4-7c1.7.2 2.8 1 3.8 2 1-1 2.1-1.8 3.7-2 3.8-.5 6.4 2.5 6.4 7s5 4.3 5 4.3-.3 2.3-2.2 3.2c-2.6 1.4-5.9.2-6.9-1.5z"/><path fill="#cb8500" stroke="none" d="M406.1 133.6h-.4c-1.1 1-2.9 2.1-5.6 2.7-2.8-.6-4.5-1.6-5.7-2.7h-.4s-4.2 3-7.2.8c-1-.9-1.3-2-1.3-2s5-.3 5-4.8 2.5-6.4 5.8-6.4c1.5 0 2.8.7 3.8 1.6 1-.9 2.3-1.6 3.7-1.6 3.3 0 5.8 1.9 5.8 6.4s5 4.8 5 4.8-.2 1.1-1.3 2c-3 2.2-7.2-.8-7.2-.8z"/><path stroke="#ffb81c" stroke-width=".904" d="M391.2 125c-.3.7.1 2.9.1 2.9s.2 2-1.4 3.6c-1.1 1-3.7 1.5-3.7 1.5m22.8-8c.3.7-.2 2.9-.2 2.9s0 2 1.5 3.6c1.1 1 3.6 1.5 3.6 1.5"/><path fill="#ffb81c" stroke="none" d="M400 135.9c-6.3-1.5-7.1-5.4-7-5.3.5 0 2 3 7 4.4 5.2-1.5 6.7-4.3 7.1-4.4.2 0-.6 3.8-7 5.3h-.1zm-7.8-11.2c0-1.5 2.6-2.8 6-3.1a6.8 6.8 0 0 1 1.9 1.2 6.7 6.7 0 0 1 1.9-1.2c3.4.4 5.9 1.6 5.9 3.1 0 3.7-4.1 5.4-7.8 5.4s-7.9-1.7-7.9-5.4z"/><path d="M406.1 133.6h-.4c-1.1 1-2.9 2.1-5.6 2.7-2.8-.6-4.5-1.6-5.7-2.7h-.4s-4.2 3-7.2.8c-1-.9-1.3-2-1.3-2s5-.3 5-4.8 2.5-6.4 5.8-6.4c1.5 0 2.8.7 3.8 1.6 1-.9 2.3-1.6 3.7-1.6 3.3 0 5.8 1.9 5.8 6.4s5 4.8 5 4.8-.2 1.1-1.3 2c-3 2.2-7.2-.8-7.2-.8z"/><path fill="#0a1a1d" d="M407.6 130.6s-.7 5-7.5 6.6c-6.8-1.5-7.6-6.6-7.6-6.6s.8 4.2 7.6 5.7c6.8-1.5 7.5-5.7 7.5-5.7z"/></g></g><g stroke-linecap="round" stroke-linejoin="round" stroke-width=".933"><path fill="#62c1f2" d="M398.8 227.5c13.5-.2 71.8-10 71.8 71 0 77.2-70.6 108-70.6 108s-70.5-29.8-70.5-114c0-75 69.3-65 69.3-65z"/><path fill="#24a34e" d="M421.7 348.4a28.5 28.5 0 0 1 14-3.6c8.2 0 15.6 3.4 20.8 9-20.6 37-56.4 52.7-56.4 52.7s-35-14.8-55.7-52.9a28.6 28.6 0 0 1 20.7-8.8 28.5 28.5 0 0 1 15.4 4.5 28.6 28.6 0 0 1 41.2-1z"/><path fill="#028a66" d="M434 345.2c3.5.4 9.7 3.7 12.7 8.2-2.3 3.9-6.8 10-9.3 13.4-5.4-8-16.8-18.9-16-18l.7-.4 3.1-1.7a28.5 28.5 0 0 1 6.4-1.6h2.4zm-24.2 50.7a123.4 123.4 0 0 1-9.8 4.7 122.5 122.5 0 0 1-9.7-4.7 159 159 0 0 1-39.3-47.4 28 28 0 0 1 13.8-3.6c.4 0 2.1.5 3.4 1.1 7.9 3.7 17.7 14.4 14 16.5-2.6 1.5-10.2-1-10.6 2-.1 1 14.1 8.9 22.2 15.8 6.7 5.6 17 14.8 16 15.6zm17.3-7c-9-8.9-29.5-27-46.5-39.7 4.7-5 11.2-8.4 18.6-9h.3c9.9 1.5 18.8 12 15.2 14-2.7 1.6-10.3-.9-10.7 2-.1 1 10.2 7.3 16.3 12.5 5.9 5 9.8 8.7 14.2 13.6a136.4 136.4 0 0 1-7.4 6.6z"/><path fill="#0a1a1d" d="M422 348c2 1.7 2.8 3.2 2.8 3.2.2.3 0 1-.6.5l-3-2.9c-2.9-2.9-8-6.5-12.3-7.2-.4 0-.6-.3-.5-.6 0-.3.3-.6.7-.5 0 0 6.4 1.2 13 7.4zm-34.8 5.5c.2.2.2.4.1.6 0 .2-.3.2-.5 0-3.6-2.5-5.4-3.5-7.4-4.8-.2-.2-.3-.3-.2-.5l.4-.3 1.2.1a58 58 0 0 1 6.4 4.9z"/><path fill="none" stroke="#0a1a1d" stroke-width="1.244" d="M421.7 348.4a29 29 0 0 1 14-4.1c8.2 0 15.7 3.6 20.9 9.4m-112.3-.3a28.3 28.3 0 0 1 20.8-9.3 29 29 0 0 1 15.4 5.2 29.2 29.2 0 0 1 21-9.8c7.9 0 15 3.8 20.2 8.9"/><path fill="none" stroke="#2d86cf" stroke-width=".777" d="M368 230.5h66.9m-76 3.7h84.2m-90.3 3.7h95.8m-100.4 3.8h104.6m-108.3 3.7H456M341.5 249h117.3M339 252.8h122m-124 3.7h126m-127.8 3.7h129.4M333.8 264h132m-133.2 3.7H467m-135.3 3.8h136.2m-50.2 3.7h51m-137.8 0h51.4m52 3.7h35m-139 0h35.5m75 3.7h29m-139.9 0h29.3m87.8 3.7h23.1m-140.4 0h23m100.6 3.7h17m-140.8 0h17.1m111.1 3.7h12.8m-141 0h13m119.3 3.7h8.8m-141 0h8.5"/><g fill="none"><path fill="#0a1a1d" d="M356.7 300.4v-7.2l7.7-3 7.7 2v8.2z"/><path fill="#faf6f5" d="m373.2 333.2 3.4 14a28.6 28.6 0 0 0-11.5-2.4l-.7-57.6 3 .9v6l4 1v-6l5.2 1.4v9.9l-3.4 5v27.8z"/><path fill="#d7ccbf" d="M364.4 332.1v-44.9l-3.1 1.4v6l-3.9 1.5v-6l-5.3 2.2v9.5l3.8 4.6.1 27.4-3.9 14a28.5 28.5 0 0 1 12.3-3V332z"/><path stroke="#0a1a1d" stroke-width="1.09" d="m364.2 332-8.2 1.8m-1.7 8.7 10-2.2 10.9 1.2m-11.2-5.2L355 338m17.7-24.7-8.4-1.7-8.5 2.6m16.9 3-8.4-1.5-8.5 2.4m0-7.9 8.5-2.7 8.4 1.8M355.9 322l8.5-2.3 8.4 1.5M356 326l8.4-2 8.4 1.3m-16.8 4.6 8.4-1.9 8.5 1.3m-3-24.4v3.8m-3.2-.6v4m3.1.7v4m-7.9-4.3v3.9m0 4.1v4m-3.7 1.3v3.6m0-19.4v3.6m3.7-9.1v3.9m2.5-11 12.2 3m-12.2-3-12.3 4.4"/><path stroke="#0a1a1d" stroke-width="1.244" d="M364.4 344.8v-57.6"/><path fill="#0a1a1d" d="m370.6 334.7-3.7-.5v-11.8c0-1.5.8-2.4 1.6-2.4 1.4 0 2 1.6 2 3z"/><path stroke="#0a1a1d" d="m373.2 333.2 3.4 14a28.6 28.6 0 0 0-11.5-2.4 28.5 28.5 0 0 0-13 3l4-14-.2-27.4-3.8-4.6v-9.5l5.3-2.2v6l3.9-1.6v-6l3-1.3 3.2.9v6l3.9 1v-6l5.2 1.4v9.9l-3.4 5v27.8zm3.1 13.4a29.7 29.7 0 0 0-23.8.7l3.8-13.4v-27.5a1 1 0 0 0-.1-.2l-3.7-4.5v-9.2l4.6-2v5.6c0 .2.2.4.4.3l3.9-1.6.2-.3v-5.7l2.8-1.3 2.8.8v5.8c0 .2.1.3.2.3l3.9 1c.2.1.4 0 .4-.3v-5.5l4.6 1.2v9.5l-3.3 5a1 1 0 0 0 0 .1v27.8l3.3 13.4zm1.3.5c0 .3-.8 0-1-.1a28.3 28.3 0 0 0-11.5-2.4c-4.6 0-9 1.1-12.8 3-.3.2-1.2.5-1 .2l4.4-14v-27.3l-3.8-4.5a1 1 0 0 1 0-.2v-9.5l.1-.3 5.3-2.2c.2-.1.4 0 .4.3v5.5l3.3-1.3v-5.7c0-.1 0-.3.2-.3l3-1.4a.9.9 0 0 1 .3 0l3 .9c.2 0 .3.2.3.3v5.8l3.2.8v-5.5c0-.3.2-.4.4-.4l5.3 1.4.2.3v9.9a1 1 0 0 1 0 .1l-3.4 5v27.7l4 13.9zm-13.2-43.6 8.4 2m-8.4-2-8.5 2.9"/></g><g fill="none"><path fill="#0a1a1d" d="M391.5 295v-7.4l7.8-2.8 7.7 2.4v7.8z"/><path fill="#faf6f5" d="m408.1 328.1 3.4 13.8a28.6 28.6 0 0 0-10-1.8l-2.4.1.2-58.4 3 1v6l4 1.2v-6l5.2 1.7v9.8l-3.4 4.9V328z"/><path fill="#d7ccbf" d="M399.3 340.2v-58.4l-3.1 1.2v6l-4 1.4v-6l-5.2 2.1v9.6l3.8 4.7v27.6L387 344a28.5 28.5 0 0 1 12.3-3.9z"/><path stroke="#0a1a1d" stroke-width="1.09" d="m398.8 330.8-8.6 1.7m19.5 3.8-10.5-1.3-10.3 2m4.2-21v3.7m3.7 3.4v4m0-28.2v3.9m-3.7 1.4v3.8m3.7-1v3.9m7.9-3.3v3.9m-3.1-8.7v4m3.1-7.1v3.8m-13.8 20.9 8.4-1.8 8.5 1.6m-17-7.7 8.5-2.1 8.3 1.8m-16.8-3.6 8.5-2.3 8.3 2m-16.8-3.6 8.5-2.5 8.3 2m-16.8-3.5 8.5-2.5 8.3 2.1m.1 15.9-8.4-1.7-8.4 2m8.4 6.1-8.4 1.8m20.6-32.9-12.2-3.5L387 296m20.6 4.3-8.3-2.3-8.5 2.7"/><path stroke="#0a1a1d" stroke-width="1.244" d="M399.3 340.2v-58.4"/><path fill="#0a1a1d" d="m405.5 329.4-3.8-.6V317c0-1.4 1-2.2 1.7-2.2 1.4 0 2 1.6 2 2.2z"/><path stroke="#0a1a1d" d="M411.2 341.4a29.9 29.9 0 0 0-23.9 2l3.9-15v-27.6a1 1 0 0 0-.2-.2l-3.7-4.6v-9.3l4.7-1.8v5.5c0 .3.2.4.4.3l3.9-1.4.2-.3v-5.8l2.8-1 2.7.8v5.9l.3.3 3.8 1c.3.1.4 0 .4-.3v-5.4l4.7 1.5v9.4l-3.3 4.8a1.4 1.4 0 0 0-.1.2V328l3.4 13.3zm1.2.4c.1.3-.7 0-1 0a28.3 28.3 0 0 0-9.9-1.8 28.2 28.2 0 0 0-14.3 3.9c-.3.1-1.2.4-1.1 0l4.5-15.6-.1-27.4-3.7-4.6a1 1 0 0 1 0-.2v-9.6l.1-.3 5.3-2c.2-.2.4 0 .4.2v5.6l3.2-1.2V283l.2-.3 3.1-1.2h.3l3 1 .3.3v5.8l3.2 1V284c0-.2.2-.3.4-.3l5.3 1.7.2.3v10l-3.4 4.8V328l4 13.7zm-4.3-13.7 3.4 13.8a28.6 28.6 0 0 0-10-1.8 28.5 28.5 0 0 0-14.5 4l3.9-15.7-.1-27.6-3.8-4.7v-9.6l5.3-2v6l3.9-1.5v-6l3-1.2 3.2 1v6l3.8 1.1V284l5.3 1.7v9.8l-3.4 4.9V328z"/></g><g fill="none"><path fill="#0a1a1d" d="M426.4 300.6v-8.2l7.7-2.2 7.8 2.6v7.8z"/><path fill="#faf6f5" d="m443 333.5 3.4 13.3a28.6 28.6 0 0 0-10.8-2H434l.1-57.6 3.1 1v6.1l3.9 1.3v-6l5.3 1.9v9.7L443 306v27.5z"/><path fill="#d7ccbf" d="M434.1 332.1v-44.9l-3 1v6l-4 1.2v-6L422 291v9.7l3.8 4.9v27.5l-3.8 15a28.5 28.5 0 0 1 12.2-3.4v-12.7z"/><path stroke="#0a1a1d" stroke-width="1.09" d="m423.6 342 10.5-1.6 10.7 1.4m-11.1-5.6-8.9 1.4m6.9-33.4v3.9m-3.8 1.2v3.8m0 12.1v3.8m3.8-8.6v3.9m0-12v3.9m7.9-3.1v3.9m-3.1-8.7v3.9m3-7v3.8m-13.8 20.4 8.4-1.4 8.6 1.6m-17-12 8.4-1.9 8.4 2m0 4-8.4-1.9-8.5 1.8m16.9-7.8-8.4-2.1-8.5 2m16.9-3.9-8.4-2.2-8.5 2m17-3.6-8.5-2.5-8.4 2.2m-3.8-4.9 12.2-3.4 12.3 3.8M434 332l-8.3 1.4m0-7.9 8.3-1.6 8.5 1.8"/><path stroke="#0a1a1d" stroke-width="1.244" d="M434.1 344.8v-57.6"/><path fill="#0a1a1d" d="m440.3 335-3.7-.7v-11.8c0-1.4.9-2.2 1.7-2.2 1.4 0 2 1.6 2 2.2z"/><path stroke="#0a1a1d" d="M446 346.3a29.8 29.8 0 0 0-23.8 1.4l3.9-14.4-.1-27.6a.9.9 0 0 0 0-.2l-3.8-4.8v-9.4l4.6-1.5v5.6c0 .2.2.3.4.3l4-1.2.1-.3v-5.8l2.8-.9 2.8 1v5.8l.2.3 3.9 1.3c.2 0 .4 0 .4-.3v-5.5l4.7 1.6v9.4l-3.4 4.7a1.4 1.4 0 0 0 0 .2v27.5l3.4 12.8zm-3-12.8 3.4 13.3a28.6 28.6 0 0 0-10.8-2c-5 0-9.6 1.2-13.7 3.5l3.9-15-.1-27.6-3.8-4.9v-9.7l5.3-1.7v6l3.8-1.2v-6l3.1-1 3.1 1v6.1l3.9 1.3v-6l5.3 1.9v9.7L443 306v27.5zm4.3 13.3c0 .3-.8 0-1-.1a28.3 28.3 0 0 0-10.7-2A28.2 28.2 0 0 0 422 348c-.3.1-1-.2-.9-.5l4.3-14.4v-27.4l-3.8-4.8a.9.9 0 0 1 0-.2v-9.7l.2-.3 5.3-1.7c.2 0 .4 0 .4.3v5.6l3.2-1v-5.8l.2-.3 3.1-1a1 1 0 0 1 .2 0l3.1 1 .2.3v5.9l3.3 1v-5.4c0-.2.2-.4.4-.3l5.3 1.8.2.3V301.3l-3.4 4.8v27.4l4 13.3z"/></g><g id="a" fill="#0a1a1d" stroke="#0a1a1d"><path d="M369.4 268.7c-.3-2.6-1.3-6.7-4.7-6.2.2 4.5 5.9 21.3-.6 22.5l-.3-.3c.1-7.6-7.5-16-6-22.6 1-4.4 4.3-6.7 8.7-6.7 8 0 9.1 10 3.3 13.5l-.4-.2z"/><path fill="#faf6f5" d="M369.9 267.5c-.7-2.8-2.3-6.6-5.9-6l-.2.4c.1 4.8 6.2 19.4.4 22-.1-8.4-7.7-13.8-5.7-21.7a9.2 9.2 0 0 1 4.8-5.6c1-.4 2.1-.7 3.2-.7 7.2.1 9.1 7.7 3.4 11.6z"/><path stroke="none" d="M359.6 264.7a6.2 6.2 0 0 1 4.4-3.6c.4 0 .7.3.9.7h-.8v1c-.8 0-2.3.4-3.8 2.3-.7.8-1 .5-.7-.4zm9.5-5.1c-2.2-3.3-7.8-1.4-9.2.6-.1.2-.5 0-.7-.1a.5.5 0 0 1-.1 0l1.4-2c2.7-1.7 7.5-2 9.4 1a.4.4 0 0 1-.2.6.4.4 0 0 1-.6-.1z"/></g><use xlink:href="#a" x="35.338" y="-5.423"/><use xlink:href="#a" x="70.673"/><g stroke="#0a1a1d"><path fill="#0a1a1d" d="M446.3 240.5c3.2 2.2 14.8 8.7 16.5 45.7 3.3 72-58 114.1-58 114.1s77.6-33 77.6-114.2h0c0-34.2-13.6-71.2-40.5-71.2h-14.8L405.6 225a6.8 6.8 0 0 0-5.3-2.6c-2.1 0-4.2 1-5.4 2.6l-21.5-10h-15.2c-27 0-40.5 37-40.5 71.1h0c0 81.2 77.6 114.2 77.6 114.2s-61.3-42-58-114.1c1.7-37 13.3-43.5 16.5-45.7l18.2 6 22.9-13.3c1.5 1.6 3 2.7 5.4 2.7 2.3 0 3.7-1 5.4-2.7l22.7 13.5z"/><path fill="#cb8500" d="m431.5 214.1-31.2 13.6L369 214l-11 .8c-26.8 0-40.4 37-40.4 71.2v0c0 81.2 77.6 114.2 77.6 114.2s-62-42-58.8-114.1c1.8-37 13.6-44.4 16.9-46.6l20 5.6 26.9-16 27 16 19.4-5.6c3.3 2.2 15.1 9.6 16.9 46.6 3.3 72-58.8 114.1-58.8 114.1s77.6-33 77.6-114.2h0c0-34.2-13.6-71.2-40.5-71.2z"/><path fill="#0a1a1d" stroke="none" d="M437.3 229c-3.7.3-6.3 2.8-6.4 6.6 0 2 .9 5.1 2.3 6.4l-.8 1a10.8 10.8 0 0 1-2.8-7.4c.1-4.3 3.1-7.2 7.6-7.8zm-74.5-1.2c4.5.6 7.5 3.5 7.6 7.8.1 2.4-1 5.8-2.7 7.3l-.9-1a9.6 9.6 0 0 0 2.3-6.3c-.1-3.8-2.7-6.3-6.4-6.7zm-8.7 7.5a37.4 37.4 0 0 0-13 17c-.2.3-.4.4-.7.3-.2 0-.3-.4-.2-.7a39.7 39.7 0 0 1 13.6-18.2l.3 1.6zm7.2-12.9c-13.2 0-23 9.3-29.6 26.5-.2.3-.5.6-.8.4-.3 0-.3-.4-.2-.8 6.6-17.4 16.7-27.2 30.6-27.2 6 0 11.2 1.5 15.7 4.8l.2 1.6a24.3 24.3 0 0 0-16-5.3zm0 3.6c-11.5 0-20.5 9.7-26.2 24-.2.4-.4.5-.7.4-.2 0-.3-.5-.1-.8 5.3-14.4 14.8-24.7 27-24.7 6.1 0 11.4 2 15.8 6.2l-.2 1.4a20.8 20.8 0 0 0-15.6-6.5zm13.2 12.6c-2.3-6.9-6-9.5-13.4-9.5-9.6 0-17.6 8.7-22.8 22-.2.3-.4.5-.7.4-.2 0-.3-.4-.1-.7 5-13.5 13.3-23.1 23.6-23.1 7.7 0 11.8 3.1 14 9.8l-.6 1zm51 0-.6-.9c2.2-6.8 6.3-10 14-10 12.4 0 22 14 27 32.3 0 .4 0 .8-.4.8-.3 0-.5-.2-.6-.5-5-18-14.5-31.2-26-31.2-7.3 0-11 2.7-13.3 9.6zm43.4 21.8c.1.5.1.8-.3.9-.2 0-.5-.2-.6-.6-4.8-20.4-15-34.4-29.2-34.4-6.1 0-11.3 1.6-15.6 6l-.2-1.4c4.4-4.3 9.7-5.7 15.8-5.7 15.1 0 25.6 15 30.1 35.2zm3.9.6c0 .4 0 .7-.4.8-.3 0-.6-.2-.7-.6-4.7-22.3-15.8-38.7-33.1-38.7a24 24 0 0 0-15.7 5.7l.1-1.6c4.4-3.4 9.6-5.3 15.6-5.3 18.3 0 29.7 17.3 34.2 39.7zM441 232.8c9.5 1.1 18 12.3 21.7 27 0 .3 0 .7-.3.8-.3 0-.6-.1-.7-.6-4.2-15.9-12.3-24.7-20.8-25.8l.1-1.4z"/><path fill="none" d="M419.4 240.5c-.8-.9-3-4-3-10.3m-.3 8.4c-.7-1-2.3-3.6-2.3-8.4m-.9 6.5c-.5-.9-1.7-3-1.7-6.5m-1.4 4.7c-.4-.8-1-2.5-1-4.7m-27.6 10.3c.7-.9 3-4 3-10.3m.2 8.4c.7-1 2.4-3.6 2.4-8.4m.8 6.5a12 12 0 0 0 1.8-6.5m1.3 4.7c.4-.8 1.1-2.5 1.1-4.7"/><circle cx="400.282" cy="229.24" r="6.199" fill="#cb8500" stroke="none"/><path fill="none" d="M394.1 227.8a6.3 6.3 0 0 1 6.2-5 6.4 6.4 0 0 1 5.8 4m.4 4a6.4 6.4 0 0 1-6.2 4.8 6.4 6.4 0 0 1-6-4m7.6 1.5a4.2 4.2 0 0 1-5.8-3.7m7.8 2a4.2 4.2 0 0 1-2 1.7m-1.2-1.9a2 2 0 0 1-2.5-1.8m-2-1.2c0-.5.3-.9.4-1"/><path fill="none" d="M394.1 227.8c0-3 2.6-5.4 6.2-5.4 2.7 0 5.8 2 5.8 4.4m.4 4c0 2.7-3.3 5.1-6.2 5.1-2.7 0-6-2-6-4.4"/><path fill="#0a1a1d" d="M423.3 242.2c3.3 4.4 8.4 7 14 7 7.4 0 13-4.5 13-11.9-.1-3.8-2.8-8.7-9-8.7-4 0-7.4 4-7.4 8 0 2.2.4 3.6 1.8 5.2-5.6-1.7-9.2-4.7-9.2-11 0-6.4 4.2-11 11.2-11.6 23.4-2 37.7 24 40.5 59.9 3.9 51.2-23.7 92-65.7 115.3-5.8 3.2-10.4 5.8-12.4 6.7v6.3a161 161 0 0 0 46-28.4c22-20.1 43-54.1 39.8-99.9-2-28.9-11-48.3-22-57.8-19-16.4-44.7-9.9-44.7 9.5 0 4.3 1.6 8.3 4.1 11.4zm-46.5 0c-3.3 4.4-8.4 7-14 7-7.4 0-13-4.5-13-11.9.1-3.8 2.8-8.7 9-8.7 4 0 7.4 4 7.4 8 0 2.2-.4 3.6-1.8 5.2 5.6-1.7 9.2-4.7 9.2-11 0-6.4-4.2-11-11.2-11.6-23.4-2-37.7 24-40.5 59.9-3.9 51.2 23.7 92 65.7 115.3 5.8 3.2 10.4 5.8 12.4 6.7v6.3a161 161 0 0 1-46-28.4c-22-20.1-43-54.1-39.8-99.9 2-28.9 11-48.3 22-57.8 19-16.4 44.7-9.9 44.7 9.5 0 4.3-1.6 8.3-4.1 11.4z"/><path fill="#ffb81c" d="M400 407a163 163 0 0 1-46-29.3 120 120 0 0 1-38.4-99c2-29 10.6-47.2 21.6-56.8 18.9-16.4 43.3-9 43.3 9 0 9.8-8 17.8-17.9 17.8-6 0-12.2-4.9-11.6-12.1a7.3 7.3 0 0 1 14.6.3c0 2.2-1.4 4.4-3 5.7 6.2-.2 11.7-5.5 11.7-11.8 0-6.4-5-11.8-12-12.4-23.3-2-38.4 24.7-41 60.7-3.6 51.2 24.3 92.6 66.3 115.9 5.9 3.2 10.5 5.2 12.4 6 2-.8 6.6-2.8 12.5-6 42-23.3 69.9-64.7 66.3-116-2.6-36-17.7-62.5-41-60.6-7 .6-12 6-12 12.4 0 6.3 5.5 11.6 11.7 11.8-1.6-1.3-3-3.5-3-5.7a7.3 7.3 0 0 1 7.3-7.3 7.3 7.3 0 0 1 7.3 7c.6 7.2-5.7 12-11.6 12-9.9 0-17.9-8-17.9-17.8 0-17.8 24.4-25.3 43.3-9 11 9.7 19.6 28 21.6 56.9a120 120 0 0 1-38.4 99 163 163 0 0 1-46 29.3z"/></g></g><g fill="#0a1a1d" stroke="#0a1a1d" stroke-linecap="round" stroke-linejoin="round" stroke-width=".933"><path d="m302.4 357.8-4.7-2c-2.5-1.3-8.2-8.4-14.6-12-9.7-5.7-19.2-4.2-27.8-8 2 9 8 17.2 18.1 21.6 8.3 3.5 21.6.5 23 .6 1.5.1 6.2 1.9 6.2 1.9l-.2-2.1zM267.2 369l.1-.2c5.3-.7 10.3-2 15.5-3.3 11.5-2.9 17-.5 26.3 5.9.5.4 1.2 1 1.9 1.2 1.5.5 2.5.1 4 .1h0l2.3 1.8c.1.1 0 .2-.1.3-2 .3-4.5.3-6.5.2-3-.3-9.2 6.8-18 6.8-11.2 0-18.5-5-25.5-12.8z"/><path fill="#028a66" d="M316.3 374.3c-1.7 0-3.6 0-5.3.4-5.1.8-10.2 6.4-18 6.6-10.4.3-17-4.5-24-11.5 10.3-1.6 18.2-7.5 28.9-4.2 5.5 1.7 11.9 8.6 17 7.6l1.4 1.1z"/><path stroke-width=".45" d="M309.9 373s-9.1 1.4-14.8 1.5c-9.2 0-23.2-3.8-23.2-3.8s14 4.2 23.2 4.4c5.7 0 14.8-1.2 14.8-1.2v-1z"/><path fill="none" stroke-width=".777" d="M284.5 262.7c.1-.3 0-.7-.1-1l-.8-1.5-.9-1.7c-.3-.5-.5-1.2-.5-1.8l1.4-.4a6.8 6.8 0 0 0 2.2 3.7l.4.5-1.2 2.6c0 .2-.6 0-.5-.4z"/><path stroke-width=".777" d="M338 389c0-2 .4-1.2 2.4-.4.5.2.2.6-.2.8-1.2.8-2.3 2.4-2.8 2-1.4-1-.6-1 .7-2.5z"/><path d="M289.2 255c-6 15.3-8.1 42.4-6 54.7 6.4 37.9 37.6 73.4 66.1 79.1 24.9 5 40 16.1 49.9 28 6.4 7.7 9.9 11.3 19.2 26.7 3.4 5.6-2.4 6.8-4.8 2.1-6.6-12.8-10-18.4-19-28.5a81.4 81.4 0 0 0-47.1-25c-27.7-5.6-60-41.1-66.5-79a139 139 0 0 1 6-57.3l2.2-.9"/><path d="M330.3 387.3c-4.3.5-7.2 6.8-11.5 10.7-8 7.2-20.7 8-28.8 3.1-.4-.2-.6-.6-.2-.7 10.1-2.3 11.4-16.1 32.5-14.8 2.5.2 3.5.7 6 .7l2 1zm-16-64h.1c.2 6.2 4.8 14.6 6 21.4 1 5.8-.5 10.7-2.7 16-.6 1.4-1.9 4.2-2 5.5 0 1.2.8 2.4 1.5 3.4.2.4 1.6 2.2 1.4 2.6-5.5-4.9-2.3-1.7-4.6-6.2l-3.8-6.7c-6.2-12.2-6.4-26 4.1-36zm40.3 66.7c-2.8-1-5.6-2-7-4.8-2.6-4.7-2-8.5-4.6-13.4-5-9.2-14.4-10.2-19.2-18.8-1 7.9-2 19.7 10.3 28 4.3 3 10.9 3.7 12.4 5 1.6 1.1 2.6 2.8 2.6 2.8l5.5 1.2z"/><path fill="#028a66" d="M349.2 388.5c-.9-1-1.9-1.9-3-2.7-2.4-1.8-7.9-2-12-5-5.7-4.1-8.6-8-10.2-15-1-4.1-.2-7.5 0-11 5.1 7.5 14 8.2 18.8 17.2 3 5.4 2.6 13.7 8.5 17l-2-.5z"/><path stroke-width=".777" d="M300.4 347.4s-.4.4-.9 1.8c-.2.6 1.2 2.4 1 1.8-.2-1.6.6-2.7.6-2.7l-.7-.9z"/><path fill="#028a66" d="M302.4 357.8s-3.2-.7-4.7-1.5c-2.5-1.2-8.1-8.6-14.6-12.2-9.2-5.3-17.3-4.2-26.4-6.9a27.3 27.3 0 0 0 16.7 19.7c8.2 3.7 21.6.5 23 .6 1.5.1 6.2 2 6.2 2l-.2-1.7z"/><path fill="#036a4a" d="M315.5 369c-.4-3-3.7-7.1-5-9.8-2.1-4-3.6-8.3-4-12.7-1-9.6 1.1-14.7 7.4-21.8 0 2.1.3 2.8 1 4.8 2.6 8 6.3 14.7 5 23.5-.5 4.4-4 10.5-4.2 13.2 0 1.3.7 3 1.4 4.1l-1.6-1.4z"/><path d="M292 343.1c-6.8-11.2-22.6-6.2-33-15.6a30 30 0 0 1-8.2-18c-.3-1.9-1.2-9.6-.7-11 0-.4.3-.4.6-.2 3.4 3.3 6.8 5.5 10.8 8.2a48.7 48.7 0 0 1 18.2 22.3c6.4 13 12.1 5.7 12.2 14.3z"/><path stroke-width=".45" d="M313 328.1s-2.2 11.2-1.9 18.4c.3 7.4 3.6 18.6 3.6 18.6h-.6s-3.4-11.2-3.6-18.6a91.5 91.5 0 0 1 2.4-18.4z"/><path fill="#028a66" d="M282 336c-3.7-1.1-7.8-1.8-12.2-2.9-4.2-1-7.6-3.3-10.7-6.1-5-4.4-6.5-10.3-7.5-16.7a48.7 48.7 0 0 1-.4-10.6c.4.7.9 1.4 1.5 1.8 3.2 2.3 6.6 4 9.8 6.3 2.8 2 4.8 3.3 7.1 6 3 3.2 5.4 6.8 7.4 10.7 1.6 3 3 6.6 5.1 9.4z"/><path fill="#9d7a51" d="M282.1 334c1.1 1.4 5.5 3.2 7 3.4l1.6 3.9v0a18.2 18.2 0 0 0-8.7-5.3z"/><circle cx="271.96" cy="304.79" r="4.417" fill="#cb8500"/><path fill="#ffb81c" stroke="none" d="M272.5 300.9a4.5 4.5 0 0 0-.4 1.8c0 1.9 1.2 3.5 2.6 3.5a2 2 0 0 0 1-.4c.2-.3.2-.6.2-1a4 4 0 0 0-3.4-4z"/><circle cx="271.96" cy="304.79" r="4.719" fill="none" stroke-width="1.244"/><path d="M285 302.8s2-7.6 4-12.4c4.6-11.2 12.6-11.7 16.6-20.6 2.3 6 4.2 13.8.1 22.4-4.6 10-16.6 16-16.6 16l-4-5.4z"/><path fill="#036a4a" d="M305.6 271.8c6 16.4-2 28.1-16.4 36.2l-3.9-5.2c2.5-10.5 4.3-15.7 12.3-23.1 3.2-3 6-4 8-7.9z"/><path fill="#9d7a51" d="M288.7 255.7c-6 15.7-7.7 42-5.7 54 6.5 38 37.6 73.6 66.3 79.4a85.5 85.5 0 0 1 49.7 27.7 125.1 125.1 0 0 1 11.8 15.5c2.7 4.3 5 9 7.3 12.6.4.6-2.7 1.9-3 1.4-2.4-4-4.7-8.9-7.5-13.4-3.1-5.1-8.6-10.4-13.3-16-10-11.9-23.5-20.8-46.8-25.5-27.5-5.4-59.5-40.6-65.9-78.3-2-12.3-.5-40.8 5-55.8l2.1-1.6z"/><path d="M285.7 330c-1.2-1.2-3-2.4-4.2-3.6-11-11.5-8.1-31.4 4-41.2.4-.3.7-.2.8.3a52 52 0 0 0 2.7 12.3c3.7 10 4.3 15.9 1 24.5a14 14 0 0 0 0 10l-4.3-2.4z"/><path stroke-width=".623" d="M324.6 379.2c-7-2.4-14.3-1.8-20.2-7.8-6.8-7-8.2-18-6.5-24.2.1-.3.4-.6.5-.3 1.5 1.8 2.3 3.1 4.3 4.6 7 5.2 15.8 7.8 18.8 15.8.6 1.6.8 3.2 1.3 4.8 2 5.5 5 7.2 9.6 10.1l-7.8-3z"/><path fill="#028a66" d="M330.1 382.1c-6.6-5.6-18.5-3.6-25.6-11.2a26.8 26.8 0 0 1-6-22c6.2 5.6 13.5 7.2 19.2 13.5 6.8 7.4 1 12.3 13.7 19.6l-1.3.1z"/><path d="M294.9 342v-.2c1.6-2 .5-7.9 0-10.2-1-4-1-7.5-.4-11.7.8-4.7 3.4-9 6-13 1.2-1.8 5.1-7.3 5.5-9.2 0-.2.2-.2.3 0 1.5 3.2 2.3 7.1 2.9 10.6a30 30 0 0 1-7.3 26.4c-1.3 1.4-4.4 4.5-4.9 6.2 0 .3-.6 2.5-.5 4.2l-1.6-3.2z"/><path stroke-width=".948" d="M284 277.8s.1 0 1-.6c1-.6 2-1.6 2.4-2.9.5-1.3 3.7-11.9 8-18.4 5-7.7 10-11.1 16.3-16.7 1 6 1.2 16-4 23.9a45 45 0 0 1-18 13c-1.3.5-3.7.9-5 2.7-.8 1-1.4 3-1.4 3l.6-4z"/><path d="M282.4 278.8s-.5 0-1.1-1c-.7-1-1.4-2.4-1.4-3.9 0-3.2 3-12.6 1.5-19.8-2.8-13.7-7.1-19.2-7.8-24.3-.2-2-11.4 13.8-8 28.6a41.8 41.8 0 0 0 11.3 16.5c1.2 1 2.8 2.4 3.6 4.6.8 2.2.7 4.7.7 4.7l1.2-5.4zm6.6-23.6c.8-2 2.1-4.3 3.4-5.3 3-2.5 11.5-8.8 14.3-13.4a36.8 36.8 0 0 0 4.5-25c-5.6 4.9-10.7 8-16.4 16.1-5 7-6 20.8-6.4 23.4-.4 2.8-1.7 5.9-1.7 5.9l2.3-1.7z"/><path fill="#028a66" stroke-width=".948" d="m284 280 .2-2a6.8 6.8 0 0 0 3.5-3.6c2.7-6.4 4.3-12.9 8-18.8 5-7.6 10.2-10.6 15.4-14.8.3 6.8 1.4 13.9-4 22.8-3 5-12 10-17.5 12.2-2.5 1-4.2 1.7-5.6 4.2z"/><path d="M261.1 266.5c8.5 7 11 10.4 13.5 21.4.2 1.2 1.9 6.8 2.2 7.5.8 1.6 2.5 2.4 3.6 3.7l.4 3.4c0 .3-.1.3-.3.1-1.3-1.2-2-3-3.5-4.2-1.3-1-5.8-2-7.8-2.7-5-2-9-5.9-11.8-10.4-3.8-5.9-4.2-14-3.3-20.7.2-1.5.4-3.4 1-4.9 0-.2.1-.1.2 0 2 3.2 3.4 4.7 5.8 6.8z"/><path fill="#028a66" d="m280 299.4.2 2c-4-5.5-5.4-3.9-11-6.2a26 26 0 0 1-11.6-10.1c-4.2-6.6-4.1-16.3-2.3-23.7 2.2 4.5 11 9 14.5 14.5 2.2 3.6 3.5 7.9 4.6 12 .6 2 1.2 6 2 7.7.6 1.2 2.5 2.9 3.6 3.8zm15.4 42.7c1.5-2.4.2-8.2-.3-10.8-.8-4.1-.8-7.6-.2-11.8 1.1-6.7 5.4-11.2 9.2-16.7l2-3.3c4.4 12.2 5.6 24.6-3.9 34.9-1.4 1.5-4.8 4.5-5.3 6.4-.3 1-.4 2-.5 3l-1-1.7z"/><path fill="#9d7a51" d="M331.3 385.5s-.5.8-3 .8l1.2 1.2.8-.2c2.4-.5 3.1-.4 4.7.2"/><path fill="#036a4a" d="M328.3 386.3c-2.5 0-10.4-1.3-16.6.4-9.5 2.4-13.4 11.3-20.5 14.4 10.8 4.7 18.7 3.5 27.7-3.7 3.6-2.9 5.9-8.4 10.6-9.9z"/><path fill="none" d="M405.4 431s.1-1.4 1.7-2a1.8 1.8 0 0 1 2 .7"/><path fill="#9d7a51" stroke-width=".777" d="m340.5 388.9-1.1.7c-.6.5-1.4.9-1.6 1.3h-1c.6-.5 1.3-1.4 1.6-1.8.2-.2 0-1 0-1l2 .8z"/><path fill="#028a66" stroke="none" d="M287.6 255.6c1.7-4.8 1.6-10.2 2.6-15.2 2-10.5 5-13.9 12.6-21 2.4-2.2 4.9-3.8 7.5-5.8.4 3 .6 5.6.3 8.6-1.5 14.9-7.8 18.4-18.4 27.5-2 1.7-2.6 4.2-4.6 5.9z"/><path fill="#9d7a51" stroke="none" d="M288 254.3c.2-.4.5-.6.6-.6.2.1.2.3.1.7l-1.1 1.2.4-1.3z"/><path fill="none" d="M287.6 255.6c1.7-4.8 1.6-10.2 2.6-15.2 2-10.5 5-13.9 12.6-21 2.4-2.2 4.9-3.8 7.5-5.8.4 3 .6 5.6.3 8.6-1.5 14.9-7.8 18.4-18.4 27.5-2 1.7-2.6 4.2-4.6 5.9z"/><path stroke="none" d="m288.2 256.1 1-2.6c.6-1.5.4.4.4.4l-.3 1.6-1 .6z"/><path fill="#028a66" stroke="none" d="m282 279-.7 2.5c-.5-3.3-1.8-4.7-4.2-6.9-10.1-9.2-14.5-20-10.2-32.7 1.5-4.4 3-6.9 6-10.3 2 3.4 3 5.4 4.4 9.1a44.7 44.7 0 0 1 3.5 25.5c-.5 3.8-2.3 8.4.2 11.8.3.3.6.8 1 1z"/><path fill="none" d="m282 279-.7 2.5c-.5-3.3-1.8-4.7-4.2-6.9-10.1-9.2-14.5-20-10.2-32.7 1.5-4.4 3-6.9 6-10.3 2 3.4 3 5.4 4.4 9.1a44.7 44.7 0 0 1 3.5 25.5c-.5 3.8-2.3 8.4.2 11.8.3.3.6.8 1 1z"/><path fill="#9d7a51" stroke="none" d="M281.8 284.5s.2-2.5-.2-4l-.7-1.8s1.3.6 1.6.5c.2 0-.7 5.3-.7 5.3zm4.1-24.2c-.6.3-2.4-2.3-2.6-4-.2-1.6-.9-1-.8.4.2 2.4 3 5 2.6 6.5.6-1.3.8-2.3.8-2.9z"/><path fill="none" stroke-width=".777" d="M286 260.3c-.7.3-2.5-2.3-2.7-4-.2-1.6-.9-1-.8.4.2 2.4 2.7 4.5 2.3 6"/><circle cx="281.443" cy="253.512" r="4.416" fill="#cb8500" stroke="none"/><path fill="#ffb81c" stroke="none" d="M281.7 253c-1.2-.8-1.7-2-1.2-2.9.6-.7 2-.7 3.2.1 1.2.9 1.7 2.2 1.2 3s-2 .7-3.2-.1z"/><circle cx="281.402" cy="253.639" r="4.607" fill="none" stroke-width="1.315"/><circle cx="303.963" cy="344.419" r="4.572" fill="#cb8500" stroke="none"/><path fill="#ffb81c" stroke="none" d="M303.4 344c-1-1.4-1-3 0-3.7.9-.7 2.4-.1 3.4 1.2 1 1.4 1 3 0 3.7-.8.7-2.4.1-3.4-1.2z"/><circle cx="303.963" cy="344.419" r="4.805" fill="none" stroke-width="1.4"/><path fill="none" d="M406.8 432.6s0-1.4 1.7-1.8c1.5-.4 2 .9 2 .9m7.3 15.6c-3 .6-4.8-3.1-3.8-4 .7-.6 2.3-.5 3.5 0 2.2 1.1 1.6 3.7.3 4z"/><path fill="#9d7a51" stroke="none" d="M417.8 447.3c-2.5.6-4.4-2.7-3.8-3.4.6-.7 1.9-.7 3-.1 2.2 1 2.1 3.2.8 3.5z"/><path fill="none" d="M417.8 447.3c-2.5.6-4.4-2.7-3.8-3.4.6-.7 1.9-.7 3-.1 2.2 1 2.1 3.2.8 3.5z"/><path stroke-width=".45" d="M287.4 256.2c3.2-9.2 5-15.6 10.1-24.6 3.6-6 10.5-14.7 10.5-14.7s-6.5 8.9-10 15c-4.7 8.7-5.8 12.4-9.6 23.5l-1 .8zm-14.9-20.4s-1.1 14.4.7 23.3c1.6 8 7.3 19.6 7.3 19.6s.3.3-1.3-4c-1.7-4.5-3.9-9.4-5.2-15.6-2-8.9-1.5-23.3-1.5-23.3zm-13.4 37.4s1.9 5 3.5 8a45.5 45.5 0 0 0 16 17.7l.2-.7a50.3 50.3 0 0 1-15.5-17c-1.9-3-4.2-8-4.2-8zm27.4 3.3s9.1-8.4 13.8-15c4.2-5.9 9.1-16.2 9.1-16.2s-4.5 10.5-8.5 16.3a121.5 121.5 0 0 1-13.2 15h-1.2zm9 66.3c1.7-4.2 4.3-10 6.3-16.6 2.4-8.4 3.9-12.5 4.2-22-.2 9.5-1.2 12.8-3.2 20.7-1.7 6.7-4 12.6-5.8 16.8l-1.5 1zm-5.3-42.1s7-6 10-11.5c4-7 4.8-12.8 4.8-12.8s-.1 5.8-4.2 12.9c-3 5.4-10.3 12.3-10.3 12.3l-.3-1zm-7.8 34.2s-6-3.8-9.2-6.5c-12.7-10.7-20.6-25-20.6-25s7.2 15.1 20.1 25.6c3.4 2.8 9.7 6.7 9.7 6.7v-.8z"/><path fill="none" d="M283.2 336.4s-1.1-.5-.5-1.6"/><path stroke-width=".45" d="M328.6 380c-5.5-3.5-13.4-8.7-20.5-16-2.4-2.5-5.9-6.7-5.9-6.7s2.8 4.4 5.1 6.8c6.4 6.6 15 12.8 20.6 16.3l.7-.4zm19.4 6.7s-10.5-7.5-15.3-14.1a44.7 44.7 0 0 1-5.5-9.8c2 4 3.5 6.2 6.3 9.8 4.7 6 14.5 13.2 14.5 13.2v.9zm-52 13.5c15.4-2.1 21.4-11.2 34.6-13.2-1.4 0-1.2-.5-2.4-.2-11.6 2.4-18.7 11.2-32.3 13.4z"/><circle cx="314.799" cy="382.209" r="4.572" fill="#cb8500" stroke="none"/><path fill="#ffb81c" stroke="none" d="m319.3 381.3-.2.5c-.7 1.1-2.5 1.3-4 .4-1.7-1-2.4-2.6-1.8-3.8.2-.3.5-.5.9-.7a4.6 4.6 0 0 1 5 3.6z"/><circle cx="314.799" cy="382.209" r="4.805" fill="none" stroke-width="1.399"/><path fill="#9d7a51" stroke="none" d="m330.8 384.3.7.6c.3.3.4.6.2.9 0 0 0 .2.4.5.5.3 1 .3 1.7.4a16 16 0 0 1 3.5.9l-3.5-1.7-3-1.6z"/><path stroke-width=".45" d="M297.8 357.5s-8.6-2.2-19.5-6.3c-10.9-4-18.2-10.8-18.2-10.8s7.3 6.2 18.2 10.2c11 4 19.5 6 19.5 6v1z"/><circle cx="334.687" cy="394.974" r="4.882" fill="#cb8500" stroke-width="1.244"/><path fill="#ffb81c" stroke="none" d="M338.2 398c-1.5.5-3.4-.4-4.5-2.3-1.2-2-1-4.4.5-5.2h.1a4.6 4.6 0 0 1 3.9 7.5z"/><circle cx="334.683" cy="394.974" r="4.572" fill="none"/><path fill="#9d7a51" stroke="none" d="m289.6 332.6 1 2.5c.2.8.8 1.9.8 1.9s-1.2.2-1.2 0l-.8-4.4h.2z"/><path fill="#028a66" stroke="none" d="M289 333.5c-1.6-2.6-5.2-5.4-7.1-7.4a22.6 22.6 0 0 1-6.4-12.5c-1.8-11.6 1.6-19.3 10-27.1.5 8 5.2 14.8 6.1 22.9 1.4 11.6-6 13.8-.8 25.1l-1.8-1z"/><path fill="#9d7a51" stroke="none" d="m287.9 331.2.2 1 .9 1.3 1.5.8-.8-2.6-1.8-.5z"/><path fill="none" d="M289 333.5c-1.6-2.6-5.2-5.4-7.1-7.4a22.6 22.6 0 0 1-6.4-12.5c-1.8-11.6 1.6-19.3 10-27.1.5 8 5.2 14.8 6.1 22.9 1.4 11.6-6 13.8-.8 25.1"/><path stroke-width=".45" d="M289 331c-3.4-5-4-7.4-5.4-12.6-2.7-9.8-2.7-21.7-.2-26-2.5 4.3-3 16.1-.6 26 1.4 5.5 2.4 8.4 5.6 13.5l.6-.8z"/><path fill="none" d="M288.6 332.9c-.8-1 .2-2.5 1.2-1.2"/></g><g fill="#0a1a1d" stroke="#0a1a1d" stroke-linecap="round" stroke-linejoin="round" stroke-width=".933"><path stroke-width=".777" d="M514.7 257.7a.6.6 0 0 1 0-.3s.3-.4.6-1.1c.3-.8.6-1.8.6-2.9l1.7.4c-1.4 5-1.4 6.7-1.4 6.7 0 .4-.5.4-.6 0l-1-2.8z"/><path d="M519.1 275.3c1.3-.9 1.8-3.1 1.9-4.5.1-2.7-2-5-2.2-7.4 0-1.5 1.3-1.7 1.6-2.9.2-1-4-4.8-2.9-7.8.8-2.1 2.5-1.1 3.2-3.3.7-2.4-1.5-5.7 1.3-7.3 1.3-.8 3.2.3 3.8-1.7.6-2.1.1-6.3 3.2-6.6 4-.4 4.6 7.8 5.3 8.4.8.6 1.8-.5 2.9 0 3 1-.2 6.5-1.2 8.3 7.5.3.6 5-.5 7 .3.8 2.2 1 2.5 2.2.2.8-.3 1.5-.9 2-1.6 1.4-4.1 2-6 3.2l-.2.1c0 .7 1.8 2.7-.7 3.6-4.8 1.5-7.8 2.6-9.7 7.4-.5 1.3-.6 5.3-.7 4.8l-.7-5.5z"/><path fill="#028a66" d="m519.8 279-.8-3.6c.2 0 .4-.3.6-.4 1-1 1.4-3.5 1.5-4.8.2-2.9-1.9-4.5-2-6.8 0-1.2 1.3-1.6 1.6-2.8.2-1.5-3.8-5-2.7-7.8.7-1.8 2.4-.9 3.1-3.3.6-2.1-1.2-6 1.1-7.2 1.4-.8 3.4.5 4-2 .6-1.8.2-5 2.8-5.3 3.6-.3 4.1 6.8 5 7.6 1 .7 1.9-.3 2.9.1 1.5.6 1 2.6.8 3.8-.4 1.4-1.1 2.6-1.7 3.8 0 .3 0 .5.2.6 1 .4 1.8.3 2 1.5.5 1.7-2 3.5-2.6 4.8-.5 1 1.3 1.3 1.5 2.7.3 1.9-6.2 4-6.6 5-.1 1.2 1.6 2.5-.5 3.2-5 1.7-10.2 5-10.2 11z"/><path stroke-width=".45" d="M519.4 275.9s6.5-11.7 8.4-20c1.3-5.6 1.9-14.9 1.9-14.9s-.3 9.2-1.4 15c-1.7 8.7-8.5 21-8.5 21l-.4-1.1z"/><path stroke-width=".777" d="M519.6 286.9a.6.6 0 0 1 0-.3s1.4-1.3 2.1-2.2a3.1 3.1 0 0 0 .8-1.6c0-.2.2-.3.4-.2l2.1.7c.3 0 .4.4.1.5 0 0-1.7 1.2-2.3 2a9.2 9.2 0 0 0-2.2 3.7c0 .4-.5.4-.6 0l-.4-2.6z"/><path fill="#9d7a51" stroke-width=".777" d="M520.3 289.4c.6-1.6 1-2.3 2.3-3.9.6-.7 2.3-2 2.3-2l-2.1-.6s-.2 1-.8 1.7l-2 2.2.3 2.6z"/><path d="M511.7 247.3s2.7 5.5 5 13.8c4.9 17.3 5.5 39.7 3.4 52-6.4 37.9-40.6 73.3-68.3 78.8a80.5 80.5 0 0 0-46.6 25.2c-7.5 8.8-10.4 14-17.3 28-2.1 4.2-9 5-6-1a169 169 0 0 1 18.3-27.6c10.2-11.5 25-22.9 49.8-27.9 28.5-5.7 61.4-41 67.8-78.9 2.1-12.3 1.5-39.2-5.5-56.4l-.6-6"/><path stroke-width=".846" d="M497.3 240.3s-8-.3-4.2-6.4c-3.7-1.8-8.1-5-3.4-7.8-.2-.9-3-1.8-2.8-4 .1-1.2 1.7-1.8 1.8-2.3-.5-1-4.2-5.7-2.9-7.1 2-2.2 6.2.4 8.1 1.6.5-.3 1.2-1 1.7-1.2 2.8-1.9 3 2.6 3.7 4 .4.7 2.6-1 4-.3 2.7 1.4 1.5 4.7 2.2 7l2.2-.7c4.2-.3 2 7.1 1.8 9.4 6.6-1 1.5 6 1.9 11.8 0 1.6-.4 5.2-1.7 3.8-4-4.3-14.9-3.2-12.4-7.8z"/><path stroke-width=".977" d="M496.3 264.5c-1.4 0-4.5-.5-5.2-1.9-1-2.2 1.6-3 1.5-3-1-1.3-5-2-5-3.7 0-1.1 1.9-2 1.5-3-.4-1.5-3.2-3.7-2.1-5.3 1.3-2 4 .7 5.3.7.7 0 1.5-1.4 2.7-1.4 1.8 0 2.9 3.4 3.6 3.3.7-.1 1.1-1.1 1.9-1.3 2.2-.7 2.8 1.7 3.3 3.2 1 3.1 2.2-.5 3.9.2 4.2 1.8 2.4 10 3.7 11 .7.7 2 .6 2.6 1.4 1.2 1.8-.4 5.5.5 8.7.3 1.3 4.4 5.1 4.4 5.1l.6 3.6c-1.9-3.5-2.3-4.3-5.6-6.9-3.2-2.4-8-.5-9.1-1.7-1.2-1.5.2-2.8-.4-3.4-.3-.2-4 .2-4.6.1-2.6-.2-5-2.7-3.5-5.7z"/><path fill="#028a66" stroke-width=".977" d="m518.5 278.2.4 2.4c-6.8-9.7-12.3-5.9-13.8-7.5-1-1.2.3-2-.6-3-1-1-6.6 1.1-8.3-3.3-.4-1 .9-2.4.2-2.6-1.4-.2-3.3-.2-4.3-1.5-.5-.6-.8-1.3-.3-1.9l.9-1c.9-1.2-4.5-2.2-4.5-4.2 0-1.1 1.4-1.5.9-2.9-.5-1.2-2.1-3.2-1.3-4.5 1-1.6 3.3.4 4.6.5.6.1 1.6-1.3 2.7-1.4 1.6 0 2.3 3 3.5 2.9 1.2-.1 2.6-2 4-.4.9 1.2.8 4.5 3 3.5.5-.2 1.3-.8 1.9-.6 3.4 1.5 2.5 7 3.4 10 .5 1.6 2.1 1.3 2.7 2.3.3.4.5 1 .6 1.6l-.1 1.4c-.3 2-.1 3.6.4 5.5.4 1.5 2.5 4.3 4 4.7z"/><path d="m520 307.8.4-.2c1.2 0 2-2.5 2.4-3.5 1.5-4-1.2-10.4 3.4-10.4.2-1.7.5-5.7 2-6.7 1-.8 2.1.2 3.2-.1.7-1.6 1-4.5 3.3-4.9.7-.1 2.1 1 2.3.9.6-.3 1.3-3.4 3.1-3.9 1-.3 2 .8 2.5.6.6-.4 1.2-1 1.8-1.7 2.2-2.4 5-2.4 5 .8 0 1.2-.8 2.8-1.2 3.9-.1.3 1.5 1 1.7 1.5.8 1.6-2 3.4-2.7 4.6 0 .2 1.5.5 1.8.8 1.8 2.6-3.6 5.5-5 7.1-.5.7 1.3 2 1 3.2-1 4.4-7.8 2.8-9.3 3.5-.5.2-.7 2.6-1.1 3.2-2 2.6-9.6-.6-11.3 1-1.6 1.5-2 4-3 5.9-.3.3-.7.2-.7-.2l.5-5.4z"/><path fill="#028a66" d="M520.5 308c1.4 0 2.3-2.6 2.7-3.7.6-1.5.9-3 1-4.5 0-2.2-1.6-6.2 1.9-5.6 0 0 .7-5.3 2.2-6.5 1-.8 2.8-.4 3.2-.7 1-.7.6-4 2.8-4.4.8-.1 2.3.7 3 .4.8-.4 1-2.8 2.6-3.2 1-.3 2.2.8 2.9.4 1.3-.9 2.3-3.5 4.2-3 2 .6 1.3 3.8.8 5.2-.4.9.7 1.2 1 2 .8 1.2-1.6 3.3-1.9 4.4 0 .5 1 1 1.2 1.3 1.6 1.6-2.5 4.6-3.5 5.5-.4.3-1 .9-1.1 1.3-.1 1 1 1.6.7 2.8-1 3.9-6.4 2.7-8.5 3.4-.9.3-1 2-1.5 2.8-1.7 2.4-9.2 0-11.2 2-1.2 1-2.2 2.9-2.8 4.4l.3-4.3z"/><path stroke-width=".45" d="M521.7 307c.2 0 9-7 14-12.5 4-4.4 9.4-12 9.4-12s-5.3 7.8-9.3 12.4c-5 5.7-13.9 13.5-14.1 13.5-.3 0-.3-1.3 0-1.4z"/><path d="M523.7 284.4c-2-1.2-1.8-7.6 1.3-10.6 2.5-2.4 9.7 4.8 7.5 7.8-1.3 1.7-6.6 4.1-8.8 2.8z"/><path d="M532.5 280.5c-1.3 1-4.3-.3-5.8-1.8-1.4-1.4-2.2-3.5-1.4-4.5 1.6-2 6.2-4.7 8.4-3 2.2 2 0 8.4-1.2 9.3z"/><path fill="#9d7a51" d="M532 281.4c-1 1.5-6.2 3.6-8 2.5-1.7-1-1.7-6.9 1.3-9.7 1.9-1.8 8.9 4.3 6.8 7.2z"/><path fill="#cb8500" stroke-width="1.09" d="M533.2 271.8c1.9 1.5.1 7.5-1 8.4-1 .7-3.6-.3-5.2-1.8-1.4-1.4-2-3.4-1.5-4 1.7-2 6-4.1 7.7-2.6z"/><path fill="#ffb81c" stroke="none" d="M531.9 271.8c-.5.6-.9 1.6-.9 2.6 0 1.7.9 3.1 2 3.1l.3-1.4a9 9 0 0 0 .2-2.4c-.1-.7-.3-1.2-.6-1.5l-1-.4z"/><path stroke-width=".863" d="M493.8 286.8c-.6-1.8-3.4-3-3.7-5.2-.1-1 1-2.6.9-3-.5-1.5-3.1-3.5-1.8-5.4 1.7-2.5 4.2 0 6.2.6.4 0 .5-1.2 1.3-1.4 3-.8 5.8 4.2 6.6 4.5 2.4 1 4.3-3.3 5.6 6 1-.2 2.5-.5 3.1.6 2.6 4.4 1 13.9 6.2 16.4l.2.4c0 .3-.3 3.1-1 2.2-1.3-1.6-2.3-3.8-4.6-4.2-2.4-.4-12.8 3.4-13-1.4-.1-.5.6-1.3.4-1.8-.6-1.3-6.9-.9-7.5-4.4-.3-1.4.7-2.6 1-3.9z"/><path fill="#028a66" stroke-width=".863" d="M517.6 302c-3.9-6-5.6-3.8-11.4-3.3-1.3 0-5.8.3-5.7-2 0-.6.5-.8.1-1.6-.8-1.6-6-1.3-6.9-4.3-.4-1.6.5-3.7.3-4.3-.8-2-4-3.9-3-6.5 0-.3.3-.6.3-1 .2-1.1-2.1-3.8-1-5.4 1.1-2 3.2-.5 4.9.3 1.1.5.8-.5 1.6-.8 1.3-.4 3 .9 3.8 1.7.5.5 2.1 2.4 2.5 2.5 1 .5 2.6 0 3.6.4 1 .3 1.7 4.4 1.8 5.5l.2.1c1-.2 2.2-.2 2.8.7 2.4 4 1.2 13.4 6.4 16.3l-.3 1.6z"/><path stroke-width=".45" d="M517.3 301.7s-7-11.5-13-17.5c-3.7-3.8-10.6-8.8-10.6-8.8s7 5.2 10.7 9.3c5.4 5.8 11.5 17 11.5 17h1.4z"/><path d="m509.9 319.3 1.4.1c3 .9-1.4 9.7-1.6 11.6 0 .6.3 2.2.2 2.3l-.6 3.8c-.1.4 0-3.7-.6-4.8-1-1.8-4.4-.8-6-1-3-.5-.7-3-2-3.4-2-.9-6.3.3-6.8-2.7-.1-1.2.6-2.4.5-3.4-1.4-1.6-5.2-2-4.8-5 .2-1 1.7-2.1 1.6-2.8 0-.8-3.1-3-2.4-4.7.5-1 1.4-1 1.4-1.6.1-.6-2.5-4.5-.3-5.6 2.6-1.3 4.8 1.7 6.7 1.8 1 .1 1.8-1.5 3.2-1.1 1.6.3 1.7 2.3 2.4 3.5.7 0 1.4-.7 2.1-.8 3.2-.3 2.7 4.8 3.6 6.6 0 .2 1-.4 1.4-.3.7.3 1 1 1 1.7.3 2-.7 4-.4 5.8zM530 327c.6 6-7.5 0-12 2.4-1.4.8-4.5 3.2-4.3 2.6l1.1-2.9c.4-.3 1.6-.3 2-.5a9 9 0 0 0 3.2-3.6c1.3-2.4.4-5 1.2-6.7 1.1-2.6 3-.2 3.7-.8 1.5-1 1.7-6.3 5.2-6.4 1 0 1 .2 1.6.5.7-1 1-2.4 2.4-2.8 1-.3 1.7.6 2.7.6.6-.5 3.3-5 5.4-4.5 2.5.6 1 5 .8 6.5.3.3.6.3 1 .9 1.7 2.2-.9 4.6-1.8 6.4.2.5 1 .5 1 1.2.7 2.7-4.5 3-5 3.8 0 .2.3.5.3 1-.3 3.4-8 2.5-8.5 2.3zm-52.5 19.9c.1-1.2-2.3-3-1.2-4.5.8-1.3 2.6-.6 3.4-1.3.6-2-.4-4.7 2.4-5.3 1.4-.4 2.2 1 2.6 2.2.2.4.8 3 1 3 .6.2 2-.8 2.7-.7 2 .3.4 3.8 1 4.8.4.8 1.4.2 2 .4 2 .7.5 3.9.5 5.2 0 .9 1.4 1.1 1.5 2.6.2 2.5-2 2.8-3.2 4.4-.1.3-.2.4 0 .6 2.1 2.6 1 3.8-1.4 5.5-2.8 2-7 3.3-5.4 7.5 0 0-1.4 2.9-1.6 2-.2-1.4.5-2.9.1-4.4-.4-1.6-5.4-3.7-5.6-5.5-.1-1.2 1.3-1.4 1.4-2.5.2-1.3-4.3-2.4-3.7-5 .2-1.3 1.7-1.7 2.3-2.8 0-1-5-4.8-.7-5.8.6-.1 1.4 0 1.9-.4z"/><path fill="#028a66" d="M481.8 373c.1-1.3.3-3 0-4.2-.5-1.7-4.3-4-4.5-5.4-.1-1 .6-1.2.8-2.5.2-1.6-3.8-2.6-3.3-4.8.2-1.4 2-2 1.8-3.3-.1-.7-2.1-2.3-1.7-4 .4-1.5 1.9-1 2.8-1.6 1-.8-2-3.2-1-4.6.7-1.1 2.7-.6 3.3-1.4.5-.8-.5-4.3 2.3-5 2.1-.4 2.6 4.3 3.5 5 .9.6 1.3-.5 2.7-.4 1.3.2.3 3.5.8 4.5.6 1.1 1.5.2 2.5.6 1.5.5 0 3.7 0 4.8 0 1.2 1.2 1.2 1.3 2.6.2 2.2-2 2.8-3 4.2-.4.4-.4.7 0 1 2 2.3.5 3.6-1.4 5-3.1 2.2-6.7 3.4-5.2 7.9l-1.7 1.5z"/><path d="M531 337c1.6-.3 3.7-1.8 5.1-.6 2.8 2.2-2 6.1-3 8.2 0 .7 1.6 1 1.5 2.5-.1 2.7-3.7 2.2-5.4 3.1-.2.5.6 1 .6 1.4 0 3.8-5.8 2.4-8 3.1-.7.2.5 2.3-2 3.2-1 .4-2.6 0-3.7-.2-1.3-.3-2.7-.5-4-.5l-1.7.2c-.3 0-.5-.2-.4-.4l6.3-18.6c.2-.4 3 .6 3.5.6.7 0 1.4-1.4 1.8-1.8 1.7-1.5 2.5.6 3.8.6 1 0 3.9-5.6 5.7-.7z"/><path stroke-width=".777" d="M499.8 340c0-.7-1.6 1.7-1.6 1.7l1.9 1.8 2.5 2 .2-1.3s-2.8-2-3-4.1z"/><path d="M498.2 332.5c.4.6.1 1.4-.2 2-.3.7-.5 1.1-1 1.7-1.4 2-4.6 3.6-6 2.6-1.3-.9-4-8.8-1.9-10.1 2-1.3 7.2 1.2 9 3.8z"/><path d="M490.6 336a10 10 0 0 1 2.4-2.3c1.3-1 4.5-2.7 5.9-1.3 1.9 1.8 2.8 7.2.6 9.1-2.9 2.5-7.5-.4-9.3-2.8-.6-.9-.1-1.9.4-2.7z"/><path fill="#9d7a51" d="M493.3 334.2c2-1.5 4.2-2.3 5-1.4 2.2 2.4 2.3 7 .8 8.2-1.6 1.4-5.2 1.3-8.4-2.7-.7-.9.6-2.7 2.6-4.1z"/><path fill="#cb8500" stroke-width="1.09" d="M497.6 332.3c1.1 1.9-4.6 7.3-6.6 6-1.3-.9-3.1-7.7-1.8-8.8 1.9-1.7 7.5 1 8.4 2.8z"/><path fill="#ffb81c" stroke="none" d="M490.6 329.5c-.4 0-.8.2-1 .4l-.1.2c.8.4 2.1.7 3.6 1.4 2 .9 3.4 2 4 1.7v-.7c0-.3-.6-.7-1.2-1.2a12.1 12.1 0 0 0-2.3-1.2c-.9-.3-1.7-.6-2.5-.6a3.8 3.8 0 0 0-.5 0z"/><path fill="#036a4a" d="M512 357c3-.2 5.7 1 7.4.4 2.6-.9 1-2.9 2.2-3 1.3-.1 7.6.3 7.6-2.8 0-.6-.5-.8-.3-1.5s5-.5 5.1-3c.1-1.6-1.3-1.6-1.1-2.6.2-1 5.3-5.8 2.8-7.7-1.8-1.4-4.6 1-4.9.3-.4-1-.4-1.7-1.6-1.8-1.7-.1-2.7 2.5-3.7 2.5-1.1 0-1.6-1-2.8-1-1.4.1-1.6 2.4-2.9 2.4s-3.2-.7-3.2-.7l-6.3 18.6 1.7-.2z"/><path fill="none" stroke-width=".623" d="M515.1 349.6s6-2.2 9.4-4.3c3.3-1.9 8-5.7 8-5.7m-17.4 10s6-2 9.4-4c3.3-1.9 8-6 8-6"/><path stroke-width=".777" d="M477.3 379s2.3-.5 3.3-.5 1.5.4 1.5.4l1-2s-3.1.4-4 .4l-1.8 1.7z"/><path fill="none" d="M463.2 400c-1.9-2.2 4.3-8.1 6.6-6.4 1.6 1.2 3.7 6.3 2 7.8-1.8 1.7-7.2.5-8.6-1.4z"/><path stroke-width=".777" d="M460.3 392.6h-.7c-1.2-1.6-1.6-1.6-3.4-2.1-.5-.2-.6-.8 0-1l2.1-.5c.4 0 1.3.7 1.5 1 .4.2 2.5.7 1.8 1.4l-1.3 1.2z"/><path fill="none" d="M459.9 391.2c.8-1.3 6.2-1.6 9.4 1.2 2 1.7.4 4.1-1.5 5.7-1.8 1.5-4.5 2.8-5.7 1.8-3.2-2.8-3.3-7-2.2-8.7z"/><path fill="#028a66" d="M513.1 333.1s2.6-2.7 4.7-3.8c4.1-2 10.8 1.3 11.8-.6.5-1-.3-1.6.3-1.9.7-.2 8 1.2 8.2-2 0-.6-.7-1-.1-1.6.6-.6 5.2-1 4.8-3-.2-.8-1.2-1-1-1.7.3-.7 3.8-4 2.3-6-.4-.5-1.5-.4-1.4-1.1.2-2.2 1-5.7-.9-5.8-2-.2-4.2 3.8-5 4-1 .1-1.5-.8-2.5-.5-1.6.5-1.8 2.8-2.5 2.8-.6 0-.5-.6-1.6-.6-3 0-3.3 5-4.9 6.3-.9.7-1.4-.3-2.3 0-2.1.4-1.5 5.7-2.6 7.5a17.6 17.6 0 0 1-4.1 4c-.6.2-1.6.2-1.6.2l-1.6 3.8z"/><path fill="#9d7a51" stroke-width=".777" d="M455.2 390s2 .7 3.2.7l2.3-.1s-.5.1-1.1-.3L458 389l-2.8 1z"/><path fill="#9d7a51" d="M460.4 391.6c1.5-1.6 5.7-1.4 8.7 1.3 1.6 1.3.6 3.4-1.3 5-1.8 1.6-4.1 2.5-5 1.8-3-2.7-3.5-6.9-2.4-8z"/><path fill="#cb8500" stroke-width="1.09" d="M463.5 399.9c-.7-.8.4-3.2 1.9-4.5 1.3-1.2 3.4-2 3.9-1.5 1.8 2 3.6 5.3 2.2 7-1.4 1.8-6.4.8-8-1z"/><path fill="#ffb81c" stroke="none" d="M469 394.5c-1.6.3-2.4 2.3-2 4.4a5 5 0 0 0 1.2 2.3c1.3.2 2.5-.1 2.9-.6.5-.6.5-1.7 0-3-.4-1-1.2-2.2-2-3.1z"/><path fill="#9d7a51" stroke-width=".777" d="M515.8 260.5s.1-1.8 1.5-6.8a2.7 2.7 0 0 1 .9-1.4l-2.6-.3s.7.6.6 1.4c0 2.4-1.2 4.2-1.2 4.2l.8 2.9z"/><path fill="#028a66" stroke-width=".846" d="M513 255.1s-1.7-5-3.2-6.7c-1.5-2-2.6-2.4-5.4-3.3-2.5-.7-6.3-1.4-6.5-3.3-.1-2 .1-1.6-.6-1.7-2.3-.6-5-1.4-4.5-3.6.5-2.3 1.3-2.6.4-3-1.5-.8-5.2-3-4.8-4.9.5-1.9 2.1-2 1.4-3-.5-1-2.3-1.9-2.1-3.4 0-1 1.4-1.4 1.3-2.3 0-1-3.5-5-1.5-6.8 2-1.6 5.3 1.2 6.2 1.6.8.4 1.8-1.5 3-1.2 1.7.4 1.8 2.8 2.3 3.7.8 1.6 2.6-.5 4 .3 2.4 1.2 1.5 5.6 2.2 6.4.6.9 2.3-.5 3.5.2 2 1 .3 7.3.4 8.4.2 1 1.6.1 2.3.7 2.1 1.7-.4 6.6 0 10.8.1 1.5.5 3.7.5 3.7l1 7.4z"/><path d="M496.9 399.1c.7 1.2 1.9 2 2.4 3.1.8 1.7 0 3.3-2 3.2-.8 0-1.6-.7-2.4-.8-.7 0-2.6 2.5-4.4 2.4-2.5 0-3.7-3.2-5.2-4.7-1.3-.3-2.2 1.5-3.5 1.3-2.8-.5-2.7-5-3.6-6.9-.8-.6-2 .6-3.5-.5-2.4-1.6-1.1-7-3.7-8.4-2.3-1.3-7-.5-6.6-.7l2.6-1.4.9.2c4.3.9 10.2.2 14.6.2 2.2 0 1.8 1.7 2.2 2h.2c2.2.2 4.8 0 6.7 1.5 2.3 1.7.2 3.2.1 3.6h.1l.5.2 1.5.4c1.2.4 2.5 1 3.3 2 1.1 1.4-.2 2-.2 3.3z"/><path fill="#036a4a" d="M467.2 386.2c1 .6 13.8.2 15.5.2 1.9 0 1.3 1.5 1.9 2 .8.4 9.6 0 7.6 3.4l-.8 1.1v.4c1 .8 4.1.8 5.5 2.6.8 1-1.4 2.7-.5 3.4 1.8 1.2 5.8 6.9-1.4 5.2-1.7-.4-3.8 4.4-7.5 0-.5-.5-1.5-2-2-2.3-1-.7-2.3 1-3.6.8-2.4-.4-2.5-4.6-3.4-6.3-1.2-.8-2.1.2-3.5-.8-3.2-2.3.7-10-9.6-8.8l1.8-1z"/><path stroke-width=".45" d="M466.3 386.4s9.6 2 15.2 4.8c5 2.5 11.9 8.4 11.9 8.4s-6.7-6.2-11.8-9a69 69 0 0 0-14.6-4.5l-.7.3z"/><path d="M491.1 376.2c2.5 2.3-1.3 10-4.1 9.6-4.5-.8-7-6-6.2-8.1 1-2.3 7.6-4 10.3-1.5z"/><path fill="none" d="M486.6 385c-1.3-1-.8-4.2.3-6.1 1-1.8 2.6-3 3.7-2.6 3.2 1 6.3 5.2 5.1 7.8-1.2 2.5-7.8 1.8-9.1.9z"/><path fill="#9d7a51" d="M490.9 376.4c2.3 2.2-1.3 9.2-3.9 8.8-4.3-.8-5.8-5.2-5.3-7 .5-2 6.6-4.1 9.2-1.8z"/><path d="M506 381.7c-.5.6-1.4 1.6-2.3 1.6-3.8 0-3.5-3.3-5.5-5.5-.7-.2-1.2.6-2.5.3-1.8-.4-1.9-4.8-4.5-5.7-1.3-.4-5-.5-7 1.4l3.7-2.8c3.5 1.4 6.6-6 10.6-5 1.2.2 1.2 1 2.5.8 3-.2 6-2.2 9.5-1 2.1.7-.6 3.5 2 3.2 1.8-.2 4.3-.2 4.8 2 .3 1.1-.3 1.7-.2 2.5.4.3 6.8 2.5 3.4 4.2.6 1.6 3.2 2.6 1.8 4.4-1.3 1.8-4-.2-4.8.6-.3.3-.3 1.1-.6 1.4-1.1 1.5-4.1-1.4-5.4-1.7-1.3 4.3-3.6 2.3-5.6-.7z"/><path fill="#028a66" d="M491.5 372.4c2.6.8 2.7 4.9 4.2 5.3 1.6.4 1.5-.5 2.5-.2.9.2 1.8 5.4 6 4.8 1.2-.1 1.7-1.3 1.7-1.3s1.6 2.6 3.2 2.8c2.4.4 1.7-1.8 2.3-1.8 1-.2 2.8 1.9 4.6 1.9 1 0 .8-1.7 1.9-1.7 1 0 3.1 1 4-.2 1.1-1.7-1.5-3.6-1.7-4.1-.2-.6.7-.6.6-1.2-.3-2-3.7-2.4-4-3-.2-.8.5-1.6.2-2.7-.4-1.9-3.2-2-4.4-1.7-2.8.6-.3-2.4-2.3-3.2-3.5-1.5-8.6 1.3-9.9.7-.8-.3-1.2-.5-1.9-.6-3.2-.5-6 4-8 5l1 1.2z"/><path stroke-width=".45" d="M490.5 371s9.6-.6 15.3 1.4c4.9 1.7 11.3 6.9 11.3 6.9s-7-5.1-12.1-6.6c-5.6-1.7-14.9-.8-14.9-.8l.4-1zm-8.6.7s1.9-12.3 1.7-20.2c0-4.7-1-12.1-1-12.1s1.3 7.6 1.5 12.6c.3 7.3-1.4 18.7-1.4 18.7l-.8 1z"/><path d="M472.6 371.2c.2.5 2 1 1.8 3-.2 2.5-3.8 1.7-5.6 2.9-.6.4.8 2.5 0 3.5-1.3 1.8-5.8.7-6 1.2-.7.8 1.4 3-.8 4.2-3 1.7-9.5-1-13 2.1l-1.5 1.7-6.6 1.4c3-1.3 8-2.6 9-4.7.8-1.8.2-5.2.5-7.2.5-2.9 2.6-1.7 3.3-2.6.6-.8-.4-4.8 1.9-6.8 1.6-1.3 3.3-.4 4.8-1.4 1.5-1.1-.8-4.9 2.2-6 1.9-.5 3.8 1.5 4.2 1.4 1.1-.2 2.5-3.7 4.8-3.2s1.3 3.5 1.2 4.9c3.8.5 1.7 3.3-.2 5.6z"/><path fill="#028a66" d="M441.4 390.9s8.2-3.5 8.9-5.2c1-2.6-.1-6.6 1.3-7.6 1-.6 2-.3 2.5-1.2.6-.9-.2-5.2 2-7 1.5-1 2.7 0 4.4-1.2 1.8-1.3-.5-4.5 2.3-5.5 1.6-.6 3.3 1.4 4.1 1.2 1.6-.5 2.4-3.6 4.7-3.2 1.9.2 1 2.1.8 3.9 0 1 1.6.5 2 2 .4 1-1 3.3-2 4.1-.5.5 1.7 1.3 1.6 2.8-.2 2.2-4.4 2.3-5.3 2.6-1.2.5-.1 2.3-1 3.4-1.3 1.7-4.8.7-5.4 1.5-.5.7.7 2.7-.9 3.8-1.6 1.3-8 .5-9 .9a77.2 77.2 0 0 0-5.6 2.3l-5.4 2.4z"/><path stroke-width=".45" d="M450.2 386s9-6.4 13.6-12.2c2.5-3.2 5.8-8 5.8-8s-3.2 5-5.7 8.3c-4.5 6-13.5 13-13.5 13l-.2-1zm67-57.4c3.5-1.8 9.8-5 14.9-9.7 3.4-3.2 8-9 8-9s-4.5 6.1-8 9.4c-5.2 5-11.9 8.5-15.3 10.4l.5-1z"/><path fill="#036a4a" d="m510 333.3-.9 2.6c0-3.6-.1-5.4-4.4-5.1h-2c-2.2-.4-.5-1.7-1.2-2.7-.9-1.2-6.6-.1-7.1-3-.2-1.1 1-2.5.2-3.3-1.4-1.4-4.9-2.5-4.5-5 .1-1 1.5-1.7 1.3-2.6-.3-1.2-2.7-3.4-2.1-4.7.4-1.1 1.3-.8 1.4-1.8.1-1.1-1.9-4-.1-4.9 2.3-1.1 4 1.1 6 1.3 1.1 0 2-1.3 3.1-1 1.6.3 1.6 2.9 2.7 3.4.3.2 1.5-.8 2-.8 2.8-.4 2.2 5.1 3.1 6.4.4.5 1.1 0 1.6.2 1.8.5 0 6.5.6 7.3.3.3 1.2.2 1.6.3 1.5.4.4 4.2.2 5.2-.6 2-2.5 6.2-1.6 8.2z"/><path stroke-width=".45" d="M509.8 332.8s-2.7-10.9-6.6-16.8c-3.2-4.8-10.3-10.8-10.3-10.8s6.7 6 9.8 10.8a69 69 0 0 1 6.3 16.8h.8zm6-57.1s-6.5-10.6-12-16c-4.6-4.5-13-10-13-10s8 5.6 12.3 10.1a109 109 0 0 1 11.5 15.9h1.2z"/><path fill="#9d7a51" d="M513 250.5c1 2.7 2.6 6.9 3.6 10.8 4.9 18.3 5.3 39.5 3.2 51.7-6.3 37.7-40.6 72.8-68 78.3a81 81 0 0 0-47 25.5 92.4 92.4 0 0 0-11.1 15.1c-2.9 4.8-4.7 9-7.2 13.1h-.2a14 14 0 0 1-4.2.3h0l1-1.6 7.2-12.4a84.4 84.4 0 0 1 59.8-42c28.7-5.8 61.6-41.5 68-79.5 2.1-12.4 2-33.8-5.8-57l.7-2.3z"/><path stroke-width=".45" d="M511.8 248.2c-2.3-6-4-9.4-7.5-15-4.4-7-13.5-16.8-13.5-16.8s8.6 9.8 12.8 16.8a80.7 80.7 0 0 1 9 20.5l-.8-5.5z"/><path fill="#9d7a51" stroke="none" d="m513.2 254-.5-1.4c-.4-1.3-.7-3.3-.7-3.3a709 709 0 0 0 1.8 4.8h-.6z"/><path d="M514.4 317c-1.8-1.5-6.7-6-6.7-8.3 0-2.7 2.6-2.2 3.2-2.6-.1-1.1-3.9-3.9-2.4-6.3 1-1.7 3.3-1.2 4.1-1.9.7-1.7-1.8-6.2.2-8.7 1.1-1.5 2-.4 2.6-.5.1-.8 0-1.5.2-2.3.1-1.4.6-2.7 2.2-2.8 2.2-.1 3.7 2.7 4.7 4.3.3-.2 1.4-.3 1.7-.4 2.7-1.4 1.7 7 1.8 8.3.6 0 1.9-.3 2.4 0 3 1.7-2.8 10.7-3.4 12.8-.3 1 3 .2.5 3.4-1.5 1.9-3.4 3.5-5 5.3l-6.1-.3z"/><path fill="#028a66" d="M515.3 324c1.1-3 .7-5.8-1.5-7.3-2.3-1.7-5.5-5.8-5.5-8.1 0-2.8 2.8-1.1 3-2.4 0-1-3.7-3.9-2.4-6 .9-1.4 3.2-1.3 3.8-2 1-1.1-1.5-6.3.4-8.7 1-1.3 1.9 0 2.6-.4.6-.5-.4-4.4 2.1-4.6 2.5 0 4.3 4 4.7 4 .8-.3 1.7-1.2 2.6-.3.9.8.6 7.8.6 7.8s1.7-.1 2.2.2c2.2 1.4-1.8 9.3-2.9 11.5-1 1.9 1.8 2.1.4 4-2.4 3.2-7 7-7.8 11.6"/><path stroke-width=".45" d="M518 322s1.8-11.5 2.3-17.5c.4-5-.7-13.1-.7-13.1s.6 7.8.2 12.8c-.5 6-3.1 20.3-3.1 20.3l1.3-2.6z"/><path d="M492 364.4c1-2.6-1.9-10 .3-11.4 1.3-.7 2.1.7 3.3-.5 1.6-1.6-.9-7.4 2-9.3 1.7-1 3 .5 4.6-1 1-1 1.1-4.9 3.8-5.5 1.8-.5 2.7.7 4.3 1 1.3.1 6-6.3 8.8-4.7 3 1.6.3 5-.3 7.2-.3 1.2 2.2 1 2 3-.2 1.9-2.3 3.7-2.3 4.5 0 .8 2.1 1.3 2.2 2.9.2 3-4.6 3.3-6.2 4.6-.9.7 1 2.8-.1 4.8-1.3 2-6.6.6-7.5 1-.8.4 0 4-1 5.2-1.4 2-8.4 0-11 .5-3.5.6-5 1.3-7.2 3.9l4.4-6.2z"/><path fill="#028a66" d="M487.7 368.5s2.7-1.5 3.7-3c1-1.6 1-2.2 1-4.6 0-1.5-1.3-6.7.2-7.5 1.2-.7 1.8.7 3.4-.8 1.8-1.7-.9-7.7 1.7-9.3 1.6-1 3 .7 4.8-.9 1.3-1.1 1-4.8 3.5-5.4 1.5-.4 2.7.8 4.2 1 1.8.2 5.8-5.7 8.3-4.3 1.1.6 1.5 1.4 1.3 2.7-.3 1.3-1 2.4-1.3 3.7-.3 1.7 1.9 1.5 1.7 3.3-.2 1.6-2.2 3.2-2.2 4.3 0 1.1 1.8 2 2 3.4.1 2.7-5.6 2.7-6 4.3-.5 1.4.6 2.6-.5 4.3-1.2 2-5.2.2-6.8.9-1.3.5-.5 3.5-1.3 4.7-2.2 3.3-12.8-1.4-17.2 4.7l-.5-1.5z"/><path stroke-width=".45" d="M488 368.8s11.3-9.6 17.5-16.7c4.8-5.5 11.3-15 11.3-15s-6 9.6-10.7 15.1c-5.6 6.8-16 15.9-16 15.9l-2.1.7z"/><path fill="#9d7a51" stroke="none" d="m487 369 1.8-.4-1 1-.8.8V369z"/><path fill="#cb8500" stroke-width="1.09" d="M486.9 384.8c-1-.7-.7-3.7.4-5.7 1.1-1.8 2.7-2.7 3.4-2.4 2.5 1.2 5.6 5 4.6 7.2-1 2-7.2 1.7-8.4.9z"/><path fill="#ffb81c" stroke="none" d="M491.4 377.7a2 2 0 0 0-.8.5c-1 1.2-.5 3.2 1 4.7.9.7 1.9 1.2 2.7 1.2.3-.1.4-.3.5-.4.3-.8 0-2.1-1-3.4a10.7 10.7 0 0 0-2.4-2.6z"/><path d="M516.6 254.6c-2.3-.8-4-5.2-3-9 1-3.9 10.8-2.3 9.7 2.2-.8 3.6-4.7 7.5-6.7 6.8z"/><path d="M523 246.5c-.3 2.3-3.3 2.5-4.7 2.2-1.5-.3-4.3-1.9-4-3.7.7-4 4-7.2 6-6.9 2 .4 3.3 4.7 2.8 8.4z"/><path fill="#9d7a51" d="M516.8 253.8c-2-.3-3.5-4.4-2.5-8 .9-3.6 9.2-1.4 8.4 2-.8 3.5-4 6.3-5.9 6z"/><path fill="#cb8500" stroke-width="1.09" d="M520.1 238.7c1.7.3 3.4 4 2.8 7.7-.2 1.8-3 1.7-4.5 1.4-1.5-.3-4.2-1.3-4-2.8.8-4 4.2-6.5 5.7-6.3z"/><path fill="#ffb81c" stroke="none" d="M519.9 239.3a1.8 1.8 0 0 0-.3 0l.7 2.7c.3 1.5.2 3.9 1.2 3.7.7-.1 1-.6 1-1.6a9.5 9.5 0 0 0-.7-2.6c-.5-1.4-1.3-2.2-1.8-2.2a.8.8 0 0 0-.1 0z"/><path fill="none" d="M382.3 446.7c-.8-1.1 1-4.6 4.6-4.2 1.7.2.9 2.5-1.1 4-1.4 1-2.8 1.3-3.5.2z"/><path fill="#9d7a51" d="M382.3 446.7c-.8-1.1.3-3.6 4-3.7 1.4 0 1.5 2-.5 3.4-1.4 1-2.8 1.4-3.5.3z"/><path fill="none" d="M395 431s-.2-1.4-1.8-2c-1.3-.4-2.2.7-2.2.7m2.4 3.2s0-1.4-1.7-1.8c-1.5-.4-2.1 1-2.1 1"/></g><g fill="#0a1a1d"><path fill="#faf6f5" d="M401.7 427.2c7.7-.1 13.5-.9 20-2.2-1.5 5.3-4.6 15.3 7.8 15.3 9 0 18.6-5.4 27.9-.6 20.3 10.4 35.6 3 48-11 0 0-9.1 2-18.6 1.6 0 0 7.1-6 7.8-14a28.7 28.7 0 0 1-18.6 5.4c-6.2 0-10.2-3.8-18.3-5l1.7-9.7c.8-4.3-.4-7.8-6.7-8.5-13.6-1.6-26.8 6.3-50.8 6.6-24.3-.3-41-8.2-54.5-6.6-6.3.7-7.5 4.2-6.7 8.5l1.7 9.6c-8.1 1.3-12 5-18.3 5-6.2 0-12.4-.6-18.6-5.3.7 8 7.8 14 7.8 14-9.5.4-18.6-1.6-18.6-1.6 12.4 14 27.7 21.4 48 11 9.3-4.8 18.9.6 27.9.6 12.4 0 9.3-10 7.7-15.3 7 1.4 14.9 2.2 23.4 2.2z"/><path d="M337.7 427.3c-.9.4-1.4-.2-.3-.7.7-.4 3.8-1.7 6-2.1a.2.2 0 0 1 .2 0l.1.7a30.8 30.8 0 0 0-6 2.1zm.5 3c-.9.4-1.3-.2-.3-.7a30 30 0 0 1 6.4-2.4l.2.6-.1.3c-2.1.3-5.4 1.8-6.2 2.1zm32.3 5.3c-3.8-.4-8.4-1.5-13.2-2.2a30 30 0 0 0-18.6 2.5s-.3 0-.3-.2c0-.1 0-.2.2-.3l.4-.3c6-3 12.1-3.6 18.4-2.7 4.8.6 9.4 1.6 13.3 2 2.1.3 4.6-.1 5.4-1.4.2-.4.9.4.7.7-1.3 2-4.2 2.2-6.3 2zm-33.6-11a1.4 1.4 0 0 1-.4.1c-.1 0-.3 0-.3-.2l.1-.3.4-.2c2.3-1.1 2.9-1.3 6.3-2.2.3 0 .5.1.6.3a.4.4 0 0 1-.4.5c-2.7.7-4 1.1-6.3 2zm-.5-3a1 1 0 0 1-.4 0h-.3v-.4a.9.9 0 0 1 .4-.2c2.4-1 3.3-1.4 6.6-2 .3 0 .5 0 .6.3 0 .2 0 .4-.4.5a29 29 0 0 0-6.5 1.8zm34.1 9c-2.6-.3-5.6-.9-8.8-1.4a.5.5 0 0 1-.4-.6c0-.2.3-.4.6-.4 3.1.5 6.1 1.1 8.8 1.4a6.3 6.3 0 0 0 2.9-.4.5.5 0 0 1 .6.3.5.5 0 0 1-.3.7 7.2 7.2 0 0 1-3.4.4zm-13.8 5.3a29.5 29.5 0 0 0-17.4 2.7l-.4-.1a.3.3 0 0 1 0-.3.5.5 0 0 1 .1-.1l.5-.4c7.4-3.6 13-3.3 17.5-2.8 4.7.5 8.9 1.5 13.4 1.9.4 0 .5.4.6.7 0 .3.2.8-1.2.6-4.4-.5-8.5-1.5-13.1-2.2zm13.8-3c-5-.5-11.6-2.3-18-2.5-.3 0-.5-.3-.5-.5 0-.3.2-.5.5-.5 6.4.3 13.1 1.8 18.1 2.3 1.9.2 4-.1 4.9-1 .3-.3 1 .7.8 1-1.3 1.1-3.8 1.4-5.8 1.2zm-31.7 0c-1 .5-1.4 0-.4-.6.8-.4 5.4-2.6 7.8-2.7a.6.6 0 0 1 .6.4c.1.3 0 .5-.4.6a33 33 0 0 0-7.6 2.4zm123.6-5.6c.9.4 1.4-.2.3-.7-.7-.3-3.8-1.7-6-2.1a.2.2 0 0 0-.2 0l-.1.7a30.8 30.8 0 0 1 6 2.1zm-.5 3c.9.4 1.3-.2.3-.7a30 30 0 0 0-6.4-2.4l-.2.6.1.3c2.1.3 5.4 1.8 6.2 2.1zm-32.3 5.3c3.8-.4 8.4-1.5 13.2-2.2a30 30 0 0 1 18.6 2.5s.3 0 .3-.2c0-.1 0-.2-.2-.3a1.7 1.7 0 0 0-.4-.3c-6-3-12.1-3.6-18.4-2.7-4.8.6-9.4 1.6-13.3 2-2.1.3-4.6-.1-5.4-1.4-.3-.4-.9.4-.7.7 1.3 2 4.2 2.2 6.3 2zm33.6-11 .4.1c.1 0 .3 0 .3-.2l-.1-.3a1.2 1.2 0 0 0-.4-.2c-2.3-1.1-2.9-1.3-6.3-2.2-.3 0-.5.1-.6.3a.4.4 0 0 0 .4.6c2.7.6 4 1 6.3 1.9zm.5-3h.7v-.4a.9.9 0 0 0-.4-.2c-2.4-1-3.3-1.4-6.6-2a.5.5 0 0 0-.6.3c0 .2 0 .4.3.5 3.3.6 4.4 1 6.6 1.8zm-34.1 9c2.6-.3 5.6-.9 8.8-1.4.3 0 .4-.3.4-.6a.5.5 0 0 0-.6-.4c-3.2.5-6.1 1.1-8.8 1.4a6.3 6.3 0 0 1-2.9-.4.5.5 0 0 0-.6.3.5.5 0 0 0 .3.7c1 .4 2.1.5 3.4.4zm13.8 5.3a29.5 29.5 0 0 1 17.4 2.7l.4-.1a.3.3 0 0 0 0-.3.5.5 0 0 0-.1-.1 2 2 0 0 0-.5-.4c-7.4-3.6-13-3.3-17.5-2.8-4.7.5-8.9 1.5-13.4 1.9-.4 0-.5.4-.6.7 0 .3-.2.8 1.2.6 4.4-.5 8.5-1.5 13.1-2.2zm-13.8-3c5-.5 11.6-2.3 18-2.5.3 0 .5-.3.5-.5 0-.3-.2-.5-.5-.5-6.4.3-13.1 1.8-18.1 2.3-1.9.2-4-.1-4.9-1-.3-.3-1 .7-.8 1 1.3 1.1 3.8 1.4 5.8 1.2zm31.7 0c1 .5 1.4 0 .4-.6-.8-.4-5.4-2.6-7.8-2.7a.6.6 0 0 0-.6.4c-.1.3 0 .5.4.6 2.2.1 6.8 2 7.6 2.4z"/><g stroke="#0a1a1d" stroke-linecap="round" stroke-linejoin="round"><path stroke-width=".933" d="M400 427.3c-10.3 0-17-1.6-26.3-3.2-21.5-4-26.2-1-26.2 2.8 0 1.2 1.1 1.5 1.9 1.2.4-.2.7-1 .7-1-.7 0-1.2-.2-1-1.2.4-2.7 6-4 24.6-.9 9.3 1.5 16 2.8 26.3 2.8v-.5zm0 0c10.4 0 17.2-1.6 26.4-3.2 21.5-4 26.2-1 26.2 2.8 0 1.2-1.1 1.5-2 1.2-.3-.2-.6-1-.6-1 .7 0 1.2-.2 1-1.2-.4-2.7-6-4-24.6-.9-9.3 1.5-16 2.8-26.4 2.8v-.5z"/><path d="M342.4 416.8c-3.4.5-6.6 1.7-9.8 3a27.9 27.9 0 0 1-26.4-2.7c.5 4 2.3 7.4 4.8 10.4l2.5 2.5c.3.4.2.6-.2.6-6 .2-11.3.2-17.2-1 13.8 15.2 27.6 19 46.5 9.8 9.9-4.8 18.1.6 28 .6 10.5 0 9.5-6.8 7.2-14.6l1.3.2c1.6 4.7 4.3 16.5-8.5 15.5-9.9-.7-17.7-5.7-27.7-1-15.3 7.3-26.3 7.2-39.6-2.7-2.7-2-7.1-5.6-9-8.4-.4-.6 0-1 .7-.8 5 1.5 12.7 1.5 16.6 1.4-3.2-3.1-6.7-9-6.6-13.2 0-.6.3-.7.8-.4 7.2 3.7 9.9 5.2 18.3 5.2 5 0 15-5.6 18-5l.3.6z"/><path stroke-width=".933" d="M457.7 416.8c3.4.5 6.6 1.7 9.8 3a27.9 27.9 0 0 0 26.4-2.7c-.5 4-2.3 7.4-4.8 10.4a64 64 0 0 1-2.5 2.5c-.3.4-.2.6.2.6 6 .2 11.3.2 17.2-1-13.8 15.2-27.6 19-46.5 9.8-9.9-4.8-18.1.6-28 .6-10.5 0-9.5-6.8-7.2-14.6l-1.3.2c-1.6 4.7-4.3 16.5 8.5 15.5 9.9-.7 17.7-5.7 27.7-1 15.3 7.3 26.3 7.2 39.6-2.7 2.7-2 7.1-5.6 9-8.4.4-.6 0-1-.7-.8-5 1.5-12.7 1.5-16.6 1.4 3.2-3.1 6.7-9 6.6-13.2 0-.6-.3-.7-.8-.4-7.2 3.7-10 5.2-18.3 5.2-5 0-15-5.6-18-5l-.3.6z"/><path d="M399.5 405.1c-11.9.1-21.8-2-30.2-3.9-6.9-1.6-14.9-3.3-22-2.4-5.1.7-7.2 3-6.3 8.2 1 6.4 2 13 3.2 19.4.7 3.7 2.7 4.2 6.1 3.6 5-1 21.2-4.5 24.8 0 3.5 4.4.1 7.6-4.7 7.7-.7 0-.5-.5-.3-.5 4.7 0 8-2.6 5-6.8-3.2-4.3-18.3-1.1-24.4.3-4 1-6.6.4-7.3-4.4-1-6.6-1.6-11.1-3.7-19.7-3.5-14.4 22.3-7.7 29.7-6 10.1 2.4 18.6 3.9 30.6 4.2 12-.3 20.5-1.8 30.6-4.2 7.4-1.7 33.2-8.4 29.7 6-2.1 8.6-2.7 13.1-3.7 19.7-.8 4.8-3.4 5.3-7.3 4.4-6.1-1.4-21.2-4.6-24.3-.3-3 4.2.2 6.8 4.9 6.8.2 0 .4.5-.3.5-4.8 0-8.2-3.3-4.7-7.6 3.6-4.6 19.7-1 24.8-.1 3.4.6 5.4 0 6.1-3.6 1.2-6.5 2.1-13 3.2-19.4 1-5.2-1.2-7.5-6.3-8.2-7.1-1-15.2.8-22 2.4-8.4 1.9-18.4 4-30.2 4h-1z"/></g><path d="m361.5 417.2-4.2-.3-1-12.8 3.2.3.6 10a70 70 0 0 1 5.5.7l.2 2.6-4.3-.5zm6.8.7-.7-12.4 3.1.5.7 12.4zm9.5-5.7 1 .2c1.7.2 1.8-.3 1.8-1 0-.8-.4-1.3-2-1.6l-.8-.1v2.5zm.1 5 1.5.2c1.8.3 2.2 0 2.2-1s-.7-1.5-2.5-1.8l-1.2-.2v2.7zm1.9 2.7-5-.9-.3-12.2 4.5.7c3.1.5 4.8 1.9 4.8 4.2 0 1-.5 1.7-1.1 2 .9.5 2 1.6 2.1 3.2 0 2.3-1.3 3.6-5 3zm11.7 1.7-4.3-.6-.1-6.1-.2-6.3 7.2.8v2.4l-4-.4v2.6l4.3.4v2.3l-4.2-.4v2.6a50.2 50.2 0 0 0 5.6.5l.1 2.5-4.4-.3zm10.4-6.4c1.7 0 2.4-.7 2.4-1.8 0-1.2-.5-1.7-2-1.7h-1.4v3.5h1zm7 6.4c-2.5 0-3.8-1.3-5.1-2.7l-1.4-1.6H401v4.4h-3l-.2-12.3 4.8-.1c2.7 0 4.7 1.2 4.8 4 0 1.3-.6 2.5-1.9 3.2l1.2 1.3c.7.7 1.4 1.1 2.8 1.5l-.6 2.3zm0-10v-2.4l11-1.5v2.5l-3.9.5.1 9.9-3.1.4-.1-9.9zm17.7-2.4a193.3 193.3 0 0 1-1.2 4c.9 0 1.8-.2 2.6-.5l-1-3.6-.4.1zm3.4 9-1.2-3.3-2 .4-2.2.3-1.3 3.8-3.2.6 3.9-10.6-1.4.3v-2.5l8.4-1.5v2.4l-1.3.2 3.6 9.3-3.3.6zm8.3-.8c-2 0-3-.3-4-.8l.8-2.3a8 8 0 0 0 3.2.5c1.5 0 2.2-.5 2.2-1.1 0-.5-.3-.8-.9-1-.6-.4-1.4-.6-2.1-1-1.6-.5-3.2-1.4-3.2-3.5 0-2.5 2.8-3.7 5-3.7 2 0 3 .3 4 .7l-.8 2.2c-1-.2-2-.4-3.2-.4-1.2 0-2 .6-2 1s.4.7 1 1l2.2.9c1.6.6 3.2 1.6 3.2 3.6-.1 2.8-2.9 3.9-5.4 3.9z"/></g></svg>