<svg xmlns="http://www.w3.org/2000/svg" xmlns:xlink="http://www.w3.org/1999/xlink" width="1200" height="720"><path fill="#012778" d="M0 0h1200v720H0Z"/><path fill="#e30631" d="M0 0h1200v360H0Z"/><path fill="#faf6f5" d="M0 0v720l536-360Z"/><path fill="#b5915f" d="M132 274h120c-5-4-6-9-1-15-4-1-6-5-5-9 3 1 8 1 8-2 7 1 15 8 18 5 4-4-6-13-33-13-2-3-2-7-1-10-6 1-11-3-11-9-5 3-10-1-10-6-5 3-11 1-12-4-4 4-10 3-13-1-3 4-9 5-13 1-1 5-7 7-12 4 0 5-5 9-10 6 0 6-5 10-11 9 1 3 1 6-1 9-22-1-35 8-30 13 1 1 5 2 14-5 1 4 6 3 9 1 3 5-1 10-5 11 5 6 4 11-1 15Z"/><path fill="#fcd80e" d="M194 243c0 3-17-9-34-4h-13c2-3 2-5 2-7 5 0 9-4 10-8 4 1 8-2 10-6 4 1 9 0 11-4 4 2 9 2 12-1 3 3 8 3 12 1 2 4 7 5 11 4 2 4 6 7 10 6 1 4 5 8 10 8 0 2 0 5 2 8-3 0-5 0-11 1-9-3-15-1-20 2l-4-4 2-2c6 1 16-4 20 0 1-12-15-5-23-7-5-4-14-2-14 4 0 5 7 7 7 9Zm-57 29c2-2 3-7 0-12 4-3 6-8 3-12l3-2c2 4 10 3 15 1 0 6 12 3 12 6 0 2-6 3-15 3-6 0-3 7 1 6s4 4 10-1c2 2 5 2 8 1 3 2 6 1 9-1 11 6 29 4 31-7 8 1 9-9 14-6s11 3 13 0l3 1c-1 4 0 9 3 11-3 5-2 8 0 12l-55 2Z"/><path fill="#e30631" d="m305 263-10-5c-14 7-26 14-39 14-17 0-49-9-64 1-15-10-47-1-64-1-13 0-25-7-39-14l-10 5c9 21 17 52 17 70 0 23-12 49-12 65 0 79 83 39 108 73 25-34 108 6 108-73 0-16-12-42-12-65 0-18 8-49 17-70Z"/><path fill="#f76230" d="m302 264-7-3c-8 4-25 13-38 13-20 0-49-9-65 1-16-10-45-1-65-1-13 0-30-9-38-13l-7 3c8 21 16 51 16 69 0 23-12 49-12 65 0 77 81 36 106 70 25-34 106 7 106-70 0-16-12-42-12-65 0-18 8-48 16-69Z"/><path fill="#0859b9" d="M274 335c0-17 4-37 11-56-11 5-21 7-30 7-20 0-45-9-63 3-18-12-43-3-63-3-9 0-19-2-30-7 7 19 11 39 11 56 0 26-12 43-12 65 0 59 72 28 94 54 22-26 94 5 94-54 0-22-12-39-12-65Z"/><g id="a"><path fill="#faf6f5" d="M176 307h17l-1-9-16 7Zm11 21h5v-12h-5Zm-10 8h16v-6h-8v-2h-5v-12h5v-2h8v-5h-16v3h-1v3h1v3h-1v3h1v3h-1v3h1v3h-1v3h1Zm-44 21h60v-19h-18l-42 18Zm41 19h10v-12h-10Zm14 11h3v-9h-3Zm-5 0h3v-9h-3Zm-5 0h3v-9h-3Zm-2 33h7v-3l-3-1v-1h3v-3l-3-1v-1h3v-3l-3-1v-1h3v-3l-3-1v-1h3v-3l-3-1v-1h13v-6h-17Zm-42-34h32v-10h6v-14h14v14h7v-17h-59v3h-1v3h1v3h-1v3h1v3h-1v3h1v3h-1v3h1Zm59 41v-5h-66v5Zm-23-7h5l-1-2v-27l1-2h-5l1 2v27Zm-23-7h9v-17h-9Zm-2 2v-2h-4v-17h4v-2h13v2h4v17h-4v2Zm-12 5h36v-31h-3v-1h-34v2h2v3h-1v3h1v3h-1v3h1v3h-1v3h1v3h-1v3h1v3h-1Zm14-41h9v-15h-9Zm-2 2v-2h-4v-15h4v-2h13v2h4v15h-4v2Zm28 6h3v-9h-3Zm-5 0h3v-9h-3Z"/><path fill="#b5915f" d="M192 481c-10 0-26-2-37-4v-7c0-2-1-3-3-3-44 0-83-25-89-71 6-1 8-3 9-10s2-16 6-27c-11 0-19-3-26-6-4 10-6 19-6 26H36c-2 0-3 1-3 3 0 51 31 95 86 109l-1 6c-2 12 52 16 74 16Z"/><path fill="#fcd80e" d="M68 392c-2 2-3-6-5-10-1-2-2-3-5-3H48c0-6 2-15 5-23 5 2 14 5 22 5-3 7-5 29-7 31Zm85 77v24c-69 0-118-45-118-112h25c0 56 40 87 93 88Zm39 42c-30 0-72-6-72-13 0-4 19-3 32-3 2 0 3-1 3-3v-13c10 2 26 4 37 4Z"/></g><use xlink:href="#a" x="-384" transform="scale(-1 1)"/><path fill="#faf6f5" d="M230 338h34v-4h-4v-4h-4v-4h-4v-24l-5-9-5 9v24h-4v4h-4v4h-4z"/><path fill="#012778" d="M135 342c2-3 3-6 3-7 2 2 3 4 10 6 1-5 1-11-3-17 3 3 7 5 12 4 0-6-3-10-4-11 4 1 5-1 4-3 1 1 5 4 9 4 0-6-2-10-5-13 3 0 7-2 8-4-5-8-16-8-20 1-1-1-2-1-3-1 6-6-6-8-5 0l-1-1c0-4-4-4-6-3 1-3-5-6-7-2-4-4-10-4-16 0 3 4 7 7 14 10-8 0-12 9-8 17 2-1 4-3 5-4 0 5 2 10 6 12l2-2c-1 4 0 9 5 14Z"/><path fill="#0f7d3a" d="m151 304-1-1c4-8 12-9 18-2-6 5-10 1-17 3Zm14 13c-4-1-13-6-13-11 0-2 3-2 6-1 5 2 7 6 7 12Zm-12-1c-2-1-3-2-4-4 1-3-1-4-3-5 2 1 3 1 5 1 3 4 9 9 2 8Zm3 11c-5 0-8-2-10-4-1-1-2-3-1-3 4 4 7 3 7 0s-2-6-5-5c3-4 9 9 9 12Zm-31-23c-6-3-10-6-13-9 7-3 12-3 17 5-2-1-5 1-4 4Zm22 36c-8-3-9-7-8-14 1 1 5 0 5-1 3 5 4 11 3 15Zm-29-20c-4-6 0-14 7-14-1 1 0 4 2 5-1 1-5 7-9 9Zm17 20c-5-4-6-17 2-18 0 1 0 2 1 3 0 7-1 10-3 15Zm-3-17c-5 10-9 2-9-5 1 4 5 1 6 0 0 1 0 2 3 5Z"/><path fill="#fcd80e" d="M142 301c-1-6 7-5 3 0-1 1-3 1-3 0Zm8 6c-1 1-4-1-5-2v-2c2-3 7 2 5 4Zm-8-2c-2-2 1-3 2-2s0 4-2 2Zm-7-3c0-1-1-3-2-3 2-2 6-2 6 1-2-1-4 0-4 2Zm6 3c-2 1-5-1-5-3 0-3 4-1 5 0 0 1-1 2 0 3Zm5 10c-1-1-2-1-3-1-1-5 4-7 5-4s-1 4-2 5Zm-15-15c-2-1-3-2-3-4 0-3 5-2 5 1 0 2-1 2-2 3Zm10 12c-2 0-2-6 1-6 1 1 2 0 2 1 0 2-2 5-3 5Zm-9-9c-2 0-1-4 1-3s1 3-1 3Zm19 18c-2 2-4-1-6-2 2-1 1-3 2-3 4 0 5 4 4 5Zm-16-13c-1 1-3 1-3-1s0-3 2-4c1 0 2 4 1 5Zm-3-4c-2 2-6 2-6-1 0-2 2-3 4-2-1 1 1 3 2 3Zm10 14c-2-2 2-4 3-2s-1 4-3 2Zm-1 0c-4 0-5-4-4-6s4 1 5 3c-1 0-2 2-1 3Zm-7-4c1-2-2-2 0-4 1-1 3-3 5-1 1 1-1 1-2 2s-1 4-3 3Zm-1 0c-1 2-3 1-3-1 0-3 4-2 3 1Zm-4-2c-8-7 2-8 3-2-1 0-3 1-3 2Zm10 12c-2-2 0-5 2-5 1 0 2 1 3 1v1c0 3-3 5-5 3Zm-4-2c-2 1-7-3-4-6 1 0 2 0 3-1 4 3 3 6 1 7Zm-11-5c0-3 3-5 5-4l1 2c-3 4-6 5-6 2Z"/><path fill="#012778" d="m102.7 478 8.1 3.2 1-2.3-5.4-2.2 1.2-3 5 2 1-2.3-5-2 1-2.8 5.4 2.2 1-2.4-8.2-3.3ZM342 395.8c-.6-2-3.2-3.2-5-2.1-2 .5-3.4 7.5-5.5 4.8-.7-1.6.4-3.6 1.3-5l-2.5-.3c-2.7 3.3-1.7 10.4 3.6 8.2 1.6-.9 2.3-3 3.3-4.4.3-.6.8-1 1.4-1 2.6 1 .5 4.8-.7 6.4l2.7.3c1.3-2 2.2-4.7 1.4-7Zm-57 77.7-1.4-2.8 4.3-2-1-2.2-4.3 2.1-1.3-2.6 4.7-2.2-1-2.2-7.2 3.4 5.8 12 7.1-3.5-1-2.2Zm40.3-61.2 8 2.5v.1l-10.2 4.2-.6 1.9 12.6 4 .9-2.6-8.1-2.6 10.2-4.2.6-2-12.6-3.9ZM60.8 422.6l2.3 5.2 2.4-1-3.7-8-12.6 5.8 3.7 8 2.3-1.1-2.4-5.2 3-1.4 2.2 4.9 2.2-1-2.2-5ZM52 404.1c.1-.6.4-1.4 1-1.5 2.7.2 1.9 4.3 1.4 6.1l2.7-.6c1.5-4.1-1.7-11.6-6.4-7.4-1.3 1.5-1.3 3.9-1.7 5.8-.3 1.5-1.7 2.2-2.6.7-1.1-1.8-.6-4.2 0-6.2l-2.8.6c-.7 2.4-.6 5.6 1 7.7 1.2 2 4.2 2.4 5.7.6 1.3-1.5 1.2-4 1.7-5.8Zm82.8 69.2c-1.1-1-7.8-2-7.8-2l-2.5 13.6 3 .6 1-6 4.1 7 3.5.6-3.8-6.3c3.9 0 5.8-5.3 2.5-7.5Zm-1.3 3.8c-.5 2-3.2 1.3-4.7 1l.7-3.7c1.6.2 4.4.5 4 2.7Zm-62.3-31.6 1.5-8.3-1.3-1.6-10.8 8.7 2 2.4 6.7-5.5-1.3 7 7.1.2-6.8 5.4 2 2.4 10.7-8.7-1.3-1.7Zm22.1 11.9-4-3-8 11.5 2.5 1.7 2.7-3.8 1.7 1.1c5.8 4.2 11.3-3.7 5.2-7.5Zm-.5 5.1c-1.3 1.8-3.5.1-4.8-.9l2.3-3.2c1.3.9 3.7 2.3 2.5 4.1Zm177.6 13.6c3.1-3-.2-8.1-4.4-6.6l-4.6 1.3 3.5 12.7 2.7-.7-1.6-5.6 6 4.3 3.2-.8-5.6-4Zm-2.1-1.1c-.5.5-2 .7-2.6 1l-1-3.6 1.7-.4c2-.8 3.7 1.6 1.9 3Zm56.7-37-2.7-1.6 2.4-4.2-2-1.1-2.4 4.1-2.6-1.4 2.6-4.5-2.1-1.2-4 6.9 11.6 6.5 3.9-6.8-2.2-1.3Zm-119.6 57.4c0 9.8 15 10 15 0s-15-9.8-15 0Zm7.5 4.7c-6 0-5.9-9.3 0-9.3s6 9.3 0 9.3Zm34-21.1.3 2.3 3.5-.4.2 2c-2 1.5-5.3 1.4-6.7-.7-3.2-5.2 3.7-8.7 7.8-5.8l-.3-2.8c-1.3-.7-3-.8-4.5-.7-9.3.9-8.2 14.3 1 13.5 2-.2 4-1 5.5-2.3l-.6-5.8Zm45.6-22.4 8.1 10.4 4-3c3-2.3 3.6-6.6 1-9.5-4.5-5.4-9.1-1.2-13.2 2.1Zm11.8 3.9c-.4 1.1-2.1 2.1-3 3l-5.2-6.6 1.9-1.5c3-2.8 7.9 1.6 6.3 5Zm2.9-16.1 10.1 8.5 1.8-2.1-10.2-8.5Zm-132.6 44.8c-2-1.1-5.4-1-7.8-1.3l-1.3 13.8 3 .3.4-4.7c1.5.1 3.6.5 4.9-.1 3.4-1.1 4-6.3.8-8Zm-1.3 5c-.9 1.2-2.8.7-4.1.6l.4-4 1.7.1c1.8 0 3.2 1.8 2 3.3Zm21 3.5c4.3-2.3 2.2-8.2-2.6-8h-5.3l-.2 13.9h3v-6.1l5.1 6.2h3.6l-4.8-5.6c.4 0 .8-.2 1.1-.4Zm-5-1.5v-3.9c1 0 3-.1 3.7.6 1.1.9.7 2.7-.6 3-.8.4-2.3.2-3.1.3Z"/></svg>