<svg xmlns="http://www.w3.org/2000/svg" xmlns:xlink="http://www.w3.org/1999/xlink" width="1200" height="720"><path fill="#0859b9" d="M0 0h1200v720H0V0Z"/><path fill="#fcd80e" d="M0 135h1200v450H0V135Z"/><path fill="#c40f38" d="M0 540h1200V180H0Zm175-173a7 7 0 0 1 0-14h169l-7 7 7 7Zm70-38c-7 0-7-10 0-10h131l-11 10Zm42-31c-7 0-7-10 0-10h120l-11 10Zm547 31-10-10h30c6 0 6 10 0 10Zm25 0c3-3 3-7 0-10h1c6 0 6 10 0 10Zm6 0c3-3 3-7 0-10h1c6 0 6 10 0 10Zm6 0c3-3 3-7 0-10h3c7 0 7 10 0 10Zm-68-31-11-10h104c6 0 6 10 0 10Zm53 69 7-7-7-7h178a7 7 0 0 1 0 14Zm45-69c3-3 3-7 0-10h1c6 0 6 10 0 10Zm6 0c3-3 3-7 0-10h1c6 0 6 10 0 10Zm6 0c3-3 3-7 0-10h3c7 0 7 10 0 10Z"/><path fill="#0a1a1d" d="M600 210c-130 0-211 100-258 150 47 50 128 150 258 150s211-100 258-150c-47-50-128-150-258-150Z"/><path fill="#faf6f5" d="M644 506c103-19 167-96 214-146-47-50-128-150-258-150-37 0-49 31-25 49s-1 26 22 35 3 35 12 50c6 10 22 9 22 17s-20 7-20 35c0 16-21 18-21 28s38 16 38 24c0 9-45 3-45 19 0 19 59 18 61 39Zm-204-91h10v-41h-10Zm25 0h10v-41h-10Zm25 0h10v-41h-10Zm-50-69h10v-41h-10Zm75 69h10v-41h-10Zm25 0h10v-41h-10Zm24 0h11v-41h-11Zm-52-57c11-7 18-15 21-28l7 7v9h10v-24l4 1c0-9 1-12-1-18l2 1c2-6 1-8-1-12l7 3c-3-24-16-41-37-47 25 12 32 33 33 42l-8-4c-1 3 5 9 4 14l-5-2c2 5 3 12 3 19l-10-3c2 5 1 11-1 17l-9-9c0 7-5 21-17 29-5-16-23-21-26-30-2 4-6 7-11 10 2-11-11-26-6-37l-9 7c3-16 11-41 34-53-20 6-33 27-38 59l7-4v41h10v-8l13-9 2 2v15h10v-7c5 4 9 8 12 19Zm117 57v-41h10v41Zm-65-69h11v-41h-11Zm89 69v-41h11v41Zm25 0v-41h11v41Zm-49-69v-41h10v41Zm74 69v-41h11v41Zm-50-69v-41h11v41Zm75 69v-41h11v41Zm-50-69v-41h11v41Zm75 69v-41h10v41Zm-50-69v-41h11v41Zm25 0v-41h11v41Zm25 0v-41h10v41Zm152-7 42-15-42-15-26 9c5 3 5 9 0 12Zm42-31 42-15-42-15-26 9c5 3 5 9 0 12Z"/><path id="a" fill="#0a1a1d" d="m184 400-9 7c3-19 16-51 49-51 35 0 45 31 46 41l-8-4c-1 3 5 9 4 14l-5-2c2 5 3 12 3 19l-10-3c2 5 1 11-1 17l-9-9c0 7-5 21-17 29-5-16-23-21-26-30-2 5-5 6-11 10 2-11-11-27-6-38Z"/><use xlink:href="#a" transform="translate(760)"/></svg>