<svg xmlns="http://www.w3.org/2000/svg" width="1200" height="720"><path fill="#001f56" d="M0 0h1200v720H0Z"/><path fill="#faf6f5" d="m876 683-9-28 24-18h-30l-9-28-9 28h-30l24 18-9 28 24-18Zm85-65-9-28 24-18h-30l-9-28-9 28h-30l24 18-9 28 24-18Zm-169 0-9-28 24-18h-30l-9-28-9 28h-30l24 18-9 28 24-18Zm216-266-9 28h-30l24 18-9 28 24-18 24 18-9-28 24-18h-30l-9-28Zm-286 74-9-28 24-18h-30l-9-28-9 28h-30l24 18-9 28 24-18Zm203-24-51 82v-75h31l23-37h-54v-23h69l25-39H737l24 39h69v135l-51-82-71 112h40l7-12h46l51 80 51-80h46l7 12h40l-71-112Zm-132 74h-28l14-24Zm146 0h-28l14-24ZM457 0H151v298H0v8h457Z"/><path fill="#e30631" d="M303 0h146v298H303Z"/></svg>