<svg xmlns="http://www.w3.org/2000/svg" xmlns:xlink="http://www.w3.org/1999/xlink" width="900" height="600"><defs><path id="b" d="M108-39.6v5.9l9.1 8.5-3 2.8 6.5 6-3 2.7v-3.8h-5.5v4.5l12.6 11.8h6.3l.7-4.1h-3.6l4-3.8L142 0l-10 9.1-4-3.7h3.7l-.7-4.2h-6.3L112 13v4.5h5.6v-3.8l2.9 2.6-6.6 6 3.1 3-9.1 8.4v6l15.4-14.4-3-3 6.4-6-5.6-5.2 3.7-3.4 7.1 6.6L147.6 0 132-14.3l-7 6.6-3.8-3.4 5.6-5.2-6.5-6 3.1-3L108-39.5zm0 28.5v22.2l3.6-3.7V3.1h3.8l3-3.1-3-3h-3.8v-4.4l-3.6-3.7zm26.3 7.9-.6 3 .6 3 3.3-3z"/><path id="c" fill="#ffb81c" d="M108-39v4.7l9.7 9-3 3 6.5 6-4 3.6V-17h-4.6v4l12.3 11.5h5.7l.6-3.3H127l5-4.8L142.6 0 132 9.7 127 5h4.2l-.6-3.4H125l-12.4 11.5v4h4.8v-4.4l3.9 3.6-6.5 6 3 3-9.7 9V39l14.8-13.7-3.1-3 6.5-6-5.6-5.2 4.3-4 7.1 6.6L147 0l-15-13.7-7 6.6-4.4-4 5.6-5.2-6.5-6 3-3L108-39zm0 28.6v20.8l3.2-3.1V2.6h4L118 0l-2.6-2.6h-4.1v-4.7l-3.2-3.1zm26.6 8-.4 2.2.4 2.2 2.3-2.2z"/></defs><path fill="#0f7d3a" d="M0 0h900v600H0z"/><g fill="#faf6f5"><path d="M446.8 66.5A74.7 74.7 0 1 1 369 192a74.4 74.4 0 0 0 26.2 6 74.7 74.7 0 0 0 51.6-131.5z"/><path id="a" d="m375.6 121.4 8.5-26-22.2 16h27.4l-22.1-16z"/><use xlink:href="#a" height="600" y="-38.4"/><use xlink:href="#a" x="37.937" y="-18.722"/><use xlink:href="#a" x="-37.936" y="18.722"/><use xlink:href="#a" height="600" y="38.4"/></g><path fill="#e30631" d="M108 0h162v600H108z"/><g id="d" fill="#0a1a1d"><use xlink:href="#b"/><use xlink:href="#c"/></g><use xlink:href="#d" width="100%" height="100%" x="0" y="109.207" fill="#0a1a1d"/><use xlink:href="#d" width="100%" height="100%" x="0" y="222.005" fill="#0a1a1d"/><use xlink:href="#d" width="100%" height="100%" x="0" y="334.802" fill="#0a1a1d"/><use xlink:href="#d" width="100%" height="100%" x="0" y="447.598" fill="#0a1a1d"/><g fill="#0a1a1d" transform="matrix(-1 0 0 1 377.996 0)"><use xlink:href="#b"/><use xlink:href="#c"/><use xlink:href="#d" width="100%" height="100%" x="0" y="109.207"/><use xlink:href="#d" width="100%" height="100%" x="0" y="222.005"/><use xlink:href="#d" width="100%" height="100%" x="0" y="334.802"/><use xlink:href="#d" width="100%" height="100%" x="0" y="447.598"/></g><path fill="#ffb81c" d="M121.1 530.8c.8 3.4 3.5 6 4.2 9.5 1.3-3.6 2.5-6.7 1.6-10.8-.6-2.8-3-5-3.4-7.9-2.6 2.4-3.2 5.8-2.4 9.2zm-.6 14.3c2.2 3 5.3 5.4 8.8 7-.7-2.7.6-4.7 2-6.9 1.7-2.5 2.5-5 1.1-8-.6 1.5-1.5 2.8-2.5 4.1-1.5 2-2.5 3.9-2.7 6.5-1.8-1.3-2.5-3.2-3.5-5a16 16 0 0 0-6.3-6.4c.7 3 1.2 6.2 3 8.7zm12.5 9.2a16 16 0 0 0-.8 5.2c-1.4-1.6-3.4-2.8-5.2-4.1-2.3-2-5.1-3.3-7-5.8.2 3.6 1.8 6.6 4.7 8.8 3.1 2.3 6.9 3.6 10 6-.5-3.3.7-6 1.7-9 .9-2.8 0-5.8-2-8 .1 2.5-.7 4.6-1.4 6.9zm7 11.1c.7 2.5 2.5 4.5 3.7 6.8-3.3-1-6.2-2.8-9.2-4.5-3.5-2-7.4-3.2-10.6-5.8 1.6 6 5.5 9.4 11.3 11.2 4 1.2 7.4.6 12.2 2.5-.6-3.3-1.6-6.8-3.1-9.7-1.2-2.1-2.5-4.2-3.3-6.6a8 8 0 0 0-1 6.1zm12.2 9a15.2 15.2 0 0 0 4.5 5c-4.7.2-8.5-2.7-13-2.9-2.9 0-5.5.8-8.4.6a26 26 0 0 0 11.1 4.8c5.4.7 10.4-.6 16.4-.1-2.8-2-4.2-4.6-6-7.4-2.2-3.6-4.3-6-8.7-6.6 1.7 2 2.7 4.4 4 6.7zm16.6 7.8c-8.2 1.4-16.2 3.3-24.6 3.3a39.5 39.5 0 0 0 27.7.5c5-1.8 9-2.8 12.7-2.5 5.6.4 12.4 2.6 20 10.5l2.9-2.4a45.1 45.1 0 0 0-38.7-9.4z"/><path fill="#0a1a1d" d="m128.3 70.3-13-8v-19l13-8V25.2l12.2-7.4h9.8L169 7.3h40l18.7 10.5h9.8l12.2 7.4v10l13 8v19.2l-13 8v10L237.5 88h-9.8L209 98.3h-40L150.3 88h-9.8l-12.2-7.4z"/><path fill="#0f7d3a" d="m169 7.7-18.6 10.5h-9.7l-12 7.2v10.1l-13 8V62l13 8v10.1l12 7.2h9.7L169.1 98h39.8l18.6-10.5h9.8l12-7.2V70.1l13-8V43.5l-13-8v-10l-12-7.3h-9.8L209 7.7h-39.8zm1.2 3.9h37.6l18.7 10.5h9.7l9 5.4v10.2l13.1 7.9V60l-13 8v10l-9 5.5h-9.8L207.8 94h-37.6l-18.7-10.5h-9.7l-9.1-5.4V68l-13-8V45.6l13-8v-10l9-5.5h9.8z"/><path fill="#ffb81c" d="M188.8 53V12h-18.5l-18.7 10.5H142l-8.8 5.3v10.1l-13 8v6.7h69.1v41h18.5l18.7-10.5h9.7l8.8-5.3v-10l13-8V53z"/><path fill="#faf6f5" d="M120.1 53v6.8l13 8v10l8.8 5.3h9.7l18.7 10.5h18.5v-41h69v-6.7l-13-8V27.8l-8.7-5.3h-9.7L207.7 12h-18.5v41z"/><g id="f" fill="#0a1a1d"><g id="e"><path d="m148.4 26.3-3.1-3-3.2 2 3.2 3-4.1 2.5h9l7.7 7.3 2.4-2.6-7.5-7.1v-4.8z"/><path d="m163.6 25-3.2-3-3.2 2 3.2 3-4.1 2.5h9l7.7 7.3 2.5-2.6L168 27v-4.8zm-16.3 9.8-3.2-3-3.1 2 3.2 3-4.1 2.5h9l7.7 7.3 2.4-2.6-7.5-7V32z"/><path d="M189 11.6h-8.1l-4.2 4h-8.3l-6 3.2 1.3 3.5 5.5-2.9h2.4l8.3 9.7 9.1-5.5z"/><path fill="#e30631" d="m145.2 23.8 2.9 2.7-2.4 1.5-3-2.7zm7.2.5v4.3l7.3 6.9-1.8 2-7.6-7.1h-7.6l9.7-6zm8-1.8 2.8 2.7-2.4 1.5-2.9-2.7zm7.1.5v4.3l7.4 6.9-2 2-7.5-7.2h-7.6l9.7-6z"/><path fill="#e30631" d="m144 32.4 3 2.7-2.4 1.5-3-2.7zm7.3.5V37l7.3 7-1.8 2-7.6-7.2h-7.6l9.7-6zM188.8 12H181l-4.3 4.1h-8.3l-5.6 3 1 2.6 5.2-2.7h2.7l8.2 9.5 8.8-5.3z"/></g><use xlink:href="#e" width="100%" height="100%" x="0" y="0" transform="matrix(1 0 0 -1 0 105.623)"/><path d="m143 39.7-3.8-1.4h-.1l-5 3.5v1l-8 10 8 10.1v1l5 3.5 4-1.5-2.4-1.5v-3l1-1.1h4.1v-15h-4.2l-.9-1v-3z"/><path fill="#e30631" d="m134.5 42 4.8-3.3 2.8 1.1-1.8 1.2v3.4l1.1 1.4h4v14h-4l-1.1 1.4v3.4l1.8 1.2-2.8 1-4.8-3.2v-.8l-7.8-10 7.9-10z"/></g><use xlink:href="#f" width="100%" height="100%" x="0" y="0" fill="#0a1a1d" transform="matrix(-1 0 0 1 377.994 0)"/><path fill="#0a1a1d" d="m136.2 61.3-2.2-1.9v-.9l-4.6-5.7 4.6-5.7v-.9l2.2-1.9 4 3.2h-2.3l3.3 3.4h7.6l6-4.7V33.9h15L187 23.2v-2.8l-2.7-1.8h-.8l-2.9 2-.4 1.4-2.3-3 4.4-3.8h.7l5-3.6h1.8l5 3.6h.7L200 19l-2.3 3.1-.4-1.4-3-2h-.7l-2.7 1.8v2.8l17.4 10.7h15v12.3l6 4.7h7.5l3.3-3.4H238l3.9-3.2 2.2 2v.8l4.6 5.7-4.6 5.7v.9l-2.2 1.9-4-3.2h2.3l-3.3-3.4h-7.6l-6 4.7v12.4h-15L191 82.4v2.8l2.7 1.8h.8l2.9-2 .4-1.4 2.3 3.1-4.4 3.7h-.7l-5 3.6h-1.8l-5-3.6h-.7l-4.4-3.7 2.3-3 .4 1.4 2.9 1.9h.8l2.7-1.8v-2.8l-17.4-10.6h-15V59.4l-6-4.7h-7.5l-3.3 3.4h2.2z"/><path fill="#ffb81c" d="m189.2 87.3 2 1.5-2 1.4v-2.9zm-6 2.7 5 3.6h.6v-2.8l-2.6-2 2.6-2v-5.4L170.2 70h-13.8V58.6l-7-5.6h-10.7l-2.7 3-2.7-3H130l4.4 5.3v1l1.7 1.4 2.8-2.2h-1.7V58l3.7-3.7h8l6.2 5v12h14.6l17.7 10.9v3.2l-3 2h-1l-3.2-2-.2-.9-1.5 2.1 4 3.4h.6zM136 50.2l2 2.4h-4.2zm52.8-34.8-2 1.4 2 1.5zM239.9 53l2.1 2.4 2.1-2.4zm-45.1-37.3-5-3.7h-.6V15l2.6 2-2.6 2v5.3l18.6 11.4h13.7V47l7.1 5.6h10.7l2.7-3 2.7 3h3.2l-4.4-5.3v-.9l-1.7-1.5-2.8 2.2h1.7v.5l-3.7 3.7h-8l-6.2-4.9V34.3h-14.7l-17.6-10.9v-3.2l3-2h1l3.2 2.1.2.8 1.5-2.1-4-3.3h-.6z"/><path fill="#faf6f5" d="m188.8 90.2-2-1.4 2-1.5zM138 53l-2.1 2.4-2.2-2.4zm56.7 37-5 3.6h-.6v-2.8l2.6-2-2.6-2v-5.4L207.8 70h13.7V58.6l7.1-5.6h10.7l2.7 3 2.7-3h3.2l-4.4 5.3v1l-1.7 1.4-2.8-2.2h1.7V58l-3.7-3.7h-8l-6.2 5v12h-14.7l-17.6 10.9v3.2l3 2h1l3.2-2 .2-.9 1.5 2.1-4 3.4h-.6zM242 50.2l-2 2.4h4.1zm-58.8-34.5 5-3.7h.6V15l-2.6 2 2.6 2v5.3l-18.6 11.4h-13.7V47l-7.1 5.6h-10.7l-2.7-3-2.7 3H130l4.4-5.3v-.9l1.7-1.5 2.8 2.2h-1.7v.5l3.7 3.7h8l6.2-4.9V34.3h14.6l17.7-10.9v-3.2l-3-2h-1l-3.2 2.1-.2.8-1.5-2.1 4-3.3h.6zm6 2.6 2-1.4-2-1.5z"/><path fill="#0f7d3a" d="M188.8 53V24.7L170.3 36H157v11.3l-6.8 5.3h39.1v28.3l18.5-11.3H221V58.4L228 53z"/><path fill="#e30631" d="m150 53 6.9 5.4v11.2h13.4L188.8 81V52.6h39.1l-6.8-5.3V36h-13.4l-18.5-11.3V53z"/><path fill="#0a1a1d" d="m169.1 39-3.2-3-3.1 2 3.2 3-4.2 2.6h9l7.7 7.3 2.5-2.7-7.5-7v-4.9zM209 66.7l3.2 3 3.1-2-3.2-3 4.1-2.5h-9l-7.7-7.3-2.4 2.6 7.5 7v4.9zm-39.8 0-3.2 3-3.1-2 3.2-3-4.2-2.5h9l7.7-7.3 2.5 2.6-7.5 7v4.9zM209 39l3.2-3 3.1 2-3.2 3 4.1 2.5h-9l-7.7 7.3-2.4-2.7 7.5-7v-4.9z"/><path fill="#e30631" d="m212.1 69-2.8-2.7 2.4-1.5 2.8 2.7zm-7.2-.5v-4.2l-7.3-7 1.9-2 7.5 7.2h7.6l-9.7 6zm-39-31.9 2.8 2.7-2.4 1.5-2.8-2.7zm7.2.5v4.2l7.3 7-1.9 2L171 43h-7.6l9.7-6z"/><path fill="#0f7d3a" d="m212.1 36.6-2.8 2.7 2.4 1.5 2.8-2.7zm-7.2.5v4.2l-7.3 7 1.9 2L207 43h7.6l-9.7-6zM166 69l2.8-2.7-2.4-1.5-2.8 2.7zm7.2-.5v-4.2l7.3-7-1.9-2-7.5 7.2h-7.6l9.7 6z"/><path fill="#0a1a1d" d="M208.9 52.8 189 66l-19.9-13.2L189 39.6Z"/><path fill="#faf6f5" d="m188.8 40.2-18.6 12.4h37.6l-18.6-12.4v25.2L207.8 53h-37.6l18.6 12.4z"/><path fill="#0a1a1d" d="M194.3 57.4V61h-10.6v-3.6h-6.9v-9.1h6.9v-3.7h10.6v3.7h6.9v9z"/><path fill="#e30631" d="M184.1 45v3.7h-6.9v3.9h11.6V45H184zm5.1 7.6h11.6v-4h-7V45h-4.6v7.6zm-12 .4v4h7v3.6h4.6V53h-11.6Zm12 7.6h4.7v-3.7h6.9V53h-11.6v7.6z"/><path fill="#0a1a1d" d="M222.9 203.6v-5.8h16v-5.9h16v-52.6h-16v-5.9h-16v-5.8h-16v-5.8H171v5.8h-16v5.8h-16v5.9h-16v52.6h16v5.9h16v5.8h16v5.8H207v-5.8Z"/><path fill="#ffb81c" fill-opacity="1" d="M171.6 122.2v5.8h-16v5.8h-16v5.9h-16v51.8h16v5.9h16v5.8h16v5.8h34.9v-5.8h16v-5.8h16v-5.9h16v-51.8h-16v-5.9h-16V128h-16v-5.8zm4.2 4.2h26.4v5.9h16v5.8h16v5.8h16v43.4h-16v5.8h-16v5.8h-16v5.9h-26.4v-5.9h-16v-5.8h-16v-5.8h-16v-43.4h16v-5.8h16v-5.8h16z"/><path fill="#e30631" d="M160.2 198.5v-5.8h-16v-5.8h-16v-42.5h16v-5.9h16v-5.8h16v-5.8h25.6v5.8h16v5.8h16v5.9h16v42.5h-16v5.8h-16v5.8h-16v5.8h-25.6v-5.8z"/><path fill="#0a1a1d" d="m164 137-4.2-3.1v6l-4 2.5v-3.7L152 142l-3.8-3.4v3.7l-4.4-2.8v5.6l-3.6 2.6v-3.5l-4.2 3.1-4.2-3v3.4l-4-3v17h-4.7v7.7h4.7v16.8l4-2.8v3.4l4.2-3 4.2 3v-3.4l3.6 2.5v5.6l4.4-2.8v3.8l3.8-3.5 3.8 3.5v-3.8l4 2.5v6l4.1-3.1v4.2l4-3.6 4.1 3.6v-4.2l3.8 2.8v6.4l5.5-5v6l7.7-5 7.7 5v-6l5.5 5V197l3.7-2.8v4.2l4.1-3.6 4 3.6v-4.2l4.2 3.1v-6l4-2.5v3.8l3.8-3.5 3.8 3.5v-3.8l4.4 2.8V186l3.6-2.5v3.4l4.2-3 4.2 3v-3.4l4 2.8v-16.9h4.7v-7.6h-4.7v-17l-4 3v-3.5l-4.2 3.1-4.2-3v3.4l-3.6-2.6v-5.6l-4.4 2.8v-3.7L226 142l-3.8-3.4v3.7l-4-2.5v-6l-4.1 3.1v-4.2l-4 3.6-4.2-3.6v4.2l-3.7-2.8v-6.4l-5.5 5V127l-7.7 5-7.7-5v6l-5.5-5.1v6.4L172 137v-4.2l-4.1 3.6-4-3.6z"/><path fill="#0f7d3a" d="M132.2 148.6v-3.4l3.8 2.7h.1l3.7-2.7v3.4l4-2.9v39.8l-4-2.9v3.4l-3.8-2.7-3.8 2.7v-3.4l-4 2.9V169h-4.6v-6.8h4.6v-16.5zm32.2-14.8 3.6 3.2 3.6-3.2v4l4.2-3v61.7l-4.2-3.2v4.1l-3.6-3.2-3.6 3.2v-4l-4.2 3v-61.7l4.1 3.2zm49.2 0L210 137l-3.6-3.2v4l-4.2-3v61.7l4.2-3.2v4.1l3.6-3.2 3.6 3.2v-4l4.2 3v-61.7l-4.2 3.2zm32.2 14.8v-3.4l-3.8 2.7h-.1l-3.7-2.7v3.4l-4-2.9v39.8l4-2.9v3.4l3.8-2.7 3.8 2.7v-3.4l4 2.9V169h4.6v-6.8h-4.6v-16.5z"/><path fill="#ffb81c" d="m148.6 139.6 3.4 3 3.4-3v3.6l4.4-2.8v50.4l-4.4-2.8v3.6l-3.4-3-3.4 3V188l-4.4 2.8v-50.4l4.4 2.8zm33.1-5.8-5.5-5v73.6l5.5-5v6.1l7.3-4.6 7.2 4.6v-6.1l5.6 5v-73.6l-5.6 5v-6.1l-7.2 4.7-7.3-4.7zm47.7 5.8-3.4 3-3.4-3v3.6l-4.4-2.8v50.4l4.4-2.8v3.6l3.4-3 3.4 3V188l4.4 2.8v-50.4l-4.4 2.8z"/><g id="h" fill="#0a1a1d"><g id="g"><path d="M134.3 158.4c.5.5 1 .7 1.7.7s1.3-.2 1.7-.7c1.6-1.6 1.6-4.3 1.6-6.3l-2 2.2-1.3-2.1-1.2 2-2-2.1c0 2 0 4.7 1.5 6.3zM151 154l-1.3-1.3v-2.5l-3 2.7 5.3 5.2 5.3-5.2-3-2.7v2.5l-1.3 1.3v-4.5l2.3-2-3.3-2.8-3.3 2.8 2.3 2zm16-5-1.3-1.4v-2.5l-3 2.7 5.3 5.3 5.2-5.3-2.9-2.7v2.5L169 149v-4.5l2.3-2-3.3-2.8-3.3 2.9 2.3 2z"/><path fill="#faf6f5" d="m136 153 1.1 2 1.7-1.8c0 2.2-.5 4-1.4 4.9a2 2 0 0 1-2.8 0c-.9-.9-1.4-2.7-1.4-5l1.7 1.9 1.1-2zm32.6-8.7v5.8l2.1-2.2v-1.7l2 1.7-4.7 4.7-4.6-4.7 1.8-1.7v1.7l2.2 2.2v-5.8l-2-1.7 2.6-2.3 2.6 2.3z"/><path fill="#e30631" d="M152.6 149.4v5.7l2.1-2.1v-1.8l2 1.8-4.7 4.6-4.6-4.6 1.9-1.8v1.8l2 2.1v-5.7l-2-1.8 2.7-2.2 2.6 2.2z"/></g><use xlink:href="#g" width="100%" height="100%" x="0" y="0" transform="matrix(-1 0 0 1 377.996 0)"/><path d="m195.3 151-1.7-2.4 4.4-4.1-4.1-3.4v2.4L192 145v-4.4l4-2.8-7.1-5.2-7 5.2 3.9 2.8v4.4l-1.8-1.5v-2.4l-4 3.4 4.3 4-1.7 2.4z"/><path fill="#e30631" d="m183.6 150.5 1.4-2-4.3-4 3-2.5v1.7l2.6 2.2v-5.5l-3.6-2.6 6.3-4.7 6.3 4.7-3.6 2.6v5.5l2.6-2.2V142l3 2.5-4.3 4 1.4 2z"/><path d="m185.8 137.8 3.2 2.3 3.2-2.3-3.2-2.4-.1.1z"/><path fill="#0f7d3a" d="m189 136 2.5 1.8-2.5 1.8-2.5-1.8 2.5-1.9z"/></g><use xlink:href="#h" width="100%" height="100%" x="0" y="0" fill="#0a1a1d" transform="matrix(1 0 0 -1 0 331.216)"/><path fill="#0a1a1d" d="M245.9 163.2h-7v-2.9h-21.5l-15-9.8h-26.8l-15 9.8h-21.5v2.8h-7v5h7v2.8h21.5l15 9.8h26.8l15-9.8h21.5V168h7z"/><path fill="#e30631" d="m175.7 151-15 9.8h-21.1v2.8h-7v4h7v2.8h21.2l15 9.9h26.5l15-9.9h21.2v-2.8h7v-4h-7v-2.8h-21.3l-15-9.8Zm.4 1.4h25.8l13.7 9v1.4H231v5.7h-15.3v1.4l-13.7 9h-25.8l-13.7-9v-1.4H147v-5.7h15.4v-1.4z"/><path fill="#e30631" d="m201.8 152.8 13.4 8.8v1.6h15.3v4.8h-15.3v1.6l-13.4 8.8h-25.6l-13.4-8.8V168h-15.3v-4.8h15.3v-1.6l13.4-8.8z"/><g fill="#0a1a1d"><path d="m169.6 170.6 5.7 4.3 3.9-2.8-2.3-1.7-1.6 1.2-1.3-1 21.8-16.4h-4.4zm12.6 6.4h4.4l21.8-16.4-5.7-4.3-3.9 2.8 2.3 1.7 1.6-1.2 1.3 1zm9.2 0h4.4L174 160.6l1.3-1 1.6 1.2 2.3-1.7-3.9-2.8-5.7 4.3zm12.6-6.4-1.3 1-1.6-1.2-2.3 1.7 3.8 2.8 5.8-4.3-21.8-16.4h-4.4zm-38.8-5 3.9 2.6 3.9-2.6-4-2.6z"/><path d="m185.1 165.6 3.9 2.6 3.9-2.6-3.9-2.6zm27.7 0-3.9 2.6-3.9-2.6 4-2.6z"/><path fill="#ffb81c" d="m207.7 170.6-5 3.8-3.1-2.3 1.5-1.1 1.6 1.2 2-1.6-21.2-16h3zm-13.2 6h-3l-21.2-16 5-3.8 3.1 2.3-1.5 1.2-1.6-1.2-2 1.5zm-8 0h-3l21.2-16-2-1.5-1.6 1.2-1.5-1.2 3-2.3 5.1 3.8zm5-22h3l-21.2 16 2 1.6 1.6-1.2 1.5 1-3 2.4-5.1-3.8z"/><path fill="#0f7d3a" d="m169 163.5 3.2 2.1-3.1 2-3.2-2zm20 0 3.1 2.1-3.1 2-3.1-2zm20 0-3.2 2.1 3.1 2 3.2-2z"/></g><g fill="#0a1a1d"><path d="m120.5 274.2-1.5 2.1 2.7 2.1-2.7 2.1 1.5 2.2 3.2.3 3-2.3 7.8 4.8v-4l-4.9-3 4.9-3.2v-4l-7.7 4.9-3.1-2.4z"/><path d="m120.5 260-1.5 2.2 2.7 2.1-2.7 2.1 1.5 2.2 3.2.4 3-2.4 7.8 4.9v-4.1l-4.9-3 4.9-3.1v-4.1l-7.7 4.9-3.1-2.4zm0 36.7-1.5-2.1 2.7-2.1-2.7-2.1 1.5-2.2 3.2-.3 3 2.3 7.8-4.8v4l-4.9 3 4.9 3.2v4l-7.7-4.9-3.1 2.4zm137-22.5 1.5 2.1-2.7 2.1 2.7 2.1-1.5 2.2-3.2.3-3-2.3-7.8 4.8v-4l4.9-3-4.9-3.2v-4l7.7 4.9 3.1-2.4z"/><path d="m257.5 260 1.5 2.2-2.7 2.1 2.7 2.1-1.5 2.2-3.2.4-3-2.4-7.8 4.9v-4.1l4.9-3-4.9-3.1v-4.1l7.7 4.9 3.1-2.4zm0 36.7 1.5-2.1-2.7-2.1 2.7-2.1-1.5-2.2-3.2-.3-3 2.3-7.8-4.8v4l4.9 3-4.9 3.2v4l7.7-4.9 3.1 2.4zm-30.8-61v5.9h4.3v2.6h4.2v-4.7h-3.8v-3.8Zm12.6 9.3v5.8h4.2v2.6h4.2v-4.7H244V245zm-88-9.3v5.9H147v2.6h-4.2v-4.7h3.8v-3.8Zm75.4 85.4v-5.9h4.3v-2.6h4.2v4.8h-3.8v3.7zm-75.4 0v-5.9H147v-2.6h-4.2v4.8h3.8v3.7zm88-9.3V306h4.2v-2.6h4.2v4.7H244v3.7zM138.7 245v5.8h-4.2v2.6h-4.2v-4.7h3.7V245zm0 66.8V306h-4.2v-2.6h-4.2v4.7h3.7v3.7zm66-76.2-3.2-3.2-3.2 3 2.8 2.7-3.6 3.5h5.3l2-1.9 1.9 1.9h5.3l-3.6-3.5 2.8-2.7-3.2-3-3.2 3.2zm-15.7 0-3.3-3.2-3.1 3 2.7 2.7-3.6 3.5h5.4l1.9-1.9 2 1.9h5.3l-3.6-3.5 2.7-2.7-3.2-3-3.2 3.2zm-15.8 0 3.3-3.2 3.2 3-2.8 2.7 3.6 3.5h-5.3l-2-1.9-1.9 1.9H166l3.6-3.5-2.8-2.7 3.2-3 3.2 3.2zm31.6 85.6-3.3 3.2-3.2-3 2.8-2.7-3.6-3.5h5.3l2 1.9 1.9-1.9h5.3l-3.6 3.5 2.8 2.7-3.2 3-3.2-3.2zm-15.8 0-3.3 3.2-3.1-3 2.7-2.7-3.6-3.5h5.4l1.9 1.9 2-1.9h5.3l-3.6 3.5 2.7 2.7-3.2 3-3.2-3.2zm-15.8 0 3.3 3.2 3.2-3-2.8-2.7 3.6-3.5h-5.3l-2 1.9-1.9-1.9H166l3.6 3.5-2.8 2.7 3.2 3 3.2-3.2z"/></g><path fill="#0f7d3a" d="M134 281.7v3l-7.2-4.6-3.2 2.5-2.8-.3-1.2-1.7 2.8-2.2-2.8-2.2 1.2-1.6 2.8-.4 3.2 2.5 7.2-4.6v3l-5.2 3.3zm0-14v3l-7.2-4.7-3.2 2.5-2.8-.3-1.2-1.7 2.8-2.2-2.8-2.2 1.2-1.6 2.8-.3 3.2 2.4 7.2-4.6v3l-5.2 3.3zm0 21.5v-3l-7.2 4.6-3.2-2.5-2.8.3-1.2 1.7 2.8 2.2-2.8 2.2 1.2 1.6 2.8.4 3.2-2.5 7.2 4.6v-3l-5.2-3.3zm110-7.5v3l7.2-4.6 3.2 2.5 2.8-.3 1.2-1.7-2.8-2.2 2.8-2.2-1.2-1.6-2.8-.4-3.2 2.5-7.2-4.6v3l5.2 3.3zm0-14v3l7.2-4.7 3.2 2.5 2.8-.3 1.2-1.7-2.8-2.2 2.8-2.2-1.2-1.6-2.8-.3-3.2 2.4-7.2-4.6v3l5.2 3.3zm0 21.5v-3l7.2 4.6 3.2-2.5 2.8.3 1.2 1.7-2.8 2.2 2.8 2.2-1.2 1.6-2.8.4-3.2-2.5-7.2 4.6v-3l5.2-3.3zm-13-53v3.7h3.7v3.8h-3.3v-2.5h-4.2v-5zm12.6 9.2v3.7h3.7v3.9H244v-2.6h-4.3v-5zm-96.6-9.2v3.7h-3.7v3.8h3.3v-2.5h4.2v-5zm84 84.5v-3.8h3.7v-3.8h-3.3v2.6h-4.2v5zm-84 0v-3.8h-3.7v-3.8h3.3v2.6h4.2v5zm96.6-9.3v-3.7h3.7v-3.9H244v2.6h-4.3v5zm-109.2-66v3.7h-3.7v3.9h3.3v-2.6h4.3v-5zm0 66v-3.7h-3.7v-3.9h3.3v2.6h4.3v5zm67.1-78.4 3.3 3.2 3.2-3.2 2.6 2.4-2.8 2.7 3.1 3h-4l-2.1-2-2.1 2h-4.1l3.1-3-2.8-2.7 2.6-2.4zm-15.8 0 3.3 3.2 3.3-3.2 2.5 2.4-2.8 2.7 3.2 3H191l-2.1-2-2.1 2h-4.1l3.2-3-2.8-2.7 2.5-2.4zm-9.2 0-3.3 3.2-3.2-3.2-2.6 2.4 2.8 2.7-3.2 3h4.2l2-2 2.1 2h4.1l-3.1-3 2.8-2.7-2.6-2.4zm25 90.8 3.3-3.2 3.2 3.2 2.6-2.4-2.8-2.7 3.1-3h-4l-2.1 2-2.1-2h-4.1l3.1 3-2.8 2.7 2.6 2.4zm-15.8 0 3.3-3.2 3.3 3.2 2.5-2.4-2.8-2.7 3.2-3H191l-2.1 2-2.1-2h-4.1l3.2 3-2.8 2.7 2.5 2.4zm-9.2 0-3.3-3.2-3.2 3.2-2.6-2.4 2.8-2.7-3.2-3h4.2l2 2 2.1-2h4.1l-3.1 3 2.8 2.7-2.6 2.4z"/><path fill="#0a1a1d" d="M146.6 306.4v9.3h84.8v-9.3H244v-56h-12.6v-9.2h-84.8v9.2H134v56z"/><path fill="#ffb81c" fill-opacity="1" d="M147 241.6v9.2h-12.5V306H147v9.2h84V306h12.5v-55.2H231v-9.2h-84zm5.4 3.5h73.2v9l3 2.2H240v44.3h-11.5l-3 2.2v9h-73v-9l-3-2.2H138v-44.3h11.4l3-2.3v-8.9z"/><path fill="#e30631" d="M152.9 245.6v8.1l11-8.1zm61.2 0 11 8.1v-8.1Zm-75.6 11v7.7l10.3-7.6h-10.3Zm90.6 0 10.5 7.8v-7.7zm10.5 35.8-10.5 7.8h10.5zm-101.1 0v7.8h10.3zm14.4 10.7v8.1h11zm72.2 0-11 8.1h11z"/><path fill="#0f7d3a" d="m213.4 245.6 26.2 19.3v27l-26.2 19.4h-48.8l-26.2-19.4v-27l26.2-19.3z"/><path fill="#0a1a1d" d="m144.7 295-3-3.5 2.8-3.3-2.8-3.2 2.8-3.3-2.8-3.3 2.8-3.3-2.8-3.3 2.8-3.2-2.8-3.3 3-3.5h88.6l3 3.5-2.8 3.3 2.8 3.2-2.8 3.3 2.8 3.3-2.8 3.3 2.8 3.3-2.8 3.2 2.8 3.3-3 3.5zm61-45.2-3.6-3-3.3 2.8-3.2-2.8-3.3 2.8-3.3-2.8-3.3 2.8-3.3-2.8-3.2 2.8-3.3-2.8-3.5 3V307l3.5 3 3.3-2.8 3.2 2.8 3.3-2.8 3.3 2.8 3.3-2.8 3.3 2.8 3.2-2.8 3.3 2.8 3.5-3z"/><g fill="#ffb81c"><path d="m198.6 250-3-2.7-3.1 2.7v56.8l3 2.7 3.1-2.7zm-13.1 0-3-2.7-3.1 2.7v56.8l3 2.7 3.1-2.7z"/><path d="m144.9 294.6-2.7-3 2.7-3.1H233l2.7 3-2.7 3zm88.2-19.3 2.7 3.1-2.7 3H145l-2.7-3 2.7-3zm0-7 2.7-3-2.7-3H145l-2.7 3 2.7 3z"/></g><g fill="#e30631"><path d="m205.2 250-3-2.7-3.1 2.7v56.8l3 2.7 3-2.7zm-26.3 0-3-2.7-3 2.7v56.8l3 2.7 3-2.7z"/><path d="m144.9 288-2.7-3 2.7-3.1H233l2.7 3-2.7 3.1zm0-13-2.7-3.2 2.7-3H233l2.7 3-2.7 3.1z"/><path d="m192 306.8-3 2.7-3-2.7V250l3-2.7 3 2.7z"/></g><path fill="#0a1a1d" d="M218.6 251h-59.4v4.8h-7.7V301h7.7v4.7h59.6V301h7.6v-45.2h-7.6v-4.7Z"/><path fill="#e30631" d="M159.6 251.5v4.7H152v44.4h7.6v4.7h6.2l-12.4-10.4v-33l12.4-10.4h-6.2Zm52.6 0 12.4 10.5v32.9l-12.4 10.4h6.2v-4.7h7.6v-44.4h-7.6v-4.7h-6.2z"/><g fill="#0f7d3a"><path d="m166.5 251.5-12.7 10.7v32.4l12.7 10.7h45l12.7-10.7v-32.4l-12.7-10.7zm.7 1.8h43.6l11.6 9.7v30.8l-11.6 9.6h-43.6l-11.5-9.6V263z"/><path d="m178.7 294.3 2 .8.3 2.3-2.4 2.2 3.5 3.4h-3.4l-2.4-2.3-2.5 2.3h-3.4l3.5-3.4-2.4-2.2.3-2.3 2-.8 2.5 2v-.1zm12.8 0 2 .8.3 2.3-2.5 2.2 3.6 3.4h-3.4l-2.5-2.3-2.5 2.3h-3.4l3.6-3.4-2.5-2.2.4-2.3 2-.8 2.4 2 .1-.1zm7.8 0-2 .8-.3 2.3 2.4 2.2-3.5 3.4h3.4l2.4-2.3 2.5 2.3h3.4l-3.5-3.4 2.4-2.2-.3-2.3-2-.8-2.5 2v-.1zm-20.6-31.8 2-.8.3-2.3-2.4-2.2 3.5-3.4h-3.4l-2.4 2.3-2.5-2.3h-3.4l3.5 3.4-2.4 2.2.3 2.3 2 .8 2.5-2v.2zm12.8 0 2-.8.3-2.3-2.5-2.2 3.6-3.4h-3.4L189 256l-2.5-2.3h-3.4l3.6 3.4-2.5 2.2.4 2.3 2 .8 2.4-2 .1.2zm7.8 0-2-.8-.3-2.3 2.4-2.2-3.5-3.4h3.4l2.4 2.3 2.5-2.3h3.4l-3.5 3.4 2.4 2.2-.3 2.3-2 .8-2.5-2v.2zm22.6 3.7-2 1.6 2 1.6v2.7l-3-2.5-2.2 2-2.3-.3-.8-1.5 2-2-2-2 .8-1.5 2.4-.3 2.1 2 3-2.5zm0 10.6-2 1.6 2 1.6v2.7l-3-2.5-2.2 2-2.3-.3-.8-1.5 2-2-2-2 .8-1.5 2.4-.3 2.1 2 3-2.5zm0 13.8-2-1.6 2-1.6v-2.7l-3 2.5-2.2-2-2.3.4-.8 1.5 2 2-2 2 .8 1.4 2.4.3 2.1-2 3 2.5zm-65.8-24.4 2 1.6-2 1.6v2.7l3-2.5 2.1 2 2.4-.3.8-1.5-2-2 2-2-.8-1.5-2.4-.3-2.1 2-3-2.5zm0 10.6 2 1.6-2 1.6v2.7l3-2.5 2.1 2 2.4-.3.8-1.5-2-2 2-2-.8-1.5-2.4-.3-2.1 2-3-2.5zm0 13.8 2-1.6-2-1.6v-2.7l3 2.5 2.1-2 2.4.4.8 1.5-2 2 2 2-.8 1.4-2.4.3-2.1-2-3 2.5z"/></g><path fill="#e30631" d="m167.3 253.8-11 9.2 2.8 2.4 2-1.8 2.7.3 1 2-1.8 1.9 1.9 1.9-1 2-2.8.3-2-1.8-3 2.5v.8l3 2.5 2-1.8 2.7.3 1 2-1.8 1.9 1.9 1.9-1 2-2.8.3-2-1.8-3 2.5v.9l3 2.5 2-1.9 2.7.4 1 2-1.8 1.8 1.9 2-1 1.9-2.8.4-2-1.9-2.9 2.3 11.1 9.3h2.5l3.5-3.4-2.3-2 .5-2.8 2.3-1 2.5 2 2.4-2 2.3 1 .5 2.8-2.3 2 3.4 3.3 3.5-3.3-2.4-2 .5-2.8 2.4-1 2.4 2 2.4-2 2.4 1 .4 2.8-2.3 2 3.4 3.3 3.5-3.3-2.3-2 .4-2.8 2.5-1 2.3 2 2.4-2 2.5 1 .4 2.8-2.3 2 3.6 3.4h2.3l11.1-9.3-2.8-2.3-2 1.9-2.7-.4-1.1-2 1.9-1.9-2-1.9 1.2-2 2.7-.3 2 1.9 3-2.5v-1l-3-2.4-2 1.8-2.7-.3-1.1-2 1.9-2-2-1.8 1.2-2 2.7-.3 2 1.8 3-2.4v-1l-3-2.4-2 1.8-2.7-.3-1.1-2 1.9-1.9-2-2 1.2-1.9 2.7-.3 2 1.8 2.9-2.3-11.2-9.3h-2.3l-3.6 3.4 2.3 2-.4 2.8-2.5 1-2.4-1.9-2.3 2-2.5-1.1-.4-2.8 2.3-2-3.4-3.3-3.5 3.3 2.3 2-.4 2.8-2.4 1-2.4-1.9-2.4 2-2.4-1.1-.5-2.8 2.4-2-3.5-3.3-3.4 3.3 2.3 2-.5 2.8-2.3 1-2.4-1.9-2.5 2-2.3-1.1-.5-2.8 2.3-2-3.6-3.4zm-11.2 23.5v2.2l1.3-1.1z"/><path fill="#faf6f5" d="m176.3 301.3-1.9 1.7h3.7zm12.7 0-1.8 1.7h3.6zm12.7 0L200 303h3.7zm-27.3-47.5 1.9 1.8 1.8-1.8zm12.7 0 1.9 1.8 1.9-1.8zm12.8 0 1.8 1.8 1.9-1.8zm22 13-1.3 1 1.3 1zm0 10.5-1.3 1 1.3 1.1zm0 10.7-1.3 1 1.3 1.1zM156 266.7v2.2l1.3-1.1zm0 10.6v2.2l1.3-1.1zm0 10.6v2.2l1.3-1z"/><g fill="#0a1a1d"><path d="M199.9 274.9V271h-3.8v-4.2h-14.2v4.2h-3.8v3.8h-5.3v7h5.3v3.8h3.8v4.2h14.2v-4.2h3.8V282h5.3v-7.1z"/><path fill="#ffb81c" d="M188.8 267.3v4.3l-6 3.5v3h-9.6v-2.8h5.3v-3.8h3.9v-4.2zm.4 22.2v-4.3l6-3.5v-3h9.6v2.8h-5.3v3.8h-3.9v4.2z"/><path fill="#faf6f5" d="M195.3 278.2V275l-6-3.5v-4.3h6.3v4.2h3.9v3.8h5.3v2.9zm-22 .4h9.4v3.1l6 3.5v4.3h-6.3v-4.2h-3.9v-3.8h-5.3z"/><path fill="#e30631" d="M183.1 278.6v3l5.7 3.1v-6z"/><path fill="#0f7d3a" d="m188.8 272-5.7 3.3v2.9h5.7z"/><path fill="#e30631" d="M194.9 278.2v-2.9l-5.7-3.2v6z"/><path fill="#0f7d3a" d="m189.2 284.7 5.7-3.2v-2.9h-5.7z"/></g><path fill="#e30631" fill-opacity="1" d="M137.6 353.7v11.7h-11.1v10.7h-11.3v30.2h11.3V417h11.1v11.7h40.6l7.2 4.3-3.4 2h-14.5l-1.3-1.4h13.1l-3.6-3.7h-18.8l8.5 8.8H183l6-3.6 6 3.6h17.6l8.5-8.8h-18.8l-3.7 3.7h13.2l-1.3 1.4H196l-3.4-2 7.2-4.3h40.5V417h11.2v-10.7h11.3v-30.2h-11.3v-10.7h-11.2v-11.7h-40.5l-7.2-4.3 3.4-2h14.5l1.3 1.4h-13.2l3.7 3.7h18.8l-8.5-8.8H195l-6 3.6-6-3.6h-17.6l-8.5 8.8h18.8l3.6-3.7h-13l1.2-1.4H182l3.4 2-7.2 4.3z"/><path fill="#ffb81c" fill-opacity="1" d="M199.6 428.2H240v-11.7h11.2V406h11.3v-29.4H251v-10.6h-11.2v-11.7h-40.3L183 344h-17.3l-7.7 8h17.6l2.8-2.9h-13l2-2.3H182l19 11.5h34.6V370h11.2v10.6h11.3v21H247v10.6h-11.2V424h-34.6l-19 11.4h-14.8l-2-2.2h13l-2.8-2.9h-17.6l7.7 8h17.3zM177 424h-34.6v-11.7H131v-10.6h-11.3v-21h11.3v-10.6h11.2v-11.7h34.6l19-11.5h14.8l2 2.3h-13l2.8 2.9h17.6l-7.7-8h-17.3l-16.7 10H138V366h-11.2v10.6h-11.3v29.4h11.3v10.6h11.2v11.7h40.3l16.7 10.1h17.3l7.7-8h-17.6l-2.8 3h13l-2 2.1h-14.8z"/><path fill="none" d="m189 351.6-12 7.2h-34.3v11.7h-11.1v10.6h-11.4v20.2h11.4v10.6h11v11.7H177l12 7.2 12-7.2h34.3V412h11.1v-10.6h11.4V381h-11.4v-10.6h-11.1v-11.7H201zm0 3 11.3 6.7h32.5V373H244v10.6h11.2v15.1H244v10.7h-11.2V421h-32.5l-11.3 6.8-11.2-6.8h-32.6v-11.7h-11.1v-10.7h-11.4v-15h11.4V373h11.1v-11.7h32.6z"/><path fill="#0f7d3a" d="M232.3 409v11.7h-32.2l-11.1 6.7-11.1-6.7h-32.2V409h-11.2v-10.7h-11.3v-14.2h11.3v-10.6h11.2v-11.8h32.2L189 355l11.1 6.7h32.2v11.8h11.2V384h11.3v14.2h-11.3V409z"/><g fill="#0a1a1d"><path d="M149.9 404.8v11.4h17.7l-17.7-11.8zm0-27.2v-11.4h17.7L149.9 378zm78.2 27.2v11.4h-17.7l17.7-11.8zm0-27.2v-11.4h-17.7l17.7 11.8z"/><path fill="#e30631" d="m150.3 405.2 15.8 10.6h-15.8Zm0-28c.6-.5 14.8-9.8 15.8-10.6h-15.8Zm77.4 28-15.9 10.6h15.9zm0-28-15.9-10.6h15.9z"/></g><g id="i" fill="#0a1a1d"><path d="M172.4 388v-5.7h-2l-9.4-6-.1.1-9.4 5.9h-2v5.8h-4.4v6.2h4.4v5.8h2l9.5 6 9.5-6h2v-5.8h6.7v-6.2z"/><path fill="#e30631" d="m161 376.9 8.7 5.4h-17.4Zm8.7 23.2-8.7 5.4-8.7-5.4zm-2.1-11.6v5.4h-10.8v-5.4z"/><path fill="#ffb81c" d="M172 394.3v5.4h-10.8v-5.4zm-11.2 0v5.4H150v-5.4zm18-5.8v5.4H168v-5.4zm-22.5 0v5.4h-10.8v-5.4zm15.7-5.8v5.4h-10.8v-5.4zm-11.2 0v5.4H150v-5.4z"/><path d="M153.3 389.7v3h-4.8v-3zm4.5-5.8v3h-4.9v-3zm11.2 0v3h-4.8v-3zm-4.4 5.8v3h-4.9v-3zm11.2 0v3H171v-3zm-6.8 5.8v3h-4.8v-3zm-11.2 0v3h-4.9v-3z"/><path fill="#faf6f5" d="M152.9 390.2h-4v2h4zm4.4-5.8h-3.9v2h4zm11.3 0h-4v2h4zm-4.5 5.8h-4v2h4zm11.3 0h-4v2h4zm-6.8 5.8h-4v2h4zm-11.3 0h-3.9v2h4z"/></g><use xlink:href="#i" width="100%" height="100%" x="0" y="0" fill="#0a1a1d" transform="matrix(-1 0 0 1 377.995 0)"/><g id="j" fill="#0a1a1d"><path d="M200.4 378.4v5.8h-2l-9.4 6-.1-.1-9.4-5.9h-2v-5.8H172v-6.2h5.6v-5.8h2l9.5-6 9.5 6h2v5.8h5.6v6.2z"/><path fill="#ffb81c" d="m189 389.6 8.7-5.4h-17.4Zm8.7-23.2L189 361l-8.7 5.4z"/><path fill="#e30631" d="M200 372.2v-5.4h-10.8v5.4Zm-11.2 0v-5.4H178v5.4Zm16.8 5.8v-5.4h-10.8v5.4zm-11.2 0v-5.4h-10.8v5.4zm-11.2 0v-5.4h-10.8v5.4zm16.8 5.8v-5.4h-10.8v5.4zm-11.2 0v-5.4H178v5.4z"/><path d="M185.8 368v3H181v-3Zm11.2 0v3h-4.8v-3Zm-16.8 5.8v3h-4.9v-3Zm11.2 0v3h-4.8v-3Zm11.3 0v3h-4.9v-3Zm-16.9 5.8v3H181v-3zm11.2 0v3h-4.8v-3z"/><path fill="#faf6f5" d="M185.3 368.5h-3.9v2h4zm11.3 0h-4v2h4zm-16.9 5.8h-4v2h4zm11.3 0h-4v2h4zm11.2 0h-4v2h4zm-16.9 5.8h-3.9v2h4zm11.3 0h-4v2h4z"/></g><use xlink:href="#j" width="100%" height="100%" x="0" y="31.788" fill="#0a1a1d"/><path fill="#0a1a1d" d="m127.7 479.4 42-22.7h38.6l42 22.7v37.2l-42 22.7h-38.6l-42-22.7Z"/><path fill="#0f7d3a" d="M169.9 457.2 128 479.6v36.8l41.8 22.4h38.3l41.7-22.4v-36.8l-41.7-22.4zm.7 3h36.8l39.5 21.2v33.2L207.4 536h-36.8L131 514.6v-33.2z"/><path fill="#ffb81c" d="M189.2 497.8v37.6h18.1l39.2-21v-16.2h-57.7v-37.6h-18.1l-39.2 21v16.2z"/><path fill="#faf6f5" d="M188.8 497.8v37.6h-18.1l-39.2-21v-16.2h57.7v-37.6h18.1l39.2 21v16.2z"/><path fill="#0a1a1d" d="M192.5 533.3v-10.9l-3.5 2.3-3.5-2.3v11h-11l7.4-5.5v-7.7l-11.2-7.2h-8v-30h8l11.2-7.2v-7.7l-7.4-5.4h11v10.9l3.5-2.3 3.5 2.3v-11h11l-7.4 5.5v7.7l11.2 7.2h7.9v30h-7.9l-11.2 7.2v7.7l7.4 5.4z"/><path fill="#ffb81c" d="M193 463.1v11.3l-3.8-2.4v3.2l17.2 11h5.7v11.6h2.7v-14.4h-7.6l-11.5-7.3v-8.2l6.5-4.8H193zm-29.8 35.1v14.4h7.6l11.6 7.4v8.1l-6.6 4.8h9.3v-11.2l3.7 2.3v-3.2l-17.2-10.9h-5.7v-11.7h-2.7z"/><path fill="#faf6f5" d="m175.8 463.1 6.6 4.8v8.2l-11.6 7.3h-7.6v14.4h2.7V486h5.7l17.2-10.9V472l-3.7 2.4V463h-9.3zm36.3 35.1v11.7h-5.7l-17.2 10.9v3.2l3.8-2.3v11.2h9.2l-6.5-4.8V520l11.5-7.4h7.6v-14.4H212z"/><path fill="#e30631" d="M166.4 509.5h5.3l17.3 11 17.3-11h5.3v-23h-5.3l-17.3-11-17.3 11h-5.3z"/><path fill="#0a1a1d" d="M201 503.4h3.7v-1.7h-2.8v-3.2h6v8.1H202v5.6h-11.7v-8h5.2v3.2h-2v1.6h5.4v-3l-22-13.4h-3.7v1.7h2.8v3.2h-6v-8.1h5.8v-5.6h11.7v8h-5.2v-3.2h2V487H179v3zm-2-13.3v-3h-5.4v1.5h2v3.2h-5.2v-8h11.7v5.6h5.7v8h-6v-3.1h2.9v-1.7H201l-22 13.3v3h5.4v-1.5h-2v-3.2h5.2v8h-11.7v-5.6h-5.7v-8h5.9v3.1h-2.8v1.7h3.7z"/><path fill="#faf6f5" d="M199.4 505.7v3.7h-6.3V507h2v-2.4h-4.3v7.1h11v-5.5h5.6v-7.3h-5v2.4h2.7v2.6h-4.2l-22.3-13.6v-3.7h6.2v2.4h-2v2.4h4.4v-7.1h-11v5.5h-5.6v7.3h5v-2.4H173v-2.6h4.2zm1.5-13.6h4.2v2.6h-2.8v2.4h5.1v-7.3h-5.7v-5.5h-10.9v7h4.3V489h-2v-2.4h6.3v3.7l-22.3 13.6H173v-2.6h2.8v-2.4h-5.1v7.3h5.7v5.5h10.9v-7h-4.4v2.3h2v2.4h-6.2v-3.7z"/><path fill="#0a1a1d" d="M238 499.9v11.7h-5v-4.1h-5v4.1h-5V500h5v4.1h5V500zm-17.9 15.6v11.8h-5V523h-5v4.2h-5v-11.8h5v4.2h5v-4.2zm18-19.4v-11.7h-5v4.1H228v-4.1h-5V496h5V492h5v4.1zM140 500v11.7h5v-4.1h5v4.1h5V500h-5v4.1h-5V500zm0-3.8v-11.7h5v4.1h5v-4.1h5V496h-5V492h-5v4.1zm80.1-15.6v-11.8h-5v4.2h-5v-4.2h-5v11.8h5v-4.2h5v4.2zm-62.2 35v11.8h5V523h5v4.2h5v-11.8h-5v4.2h-5v-4.2zm0-35v-11.8h5v4.2h5v-4.2h5v11.8h-5v-4.2h-5v4.2zm65.2-8.2v8.9h16.6zM155 523.7v-8.9h-16.6zm0-51.4v8.9h-16.6zm68.2 51.4v-8.9h16.6z"/><path fill="#e30631" d="M233.5 507v4.2h4.1v-10.9h-4.1v4.2h-6v-4.2h-4v11h4V507zm-18 15.7v4.1h4.2V516h-4.1v4.2h-6v-4.2h-4.1v11h4.2v-4.2zm18-33.8v-4.1h4.1v10.9h-4.1v-4.2h-6v4.2h-4v-11h4v4.2zm-89 18.2v4.1h-4.1v-10.9h4.1v4.2h6v-4.2h4v11h-4V507zm0-18.2v-4.1h-4.1v10.9h4.1v-4.2h6v4.2h4v-11h-4v4.2zm71-15.6v-4.1h4.2V480h-4.1v-4.2h-6v4.2h-4.1v-11h4.2v4.2zm-53 49.4v4.1h-4.2V516h4.1v4.2h6v-4.2h4v11h-4v-4.2zm0-49.4v-4.1h-4.2V480h4.1v-4.2h6v4.2h4v-11h-4v4.2z"/><path fill="#ffb81c" d="M223.6 473v7.8H238zM140 515.3l14.5 7.7v-7.7H140z"/><path fill="#faf6f5" d="m154.4 473-14.4 7.8h14.4zm69.2 42.3v7.7l14.4-7.7z"/><path fill="#ffb81c" d="M256.9 530.8c-.8 3.4-3.5 6-4.2 9.5-1.2-3.6-2.4-6.7-1.6-10.8.7-2.8 3.1-5 3.4-7.9 2.6 2.4 3.2 5.8 2.4 9.2zm.7 14.3c-2.3 3-5.4 5.4-8.8 7 .6-2.7-.6-4.7-2-6.9-1.7-2.5-2.6-5-1.2-8 .7 1.5 1.5 2.8 2.5 4.1 1.6 2 2.5 3.9 2.8 6.5 1.7-1.3 2.5-3.2 3.4-5a16 16 0 0 1 6.4-6.4c-.7 3-1.3 6.2-3.1 8.7zm-12.6 9.2c.5 1.7.9 3.4.8 5.2 1.5-1.6 3.4-2.8 5.2-4.1 2.4-2 5.2-3.3 7.1-5.8-.3 3.6-1.8 6.6-4.8 8.8-3 2.3-6.8 3.6-9.9 6 .5-3.3-.7-6-1.8-9-.8-2.8 0-5.8 2-8 0 2.5.7 4.6 1.4 6.9zm-7 11.1c-.6 2.5-2.4 4.5-3.7 6.8 3.3-1 6.3-2.8 9.2-4.5 3.6-2 7.4-3.2 10.7-5.8-1.6 6-5.6 9.4-11.4 11.2-4 1.2-7.3.6-12.1 2.5.5-3.3 1.5-6.8 3-9.7 1.2-2.1 2.6-4.2 3.3-6.6a8 8 0 0 1 1 6.1zm-12.1 9a15.2 15.2 0 0 1-4.5 5c4.7.2 8.4-2.7 13-2.9 2.8 0 5.5.8 8.4.6a26 26 0 0 1-11.2 4.8c-5.4.7-10.4-.6-16.3-.1 2.8-2 4.2-4.6 5.9-7.4 2.3-3.6 4.4-6 8.8-6.6-1.8 2-2.8 4.4-4.1 6.7zm-16.7 7.8c8.3 1.4 16.2 3.3 24.6 3.3a39.5 39.5 0 0 1-27.7.5 31 31 0 0 0-12.7-2.5c-5.6.4-12.4 2.6-19.9 10.5l-3-2.4a45.1 45.1 0 0 1 38.7-9.4z"/></svg>