<svg xmlns="http://www.w3.org/2000/svg" xmlns:xlink="http://www.w3.org/1999/xlink" width="1200" height="720" fill="#fcd80e"><path fill="#faf6f5" d="M0 0h1200v720H0Z"/><path fill="#003396" d="M400 80h800v80H400Zm0 160h800v80H400ZM0 400h1200v80H0Zm0 160h1200v80H0Z"/><g id="c"><g id="b"><g id="a"><path fill="#6c401f" d="M172 202h56l12-59c21-47-9-57 21-79-40 8-23 38-46 60l-15-76Z"/><path d="M221 154c22-33 14-70 27-80-12 16 7 31-11 68Zm-4 0c-5-2-10-3-16-3V70Z"/></g><use xlink:href="#a" transform="rotate(-45 200 200)"/></g><use xlink:href="#b" transform="rotate(-90 200 200)"/></g><use xlink:href="#c" transform="rotate(-180 200 200)"/><circle cx="200" cy="200" r="46"/><path fill="#6c401f" d="M224 225c1-3-1-7-4-7l4 7Zm-19-40c2 1 3-5 13-5 12 0 13 6 16 2-4-3-10-6-16-6s-15 8-13 9Zm15 9c4-2 3-7 1-8 6 2 5 8-1 8Zm-3 0c-4 0-7-4-8-3-3 3 12 8 20 0l-3 1c1-1 1-3 0-4 3 1 3 2 5 2-6-8-23-8-23 0 2-2 4-3 7-4-3 3-1 7 2 8Zm-22-9c2-1-7-9-13-9s-12 3-16 6c3 4 4-2 16-2 10 0 11 6 13 5Zm-12 29c10-6 13-1 17-1s7-5 17 1c0-3-4-3-6-5s-1-6-5-6c4 3 1 8-2 3 1 3-2 5-4 5s-5-2-4-5c-3 5-6 0-2-3-4 0-3 4-5 6s-6 2-6 5Zm-3-20c-6 0-7-6-1-8-2 1-3 6 1 8Zm3 0c3-1 5-5 2-8 3 1 5 2 7 4 0-8-17-8-23 0 2 0 2-1 5-2-1 1-1 3 0 4l-3-1c8 8 23 3 20 0-1-1-4 3-8 3Zm32 29c-8 3-22 3-30 0 3 0 7-1 15-1s12 1 15 1Zm-15 13c7 0 4-2 0-2s-7 2 0 2Zm-24-11 4-7c-3 0-5 4-4 7Zm3-3c15 9 27 9 42 0-4 0-11-4-14-4-4 0-4 1-7 1s-3-1-7-1c-3 0-10 4-14 4Z"/></svg>