<svg xmlns="http://www.w3.org/2000/svg" width="1275" height="850" viewBox="1488.189 992.126 1275 850"><path fill="#faf6f5" d="M1488.2 992.1h1275v850h-1275z"/><path fill="#24a34e" stroke="#0a1a1d" stroke-miterlimit="10" stroke-width="3" d="M1886 1567.6s-1.1-7 12.2-12c13.3-5.2 14.3-24.3 11.6-37 0 0-6.9 12-15.3 16 0 0-13.7 7.2-14.4 20.9 0 0 0 5-1.1 8.9-.6 2-6.6-17.1 4.9-31.4 11.8-14.8 15.2-26.7 5.7-50 0 0-.9 14.1-10.2 22.2-9.2 8-10.4 8.7-10.3 28 0 0 .2 6.6-3.4 8.8 0 0-7.2-10.6-9.1-17.6-2-7-2.8-9.9 5.4-18 0 0 26.5-17 7.4-54.5 0 0-.6 12.9-9.7 20.5-9.2 7.6-8.4 12.7-8.9 26-.4 13.1-1.3 12.2-2.3 14 0 0-16.8-30.8-3.9-47.3s20.2-19.9 6-50.5c0 0 .6 15.7-10.9 23.5-11.4 7.7-8.8 26-8.8 26s.8 6.8-1.6 11.7c0 0-16.2-31.6-.7-48.6 13-14.4 14-24.5 6.9-45 0 0-.9 9.4-8.1 14.6-7.2 5-13 10.2-11.7 30 0 0 .6 13.8-1.2 17.6 0 0-6.7-12.5-8.7-20.8-1.9-8.2-2.6-13 2.4-21.3 5-8.2 25-31.8 1.2-65.8 0 0-.8 11-6.8 21-6 9.9-3.2 21.7-2 30.7s-3 17.7-3 17.7-10.3-19-8.1-40.7c2.2-21.7-6.7-39.6-26.7-52.5 0 0-14.6 33.9 5.3 51.1 0 0 17 16.8 21.2 37.1 0 0-12.8-1.2-24.5-23.9-11.6-22.7-35.8-19-37.4-19.2 0 0 4 35 41.1 45 0 0 23.8 4 28.2 21.5 0 0 4 12 5.6 18.3 0 0-7.5-3-14.4-13.2-7-10.3-6-11.5-29.5-13.8 0 0-9.5-1.1-14.5-7.8 0 0 9.9 37.1 35.2 36.8 0 0 23.2-2.5 36.2 28l-6-4c-3.3-2.3-11.9-6.6-28.8-4.6s-21.7-.8-26-2.2c0 0 17.1 31.4 41.3 22.1 24.2-9.3 35.9 24.7 36.2 25.3 0 0-3.3-2.5-7.6-6.7-4.2-4.2-13.1-9.3-30-4 0 0-12 4.7-24.2 1 0 0 11.8 22.8 39.3 18.9a30 30 0 0 1 34.5 20.3s-3.6-2.1-6.1-4.2c-2.6-2-11.8-7.3-31.8-1.4-19.9 6-27.1-.9-27.1-.9s11 20.2 32.3 22.5c0 0 11.8-.1 16.8-2s18.3-4.8 27.5 8.4c0 0-2.6.5-6.4-1.2 0 0-14.2-5.2-25 3.8 0 0-9.5 9.8-23 8 0 0 17.5 17 45.4 2.6 0 0 9.4-6.8 16.3-1.6 7 5.3 23-5 23-5z"/><path fill="#ffb81c" stroke="#0a1a1d" stroke-miterlimit="10" stroke-width="3" d="M2041.1 1146.7s-3.2-29 19.9-31.7c24-3 36 2.2 36 2.2l10.8 21.2-3.8 14.3-15 6.8s2.6-22-17.5-22.4c-5-.1-8 2-16.1.6-8.2-1.3-12.5 7.7-14.3 9z"/><path fill="#ffb81c" stroke="#0a1a1d" stroke-miterlimit="10" stroke-width="3" d="M2203.6 1218.2c-3.4 4.5-17.2 6-17.2 6s14.2 11 20.3 26.4c6 15.6-164.1.1-164.1.1s7.3-5.2 12.4-15.2c0 0-7.6 2.8-15-4.6 0 0 5.5 1.8 12.9-9.4 0 0 11-14 18.6-17.7 0 0-3.6 2.2-12.1-2.5 0 0 14.7-1.8 20-27 0 0 1-5.6 6.5-13.7 5.6-8 4.5 1.6 14.8-10.8 0 0 4.7-8.8.6-14.2s-8.6-3.4-17.2-8.6c-8.7-5.2-12.5-8-9.6-16 3-8 10.7-6.8 11.7-6.8 1.1 0 1.7-7 11.1-11.7s34.6-2.7 38.3-.6c3.7 2 18.9 6.5 27.7 28.9 8.9 22.3-2.3 30.7 21.8 64.5 0 0-9.7 2-15.9.2 0 0 12.5 22.2 34.4 32.7z"/><path fill="none" stroke="#0a1a1d" stroke-miterlimit="10" stroke-width="3" d="M2098.3 1123.8c-19.6-.9-12-19.6-12-19.6"/><path fill="#ffb81c" stroke="#0a1a1d" stroke-miterlimit="10" stroke-width="3" d="M2132.4 1126.4s-3.5-1.6-6.4-5.5c-4.1-5.5-13.3-8-18.2-3 0 0-5 5.6-9.5 6 0 0 5 1.5 8.5 4.7s7 5.5 12.3 4.8c5.1-.7 6-3.4 8.4-5 2.4-1.7 4.9-2 4.9-2z"/><path fill="#ffb81c" stroke="#0a1a1d" stroke-width="3" d="M2260 1405.8s18.3 14.9 33.6 0c0 0 6.2 7.4 18.6 5.2 12.4-2.1 14.4-8.7 15.6-12.4 0 0 10.7 6.3 19.8 1.3 9-5 9-12.4 9-12.4s15.8 3.1 23.8-7.5c8.1-10.7 3.2-21.2-1.1-22.5 0 0 17 4.5 21.6-10.1 4-12.5-5-18.9-5-18.9s36-.2 50.6-11.4c0 0 12.2-7.6 5-15.7 0 0 32.2-5.2 40.2-18 0 0 3.6-3.6 2.4-9.8 0 0-.2-3.5-3.7-3.7 0 0 36.7-5.7 47.4-17.8 0 0 5-5.6 2.5-13 0 0-.5-2-1.4-3.3 0 0 33.5-7.1 50-22 0 0 9.5-8.5 4.6-20 0 0 56-15.2 43-39.9 0 0 26.1-8.5 17.9-32 0 0 21.6-11 12.2-28.5-9-16.6-36.8 3-69.6 12 0 0-89 28-132.7 35.5L2339.9 1326l-72.5 28-7.4 51.8z"/><path fill="#ffb81c" stroke="#0a1a1d" stroke-width="3" d="M2259.1 1269.4s11.7-8.8 32.4 1.5c0 0 7 4.9 12.6-.4 4.6-4.4 5-12.6-1.3-17.3-15.5-11.5-21.3-46 2.3-60.2 0 0 34.2-20.3 159.7-52.3 0 0 10.5-2.9 16.1-1.5a15.6 15.6 0 0 1 11.3 11.4s5.6 16-13.2 25c0 0-8.6 4-17.3 6.5 0 0 9.6-2.1 13.7 7.4 4 9.2-1.7 18.5-19.4 24.5 0 0-4.8 1.8-11.6 3.5 0 0 15 4.3 7.8 16.6 0 0-6.5 12.8-29.4 15 0 0 17.1 2 5 18.2 0 0-5.3 9-22 12.2 0 0 12.7.4 6.3 11.8-6.4 11.4-21.4 17.8-36.2 18.9 0 0-8 .4-13.7-.8 0 0 14.1 7 5.8 18.8 0 0-6 8.4-21.3 8 0 0 4 13.2-7.2 18.1-8.7 4-16-2.3-16-2.3s3 14.2-9.7 19.1c0 0-6.3 3.3-15.8 0 0 0-7.2 16.2-32.9 4.8-25.6-11.3-6-106.5-6-106.5z"/><path fill="none" stroke="#0a1a1d" stroke-width="3" d="M2654.4 1121.8s-40.3 23.4-165.9 46.7"/><path fill="#ffb81c" stroke="#0a1a1d" stroke-width="3" d="M1934.4 1534.6s-15 25.7-33 26c0 0-31.2-3.7-40 4.4-6.1 5.7-12.4 10.4-15 24.9s5 17.6 6.8 18.2c0 0 1.3 10.4 11.6 7.7 0 0 .6 10.7 18.6 5.6s25.6-3.6 29.2-21.6c3.5-18 6.8-17.7 10-19.9 4.3-2.9 12.4-5.6 18.5-9 5.4-3.2 26.1-13.7 33.2-14.6 7-.8 5.5-24.6 5.5-24.6h-18.3l-8.8-13-18.3 15.9z"/><path fill="none" stroke="#0a1a1d" stroke-width="3" d="M2636.5 1154s-109.1 35.5-160 39.9m117 0s-64 20-139 32.8m84.4 9s-72.3 17.4-106.9 20.3"/><path fill="none" stroke="#0a1a1d" stroke-miterlimit="10" stroke-width="3" d="M2490.4 1269.9s-61.2 12.8-76.7 14.3"/><path fill="#2d86cf" stroke="#0a1a1d" stroke-miterlimit="10" stroke-width="3" d="m2421.5 1363 3 97-17-10-28.6 123.2-11.8-8.4 27.8-118-19.4.3z"/><path fill="none" stroke="#0a1a1d" stroke-miterlimit="10" stroke-width="3" d="M2451.4 1301.4s-44.6 6.8-62.4 6.4m7 20.7s-18-.8-26.8-2.3m10 31.3s-15.3-4.1-24.3-10m1.7 40s-11.8-4.5-17.5-17m-11.3 28.1s-9.1-8.2-9.7-17.3"/><path fill="#2d86cf" stroke="#0a1a1d" stroke-miterlimit="10" stroke-width="3" d="m2532.4 1406.1-40.6 87.2-10.7-17.2-85.6 101.2-9.3-10.4 85.3-100-17.3-9.2z"/><path fill="none" stroke="#0a1a1d" stroke-miterlimit="10" stroke-width="3" d="M2293.6 1405.8s3.4-3 1-15.8"/><path fill="#2d86cf" stroke="#0a1a1d" stroke-miterlimit="10" stroke-width="3" d="m2495.4 1342-21 94.7-14-14.3-76.7 147.4-11.8-7 77.2-147-18.8-5z"/><path fill="none" stroke="#0a1a1d" stroke-miterlimit="10" stroke-width="3" d="M2298 1371.1s1.8-3.6 1.2-9.4"/><path fill="#ffb81c" stroke="#0a1a1d" stroke-width="3" d="M1992 1405.8s-18.3 14.9-33.6 0c0 0-6.2 7.4-18.6 5.2s-14.5-8.7-15.7-12.4c0 0-10.7 6.3-19.7 1.3-9-4.9-9-12.4-9-12.4s-15.8 3.1-23.9-7.5c-8-10.7-3.1-21.2 1.2-22.5 0 0-17 4.5-21.6-10.1-4-12.5 4.9-18.9 4.9-18.9s-35.8-.2-50.5-11.4c0 0-12.2-7.6-5-15.7 0 0-32.2-5.2-40.3-18 0 0-3.5-3.6-2.3-9.8 0 0 .2-3.5 3.7-3.7 0 0-36.8-5.7-47.4-17.8 0 0-5.1-5.6-2.6-13 0 0 .6-2 1.5-3.3 0 0-33.5-7.1-50-22 0 0-9.6-8.5-4.6-20 0 0-56-15.2-43-39.9 0 0-26.2-8.5-18-32 0 0-21.5-11-12.1-28.5 9-16.6 36.8 3 69.6 12 0 0 88.9 28 132.7 35.5L1912 1326l72.6 28 7.4 51.8z"/><path fill="none" stroke="#0a1a1d" stroke-miterlimit="10" stroke-width="3" d="M2362.5 1187.3s-20.6 8.2-27.5 19.6c-6.9 11.4-2.3 22.5 0 28.9 1.2 3.1 15.7 31.2-1.4 51.5"/><path fill="#ffb81c" stroke="#0a1a1d" stroke-width="3" d="M1992.9 1269.4s-11.7-8.8-32.5 1.5c0 0-7 4.9-12.5-.4-4.6-4.4-5-12.6 1.3-17.3 15.5-11.5 21.3-46-2.3-60.2 0 0-34.3-20.3-159.7-52.3 0 0-10.6-2.9-16.2-1.5a15.6 15.6 0 0 0-11.3 11.4s-5.6 16 13.3 25c0 0 8.5 4 17.3 6.5 0 0-9.6-2.1-13.8 7.4-3.9 9.2 1.8 18.5 19.5 24.5 0 0 4.8 1.8 11.6 3.5 0 0-15.1 4.4-7.8 16.6 0 0 6.4 12.8 29.4 15 0 0-17.2 2-5 18.2 0 0 5.2 9 22 12.2 0 0-12.7.4-6.3 11.8 6.4 11.4 21.4 17.8 36.2 18.9 0 0 8 .4 13.6-.8 0 0-14 7-5.8 18.8 0 0 6.1 8.4 21.4 8 0 0-4 13.2 7.2 18.2 8.7 3.8 16-2.4 16-2.4s-3 14.2 9.7 19.1c0 0 6.3 3.3 15.7 0 0 0 7.3 16.2 33 4.8 25.6-11.3 6-106.5 6-106.5z"/><path fill="none" stroke="#0a1a1d" stroke-miterlimit="10" stroke-width="3" d="m2362.2 1309.4-7.3-2.4m50.9-27.5s-12.3 2.5-24.4 2.6m41.4-33s-14.4 1.5-28 1.3m49.5-32.9s-20.8 4.1-32 4.3m49.4-39.7s-25.8 7.3-44.9 10m-42.5 15s18.5 17.2-3.7 33.2c0 0 9.2 14.5-9.2 29.6"/><path fill="#ffb81c" stroke="#0a1a1d" stroke-width="3" d="M1994.4 1416.2s-3.8 20.2-33.6 45.7c0 0-23 20.3-22.5 43.7.6 23.8-4.1 26.5-13.2 34.6 0 0 18.7 1.4 27.8-11 0 0-.4 20.7-3.2 22.6 0 0 5.9.4 14.4-9 0 0 5-5.3 9.8-7.4 0 0-5.5 14.3-1.2 27.6 0 0 1.4-5.2 8.7-7.5 0 0 13.2-2.7 18.3-21.7 0 0 3.3-12.7 24-23.9 0 0 23.4-8.8 22.8-20.3s-52.1-73.4-52.1-73.4z"/><path fill="none" stroke="#0a1a1d" stroke-miterlimit="10" stroke-width="3" d="M2366.3 1277s2.7 27.7-31.1 27.7c0 0 6.5 24.6-26.2 23.8 0 0-3.7 19.7-27.3 15.8"/><path fill="#ffb81c" stroke="#0a1a1d" stroke-width="3" d="M2317.6 1534.6s15 25.7 33 26c0 0 31.2-3.7 40 4.4 6.1 5.7 12.4 10.4 15 24.9 2.5 14.5-5 17.6-6.8 18.2 0 0-1.3 10.4-11.6 7.7 0 0-.6 10.7-18.6 5.6s-25.6-3.6-29.2-21.6c-3.5-18-6.8-17.7-10-19.9-4.3-2.9-12.4-5.6-18.5-9-5.4-3.2-26.1-13.7-33.2-14.6-7-.8-5.5-24.6-5.5-24.6h18.3l8.8-13 18.3 15.9z"/><path fill="#ffb81c" stroke="#0a1a1d" stroke-width="3" d="M2257.6 1416.2s3.8 20.2 33.6 45.7c0 0 23 20.3 22.5 43.7-.6 23.8 4.1 26.5 13.2 34.6 0 0-18.7 1.4-27.8-11 0 0 .4 20.7 3.2 22.6 0 0-5.9.4-14.4-9 0 0-5-5.3-9.8-7.4 0 0 5.5 14.3 1.2 27.6 0 0-1.4-5.2-8.7-7.5 0 0-13.2-2.7-18.3-21.7 0 0-3.3-12.7-24-23.9 0 0-23.4-8.8-22.8-20.3.6-11.6 52.1-73.4 52.1-73.4z"/><path fill="none" stroke="#0a1a1d" stroke-width="3" d="M2333.7 1560.7s5.3 1.2 17 0"/><path fill="none" stroke="#0a1a1d" stroke-miterlimit="10" stroke-width="3" d="M2383.3 1575.2s16.3-2.5 15.5 33m-25.3-25s14.7-1.8 13.7 32.6"/><path fill="none" stroke="#0a1a1d" stroke-width="3" d="M2231 1500.4s7.2 1.5 12 7c5 5.6 14.4 4.6 14.4 4.6s-5-4.1-6.8-14.5-7.5-13.4-7.5-13.4m16.9-9.9s7 1.5 12 7 14.3 4.6 14.3 4.6-5-4.1-6.9-14.5-7.4-13.4-7.4-13.4m-7.2 56.5s6.2 1.3 10.5 6.2 12.6 4 12.6 4-4.5-3.6-6-12.7c-1.6-9-6.6-11.7-6.6-11.7"/><path fill="#ffb81c" stroke="#0a1a1d" stroke-miterlimit="10" stroke-width="3" d="M2149.1 1676.9s5.4 23.6 24 21.7c0 0 13.2-1.2 12.2-23.2 0 0 19.5 10.4 22.6-15.3 0 0 17.7 4.1 17.5-19.9 0 0 16.6 3 14.6-18.4 0 0 17.9 4.7 17.9-15.3 0 0 41.9-7-45.4-86.6l-78 46.4 14.6 110.6z"/><path fill="#ffb81c" stroke="#0a1a1d" stroke-width="3" d="M2140.5 1570.7s13 11.5 22.2-5.7c0 0 12.6-.6 14.6-10.1 0 0 10.2-1 12.2-10.8 0 0 14-1.4 13.5-13.2 0 0 25.4-2 0-30.7-25.3-28.8-68.4 47.6-68.4 47.6l5.9 23z"/><path fill="none" stroke="#0a1a1d" stroke-miterlimit="10" stroke-width="3" d="M2185.3 1675.4s-2-41.6-38-101.3m60.6 86s5.6-24-45.2-95c0 0 6-17-12.2-28m75 103.1s1.5-26-48.2-85.3c0 0 4.4-15.3-13.7-27.6m76.4 94.5s-1.9-26.3-50.5-77.7c0 0 2.4-15.7-15-25.5m83.4 87.9s-3.6-30-54.9-75.6c0 0 1.8-11.8-15.3-23.9"/><path fill="#ffb81c" stroke="#0a1a1d" stroke-miterlimit="10" stroke-width="3" d="M2102.9 1676.9s-5.4 23.6-24 21.7c0 0-13.2-1.2-12.2-23.2 0 0-19.5 10.4-22.6-15.3 0 0-17.7 4.1-17.5-19.9 0 0-16.6 3-14.6-18.4 0 0-17.9 4.7-17.9-15.3 0 0-41.9-7 45.4-86.6l78 46.4-14.6 110.6z"/><path fill="#ffb81c" stroke="#0a1a1d" stroke-width="3" d="M2111.5 1570.7s-13 11.5-22.2-5.7c0 0-12.6-.6-14.6-10.1 0 0-10.2-1-12.1-10.8 0 0-14-1.4-13.6-13.2 0 0-25.4-2 0-30.7 25.3-28.8 68.4 47.6 68.4 47.6l-5.9 23z"/><path fill="none" stroke="#0a1a1d" stroke-miterlimit="10" stroke-width="3" d="M2066.7 1675.4s2-41.6 38-101.3m-60.6 86s-5.6-24 45.2-95c0 0-5.9-17 12.2-28"/><path fill="#ffb81c" stroke="#0a1a1d" stroke-width="3" d="M2126 1563.6c12.6 0 26.8 78.6 23.1 126-1.3 17.1-10.5 31.2-23.1 31.2s-21.8-14-23.1-31.3c-3.7-47.3 10.5-126 23.1-126"/><path fill="none" stroke="#0a1a1d" stroke-miterlimit="10" stroke-width="3" d="M2026.6 1640.2s-1.6-26 48.1-85.3c0 0-4.4-15.3 13.7-27.6m-76.4 94.5s1.9-26.3 50.6-77.7c0 0-2.5-15.7 15-25.5"/><ellipse cx="2126.001" cy="1562.963" fill="#ffb81c" stroke="#0a1a1d" stroke-width="3" rx="17.41" ry="25.785"/><path fill="none" stroke="#0a1a1d" stroke-miterlimit="10" stroke-width="3" d="M1994.1 1606.5s3.6-30 54.9-75.6c0 0-1.8-11.8 15.3-23.9"/><path fill="#faf6f5" stroke="#0a1a1d" stroke-width="3" d="M2126 1557.3s147.7-65.4 148-216.8h-296c.3 151.4 148 216.8 148 216.8z"/><path fill="none" stroke="#0a1a1d" stroke-miterlimit="10" stroke-width="3" d="M2046.3 1340.5h22.8m-68.4 0h22.8m68.3 0h22.8"/><path fill="#961538" stroke="#0a1a1d" stroke-width="3" d="M2000.7 1340.5v96.7s11.4 22.5 22.8 36.5v-133.2h-22.8zm45.6 0V1500s14.2 14 22.8 20.7v-180.2h-22.8zm45.5 0v197.1s16.3 10.5 22.8 14v-211h-22.8z"/><path fill="none" stroke="#0a1a1d" stroke-width="3" d="M2000.7 1340.5h22.8m22.8 0h22.8m22.7 0h22.8"/><path fill="#961538" stroke="#0a1a1d" stroke-width="3" d="M2251.3 1340.5v96.7s-11.4 22.5-22.8 36.5v-133.2h22.8zm-45.6 0V1500s-14.2 14-22.8 20.7v-180.2h22.8zm-45.5 0v197.1s-16.3 10.5-22.8 14v-211h22.8z"/><path fill="#2d86cf" stroke="#0a1a1d" stroke-miterlimit="10" stroke-width="3" d="m2364.7 1614.7-5.7 23.5 15.7 15.7-22.2 93.8-19.8-26.5-29.3 13.6 22.3-93.8 20.6-5.8 5.3-23.4s6.2-2.4 13.1 3z"/><path fill="#2d86cf" stroke="#0a1a1d" stroke-miterlimit="10" stroke-width="3" d="m2370 1599.2-11.3 21.2 11.3 19.4-44.5 84.6-12.6-31-31.6 5.2 44.5-84.6h21.3l11-21.1s7.9 0 11.9 6.3z"/><path fill="#2d86cf" stroke="#0a1a1d" stroke-miterlimit="10" stroke-width="3" d="m2371.9 1605.4-30.1 38.2 6.9 21.6-61.4 71.9-5.7-33.2-31.9-2.4 61.4-71.9 20.8 5.1 32-40.6s8.5 4.3 8 11.3z"/><path fill="none" stroke="#0a1a1d" stroke-width="3" d="M1597.6 1121.8s40.3 23.4 165.9 46.7m-148-14.6s109.1 35.6 160 40m-117 0s64 20 139 32.8m-84.4 9s72.3 17.4 106.8 20.3"/><path fill="none" stroke="#0a1a1d" stroke-miterlimit="10" stroke-width="3" d="M1761.6 1269.9s61.2 12.8 76.7 14.3m-37.8 17.2s44.7 6.8 62.4 6.4m-6.9 20.7s18-.8 26.7-2.3m-10 31.3s15.4-4.1 24.4-10m-1.8 40s11.8-4.5 17.5-17m11.3 28.1s9.2-8.2 9.8-17.3m24.5 24.5s-3.5-3-1.1-15.8m-3.4-18.9s-1.7-3.6-1.1-9.4m-63.4-174.4s20.7 8.2 27.6 19.6c6.8 11.4 2.3 22.5 0 28.9-1.2 3.1-15.8 31.2 1.3 51.5m-28.6 22 7.4-2.3m-51-27.5s12.4 2.5 24.4 2.6m-41.3-33s14.4 1.5 28 1.3"/><path fill="#24a34e" stroke="#0a1a1d" stroke-miterlimit="10" stroke-width="3" d="M1882.9 1610.5s-.5-12.6 15.5-13.5l46.9 65.2s-1.8 4.2-23 3.8c0 0-2.3 0-3.5 2.4-1.8 3.9-36-57.9-36-57.9z"/><path fill="none" stroke="#0a1a1d" stroke-miterlimit="10" stroke-width="3" d="M1807.6 1217.5s20.9 4.1 32 4.3m-49.3-39.7s25.7 7.3 44.9 10m42.4 15s-18.5 17.2 3.8 33.2c0 0-9.3 14.5 9.2 29.6m-5 7.1s-2.7 27.7 31.2 27.7c0 0-6.5 24.6 26.1 23.8 0 0 3.8 19.7 27.4 15.8"/><path fill="none" stroke="#0a1a1d" stroke-width="3" d="M1918.3 1560.7s-5.4 1.2-17 0"/><path fill="none" stroke="#0a1a1d" stroke-miterlimit="10" stroke-width="3" d="M1868.7 1575.2s-16.4-2.5-15.6 33m25.4-25s-14.8-1.8-13.8 32.6"/><path fill="none" stroke="#0a1a1d" stroke-width="3" d="M2021 1500.4s-7.2 1.5-12 7-14.4 4.6-14.4 4.6 5-4.1 6.8-14.5 7.5-13.4 7.5-13.4m-16.9-9.9s-7 1.5-12 7-14.3 4.6-14.3 4.6 5-4.1 6.9-14.5 7.4-13.4 7.4-13.4m7.2 56.5s-6.2 1.3-10.5 6.2-12.5 4-12.5 4 4.4-3.6 6-12.7c1.5-9 6.5-11.7 6.5-11.7"/><path fill="#012778" stroke="#0a1a1d" stroke-miterlimit="10" stroke-width="3" d="M2274 1230.5s-72.4 38-148-3c-75.6 41-148 3-148 3v110h296v-110z"/><path fill="#2d86cf" stroke="#0a1a1d" stroke-miterlimit="10" stroke-width="3" d="M1609.3 1515.7c7.2-2.9 12.3-5.7 12.3-13.4 0-1.8-1-5.8-3-12l-48.2-147.3c-2.9-8.8-5-14-6-15.9-2.2-4.1-6.4-5.8-12.2-8.2h61.3c-6.7 3.1-12.7 5.6-12.7 12.7 0 2.7.8 6.5 2.4 11.4l36.9 115.5 36.8-115.5c1.6-5 2.4-8.7 2.4-11.4-.1-7.3-6.4-9.9-12.6-12.7h59.3c-5.4 2.2-9.8 3.9-12 8.2-1 2-3.2 7.1-6.1 15.9l-48.2 147.2c-2 6.3-2.8 10.4-3 12.3 0 0-2.3 9.3 12.3 13.2h-59.7zm1026.7-15v-166.8c0-2.9-.5-5.1-1.4-6.6-1-1.6-5.1-6-11-8.4h55.1c-5.9 2-10 6.7-11 8.3-.9 1.6-1.4 3.8-1.4 6.7v166.7c0 3 .5 5.3 1.5 6.9 1 1.5 5 5.4 11 8.2h-55.2a29 29 0 0 0 11-8.3 13 13 0 0 0 1.4-6.8z"/></svg>