<svg xmlns="http://www.w3.org/2000/svg" viewBox="0 0 120 10">
  <path fill="#840484" d="M0 0h10v10H0z"/>
  <path fill="#B91E1C" d="M10 0h10v10H10z"/>
  <path fill="#E3D2CD" d="M20 0h10v10H20z"/>
  <path fill="#C96A20" d="M30 0h10v10H30z"/>
  <path fill="#CAB184" d="M40 0h10v10H40z"/>
  <path fill="#ECC41D" d="M50 0h10v10H50z"/>
  <path fill="#6D7A44" d="M60 0h10v10H60z"/>
  <path fill="#0E8E3D" d="M70 0h10v10H70z"/>
  <path fill="#1ACB7A" d="M80 0h10v10H80z"/>
  <path fill="#6FADDA" d="M90 0h10v10H90z"/>
  <path fill="#10395C" d="M100 0h10v10h-10z"/>
  <path fill="#0D70DD" d="M110 0h10v10h-10z"/>
</svg>
