<svg xmlns="http://www.w3.org/2000/svg" viewBox="0 0 200 10">
  <path fill="#840484" d="M0 0h10v10H0z"/>
  <path fill="#E864B4" d="M10 0h10v10H10z"/>
  <path fill="#E93644" d="M20 0h10v10H20z"/>
  <path fill="#C1A4A6" d="M30 0h10v10H30z"/>
  <path fill="#D01A1D" d="M40 0h10v10H40z"/>
  <path fill="#672917" d="M50 0h10v10H50z"/>
  <path fill="#E4D5CF" d="M60 0h10v10H60z"/>
  <path fill="#C96A20" d="M70 0h10v10H70z"/>
  <path fill="#D49024" d="M80 0h10v10H80z"/>
  <path fill="#CAB184" d="M90 0h10v10H90z"/>
  <path fill="#F4CC1C" d="M100 0h10v10h-10z"/>
  <path fill="#6D7A44" d="M110 0h10v10h-10z"/>
  <path fill="#9CD521" d="M120 0h10v10h-10z"/>
  <path fill="#1C3D15" d="M130 0h10v10h-10z"/>
  <path fill="#0E8E3D" d="M140 0h10v10h-10z"/>
  <path fill="#1ACB7A" d="M150 0h10v10h-10z"/>
  <path fill="#15513F" d="M160 0h10v10h-10z"/>
  <path fill="#6FADDA" d="M170 0h10v10h-10z"/>
  <path fill="#0D70DD" d="M180 0h10v10h-10z"/>
  <path fill="#083086" d="M190 0h10v10h-10z"/>
</svg>
