<svg xmlns="http://www.w3.org/2000/svg" width="400" height="20">
  <path fill="#E3D7D2" d="M0 0h20v20H0z"/>
  <path fill="#73744F" d="M20 0h20v20H20z"/>
  <path fill="#1C3E16" d="M40 0h20v20H40z"/>
  <path fill="#17533F" d="M60 0h20v20H60z"/>
  <path fill="#6EACD9" d="M80 0h20v20H80z"/>
  <path fill="#0C70DD" d="M100 0h20v20h-20z"/>
  <path fill="#083086" d="M120 0h20v20h-20z"/>
  <path fill="#1ACB7A" d="M140 0h20v20h-20z"/>
  <path fill="#118E3E" d="M160 0h20v20h-20z"/>
  <path fill="#70EC19" d="M180 0h20v20h-20z"/>
  <path fill="#ACE019" d="M200 0h20v20h-20z"/>
  <path fill="#F4CC21" d="M220 0h20v20h-20z"/>
  <path fill="#DAB88A" d="M240 0h20v20h-20z"/>
  <path fill="#D49024" d="M260 0h20v20h-20z"/>
  <path fill="#CC6A21" d="M280 0h20v20h-20z"/>
  <path fill="#662818" d="M300 0h20v20h-20z"/>
  <path fill="#E93644" d="M320 0h20v20h-20z"/>
  <path fill="#CE1C1F" d="M340 0h20v20h-20z"/>
  <path fill="#E864B4" d="M360 0h20v20h-20z"/>
  <path fill="#840484" d="M380 0h20v20h-20z"/>
</svg>
