<svg xmlns="http://www.w3.org/2000/svg" viewBox="0 0 240 10">
  <path fill="#840484" d="M0 0h10v10H0z"/>
  <path fill="#E864B4" d="M10 0h10v10H10z"/>
  <path fill="#E93644" d="M20 0h10v10H20z"/>
  <path fill="#C1A4A6" d="M30 0h10v10H30z"/>
  <path fill="#D9191E" d="M40 0h10v10H40z"/>
  <path fill="#96251B" d="M50 0h10v10H50z"/>
  <path fill="#672917" d="M60 0h10v10H60z"/>
  <path fill="#F0DAD0" d="M70 0h10v10H70z"/>
  <path fill="#C96A20" d="M80 0h10v10H80z"/>
  <path fill="#D49024" d="M90 0h10v10H90z"/>
  <path fill="#CAB184" d="M100 0h10v10h-10z"/>
  <path fill="#F4CC1C" d="M110 0h10v10h-10z"/>
  <path fill="#6D6B4A" d="M120 0h10v10h-10z"/>
  <path fill="#9CD521" d="M130 0h10v10h-10z"/>
  <path fill="#6AE21F" d="M140 0h10v10h-10z"/>
  <path fill="#1C3D15" d="M150 0h10v10h-10z"/>
  <path fill="#0E8E3D" d="M160 0h10v10h-10z"/>
  <path fill="#1ACB7A" d="M170 0h10v10h-10z"/>
  <path fill="#15513F" d="M180 0h10v10h-10z"/>
  <path fill="#11658C" d="M190 0h10v10h-10z"/>
  <path fill="#AFC0CA" d="M200 0h10v10h-10z"/>
  <path fill="#6FADDA" d="M210 0h10v10h-10z"/>
  <path fill="#0D70DD" d="M220 0h10v10h-10z"/>
  <path fill="#062885" d="M230 0h10v10h-10z"/>
</svg>
