<svg xmlns="http://www.w3.org/2000/svg" viewBox="0 0 240 10">
  <path fill="#040903" d="M0 0h10v10H0z" />
  <path fill="#032577" d="M10 0h10v10H10z" />
  <path fill="#03229F" d="M20 0h10v10H20z" />
  <path fill="#094AB3" d="M30 0h10v10H30z" />
  <path fill="#079B4D" d="M40 0h10v10H40z" />
  <path fill="#142055" d="M50 0h10v10H50z" />
  <path fill="#198902" d="M60 0h10v10H60z" />
  <path fill="#1B733E" d="M70 0h10v10H70z" />
  <path fill="#1E4F97" d="M80 0h10v10H80z" />
  <path fill="#52ABE9" d="M90 0h10v10H90z" />
  <path fill="#69050F" d="M100 0h10v10h-10z" />
  <path fill="#58A3D7" d="M110 0h10v10h-10z" />
  <path fill="#5FA548" d="M120 0h10v10h-10z" />
  <path fill="#84295E" d="M130 0h10v10h-10z" />
  <path fill="#BF1E2E" d="M140 0h10v10h-10z" />
  <path fill="#D41333" d="M150 0h10v10h-10z" />
  <path fill="#D60611" d="M160 0h10v10h-10z" />
  <path fill="#D71720" d="M170 0h10v10h-10z" />
  <path fill="#F51D24" d="M180 0h10v10h-10z" />
  <path fill="#E2DFDA" d="M190 0h10v10h-10z" />
  <path fill="#F29443" d="M200 0h10v10h-10z" />
  <path fill="#F2E3E2" d="M210 0h10v10h-10z" />
  <path fill="#FBD718" d="M220 0h10v10h-10z" />
  <path fill="#FFFEFF" d="M230 0h10v10h-10z" />
</svg>