<svg xmlns="http://www.w3.org/2000/svg" viewBox="0 0 1000 10">
  <path fill="#840484" d="M0 0h10v10H0z"/>
  <path fill="#5C0444" d="M10 0h10v10H10z"/>
  <path fill="#E0B8D4" d="M20 0h10v10H20z"/>
  <path fill="#E864B4" d="M30 0h10v10H30z"/>
  <path fill="#DE041E" d="M40 0h10v10H40z"/>
  <path fill="#DC2437" d="M50 0h10v10H50z"/>
  <path fill="#C4192A" d="M60 0h10v10H60z"/>
  <path fill="#B51121" d="M70 0h10v10H70z"/>
  <path fill="#E93644" d="M80 0h10v10H80z"/>
  <path fill="#C1A4A6" d="M90 0h10v10H90z"/>
  <path fill="#D4131E" d="M100 0h10v10h-10z"/>
  <path fill="#EC1D23" d="M110 0h10v10h-10z"/>
  <path fill="#5F0708" d="M120 0h10v10h-10z"/>
  <path fill="#DA0504" d="M130 0h10v10h-10z"/>
  <path fill="#FB140A" d="M140 0h10v10h-10z"/>
  <path fill="#D8251D" d="M150 0h10v10h-10z"/>
  <path fill="#96251B" d="M160 0h10v10h-10z"/>
  <path fill="#EB3A22" d="M170 0h10v10h-10z"/>
  <path fill="#C4725F" d="M180 0h10v10h-10z"/>
  <path fill="#F7E3DD" d="M190 0h10v10h-10z"/>
  <path fill="#FCD0BF" d="M200 0h10v10h-10z"/>
  <path fill="#70351A" d="M210 0h10v10h-10z"/>
  <path fill="#CC9474" d="M220 0h10v10h-10z"/>
  <path fill="#F5C6AB" d="M230 0h10v10h-10z"/>
  <path fill="#422818" d="M240 0h10v10h-10z"/>
  <path fill="#F76706" d="M250 0h10v10h-10z"/>
  <path fill="#513218" d="M260 0h10v10h-10z"/>
  <path fill="#B27A4A" d="M270 0h10v10h-10z"/>
  <path fill="#D86F07" d="M280 0h10v10h-10z"/>
  <path fill="#AA641A" d="M290 0h10v10h-10z"/>
  <path fill="#E5B684" d="M300 0h10v10h-10z"/>
  <path fill="#1F1B16" d="M310 0h10v10h-10z"/>
  <path fill="#785A31" d="M320 0h10v10h-10z"/>
  <path fill="#DD9220" d="M330 0h10v10h-10z"/>
  <path fill="#B09C70" d="M340 0h10v10h-10z"/>
  <path fill="#E9A70E" d="M350 0h10v10h-10z"/>
  <path fill="#F5B40E" d="M360 0h10v10h-10z"/>
  <path fill="#EEC14C" d="M370 0h10v10h-10z"/>
  <path fill="#F9BC10" d="M380 0h10v10h-10z"/>
  <path fill="#A48838" d="M390 0h10v10h-10z"/>
  <path fill="#F4C029" d="M400 0h10v10h-10z"/>
  <path fill="#FCF4D9" d="M410 0h10v10h-10z"/>
  <path fill="#F9C918" d="M420 0h10v10h-10z"/>
  <path fill="#7D6405" d="M430 0h10v10h-10z"/>
  <path fill="#FAE482" d="M440 0h10v10h-10z"/>
  <path fill="#FACD04" d="M450 0h10v10h-10z"/>
  <path fill="#E4BC04" d="M460 0h10v10h-10z"/>
  <path fill="#F9DF0C" d="M470 0h10v10h-10z"/>
  <path fill="#C9C616" d="M480 0h10v10h-10z"/>
  <path fill="#F3F318" d="M490 0h10v10h-10z"/>
  <path fill="#4E4E48" d="M500 0h10v10h-10z"/>
  <path fill="#9CD521" d="M510 0h10v10h-10z"/>
  <path fill="#989F8A" d="M520 0h10v10h-10z"/>
  <path fill="#6CDE14" d="M530 0h10v10h-10z"/>
  <path fill="#5E953C" d="M540 0h10v10h-10z"/>
  <path fill="#1E9004" d="M550 0h10v10h-10z"/>
  <path fill="#29FC04" d="M560 0h10v10h-10z"/>
  <path fill="#164B12" d="M570 0h10v10h-10z"/>
  <path fill="#348D31" d="M580 0h10v10h-10z"/>
  <path fill="#64FC64" d="M590 0h10v10h-10z"/>
  <path fill="#116B16" d="M600 0h10v10h-10z"/>
  <path fill="#21C836" d="M610 0h10v10h-10z"/>
  <path fill="#0C8C24" d="M620 0h10v10h-10z"/>
  <path fill="#2CD06C" d="M630 0h10v10h-10z"/>
  <path fill="#08A84A" d="M640 0h10v10h-10z"/>
  <path fill="#078A3E" d="M650 0h10v10h-10z"/>
  <path fill="#175E3E" d="M660 0h10v10h-10z"/>
  <path fill="#069465" d="M670 0h10v10h-10z"/>
  <path fill="#14D09C" d="M680 0h10v10h-10z"/>
  <path fill="#D2D4D4" d="M690 0h10v10h-10z"/>
  <path fill="#8CBCBC" d="M700 0h10v10h-10z"/>
  <path fill="#06898C" d="M710 0h10v10h-10z"/>
  <path fill="#0BBFE3" d="M720 0h10v10h-10z"/>
  <path fill="#06A3DC" d="M730 0h10v10h-10z"/>
  <path fill="#7B8488" d="M740 0h10v10h-10z"/>
  <path fill="#94DCFC" d="M750 0h10v10h-10z"/>
  <path fill="#11658C" d="M760 0h10v10h-10z"/>
  <path fill="#A8D6ED" d="M770 0h10v10h-10z"/>
  <path fill="#6DB3DE" d="M780 0h10v10h-10z"/>
  <path fill="#B3B6B8" d="M790 0h10v10h-10z"/>
  <path fill="#0475C5" d="M800 0h10v10h-10z"/>
  <path fill="#4C94CC" d="M810 0h10v10h-10z"/>
  <path fill="#0E7AF9" d="M820 0h10v10h-10z"/>
  <path fill="#3A7CCA" d="M830 0h10v10h-10z"/>
  <path fill="#064CA6" d="M840 0h10v10h-10z"/>
  <path fill="#04399F" d="M850 0h10v10h-10z"/>
  <path fill="#F1F4FA" d="M860 0h10v10h-10z"/>
  <path fill="#052E80" d="M870 0h10v10h-10z"/>
  <path fill="#0B2C70" d="M880 0h10v10h-10z"/>
  <path fill="#244898" d="M890 0h10v10h-10z"/>
  <path fill="#0547E1" d="M900 0h10v10h-10z"/>
  <path fill="#042490" d="M910 0h10v10h-10z"/>
  <path fill="#04145C" d="M920 0h10v10h-10z"/>
  <path fill="#081785" d="M930 0h10v10h-10z"/>
  <path fill="#0C0F45" d="M940 0h10v10h-10z"/>
  <path fill="#1114FC" d="M950 0h10v10h-10z"/>
  <path fill="#05067E" d="M960 0h10v10h-10z"/>
  <path fill="#5D5D5E" d="M970 0h10v10h-10z"/>
  <path fill="#3C3C6C" d="M980 0h10v10h-10z"/>
  <path fill="#9464CC" d="M990 0h10v10h-10z"/>
</svg>
