<svg xmlns="http://www.w3.org/2000/svg" width="100" height="400">
  <path fill="#88908F" d="M0 0h20v20H0z"/>
  <path fill="#A7AAB2" d="M20 0h20v20H20z"/>
  <path fill="#B0C7D4" d="M40 0h20v20H40z"/>
  <path fill="#F9D8D0" d="M60 0h20v20H60z"/>
  <path fill="#F2F1F3" d="M80 0h20v20H80z"/>
  <path fill="#1D1010" d="M0 20h20v20H0z"/>
  <path fill="#2A281D" d="M20 20h20v20H20z"/>
  <path fill="#5F6862" d="M40 20h20v20H40z"/>
  <path fill="#A3A582" d="M60 20h20v20H60z"/>
  <path fill="#D2D1D1" d="M80 20h20v20H80z"/>
  <path fill="#0E0E46" d="M0 40h20v20H0z"/>
  <path fill="#4E4F49" d="M20 40h20v20H20z"/>
  <path fill="#3B5B21" d="M40 40h20v20H40z"/>
  <path fill="#7E7C7C" d="M60 40h20v20H60z"/>
  <path fill="#FAEECE" d="M80 40h20v20H80z"/>
  <path fill="#502F18" d="M0 60h20v20H0z"/>
  <path fill="#3C3C6C" d="M20 60h20v20H20z"/>
  <path fill="#9464CC" d="M40 60h20v20H40z"/>
  <path fill="#8CBCBC" d="M60 60h20v20H60z"/>
  <path fill="#C4B686" d="M80 60h20v20H80z"/>
  <path fill="#05067E" d="M0 80h20v20H0z"/>
  <path fill="#081785" d="M20 80h20v20H20z"/>
  <path fill="#042490" d="M40 80h20v20H40z"/>
  <path fill="#1114FC" d="M60 80h20v20H60z"/>
  <path fill="#4C8CD4" d="M80 80h20v20H80z"/>
  <path fill="#244894" d="M0 100h20v20H0z"/>
  <path fill="#064CA6" d="M20 100h20v20H20z"/>
  <path fill="#0547E1" d="M40 100h20v20H40z"/>
  <path fill="#377AC7" d="M60 100h20v20H60z"/>
  <path fill="#0E7AF9" d="M80 100h20v20H80z"/>
  <path fill="#04155C" d="M0 120h20v20H0z"/>
  <path fill="#0B2C6F" d="M20 120h20v20H20z"/>
  <path fill="#052E80" d="M40 120h20v20H40z"/>
  <path fill="#04399E" d="M60 120h20v20H60z"/>
  <path fill="#94DCFC" d="M80 120h20v20H80z"/>
  <path fill="#13658A" d="M0 140h20v20H0z"/>
  <path fill="#0474C4" d="M20 140h20v20H20z"/>
  <path fill="#05A2DC" d="M40 140h20v20H40z"/>
  <path fill="#68AFDA" d="M60 140h20v20H60z"/>
  <path fill="#0BBFE3" d="M80 140h20v20H80z"/>
  <path fill="#06898C" d="M0 160h20v20H0z"/>
  <path fill="#059164" d="M20 160h20v20H20z"/>
  <path fill="#0DA74A" d="M40 160h20v20H40z"/>
  <path fill="#2CD06C" d="M60 160h20v20H60z"/>
  <path fill="#14D09C" d="M80 160h20v20H80z"/>
  <path fill="#185E3E" d="M0 180h20v20H0z"/>
  <path fill="#078A3E" d="M20 180h20v20H20z"/>
  <path fill="#348E38" d="M40 180h20v20H40z"/>
  <path fill="#21C836" d="M60 180h20v20H60z"/>
  <path fill="#64FC64" d="M80 180h20v20H80z"/>
  <path fill="#075F11" d="M0 200h20v20H0z"/>
  <path fill="#0C8C24" d="M20 200h20v20H20z"/>
  <path fill="#1E9004" d="M40 200h20v20H40z"/>
  <path fill="#72E80A" d="M60 200h20v20H60z"/>
  <path fill="#29FC04" d="M80 200h20v20H80z"/>
  <path fill="#69A835" d="M0 220h20v20H0z"/>
  <path fill="#ACE019" d="M20 220h20v20H20z"/>
  <path fill="#FAE482" d="M40 220h20v20H40z"/>
  <path fill="#F8F048" d="M60 220h20v20H60z"/>
  <path fill="#F6F311" d="M80 220h20v20H80z"/>
  <path fill="#F9C50E" d="M0 240h20v20H0z"/>
  <path fill="#F8CA36" d="M20 240h20v20H20z"/>
  <path fill="#F6D14D" d="M40 240h20v20H40z"/>
  <path fill="#FAD40B" d="M60 240h20v20H60z"/>
  <path fill="#F8DF0A" d="M80 240h20v20H80z"/>
  <path fill="#E9A70E" d="M0 260h20v20H0z"/>
  <path fill="#F4B40E" d="M20 260h20v20H20z"/>
  <path fill="#CCC410" d="M40 260h20v20H40z"/>
  <path fill="#E4BC04" d="M60 260h20v20H60z"/>
  <path fill="#F6C124" d="M80 260h20v20H80z"/>
  <path fill="#806405" d="M0 280h20v20H0z"/>
  <path fill="#BD8D2F" d="M20 280h20v20H20z"/>
  <path fill="#CC9474" d="M40 280h20v20H40z"/>
  <path fill="#FA9412" d="M60 280h20v20H60z"/>
  <path fill="#E0A854" d="M80 280h20v20H80z"/>
  <path fill="#795F32" d="M0 300h20v20H0z"/>
  <path fill="#AD661E" d="M20 300h20v20H20z"/>
  <path fill="#D7700C" d="M40 300h20v20H40z"/>
  <path fill="#EEB991" d="M60 300h20v20H60z"/>
  <path fill="#F6C2AF" d="M80 300h20v20H80z"/>
  <path fill="#6F361D" d="M0 320h20v20H0z"/>
  <path fill="#F41D16" d="M20 320h20v20H20z"/>
  <path fill="#E93644" d="M40 320h20v20H40z"/>
  <path fill="#B67A59" d="M60 320h20v20H60z"/>
  <path fill="#F5660C" d="M80 320h20v20H80z"/>
  <path fill="#D31820" d="M0 340h20v20H0z"/>
  <path fill="#CE2C1D" d="M20 340h20v20H20z"/>
  <path fill="#DC041D" d="M40 340h20v20H40z"/>
  <path fill="#CD3631" d="M60 340h20v20H60z"/>
  <path fill="#E41C1C" d="M80 340h20v20H80z"/>
  <path fill="#96241D" d="M0 360h20v20H0z"/>
  <path fill="#BC1629" d="M20 360h20v20H20z"/>
  <path fill="#D20504" d="M40 360h20v20H40z"/>
  <path fill="#CF1F37" d="M60 360h20v20H60z"/>
  <path fill="#F45474" d="M80 360h20v20H80z"/>
  <path fill="#5F0708" d="M0 380h20v20H0z"/>
  <path fill="#5C0444" d="M20 380h20v20H20z"/>
  <path fill="#840484" d="M40 380h20v20H40z"/>
  <path fill="#AF141C" d="M60 380h20v20H60z"/>
  <path fill="#E864B4" d="M80 380h20v20H80z"/>
</svg>
