<svg xmlns="http://www.w3.org/2000/svg" viewBox="0 0 320 10">
  <path fill="#840484" d="M0 0h10v10H0z"/>
  <path fill="#E864B4" d="M10 0h10v10H10z"/>
  <path fill="#B51121" d="M20 0h10v10H20z"/>
  <path fill="#E93644" d="M30 0h10v10H30z"/>
  <path fill="#C1A4A6" d="M40 0h10v10H40z"/>
  <path fill="#DD161D" d="M50 0h10v10H50z"/>
  <path fill="#96251B" d="M60 0h10v10H60z"/>
  <path fill="#EB3A22" d="M70 0h10v10H70z"/>
  <path fill="#C4725F" d="M80 0h10v10H80z"/>
  <path fill="#672917" d="M90 0h10v10H90z"/>
  <path fill="#F0DAD0" d="M100 0h10v10h-10z"/>
  <path fill="#CA6816" d="M110 0h10v10h-10z"/>
  <path fill="#D49024" d="M120 0h10v10h-10z"/>
  <path fill="#CAB184" d="M130 0h10v10h-10z"/>
  <path fill="#EEC14C" d="M140 0h10v10h-10z"/>
  <path fill="#F5C90F" d="M150 0h10v10h-10z"/>
  <path fill="#6A6338" d="M160 0h10v10h-10z"/>
  <path fill="#F3F318" d="M170 0h10v10h-10z"/>
  <path fill="#9CD521" d="M180 0h10v10h-10z"/>
  <path fill="#6AE21F" d="M190 0h10v10h-10z"/>
  <path fill="#1C3D15" d="M200 0h10v10h-10z"/>
  <path fill="#0E8E3D" d="M210 0h10v10h-10z"/>
  <path fill="#1ACB7A" d="M220 0h10v10h-10z"/>
  <path fill="#15513F" d="M230 0h10v10h-10z"/>
  <path fill="#7B8488" d="M240 0h10v10h-10z"/>
  <path fill="#11658C" d="M250 0h10v10h-10z"/>
  <path fill="#AFC0CA" d="M260 0h10v10h-10z"/>
  <path fill="#6FADDA" d="M270 0h10v10h-10z"/>
  <path fill="#0C7ADA" d="M280 0h10v10h-10z"/>
  <path fill="#072C8E" d="M290 0h10v10h-10z"/>
  <path fill="#04145C" d="M300 0h10v10h-10z"/>
  <path fill="#1114FC" d="M310 0h10v10h-10z"/>
</svg>
