<svg xmlns="http://www.w3.org/2000/svg" width="640" height="20">
  <path fill="#F0DCD4" d="M0 0h20v20H0z"/>
  <path fill="#6C5E3A" d="M20 0h20v20H20z"/>
  <path fill="#1C3E16" d="M40 0h20v20H40z"/>
  <path fill="#17533F" d="M60 0h20v20H60z"/>
  <path fill="#878D8C" d="M80 0h20v20H80z"/>
  <path fill="#B0C7D4" d="M100 0h20v20h-20z"/>
  <path fill="#A7AAB2" d="M120 0h20v20h-20z"/>
  <path fill="#1114FC" d="M140 0h20v20h-20z"/>
  <path fill="#072C8E" d="M160 0h20v20h-20z"/>
  <path fill="#04155C" d="M180 0h20v20h-20z"/>
  <path fill="#6EACD9" d="M200 0h20v20h-20z"/>
  <path fill="#0B7AD9" d="M220 0h20v20h-20z"/>
  <path fill="#13658A" d="M240 0h20v20h-20z"/>
  <path fill="#1ACB7A" d="M260 0h20v20h-20z"/>
  <path fill="#118E3E" d="M280 0h20v20h-20z"/>
  <path fill="#70EC19" d="M300 0h20v20h-20z"/>
  <path fill="#69A835" d="M320 0h20v20h-20z"/>
  <path fill="#ACE019" d="M340 0h20v20h-20z"/>
  <path fill="#F6F311" d="M360 0h20v20h-20z"/>
  <path fill="#F6C912" d="M380 0h20v20h-20z"/>
  <path fill="#EFC64F" d="M400 0h20v20h-20z"/>
  <path fill="#DAB88A" d="M420 0h20v20h-20z"/>
  <path fill="#D49024" d="M440 0h20v20h-20z"/>
  <path fill="#CB6A20" d="M460 0h20v20h-20z"/>
  <path fill="#F41D16" d="M480 0h20v20h-20z"/>
  <path fill="#96241D" d="M500 0h20v20h-20z"/>
  <path fill="#662818" d="M520 0h20v20h-20z"/>
  <path fill="#F45474" d="M540 0h20v20h-20z"/>
  <path fill="#E93644" d="M560 0h20v20h-20z"/>
  <path fill="#CD1A22" d="M580 0h20v20h-20z"/>
  <path fill="#E864B4" d="M600 0h20v20h-20z"/>
  <path fill="#840484" d="M620 0h20v20h-20z"/>
</svg>
