<svg xmlns="http://www.w3.org/2000/svg" viewBox="0 0 490 200">
  <path fill="#231F20" d="M0 0h10v10H0z"/>
  <path fill="#5E0043" d="M10 0h10v10H10z"/>
  <path fill="#511124" d="M20 0h10v10H20z"/>
  <path fill="purple" d="M30 0h10v10H30z"/>
  <path fill="#940010" d="M40 0h10v10H40z"/>
  <path fill="#4D4B4D" d="M50 0h10v10H50z"/>
  <path fill="#8A1538" d="M60 0h10v10H60z"/>
  <path fill="#A60032" d="M70 0h10v10H70z"/>
  <path fill="#862633" d="M80 0h10v10H80z"/>
  <path fill="#941E32" d="M90 0h10v10H90z"/>
  <path fill="#BC002D" d="M100 0h10v10h-10z"/>
  <path fill="#B40A2D" d="M110 0h10v10h-10z"/>
  <path fill="#A51931" d="M120 0h10v10h-10z"/>
  <path fill="#BD0728" d="M130 0h10v10h-10z"/>
  <path fill="#BA0C2F" d="M140 0h10v10h-10z"/>
  <path fill="#656263" d="M150 0h10v10h-10z"/>
  <path fill="#BF0A30" d="M160 0h10v10h-10z"/>
  <path fill="#BD1021" d="M170 0h10v10h-10z"/>
  <path fill="#C60B1E" d="M180 0h10v10h-10z"/>
  <path fill="#C60C30" d="M190 0h10v10h-10z"/>
  <path fill="#D20014" d="M200 0h10v10h-10z"/>
  <path fill="#B22234" d="M210 0h10v10h-10z"/>
  <path fill="#D50032" d="M220 0h10v10h-10z"/>
  <path fill="#CC092F" d="M230 0h10v10h-10z"/>
  <path fill="#C8102E" d="M240 0h10v10h-10z"/>
  <path fill="#BA1F3E" d="M250 0h10v10h-10z"/>
  <path fill="#CD1125" d="M260 0h10v10h-10z"/>
  <path fill="#CE1126" d="M270 0h10v10h-10z"/>
  <path fill="#E00025" d="M280 0h10v10h-10z"/>
  <path fill="#CF1126" d="M290 0h10v10h-10z"/>
  <path fill="#D21034" d="M300 0h10v10h-10z"/>
  <path fill="#CF142B" d="M310 0h10v10h-10z"/>
  <path fill="#E4002B" d="M320 0h10v10h-10z"/>
  <path fill="#C62139" d="M330 0h10v10h-10z"/>
  <path fill="#D91023" d="M340 0h10v10h-10z"/>
  <path fill="#DC143C" d="M350 0h10v10h-10z"/>
  <path fill="#DA1A35" d="M360 0h10v10h-10z"/>
  <path fill="#CE2939" d="M370 0h10v10h-10z"/>
  <path fill="#E8112D" d="M380 0h10v10h-10z"/>
  <path fill="#DA2032" d="M390 0h10v10h-10z"/>
  <path fill="#DC1E35" d="M400 0h10v10h-10z"/>
  <path fill="#F42A41" d="M410 0h10v10h-10z"/>
  <path fill="#E357B8" d="M420 0h10v10h-10z"/>
  <path fill="#F15770" d="M430 0h10v10h-10z"/>
  <path fill="#ED72AA" d="M440 0h10v10h-10z"/>
  <path fill="#CCB8C8" d="M450 0h10v10h-10z"/>
  <path fill="#D0C9CE" d="M460 0h10v10h-10z"/>
  <path fill="#F1B2DC" d="M470 0h10v10h-10z"/>
  <path fill="#FFFEFF" d="M480 0h10v10h-10z"/>
  <path fill="#630810" d="M0 10h10v10H0z"/>
  <path fill="#8E1116" d="M10 10h10v10H10z"/>
  <path fill="#951B1D" d="M20 10h10v10H20z"/>
  <path fill="#AD1519" d="M30 10h10v10H30z"/>
  <path fill="#AB1E2B" d="M40 10h10v10H40z"/>
  <path fill="#AE1C28" d="M50 10h10v10H50z"/>
  <path fill="#9E3039" d="M60 10h10v10H60z"/>
  <path fill="#C4111B" d="M70 10h10v10H70z"/>
  <path fill="#D90012" d="M80 10h10v10H80z"/>
  <path fill="#DA000C" d="M90 10h10v10H90z"/>
  <path fill="#CA1214" d="M100 10h10v10h-10z"/>
  <path fill="#CE1021" d="M110 10h10v10h-10z"/>
  <path fill="#CE1720" d="M120 10h10v10h-10z"/>
  <path fill="#E70013" d="M130 10h10v10h-10z"/>
  <path fill="#D90F19" d="M140 10h10v10h-10z"/>
  <path fill="#C1272D" d="M150 10h10v10h-10z"/>
  <path fill="#DA0E15" d="M160 10h10v10h-10z"/>
  <path fill="#E30613" d="M170 10h10v10h-10z"/>
  <path fill="#D7141A" d="M180 10h10v10h-10z"/>
  <path fill="#DA121A" d="M190 10h10v10h-10z"/>
  <path fill="#C6262C" d="M200 10h10v10h-10z"/>
  <path fill="#D01C1F" d="M210 10h10v10h-10z"/>
  <path fill="#E30A17" d="M220 10h10v10h-10z"/>
  <path fill="#CD202A" d="M230 10h10v10h-10z"/>
  <path fill="#CF2027" d="M240 10h10v10h-10z"/>
  <path fill="#DB161B" d="M250 10h10v10h-10z"/>
  <path fill="#DC171F" d="M260 10h10v10h-10z"/>
  <path fill="#DC171D" d="M270 10h10v10h-10z"/>
  <path fill="#D22630" d="M280 10h10v10h-10z"/>
  <path fill="#DF1A23" d="M290 10h10v10h-10z"/>
  <path fill="#D82126" d="M300 10h10v10h-10z"/>
  <path fill="#CE2B37" d="M310 10h10v10h-10z"/>
  <path fill="#DA2031" d="M320 10h10v10h-10z"/>
  <path fill="#CD2E3A" d="M330 10h10v10h-10z"/>
  <path fill="#C6363C" d="M340 10h10v10h-10z"/>
  <path fill="#E31B23" d="M350 10h10v10h-10z"/>
  <path fill="#FF0016" d="M360 10h10v10h-10z"/>
  <path fill="#DE2126" d="M370 10h10v10h-10z"/>
  <path fill="#EC1920" d="M380 10h10v10h-10z"/>
  <path fill="#ED1C27" d="M390 10h10v10h-10z"/>
  <path fill="#ED1C24" d="M400 10h10v10h-10z"/>
  <path fill="#EE1C25" d="M410 10h10v10h-10z"/>
  <path fill="#ED2024" d="M420 10h10v10h-10z"/>
  <path fill="#E92736" d="M430 10h10v10h-10z"/>
  <path fill="#EA2839" d="M440 10h10v10h-10z"/>
  <path fill="#ED2939" d="M450 10h10v10h-10z"/>
  <path fill="#ED2E38" d="M460 10h10v10h-10z"/>
  <path fill="#DB4446" d="M470 10h10v10h-10z"/>
  <path fill="#EF3340" d="M480 10h10v10h-10z"/>
  <path fill="#000" d="M0 20h10v10H0z"/>
  <path fill="#080101" d="M10 20h10v10H10z"/>
  <path fill="#181818" d="M20 20h10v10H20z"/>
  <path fill="#280B0B" d="M30 20h10v10H30z"/>
  <path fill="#500" d="M40 20h10v10H40z"/>
  <path fill="#2B2B2B" d="M50 20h10v10H50z"/>
  <path fill="#333" d="M60 20h10v10H60z"/>
  <path fill="#424242" d="M70 20h10v10H70z"/>
  <path fill="#474747" d="M80 20h10v10H80z"/>
  <path fill="#494949" d="M90 20h10v10H90z"/>
  <path fill="#4D4D4D" d="M100 20h10v10h-10z"/>
  <path fill="#514B4B" d="M110 20h10v10h-10z"/>
  <path fill="#A00" d="M120 20h10v10h-10z"/>
  <path fill="#A50A0A" d="M130 20h10v10h-10z"/>
  <path fill="#5A5A5A" d="M140 20h10v10h-10z"/>
  <path fill="#B50000" d="M150 20h10v10h-10z"/>
  <path fill="#696161" d="M160 20h10v10h-10z"/>
  <path fill="#BA1D1D" d="M170 20h10v10h-10z"/>
  <path fill="#BB1E1E" d="M180 20h10v10h-10z"/>
  <path fill="#D00" d="M190 20h10v10h-10z"/>
  <path fill="#DE0000" d="M200 20h10v10h-10z"/>
  <path fill="#CB1515" d="M210 20h10v10h-10z"/>
  <path fill="#E80000" d="M220 20h10v10h-10z"/>
  <path fill="#DE1010" d="M230 20h10v10h-10z"/>
  <path fill="#797979" d="M240 20h10v10h-10z"/>
  <path fill="#D92223" d="M250 20h10v10h-10z"/>
  <path fill="#FA0204" d="M260 20h10v10h-10z"/>
  <path fill="#847B7B" d="M270 20h10v10h-10z"/>
  <path fill="red" d="M280 20h10v10h-10z"/>
  <path fill="#EF1818" d="M290 20h10v10h-10z"/>
  <path fill="#F01818" d="M300 20h10v10h-10z"/>
  <path fill="#878383" d="M310 20h10v10h-10z"/>
  <path fill="#8A8A8A" d="M320 20h10v10h-10z"/>
  <path fill="#EF2B2D" d="M330 20h10v10h-10z"/>
  <path fill="#949494" d="M340 20h10v10h-10z"/>
  <path fill="#959595" d="M350 20h10v10h-10z"/>
  <path fill="#999" d="M360 20h10v10h-10z"/>
  <path fill="#A1A1A1" d="M370 20h10v10h-10z"/>
  <path fill="#ACACAC" d="M380 20h10v10h-10z"/>
  <path fill="#ADADAD" d="M390 20h10v10h-10z"/>
  <path fill="#B3B3B3" d="M400 20h10v10h-10z"/>
  <path fill="#C9C9C9" d="M410 20h10v10h-10z"/>
  <path fill="#CCC" d="M420 20h10v10h-10z"/>
  <path fill="#D4D4D4" d="M430 20h10v10h-10z"/>
  <path fill="#DDD" d="M440 20h10v10h-10z"/>
  <path fill="#E5E5E5" d="M450 20h10v10h-10z"/>
  <path fill="#E7E7E7" d="M460 20h10v10h-10z"/>
  <path fill="#EEE" d="M470 20h10v10h-10z"/>
  <path fill="#FFF" d="M480 20h10v10h-10z"/>
  <path fill="#171717" d="M0 30h10v10H0z"/>
  <path fill="#390000" d="M10 30h10v10H10z"/>
  <path fill="#202020" d="M20 30h10v10H20z"/>
  <path fill="#4A0000" d="M30 30h10v10H30z"/>
  <path fill="#4C0505" d="M40 30h10v10H40z"/>
  <path fill="#510000" d="M50 30h10v10H50z"/>
  <path fill="#650000" d="M60 30h10v10H60z"/>
  <path fill="#600" d="M70 30h10v10H70z"/>
  <path fill="#700" d="M80 30h10v10H80z"/>
  <path fill="#8A0000" d="M90 30h10v10H90z"/>
  <path fill="#910000" d="M100 30h10v10h-10z"/>
  <path fill="#B00" d="M110 30h10v10h-10z"/>
  <path fill="#B10C0C" d="M120 30h10v10h-10z"/>
  <path fill="#C10000" d="M130 30h10v10h-10z"/>
  <path fill="#AA241E" d="M140 30h10v10h-10z"/>
  <path fill="#C00" d="M150 30h10v10h-10z"/>
  <path fill="#D40000" d="M160 30h10v10h-10z"/>
  <path fill="#C81010" d="M170 30h10v10h-10z"/>
  <path fill="#D90000" d="M180 30h10v10h-10z"/>
  <path fill="#DA0000" d="M190 30h10v10h-10z"/>
  <path fill="#D32011" d="M200 30h10v10h-10z"/>
  <path fill="#E60000" d="M210 30h10v10h-10z"/>
  <path fill="#EA0000" d="M220 30h10v10h-10z"/>
  <path fill="#E00" d="M230 30h10v10h-10z"/>
  <path fill="#DE2010" d="M240 30h10v10h-10z"/>
  <path fill="#C8312A" d="M250 30h10v10h-10z"/>
  <path fill="#D52B1E" d="M260 30h10v10h-10z"/>
  <path fill="#DA291C" d="M270 30h10v10h-10z"/>
  <path fill="#D72B1F" d="M280 30h10v10h-10z"/>
  <path fill="#DA251D" d="M290 30h10v10h-10z"/>
  <path fill="#E32118" d="M300 30h10v10h-10z"/>
  <path fill="#E1261C" d="M310 30h10v10h-10z"/>
  <path fill="#D0362D" d="M320 30h10v10h-10z"/>
  <path fill="#FE0000" d="M330 30h10v10h-10z"/>
  <path fill="#FF0500" d="M340 30h10v10h-10z"/>
  <path fill="#FF0B00" d="M350 30h10v10h-10z"/>
  <path fill="#F10" d="M360 30h10v10h-10z"/>
  <path fill="#EE1D17" d="M370 30h10v10h-10z"/>
  <path fill="#E03C31" d="M380 30h10v10h-10z"/>
  <path fill="#ED4135" d="M390 30h10v10h-10z"/>
  <path fill="#FF2A2A" d="M400 30h10v10h-10z"/>
  <path fill="#FC3D32" d="M410 30h10v10h-10z"/>
  <path fill="#FF3A3A" d="M420 30h10v10h-10z"/>
  <path fill="#FFA1A1" d="M430 30h10v10h-10z"/>
  <path fill="#DCDCDC" d="M440 30h10v10h-10z"/>
  <path fill="#E8E8E8" d="M450 30h10v10h-10z"/>
  <path fill="#FFE8E6" d="M460 30h10v10h-10z"/>
  <path fill="#FFEFEF" d="M470 30h10v10h-10z"/>
  <path fill="#FFF3F3" d="M480 30h10v10h-10z"/>
  <path fill="#351710" d="M0 40h10v10H0z"/>
  <path fill="#452C25" d="M10 40h10v10H10z"/>
  <path fill="#5A2118" d="M20 40h10v10H20z"/>
  <path fill="#5D241B" d="M30 40h10v10H30z"/>
  <path fill="#870F00" d="M40 40h10v10H40z"/>
  <path fill="#653024" d="M50 40h10v10H50z"/>
  <path fill="#6C301E" d="M60 40h10v10H60z"/>
  <path fill="#842116" d="M70 40h10v10H70z"/>
  <path fill="#7A2E26" d="M80 40h10v10H80z"/>
  <path fill="#953220" d="M90 40h10v10H90z"/>
  <path fill="#C01500" d="M100 40h10v10h-10z"/>
  <path fill="#AE4C33" d="M110 40h10v10h-10z"/>
  <path fill="#D62612" d="M120 40h10v10h-10z"/>
  <path fill="#FF1800" d="M130 40h10v10h-10z"/>
  <path fill="#FF1E00" d="M140 40h10v10h-10z"/>
  <path fill="#FF2500" d="M150 40h10v10h-10z"/>
  <path fill="#FF2D00" d="M160 40h10v10h-10z"/>
  <path fill="#F30" d="M170 40h10v10h-10z"/>
  <path fill="#FF3900" d="M180 40h10v10h-10z"/>
  <path fill="#BC715F" d="M190 40h10v10h-10z"/>
  <path fill="#CA6B5B" d="M200 40h10v10h-10z"/>
  <path fill="#D9C0B9" d="M210 40h10v10h-10z"/>
  <path fill="#FFB39C" d="M220 40h10v10h-10z"/>
  <path fill="#FFB59E" d="M230 40h10v10h-10z"/>
  <path fill="#FFB9A6" d="M240 40h10v10h-10z"/>
  <path fill="#FFBCA8" d="M250 40h10v10h-10z"/>
  <path fill="#FFBEAB" d="M260 40h10v10h-10z"/>
  <path fill="#FFBEAD" d="M270 40h10v10h-10z"/>
  <path fill="#FFC5B3" d="M280 40h10v10h-10z"/>
  <path fill="#FFC6B5" d="M290 40h10v10h-10z"/>
  <path fill="#FFC6B8" d="M300 40h10v10h-10z"/>
  <path fill="#FFC9B9" d="M310 40h10v10h-10z"/>
  <path fill="#FFCFC2" d="M320 40h10v10h-10z"/>
  <path fill="#FFD1C5" d="M330 40h10v10h-10z"/>
  <path fill="#FFD3C6" d="M340 40h10v10h-10z"/>
  <path fill="#FFD3C9" d="M350 40h10v10h-10z"/>
  <path fill="#FFD6CC" d="M360 40h10v10h-10z"/>
  <path fill="#FFD9CF" d="M370 40h10v10h-10z"/>
  <path fill="#FFDCD3" d="M380 40h10v10h-10z"/>
  <path fill="#FFDED6" d="M390 40h10v10h-10z"/>
  <path fill="#FFE0D9" d="M400 40h10v10h-10z"/>
  <path fill="#FFE2DC" d="M410 40h10v10h-10z"/>
  <path fill="#FFE2DE" d="M420 40h10v10h-10z"/>
  <path fill="#FFE6E0" d="M430 40h10v10h-10z"/>
  <path fill="#FFE8E2" d="M440 40h10v10h-10z"/>
  <path fill="#FFEBE6" d="M450 40h10v10h-10z"/>
  <path fill="#FFEBE8" d="M460 40h10v10h-10z"/>
  <path fill="#FFEDEB" d="M470 40h10v10h-10z"/>
  <path fill="#FFEFED" d="M480 40h10v10h-10z"/>
  <path fill="#201B18" d="M0 50h10v10H0z"/>
  <path fill="#2C1C12" d="M10 50h10v10H10z"/>
  <path fill="#512007" d="M20 50h10v10H20z"/>
  <path fill="#4D2A15" d="M30 50h10v10H30z"/>
  <path fill="#802000" d="M40 50h10v10H40z"/>
  <path fill="#85340A" d="M50 50h10v10H50z"/>
  <path fill="#843511" d="M60 50h10v10H60z"/>
  <path fill="#713F2A" d="M70 50h10v10H70z"/>
  <path fill="#7B3C20" d="M80 50h10v10H80z"/>
  <path fill="#803F1D" d="M90 50h10v10H90z"/>
  <path fill="#73452B" d="M100 50h10v10h-10z"/>
  <path fill="#574F4C" d="M110 50h10v10h-10z"/>
  <path fill="#8B441F" d="M120 50h10v10h-10z"/>
  <path fill="#A53D08" d="M130 50h10v10h-10z"/>
  <path fill="#8F4620" d="M140 50h10v10h-10z"/>
  <path fill="#904720" d="M150 50h10v10h-10z"/>
  <path fill="#7D5035" d="M160 50h10v10h-10z"/>
  <path fill="#AA5323" d="M170 50h10v10h-10z"/>
  <path fill="#E05206" d="M180 50h10v10h-10z"/>
  <path fill="#FF3E00" d="M190 50h10v10h-10z"/>
  <path fill="#FF4500" d="M200 50h10v10h-10z"/>
  <path fill="#FF4B00" d="M210 50h10v10h-10z"/>
  <path fill="#F50" d="M220 50h10v10h-10z"/>
  <path fill="#FF5600" d="M230 50h10v10h-10z"/>
  <path fill="#FF6000" d="M240 50h10v10h-10z"/>
  <path fill="#FF671F" d="M250 50h10v10h-10z"/>
  <path fill="#D67C59" d="M260 50h10v10h-10z"/>
  <path fill="#DD8B59" d="M270 50h10v10h-10z"/>
  <path fill="#FF883E" d="M280 50h10v10h-10z"/>
  <path fill="#E6AB87" d="M290 50h10v10h-10z"/>
  <path fill="#D7B5A0" d="M300 50h10v10h-10z"/>
  <path fill="#FFB399" d="M310 50h10v10h-10z"/>
  <path fill="#FFB59C" d="M320 50h10v10h-10z"/>
  <path fill="#FFB8A0" d="M330 50h10v10h-10z"/>
  <path fill="#FFB9A2" d="M340 50h10v10h-10z"/>
  <path fill="#EFC9B2" d="M350 50h10v10h-10z"/>
  <path fill="#FFBCA6" d="M360 50h10v10h-10z"/>
  <path fill="#FFC2AD" d="M370 50h10v10h-10z"/>
  <path fill="#FFC2AF" d="M380 50h10v10h-10z"/>
  <path fill="#FFC9B8" d="M390 50h10v10h-10z"/>
  <path fill="#FFCCBC" d="M400 50h10v10h-10z"/>
  <path fill="#FFCFBE" d="M410 50h10v10h-10z"/>
  <path fill="#FFD1C2" d="M420 50h10v10h-10z"/>
  <path fill="#FFD6C9" d="M430 50h10v10h-10z"/>
  <path fill="#FFE1CF" d="M440 50h10v10h-10z"/>
  <path fill="#FFDCD1" d="M450 50h10v10h-10z"/>
  <path fill="#FFDED3" d="M460 50h10v10h-10z"/>
  <path fill="#FFE6DE" d="M470 50h10v10h-10z"/>
  <path fill="#FFF3EF" d="M480 50h10v10h-10z"/>
  <path fill="#2B1100" d="M0 60h10v10H0z"/>
  <path fill="#312317" d="M10 60h10v10H10z"/>
  <path fill="#520" d="M20 60h10v10H20z"/>
  <path fill="#662900" d="M30 60h10v10H30z"/>
  <path fill="#5A3719" d="M40 60h10v10H40z"/>
  <path fill="#5C3818" d="M50 60h10v10H50z"/>
  <path fill="#513625" d="M60 60h10v10H60z"/>
  <path fill="#5C3A1D" d="M70 60h10v10H70z"/>
  <path fill="#7B3100" d="M80 60h10v10H80z"/>
  <path fill="#6C3F18" d="M90 60h10v10H90z"/>
  <path fill="#4B4139" d="M100 60h10v10h-10z"/>
  <path fill="#6C4119" d="M110 60h10v10h-10z"/>
  <path fill="#8C4200" d="M120 60h10v10h-10z"/>
  <path fill="#6F3F1E" d="M130 60h10v10h-10z"/>
  <path fill="#64472D" d="M140 60h10v10h-10z"/>
  <path fill="#923F00" d="M150 60h10v10h-10z"/>
  <path fill="#784421" d="M160 60h10v10h-10z"/>
  <path fill="#9C4A00" d="M170 60h10v10h-10z"/>
  <path fill="#A24300" d="M180 60h10v10h-10z"/>
  <path fill="#825123" d="M190 60h10v10h-10z"/>
  <path fill="#874F20" d="M200 60h10v10h-10z"/>
  <path fill="#794D2F" d="M210 60h10v10h-10z"/>
  <path fill="#755338" d="M220 60h10v10h-10z"/>
  <path fill="#C75B00" d="M230 60h10v10h-10z"/>
  <path fill="#A05A2C" d="M240 60h10v10h-10z"/>
  <path fill="#D05F01" d="M250 60h10v10h-10z"/>
  <path fill="#AB612E" d="M260 60h10v10h-10z"/>
  <path fill="#E96A01" d="M270 60h10v10h-10z"/>
  <path fill="#DE6F10" d="M280 60h10v10h-10z"/>
  <path fill="#A37853" d="M290 60h10v10h-10z"/>
  <path fill="#F60" d="M300 60h10v10h-10z"/>
  <path fill="#FF6B00" d="M310 60h10v10h-10z"/>
  <path fill="#FF7000" d="M320 60h10v10h-10z"/>
  <path fill="#FF7500" d="M330 60h10v10h-10z"/>
  <path fill="#FF7C00" d="M340 60h10v10h-10z"/>
  <path fill="#AD7C59" d="M350 60h10v10h-10z"/>
  <path fill="#F16E16" d="M360 60h10v10h-10z"/>
  <path fill="#AD7D5A" d="M370 60h10v10h-10z"/>
  <path fill="#C47645" d="M380 60h10v10h-10z"/>
  <path fill="#B07E5B" d="M390 60h10v10h-10z"/>
  <path fill="#C27E50" d="M400 60h10v10h-10z"/>
  <path fill="#96877D" d="M410 60h10v10h-10z"/>
  <path fill="#BD8759" d="M420 60h10v10h-10z"/>
  <path fill="#B68A6A" d="M430 60h10v10h-10z"/>
  <path fill="#C99472" d="M440 60h10v10h-10z"/>
  <path fill="#D0A386" d="M450 60h10v10h-10z"/>
  <path fill="#D6B39D" d="M460 60h10v10h-10z"/>
  <path fill="#DEC7B7" d="M470 60h10v10h-10z"/>
  <path fill="#F9E7D9" d="M480 60h10v10h-10z"/>
  <path fill="#2F2311" d="M0 70h10v10H0z"/>
  <path fill="#2D2A26" d="M10 70h10v10H10z"/>
  <path fill="#442C13" d="M20 70h10v10H20z"/>
  <path fill="#45392D" d="M30 70h10v10H30z"/>
  <path fill="#5E3F17" d="M40 70h10v10H40z"/>
  <path fill="#7B3F00" d="M50 70h10v10H50z"/>
  <path fill="#704D25" d="M60 70h10v10H60z"/>
  <path fill="#6A4C2D" d="M70 70h10v10H70z"/>
  <path fill="#9C5100" d="M80 70h10v10H80z"/>
  <path fill="#9E540A" d="M90 70h10v10H90z"/>
  <path fill="#A2550B" d="M100 70h10v10h-10z"/>
  <path fill="#AC620E" d="M110 70h10v10h-10z"/>
  <path fill="#895F33" d="M120 70h10v10h-10z"/>
  <path fill="#B76E11" d="M130 70h10v10h-10z"/>
  <path fill="#B87510" d="M140 70h10v10h-10z"/>
  <path fill="#A36629" d="M150 70h10v10h-10z"/>
  <path fill="#866D46" d="M160 70h10v10h-10z"/>
  <path fill="#C16B13" d="M170 70h10v10h-10z"/>
  <path fill="#AB6D29" d="M180 70h10v10h-10z"/>
  <path fill="#D57800" d="M190 70h10v10h-10z"/>
  <path fill="#AF7029" d="M200 70h10v10h-10z"/>
  <path fill="#B07229" d="M210 70h10v10h-10z"/>
  <path fill="#B27129" d="M220 70h10v10h-10z"/>
  <path fill="#DD7500" d="M230 70h10v10h-10z"/>
  <path fill="#DF7500" d="M240 70h10v10h-10z"/>
  <path fill="#E98E01" d="M250 70h10v10h-10z"/>
  <path fill="#BF802D" d="M260 70h10v10h-10z"/>
  <path fill="#EF7D00" d="M270 70h10v10h-10z"/>
  <path fill="#F77F00" d="M280 70h10v10h-10z"/>
  <path fill="#A48253" d="M290 70h10v10h-10z"/>
  <path fill="#CB8E32" d="M300 70h10v10h-10z"/>
  <path fill="#FF8600" d="M310 70h10v10h-10z"/>
  <path fill="#FF9100" d="M320 70h10v10h-10z"/>
  <path fill="#F90" d="M330 70h10v10h-10z"/>
  <path fill="#FF9C00" d="M340 70h10v10h-10z"/>
  <path fill="#FF9A08" d="M350 70h10v10h-10z"/>
  <path fill="#FF9C10" d="M360 70h10v10h-10z"/>
  <path fill="#F93" d="M370 70h10v10h-10z"/>
  <path fill="#E2A950" d="M380 70h10v10h-10z"/>
  <path fill="#DBA35A" d="M390 70h10v10h-10z"/>
  <path fill="#D2A567" d="M400 70h10v10h-10z"/>
  <path fill="#DBA05F" d="M410 70h10v10h-10z"/>
  <path fill="#DBAD6C" d="M420 70h10v10h-10z"/>
  <path fill="#FFA54B" d="M430 70h10v10h-10z"/>
  <path fill="#F9AA51" d="M440 70h10v10h-10z"/>
  <path fill="#E2B269" d="M450 70h10v10h-10z"/>
  <path fill="#FCAD56" d="M460 70h10v10h-10z"/>
  <path fill="#E6BA74" d="M470 70h10v10h-10z"/>
  <path fill="#E9BE79" d="M480 70h10v10h-10z"/>
  <path fill="#453717" d="M0 80h10v10H0z"/>
  <path fill="#694A02" d="M10 80h10v10H10z"/>
  <path fill="#865800" d="M20 80h10v10H20z"/>
  <path fill="#936100" d="M30 80h10v10H30z"/>
  <path fill="#6F5B24" d="M40 80h10v10H40z"/>
  <path fill="#5C5342" d="M50 80h10v10H50z"/>
  <path fill="#6A5E46" d="M60 80h10v10H60z"/>
  <path fill="#B07E09" d="M70 80h10v10H70z"/>
  <path fill="#9B7E39" d="M80 80h10v10H80z"/>
  <path fill="#C69024" d="M90 80h10v10H90z"/>
  <path fill="#C98C26" d="M100 80h10v10h-10z"/>
  <path fill="#F2A800" d="M110 80h10v10h-10z"/>
  <path fill="#E8A30E" d="M120 80h10v10h-10z"/>
  <path fill="#E5AA12" d="M130 80h10v10h-10z"/>
  <path fill="#A48B58" d="M140 80h10v10h-10z"/>
  <path fill="#FFA600" d="M150 80h10v10h-10z"/>
  <path fill="#FFAF00" d="M160 80h10v10h-10z"/>
  <path fill="#EFAD10" d="M170 80h10v10h-10z"/>
  <path fill="#FFB400" d="M180 80h10v10h-10z"/>
  <path fill="#FFB900" d="M190 80h10v10h-10z"/>
  <path fill="#FB0" d="M200 80h10v10h-10z"/>
  <path fill="#F6B40E" d="M210 80h10v10h-10z"/>
  <path fill="#F9B60F" d="M220 80h10v10h-10z"/>
  <path fill="#F1B517" d="M230 80h10v10h-10z"/>
  <path fill="#F1B617" d="M240 80h10v10h-10z"/>
  <path fill="#D99F31" d="M250 80h10v10h-10z"/>
  <path fill="#F7B718" d="M260 80h10v10h-10z"/>
  <path fill="#FEBD11" d="M270 80h10v10h-10z"/>
  <path fill="#FDB913" d="M280 80h10v10h-10z"/>
  <path fill="#F1A720" d="M290 80h10v10h-10z"/>
  <path fill="#E9B528" d="M300 80h10v10h-10z"/>
  <path fill="#FAB81C" d="M310 80h10v10h-10z"/>
  <path fill="#CEA849" d="M320 80h10v10h-10z"/>
  <path fill="#FFB81C" d="M330 80h10v10h-10z"/>
  <path fill="#EDB92E" d="M340 80h10v10h-10z"/>
  <path fill="#EDB92F" d="M350 80h10v10h-10z"/>
  <path fill="#DCA842" d="M360 80h10v10h-10z"/>
  <path fill="#D0A650" d="M370 80h10v10h-10z"/>
  <path fill="#FFC221" d="M380 80h10v10h-10z"/>
  <path fill="#F1BF31" d="M390 80h10v10h-10z"/>
  <path fill="#CDAD56" d="M400 80h10v10h-10z"/>
  <path fill="#FFC72C" d="M410 80h10v10h-10z"/>
  <path fill="#FCCA3D" d="M420 80h10v10h-10z"/>
  <path fill="#FCCA3E" d="M430 80h10v10h-10z"/>
  <path fill="#C6AA76" d="M440 80h10v10h-10z"/>
  <path fill="#C7B37F" d="M450 80h10v10h-10z"/>
  <path fill="#F2D196" d="M460 80h10v10h-10z"/>
  <path fill="#FFD691" d="M470 80h10v10h-10z"/>
  <path fill="#EED3A6" d="M480 80h10v10h-10z"/>
  <path fill="#2B2200" d="M0 90h10v10H0z"/>
  <path fill="#504416" d="M10 90h10v10H10z"/>
  <path fill="#806600" d="M20 90h10v10H20z"/>
  <path fill="#7F670C" d="M30 90h10v10H30z"/>
  <path fill="#816C2A" d="M40 90h10v10H40z"/>
  <path fill="#C09300" d="M50 90h10v10H50z"/>
  <path fill="#977C2E" d="M60 90h10v10H60z"/>
  <path fill="#BA9117" d="M70 90h10v10H70z"/>
  <path fill="#CE9D09" d="M80 90h10v10H80z"/>
  <path fill="#AA8C30" d="M90 90h10v10H90z"/>
  <path fill="#CAA11C" d="M100 90h10v10h-10z"/>
  <path fill="#E9B001" d="M110 90h10v10h-10z"/>
  <path fill="#E8B909" d="M120 90h10v10h-10z"/>
  <path fill="#F8C300" d="M130 90h10v10h-10z"/>
  <path fill="#FDC301" d="M140 90h10v10h-10z"/>
  <path fill="#FECB00" d="M150 90h10v10h-10z"/>
  <path fill="#FFC400" d="M160 90h10v10h-10z"/>
  <path fill="#FFC500" d="M170 90h10v10h-10z"/>
  <path fill="#FFC900" d="M180 90h10v10h-10z"/>
  <path fill="#FFCB00" d="M190 90h10v10h-10z"/>
  <path fill="#FC0" d="M200 90h10v10h-10z"/>
  <path fill="#FEC413" d="M210 90h10v10h-10z"/>
  <path fill="#EBB927" d="M220 90h10v10h-10z"/>
  <path fill="#FEC617" d="M230 90h10v10h-10z"/>
  <path fill="#FEC717" d="M240 90h10v10h-10z"/>
  <path fill="#FEC618" d="M250 90h10v10h-10z"/>
  <path fill="#FFC618" d="M260 90h10v10h-10z"/>
  <path fill="#FFC718" d="M270 90h10v10h-10z"/>
  <path fill="#FFC918" d="M280 90h10v10h-10z"/>
  <path fill="#FFCA18" d="M290 90h10v10h-10z"/>
  <path fill="#FFCE18" d="M300 90h10v10h-10z"/>
  <path fill="#FFC61E" d="M310 90h10v10h-10z"/>
  <path fill="#FCD022" d="M320 90h10v10h-10z"/>
  <path fill="#FFC726" d="M330 90h10v10h-10z"/>
  <path fill="#F4C53D" d="M340 90h10v10h-10z"/>
  <path fill="#F9C83A" d="M350 90h10v10h-10z"/>
  <path fill="#E6C74D" d="M360 90h10v10h-10z"/>
  <path fill="#F8C83C" d="M370 90h10v10h-10z"/>
  <path fill="#FECF3E" d="M380 90h10v10h-10z"/>
  <path fill="#FFD83D" d="M390 90h10v10h-10z"/>
  <path fill="#F9D050" d="M400 90h10v10h-10z"/>
  <path fill="#FCD955" d="M410 90h10v10h-10z"/>
  <path fill="#E2C773" d="M420 90h10v10h-10z"/>
  <path fill="#FED65B" d="M430 90h10v10h-10z"/>
  <path fill="#FBD55F" d="M440 90h10v10h-10z"/>
  <path fill="#FEDF82" d="M450 90h10v10h-10z"/>
  <path fill="#FDEAAF" d="M460 90h10v10h-10z"/>
  <path fill="#FAECBD" d="M470 90h10v10h-10z"/>
  <path fill="#FCF3D8" d="M480 90h10v10h-10z"/>
  <path fill="#A08307" d="M0 100h10v10H0z"/>
  <path fill="#C8A400" d="M10 100h10v10H10z"/>
  <path fill="#A0892C" d="M20 100h10v10H20z"/>
  <path fill="#E5BE01" d="M30 100h10v10H30z"/>
  <path fill="#EBC900" d="M40 100h10v10H40z"/>
  <path fill="#EAC102" d="M50 100h10v10H50z"/>
  <path fill="#F5CE00" d="M60 100h10v10H60z"/>
  <path fill="#F8D000" d="M70 100h10v10H70z"/>
  <path fill="#FAD201" d="M80 100h10v10H80z"/>
  <path fill="#FCD900" d="M90 100h10v10H90z"/>
  <path fill="#FECC00" d="M100 100h10v10h-10z"/>
  <path fill="#FED100" d="M110 100h10v10h-10z"/>
  <path fill="#FEDD00" d="M120 100h10v10h-10z"/>
  <path fill="#FFCD00" d="M130 100h10v10h-10z"/>
  <path fill="#FFCE00" d="M140 100h10v10h-10z"/>
  <path fill="#FFCF00" d="M150 100h10v10h-10z"/>
  <path fill="#FFD100" d="M160 100h10v10h-10z"/>
  <path fill="#FFD200" d="M170 100h10v10h-10z"/>
  <path fill="#FFD300" d="M180 100h10v10h-10z"/>
  <path fill="#FFD500" d="M190 100h10v10h-10z"/>
  <path fill="#FFD600" d="M200 100h10v10h-10z"/>
  <path fill="gold" d="M210 100h10v10h-10z"/>
  <path fill="#FFD900" d="M220 100h10v10h-10z"/>
  <path fill="#FD0" d="M230 100h10v10h-10z"/>
  <path fill="#FFDF00" d="M240 100h10v10h-10z"/>
  <path fill="#FCDC04" d="M250 100h10v10h-10z"/>
  <path fill="#F4CF0E" d="M260 100h10v10h-10z"/>
  <path fill="#FCDD09" d="M270 100h10v10h-10z"/>
  <path fill="#F8D80E" d="M280 100h10v10h-10z"/>
  <path fill="#F9D90F" d="M290 100h10v10h-10z"/>
  <path fill="#999270" d="M300 100h10v10h-10z"/>
  <path fill="#ECC81D" d="M310 100h10v10h-10z"/>
  <path fill="#F7D116" d="M320 100h10v10h-10z"/>
  <path fill="#FDCE12" d="M330 100h10v10h-10z"/>
  <path fill="#F7D618" d="M340 100h10v10h-10z"/>
  <path fill="#FCD116" d="M350 100h10v10h-10z"/>
  <path fill="#D1B948" d="M360 100h10v10h-10z"/>
  <path fill="#FDDA25" d="M370 100h10v10h-10z"/>
  <path fill="#FFDE23" d="M380 100h10v10h-10z"/>
  <path fill="#FFE533" d="M390 100h10v10h-10z"/>
  <path fill="#E4CB5E" d="M400 100h10v10h-10z"/>
  <path fill="#FBDE4A" d="M410 100h10v10h-10z"/>
  <path fill="#FFDF4F" d="M420 100h10v10h-10z"/>
  <path fill="#FFDE52" d="M430 100h10v10h-10z"/>
  <path fill="#F6E078" d="M440 100h10v10h-10z"/>
  <path fill="#FCEA83" d="M450 100h10v10h-10z"/>
  <path fill="#FFE682" d="M460 100h10v10h-10z"/>
  <path fill="#D5D3CA" d="M470 100h10v10h-10z"/>
  <path fill="#FFF6C7" d="M480 100h10v10h-10z"/>
  <path fill="#020200" d="M0 110h10v10H0z"/>
  <path fill="#21231E" d="M10 110h10v10H10z"/>
  <path fill="#404118" d="M20 110h10v10H20z"/>
  <path fill="olive" d="M30 110h10v10H30z"/>
  <path fill="#4E5B31" d="M40 110h10v10H40z"/>
  <path fill="#78732E" d="M50 110h10v10H50z"/>
  <path fill="#717732" d="M60 110h10v10H60z"/>
  <path fill="#C8B100" d="M70 110h10v10H70z"/>
  <path fill="#E6E600" d="M80 110h10v10H80z"/>
  <path fill="#98B432" d="M90 110h10v10H90z"/>
  <path fill="#93BC30" d="M100 110h10v10h-10z"/>
  <path fill="#97C924" d="M110 110h10v10h-10z"/>
  <path fill="#CCD11E" d="M120 110h10v10h-10z"/>
  <path fill="#C6CB24" d="M130 110h10v10h-10z"/>
  <path fill="#F9E300" d="M140 110h10v10h-10z"/>
  <path fill="#FAE600" d="M150 110h10v10h-10z"/>
  <path fill="#F7E204" d="M160 110h10v10h-10z"/>
  <path fill="#FCE100" d="M170 110h10v10h-10z"/>
  <path fill="#FDE300" d="M180 110h10v10h-10z"/>
  <path fill="#FEDF00" d="M190 110h10v10h-10z"/>
  <path fill="#FEF600" d="M200 110h10v10h-10z"/>
  <path fill="#FFE000" d="M210 110h10v10h-10z"/>
  <path fill="#FFE600" d="M220 110h10v10h-10z"/>
  <path fill="#FFEB00" d="M230 110h10v10h-10z"/>
  <path fill="#FFF500" d="M240 110h10v10h-10z"/>
  <path fill="#FFF700" d="M250 110h10v10h-10z"/>
  <path fill="#FF0" d="M260 110h10v10h-10z"/>
  <path fill="#EBFF00" d="M270 110h10v10h-10z"/>
  <path fill="#D6FF00" d="M280 110h10v10h-10z"/>
  <path fill="#C2FF00" d="M290 110h10v10h-10z"/>
  <path fill="#9ECB34" d="M300 110h10v10h-10z"/>
  <path fill="#ADFF00" d="M310 110h10v10h-10z"/>
  <path fill="#9CA168" d="M320 110h10v10h-10z"/>
  <path fill="#F7E214" d="M330 110h10v10h-10z"/>
  <path fill="#EDE71F" d="M340 110h10v10h-10z"/>
  <path fill="#F9E814" d="M350 110h10v10h-10z"/>
  <path fill="#F7DB17" d="M360 110h10v10h-10z"/>
  <path fill="#F7E017" d="M370 110h10v10h-10z"/>
  <path fill="#F9DD16" d="M380 110h10v10h-10z"/>
  <path fill="#A8AC71" d="M390 110h10v10h-10z"/>
  <path fill="#F8E92E" d="M400 110h10v10h-10z"/>
  <path fill="#FFEC2D" d="M410 110h10v10h-10z"/>
  <path fill="#FFF231" d="M420 110h10v10h-10z"/>
  <path fill="#F5F549" d="M430 110h10v10h-10z"/>
  <path fill="#FDEF42" d="M440 110h10v10h-10z"/>
  <path fill="#C6C7A6" d="M450 110h10v10h-10z"/>
  <path fill="#F9F0AA" d="M460 110h10v10h-10z"/>
  <path fill="#E8E8E6" d="M470 110h10v10h-10z"/>
  <path fill="#FFFFFD" d="M480 110h10v10h-10z"/>
  <path fill="#030" d="M0 120h10v10H0z"/>
  <path fill="#202220" d="M10 120h10v10H10z"/>
  <path fill="#004B00" d="M20 120h10v10H20z"/>
  <path fill="#24420E" d="M30 120h10v10H30z"/>
  <path fill="#005000" d="M40 120h10v10H40z"/>
  <path fill="#075400" d="M50 120h10v10H50z"/>
  <path fill="#294814" d="M60 120h10v10H60z"/>
  <path fill="#006300" d="M70 120h10v10H70z"/>
  <path fill="#060" d="M80 120h10v10H80z"/>
  <path fill="#006B00" d="M90 120h10v10H90z"/>
  <path fill="#006D00" d="M100 120h10v10h-10z"/>
  <path fill="#34541F" d="M110 120h10v10h-10z"/>
  <path fill="#007300" d="M120 120h10v10h-10z"/>
  <path fill="green" d="M130 120h10v10h-10z"/>
  <path fill="#406325" d="M140 120h10v10h-10z"/>
  <path fill="#3D6C1E" d="M150 120h10v10h-10z"/>
  <path fill="#338A00" d="M160 120h10v10h-10z"/>
  <path fill="#198A00" d="M170 120h10v10h-10z"/>
  <path fill="#358B03" d="M180 120h10v10h-10z"/>
  <path fill="#128807" d="M190 120h10v10h-10z"/>
  <path fill="#337321" d="M200 120h10v10h-10z"/>
  <path fill="#390" d="M210 120h10v10h-10z"/>
  <path fill="#090" d="M220 120h10v10h-10z"/>
  <path fill="#3E9A00" d="M230 120h10v10h-10z"/>
  <path fill="#3A7728" d="M240 120h10v10h-10z"/>
  <path fill="#466343" d="M250 120h10v10h-10z"/>
  <path fill="#448127" d="M260 120h10v10h-10z"/>
  <path fill="#2F8F22" d="M270 120h10v10h-10z"/>
  <path fill="#62A70F" d="M280 120h10v10h-10z"/>
  <path fill="#289728" d="M290 120h10v10h-10z"/>
  <path fill="#618D33" d="M300 120h10v10h-10z"/>
  <path fill="#5AC800" d="M310 120h10v10h-10z"/>
  <path fill="#509E2F" d="M320 120h10v10h-10z"/>
  <path fill="#67923D" d="M330 120h10v10h-10z"/>
  <path fill="#43B02A" d="M340 120h10v10h-10z"/>
  <path fill="#76BC21" d="M350 120h10v10h-10z"/>
  <path fill="#34B233" d="M360 120h10v10h-10z"/>
  <path fill="#658D5C" d="M370 120h10v10h-10z"/>
  <path fill="#9F0" d="M380 120h10v10h-10z"/>
  <path fill="#85FF00" d="M390 120h10v10h-10z"/>
  <path fill="#6FFF00" d="M400 120h10v10h-10z"/>
  <path fill="#5CFF00" d="M410 120h10v10h-10z"/>
  <path fill="#46FF00" d="M420 120h10v10h-10z"/>
  <path fill="#3F0" d="M430 120h10v10h-10z"/>
  <path fill="#6DBE45" d="M440 120h10v10h-10z"/>
  <path fill="#2DF81C" d="M450 120h10v10h-10z"/>
  <path fill="#94BB79" d="M460 120h10v10h-10z"/>
  <path fill="#A5D371" d="M470 120h10v10h-10z"/>
  <path fill="#6F6" d="M480 120h10v10h-10z"/>
  <path fill="#01411C" d="M0 130h10v10H0z"/>
  <path fill="#034418" d="M10 130h10v10H10z"/>
  <path fill="#024919" d="M20 130h10v10H20z"/>
  <path fill="#006129" d="M30 130h10v10H30z"/>
  <path fill="#006400" d="M40 130h10v10H40z"/>
  <path fill="#01640B" d="M50 130h10v10H50z"/>
  <path fill="#2F3B30" d="M60 130h10v10H60z"/>
  <path fill="#016A16" d="M70 130h10v10H70z"/>
  <path fill="#08672F" d="M80 130h10v10H80z"/>
  <path fill="#007200" d="M90 130h10v10H90z"/>
  <path fill="#007229" d="M100 130h10v10h-10z"/>
  <path fill="#00732F" d="M110 130h10v10h-10z"/>
  <path fill="#007934" d="M120 130h10v10h-10z"/>
  <path fill="#007C2E" d="M130 130h10v10h-10z"/>
  <path fill="#007C30" d="M140 130h10v10h-10z"/>
  <path fill="#215B33" d="M150 130h10v10h-10z"/>
  <path fill="#008021" d="M160 130h10v10h-10z"/>
  <path fill="#008830" d="M170 130h10v10h-10z"/>
  <path fill="#058B08" d="M180 130h10v10h-10z"/>
  <path fill="#078930" d="M190 130h10v10h-10z"/>
  <path fill="#009639" d="M200 130h10v10h-10z"/>
  <path fill="#009739" d="M210 130h10v10h-10z"/>
  <path fill="#059334" d="M220 130h10v10h-10z"/>
  <path fill="#306947" d="M230 130h10v10h-10z"/>
  <path fill="#00993E" d="M240 130h10v10h-10z"/>
  <path fill="#009B3A" d="M250 130h10v10h-10z"/>
  <path fill="#316D3A" d="M260 130h10v10h-10z"/>
  <path fill="#109421" d="M270 130h10v10h-10z"/>
  <path fill="#00B140" d="M280 130h10v10h-10z"/>
  <path fill="#377E3F" d="M290 130h10v10h-10z"/>
  <path fill="#278E43" d="M300 130h10v10h-10z"/>
  <path fill="#477050" d="M310 130h10v10h-10z"/>
  <path fill="#0DB02B" d="M320 130h10v10h-10z"/>
  <path fill="#12AD2B" d="M330 130h10v10h-10z"/>
  <path fill="#239E46" d="M340 130h10v10h-10z"/>
  <path fill="#239F40" d="M350 130h10v10h-10z"/>
  <path fill="#14B53A" d="M360 130h10v10h-10z"/>
  <path fill="#369443" d="M370 130h10v10h-10z"/>
  <path fill="#339E35" d="M380 130h10v10h-10z"/>
  <path fill="#1EB53A" d="M390 130h10v10h-10z"/>
  <path fill="#509164" d="M400 130h10v10h-10z"/>
  <path fill="#00E519" d="M410 130h10v10h-10z"/>
  <path fill="#39B54A" d="M420 130h10v10h-10z"/>
  <path fill="#1CDE6F" d="M430 130h10v10h-10z"/>
  <path fill="#0F0" d="M440 130h10v10h-10z"/>
  <path fill="#3EC26D" d="M450 130h10v10h-10z"/>
  <path fill="#20E653" d="M460 130h10v10h-10z"/>
  <path fill="#28ED38" d="M470 130h10v10h-10z"/>
  <path fill="#9CA69C" d="M480 130h10v10h-10z"/>
  <path fill="#00493D" d="M0 140h10v10H0z"/>
  <path fill="#005430" d="M10 140h10v10H10z"/>
  <path fill="#006233" d="M20 140h10v10H20z"/>
  <path fill="#063" d="M30 140h10v10H30z"/>
  <path fill="#006847" d="M40 140h10v10H40z"/>
  <path fill="#016848" d="M50 140h10v10H50z"/>
  <path fill="#006A44" d="M60 140h10v10H60z"/>
  <path fill="#006A4E" d="M70 140h10v10H70z"/>
  <path fill="#006B3F" d="M80 140h10v10H80z"/>
  <path fill="#006C3C" d="M90 140h10v10H90z"/>
  <path fill="#046A38" d="M100 140h10v10h-10z"/>
  <path fill="#00713D" d="M110 140h10v10h-10z"/>
  <path fill="#007638" d="M120 140h10v10h-10z"/>
  <path fill="#007749" d="M130 140h10v10h-10z"/>
  <path fill="#007935" d="M140 140h10v10h-10z"/>
  <path fill="#007A36" d="M150 140h10v10h-10z"/>
  <path fill="#007A39" d="M160 140h10v10h-10z"/>
  <path fill="#007A3D" d="M170 140h10v10h-10z"/>
  <path fill="#007A50" d="M180 140h10v10h-10z"/>
  <path fill="#007A5E" d="M190 140h10v10h-10z"/>
  <path fill="#017B3D" d="M200 140h10v10h-10z"/>
  <path fill="#007E3A" d="M210 140h10v10h-10z"/>
  <path fill="#007E3C" d="M220 140h10v10h-10z"/>
  <path fill="#20603D" d="M230 140h10v10h-10z"/>
  <path fill="#0F7562" d="M240 140h10v10h-10z"/>
  <path fill="#00843D" d="M250 140h10v10h-10z"/>
  <path fill="#00853F" d="M260 140h10v10h-10z"/>
  <path fill="#00863D" d="M270 140h10v10h-10z"/>
  <path fill="#00873F" d="M280 140h10v10h-10z"/>
  <path fill="#008751" d="M290 140h10v10h-10z"/>
  <path fill="#008F4C" d="M300 140h10v10h-10z"/>
  <path fill="#009246" d="M310 140h10v10h-10z"/>
  <path fill="#058E6E" d="M320 140h10v10h-10z"/>
  <path fill="#009460" d="M330 140h10v10h-10z"/>
  <path fill="#068E6B" d="M340 140h10v10h-10z"/>
  <path fill="#009543" d="M350 140h10v10h-10z"/>
  <path fill="#00966E" d="M360 140h10v10h-10z"/>
  <path fill="#009A44" d="M370 140h10v10h-10z"/>
  <path fill="#009C4F" d="M380 140h10v10h-10z"/>
  <path fill="#009E49" d="M390 140h10v10h-10z"/>
  <path fill="#009E60" d="M400 140h10v10h-10z"/>
  <path fill="#00A551" d="M410 140h10v10h-10z"/>
  <path fill="#00A651" d="M420 140h10v10h-10z"/>
  <path fill="#00A95C" d="M430 140h10v10h-10z"/>
  <path fill="#00AD50" d="M440 140h10v10h-10z"/>
  <path fill="#169B62" d="M450 140h10v10h-10z"/>
  <path fill="#11CCAB" d="M460 140h10v10h-10z"/>
  <path fill="#16D38F" d="M470 140h10v10h-10z"/>
  <path fill="#B1B4B3" d="M480 140h10v10h-10z"/>
  <path fill="#1E2121" d="M0 150h10v10H0z"/>
  <path fill="#04534E" d="M10 150h10v10H10z"/>
  <path fill="#005F56" d="M20 150h10v10H20z"/>
  <path fill="#007168" d="M30 150h10v10H30z"/>
  <path fill="#00778B" d="M40 150h10v10H40z"/>
  <path fill="#008C8D" d="M50 150h10v10H50z"/>
  <path fill="#395054" d="M60 150h10v10H60z"/>
  <path fill="#008E8E" d="M70 150h10v10H70z"/>
  <path fill="#0C8489" d="M80 150h10v10H80z"/>
  <path fill="#485654" d="M90 150h10v10H90z"/>
  <path fill="#0075AF" d="M100 150h10v10h-10z"/>
  <path fill="#0077B0" d="M110 150h10v10h-10z"/>
  <path fill="#0099B5" d="M120 150h10v10h-10z"/>
  <path fill="#007DB5" d="M130 150h10v10h-10z"/>
  <path fill="#00A2BD" d="M140 150h10v10h-10z"/>
  <path fill="#00ABC2" d="M150 150h10v10h-10z"/>
  <path fill="#0092C8" d="M160 150h10v10h-10z"/>
  <path fill="#0091C8" d="M170 150h10v10h-10z"/>
  <path fill="#557176" d="M180 150h10v10h-10z"/>
  <path fill="#09C5C6" d="M190 150h10v10h-10z"/>
  <path fill="#02BED7" d="M200 150h10v10h-10z"/>
  <path fill="#00C0DD" d="M210 150h10v10h-10z"/>
  <path fill="#00A3DD" d="M220 150h10v10h-10z"/>
  <path fill="#00A6DE" d="M230 150h10v10h-10z"/>
  <path fill="#00A1DE" d="M240 150h10v10h-10z"/>
  <path fill="#009CDE" d="M250 150h10v10h-10z"/>
  <path fill="#00A3E0" d="M260 150h10v10h-10z"/>
  <path fill="#00B5E2" d="M270 150h10v10h-10z"/>
  <path fill="#00BCE4" d="M280 150h10v10h-10z"/>
  <path fill="#4C819A" d="M290 150h10v10h-10z"/>
  <path fill="#05B9E2" d="M300 150h10v10h-10z"/>
  <path fill="#1EA8D1" d="M310 150h10v10h-10z"/>
  <path fill="#0CF" d="M320 150h10v10h-10z"/>
  <path fill="#00B3FF" d="M330 150h10v10h-10z"/>
  <path fill="#17C0EB" d="M340 150h10v10h-10z"/>
  <path fill="#30C2DC" d="M350 150h10v10h-10z"/>
  <path fill="#858D8D" d="M360 150h10v10h-10z"/>
  <path fill="#8A9396" d="M370 150h10v10h-10z"/>
  <path fill="#64B4D1" d="M380 150h10v10h-10z"/>
  <path fill="#8CBEBF" d="M390 150h10v10h-10z"/>
  <path fill="#89C5E3" d="M400 150h10v10h-10z"/>
  <path fill="#A5E7E7" d="M410 150h10v10h-10z"/>
  <path fill="#92DBFC" d="M420 150h10v10h-10z"/>
  <path fill="#CECFCF" d="M430 150h10v10h-10z"/>
  <path fill="#ADEFF7" d="M440 150h10v10h-10z"/>
  <path fill="#CCE5E5" d="M450 150h10v10h-10z"/>
  <path fill="#D3DCE0" d="M460 150h10v10h-10z"/>
  <path fill="#CEEFEF" d="M470 150h10v10h-10z"/>
  <path fill="#D6F7FF" d="M480 150h10v10h-10z"/>
  <path fill="#101820" d="M0 160h10v10H0z"/>
  <path fill="#005D95" d="M10 160h10v10H10z"/>
  <path fill="#02529C" d="M20 160h10v10H20z"/>
  <path fill="#006AA7" d="M30 160h10v10H30z"/>
  <path fill="#0064AD" d="M40 160h10v10H40z"/>
  <path fill="#0872A7" d="M50 160h10v10H50z"/>
  <path fill="#0066B2" d="M60 160h10v10H60z"/>
  <path fill="#005EB8" d="M70 160h10v10H70z"/>
  <path fill="#0D5EAF" d="M80 160h10v10H80z"/>
  <path fill="#0081C6" d="M90 160h10v10H90z"/>
  <path fill="#0072C6" d="M100 160h10v10h-10z"/>
  <path fill="#0067C6" d="M110 160h10v10h-10z"/>
  <path fill="#006EC7" d="M120 160h10v10h-10z"/>
  <path fill="#006AC8" d="M130 160h10v10h-10z"/>
  <path fill="#0073CE" d="M140 160h10v10h-10z"/>
  <path fill="#0072CE" d="M150 160h10v10h-10z"/>
  <path fill="#0093DD" d="M160 160h10v10h-10z"/>
  <path fill="#008CE7" d="M170 160h10v10h-10z"/>
  <path fill="#2C87BC" d="M180 160h10v10h-10z"/>
  <path fill="#0088E8" d="M190 160h10v10h-10z"/>
  <path fill="#00A8FF" d="M200 160h10v10h-10z"/>
  <path fill="#009EFF" d="M210 160h10v10h-10z"/>
  <path fill="#09F" d="M220 160h10v10h-10z"/>
  <path fill="#0096FF" d="M230 160h10v10h-10z"/>
  <path fill="#008BFF" d="M240 160h10v10h-10z"/>
  <path fill="#0082FF" d="M250 160h10v10h-10z"/>
  <path fill="#4F91C5" d="M260 160h10v10h-10z"/>
  <path fill="#4997D0" d="M270 160h10v10h-10z"/>
  <path fill="#5998C6" d="M280 160h10v10h-10z"/>
  <path fill="#2B96F6" d="M290 160h10v10h-10z"/>
  <path fill="#8C959D" d="M300 160h10v10h-10z"/>
  <path fill="#6DA9D2" d="M310 160h10v10h-10z"/>
  <path fill="#5EB6E4" d="M320 160h10v10h-10z"/>
  <path fill="#62AFE1" d="M330 160h10v10h-10z"/>
  <path fill="#62B5E5" d="M340 160h10v10h-10z"/>
  <path fill="#6AB2E7" d="M350 160h10v10h-10z"/>
  <path fill="#75B2DD" d="M360 160h10v10h-10z"/>
  <path fill="#74ACDF" d="M370 160h10v10h-10z"/>
  <path fill="#88B0D5" d="M380 160h10v10h-10z"/>
  <path fill="#6CF" d="M390 160h10v10h-10z"/>
  <path fill="#B2B6BA" d="M400 160h10v10h-10z"/>
  <path fill="#B1BABF" d="M410 160h10v10h-10z"/>
  <path fill="#BDBFC1" d="M420 160h10v10h-10z"/>
  <path fill="#9DC9E2" d="M430 160h10v10h-10z"/>
  <path fill="#A0CFEB" d="M440 160h10v10h-10z"/>
  <path fill="#C0CAD0" d="M450 160h10v10h-10z"/>
  <path fill="#9CF" d="M460 160h10v10h-10z"/>
  <path fill="#DCDDDE" d="M470 160h10v10h-10z"/>
  <path fill="#E3E4E5" d="M480 160h10v10h-10z"/>
  <path fill="#1C242F" d="M0 170h10v10H0z"/>
  <path fill="#002654" d="M10 170h10v10H10z"/>
  <path fill="#025" d="M20 170h10v10H20z"/>
  <path fill="#002D62" d="M30 170h10v10H30z"/>
  <path fill="#002664" d="M40 170h10v10H40z"/>
  <path fill="#002868" d="M50 170h10v10H50z"/>
  <path fill="#073163" d="M60 170h10v10H60z"/>
  <path fill="#002F6C" d="M70 170h10v10H70z"/>
  <path fill="#003580" d="M80 170h10v10H80z"/>
  <path fill="#0C4076" d="M90 170h10v10H90z"/>
  <path fill="#003D88" d="M100 170h10v10h-10z"/>
  <path fill="#023F88" d="M110 170h10v10h-10z"/>
  <path fill="#11457E" d="M120 170h10v10h-10z"/>
  <path fill="#003893" d="M130 170h10v10h-10z"/>
  <path fill="#003994" d="M140 170h10v10h-10z"/>
  <path fill="#0047A0" d="M150 170h10v10h-10z"/>
  <path fill="#024FA2" d="M160 170h10v10h-10z"/>
  <path fill="#034EA2" d="M170 170h10v10h-10z"/>
  <path fill="#0042A8" d="M180 170h10v10h-10z"/>
  <path fill="#04A" d="M190 170h10v10h-10z"/>
  <path fill="#0B50A0" d="M200 170h10v10h-10z"/>
  <path fill="#0047AB" d="M210 170h10v10h-10z"/>
  <path fill="#0045AB" d="M220 170h10v10h-10z"/>
  <path fill="#0B4EA2" d="M230 170h10v10h-10z"/>
  <path fill="#0046AD" d="M240 170h10v10h-10z"/>
  <path fill="#0046AE" d="M250 170h10v10h-10z"/>
  <path fill="#0049AF" d="M260 170h10v10h-10z"/>
  <path fill="#004BB3" d="M270 170h10v10h-10z"/>
  <path fill="#0051BA" d="M280 170h10v10h-10z"/>
  <path fill="#005BBB" d="M290 170h10v10h-10z"/>
  <path fill="#005BBF" d="M300 170h10v10h-10z"/>
  <path fill="#1E5AA6" d="M310 170h10v10h-10z"/>
  <path fill="#2C5AA0" d="M320 170h10v10h-10z"/>
  <path fill="#3A75C4" d="M330 170h10v10h-10z"/>
  <path fill="#007FFF" d="M340 170h10v10h-10z"/>
  <path fill="#0079FF" d="M350 170h10v10h-10z"/>
  <path fill="#377BC8" d="M360 170h10v10h-10z"/>
  <path fill="#006FFF" d="M370 170h10v10h-10z"/>
  <path fill="#06F" d="M380 170h10v10h-10z"/>
  <path fill="#4189DD" d="M390 170h10v10h-10z"/>
  <path fill="#418FDE" d="M400 170h10v10h-10z"/>
  <path fill="#2A7FFF" d="M410 170h10v10h-10z"/>
  <path fill="#939598" d="M420 170h10v10h-10z"/>
  <path fill="#949699" d="M430 170h10v10h-10z"/>
  <path fill="#999B9E" d="M440 170h10v10h-10z"/>
  <path fill="#A3A5A8" d="M450 170h10v10h-10z"/>
  <path fill="#99AFCA" d="M460 170h10v10h-10z"/>
  <path fill="#B4B6B9" d="M470 170h10v10h-10z"/>
  <path fill="#C1D3E8" d="M480 170h10v10h-10z"/>
  <path fill="#051440" d="M0 180h10v10H0z"/>
  <path fill="#00205B" d="M10 180h10v10H10z"/>
  <path fill="#072357" d="M20 180h10v10H20z"/>
  <path fill="#012169" d="M30 180h10v10H30z"/>
  <path fill="#002674" d="M40 180h10v10H40z"/>
  <path fill="#002776" d="M50 180h10v10H50z"/>
  <path fill="#00297B" d="M60 180h10v10H60z"/>
  <path fill="#00247D" d="M70 180h10v10H70z"/>
  <path fill="#002B7F" d="M80 180h10v10H80z"/>
  <path fill="#00267F" d="M90 180h10v10H90z"/>
  <path fill="#003082" d="M100 180h10v10h-10z"/>
  <path fill="#003087" d="M110 180h10v10h-10z"/>
  <path fill="#012A87" d="M120 180h10v10h-10z"/>
  <path fill="#183070" d="M130 180h10v10h-10z"/>
  <path fill="#002488" d="M140 180h10v10h-10z"/>
  <path fill="#00258B" d="M150 180h10v10h-10z"/>
  <path fill="#002A8F" d="M160 180h10v10h-10z"/>
  <path fill="#00288F" d="M170 180h10v10h-10z"/>
  <path fill="#002B91" d="M180 180h10v10h-10z"/>
  <path fill="#002D93" d="M190 180h10v10h-10z"/>
  <path fill="#002F96" d="M200 180h10v10h-10z"/>
  <path fill="#0A328C" d="M210 180h10v10h-10z"/>
  <path fill="#039" d="M220 180h10v10h-10z"/>
  <path fill="#00359C" d="M230 180h10v10h-10z"/>
  <path fill="#00389E" d="M240 180h10v10h-10z"/>
  <path fill="#0039A0" d="M250 180h10v10h-10z"/>
  <path fill="#0033A0" d="M260 180h10v10h-10z"/>
  <path fill="#0033A1" d="M270 180h10v10h-10z"/>
  <path fill="#003CA2" d="M280 180h10v10h-10z"/>
  <path fill="#083D9C" d="M290 180h10v10h-10z"/>
  <path fill="#032EA1" d="M300 180h10v10h-10z"/>
  <path fill="#003DA5" d="M310 180h10v10h-10z"/>
  <path fill="#003EA6" d="M320 180h10v10h-10z"/>
  <path fill="#0039A6" d="M330 180h10v10h-10z"/>
  <path fill="#0038A8" d="M340 180h10v10h-10z"/>
  <path fill="#21468B" d="M350 180h10v10h-10z"/>
  <path fill="#0035AD" d="M360 180h10v10h-10z"/>
  <path fill="#565759" d="M370 180h10v10h-10z"/>
  <path fill="#0038B8" d="M380 180h10v10h-10z"/>
  <path fill="#0F47AF" d="M390 180h10v10h-10z"/>
  <path fill="#616264" d="M400 180h10v10h-10z"/>
  <path fill="#244AA5" d="M410 180h10v10h-10z"/>
  <path fill="#0050F0" d="M420 180h10v10h-10z"/>
  <path fill="#797A7D" d="M430 180h10v10h-10z"/>
  <path fill="#3E5EB9" d="M440 180h10v10h-10z"/>
  <path fill="#025CFF" d="M450 180h10v10h-10z"/>
  <path fill="#054FFF" d="M460 180h10v10h-10z"/>
  <path fill="#0645FF" d="M470 180h10v10h-10z"/>
  <path fill="#2B5DF2" d="M480 180h10v10h-10z"/>
  <path fill="#003" d="M0 190h10v10H0z"/>
  <path fill="#00004B" d="M10 190h10v10H10z"/>
  <path fill="#00004F" d="M20 190h10v10H20z"/>
  <path fill="#000051" d="M30 190h10v10H30z"/>
  <path fill="#000053" d="M40 190h10v10H40z"/>
  <path fill="#000056" d="M50 190h10v10H50z"/>
  <path fill="#000058" d="M60 190h10v10H60z"/>
  <path fill="#00005C" d="M70 190h10v10H70z"/>
  <path fill="#00005E" d="M80 190h10v10H80z"/>
  <path fill="#000060" d="M90 190h10v10H90z"/>
  <path fill="#000062" d="M100 190h10v10h-10z"/>
  <path fill="#006" d="M110 190h10v10h-10z"/>
  <path fill="#000268" d="M120 190h10v10h-10z"/>
  <path fill="#00056B" d="M130 190h10v10h-10z"/>
  <path fill="#00066D" d="M140 190h10v10h-10z"/>
  <path fill="#00096F" d="M150 190h10v10h-10z"/>
  <path fill="#000B73" d="M160 190h10v10h-10z"/>
  <path fill="#000F75" d="M170 190h10v10h-10z"/>
  <path fill="#001178" d="M180 190h10v10h-10z"/>
  <path fill="#001379" d="M190 190h10v10h-10z"/>
  <path fill="#00167C" d="M200 190h10v10h-10z"/>
  <path fill="#162667" d="M210 190h10v10h-10z"/>
  <path fill="#00187E" d="M220 190h10v10h-10z"/>
  <path fill="#001C82" d="M230 190h10v10h-10z"/>
  <path fill="#001E85" d="M240 190h10v10h-10z"/>
  <path fill="#002086" d="M250 190h10v10h-10z"/>
  <path fill="#1A206D" d="M260 190h10v10h-10z"/>
  <path fill="#008" d="M270 190h10v10h-10z"/>
  <path fill="#002289" d="M280 190h10v10h-10z"/>
  <path fill="#001489" d="M290 190h10v10h-10z"/>
  <path fill="#002395" d="M300 190h10v10h-10z"/>
  <path fill="#000095" d="M310 190h10v10h-10z"/>
  <path fill="#0C1C8C" d="M320 190h10v10h-10z"/>
  <path fill="#00009E" d="M330 190h10v10h-10z"/>
  <path fill="#00209F" d="M340 190h10v10h-10z"/>
  <path fill="#171796" d="M350 190h10v10h-10z"/>
  <path fill="#0039F0" d="M360 190h10v10h-10z"/>
  <path fill="#00F" d="M370 190h10v10h-10z"/>
  <path fill="#0938FF" d="M380 190h10v10h-10z"/>
  <path fill="#0F2DFF" d="M390 190h10v10h-10z"/>
  <path fill="#84848A" d="M400 190h10v10h-10z"/>
  <path fill="#1120FF" d="M410 190h10v10h-10z"/>
  <path fill="#1316FF" d="M420 190h10v10h-10z"/>
  <path fill="#ACACAD" d="M430 190h10v10h-10z"/>
  <path fill="#CCCCCD" d="M440 190h10v10h-10z"/>
  <path fill="#CCCCCF" d="M450 190h10v10h-10z"/>
  <path fill="#D5DFFF" d="M460 190h10v10h-10z"/>
  <path fill="#F1F1F2" d="M470 190h10v10h-10z"/>
  <path fill="#F4F5F8" d="M480 190h10v10h-10z"/>
</svg>
