<svg xmlns="http://www.w3.org/2000/svg" width="1000" height="400">
  <path fill="#000" d="M0 0h20v20H0z"/>
  <path fill="#010002" d="M20 0h20v20H20z"/>
  <path fill="#020200" d="M40 0h20v20H40z"/>
  <path fill="#171717" d="M60 0h20v20H60z"/>
  <path fill="#181818" d="M80 0h20v20H80z"/>
  <path fill="#202020" d="M100 0h20v20h-20z"/>
  <path fill="#1E2121" d="M120 0h20v20h-20z"/>
  <path fill="#202220" d="M140 0h20v20h-20z"/>
  <path fill="#2B2B2B" d="M160 0h20v20h-20z"/>
  <path fill="#333" d="M180 0h20v20h-20z"/>
  <path fill="#383739" d="M200 0h20v20h-20z"/>
  <path fill="#424242" d="M220 0h20v20h-20z"/>
  <path fill="#474747" d="M240 0h20v20h-20z"/>
  <path fill="#494949" d="M260 0h20v20h-20z"/>
  <path fill="#4D4B4D" d="M280 0h20v20h-20z"/>
  <path fill="#4D4D4D" d="M300 0h20v20h-20z"/>
  <path fill="#565759" d="M320 0h20v20h-20z"/>
  <path fill="#5A5A5A" d="M340 0h20v20h-20z"/>
  <path fill="#616264" d="M360 0h20v20h-20z"/>
  <path fill="#656263" d="M380 0h20v20h-20z"/>
  <path fill="#797979" d="M400 0h20v20h-20z"/>
  <path fill="#8A8A8A" d="M420 0h20v20h-20z"/>
  <path fill="#949494" d="M440 0h20v20h-20z"/>
  <path fill="#959595" d="M460 0h20v20h-20z"/>
  <path fill="#A1A1A1" d="M480 0h20v20h-20z"/>
  <path fill="#ACACAC" d="M500 0h20v20h-20z"/>
  <path fill="#ACACAD" d="M520 0h20v20h-20z"/>
  <path fill="#ADADAD" d="M540 0h20v20h-20z"/>
  <path fill="#B3B3B3" d="M560 0h20v20h-20z"/>
  <path fill="#B1B4B3" d="M580 0h20v20h-20z"/>
  <path fill="#BDBFC1" d="M600 0h20v20h-20z"/>
  <path fill="#C9C9C9" d="M620 0h20v20h-20z"/>
  <path fill="#CCC" d="M640 0h20v20h-20z"/>
  <path fill="#CCCCCD" d="M660 0h20v20h-20z"/>
  <path fill="#CCCCCF" d="M680 0h20v20h-20z"/>
  <path fill="#CECFCF" d="M700 0h20v20h-20z"/>
  <path fill="#D4D4D4" d="M720 0h20v20h-20z"/>
  <path fill="#DCDCDC" d="M740 0h20v20h-20z"/>
  <path fill="#DCDDDE" d="M760 0h20v20h-20z"/>
  <path fill="#DDD" d="M780 0h20v20h-20z"/>
  <path fill="#E3E4E5" d="M800 0h20v20h-20z"/>
  <path fill="#E5E5E5" d="M820 0h20v20h-20z"/>
  <path fill="#E7E7E7" d="M840 0h20v20h-20z"/>
  <path fill="#E8E8E6" d="M860 0h20v20h-20z"/>
  <path fill="#E8E8E8" d="M880 0h20v20h-20z"/>
  <path fill="#EEE" d="M900 0h20v20h-20z"/>
  <path fill="#F1F1F2" d="M920 0h20v20h-20z"/>
  <path fill="#FFFEFF" d="M940 0h20v20h-20z"/>
  <path fill="#FFFFFD" d="M960 0h20v20h-20z"/>
  <path fill="#FFF" d="M980 0h20v20h-20z"/>
  <path fill="#080101" d="M0 20h20v20H0z"/>
  <path fill="#101820" d="M20 20h20v20H20z"/>
  <path fill="#201B18" d="M40 20h20v20H40z"/>
  <path fill="#2C1C12" d="M60 20h20v20H60z"/>
  <path fill="#231F20" d="M80 20h20v20H80z"/>
  <path fill="#21231E" d="M100 20h20v20h-20z"/>
  <path fill="#1C242F" d="M120 20h20v20h-20z"/>
  <path fill="#312317" d="M140 20h20v20h-20z"/>
  <path fill="#2D2A26" d="M160 20h20v20h-20z"/>
  <path fill="#2F3B30" d="M180 20h20v20h-20z"/>
  <path fill="#45392D" d="M200 20h20v20h-20z"/>
  <path fill="#4B4139" d="M220 20h20v20h-20z"/>
  <path fill="#514B4B" d="M240 20h20v20h-20z"/>
  <path fill="#574F4C" d="M260 20h20v20h-20z"/>
  <path fill="#485654" d="M280 20h20v20h-20z"/>
  <path fill="#5C5342" d="M300 20h20v20h-20z"/>
  <path fill="#696161" d="M320 20h20v20h-20z"/>
  <path fill="#797A7D" d="M340 20h20v20h-20z"/>
  <path fill="#847B7B" d="M360 20h20v20h-20z"/>
  <path fill="#878383" d="M380 20h20v20h-20z"/>
  <path fill="#84848A" d="M400 20h20v20h-20z"/>
  <path fill="#96877D" d="M420 20h20v20h-20z"/>
  <path fill="#858D8D" d="M440 20h20v20h-20z"/>
  <path fill="#8A9396" d="M460 20h20v20h-20z"/>
  <path fill="#8C959D" d="M480 20h20v20h-20z"/>
  <path fill="#939598" d="M500 20h20v20h-20z"/>
  <path fill="#949699" d="M520 20h20v20h-20z"/>
  <path fill="#999B9E" d="M540 20h20v20h-20z"/>
  <path fill="#9CA69C" d="M560 20h20v20h-20z"/>
  <path fill="#A3A5A8" d="M580 20h20v20h-20z"/>
  <path fill="#B2B6BA" d="M600 20h20v20h-20z"/>
  <path fill="#B4B6B9" d="M620 20h20v20h-20z"/>
  <path fill="#B1BABF" d="M640 20h20v20h-20z"/>
  <path fill="#CCB8C8" d="M660 20h20v20h-20z"/>
  <path fill="#C0CAD0" d="M680 20h20v20h-20z"/>
  <path fill="#D0C9CE" d="M700 20h20v20h-20z"/>
  <path fill="#D5D3CA" d="M720 20h20v20h-20z"/>
  <path fill="#D3DCE0" d="M740 20h20v20h-20z"/>
  <path fill="#CCE5E5" d="M760 20h20v20h-20z"/>
  <path fill="#FFE8E6" d="M780 20h20v20h-20z"/>
  <path fill="#FFEBE6" d="M800 20h20v20h-20z"/>
  <path fill="#FFEBE8" d="M820 20h20v20h-20z"/>
  <path fill="#FFEDEB" d="M840 20h20v20h-20z"/>
  <path fill="#FFEFED" d="M860 20h20v20h-20z"/>
  <path fill="#FFEFEF" d="M880 20h20v20h-20z"/>
  <path fill="#F4F5F8" d="M900 20h20v20h-20z"/>
  <path fill="#FFF3EF" d="M920 20h20v20h-20z"/>
  <path fill="#FFF3F3" d="M940 20h20v20h-20z"/>
  <path fill="#FAF6F5" d="M960 20h20v20h-20z"/>
  <path fill="#FDF9FF" d="M980 20h20v20h-20z"/>
  <path fill="#280B0B" d="M0 40h20v20H0z"/>
  <path fill="#390000" d="M20 40h20v20H20z"/>
  <path fill="#351710" d="M40 40h20v20H40z"/>
  <path fill="#4A0000" d="M60 40h20v20H60z"/>
  <path fill="#4C0505" d="M80 40h20v20H80z"/>
  <path fill="#510000" d="M100 40h20v20h-20z"/>
  <path fill="#500" d="M120 40h20v20h-20z"/>
  <path fill="#511124" d="M140 40h20v20h-20z"/>
  <path fill="#5E0043" d="M160 40h20v20h-20z"/>
  <path fill="#630810" d="M180 40h20v20h-20z"/>
  <path fill="#452C25" d="M200 40h20v20h-20z"/>
  <path fill="#5A2118" d="M220 40h20v20h-20z"/>
  <path fill="#5D241B" d="M240 40h20v20h-20z"/>
  <path fill="#653024" d="M260 40h20v20h-20z"/>
  <path fill="#6C301E" d="M280 40h20v20h-20z"/>
  <path fill="#7A2E26" d="M300 40h20v20h-20z"/>
  <path fill="#862633" d="M320 40h20v20h-20z"/>
  <path fill="#FFA1A1" d="M340 40h20v20h-20z"/>
  <path fill="#F1B2DC" d="M360 40h20v20h-20z"/>
  <path fill="#FFB39C" d="M380 40h20v20h-20z"/>
  <path fill="#D9C0B9" d="M400 40h20v20h-20z"/>
  <path fill="#FFB59E" d="M420 40h20v20h-20z"/>
  <path fill="#FFB9A6" d="M440 40h20v20h-20z"/>
  <path fill="#FFBCA8" d="M460 40h20v20h-20z"/>
  <path fill="#FFBEAB" d="M480 40h20v20h-20z"/>
  <path fill="#FFBEAD" d="M500 40h20v20h-20z"/>
  <path fill="#FFC2AF" d="M520 40h20v20h-20z"/>
  <path fill="#FFC5B3" d="M540 40h20v20h-20z"/>
  <path fill="#FFC6B5" d="M560 40h20v20h-20z"/>
  <path fill="#FFC6B8" d="M580 40h20v20h-20z"/>
  <path fill="#FFC9B8" d="M600 40h20v20h-20z"/>
  <path fill="#FFC9B9" d="M620 40h20v20h-20z"/>
  <path fill="#FFCCBC" d="M640 40h20v20h-20z"/>
  <path fill="#FFCFC2" d="M660 40h20v20h-20z"/>
  <path fill="#FFD1C2" d="M680 40h20v20h-20z"/>
  <path fill="#FFD1C5" d="M700 40h20v20h-20z"/>
  <path fill="#FFD3C6" d="M720 40h20v20h-20z"/>
  <path fill="#FFD3C9" d="M740 40h20v20h-20z"/>
  <path fill="#FFD6C9" d="M760 40h20v20h-20z"/>
  <path fill="#FFD6CC" d="M780 40h20v20h-20z"/>
  <path fill="#FFD9CF" d="M800 40h20v20h-20z"/>
  <path fill="#FFDCD1" d="M820 40h20v20h-20z"/>
  <path fill="#FFDCD3" d="M840 40h20v20h-20z"/>
  <path fill="#FFDED6" d="M860 40h20v20h-20z"/>
  <path fill="#FFE0D9" d="M880 40h20v20h-20z"/>
  <path fill="#FFE2DC" d="M900 40h20v20h-20z"/>
  <path fill="#FFE2DE" d="M920 40h20v20h-20z"/>
  <path fill="#FFE6DE" d="M940 40h20v20h-20z"/>
  <path fill="#FFE6E0" d="M960 40h20v20h-20z"/>
  <path fill="#FFE8E2" d="M980 40h20v20h-20z"/>
  <path fill="#2B1100" d="M0 60h20v20H0z"/>
  <path fill="#2F2311" d="M20 60h20v20H20z"/>
  <path fill="#512007" d="M40 60h20v20H40z"/>
  <path fill="#520" d="M60 60h20v20H60z"/>
  <path fill="#442C13" d="M80 60h20v20H80z"/>
  <path fill="#4D2A15" d="M100 60h20v20h-20z"/>
  <path fill="#513625" d="M120 60h20v20h-20z"/>
  <path fill="#5C3818" d="M140 60h20v20h-20z"/>
  <path fill="#5C3A1D" d="M160 60h20v20h-20z"/>
  <path fill="#5E3F17" d="M180 60h20v20h-20z"/>
  <path fill="#6C3F18" d="M200 60h20v20h-20z"/>
  <path fill="#6F3F1E" d="M220 60h20v20h-20z"/>
  <path fill="#6C4119" d="M240 60h20v20h-20z"/>
  <path fill="#713F2A" d="M260 60h20v20h-20z"/>
  <path fill="#64472D" d="M280 60h20v20h-20z"/>
  <path fill="#7B3C20" d="M300 60h20v20h-20z"/>
  <path fill="#73452B" d="M320 60h20v20h-20z"/>
  <path fill="#784421" d="M340 60h20v20h-20z"/>
  <path fill="#6A4C2D" d="M360 60h20v20h-20z"/>
  <path fill="#704D25" d="M380 60h20v20h-20z"/>
  <path fill="#794D2F" d="M400 60h20v20h-20z"/>
  <path fill="#755338" d="M420 60h20v20h-20z"/>
  <path fill="#7D5035" d="M440 60h20v20h-20z"/>
  <path fill="#825123" d="M460 60h20v20h-20z"/>
  <path fill="#895F33" d="M480 60h20v20h-20z"/>
  <path fill="#866D46" d="M500 60h20v20h-20z"/>
  <path fill="#997B56" d="M520 60h20v20h-20z"/>
  <path fill="#A37853" d="M540 60h20v20h-20z"/>
  <path fill="#AD7C59" d="M560 60h20v20h-20z"/>
  <path fill="#AD7D5A" d="M580 60h20v20h-20z"/>
  <path fill="#A48253" d="M600 60h20v20h-20z"/>
  <path fill="#B07E5B" d="M620 60h20v20h-20z"/>
  <path fill="#B68A6A" d="M640 60h20v20h-20z"/>
  <path fill="#C99472" d="M660 60h20v20h-20z"/>
  <path fill="#D0A386" d="M680 60h20v20h-20z"/>
  <path fill="#E6AB87" d="M700 60h20v20h-20z"/>
  <path fill="#D6B39D" d="M720 60h20v20h-20z"/>
  <path fill="#D7B5A0" d="M740 60h20v20h-20z"/>
  <path fill="#FFB59C" d="M760 60h20v20h-20z"/>
  <path fill="#FFB8A0" d="M780 60h20v20h-20z"/>
  <path fill="#FFB9A2" d="M800 60h20v20h-20z"/>
  <path fill="#DEC7B7" d="M820 60h20v20h-20z"/>
  <path fill="#FFBCA6" d="M840 60h20v20h-20z"/>
  <path fill="#FFC2AD" d="M860 60h20v20h-20z"/>
  <path fill="#EFC9B2" d="M880 60h20v20h-20z"/>
  <path fill="#EED3A6" d="M900 60h20v20h-20z"/>
  <path fill="#FFCFBE" d="M920 60h20v20h-20z"/>
  <path fill="#FFDED3" d="M940 60h20v20h-20z"/>
  <path fill="#FFE1CF" d="M960 60h20v20h-20z"/>
  <path fill="#F9E7D9" d="M980 60h20v20h-20z"/>
  <path fill="#030" d="M0 80h20v20H0z"/>
  <path fill="#453717" d="M20 80h20v20H20z"/>
  <path fill="#24420E" d="M40 80h20v20H40z"/>
  <path fill="#404118" d="M60 80h20v20H60z"/>
  <path fill="#004B00" d="M80 80h20v20H80z"/>
  <path fill="#294814" d="M100 80h20v20h-20z"/>
  <path fill="#005000" d="M120 80h20v20h-20z"/>
  <path fill="#075400" d="M140 80h20v20h-20z"/>
  <path fill="#34541F" d="M160 80h20v20h-20z"/>
  <path fill="#215B33" d="M180 80h20v20h-20z"/>
  <path fill="#4E5B31" d="M200 80h20v20h-20z"/>
  <path fill="#246318" d="M220 80h20v20h-20z"/>
  <path fill="#406325" d="M240 80h20v20h-20z"/>
  <path fill="#466343" d="M260 80h20v20h-20z"/>
  <path fill="#6F5B24" d="M280 80h20v20h-20z"/>
  <path fill="#6A5E46" d="M300 80h20v20h-20z"/>
  <path fill="#3D6C1E" d="M320 80h20v20h-20z"/>
  <path fill="#316D3A" d="M340 80h20v20h-20z"/>
  <path fill="#337321" d="M360 80h20v20h-20z"/>
  <path fill="#477050" d="M380 80h20v20h-20z"/>
  <path fill="#3A7728" d="M400 80h20v20h-20z"/>
  <path fill="#2D7939" d="M420 80h20v20h-20z"/>
  <path fill="#816C2A" d="M440 80h20v20h-20z"/>
  <path fill="#377E3F" d="M460 80h20v20h-20z"/>
  <path fill="#78732E" d="M480 80h20v20h-20z"/>
  <path fill="#717732" d="M500 80h20v20h-20z"/>
  <path fill="#448127" d="M520 80h20v20h-20z"/>
  <path fill="#32833B" d="M540 80h20v20h-20z"/>
  <path fill="#698940" d="M560 80h20v20h-20z"/>
  <path fill="#37904C" d="M580 80h20v20h-20z"/>
  <path fill="#9B7E39" d="M600 80h20v20h-20z"/>
  <path fill="#369443" d="M620 80h20v20h-20z"/>
  <path fill="#658D5C" d="M640 80h20v20h-20z"/>
  <path fill="#509164" d="M660 80h20v20h-20z"/>
  <path fill="#67923D" d="M680 80h20v20h-20z"/>
  <path fill="#A48B58" d="M700 80h20v20h-20z"/>
  <path fill="#999270" d="M720 80h20v20h-20z"/>
  <path fill="#9CA168" d="M740 80h20v20h-20z"/>
  <path fill="#A8AC71" d="M760 80h20v20h-20z"/>
  <path fill="#C6AA76" d="M780 80h20v20h-20z"/>
  <path fill="#94BB79" d="M800 80h20v20h-20z"/>
  <path fill="#C7B37F" d="M820 80h20v20h-20z"/>
  <path fill="#C6C7A6" d="M840 80h20v20h-20z"/>
  <path fill="#A5D371" d="M860 80h20v20h-20z"/>
  <path fill="#F2D196" d="M880 80h20v20h-20z"/>
  <path fill="#FDEAAF" d="M900 80h20v20h-20z"/>
  <path fill="#FAECBD" d="M920 80h20v20h-20z"/>
  <path fill="#F9F0AA" d="M940 80h20v20h-20z"/>
  <path fill="#FCF3D8" d="M960 80h20v20h-20z"/>
  <path fill="#FFF6C7" d="M980 80h20v20h-20z"/>
  <path fill="#003" d="M0 100h20v20H0z"/>
  <path fill="#00004B" d="M20 100h20v20H20z"/>
  <path fill="#00004F" d="M40 100h20v20H40z"/>
  <path fill="#000051" d="M60 100h20v20H60z"/>
  <path fill="#000053" d="M80 100h20v20H80z"/>
  <path fill="#000056" d="M100 100h20v20h-20z"/>
  <path fill="#000058" d="M120 100h20v20h-20z"/>
  <path fill="#00005C" d="M140 100h20v20h-20z"/>
  <path fill="#00005E" d="M160 100h20v20h-20z"/>
  <path fill="#000060" d="M180 100h20v20h-20z"/>
  <path fill="#000062" d="M200 100h20v20h-20z"/>
  <path fill="#00205B" d="M220 100h20v20h-20z"/>
  <path fill="#025" d="M240 100h20v20h-20z"/>
  <path fill="#072357" d="M260 100h20v20h-20z"/>
  <path fill="#002654" d="M280 100h20v20h-20z"/>
  <path fill="#1A206D" d="M300 100h20v20h-20z"/>
  <path fill="#162667" d="M320 100h20v20h-20z"/>
  <path fill="#2D2A4A" d="M340 100h20v20h-20z"/>
  <path fill="#002D62" d="M360 100h20v20h-20z"/>
  <path fill="#073163" d="M380 100h20v20h-20z"/>
  <path fill="#18326C" d="M400 100h20v20h-20z"/>
  <path fill="#00401A" d="M420 100h20v20h-20z"/>
  <path fill="#034418" d="M440 100h20v20h-20z"/>
  <path fill="#024919" d="M460 100h20v20h-20z"/>
  <path fill="#00493D" d="M480 100h20v20h-20z"/>
  <path fill="#3C3B6E" d="M500 100h20v20h-20z"/>
  <path fill="#1B5233" d="M520 100h20v20h-20z"/>
  <path fill="#04534E" d="M540 100h20v20h-20z"/>
  <path fill="#395054" d="M560 100h20v20h-20z"/>
  <path fill="#006129" d="M580 100h20v20h-20z"/>
  <path fill="#005F56" d="M600 100h20v20h-20z"/>
  <path fill="#006233" d="M620 100h20v20h-20z"/>
  <path fill="#20603D" d="M640 100h20v20h-20z"/>
  <path fill="#08672F" d="M660 100h20v20h-20z"/>
  <path fill="#306947" d="M680 100h20v20h-20z"/>
  <path fill="#2C7363" d="M700 100h20v20h-20z"/>
  <path fill="#557176" d="M720 100h20v20h-20z"/>
  <path fill="#4C819A" d="M740 100h20v20h-20z"/>
  <path fill="#88B0D5" d="M760 100h20v20h-20z"/>
  <path fill="#99AFCA" d="M780 100h20v20h-20z"/>
  <path fill="#8CBEBF" d="M800 100h20v20h-20z"/>
  <path fill="#89C5E3" d="M820 100h20v20h-20z"/>
  <path fill="#9DC9E2" d="M840 100h20v20h-20z"/>
  <path fill="#A0CFEB" d="M860 100h20v20h-20z"/>
  <path fill="#C1D3E8" d="M880 100h20v20h-20z"/>
  <path fill="#A5E7E7" d="M900 100h20v20h-20z"/>
  <path fill="#D5DFFF" d="M920 100h20v20h-20z"/>
  <path fill="#ADEFF7" d="M940 100h20v20h-20z"/>
  <path fill="#CEEFEF" d="M960 100h20v20h-20z"/>
  <path fill="#D6F7FF" d="M980 100h20v20h-20z"/>
  <path fill="#006" d="M0 120h20v20H0z"/>
  <path fill="#000268" d="M20 120h20v20H20z"/>
  <path fill="#00056B" d="M40 120h20v20H40z"/>
  <path fill="#00066D" d="M60 120h20v20H60z"/>
  <path fill="#00096F" d="M80 120h20v20H80z"/>
  <path fill="#000B73" d="M100 120h20v20h-20z"/>
  <path fill="#000F75" d="M120 120h20v20h-20z"/>
  <path fill="#001178" d="M140 120h20v20h-20z"/>
  <path fill="#008" d="M160 120h20v20h-20z"/>
  <path fill="#001379" d="M180 120h20v20h-20z"/>
  <path fill="#00167C" d="M200 120h20v20h-20z"/>
  <path fill="#012169" d="M220 120h20v20h-20z"/>
  <path fill="#00187E" d="M240 120h20v20h-20z"/>
  <path fill="#000095" d="M260 120h20v20h-20z"/>
  <path fill="#001489" d="M280 120h20v20h-20z"/>
  <path fill="#001C82" d="M300 120h20v20h-20z"/>
  <path fill="#00009E" d="M320 120h20v20h-20z"/>
  <path fill="#001E85" d="M340 120h20v20h-20z"/>
  <path fill="#00247D" d="M360 120h20v20h-20z"/>
  <path fill="#10069F" d="M380 120h20v20h-20z"/>
  <path fill="#002086" d="M400 120h20v20h-20z"/>
  <path fill="#0C1C8C" d="M420 120h20v20h-20z"/>
  <path fill="#00267F" d="M440 120h20v20h-20z"/>
  <path fill="#002289" d="M460 120h20v20h-20z"/>
  <path fill="#171696" d="M480 120h20v20h-20z"/>
  <path fill="#171796" d="M500 120h20v20h-20z"/>
  <path fill="#002488" d="M520 120h20v20h-20z"/>
  <path fill="#00258B" d="M540 120h20v20h-20z"/>
  <path fill="#002395" d="M560 120h20v20h-20z"/>
  <path fill="#012A87" d="M580 120h20v20h-20z"/>
  <path fill="#00288F" d="M600 120h20v20h-20z"/>
  <path fill="#00209F" d="M620 120h20v20h-20z"/>
  <path fill="#002A8F" d="M640 120h20v20h-20z"/>
  <path fill="#002B91" d="M660 120h20v20h-20z"/>
  <path fill="#002D93" d="M680 120h20v20h-20z"/>
  <path fill="#032EA1" d="M700 120h20v20h-20z"/>
  <path fill="#0038B8" d="M720 120h20v20h-20z"/>
  <path fill="#00F" d="M740 120h20v20h-20z"/>
  <path fill="#1800FF" d="M760 120h20v20h-20z"/>
  <path fill="#1609FF" d="M780 120h20v20h-20z"/>
  <path fill="#1316FF" d="M800 120h20v20h-20z"/>
  <path fill="#1120FF" d="M820 120h20v20h-20z"/>
  <path fill="#0F2DFF" d="M840 120h20v20h-20z"/>
  <path fill="#0039F0" d="M860 120h20v20h-20z"/>
  <path fill="#0938FF" d="M880 120h20v20h-20z"/>
  <path fill="#0645FF" d="M900 120h20v20h-20z"/>
  <path fill="#3E5EB9" d="M920 120h20v20h-20z"/>
  <path fill="#054FFF" d="M940 120h20v20h-20z"/>
  <path fill="#2B5DF2" d="M960 120h20v20h-20z"/>
  <path fill="#9063CD" d="M980 120h20v20h-20z"/>
  <path fill="#002465" d="M0 140h20v20H0z"/>
  <path fill="#002664" d="M20 140h20v20H20z"/>
  <path fill="#002868" d="M40 140h20v20H40z"/>
  <path fill="#002674" d="M60 140h20v20H60z"/>
  <path fill="#002776" d="M80 140h20v20H80z"/>
  <path fill="#00297B" d="M100 140h20v20h-20z"/>
  <path fill="#002F6C" d="M120 140h20v20h-20z"/>
  <path fill="#002B7F" d="M140 140h20v20h-20z"/>
  <path fill="#002E81" d="M160 140h20v20h-20z"/>
  <path fill="#003082" d="M180 140h20v20h-20z"/>
  <path fill="#003087" d="M200 140h20v20h-20z"/>
  <path fill="#003580" d="M220 140h20v20h-20z"/>
  <path fill="#002F96" d="M240 140h20v20h-20z"/>
  <path fill="#0A328C" d="M260 140h20v20h-20z"/>
  <path fill="#039" d="M280 140h20v20h-20z"/>
  <path fill="#0033A0" d="M300 140h20v20h-20z"/>
  <path fill="#003893" d="M320 140h20v20h-20z"/>
  <path fill="#0033A1" d="M340 140h20v20h-20z"/>
  <path fill="#00359C" d="M360 140h20v20h-20z"/>
  <path fill="#003994" d="M380 140h20v20h-20z"/>
  <path fill="#00389E" d="M400 140h20v20h-20z"/>
  <path fill="#0039A0" d="M420 140h20v20h-20z"/>
  <path fill="#0038A8" d="M440 140h20v20h-20z"/>
  <path fill="#0039A6" d="M460 140h20v20h-20z"/>
  <path fill="#003AA6" d="M480 140h20v20h-20z"/>
  <path fill="#083D9C" d="M500 140h20v20h-20z"/>
  <path fill="#003CA2" d="M520 140h20v20h-20z"/>
  <path fill="#003DA1" d="M540 140h20v20h-20z"/>
  <path fill="#003DA5" d="M560 140h20v20h-20z"/>
  <path fill="#003EA6" d="M580 140h20v20h-20z"/>
  <path fill="#21468B" d="M600 140h20v20h-20z"/>
  <path fill="#0042A8" d="M620 140h20v20h-20z"/>
  <path fill="#04A" d="M640 140h20v20h-20z"/>
  <path fill="#0045AB" d="M660 140h20v20h-20z"/>
  <path fill="#0046AD" d="M680 140h20v20h-20z"/>
  <path fill="#0046AE" d="M700 140h20v20h-20z"/>
  <path fill="#0047AB" d="M720 140h20v20h-20z"/>
  <path fill="#0F47AF" d="M740 140h20v20h-20z"/>
  <path fill="#0049AF" d="M760 140h20v20h-20z"/>
  <path fill="#0B4EA2" d="M780 140h20v20h-20z"/>
  <path fill="#254D9F" d="M800 140h20v20h-20z"/>
  <path fill="#004BB3" d="M820 140h20v20h-20z"/>
  <path fill="#0051BA" d="M840 140h20v20h-20z"/>
  <path fill="#1E5AA6" d="M860 140h20v20h-20z"/>
  <path fill="#0050F0" d="M880 140h20v20h-20z"/>
  <path fill="#025CFF" d="M900 140h20v20h-20z"/>
  <path fill="#06F" d="M920 140h20v20h-20z"/>
  <path fill="#3A75C4" d="M940 140h20v20h-20z"/>
  <path fill="#006FFF" d="M960 140h20v20h-20z"/>
  <path fill="#2A7FFF" d="M980 140h20v20h-20z"/>
  <path fill="#0C4076" d="M0 160h20v20H0z"/>
  <path fill="#003D88" d="M20 160h20v20H20z"/>
  <path fill="#023F88" d="M40 160h20v20H40z"/>
  <path fill="#11457E" d="M60 160h20v20H60z"/>
  <path fill="#0047A0" d="M80 160h20v20H80z"/>
  <path fill="#034EA2" d="M100 160h20v20h-20z"/>
  <path fill="#024FA2" d="M120 160h20v20h-20z"/>
  <path fill="#0B50A0" d="M140 160h20v20h-20z"/>
  <path fill="#02529C" d="M160 160h20v20h-20z"/>
  <path fill="#185D90" d="M180 160h20v20h-20z"/>
  <path fill="#0859B9" d="M200 160h20v20h-20z"/>
  <path fill="#005BBB" d="M220 160h20v20h-20z"/>
  <path fill="#0D5EAF" d="M240 160h20v20h-20z"/>
  <path fill="#005BBF" d="M260 160h20v20h-20z"/>
  <path fill="#005EB8" d="M280 160h20v20h-20z"/>
  <path fill="#0064AD" d="M300 160h20v20h-20z"/>
  <path fill="#0066B2" d="M320 160h20v20h-20z"/>
  <path fill="#006AA7" d="M340 160h20v20h-20z"/>
  <path fill="#0067C6" d="M360 160h20v20h-20z"/>
  <path fill="#006AC8" d="M380 160h20v20h-20z"/>
  <path fill="#006EC7" d="M400 160h20v20h-20z"/>
  <path fill="#0072C6" d="M420 160h20v20h-20z"/>
  <path fill="#0072CE" d="M440 160h20v20h-20z"/>
  <path fill="#0073CE" d="M460 160h20v20h-20z"/>
  <path fill="#0081C6" d="M480 160h20v20h-20z"/>
  <path fill="#0079FF" d="M500 160h20v20h-20z"/>
  <path fill="#2C87BC" d="M520 160h20v20h-20z"/>
  <path fill="#2D86CF" d="M540 160h20v20h-20z"/>
  <path fill="#007FFF" d="M560 160h20v20h-20z"/>
  <path fill="#0082FF" d="M580 160h20v20h-20z"/>
  <path fill="#0088E8" d="M600 160h20v20h-20z"/>
  <path fill="#008CE7" d="M620 160h20v20h-20z"/>
  <path fill="#008BFF" d="M640 160h20v20h-20z"/>
  <path fill="#4F91C5" d="M660 160h20v20h-20z"/>
  <path fill="#418FDE" d="M680 160h20v20h-20z"/>
  <path fill="#4B8FD7" d="M700 160h20v20h-20z"/>
  <path fill="#4997D0" d="M720 160h20v20h-20z"/>
  <path fill="#5998C6" d="M740 160h20v20h-20z"/>
  <path fill="#2B96F6" d="M760 160h20v20h-20z"/>
  <path fill="#0096FF" d="M780 160h20v20h-20z"/>
  <path fill="#09F" d="M800 160h20v20h-20z"/>
  <path fill="#009EFF" d="M820 160h20v20h-20z"/>
  <path fill="#00A8FF" d="M840 160h20v20h-20z"/>
  <path fill="#6DA9D2" d="M860 160h20v20h-20z"/>
  <path fill="#74ACDF" d="M880 160h20v20h-20z"/>
  <path fill="#6AB2E7" d="M900 160h20v20h-20z"/>
  <path fill="#75B2DD" d="M920 160h20v20h-20z"/>
  <path fill="#62B5E5" d="M940 160h20v20h-20z"/>
  <path fill="#5EB6E4" d="M960 160h20v20h-20z"/>
  <path fill="#9CF" d="M980 160h20v20h-20z"/>
  <path fill="#006847" d="M0 180h20v20H0z"/>
  <path fill="#016848" d="M20 180h20v20H20z"/>
  <path fill="#006A44" d="M40 180h20v20H40z"/>
  <path fill="#006A4E" d="M60 180h20v20H60z"/>
  <path fill="#007168" d="M80 180h20v20H80z"/>
  <path fill="#007749" d="M100 180h20v20h-20z"/>
  <path fill="#007A50" d="M120 180h20v20h-20z"/>
  <path fill="#007A5E" d="M140 180h20v20h-20z"/>
  <path fill="#0872A7" d="M160 180h20v20h-20z"/>
  <path fill="#00778B" d="M180 180h20v20h-20z"/>
  <path fill="#057D58" d="M200 180h20v20h-20z"/>
  <path fill="#0075AF" d="M220 180h20v20h-20z"/>
  <path fill="#0077B0" d="M240 180h20v20h-20z"/>
  <path fill="#007DB5" d="M260 180h20v20h-20z"/>
  <path fill="#0C8489" d="M280 180h20v20h-20z"/>
  <path fill="#068E6B" d="M300 180h20v20h-20z"/>
  <path fill="#058E6E" d="M320 180h20v20h-20z"/>
  <path fill="#008C8D" d="M340 180h20v20h-20z"/>
  <path fill="#008E8E" d="M360 180h20v20h-20z"/>
  <path fill="#009460" d="M380 180h20v20h-20z"/>
  <path fill="#00966E" d="M400 180h20v20h-20z"/>
  <path fill="#0091C8" d="M420 180h20v20h-20z"/>
  <path fill="#0092C8" d="M440 180h20v20h-20z"/>
  <path fill="#009E60" d="M460 180h20v20h-20z"/>
  <path fill="#0093DD" d="M480 180h20v20h-20z"/>
  <path fill="#0099B5" d="M500 180h20v20h-20z"/>
  <path fill="#009CDE" d="M520 180h20v20h-20z"/>
  <path fill="#00A2BD" d="M540 180h20v20h-20z"/>
  <path fill="#009EDB" d="M560 180h20v20h-20z"/>
  <path fill="#00A1DE" d="M580 180h20v20h-20z"/>
  <path fill="#00A3DD" d="M600 180h20v20h-20z"/>
  <path fill="#00A3E0" d="M620 180h20v20h-20z"/>
  <path fill="#00A6DE" d="M640 180h20v20h-20z"/>
  <path fill="#1EA8D1" d="M660 180h20v20h-20z"/>
  <path fill="#00ABC2" d="M680 180h20v20h-20z"/>
  <path fill="#00B5E2" d="M700 180h20v20h-20z"/>
  <path fill="#00B3FF" d="M720 180h20v20h-20z"/>
  <path fill="#64B4D1" d="M740 180h20v20h-20z"/>
  <path fill="#05B9E2" d="M760 180h20v20h-20z"/>
  <path fill="#00BCE4" d="M780 180h20v20h-20z"/>
  <path fill="#02BED7" d="M800 180h20v20h-20z"/>
  <path fill="#00C0DD" d="M820 180h20v20h-20z"/>
  <path fill="#17C0EB" d="M840 180h20v20h-20z"/>
  <path fill="#09C5C6" d="M860 180h20v20h-20z"/>
  <path fill="#30C2DC" d="M880 180h20v20h-20z"/>
  <path fill="#11CCAB" d="M900 180h20v20h-20z"/>
  <path fill="#16D38F" d="M920 180h20v20h-20z"/>
  <path fill="#0CF" d="M940 180h20v20h-20z"/>
  <path fill="#6CF" d="M960 180h20v20h-20z"/>
  <path fill="#92DBFC" d="M980 180h20v20h-20z"/>
  <path fill="#063" d="M0 200h20v20H0z"/>
  <path fill="#046A38" d="M20 200h20v20H20z"/>
  <path fill="#006B3F" d="M40 200h20v20H40z"/>
  <path fill="#006C3C" d="M60 200h20v20H60z"/>
  <path fill="#00713D" d="M80 200h20v20H80z"/>
  <path fill="#007229" d="M100 200h20v20h-20z"/>
  <path fill="#00732F" d="M120 200h20v20h-20z"/>
  <path fill="#007638" d="M140 200h20v20h-20z"/>
  <path fill="#007934" d="M160 200h20v20h-20z"/>
  <path fill="#007935" d="M180 200h20v20h-20z"/>
  <path fill="#007A36" d="M200 200h20v20h-20z"/>
  <path fill="#007A39" d="M220 200h20v20h-20z"/>
  <path fill="#007A3D" d="M240 200h20v20h-20z"/>
  <path fill="#017B3D" d="M260 200h20v20h-20z"/>
  <path fill="#007C2E" d="M280 200h20v20h-20z"/>
  <path fill="#007E3A" d="M300 200h20v20h-20z"/>
  <path fill="#007E3C" d="M320 200h20v20h-20z"/>
  <path fill="#008021" d="M340 200h20v20h-20z"/>
  <path fill="#00843D" d="M360 200h20v20h-20z"/>
  <path fill="#00853F" d="M380 200h20v20h-20z"/>
  <path fill="#00863D" d="M400 200h20v20h-20z"/>
  <path fill="#00873F" d="M420 200h20v20h-20z"/>
  <path fill="#008830" d="M440 200h20v20h-20z"/>
  <path fill="#008751" d="M460 200h20v20h-20z"/>
  <path fill="#078930" d="M480 200h20v20h-20z"/>
  <path fill="#008F4C" d="M500 200h20v20h-20z"/>
  <path fill="#278E43" d="M520 200h20v20h-20z"/>
  <path fill="#009246" d="M540 200h20v20h-20z"/>
  <path fill="#059334" d="M560 200h20v20h-20z"/>
  <path fill="#009543" d="M580 200h20v20h-20z"/>
  <path fill="#009639" d="M600 200h20v20h-20z"/>
  <path fill="#009739" d="M620 200h20v20h-20z"/>
  <path fill="#00993E" d="M640 200h20v20h-20z"/>
  <path fill="#009A44" d="M660 200h20v20h-20z"/>
  <path fill="#009B3A" d="M680 200h20v20h-20z"/>
  <path fill="#009C4F" d="M700 200h20v20h-20z"/>
  <path fill="#169B62" d="M720 200h20v20h-20z"/>
  <path fill="#009E49" d="M740 200h20v20h-20z"/>
  <path fill="#239E46" d="M760 200h20v20h-20z"/>
  <path fill="#239F40" d="M780 200h20v20h-20z"/>
  <path fill="#24A34E" d="M800 200h20v20h-20z"/>
  <path fill="#00A551" d="M820 200h20v20h-20z"/>
  <path fill="#00A651" d="M840 200h20v20h-20z"/>
  <path fill="#00A95C" d="M860 200h20v20h-20z"/>
  <path fill="#00AD50" d="M880 200h20v20h-20z"/>
  <path fill="#00B140" d="M900 200h20v20h-20z"/>
  <path fill="#14B53A" d="M920 200h20v20h-20z"/>
  <path fill="#3EC26D" d="M940 200h20v20h-20z"/>
  <path fill="#1CDE6F" d="M960 200h20v20h-20z"/>
  <path fill="#20E653" d="M980 200h20v20h-20z"/>
  <path fill="#006300" d="M0 220h20v20H0z"/>
  <path fill="#006400" d="M20 220h20v20H20z"/>
  <path fill="#01640B" d="M40 220h20v20H40z"/>
  <path fill="#060" d="M60 220h20v20H60z"/>
  <path fill="#016A16" d="M80 220h20v20H80z"/>
  <path fill="#006B00" d="M100 220h20v20h-20z"/>
  <path fill="#006D00" d="M120 220h20v20h-20z"/>
  <path fill="#007200" d="M140 220h20v20h-20z"/>
  <path fill="#007300" d="M160 220h20v20h-20z"/>
  <path fill="green" d="M180 220h20v20h-20z"/>
  <path fill="#128807" d="M200 220h20v20h-20z"/>
  <path fill="#198A00" d="M220 220h20v20h-20z"/>
  <path fill="#058B08" d="M240 220h20v20h-20z"/>
  <path fill="#338A00" d="M260 220h20v20h-20z"/>
  <path fill="#358B03" d="M280 220h20v20h-20z"/>
  <path fill="#2F8F22" d="M300 220h20v20h-20z"/>
  <path fill="#109421" d="M320 220h20v20h-20z"/>
  <path fill="#289728" d="M340 220h20v20h-20z"/>
  <path fill="#090" d="M360 220h20v20h-20z"/>
  <path fill="#390" d="M380 220h20v20h-20z"/>
  <path fill="#3E9A00" d="M400 220h20v20h-20z"/>
  <path fill="#339E35" d="M420 220h20v20h-20z"/>
  <path fill="#509E2F" d="M440 220h20v20h-20z"/>
  <path fill="#12AD2B" d="M460 220h20v20h-20z"/>
  <path fill="#62A70F" d="M480 220h20v20h-20z"/>
  <path fill="#45AA41" d="M500 220h20v20h-20z"/>
  <path fill="#0DB02B" d="M520 220h20v20h-20z"/>
  <path fill="#43B02A" d="M540 220h20v20h-20z"/>
  <path fill="#34B233" d="M560 220h20v20h-20z"/>
  <path fill="#1EB53A" d="M580 220h20v20h-20z"/>
  <path fill="#39B54A" d="M600 220h20v20h-20z"/>
  <path fill="#76BC21" d="M620 220h20v20h-20z"/>
  <path fill="#6DBE45" d="M640 220h20v20h-20z"/>
  <path fill="#93BC30" d="M660 220h20v20h-20z"/>
  <path fill="#5AC800" d="M680 220h20v20h-20z"/>
  <path fill="#97C924" d="M700 220h20v20h-20z"/>
  <path fill="#9ECB34" d="M720 220h20v20h-20z"/>
  <path fill="#00E519" d="M740 220h20v20h-20z"/>
  <path fill="#28ED38" d="M760 220h20v20h-20z"/>
  <path fill="#2DF81C" d="M780 220h20v20h-20z"/>
  <path fill="#0F0" d="M800 220h20v20h-20z"/>
  <path fill="#3F0" d="M820 220h20v20h-20z"/>
  <path fill="#46FF00" d="M840 220h20v20h-20z"/>
  <path fill="#5CFF00" d="M860 220h20v20h-20z"/>
  <path fill="#6FFF00" d="M880 220h20v20h-20z"/>
  <path fill="#6F6" d="M900 220h20v20h-20z"/>
  <path fill="#85FF00" d="M920 220h20v20h-20z"/>
  <path fill="#9F0" d="M940 220h20v20h-20z"/>
  <path fill="#ADFF00" d="M960 220h20v20h-20z"/>
  <path fill="#C2FF00" d="M980 220h20v20h-20z"/>
  <path fill="olive" d="M0 240h20v20H0z"/>
  <path fill="#98B432" d="M20 240h20v20H20z"/>
  <path fill="#C8B100" d="M40 240h20v20H40z"/>
  <path fill="#C6CB24" d="M60 240h20v20H60z"/>
  <path fill="#CCD11E" d="M80 240h20v20H80z"/>
  <path fill="#EBC900" d="M100 240h20v20h-20z"/>
  <path fill="#F5CE00" d="M120 240h20v20h-20z"/>
  <path fill="#F4CF0E" d="M140 240h20v20h-20z"/>
  <path fill="#FAD201" d="M160 240h20v20h-20z"/>
  <path fill="#F7D618" d="M180 240h20v20h-20z"/>
  <path fill="#FFD600" d="M200 240h20v20h-20z"/>
  <path fill="#F9D90F" d="M220 240h20v20h-20z"/>
  <path fill="gold" d="M240 240h20v20h-20z"/>
  <path fill="#FCD900" d="M260 240h20v20h-20z"/>
  <path fill="#F7DB17" d="M280 240h20v20h-20z"/>
  <path fill="#FFD900" d="M300 240h20v20h-20z"/>
  <path fill="#FCDC04" d="M320 240h20v20h-20z"/>
  <path fill="#F9DD16" d="M340 240h20v20h-20z"/>
  <path fill="#FCDD09" d="M360 240h20v20h-20z"/>
  <path fill="#FFDC0F" d="M380 240h20v20h-20z"/>
  <path fill="#FEDD00" d="M400 240h20v20h-20z"/>
  <path fill="#FD0" d="M420 240h20v20h-20z"/>
  <path fill="#F7E017" d="M440 240h20v20h-20z"/>
  <path fill="#E6E600" d="M460 240h20v20h-20z"/>
  <path fill="#FEDF00" d="M480 240h20v20h-20z"/>
  <path fill="#FFDF00" d="M500 240h20v20h-20z"/>
  <path fill="#F7E204" d="M520 240h20v20h-20z"/>
  <path fill="#F7E214" d="M540 240h20v20h-20z"/>
  <path fill="#FCE100" d="M560 240h20v20h-20z"/>
  <path fill="#FFE000" d="M580 240h20v20h-20z"/>
  <path fill="#F9E300" d="M600 240h20v20h-20z"/>
  <path fill="#EDE71F" d="M620 240h20v20h-20z"/>
  <path fill="#F8E34A" d="M640 240h20v20h-20z"/>
  <path fill="#FDE300" d="M660 240h20v20h-20z"/>
  <path fill="#FFE533" d="M680 240h20v20h-20z"/>
  <path fill="#FFE600" d="M700 240h20v20h-20z"/>
  <path fill="#F9E814" d="M720 240h20v20h-20z"/>
  <path fill="#F8E92E" d="M740 240h20v20h-20z"/>
  <path fill="#FFEB00" d="M760 240h20v20h-20z"/>
  <path fill="#FCEA83" d="M780 240h20v20h-20z"/>
  <path fill="#FFEC2D" d="M800 240h20v20h-20z"/>
  <path fill="#FDEF42" d="M820 240h20v20h-20z"/>
  <path fill="#FFF231" d="M840 240h20v20h-20z"/>
  <path fill="#F5F549" d="M860 240h20v20h-20z"/>
  <path fill="#D6FF00" d="M880 240h20v20h-20z"/>
  <path fill="#FFF500" d="M900 240h20v20h-20z"/>
  <path fill="#FEF600" d="M920 240h20v20h-20z"/>
  <path fill="#FFF700" d="M940 240h20v20h-20z"/>
  <path fill="#EBFF00" d="M960 240h20v20h-20z"/>
  <path fill="#FF0" d="M980 240h20v20h-20z"/>
  <path fill="#7F670C" d="M0 260h20v20H0z"/>
  <path fill="#A08307" d="M20 260h20v20H20z"/>
  <path fill="#A0892C" d="M40 260h20v20H40z"/>
  <path fill="#C09300" d="M60 260h20v20H60z"/>
  <path fill="#CAA11C" d="M80 260h20v20H80z"/>
  <path fill="#C8A400" d="M100 260h20v20h-20z"/>
  <path fill="#E8B909" d="M120 260h20v20h-20z"/>
  <path fill="#E5BE01" d="M140 260h20v20h-20z"/>
  <path fill="#EAC102" d="M160 260h20v20h-20z"/>
  <path fill="#E6C74D" d="M180 260h20v20h-20z"/>
  <path fill="#ECC81D" d="M200 260h20v20h-20z"/>
  <path fill="#FDC301" d="M220 260h20v20h-20z"/>
  <path fill="#E4CB5E" d="M240 260h20v20h-20z"/>
  <path fill="#FFC400" d="M260 260h20v20h-20z"/>
  <path fill="#FFC500" d="M280 260h20v20h-20z"/>
  <path fill="#FEC717" d="M300 260h20v20h-20z"/>
  <path fill="#FFC718" d="M320 260h20v20h-20z"/>
  <path fill="#FFC900" d="M340 260h20v20h-20z"/>
  <path fill="#FFC918" d="M360 260h20v20h-20z"/>
  <path fill="#FFCA18" d="M380 260h20v20h-20z"/>
  <path fill="#FECB00" d="M400 260h20v20h-20z"/>
  <path fill="#F3CF48" d="M420 260h20v20h-20z"/>
  <path fill="#FECC00" d="M440 260h20v20h-20z"/>
  <path fill="#F4CF44" d="M460 260h20v20h-20z"/>
  <path fill="#FC0" d="M480 260h20v20h-20z"/>
  <path fill="#FFCD00" d="M500 260h20v20h-20z"/>
  <path fill="#FFCE00" d="M520 260h20v20h-20z"/>
  <path fill="#F7D116" d="M540 260h20v20h-20z"/>
  <path fill="#FFCE18" d="M560 260h20v20h-20z"/>
  <path fill="#F8D048" d="M580 260h20v20h-20z"/>
  <path fill="#FFCF00" d="M600 260h20v20h-20z"/>
  <path fill="#FCD022" d="M620 260h20v20h-20z"/>
  <path fill="#FCD116" d="M640 260h20v20h-20z"/>
  <path fill="#FED100" d="M660 260h20v20h-20z"/>
  <path fill="#FFD100" d="M680 260h20v20h-20z"/>
  <path fill="#FFD200" d="M700 260h20v20h-20z"/>
  <path fill="#FFD300" d="M720 260h20v20h-20z"/>
  <path fill="#F5D648" d="M740 260h20v20h-20z"/>
  <path fill="#F6D749" d="M760 260h20v20h-20z"/>
  <path fill="#FFD500" d="M780 260h20v20h-20z"/>
  <path fill="#FFD83D" d="M800 260h20v20h-20z"/>
  <path fill="#FCD955" d="M820 260h20v20h-20z"/>
  <path fill="#FDDA25" d="M840 260h20v20h-20z"/>
  <path fill="#FCDC50" d="M860 260h20v20h-20z"/>
  <path fill="#FBDE4A" d="M880 260h20v20h-20z"/>
  <path fill="#FCDE49" d="M900 260h20v20h-20z"/>
  <path fill="#FFDE52" d="M920 260h20v20h-20z"/>
  <path fill="#F6E078" d="M940 260h20v20h-20z"/>
  <path fill="#FFDF4F" d="M960 260h20v20h-20z"/>
  <path fill="#FFE682" d="M980 260h20v20h-20z"/>
  <path fill="#694A02" d="M0 280h20v20H0z"/>
  <path fill="#977C2E" d="M20 280h20v20H20z"/>
  <path fill="#B07E09" d="M40 280h20v20H40z"/>
  <path fill="#AA8C30" d="M60 280h20v20H60z"/>
  <path fill="#BA9117" d="M80 280h20v20H80z"/>
  <path fill="#CE9D09" d="M100 280h20v20h-20z"/>
  <path fill="#CEA849" d="M120 280h20v20h-20z"/>
  <path fill="#CDAD56" d="M140 280h20v20h-20z"/>
  <path fill="#E5AA12" d="M160 280h20v20h-20z"/>
  <path fill="#F2A800" d="M180 280h20v20h-20z"/>
  <path fill="#EFAD10" d="M200 280h20v20h-20z"/>
  <path fill="#E9B001" d="M220 280h20v20h-20z"/>
  <path fill="#E4B547" d="M240 280h20v20h-20z"/>
  <path fill="#F1B517" d="M260 280h20v20h-20z"/>
  <path fill="#F1B617" d="M280 280h20v20h-20z"/>
  <path fill="#F6B40E" d="M300 280h20v20h-20z"/>
  <path fill="#EBB927" d="M320 280h20v20h-20z"/>
  <path fill="#EDB92E" d="M340 280h20v20h-20z"/>
  <path fill="#EDB92F" d="M360 280h20v20h-20z"/>
  <path fill="#F7B718" d="M380 280h20v20h-20z"/>
  <path fill="#FFB400" d="M400 280h20v20h-20z"/>
  <path fill="#FAB81C" d="M420 280h20v20h-20z"/>
  <path fill="#FDB913" d="M440 280h20v20h-20z"/>
  <path fill="#FFB900" d="M460 280h20v20h-20z"/>
  <path fill="#F1BF31" d="M480 280h20v20h-20z"/>
  <path fill="#FB0" d="M500 280h20v20h-20z"/>
  <path fill="#FEBD11" d="M520 280h20v20h-20z"/>
  <path fill="#F3C240" d="M540 280h20v20h-20z"/>
  <path fill="#E2C773" d="M560 280h20v20h-20z"/>
  <path fill="#F4C53D" d="M580 280h20v20h-20z"/>
  <path fill="#FFC221" d="M600 280h20v20h-20z"/>
  <path fill="#FEC413" d="M620 280h20v20h-20z"/>
  <path fill="#FEC617" d="M640 280h20v20h-20z"/>
  <path fill="#FEC618" d="M660 280h20v20h-20z"/>
  <path fill="#F8C83C" d="M680 280h20v20h-20z"/>
  <path fill="#FFC618" d="M700 280h20v20h-20z"/>
  <path fill="#FAC74E" d="M720 280h20v20h-20z"/>
  <path fill="#FFC61E" d="M740 280h20v20h-20z"/>
  <path fill="#F9C83A" d="M760 280h20v20h-20z"/>
  <path fill="#FFC726" d="M780 280h20v20h-20z"/>
  <path fill="#FFC72C" d="M800 280h20v20h-20z"/>
  <path fill="#FACA43" d="M820 280h20v20h-20z"/>
  <path fill="#FCCA3D" d="M840 280h20v20h-20z"/>
  <path fill="#FCCA3E" d="M860 280h20v20h-20z"/>
  <path fill="#F8CD47" d="M880 280h20v20h-20z"/>
  <path fill="#F9D050" d="M900 280h20v20h-20z"/>
  <path fill="#FECF3E" d="M920 280h20v20h-20z"/>
  <path fill="#FBD55F" d="M940 280h20v20h-20z"/>
  <path fill="#FED65B" d="M960 280h20v20h-20z"/>
  <path fill="#FEDF82" d="M980 280h20v20h-20z"/>
  <path fill="#865800" d="M0 300h20v20H0z"/>
  <path fill="#9C5100" d="M20 300h20v20H20z"/>
  <path fill="#9E540A" d="M40 300h20v20H40z"/>
  <path fill="#936100" d="M60 300h20v20H60z"/>
  <path fill="#A36629" d="M80 300h20v20H80z"/>
  <path fill="#AC620E" d="M100 300h20v20h-20z"/>
  <path fill="#AB6D29" d="M120 300h20v20h-20z"/>
  <path fill="#AF7029" d="M140 300h20v20h-20z"/>
  <path fill="#B76E11" d="M160 300h20v20h-20z"/>
  <path fill="#B07229" d="M180 300h20v20h-20z"/>
  <path fill="#B27129" d="M200 300h20v20h-20z"/>
  <path fill="#C16B13" d="M220 300h20v20h-20z"/>
  <path fill="#B87510" d="M240 300h20v20h-20z"/>
  <path fill="#BF802D" d="M260 300h20v20h-20z"/>
  <path fill="#D57800" d="M280 300h20v20h-20z"/>
  <path fill="#DD7500" d="M300 300h20v20h-20z"/>
  <path fill="#DF7500" d="M320 300h20v20h-20z"/>
  <path fill="#C98C26" d="M340 300h20v20h-20z"/>
  <path fill="#C69024" d="M360 300h20v20h-20z"/>
  <path fill="#CB8E32" d="M380 300h20v20h-20z"/>
  <path fill="#EF7D00" d="M400 300h20v20h-20z"/>
  <path fill="#F77F00" d="M420 300h20v20h-20z"/>
  <path fill="#E98E01" d="M440 300h20v20h-20z"/>
  <path fill="#FF8600" d="M460 300h20v20h-20z"/>
  <path fill="#D99F31" d="M480 300h20v20h-20z"/>
  <path fill="#CCA55D" d="M500 300h20v20h-20z"/>
  <path fill="#DBA05F" d="M520 300h20v20h-20z"/>
  <path fill="#FF9100" d="M540 300h20v20h-20z"/>
  <path fill="#D2A567" d="M560 300h20v20h-20z"/>
  <path fill="#DBA35A" d="M580 300h20v20h-20z"/>
  <path fill="#E8A30E" d="M600 300h20v20h-20z"/>
  <path fill="#DCA842" d="M620 300h20v20h-20z"/>
  <path fill="#F90" d="M640 300h20v20h-20z"/>
  <path fill="#F93" d="M660 300h20v20h-20z"/>
  <path fill="#FF9A08" d="M680 300h20v20h-20z"/>
  <path fill="#FF9C00" d="M700 300h20v20h-20z"/>
  <path fill="#FF9C10" d="M720 300h20v20h-20z"/>
  <path fill="#E2A950" d="M740 300h20v20h-20z"/>
  <path fill="#DBAD6C" d="M760 300h20v20h-20z"/>
  <path fill="#F1A720" d="M780 300h20v20h-20z"/>
  <path fill="#FFA600" d="M800 300h20v20h-20z"/>
  <path fill="#FFA54B" d="M820 300h20v20h-20z"/>
  <path fill="#E2B269" d="M840 300h20v20h-20z"/>
  <path fill="#F9AA51" d="M860 300h20v20h-20z"/>
  <path fill="#FCAD56" d="M880 300h20v20h-20z"/>
  <path fill="#FFAF00" d="M900 300h20v20h-20z"/>
  <path fill="#E6BA74" d="M920 300h20v20h-20z"/>
  <path fill="#E9BE79" d="M940 300h20v20h-20z"/>
  <path fill="#FFB81C" d="M960 300h20v20h-20z"/>
  <path fill="#FFD691" d="M980 300h20v20h-20z"/>
  <path fill="#662900" d="M0 320h20v20H0z"/>
  <path fill="#75350F" d="M20 320h20v20H20z"/>
  <path fill="#85340A" d="M40 320h20v20H40z"/>
  <path fill="#764212" d="M60 320h20v20H60z"/>
  <path fill="#803F1D" d="M80 320h20v20H80z"/>
  <path fill="#953220" d="M100 320h20v20h-20z"/>
  <path fill="#8C4200" d="M120 320h20v20h-20z"/>
  <path fill="#923F00" d="M140 320h20v20h-20z"/>
  <path fill="#8B441F" d="M160 320h20v20h-20z"/>
  <path fill="#8F4620" d="M180 320h20v20h-20z"/>
  <path fill="#904720" d="M200 320h20v20h-20z"/>
  <path fill="#874F20" d="M220 320h20v20h-20z"/>
  <path fill="#A53D08" d="M240 320h20v20h-20z"/>
  <path fill="#A24300" d="M260 320h20v20h-20z"/>
  <path fill="#9C4A00" d="M280 320h20v20h-20z"/>
  <path fill="#A2550B" d="M300 320h20v20h-20z"/>
  <path fill="#AE4C33" d="M320 320h20v20h-20z"/>
  <path fill="#A05A2C" d="M340 320h20v20h-20z"/>
  <path fill="#AB612E" d="M360 320h20v20h-20z"/>
  <path fill="#C75B00" d="M380 320h20v20h-20z"/>
  <path fill="#D05F01" d="M400 320h20v20h-20z"/>
  <path fill="#E05206" d="M420 320h20v20h-20z"/>
  <path fill="#FF2500" d="M440 320h20v20h-20z"/>
  <path fill="#FF2D00" d="M460 320h20v20h-20z"/>
  <path fill="#F30" d="M480 320h20v20h-20z"/>
  <path fill="#CA6B5B" d="M500 320h20v20h-20z"/>
  <path fill="#FF3900" d="M520 320h20v20h-20z"/>
  <path fill="#FF3E00" d="M540 320h20v20h-20z"/>
  <path fill="#C47645" d="M560 320h20v20h-20z"/>
  <path fill="#FF4500" d="M580 320h20v20h-20z"/>
  <path fill="#FF4B00" d="M600 320h20v20h-20z"/>
  <path fill="#D4752D" d="M620 320h20v20h-20z"/>
  <path fill="#C27E50" d="M640 320h20v20h-20z"/>
  <path fill="#E96A01" d="M660 320h20v20h-20z"/>
  <path fill="#F50" d="M680 320h20v20h-20z"/>
  <path fill="#FF5600" d="M700 320h20v20h-20z"/>
  <path fill="#EB6C3E" d="M720 320h20v20h-20z"/>
  <path fill="#BD8759" d="M740 320h20v20h-20z"/>
  <path fill="#D67C59" d="M760 320h20v20h-20z"/>
  <path fill="#FF6000" d="M780 320h20v20h-20z"/>
  <path fill="#F16E16" d="M800 320h20v20h-20z"/>
  <path fill="#F60" d="M820 320h20v20h-20z"/>
  <path fill="#FF671F" d="M840 320h20v20h-20z"/>
  <path fill="#FF6B00" d="M860 320h20v20h-20z"/>
  <path fill="#FF7000" d="M880 320h20v20h-20z"/>
  <path fill="#FF7500" d="M900 320h20v20h-20z"/>
  <path fill="#DD8B59" d="M920 320h20v20h-20z"/>
  <path fill="#FF7C00" d="M940 320h20v20h-20z"/>
  <path fill="#FF883E" d="M960 320h20v20h-20z"/>
  <path fill="#FFB399" d="M980 320h20v20h-20z"/>
  <path fill="#650000" d="M0 340h20v20H0z"/>
  <path fill="#600" d="M20 340h20v20H20z"/>
  <path fill="#700" d="M40 340h20v20H40z"/>
  <path fill="#8A0000" d="M60 340h20v20H60z"/>
  <path fill="#870F00" d="M80 340h20v20H80z"/>
  <path fill="#910000" d="M100 340h20v20h-20z"/>
  <path fill="#842116" d="M120 340h20v20h-20z"/>
  <path fill="#A50A0A" d="M140 340h20v20h-20z"/>
  <path fill="#A00" d="M160 340h20v20h-20z"/>
  <path fill="#B10C0C" d="M180 340h20v20h-20z"/>
  <path fill="#B50000" d="M200 340h20v20h-20z"/>
  <path fill="#AA241E" d="M220 340h20v20h-20z"/>
  <path fill="#B00" d="M240 340h20v20h-20z"/>
  <path fill="#C10000" d="M260 340h20v20h-20z"/>
  <path fill="#BA1D1D" d="M280 340h20v20h-20z"/>
  <path fill="#BB1E1E" d="M300 340h20v20h-20z"/>
  <path fill="#C01500" d="M320 340h20v20h-20z"/>
  <path fill="#BD2D1E" d="M340 340h20v20h-20z"/>
  <path fill="#C00" d="M360 340h20v20h-20z"/>
  <path fill="#C02917" d="M380 340h20v20h-20z"/>
  <path fill="#CB1515" d="M400 340h20v20h-20z"/>
  <path fill="#C22F2E" d="M420 340h20v20h-20z"/>
  <path fill="#C23129" d="M440 340h20v20h-20z"/>
  <path fill="#D40000" d="M460 340h20v20h-20z"/>
  <path fill="#C8312A" d="M480 340h20v20h-20z"/>
  <path fill="#D32011" d="M500 340h20v20h-20z"/>
  <path fill="#CE2D1E" d="M520 340h20v20h-20z"/>
  <path fill="#D62612" d="M540 340h20v20h-20z"/>
  <path fill="#DE1010" d="M560 340h20v20h-20z"/>
  <path fill="#D52B1E" d="M580 340h20v20h-20z"/>
  <path fill="#D03429" d="M600 340h20v20h-20z"/>
  <path fill="#C54332" d="M620 340h20v20h-20z"/>
  <path fill="#D0362D" d="M640 340h20v20h-20z"/>
  <path fill="#D72B1F" d="M660 340h20v20h-20z"/>
  <path fill="#DA251D" d="M680 340h20v20h-20z"/>
  <path fill="#DA291C" d="M700 340h20v20h-20z"/>
  <path fill="#DE2010" d="M720 340h20v20h-20z"/>
  <path fill="#D63123" d="M740 340h20v20h-20z"/>
  <path fill="#E1261C" d="M760 340h20v20h-20z"/>
  <path fill="#E32118" d="M780 340h20v20h-20z"/>
  <path fill="#EE1D17" d="M800 340h20v20h-20z"/>
  <path fill="#E03C31" d="M820 340h20v20h-20z"/>
  <path fill="#FF0500" d="M840 340h20v20h-20z"/>
  <path fill="#FF0B00" d="M860 340h20v20h-20z"/>
  <path fill="#F10" d="M880 340h20v20h-20z"/>
  <path fill="#FF1800" d="M900 340h20v20h-20z"/>
  <path fill="#E0513E" d="M920 340h20v20h-20z"/>
  <path fill="#FF1E00" d="M940 340h20v20h-20z"/>
  <path fill="#FF2A2A" d="M960 340h20v20h-20z"/>
  <path fill="#FF3A3A" d="M980 340h20v20h-20z"/>
  <path fill="#8E1116" d="M0 360h20v20H0z"/>
  <path fill="#951B1D" d="M20 360h20v20H20z"/>
  <path fill="#AD1519" d="M40 360h20v20H40z"/>
  <path fill="#C4111B" d="M60 360h20v20H60z"/>
  <path fill="#BC2E33" d="M80 360h20v20H80z"/>
  <path fill="#C1272D" d="M100 360h20v20h-20z"/>
  <path fill="#CA1214" d="M120 360h20v20h-20z"/>
  <path fill="#C02C34" d="M140 360h20v20h-20z"/>
  <path fill="#C6262C" d="M160 360h20v20h-20z"/>
  <path fill="#C33132" d="M180 360h20v20h-20z"/>
  <path fill="#CD202A" d="M200 360h20v20h-20z"/>
  <path fill="#D01C1F" d="M220 360h20v20h-20z"/>
  <path fill="#C63039" d="M240 360h20v20h-20z"/>
  <path fill="#CF2027" d="M260 360h20v20h-20z"/>
  <path fill="#D90000" d="M280 360h20v20h-20z"/>
  <path fill="#DA0000" d="M300 360h20v20h-20z"/>
  <path fill="#C6363C" d="M320 360h20v20h-20z"/>
  <path fill="#D7141A" d="M340 360h20v20h-20z"/>
  <path fill="#D90F19" d="M360 360h20v20h-20z"/>
  <path fill="#DA0E15" d="M380 360h20v20h-20z"/>
  <path fill="#D22630" d="M400 360h20v20h-20z"/>
  <path fill="#D00" d="M420 360h20v20h-20z"/>
  <path fill="#DA121A" d="M440 360h20v20h-20z"/>
  <path fill="#DE0000" d="M460 360h20v20h-20z"/>
  <path fill="#DB161B" d="M480 360h20v20h-20z"/>
  <path fill="#D82126" d="M500 360h20v20h-20z"/>
  <path fill="#DC171D" d="M520 360h20v20h-20z"/>
  <path fill="#D92223" d="M540 360h20v20h-20z"/>
  <path fill="#DF1A23" d="M560 360h20v20h-20z"/>
  <path fill="#E30A17" d="M580 360h20v20h-20z"/>
  <path fill="#DE2126" d="M600 360h20v20h-20z"/>
  <path fill="#D73033" d="M620 360h20v20h-20z"/>
  <path fill="#E60000" d="M640 360h20v20h-20z"/>
  <path fill="#E80000" d="M660 360h20v20h-20z"/>
  <path fill="#E31B23" d="M680 360h20v20h-20z"/>
  <path fill="#EA0000" d="M700 360h20v20h-20z"/>
  <path fill="#E00" d="M720 360h20v20h-20z"/>
  <path fill="#ED1C24" d="M740 360h20v20h-20z"/>
  <path fill="#ED1C27" d="M760 360h20v20h-20z"/>
  <path fill="#EF1818" d="M780 360h20v20h-20z"/>
  <path fill="#EE1C25" d="M800 360h20v20h-20z"/>
  <path fill="#ED2024" d="M820 360h20v20h-20z"/>
  <path fill="#F01818" d="M840 360h20v20h-20z"/>
  <path fill="#DB4446" d="M860 360h20v20h-20z"/>
  <path fill="#ED2E38" d="M880 360h20v20h-20z"/>
  <path fill="#EF2B2D" d="M900 360h20v20h-20z"/>
  <path fill="#FA0204" d="M920 360h20v20h-20z"/>
  <path fill="#FE0000" d="M940 360h20v20h-20z"/>
  <path fill="#EF3340" d="M960 360h20v20h-20z"/>
  <path fill="red" d="M980 360h20v20h-20z"/>
  <path fill="#8A1538" d="M0 380h20v20H0z"/>
  <path fill="#940010" d="M20 380h20v20H20z"/>
  <path fill="#96153D" d="M40 380h20v20H40z"/>
  <path fill="#941E32" d="M60 380h20v20H60z"/>
  <path fill="#A60032" d="M80 380h20v20H80z"/>
  <path fill="#A51931" d="M100 380h20v20h-20z"/>
  <path fill="#9E3039" d="M120 380h20v20h-20z"/>
  <path fill="#AB1E2B" d="M140 380h20v20h-20z"/>
  <path fill="#AE1C28" d="M160 380h20v20h-20z"/>
  <path fill="#B40A2D" d="M180 380h20v20h-20z"/>
  <path fill="#B22234" d="M200 380h20v20h-20z"/>
  <path fill="#BC002D" d="M220 380h20v20h-20z"/>
  <path fill="#BA0C2F" d="M240 380h20v20h-20z"/>
  <path fill="#BD0728" d="M260 380h20v20h-20z"/>
  <path fill="#BD1021" d="M280 380h20v20h-20z"/>
  <path fill="#BF0A30" d="M300 380h20v20h-20z"/>
  <path fill="#BA1F3E" d="M320 380h20v20h-20z"/>
  <path fill="#C60B1E" d="M340 380h20v20h-20z"/>
  <path fill="#C40F38" d="M360 380h20v20h-20z"/>
  <path fill="#C60C30" d="M380 380h20v20h-20z"/>
  <path fill="#C8102E" d="M400 380h20v20h-20z"/>
  <path fill="#CC092F" d="M420 380h20v20h-20z"/>
  <path fill="#C62139" d="M440 380h20v20h-20z"/>
  <path fill="#CD1125" d="M460 380h20v20h-20z"/>
  <path fill="#CE1021" d="M480 380h20v20h-20z"/>
  <path fill="#CE1126" d="M500 380h20v20h-20z"/>
  <path fill="#D20014" d="M520 380h20v20h-20z"/>
  <path fill="#CF142B" d="M540 380h20v20h-20z"/>
  <path fill="#D21034" d="M560 380h20v20h-20z"/>
  <path fill="#D50032" d="M580 380h20v20h-20z"/>
  <path fill="#D90012" d="M600 380h20v20h-20z"/>
  <path fill="#CE2939" d="M620 380h20v20h-20z"/>
  <path fill="#CE2B37" d="M640 380h20v20h-20z"/>
  <path fill="#CD2E3A" d="M660 380h20v20h-20z"/>
  <path fill="#D91023" d="M680 380h20v20h-20z"/>
  <path fill="#DB092E" d="M700 380h20v20h-20z"/>
  <path fill="#DA1A35" d="M720 380h20v20h-20z"/>
  <path fill="#E00025" d="M740 380h20v20h-20z"/>
  <path fill="#DC143C" d="M760 380h20v20h-20z"/>
  <path fill="#DA2031" d="M780 380h20v20h-20z"/>
  <path fill="#DC1E35" d="M800 380h20v20h-20z"/>
  <path fill="#E70013" d="M820 380h20v20h-20z"/>
  <path fill="#E8112D" d="M840 380h20v20h-20z"/>
  <path fill="#E92736" d="M860 380h20v20h-20z"/>
  <path fill="#EA2839" d="M880 380h20v20h-20z"/>
  <path fill="#ED2939" d="M900 380h20v20h-20z"/>
  <path fill="#F42A41" d="M920 380h20v20h-20z"/>
  <path fill="#FF0016" d="M940 380h20v20h-20z"/>
  <path fill="#F15770" d="M960 380h20v20h-20z"/>
  <path fill="#ED72AA" d="M980 380h20v20h-20z"/>
</svg>
