<svg xmlns="http://www.w3.org/2000/svg" viewBox="0 0 240 10">
  <path fill="#faf6f5" d="M0 0h10v10H0z" />
  <path fill="#bababa" d="M10 0h10v10H10z" />
  <path fill="#888888" d="M20 0h10v10H20z" />
  <path fill="#6c401f" d="M30 0h10v10H30z" />
  <path fill="#9d7a51" d="M40 0h10v10H40z" />
  <path fill="#d5b274" d="M50 0h10v10H50z" />
  <path fill="#d57800" d="M60 0h10v10H60z" />
  <path fill="#f76230" d="M70 0h10v10H70z" />
  <path fill="#fb8d26" d="M80 0h10v10H80z" />
  <path fill="#FFB81C" d="M90 0h10v10H90z" />
  <path fill="#ffdc0f" d="M100 0h10v10h-10z" />
  <path fill="#28ac4e" d="M110 0h10v10h-10z" />
  <path fill="#18864e" d="M120 0h10v10h-10z" />
  <path fill="#07604e" d="M130 0h10v10h-10z" />
  <path fill="#0a1a1d" d="M140 0h10v10h-10z" />
  <path fill="#0089a2" d="M150 0h10v10h-10z" />
  <path fill="#60c0e2" d="M160 0h10v10h-10z" />
  <path fill="#2e9ddf" d="M170 0h10v10h-10z" />
  <path fill="#1269d5" d="M180 0h10v10h-10z" />
  <path fill="#0a48b4" d="M190 0h10v10h-10z" />
  <path fill="#003188" d="M200 0h10v10h-10z" />
  <path fill="#f30932" d="M210 0h10v10h-10z" />
  <path fill="#c40f38" d="M220 0h10v10h-10z" />
  <path fill="#96153D" d="M230 0h10v10h-10z" />
</svg>