<svg xmlns="http://www.w3.org/2000/svg" width="320" height="10">
  <path d="m0,0h10v10H0V0Z" fill="#faf6f5" />
  <path d="m10,0h10v10h-10V0Z" fill="#d3d3d5" />
  <path d="m20,0h10v10h-10V0Z" fill="#5a6365" />
  <path d="m30,0h10v10h-10V0Z" fill="#0a1a1d" />
  <path d="m40,0h10v10h-10V0Z" fill="#edcfb7" />
  <path d="m50,0h10v10h-10V0Z" fill="#b5915f" />
  <path d="m60,0h10v10h-10V0Z" fill="#6c401f" />
  <path d="m70,0h10v10h-10V0Z" fill="#cb8500" />
  <path d="m80,0h10v10h-10V0Z" fill="#e17000" />
  <path d="m90,0h10v10h-10V0Z" fill="#fcd80e" />
  <path d="m100,0h10v10h-10V0Z" fill="#ffb81c" />
  <path d="m110,0h10v10h-10V0Z" fill="#fd8b32" />
  <path d="m120,0h10v10h-10V0Z" fill="#f76230" />
  <path d="m130,0h10v10h-10V0Z" fill="#f42a41" />
  <path d="m140,0h10v10h-10V0Z" fill="#e30631" />
  <path d="m150,0h10v10h-10V0Z" fill="#c40f38" />
  <path d="m160,0h10v10h-10V0Z" fill="#961538" />
  <path d="m170,0h10v10h-10V0Z" fill="#ed72aa" />
  <path d="m180,0h10v10h-10V0Z" fill="#9063cd" />
  <path d="m190,0h10v10h-10V0Z" fill="#62c1f2" />
  <path d="m200,0h10v10h-10V0Z" fill="#47a3d8" />
  <path d="m210,0h10v10h-10V0Z" fill="#2d86cf" />
  <path d="m220,0h10v10h-10V0Z" fill="#0859b9" />
  <path d="m230,0h10v10h-10V0Z" fill="#003396" />
  <path d="m240,0h10v10h-10V0Z" fill="#012778" />
  <path d="m250,0h10v10h-10V0Z" fill="#001f56" />
  <path d="m260,0h10v10h-10V0Z" fill="#00b6d9" />
  <path d="m270,0h10v10h-10V0Z" fill="#009aaf" />
  <path d="m280,0h10v10h-10V0Z" fill="#028a66" />
  <path d="m290,0h10v10h-10V0Z" fill="#036a4a" />
  <path d="m300,0h10v10h-10V0Z" fill="#24a34e" />
  <path d="m310,0h10v10h-10V0Z" fill="#0f7d3a" />
</svg>