<svg xmlns="http://www.w3.org/2000/svg" viewBox="0 0 200 10">
  <path fill="#f6f0ef" d="M0 0h10v10H0z" />
  <path fill="#BABABA" d="M10 0h10v10H10z" />
  <path fill="#888888" d="M20 0h10v10H20z" />
  <path fill="#6C401F" d="M30 0h10v10H30z" />
  <path fill="#B37A39" d="M40 0h10v10H40z" />
  <path fill="#D5B274" d="M50 0h10v10H50z" />
  <path fill="#EE7700" d="M60 0h10v10H60z" />
  <path fill="#ffbf1f" d="M70 0h10v10H70z" />
  <path fill="#0f9e69" d="M80 0h10v10H80z" />
  <path fill="#006f5f" d="M90 0h10v10H90z" />
  <path fill="#102c30" d="M100 0h10v10h-10z" />
  <path fill="#0089A2" d="M110 0h10v10h-10z" />
  <path fill="#60C0E2" d="M120 0h10v10h-10z" />
  <path fill="#219eea" d="M130 0h10v10h-10z" />
  <path fill="#0d6ed0" d="M140 0h10v10h-10z" />
  <path fill="#002e7f" d="M150 0h10v10h-10z" />
  <path fill="#e85cac" d="M160 0h10v10h-10z" />
  <path fill="#e63429" d="M170 0h10v10h-10z" />
  <path fill="#cc1229" d="M180 0h10v10h-10z" />
  <path fill="#86283e" d="M190 0h10v10h-10z" />
</svg>