<svg xmlns="http://www.w3.org/2000/svg" viewBox="0 0 240 10">
  <path fill="#010101" d="M0 0h10v10H0z" />
  <path fill="#02256F" d="M10 0h10v10H10z" />
  <path fill="#032B96" d="M20 0h10v10H20z" />
  <path fill="#079950" d="M30 0h10v10H30z" />
  <path fill="#081D5D" d="M40 0h10v10H40z" />
  <path fill="#086B2D" d="M50 0h10v10H50z" />
  <path fill="#0C58A8" d="M60 0h10v10H60z" />
  <path fill="#0F9828" d="M70 0h10v10H70z" />
  <path fill="#1364D2" d="M80 0h10v10H80z" />
  <path fill="#1E6253" d="M90 0h10v10H90z" />
  <path fill="#222314" d="M100 0h10v10h-10z" />
  <path fill="#39A6DC" d="M110 0h10v10h-10z" />
  <path fill="#50A43A" d="M120 0h10v10h-10z" />
  <path fill="#C3342F" d="M130 0h10v10h-10z" />
  <path fill="#C4ADAE" d="M140 0h10v10h-10z" />
  <path fill="#CD7189" d="M150 0h10v10h-10z" />
  <path fill="#CF112B" d="M160 0h10v10h-10z" />
  <path fill="#E11619" d="M170 0h10v10h-10z" />
  <path fill="#E4D7D9" d="M180 0h10v10h-10z" />
  <path fill="#E5B12A" d="M190 0h10v10h-10z" />
  <path fill="#EEEBED" d="M200 0h10v10h-10z" />
  <path fill="#FADD15" d="M210 0h10v10h-10z" />
  <path fill="#FDD207" d="M220 0h10v10h-10z" />
  <path fill="#FFFFFF" d="M230 0h10v10h-10z" />
</svg>