<svg xmlns="http://www.w3.org/2000/svg" viewBox="0 0 160 10">
  <path fill="#FEFDFD" d="M0 0h10v10H0z" />
  <path fill="#E2DFDA" d="M10 0h10v10H10z" />
  <path fill="#F76032" d="M20 0h10v10H20z" />
  <path fill="#FBD718" d="M30 0h10v10H30z" />
  <path fill="#45A04B" d="M40 0h10v10H40z" />
  <path fill="#198902" d="M50 0h10v10H50z" />
  <path fill="#1B733E" d="M60 0h10v10H60z" />
  <path fill="#040903" d="M70 0h10v10H70z" />
  <path fill="#56A6DE" d="M80 0h10v10H80z" />
  <path fill="#174CA3" d="M90 0h10v10H90z" />
  <path fill="#072472" d="M100 0h10v10h-10z" />
  <path fill="#D41333" d="M110 0h10v10h-10z" />
  <path fill="#D7141E" d="M120 0h10v10h-10z" />
  <path fill="#BF1E2E" d="M130 0h10v10h-10z" />
  <path fill="#84295E" d="M140 0h10v10h-10z" />
  <path fill="#69050F" d="M150 0h10v10h-10z" />
</svg>