<svg xmlns="http://www.w3.org/2000/svg" width="1200" height="600">
  <path fill="#012169" d="M0 0h1200v600H0V0Z"/>
  <path fill="#FFF" d="M1200 0h-134L700 183V0H500v183L134 0H0v67l265.8 133H0v200h265.8L0 533v67h134l366-182.8V600h200V417.2L1066 600h134v-67L934.2 400H1200V200H934.2L1200 67V0Z"/>
  <path fill="#C8102E" d="m800 400 400 200v-44.6L889.4 400H800ZM1200 0h-89.4L710.4 200H800m-140 40V0H540v240H0v120h540v240h120V360h540V240M0 600h89.4l400.2-200H400L0 600Zm400-400L0 0v44.8L310.6 200H400Z"/>
</svg>
