<svg xmlns="http://www.w3.org/2000/svg" width="1090.625" height="308.125">
  <defs>
    <clipPath id="a">
      <path d="M0 246.5h872.5V0H0v246.5z"/>
    </clipPath>
  </defs>
  <path d="M0 0h369.75v246.5H0V0z" transform="matrix(1.25 0 0 -1.25 0 308.125)" fill="#ce1126" fill-opacity="1" fill-rule="nonzero" stroke="none"/>
  <path d="M0 0h246.5v246.5H0V0z" transform="matrix(1.25 0 0 -1.25 0 308.125)" fill="#fff" fill-opacity="1" fill-rule="nonzero" stroke="none"/>
  <path d="M0 0h123.25v246.5H0V0z" transform="matrix(1.25 0 0 -1.25 0 308.125)" fill="#002654" fill-opacity="1" fill-rule="nonzero" stroke="none"/>
  <path d="M379.75.125H872.5V246.5H379.75V.125z" transform="matrix(1.25 0 0 -1.25 0 308.125)" fill="#009543" fill-opacity="1" fill-rule="nonzero" stroke="none"/>
  <path d="M379.75 82.25H872.5V246.5H379.75V82.25z" transform="matrix(1.25 0 0 -1.25 0 308.125)" fill="#ed4135" fill-opacity="1" fill-rule="nonzero" stroke="none"/>
  <path d="M379.75 164.375H872.5V246.5H379.75v-82.125z" transform="matrix(1.25 0 0 -1.25 0 308.125)" fill="#0035ad" fill-opacity="1" fill-rule="nonzero" stroke="none"/>
  <g clip-path="url(#a)" transform="matrix(1.25 0 0 -1.25 0 308.125)">
    <path d="M0 0c44.594 0 80.745-36.15 80.745-80.745 0-44.594-36.151-80.746-80.745-80.746-44.595 0-80.746 36.152-80.746 80.746C-80.746-36.15-44.595 0 0 0" transform="translate(544 204.057)" fill="#fae600" fill-opacity="1" fill-rule="nonzero" stroke="none"/>
    <path d="M0 0c44.594 0 80.745-36.15 80.745-80.745 0-44.594-36.151-80.746-80.745-80.746-44.595 0-80.746 36.152-80.746 80.746C-80.746-36.15-44.595 0 0 0z" transform="translate(544 204.057)" fill="none" stroke="#000" stroke-width="5" stroke-linecap="butt" stroke-linejoin="miter" stroke-miterlimit="4" stroke-opacity="1" stroke-dasharray="none"/>
    <path d="M0 0v-137.97m-13.688 65.699h27.376m-27.376-20.257h27.376" transform="translate(544 203.795)" fill="#000" fill-opacity="1" fill-rule="nonzero" stroke="#000" stroke-width="6" stroke-linecap="butt" stroke-linejoin="miter" stroke-miterlimit="4" stroke-opacity="1" stroke-dasharray="none"/>
    <path d="M0 0c32.954-13.457 63.842-.826 63.842-.826S52.183 11.792 46.204 16.72c-5.831 4.805-22.989 4.615-28.844 0C12.474 12.866-1.539-1.332 0 0" transform="translate(511.49 49.17)" fill="#000" fill-opacity="1" fill-rule="nonzero" stroke="none"/>
    <path d="M0 0c4.989 0 9.034-5.882 9.034-13.14 0-7.256-4.045-13.14-9.034-13.14-4.989 0-9.033 5.884-9.033 13.14C-9.033-5.882-4.989 0 0 0" transform="translate(544 99.222)" fill="#000" fill-opacity="1" fill-rule="nonzero" stroke="none"/>
    <path d="M0 0c6.047 0 10.95-3.104 10.95-6.933 0-3.827-4.903-6.93-10.95-6.93-6.048 0-10.95 3.103-10.95 6.93C-10.95-3.104-6.048 0 0 0" transform="translate(544 128.328)" fill="#000" fill-opacity="1" fill-rule="nonzero" stroke="none"/>
    <path d="M0 0c6.047 0 10.95-4.902 10.95-10.951C10.95-16.998 6.047-21.9 0-21.9c-6.048 0-10.95 4.902-10.95 10.949C-10.95-4.902-6.048 0 0 0" transform="translate(544 164.375)" fill="#000" fill-opacity="1" fill-rule="nonzero" stroke="none"/>
    <path d="M0 0c-.004.008.949-1.571-1.048-5.167C-10.589-22.348-20.163-22.72-21.979-24.2c-2.004-1.629-2.849-1.519-2.849-1.519.143 1.473.276 7.49.381 8.07C-23-9.621-10.871-9.731-1.38-1.511.103-.228-.004.008-.004.008L0 0z" transform="translate(557.14 194.214)" fill="#000" fill-opacity="1" fill-rule="nonzero" stroke="none"/>
    <path d="M0 0s2.143-6.148 2.463-12.319c.514-9.852 9.954-10.129 16.426-10.129v5.475c-4.851 0-9.063.721-12.592 7.939C4.556-5.473 0 0 0 0" transform="translate(525.111 157.257)" fill="#000" fill-opacity="1" fill-rule="nonzero" stroke="none"/>
    <path d="M0 0s3.446 4.253 7.479 14.223c2.105 5.2 7.091 8.225 11.683 8.225v7.664c-10.417 0-15.413-3.861-15.939-9.505C2.14 9.012 0 0 0 0" transform="translate(524.838 77.87)" fill="#000" fill-opacity="1" fill-rule="nonzero" stroke="none"/>
    <path d="M0 0s-2.144-6.148-2.464-12.319c-.512-9.852-9.953-10.129-16.425-10.129v5.475c4.85 0 9.063.721 12.593 7.939C-4.555-5.473 0 0 0 0" transform="translate(562.889 157.257)" fill="#000" fill-opacity="1" fill-rule="nonzero" stroke="none"/>
    <path d="M0 0s-3.447 4.253-7.479 14.223c-2.105 5.2-7.09 8.225-11.683 8.225v7.664c10.418 0 15.412-3.861 15.939-9.505C-2.141 9.012 0 0 0 0" transform="translate(563.162 77.87)" fill="#000" fill-opacity="1" fill-rule="nonzero" stroke="none"/>
  </g>
</svg>
