<svg xmlns="http://www.w3.org/2000/svg" xmlns:xlink="http://www.w3.org/1999/xlink" width="1200" height="720">
  <path d="m0 0v720h1200V0Z" fill="red" />
  <path fill="#000" id="a"
    d="m528 158c-5 0-8-2-8-4s3-4 8-4 8 2 8 4-3 4-8 4Zm72 427l1-5 1-372h-2c-3-5-11-14-17-19l8-2c-5-5-15-10-23-12l14-3c-4-5-14-11-21-14 6-1 12-5 14-10-24 0-36-11-52-11-8 0-15 3-15 8-12-3-20 2-20 11h1c5-6 15-3 22 6-16 0-26-1-35-12-4-5-9-1-7 4 4 11 26 12 43 12-4 6-16 7-23 2h-1c0 6 9 9 16 10 12 2 57 6 57 40 0 13-6 21-15 21-10 0-17-8-17-18 0-8 0-27-26-31-75-11-69-46-89-46-8 0-12 5-12 12 0 18 27 40 60 45 6 1 12 1 12 6 0 4-4 7-16 7-29 0-35-18-46-18-5 0-9 3-9 9 0 15 18 26 42 26 7 0 17-1 23-3 3-1 5-1 6 1s-1 6-5 9c-8 6-19 8-27 8-17 0-26-10-32-10-4 0-7 3-7 8 0 9 9 21 30 21 13 0 24-5 32-9 2-1 6-3 8-1s0 7-2 10c-6 9-22 14-34 14s-20-5-26-5c-5 0-7 3-7 7 0 7 6 16 21 16 16 0 34-10 38-12 2-1 5-2 6 0 2 3-1 9-7 14-13 12-33 17-50 14-6-1-9 2-9 7 0 6 5 15 20 15 14 0 30-8 43-21 3-3 7-4 9-2s1 6-2 11c-12 21-35 32-57 28-11-2-13 3-13 7 0 10 9 14 20 14 25 0 40-21 46-27 3-3 6-4 8-3s2 4 0 9c-10 25-41 41-60 39-9-1-12 2-12 6 0 8 9 15 20 15 26 0 51-38 61-48 4-4 7-6 10-6 4 0 5 4 5 6 0 7-9 22-24 28-5 2-7 7-3 11s14 4 24-7 13-27 16-33c4-7 13-6 12 3-1 8-9 19-12 22-6 6-3 10 2 10 14 0 21-23 25-30s10-5 10 3c0 19-25 44-52 48-6 1-5 5-2 8l8 8c-9 2-28 11-40 18l-21-14c-2-7-10-12-17-11-5-3-10-4-13 0l9 6c2 7 10 12 17 11l15 10h-26c-5-5-15-5-20 0-6 0-11 2-11 7h11c5 5 15 5 20 0h25l-15 10c-7-1-15 4-17 11-5 3-8 8-5 12l9-6c7 1 15-4 17-11l22-15 16 11c2 7 10 12 17 11l9 6c3-4 0-9-5-12-2-7-10-12-17-11l-12-8c9-6 28-15 40-17l10 10c3 3 7 3 8-3 4-26 27-45 39-45 6 0 8 4 8 9 0 24-23 53-48 53-10 0-12 3-12 6 0 5 7 12 16 12 7 0 15-4 22-11 4-4 8-3 8 3 0 11-13 20-31 20-5 0-7 3-7 6 0 5 7 9 14 9 11 0 21-11 24-14 4-4 8-5 8 1 0 13-10 23-22 23-6 0-8 2-8 5 0 5 8 10 14 10 12 0 19-16 21-20s4-6 6-6c3 0 4 4 4 8 0 19-17 22-17 30s16 24 30 37Z" />
  <use xlink:href="#a" transform="translate(1200)scale(-1 1)" />
</svg>