<svg xmlns="http://www.w3.org/2000/svg" width="1200" height="720">
  <path fill="#009edb" d="m0 0h1200v720H0Z" />
  <path fill="#fff"
    d="m257 196l-5 1v4l1 1 5-4v-2h-1m691 228l-1-2-2 2v3l2 2 2-2-1-3M256 205l-4 1v4l5-3-1-2m18 43l-1 2 4 4 1-4-4-2m666 156l-10-3-7-8 4-9v-13l8-9-8-21 5-19-14 2-6-1-18-12-20-7 7-10 3-8v-8l-4-6 6-9 1-5-7-22-1-11-9-20-1-15 1-18-4-6-6-6-8-4h-4l-7 4-2-7-8-2-5-6-31-9-14-3-7 8-3 1-8-20-2-9-4-1-6 4-8-10-4-2-19 5-14-1-8-5-5-9-9 1-3-1-6-10-12-7-19 4-26-5-30-2-2-10-3-3-4 4-5 14-7 2-3 5-9-8-5-1-5 1-1 2 4 9-9 1-6 2-6 8-3 12h-5l-11 8-11 5 1 12-1 6 3 5v2l-11 11-1 4 3 4-4 8 1 9-6 9v3l2 4-4 5-2 5-1 15h-8l-7 4 3 11-15 4-18 1-9 6-9 3-14 1-9 5-4 1-5-3-21-21-27-9-19-15-26-12-8-8-17-22-4-3-4 2 1 14 3 18 4 14 5 12 5 8 12 8 9 4 6 8 7 5-13 6-6 13 4 3 2 7 5 4 9 3 3-2v-4l3-2 5 8 7 2-1 8 3 5-1 8 1 2 4-1 5-8h3l1 11 5 10-8 1v5l-2 4-13 15 5 35-17-1 1 14 5 12 9 6 16 3-2-10h2l1 4 1 8 10 7-5 8 3 8 1 1 11-2 5 26-2 23h15v18l12-3 8 1 15 12 24 8 24 11 1-1v-4l40 3 4-1 4-6 3-2 13 3 4-1 2-2 3 3 6 1h20l29 12 10 3h9l9-2 8-11 2-1 14 32v6l-4 9 1 8-3 4-10 8-2 10-9 6-2 4v3l19 9 6 8 10-5 6 5 8-2 5 1 4-5 9 7 7 3h9l11-2 12 6 9-11 6 2 13-11 3 9 15-3-2 8 2 1 18-15 2 2h2l6-5 11-4 4-6 6-4 10-1 9 3v-4l-5-4 1-3 7-9 11-7-1-3-7-9v-5l15-4 14-8v-4l-5-8h14l-4-9v-5l4-18 8 3 6-9 13-4v-12l-5-15-1-7 7-3 10-17 4-3 8-1v-23l8-20 1-8-1-1" />
</svg>