<svg xmlns="http://www.w3.org/2000/svg" width="1200" height="720">
  <path d="m0 0h1200v720H0Z" fill="#012169" />
  <path
    d="m881 159l4-27-27-2 23-14-15-23 26 10 8-26 8 26 26-10-15 23 23 14-27 2 4 27-19-20Zm133 147l4-27-27-2 23-14-15-23 25 10 9-26 9 26 25-10-15 23 23 14-27 2 4 27-19-20Zm-69 104l4-17-13-11 17-1 7-16 7 16 17 1-13 11 4 17-15-9Zm-214-56l4-27-27-2 23-14-15-23 26 10 8-26 8 26 26-10-15 23 23 14-27 2 4 27-19-20Zm150 285l4-27-27-2 23-14-15-23 26 10 8-26 8 26 26-10-15 23 23 14-27 2 4 27-19-20Zm-620-18l8-56-57-5 49-29-31-47 53 20 17-54 17 54 53-20-31 47 49 29-57 5 8 56-39-41ZM600 34l-154 96h154v100h-154l154 96v34h-67l-183-117v117h-100v-117l-188 117H0v-34l154-96H0v-100h154L0 34V0h67l183 117V0h100v117L538 0h62Z"
    fill="#fff" />
  <path
    d="M174 130 0 22V0l212 130ZM330 0h-60v150H0v60h270v150h60V210h270v-60H330Zm270 0h-38L350 130h38L600 0ZM0 360h38l212-130h-38Zm388-130 212 130v-22L426 230Z"
    fill="#c40f38" />
</svg>