<svg xmlns="http://www.w3.org/2000/svg" xmlns:xlink="http://www.w3.org/1999/xlink" width="1200" height="720">
  <path d="m0 0h1200v720H0Z" fill="#f7e017" />
  <path d="m0 40v180l1200 320v-180L0 40Z" fill="#fff" />
  <path d="m1200 680v-160L0 200v160l1200 320Zm480 480l80 47h100Z" />
  <path
    d="m597 204c2 1 5 1 7 0v-21l29 8-12-14 12-10-30-8c1 0 4-1 4-3s-3-3-7-3-7 1-7 3 3 3 4 3v45Zm-23 1c0 10 53 10 53 0 0-4-8-7-21-7v7c-3 2-8 2-11 0v-7c-12 0-21 3-21 7Zm26 34h1l9-9 9 6h1l5-8 9 4c-4-8-7-14-7-23-9 7-44 7-53 0 0 9-3 15-7 23l9-4 5 8h1l9-6 9 9Z"
    fill="#c40f38" />
  <path id="a"
    d="m600 242v75h1v-75h-1Zm0 78v60h1v-60h-1Zm0 63v51h1v-51h-1Zm0 55v33h1v-33h-1Zm0 35v50h1v-50h-1Zm0 53v46h1v-46h-1Zm-5-202c1-3 3-5 5-7v-75l-5-5v22c-7-9-20-16-31-16-37 0-40 24-89 24 0 10 10 17 23 17 14 0 26-15 39-15v2c-12 0-25 15-38 15 0 6 6 11 13 11 12 0 22-17 38-17v2c-12 0-18 9-28 14 0 3 4 8 11 8 13 0 21-16 33-16v2c-9 0-15 9-23 13 1 5 6 8 12 8 12 0 18-13 30-22l1 1c-1 1-3 3-3 6s3 8 10 6v2c-3 1-6 5-6 9 0 5 3 8 8 11Zm-2 65c1-4 4-7 7-9v-60c-2 2-4 6-4 8-3-3-9-6-13-3 6 4 9 11 9 20 0 7-7 20-7 28 0 6 3 14 8 16Zm-4 68c-2-8 5-17 11-23v-51c-3 2-5 5-6 11-3-3-10-8-13-5 3 3 6 7 6 16 0 10-8 17-8 32 0 7 2 13 10 20Zm11 14v-33c-4 4-9 11-9 16 0 3 1 4 2 5l-1 2c-3-1-9-6-11-9-5 0-11-2-15-5 2 14 17 24 34 24Zm-209-148c1-2 3-3 4-3-1-8-4-21-9-18 2 4 2 12 2 14l3 7Zm8 18c-5-5-8-11-8-14l-5-10c0-6 0-18-6-18-1 0-2 1-2 2 1 3 2 10 2 16 6 6 9 14 9 19l10 5Zm4 14l-3-12-13-6c0-5-3-13-9-19 0-6-1-22-6-22-2 0-3 2-3 4 1 3 2 10 2 16 6 6 10 15 10 22 6 3 16 10 22 17Zm-4 87c9 6 25 6 35 0v-76c0-7-7-17-17-22-11-11-16-22-20-22-3 0-4 2-4 4 0 4 4 10 9 15l3 15-1 3c-4-5-16-15-25-20 0-7-4-16-10-22 0-6-1-23-6-23-3 0-4 4-4 10 0 20 7 40 17 50 9 9 24 25 24 36l-1 52Zm201 130v-46c-39 0-78-17-100-39-9-9-22-11-30-3-7 7-7 18 1 26-11-11-34 0-28 18-9 4-15 14-13 23 4-4 15-8 24-8 21 0 34 24 50 24 8 0 15-6 17-15 19 12 53 20 79 20Zm-203-121c11 7 27 7 38 0 2-2 2-5 0-7-10 7-28 7-37 0-2 2-3 5-1 7Zm-3 10c10 7 34 7 44 0 2-2 1-7-1-8-11 8-31 8-42 0-2 1-3 6-1 8Zm-2 10c10 8 38 8 48 0 2-1 3-6 0-8-9 8-39 8-48 0-3 2-2 7 0 8Zm208 52v-50c-67 0-119-53-119-120 0-16 4-38 9-52h-1c-16 15-29 52-29 83 0 78 61 139 140 139Z"
    fill="#c40f38" />
  <use xlink:href="#a" transform="matrix(-1 0 0 1 1200 0)" />
  <g>
    <path
      d="m591.24 562.4c3.92-1.3 6.15-3.67 7.75-8.25.8-2.28 1.34-4.65 1.2-5.26-.33-1.46-2.02-1.38-3.89.17-1.28 1.07-1.43 1.61-1.07 3.79.93 5.5-1.02 6.86-11.43 7.98-1.03.11-4.02-.07-6.65-.39-4.95-.62-6.72-.13-4.92 1.37.54.45 1.92 1.06 3.05 1.35 2.78.72 12.98.24 15.96-.75h0Z"
      fill="#f7e017" />
    <path
      d="m612.82 561.48c.59-.54 2.61-1.47 4.5-2.08 2.51-.81 3.81-1.67 4.87-3.25 3.05-4.55 2.48-8.47-2-13.75-2.44-2.87-3.52-2.79-5.46.39-1.68 2.75-1.64 2.93.78 3.56 1.27.32 2.48 1.26 3.15 2.41 2.63 4.56 1.86 7.38-2.04 7.4-3.54.03-4.51.53-5.46 2.82-.5 1.19-.9 2.46-.9 2.82 0 .96 1.34.8 2.57-.31h0Z"
      fill="#f7e017" />
    <path
      d="m605.74 556.34c.67-1.81.9-5.06.82-11.69-.05-5.05-.25-9.33-.44-9.53-.59-.59-3.5 1.29-3.88 2.49-.2.63.13 2.08.72 3.22.9 1.76 1.02 3.4.75 10.28-.35 8.7.22 10.16 2.03 5.21h0Z"
      fill="#f7e017" />
    <path
      d="m589.12 552.19c.35-1.62.81-4.94 1.01-7.37.21-2.43.71-5.49 1.1-6.82 1-3.4 0-4.29-2.69-2.39l-1.99 1.42.41 4.88c.38 4.4-.31 12.6-1.33 15.78-.28.84.12.63 1.23-.67.89-1.04 1.92-3.23 2.26-4.85Z"
      fill="#f7e017" />
    <path
      d="m573.96 554.31c3.63-2.94 3.31-8.07 4.17-12.23-.04-2.78 1.87-6.07.71-8.52-3.36.56-5.48 3.7-3.81 6.89.08 3.67-.11 7.67-2.05 10.88-1.58 2.1-6.45 1.49-6.18-1.52 1.3-4.5-4.16-2.39-6.29-1.24-1.65 1.11-5.11 1.14-3.86-1.69-.73-3.81-5.65-1.51-8.3-1.57-2.51-.09-.12-5.08-3.74-4.26-6.67-.64-14.06-.17-19.78-4.3-3.36-1.68-2.79-5.75-.98-8.35 2.16-3.56 2.84-8.06 6.23-10.79 3.36-3.12-3.09-1.88-4.56-.84-3.25 1.71-.33 6.3-3.01 8.78-1.58 2.59-3.67 6.16-7.23 5.61-5.13-1.06-8.02-5.89-11.65-9.16-3.15-.68-1.47 5.1.14 6.34 3.19 2.47 6.93 4.29 10.81 5.4 3.88-.56 3.93 4.52 7.22 5.37 6.03 2.93 12.79 3.89 19.41 4.34 2.6.26 1.06 4.87 4.5 4.01 1.9.53 6.24-.61 6.42 1.62-2.96 3.4 2.73 3.41 4.84 2.83 2.7-.37 6.16-1.34 6.81 2.36 2.21 2.41 6.34 2.12 9.1.81.39-.22.75-.47 1.09-.77h0Z"
      fill="#f7e017" />
    <path
      d="m515.76 523.63c1.11-1.37 2.79-4.14 3.73-6.17.93-2.04 2.31-4.34 3.06-5.13 1.76-1.84.82-3-1.98-2.43-1.48.3-2.09.83-2.35 2.1-.9 4.15-2.48 8.39-3.86 10.35-2.49 3.55-2.56 3.7-1.55 3.72.52 0 1.85-1.09 2.97-2.45h0Z"
      fill="#f7e017" />
    <path
      d="m480.36 499.97c-2.75-.04-2.9 1.69-.23 2.67 1.29.47 2.37 1.58 3.23 3.37 2.53 5.24 4.04 6.19 10.97 6.9l4.44.48.17 2.7c.08 1.49.42 2.74.76 2.74s2.07-.71 3.83-1.57c3.29-1.6 6.44-5.39 6.48-7.78.03-1.56-2.55-3.29-4.92-3.33-1.05-.02-3.07.79-4.67 1.92-5.01 3.5-10.29 2.69-13.11-2.02-2.31-3.89-4.76-6.04-6.95-6.08h0Zm23.86 9.97c1.32.02 1.62 1 .88 2.84-.51 1.27-2.11 1.28-2.57.02-.55-1.49.27-2.88 1.7-2.86h0Z"
      fill="#f7e017" />
    <path
      d="m688.49 504.63c-1.79.16-2.3.58-3.35 2.33-1.72 2.86-1.59 8.87.24 10.89 1.14 1.26 1.3 1.28 3.51.22 3.09-1.49 3.62-1.47 3.7.23.21 4.34-5.57 13.02-11.85 17.8-1.69 1.29-3.19 2.7-3.34 3.15-.41 1.26 1.99.86 4.87-.81 3.93-2.27 8.95-7.96 10.91-12.34 1.55-3.49 1.73-4.66 1.63-10.63-.1-5.49-.33-7.09-1.36-8.87-1.15-2-1.49-2.16-4.1-2.03-.31.02-.6.02-.86.05h0Zm.42 3.81c1.35-.07 1.6.22 1.86 2.15.22 1.6-.01 2.6-.86 3.45-1.16 1.16-1.26 1.16-2.42-.42-1.63-2.24-.85-5.06 1.42-5.18h0Z"
      fill="#f7e017" />
    <path
      d="m659.64 548.05c5.75-2.83 9.13-6.01 11.31-10.62 1.03-2.19 1.88-4.25 1.88-4.61 0-.8-2.83-2.11-4.53-2.11s-2.03-1.17-1.31-4.4c.71-3.15-.15-7.1-1.53-7.1-.5 0-1.38.74-1.97 1.63-.9 1.38-.95 1.97-.28 3.99.98 2.99.21 5.21-2.46 7.12-1.27.9-1.96 1.94-1.96 2.96 0 .85.11 1.55.24 1.55.14 0 1.53-.73 3.1-1.6l2.87-1.6 1.69 1.33c.92.73 1.69 1.92 1.69 2.64 0 3.5-9.97 9.37-16.81 9.92-3.64.29-4.26.17-5.53-1.09-1.03-1.03-1.33-1.9-1.07-3.11.2-.93.55-2.63.79-3.77.63-3.04-.68-2.63-2.94.92-1.86 2.94-2.41 6.07-1.37 7.72.85 1.35 6.53 2.63 10.55 2.39 2.52-.15 5.02-.85 7.66-2.15h0Z"
      fill="#f7e017" />
    <path
      d="m698.5 528.49c3.42-3.79 4.72-8.25 4.39-15.03l-.26-5.09 2.91-1.57c3.78-2.05 7.25-5.91 7.15-7.95s-1.04-1.94-2.6.43c-1.14 1.72-2.72 2.81-8.57 5.88-1.47.78-1.55 1.15-1.56 7.51-.02 7.33-.87 10.12-4.68 15.32-2.34 3.17-2.41 3.58-.67 3.49.72-.04 2.47-1.38 3.91-2.99Z"
      fill="#f7e017" />
    <path d="m659.04 523.63c.45-1.37-2.15-2.34-3.27-1.23-.47.47-.6 1.29-.28 1.81.74 1.19 3.09.79 3.55-.59h0Z"
      fill="#f7e017" />
    <path d="m712.45 509.6c.3-1.07-1.74-1.71-2.55-.81-.35.39-.42 1.02-.15 1.41.62.88 2.41.48 2.7-.6h0Z"
      fill="#f7e017" />
    <path
      d="m647.57 473.48c-1.4.67-2.13 2.18-3.11 3.34-.7.48-.14.92.26 1.37 2.48 2.67 3.53 6.27 4.7 9.63 1.16 3.97 2.61 8.23 1.4 12.36-.48 1.58-1.72 3.22-3.58 2.7-2.98-.19-5.9-.98-8.89-.94-2.66.14-4.71 2.56-7.43 2.29-1.74.11-1.66-3.55-3.27-2.57-.8 1.91-.41 4.05-.5 6.07.3.29 1.14.04 1.65.12h5.35c.38 1.85.33 3.96 1.66 5.43 1.86.66 3.94.09 5.71-.63 1.89-.88 2.14-3.15 2.68-4.93.57-1.9 3.06-1.4 4.53-2.15 3.6-1.05 5.96-4.79 5.75-8.47-.23-5.62-2.38-10.91-4-16.22-.82-2.34-1.39-4.79-2.33-7.08-.11-.2-.34-.36-.57-.32h0Zm-8.91 32.13c2-.13 2.87 2.33 2.45 3.96-.75 2.22-3.47.79-4.02-.8-1.01-1.43-.39-3.34 1.58-3.16h0Z"
      fill="#f7e017" />
    <path
      d="m564.84 485.11c-.89-.04-1.9.28-2.9.96-5.28 3.56-6.69 7.86-3.18 9.61 2.58 1.29 1.9 2.74-2.24 4.72-5.91 2.82-11.08 2.37-20.84-1.87-2.4-1.04-3.03-.67-2.51 1.55.5 2.18 2.46 3.4 7.37 4.61 5.28 1.31 11.7 1.03 15.86-.67 2.03-.83 4.45-2.6 6.5-4.76l3.25-3.45 3.7.53c4.57.64 4.65.69 4.61 2.88-.03 1.74.07 1.78 4.26 2.25 2.36.27 5.47.53 6.92.56 1.86.04 2.9.39 3.5 1.26.8 1.16 1.29 1.23 8.22.74 6.47-.47 7.74-.4 10.64.64 2.06.74 4.33 1.07 6.06.91 4.96-.47 11.85-4.4 12.9-7.35.12-.36 1.93-.97 4.01-1.34 5.02-.91 5.25-2 .6-2.66-2.02-.29-5.04-1.08-6.72-1.78-1.69-.7-3.99-1.3-5.13-1.32-2.51-.04-4.91 1.48-4.94 3.1-.02 1.06.35 1.18 3.33.92 2.8-.23 3.62-.06 5.07 1.13.96.78 1.59 1.7 1.38 2.02-.68 1.06-6.57 3.62-9.16 3.98-1.73.24-3.12.03-4.47-.69-2.25-1.22-5.58-1.45-6.23-.45-.27.44-.98.14-1.95-.8l-1.51-1.47-3.49 1.38c-3.55 1.4-4.85 1.32-4.82-.36.01-.77-1.02-.87-6.22-.63-5.73.27-6.33.16-7.38-1.05-.97-1.12-.99-1.5-.26-2.62.67-1.03.67-1.48.07-2.11s-1.41-.63-3.68-.07c-5.72 1.42-7.32.54-7.24-3.91.05-2.67-1.46-4.32-3.42-4.38h0Zm-1.49 4.06c.3 0 .56.2.94.6.49.51.74 1.39.52 1.94-.53 1.32-2.95 1.22-3.44-.12-.23-.65.09-1.37.83-1.89.52-.36.84-.54 1.15-.53h0Z"
      fill="#f7e017" />
    <path
      d="m553.07 493.13c3.51-2.14 3.42-1.97 4.03-8.07.42-4.3.37-4.63-.8-4.65-1.7-.03-2.62 1.82-2.68 5.37-.04 2.28-.41 3.29-1.65 4.48-2.94 2.84-10.08 1.39-10.92-2.21-.28-1.23.13-2.34 1.67-4.44 3.21-4.39 2.52-5.49-1.38-2.19-2.68 2.26-3.15 2.32-2.62.34.49-1.83-.46-2.57-2.62-2.07-1.1.26-1.72.93-2 2.26-.28 1.3-.89 2.02-1.94 2.25-1.75.41-4.68-1.29-4.66-2.7.02-1.04 4.55-6.38 10.35-12.19 2.19-2.2 3.98-4.25 3.99-4.57s-1.14-.59-2.54-.61c-2.05-.04-2.56.18-2.57 1.13-.01.65-2.95 4.36-6.53 8.25-7.47 8.12-8.11 9.83-4.53 12.09 2.88 1.84 6.63 1.77 9.6-.17l2.41-1.58-.05 2.94c-.07 3.75.66 5.11 3.57 6.72 3.67 2.02 8.15 1.86 11.86-.4h0Z"
      fill="#f7e017" />
    <path
      d="m707.97 445.61c-2.76 1.56-.71 5.02-.35 7.29-1.18 3.06-5.17 3.8-8.08 4.3-4.11.58-7.1 3.94-8.75 7.54-.9 2.34-3.03 5.96-5.16 2.31-1.88-2-5.4-3.64-7.73-1.41-1.77 1.61-2.27 4.03-2.97 6.22-.98-1.72-1.38-4.25-3.54-4.84-3.48.4-2.33 4.8-.74 6.64 1.43 2.13 2.78 4.94 1.27 7.4-1.35 2.97-5.82 4.88-8.36 2.25-2.4-1.34-.66-5.88-3.05-6.18-1.2.83-1.42 5.61-3.24 2.97-1.31-2.25-.52-5.27-2.14-7.31-1.98.2-3.65 3.56-3.04 5.4 2.55 3.61 3.52 8.1 4.45 12.35.6 1.71-.22 5.13 1.35 5.84 1.16-2.7.22-5.82 1.15-8.55 2.58-.26 5.41.98 8.12.42 3.87-.41 6.93-3.59 8.36-7.02.47-2.6.05-5.25.04-7.87 3.04.55 6.2.61 9.11 1.67 1.4 2.26-.59 5.34-1.05 7.76-1.65 4.92-5.62 8.43-9.48 11.66-1.6.9-1.88 3.37.49 2.09 5.13-2.05 9.03-6.56 11.33-11.49 1.68-3.79.51-8.09 1.64-11.98 1.6-2.9 5.28-2.2 8.01-2.12 2.83-.04 5.32-3.27 4.44-6.04-.82-3.21 2.59-4.66 4.92-5.75 3.09-1.47 5.51-4.54 5.36-8.08-.08-1.81.09-5.24-2.36-5.46h0Zm-11.27 18.15c3.25.95-.76 7.11-2.41 3.1-.5-1.52.81-3.2 2.41-3.1Zm-15.3 4.11c4.27-.15 2.59 6.04-.94 3.13-1.84-.98-1.17-3.29.94-3.13Z"
      fill="#f7e017" />
    <path d="m526.91 489.58c.16-.77-.22-1.33-.92-1.34-1.48-.03-2.4 1.26-1.72 2.39.7 1.18 2.3.54 2.64-1.05h0Z"
      fill="#f7e017" />
    <path d="m576.92 483.9c.02-1.11-.39-1.54-1.33-1.38-2.04.35-2.32 2.93-.32 2.97 1.11.02 1.63-.47 1.65-1.59Z"
      fill="#f7e017" />
    <path
      d="m515.41 452.85c-1.98-.44-3.27 1.22-3.98 2.81-1.53 2.48-3.4 5.01-6.1 6.28-1.93.5-4.02-.27-5.66-1.29-1.96-1.02-1.47-3.39-2.29-5.05-1.41-1.15-3.98.41-3.95 2.16-.2 2.34 1.97 3.73 3.77 4.67 1.53.97 3.76 1.54 4.35 3.47-.07 1.63.55 3.5 2.54 2.91 2.22 0 2.75 2.72 1.82 4.32-.95 1.81-1.6 3.94-1.2 5.99 1.04.91 2.17-1.46 2.95-2.13.53-.69 1.07-1.37 1.6-2.06 3.92.28 7.84.85 11.77.78 2.8 0 5.21-1.69 7.03-3.68 2.56-2.59 4.69-5.64 7.6-7.86 2.06-.46 1.02-4.34-1.13-3.26-1.94.69-2.58 2.85-3.94 4.22-2.32 2.71-4.69 5.46-7.59 7.57-2.1.83-4.5.41-6.63-.12-.88-.8 1.8-1.39 2.19-2.25 1.25-1.21 2.73-2.35 3.47-3.95-.65-1.5-2.74-1.66-4.21-1.71-3.63.37-6.44 3.36-10.1 3.58-2.78.05-1.28-2.93 0-3.93 2.5-2.86 5.19-5.55 7.8-8.32.74-.86 3.38-1.64 1.72-2.9-.58-.22-1.22-.23-1.83-.25h0Zm1.52 14.73c1.81 1.06-1.21 2.69-2.47 2.43-1.66.47-1.66-1.22-.19-1.53.83-.41 1.71-.85 2.65-.91h0Zm-5.68 3.74c1.04 0 3.2 1.04 1.14 1.64-1.44 1.08-3.01-1.18-1.14-1.64Z"
      fill="#f7e017" />
    <path d="m555.97 474.6c.03-1.93-3.44-1.72-3.86.23-.27 1.26.12 1.57 1.75 1.36 1.16-.14 2.1-.85 2.11-1.6Z"
      fill="#f7e017" />
    <path d="m665.74 467.32c.29-1.32-1.54-2.25-2.53-1.3s-.15 2.82 1.18 2.59c.61-.1 1.22-.69 1.36-1.29h0Z"
      fill="#f7e017" />
    <path
      d="m494.62 450.33c1.75-1.45 1.78-1.55 1.09-4.82-.98-4.58-.9-5.07.84-5.48 2.21-.52 7.74 2.57 8.94 4.99.93 1.87.9 2-.76 3.48-1.79 1.59-1.81 3.48-.05 3.52 1.45.03 5.54-3.7 5.56-5.07.03-1.9-4.34-6.45-7.84-8.15-2.16-1.06-4.33-1.57-6.86-1.62-4.52-.08-5.14.88-4.02 6.16 1.32 6.18-.63 6.98-5.51 2.25-3.62-3.51-5.01-7.12-4.89-12.77.12-6.06 2.49-9.01 7.72-9.63 3.47-.4 3.4-1.22-.15-1.81-5.19-.88-9.65 2.52-11.43 8.7-1.98 6.85 2.12 15.31 9.57 19.77 3.9 2.33 5.47 2.43 7.79.49Z"
      fill="#f7e017" />
    <path
      d="m699.08 447.1c.43-.41.8-1.36.82-2.09s.77-2.3 1.67-3.47c.91-1.17 1.66-2.37 1.67-2.66.03-1.21-1.96-1.22-3.57 0-1.64 1.22-2.85 1.22-2.82 0 0-.3.79-.91 1.74-1.35 2.36-1.08 2.59-2.21.64-3.16-2.51-1.21-5.1.83-5.45 4.29-.22 2.31-.05 2.72 1.72 3.81 1.61 1 1.9 1.52 1.59 2.89-.53 2.37.44 3.23 1.99 1.76h0Z"
      fill="#f7e017" />
    <path
      d="m718.4 445.38c1.44-1.23 2.63-2.65 2.64-3.13s1.26-1.73 2.78-2.76c4.3-2.94 5.31-5.99 3.53-10.76-.69-1.87-2.95-4.49-7.87-9.15-3.78-3.59-7.28-6.53-7.74-6.54-1.37-.03-1.25 5.03.13 5.5 2.49.87 3.99 1.93 7.86 5.59 4.49 4.26 6.52 8.19 5.31 10.32-1.16 2.06-2.62 1.38-6.57-3.07-2.08-2.34-4.14-4.25-4.57-4.27-.47 0-.83.82-.85 1.97-.03 1.45.71 2.86 2.75 5.24 3.33 3.89 3.61 6.19.99 8.15-.94.7-1.91 1.28-2.14 1.27s-.95-1.16-1.61-2.56c-1.36-2.94-9.91-12.41-11.22-12.44-.6-.01-.91.72-.95 2.2-.04 1.78.3 2.41 1.69 3.17 1.72.94 5.91 5.38 10.11 10.7 1.2 1.52 2.39 2.76 2.65 2.78.26 0 1.64-1 3.08-2.23h0Z"
      fill="#f7e017" />
    <path
      d="m729.6 420.98c-.53-1.85-12-14.24-13.2-14.27-.63-.02-.84.73-.74 2.65.11 2.34.36 2.75 1.96 3.21 1 .29 4.04 2.8 6.75 5.57 2.7 2.77 5.09 4.88 5.29 4.68.2-.19.18-1.02-.05-1.84h0Z"
      fill="#f7e017" />
    <path d="m656.5 553.59c0 .89-.78 1.6-1.75 1.6s-1.75-.72-1.75-1.6.78-1.6 1.75-1.6 1.75.72 1.75 1.6Z"
      fill="#f7e017" />
    <path d="m662.67 551.53c0 .89-.78 1.6-1.75 1.6s-1.75-.72-1.75-1.6.78-1.6 1.75-1.6 1.75.72 1.75 1.6Z"
      fill="#f7e017" />
  </g>
</svg>