<svg xmlns="http://www.w3.org/2000/svg" width="1200" height="720">
  <path fill="#fcd80e" d="M0 0h1200v720H0z" />
  <path fill="#f76230" d="M0 720h1200V0z" />
  <path fill="#444"
    d="M876 230c-12-5-29-11-39-13 3-6 9-13 20-13q2 6-2 14 9-4 14-12l8 4q0 4-6 10 11 1 18-4-1 12-13 14m59 74-1-2q6-3 9-9 0 3 2 6-5 0-10 5m-74-64c-7-10-16-4-19-12l25 8zm-97-95c-5 1-16-18-24-24q22 5 24 24m-19 107q-5-11-14-15l6-1 13 12zM478 650c18 0 34-12 34-33q3-1 4-6c7-4 9-13 3-18 3-5 2-13-4-16l6-2q4 5 11 6c-1 9 10 9 5 28 15-12 12-25 8-33 3-9-3-18-14-18q-9-9-18 0-4-4-10-3 2-9-6-12 1-11-10-14c-2-14 1-19 5-34q9 4 14 3c6 13 23 19 42 14 20 2 35-10 35-28q0-14-10-22c2-14-13-19-20-15-5-3-13-2-15 3q-4-3-8 0 1-3-1-5 7-3 8-9c6 2 9-2 17 0-10-15-35-19-41 2q-10 6-7 17-4 0-7 4l-10-3c-8-19 10-23 5-33 3-3 7-11 4-14q17-3 15-14c8 4 17-2 17-7 5 3 15 4 20-1 3 7 20 9 27 6 5 7 15 12 28 6 9 13 28 16 40 9 16 14 24 0 32 0q-3 10 0 16c-5-3-8 2-12 2s-8-4-18 2c11 2 7 7 14 9-8 4-8 16-20 16 13 13 22-4 29-4q3 7-2 16 11 0 16-13c0 6 5 12 14 9 0 6 9 12 16 8 1 7 14 11 20 5 3 10 14 9 22 6s12 4 19 4c-9 6-8 16-2 22-2 10 5 18 13 18 4 11 19 14 31 10 26 14 55-4 55-30q0-14-8-23 7-15-6-23-4-9-15-7-6-4-11-2 2-2 1-8c11 0 13-12 26-7-7-11-22-13-32-6-11-2-18 7-17 14q-12-2-14 9-6-1-13 6-6-8-15-5c-6-9-21-11-30-6q-3-8-14-7-2-12 2-22c23-7 49-26 48-73q13-15 21-10c1 7 1 12-12 17q12 5 16 0c-3 11 1 24 13 24-5-10 5-10 3-18q9 2 10 15c15-10-3-21 0-29 24 2 36-19 53-18q2 10 17 10 6 7 15 4 16 5 22-7c9 1 22-6 24-16 12-3 12-15 6-22-7-3-1-16-16-17-1-13-14-23-29-23q-21 2-29 21l-11 17c-12-3-20 1-31 4-22 6-41 1-49-8-18-21-35 0-50-32 26-1 32 28 54 21-18-6-14-21-35-27 19-17 33 1 52-9 28 9 20 20 29 23-9 1-6 11-19 11q14 8 23 0c-2 6-2 10 10 14-6-8 1-9 4-14q8 6 3 12c14-3 17-15 9-23q5-6 0-13 0-4-6-7l7-4 10 5q0 13-4 25c14-9 14-13 14-22q19 5 38 0c20-5 50-9 46 13 18-15-3-29-21-27 1-10-6-19-21-13 13 3 13 12 1 17 5-11-8-20-21-13 17 9 3 18-8 16 0-9 15-21 8-34v-5q5-1 3-6 2 0 3-4c35 1 33-16 67-16 11 0 22 0 28-10-19 4-28-1-41-1-14 0-22 8-31 8 10-6 9-12 25-15 11-2 18 0 19-17q-11 8-22 6c-12 0-21 0-29 10 2-17 14-14 14-30 0-21 25-18 19-42-3 11-14 16-18 18-12 6-6 21-19 30-15 10-7 22-15 31l-11 2q-6-4-15 0-8-8-20-7c-2-11-15-16-23-11-9-8-25-11-36-5-3-11-24-8-34-18-14-14-43-28-66-14 18-1 28 0 41 10q-13-7-23-3c-11-7-25-3-33 4-12 0-27 3-36 12 26-7 54-1 68 15-14-10-25-1-46-16 3 24 29 16 39 24q-3 0-5 3c-26-10-42-16-60-16q-33 1-34 20c0 10 14 18 23 5-14 6-19-13 8-13 18 0 41 11 53 20h-5c-10-8-33 5-40-14q-6 10 0 15-16-4-32 13c-17-9-39-4-45 17 21-18 49-1 63-7q-3 3-1 8c-9 1-13 9-8 16q-7 3-3 11-22 3-29 29 9-10 26-15c-8 21-27 21-16 42 6-19 17-16 27-20-5 8 1 18 12 18-4 7-3 17 8 20-7 10-20-3-28 12 15-4 22 12 35 7q-3 5 0 10c-8-2-15 5-23-6q-4 12 5 15l-6 1c-3-11-16-14-24-10-1-11-13-13-18-9 0-8-9-6-9-14 0-15-15-9-14-20-10 8 4 16 0 22-5-9-20-12-30-3-3-5-13-6-17-2-2-18-27-7-30-20-7 15 12 13 10 24-13-8-27 1-26 12-9-5-20 1-20 11-14-10-39-4-44 14q17-7 27 0-10 5-7 18c-14-1-22 14-14 24-14 3-30 23-45 18 7 14 29 1 33 4-6 3-10 15-4 22q-11 4-12 16c-10-1-14 12-25 8q2 11 14 10-4 6-16 5-1 6 4 11h-21l2 9c-11-2-27-5-34 4l6 4c-8-1-11 4-17 4-14 0-52-25-59 3 14-10 34-2 42 6-26-4-28 9-40 9-7 0-19-5-20 9 6-6 13 0 24 0 12 0 20-7 27-5q-12 10-23 10c-26 4-26 14-39 14-22 0-18 18-41 21 22 7 52-21 72-18-8 10-29 12-42 19-17 9-23 29-53 31 34 14 37-12 60-12 26 0 19-21 43-21 15 0 14-15 31-15q6 0 11-4-5 9-18 11c23 9 30-15 54-15-10 12-28 7-33 26 17-12 38-6 47-20 10-16 29-18 33-28 6-16 30-15 37-28 6 5 16 3 20 1q0 8-3 14c-6-4-19-1-21 5 2-1 13-1 15 4-12-1-13 14-24 14 6 10 16 6 22 0 0 5 4 8 1 13 11 0 8-13 14-14q-2 6 5 7-1 6 3 8-7 5-2 15-23 4-20 22-7 11 1 24c-2 19 12 34 32 34m258-515q-12-10-28-12 20 0 28 12" />
  <path fill="#fff"
    d="M895 167q-7-7-20-6c-2 0-8 5-9 6q14 9 29 0m-44-7 6 2c1-7 10-10 17-4-3-13-25-13-23 2m22 0c-4-5-13-5-14 3l5 3c-1-6 5-8 9-6m-21-11q-16-13-34-4c13 5 12 13 31 15q-1-5 3-11m35 66-8-4q0 4-3 7 7 0 11-3m93-48c-18 0-17 10-38 7 10-1 12-15 31-18 10-2 15-1 17-10-5 3-14 3-19 3-13 0-19 0-32 13 1-22 15-21 15-35 0-21 19-19 20-35-5 8-10 9-16 13-12 8-4 20-19 30-13 9-5 21-14 30 7 1 9 11 5 15-5 5-8 9-14 25q-7 16-25 11 0 12-15 16c-13-5-31-12-41-13l-6 11c2 6 28 12 29 20-2-5-25-11-30-17l-8 7c26 7 20 19 31 24-8 1-9 10-17 12 4 1 10 3 20-6-2 10-4 11 3 15-3-7 6-7 8-15q8 8 7 14c5-2 11-11 2-20 13-16-21-20-13-2-7-7 1-18 13-13q-3-5-8-5l23-13-9 7 8 4 2-7c1 10 0 23-3 31 8-6 9-10 9-21q20 6 39 1c18-4 50-9 49 10 9-14-10-22-25-20q2-16-13-15c4 1 15 12-8 20 6-12-2-19-14-16 13 8 5 21-15 18 0-12 18-23 8-37q4 0 1-5c4 1 6-4 3-6q5 0 3-5c35 3 34-16 69-16q16 2 24-6c-11 4-25-1-37-1m-119 76c-10-15-17-1-22-18l30 10 5-1zm41-2-3-4-4 2q2-6 8-12-1 6-1 14m-53-68c-9 0-12 8-8 15l5-4q-4-8 3-11m18 32-8-1v9q6-3 8-8m-31-12 4-4c-6-6-2-16 5-17-14-5-24 13-9 21m106 86c6 8-1 15 8 22q-12 0-17 10-4-26-18-23c4 4 0 12 4 16-9-4 2-15-11-16 11-5 22-1 25 12q6-3 10-10 1-9-7-12l8-1c-1-13-13-21-26-21-17 0-29 13-29 27 0 9 5 12 5 17q13-2 15 13-4-12-18-10c1-10-6-11-4-23l-9 15c-8-5-24 1-31 3-20 6-41 3-52-9-18-20-36 2-52-37-2-5-8-14-17-14l-8 1c11-16 32-10 43-19 0 9-24 5-37 16 22-6 23 3 54-3l-20 12 8-8c-6 1-11 1-25-1l12 12-7 6c25-2 34 21 48 22-11-4-9-19-32-25q14-13 30-10c47 9 31-39 66-39 17 0 25 13 41 13 19 0 13-20 29-36 4-4 1-17-15-11 3 9-9 12-13 18-3 5-1 11-7 16 8 1 11-5 10-9 4 3 1 12-10 12-8 0-15-9-5-16-9 10 6 18 7 4s16-14 16-23c0-6-9-5-14-2-28 15-29-4-50-6-20-2-21-17-43-19q7-1 12 1c-6-12-23-7-34-18-12-12-35-24-56-17 34-2 35 19 73 37-24-5-38-33-63-27q26 3 30 26l5 1c-21 10-27-48-65-24 21-1 29 5 34 18q-30-27-67-9c29-6 57 4 68 24-18-15-34-5-50-19 6 20 35 10 41 23-6-3-11 5-6 9q-4-1-4-6c-24-10-41-16-59-16s-32 7-32 18c0 8 10 13 17 7-15 3-15-17 12-17 19 0 43 11 59 24-21-2-40 14-12 26-18-2-25-21-2-27-7-6-29 5-37-11q-4 8 6 13-24-4-37 13c-24-10-36 0-42 10 21-14 44 2 63-5q-5 8-3 12-15 4-7 16-8 2-4 9l7-1c1-10 5-23 12-30-6 8-9 21-9 30 29 0 37-8 46-25-17 49-64 8-82 49 36-26 59 1 80-22 17-19 27-29 40-13-11-10-17-9-37 14-19 21-39 7-59 12-4 16-24 23-19 37 5-15 17-12 31-18-8 13 0 22 13 19-8 10-4 21 6 21-5 16-18 3-26 11 10-2 21 14 33 7q-5 9 3 17c-9-5-22 4-28-6-1 14 13 8 12 18q-6-7-16-3c0-9-12-16-24-10-1-11-10-15-19-8 4-11-8-6-8-18 0-9-7-8-13-14-1 5 9 11 2 20q-14-18-32-3c-3-7-12-7-17-2-4-19-17-10-28-18-1 6 18 10 10 22-13-11-28 0-24 12-12-8-23 0-20 12-16-13-35-7-42 4 11-4 22 1 27 6-10 2-13 11-9 19-18-1-21 14-14 23-13 3-29 21-44 20 7 7 29-5 35-1-11 7-13 19-7 25-9 2-13 11-13 17-11-1-16 11-24 9q3 6 16 6-5 8-18 9 1 7 6 10h-23q0 6 4 11c-15-5-30-6-36 0l10 7c-15-3-14 3-24 3-15 0-45-21-55-3 12-6 31-2 43 13-31-7-30 8-45 8-6 0-15-3-17 3 6-2 11 2 21 2 13 0 21-9 30-4-7 9-13 11-26 13-24 3-25 14-38 14-20 0-17 13-32 18 21-2 42-22 66-19-4 13-31 15-47 25-18 11-20 24-46 28 32 5 30-16 54-16s18-20 43-20c12 0 13-15 31-15q9 1 16-11 0 13-16 20c15 2 27-18 50-17-4 13-27 12-33 24 11-8 35-5 42-17 10-16 29-18 34-30 6-15 30-14 38-27 6 5 17 3 22 0q1 12-5 19-8-4-17 1 12 0 14 8c-16-2-11 11-24 13 8 8 17-2 22-7-4 8 2 12 1 16 5 0 6-17 14-13-4 5 1 9 6 7q-4 7 3 10-9 6-3 16-24 5-21 22-7 9 0 20c3-16 20-26 37-27 2 9 11 11 19 9q0 7 4 10 0 8-6 12 8 4 13-7 11-6 3-17 5-10-6-17 7 0 11-4 3 7 12 6c-1 11 9 11 7 24q8-11 2-26c2-8-2-16-14-16-3-6-12-5-16 1q-4-6-13-3 4-12-5-13 2-10-10-15c-2-15 1-22 6-41q6 10 17 7c4 12 22 17 36 15q-16-2-16-22 4 20 25 21c16 0 28-11 28-26q-1-14-9-20c-8-6-9 0-17-4q-6 6-15 6-2 5-7 7 1 8-6 13 4-6 4-14 6-3 7-9 11 1 17-5c3 3 13 1 16 4 2-10-7-17-19-13-4-2-11-1-13 4-3-3-11-1-14 2q4-5 1-11c5-1 9-7 10-10 5 2 8-2 13-1-6-8-29-13-35 7q-9 5-5 17-7-1-9 5l-11-4 2 12c-27-65 13-100 51-100 40 0 74 23 124 29-48-2-86-26-122-26-39 0-64 30-59 72 1-11 12-18 6-22q9-9 4-15 16-1 16-16c8 5 16 0 19-7 5 5 17 4 20-1 5 10 21 9 28 7q9 12 28 6c9 13 26 14 40 9 17 13 20-1 36-3-5 6-4 19-1 26-8-7-10-1-16-1-4 0-4-2-13 0 7 0 5 8 15 8-11 3-12 17-21 19 13 5 16-11 29-7l-3 1c1 2 2 9 0 13q8-2 9-11-3-2-1-10 0 9 6 10c0 3 3 14 14 7 0 9 8 12 15 9 3 7 13 11 20 2 1 10 10 12 18 9 16-6 14 6 31 3q-20 11-9 25-2 13 13 17c2 9 18 13 26 9-8-3-7-9-15-14 4-3 3-11-2-14q13-8 7-23 15 1 17-13c3 6-2 15-13 16 3 5 0 15-6 20 0 16 12 32 33 32 18 0 34-13 34-33q0-27-32-33c5-3 11 4 17-1 1 6 6 6 9 10q5-13-7-20-5-9-14-6c-4-4-14-2-17 2q8-8 6-16c8 1 15-9 22-8q-11-9-26-1c-9-1-17 5-15 15-6-3-14-2-14 9q-9-3-15 7-4-10-16-6c-7-11-22-11-30-6q-4-10-15-8c-4-14 2-27 5-34 42-33 31-81 8-124 28 42 36 92-5 125l-3 6c17-4 44-22 44-67 0-50-36-75-41-101 6 20 43 53 44 95q13-14 23-8c1 6 1 13-8 18q7 1 15-7c-5 10-6 24 5 28-3-8 8-10 3-19q12 3 15 14c6-8-7-15-4-26 23 3 37-19 56-18q2 10 17 10 5 7 14 4 16 5 21-7c9 1 22-6 24-16q14-4 5-19c-8-4-1-17-18-16m-63-93q-10 3-3 11c-11-4-5-11 3-11m-20-1q-3 7 0 15c-4-8-15-7-22 2 3-8 12-12 18-9q-1-5 4-8m-54 41c-7-5-5-16 2-19q-6 9-2 19m13-6c7-14-4-28-25-26l5-2q1-12 11-13-1-9 10-10c3-8 16-8 20 0 7 0 13 1 17 12q-13 6-19 14c-14-4-14-22-1-26-4-5-13-5-15 2q-9 0-11 8 5 0 8 4-15-7-19 9c30 1 27 28 15 37-17 13-43-4-39-19 2 21 33 29 43 10m-40-29c-14-18-33-2-43-10 5 13 26 1 42 22-21-20-45-4-45-28 8 15 38-6 46 16m-46 17c15 5 22 6 32 4-7 0-13-12-28-12-11 0-19 5-32-9 13 11 25 7 33 7 17 0 21 16 35 12-9 6-25 7-40-2M343 531c70-7 93-71 113-38-22-28-47 39-113 38m302-171c-39-18-85-41-130-27-54 17-69 72-78 99-14 42-29 66-66 80-21 8-52 14-81 36 22-22 53-29 71-35 45-15 60-41 74-84 9-28 23-80 77-98 45-15 86 5 139 28 41 18 55-7 36-46-8-16-32-47-30-59 6 21 20 34 33 59 20 39 5 70-45 47M497 617q7-3 8-11-4-4-4-9c-10 3-17-3-19-9-16 2-30 11-34 28-1 18 12 31 31 31q27-2 31-29-5 4-13-1" />
</svg>