<svg xmlns="http://www.w3.org/2000/svg" width="1200" height="720">
  <path fill="#d52b1e" d="M0 0h1200v720H0Z" />
  <path fill="#fff"
    d="m589 614l5-108c0-8-6-13-13-12l-108 18 15-40c1-3 0-7-3-9l-117-95 26-12c3-1 5-6 4-10l-23-72 68 15c3 1 7-1 9-5l13-31 53 57c6 6 16 1 14-7l-26-132 41 24c5 2 10 0 12-4l41-81 41 81c2 4 7 6 12 4l41-24-26 132c-2 8 8 13 14 7l53-57 13 31c2 4 6 6 9 5l68-15-23 72c-1 4 1 9 4 10l26 12-117 95c-3 2-4 6-3 9l15 40-108-18c-7-1-13 4-13 12l5 108h-22Zm-289 106h600V0H300Z" />
</svg>