<svg xmlns="http://www.w3.org/2000/svg" xmlns:xlink="http://www.w3.org/1999/xlink" width="1200" height="720">
  <path fill="#fff" d="M0 0h1200v720H0z" />
  <path id="a" fill="#4e5b31"
    d="M797 521c-6-2-16 2-13 7s12 0 13-7Zm-61 4c-8 0-12 9-8 11s9-5 8-11Zm-59 25c-8 0-12 9-8 11s9-5 8-11Zm71 2c-6 2-8 10-4 11s7-6 4-11Zm-166 70c11-13 26-25 35-28l-3-4c-13 3-31 12-42 21l10 11Zm44-27c15 9 36 8 49-1-11-11-33-10-49 1Zm67-13c-8 0-12 9-8 11s9-5 8-11Zm-33-26c-16-2-32 13-38 29 18-1 37-12 38-29Zm-8 24c13 3 37 0 42-11-14-8-33 2-42 11Zm47-6c0 10 38 4 45-6-11-5-45-4-45 6Zm49-35c-12-4-30 5-42 21 21 0 39-9 42-21Zm-27-7c-15-4-31 7-36 26 14-1 32-12 36-26Zm31 16c12 3 40 4 46-12-16-4-36-2-46 12Zm38-46c-18 0-28 16-32 31 16-6 29-14 32-31Zm-49 30c11-5 23-22 29-39-17-3-28 23-29 39Zm53-19c18 2 31-1 33-18-15 1-28 2-33 18Zm-11-17c11-7 7-23 9-33-13 5-15 13-9 33Zm12-1c16-5 39-15 35-41-17 1-35 28-35 41Z" />
  <use xlink:href="#a" transform="matrix(-1 0 0 1 1200 0)" />
  <path fill="#d57800"
    d="m949 111-4 2h-4l-9 6h-6v2l-3 3-9 3-5-2-10 7h-5l-3 3h-5l-5 7h-4l-1 4-7 4-11 2-6 4h-4l-1-1-3 1-6-2-2 5-3 1-9 11-11 4-3 3-25 13-34 10h-23l-16 8-8 6-6 2v-3l-8 2-5-1-10 4-28 4h-17l-7-1-3 1-20-5-3 2-4-2-4 1-6-2-2-2-12 2-14-4-7 3-7 1-11-4h-5l-15-9-9-3 1 13 4 7 1 7-1 17-3 13-6 15-15 10-8 1-11-6-4-1-6-4-21-5h-3l-5 2-4-1-2 3-11 4-5-2-2 5-5 4-6 14-7 8-9 7-11 4-11-2-10-7-7-8-6-2-1 4v12l9 16 2 6-1 3 1 2-2 1v2l6 9-1 4-3 3v2l7 5 3 7h5l5 4v5l5 15-1 5 2 2 3-1 4 6h4l12 10 6-2 3 2 12 3 10 7 26 9h2l2-2h7l6-4 7-1 3 1 5-3 4 1 3-1 8 2 4 4h3l-1 2 6 7 5 12-2 5 3-1 5 1 4-3 13 4 1-3-7-10v-9l4-7 18-12 15-4 33 2 2-4 4-2 8 1 9-4h4l5-4 5-1 13-8 11-1 2-3h3l10-9h15l2-7 6-8 1-19 3-7 3-3 7-4 22-1 10 2 3 1 8 7 3 1 10-5 2-4 6-2h6l3-3 6 2 10-1 12 7 6 1 1-1-3-2-2-4 2-2-12-16-15-14-6-10-6-5-6-9-4-1 3-3-3-10 6-21 3-1 4-8 6-5 7-1 5 2h5l8-3 5-12 12-12 19-14 26-11 10-10 13-7 6-5 3-7 9-8 20-10 2 1 2-3 8-1 1-2v-6l5-9" />
</svg>