<svg xmlns="http://www.w3.org/2000/svg" xmlns:xlink="http://www.w3.org/1999/xlink" width="1200" height="720">
  <path fill="#046a38" d="m0 0h1200v720H0Z" />
  <path fill="#ffcd00" d="m0 282h1200v78H0ZM522 0h78v720h-78Z" />
  <path fill="#ffffff" d="m0 360h1200v78H0ZM600 0h78v720h-78Z" />
  <path fill="#000000" d="m0 334h1200v52H0ZM574 0h52v720h-52Z" />
  <circle fill="#d50032" cx="600" cy="360" r="160" />

  <g id="c">
    <g id="b">
      <g id="a">
        <path fill="#000000" d="m600 213 15 46-39-29h48l-39 29Z" />
        <path fill="#046a38" d="m600 216 13 40-34-25h42l-34 25Z" />
      </g>
      <use xlink:href="#a" transform="rotate(36 600 360)" />
    </g>
    <use xlink:href="#b" transform="rotate(72 600 360)" />
  </g>
  <use xlink:href="#c" transform="rotate(144 600 360)" />
  <use xlink:href="#b" transform="rotate(-72 600 360)" />

  <path fill="#000000"
    d="m611 442c2 14 7 15 11 2 3-1 4-4 6-8 3 1 10 3 13 3 5 0 7-8 0-11l-10-4c0-2 1-5 1-7 8-2 13-22 13-48 0-46-30-58-32-63s-4-20-10-25-8-5-12-7-20-5-26 5c-6 0-13 6-6 15l2-3c1 2 5 3 8 3 4 2 9 6 6 12-4 8-6 16-6 24 0 18 9 37 18 52 3 10-3 18 3 21-2 5 0 7-3 7-4 0-2-4-3-7-4-11-24-6-24 4 0 6 12 10 25 15 0 3 5 6 9 5 2 2 5 2 6 1 1 2 3 3 4 3 2 6 3 10 7 11Zm-15-81c-2-4-4-9-4-13 5 3 3 5 4 13Zm15 27c-2 0-6-6-7-10 6 0 4 5 7 10Z" />
  <path fill="#046a38" d="m594 318c3 3 9 3 10-2-2 3-6 4-9 1l-1 1Z" />
  <path fill="#9c4a00"
    d="m642 430c-6-3-22-9-26-9s-6 5-4 8 23 9 29 9c4 0 5-6 1-8Zm-44-5c2 0 2-2 2-4 0-1-1-4 1-5-7 0-6 9-3 9Zm-15-22c-3-9-22-5-22 4 0 5 13 10 24 13 1-3-2-6 2-9-5 0-3-5-4-8Z" />
  <path fill="#046a38"
    d="m601 311c-4 2-5-1-2-4-2 0-4 2-4 4-8 5-2 15 4 12l1 1c-3 2-7 1-9-2 0 1 0 3 1 4-3 0-4 5-2 7-2 1-2 6 1 8 0 3 1 7 6 9-2 19 5 26 9 27-3-3-4-9-2-15l1 1c-4 9 4 19 8 15-2-3-4-6-3-12l1 1c-1 9 7 17 12 13-4 0-7-4-7-10l1 1c0 7 6 10 10 6l1 1c-1 1-3 2-4 2-2 3-6 3-10-1-1 1-3 1-4 1 1 8 13 36 21 36 7 0 13-20 13-47 0-35-27-66-43-58Zm24 111l5 2c0-2 1-5 1-7-7-1-4-6-6 5Zm-6-2c5 2 6 1 6-6l-5-6c1 3 0 7-2 9 1 1 1 2 1 3Zm-7-9c2 7 7 6 7 0 0-12-11-15-11-22-1 1-4-1-5 0s1 4 1 6c0 3-3 4-8 0 2 3 5 6 6 9 0-3 2-5 3-6-4 11 3 21 7 13Zm-18-16c0-3-3-7-5-10 2 8-3 15 3 17-3 5-1 11 4 7 3 5 8 3 7-1s-9-6-9-13Zm28 47c2 0 3-2 5-6-5-2-4 2-5 6Zm-16-10c1 4 2 8 5 9l-1-7-4-2Zm9 0c0 1-2 3-4 2 2 23 8 23 11 1l-7-3Z" />
  <path fill="#9063cd"
    d="m605 287c0 2-2 4-5 3 5-1 4-5 1-8-4-4-6-4-10-6s-18-5-25 3c7 5 0 7 5 14 5 3 8 8 5 14s-5 13-5 24c0 24 19 56 26 63 1 1 5 4 6 2s-3-6-1-8c1-1 4 1 5 0s-4-7-4-11c-4-3-7-9-7-14-4-6-6-14-6-21-3-2-4-7-2-9-1-2-1-6 2-8v-3c-1 2-6 3-9 0 3 1 7 1 9-2 0-2 0-5 1-7-3 1-7-1-8-4 3 3 7 3 9 2 2-3 5-5 8-5s4-4 2-6c3 2 5 0 4-4 3 0 2-5-1-9Zm-20 28l1 1c-4 2-9 1-10-4l1-1c0 4 5 6 8 4Zm10-16l1-1c3 1 7-1 7-4h1c0 4-5 7-9 5Z" />
  <path fill="#ffffff" d="m573 282c2 4 8 3 10 0-4-4-9-3-10 0Z" />
  <path fill="#d50032" d="m574 282c1-2 4-3 7 0-2 3-6 2-7 0Z" />
  <path fill="#000000" d="m576 282c0 2 3 2 3 0s-3-2-3 0Z" />
  <path fill="#ffcd00"
    d="m567 282c-1 1-2 0-2-1h2c-1-1-4-1-6 0-4 2-5 6-2 11 1-4 4-3 7-4s2-5 1-6Zm-6 8c2 2 5 3 8 3 1 0-1-3-1-5-2 2-5 1-7 2Zm56 127c-1 0-3 0-4-1-5 2-10 4-8 11 1 0 2 0 2 1-3-1-3 2 0 1 0 1-1 1-1 1 1 1 6 5 8 2-6-2-5-12 2-12 2 0 2-2 1-3Zm-13 5c0-4 5-5 8-7l-1-1c-1 1-4 1-5 0-8 3-3 7-5 10l1 1c-2 0-2 1 0 2h-1c0 2 2 3 4 3-2-2-1-4-1-8Zm-4-7c1 0 3-1 3-3-2 2-6 1-7-1-1 1-2 1-3 1 0 2-6 3-2 8-2 1-1 2 1 2l-2 1c0 2 2 1 4 3s5 2 5 0c-6 0-6-11 1-11Zm-11 6c1-2-1-4 0-6s3-2 3-3l-2-2c-7 4-3 8-4 10 0 0 1 0 1 1-2 0-1 2 0 1 0 1-1 1-1 1 1 2 4 3 6 3-3-1-4-3-3-5Zm-12-140c-1 0-1 1 0 1s1-1 0-1Z" />
</svg>