<svg xmlns="http://www.w3.org/2000/svg" width="1200" height="720" fill="#fcdd09">
  <path fill="#da121a" d="m0 0h1200v720H0Z" />
  <path d="m0 0h1200v480H0Z" />
  <path fill="#078930" d="m0 0h1200v240H0Z" />
  <circle cx="600" cy="360" r="220" fill="#0f47af" />
  <path
    d="m650 297l-6-5 56-77 6 5Zm-73 23l5-14h42l-32-98 8-24 40 122h93l-20 14Zm189 98l-90-30 2-7 90 30Zm-73 52l-20-15-42-129h15l13 40 83-60h25l-103 75Zm-143-173l-56-77 6-5 56 77Zm5 73l-12-9 13-41h-103l-20-14h127l29-89 8 23Zm148 132l-103-75-75 55 8-24 109-79 5 14-35 25 84 61Zm-206 0l39-121-76-55h25l110 80-12 9-34-25-32 98Zm99 34v-95h8v95Zm-162-118l-2-7 90-30 2 7Z" />
</svg>