<svg xmlns="http://www.w3.org/2000/svg" width="1200" height="720">
  <path fill="#ce1126" d="m0 0h1200v720H0Z" />
  <path fill="#007a5e" d="m100 100h1000v520H100Z" />
  <path fill="#fcd116" d="m100 100h1000L100 620h1000Z" />
  <circle fill="#ce1126" cx="600" cy="360" r="86" />
  <path fill="#ce1126" d="m197 343l-34 17c10 21 31 43 49 51 1-20-6-46-15-68Z" />
  <path fill="#fcd116"
    d="m647 424l-47-143-47 143 122-88h-150ZM388 89l-28-84-28 84 73-52h-90Zm240 0l-28-84-28 84 73-52h-90Zm240 0l-28-84-28 84 73-52h-90Zm0 619l-28-84-28 84 73-52h-90Zm-240 0l-28-84-28 84 73-52h-90Zm-240 0l-28-84-28 84 73-52h-90Zm-243-416c15 32-42 110 51 129-11-16-17-42-14-63 19 8 39 27 46 45 33-90-63-81-83-111Z" />
</svg>