<svg xmlns="http://www.w3.org/2000/svg" xmlns:xlink="http://www.w3.org/1999/xlink" width="1200" height="720">
  <path d="M0 0h1200v720H0z" fill="#d63a27" />
  <path d="m0 0h1200v480H0Z" fill="#fff" />
  <path d="m0 0h1200v240H0Z" fill="#090" />
  <path d="m0 0v720l284-360Z" fill="#274F99" />

  <g id="b">
    <path fill="#000"
      d="m518 423c-1 6-7 9-7 14 0 16 50 21 69 17v-1c-22 4-68-2-68-16 0-4 6-7 7-14 2 7 18 12 37 12 17 0 31-2 31 2 0 3-7 3-7 7 0 2-1 8-1 16 0 5 10 7 21 7l1-1c-11 0-21-2-21-6 0-6 1-9 1-16 2 4 11 5 19 5l1-1c-10 0-19-2-19-5 0-2 4-2 6-5l1 10h1l-1-10c-1-7-13-4-33-4-21 0-36-6-36-13 0-4 6-6 12-6l-6 14 1 1 6-14c4-8-13-10-18-19l-1 1c6 14-7 22 3 29l1-1c-9-6 1-11-2-26 4 6 16 9 16 13 0 2-12-2-14 10ZM541 292v108c0 43 55 14 58 35h2v-143h-60Z" />
    <g id="a" transform="rotate(5 600 440)">
      <path d="m589 262l11 18 11-18Z
      m0 12h22l-11-18Z" fill="#000" />
      <path d="m591 263h18l-9 15Z
      m0 10l9-15 9 15Z" fill="#ff0" />
    </g>

    <use xlink:href="#a" transform="rotate(10 600 440)" />
    <use xlink:href="#a" transform="rotate(20 600 440)" />
  </g>
  <use xlink:href="#b" transform="matrix(-1 0 0 1 1200 0)" />

  <path d="m600 432c-5-18-57 7-57-31v-107h114v107c0 38-52 13-57 31Z" fill="#d3d3d3" />

  <path d="m677.6 438.5l-.4-3.2 2.7 1.8Z
  m-1.2 4.7l1.7-1-.2-2 3.2-2 1.6 1.1 1.6-1-7.7-5.5-1.2.7Z
  m-4 1.5l1.7-.7-2.9-8.4-1.7.7Z
  m-11.3-1.3c1.2 3.5 5.8 4.2 8.1 1.4l-.6-2c-.8 1.8-4.9 2.9-5.8 0-.9-2.9 2.6-4.5 4.9-3.2l-.5-1.9c-3.9-1.3-7.4 2-6.1 5.7Z
  m-3.3 4.9l1.8-.3-1.6-9-1.8.3Z
  m-7 .7l1.8-.2-.7-7.3 2.5-.3-.2-1.7-6.9.8.2 1.7 2.6-.3Z
  m-10.1-.3c2.7 1.4 5.9 1.1 5.9-1.8s-4.5-2.8-4.5-4 2.4-.8 3.5-.1v-1.8c-2-1.3-5.3-.6-5.3 1.6 0 2.9 4.5 2.9 4.5 4.3 0 1.2-2 1.1-4.2-.1Z
  m-2.6-2.4l.4-5.8-1.9-.1-.3 5.8c-.1 2.3-3.7 2.2-3.5-.1l.5-5.8-1.9-.1-.4 5.7c-.3 4.7 6.8 4.9 7.1.4Z
  m-15.3 2.3c2.3.9 4.7.4 5-2l.7-6.6-1.8-.1-.6 6.1c0 1.7-2.1 1.4-3.1.8Z
  m-14.7 13l6.8-1.1-.3-1.7-4 .7 2.8-7.8-6.5 1 .3 1.6 3.7-.5Z
  m-9.9-2.9l1.4-3.1 1.4 3.1Z
  m-1.4 3.6l.8-2h3.9l.9 2 2-.2-4.1-8.9h-1.4l-4.1 8.9Z
  m-7.2-5.9l-1.6-.2.4-2.6 1.5.2c1.7.2 1.3 2.8-.3 2.6Z
  m-2.3 4.6l.5-3.2 1.5.2c3.8.6 4.8-5.3 1.1-5.8l-3.6-.5-1.4 9Z
  m-18.8-13.2l-.2-5.7 2-.1c2.9-.1 3.3 5.5.1 5.7Z
  m-1.8 1.7l3.9-.2c5.5-.3 5.1-9.4-.9-9l-3.3.2Z
  m-8.8-3.6l1.5-3 1.4 3Z
  m4.3 3.6h2l-4-9.1h-1.4l-4.3 8.9h2l.9-1.9 4 .1Z
  m-13.8-2.2l-1.8-.2.6-5.7 2 .2c2.9.4 2.4 6-.8 5.7Z
  m0 1.6c5.5.5 6.5-8.5.5-9.1l-3.3-.3-1.1 9Z
  m-7.3-.7l1.5-8.8-1.9-.4-1.5 8.8Z
  m-20.3-6.3c1.9 1.1 4 .4 5-1.6l2.3-4.7-1.7-.9-2.4 5c-.4.9-1.4 1.3-2.3.8-.9-.5-1.2-1.5-.8-2.3l2.4-4.9-1.7-.9-2.3 4.8c-.8 1.8-.3 3.8 1.5 4.7Z
  m14.7 5.2l2.6-8.5-1.8-.6-1.6 5.5-3-6.7-1.3-.5-2.8 8.4 1.8.6 1.9-5.3 2.8 6.7Z" />

  <path
    d="m628 333c1-3 3-3 5-2-1-2-4-2-5 0-1-2-4-4-8-2v1c4-1 6 0 8 3Zm-69 13c-4 1-5-5-1-6 0-5 3-8 8-7 3-3 6-2 8 1 0-2-2-4-4-4 0-3 1-5 4-6 0-3 1-5 5-5-2-5 5-9 9-3 2-3 6-1 5 3 3-4-2-8-5-5-1-2-2-2-3-2 0-1 1-2 3-2-1-4 2-7 6-6 5-6 15-2 15 6-2 0-5 2-5 4-2-1-6 0-6 2 2-1 5-1 7 0 3-10 16-2 9 5 3-1 4-4 3-6 1-1 3-2 5-1 1-2 6-4 8 1 3-1 6 2 4 5-2-1-5 0-5 2 2-2 6-1 7 0 5-2 8 0 8 5 6 1 5 11 2 11-2 0-2-2-5-1 0-2-1-3-3-3v1c2 1 2 2 2 4 1-1 4-1 5 0 0 3-6 5-10 3 2-2 1-4-1-4 2 3-1 6-5 6s-7-4-7-7c-6 6-15 0-12-6v-1c-2 1-3 3-2 5-4 2-9 2-12-1 0 2-2 4-5 3 1 4-2 7-6 6l-1 1c2 5-5 8-9 3-3 1-6 1-8-2 0 5-7 5-8 1Zm46 10c1-7 2-11 9-15 3 1 5 1 7-1 4 4 0 4 2 6 3 3 2 9-4 8-1 3-5 4-7 1-1 2-4 3-7 1Zm-14-26c1-2 3-3 5-3v-1c-2-1-4 0-5 2-3-4-5-5-9-5v1c4 0 6 2 9 6Zm-23 0c-5 0-7-5-5-7-1-2 0-4 2-4 0-3 3-5 6-4 1-4 5-4 7-1-1 0-2 3-1 4-3-1-5 3-4 5-4 1-5 5-5 7Zm26 24c-2 1-6 1-8-2-3 2-7 1-7-1 6-1 8-4 7-6 2 0 4-1 5-2 2 3 3 8 3 11Zm-14-9c1-1 0-4-3-2 0-4-4-4-7-1l1 1c3-3 5-2 5 1 2-1 4 0 4 1Z"
    fill="#090" />

  <path
    d="m597 415c2-4 2-9 0-9 2 9-5 11-6 8 3-4 6-13 4-13-3 17-11 15-10 11 1-3 7-8 9-16 2-7 2-16 2-26 0-15-1-24-4-28v-4c7 4 7 3 6 17 2 0 2-10 1-17h4c0 3-3 14-1 14 1-7 3-12 7-14l3 2c-9 6-9 15-9 30 0 8 1 18 3 26s8 13 9 16c1 4-7 6-10-11-2 0 1 9 4 13-1 3-8 1-6-8-2 0-2 5 0 9-1 2-5 2-6 0Z"
    fill="#a67c52" />
</svg>