<svg xmlns="http://www.w3.org/2000/svg" xmlns:xlink="http://www.w3.org/1999/xlink" width="1200" height="720">
  <path fill="#00297b" d="M0 0h1200v720H0z" />
  <path fill="#92dbfc" d="M482 417h236v-113l-118-138l-118 138Z" />
  <path fill="#008ce7" d="M600 552l118-135h-236Z" />
  <path fill="#b5915f" d="m584 417 6-12c40 1 100 6 130-6v18Z" />

  <path fill="#ffde52"
    d="M538 482c10-4 28-7 40-7c14 0 31 2 31-1s-20-8-43-13c-18-4-35-6-52-7ZM600 552l103-118c-19 7-34 13-55 17s-48 5-48 9c0 5 41 6 41 16c0 8-26 7-47 11s-33 11-37 16Z" />

  <path fill="#c62139"
    d="M0 720h1200v-720h-1200ZM29 687v-654h1142v654ZM600 556c56-38 132-117 132-197s-76-158-132-195c-56 37-132 115-132 195s76 159 132 197ZM600 535c-50-34-116-105-116-176c0-72 66-141 116-174c50 33 116 102 116 174c0 71-66 142-116 176ZM528 373c5 0 8-2 11-4v-12h-13v4h8v5c-1 1-3 2-6 2c-6 0-10-4-10-9c0-6 5-10 10-10c4 0 8 2 10 3v-5c-3-2-6-3-10-3c-9 0-15 7-15 15c0 7 6 14 15 14ZM559 362c0 15 23 15 23 0v-17h-5v17c0 8-13 8-13 0v-17h-5ZM610 372h6l3-6h12l3 6h5l-12-27h-4ZM620 362l5-11l5 11ZM658 372h5v-18l9 11l9-11v18h5v-27h-4l-10 13l-10-13h-4Z" />

  <path fill="#067715"
    d="M589 292c6 6 8-4 14 0c-1 2-1 6 4 5c0 1 0 2-1 3h2c0 1 0 3-1 4c1 1 2 1 3 1c2 0-1 5 2 7l2-2c0 2-2 9 2 7c-2 10 8 2 8 10c2-2 2-4 1-6c8-5-6-9 2-10c0-2-2-2-3-3c-2-2 6-1-3-6c1-1 3-1 4-1c-2-3-11-4-6-6c2-4-11-3-4-6l-5-4c3 2 7 2 6-1c2 0 5 6 7 5c0-1 0-3 1-4c2 3 4 9 6 3c2 4 4 6 5 2c1 1 2 5 4 5c0 0 0-1 1-2c1-4 2 6 4 5c1 0 3-4 3 0s4 7 5 3c1 2 2 8 4 5s3 8 4 4c5-21-21-34-42-35c6-7 12 3 12-5c2 2 4 1 6 2v-3c5 2 8 5 6 0c2 0 3 2 4 4c1-2 1-3 1-4c3 1 4 2 5 5c0-8 1-3 6-1l-1-3c3 1 7 1 9 1c-3-6-16-12-30-12c-10 0-16 4-20 4c3-1 12-2 7-7c5 1 8 1 5-2c-4-4 5-2 9-4l-3-2c4 0 8 1 8-1c-7-4 0-4 4-4c-4-3 0-4 4-4c-19-6-36 3-44 18c0-3 2-8-3-8c0-3 6-11-1-8c-1-2 2-9-1-11l-2 3c-1-1 0-7-1-8s-3 1-4 1s0-4-2-7s-4 3-5 0s-2-6-3-3s-4-2-8-2c4 6 4 6-1 6c1 4 12 6 1 7c0 2 5 3 7 4c-7 1-3 3 0 5c6 4-1 4-2 4c2 3 5 4 10 6c-9 1 4 6 1 8c-6 4 5 5 2 12c-6-18-36-29-50-21c3-1 10 0 8 2s-1 3 4 3c1 2 3 3 6 3c-7 6 10 0 3 5c3 1 5 1 10 2c-4 6 5 3 4 5c-2 4 6 1 6 5c-31-12-60-5-71 16l8-5l1 4l7-5v4c6-5 8-7 7-1c4-2 7-7 7-3c6 1 9-10 9-1l7-4l1 2c-10 3-24 19-24 33c1-1 3-5 6-6v3c3-1 3-6 5-7c0 2 1 2 2 2c0-1 1-3 3-5c0 6 5-4 6-4c0 2 0 3 1 3c2 0 8-13 5-3c4-2 7-5 8-7c0 1 2 1 3 0c-3 3-4 5-5 8l4 1c-2 0-5 2-5 4c5 0-1 1-2 7c5-1-1 7-2 8c5 0-2 6 0 8c4 0 5 3 5 9c4-3 2-10 4-11c1 1 3 4 3 1v-7c3 1 0-3 2-4l1 1c4-3-2-10 4-8c1 0 1-6 1-8c4 5 3 1 3-3Z" />

  <path fill="#8c4200"
    d="M647 466c-18 0-12-13-26-27c-33-33-30-72-29-143c0-1 1-2 0-3c5 1 9-7 9 1c-2 62-4 107 29 140c16 16 32 17 32 27c0 4-7 5-15 5ZM597 290c-6 7-13-6-3-5c0 2 1 4 3 5ZM593 284c-3 0-4-1-4-3c0-4 5-5 5-2s2 5-1 5ZM600 289c-5 0-6-7 0-7c4 0 5 7 0 7ZM596 282c-1-1-1-4-1-5c4-4 10 0 7 4c-2-1-5 0-6 1ZM543 445v-2h24v2ZM533 445c0 5 44 5 44 0h-6v-2c6-1 18-4 18-9c-7 1-16 1-25 1l-1-44c0-2-2-2-2 0l-1 44h-40c0 5 13 7 19 8v2Z" />

  <!-- <path fill="#109421"
    d="M572 327c0-5-1-5-4-6s6-8 0-8c9-12-4-4 5-13c2-2 1-2-1-2c0-2 10-3 1-5c1-4 6-7 7-11c-2 0-6 6-6 1c-3 4-4 5-7 7c0-1 0-3-2-3c-1 1-4 7-5 7c0-1 0-2-1-2c-3 0-5 9-5 3c-2 1-4 3-5 5c-1-5-4 3-5 5c0-5-5 0-6 2c3-14 15-29 32-31c-2-1-6-1-8 0l-1-3l-7 4c0-8-5 2-9 2c0-5-4 0-7 2c1-5-3-3-7 1c2-7-4-2-7 1c-1-2 0-6-7 0c13-19 42-22 69-12c1-5-2-4-6-5c1-2 1-3 0-3c-3 0-7 0-1-4c-4 0-9-1-11-2l2-2c-3-2-12 2-4-4c-3 1-6 0-8-1l2-1c-2 0-7 1-7-1c5-1 1-5-4-4c14-3 39 6 45 24c5-9-5-9-1-13s-7-7-1-8c5-1-7-4-8-6c7-1-1-6-3-8c10-2-2-4-2-5c8 0 3-5-2-7c6 0 4-2 2-5c2 2 5 4 6 1c1 5 4 4 6 3c0 2 1 11 5 7c1-1 1 0 1 2c0 4 1 8 4 3c1 4-1 7-2 11c9-4 3 2 3 6s5-3 3 8l-3 8c11-22 29-29 43-26c-2 0-3 2-1 3c-3 0-10 1-4 5c-3 1-12-2-6 2c3 2-14 0-6 6c-2 0-7 0-7 1s3 3 1 4c-6 3-11 0-7 4l-4 4c6-5 16-8 25-8c14 0 24 5 28 10c-5 0-9-5-8 1c-3-3-5-4-5-1c-1-2-4-1-5-3c0 6-3-1-5 1c2 6-9-5-6 2c-2 0-6-4-6 0c0 5-5 0-7 1c-4 2-4 4-9 4l1 1c22 0 48 11 45 32c-3-11-4 1-5-3s-1-7-4-3c-3-1-2-6-3-7s-1 1-3 2c-1-5-3-7-6-4c-1-1-4-8-4-3c0 1-1 2-2-1s-2-4-4 0c-1 2-4-11-6-1c-3-1-2-5-7-5c0 5-5 0-6 1s2 3 4 5c-5 2 0 3 3 4c6 2-8 2 6 7c-7 3 3 4 2 6c-5 0-1 3 1 4c-4 1-2 4 0 6c3 3-3 3-2 6c-3-1-7 0-6-3s0-5-2-3c-2-2 3-11-3-6c-1-1 2-8-3-6c0-2 2-6-1-5c0-3 0-4-4-3c0-5 2-5-2-6c3-1 4-6 1-8c4-6-5-10-8-6c-5-2-10 5-6 8c-3 3-1 5-1 7c1 8-1 3-2 3s-1 1-1 7c-7-1-2 6-4 8c-5-2-1 4-4 4v7c-4-4-4 5-5 7Z" /> -->

  <path fill="#fdf9ff" d="M529 432c17-2 33-5 51-1c-5-16-22-33-42-44c4 28-9 45-9 45Z" />
</svg>