<svg xmlns="http://www.w3.org/2000/svg" xmlns:xlink="http://www.w3.org/1999/xlink" width="1200" height="720">

  <path d="m0 0h1200v720H0Z" fill="#fff" />
  <path id="a" fill="#002465"
    d="M201 118c48 0 52-48 100-48s84 48 132 48s53-48 101-48s84 48 132 48s52-48 100-48s84 48 132 48s52-48 100-48s85 48 133 48c34 0 52-16 69-36v-60c-14 12-31 36-69 36c-48 0-85-48-133-48s-52 48-100 48s-84-48-132-48s-52 48-100 48s-84-48-132-48s-53 48-101 48s-84-48-132-48s-52 48-100 48s-84-48-132-48c-34 0-52 16-69 36v60c14-12 31-36 69-36c48 0 84 48 132 48Z" />
  <use xlink:href="#a" transform="translate(0 120)" />
  <use xlink:href="#a" transform="translate(0 240)" />
  <use xlink:href="#a" transform="translate(0 360)" />
  <use xlink:href="#a" transform="translate(0 480)" />
  <use xlink:href="#a" transform="translate(0 600)" />
  <path fill="#002465" d="m0 0h600v360H0Z" />
  <path
    d="m0 360v-34l154-96H0v-100h154L0 34V0h67l183 117V0h100v117L538 0h62v34l-154 96h154v100h-154l154 96v34h-67l-183-117v117h-100v-117l-188 117Z"
    fill="#fff" />
  <path
    d="m270 360h60v-150h270v-60h-270V0h-60v150H0v60h270v150Zm-270 0l212-130h38L38 360H0Zm174-230L0 22V0l212 130h-38Zm426 230l-212-130h38l174 108v22Zm-250-230L562 0h38l-212 130Z"
    fill="#b23c38" />
  <g>
    <path d="m884.68 210.25l-4.66 459.36c-.63 26.07 23.28 26.17 23.28 0l-4.66-459.36h-13.97Z" fill="#9a4918"
      stroke="#000" stroke-miterlimit="9" stroke-width="1.5" />
    <path
      d="m934.28 381.16l-15.17-16.64-3.74 16.81-6.59-24.35-6.16 12.26-1.09-25.92-6.16 12.26-1.09-25.92-6.16 12.26-3.51-30.48-6.16 12.26-3.51-30.48-6.16 12.26-3.51-30.48-1.76-15.24 3.08-6.13 7.92 2.98 12.75 12.09 25.5 24.18-15.83-5.96 25.5 24.18-15.83-5.96 25.5 24.18-15.83-5.96 23.09 19.62-15.83-5.96 23.09 19.62-15.83-5.96 17.59 21.2-18.25-10.51 4.17 19.79Z"
      fill="#276a1b" stroke="#000" stroke-width="1.5" />
    <path
      d="m970.22 451.3c-.55 0-1.07.12-1.55.34-.06-.78-.16-1.57-.31-2.4.39.15.81.24 1.25.25 2.03.02 3.7-1.64 3.72-3.72 0-.02 0-.05 0-.07.02-2.07-1.61-3.77-3.65-3.79-1.18-.01-2.22.55-2.91 1.43-.35-.96-.73-1.9-1.16-2.8.13.02.26.04.39.04 2.04.02 3.7-1.64 3.72-3.72v-.07c.02-2.07-1.61-3.77-3.65-3.79-1.64-.02-3.03 1.07-3.52 2.58-.6-.77-1.25-1.51-1.94-2.23 1.38-.53 2.37-1.87 2.39-3.47v-.07c.02-2.07-1.61-3.77-3.65-3.79-1.91-.02-3.47 1.45-3.68 3.34-.76-.47-1.54-.9-2.33-1.28.75-.68 1.24-1.66 1.25-2.77v-.07c.02-2.07-1.61-3.77-3.65-3.79s-3.7 1.64-3.72 3.72c0 .02 0 .05 0 .07 0 .23.02.45.06.67-.34-.09-.68-.18-1.01-.25-.7-.16-1.41-.3-2.13-.43.51-.64.84-1.44.85-2.33 0-.02 0-.05 0-.07.02-2.07-1.61-3.77-3.65-3.79s-3.7 1.64-3.72 3.72c0 .02 0 .05 0 .07 0 .64.16 1.24.43 1.77-1.06-.01-2.12.04-3.18.16.17-.43.27-.89.28-1.37v-.07c.02-2.07-1.61-3.77-3.65-3.79-2.03-.02-3.7 1.64-3.72 3.72 0 .02 0 .05 0 .07-.01 1.07.42 2.03 1.12 2.72-1.14.32-2.22.66-3.27 1.01.09-.32.16-.66.16-1.01v-.07c.02-2.07-1.61-3.77-3.65-3.79-2.03-.02-3.7 1.64-3.72 3.72 0 .02 0 .05 0 .07-.01 1.28.61 2.41 1.56 3.1-1.01.36-2.05.73-3.14 1.08.19-.45.3-.94.31-1.46 0-.02 0-.05 0-.07.02-2.07-1.61-3.77-3.65-3.79-2.03-.02-3.7 1.64-3.72 3.72 0 .02 0 .05 0 .07-.01 1.24.57 2.34 1.48 3.03-1.04.2-2.08.34-3.2.46.27-.52.44-1.1.45-1.73 0-.02 0-.05 0-.07.02-2.07-1.61-3.77-3.65-3.79-2.03-.02-3.7 1.64-3.72 3.72v.07c0 .6.14 1.16.38 1.67-.5-.08-1.02-.16-1.55-.25-.33-.19-.73-.3-1.16-.3h0c-.1 0-.2.01-.31.03-.16-.03-.32-.06-.48-.1 1.82-1.49 3.1-3.6 3.54-6.01h.72v-4.34h-.82c-.88-3.8-3.89-6.76-7.69-7.59v-.2h6.84c-1-1.27-2.2-2.21-3.17-3.51-1.02-1.36-1.79-3.07-2.19-4.8 1.77.44 3.48 1.22 4.83 2.24 1.29.97 2.23 2.17 3.5 3.17v-16.27c-1.27 1-2.21 2.2-3.5 3.17-1.35 1.02-3.06 1.8-4.83 2.24.4-1.73 1.18-3.45 2.19-4.8.97-1.29 2.16-2.24 3.17-3.51h-17.98c1 1.27 2.2 2.21 3.17 3.51 1.02 1.36 1.79 3.07 2.19 4.8-1.77-.44-3.48-1.22-4.83-2.24-1.29-.97-2.23-2.17-3.5-3.17v16.27c1.27-1 2.21-2.2 3.5-3.17 1.35-1.02 3.06-1.8 4.83-2.24-.4 1.73-1.18 3.45-2.19 4.8-.97 1.29-2.16 2.24-3.17 3.51h6.83v.19c-3.81.83-6.81 3.81-7.69 7.6h-.8v4.34h.7c.44 2.41 1.72 4.52 3.53 6.02-.15.03-.31.06-.46.09-.08 0-.16-.02-.24-.02-.02 0-.04 0-.07 0h0c-.43 0-.83.11-1.17.3-.53.09-1.05.18-1.54.25.24-.51.39-1.07.38-1.67v-.07c-.02-2.07-1.68-3.74-3.72-3.72-2.04.02-3.67 1.72-3.65 3.79 0 .02 0 .05 0 .07 0 .63.18 1.21.45 1.73-1.12-.11-2.16-.26-3.2-.46.9-.69 1.49-1.79 1.48-3.03 0-.02 0-.05 0-.07-.02-2.07-1.68-3.74-3.72-3.72-2.03.02-3.67 1.72-3.65 3.79v.07c0 .52.11 1.02.31 1.47-1.09-.36-2.13-.72-3.14-1.08.95-.69 1.57-1.82 1.56-3.1v-.07c-.02-2.07-1.68-3.74-3.72-3.72-2.04.02-3.67 1.72-3.65 3.79 0 .02 0 .05 0 .07 0 .35.07.69.16 1.01-1.05-.35-2.13-.69-3.27-1.01.69-.69 1.13-1.65 1.12-2.72 0-.02 0-.05 0-.07-.02-2.07-1.68-3.74-3.72-3.72-2.03.02-3.67 1.72-3.65 3.79v.07c0 .49.11.95.28 1.37-1.06-.12-2.12-.17-3.18-.16.27-.53.44-1.13.44-1.77v-.07c-.02-2.07-1.68-3.74-3.72-3.72-2.03.02-3.67 1.72-3.65 3.79 0 .02 0 .05 0 .07 0 .89.33 1.69.85 2.33-.71.13-1.42.27-2.13.43-.34.07-.68.17-1.01.25.04-.22.06-.44.06-.67 0-.02 0-.05 0-.07-.02-2.07-1.68-3.74-3.72-3.72s-3.67 1.72-3.65 3.79v.07c.01 1.11.5 2.09 1.25 2.77-.79.38-1.56.82-2.33 1.28-.21-1.89-1.77-3.36-3.68-3.34-2.03.02-3.67 1.72-3.65 3.79v.07c.02 1.59 1.01 2.94 2.39 3.47-.69.72-1.34 1.46-1.94 2.23-.49-1.51-1.88-2.6-3.52-2.58-2.04.02-3.67 1.72-3.65 3.79 0 .02 0 .05 0 .07.02 2.07 1.68 3.74 3.72 3.72.13 0 .26-.03.39-.04-.43.9-.81 1.83-1.16 2.8-.68-.87-1.73-1.44-2.91-1.43-2.03.02-3.67 1.72-3.65 3.79 0 .02 0 .05 0 .07.02 2.07 1.68 3.74 3.72 3.72.44 0 .86-.1 1.25-.25-.15.83-.24 1.62-.31 2.4-.47-.22-.99-.35-1.55-.34-2.03.02-3.67 1.72-3.65 3.79 0 .02 0 .05 0 .07.02 2.07 1.68 3.74 3.72 3.72.62 0 1.2-.18 1.71-.47.01.11.02.21.03.32.06.49.14.98.23 1.46-.09 0-.18-.03-.27-.03-2.03.02-3.67 1.72-3.65 3.79 0 .02 0 .05 0 .07.02 2.07 1.68 3.74 3.72 3.72.89 0 1.69-.35 2.33-.89.37.85.73 1.61 1.05 2.25-.43.13-.86.27-1.27.42.38.66.74 1.32 1.11 1.98l.03.07s0 0 0 0c2.48 4.47 4.64 8.83 6.59 13.12-.79.76-1.29 1.83-1.28 3.03v.08c.02 2.28 1.85 4.11 4.09 4.09.13 0 .25-.03.38-.04 1.6 4.09 3.07 8.26 4.49 12.36-.77.09-1.53.19-2.28.29-1.02 1.22-1.1 2.33.75 3.22.39-.05.79-.1 1.18-.15l.38 1.76-.54-.19-.06 2.42-1.49 3.56 2.5 3.08 1.08 2.59.84-.71.54 2.49c-.29.04-.59.08-.88.12-.95 1.22-1.02 2.33.69 3.22 0 0-.01 0-.02 0l-1.64.29c-4.07.79-4.64 5.66-2.5 8.3.76.96 2.19 1.88 4.17 2.74 0 0 0 0 0 .01h.03c9.36 4.08 31.22 6.97 56.29 6.98.06 0 .12 0 .17 0 .06 0 .12 0 .17 0 25.03-.01 46.89-2.9 56.25-6.98h.03s0 0 0-.01c1.98-.87 3.41-1.79 4.18-2.74 2.14-2.65 1.57-7.52-2.5-8.3l-1.64-.29c1.78-.98 1.59-2.08.62-3.22 0 0-.3-.04-.84-.11l.53-2.54.89.75 1.08-2.59 2.5-3.08-1.49-3.56-.06-2.42-.54.18.39-1.75c.77.09 1.2.14 1.2.14 1.92-.98 1.71-2.08.67-3.22 0 0-.94-.12-2.54-.3 1.49-4.14 3.03-8.24 4.72-12.36.15.02.3.05.46.05 2.24.02 4.07-1.81 4.09-4.09v-.08c.01-1.2-.49-2.27-1.28-3.03 1.87-4.11 3.93-8.27 6.28-12.55.1-.19.21-.38.31-.56 0 0 0 0 0 0l.04-.08c.36-.66.73-1.31 1.1-1.97-.41-.15-.84-.28-1.27-.42.32-.65.68-1.41 1.05-2.26.63.54 1.44.89 2.33.9 2.03.02 3.7-1.64 3.72-3.72 0-.02 0-.05 0-.07.02-2.07-1.61-3.77-3.65-3.79-.09 0-.18.02-.28.03.09-.49.18-.97.23-1.46.01-.11.02-.21.03-.32.51.28 1.09.46 1.71.47 2.03.02 3.7-1.64 3.72-3.72 0-.02 0-.05 0-.07.02-2.07-1.61-3.77-3.65-3.79Z"
      stroke="#000" stroke-miterlimit="9" stroke-width="1.45" />
    <path d="m934.28 381.16l-67.7-127.54m46.17 39.25l-36.5-21.03-7.49 33.63" fill="none" stroke="#000"
      stroke-width=".8" />
    <path d="m922.42 311.09l-36.5-21.03-7.49 33.63" fill="none" stroke="#000" stroke-width=".8" />
    <path d="m932.09 329.31l-36.5-21.03-7.49 33.63" fill="none" stroke="#000" stroke-width=".8" />
    <path d="m939.35 342.97l-34.08-16.47-9.9 29.07" fill="none" stroke="#000" stroke-width=".8" />
    <path d="m946.6 356.64l-34.08-16.47-9.9 29.07" fill="none" stroke="#000" stroke-width=".8" />
    <path d="m948.35 371.88l-31-22.6-1.99 32.05" fill="none" stroke="#000" stroke-width=".8" />
    <path
      d="m756.6 163.77l24.76 9.44-7.2-18.73 21.65 21.33-2.04-15.31 17.51 25.56-2.04-15.31 17.51 25.56-2.04-15.31 22.67 28.98-2.04-15.31 22.67 28.98-2.04-15.31 22.67 28.98 11.34 14.49 1.02 7.65-9.29.81-19.61-6.02-39.21-12.05 18.58-1.63-39.21-12.05 18.58-1.63-39.21-12.05 18.58-1.63-34.05-8.63 18.58-1.63-34.05-8.63 18.58-1.63-29.92-12.86 23.74 1.79-16.49-17.91Z"
      fill="#276a1b" stroke="#000" stroke-width="1.5" />
    <path d="m756.6 163.77l144.39 95.74m-68.11-17.26l47.48 3.58-14.4-37.45" fill="none" stroke="#000"
      stroke-width=".8" />
    <path d="m812.25 228.57l47.48 3.58-14.4-37.45" fill="none" stroke="#000" stroke-width=".8" />
    <path d="m791.63 214.89l47.48 3.58-14.4-37.45" fill="none" stroke="#000" stroke-width=".8" />
    <path d="m776.16 204.63l42.32.16-9.24-34.03" fill="none" stroke="#000" stroke-width=".8" />
    <path d="m760.69 194.38l42.32.16-9.24-34.03" fill="none" stroke="#000" stroke-width=".8" />
    <path d="m749.35 179.89l43.34 7.81-18.53-33.22" fill="none" stroke="#000" stroke-width=".8" />
    <path
      d="m1044.42 195.74l-20.63 15.09 22.76 2.53-31.75 7.53 16.94 5.05-34.4 2.49 16.94 5.05-34.4 2.49 16.94 5.05-40.22 5.01 16.94 5.05-40.22 5.01 16.94 5.05-40.22 5.01-20.11 2.5-8.47-2.52 3.17-7.55 14.81-12.57 29.62-25.15-6.34 15.1 29.62-25.15-6.34 15.1 29.62-25.15-6.34 15.1 23.8-22.64-6.34 15.1 23.8-22.64-6.34 15.1 26.45-17.6-12.16 17.61 25.93-5.02Z"
      fill="#276a1b" stroke="#000" stroke-width="1.5" />
    <path d="m1044.42 195.74l-162.96 70.37m47.6-45.27l-24.32 35.22 45.52 5.06" fill="none" stroke="#000"
      stroke-width=".8" />
    <path d="m952.34 210.78l-24.32 35.22 45.52 5.06" fill="none" stroke="#000" stroke-width=".8" />
    <path d="m975.61 200.73l-24.32 35.22 45.52 5.06" fill="none" stroke="#000" stroke-width=".8" />
    <path d="m993.07 193.19l-18.5 32.71 39.7 7.58" fill="none" stroke="#000" stroke-width=".8" />
    <path d="m1010.53 185.65l-18.5 32.71 39.7 7.58" fill="none" stroke="#000" stroke-width=".8" />
    <path d="m1030.64 183.15l-26.97 30.19 42.87.03" fill="none" stroke="#000" stroke-width=".8" />
    <path
      d="m1041.06 348.13l-25.67-7.44 9.18 18.07-23.85-19.52 3.68 15.08-20.18-24.07 3.68 15.08-20.18-24.07 3.68 15.08-25.68-27.06 3.68 15.08-25.68-27.06 3.68 15.08-25.68-27.06-12.84-13.53-1.84-7.54 9.17-1.55 20.17 4.45 40.34 8.89-18.33 3.09 40.34 8.89-18.33 3.09 40.34 8.89-18.33 3.09 34.83 5.89-18.33 3.09 34.83 5.89-18.33 3.09 31.17 10.44-23.83.1 18.34 16.53Z"
      fill="#276a1b" stroke="#000" stroke-width="1.5" />
    <path d="m1041.06 348.13l-154.05-83.89m69.67 11.79l-47.66.2 18.36 36.15" fill="none" stroke="#000"
      stroke-width=".8" />
    <path d="m978.69 288.01l-47.66.2 18.36 36.15" fill="none" stroke="#000" stroke-width=".8" />
    <path d="m1000.7 299.99l-47.66.2 18.36 36.15" fill="none" stroke="#000" stroke-width=".8" />
    <path d="m1017.2 308.98l-42.16 3.19 12.86 33.15" fill="none" stroke="#000" stroke-width=".8" />
    <path d="m1033.71 317.97l-42.16 3.19 12.86 33.15" fill="none" stroke="#000" stroke-width=".8" />
    <path d="m1046.55 331.5l-44-4.35 22.02 31.61" fill="none" stroke="#000" stroke-width=".8" />
    <path
      d="m773.6 357.04l12.88-18.01-19.65 2.83 24.28-13.78-15.52-.7 27.91-9.9-15.52-.7 27.91-9.9-15.52-.7 32.04-13.43-15.52-.7 32.04-13.43-15.52-.7 32.04-13.43 16.02-6.72 7.76.35-.5 7.41-8.76 14.48-17.51 28.96 1-14.83-17.51 28.96 1-14.83-17.51 28.96 1-14.83-13.38 25.42 1-14.83-13.38 25.42 1-14.83-17.01 21.54 5.12-18.36-20.15 10.25Z"
      fill="#276a1b" stroke="#000" stroke-width="1.5" />
    <path d="m773.6 357.04l115.61-98.9m-26.77 50.85l10.25-36.72-39.3 5.67" fill="none" stroke="#000"
      stroke-width=".8" />
    <path d="m845.93 323.11l10.25-36.72-39.3 5.67" fill="none" stroke="#000" stroke-width=".8" />
    <path d="m829.42 337.24l10.25-36.72-39.3 5.67" fill="none" stroke="#000" stroke-width=".8" />
    <path d="m817.03 347.84l6.12-33.19-35.17 2.14" fill="none" stroke="#000" stroke-width=".8" />
    <path d="m804.64 358.44l6.12-33.19-35.17 2.14" fill="none" stroke="#000" stroke-width=".8" />
    <path d="m788.63 365.15l13.88-32.84-35.67 9.55" fill="none" stroke="#000" stroke-width=".8" />
    <path
      d="m1007.25 119.63l-24.91 16.68-4.09-17.88-14.7 24.72-2.64-11.9-12.01 25.36-1.69-11.67-9.32 25.99-5.33-12.53-9.34 31.62-5.33-12.53-9.34 31.62-5.33-12.53-9.34 31.62-4.67 15.81 2.66 6.27 10-3.28 17.34-12.82 34.67-25.65-20 6.56 34.67-25.65-20 6.56 34.67-25.65-20 6.56 34.64-20.02-23.64 5.7 37.33-19.38-22.69 5.92 27.36-21.73-23.67 11.33 14.67-19.09Z"
      fill="#276a1b" stroke="#000" stroke-width="1.5" />
    <path d="m997.56 128.62l-35.99 30.98-69.69 90.68" fill="none" stroke="#000" stroke-width=".8" />
    <path d="m946.28 212.37l-39.72 18.82-3.35-28.98" fill="none" stroke="#000" stroke-width=".8" />
    <path d="m961.56 193.42l-40.33 18.67-3.35-28.98" fill="none" stroke="#000" stroke-width=".8" />
    <path d="m975.92 174.26l-40.03 18.75-3.05-28.91" fill="none" stroke="#000" stroke-width=".8" />
    <path d="m987.84 160.15l-37.27 13.76-4.32-23.57" fill="none" stroke="#000" stroke-width=".8" />
    <path d="m1001.57 146.48l-40 13.11-1.56-22.92" fill="none" stroke="#000" stroke-width=".8" />
    <path d="m1006.89 133.55l-36.98 18.92 7.14-28.7" fill="none" stroke="#000" stroke-width=".8" />
    <path
      d="m872.25 88.38l11.12 25.39 14.34-13.42-2.47 27.68 9.47-8.97-5.15 27.02 8.53-9.2-7.84 26.35 12.16-8.3-11.23 31.17 12.16-8.3-11.23 31.17 12.16-8.3-11.23 31.17-5.62 15.58-6.08 4.15-6.54-7.28-7-18.71-14-37.42 13.08 14.56-14-37.42 13.08 14.56-14-37.42 13.08 14.56-17.4-32.61 16.71 15.46-20.08-33.27 15.76 15.22-10.15-30.81 13.31 20.28-.92-22.86Z"
      fill="#276a1b" stroke="#000" stroke-width="1.5" />
    <path d="m875.05 100.39l11.89 42.56 4.39 108.61" fill="none" stroke="#000" stroke-width=".8" />
    <path d="m867.95 194.83l22.46 33.86 20.45-23.22" fill="none" stroke="#000" stroke-width=".8" />
    <path d="m866.42 171.82l23.07 34.01 20.45-23.22" fill="none" stroke="#000" stroke-width=".8" />
    <path d="m865.8 149.03l22.76 33.94 20.15-23.3" fill="none" stroke="#000" stroke-width=".8" />
    <path d="m864.2 131.66l23.44 28.45 18-18.17" fill="none" stroke="#000" stroke-width=".8" />
    <path d="m860.79 113.83l26.16 29.12 15.25-18.86" fill="none" stroke="#000" stroke-width=".8" />
    <path d="m864.1 100.42l20.06 32.72 11.34-27.69" fill="none" stroke="#000" stroke-width=".8" />
    <path
      d="m722.97 275.26l32.53-22.53-16.29-8.4 28.5 4.87-9.79-12.9 27.69 10.35-9.79-12.9 27.69 10.35-9.79-12.9 33.39 11.32-9.79-12.9 32.58 16.8-9.79-12.9 33.39 11.32 16.29 8.4 4.89 6.45-6.51 4.51-17.91 2.56-28.89 11.92 5.29-10.33-35.81 5.12 13.01-9.01-36.62 10.6 13.01-9.01-30.92 11.57 13.82-14.49-31.72 17.05 13.82-14.49-26.02 18.02 14.63-19.97-30.92 11.57Z"
      fill="#276a1b" stroke="#000" stroke-width="1.5" />
    <path d="m733.27 269.21l33.63-14.53 17.91-2.56 14.95-.26 25.76 1.59 23.22 1.01 45.98 5.19" fill="none" stroke="#000"
      stroke-width=".8" />
    <path d="m845.89 273.79l25.7-15.79-26.19-20.56" fill="none" stroke="#000" stroke-width=".8" />
    <path d="m817.02 271.43l31.71-16.96-26.19-20.56" fill="none" stroke="#000" stroke-width=".8" />
    <path d="m796.47 270.96l29.04-17.51-26.41-19.08m-41.13 41.24l26.83-23.5-21.62-11.88" fill="none" stroke="#000"
      stroke-width=".8" />
    <path d="m746.06 277.21l20.84-22.53-16.62-6.17m25.6 24.56l26.49-21.19-21.25-14.39" fill="none" stroke="#000"
      stroke-width=".8" />
    <path
      d="m896.42 469.03h64s4.21-8.9 4.69-12.84c.57-4.73.55-6.25-.62-10.62-1.22-4.52-2.99-7.62-6.03-10.64-2.87-2.85-6.91-4.61-11.05-5.57-3.69-.86-7.87-1.23-11.1-.56-6.15 1.27-10.15 3.29-16.83 5.4-4.82 1.53-8.51 2.05-13.39 2.32-2.98.17-6.43-.57-9.66-1.26v33.77Zm-9.54 0h-64s-4.21-8.9-4.68-12.84c-.57-4.73-.55-6.25.63-10.62 1.22-4.52 2.98-7.62 6.03-10.64 2.87-2.85 6.91-4.61 11.05-5.57 3.69-.86 7.86-1.23 11.1-.56 6.15 1.27 10.15 3.29 16.83 5.4 4.82 1.53 8.51 2.05 13.39 2.32 2.98.17 6.43-.57 9.66-1.26v33.77Z"
      fill="#fff" isolation="isolate" opacity="1" />
    <path
      d="m882.94 523.05c-9.07.11-18.14.29-27.14.86-6.64.5-14.21 1.07-20.67 2l-1.64.29c-4.07.79-4.64 5.66-2.5 8.3 4.36 5.48 30.17 9.74 60.67 9.74s56.27-4.26 60.63-9.74c2.14-2.65 1.57-7.52-2.5-8.3l-1.64-.29c-6.43-.93-14.03-1.5-20.67-2-9-.57-18.07-.75-27.14-.86h-17.39Z"
      fill="#fff" />
    <path
      d="m897.69 528.28c-2.11-.34-4.21-.79-6.28-1.32-1.65-.45-3.28-.95-4.89-1.5.46.75 1.14 1.5 2.78 2.08-1.32-.04-3.07.46-3.71.75.64.25 2.46.75 3.78.72-1.61.57-2.21 1.32-2.57 2.08 1.47-.52 2.96-.99 4.46-1.4 2.12-.57 4.26-1.03 6.43-1.4Zm-23.71.11c-2.11-.27-4.21-.65-6.28-1.15-1.66-.38-3.31-.83-4.93-1.36.43.75 1.14 1.47 2.82 2-1.36 0-3.07.57-3.68.86.64.25 2.46.68 3.79.61-1.57.61-2.18 1.4-2.54 2.15 1.39-.54 2.86-1.07 4.43-1.54 2-.61 4.11-1.11 6.39-1.57Zm-23.53 1.15c-2.14-.14-4.27-.38-6.39-.72-1.75-.29-3.43-.61-5-1 .5.72 1.25 1.4 2.96 1.79-1.32.11-3 .79-3.61 1.11.68.18 2.5.5 3.82.36-1.54.72-2.07 1.54-2.36 2.33 1.36-.64 2.79-1.29 4.32-1.86 2.04-.8 4.13-1.46 6.25-2Zm70.95-.79c-2.25.32-4.36.68-6.32 1.15-1.67.37-3.31.84-4.93 1.4.46-.75 1.14-1.5 2.82-2-1.32-.04-3.07-.57-3.68-.86.64-.25 2.46-.68 3.78-.64-1.57-.61-2.18-1.36-2.5-2.15 1.39.57 2.86 1.07 4.43 1.57 1.96.57 4.07 1.11 6.39 1.54Zm23.46 1.97c-2.25.14-4.36.36-6.36.68-1.69.28-3.37.63-5.04 1.04.54-.72 1.29-1.4 3-1.79-1.36-.11-3.03-.79-3.64-1.11.68-.22 2.5-.54 3.86-.36-1.54-.72-2.11-1.54-2.39-2.33 1.42.67 2.86 1.29 4.32 1.86 2.05.76 4.14 1.43 6.25 2Z" />
    <path
      d="m891.65 533.43c-36.35 0-58.38 2.11-56.56 3.72 12.75 5.33 37.85 7.05 56.56 7.09 18.67-.04 43.78-1.75 56.52-7.09 1.82-1.61-20.21-3.72-56.52-3.72Z"
      fill="#cbcbcb" />
    <path
      d="m948.1 537.26c.32-.86-1.11-1.11-2.61-1.29-5.82-.75-12.28-1.25-18.03-1.68-9-.57-18.07-.75-27.14-.86h-17.39c-9.07.11-18.14.29-27.14.86-5.75.43-12.21.93-18.03 1.68-1.5.18-2.93.43-2.61 1.29"
      fill="none" stroke="#000" stroke-width=".77" />
    <path
      d="m882.94 523.05c-9.07.11-18.14.29-27.14.86-6.64.5-14.21 1.07-20.67 2l-1.64.29c-4.07.79-4.64 5.66-2.5 8.3 4.36 5.48 30.17 9.74 60.67 9.74s56.27-4.26 60.63-9.74c2.14-2.65 1.57-7.52-2.5-8.3l-1.64-.29c-6.43-.93-14.03-1.5-20.67-2-9-.57-18.07-.75-27.14-.86h-17.39Z"
      fill="none" stroke="#000" stroke-width=".77" />
    <path
      d="m940.65 515.03l4.39-12.86 1.77-5.32 4.4-2.74 4.45-10.14 2.1-2.65.32-9.35s-3.08-6.63-7.84-9.01c-6.81-3.41-16.05-2.94-16.05-2.94 0 0-2.13-5.66-6.05-7.86-3.92-2.2-8.26-2.73-12.83-2.73s-12.75 4.09-17.18 5.29c-2.3.63-7.5 2.73-7.5 2.73 0 0-5.2-2.11-7.5-2.73-4.43-1.2-12.62-5.29-17.18-5.29s-8.77.45-12.83 2.73c-3.77 2.12-8.95 7.86-8.95 7.86 0 0-5.93-.81-10.1 1.71-5.2 3.14-8.86 9.73-8.86 9.73l.36 10.21.82 3.9 3.36 3.87 4.38 7.82 3.14 7.71 3.36 10.06h100.04Z"
      fill="#b23c38" fill-rule="evenodd" />
    <path
      d="m940.65 515.03l4.39-12.86 1.77-5.32 4.4-2.74 4.45-10.14 2.1-2.65.32-9.35s-3.08-6.63-7.84-9.01c-6.81-3.41-16.05-2.94-16.05-2.94 0 0-2.13-5.66-6.05-7.86-3.92-2.2-8.26-2.73-12.83-2.73s-12.75 4.09-17.18 5.29c-2.3.63-7.5 2.73-7.5 2.73 0 0-5.2-2.11-7.5-2.73-4.43-1.2-12.62-5.29-17.18-5.29s-8.77.45-12.83 2.73c-3.77 2.12-8.95 7.86-8.95 7.86 0 0-5.93-.81-10.1 1.71-5.2 3.14-8.86 9.73-8.86 9.73l.36 10.21.82 3.9 3.36 3.87 4.38 7.82 3.14 7.71 3.36 10.06h100.04Z"
      fill="none" stroke="#000" stroke-width=".77" />
    <path
      d="m946.29 425.67c4.76 1.06 9.81 3.16 13.79 7.11 3.69 3.66 6.14 7.98 7.55 13.23 1.32 4.91 1.36 7.83.78 12.72-.76 6.29-4.62 12.61-4.62 12.61l-6.66-1.19s4.01-8.47 4.46-12.23c.54-4.51.53-5.96-.59-10.11-1.16-4.3-2.84-7.26-5.74-10.14-2.73-2.71-6.58-4.39-10.52-5.31-3.52-.82-7.49-1.17-10.57-.53-5.86 1.21-9.66 3.13-16.03 5.14-4.59 1.45-8.11 1.95-12.75 2.22-2.84.16-6.13-.55-9.2-1.21-3.08-.66-5.66-1.34-5.66-1.34l1.73-6.66s2.46.65 5.36 1.27c2.9.62 6.52 1.12 7.37 1.07 4.38-.25 6.95-.62 11.07-1.92 5.89-1.87 10.07-3.93 16.73-5.32 4.49-.94 9.09-.4 13.51.58Z"
      fill="#fad044" />
    <path
      d="m946.29 425.67c4.76 1.06 9.81 3.16 13.79 7.11 3.69 3.66 6.14 7.98 7.55 13.23 1.32 4.91 1.36 7.83.78 12.72-.76 6.29-4.62 12.61-4.62 12.61l-6.66-1.19s4.01-8.47 4.46-12.23c.54-4.51.53-5.96-.59-10.11-1.16-4.3-2.84-7.26-5.74-10.14-2.73-2.71-6.58-4.39-10.52-5.31-3.52-.82-7.49-1.17-10.57-.53-5.86 1.21-9.66 3.13-16.03 5.14-4.59 1.45-8.11 1.95-12.75 2.22-2.84.16-6.13-.55-9.2-1.21-3.08-.66-5.66-1.34-5.66-1.34l1.73-6.66s2.46.65 5.36 1.27c2.9.62 6.52 1.12 7.37 1.07 4.38-.25 6.95-.62 11.07-1.92 5.89-1.87 10.07-3.93 16.73-5.32 4.49-.94 9.09-.4 13.51.58Z"
      fill="none" stroke="#000" stroke-width=".77" />
    <path
      d="m964.73 463.96c-.02 2.07 1.61 3.77 3.65 3.79 2.03.02 3.7-1.64 3.72-3.72 0-.02 0-.05 0-.07.02-2.07-1.61-3.77-3.65-3.79-2.03-.02-3.7 1.64-3.72 3.72 0 .02 0 .05 0 .07Z"
      fill="#fff" stroke="#000" stroke-width=".77" />
    <path
      d="m966.5 455.09c-.02 2.07 1.61 3.77 3.65 3.79 2.03.02 3.7-1.64 3.72-3.72 0-.02 0-.05 0-.07.02-2.07-1.61-3.77-3.65-3.79-2.03-.02-3.7 1.64-3.72 3.72 0 .02 0 .05 0 .07Z"
      fill="#fff" stroke="#000" stroke-width=".77" />
    <path
      d="m965.97 445.7c-.02 2.07 1.61 3.77 3.65 3.79 2.03.02 3.7-1.64 3.72-3.72 0-.02 0-.05 0-.07.02-2.07-1.61-3.77-3.65-3.79-2.03-.02-3.7 1.64-3.72 3.72 0 .02 0 .05 0 .07Z"
      fill="#fff" stroke="#000" stroke-width=".77" />
    <path
      d="m962.37 436.8c-.02 2.07 1.61 3.77 3.65 3.79 2.03.02 3.7-1.64 3.72-3.72 0-.02 0-.05 0-.07.02-2.07-1.61-3.77-3.65-3.79-2.03-.02-3.7 1.64-3.72 3.72 0 .02 0 .05 0 .07Z"
      fill="#fff" stroke="#000" stroke-width=".77" />
    <path
      d="m955.65 429.82c-.02 2.07 1.61 3.77 3.65 3.79 2.03.02 3.7-1.64 3.72-3.72 0-.02 0-.05 0-.07.02-2.07-1.61-3.77-3.65-3.79-2.03-.02-3.7 1.64-3.72 3.72 0 .02 0 .05 0 .07Z"
      fill="#fff" stroke="#000" stroke-width=".77" />
    <path
      d="m947.24 425.25c-.02 2.07 1.61 3.77 3.65 3.79 2.03.02 3.7-1.64 3.72-3.72 0-.02 0-.05 0-.07.02-2.07-1.61-3.77-3.65-3.79-2.03-.02-3.7 1.64-3.72 3.72 0 .02 0 .05 0 .07Z"
      fill="#fff" stroke="#000" stroke-width=".77" />
    <path
      d="m937.64 422.84c-.02 2.07 1.61 3.77 3.65 3.79 2.03.02 3.7-1.64 3.72-3.72 0-.02 0-.05 0-.07.02-2.07-1.61-3.77-3.65-3.79-2.03-.02-3.7 1.64-3.72 3.72 0 .02 0 .05 0 .07Z"
      fill="#fff" stroke="#000" stroke-width=".77" />
    <path
      d="m927.8 423.32c-.02 2.07 1.61 3.77 3.65 3.79 2.03.02 3.7-1.64 3.72-3.72 0-.02 0-.05 0-.07.02-2.07-1.61-3.77-3.65-3.79-2.03-.02-3.7 1.64-3.72 3.72 0 .02 0 .05 0 .07Z"
      fill="#fff" stroke="#000" stroke-width=".77" />
    <path
      d="m901.16 430.3c-.02 2.07 1.61 3.77 3.65 3.79 2.03.02 3.7-1.64 3.72-3.72 0-.02 0-.05 0-.07.02-2.07-1.61-3.77-3.65-3.79-2.03-.02-3.7 1.64-3.72 3.72 0 .02 0 .05 0 .07Z"
      fill="#fff" stroke="#000" stroke-width=".77" />
    <path
      d="m918.44 425.97c-.02 2.07 1.61 3.77 3.65 3.79 2.03.02 3.7-1.64 3.72-3.72 0-.02 0-.05 0-.07.02-2.07-1.61-3.77-3.65-3.79-2.03-.02-3.7 1.64-3.72 3.72 0 .02 0 .05 0 .07Z"
      fill="#fff" stroke="#000" stroke-width=".77" />
    <path
      d="m909.8 428.62c-.02 2.07 1.61 3.77 3.65 3.79 2.03.02 3.7-1.64 3.72-3.72 0-.02 0-.05 0-.07.02-2.07-1.61-3.77-3.65-3.79-2.03-.02-3.7 1.64-3.72 3.72 0 .02 0 .05 0 .07Z"
      fill="#fff" stroke="#000" stroke-width=".77" />
    <path
      d="m836.99 425.67c-4.76 1.06-9.81 3.16-13.79 7.11-3.69 3.66-6.14 7.98-7.55 13.23-1.32 4.91-1.36 7.83-.78 12.72.76 6.29 4.62 12.61 4.62 12.61l6.66-1.19s-4.01-8.47-4.46-12.23c-.54-4.51-.53-5.96.59-10.11 1.16-4.3 2.84-7.26 5.74-10.14 2.73-2.71 6.58-4.39 10.52-5.31 3.52-.82 7.49-1.17 10.57-.53 5.86 1.21 9.66 3.13 16.03 5.14 4.59 1.45 8.11 1.95 12.75 2.22 2.84.16 6.13-.55 9.2-1.21 3.08-.66 5.66-1.34 5.66-1.34l-1.73-6.66s-2.46.65-5.36 1.27c-2.9.62-6.52 1.12-7.37 1.07-4.38-.25-6.95-.62-11.07-1.92-5.89-1.87-10.07-3.93-16.73-5.32-4.49-.94-9.09-.4-13.51.58Z"
      fill="#fad044" />
    <path
      d="m836.99 425.67c-4.76 1.06-9.81 3.16-13.79 7.11-3.69 3.66-6.14 7.98-7.55 13.23-1.32 4.91-1.36 7.83-.78 12.72.76 6.29 4.62 12.61 4.62 12.61l6.66-1.19s-4.01-8.47-4.46-12.23c-.54-4.51-.53-5.96.59-10.11 1.16-4.3 2.84-7.26 5.74-10.14 2.73-2.71 6.58-4.39 10.52-5.31 3.52-.82 7.49-1.17 10.57-.53 5.86 1.21 9.66 3.13 16.03 5.14 4.59 1.45 8.11 1.95 12.75 2.22 2.84.16 6.13-.55 9.2-1.21 3.08-.66 5.66-1.34 5.66-1.34l-1.73-6.66s-2.46.65-5.36 1.27c-2.9.62-6.52 1.12-7.37 1.07-4.38-.25-6.95-.62-11.07-1.92-5.89-1.87-10.07-3.93-16.73-5.32-4.49-.94-9.09-.4-13.51.58Z"
      fill="none" stroke="#000" stroke-width=".77" />
    <path
      d="m818.55 463.96c.02 2.07-1.61 3.77-3.65 3.79-2.03.02-3.7-1.64-3.72-3.72 0-.02 0-.05 0-.07-.02-2.07 1.61-3.77 3.65-3.79 2.03-.02 3.7 1.64 3.72 3.72 0 .02 0 .05 0 .07Z"
      fill="#fff" stroke="#000" stroke-width=".77" />
    <path
      d="m816.78 455.09c.02 2.07-1.61 3.77-3.65 3.79-2.03.02-3.7-1.64-3.72-3.72 0-.02 0-.05 0-.07-.02-2.07 1.61-3.77 3.65-3.79 2.03-.02 3.7 1.64 3.72 3.72 0 .02 0 .05 0 .07Z"
      fill="#fff" stroke="#000" stroke-width=".77" />
    <path
      d="m817.31 445.7c.02 2.07-1.61 3.77-3.65 3.79-2.03.02-3.7-1.64-3.72-3.72 0-.02 0-.05 0-.07-.02-2.07 1.61-3.77 3.65-3.79 2.03-.02 3.7 1.64 3.72 3.72 0 .02 0 .05 0 .07Z"
      fill="#fff" stroke="#000" stroke-width=".77" />
    <path
      d="m820.91 436.8c.02 2.07-1.61 3.77-3.65 3.79-2.03.02-3.7-1.64-3.72-3.72 0-.02 0-.05 0-.07-.02-2.07 1.61-3.77 3.65-3.79 2.03-.02 3.7 1.64 3.72 3.72 0 .02 0 .05 0 .07Z"
      fill="#fff" stroke="#000" stroke-width=".77" />
    <path
      d="m827.63 429.82c.02 2.07-1.61 3.77-3.65 3.79-2.03.02-3.7-1.64-3.72-3.72 0-.02 0-.05 0-.07-.02-2.07 1.61-3.77 3.65-3.79 2.03-.02 3.7 1.64 3.72 3.72 0 .02 0 .05 0 .07Z"
      fill="#fff" stroke="#000" stroke-width=".77" />
    <path
      d="m836.04 425.25c.02 2.07-1.61 3.77-3.65 3.79-2.03.02-3.7-1.64-3.72-3.72 0-.02 0-.05 0-.07-.02-2.07 1.61-3.77 3.65-3.79 2.03-.02 3.7 1.64 3.72 3.72 0 .02 0 .05 0 .07Z"
      fill="#fff" stroke="#000" stroke-width=".77" />
    <path
      d="m845.64 422.84c.02 2.07-1.61 3.77-3.65 3.79-2.03.02-3.7-1.64-3.72-3.72 0-.02 0-.05 0-.07-.02-2.07 1.61-3.77 3.65-3.79 2.03-.02 3.7 1.64 3.72 3.72 0 .02 0 .05 0 .07Z"
      fill="#fff" stroke="#000" stroke-width=".77" />
    <path
      d="m855.48 423.32c.02 2.07-1.61 3.77-3.65 3.79-2.03.02-3.7-1.64-3.72-3.72 0-.02 0-.05 0-.07-.02-2.07 1.61-3.77 3.65-3.79 2.03-.02 3.7 1.64 3.72 3.72 0 .02 0 .05 0 .07Z"
      fill="#fff" stroke="#000" stroke-width=".77" />
    <path
      d="m882.12 430.3c.02 2.07-1.61 3.77-3.65 3.79-2.03.02-3.7-1.64-3.72-3.72 0-.02 0-.05 0-.07-.02-2.07 1.61-3.77 3.65-3.79 2.03-.02 3.7 1.64 3.72 3.72 0 .02 0 .05 0 .07Z"
      fill="#fff" stroke="#000" stroke-width=".77" />
    <path
      d="m864.84 425.97c.02 2.07-1.61 3.77-3.65 3.79-2.03.02-3.7-1.64-3.72-3.72 0-.02 0-.05 0-.07-.02-2.07 1.61-3.77 3.65-3.79 2.03-.02 3.7 1.64 3.72 3.72 0 .02 0 .05 0 .07Z"
      fill="#fff" stroke="#000" stroke-width=".77" />
    <path
      d="m873.48 428.62c.02 2.07-1.61 3.77-3.65 3.79-2.03.02-3.7-1.64-3.72-3.72 0-.02 0-.05 0-.07-.02-2.07 1.61-3.77 3.65-3.79 2.03-.02 3.7 1.64 3.72 3.72 0 .02 0 .05 0 .07Z"
      fill="#fff" stroke="#000" stroke-width=".77" />
    <path
      d="m882.65 413.22c1-1.27 2.2-2.21 3.17-3.51 1.02-1.36 1.79-3.07 2.19-4.8-1.77.44-3.48 1.22-4.83 2.24-1.29.97-2.23 2.17-3.5 3.17v-16.27c1.27 1 2.21 2.2 3.5 3.17 1.35 1.02 3.06 1.8 4.83 2.24-.4-1.73-1.18-3.45-2.19-4.8-.97-1.29-2.16-2.23-3.17-3.51h17.98c-1 1.27-2.2 2.21-3.17 3.51-1.02 1.36-1.79 3.07-2.19 4.8 1.77-.44 3.48-1.22 4.83-2.24 1.29-.97 2.23-2.17 3.5-3.17v16.27c-1.27-1-2.21-2.2-3.5-3.17-1.35-1.02-3.06-1.8-4.83-2.24.4 1.73 1.18 3.45 2.19 4.8.97 1.29 2.17 2.23 3.17 3.51h-17.98Z"
      fill="#fad044" stroke="#000" stroke-width=".77" />
    <path
      d="m896.08 402.19c.02 2.51-1.95 4.56-4.42 4.59-2.46.02-4.48-1.99-4.5-4.5 0-.03 0-.06 0-.09-.02-2.51 1.95-4.56 4.42-4.59 2.46-.02 4.48 1.99 4.5 4.5 0 .03 0 .06 0 .09Z"
      fill="#fff" stroke="#000" stroke-width=".77" />
    <path
      d="m901.75 423.41c.05 5.6-4.43 10.19-10.02 10.24-5.59.05-10.16-4.44-10.21-10.05 0-.06 0-.13 0-.19-.05-5.6 4.43-10.19 10.02-10.24 5.59-.05 10.16 4.44 10.21 10.05 0 .06 0 .13 0 .19Z"
      fill="#fad044" />
    <path
      d="m901.75 423.41c.05 5.6-4.43 10.19-10.02 10.24-5.59.05-10.16-4.44-10.21-10.05 0-.06 0-.13 0-.19-.05-5.6 4.43-10.19 10.02-10.24 5.59-.05 10.16 4.44 10.21 10.05 0 .06 0 .13 0 .19Z"
      fill="none" stroke="#000" stroke-width=".77" />
    <path d="m889.48 412.49v8.51h-8.49v4.34h21.31v-4.34h-8.51v-8.51h-4.31Z" fill="#fad044" />
    <path d="m889.48 412.49v8.51h-8.49v4.34h21.31v-4.34h-8.51v-8.51h-4.31Z" fill="none" stroke="#000"
      stroke-width=".77" />
    <path
      d="m888.33 431.46h6.62c1.86 0 3.37 1.51 3.37 3.38v31.19c0 1.87-1.51 3.38-3.37 3.38h-6.62c-1.86 0-3.37-1.51-3.37-3.38v-31.19c0-1.87 1.51-3.38 3.37-3.38Z"
      fill="#fad044" fill-rule="evenodd" />
    <path
      d="m888.33 431.46h6.62c1.86 0 3.37 1.51 3.37 3.38v31.19c0 1.87-1.51 3.38-3.37 3.38h-6.62c-1.86 0-3.37-1.51-3.37-3.38v-31.19c0-1.87 1.51-3.38 3.37-3.38Z"
      fill="none" stroke="#000" stroke-width=".77" />
    <path
      d="m884.45 431.42c1.18 0 2.13.82 2.13 1.82v34.38c0 1.01-.95 1.82-2.13 1.82s-2.13-.82-2.13-1.82v-34.38c0-1.01.95-1.82 2.13-1.82Z"
      fill="#fad044" fill-rule="evenodd" />
    <path
      d="m884.45 431.42c1.18 0 2.13.81 2.13 1.82v34.38c0 1.01-.95 1.82-2.13 1.82s-2.13-.81-2.13-1.82v-34.38c0-1.01.95-1.82 2.13-1.82Z"
      fill="none" stroke="#000" stroke-width=".77" />
    <path
      d="m898.83 431.42c1.18 0 2.13.82 2.13 1.82v34.38c0 1.01-.95 1.82-2.13 1.82s-2.13-.82-2.13-1.82v-34.38c0-1.01.95-1.82 2.13-1.82Z"
      fill="#fad044" fill-rule="evenodd" />
    <path
      d="m898.83 431.42c1.18 0 2.13.82 2.13 1.82v34.38c0 1.01-.95 1.82-2.13 1.82s-2.13-.82-2.13-1.82v-34.38c0-1.01.95-1.82 2.13-1.82Z"
      fill="none" stroke="#000" stroke-width=".77" />
    <path
      d="m895.34 432.26c.02 2.07-1.61 3.77-3.65 3.79-2.03.02-3.7-1.64-3.72-3.72 0-.02 0-.05 0-.07-.02-2.07 1.61-3.77 3.65-3.79 2.03-.02 3.7 1.64 3.72 3.72 0 .02 0 .05 0 .07Z"
      fill="#fff" stroke="#000" stroke-width=".77" />
    <path
      d="m895.34 439.72c.02 2.07-1.61 3.77-3.65 3.79-2.03.02-3.7-1.64-3.72-3.72 0-.02 0-.05 0-.07-.02-2.07 1.61-3.77 3.65-3.79 2.03-.02 3.7 1.64 3.72 3.72 0 .02 0 .05 0 .07Z"
      fill="#fff" stroke="#000" stroke-width=".77" />
    <path
      d="m895.34 447.2c.02 2.07-1.61 3.77-3.65 3.79-2.03.02-3.7-1.64-3.72-3.72 0-.02 0-.05 0-.07-.02-2.07 1.61-3.77 3.65-3.79 2.03-.02 3.7 1.64 3.72 3.72 0 .02 0 .05 0 .07Z"
      fill="#fff" stroke="#000" stroke-width=".77" />
    <path
      d="m895.34 454.67c.02 2.07-1.61 3.77-3.65 3.79-2.03.02-3.7-1.64-3.72-3.72 0-.02 0-.05 0-.07-.02-2.07 1.61-3.77 3.65-3.79 2.03-.02 3.7 1.64 3.72 3.72 0 .02 0 .05 0 .07Z"
      fill="#fff" stroke="#000" stroke-width=".77" />
    <path
      d="m895.34 462.15c.02 2.07-1.61 3.77-3.65 3.79-2.03.02-3.7-1.64-3.72-3.72 0-.02 0-.05 0-.07-.02-2.07 1.61-3.77 3.65-3.79 2.03-.02 3.7 1.64 3.72 3.72 0 .02 0 .05 0 .07Z"
      fill="#fff" stroke="#000" stroke-width=".77" />
    <path
      d="m957.8 485.89c-3.55 7.95-6.39 15.71-9.17 23.7h-114.34c-2.69-7.72-5.44-16.02-8.82-23.7 0 0 7.12 9.98 12.45 12.4 2.96 1.34 6.66 1.74 9.72.65 4.03-1.44 9.4-8.77 9.4-8.77 0 0 4.82 5.66 8.1 7.15 3.08 1.4 6.67 1.45 10.05 1.3 2.98-.14 6.29-.25 8.75-1.95 3.72-2.58 7.45-11.37 7.45-11.37 0 0 3.61 6.92 6.48 9.42 2.37 2.07 5.35 3.61 8.43 4.22 3.08.62 6.44.42 9.4-.65 4-1.45 10.37-7.47 10.37-7.47 0 0 4.38 5.45 7.45 6.82 2.97 1.33 6.55 1.72 9.72.97 3.36-.79 6.18-3.23 8.75-5.52 2.3-2.05 5.8-7.2 5.8-7.2Z"
      fill="#fad044" />
    <path
      d="m957.8 485.89c-3.55 7.95-6.39 15.71-9.17 23.7h-114.34c-2.69-7.72-5.44-16.02-8.82-23.7 0 0 7.12 9.98 12.45 12.4 2.96 1.34 6.66 1.74 9.72.65 4.03-1.44 9.4-8.77 9.4-8.77 0 0 4.82 5.66 8.1 7.15 3.08 1.4 6.67 1.45 10.05 1.3 2.98-.14 6.29-.25 8.75-1.95 3.72-2.58 7.45-11.37 7.45-11.37 0 0 3.61 6.92 6.48 9.42 2.37 2.07 5.35 3.61 8.43 4.22 3.08.62 6.44.42 9.4-.65 4-1.45 10.37-7.47 10.37-7.47 0 0 4.38 5.45 7.45 6.82 2.97 1.33 6.55 1.72 9.72.97 3.36-.79 6.18-3.23 8.75-5.52 2.3-2.05 5.8-7.2 5.8-7.2Z"
      fill="none" stroke="#000" stroke-width=".77" />
    <path
      d="m891.64 490.39s-2.61 4.02-4.21 5.4c-2.23 1.91-3.69 3.06-6.55 3.96-2.86.9-6.84 1.41-9.83 1.25-2.89-.16-5.87-1-8.47-2.26-2.26-1.1-5.87-4.3-5.87-4.3-1.75 2.28-3.99 3.88-6.11 5.07-2.72 1.51-5.4 1.65-8.23 1.5-5.74-.31-11.09-3.9-15.38-11.18-2.78-6.6-5.98-13.28-9.98-20.29 4.61-1.64 9.98-2.51 15.93-2.79-2.42 6.84-4.94 13.51-4.05 19.02 5-3.76 6.62-8.87 8.35-13.94l5.82 20.54c-3.53-.62-1.65-1.35-10.92-3.11 1.86 3.51 6.11 7.85 10.8 8.28 3.15.29 5.44-.69 7.45-2.43 1.44-1.25 2.75-2.91 2.74-4.77l-.03-3.2c0-.69-.85-1.66-1.54-1.67-.65 0-.83 1.05-1.01 1.68-.35 1.26.35 2.66 0 3.93-.39 1.39-1.13 2.49-2.35 3.25-1.02.64-3.47.78-3.47.78l.78-3.03c.55-2.14-1.52-3.79-2.01-5.94-.32-1.38-.5-2.93 0-4.26.54-1.44 1.63-2.84 3.02-3.48.51-.23 1.12-.26 1.68-.22.79.06 2.35.56 2.35.56 0 0-.45-2.16-.34-3.48.14-1.59 1.48-4.54 2.24-5.94 1.26-2.33 3.26-4.44 3.48-4.66.22.22 2.39 2.24 3.8 4.48.85 1.35 1.73 3.3 1.97 4.88.2 1.3.13 4.05.13 4.05 0 0 2.3-.95 3.09-1.06.55-.08 1.17-.09 1.69.11 1.44.54 2.62 1.86 3.26 3.26.59 1.29.52 2.85.3 4.25-.35 2.18-1.62 3.87-.93 5.96l.99 2.97s-2.46.02-3.51-.54c-1.27-.68-2.09-1.72-2.57-3.08-.44-1.23-.18-2.74-.94-3.8-.34-.47-.81-.99-1.46-.93-.68.06-1.16 1.17-1.19 1.86l-.12 2.88c-.04.89.37 1.81.84 2.52 1.16 1.76 2.89 2.82 4.83 3.61 2.11.86 4.01 1.19 6.29 1.21 1.9.02 5.2-.29 7-.9 2.22-.75 3.52-1.7 5.23-3.3.97-.9 1.61-2.21 2.04-3.46.49-1.44.31-3.93.31-3.93-2.21.84-4.12 1.96-5.85 3.28-1.95 1.49-3.66 3.22-5.28 5.05l-.16-24.83c2.3 2.54 3.97 4.82 6.27 6.73 1.93 1.61 2.93 2.23 4.86 2.86-.55-2-.74-3.21-2.17-5.21-1.98-2.77-3.9-5.74-6.3-8.51 4.41-.74 8.82-.93 13.28-.93s8.87.2 13.28.93c-2.39 2.77-4.32 5.74-6.3 8.51-1.43 2-1.61 3.21-2.17 5.21 1.93-.63 2.93-1.24 4.86-2.86 2.3-1.91 3.97-4.19 6.27-6.73l-.16 24.83c-1.61-1.83-3.32-3.56-5.28-5.05-1.73-1.32-3.65-2.44-5.85-3.28 0 0-.18 2.49.31 3.93.43 1.25 1.07 2.56 2.04 3.46 1.72 1.6 3.02 2.55 5.23 3.3 1.8.61 5.1.92 7 .9 2.28-.03 4.18-.36 6.29-1.21 1.95-.79 3.67-1.86 4.83-3.61.47-.72.88-1.64.84-2.52l-.12-2.88c-.03-.69-.51-1.8-1.19-1.86-.65-.05-1.12.47-1.46.93-.76 1.06-.51 2.57-.94 3.8-.48 1.36-1.3 2.4-2.57 3.08-1.06.57-3.51.54-3.51.54l.99-2.97c.7-2.09-.58-3.78-.93-5.96-.22-1.4-.29-2.96.3-4.25.64-1.4 1.82-2.72 3.26-3.26.52-.2 1.14-.19 1.69-.11.78.11 3.09 1.06 3.09 1.06 0 0-.07-2.75.13-4.05.25-1.58 1.12-3.53 1.97-4.88 1.42-2.24 3.58-4.26 3.8-4.48.23.23 2.23 2.33 3.48 4.66.76 1.41 2.1 4.35 2.24 5.94.11 1.31-.34 3.48-.34 3.48 0 0 1.56-.5 2.35-.56.56-.04 1.17 0 1.68.22 1.4.64 2.48 2.04 3.02 3.48.5 1.33.32 2.88 0 4.26-.5 2.15-2.57 3.81-2.01 5.94l.78 3.03s-2.45-.15-3.47-.78c-1.22-.77-1.96-1.86-2.35-3.25-.35-1.26.35-2.66 0-3.93-.17-.63-.35-1.69-1.01-1.68-.68.01-1.53.98-1.54 1.67l-.03 3.2c-.02 1.87 1.3 3.52 2.74 4.77 2 1.74 4.29 2.72 7.45 2.43 4.69-.43 8.94-4.76 10.8-8.28-9.27 1.76-7.39 2.49-10.92 3.11l5.82-20.54c1.72 5.07 3.34 10.19 8.35 13.94.89-5.51-1.62-12.17-4.05-19.02 5.96.28 11.33 1.15 15.93 2.79-4 7.01-7.2 13.69-9.98 20.29-4.29 7.28-9.64 10.87-15.38 11.18-2.82.15-5.51.02-8.23-1.5-2.13-1.18-4.36-2.79-6.11-5.07 0 0-3.61 3.2-5.87 4.3-2.61 1.27-5.58 2.11-8.47 2.26-2.99.16-6.97-.34-9.83-1.25-2.86-.9-4.32-2.05-6.55-3.96-1.6-1.37-4.21-5.4-4.21-5.4Z"
      fill="#fad044" />
    <path
      d="m842.37 501c-5.74-.31-11.09-3.9-15.38-11.18-2.78-6.6-5.98-13.28-9.98-20.29 4.61-1.64 9.98-2.51 15.93-2.79-2.42 6.84-4.94 13.51-4.05 19.02 5-3.76 6.62-8.87 8.35-13.94l5.82 20.54c-3.53-.62-1.65-1.35-10.92-3.11 1.86 3.51 6.11 7.85 10.8 8.28l-.56 3.49Zm97.98-3.49c4.69-.43 8.94-4.76 10.8-8.28-9.27 1.76-7.39 2.49-10.92 3.11l5.82-20.54c1.72 5.07 3.34 10.19 8.35 13.94.89-5.51-1.62-12.17-4.05-19.02 5.96.28 11.33 1.15 15.93 2.79-4 7.01-7.2 13.69-9.98 20.29-4.29 7.28-9.64 10.87-15.38 11.18l-.11.2-.45-3.7Z"
      fill="#fad044" />
    <path
      d="m871.05 501c-2.89-.16-5.87-1-8.47-2.26-2.26-1.1-5.87-4.3-5.87-4.3-1.75 2.28-3.99 3.88-6.11 5.07-2.72 1.51-5.4 1.65-8.23 1.5l-.1.99.66-4.48c3.15.29 5.44-.69 7.45-2.43 1.44-1.25 2.75-2.91 2.74-4.77l-.03-3.2c0-.69-.85-1.66-1.54-1.67-.65 0-.83 1.05-1.01 1.68-.35 1.26.35 2.66 0 3.93-.39 1.39-1.13 2.49-2.35 3.25-1.02.64-3.47.78-3.47.78l.78-3.03c.55-2.14-1.52-3.79-2.01-5.94-.32-1.38-.5-2.93 0-4.26.54-1.44 1.63-2.84 3.02-3.48.51-.23 1.12-.26 1.68-.22.79.06 2.35.56 2.35.56 0 0-.45-2.16-.34-3.48.14-1.59 1.48-4.54 2.24-5.94 1.26-2.33 3.26-4.44 3.48-4.66.22.22 2.39 2.24 3.8 4.48.85 1.35 1.73 3.3 1.97 4.88.2 1.3.13 4.05.13 4.05 0 0 2.3-.95 3.09-1.06.55-.08 1.17-.09 1.69.11 1.44.54 2.62 1.86 3.26 3.26.59 1.29.52 2.85.3 4.25-.35 2.18-1.62 3.87-.93 5.96l.99 2.97s-2.46.02-3.51-.54c-1.27-.68-2.09-1.72-2.57-3.08-.44-1.23-.18-2.74-.94-3.8-.34-.47-.81-.99-1.46-.93-.68.06-1.16 1.17-1.19 1.86l-.12 2.88c-.04.89.37 1.81.84 2.52 1.16 1.76 2.89 2.82 4.83 3.61 2.11.86 4.01 1.19 6.29 1.21l-1.34 3.75Z"
      fill="#fad044" />
    <path
      d="m927.95 490.23l-.07-.11c-.08-1.36.38-3.69.38-3.69.26-1.16 1.25-2.4 2.47-2.84.66-.24 1.47-.33 2.18.02.43.21.78.38 1.07.68.29.3.47.69.66 1.26.28.82.16 1.68.02 2.41-.24 1.21-.21 2.27.13 3.09.24.58.73 1.01 1.35 1.39-.12-.41-.2-.62-.26-1.07-.09-.68.02-1.38.28-2 .45-1.07 1.08-1.92 1.5-2.86.4-.9.61-1.92.54-2.88-.06-.79-.29-1.61-.74-2.18-.49-.62-1.24-1.13-1.98-1.27-.66-.13-1.75.1-2.62.38-.87.28-1.53.6-1.53.6l-.77.36.13-.84c.45-2.84.85-4.28 0-6.93-.35-1.09-.94-2.29-1.93-3.69-.48-.68-1.02-1.49-1.63-2.23-1.6 1.82-2.71 3.67-3.35 5.54-.7 2.04-.72 4.76-.56 6.94l.07.88-.74-.45s-.84-.52-1.86-1.01c-1.02-.49-2.26-.92-2.79-.88-.99.09-1.65.56-2.29 1.39-.55.7-.66 1.31-.78 2.28-.07.61.08 1.76.18 2.51.11.88.63 1.8.78 2.91.05.37.16.65.25 1.01.09.35.13.77.03 1.26-.07.34-.17.58-.3.99.25-.12.43-.18.56-.28.49-.35.69-.98 1.01-1.74.17-.41.21-.77.23-1.21.02-.43.04-.94.26-1.5.38-.96.82-2.11 1.8-2.81.8-.58 1.87-.74 2.8-.45.55.17.95.51 1.24.91.29.4.48.83.68 1.26.26.55.41 1.37.53 2.1.07.44.13.89.18 1.34l.02.07-.02.08-.68 2.27-.87-.2.66-2.17c-.05-.41-.11-.83-.18-1.24-.12-.7-.29-1.53-.45-1.87-.2-.44-.39-.82-.59-1.11s-.41-.47-.78-.58c-.65-.2-1.48-.08-2.03.31-.69.5-1.11 1.46-1.48 2.41-.16.41-.18.79-.2 1.22s-.05.94-.28 1.5c-.29.69-.53 1.55-1.32 2.12-.58.42-1.63.83-1.63.83l-.92.38.33-.94s.47-1.38.56-1.87c.07-.34.04-.58-.03-.88-.07-.3-.2-.64-.26-1.11-.11-.88-.63-1.8-.78-2.91-.09-.72-.28-1.87-.18-2.73.12-1.01.28-1.88.96-2.75.74-.95 1.67-1.61 2.92-1.72.99-.09 2.2.45 3.27.96.69.33.89.48 1.24.68-.11-2.09-.08-4.51.61-6.53.73-2.14 1.98-4.25 3.88-6.3l.33-.35.33.35c.88.95 1.48 2 2.03 2.76 1.04 1.46 1.68 2.75 2.06 3.94.82 2.53.52 4.26.13 6.6.3-.13.4-.2.92-.36.93-.3 2.07-.58 3.05-.4 1 .19 1.91.81 2.52 1.59.61.77.87 1.76.94 2.68.08 1.14-.17 2.3-.63 3.32-.47 1.06-1.1 1.9-1.5 2.84-.2.48-.3 1.03-.23 1.52.1.74.49 1.93.49 1.93l.28.84-.86-.28c-1.37-.47-2.27-1.31-2.71-2.36-.44-1.06-.44-2.29-.18-3.6.13-.69.21-1.38.02-1.94-.18-.51-.3-.76-.46-.93-.16-.17-.4-.29-.82-.5-.39-.19-.99-.16-1.48.02-.82.3-1.79 1.39-1.88 2.17-.16 1.37-.54 2.76-1.2 3.63Zm25.73-1.61l.23-.46-.5-.17c-3.68-1.17-7.09-.28-10.29 1.07 1.27-3.47 2.27-7.03 2.99-10.65 3.5 6.3 6.46 8.36 9.25 9.64l.51.23.12-.56c.83-4.3.9-10.03-2.62-18.55 3.94.21 7.87.68 11.76 2.41l.36-.83c-4.28-1.9-8.55-2.38-12.77-2.56l-.73-.03.3.66c3.61 8.41 3.62 13.89 2.89 18.11-2.68-1.31-5.39-3.28-8.86-9.91l-.61-1.16-.23 1.29c-.75 4.17-1.93 8.35-3.51 12.53l-.4 1.03.99-.46c3.24-1.47 6.51-2.43 10.04-1.5l.09.05.99-.19Zm-123.02.13c3.53-.92 6.79.03 10.03 1.5l.99.46-.38-1.02c-1.59-4.18-2.76-8.36-3.51-12.53l-.23-1.29-.61 1.16c-3.47 6.62-6.19 8.6-8.87 9.9-.73-4.22-.71-9.69 2.9-18.11l.28-.66-.71.03c-4.22.19-8.49.66-12.77 2.56l.36.83c3.9-1.74 7.81-2.21 11.76-2.41-3.52 8.52-3.46 14.25-2.62 18.55l.1.56.53-.23c2.79-1.28 5.76-3.34 9.25-9.62.72 3.62 1.72 7.17 2.99 10.63-3.21-1.36-6.61-2.24-10.29-1.07l-.49.17.23.46-.1.05s1.17.08 1.17.08Zm28.97 2l-.52-1.93c0-.08.06-.55.16-1.19.12-.7.31-1.53.46-1.87.2-.44.39-.82.59-1.11.21-.29.42-.47.78-.58.65-.2 1.47-.08 2.01.31.69.5 1.13 1.46 1.5 2.41.16.41.18.79.2 1.22s.05.94.28 1.5c.29.69.53 1.55 1.32 2.12.58.42 1.63.83 1.63.83l.91.38-.31-.94s-.46-1.38-.56-1.87c-.07-.34-.04-.58.03-.88.07-.3.19-.64.25-1.11.11-.88.63-1.8.78-2.91.09-.72.3-1.87.2-2.73-.12-1.01-.28-1.88-.96-2.75-.74-.95-1.67-1.61-2.92-1.72-.99-.09-2.2.45-3.27.96-.68.33-.89.48-1.24.68.11-2.1.08-4.51-.61-6.53-.73-2.14-1.98-4.25-3.88-6.3l-.33-.35-.33.35c-.88.95-1.5 2-2.05 2.76-1.04 1.46-1.66 2.75-2.05 3.94-.82 2.53-.52 4.26-.13 6.6-.3-.13-.4-.2-.92-.36-.93-.3-2.07-.59-3.05-.4-1 .19-1.91.81-2.52 1.59-.61.77-.87 1.76-.94 2.68-.08 1.14.17 2.3.63 3.32.48 1.06 1.1 1.9 1.5 2.84.2.48.28 1.03.21 1.52-.1.74-.48 1.94-.48 1.94l-.28.84.86-.28c1.37-.47 2.27-1.31 2.71-2.36.44-1.06.44-2.29.18-3.6-.13-.69-.21-1.38-.02-1.93.18-.51.3-.76.46-.93s.39-.29.81-.5c.39-.19 1.01-.16 1.5.02.82.3 1.71 1.4 1.88 2.17 0 .04.43 2.4.36 3.47l1.06.19c-.09-1.5-.55-3.83-.55-3.83-.26-1.16-1.23-2.4-2.46-2.84-.66-.24-1.48-.33-2.19.02-.43.21-.77.38-1.06.68-.29.3-.48.69-.68 1.26-.28.82-.16 1.68-.02 2.41.24 1.21.21 2.27-.13 3.09-.24.58-.71 1.01-1.34 1.39.12-.41.2-.62.26-1.07.1-.68-.02-1.38-.28-2-.45-1.07-1.08-1.92-1.5-2.86-.4-.9-.63-1.92-.56-2.88.06-.79.29-1.61.74-2.18.49-.62 1.25-1.13 2-1.27.66-.13 1.73.1 2.61.38.53.17 1.04.37 1.55.6l.78.36-.15-.84c-.45-2.84-.84-4.28.02-6.93.35-1.09.92-2.29 1.91-3.69.48-.68 1.04-1.48 1.65-2.23 1.6 1.82 2.71 3.67 3.35 5.54.7 2.04.71 4.76.54 6.94l-.05.88.74-.45s.83-.52 1.85-1.01c1.02-.49 2.28-.92 2.8-.88.99.09 1.65.56 2.29 1.39.55.7.66 1.31.77 2.28.07.61-.1 1.76-.2 2.51-.11.88-.61 1.8-.76 2.91-.05.37-.16.65-.25 1.01-.09.35-.15.77-.05 1.26.07.34.17.58.3.99-.25-.12-.43-.19-.56-.28-.49-.35-.69-.98-1.01-1.74-.17-.41-.19-.77-.21-1.21s-.04-.94-.26-1.5c-.38-.96-.82-2.11-1.8-2.81-.8-.58-1.87-.74-2.8-.45-.51.16-.95.48-1.25.91-.29.39-.46.83-.66 1.26-.26.55-.41 1.37-.53 2.1-.07.45-.14.89-.2 1.34v.07l.02.08.53 1.98.26.03s.61-.23.61-.23Zm34.14-7.32l.02-.56.54.13c2.51.63 4.43 1.48 6.02 2.43 2.02 1.2 3.51 2.55 5.08 3.85l.26-14.93c-1.34 1.48-2.59 3.06-4.44 4.33-1.51 1.04-4.33 2.4-6.98 2.7l-.63.07.13-.61c.37-1.68.36-2.85 1.2-4.84.8-1.89 2.49-4.63 5.84-9.23-2.9-.32-5.43-.68-9.2-.68s-6.29.36-9.19.68c3.35 4.59 5.04 7.34 5.84 9.23.84 1.99.83 3.16 1.2 4.84l.13.61-.63-.07c-2.64-.3-5.47-1.66-6.98-2.7-1.84-1.26-3.11-2.84-4.44-4.32l.26 14.9c1.56-1.3 3.07-2.64 5.08-3.84 1.59-.95 3.49-1.8 6-2.43l.56-.13v.56l-.9.63c-2.12.6-3.81 1.32-5.2 2.14-2.22 1.32-3.82 2.86-5.71 4.37l-.71.56-.02-.91-.28-17.03-.03-1.12.79.79c1.74 1.76 3.05 3.68 5.08 5.08 1.25.86 3.71 2.01 5.97 2.41-.25-1.36-.36-2.42-1.04-4.02-.79-1.88-2.43-4.62-6.15-9.67l-.46-.63.77-.08c3.21-.33 5.86-.78 10.03-.78s6.82.44 10.03.78l.79.08-.46.63c-3.73 5.05-5.38 7.8-6.17 9.67-.68 1.61-.77 2.67-1.02 4.03 2.26-.4 4.7-1.57 5.95-2.43 2.03-1.4 3.36-3.32 5.1-5.08l.78-.79-.02 1.12-.3 17.03v.91l-.73-.56c-1.89-1.5-3.47-3.05-5.69-4.37-1.39-.82-3.08-1.55-5.2-2.13l-.92-.65Z" />
    <path
      d="m891.64 490.39s-2.61 4.02-4.21 5.4c-2.23 1.91-3.69 3.06-6.55 3.96-2.86.9-6.84 1.41-9.83 1.25-2.89-.16-5.87-1-8.47-2.26-2.26-1.1-5.87-4.3-5.87-4.3-1.75 2.28-3.99 3.88-6.11 5.07-2.72 1.51-5.4 1.65-8.23 1.5-5.74-.31-11.09-3.9-15.38-11.18-2.78-6.6-5.98-13.28-9.98-20.29 4.61-1.64 9.98-2.51 15.93-2.79-2.42 6.84-4.94 13.51-4.05 19.02 5-3.76 6.62-8.87 8.35-13.94l5.82 20.54c-3.53-.62-1.65-1.35-10.92-3.11 1.86 3.51 6.11 7.85 10.8 8.28 3.15.29 5.44-.69 7.45-2.43 1.44-1.25 2.75-2.91 2.74-4.77l-.03-3.2c0-.69-.85-1.66-1.54-1.67-.65 0-.83 1.05-1.01 1.68-.35 1.26.35 2.66 0 3.93-.39 1.39-1.13 2.49-2.35 3.25-1.02.64-3.47.78-3.47.78l.78-3.03c.55-2.14-1.52-3.79-2.01-5.94-.32-1.38-.5-2.93 0-4.26.54-1.44 1.63-2.84 3.02-3.48.51-.23 1.12-.26 1.68-.22.79.06 2.35.56 2.35.56 0 0-.45-2.16-.34-3.48.14-1.59 1.48-4.54 2.24-5.94 1.26-2.33 3.26-4.44 3.48-4.66.22.22 2.39 2.24 3.8 4.48.85 1.35 1.73 3.3 1.97 4.88.2 1.3.13 4.05.13 4.05 0 0 2.3-.95 3.09-1.06.55-.08 1.17-.09 1.69.11 1.44.54 2.62 1.86 3.26 3.26.59 1.29.52 2.85.3 4.25-.35 2.18-1.62 3.87-.93 5.96l.99 2.97s-2.46.02-3.51-.54c-1.27-.68-2.09-1.72-2.57-3.08-.44-1.23-.18-2.74-.94-3.8-.34-.47-.81-.99-1.46-.93-.68.06-1.16 1.17-1.19 1.86l-.12 2.88c-.04.89.37 1.81.84 2.52 1.16 1.76 2.89 2.82 4.83 3.61 2.11.86 4.01 1.19 6.29 1.21 1.9.02 5.2-.29 7-.9 2.22-.75 3.52-1.7 5.23-3.3.97-.9 1.61-2.21 2.04-3.46.49-1.44.31-3.93.31-3.93-2.21.84-4.12 1.96-5.85 3.28-1.95 1.49-3.66 3.22-5.28 5.05l-.16-24.83c2.3 2.54 3.97 4.82 6.27 6.73 1.93 1.61 2.93 2.23 4.86 2.86-.55-2-.74-3.21-2.17-5.21-1.98-2.77-3.9-5.74-6.3-8.51 4.41-.74 8.82-.93 13.28-.93s8.87.2 13.28.93c-2.39 2.77-4.32 5.74-6.3 8.51-1.43 2-1.61 3.21-2.17 5.21 1.93-.63 2.93-1.24 4.86-2.86 2.3-1.91 3.97-4.19 6.27-6.73l-.16 24.83c-1.61-1.83-3.32-3.56-5.28-5.05-1.73-1.32-3.65-2.44-5.85-3.28 0 0-.18 2.49.31 3.93.43 1.25 1.07 2.56 2.04 3.46 1.72 1.6 3.02 2.55 5.23 3.3 1.8.61 5.1.92 7 .9 2.28-.03 4.18-.36 6.29-1.21 1.95-.79 3.67-1.86 4.83-3.61.47-.72.88-1.64.84-2.52l-.12-2.88c-.03-.69-.51-1.8-1.19-1.86-.65-.05-1.12.47-1.46.93-.76 1.06-.51 2.57-.94 3.8-.48 1.36-1.3 2.4-2.57 3.08-1.06.57-3.51.54-3.51.54l.99-2.97c.7-2.09-.58-3.78-.93-5.96-.22-1.4-.29-2.96.3-4.25.64-1.4 1.82-2.72 3.26-3.26.52-.2 1.14-.19 1.69-.11.78.11 3.09 1.06 3.09 1.06 0 0-.07-2.75.13-4.05.25-1.58 1.12-3.53 1.97-4.88 1.42-2.24 3.58-4.26 3.8-4.48.23.23 2.23 2.33 3.48 4.66.76 1.41 2.1 4.35 2.24 5.94.11 1.31-.34 3.48-.34 3.48 0 0 1.56-.5 2.35-.56.56-.04 1.17 0 1.68.22 1.4.64 2.48 2.04 3.02 3.48.5 1.33.32 2.88 0 4.26-.5 2.15-2.57 3.81-2.01 5.94l.78 3.03s-2.45-.15-3.47-.78c-1.22-.77-1.96-1.86-2.35-3.25-.35-1.26.35-2.66 0-3.93-.17-.63-.35-1.69-1.01-1.68-.68.01-1.53.98-1.54 1.67l-.03 3.2c-.02 1.87 1.3 3.52 2.74 4.77 2 1.74 4.29 2.72 7.45 2.43 4.69-.43 8.94-4.76 10.8-8.28-9.27 1.76-7.39 2.49-10.92 3.11l5.82-20.54c1.72 5.07 3.34 10.19 8.35 13.94.89-5.51-1.62-12.17-4.05-19.02 5.96.28 11.33 1.15 15.93 2.79-4 7.01-7.2 13.69-9.98 20.29-4.29 7.28-9.64 10.87-15.38 11.18-2.82.15-5.51.02-8.23-1.5-2.13-1.18-4.36-2.79-6.11-5.07 0 0-3.61 3.2-5.87 4.3-2.61 1.27-5.58 2.11-8.47 2.26-2.99.16-6.97-.34-9.83-1.25-2.86-.9-4.32-2.05-6.55-3.96-1.6-1.37-4.21-5.4-4.21-5.4Z"
      fill="none" stroke="#000" stroke-width=".77" />
    <path
      d="m895.7 482.04c.02 2.28-1.78 4.15-4.01 4.17-2.24.02-4.07-1.81-4.09-4.09 0-.03 0-.05 0-.08-.02-2.28 1.78-4.15 4.01-4.17 2.24-.02 4.07 1.81 4.09 4.09 0 .03 0 .05 0 .08Z"
      fill="#fff" stroke="#000" stroke-width=".77" />
    <path
      d="m831.58 487.72c.02 2.28-1.78 4.15-4.01 4.17-2.24.02-4.07-1.81-4.09-4.09 0-.03 0-.05 0-.08-.02-2.28 1.78-4.15 4.01-4.17 2.24-.02 4.07 1.81 4.09 4.09 0 .03 0 .05 0 .08Z"
      fill="#fff" stroke="#000" stroke-width=".77" />
    <path
      d="m951.71 487.72c-.02 2.28 1.78 4.15 4.01 4.17 2.24.02 4.07-1.81 4.09-4.09 0-.03 0-.05 0-.08.02-2.28-1.78-4.15-4.01-4.17-2.24-.02-4.07 1.81-4.09 4.09 0 .03 0 .05 0 .08Z"
      fill="#fff" stroke="#000" stroke-width=".77" />
    <path d="m852.61 488.16l8.91-.48 1.27 1.95-1.05 2.07-8.91.48-1.54-1.93 1.32-2.09Z" fill="#fad044" />
    <path d="m852.61 488.16l8.91-.48 1.27 1.95-1.05 2.07-8.91.48-1.54-1.93 1.32-2.09Z" fill="none" stroke="#000"
      stroke-width=".77" />
    <path d="m930.67 488.16l-8.91-.48-1.27 1.95 1.05 2.07 8.91.48 1.54-1.93-1.32-2.09Z" fill="#f4de85" />
    <path d="m930.67 488.16l-8.91-.48-1.27 1.95 1.05 2.07 8.91.48 1.54-1.93-1.32-2.09Z" fill="#fad044" stroke="#000"
      stroke-width=".77" />
    <path
      d="m835.39 522.82s6.36-.47 17.58-1.1c11.21-.63 23.22-.97 29.35-.97h18.68c5.94 0 18.23.33 29.35.97 11.12.63 17.45 1.17 17.45 1.17l3.9-17.46s-39.96-3.61-60.04-3.61-60.04 3.61-60.04 3.61l3.77 17.4Z"
      fill="#fad044" fill-rule="evenodd" />
    <path
      d="m891.4 502c20.08-.01 40.14 1.09 60.1 3.3l-3.66 17.63c-19.87-1.79-36.13-2.27-56.22-2.42m.27-18.5c-20.08-.01-40.14 1.09-60.1 3.3l3.66 17.63c19.87-1.79 36.13-2.27 56.22-2.42"
      fill="none" stroke="#000" stroke-width=".77" />
    <path
      d="m852.78 502.42c-7.17.53-15.43 1.09-22.63 2.07-1.02 1.22-1.1 2.33.75 3.22 6.92-.94 15.07-1.52 22.21-2.03 9.68-.56 19.45-.91 29.18-1.01h18.68c5.83 0 18.13.36 29.18 1.02 11.01.66 22.25 2.02 22.25 2.02 1.92-.98 1.71-2.08.67-3.22 0 0-11.34-1.39-22.58-2.07-11.19-.68-23.47-1.02-29.52-1.02h-18.68c-9.85.03-19.69.5-29.52 1.02Z"
      fill="#fad044" />
    <path
      d="m852.78 502.42c-7.17.53-15.43 1.09-22.63 2.07-1.02 1.22-1.1 2.33.75 3.22 6.92-.94 15.07-1.52 22.21-2.03 9.68-.56 19.45-.91 29.18-1.01h18.68c5.83 0 18.13.36 29.18 1.02 11.01.66 22.25 2.02 22.25 2.02 1.92-.98 1.71-2.08.67-3.22 0 0-11.34-1.39-22.58-2.07-11.19-.68-23.47-1.02-29.52-1.02h-18.68c-9.85.03-19.69.5-29.52 1.02Z"
      fill="none" stroke="#000" stroke-width=".77" />
    <path
      d="m855.5 520.62c-6.67.53-14.34 1.09-21.04 2.07-.95 1.22-1.03 2.33.7 3.22 6.43-.94 14.02-1.52 20.65-2.03 9-.56 18.08-.91 27.14-1.01h17.37c5.42 0 16.86.36 27.14 1.02 10.23.66 20.69 2.02 20.69 2.02 1.78-.98 1.59-2.08.62-3.22 0 0-10.55-1.39-21-2.07-10.4-.68-21.83-1.02-27.45-1.02h-17.37c-9.16.03-18.31.5-27.45 1.02Z"
      fill="#fad044" />
    <path
      d="m855.5 520.62c-6.67.53-14.34 1.09-21.04 2.07-.95 1.22-1.03 2.33.7 3.22 6.43-.94 14.02-1.52 20.65-2.03 9-.56 18.08-.73 27.14-.82h17.37c5.42 0 16.86.17 27.14.84 10.23.66 20.69 2.02 20.69 2.02 1.78-.98 1.59-2.08.62-3.22 0 0-10.55-1.39-21-2.07-10.4-.68-21.83-.84-27.45-.84h-17.37c-9.16.03-18.31.31-27.45.84Z"
      fill="none" stroke="#000" stroke-width=".77" />
    <path
      d="m880.55 505.97h22.28c.44 0 .8.28.8.62v10.88c0 .34-.36.62-.8.62h-22.28c-.44 0-.8-.28-.8-.62v-10.88c0-.34.36-.62.8-.62Z"
      fill="none" stroke="#000" stroke-width=".77" />
    <path
      d="m883.7 507.56h15.99c.76 0 1.38.47 1.38 1.06v6.81c0 .59-.62 1.06-1.38 1.06h-15.99c-.76 0-1.38-.47-1.38-1.06v-6.81c0-.59.62-1.06 1.38-1.06Z"
      fill="#002465" fill-rule="evenodd" stroke="#9d883c" stroke-width=".77" />
    <path
      d="m900.66 516.18c-.26.2-.61.31-.98.31h-15.99c-.37 0-.72-.11-.98-.31-.26-.2-.4-.47-.4-.75v-6.81c0-.29.15-.56.4-.75.25-.19 18.19 8.12 17.94 8.31Z"
      fill="#3c96ee" fill-rule="evenodd" stroke="#9d883c" stroke-width=".77" />
    <path
      d="m900.66 516.18c-.26.2-.61.31-.98.31h-15.99c-.37 0-.72-.11-.98-.31-.26-.2-.4-.47-.4-.75v-6.81c0-.29.15-.56.4-.75.13-.1 4.81 2 9.37 4.11 4.41 2.05 8.7 4.11 8.58 4.2Z"
      fill="#002465" fill-rule="evenodd" stroke="#000" stroke-width=".77" />
    <path
      d="m900.66 507.87c.26.2.4.47.4.75v6.81c0 .28-.14.55-.4.75-.26.2-.61.31-.98.31h-15.99c-.37 0-.72-.11-.98-.31-.25-.19 17.69-8.51 17.94-8.31Z"
      fill="#002465" fill-rule="evenodd" stroke="#000" stroke-width=".77" />
    <path
      d="m900.66 516.18c-.26.2-.61.31-.98.31h-15.99c-.37 0-.72-.11-.98-.31-.13-.1 4.43-2.29 8.98-4.39 0 0 9.21 4.2 8.96 4.39Z"
      fill="#002465" fill-rule="evenodd" stroke="#000" stroke-width=".77" />
    <path
      d="m883.7 507.56h15.99c.76 0 1.38.47 1.38 1.06v6.81c0 .59-.62 1.06-1.38 1.06h-15.99c-.76 0-1.38-.47-1.38-1.06v-6.81c0-.59.62-1.06 1.38-1.06Z"
      fill="none" stroke="#000" stroke-width=".77" />
    <rect x="886.44" y="509.6" width="10.51" height="4.57" fill="#002465" stroke="#000" stroke-width=".77" />
    <path
      d="m856.52 508.36l6.53-.64c2.72-.27 5.27 1.48 5.69 3.9l.08.46c.43 2.42-1.43 4.61-4.15 4.87l-6.53.64c-2.72.27-5.27-1.48-5.69-3.9l-.08-.46c-.43-2.42 1.43-4.61 4.15-4.87Z"
      fill="#fad044" fill-rule="evenodd" stroke="#000" stroke-width=".77" />
    <path
      d="m856.94 509.59l6.13-.6c2.09-.21 4.05 1.14 4.37 3s-1.1 3.54-3.19 3.74l-6.13.6c-2.09.21-4.05-1.14-4.37-3s1.1-3.54 3.19-3.74Z"
      fill="#3b674a" fill-rule="evenodd" />
    <path
      d="m856.94 509.59l6.13-.6c2.09-.21 4.05 1.14 4.37 3s-1.1 3.54-3.19 3.74l-6.13.6c-2.09.21-4.05-1.14-4.37-3s1.1-3.54 3.19-3.74Z"
      fill="none" stroke="#000" stroke-width=".77" />
    <path d="m833.95 520.79l9.19-7.78-11.22-3.87-.17 6.38 2.2 5.27Z" fill="#fad044" stroke="#000" stroke-width=".77" />
    <path d="m833.67 519.19l6.66-5.64-8.13-2.81-1.74 4.45 3.21 4Z" fill="#b23c38" />
    <path d="m833.67 519.19l6.66-5.64-9.8 1.63 3.14 4.01Z" fill="#b23c38" />
    <path d="m840.35 513.52l-9.91 1.72" fill="none" stroke="#000" stroke-width=".77" />
    <path d="m833.67 519.19l6.66-5.64-8.13-2.81-1.83 4.38 3.31 4.07Z" fill="none" stroke="#000" stroke-width=".77" />
    <path
      d="m875.91 508.88c.01 1.14-.88 2.06-2 2.08-1.11.01-2.03-.9-2.04-2.04-.01-1.17.88-2.1 2-2.11 1.11-.01 2.03.9 2.04 2.08Z"
      fill="#fff" stroke="#000" stroke-width=".77" />
    <path
      d="m876.33 515.33c.01 1.14-.88 2.06-2 2.08-1.11.01-2.03-.9-2.04-2.04-.01-1.17.88-2.1 2-2.11 1.11-.01 2.03.9 2.04 2.08Z"
      fill="#fff" stroke="#000" stroke-width=".77" />
    <path
      d="m848.77 510.37c.01 1.14-.88 2.06-2 2.08-1.11.01-2.03-.9-2.04-2.04-.01-1.17.88-2.1 2-2.11 1.11-.01 2.03.9 2.04 2.08Z"
      fill="#fff" stroke="#000" stroke-width=".77" />
    <path
      d="m849.18 516.82c.01 1.14-.88 2.06-2 2.08-1.11.01-2.03-.9-2.04-2.04-.01-1.17.88-2.1 2-2.11 1.11-.01 2.03.9 2.04 2.08Z"
      fill="#fff" stroke="#000" stroke-width=".77" />
    <path
      d="m926.76 508.36l-6.53-.64c-2.72-.27-5.27 1.48-5.69 3.9l-.08.46c-.43 2.42 1.43 4.61 4.15 4.87l6.53.64c2.72.27 5.27-1.48 5.69-3.9l.08-.46c.43-2.42-1.43-4.61-4.15-4.87Z"
      fill="#fad044" fill-rule="evenodd" stroke="#000" stroke-width=".77" />
    <path
      d="m926.34 509.59l-6.13-.6c-2.09-.21-4.05 1.14-4.37 3s1.1 3.54 3.19 3.74l6.13.6c2.09.21 4.05-1.14 4.37-3s-1.1-3.54-3.19-3.74Z"
      fill="#3b674a" fill-rule="evenodd" />
    <path
      d="m926.34 509.59l-6.13-.6c-2.09-.21-4.05 1.14-4.37 3s1.1 3.54 3.19 3.74l6.13.6c2.09.21 4.05-1.14 4.37-3s-1.1-3.54-3.19-3.74Z"
      fill="none" stroke="#000" stroke-width=".77" />
    <path d="m949.33 520.79l-9.19-7.78 11.22-3.87.17 6.38-2.2 5.27Z" fill="#fad044" stroke="#000" stroke-width=".77" />
    <path d="m949.61 519.19l-6.66-5.64 8.13-2.81 1.74 4.45-3.21 4Z" fill="#b23c38" />
    <path d="m949.61 519.19l-6.66-5.64 9.8 1.63-3.14 4.01Z" fill="#b23c38" />
    <path d="m942.93 513.52l9.91 1.72" fill="none" stroke="#000" stroke-width=".77" />
    <path d="m949.61 519.19l-6.66-5.64 8.13-2.81 1.83 4.38-3.31 4.07Z" fill="none" stroke="#000" stroke-width=".77" />
    <path
      d="m907.37 508.88c-.01 1.14.88 2.06 2 2.08 1.11.01 2.03-.9 2.04-2.04.01-1.17-.88-2.1-2-2.11-1.11-.01-2.03.9-2.04 2.08Z"
      fill="#fff" stroke="#000" stroke-width=".77" />
    <path
      d="m906.95 515.33c-.01 1.14.88 2.06 2 2.08 1.11.01 2.03-.9 2.04-2.04.01-1.17-.88-2.1-2-2.11-1.11-.01-2.03.9-2.04 2.08Z"
      fill="#fff" stroke="#000" stroke-width=".77" />
    <path
      d="m934.51 510.37c-.01 1.14.88 2.06 2 2.08 1.11.01 2.03-.9 2.04-2.04.01-1.17-.88-2.1-2-2.11-1.11-.01-2.03.9-2.04 2.08Z"
      fill="#fff" stroke="#000" stroke-width=".77" />
    <path
      d="m934.1 516.82c-.01 1.14.88 2.06 2 2.08 1.11.01 2.03-.9 2.04-2.04.01-1.17-.88-2.1-2-2.11-1.11-.01-2.03.9-2.04 2.08Z"
      fill="#fff" stroke="#000" stroke-width=".77" />
  </g>
</svg>