<svg xmlns="http://www.w3.org/2000/svg" width="1200" height="720">
  <path fill="#fff" d="m0 0h1200v720H0Z" />
  <path fill="#000"
    d="m932 259 25-16L857 93l-25 16ZM305 652l25-16-99-150-25 16Zm38-25 25-16-46-69-25 17Zm-54-81 25-17-46-68-25 16Zm91 56 25-16-100-150-25 17ZM231 234l99-150-25-16-99 150Zm37 25 100-150-25-16-100 150Zm37 25 100-150-25-16-100 149Zm515 318 45-68-25-17-45 69Zm37 25 46-68-25-17-46 69Zm38 25 45-68-25-17-45 69Zm-21-131 46-68-25-17-46 69Zm37 25 46-69-25-16-46 68Zm38 25 45-69-25-16-45 68Zm-54-287 25-17-46-68-25 16Zm-55-81 25-17-45-68-25 16Zm129 31 25-16-45-69-25 17Zm-54-81 25-17-45-68-25 16Z" />
  <circle fill="#cd2e3a" cx="600" cy="360" r="180" />
  <path fill="#0047a0" d="M449 262a1 1 0 0 0 151 98 1 1 0 0 1 151 98 1 1 0 1 1-302-196" />
</svg>