<?xml version="1.0" encoding="UTF-8"?>
<svg id="a" data-name="Layer 1" xmlns="http://www.w3.org/2000/svg" width="1200" height="720">
  <path d="m0 0h1200v720H0V0Z" fill="#f7b718" />
  <path d="m430 60h725v600H430V60Z" fill="#941e32" />
  <path
    d="m1026.45 223.14c-2.9-2.21-6.56-2.86-10.3-1.83l-.26.09c-3.89 1.5-6.45 3.68-7.61 6.48-.68 1.65-.79 3.28-.62 4.76-3.58-1.46-8.6-4.03-12.38-6.84-2.72-2.03-11.63-9.95-19.46-17.29-23.23-21.8-31-27.46-46.22-33.65-23.76-9.66-47.44-10.83-70.39-3.46-18.63 5.98-29.55 16.56-34.38 33.28-1.17 4.04-1.48 7.66-1.16 13.35.4 6.99 2 12.18 5.32 16.83-1.78-1.43-3.41-3.93-5.42-8.26-2.51-5.43-4.74-8.65-7.97-11.49-.97-.85-1.78-1.53-2.48-2.08.31-.29.66-.62 1.07-.98 8.17-7.39 13.32-19.96 12.47-26.27l-.96-7.15-4.02 5.88c-1.07 1.18-11.62 9.56-21.87 9.03-.85-7.64-10.01-17.13-15.18-18.99l-5.24-1.89 1.66 5.32c.93 2.97.17 6.68-1.98 9.7-1.89 2.65-4.46 4.27-6.8 4.34-3.31 0-6.18-1.82-9.58-6.09-5.47-6.86-11.67-10.12-19.05-10.04-1.05.02-2.07 0-3.1-.02-1.09-.02-2.18-.03-3.29-.02l-10.22.15 8.89 5.04c1.52.86 2.8 2.66 2.8 3.94s-2.62 4.33-3.84 4.51c-3.09-.67-6.43-2.18-9.95-3.78-7.02-3.18-14.97-6.78-22.39-3.58l-8.1 3.5 8.27 1.69c.48.73 1.09 3.12.43 5.68-.7 2.72-2.46 4.51-5.24 5.31-14.45 4.15-26.58 6.88-34.25 7.79 1.98-3.75 1.76-7.4.25-9.92-2.21-3.68-6.79-4.95-11.42-3.16-7.35 2.84-11.79 8.21-12.83 15.53-.99 6.9 1.15 15.57 6.01 24.43 4.26 7.76 10.36 15.12 16.32 19.67l5.35 4.09-.93-6.67c-.03-.23-.07-.46-.1-.68 3.82 2.39 7.9 4.61 10.95 6.28l4.79 2.62.03-4.64c0-.23.01-.47.03-.71 2.88 3.95 6.11 7.42 8.62 10.06-7.55-2.99-15.73-3.41-20.5-3.65-.83-.04-1.54-.08-2.13-.12-2.59-.49-5.33-.68-7.98-.87-5.4-.38-10.99-.78-15.28-3.67l-4.42-2.97.1 5.33c.08 4.2 2.26 7.98 4.8 10.87l.09 2.31c.36 9.48-3.35 20.79-10.17 23.31l-3.88 1.43 2.8 3.04c4.4 4.79 8.67 5.23 11.46 4.76 2.37-.4 4.68-1.63 6.77-3.53.07 1.62.21 3.14.37 4.62l.54 4.92 3.91-3.04c2.45-1.9 5.07-4.04 7.42-6.62.58 3.85 1.83 7.54 4.97 9.63l4.31 2.87v-5.18c0-.53.04-3.27.91-5.98.19 1.47.66 2.69 1.41 3.71.88 1.19 2.59 2.62 5.73 2.68l2.75.05.07-2.75c.08-3.22.55-4.19 1.42-5.21 2.11-1.01 4.09-1.1 5.5-.22 1.28.79 1.97 2.3 1.92 4.13-.22 5.78-4.69 12.24-12.59 18.19-20.56 15.5-33.1 32.17-39.45 52.47-2.12 6.79-3.2 17.01-3.06 26.3-10.44-11.65-27.83-29.6-31.14-32.97-.28-.29-.57-.55-.87-.77 3.11-1.95 5.86-4.22 7.34-6.24l.19-.29c2.9-5.24 2.83-13.94-1.63-17.31-4.67-3.53-8.87-3.08-11.7-1.26.65-17.64.23-36.21-.16-54.2-.99-44.7-2.01-90.92 12.09-132.05l1.49-4.35-4.54.71c-41.34 6.47-46.08 110.16-45.81 189.24-1.56-.58-3.4-.73-5.58-.71-2.88.02-9.56 1.22-9.56 11.78 0 6.74 5.2 13.42 13.1 17.34-.17.14-.33.29-.48.44-2.26 2.27-3.24 6.1-.99 10.14-4.43 3.92-4.29 7.49-3.38 9.8.48 1.22 1.29 2.33 2.31 3.32-1.14 1.31-1.14 3.72-1.14 4.96 0 3.13 1.35 5.85 3.76 7.94 0 0 0 .02-.01.03-1.14 2.35.55 6.21 2.12 8.2 2.66 3.38 6.07 5.52 9.64 6.27-.62.95-1.85 2.21-3.04 3.18-.07-.27-.15-.54-.24-.79-.63-1.79-1.7-2.99-3.09-3.48-2.74-.96-5.39-.46-7.27 1.38-2.31 2.26-2.95 6.06-1.67 9.91l.05.13c1.27 3.27 3.74 5.35 6.96 5.87 2.4.38 4.95-.13 7.18-1.03-1.38 4.43-3.66 7.4-5.84 9.78l-1.6 1.75 1.47 1.86c5.15 6.48 7.2 13.54 5.37 18.44-1 2.67-3.1 4.61-6.26 5.81-.22-3.58-1.71-6.63-7.17-7.67l-.44-.05c-2.68-.08-4.94.74-6.59 2.34-1.79 1.74-2.73 4.31-2.73 7.43 0 7 5.76 12.29 13.39 12.29l.33-.02c1.78-.22 3.29-.53 4.61-.94-2.46 2.88-5.6 5.38-9.52 6.48l-4.41 1.24 3.15 3.33c6.31 6.67 12.23 5.63 16.59 3.22.23 4.55 2.53 7.71 6.65 12.37l2.36 2.53 2.03-2.83c3.83-5.35 5.6-7.82 6.17-12.29 1.9 1.2 4.07 2.05 6.49 2.05.05 0 .11 0 .16 0 3.35-.05 6.5-1.7 9.63-5.03l2.94-3.13-4.06-1.39c-5.39-1.85-8.96-4.24-11.46-8.02 4.54 2.02 9.6 2.53 13.52.96 6.97-2.81 7.49-7.51 7.42-12.08-.09-5.97-5.62-9.16-9.58-9.16-2.44 0-4.91 1.24-6.46 3.25-.76.98-1.52 2.4-1.75 4.35-4.03-1.58-6.44-3.96-7.17-7.11-1.3-5.57 2.79-12.47 7.29-16.14l2.63-2.14-2.62-2.15c-3.34-2.73-5.79-5.02-7.4-9.24 1.66.75 3.67 1.33 6.16 1.38h.16s.16-.01.16-.01c2.79-.27 4.99-1.42 6.57-3.01-1.22 3.81-.75 8.06 1.34 12.99l1.8 4.24 2.9-3.58c3.77-4.64 5.32-4.91 5.74-4.91 1.2.07 3.25 3.33 5.07 6.21.61.96 1.25 1.98 1.94 3.04 3.37 5.62 17.96 27.84 24 27.84.74 0 2.29 0 8.68-6.12 5.02-4.76 8.98-10.03 12.89-15.47 1.54 1.21 3.15 2.37 4.8 3.47 3.57 2.37 9.63 5.32 12.07 6.47 7.01 3.32 8.71 3.78 9.63 3.67 5.04 20.29 6.59 34.45 5.02 45.83-1.07 7.73-2.54 11.96-4.77 13.71-1.5 1.18-3.01 1.8-8.89-.89-7.06-3.23-13.53-2.81-17.75 1.14-2.47 2.32-10.47 11.7-10.93 14.43l-.21 1.28.85.98c2.11 2.45 6.04 2.46 8.81 1.44.69-.26 1.31-.58 1.84-.95.1.15.21.29.32.43 2.14 2.64 5.74 2.82 8.58 2.68 4.09-.13 6.46-1.1 7.94-2.47.17.22.35.43.56.63 2.09 2.08 5.74 2.93 12.46 2.9 6.32-.02 8.49-.49 12.87-2.77l3.65-1.9 3.65 1.16c5.55 1.75 14.68 2.2 18.59.18 4.2-2.17 6.52-4.7 7.11-7.75.86-4.47-2.38-8.82-4.88-11.7-1.71-1.97-1.73-2.67-1.73-2.67.09-.21.86-1.33 7.14-3.21l.19-.06c13.28-5.02 18.37-11.71 18.13-23.89l-.14-7.26-4.73 5.5c-2.98 3.46-6.01 2.5-7.55 1.62-2.96-1.69-5.2-5.82-3.84-9.81l.09-.34c.91-4.47 4.2-13.26 10.01-22.81l1.98-.48c.9-.22 22.14-5.38 32.91-9.43 4.8-1.81 16.2-6.36 25.42-10.15 21.03-8.65 37.07-14.15 46.39-15.91l.09-.02.21 1.71c.07 9.01 5.56 21.71 15.47 35.79 8.13 11.54 12.81 19.26 13.91 22.94.74 2.46.43 13.01.07 21.94-.71 18.08-.85 18.72-2.1 20.05-1.72 1.83-5.41 1.79-10.97-.12-6.03-2.08-12.94-3.8-18.43-.88-4.55 2.42-7.66 7.56-10.09 16.66l-.37 1.38.91 1.1c2.35 2.83 8.57 3.6 12.15 2.34 1.01-.35 1.86-.86 2.52-1.49.94 1.57 2.24 2.82 3.73 3.63 5.81 3.12 10.59-.85 13.72-4.26.54 2.03 1.54 3.89 3.3 5.07 4.26 2.84 10.21.47 19.07-3.33 6.54 2.8 14.62 3.39 20.08 1.39.69-.25 1.35-.55 1.95-.88-.39.8-.79 1.46-1.1 1.84l-2.69 3.22 4.02 1.22c4.13 1.25 8.54.77 12.1-1.31.43-.25.84-.52 1.22-.81.03.34.06.69.1 1.04l.27 2.46h2.47c.18 0 .36 0 .53 0 9.45 0 13.08-.88 14.64-4.51.46.45.97.84 1.52 1.18 4.24 2.59 10.61 1.66 20.06-2.93l.27-.13.23-.18c.41-.32.7-.54.87-.64.4.1 1.23.45 1.57.59 2.34.98 6.9 1.49 10.19 1.49 3.86 0 15.6 0 15.6-11.19 0-4.29-3.61-7.9-9.03-12-1.51-1.14-2.61-2.63-3.01-4.09-1.27-4.58-.82-13.4.19-15.34.81-1.56 3.83-3.28 5.79-3.66 12.11-2.35 12.6-16.58 12.83-23.43l.18-5.3-4.46 2.88c-3.27 2.11-6.25 2.3-9.11.57-5.8-3.51-9.43-13.71-8.81-20.49.86-9.35 2-17.68 8.82-39.79 8.89-28.83 11.67-38.62 11.11-52.56-.89-22.05-7.57-33.68-20.37-47.25 11.25-8.82 18.14-19.91 19.04-30.79 1.43-17.33-6.59-30.45-23.84-39-14.58-7.22-33.49-9.11-59.5-5.93l-.12.02c-15.88 2.66-35.36 2.74-42.39-5-2.89-3.18-3.54-7.58-1.97-13.43l1.09-4.09-4.19.63c-5.37.81-7.91 3.85-9.09 6.25-1.54 3.13-1.67 6.85-1.04 10.46-4.82-5.96-4.2-12.58-3.49-15.79 1.25-3.7 6.28-7.46 8.81-7.23l3.2.28 8.85 3.73c9.67 4.07 15.15 1.09 18.04-2.14 6.48-7.22 5.88-22.62 3.01-32.63 8.72 4.14 11.11 11.29 11.76 15.19.92 5.53-.49 11.36-3.42 14.17l-4.18 4 5.74.75c2.9.38 12.41-1.27 15.73-3.92 4.82-3.85 7.15-8.99 6.86-14.65 1.86 2.63 3.8 6.01 6.07 11.09.17.39.37.84.58 1.34 2.84 6.69 9.5 22.34 28.28 24.72l7.66.97-5.29-5.62c-3.66-3.89-4.83-8.46-6.08-13.3 0-.03-.02-.07-.03-.1.81.83 1.76 1.8 2.9 2.96 14.46 14.66 20.86 19.22 29.79 21.22 7.14 1.59 14.31.22 19.18-3.68 3.61-2.89 5.6-6.91 5.6-11.31s-1.79-8.35-4.91-10.72Zm-75.24 309.66c-11.43-.3-15.64.61-18.37 6.08-.53-2.82-1.45-5.6-2.57-7.8-1.11-2.19-2.41-5.69-2.85-7.64-.76-3.41-.62-4.24 2.8-7.05 8.51-6.99 11.55-10.34 12.81-16.4.63-3.05.15-7.17.09-7.63l-.68-5.49-3.99 3.83c-2.76 2.65-9.28 3.32-11.92 1.25-2.01-1.94-.54-4.5 4.81-11.1 3.58-4.41 7.61-9.37 8.94-14.99 2.06 1.57 3.97 2.98 5.51 4.08 9.79 6.94 17.21 14.39 18.73 17.58 1.31 2.75 1.41 6.27.68 23.54-.68 16.18-1.25 18.02-3.88 20.23-1.74 1.46-2.06 1.72-10.12 1.52Zm-133.84-215.36l.14.15s-.04 0-.06-.01l-.08-.14Zm15-74.44c-3.62 5.89-4.78 14.66-2.74 20.84.04.11 3.87 10.82 9.08 11.63l2.51.39.61-2.47c1.38-5.6 3.72-9.27 6.96-10.89 5.22-2.62 12.67-.07 18.58 2.44l.1.04c15.42 5.86 18.9 6.48 33.78 6.01 11.67-.37 14.75-.82 27.45-4.01 17.05-4.29 23.54-4.88 34.73-3.17 13.79 2.1 25.51 9 29.87 17.55 1.46 2.87 1.83 4.33 1.83 9.84 0 5.58-.22 6.68-2.27 10.68-1.41 2.77-3.5 5.41-5.46 6.9-5.31 4.05-8.18 4.84-29.25 4.85-19.4.01-30.21.83-68.01 5.13-28.62 3.26-50.11 2.87-65.67-1.19l-8.28-2.16c-2.28-4.16-2.68-6.97-2.7-11.7 0-2.5-.24-4.59-.69-6.27 2.22.86 4.46 1.33 6.65 1.28l6.43-.17-4.53-4.56c-2.75-2.76-6.8-12.4-9.39-19.86 1.38.83 2.71 1.53 3.92 2l9.17 3.56-5.96-7.83c-1.38-1.81-2.56-7.21-2.02-13.61.56-6.32-.33-10.87-.98-14.19-.12-.63-.24-1.21-.33-1.75 5.9 1.82 11.84 1.75 16.04-.15l1.5-.68-.93 1.51Zm-233.99 175.02s-.07 0-.11 0c-2.44 0-3.94 1.05-4.78 1.94-.76.81-1.31 1.82-1.65 3.04-.84-.74-1.56-1.6-2.17-2.6 8.55-6.09 10.61-6.25 10.86-6.23.13.04.31.1.53.14 1.57 1.02 5.24 7.13 7.02 10.09.17.29.34.57.51.84-1.29 1.07-2.39 2.18-3.3 3.32.17-.74.26-1.5.27-2.24 0-4.84-2.95-8.25-7.17-8.31Zm287.24-198.37l-6.86-4c-7.98-4.66-15.02-5.57-20.91-2.71-5.35 2.6-8.6 7.89-10.19 13.04-5.57-5.08-5.96-10.94-5.6-14.26.71-6.65 5.12-12.56 10.97-14.71l.37-.17c2.57-1.4 5.47-2.1 8.42-2.1s5.73.65 8.43 1.94c1.59.76 3.8 3.87 4.4 6.9.25 1.27.15 2.3-.26 2.75l-4.81 5.32 7.14-.69c6.23-.61 10.12-4.26 10.4-9.77.28-5.48-2.98-11.75-7.57-15.92 1.7.3 3.29.96 4.77 1.98 6.12 4.22 9.46 13.97 9.61 21.41v.16c.25 3.16-2.41 9.86-3.9 10.68l-4.39.17Zm222.75 425.8c-.59 0-1.21-.02-1.87-.06-22.46-1.46-23.62-20.29-24.64-36.9-.1-1.57-.19-3.13-.3-4.67-.71-4.09-1.98-8.98-3.21-13.7-.8-3.07-1.55-5.96-2.15-8.62-1.33-5.9-1.62-15-1.63-15.39-.02-.71.45-1.33 1.14-1.5.69-.17 1.4.16 1.71.79.07.13 6.73 13.59 13.86 18.94 4.94 3.71 12.65 5.66 20.1 7.54 8.95 2.26 18.21 4.6 23.67 10.1 10.59 10.5 2.81 23.84.26 28.23-.25.43-.53.91-.64 1.13-.13 1.56.09 3.15.33 4.83.12.9.25 1.83.33 2.76.03.41-.11.82-.39 1.13-.28.31-.67.48-1.09.49-.08 0-7.75.1-10.9.59-1.57.24-2.82.88-4.27 1.62-2.35 1.2-5.22 2.66-10.29 2.66Zm-631.74 0c-5.07 0-7.94-1.46-10.29-2.66-1.45-.74-2.7-1.38-4.27-1.62-3.15-.49-10.83-.59-10.9-.59-.42 0-.81-.18-1.09-.49-.28-.31-.42-.71-.39-1.13.07-.94.2-1.86.33-2.76.23-1.68.46-3.28.33-4.83-.11-.22-.39-.7-.64-1.13-2.56-4.39-10.33-17.73.27-28.24 5.46-5.5 14.71-7.83 23.67-10.1 7.45-1.88 15.16-3.83 20.1-7.54 7.14-5.36 13.79-18.81 13.86-18.94.31-.63 1.02-.96 1.71-.79.69.17 1.16.8 1.14 1.5-.01.38-.3 9.49-1.63 15.39-.6 2.65-1.35 5.55-2.15 8.61-1.23 4.72-2.5 9.6-3.21 13.7-.11 1.54-.21 3.1-.3 4.67-1.02 16.61-2.18 35.44-24.64 36.9-.65.04-1.28.06-1.87.06Zm599.43-490c-.12 0-.24-.01-.36-.04-.69-.17-1.16-.8-1.14-1.5.01-.38.3-9.49 1.63-15.39.6-2.65 1.35-5.55 2.15-8.62 1.23-4.72 2.5-9.6 3.21-13.69.11-1.54.21-3.1.3-4.67 1.02-16.61 2.18-35.44 24.64-36.9 6.27-.4 9.54 1.26 12.16 2.6 1.45.74 2.7 1.38 4.27 1.62 3.15.49 10.83.59 10.9.59.42 0 .81.18 1.09.49.28.31.42.71.39 1.13-.07.94-.2 1.86-.33 2.76-.23 1.68-.46 3.28-.33 4.83.11.22.39.7.64 1.13 2.56 4.39 10.33 17.74-.27 28.24-5.46 5.5-14.71 7.83-23.66 10.09-7.45 1.88-15.16 3.83-20.1 7.54-7.13 5.35-13.79 18.81-13.86 18.94-.26.52-.79.84-1.35.84Zm-567.13 0c-.56 0-1.09-.32-1.35-.84-.07-.13-6.73-13.59-13.86-18.94-4.94-3.71-12.65-5.66-20.1-7.54-8.95-2.26-18.21-4.6-23.67-10.1-10.59-10.5-2.81-23.85-.26-28.23.25-.43.53-.91.64-1.13.13-1.56-.09-3.15-.33-4.83-.12-.9-.25-1.83-.33-2.76-.03-.41.11-.82.39-1.13.28-.31.67-.48 1.09-.49.08 0 7.75-.1 10.9-.59 1.57-.24 2.82-.88 4.27-1.62 2.63-1.34 5.89-3 12.16-2.6 22.46 1.46 23.62 20.29 24.64 36.9.1 1.57.19 3.13.3 4.67.71 4.09 1.98 8.97 3.21 13.7.8 3.07 1.55 5.97 2.15 8.62 1.33 5.9 1.62 15 1.63 15.39.02.71-.45 1.33-1.14 1.5-.12.03-.24.04-.36.04Z" />
  <path d="m215 60h165v600h-165V60Z" fill="#df7500" />
  <path d="m50 60h165v600H50V60Z" fill="#005f56" />
  <path
    d="m564.43 356.08c11.67 4.73 23.56 5.01 35.35.83-3.57-4.07-4.26-7.87-2.24-12.26.86-18.67.44-37.69 0-57.83-.99-44.82-2.02-91.16 12.12-132.7-18.48 3.25-31.16 29.55-37.69 78.19-5.5 40.95-5.26 88.3-5.14 111.09 2.74 7.59 0 11.41-2.38 12.68Zm35.22 18.37c-.27-1.65-.58-3.3-.92-4.92-.66.15-1.31.29-1.96.44-6.75 1.52-12.6 2.83-18.76 2.38.37.43 1.74 1.36 3.68 1.93 3.11.9 14.41.52 17.95.18Zm-13.84 36.29c4.77-4.1 8.57-7.37 8.55-13.97-.63.62-1.56 1.38-2.6 2.24-2.74 2.26-6.47 5.33-8.26 8.5l2.12 3.4.19-.16Zm4.23-33.47c1.16 1.43 1.71 3.15 1.44 4.52 3.52-.96 5.56-2.43 8.43-5.21-3.64-.16-7.03.08-9.87.69Zm337.52 155.17c-1.22-2.41-2.61-6.15-3.1-8.34-1.05-4.68-.3-6.66 3.83-10.04 8.55-7.03 10.75-9.77 11.76-14.68.43-2.08.21-5.01.1-6.16-4.02 3.43-12 4-15.62 1.02-4.54-4.21-.37-9.34 4.45-15.28 3.52-4.33 7.5-9.24 8.48-14.44-4.32-4.19-9.11-8.44-14.18-12.93-3.93-3.48-7.99-7.08-11.87-10.7-9.66-9.01-25.77-13.6-41.05-11.69-1.88.23-4.07.36-4.82.39l.32 2.67c0 8.44 5.3 20.59 14.92 34.25 8.55 12.14 13.11 19.71 14.34 23.81.7 2.34.76 8.77.2 22.93-.76 19.17-.84 19.79-2.92 22-2.65 2.81-7.28 3.03-14.16.66-7.68-2.64-12.47-2.96-16.03-1.07-3.72 1.98-6.37 6.5-8.56 14.65 1.45 1.56 6.02 2.27 8.74 1.33.95-.33 2.08-1.02 2.11-2.41.04-3.43.69-4.67 3.48-6.62l.78-.55-.41.86c-2.27 4.78-.4 9.37 2.72 11.04 4.79 2.58 8.75-2.05 11.64-5.44 1.09-1.28 1.95-2.29 2.67-2.68l.37-.2v.43c-.06 4.83.76 7.64 2.58 8.86 3.07 2.04 9.02-.51 17.27-4.05l.16-.07.1.05c5.95 2.88 13.9 3.63 18.91 1.81 2.42-.89 4.08-2.29 4.92-4.17 1.31-3.37.33-10.35-2.14-15.23Zm-360.27-164.72c8.71 2.78 26.05.61 29.97-.58 5.04-1.54 11.78-5.88 14.14-9.1 2.24-4.04 2.31-11.04-.83-13.41-4.2-3.18-7.65-2.12-9.48-.08-2.17 2.43-2.69 6.78.22 9.84l2 2.12-.24.16c-12.74 8.61-32.26 5.31-41.45-.38l-.36-.22.37-.21c3.42-1.92 5.14-6.18 4.01-9.9-1.53-2.81-3.14-3.36-7.03-3.36-.13 0-.27 0-.4 0-4.36.04-6.56 2.98-6.56 8.75 0 6.68 6.43 13.4 15.64 16.34Zm457.32-142.17c-2.13-1.62-4.85-2.09-7.67-1.32-3.06 1.18-5.04 2.8-5.88 4.81-1.16 2.81.17 5.81.89 7.42l.21.48h-.38c-2.89 0-12.29-4.22-18.32-8.71-2.84-2.12-11.69-9.97-19.72-17.51-22.89-21.48-30.51-27.04-45.29-33.05-23.08-9.38-46.07-10.52-68.33-3.38-17.82 5.72-27.82 15.36-32.4 31.24-1.08 3.73-1.35 6.96-1.04 12.34.48 8.34 2.67 13.62 7.83 18.86l3.24 3.28-2.81 4.56c-3.15 5.12-4.2 12.99-2.45 18.31 1.13 3.42 4.33 8.87 6.45 9.53 1.61-6.37 4.46-10.62 8.48-12.63 6.33-3.17 14.61-.4 21.11 2.36 15.06 5.73 18.11 6.27 32.6 5.82 11.38-.36 14.39-.8 26.81-3.92 17.33-4.36 24.38-4.99 35.92-3.23 14.72 2.25 27.32 9.77 32.11 19.17 1.77 3.48 2.16 5.47 2.16 11.2.01 6.04-.33 7.62-2.6 12.06-1.63 3.19-3.99 6.16-6.32 7.93-6.22 4.74-10.29 5.46-31.08 5.47-19.26.01-30.01.82-67.67 5.11-28.48 3.24-50.05 2.9-65.9-1.05 1.46 1.38 2.65 1.78 4.33 2.36 1.18.4 2.66.91 4.6 1.92l.12.06.02.13c.08.59-.25 1.25-.98 1.98-3.04 3.04-12.62 6.66-17.53 6.02-4.16-.83-7.88-2.34-12.14-4.36.72 3.71 2 5.66 3.9 8.56.27.41.55.84.84 1.3l.43.66-.73-.3c-3.52-1.42-6.96-3.54-10.29-5.59-1.18-.73-2.31-1.42-3.41-2.06.56 3.56 7.83 12.06 13.69 14.99l-.12.47c-13.35-.45-20.39-5.24-26.9-10.59-1.58 7.01-6.58 13.06-10.78 17.57l-.46.5.03-.68c.22-4.75-3.36-9.63-6.83-14.34-2.92-3.97-5.68-7.72-5.93-11.13l-.05-.72.49.53c4.78 5.22 8.54 11.46 11.56 16.47.84 1.39 1.64 2.72 2.35 3.83 5.46-5.86 7.5-10.83 7.49-18.21v-.77s.45.63.45.63c4.21 5.82 11.51 12.5 18.45 12.52-4.69-6.57-7.18-11.16-7.76-17.59l-.06-.66.48.46c2.85 2.72 5.96 4.84 9.26 7.09.62.42 1.24.85 1.86 1.27-.1-1-.23-1.99-.36-2.95-.31-2.27-.62-4.62-.52-7.27l.03-.83.43.71c2.57 4.22 7.54 7.08 13.65 7.84 6.35.8 12.63-.91 16.52-4.47-1.26-.35-3.98-1.59-6.29-2.79-3.86-2.01-7.58-3.02-12.85-3.46-6.16-.66-11.12-1.54-15.31-3.69-4.08-2.08-7.28-5.29-10.37-10.36-2.4 3.87-4.11 6.54-6.81 10.07l-.26.34-2.35-5.41-4.16 17.17-3.82-2.09c-3.73-2.05-11.09-7.56-12.85-12.06-.88 1.7-1.25 3.39-1.88 9.58l-.02.24h-.24c-11.55-.62-22.26-16.18-24.36-20.41-.58 2.31-1.59 6.18-2.88 9.12-2.21 5.04-2.46 6.27-1.76 8.77l1.03 3.74-3.91-3.1c-1.84-1.46-4.18-4-5.2-5.66-1.04-1.68-2.02-2.5-2.22-2.44-.26.16-1.18 1.83-2.07 4.16-.5 1.32-1.07 2.15-1.53 2.81-.28.4-.5.72-.62 1.03l-.12.3-.26-.19c-1.85-1.32-4.7-4.76-5-7.53l-.27-2.49.48-.13 1.2 2.57c.62 1.34 2.12 3.62 2.83 4.34.81-.7 1.8-4.37 2.6-7.34.87-3.24 1.7-6.3 2.55-7.3l.44-.52v.68c0 3.3 2.08 8.61 4.73 12.09l1.92 2.52 3.16-7.37c1.82-4.25 3.32-9.14 3.33-10.89l.04-4.1.46.75c7.12 11.67 13.96 20.24 24.1 24.1l2.25-15.12.35.71c3.95 7.96 10.2 15.01 15.95 18 .09-.03.2-.12.31-.27 1.51-2 2.97-12.6 1.92-16.35-.75-2.67-4.58-7.5-5.74-8.02-.22.77-.42 1.56-.62 2.39-.78 3.21-1.59 6.54-4.28 8.99l-.19.18-.17-.2c-3.25-3.87-6.68-8.28-9.71-12.17-2.74-3.52-5.12-6.59-6.78-8.49l-2.53 17.04-.36-.47c-1.67-2.16-4.03-4.35-6.53-6.67-5.49-5.09-11.72-10.85-12.97-18.58l.45-.19c.56.79 1.14 1.61 1.73 2.47 3.62 5.22 8.11 11.7 15.86 17.48.17-1.48.8-5.02 1.47-8.74.85-4.76 1.82-10.15 1.85-11.55l.49-.05c1.32 5.87 12.15 22.5 17.24 26.54 1.89-2.25 3.09-7.43 2.7-11.73l-.63-6.94.54.76c1.33 1.88 2.94 4.54 4.64 7.34 3.12 5.14 6.66 10.97 9.05 12.92.49 0 .97-.22 1.44-.66 2.71-2.54 4.23-11.64 4.27-14.33l.49-.07 1.12 3.58c2.26 7.22 7.73 13.56 13.95 16.16 2.66 1.11 9.02 1.75 12.44 2.1.66.07 1.23.12 1.66.17-2.82-4.97-3.32-8.27-3.34-13.63-.03-6.37-1.54-7.8-2-8.09-4.88-3.02-8.85-6.91-13.27-13.01-2.12-2.92-4.34-7.03-5.04-8.47-1.46 2.49-2.02 5.24-2.48 7.47-.43 2.09-.77 3.74-1.65 4.65l-.1.1-.14-.03c-.64-.16-3.51-3.73-8.93-10.71-.98-1.26-1.8-2.32-2.25-2.88-.95 2.61-4.88 13.24-5.26 13.75l-.07.1-.18.03h0c-.53 0-1.83-1.6-2.22-2.09-1.74-1.56-3.28-2.86-4.65-4.01-4.06-3.42-6.77-5.7-10.06-11.17-.53.86-.69 1.52-.93 2.53-.13.56-.28 1.19-.53 2.02l-.16.53-.29-.47c-.6-.98-11.63-9.59-13.93-10.92l-1.67 13.12-.33-.22c-10.8-7.08-20.56-18.43-19.71-22.92l.14-.72.33.65c1.98 3.9 15.13 15.58 17.56 17.73l.89-16.88.42.82c1.58 3.07 8.11 9.78 12.47 12.81l3.14 2.19c0-1.7.02-3.44.05-5.13.1-6.47.21-13.17-1.62-19.27l.45-.21c2.61 3.83 11.81 12.33 13.19 12.55.58-3.01.57-5.68.56-8.51 0-1.72 0-3.5.12-5.45l.04-.54.39.38c2.07 2.02 2.83 3.11 3.43 3.98.69 1 1.2 1.73 3.23 3.33l2.03-10.66 1.9 3.12c2 1.93 3.76 3.8 5.46 5.61 3.3 3.52 6.42 6.84 10.61 9.75 4.75-7 4.93-14.08 5.13-22.25.02-.69.03-1.39.05-2.09l.49-.06c1.06 3.95 1.26 7.7 1.46 11.34.29 5.45.57 10.61 3.89 15.17 1.65 2.27 10.16 9.77 15.8 12.32-1.8-3.06-2.67-8.91-2.16-15 .52-5.89-.29-10.02-.94-13.34-.23-1.18-.43-2.2-.54-3.14-2.57-1.57-7.45-5.88-9.95-11.05l.42-.26c5.77 7.47 18.47 12.97 27.11 9.39l-2.84-2.17c-2.29-1.75-4.18-4.51-6.5-9.53-2.35-5.08-4.3-7.92-7.22-10.49-2.5-2.2-4.33-3.46-4.65-3.5h0c-.16 0-.26-.1-.29-.19-.07-.19-.2-.53 3.5-3.88 7.57-6.85 11.81-18.04 11.55-23.06-2.58 2.58-15.2 11.74-26.83 9.48l-.26-.05.07-.26c1.38-5.4-7.31-16-12.63-18.34 1 3.8.06 8.19-2.55 11.86-2.43 3.41-5.89 5.51-9.25 5.61-4.28 0-7.97-2.23-11.95-7.23-4.78-5.99-10.13-8.9-16.37-8.9-.09 0-.19 0-.28 0-1.08.02-2.15 0-3.19-.02-.75-.01-1.53-.02-2.3-.02h-.05c1.89 1.35 3.61 3.71 3.61 6.11 0 1.78-1.6 4.42-3.71 6.13-1.35 1.09-2.66 1.58-3.69 1.35-3.44-.73-7.11-2.39-10.66-4-6.56-2.97-13.34-6.04-19.39-3.78 1.18.75 2.04 2.89 2.15 5.48.16 4.22-1.78 9.34-7.71 11.04-9.29 2.66-31.88 8.81-41.15 8.19l-.61-.04.46-.4c4.83-4.16 5.43-8.64 3.87-11.24-1.44-2.41-4.48-3.15-7.74-1.89-6.36 2.46-10.04 6.88-10.93 13.14-1.88 13.15 9.3 31.92 20.68 40.89-.17-1.1-.36-2.05-.53-2.9-.25-1.24-.46-2.31-.56-3.52l-.05-.56.45.34c4.66 3.57 11.8 7.46 16.07 9.79l.36.2c.11-2.62 1.1-5.67 1.77-7.15l.21-.46.24.44c3.36 6.17 8.66 11.74 12.16 15.42.95 1.16 1.91 2.29 2.86 3.41 5.39 6.36 10.48 12.37 11.02 20.06l.04.63-.46-.43c-9.66-8.98-20.36-10.96-31.8-5.88l-.27-.42c3.3-2.95 4.95-5.28 4.41-6.25-.29-.53-1.6-1.18-7.01.42-7.53 2.29-15.02 1.99-20.55-.83l-3.24-1.65c.26 10.18-3.74 22.41-11.8 25.7 2.72 2.85 5.58 4.05 8.48 3.55 4.72-.8 8.5-5.93 10.47-10.47l.48.14c-.97 5.32-.76 9.69-.34 13.61 3.91-3.05 8.21-6.73 10.81-11.86l.41-.8.07.89c.04.58.08 1.19.12 1.82.29 4.62.65 10.33 3.78 12.83.07-2.78.84-11.72 7.68-13.93l.45-.14-.13.45c-1.43 5.03-1.51 8.31-.23 10.04.67.9 1.68 1.37 3.11 1.45.13-4 .9-5.49 2.53-7.28l.07-.05c3.24-1.73 6.49-1.85 8.94-.34 2.19 1.36 3.43 3.91 3.34 6.81-.25 6.7-5.15 13.98-13.79 20.49-20.03 15.1-32.23 31.3-38.39 50.96-3.16 10.08-3.91 28.04-1.62 38.42 4.31 19.53 14.9 35.37 30.62 45.8 5.34 3.55 17.24 8.94 19.43 9.58-3.16-10.71-3.62-27.74-2.66-39.99l.49-.03c.52 2.44 1.11 8.28 1.79 15.04 1.04 10.33 2.33 23.19 3.77 26.77 5.26 21 6.87 35.65 5.23 47.54-1.2 8.68-2.96 13.37-5.89 15.67-2.96 2.33-6.1 2.19-12.01-.51-5.88-2.7-11.14-2.47-14.42.6-3.3 3.09-9.47 11.06-9.98 12.61 1.11 1.14 3.58 1.15 5.38.48 1.36-.5 2.17-1.31 2.17-2.16 0-.98 1.89-4.35 2.78-5.15l.63-.57-.22.82c-.97 3.66-.9 6.1.2 7.47 1 1.24 2.9 1.71 6.13 1.56 6.03-.19 6.8-2.32 7.54-4.39.49-1.35.99-2.75 2.91-3.5l.59-.23-.28.57c-.51 1.05-.94 2.98-.94 4.2 0 1 .3 1.78.91 2.39 1.4 1.39 4.5 2.02 10.05 2.02h.27c5.91-.02 7.51-.36 11.48-2.43l4.76-2.48 4.85 1.53c5.33 1.68 13.4 1.87 16.3.37 3.37-1.74 5.12-3.53 5.53-5.63.46-2.42-.87-5.32-4.19-9.15-2.05-2.36-2.77-4.05-2.35-5.5.57-1.96 3.22-3.48 9.17-5.25 11.9-4.5 16.2-9.87 16.17-20.37-3.11 3.27-7.15 3.94-10.91 1.79-3.96-2.27-7.13-7.73-5.2-13.41 1.25-6.15 6.8-20.14 16.92-33.31 7.38-9.61 18.82-44.36 20.6-50.72l.49.08c-.68 15.66-7.3 33.67-18.64 50.71-2.78 4.17-4.11 6.58-4.62 7.53 3.41-.84 22.36-5.56 32.02-9.2 4.77-1.8 16.14-6.33 25.33-10.11 21.22-8.72 37.46-14.28 46.98-16.08 13.49-2.55 30.94-.5 41.5 4.87 3.03 1.54 5.19 3.27 25.77 20.58 5.35 4.5 13.54 10.89 18.27 14.24 9.44 6.69 17.73 14.57 19.71 18.75 1.6 3.36 1.73 6.86.97 24.96-.7 16.62-1.3 19.34-4.95 22.41-2.47 2.08-3.21 2.46-12.14 2.23-14.96-.38-15.3.93-18.51 13.53l-.17.67c-.56 2.2-1.97 5.58-3.21 7.26 3.22.88 6.61.47 9.35-1.13 2.22-1.3 3.7-3.2 4.18-5.37.65-2.95 2.54-5.55 4.4-6.04l.52-.14-.23.49c-2.18 4.59-3.63 7.64-3.04 13.34 12.07.02 12.23-1.25 12.82-5.41.21-1.51.47-3.39 1.35-5.7l.48.08c.09 4.08 1.23 6.82 3.39 8.14 3.23 1.97 8.84.97 17.16-3.07 2.05-1.62 2.51-1.66 5.43-.44 1.69.71 5.65 1.26 9.02 1.26 8.82 0 12.58-2.44 12.58-8.17 0-2.6-2.27-5.38-7.83-9.58-2.06-1.55-3.52-3.58-4.1-5.7-1.36-4.89-1.12-14.56.42-17.54 1.39-2.69 5.48-4.77 7.9-5.24 8.43-1.63 10-10.57 10.37-20.09-4.09 2.49-8.2 2.62-11.91.37-6.93-4.19-10.96-15.67-10.25-23.35.88-9.54 2.04-18.01 8.94-40.4 8.77-28.46 11.52-38.1 10.98-51.55-.9-22.43-7.71-33.2-21.7-47.53l-.2-.21.24-.17c12.03-8.58 19.45-19.7 20.34-30.49 1.32-15.97-6.14-28.1-22.17-36.04-14.03-6.95-32.4-8.74-57.79-5.64-8.08 1.35-35.24 4.93-45.12-5.95-3.52-3.88-4.45-9.22-2.75-15.87-3.08.55-5.25 2.08-6.45 4.54-2.36 4.8-.53 12.12 2.33 17.24l.42.75-.76-.41c-14.76-8.04-13.03-21.2-12.15-25.04 1.44-4.51 6.93-9.08 11.04-9.44-6.72-3.72-12.52-4.44-17.25-2.14-5.86 2.85-8.75 9.69-9.51 15.16l-.05.39-.33-.21c-7.33-4.67-11.06-11.81-10.23-19.6.83-7.76 6.03-14.69 12.93-17.23 5.86-3.19 13.19-3.28 19.57-.21 2.61 1.25 5.32 5.31 6.06 9.04.39 2.01.18 3.68-.61 4.88 5.59-.75 6.95-4.11 7.09-6.85.35-6.87-6.63-15.91-13.34-17.27l-.88-.18.85-.3c5.77-2.06 10.92-1.56 15.31 1.47 5.1 3.52 10.69 12.48 10.91 23.84.24 3.14-1.69 9.66-4.22 12.49-.54.61-1.09 1.02-1.63 1.24 6.09 2.38 10.76 1.82 13.88-1.67 6.93-7.73 4.23-28.01.23-35.21l-.42-.76.76.42c1.96 1.08 2.88 1.25 3.68 1.4.62.12 1.2.22 2.1.71 10.12 4.71 12.9 13 13.65 17.52 1.05 6.32-.52 12.84-3.92 16.46 2.88.06 10.56-1.43 12.92-3.32 6.37-5.08 7.47-12.95 2.95-21.05l-2.25-4.03.4-.29 5.18 5.47c3.73 3.93 6.93 7.72 11.29 17.48.18.4.38.87.6 1.39 2.61 6.12 8.66 20.36 25.19 22.81-3.82-4.33-5.1-9.3-6.34-14.11-.93-3.61-1.89-7.34-3.93-10.75l.37-.32.09.07q3.45 2.78 6.21 5.64c1.13 1.17 2.72 2.82 5.21 5.35 13.97 14.17 20.05 18.55 28.29 20.39 6.25 1.4 12.47.25 16.63-3.08 2.88-2.31 4.47-5.49 4.47-8.96s-1.36-6.52-3.72-8.32Zm-319.14 5.04c-4.01-.88-5.19-3.57-4.95-5.79.33-3.04 3.38-6.27 8.39-6.27 1.39 0 5.17 1.42 8.43 3.16 13.49 7.21 15.39 7.94 22.59 8.75 3.25.36 5.89.5 6.9.54-1.18-1.71-5.41-6.39-10.15-8.79l-.51-.26.54-.2c2.91-1.08 12.65.71 22.65 4.17 8.09 2.79 9.68 3.07 15.44 2.71 3.54-.23 8.09-1.09 10.13-1.93l3.38-1.39c-2.87-2.63-6.28-4.27-9.57-5.86-1.91-.92-3.89-1.88-5.7-3l-.49-.3.56-.15c1.18-.31 7.27-1.88 11.95-1.72 5.37.21 14.68-4.64 20.23-7.53 2.12-1.1 3.64-1.89 4.32-2.08l.87-.25-.62.66c-1.24 1.31-5.98 5.7-9.49 7.46-5.25 2.64-7.54 3.12-13.88 3.66l-6.82.56c4.11 2.54 7.92 5.06 11.94 7.72l1.03.68-.39.19c-17.26 8.41-23.54 6.4-37.31 2-3.08-.99-6.55-2.09-10.59-3.22l8.1 9.5h-.55c-4.79-.09-9.73-.18-14.51-.96h0c-4.63-.76-11.03-3.5-20.75-8.89-5.4-2.99-9.04-3.67-11.79-2.2-2.36 1.26-2.89 3.55-2.2 5.16.54 1.27 2.07 2.47 4.57 1.64 1.4-.46 2.18-1.01 2.27-1.57.12-.79-1.06-1.65-1.77-2.17-.23-.17-.42-.31-.54-.42l-.45-.41.61-.02c1.45-.04 3.45.71 4.5 1.73.52.5.8 1.05.8 1.59 0 .7-.42 1.41-1.21 2.05-1.34 1.08-3.82 1.93-5.93 1.47Zm46.59 97.98c-1.7 6.57-4.44 11.4-7.33 16.52-1.1 1.94-2.23 3.94-3.33 6.09l-.24.47-.21-.49c-2.5-5.88-4.88-12.19-5.39-18.56-.66.71-1.26 1.36-1.82 1.96-6.46 6.91-6.58 7.04-6.26 17.78l.02.69-.46-.52c-3.75-4.24-6.47-9.09-8.1-14.43-1.66 1.61-3.57 3.18-5.42 4.69-5.04 4.13-10.26 8.39-10.75 13.95l-.07.76-2.11-3.49c-2.98-6.06-2.73-10.49-2.39-16.62l.05-.96c-4.87 1.37-6.02 2.3-10.56 5.97l-.66.53-.08-.41c-2.27-11.42 4.61-16.48 9.17-19.83.69-.51 1.34-.99 1.9-1.44l.42-.35-.02.55c-.03 1.03-1.19 2.28-2.79 4.01-2.84 3.08-6.71 7.26-6.54 12.79 4.5-2.96 11.45-7.18 12.88-7.43l.7-.12-.47.53c-1.09 1.24-3 14.62-.28 19.44 1.21-1.61 5.38-6.25 8.66-8.67 3.55-2.62 7.47-6.63 7.97-7.56l.27-.5.19.53c.85 2.38 3.64 7.37 5.35 10.08 2.5-5.25 5.26-8.49 8.17-11.91 1.38-1.62 2.81-3.3 4.32-5.29l.34-.45.11.55c.11.56.25 1.36.41 2.32.76 4.33 2.49 14.28 3.76 15.4 2.48-2.65 4.84-7.33 6.74-11.11 1.55-3.07 2.67-5.29 3.48-5.78l.52-.32-.15.59Zm-175.99 78.23c3.75.08 5.11 0 6.42-1.91 1.31-1.9 1.7-3.3 1.18-4.29-.73-1.38-3.35-2.08-7.79-2.08-.11 0-.21 0-.32 0-4.43 0-7.57-1.29-10.9-2.65-1.05-.43-2.14-.88-3.3-1.3-.12.29-.28 1.24-.28 2.79 0 5.46 6.02 9.25 14.99 9.42Zm28.99 60.48c-1.14 0-2.89.54-4.07 2.07-.84 1.09-1.67 3.05-.84 6.25l.1.4-.4-.09c-9.32-2.14-12.27-6.88-13.11-10.48-1.57-6.73 2.85-14.58 8.09-18.98-4.84-3.99-8.37-7.66-9.79-17.27l-.07-.45.41.18c.57.25 1.19.7 1.91 1.22 1.87 1.35 4.42 3.2 8.51 3.29 4.59-.44 6.72-3.99 6.74-7.11 0-3.18-1.64-5.25-4.19-5.28-.02 0-.05 0-.07 0-1.09 0-1.96.33-2.58.99-.99 1.05-1.39 2.95-1.19 5.64l.03.41-.38-.16c-4.91-2.04-7.88-5.73-9.34-11.61-2.41 1.77-4.92 2.42-6.44 2.81-.65.17-1.39.36-1.47.51-.34 1.94-3.34 5.09-5.8 6.67-1.01.65-2.44 1.37-3.49 1.09l-.33-.08.18-.29c.47-.76.46-2.43-.02-3.8-.31-.87-.76-1.46-1.24-1.63-1.64-.58-3.11-.33-4.15.69-1.45 1.42-1.81 4.1-.92 6.81.89 2.28 2.44 3.62 4.61 3.96 3.93.62 9-2.22 10.44-3.98l.52-.63-.07.81c-.81 8.82-4.49 13.94-7.65 17.42 5.79 7.37 7.92 15.28 5.7 21.21-1.7 4.53-5.83 7.52-11.94 8.64l-.33.06.03-.33c.55-5.75-.44-7.54-4.59-8.33-1.8-.06-3.29.45-4.36 1.49-1.19 1.16-1.82 2.98-1.82 5.27 0 5.37 4.36 9.26 10.37 9.26 6.29-.76 8.44-2.78 12.35-6.44.34-.32.7-.66 1.08-1.01l.4.28c-2.29 5.68-7.56 15.57-17.18 18.51 6.16 6.28 11.44 4.05 17.45-1.23l.6-.53-.19.77c-1.8 7.32-.6 9.8 4.96 16.11 4.98-6.96 5.88-8.28 5.68-16.07l-.02-.63.44.44c3.4 3.4 6.15 4.93 8.88 4.93.04 0 .08 0 .11 0 2.4-.04 4.76-1.28 7.21-3.8-9.47-3.35-14.17-8.74-16.7-19.11l.45-.21c3.65 5.09 12.54 9.13 18.53 6.72 5.23-2.11 5.59-5.16 5.53-9.23-.06-3.98-3.91-6.18-6.55-6.18Zm-45.35-79.29c2.01 5.13 13.7 8.36 17.39 8.36.05 0 .1 0 .15 0 3.13.13 5.45-.63 6.93-2.25 1.42-1.55 2-3.83 1.69-6.6-9.56 0-15.45-.32-23.72-5.83-2.41 2.17-3.23 4.3-2.44 6.32Zm128.13-113.8c5.42 0 10.23 1.77 15.36 4.43-5.9-14.86-24.94-15.83-33.14-16.25-.93-.05-1.73-.09-2.37-.14h-.03c-2.45-.48-5.04-.66-7.77-.86-5.64-.4-11.46-.82-16.35-3.91.36 5.02 4.75 10.02 8.8 12.61 4.07 2.53 13.64 2.73 20.48.42 3.8-1.28 6.28-1.47 7.78-.6.91.52 1.48 1.43 1.74 2.76.16.78-.13 1.67-.35 2.2 2.04-.45 3.97-.66 5.83-.66Zm-95.3 109.8c-1.67.68-2.51 1.02-4.9 2.92v.23c.17 2.47.23 3.4.66 5.16 2.71-1.46 5.05-5.27 5.42-8.8-.44.19-.83.35-1.18.49Zm181.23-119.74c1.15 4.31 3.62 8.3 8.83 14.21l3.02 3.43 4.03-14.61 3.97 7.94c4.17 8.34 15.93 20.22 25.2 20.47-4.07-4.65-9.07-18.43-10.73-23.61-8.28-6.32-9.13-7.93-13.94-17.68-.82 1.63-3.48 5.87-4.35 6.67l-.13.11-.15-.08c-2.6-1.3-5.65-4.3-8.88-7.47-2.59-2.54-5.26-5.17-8.04-7.31 0 .06-.02.13-.02.2-.08.63-.21 1.68-.44 2.9-.33 1.78-1.93 5.13-2.44 6.08l-.18.33-.24-.3c-.7-.88-1.42-1.67-2.12-2.43-.98-1.07-1.92-2.09-2.73-3.29-.12 1.7-.33 3.13-.54 4.63-.27 1.91-.56 3.89-.7 6.66l-.02.42-.36-.22c-1.81-1.1-3.01-2-4.29-2.96-1.49-1.12-3.04-2.28-5.68-3.84-.4 6.76.87 15.38 5.63 19.75 3.39 2.99 9.07 7.29 9.89 7.6.27-.23 1.15-1.52 2.2-3.49 1.58-2.98 1.88-4.8 1.77-10.79l-.12-7.28.49-.07 1.07 4.02Zm-134.9 140.49c-9.79-11.22-30.05-32.13-33.64-35.79-1.71-1.75-3.21-1.2-3.62-.99-.89.45-1.06 1.7-.83 2.75.36 1.63 1.94 3.85 3.2 5.63.6.84 1.12 1.57 1.42 2.11l.14.26-.28.1c-5 1.74-7.94 4.36-8.75 7.79-.9 3.8.94 8.41 5.06 12.65l.39.41-.57.02c-1.25.04-2.48-.02-3.47-.06-.59-.03-1.08-.06-1.4-.05-1.64 5.89-6.08 9.86-8.47 12.01-.36.32-.67.6-.92.84.03.64.01 1.19 0 1.68-.04 1.32-.07 2.28.83 3.8 10.58-7.53 12.46-6.93 13.47-6.61.1.03.18.06.27.07 2.21.28 5.95 6.49 8.96 11.49.66 1.09 1.27 2.11 1.8 2.95l.13.2-.19.14c-7.5 5.31-9.15 10.58-5.81 18.72 3.24-3.93 5.66-5.7 7.78-5.7.08 0 .15 0 .22 0 2.75.16 4.72 3.29 7.45 7.62.6.96 1.25 1.98 1.94 3.04 8.14 13.62 18.97 26.43 21.44 26.43.45 0 3.18-2.01 6.59-5.28h0c4.98-4.72 8.93-10.03 12.86-15.52-15.65-13.57-25.36-32.5-26.01-50.69Zm-54.8-7.58c.29.95.98 2.22 1.65 3.45.12.22.24.44.36.66 5-2.54 7.75-7.76 7.34-10.38-1.86.79-3.53 2.06-5.3 3.41-1.28.98-2.6 1.99-4.06 2.85Zm-16.41-27.52c-1.73 0-3.24.62-4.25 1.64-1.56 1.56-2.32 4.64.66 8.17 4.13 4.91 17.58 7.77 23.2 4.94 1.28-.65 1.63-3.19 1.21-5.18-.24-1.15-.71-1.91-1.18-1.93-5.34-.28-9.66-1.93-13.59-5.2-2.06-1.73-4.18-2.45-6.05-2.45Zm13.66 46.23c1.56-.81 2.39-1.84 2.38-2.99-.01-1.65-.26-2.55-.85-3.12-.82-.78-2.43-1.01-5.9-.83-3.83.41-6.87-.62-10.1-1.71-.7-.24-1.41-.48-2.15-.71-.06 0-.11.04-.15.13-.33.67.34 3.18 1.78 5.01 4.07 5.17 9.96 6.82 15 4.21Zm-77.55-285.24c-1.25-4.81-2.55-9.78-3.27-14.02 0-.05-.01-.09-.02-.14-.12-1.57-.21-3.17-.31-4.78-1.04-16.87-2.02-32.8-21.85-34.09-5.43-.35-8.07.98-10.6 2.28-1.54.78-3.12 1.59-5.17 1.91-2.45.38-7.17.54-9.68.6.04.33.09.66.14 1 .25 1.84.52 3.74.33 5.7-.05.53-.34 1.02-1.02 2.19-2.51 4.3-9.17 15.73-.21 24.6 4.89 4.92 13.73 7.16 22.29 9.32 7.74 1.96 15.75 3.98 21.17 8.05 4.53 3.41 8.74 9.54 11.49 14.12-.24-2.72-.6-5.79-1.15-8.22-.59-2.6-1.34-5.48-2.13-8.52Zm585.71 2.62c5.42-4.07 13.43-6.09 21.17-8.05 8.55-2.16 17.4-4.39 22.28-9.31 8.96-8.88 2.3-20.31-.21-24.61-.68-1.17-.97-1.66-1.02-2.19-.19-1.96.07-3.86.33-5.7.05-.34.09-.67.14-1-2.51-.06-7.23-.21-9.68-.6-2.04-.32-3.63-1.13-5.17-1.91-2.26-1.15-4.58-2.33-8.89-2.33-.54 0-1.11.02-1.71.06-19.83 1.29-20.81 17.22-21.85 34.09-.1 1.6-.2 3.2-.31 4.78 0 .05 0 .1-.02.14-.72 4.23-2.02 9.21-3.27 14.01-.79 3.04-1.54 5.92-2.13 8.52-.54 2.42-.91 5.5-1.15 8.22 2.75-4.58 6.96-10.71 11.49-14.12Zm43.24 495.45c2.51-4.3 9.16-15.73.21-24.6-4.89-4.92-13.73-7.16-22.29-9.32-7.74-1.96-15.75-3.98-21.17-8.05-4.54-3.41-8.74-9.54-11.49-14.12.24 2.72.6 5.79 1.15 8.22.59 2.6 1.33 5.48 2.13 8.52 1.25 4.81 2.55 9.78 3.27 14.02 0 .05.01.09.02.14.12 1.57.21 3.17.31 4.78 1.04 16.87 2.02 32.8 21.85 34.09 5.43.35 8.07-.98 10.6-2.28 1.54-.78 3.12-1.59 5.17-1.91 2.45-.38 7.17-.54 9.68-.6-.04-.33-.09-.66-.14-1-.25-1.84-.52-3.74-.33-5.7.05-.53.34-1.02 1.02-2.19Zm-637.17-41.97c-5.42 4.07-13.43 6.09-21.17 8.05-8.55 2.16-17.4 4.4-22.28 9.31-8.96 8.88-2.3 20.31.21 24.61.68 1.17.97 1.66 1.02 2.19.19 1.96-.07 3.86-.33 5.7-.05.34-.09.67-.14 1 2.51.06 7.23.21 9.68.6 2.04.32 3.63 1.13 5.17 1.91 2.54 1.29 5.16 2.63 10.6 2.28 19.83-1.29 20.81-17.22 21.85-34.09.1-1.6.2-3.2.31-4.78 0-.05 0-.09.02-.14.72-4.24 2.02-9.21 3.28-14.02.79-3.04 1.54-5.92 2.13-8.52.54-2.42.91-5.5 1.15-8.22-2.75 4.59-6.96 10.71-11.49 14.12Z"
    fill="#f7b718" />
</svg>