<svg xmlns="http://www.w3.org/2000/svg" width="1200" height="720">
  <path fill="#fff" d="m0 0h1200v720H0V0Z" />
  <path fill="#001489" d="m0 0h1200v216H0V0Z" />
  <path fill="#009a44" d="m0 504h1200v216H0v-216Z" />
  <path fill="#000"
    d="m623 338l-10-13v-25h14l-18-18v-37c36 4 29 58 14 93Zm-46 0c-15-35-22-89 14-93v37l-18 18h14v25Zm106 112l-9-11 14-5 3 7Zm8 9l-4-4 7-8 4 9Zm-28 9l-3-4 12-10 8 9Zm-7-9l-8-12 15-4 5 6Zm-25 16l-3-6 15-9 7 11Zm-6-12l-7-12c5 0 11-1 18-2l3 5-14 9Zm-36 2l-7-14c7 1 17 1 24 1l2 3-19 10Zm6 12l-3-6 19-10 8 15Zm-37-16l-7-15 18 4 3 5Zm25 15l-20-2-3-7 15-6Zm-55-22l-6-17 16 6 3 7Zm23 18l-18-5-3-7 14-4Zm-46-21l6-13 4 10Zm15 12l-14-6 11-3Zm-37 1c73 38 161 38 234 0l-21-44-9 4-57-75c23-46 27-110-21-116-4-7-14-7-18 0-48 6-44 70-21 116l-57 75-9-4Z" />
</svg>