<svg xmlns="http://www.w3.org/2000/svg" width="1200" height="720">
  <path fill="#003893" d="M0 0h1200v720H0z" />
  <path fill="#dd7500" d="m0 700 1200-526V13L0 684v16z" />
  <path fill="#fff"
    d="m183 257-79 30 84-14-69 50 77-35-53 66 66-53-35 77 50-69-14 84 30-79 9 144 9-144 30 79-14-84 50 69-35-77 66 53-53-66 77 35-69-50 84 14-79-30 144-9-144-9 79-30-84 14 69-50-77 35 53-66-66 53 35-77-50 69 14-84-30 79-9-144-9 144-30-79 14 84-50-69 35 77-66-53 53 66-77-35 69 50-84-14 79 30-144 9 144 9ZM0 696v12l1200-415V153Z" />
</svg>