<svg xmlns="http://www.w3.org/2000/svg" xmlns:xlink="http://www.w3.org/1999/xlink" width="1200" height="720">
  <path d="m0 0h1200v720H0Z" fill="#fff" />
  <path d="m600 0h600v720H600Z" fill="#cf142b" />

  <g id="b">
    <g id="a">
      <path fill="#cf142b" d="
      M40 160V112h56a20 20 0 0 1 16-16V40h48
      v4h-44v56a16 16 0 0 0-16 16h-56v44Z" />
      <path fill="#000" d="

      M44,160h1v-43h65l1-1h-67Z
      M47,160h1v-40h60v-1h-61Z
      M119,103h1v-55h40v-1h-41Z
      M116,101h1v-56h43v-1h-44Z

      M101 144a43 43 0 0 1 43-43v-1a44 44 0 0 0-44 44z
      M113 144a31 31 0 0 1 31-31v-1a32 32 0 0 0-32 32z

      M99,117c10,0,20-4,21-14l-4-4c-9,0-17,8-17,18ZM104,112c-2-2,5-9,10-9l2,2c-1,5-10,9-12,7ZM100,116c0-8,8-16,15-16v2c-7,0-14,9-12,11s13-2,14-8l-2-2l2-2l2,2c-1,9-11,13-19,13Z

      M108,113l1-1l-5-3v1ZM108,110l-2-3l-1,1ZM111,111h1l-4-6l-1,1ZM114,109l-4-5h-1l4,6ZM115,108l1-1l-4-4h-1Z
      " />
    </g>
    <use xlink:href="#a" transform="rotate(90 144 144)" />
  </g>
  <use xlink:href="#b" transform="rotate(180 144 144)" />

  <g fill="#000">
    <circle cx="164" cy="176" r="2" />
    <circle cx="124" cy="176" r="2" />
    <path
      d="M173.9,128.6l6.5-4.2l-0.7-1.1l-3,1.9l-1.5,1l2.1-6.5l-0.5-0.8l-6.4,4.2l0.7,1.1l4.4-2.9h0.1l-2.2,6.5ZM109.4,166.4l6.6-3.9l-0.6-1.1l-2.7,1.6l-1.5-2.5l-1,0.6l1.4,2.5l-1.8,1l-1.6-2.6l-1,0.6ZM107.2,154.2c2.2,0,3.9-1.7,3.9-3.8c0-2.2-1.7-3.9-3.9-3.9s-3.9,1.7-3.9,3.9c0,2.1,1.7,3.8,3.9,3.8ZM107.2,153c-1.5,0-2.6-1.1-2.6-2.6s1.1-2.7,2.6-2.7s2.6,1.2,2.6,2.7s-1.1,2.6-2.6,2.6ZM110.7,139.7l0.3-1.4l-4-0.8l-0.1,0.5l4.7-2.6l0.3-1.5l-3.6,2c0-2.8-4-2.9-4.6-0.2l-0.5,2.4ZM106.9,137.5l-2.2-0.5l0.2-1c0.3-1.6,2.6-1.4,2.2,0.5ZM115.3,119.9c1.5,1.4,4,1.6,5.5,0c0.6-0.6,1.4-2.1,1.6-2.9l-2.3-2.4l-2.5,2.5l0.8,0.8l1.6-1.5l1,1c-0.2,0.6-0.6,1.3-0.9,1.6c-1,1-2.9,1-3.9,0c-1.1-1.1-0.9-2.9,0.2-4c0.5-0.5,1.7-1.1,2.4-1.1l-1-1c-0.8,0.2-1.7,0.7-2.3,1.3c-1.6,1.3-1.6,4.3-0.2,5.7ZM178.7,166.4l0.7-1.3l-1.8-3.2v-0.1l3.7-0.3l0.7-1.3l-5.2,0.5l-2.9-1.6l-0.6,1.2l2.9,1.5ZM127.4,114.6l1.3-0.5l0.1-2l3.2-1.4v0l1.5,1.4l1.3-0.6l-6.2-5.7l-0.9,0.4ZM128.7,110.8l0.1-3.1l2.3,2.1ZM176.7,152l3.5-2.2c0,0.7,0.3,2.1,2,2.2c1.3,0.1,2.3-0.9,2.5-2.2l0.4-2.6l-7.6-1l-0.2,1.3l3.6,0.5l-4,2.4ZM183.6,149.5c-0.2,1.9-2.5,1.5-2.3-0.4l0.1-1l2.3,0.3ZM140.5,110.6l4.4-0.2v-1.2l-3.2,0.2l-0.3-6.5l-1.3,0.1ZM183.8,138.8l1.1-0.2l-1.2-6l-1.2,0.2l0.5,2.3l-6.3,1.4l0.2,1.3l6.4-1.4ZM155.1,112.3l0.3-1.2l-3-0.8l1.6-6.2l-1.3-0.4l-1.9,7.4ZM166.5,118.8l1.5-8.2l-0.8-0.6l-7.3,4.3l1.2,0.8l1.7-1l2.9,2l-0.4,1.9ZM166,114.8l-2.1-1.5l2.6-1.6Z" />

    <path
      d="m146.42,185.48c-.18.12-.66-.12-.77-.51,0,.12-.03.51-.26.72-.56.53-1.16.27-1.64.27s-1.08.26-1.64-.27c-.23-.22-.26-.6-.26-.72-.11.38-.59.63-.77.51-.16-.12-.08-.66.25-.87-.11.03-.49.12-.77-.03-.68-.37-.62-1.03-.77-1.48s-.59-.94-.25-1.64c.14-.29.49-.44.6-.48-.4.01-.77-.37-.71-.56.07-.21.6-.29.92-.04-.08-.1-.27-.42-.22-.74.14-.77.78-.9,1.16-1.19.4-.29.72-.85,1.49-.74.31.04.56.33.64.42-.14-.37.11-.85.31-.85s.45.48.31.85c.08-.1.33-.38.64-.42.77-.11,1.09.45,1.49.74.38.29,1.03.42,1.16,1.19.05.31-.14.64-.22.74.31-.25.85-.16.92.04.05.19-.31.57-.71.56.11.04.46.19.6.48.34.7-.1,1.19-.25,1.64s-.08,1.11-.77,1.48c-.27.15-.66.05-.77.03.33.22.41.75.25.87Zm-3.94-1.91c.22.16-.37.66-.14,1.27.26.72.98.51,1.41.51s1.15.22,1.41-.51c.23-.62-.36-1.11-.14-1.27s.52.55,1.16.53c.78-.04.79-.78.92-1.19.14-.41.57-1.03-.04-1.5-.51-.41-1.18,0-1.26-.26s.68-.31.88-.94c.21-.75-.51-.98-.85-1.24-.36-.25-.81-.85-1.45-.42-.53.37-.36,1.12-.63,1.12s-.1-.75-.63-1.12c-.64-.42-1.09.18-1.45.42-.34.26-1.05.49-.85,1.24.19.63.96.68.87.94s-.75-.15-1.26.26c-.62.48-.18,1.09-.04,1.5.12.41.14,1.15.92,1.19.64.01.94-.7,1.16-.53Z" />
    <path
      d="m143.75,184.53c-.12,0-.27-.29-.19-.52-.04.07-.19.23-.38.26-.46.07-.66-.27-.89-.44-.23-.18-.62-.26-.7-.71-.04-.19.08-.4.12-.45-.19.15-.51.1-.55-.03-.04-.11.19-.34.42-.34-.07-.01-.27-.11-.36-.27-.21-.42.05-.71.15-.98.08-.27.04-.67.45-.89.16-.1.4-.04.46-.01-.21-.14-.25-.45-.15-.53.11-.07.4.08.46.3,0-.07.01-.3.15-.42.34-.33.7-.16.98-.16s.64-.16.98.16c.14.12.15.36.15.42.07-.22.36-.37.46-.3.1.08.05.4-.15.53.07-.03.3-.08.46.01.41.22.37.62.45.89.1.27.36.56.15.98-.08.16-.29.26-.36.27.23,0,.46.23.42.34-.04.12-.36.18-.55.03.04.05.16.26.12.45-.08.45-.46.53-.7.71-.23.16-.42.51-.89.44-.19-.03-.34-.19-.38-.26.08.23-.07.52-.19.52Zm0-1.56c.15,0,.05.41.34.6.34.23.59-.08.78-.22s.57-.27.45-.67c-.1-.34-.51-.37-.46-.52.04-.14.4.08.68-.14.33-.26.1-.59.03-.81-.08-.22-.08-.63-.51-.64-.36-.01-.51.37-.63.29s.21-.36.08-.68c-.15-.4-.53-.27-.77-.27s-.62-.12-.77.27c-.12.33.21.6.08.68s-.27-.3-.63-.29c-.42.01-.42.42-.51.64-.07.22-.3.55.03.81.29.22.64,0,.68.14.04.15-.37.18-.46.52-.12.4.26.53.45.67s.44.45.78.22c.29-.19.19-.6.34-.6Z" />
    <circle cx="143.75" cy="181.81" r=".66" />

    <path d="m123.17,167c14.7-.6,26.81-.6,41.51,0" fill="none" stroke="#0a1a1d" stroke-linecap="round"
      stroke-width=".65" />
    <path
      d="m142.1,127.86c1,1.11,1.11,1.39,1.11,1.39m1.85,17.64c-.07,1.15-.01,2.34.18,2.95m-2.95-2.76c.43.47,1.02,2.11.93,2.72"
      fill="none" stroke="#0a1a1d" stroke-width=".32" />
    <path
      d="m139.6,163.16c-1.27-.34-2.77-.1-3.35,1.11.05,2.23-1.02,2.59-2.51,2.42-1.02-.12-1.23.35-1.5.46l3.03.93c1.98,1.91.81,3.3.38,3.65-.42.34-1.54.18-2.21.18s-.68.2-.96.35c-.47.24-.95.38-1.15.16.12-.31.31-1.53,1.12-1.72.49-.04,1.37-.27,1.39-.73.01-.45-1.62-.38-2.91-.87-1.08-.41-1.45-.96-1.06-2.65.31-1.88,2.52-2.1,3.59-2.11-.15-.8-.05-2.18.95-3.09,1.46-1.34,3.72-.85,5.64-.73,1.1-.61,3.13-1.52,5.12-1.6,1.79-.07,9.12-2.42,12.72-2.03.41-.83-.16-2.74,1.32-3.58,1.88-1.06,4.03.8,4.52.3.49-.51-.61-1.26-1.99-2.69-.34-.64-.27-.55-.28-.76-.03-.46.08-1.02.26-1.14.16-.11,1.29.31,1.56.72.37.55.83.81,1.19.51.47-.37-.14-.23-.41-1.03-.14-.39-.25-1.15-.23-1.54.27-.31.56-1.22,1.38-1.49.34.32,1.12,1.24,1.39,1.67.66,1,1.27.73,1.72,1.41.16.27.16.99.49,1.6.58,1.12,1.73,2.4,3.25,3.3.23.15.55.43.58.66.04.35-.24.7-.38.87-.19.24-.87.26-1.52-.05-.99-.47-1.34-.72-1.92-.64-1.27.19-2.11,2.22-3.91,2.25-1.71-.24-2.11-1.98-3.11-1.26-.99.72,1.59,2.1,1.18,2.98.28.22.74.95.64,1.56,1.69-.37,3.05-1.52,3.55-2.45.87-1.2,1.56-1.88,2.07-2.1.5-.22,1.15.09,1.15.49.19-.04.47.19.83.24.51.24.43,1.12.28,1.29-.01-.08-.52-.18-.78-.3-.27-.11-.57-.14-.96.19-.39.31-.68,1.07-1.07,1.56-.39.47-1.41,1.45-1.84,1.98.24.37.12,1.04.16,1.37.09,0,.42.08.61.22.18.14.15.28.07.65-.12.45-1.8,2.45-2.29,2.44-.74,0-1.22-.88-1.15-1.25-.81.38-1.18-.51-1.2-.84-.31.42-1.54,1.1-1.99,1.26-.43.16-.61.22-.74-.37-.14.39-1.23.8-1.49.85-1.42.28-2.87.91-4.28.89l-3.45-.07.34.23c-.53.16-1.45.69-1.43,1.16.01.46,1.1.53,1.42.62-.58.24-2.44.6-3.26.18-.6.35-4.85-.62-5.71-.65-.54-.01-1.31-.47-1.22-1.52.01-.23.16-.76.68-.93-.3-.51,1.02-1.38,2.31-2.17-4.17,3.02-4.6-.73-5.21-1.79"
      fill="#fff" stroke="#0a1a1d" stroke-width=".49" />
    <path
      d="m156.29,153.71c.01.54-.77,1.94.38,2.92.7.6,1.94,1.1,2.34,1.87.34.65-.14,1.23-.28,1.19-.76-.16-1.76,1.15-2.13,2.04-.42-1.26-1.25-.95-2.3-.77.28-1.31-.77-2.14-2.4-2.36.27-.27-.18-.69-.57-1.04-.41-.35-1.68-.07-1.8-.35s.61-.83.24-1.41c-.35-.6-1.88-.24-2.37-.45.11-.73.19-1.14-.18-1.79-.38-.66-2.1-.46-2.94-.65.69-.49,1-1.2.62-1.99-.39-.81-2.21.15-2.19-.93.05-.38,2.13-.69,2.96-.74.77-.04,3.48.58,6,1.19.6.5,4.55,1.72,4.6,3.26Z"
      fill="#fff" stroke="#0a1a1d" stroke-width=".3" />
    <path
      d="m163.03,164.03c1.26-.62,2.49-1.43,3.8-2.59m-19.42-.58c1.14.05,1.53.88,1.94,1.45.7.95,1.32,3.14-3.75,3.13,1.46.01,1.84-.24,2.61-.05.69-.12,2.26-.64,2.92-.42-.26.12-1.08.35-1.11.84s.35.57,1.06.79m4.71-3.28c1.69.32,4.16-.18,4.51,1.6"
      fill="none" stroke="#0a1a1d" stroke-width=".49" />
    <path d="m161.53,149.5c.53.51,1.85.95,2.49,1.89,1.05-.05,1.78-.31.62-1.31" fill="none" stroke="#0a1a1d"
      stroke-width=".32" />
    <path
      d="m149.54,157.22c1.72-.35,4.17-.7,5.62-.64m-7.74-1.22c2.69-.73,5.64-.42,7.5-.39m-.49,5.89c.5-.64,1.62-1.54,2.48-2.31m-4.98.05c.83-.34,2.38-.92,3.68-1.15m-3.91-7c1.45-1.42,3.15-1.22,4.78-2.08.97-.5,1.81-1.89,2.8-2.86.45-.38.77-.68,1.89-.58,1.18.09,1.33.46-.19.64-1.08.14-1.12.66-1.56,1.49-.37.7-.01,1.53.2,2.1-.27.57-.61,1.38-.7,2-.05.31.08.55.46,1.02m-15.08.76c3.8-.83,9.26.6,10.29.66"
      fill="none" stroke="#0a1a1d" stroke-width=".3" />
    <path
      d="m167.5,158.95c1.23-.66,1.25-1.92,2.88-2.46m-6.14,8.38c1.57-.74,1.91-1.38,2.76-2.06m.19-12.83c-.12.12-.51-.04-.7-.27-.18-.24-.27-.57-.12-.72.14-.14.35-.11.68.16s.27.69.15.83Zm-2.5-2.69c.39-.44.65-.23,1.21-.35"
      fill="none" stroke="#0a1a1d" stroke-width=".22" />
    <path
      d="m153.94,125.51c-.8.18-1.2.2-2.23.24-.2.47-.22,1.76-.2,2.22,2.18,2.07,4.29,4.74,4.43,7.25.68.54,1.11,1.1,1.49,2.1,1.56-.77,3.13-2.1,4.45-2.44.87-.22,2.4-.28,3.15.16.42.24,4.13,2.5,5.21,3.17,1.07.68,1.81,1.56,2.34,2.33s.58,2.17.41,2.52l-3.11-.89c-.22-.51-.04-1.11.2-1.62.23-.49.23-.51-.22-.87-.3-.24-.72-.18-1.02-.11-.3.05-.77-.07-1.04-.5-.3-.45-3.56-1.88-4.11-1.96-.54-.08-1.37-.09-2.04.54-.32.53-1.42,2.23-2.29,3-.23.23-.27.49-.14.76,0,0,2.07-.08,3.33.09,1.27.19,2.86,1.5,3.55,2.33,3.17,2.91,4.37,4.49,5.4,5.5.46.45.96.95.85,1.64l-3.09-.05c.04-1.11-.13-1.67-.32-2.28-.37-.5-1.06-.49-1.32-.48-.26.03-.65-.53-.96-1.03-.39-.88-2.07-2.06-2.82-2.52s-1-.26-1.79-.32c-.47-.15-1.56-.34-2.34-.03s-3.09,1.04-5.21,1.29c-.79.35-3.1.79-5.55,1.31-1.84.39-5.97,1.06-6.85,1.07-.27,1.99-2.36,4.78-2.95,5.09-.61.81-.58,1.53-.16,1.89.43.38,3.59.38,4.37.41.8.01,2.37.07,2.6.11.54.08,1.22.73,2.03,1.18.58.31.7.64,1.07,1.22.23.38.58.74.7,1.07l-3.72-.08c.04-.79-.42-1.45-.95-1.45-.51.37-1.15.8-1.85.51-2.88-.18-4.72-.05-7.4-.23-.76-.04-1.43-1.14-1.15-2.14.28-1.02.16-1.71-.03-2.44-.27.3-1.33,1.34-1.92,2.03-.92,1.04-.39,2.17-.05,2.73.55.47,3.61,3.42,4.02,4.32.31.47,1.53,1.43,2.75,2.45.39.91,1.12,1.35,1.71,1.95h-4.72c.15-.28.22-.57.28-1.23.03-.24-.28-.79-.89-.72-.62.08-1.16-.64-1.35-1.22-.19-.6-2.27-3.26-2.9-3.86-.62-.58-2.5-2.5-2.83-2.63-.34-.12-.42-.81-.03-1.22.41-.41,1.57-2.26,1.94-3.47.24-.83-.05-.89-.24-1.15-2.06-1.53-3.86-3.56-4.93-5.5-.39.24-2.64.23-3.76-.32-.85-.41-1.99-.53-2.6.43-.35.57-.34,1.64.28,2.11.89.68,1.96,1.79,2.99,3.06s.14,2.11-1.16,3.22c.19.49-.03.41.22,1.22.43.62.43,2.19-.12,2.52-.54.35-1.25.7-1.89,1.46-.65.79-.93.03-.65-1.27.16-.81-.5-1.49-1.07-2.11-.55-.62-.27-2.44.09-2.98.35-.51.72-1.57-.07-2.36s-2.34-2.44-2.1-4.63c.3-2.9,3.1-3.82,4.76-3.06,2.71,1.22,4.32.95,5.13.77.81-1.31,1.83-2.56,3.49-3.51,1.56-.89,4.63-2.13,7.65-2.6l7.5-2.68c1.02-.3.97-1.19.88-1.71-.97-5.06-.68-10.41,3.44-13.13.43-.39.3-1.5.95-2.37.12.38.96,1.41,1.15,2.07,1.77.58,4.98,1.71,6.24,2.34.61.3,1.25.34,1.62.49.34.14.65.47.87.89.34.61-.04,1.2-.37,1.38-.24.12-1.73-.38-2.1-.04.07.34.45.7,1.25,1.03.37.16-.19.84-.62.88-.24.03-.58-.08-.8-.24-.88-.26-1.83-.62-2.75-.93Z"
      fill="#fff" stroke="#0a1a1d" stroke-width=".49" />
    <path
      d="m148.8,122.2c-.04,3.11,1.02,4.68,2.71,5.77m5.91,9.35c.3,1.31.26,2.61.01,3.75m-22.77,11.99c2.36-1.11,4.4-3.78,4.33-5.37-.04-.93-.77-2.37-2.87-2.44m2.87,2.44c.65.26,2.08.09,3.11.23m11.63-7.58c1.83.08,4.28,1.12,5.48,1.07m-6.33,2.57c1.54.34,1.57,1.08,4.78.92m-5.55-11.25c1.8.05,2.83.93,3.82,1.57"
      fill="none" stroke="#0a1a1d" stroke-width=".49" />
    <path d="m138.66,149.15c1.26-.01,2.21-.18,2.72-1.29m7.42-25.66c-.07,2.54.96,3.18,2.91,3.55" fill="none"
      stroke="#0a1a1d" stroke-width=".3" />
    <path
      d="m158.61,122.64c-.12.65-.14,1.16.92,1.07m-5.62-2.84c-.81,2.08,3.29,2.36,3.45,3.67m-23,13.54c2,.88,1.77,4.86,1.76,7.19"
      fill="none" stroke="#0a1a1d" stroke-width=".22" />
    <path
      d="m156.4,124.53c-.65,1.27-2.07,3.25-3.53,4.3-2.17,1.54-3.49,2.97-6.43,3.66-.39.09-1.91.57-2.48.42-.55-.13-1.16-.57-1.56-1.54-.22-.51-.11-2.76.64-3.05.79-.28,1.5-.38,2.25-.34.41.03.97.15.93.7-.03.47-.47.76-.95.62-.57-.16-1.43-.49-1.92-.16-.34.22-.54,1.31-.31,1.8.35.78.7,1.03,1.07,1.11.37.1,1.78-.18,2.17-.27,2.82-.66,4.03-2.04,6.16-3.56,1.39-1,2.84-3.09,3.33-4.05m-10.39,4.3c-.84-.18-2.19.03-2.31.38.62-.39,1.39-.27,2.27,0,.27.08.43-.31.04-.38Zm5.48-6.86l.32-.62c.07-.14-.24-1.62,1.3-.83s.3,1.49.23,1.64c-.07.14-.32.61-.32.61"
      fill="#fff" stroke="#0a1a1d" stroke-width=".19" />

    <path
      d="m137.2,120.61c-1.54.15-4.39-.16-5.93-.43-.74-.14-2.84,2.91-3.95,3.13s-2.17-2.23-3.8-1.65c-.76.58.04,3.59-.42,3.97-.47.38-1.92-1.52-2.82-.88s.76,4.63.32,5.09c-.41.43-2.44-1.75-3.05-1.34s.66,6.62.07,6.94c-.61.32-3.42-1.64-3.79-.8s3.97,2.82,5.18,2.87l1.22-.46c.41.22,3.87.5,4.21.53l1.99-2.02c3.05-3.97,6.39-7.69,10.76-7.46v-7.48Z"
      fill="#fff" stroke="#0a1a1d" stroke-width=".3" />
    <path
      d="m123.81,121.58l5.81-.22m-9.29,3.33l2.84-.97m-5.54,4.68l2.59-1.14m-6.36,7.3l3.61-3.28m2.79,5.67c1.53-2.69,4.66-5.67,7.21-7.24m-9.83,5.7c2.18-2.63,8.42-7.02,10.41-7.27m-4.98-2.53c2.59-1.19,6.28-1.33,9.22-1.57m-5.05-.73c.37-.04,4.8-.6,6.7-.5m-13.39,7.07c3.45-2.02,6.82-3.65,10.63-4.85"
      fill="none" stroke="#0a1a1d" stroke-width=".3" />

    <path
      d="m149.63,172c.27.08.55.66.55.66,0,0-.58.28-.83.23l-27.07-8.09c-.8-.24-.46-1.48.38-1.22l26.96,8.42Zm-25.87-37.83c-.16-.55-.65-1.06-1.02-1.12-.23-.03-.83.58-.8.77.07.39.85.89,1.16,1l.65-.65Zm2.56,1l-2.27,2.27c-.28.3.24.77.51.5l2.27-2.27c.28-.28-.26-.76-.51-.5Zm-1.12,2.14l7.05,7.31,1.46.22-.22-1.46-7.31-7.05-.99.99Z"
      fill="#fff" stroke="#0a1a1d" stroke-width=".38" />
    <path
      d="m142.04,123.5c-.05-.38.15-.61.43-.81.49-.34.35-.18.62-.04.26.14.53.35.68.47.19.14.3.07.37-.04.12-.19.16-.57.28-.69.09.01.17-.17.23-.23s.19-.12.18-.27c-.03-.11.07-.41.24-.35.19.05.58.23.6-.03.03-.19.15-.89.22-1.43.55.09.37-.54.57-.62.6.22.81-.73.47-1.07.05-.76.61-.89,1.53-.88-.07-.51-.77-.66-1.26-1.31-.45-.66-1.92-1.52-3.51-1.49-1.58.04-2.88,1.52-3.47,2.17s-1.79.93-2.15.87c-.35-.08-.51-.34-.92-.38l-1.57.04c-.54,0-.74.38-1.35.3-.37-.03-1.85-.01-2.29.14s-.01,1.12.45,1.16c.22.03,1.35.09,1.77.34.47.26,1.87.32,2.49.09,1.16-.42,1.94.37,3.22.68l.41.15c-.03.68.01,1.03-.32,1.03-.31,0-.83-.03-1.11-.05-.16,0-.83-.45-1.2-.53-.58-.12-.93.12-1.16.22-1.5.62-7.07,4.95-7.61,5.94-.61,1.1-1.52,1.75-2.38,3.38-.49.91-1.41,2.02-1.96,3.55-.93.42-1.89,1.3-2.04,1.5-.16.22.15.57.32.55-.07.14.26.5.51.47-.15.16.26.46.45.41-.11.16.18.61.41.6l2.25-2.25c0-.96.57-2.03.87-2.56,1.2-1.46,2.77-3.88,3.21-4.53.23-.37,2.87-1.41,3.56-2.08-.18,1.89-.12,3.19.12,4.32.38,1.84,1.02,2.16,1.38,3.71.38,1.54-.56,1.48-.3,3.63.89,2.77,3.81,1.43,4.49,1.64,1.26.39,2.41.42,2.87.5,1.57-.22,3.2.24,3.7.64.51.41.13,1.76,1.44,3.57.85,1.34,2.4,2.04,2.82,2.53.43.47.45,1.49.36,2.1-.07.6.92,1.37,1.54,1.3.49-.07,1.68.14,2.02.31.32.16,1.11.79,1.38.81s1.56.16,2.15.11.57-1.03.31-1.07c-.24-.03-1.27-.24-1.88-.39-.6-.14-1.94-1.33-2.46-1.98-.54-.66-.81-1.58-1.15-2.25-.35-.66-2.37-3.49-2.9-4.13-.16-.31-1.23-2.87-1.48-3.51-.23-.64-.76-.7-1.16-.83-1.68-.49-2.46-1.02-4.18-1.34-1.25-.23-1.53-.3-1.64-1.22-.08-.69-.48-1.69-.21-2.6.09-.3.27-1.26.35-1.69.09-.43.37-1.15.43-1.58.08-.58.19-2.36.19-2.82,0-.84-.12-1.49-.22-2.18Zm1.3,7.98c-.16.05-.95.18-1.35-.02-.14-.08-.11-.41.03-.41-.08-.07-.22-.41-.03-.46-.11-.03-.24-.52-.05-.54-.19-.15-.19-.43,0-.52.14-.13.97-.16,1.33-.1.22.52.16,1.49.08,2.04Z"
      fill="#fff" stroke="#0a1a1d" stroke-width=".42" />
    <path
      d="m140.3,120.33c.39.24.34-.03,1.04-.23.69-.2,1.15.41.93.97-.2.57-.23,1.04.51,1.08s.92-.6,1.08-.91c.18-.3.5-.28.69-.65.15-.76.92-.58,1.39-.5m.96-1.69c-.38.2-1.19-.45-1.33-1.07-.23-.73-.76-1.26-1.69-1.27-.93,0-2.71.53-3.09,1.62-.12.83-.19,1.37-.2,1.52-.34.12-.66.01-.69.16.03.32.09.61-.09.74m-5.77,5.78l1.88-.81"
      fill="none" stroke="#0a1a1d" stroke-width=".49" />
    <path
      d="m135.94,125.09c.53,1.19.89,2.41,1.62,2.83m1.03.46c.79.39,1.31.26,2.25.11m-3.64,8.24c1.95.09,2.03,1.08,3.64,1.58,1.6.49,2.68-.51,4.77,1.58m-10.05-8.91c.49.37,1.19.61,1.77.61m1.12,1.74c1.93,0,1.91,1.41,3.13,1.48"
      fill="none" stroke="#0a1a1d" stroke-width=".24" />
    <path
      d="m139.2,121.24c.88,2.84,1,4.01,3.06,4.44m-3.8-4.62c.88,2.86,1.84,4.39,3.8,4.62m-4.62-4.98c.88,2.86,2.22,4.86,4.62,4.98m10.64,22.78c-.43-.32-.54-.53-.85-1.15l-.73-1.45-.46.24c-.2.09-.42-.27-.19-.38l.39-.19-.53-1.06c-.3-.05-.01-.23.19-.32.22-.11.53-.24.39.03l.53,1.06.38-.19c.23-.12.41.27.19.37l-.46.23.73,1.45c.31.62.42.83.42,1.37Z"
      fill="none" stroke="#0a1a1d" stroke-width=".22" />
    <path
      d="m123.77,136.73l.99-.89m-1.43.49l.95-.85m-1.46.38l1.03-.87m18.18-3.92l.96-.05m-1.04-.95l.91-.03m-.85.57l.89-.1"
      fill="none" stroke="#0a1a1d" stroke-width=".11" />
  </g>
</svg>