<svg xmlns="http://www.w3.org/2000/svg" width="1200" height="720">
  <path d="m0 0h1200v720H0Z" fill="#fff" />
  <path
    d="m0 618v51h1200v-51ZM0 515v51h1200v-51ZM0 412v51h1200v-51ZM0 309v51h1200v-51ZM0 206v51h1200v-51ZM0 103v51h1200v-51ZM0 0v51h1200V0Z"
    fill="#c00" />
  <path d="m0 0h600v412H0Z" fill="#006" />
  <path
    d="M324 90a140 140 0 1 0 0 230 125 125 0 1 1 0-230zm48 69 11-71 11 71 41-60-22 70 62-37-49 53 72-6-67 26 67 26-72-6 49 53-62-37 22 70-41-60-11 71-11-71-41 60 22-70-62 37 49-53-72 6 67-26-67-26 72 6-49-53 62 37-22-70 41 60Z"
    fill="#fc0" />
</svg>