<svg xmlns="http://www.w3.org/2000/svg" width="1200" height="720" fill="#007934">
  <path d="M0 0h1200v720H0z" />
  <path fill="#faf6f5" d="M364 0h472v720H364z" />
  <path
    d="M598 323c0 6-52-12-52-17s52 12 52 17Zm-2-15c0 5-38-6-38-10s38 7 38 10Zm15-83c0-4 20-4 20-1s-20 4-20 1Zm-12-10c0 3-12 1-12-2s12-2 12 2Zm10 62c0-8 32-9 32-5s-32 11-32 5Zm-12-29c0 5-39 0-39-3 0-4 39-3 39 3Zm1 15c0 4-23 1-23-5 0-4 23 0 23 5Zm15 48c0-5 25-9 25-5s-25 9-25 5Zm0 24c0-6 38-16 38-9s-38 12-38 9Zm-1 17c0-8 34-13 34-8 0 3-34 11-34 8Zm3 13c0-5 25-7 25-3s-25 7-25 3Zm1 29c0-6 26-10 26-5s-26 10-26 5Zm0 14c0-6 47-13 47-8 0 9-47 16-47 8Zm-19-51c0 3-38-5-38-12 0-4 38 9 38 12Zm67-1c0-5 17-4 17 0 0 6-17 6-17 0Zm-49 74c0-5 38-12 38-8 0 7-38 12-38 8Zm-17-54c0 8-54-3-54-13 0-6 54 7 54 13Zm18 72c0-6 54-19 54-13 0 10-54 21-54 13Zm1 26c0-4 15-8 15-3s-15 6-15 3Zm-3 17c0-6 23-10 23-4 0 7-23 11-23 4Zm-20-29c0 7-25-5-25-9 0-3 25 2 25 9Zm43 47c0 4-20 4-20-1 0-8 20-5 20 1Zm-43-20c0 9-34-1-34-4s34-2 34 4Zm-1 22c0 7-23 0-23-4 0-6 23-3 23 4Zm-59-9c0 8-17 2-17-4 0-5 17-1 17 4Zm58 41c2 5 2 53-3 90h36c-4-24-14-95 6-95 10 0 18 5 26 5 15 0 8-12 25-12 16 0 83 27 83 0 0-12-14-1-23-1s-14-6-24 0c-7-10-40-6-40-13s86 14 86-3c0-6-18-8-25-2-8-5-16-5-24-1-5-16-48 4-48-9 0-14 100 13 100-6 0-8-16-7-26-1-6-12-36 5-36-4 0-12 51-1 51-16 0-8-16-7-23-2-7-7-21-4-29 2-10-5-28-3-38 1 0-14 82-11 82-26 0-5-16-3-26 4-10-9-17 7-46 7 7-17 66-14 66-24 0-11-55 12-55 1 0-5 54-5 54-14 0-8-24-6-33-3 0-12-32 9-32-1 0-9 54-13 54-22 0-14-56 20-56 7 0-14 59-8 59-33 0-10-14-2-19 7-1-6-3-8-6-8-10 0-39 17-39 7 0-2 2-3 6-3 25 0 22-19 31-19 4 0 10 3 12 3 9 0 0-10-11-11 13-3 13-10 1-10-17 0-40 3-40-2 0-7 44-4 44-11 0-12-42-6-42-13 0-4 28-1 28-10 0-3-5-7-12-8 17-3 18-10 3-10-12 0-77 18-77 8 0-7 67-9 67-21 0-24-68 5-68-9s53 4 53-10c0-8-45 5-45-2 0-5 35-5 35-10 0-9-44 10-44 1 0-12 52 2 52-18 0-11-12-12-19-3-8-15-33 0-33-8 0-5 41-6 41-11 0-11-40 10-40-2s36-3 36-13-38 8-38 1c0-11 34-12 34-18 0-12-34 10-34 0 0-9 15-6 15-10s-15-2-15-8c0-4 10-9 10-12 0-2-10 1-10-3 0-3 8-4 8-7 0-4-10-4-10-10 0-7 3-32-2-32-3 0-3 25-5 31s-11 5-11 7c0 3 10 4 10 9 0 6-10-2-10 3 0 3 10 8 10 11 0 5-15 1-15 5 0 5 14 5 14 20-7-8-33-17-33-12s30 12 30 18c0 3-34-8-34-2 0 4 38 8 38 14 0 3-39-3-39 1 0 9 39 0 39 11 0 10-62-8-62 5 0 12 60 7 60 17 0 4-51-9-51-1 0 5 53 3 53 13 0 6-73-14-73-1 0 2 6 5 17 5-8 2-11 5-11 7 0 9 63 17 63 30 0 10-52-23-67-23-7 0-12 4-12 8 0 3 6 7 15 3-11 19 62 12 62 28 0 13-83-28-83-9 0 7 18 5 18 10 0 3-20 3-20 8 0 7 90 22 90 36 0 4-48-21-57-21-5 0 4 6 0 6-9 0-42-19-42-7 0 6 12 11 27 11-11 13 6 11 6 18 0 8-22-9-36-9-7 0-9 8 11 15-19-2-15 6 13 17-14-4-22-2-22 1 0 14 98 11 98 31 0 24-38-29-46-5-14-17-29-3-34-7-15-12-32-2-32 2 0 10 57-1 57 17 0 13-58-18-58-4 0 16 111 16 111 37 0 29-28-25-51-4-6-10-18-19-24-6-13-13-44-12-44-4s59 8 59 17c0 5-18-8-23-2s-33-8-33-2c0 21 73 7 73 23 0 20-39-20-38 4-5-3-22-14-20-4-8-4-26-13-26-7 0 9 47 19 59 20-14 0-25 3-24 8-15-12-30-13-30-6-5-3-20-6-20-2s31 17 31 22c0 3-12-3-12 1s12 5 12 8c0 15-50-21-50-1 0 11 19 20 44 20 20 0 35-9 49-9 19 0 27 7 27 11 0 8-24-14-39 4-20-5-33-1-25 10-21-8-38-5-38 1 0 17 81 7 96-1 2 8 10 10 18 4 17-15 6 17 27-3Z" />
</svg>