<svg xmlns="http://www.w3.org/2000/svg" width="1200" height="720">
  <path fill="#0859b9" d="M0 0h1200v720H0Z" />
  <path fill="#faf6f5" d="M0 240h1200v240H0Z" />
  <path fill="#7cd1fc"
    d="m576 388 24-47-33 47zm15 0 9-47-17 47zm-55-5 64-42-55 27zm14-24 50-18-45 9zm9 29 41-47-55 47zm-1-43 42-4-38-3zm97 43-55-47 41 47zm0-20-55-27 64 42zm-10-18-45-9 50 18zm-41 38-4-47-4 47zm13 0-17-47 9 47zm16 0-33-47 24 47zm-33-116-5 8 5 61 5-61zm29 50-29 19 31-15zm-5-8-24 27 27-22zm9 15-33 12 36-7zm-15-26-18 38 22-31zm20 35-38 3 42 4zm-28-49-10 52 15-43zm-37 30 27 22-24-27zm-9 15 36 7-33-12zm5-8 31 15-29-19zm9-16 22 31-18-38zm7-12 15 43-10-52z" />

  <g>
    <path fill="red" d="M542 373h2l1-9-3 5zm26-48a58 58 0 0 1 64 0l2 4a56 56 0 0 0-68 0zm90 44-3-5 1 9h2z" />
    <path fill="#f60" d="M544 373h2l2-14-3 5zm111-9-3-5 2 14h2zm-89-35a56 56 0 0 1 68 0l4 6a54 53 0 0 0-76 0z" />
    <path fill="#fcee21" d="M548 373a52 52 0 0 1 104 0h2l-2-14-14-24a54 54 0 0 0-76 0l-14 24-2 14z" />
    <path fill="#0f0" d="M548 373a52 52 0 0 1 104 0h-2a50 50 0 0 0-100 0z" />
    <path fill="#7cd1fc" d="M550 373a50 50 0 0 1 100 0h-2a48 48 0 0 0-96 0z" />
    <path fill="#003396" d="M552 373a48 48 0 0 1 96 0h-2a46 46 0 0 0-92 0z" />
  </g>

  <g>
    <path fill="#510000" d="M601 345h-7c2 1 3 3 5 4-1 2 .4 5.8 2 3zm5 3h-5v4z" />
    <path fill="#910000" d="m600 336-6 4c0 1 2 1 3 0-1 2-3 3-3 5l4 1h2z" />
    <path fill="red"
      d="M606 348c0-5-1-8-3-10-1-3-4-3-6-2s-3 3-3 4c2 0 2-1 4-2-1 3 1 5 0 8 1.3.4 2.3 1 2 2-.6 2-1.6 5 0 5 3-1 2-5 6-5" />
  </g>

  <path fill="#0859b9" d="M542 373h116l19 31H523Z" />
  <path fill="#3a9646"
    d="M529 396c12 0 24-2 36-2s24 3 36 3 24-3 36-3 24 2 36 2l-8-13c-18-3-23-22-26-27h-5c-1 6-5 11-7 14-3-5-5-9-6-14h-6c-1 7-3 10-6 15-3-4-5-10-6-15h-6q-1.5 7.5-6 15c-4-5-5-10-6-15h-6q-1.5 7.5-6 15c-4-5-5-8-7-15h-6c-3 12-15 28-26 30z" />
  <path fill="#0f7d3a" d="M598 358q-1 7-6 14 8-5 6-14m-22 17q4-8 4-16l-6 14zm-37 12c15 1 20-13 22-27q-3 17-22 27" />
  <path fill="#ffb81c"
    d="M602 357h-1q-2 26 22 26c-13-6-16-10-21-26m2 25q-16-7-20-25h-2c-2 27 14 31 22 29q-12-5-16-16c3 5 9 12 16 12m-18 1q-16-8-21-26h-2q-4 32 23 30-11-6-14-13c2 2 8 9 14 9m51-26h-2q-1 7-7 14l2 2q4-5 6-14 0 8-4 16l3 3q5-11 2-21m-20 2q0 8-4 16l3 2c4-5 3-15 2-20h-2q-1 7-6 15l1 1q5-7 6-14" />
  <path fill="#3a9646"
    d="M603 364c0 4 2 16 13 17q-11-7-13-17m-20-5c0 8 2 20 12 24q-10-11-12-24m-19 0q0 19 15 25-13-10-15-25" />
  <path fill="#b28451"
    d="m600 269-79 136h158zm0 4 75 130H525zm-73.1 167.5 8.9-8.9-1-1-7.7.9 1-7.7-1-1.1-9 8.8 1.6 1.5 6-5.9-.9 6.5 6.7-.6-6.1 5.9zM514.5 427l7-11.8-.9-1.3-13.6 2.4 1.3 1.9 3.2-.5 3.3 4.6-1.7 2.9zm23.8 22.3 1-1.6-4-3 2-2.9 3.9 3 1.2-1.6-4-2.8 2-2.6 4.2 3 1.2-1.5-6-4.5-7.5 10.1zm-22.4-28.6-2.5-3.6 5.2-.9zm36.1 36.8-1.4-6.7c3.8 1.7 7.2-4.4 2.8-6.9l-3.7-2.1-6.2 11 2 1.1 2.7-5 1.5 7.3zm-1.8-8.7-1.5-.8 1.9-3.4 1.6.9c2.9 1.4.8 4.8-2 3.3m8.9 11.7 4.8-11.6-1.9-.8-4.9 11.6zm-55.6-63.2 1.7-.5-4.7-15.5-1.7.5zm71.9 67.4.6-2.2c-2.3.7-4.8.7-6.3-.8-1.8-1.8-1.7-6.4 2.2-7.4 1.8-.5 4.6 1 5.7 2.6l.7-2.3a8 8 0 0 0-6.4-2.4 6.4 6.4 0 0 0-3.7 10.9c1.4 1.4 4.1 2.1 7.2 1.6m17.7 3.7-4.1-13-1.6-.2-7.2 11.7 2.2.3 1.8-2.9 5.7.8.9 3.1zm-3.7-5.2-4.4-.6 2.8-4.4zM504 361.3v-2.2l-5.7-.1 5.8-4.7.2-2.6-5.4 4.3c-1.2-4.7-7.4-4.1-7.4.7l-.1 4.2zm-6.7-2.4-3.9-.1.1-1.8c0-3.2 3.8-2.8 3.8.4zm112.9 108.4c2.3.8 5.5.3 7.4-1.1l-.3-2.4a6 6 0 0 1-6.1 1.7c-3.4-1.2-3.8-5.7-.9-7.7 1.6-1.1 4-.9 6.3.2l-.3-2.3c-2.4-.8-5.5-.8-7.5.6-3.9 2.3-3 9.4 1.4 11M504.8 347l1.3-7.2-1.9-.3-1 5-3.4-.6.8-4.7-1.8-.3-.8 4.7-3.3-.6 1-5-2-.4-1.5 7.2zm119.1 118.9 7-1.8-.5-1.9-5 1.3-.8-3.4 4.6-1.2-.4-1.8-4.7 1.2-.8-3.1 5-1.3-.5-1.9-7.1 1.8zM507.4 334.3l.7-2-4.5-1.4.7-2.1c1.8-5.5-5.8-7.1-7.5-2.2l-1.4 4zm-5.6-3.9-3.9-1.2.6-1.7c1.1-3.1 4.9-1.9 3.9 1.1zm135.3 131.7 2-.8-3.3-8 9.8 5.2 1.5-.6-4.9-11.5-2 .8 3.4 8.1-9.9-5.3-1.5.6zM507.8 319.5c5.2 2.7 10.3-5.6 4.3-8.7l-7-3.6-1 2 7.1 3.5c3.3 1.6.8 6.6-2.4 4.9l-7.1-3.6-1 1.9zm148 133.5 1.8-1-5.5-9 3.4-2.1-1-1.7-8.6 5.3 1 1.7 3.4-2.1zM519.3 307.8l2.7-3.8c2.7-3.6-.7-8-4.3-5.3.7-3.3-3.8-4.7-6.3-1.3l-2.3 3.1zm-4.6-6-2.7-2 1-1.4c1.3-2.3 4.3-.3 2.8 1.9zm4.3 3.1-2.9-2.1 1.3-1.9c2-2.3 4.5-.8 3.1 2zm146.8 141.5 1.7-1.4-3.7-4.4 7.4 1.3 2-1.6-6.7-1.2c2.9-3.1-1.6-8.1-5.4-5l-3.3 2.7zm-2.6-6.5-2.5-3 1.4-1.2c2.5-1.7 4.5 1 2.4 3.1zM528 296.4l5-5.3-1.4-1.4-3.5 3.8-7.7-7.3-1.4 1.6zm148.3 141.1 1.5-1.7-1.3-3.1 3.9-4.2 3.1 1 1.5-1.7-13.2-4.2-1 1.2zm-.8-6.4-1.9-4.9 4.9 1.6zM536.8 287.7l1.6-1.4-8.1-9.5-1.7 1.4zm151.5 135.5 4-6-1.5-1.1-3 4.3-8.7-5.9-1.2 1.7zM544.7 280.4c3 0 5.3-2.1 6.3-4.3l-1.3-2c-.4 1.9-2.6 4.3-4.9 4.3-2 0-4.6-1.9-4.6-4.2-.1-3.8 4.2-5.2 6.3-4.9l-1.3-2c-4.1.3-7.1 3-7.1 7.2a6.6 6.6 0 0 0 6.6 5.9m10.5-5.5 2.1-1v-3.3l5.2-2.3 2.5 2.2 2.1-.9-10.3-9.2-1.4.7zm2-6.2v-5.3l4 3.5zm138.9 129.8 4.8-15.5-1.7-.5-4.8 15.4zM585.4 265l4.6-.5c8.6-.9 7.2-13.3-1.4-12.4l-4.4.4zm2-2.2-.9-8.6 2.5-.2c5.4-.5 6.2 8.1.8 8.6zm108.8 99.9 12.2-6.3v-1.5l-12.7-5.3.1 2.3 2.9 1.3.2 5.8-2.8 1.4zm4.6-4.5-.1-4.4 4.8 2zm-92.5-93.9.1-2-5.2-.2.2-3.5 4.8.2.1-1.9-4.9-.2.2-3.2 5.2.2.1-2-7.4-.3-.5 12.5zm91.4 81.1 7.8-1.5-.4-2.1-8 1.6c-3.4.7-4.4-4.7-1-5.3l7.9-1.6-.4-2.1-7.8 1.5c-6.3 1.2-4.4 10.7 1.9 9.5m-6.1-13.5 5-1.8-2-5.5-1.8.7 1.3 3.4-2.2.9c-.3-.3-1.4-1.9-1.7-2.6-2.3-5.9 6.1-8.6 8.4-2.7q.8 2.1 0 4.3l2.2-.8a9 9 0 0 0-.4-4.3c-.8-2.5-4.4-5.9-8.5-4.2-4 1.5-4.6 5.8-3.7 8.2.4 1.3 2.3 3.6 3.4 4.4m-53.8-59.4 4.5-11.7-2-.8-3.1 8.1-3.4-10.7-1.5-.5-4.5 11.7 2 .7 3.2-8 3.4 10.6zm47.3 46.5 8.2-11-.8-1.4-13.7 1.1 1.1 2 3.2-.3 2.8 5.1-1.9 2.5zm-40.7-43.1 6-11-1.8-1-6 11zm42.8 37-2.1-3.9 5.2-.3zm-17.9-17.6 4.5-13-1.1-1-12.8 5 1.6 1.6 3.1-1.2 4.1 4-1.1 3.1zm-11.4-11.9 1.4-2q-3.7.6-5.8-2.7c-1.6-2.8 1.2-6.6 4.4-6.3 2.2.2 4.1 2.5 4.6 4.4l1.4-2c-1.1-2.1-3.6-4.4-6-4.5-5.2-.3-8.2 5-6.3 9.2a7 7 0 0 0 6.3 3.9m19.6 22.5 1.3-6.7c3.2 2.8 8.4-1.3 5.3-5.2l-2.5-3.4-10 7.6 1.3 1.7 4.5-3.4-1.5 7.3zm-8-17-3.2-3.1 5-1.8zm9.7 8.2-1-1.3 3.1-2.3 1.1 1.4c1.8 2.6-1.2 4.7-3.2 2.2" />
</svg>