<svg xmlns="http://www.w3.org/2000/svg" width="1200" height="720">
  <path fill="#012169" d="M0 0h1200v720H0Z" />
  <path fill="#fff"
    d="m600 34-154 96h154v100H446l154 96v34h-67L350 243v117H250V243L62 360H0v-34l154-96H0V130h154L0 34V0h67l183 117V0h100v117L538 0h62Zm301.29 74 31 97-83-60h104l-83 60Zm131 119 28 86-73-53h90l-73 53Zm-283 34 31 97-83-60h104l-83 60Zm152 236 35 108-93-66h116l-93 66Z" />
  <path fill="#c40f38"
    d="M174 130 0 22V0l212 130ZM330 0h-60v150H0v60h270v150h60V210h270v-60H330Zm270 0h-38L350 130h38ZM0 360h38l212-130h-38Zm388-130 212 130v-22L426 230Zm513.29-103 20 62-53-38h66l-53 38Zm131 119 17 52-44-32h54l-44 32Zm-283 34 20 62-53-38h66l-53 38Zm152 237 24 73-63-45h78l-63 45Z" />
</svg>