<svg xmlns="http://www.w3.org/2000/svg" xmlns:xlink="http://www.w3.org/1999/xlink" width="1200" height="720"
  fill="#ffffff">
  <path fill="#DF1A23" d="M0 0h1200v720H0z" />
  <path d="M400 0h800v240H400z" />
  <path fill="#007E3C" d="M400 480h800v240H400z" />


  <path id="a"
    d="M291,245c9,0-9-11-28-28l-14,7l14-6c18,16,34,26,28,26c-4,0-25-6-41-18c14,12,37,19,41,19ZM247,223c-35-28-63-61-83-91l-2,1c-21-35-42-79-37-82s30,36,52,74l-11,6l10-4c22,31,54,66,85,89ZM164,130l10-5l-8-13l-10,5ZM164,129l-7-11l8,3l-8-4l8-4v8l1-8l7,11l-8-3l7,4l-7,4v-8ZM291,246c-4,0-28-7-45-22l17-8c20,18,40,30,28,30ZM163,131c-14-25-22-40-32-62c2,0,5-1,6-4c8,11,18,26,29,45l-11,6l11-5l8,12c-16-28-43-73-48-70c-4,2,17,46,37,78ZM131,68c-2-4-5-12-4-13s6,3,9,9c0,2-3,4-5,4ZM132,65c3,0,3-4,0-4s-3,4,0,4ZM128,144v2l-1,1v1l-2,2h-2l-1,1h-2l-1-1h-2l-2-2v-1l-1-1v-2l1-1v-1l2-2h2l1-1h2l1,1h2l2,2v1ZM138,150v-10h3v-4c0-2-1-3-3-3h-34c-2,0-3,1-3,3v18c0,2,1,3,3,3h34c2,0,3-1,3-3v-4ZM118,145c0-3,6-3,6,0s-6,3-6,0ZM125,145c0-4-8-4-8,0s8,4,8,0ZM153,149v-8h-1c2-5,11-5,13,0h3c-2-8-17-8-19,0h-10v8h10c2,8,17,8,19,0h-3c-2,5-11,5-13,0ZM116,142l1-1h2l1-1h2l1,1h2l1,1v1l1,1v2l-1,1v1l-1,1h-2l-1,1h-2l-1-1h-2l-1-1v-1l-1-1v-2l1-1ZM103,135l2-1l2,1l2-1l2,1l2-1l2,1l2-1l2,1l2-1l2,1l2-1l2,1l2-1l2,1l2-1l2,1l2-1l2,1v1l-2,1l-2-1l-2,1l-2-1l-2,1l-2-1l-2,1l-2-1l-2,1l-2-1l-2,1l-2-1l-2,1l-2-1l-2,1l-2-1l-2,1l-2-1ZM104,135v1h2v-1ZM108,135v1h2v-1ZM112,135v1h2v-1ZM116,135v1h2v-1ZM120,135v1h2v-1ZM124,135v1h2v-1ZM128,135v1h2v-1ZM132,135v1h2v-1ZM136,135v1h2v-1ZM103,154l2-1l2,1l2-1l2,1l2-1l2,1l2-1l2,1l2-1l2,1l2-1l2,1l2-1l2,1l2-1l2,1l2-1l2,1v1l-2,1l-2-1l-2,1l-2-1l-2,1l-2-1l-2,1l-2-1l-2,1l-2-1l-2,1l-2-1l-2,1l-2-1l-2,1l-2-1l-2,1l-2-1ZM104,154v1h2v-1ZM108,154v1h2v-1ZM112,154v1h2v-1ZM116,154v1h2v-1ZM120,154v1h2v-1ZM124,154v1h2v-1ZM128,154v1h2v-1ZM132,154v1h2v-1ZM136,154v1h2v-1Z" />


  <use xlink:href="#a" transform="matrix(-1 0 0 1 400 0)" />

  <path fill="#DF1A23"
    d="M139,159l-1,33h55c19,0,25-17,25-29v-58h-36v53l-1,1ZM163,141v8h6c2,4,8,4,9,2c1,2,2,4,6,4h33c4,0,6-2,6-6h14v-8h-14c0-8-12-8-13-1h-20c-1-7-10-7-12-1c-1-2-7-2-9,2Z" />

  <path
    d="M175,191l-1-5l-4,4l4-5v-6l-9,10l9-11v-7l-15,17l15-18l2-9l-23,26l22-26h-5l-23,25l22-25h-5l-23,24l22-24h-5l-23,23l22-23l-7,1l-16,16l15-16l-7,1l-8,8l7-8l-7,1c-2,7-2,15,0,22c14,3,27,5,41,5ZM127,184l-1-4l-7-6l-4,2l3-3l-3-3l4,2l7-4l1-3c-23,3-23,11,0,19ZM126,179c-1-4-1-6,0-10l-7,4ZM133,186c-2-7-2-15,0-22l-5,1c-2,8-2,12,0,19ZM181,191l1-1l-1-1ZM182,191h2l-1-1ZM184,190l1-1l-2-2l-1,1ZM181,188l1-1l-2-2v2ZM185,191h2l-1-1ZM181,185l1-1l-2-2l-1,1ZM184,187l1-1l-2-2l-1,1ZM187,190l1-1l-2-2l-1,1ZM188,191h2l-1-1ZM181,182l1-1l-2-2l-1,1ZM176,191h4c-3-12-2-19,0-30h-3c-3,11-4,18-1,30ZM184,184l1-1l-2-2l-1,1ZM187,187l1-1l-2-2l-1,1ZM190,190l1-1l-2-2l-1,1ZM191,191h2l-1-1ZM181,179l1-1l-2-2l-1,1ZM184,181l1-1l-2-2l-1,1ZM187,184l1-1l-2-2l-1,1ZM190,187l1-1l-2-2l-1,1ZM193,190l1-1l-2-2l-1,1ZM194,191h2l-1-1ZM181,176l1-1l-2-2l-1,1ZM184,178l1-1l-2-2l-1,1ZM187,181l1-1l-2-2l-1,1ZM190,184l1-1l-2-2l-1,1ZM193,187l1-1l-2-2l-1,1ZM196,190l1-1l-2-2l-1,1ZM197,191h2l-1-1ZM181,173l1-1l-2-2l-1,1ZM184,175l1-1l-2-2l-1,1ZM187,178l1-1l-2-2l-1,1ZM190,181l1-1l-2-2l-1,1ZM193,184l1-1l-2-2l-1,1ZM196,187l1-1l-2-2l-1,1ZM199,190l1-1l-2-2l-1,1ZM184,172l1-1l-2-2l-1,1ZM181,170l1-1l-2-2v2ZM187,175l1-1l-2-2l-1,1ZM190,178l1-1l-2-2l-1,1ZM193,181l1-1l-2-2l-1,1ZM196,184l1-1l-2-2l-1,1ZM199,187l1-1l-2-2l-1,1ZM202,190l1-1l-2-2l-1,1ZM184,169l1-1l-2-2l-1,1ZM181,167l1-1l-1-1l-1,1ZM187,172l1-1l-2-2l-1,1ZM190,175l1-1l-2-2l-1,1ZM193,178l1-1l-2-2l-1,1ZM196,181l1-1l-2-2l-1,1ZM199,184l1-1l-2-2l-1,1ZM202,187l1-1l-2-2l-1,1ZM204,189l1-1l-1-1l-1,1ZM184,166l1-1l-2-2l-1,1ZM187,169l1-1l-2-2l-1,1ZM190,172l1-1l-2-2l-1,1ZM193,175l1-1l-2-2l-1,1ZM205,187l1-1l-2-2l-1,1ZM196,178l1-1l-2-2l-1,1ZM199,181l1-1l-2-2l-1,1ZM202,184l1-1l-2-2l-1,1ZM181,163l1-1l-1-1ZM184,163l1-1l-2-2l-1,1ZM187,166l1-1l-2-2l-1,1ZM190,169l1-1l-2-2l-1,1ZM193,172l1-1l-2-2l-1,1ZM205,184l1-1l-2-2l-1,1ZM207,186l1-1l-1-1l-1,1ZM196,175l1-1l-2-2l-1,1ZM199,178l1-1l-2-2l-1,1ZM202,181l1-1l-2-2l-1,1ZM187,163l1-1l-2-2l-1,1ZM190,166l1-1l-2-2l-1,1ZM193,169l1-1l-2-2l-1,1ZM205,181l1-1l-2-2l-1,1ZM208,184l1-1l-2-2l-1,1ZM196,172l1-1l-2-2l-1,1ZM199,175l1-1l-2-2l-1,1ZM202,178l1-1l-2-2l-1,1ZM184,160l1-1l-2-2v2ZM187,160l1-1l-2-2l-1,1ZM190,163l1-1l-2-2l-1,1ZM193,166l1-1l-2-2l-1,1ZM205,178l1-1l-2-2l-1,1ZM208,181l1-1l-2-2l-1,1ZM210,183l1-1l-1-1l-1,1ZM196,169l1-1l-2-2l-1,1ZM199,172l1-1l-2-2l-1,1ZM202,175l1-1l-2-2l-1,1ZM175,151c3,0,5-2,5-6s-2-6-5-6c-2,0-4,1-5,3h-6v6h6c1,2,3,3,5,3ZM184,157l1-1l-2-2v2ZM175,149c-2,0-3-1-3-4s1-4,3-4s3,1,3,4s-1,4-3,4ZM176,148c1-1,1-2,1-4c0-3-4-3-4,0ZM187,157l1-1l-2-2l-1,1ZM190,160l1-1l-2-2l-1,1ZM193,163l1-1l-2-2l-1,1ZM205,175l1-1l-2-2l-1,1ZM208,178l1-1l-2-2l-1,1ZM211,181l1-1l-2-2l-1,1ZM196,166l1-1l-2-2l-1,1ZM199,169l1-1l-2-2l-1,1ZM202,172l1-1l-2-2l-1,1ZM190,157l1-1l-2-2l-1,1ZM193,160l1-1l-2-2l-1,1ZM205,172l1-1l-2-2l-1,1ZM208,175l1-1l-2-2l-1,1ZM211,178l1-1l-2-2l-1,1ZM196,163l1-1l-2-2l-1,1ZM199,166l1-1l-2-2l-1,1ZM202,169l1-1l-2-2l-1,1ZM212,179h1v-1ZM193,157l1-1l-2-2l-1,1ZM190,154l1-1l-1-1l-1,1ZM205,169l1-1l-2-2l-1,1ZM208,172l1-1l-2-2l-1,1ZM211,175l1-1l-2-2l-1,1ZM196,160l1-1l-2-2l-1,1ZM199,163l1-1l-2-2l-1,1ZM202,166l1-1l-2-2l-1,1ZM213,177l1-1l-1-1l-1,1ZM179,151c0,3,10,5,10-2v-8c0-7-10-5-10-2l1,2c0-4,7-4,7,0v8c0,4-7,4-7,0ZM181,148h5v-6h-5ZM193,154l1-1l-2-2l-1,1ZM205,166l1-1l-2-2l-1,1ZM208,169l1-1l-2-2l-1,1ZM211,172l1-1l-2-2l-1,1ZM196,157l1-1l-2-2l-1,1ZM199,160l1-1l-2-2l-1,1ZM202,163l1-1l-2-2l-1,1ZM214,175l1-1l-2-2l-1,1ZM190,151l1-1l-1-1ZM193,151l1-1l-1-1h-2ZM205,163l1-1l-2-2l-1,1ZM208,166l1-1l-2-2l-1,1ZM211,169l1-1l-2-2l-1,1ZM196,154l1-1l-2-2l-1,1ZM199,157l1-1l-2-2l-1,1ZM202,160l1-1l-2-2l-1,1ZM214,172l1-1l-2-2l-1,1ZM215,173h1v-1ZM196,151l1-1l-1-1h-2ZM216,171v-2l-1,1ZM205,160l1-1l-2-2l-1,1ZM208,163l1-1l-2-2l-1,1ZM211,166l1-1l-2-2l-1,1ZM199,154l1-1l-2-2l-1,1ZM202,157l1-1l-2-2l-1,1ZM214,169l1-1l-2-2l-1,1ZM199,151l1-1l-1-1h-2ZM205,157l1-1l-2-2l-1,1ZM208,160l1-1l-2-2l-1,1ZM211,163l1-1l-2-2l-1,1ZM202,154l1-1l-2-2l-1,1ZM214,166l1-1l-2-2l-1,1ZM216,168l1-1l-1-1l-1,1ZM190,141h1l-1-1ZM190,139l1-1h-2ZM190,148h13v-6h-13ZM205,154l1-1l-2-2l-1,1ZM202,151l1-1l-1-1h-2ZM208,157l1-1l-2-2l-1,1ZM211,160l1-1l-2-2l-1,1ZM214,163l1-1l-2-2l-1,1ZM216,165l1-1l-1-1l-1,1ZM192,141h2l-2-2l-1,1ZM186,135c-2,0-2-3,0-3s2,3,0,3ZM193,139l1-1h-2ZM217,163v-2l-1-1l-1,1ZM208,154l1-1l-2-2l-1,1ZM205,151l1-1h-2ZM211,157l1-1l-2-2l-1,1ZM214,160l1-1l-2-2l-1,1ZM195,141h2l-2-2l-1,1ZM211,154l1-1l-2-2l-1,1ZM208,151l1-1h-2ZM214,157l1-1l-2-2l-1,1ZM217,160v-2l-1-1l-1,1ZM190,134c0-2,3-2,3,0s-3,2-3,0ZM198,141h2l-2-2l-1,1ZM196,139l1-1h-2ZM217,157v-2h-2ZM201,141h2l-2-2l-1,1ZM199,139l1-1h-2ZM183,136c11,2,23,2,34,0v-6c-11,2-23,2-34,0ZM197,136c-2,0-2-3,0-3s2,3,0,3ZM204,149h9v-8h-9ZM202,139l1-1h-2ZM211,149c0,7,11,7,11,0h-2c0,4-7,4-7,0ZM203,140h2l-1-1ZM205,139l1-1h-2ZM217,151v-2l-1-1l-1,1ZM206,140h2l-1-1ZM186,120c-2,0-2-3,0-3s2,3,0,3ZM214,148l1-1l-1-1ZM203,136c-2,0-2-3,0-3s2,3,0,3ZM182,151v-2h-1c0,1,0,1,1,2ZM217,148v-2l-1-1l-1,1ZM208,139l1-1h-2ZM209,140h1v-1ZM214,145l1-1l-1-1ZM183,130c11,1,23,1,34,0v-4c-11,2-23,2-34,0ZM217,145v-2l-1-1l-1,1ZM190,119c0-2,3-2,3,0s-3,2-3,0ZM214,142l1-1l-1-1ZM207,134c0-2,3-2,3,0s-3,2-3,0ZM217,142v-2l-1-1l-1,1ZM183,126c11,1,23,1,34,0v-4c-11,2-23,2-34,0ZM197,121c-2,0-2-3,0-3s2,3,0,3ZM211,141h2c0-4,7-4,7,0h2c0-7-11-7-11,0ZM182,141v-2c-1,1-1,1-1,2ZM214,135c-2,0-2-3,0-3s2,3,0,3ZM190,112c4,0,4-5,0-5s-4,5,0,5ZM218,148h18v-6h-18ZM183,122c11,1,23,1,34,0v-7c-11,2-23,2-34,0ZM187,112c-2-1-2-6,3-6s5,5,3,6h3c-2-1-1-5,1-6c-3-1-4-2-5-4c-2,2-5,4-9,5v4ZM203,121c-2,0-2-3,0-3s2,3,0,3ZM183,114c11,2,23,2,34,0v-3c-11,3-23,3-34,0ZM207,119c0-2,3-2,3,0s-3,2-3,0ZM200,113c5,0,5-7,0-7s-5,7,0,7ZM214,120c-2,0-2-3,0-3s2,3,0,3ZM193,101c1,6,13,6,14,0ZM193,100h14v-5h-14ZM204,112h3c-2-1-2-6,3-6s5,5,3,6l4-1v-4c-4-1-7-3-9-5c-1,2-2,3-5,4c2,1,3,5,1,6ZM210,112c4,0,4-5,0-5s-4,5,0,5ZM194,94h12v-5h-12ZM194,88h12v-5h-12ZM195,82h10v-7h-10ZM184,63c4,0,4-5,0-5s-4,5,0,5ZM195,74h10v-3c-3,1-7,1-10,0ZM188,66c3-2,3-9,0-11l-2,2c3,1,3,6,0,7ZM191,68c3-4,3-11,0-15l-3,2c4,2,4,9,0,11ZM191,68c4,3,14,3,18,0c-4-3-4-12,0-15c-2-1-4-2-5-2c-1,4-7,4-8,0c-1,0-3,1-5,2c4,3,4,12,0,15ZM200,64c-6,0-6-7,0-7s6,7,0,7ZM200,63c4,0,4-5,0-5s-4,5,0,5ZM209,68l3-2c-4-2-4-9,0-11l-3-2c-3,4-3,11,0,15ZM200,53c4,0,4-5,0-5s-4,5,0,5ZM212,66l2-2c-3-1-3-6,0-7l-2-2c-3,2-3,9,0,11ZM216,63c4,0,4-5,0-5s-4,5,0,5ZM184,151l1-1l-1-1l-1,1ZM184,141l1-1l-1-1l-1,1Z" />

</svg>