<svg xmlns="http://www.w3.org/2000/svg" xmlns:xlink="http://www.w3.org/1999/xlink" width="1200" height="720"
  fill="#630810">
  <path fill="#ce1126" d="m0 0h1200v720H0V0Z" />
  <path fill="#fff" d="m0 180h1200v360H0V180Z" />
  <path fill="#ff9c10"
    d="M562 325v-19l-49-80c-11 7-20 15-29 24l16 17h38v9c0 3-1 5-3 6c4 2 4 10 0 12c2 1 3 3 3 6ZM442 384h58v-31l-60-4c-1 9 0 26 2 35ZM500 345v-24l-49-20c-4 11-8 23-9 36ZM500 312c0-3 1-5 3-6c-4-2-4-10 0-12c-4-2-4-10 0-12l-27-23c-8 9-14 20-20 31ZM538 343h18l-18-8ZM562 342v-11l-24-22v1v18ZM562 295v-67l-4-22c-12 3-24 8-35 14ZM644 343h18v-8ZM638 342l24-14v-18v-1l-24 22ZM700 384h58c2-9 3-26 2-35l-60 4ZM638 325l24-25c0-3 1-5 3-6c-4-2-4-10 0-12c-2-1-3-3-3-6v-9h38l16-17c-9-9-18-17-29-24l-49 80ZM638 295l39-75c-11-6-23-11-35-14l-14 46h10ZM700 345l58-8c-1-13-5-25-9-36l-49 20ZM700 312l44-22c-6-11-12-22-20-31l-27 23c4 2 4 10 0 12c4 2 4 10 0 12c2 1 3 3 3 6Z" />


  <path d="M534 385h132v-4h-132ZM631 343v-84c-35 0-35-52 0-52v-3c-28-9-54 1-62 19v106Z" />
  <path fill="#ce1126" d="M627 338v-75c-32-4-36-50-5-58c-24-4-42 4-49 19v102Z" />
  <path id="a" d="M593 375l7-8l7 8l3-3l-7-8l8-7l-3-3l-6 6v-10h-4v10l-6-6l-3 3l8 7l-7 8Z" />
  <g id="b">
    <!-- <path fill="#083d9c"
      d="M476 462h126l-2-8c-11 0-21-13-32-13s-21 13-32 13s-21-13-32-13s-25 13-34
      13ZM459 436h60c-4-3-8-7-10-10c-1 1-4 2-6 2c-9 0-20-13-31-13c-7 0-14 3-19
      8ZM448 410h54c-1-4-2-11-2-20c-9 2-17 12-28 12c-10 0-20-10-29-12c1 6 3 14 5
      20ZM600 520l2-14h-2c-11 0-21-13-32-13s-24 13-34 13c16 8 42 14 66 14ZM504
      488h98l-2-21c-11 0-21 13-32 13s-21-13-32-13s-21 13-32 13c-6
      0-14-4-17-6ZM575 436h27l-2-21c-14 0-15 15-25 21ZM592 410h10l-2-7c-3 0-7
      2-8 7Z" /> -->
    <path fill="#083d9c"
      d="M476 462h126l-2-8c-11 0-22-13-33-13s-22 13-33 13s-22-13-33-13s-23 13-31 13ZM459 436h60c-7-3-20-21-34-21c-12 0-20 12-30 12ZM448 410h54c-1-4-2-11-2-20c-9 2-17 12-28 12c-10 0-20-10-29-12c1 6 3 14 5 20ZM600 520l2-14h-2c-11 0-22-13-33-13s-23 13-33 13c16 8 42 14 66 14ZM504 488h98l-2-21c-11 0-22 13-33 13s-22-13-34-13c-13 0-21 13-38 13ZM575 436h27l-2-20c-14 0-15 14-25 20ZM592 410h10l-2-8c-3 0-7 3-8 8Z" />
    <use xlink:href="#a" x="-25" />
    <use xlink:href="#a" x="-50" />
    <path
      d="M546 439c24 0 40-17 40-42h-2c-6 8-17 13-29 13c-15 0-24-5-24-18v-80c0-3-5-3-5-6s5-3 5-6s-5-3-5-6s5-3 5-6s-5-3-5-6s5-3 5-6v-3h-24v3c0 3 5 3 5 6s-5 3-5 6s5 3 5 6s-5 3-5 6s5 3 5 6s-5 3-5 6v86c0 24 16 41 39 41ZM561 390l-20 12c13 7 33 4 44-12Z" />
    <path fill="#ce1126"
      d="M546 435c20 0 35-12 37-32c-3 4-15 11-28 11c-16 0-28-7-28-22v-80c-6-3-6-9 0-12c-6-3-6-9 0-12c-6-3-6-9 0-12h-16c6 3 6 9 0 12c6 3 6 9 0 12c6 3 6 9 0 12v86c0 22 14 37 35 37Z" />
  </g>
  <use xlink:href="#b" transform="matrix(-1 0 0 1 1200 0)" />
</svg>