<svg xmlns="http://www.w3.org/2000/svg" width="1200" height="720">
  <path fill="#000" d="m0 0h1200v720H0Z" />
  <path fill="#f9da48" d="M0 120h1200v180H0zm0 360h1200v240H0z" />
  <path fill="#cd2c19" d="M0 240h1200v120H0zm0 360h1200v120H0z" />
  <circle fill="#fff" cx="600" cy="360" r="112" />
  <path fill="#000"
    d="M588 284c-3 0-3-4 0-4s3 4 0 4m41 95q-3 1-8-9-4 10-8-2c-6 9-25-13-19-28q4 9 11 15l2-3q3 6 10 10l1-3c7 3 14 19 11 20m-22 33v-15q9 6 9 12 0 5-9 3m68-13c0-33-41-70-63-70-10 0-11 7-18 7q-7-1-7-9c0-17 24-36 20-49l13-4c-5-27-51-27-56 0l13 4q-2 3-2 5c0 2-13 1-16 10 7-4 16-3 19-3q-9 1-16 3c2 3 12-1 16 1-4 6 0 15 8 11-20 22-31 44-18 64l2-3q8 13 21 19l8 8 2 18c-26-2-49-6-45 22h1l3-9q1 6 4 9l2-12q0 6 3 8 4-12 13-14l19 1 1 35c-6 2-24-5-28 5l11-2c-4 1-12 2-13 9q10-5 19-6c-3 2-9 8-8 11q6-5 15-9c12 2 16-7 29-3q-4-5-18-5c-2-15-2-33-2-35 10 0 22 1 22-3q-1-3-3-5c-3-3-9-12-7-16s16 0 26 2c6 14 12 21 14 13q5 8 9-2c5 5 7 0 7-6" />
  <path fill="#cd2c19"
    d="M641 383q9 9 11-2 8 3 6-5 8 0 6-7c5 8 10 22 10 30s-4 9-6 2c-2 8-6 13-9 2-2 15-9-1-18-20m-35-106-4-4 8-12q6 5 8 12zm-28 0-12-4q2-7 8-12l8 12zm5 28c-6 0-7-7-3-11q7 0 8 5 0 5-5 6" />
  <path fill="#f9da48"
    d="M658 361c8 8 6 17-2 13q4 9-5 5 0 12-10 2c-4 8-9 1-10-4s-3-10-6-14l9 3v-5l9 3v-5l9 3v-4zm-75-89-7-12c9-6 23-6 32 0l-7 12q-9-4-18 0" />
  <path fill="#9ca69c"
    d="M590 279c5 4-1 9-6 5l-3 2q3 5 12 6c9 1 9-3 9-8s-5-9-12-5m0 28c-16 16-23 39-15 53v-5l3 1v-5l3 1v-5l3 1v-5l3 1c-6-9-6-26 4-37z" />
</svg>