<svg xmlns="http://www.w3.org/2000/svg" width="1200" height="720">
  <path fill="#000" d="m0 0h1200v720H0Z" />
  <path fill="#f9da48" d="m0 120h1200v180H0Zm0 360h1200v240H0Z" />
  <path fill="#cd2c19" d="m0 240h1200v120H0Zm0 360h1200v120H0Z" />
  <circle fill="#fff" cx="600" cy="360" r="112" />
  <path fill="#000"
    d="m588 284c-3 0-3-4 0-4s3 4 0 4Zm5 8c-5 0-11-3-12-6l3-2c5 4 11-1 6-5 7-4 12 0 12 5s-4 8-9 8Zm-18 68c-8-14-1-37 15-53h1c-10 11-10 28-4 37l-3-1v5l-3-1v5l-3-1v5l-3-1v5Zm54 19c-2 1-5-3-8-9-2 7-6 6-8-2-6 9-25-13-19-28 2 5 7 12 11 15l2-3c1 3 6 8 10 10l1-3c7 3 14 19 11 20Zm-22 33v-15c6 3 9 9 9 12 0 4-3 4-9 3Zm68-13c0-33-41-70-63-70-10 0-11 7-18 7-5 0-7-4-7-9 0-17 24-36 20-49l13-4c-5-27-51-27-56 0l13 4c-2 2-1 3-2 5s-13 1-16 10c7-4 16-3 19-3-5 1-12 1-16 3 2 3 12-1 16 1-4 6 0 15 8 11-20 22-31 44-18 64l2-3c4 8 13 16 21 19l8 8c1 4 2 13 2 18-26-2-49-6-45 22h1l3-9c1 4 2 7 4 9 0-6 1-10 2-12 0 3 1 7 3 8 4-7 6-14 13-14 8 0 17 1 19 1 1 7 1 24 1 35-6 2-24-5-28 5 3-1 8-2 11-2-4 1-12 2-13 9 6-4 14-5 19-6-3 2-9 8-8 11 4-3 9-7 15-9 12 2 16-7 29-3-2-4-10-5-18-5-2-15-2-33-2-35 10 0 22 1 22-3 0-2-2-4-3-5-3-3-9-12-7-16s16 0 26 2c6 14 12 21 14 13 3 6 7 4 9-2 5 5 7 0 7-6Z" />
  <path
    d="m641 383c5 6 10 5 11-2 5 2 8 0 6-5 6 1 7-3 6-7 5 8 10 22 10 30s-4 9-6 2c-2 8-6 13-9 2-2 15-9-1-18-20Zm-35-106c-1-2-2-3-4-4l8-12c4 3 7 8 8 12l-12 4Zm-28 0l-12-4c1-4 4-9 8-12l8 12c-2 1-3 2-4 4Zm5 28c-6 0-7-7-3-11 4 0 8 1 8 5 0 3-2 6-5 6Z"
    fill="#cd2c19" />
  <path
    d="m658 361c8 8 6 17-2 13 3 6 1 8-5 5 0 7-4 10-10 2-4 8-9 1-10-4s-3-10-6-14c3 2 6 3 9 3v-5c3 2 6 3 9 3v-5c3 2 6 3 9 3v-4c1 0 4 1 6 3Zm-75-89l-7-12c9-6 23-6 32 0l-7 12c-5-3-13-3-18 0Z"
    fill="#f9da48" />
</svg>